
<svg
   version="1.1"
   id="svg9174"
   width="1920"
   height="960"
   viewBox="0 0 1920 960"
   xmlns="http://www.w3.org/2000/svg"
>
  <g
     id="g9180"
     transform="translate(-179.78458,-11.195617)">
    <g
       id="g9664"
       transform="translate(179.78458,11.195617)">
      <path
         style="fill:#e4e4e4;stroke-width:0.96"
         d="m 1742.9885,198.10194 c -22.1691,-5.35586 -41.78,-22.98894 -49.5749,-44.57493 -16.4895,-45.66416 17.0679,-93.91475 65.37,-93.992271 15.7658,-0.02531 27.0435,3.171045 39.2964,11.137425 16.9372,11.011937 27.9036,28.212617 31.2515,49.017096 5.5853,34.71005 -17.5847,69.37977 -52.1965,78.10261 -8.8629,2.23362 -25.5571,2.38522 -34.1465,0.31007 z M 550.1279,164.01398 C 539.63764,162.10002 529.24831,153.73676 524.33286,143.24935 522.10815,138.5028 521.76,136.52591 521.76,128.64 c 0,-7.88591 0.34815,-9.8628 2.57286,-14.60935 5.01222,-10.6939 15.208,-18.780769 26.22714,-20.80228 6.83377,-1.253686 348.7457,-1.226152 356.09952,0.02868 15.09906,2.576451 26.30318,13.79537 29.37614,29.41494 3.71014,18.85823 -9.91031,38.03063 -29.37614,41.35044 -6.9107,1.17859 -350.07011,1.17046 -356.53162,-0.009 z m -413.58511,-7.53812 c -5.98263,-1.25811 -15.10608,-6.43549 -19.06771,-10.82055 -1.89735,-2.10014 -4.78941,-6.67972 -6.4268,-10.17687 -2.59724,-5.54718 -2.97708,-7.39956 -2.97708,-14.51844 0,-7.11888 0.37984,-8.97126 2.97708,-14.51844 4.13361,-8.828578 8.79411,-13.624323 17.34878,-17.852276 6.62855,-3.276005 7.86661,-3.560608 15.48378,-3.559397 7.25058,0.0012 9.06912,0.371179 14.6376,2.978392 8.82858,4.133617 13.62432,8.794108 17.85228,17.348781 3.28723,6.65128 3.56071,7.84963 3.56071,15.60294 0,7.75331 -0.27348,8.95166 -3.56071,15.60294 -4.1703,8.438 -9.03415,13.22742 -17.37228,17.10643 -6.57168,3.05723 -15.78677,4.20893 -22.45565,2.80649 z"
         id="path9672" />
      <path
         style="fill:#20e53c;stroke-width:0.96"
         d="M 985.44,164.72734 C 971.04931,161.16153 960.96864,150.43181 958.04434,135.568 954.40284,117.05862 967.39613,98.292557 986.68723,94.199403 990.33734,93.424929 1036.8586,93.12 1151.3655,93.12 c 141.1375,0 160.2527,0.17228 165.3128,1.489921 10.9269,2.845353 19.3316,9.617059 24.1735,19.476809 2.4032,4.89367 2.6682,6.43435 2.6682,15.51327 0,9.07892 -0.265,10.6196 -2.6682,15.51327 -4.8419,9.85975 -13.2466,16.63146 -24.1735,19.47681 -5.0669,1.3194 -24.0736,1.48058 -166.08,1.40827 -124.0715,-0.0632 -161.44444,-0.35077 -165.1583,-1.27101 z"
         id="path9670" />
      <path
         style="fill:#414141;stroke-width:0.96"
         d="M 0,473.28 V 256.32 h 960 960 V 473.28 690.24 H 960 0 Z M 1755.6,199.93708 c 2.244,-0.20211 5.916,-0.20211 8.16,0 2.244,0.20212 0.408,0.36749 -4.08,0.36749 -4.488,0 -6.324,-0.16537 -4.08,-0.36749 z m -13.38,-1.87287 c 0.693,-0.27731 1.521,-0.24321 1.84,0.0757 0.319,0.319 -0.248,0.54589 -1.26,0.50421 -1.1184,-0.0461 -1.3458,-0.27354 -0.58,-0.57999 z m 33.6,0 c 0.693,-0.27731 1.521,-0.24321 1.84,0.0757 0.319,0.319 -0.248,0.54589 -1.26,0.50421 -1.1184,-0.0461 -1.3458,-0.27354 -0.58,-0.57999 z m 21.3,-8.34667 c 0,-0.19934 0.756,-0.95534 1.68,-1.68 1.5227,-1.19411 1.5565,-1.16016 0.3625,0.36246 -1.2541,1.59912 -2.0425,2.10766 -2.0425,1.31754 z m -87.87,-10.43754 -5.73,-6 6,5.72995 c 5.5735,5.32264 6.4393,6.27005 5.73,6.27005 -0.1486,0 -2.8486,-2.7 -6,-6 z m 99.87,0.24 c 3.135,-3.168 5.9159,-5.76 6.1799,-5.76 0.264,0 -2.0849,2.592 -5.2199,5.76 -3.135,3.168 -5.9159,5.76 -6.1799,5.76 -0.264,0 2.0849,-2.592 5.2199,-5.76 z M 550.8,164.48421 c 0.66,-0.26631 1.74,-0.26631 2.4,0 0.66,0.26631 0.12,0.48422 -1.2,0.48422 -1.32,0 -1.86,-0.21791 -1.2,-0.48422 z m 353.28,0 c 0.66,-0.26631 1.74,-0.26631 2.4,0 0.66,0.26631 0.12,0.48422 -1.2,0.48422 -1.32,0 -1.86,-0.21791 -1.2,-0.48422 z m 16.56,-5.48667 c 0,-0.19934 0.756,-0.95534 1.68,-1.68 1.52262,-1.19411 1.55657,-1.16016 0.36246,0.36246 -1.25412,1.59912 -2.04246,2.10766 -2.04246,1.31754 z m -782.58,-2.21333 c 0.693,-0.27731 1.521,-0.24321 1.84,0.0757 0.319,0.319 -0.248,0.54589 -1.26,0.50421 -1.11835,-0.0461 -1.34582,-0.27354 -0.58,-0.57999 z m 10.56,0 c 0.693,-0.27731 1.521,-0.24321 1.84,0.0757 0.319,0.319 -0.248,0.54589 -1.26,0.50421 -1.11835,-0.0461 -1.34582,-0.27354 -0.58,-0.57999 z m 382.20832,-2.94421 -3.30832,-3.6 3.6,3.30832 c 3.3508,3.07931 4.0414,3.89168 3.30832,3.89168 -0.16042,0 -1.78042,-1.62 -3.6,-3.6 z M 928.32,151.31754 c 0,-0.19934 0.756,-0.95534 1.68,-1.68 1.52262,-1.19411 1.55657,-1.16016 0.36246,0.36246 -1.25412,1.59912 -2.04246,2.10766 -2.04246,1.31754 z M 1689.6757,142.48 c 0.046,-1.11835 0.2736,-1.34582 0.5801,-0.58 0.2773,0.693 0.2432,1.521 -0.076,1.84 -0.319,0.319 -0.5459,-0.248 -0.5043,-1.26 z m -0.96,-7.68 c 0.046,-1.11835 0.2736,-1.34582 0.5801,-0.58 0.2773,0.693 0.2432,1.521 -0.076,1.84 -0.319,0.319 -0.5459,-0.248 -0.5043,-1.26 z m 141.12,0 c 0.046,-1.11835 0.2736,-1.34582 0.5801,-0.58 0.2773,0.693 0.2432,1.521 -0.076,1.84 -0.319,0.319 -0.5459,-0.248 -0.5043,-1.26 z m -893.75991,-0.96 c 0.0461,-1.11835 0.27354,-1.34582 0.58,-0.58 0.27731,0.693 0.24321,1.521 -0.0757,1.84 -0.319,0.319 -0.54589,-0.248 -0.50421,-1.26 z m 408.21191,-4.24 c 0,-2.904 0.1799,-4.092 0.3999,-2.64 0.22,1.452 0.22,3.828 0,5.28 -0.22,1.452 -0.3999,0.264 -0.3999,-2.64 z m -823.74498,-0.96 c 0,-1.848 0.19757,-2.604 0.43904,-1.68 0.24146,0.924 0.24146,2.436 0,3.36 -0.24147,0.924 -0.43904,0.168 -0.43904,-1.68 z m -412.94693,-2.48 c 0.0461,-1.11835 0.27354,-1.34582 0.58,-0.58 0.27731,0.693 0.24321,1.521 -0.0757,1.84 -0.31901,0.319 -0.54589,-0.248 -0.50421,-1.26 z m 72,0 c 0.0461,-1.11835 0.27354,-1.34582 0.58,-0.58 0.27731,0.693 0.24321,1.521 -0.0757,1.84 -0.31901,0.319 -0.54589,-0.248 -0.50421,-1.26 z M 1688.7157,125.2 c 0.046,-1.11835 0.2736,-1.34582 0.5801,-0.58 0.2773,0.693 0.2432,1.521 -0.076,1.84 -0.319,0.319 -0.5459,-0.248 -0.5043,-1.26 z m 141.1959,-1.36 c 0,-1.32 0.2179,-1.86 0.4842,-1.2 0.2663,0.66 0.2663,1.74 0,2.4 -0.2663,0.66 -0.4842,0.12 -0.4842,-1.2 z m -893.83581,-0.56 c 0.0461,-1.11835 0.27354,-1.34582 0.58,-0.58 0.27731,0.693 0.24321,1.521 -0.0757,1.84 -0.319,0.319 -0.54589,-0.248 -0.50421,-1.26 z m 892.79991,-5.76 c 0.046,-1.11835 0.2736,-1.34582 0.5801,-0.58 0.2773,0.693 0.2432,1.521 -0.076,1.84 -0.319,0.319 -0.5459,-0.248 -0.5043,-1.26 z M 107.59579,115.6 c 0.0461,-1.11835 0.27354,-1.34582 0.58,-0.58 0.27731,0.693 0.24321,1.521 -0.0757,1.84 -0.31901,0.319 -0.54589,-0.248 -0.50421,-1.26 z m 72,0 c 0.0461,-1.11835 0.27354,-1.34582 0.58,-0.58 0.27731,0.693 0.24321,1.521 -0.0757,1.84 -0.31901,0.319 -0.54589,-0.248 -0.50421,-1.26 z m 749.56175,-8.8 c -1.19411,-1.52262 -1.16016,-1.55657 0.36246,-0.36246 1.59912,1.25412 2.10766,2.04246 1.31754,2.04246 -0.19934,0 -0.95534,-0.756 -1.68,-1.68 z M 530.88,103.2 c 1.79115,-1.848 3.47264,-3.36 3.73664,-3.36 0.264,0 -0.98549,1.512 -2.77664,3.36 -1.79115,1.848 -3.47264,3.36 -3.73664,3.36 -0.264,0 0.98549,-1.512 2.77664,-3.36 z m 390.59754,-4.08 c -1.19411,-1.522618 -1.16016,-1.556573 0.36246,-0.362458 1.59912,1.254118 2.10766,2.042458 1.31754,2.042458 -0.19934,0 -0.95534,-0.756 -1.68,-1.68 z M 550.8,92.48421 c 0.66,-0.266315 1.74,-0.266315 2.4,0 0.66,0.266317 0.12,0.484211 -1.2,0.484211 -1.32,0 -1.86,-0.217894 -1.2,-0.484211 z m 353.28,0 c 0.66,-0.266315 1.74,-0.266315 2.4,0 0.66,0.266317 0.12,0.484211 -1.2,0.484211 -1.32,0 -1.86,-0.217894 -1.2,-0.484211 z M 138.06,84.784211 c 0.693,-0.277317 1.521,-0.243211 1.84,0.07579 0.319,0.319 -0.248,0.545895 -1.26,0.504211 -1.11835,-0.04606 -1.34582,-0.273544 -0.58,-0.580001 z m 10.56,0 c 0.693,-0.277317 1.521,-0.243211 1.84,0.07579 0.319,0.319 -0.248,0.545895 -1.26,0.504211 -1.11835,-0.04606 -1.34582,-0.273544 -0.58,-0.580001 z M 1809.09,79.44 l -5.73,-6 6,5.729949 c 3.3,3.151472 6,5.851472 6,6 0,0.709346 -0.9474,-0.156461 -6.27,-5.729949 z m -102.69,3.12 c 0.9557,-1.056 1.9536,-1.92 2.2176,-1.92 0.264,0 -0.3019,0.864 -1.2576,1.92 -0.9557,1.056 -1.9536,1.92 -2.2176,1.92 -0.264,0 0.3019,-0.864 1.2576,-1.92 z m 10.08,-9.002453 c 0,-0.19935 0.756,-0.95535 1.68,-1.68 1.5227,-1.194116 1.5565,-1.160161 0.3625,0.362453 -1.2541,1.599118 -2.0425,2.10766 -2.0425,1.317547 z m 38.669,-14.744368 c 2.5239,-0.198409 6.4119,-0.196016 8.64,0.0053 2.2281,0.201335 0.163,0.36367 -4.589,0.360745 -4.752,-0.0029 -6.5749,-0.167655 -4.051,-0.366064 z"
         id="path9668" />
      <path
         style="fill:#202020;stroke-width:0.96"
         d="M 0,825.12 V 690.24 h 960 960 V 825.12 960 H 960 0 Z M 0,128.16 V 0 h 960 960 V 128.16 256.32 H 960 0 Z m 1773.2539,70.96494 c 14.2756,-2.69478 28.9121,-10.88852 38.7747,-21.7069 28.9803,-31.7882 22.9016,-82.845921 -12.6628,-106.36012 -22.5093,-14.882608 -48.763,-16.336523 -72.7614,-4.029491 -15.255,7.823114 -28.7701,23.506134 -34.067,39.531571 -17.1459,51.87401 27.1533,102.67597 80.7165,92.56494 z m -451.0194,-35.7818 c 3.713,-1.49781 7.4428,-4.08083 11.0896,-7.68 11.7596,-11.60557 14.6002,-27.08542 7.6987,-41.95537 -3.1285,-6.74069 -11.8955,-15.070343 -18.7883,-17.85091 L 1316.64,93.6 H 1150.56 984.48 l -5.48938,2.572858 c -7.66521,3.592675 -14.53152,10.334002 -18.27897,17.946152 -2.85196,5.79311 -3.11082,7.08345 -3.10174,15.4608 0.009,7.8645 0.36497,9.90058 2.55396,14.58833 4.62835,9.91159 13.87037,17.92345 23.76826,20.60473 3.42009,0.92648 40.59317,1.14877 168.54787,1.00788 L 1316.64,165.6 Z M 915.84,161.66923 c 7.93057,-3.77562 13.89361,-9.73866 17.66923,-17.66923 2.67466,-5.61803 2.97077,-7.14904 2.97077,-15.36 0,-8.21096 -0.29611,-9.74197 -2.97077,-15.36 C 929.73361,105.34943 923.77057,99.38639 915.84,95.610767 L 909.6,92.64 H 728.64 547.68 l -5.39903,2.652488 c -7.51973,3.69437 -13.42128,9.193892 -16.91147,15.759422 -10.84889,20.40831 -1.57715,44.34465 20.2262,52.21687 4.7878,1.72868 11.3468,1.78491 184.4843,1.58181 L 909.6,164.64 Z m -756.96,-7.45308 c 7.53695,-3.44032 14.96097,-10.80957 18.41155,-18.27575 C 179.66149,130.81244 180,128.94017 180,120.96 c 0,-7.9752 -0.33723,-9.84303 -2.68653,-14.88 C 173.7874,98.519981 166.39361,91.094556 158.9804,87.668449 153.85244,85.298506 151.98017,84.96 144,84.96 c -7.9752,0 -9.84303,0.33723 -14.88,2.686528 -7.56002,3.526076 -14.98545,10.919859 -18.41155,18.333072 C 108.33851,111.10756 108,112.97983 108,120.96 c 0,7.97652 0.33697,9.8422 2.68753,14.88 4.49107,9.62543 12.72755,16.82579 23.23247,20.30992 6.32541,2.09793 18.13127,1.18327 24.96,-1.93377 z"
         id="path9666" />
    </g>
  </g>
</svg>
