<svg
   version="1.1"
   id="svg2469"
   width="1920"
   height="960"
   viewBox="0 0 1920 960"
   xmlns="http://www.w3.org/2000/svg"
>
  <g
     id="g2475"
     transform="translate(-64.982444,-1032.1436)">
    <g
       id="g2969"
       transform="translate(64.982444,1032.1436)">
      <path
         style="fill:#d7d7d7;stroke-width:0.96"
         d="m 479.76,255.6 c 264.132,-0.13305 696.348,-0.13305 960.48,0 264.132,0.13305 48.024,0.24191 -480.24,0.24191 -528.264,0 -744.372,-0.10886 -480.24,-0.24191 z m 1262.0197,-57.85809 c -21.9997,-5.68754 -40.5976,-22.7627 -48.4609,-44.49317 -16.2801,-44.99076 16.9899,-93.269863 64.6624,-93.833305 20.9297,-0.247369 38.1107,6.786989 52.2212,21.380723 10.8895,11.262462 16.5361,22.779072 19.1583,39.075082 5.57,34.61353 -17.6122,69.19731 -52.2329,77.92244 -9.7217,2.45007 -25.7616,2.42659 -35.3481,-0.0517 z M 72.220944,170.35162 c -2.782481,-0.74911 -6.42942,-2.07067 -8.104309,-2.93679 C 58.493907,164.50721 51.248142,156.70785 48.359198,150.45348 45.933086,145.20111 45.6,143.37904 45.6,135.36 c 0,-8.0382 0.330342,-9.83536 2.784899,-15.15075 3.537046,-7.65953 11.7192,-15.46658 19.501904,-18.60785 L 73.44,99.36 199.2,99.072989 c 91.35348,-0.208493 127.32711,0.01286 131.488,0.809232 7.62656,1.459589 14.20883,4.920579 19.27816,10.136529 19.94971,20.52674 9.47248,54.79112 -18.57341,60.74185 -3.62636,0.76944 -40.84324,1.06126 -129.6,1.01622 -104.346673,-0.0529 -125.332115,-0.28377 -129.571806,-1.4252 z M 550.12349,164.0374 c -10.66529,-2.00605 -20.82614,-10.196 -25.79063,-20.78805 -2.22596,-4.74922 -2.57286,-6.72173 -2.57286,-14.62954 0,-8.38578 0.25942,-9.66715 3.14315,-15.52482 3.89343,-7.90867 11.47898,-15.11739 19.18006,-18.227215 L 549.6,92.64 724.8,92.399867 c 119.31832,-0.163542 177.15621,0.08246 181.33311,0.77128 15.52727,2.560609 26.78805,13.670113 29.90255,29.500853 3.70865,18.85066 -9.85094,37.95069 -29.37614,41.37921 -6.95408,1.2211 -350.04116,1.20781 -356.53603,-0.0138 z"
         id="path2977" />
      <path
         style="fill:#20e53c;stroke-width:0.96"
         d="M 985.44,164.72734 C 971.04931,161.16153 960.96864,150.43181 958.04434,135.568 954.40284,117.05862 967.39613,98.292557 986.68723,94.199403 990.33734,93.424929 1036.8586,93.12 1151.3655,93.12 c 141.1375,0 160.2527,0.17228 165.3128,1.489921 10.9269,2.845353 19.3316,9.617059 24.1735,19.476809 2.4032,4.89367 2.6682,6.43435 2.6682,15.51327 0,9.07892 -0.265,10.6196 -2.6682,15.51327 -4.8419,9.85975 -13.2466,16.63146 -24.1735,19.47681 -5.0669,1.3194 -24.0736,1.48058 -166.08,1.40827 -124.0715,-0.0632 -161.44444,-0.35077 -165.1583,-1.27101 z"
         id="path2975" />
      <path
         style="fill:#414141;stroke-width:0.96"
         d="M 0,473.60022 V 256.32 h 960 960 v 216.89531 c 0,205.75349 -0.086,216.9187 -1.68,217.35064 -0.924,0.25043 -432.924,0.42365 -960,0.38491 L 0,690.88043 Z"
         id="path2973" />
      <path
         style="fill:#202020;stroke-width:0.96"
         d="M 0,825.6 V 691.2 h 960 960 V 825.6 960 H 960 0 Z M 0,127.68 V 0 h 960 960 V 127.68 255.36 H 960 0 Z m 1773.2539,71.44494 c 14.2756,-2.69478 28.9121,-10.88852 38.7747,-21.7069 28.9803,-31.7882 22.9016,-82.845921 -12.6628,-106.36012 -22.5093,-14.882608 -48.763,-16.336523 -72.7614,-4.029491 -15.255,7.823114 -28.7701,23.506134 -34.067,39.531571 -17.1459,51.87401 27.1533,102.67597 80.7165,92.56494 z M 340.02536,168.21685 c 7.96044,-3.91912 15.14159,-11.49495 18.18082,-19.18006 3.05279,-7.71939 3.05279,-19.63419 0,-27.35358 -3.03936,-7.68542 -10.22039,-15.26098 -18.18117,-19.18006 L 333.64037,99.36 H 202.58019 71.52 l -5.28,2.50567 c -15.194414,7.21063 -24.197014,24.00347 -21.155669,39.46233 2.74025,13.92843 11.508016,24.2851 24.323513,28.73147 4.728203,1.64047 11.845661,1.72064 134.612686,1.51629 L 333.64106,171.36 Z m 982.20914,-4.87371 c 3.713,-1.49781 7.4428,-4.08083 11.0896,-7.68 11.7596,-11.60557 14.6002,-27.08542 7.6987,-41.95537 -3.1285,-6.74069 -11.8955,-15.070343 -18.7883,-17.85091 L 1316.64,93.6 H 1150.56 984.48 l -5.48938,2.572858 c -7.66521,3.592675 -14.53152,10.334002 -18.27897,17.946152 -2.85196,5.79311 -3.11082,7.08345 -3.10174,15.4608 0.009,7.8645 0.36497,9.90058 2.55396,14.58833 4.62835,9.91159 13.87037,17.92345 23.76826,20.60473 3.42009,0.92648 40.59317,1.14877 168.54787,1.00788 L 1316.64,165.6 Z M 915.84,161.66923 c 7.93057,-3.77562 13.89361,-9.73866 17.66923,-17.66923 2.67466,-5.61803 2.97077,-7.14904 2.97077,-15.36 0,-8.21096 -0.29611,-9.74197 -2.97077,-15.36 C 929.73361,105.34943 923.77057,99.38639 915.84,95.610767 L 909.6,92.64 H 728.64 547.68 l -5.39903,2.652488 c -7.51973,3.69437 -13.42128,9.193892 -16.91147,15.759422 -10.84889,20.40831 -1.57715,44.34465 20.2262,52.21687 4.7878,1.72868 11.3468,1.78491 184.4843,1.58181 L 909.6,164.64 Z"
         id="path2971" />
    </g>
  </g>
</svg>
