<svg
   version="1.1"
   id="svg7897"
   width="1920"
   height="960"
   viewBox="0 0 1920 960"
   xmlns="http://www.w3.org/2000/svg"
   >
  <g
     id="g7903"
     transform="translate(-3.505259,-9.9533298)">
    <g
       id="g8378"
       transform="translate(3.505259,9.9533298)">
      <path
         style="fill:#dedede;stroke-width:0.96"
         d="m 75.167844,567.49953 c -13.6332,-4.73021 -21.582212,-15.74464 -21.573337,-29.89275 0.0079,-12.60927 6.794794,-23.29019 18.193969,-28.63292 L 77.28,506.4 h 130.08 130.08 l 4.45068,2.21434 c 7.18395,3.57421 11.99371,8.3477 15.41637,15.30011 2.71945,5.52398 3.14768,7.3859 3.14768,13.68555 0,6.29965 -0.42823,8.16157 -3.14768,13.68555 -3.42266,6.95241 -8.23242,11.7259 -15.41637,15.30011 L 337.44,568.8 208.8,569.01581 C 86.976471,569.22018 79.895472,569.13983 75.167844,567.49953 Z m -1.92,-90.24 c -13.6332,-4.73021 -21.582212,-15.74464 -21.573337,-29.89275 0.0079,-12.60927 6.794794,-23.29019 18.193969,-28.63292 L 75.36,416.16 h 130.08 130.08 l 4.45068,2.21434 c 7.18395,3.57421 11.99371,8.3477 15.41637,15.30011 2.71945,5.52398 3.14768,7.3859 3.14768,13.68555 0,6.29965 -0.42823,8.16157 -3.14768,13.68555 -3.42266,6.95241 -8.23242,11.7259 -15.41637,15.30011 L 335.52,478.56 206.88,478.77581 C 85.056471,478.98018 77.975472,478.89983 73.247844,477.25953 Z m 0,-86.4 c -13.6332,-4.73021 -21.582212,-15.74464 -21.573337,-29.89275 0.0079,-12.60927 6.794794,-23.29019 18.193969,-28.63292 L 75.36,329.76 h 130.08 130.08 l 4.45068,2.21434 c 7.18395,3.57421 11.99371,8.3477 15.41637,15.30011 2.71945,5.52398 3.14768,7.3859 3.14768,13.68555 0,6.29965 -0.42823,8.16157 -3.14768,13.68555 -3.42266,6.95241 -8.23242,11.7259 -15.41637,15.30011 L 335.52,392.16 206.88,392.37581 C 85.056471,392.58018 77.975472,392.49983 73.247844,390.85953 Z M 62.4,100.36584 C 51.132607,98.018016 42.322161,91.182577 37.229351,80.837613 34.3372,74.96282 34.08,73.692267 34.08,65.28 c 0,-8.412267 0.2572,-9.68282 3.149351,-15.557613 C 42.519391,38.97679 52.040407,31.907122 63.916653,29.906185 67.299966,29.336156 88.442702,29.044474 116.16,29.18544 c 51.69912,0.262935 50.2112,0.09205 60.17077,6.910144 5.46527,3.741386 10.97032,11.034876 13.24287,17.545114 1.89786,5.436828 1.89786,17.841776 0,23.278604 -2.27255,6.510238 -7.7776,13.803728 -13.24287,17.545114 -9.97777,6.830544 -8.34229,6.647704 -61.13077,6.833964 -32.62392,0.11512 -49.17512,-0.17721 -52.8,-0.93254 z"
         id="path8386" />
      <path
         style="fill:#0fdc2b;stroke-width:0.96"
         d="M 248.68349,100.71133 C 237.93461,98.604278 227.84757,90.460543 222.89286,79.889342 220.6669,75.140134 220.32,73.167618 220.32,65.259814 c 0,-8.385789 0.25942,-9.667152 3.14315,-15.524828 3.89623,-7.914366 11.48069,-15.120061 19.18006,-18.222197 5.46462,-2.201743 5.9616,-2.225685 52.55679,-2.531988 50.28628,-0.330569 54.64279,-0.03492 63.17201,4.287171 13.25283,6.715721 21.59699,23.185406 18.96365,37.430445 -2.88302,15.595709 -13.57626,26.781125 -28.66291,29.982183 -6.10446,1.29523 -93.40168,1.32206 -99.98926,0.0307 z"
         id="path8384" />
      <path
         style="fill:#414141;stroke-width:0.96"
         d="M 417.6,480 V 0 H 1168.8 1920 V 480 960 H 1168.8 417.6 Z M 77.58,568.62421 c 0.693,-0.27731 1.521,-0.24321 1.84,0.0758 0.319,0.319 -0.248,0.54589 -1.26,0.50421 -1.118345,-0.0461 -1.345824,-0.27354 -0.58,-0.57999 z M 65.157547,562.8 c -1.194116,-1.52262 -1.160161,-1.55657 0.362453,-0.36246 1.599118,1.25412 2.10766,2.04246 1.317547,2.04246 -0.19935,0 -0.95535,-0.756 -1.68,-1.68 z M 350.4,561.23754 c 0,-0.19934 0.756,-0.95534 1.68,-1.68 1.52262,-1.19411 1.55657,-1.16016 0.36246,0.36246 -1.25412,1.59912 -2.04246,2.10766 -2.04246,1.31754 z M 360.07579,542.8 c 0.0461,-1.11835 0.27354,-1.34582 0.58,-0.58 0.27731,0.693 0.24321,1.521 -0.0758,1.84 -0.319,0.319 -0.54589,-0.248 -0.50421,-1.26 z M 52.987151,540.96 c 0.01957,-1.584 0.234718,-2.11578 0.47812,-1.18173 0.243402,0.93405 0.227395,2.23005 -0.03557,2.88 -0.26297,0.64995 -0.462117,-0.11427 -0.442552,-1.69827 z m 0,-6.72 c 0.01957,-1.584 0.234718,-2.11578 0.47812,-1.18173 0.243402,0.93405 0.227395,2.23005 -0.03557,2.88 -0.26297,0.64995 -0.462117,-0.11427 -0.442552,-1.69827 z m 307.088639,-2 c 0.0461,-1.11835 0.27354,-1.34582 0.58,-0.58 0.27731,0.693 0.24321,1.521 -0.0758,1.84 -0.319,0.319 -0.54589,-0.248 -0.50421,-1.26 z m -8.83825,-17.44 c -1.19411,-1.52262 -1.16016,-1.55657 0.36246,-0.36246 0.924,0.72466 1.68,1.48066 1.68,1.68 0,0.79012 -0.78834,0.28158 -2.04246,-1.31754 z M 64.32,513.23754 c 0,-0.19934 0.756,-0.95534 1.68,-1.68 1.522614,-1.19411 1.556569,-1.16016 0.362453,0.36246 -1.254114,1.59912 -2.042453,2.10766 -2.042453,1.31754 z m 13.26,-7.01333 c 0.693,-0.27731 1.521,-0.24321 1.84,0.0757 0.319,0.319 -0.248,0.54589 -1.26,0.50421 -1.118345,-0.0461 -1.345824,-0.27354 -0.58,-0.57999 z m -1.92,-27.84 c 0.693,-0.27731 1.521,-0.24321 1.84,0.0758 0.319,0.319 -0.248,0.54589 -1.26,0.50421 -1.118345,-0.0461 -1.345824,-0.27354 -0.58,-0.57999 z M 63.237547,472.56 c -1.194116,-1.52262 -1.160161,-1.55657 0.362453,-0.36246 0.924,0.72466 1.68,1.48066 1.68,1.68 0,0.79012 -0.788339,0.28158 -2.042453,-1.31754 z M 348.48,470.99754 c 0,-0.19934 0.756,-0.95534 1.68,-1.68 1.52262,-1.19411 1.55657,-1.16016 0.36246,0.36246 -1.25412,1.59912 -2.04246,2.10766 -2.04246,1.31754 z M 358.15579,452.56 c 0.0461,-1.11835 0.27354,-1.34582 0.58,-0.58 0.27731,0.693 0.24321,1.521 -0.0758,1.84 -0.319,0.319 -0.54589,-0.248 -0.50421,-1.26 z M 51.067151,450.72 c 0.01957,-1.584 0.234718,-2.11578 0.47812,-1.18173 0.243402,0.93405 0.227395,2.23005 -0.03557,2.88 -0.26297,0.64995 -0.462117,-0.11427 -0.442552,-1.69827 z m 0,-6.72 c 0.01957,-1.584 0.234718,-2.11578 0.47812,-1.18173 0.243402,0.93405 0.227395,2.23005 -0.03557,2.88 C 51.246733,446.34822 51.047586,445.584 51.067151,444 Z m 307.088639,-2 c 0.0461,-1.11835 0.27354,-1.34582 0.58,-0.58 0.27731,0.693 0.24321,1.521 -0.0758,1.84 -0.319,0.319 -0.54589,-0.248 -0.50421,-1.26 z m -8.83825,-17.44 c -1.19411,-1.52262 -1.16016,-1.55657 0.36246,-0.36246 1.59912,1.25412 2.10766,2.04246 1.31754,2.04246 -0.19934,0 -0.95534,-0.756 -1.68,-1.68 z M 62.4,422.99754 c 0,-0.19934 0.756,-0.95534 1.68,-1.68 1.522614,-1.19411 1.556569,-1.16016 0.362453,0.36246 C 63.188339,423.27912 62.4,423.78766 62.4,422.99754 Z m 13.26,-7.01333 c 0.693,-0.27731 1.521,-0.24321 1.84,0.0757 0.319,0.319 -0.248,0.54589 -1.26,0.50421 -1.118345,-0.0461 -1.345824,-0.27354 -0.58,-0.57999 z m 0,-24 c 0.693,-0.27731 1.521,-0.24321 1.84,0.0757 0.319,0.319 -0.248,0.54589 -1.26,0.50421 -1.118345,-0.0461 -1.345824,-0.27354 -0.58,-0.57999 z M 63.237547,386.16 c -1.194116,-1.52262 -1.160161,-1.55657 0.362453,-0.36246 0.924,0.72466 1.68,1.48066 1.68,1.68 0,0.79012 -0.788339,0.28158 -2.042453,-1.31754 z M 348.48,384.59754 c 0,-0.19934 0.756,-0.95534 1.68,-1.68 1.52262,-1.19411 1.55657,-1.16016 0.36246,0.36246 -1.25412,1.59912 -2.04246,2.10766 -2.04246,1.31754 z M 358.15579,366.16 c 0.0461,-1.11835 0.27354,-1.34582 0.58,-0.58 0.27731,0.693 0.24321,1.521 -0.0758,1.84 -0.319,0.319 -0.54589,-0.248 -0.50421,-1.26 z M 51.067151,364.32 c 0.01957,-1.584 0.234718,-2.11578 0.47812,-1.18173 0.243402,0.93405 0.227395,2.23005 -0.03557,2.88 -0.26297,0.64995 -0.462117,-0.11427 -0.442552,-1.69827 z m 0,-6.72 c 0.01957,-1.584 0.234718,-2.11578 0.47812,-1.18173 0.243402,0.93405 0.227395,2.23005 -0.03557,2.88 -0.26297,0.64995 -0.462117,-0.11427 -0.442552,-1.69827 z m 307.088639,-2 c 0.0461,-1.11835 0.27354,-1.34582 0.58,-0.58 0.27731,0.693 0.24321,1.521 -0.0758,1.84 -0.319,0.319 -0.54589,-0.248 -0.50421,-1.26 z m -8.83825,-17.44 c -1.19411,-1.52262 -1.16016,-1.55657 0.36246,-0.36246 1.59912,1.25412 2.10766,2.04246 1.31754,2.04246 -0.19934,0 -0.95534,-0.756 -1.68,-1.68 z M 62.4,336.59754 c 0,-0.19934 0.756,-0.95534 1.68,-1.68 1.522614,-1.19411 1.556569,-1.16016 0.362453,0.36246 C 63.188339,336.87912 62.4,337.38766 62.4,336.59754 Z m 13.26,-7.01333 c 0.693,-0.27731 1.521,-0.24321 1.84,0.0758 0.319,0.319 -0.248,0.54589 -1.26,0.50421 -1.118345,-0.0461 -1.345824,-0.27354 -0.58,-0.57999 z M 63.618271,101.09473 c 0.934048,-0.2434 2.230048,-0.2274 2.88,0.0355 0.64995,0.26297 -0.114271,0.46211 -1.698271,0.44255 -1.584,-0.0196 -2.115779,-0.23472 -1.181729,-0.47812 z m 30.281729,0.01 c 0.693,-0.27732 1.521,-0.24322 1.84,0.0757 0.319002,0.31901 -0.248,0.5459 -1.26,0.50421 -1.118345,-0.0461 -1.345824,-0.27354 -0.58,-0.57999 z m 14.4,0 c 0.693,-0.27732 1.521,-0.24322 1.84,0.0757 0.319,0.31901 -0.248,0.5459 -1.26,0.50421 -1.11835,-0.0461 -1.34582,-0.27354 -0.58,-0.57999 z m 50.82,0.02 c 0.66,-0.26632 1.74,-0.26632 2.4,0 0.66,0.26631 0.12,0.48421 -1.2,0.48421 -1.32,0 -1.86,-0.2179 -1.2,-0.48421 z m -99.78,-0.98009 c 0.693,-0.277311 1.521,-0.243212 1.84,0.0757 0.319,0.31901 -0.248,0.54589 -1.26,0.50421 -1.118345,-0.0461 -1.345824,-0.27354 -0.58,-0.57999 z m 117.3,-5.466663 c 0,-0.19935 0.756,-0.95535 1.68,-1.68 1.52262,-1.194116 1.55657,-1.160161 0.36246,0.362453 -1.25412,1.599118 -2.04246,2.10766 -2.04246,1.317547 z M 43.14832,90.48 39.84,86.88 l 3.6,3.30832 c 1.98,1.819577 3.6,3.439577 3.6,3.6 0,0.733076 -0.812367,0.04248 -3.89168,-3.30832 z m 186.21902,0 -2.32734,-2.64 2.64,2.327341 c 1.452,1.280039 2.64,2.468039 2.64,2.64 0,0.752903 -0.77741,0.140136 -2.95266,-2.327341 z M 182.4,88.917547 c 0,-0.19935 0.756,-0.95535 1.68,-1.68 1.52262,-1.194116 1.55657,-1.160161 0.36246,0.362453 C 183.18834,89.199118 182.4,89.70766 182.4,88.917547 Z M 191.34727,65.28 c 0,-3.432 0.17424,-4.836 0.38719,-3.12 0.21295,1.716 0.21295,4.524 0,6.24 -0.21295,1.716 -0.38719,0.312 -0.38719,-3.12 z m -158.484547,0 c 0,-1.848 0.197563,-2.604 0.43903,-1.68 0.241466,0.924 0.241466,2.436 0,3.36 -0.241467,0.924 -0.43903,0.168 -0.43903,-1.68 z M 183.23754,42.48 c -1.19411,-1.522614 -1.16016,-1.556569 0.36246,-0.362453 1.59912,1.254114 2.10766,2.042453 1.31754,2.042453 -0.19934,0 -0.95534,-0.756 -1.68,-1.68 z M 43.2,39.84 c 1.791152,-1.848 3.472641,-3.36 3.736641,-3.36 0.264,0 -0.985489,1.512 -2.776641,3.36 -1.791152,1.848 -3.472641,3.36 -3.736641,3.36 -0.264,0 0.985489,-1.512 2.776641,-3.36 z m 186.24,0 c 1.24008,-1.32 2.47068,-2.4 2.73468,-2.4 0.264,0 -0.5346,1.08 -1.77468,2.4 -1.24008,1.32 -2.47068,2.4 -2.73468,2.4 -0.264,0 0.5346,-1.08 1.77468,-2.4 z m -51.96246,-3.12 c -1.19411,-1.522614 -1.16016,-1.556569 0.36246,-0.362453 1.59912,1.254114 2.10766,2.042453 1.31754,2.042453 -0.19934,0 -0.95534,-0.756 -1.68,-1.68 z M 59.34,30.064211 c 0.693,-0.277317 1.521,-0.243211 1.84,0.07579 0.319,0.319 -0.248,0.545895 -1.26,0.504211 -1.118345,-0.04606 -1.345824,-0.273544 -0.58,-0.580001 z m 4.278271,-0.969482 c 0.934048,-0.243402 2.230048,-0.227395 2.88,0.03557 0.64995,0.26297 -0.114271,0.462117 -1.698271,0.442552 -1.584,-0.01956 -2.115779,-0.234718 -1.181729,-0.47812 z M 93.9,29.104233 c 0.693,-0.277317 1.521,-0.243211 1.84,0.07579 0.319002,0.319 -0.248,0.545895 -1.26,0.504211 -1.118345,-0.04606 -1.345824,-0.273544 -0.58,-0.58 z m 14.4,0 c 0.693,-0.277317 1.521,-0.243211 1.84,0.07579 0.319,0.319 -0.248,0.545895 -1.26,0.504211 -1.11835,-0.04606 -1.34582,-0.273544 -0.58,-0.58 z m 50.82,0.02 c 0.66,-0.266315 1.74,-0.266315 2.4,0 0.66,0.266317 0.12,0.484211 -1.2,0.484211 -1.32,0 -1.86,-0.217894 -1.2,-0.484211 z"
         id="path8382" />
      <path
         style="fill:#202020;stroke-width:0.96"
         d="M 0,480 V 0 H 208.8 417.6 V 480 960 H 208.8 0 Z m 339.64671,87.95998 c 8.23293,-3.00806 13.85931,-8.15073 18.54371,-16.94943 1.94431,-3.65199 2.28427,-5.64787 2.28427,-13.41055 0,-7.76268 -0.33996,-9.75856 -2.28427,-13.41055 -3.41435,-6.41318 -5.68952,-9.17405 -10.27209,-12.46501 -8.93026,-6.41323 0.83466,-5.99496 -141.08363,-6.04315 l -128.685308,-0.0437 -5.939636,2.66554 c -6.906464,3.09944 -13.698123,9.80233 -16.828277,16.60833 -2.936949,6.38591 -2.945715,18.97275 -0.01764,25.33718 4.506934,9.79626 14.878523,17.71485 24.786553,18.92428 2.645288,0.32289 61.185608,0.52133 130.089608,0.44096 111.23107,-0.12974 125.74277,-0.3152 129.40672,-1.6539 z m -1.92,-90.24 c 8.23293,-3.00806 13.85931,-8.15073 18.54371,-16.94943 1.94431,-3.65199 2.28427,-5.64787 2.28427,-13.41055 0,-7.76268 -0.33996,-9.75856 -2.28427,-13.41055 -3.41435,-6.41318 -5.68952,-9.17405 -10.27209,-12.46501 -8.93026,-6.41323 0.83466,-5.99496 -141.08363,-6.04315 l -128.685308,-0.0437 -5.939636,2.66554 c -6.906464,3.09944 -13.698123,9.80233 -16.828277,16.60833 -2.936949,6.38591 -2.945715,18.97275 -0.01764,25.33718 4.506934,9.79626 14.878523,17.71485 24.786553,18.92428 2.645288,0.32289 61.185608,0.52133 130.089608,0.44096 111.23107,-0.12974 125.74277,-0.3152 129.40672,-1.6539 z m 0,-86.4 c 8.23293,-3.00806 13.85931,-8.15073 18.54371,-16.94943 1.94431,-3.65199 2.28427,-5.64787 2.28427,-13.41055 0,-7.76268 -0.33996,-9.75856 -2.28427,-13.41055 -3.41435,-6.41318 -5.68952,-9.17405 -10.27209,-12.46501 -8.93026,-6.41323 0.83466,-5.99496 -141.08363,-6.04315 l -128.685308,-0.0437 -5.939636,2.66554 c -6.906464,3.09944 -13.698123,9.80233 -16.828277,16.60833 -2.936949,6.38591 -2.945715,18.97275 -0.01764,25.33718 4.506934,9.79626 14.878523,17.71485 24.786553,18.92428 2.645288,0.32289 61.185608,0.52133 130.089608,0.44096 111.23107,-0.12974 125.74277,-0.3152 129.40672,-1.6539 z M 171.0027,98.168371 c 7.61693,-3.750814 14.36032,-10.62374 17.93454,-18.279029 2.2122,-4.738089 2.56296,-6.737474 2.56296,-14.609342 0,-7.871868 -0.35076,-9.871253 -2.56296,-14.609342 -3.57497,-7.656902 -10.31759,-14.528373 -17.93625,-18.279029 L 164.68037,29.28 H 112.34019 60 l -5.399028,2.652488 C 39.2459,39.476277 30.759643,55.376373 33.632553,71.219517 c 2.49099,13.736989 11.09782,23.909587 24.283141,28.700768 4.654877,1.691465 8.137061,1.790055 55.866206,1.581805 L 164.6838,101.28 Z m 184.67022,0.795504 c 6.83894,-2.753347 15.33521,-10.760757 18.58118,-17.512043 4.91458,-10.221805 4.91458,-22.121859 0,-32.343664 -3.24597,-6.751286 -11.74224,-14.758694 -18.58118,-17.512045 L 349.92,29.28 H 298.56 247.2 l -6.43268,3.04742 C 232.87694,36.065405 226.8237,41.953984 223.12244,49.492294 220.56618,54.698609 220.32,56.085473 220.32,65.28 c 0,9.194527 0.24618,10.581391 2.80244,15.787706 4.72255,9.618351 14.1159,17.216364 24.31364,19.666594 1.98216,0.47625 25.85192,0.79387 53.04392,0.70581 L 349.92,101.28 Z"
         id="path8380" />
    </g>
  </g>
</svg>
