<svg
   version="1.1"
   id="svg1841"
   width="1920"
   height="960"
   viewBox="0 0 1920 960"
   xmlns="http://www.w3.org/2000/svg"
>
  <g
     id="g1847"
     transform="translate(-13.833986,-116.35585)">
    <g
       id="g2322"
       transform="translate(13.833986,116.35585)">
      <path
         style="fill:#d5d5d5;stroke-width:0.96"
         d="m 479.76,255.6 c 264.132,-0.13305 696.348,-0.13305 960.48,0 264.132,0.13305 48.024,0.24191 -480.24,0.24191 -528.264,0 -744.372,-0.10886 -480.24,-0.24191 z M 1758.2001,61.949944 c 18.2496,4.753396 32.9962,20.078497 37.4327,38.900826 6.308,26.76258 -10.7117,54.87935 -37.4327,61.83929 -2775.2364,162.27802 -1852.054653,-283.71771 0,-100.740116 z"
         id="path2330" />
      <path
         style="fill:#25d83e;stroke-width:0.96"
         d="M 344.81286,135.56935 C 342.58815,130.8228 342.24,128.84591 342.24,120.96 c 0,-7.88591 0.34815,-9.8628 2.57286,-14.60935 -46.92608,-57.013686 311.33405,-90.829414 269.06687,16.03927 -0.82225,6.58099 -4.93187,15.40117 -9.56581,20.53038 48.18206,66.97337 -304.79423,55.66335 -259.50106,-7.35095 z"
         id="path2328" />
      <path
         style="fill:#414141;stroke-width:0.96"
         d="M 0,473.60022 V 256.32 h 960 960 v 216.89531 c 0,205.75349 -0.086,216.9187 -1.68,217.35064 -0.924,0.25043 -432.924,0.42365 -960,0.38491 L 0,690.88043 Z"
         id="path2326" />
      <path
         style="fill:#202020;stroke-width:0.96"
         d="M 0,825.6 V 691.2 h 960 960 V 825.6 960 H 960 0 Z M 0,127.68 V 0 h 960 960 V 127.68 255.36 H 960 0 Z m 1755.36,35.952 c 10.5384,-2.16069 18.1525,-6.41078 26.424,-14.74936 10.6613,-10.74784 15.336,-21.89294 15.336,-36.56264 0,-8.36559 -1.7754,-16.054742 -5.5036,-23.83588 -3.6761,-7.672393 -15.2545,-19.130272 -23.2964,-23.053857 -12.8755,-6.281885 29.311,-5.824252 -516.96,-5.607905 l -497.28,0.196943 -6.30924,2.136181 C 726.05169,69.509116 711.36,89.750427 711.36,112.32 c 0,25.63827 18.7421,47.7253 43.93285,51.7736 2.50093,0.40191 227.02715,0.77248 498.94715,0.82348 426.043,0.0799 495.3291,-0.0978 501.12,-1.28508 z M 298.76935,154.38714 c 7.6652,-3.59267 14.53157,-10.334 18.27902,-17.94615 2.84985,-5.78886 3.11163,-7.09129 3.11163,-15.48099 0,-8.3897 -0.26178,-9.69213 -3.11163,-15.48099 -3.74745,-7.612146 -10.61382,-14.353473 -18.27902,-17.946156 L 293.28,84.96 H 176.64 60 l -5.399028,2.652488 C 43.224731,93.201518 35.817979,102.86373 33.637216,114.96 c -3.285638,18.2248 9.144104,37.21727 27.210156,41.57674 1.645946,0.39718 54.616628,0.65489 117.712628,0.5727 L 293.28,156.96 Z M 477.12,155.9978 c 102.38314,-1.58465 107.12639,-1.7086 111.11042,-2.90341 9.7193,-2.91481 18.59377,-10.75769 23.13559,-20.44625 2.20501,-4.7037 2.55399,-6.69707 2.55399,-14.58833 0,-8.36694 -0.26324,-9.6749 -3.11163,-15.4608 C 607.06092,94.986868 600.19455,88.245537 592.52935,84.652854 587.12177,82.118325 586.7397,82.08 566.88,82.08 c -20.40272,0 -98.7679,0.9863 -160.32,2.017779 -18.48,0.309684 -35.32076,0.998158 -37.42392,1.52994 -14.36399,3.63193 -25.35696,15.747181 -27.30344,30.090871 -2.49892,18.41459 7.85813,34.31873 26.32736,40.42792 3.89336,1.28783 17.33176,1.26948 108.96,-0.14871 z"
         id="path2324" />
    </g>
  </g>
</svg>
