<svg
   version="1.1"
   id="svg8501"
   width="1920"
   height="960"
   viewBox="0 0 1920 960"
   xmlns="http://www.w3.org/2000/svg"
>
  <g
     id="g8507"
     transform="translate(-29.252932,-30.642053)">
    <g
       id="g8991"
       transform="translate(29.252932,30.642053)">
      <path
         style="fill:#afafaf;stroke-width:0.96"
         d="M 26.698666,173.03077 C 32.396521,142.31353 169.93732,149.25186 196.30692,167.16393 603.65526,887.51653 -126.1173,1242.5695 26.698666,173.03077 Z"
         id="path8999" />
      <path
         style="fill:#45c658;stroke-width:0.96"
         d="m 97.015699,943.63233 c -27.21631,-7.55996 -46.176192,-32.76315 -46.119247,-61.30589 0.06872,-34.44522 28.108613,-62.50881 62.383548,-62.43626 28.07198,0.0594 51.48314,16.91761 60.58919,43.62982 2.00078,5.86922 2.27702,8.36079 2.18192,19.68 -0.0956,11.38227 -0.41596,13.82461 -2.63118,20.0622 -6.30085,17.74183 -20.38506,31.94944 -38.26248,38.5977 -6.84829,2.54673 -9.56317,3.0148 -19.47745,3.35807 -9.55317,0.33076 -12.73976,0.06 -18.664301,-1.58564 z m 0,-130.56 c -27.21631,-7.55996 -55.337777,-41.9457 -55.280832,-70.48844 0.06872,-34.44522 38.278501,-69.11006 72.553433,-69.03751 28.07198,0.0594 76.36184,15.17401 85.46789,41.88622 2.00078,5.86922 2.34232,30.53927 2.24722,41.85848 -0.0956,11.38227 -26.36826,9.17353 -28.58348,15.41112 -6.30085,17.74183 -20.38506,31.94944 -38.26248,38.5977 -6.84829,2.54673 -9.56317,3.0148 -19.47745,3.35807 -9.55317,0.33076 -12.73976,0.06 -18.664301,-1.58564 z M 97.692854,154.5285 C 71.378258,150.09756 50.920446,130.73036 45.661702,105.27115 43.767273,96.099629 43.772144,91.360845 45.68551,82.108786 c 5.765993,-27.881394 29.01817,-47.83553 58.34498,-50.069444 17.80529,-1.356285 39.20348,6.996019 51.01948,19.914312 21.58552,23.599197 22.01999,58.155966 1.03296,82.160576 -13.59774,15.55287 -37.54298,23.92459 -58.390076,20.41427 z"
         id="path8997" />
      <path
         style="fill:#414141;stroke-width:0.96"
         d="M 230.4,480 V 0 H 1075.2 1920 V 480 960 H 1075.2 230.4 Z M 112.56,945.8724 c 1.452,-0.21996 3.828,-0.21996 5.28,0 1.452,0.21996 0.264,0.39993 -2.64,0.39993 -2.904,0 -4.092,-0.17997 -2.64,-0.39993 z m -10.98,-0.92819 c 0.693,-0.27731 1.521,-0.24321 1.84,0.0757 0.319,0.319 -0.248,0.54589 -1.26,0.50421 -1.11835,-0.0461 -1.34582,-0.27354 -0.58,-0.57999 z m 21.06,0.02 c 0.66,-0.26631 1.74,-0.26631 2.4,0 0.66,0.26632 0.12,0.48422 -1.2,0.48422 -1.32,0 -1.86,-0.2179 -1.2,-0.48422 z"
         id="path8995" />
      <path
         style="fill:#202020;stroke-width:0.96"
         d="M 0,480 V 0 H 115.2 230.4 V 480 960 H 115.2 0 Z m 124.95555,465.1793 c 23.55873,-4.61747 40.9464,-19.68201 49.01762,-42.46851 2.74437,-7.74787 2.99549,-9.45395 2.94245,-19.99079 -0.0459,-9.12275 -0.50123,-12.91839 -2.18793,-18.24 -10.46482,-33.01692 -43.63334,-51.51391 -77.28769,-43.10079 -10.930041,2.73236 -19.373092,7.70199 -28.369664,16.69856 -6.477068,6.47707 -9.010669,9.84354 -11.747266,15.60892 -6.589638,13.88286 -8.537227,26.8045 -6.031208,40.01515 6.652836,35.07091 39.665857,58.14097 73.663688,51.47746 z m 2.61972,-141.49687 c 23.55873,-4.61747 40.9464,-19.68201 49.01762,-42.46851 2.74437,-7.74787 2.99549,-9.45395 2.94245,-19.99079 -0.0459,-9.12275 -0.50123,-12.91839 -2.18793,-18.24 -10.46482,-33.01692 -43.63334,-51.51391 -77.28769,-43.10079 -10.930045,2.73236 -19.373096,7.70199 -28.369668,16.69856 -6.477068,6.47707 -9.010669,9.84354 -11.747266,15.60892 -6.589638,13.88286 -8.537227,26.8045 -6.031208,40.01515 6.652836,35.07091 39.665857,58.14097 73.663692,51.47746 z m 54.09339,-139.31485 c 1.45673,-2.22324 1.45672,-2.57677 0,-4.8 l -1.57255,-2.4 h -67.10929 c -59.728451,0 -67.275212,0.16592 -68.617867,1.50857 -0.829715,0.82971 -1.508572,2.31086 -1.508572,3.29143 0,0.98057 0.678857,2.46172 1.508572,3.29143 1.342655,1.34265 8.889416,1.50857 68.617867,1.50857 h 67.10929 z M 121.11555,641.8193 c 23.55873,-4.61747 40.9464,-19.68201 49.01762,-42.46851 2.74437,-7.74787 2.99549,-9.45395 2.94245,-19.99079 -0.0459,-9.12275 -0.50123,-12.91839 -2.18793,-18.24 C 160.42287,528.10308 127.25435,509.60609 93.6,518.01921 c -10.930041,2.73236 -19.373092,7.70199 -28.369664,16.69856 -6.477068,6.47707 -9.010669,9.84354 -11.747266,15.60892 -6.589638,13.88286 -8.537227,26.8045 -6.031208,40.01515 6.652836,35.07091 39.665857,58.14097 73.663688,51.47746 z m 1.92,-140.16 c 23.55873,-4.61747 40.9464,-19.68201 49.01762,-42.46851 2.74437,-7.74787 2.99549,-9.45395 2.94245,-19.99079 -0.0459,-9.12275 -0.50123,-12.91839 -2.18793,-18.24 -10.46482,-33.01692 -43.63334,-51.51391 -77.28769,-43.10079 -10.930041,2.73236 -19.373092,7.70199 -28.369664,16.69856 -6.477068,6.47707 -9.010669,9.84354 -11.747266,15.60892 -6.589638,13.88286 -8.537227,26.8045 -6.031208,40.01515 6.652836,35.07091 39.665857,58.14097 73.663688,51.47746 z m 0,-144 c 23.55873,-4.61747 40.9464,-19.68201 49.01762,-42.46851 2.74437,-7.74787 2.99549,-9.45395 2.94245,-19.99079 -0.0459,-9.12275 -0.50123,-12.91839 -2.18793,-18.24 -10.46482,-33.01692 -43.63334,-51.51391 -77.28769,-43.10079 -10.930041,2.73236 -19.373092,7.70199 -28.369664,16.69856 -6.477068,6.47707 -9.010669,9.84354 -11.747266,15.60892 -6.589638,13.88286 -8.537227,26.8045 -6.031208,40.01515 6.652836,35.07091 39.665857,58.14097 73.663688,51.47746 z m 58.56979,-159.48697 c 1.45672,-2.22324 1.45673,-2.57677 0,-4.8 l -1.57255,-2.4 H 112.9235 c -59.728454,0 -66.543921,-0.43984 -68.61787,1.50857 -0.855192,0.80342 -1.508572,2.31086 -1.508572,3.29143 0,0.98057 0.678857,2.46172 1.508572,3.29143 1.342655,1.34265 8.889416,1.50857 68.61787,1.50857 h 67.10929 z M 122.13683,153.96522 C 149.8205,147.66871 169.56967,125.31496 171.5022,98.08944 172.51242,83.85729 169.09361,70.963556 161.29672,59.600434 136.41213,23.333817 81.994825,22.405926 56.009414,57.805139 38.610776,81.506828 40.6425,113.20127 60.967776,135.15444 c 15.337949,16.56641 39.018758,23.84876 61.169054,18.81078 z"
         id="path8993" />
    </g>
  </g>
</svg>
