<svg xmlns="http://www.w3.org/2000/svg" width="300mm" height="300mm" viewBox="0 0 300 300"><path d="M245.637 207.067c-4.418-.792-8.252-1.943-11.543-3.463-13.386-6.185-21.045-18.714-24.41-39.93-1.22-7.698-1.2-31.998.032-39.748 2.59-16.272 7.22-26.917 15.298-35.163 6.637-6.774 13.292-10.223 22.612-11.72 5.26-.844 16.479-.356 20.742.903 6.451 1.905 10.819 4.482 15.501 9.145 2.562 2.551 5.05 5.578 6.202 7.542 3.986 6.803 7.014 16.514 8.622 27.653.966 6.69.817 31.91-.226 38.39-3.51 21.798-11.912 35.847-25.37 42.42-6.758 3.3-9.389 3.873-18.555 4.04-4.253.078-8.26.047-8.905-.069zm14.431-22.68c5.877-3.304 9.467-12.485 10.918-27.926.822-8.738.29-30.304-.907-36.78-2.039-11.032-4.887-16.96-9.63-20.047-1.71-1.112-2.367-1.25-5.907-1.234-3.388.014-4.268.19-5.883 1.172-5.446 3.31-8.832 10.4-10.776 22.563-1.045 6.543-1.468 27.851-.702 35.379 1.491 14.647 4.791 22.768 10.825 26.638 2.27 1.457 2.977 1.608 6.806 1.456 2.424-.096 3.839-.425 5.256-1.222zm-149.883 17.015c0-21.572 7.01-35.454 25.31-50.123 1.933-1.55 6.467-5.005 10.076-7.677 11.188-8.285 17.788-15.803 19.729-22.47 1.184-4.067.75-11.238-.87-14.373-3.244-6.282-8.519-8.514-18.859-7.982-9.099.468-16.814 3.464-25.164 9.772-1.983 1.497-3.723 2.723-3.867 2.723-.144 0-.262-5.433-.262-12.074V87.125l4.34-2.386c5.255-2.888 12.085-5.426 18.392-6.833 3.983-.89 6.094-1.048 14.06-1.054 8.16-.008 9.91.127 13.516 1.037 13.685 3.452 22.646 11.442 26.142 23.309.963 3.27 1.104 4.731 1.104 11.48 0 6.668-.147 8.23-1.064 11.337-3.836 12.995-9.746 19.97-29.238 34.505-6.62 4.937-13.71 10.615-15.756 12.618-3.78 3.701-6.643 7.942-6.651 9.851l-.003 1.055h52.962v22.966h-83.896zm-75.928-22.17v-16.873H.043v-17.81h34.214v-34.215h17.81v34.215h33.746v17.81H52.067v33.746h-17.81z" style="fill:#fff;stroke-width:.468691"/></svg>