<svg xmlns="http://www.w3.org/2000/svg" width="500mm" height="500mm" viewBox="0 0 500 500"><path d="M-154.432 295.078c-16.138-7.313-23.093-27.098-21.336-60.692 1.245-23.8 4.905-33.04 16.515-41.695 9.225-6.876 31.135-6.876 40.36 0 13.268 9.89 15.87 17.86 15.87 48.6 0 30.879-3.364 41.878-15.525 50.761-7.92 5.785-26.363 7.34-35.884 3.026zm28.095-11.655c8.12-8.12 11.146-22.625 10.108-48.464-.734-18.296-1.826-23.847-5.717-29.073-10.065-13.52-25.978-12.762-34.386 1.636-6.691 11.456-8.223 49.37-2.591 64.116 6.667 17.46 21.535 22.836 32.586 11.785zm50.825 10.343c-10.73-4.871-15.748-11.247-18.24-23.17-1.448-5.023-3.306-3.2 5.144-5.673 1.79 0 8.25 3.409 9.054 6.61 2.052 8.178 13.85 17.437 22.217 17.437 14.611 0 22.927-10.568 22.927-29.136 0-8.792-1.244-12.004-6.799-17.56-9.003-9.002-22.305-9.408-32.316-.983-6.464 5.438-16.817 7.975-16.615 4.07.049-.96 1.925-13.78 4.169-28.492l4.079-26.747 28.393-.653c27.2-.626 28.392-.454 28.392 4.07 0 4.414-1.44 4.724-21.939 4.724-27.89 1.274-23.938-2.278-28.356 28.362-.96 3.428-.107 3.655 6.555 1.744 11.73-3.364 20.397-2.652 31.16 2.558 11.872 5.747 17.232 15.665 17.232 31.885 0 27.693-27.807 43.326-55.057 30.954zm73.663-4.796v-6.977h158.157v13.955H-1.849zM200.5 257.572v-38.377h-12.792c-11.242 0-12.792-.563-12.792-4.651 0-3.644 1.55-4.652 7.156-4.652 8.425 0 20.754-10.947 20.754-18.428 0-3.602 1.478-4.83 5.814-4.83h5.815v109.314h-13.955zm46.516 31.398v-6.977h76.753v13.955h-76.753ZM7.292 267.414c-9.751-6.571-13.31-17.221-9.127-27.318 3.749-9.052 11.548-13.08 31.49-16.266 8.694-1.389 16.675-3.061 17.736-3.717 1.06-.656 1.929-4.757 1.929-9.114 0-9.035-4.732-12.736-16.281-12.736-9.607 0-16.012 3.64-18.66 10.608-2.435 6.403-13.902 8.295-13.902 2.293 0-17.534 29.218-28.424 49.913-18.604 10.962 5.202 12.885 11.646 12.885 43.182 0 27.265.12 27.92 4.842 26.42 4.077-1.293 4.72-.676 4.07 3.914-.642 4.532-2.144 5.45-8.912 5.45-6.211 0-8.685-1.24-10.437-5.233-2.278-5.192-3.752-5.245-5.844-3.172-2.438 2.416-15.294 9.568-23.847 9.568-4.492 0-11.475-2.323-15.855-5.275zm36.442-11.22c4.044-3.8 5.586-7.75 5.586-14.313v-9.065l-13.374 1.621c-19.744 2.395-26.059 6.408-26.13 16.607-.088 12.551 22.404 15.967 33.918 5.15zm66.105 14.033c-3.172-1.338-7.62-4.111-9.885-6.16-3.819-3.457-4.118-3.364-4.118 1.285 0 3.795-1.41 5.012-5.814 5.012h-5.815V161.05h5.815c5.724 0 5.814.292 5.814 18.874v18.874l6.396-4.277c8.732-5.84 31.908-5.882 40.588-.08 20.394 13.644 20.694 59.112.477 72.359-7.255 4.754-25.81 6.652-33.458 3.423zm22.706-10.47c7.83-5.485 12.134-15.747 12.134-28.933 0-27.354-20.178-41.508-37.3-26.165-8.634 7.736-12.01 20.583-9.269 35.26 3.515 18.814 21.283 29.05 34.435 19.837zm141.218 8.902c-15.487-3.877-24.422-18.625-24.422-40.307 0-19.917 7.372-32.73 22.058-38.339 11.976-4.574 26.02-3.613 35.209 2.407 7.15 4.685 14.713 20.466 14.783 30.846l.053 7.558h-58.146v7.21c0 9.786 13.06 23.026 22.712 23.026 7.797 0 18.152-7.137 20.335-14.015 1.014-3.196 3.53-4.591 8.278-4.591 8.206 0 8.412 1.582 1.541 11.866-8.742 13.087-25.188 18.649-42.4 14.34zm33.724-53.131c0-8.62-11.708-19.591-20.906-19.591-9.758 0-15.531 3.382-19.772 11.583-6.826 13.2-5.761 14.001 18.583 14.001h22.095z" style="fill:#05ab1e;fill-opacity:1;stroke-width:2.32583" transform="translate(176.09 27.734)"/></svg>