<svg xmlns="http://www.w3.org/2000/svg" width="300mm" height="88mm" viewBox="0 0 300 88"><path d="M145.864 87.724c-3.932-.34-6.818-.851-10.083-1.784-8.36-2.39-15.64-6.612-21.475-12.455-6.827-6.834-10.9-14.962-12.27-24.477-.262-1.83-.262-8.18.001-10.006.701-4.862 1.868-8.675 3.956-12.931 4.264-8.691 11.686-15.977 20.936-20.551 5.256-2.6 10.38-4.165 16.395-5.01 2.426-.34 9.136-.473 11.67-.23 14.544 1.393 27.222 8.218 35.38 19.046 4.246 5.636 6.85 11.806 7.991 18.934.34 2.12.461 6.963.235 9.386-.963 10.34-6.007 20.204-14.02 27.417-7.729 6.957-17.718 11.382-28.248 12.51-2.073.223-8.56.316-10.468.15zm7.437-3.392c6.136-.433 10.598-1.437 15.741-3.542 8.06-3.299 15.24-9.057 19.759-15.849 1.335-2.006 2.44-3.985 3.243-5.81 5.275-11.986 4.123-24.968-3.194-35.985-8.714-13.12-25.519-20.837-42.4-19.468-11.541.936-22.06 5.648-29.688 13.298-6.369 6.387-10.214 14.15-11.33 22.873-.244 1.914-.24 6.615.007 8.467 1.175 8.779 4.977 16.382 11.396 22.79 5.05 5.042 11.265 8.78 18.407 11.073 5.51 1.769 12.202 2.567 18.06 2.153zM148.25 69.7c-5.795-.63-11.161-4.065-14.763-9.452-6.686-9.999-6.055-24.101 1.494-33.382 1.718-2.112 4.466-4.32 6.88-5.528a18.718 18.718 0 0 1 16.78 0c2.85 1.426 6.092 4.256 8.036 7.014 1.934 2.744 3.48 6.31 4.258 9.821 2.933 13.222-3.496 26.712-14.585 30.604-2.388.839-5.554 1.2-8.1.923zm3.771-3.53c7.48-.831 13.8-7.537 15.643-16.6.444-2.182.551-6.207.228-8.513-.88-6.265-3.877-11.665-8.324-14.994-2.876-2.153-5.85-3.162-9.317-3.162-4.468 0-8.236 1.719-11.704 5.34-5.191 5.42-7.356 14.126-5.508 22.153 1.962 8.526 8.201 14.939 15.345 15.773 1.49.174 2.094.175 3.637.003zM55.543 84.62c-.23-.197-.481-.532-.558-.744-.077-.212-.191-2.93-.254-6.042l-.114-5.657-6.216-.02c-3.42-.01-6.27-.031-6.333-.047-.063-.015-7.874-.08-17.357-.146-22.667-.156-23.093-.165-23.577-.482-.785-.515-.788-.543-.842-10.697-.034-6.18.002-9.56.103-9.733.086-.147.92-1.047 1.853-2.002.933-.954 4.257-4.402 7.386-7.662 5.255-5.475 22.47-23.393 32.61-33.942 2.361-2.456 4.376-4.515 4.477-4.575.1-.06 7.832-.151 17.181-.204 18.513-.103 17.489-.147 18.014.775.243.426.274 2.29.41 24.596.08 13.273.174 24.158.207 24.188.034.03 2.9.102 6.372.16 5.709.095 6.349.131 6.697.38.211.15.46.423.552.605.112.22.2 3.292.262 9.205.08 7.57.062 8.939-.128 9.306-.482.932-.307.91-7.331.91-3.532 0-6.453.052-6.49.116-.038.063-.153 2.47-.257 5.35-.116 3.196-.258 5.378-.365 5.604-.096.204-.359.507-.583.673-.396.293-.791.304-12.854.374l-12.446.071zm23.074-3.267c.014-.009.106-2.373.204-5.251.098-2.879.252-5.427.341-5.663.09-.235.337-.564.548-.73.369-.29.655-.303 6.839-.303h6.454l-.048-6.684c-.026-3.676-.082-6.715-.124-6.753-.043-.038-2.905-.108-6.361-.156-5.365-.074-6.338-.123-6.655-.33-.847-.555-.797.745-.924-24.024-.064-12.616-.133-23.215-.153-23.553-.02-.339-.044-.897-.053-1.24l-.017-.624-15.125.064c-8.318.035-15.201.108-15.295.162-.094.054-2.134 2.142-4.533 4.64-2.399 2.497-5.996 6.238-7.994 8.313-1.998 2.074-6.094 6.334-9.104 9.467-3.009 3.133-9.397 9.78-14.195 14.773L3.698 52.54v5.33c0 2.931.045 6.475.1 7.874l.101 2.545 8.944.097c4.919.053 13.342.131 18.719.174 21.517.172 25.3.242 25.666.476.744.475.776.718.894 6.686.06 3.088.14 5.667.177 5.73.05.088 20.187-.01 20.318-.098zM26.552 54.776c-.323-.257-.688-.611-.812-.787-.284-.406-.29-1.389-.01-1.785.185-.263 4.838-5.178 17.531-18.515 1.736-1.823 5.156-5.427 7.6-8.007 5.652-5.966 5.186-5.538 6.024-5.538.544 0 .794.095 1.19.451l.504.451-.032 2.744c-.017 1.508-.147 8.77-.288 16.136-.206 10.794-.298 13.475-.472 13.815-.41.802-.703.88-3.684.97-4.363.133-23.277.532-25.212.532-1.718 0-1.762-.008-2.339-.467zm18.158-3.305c5.41-.125 9.85-.246 9.866-.268.037-.05.514-24.814.48-24.854-.015-.016-1.683 1.715-3.708 3.849-3.388 3.569-16.657 17.528-19.306 20.31l-1.137 1.194 1.983-.002c1.091 0 6.41-.104 11.822-.23zm214.344 32.842c-.23-.198-.48-.533-.558-.745-.076-.211-.19-2.93-.253-6.042l-.114-5.657-6.217-.02c-3.42-.01-6.269-.031-6.332-.046-.064-.015-7.874-.081-17.357-.147-22.668-.156-23.094-.165-23.578-.482-.785-.514-.787-.543-.842-10.697-.034-6.18.003-9.56.104-9.733.085-.147.919-1.047 1.852-2.002.934-.954 4.257-4.402 7.386-7.662 5.255-5.475 22.47-23.393 32.61-33.942 2.362-2.456 4.376-4.515 4.477-4.575.1-.06 7.832-.151 17.181-.204 18.513-.103 17.49-.147 18.014.775.243.426.274 2.29.41 24.596.081 13.274.175 24.158.208 24.189.033.03 2.9.101 6.372.16 5.708.094 6.348.13 6.696.379.212.15.46.423.553.605.111.22.199 3.292.261 9.205.08 7.57.062 8.939-.128 9.306-.482.932-.307.91-7.33.91-3.533 0-6.453.052-6.49.116-.038.063-.154 2.47-.258 5.35-.115 3.196-.257 5.378-.364 5.604-.097.204-.36.507-.584.673-.395.293-.791.304-12.854.374l-12.446.071zm23.074-3.268c.015-.009.106-2.373.204-5.251.098-2.879.252-5.427.342-5.662.09-.236.336-.565.548-.732.368-.29.655-.302 6.838-.302h6.454l-.048-6.684c-.026-3.676-.082-6.715-.124-6.753-.042-.038-2.905-.108-6.36-.156-5.365-.074-6.339-.122-6.656-.33-.847-.555-.797.746-.923-24.024-.065-12.616-.134-23.214-.154-23.553-.02-.339-.044-.897-.053-1.24l-.017-.624-15.124.064c-8.319.035-15.202.108-15.296.162-.094.054-2.134 2.142-4.533 4.64-2.398 2.498-5.996 6.238-7.994 8.313-1.997 2.074-6.094 6.334-9.103 9.467l-14.196 14.774-8.723 9.077v5.33c0 2.932.045 6.475.1 7.875l.1 2.544 8.944.097c4.92.053 13.343.132 18.72.174 21.517.172 25.299.242 25.666.477.743.475.776.717.893 6.685.061 3.088.14 5.667.178 5.73.05.088 20.186-.01 20.317-.098zm-52.064-26.577c-.323-.257-.689-.61-.812-.787-.284-.406-.29-1.389-.011-1.785.185-.263 4.839-5.178 17.532-18.515a5837.35 5837.35 0 0 0 7.6-8.007c5.651-5.966 5.185-5.538 6.024-5.538.543 0 .793.095 1.19.451l.503.451-.031 2.744c-.018 1.508-.147 8.77-.288 16.136-.207 10.795-.299 13.475-.472 13.815-.41.802-.704.88-3.685.97-4.363.133-23.277.532-25.212.532-1.718 0-1.762-.008-2.338-.467zm18.157-3.305c5.41-.125 9.85-.245 9.866-.267.037-.051.514-24.815.48-24.855-.014-.016-1.683 1.716-3.707 3.849-3.388 3.569-16.657 17.528-19.307 20.31l-1.136 1.194 1.983-.002c1.09 0 6.41-.104 11.82-.229z" style="fill:#fff;stroke-width:.153942"/></svg>