<svg xmlns="http://www.w3.org/2000/svg" width="2506.753" height="2506.753" viewBox="0 0 663.245 663.245"><path d="M246.163 402.475c-16.768-1.329-30.888-5.568-43.344-13.013-3.356-2.006-8.893-5.876-8.904-6.223-.004-.12.32-.154.72-.074 4.149.828 20.408.85 27.98.038 36.27-3.891 78.704-19.672 111.44-41.442 11.929-7.933 19.941-14.836 30.078-25.913 19.757-21.592 31.983-40.43 38.972-60.05 4.263-11.968 6.36-25.701 5.675-37.175-.156-2.62-.354-5.358-.44-6.085l-.155-1.323 1.096 1.18c2.817 3.036 5.133 10.3 6.247 19.59.617 5.154.618 16.892 0 23.018-3.476 34.489-17.505 66.642-40.1 91.905-23.126 25.856-54.375 43.515-93.229 52.684-3.419.807-9.564 1.829-14.473 2.406-3.413.402-18.346.732-21.564.477zm-32.676-30.015c-29.976-2.24-51.221-13.9-61.35-33.669-1.417-2.767-3.473-7.797-3.473-8.499 0-.37.122-.36 1.002.09 2.857 1.457 10.122 3.534 15.795 4.516 8.775 1.518 15.909 1.972 28.05 1.784 27.885-.433 58.404-5.611 85.593-14.523 42.313-13.869 77.517-36.767 100.193-65.17 11.442-14.333 19.833-31.255 22.73-45.84.268-1.346.571-2.447.675-2.447.191 0 .498 1.33 1.038 4.498.467 2.739.622 12.718.26 16.711-2.974 32.794-23.668 66.006-59.412 95.35-24.607 20.202-51.188 33.42-85.063 42.3-5.838 1.53-16.318 3.794-19.58 4.229-6.816.91-19.098 1.22-26.458.67zm10.765-46.427c-12.319-1.679-22.764-7.676-29.988-17.218-1.35-1.783-3.795-5.806-3.795-6.244 0-.111 1.399-.129 3.109-.039 5.394.284 17.048-.629 27.715-2.17 16.764-2.423 40.643-7.438 54.86-11.52 35.596-10.224 69.347-28.077 97.936-51.806 5.729-4.754 10.19-8.848 15.81-14.505 3.092-3.114 5.622-5.577 5.622-5.474 0 .564-1.295 4.416-2.571 7.652-10.089 25.568-34.204 50.887-67.878 71.265-27.134 16.42-58.399 27.67-83.522 30.054-5.208.495-13.687.497-17.298.005zm124.173-77.752c0-.06.348-.846.774-1.746 3.424-7.24-.131-13.293-12.017-20.462-4.805-2.899-15.382-8.116-25.534-12.595-16.55-7.302-25.925-11.847-33.338-16.161-14.688-8.55-23.665-17.475-32.327-32.14-2-3.385-5.876-10.704-5.736-10.83.052-.046 1.048.088 2.212.298 2.603.471 7.414.324 10.047-.308 3.688-.885 7.757-2.801 10.497-4.942.53-.415 1.043-.754 1.14-.754.097 0 1.33.934 2.74 2.076 21.76 17.618 56.286 33.412 99.004 45.29 9.508 2.643 26.225 6.642 32.015 7.658 2.196.385 2.646.522 2.646.802 0 .373-3.878 5.491-6.315 8.336-9.5 11.085-25.89 24.136-42.315 33.693-3.173 1.846-3.493 2.01-3.493 1.785zm-180.276-13.64c-.917-.296-1.757-1.02-1.757-1.512 0-.641 2.192-2.78 4.233-4.131 1.091-.723 5.594-3.089 10.007-5.258 13.353-6.567 19.819-10.482 27.828-16.851 3.145-2.5 11.229-10.542 13.606-13.533 8.123-10.222 13.692-23.11 14.356-33.22.09-1.375.252-2.499.36-2.499.265 0 3.594 3.737 4.959 5.565 2.368 3.173 4.703 8.813 5.873 14.19 1.538 7.063.676 14.302-2.49 20.896-2.305 4.801-5.103 8.55-9.407 12.601-11.103 10.452-31.1 18.922-54.244 22.976-4.904.859-11.826 1.262-13.324.777zm-62.876-7.437c-1.674-.131-5.722-.427-8.996-.656-25.93-1.816-49.2-6.78-68.805-14.677-23.853-9.609-44.378-25.659-51.21-40.045-2.193-4.617-.552-6.355 4.392-4.652 2.238.77 7.167 3.238 10.915 5.464 7.978 4.737 22.942 10.3 36.445 13.55 6.868 1.652 21.305 4.518 24.129 4.79 15.89 1.526 36.968 1.57 53.13.108 21.159-1.912 40.948-6.07 61.515-12.923 16.714-5.57 28.624-10.627 56.621-24.043 4.336-2.078 6.977-3.206 7.144-3.052.16.148.259 2.258.25 5.326-.018 5.583-.372 7.868-1.97 12.689-6.419 19.37-28.686 37.619-59.412 48.69-12.647 4.557-25.43 7.509-39.277 9.069-4.508.508-20.126.735-24.871.362zm311.563-1.861c-.08-.349-.39-1.764-.69-3.145-1.947-8.958-6.116-15.992-10.923-18.434l-1.279-.65 2.076-2.167c3.5-3.655 6.605-8.065 10.649-15.128 5.371-9.383 12.523-25.137 17.78-39.162.504-1.348.924-2.152.965-1.852.092.66-2.121 14.063-4.064 24.606-4.195 22.773-9.009 42.646-12.88 53.181-1.206 3.28-1.427 3.653-1.634 2.75zm-14.105-23.412c-.473-.372-.86-.89-.86-1.154 0-.604-.612-1.125-1.101-.937-.21.08-.713-.209-1.142-.657-.422-.44-.666-.8-.544-.8.123 0 .015-.23-.24-.511-.254-.282-.608-.456-.786-.387-.465.178-1.744-.903-1.744-1.474 0-.463-.672-.946-1.16-.833-.3.07-1.485-1.036-1.485-1.384 0-.446-.825-1.204-1.167-1.072-.392.15-1.831-1.127-1.633-1.449.19-.307-.805-1.185-1.121-.99-.378.234-1.636-.865-1.636-1.429 0-.55-.255-.768-1.093-.929-.765-.147-1.552-.895-1.552-1.474 0-.53-.263-.747-1.094-.907-.771-.149-1.506-.855-1.604-1.542-.052-.366-.372-.662-.9-.833-1.062-.343-1.694-.878-1.694-1.434 0-.61-.523-1.08-1.203-1.08-.61 0-1.446-.763-1.54-1.404-.087-.59-.693-1.225-1.047-1.098-.413.149-1.517-.719-1.595-1.254-.09-.608-.716-1.292-1.015-1.107-.342.211-1.538-.94-1.538-1.48 0-.557-.515-1.065-1.082-1.065-.588 0-1.574-.811-1.655-1.362-.095-.645-.703-1.283-1.223-1.283-.54 0-1.331-.806-1.331-1.357 0-.516-.53-1.025-1.065-1.025-.536 0-1.581-1.082-1.581-1.638 0-.486-.728-1.161-.98-.91-.258.258-1.666-1.182-1.666-1.702 0-.516-.625-1.122-.887-.86-.24.24-1.777-1.26-1.594-1.556.21-.34-.416-1.007-.945-1.007-.543 0-1.601-1.069-1.601-1.617 0-.528-.531-1.028-1.092-1.028-.494 0-1.625-1.258-1.424-1.584.163-.264-.669-.984-1.272-1.101-.422-.082-.832-.648-1.506-2.078-.103-.218-.412-.439-.688-.49-.75-.14-1.426-.843-1.426-1.482 0-.677-.469-1.203-1.07-1.203-.547 0-1.294-.807-1.437-1.552-.16-.83-.378-1.094-.908-1.094-.578 0-1.326-.787-1.473-1.552-.162-.838-.379-1.094-.93-1.094-.59 0-1.616-1.214-1.432-1.694.144-.374-.522-1.028-1.14-1.119-.489-.072-1.257-1.117-1.299-1.768-.038-.593-.34-.895-1.018-1.017-.487-.088-.648-.319-1.472-2.12-.178-.388-.465-.652-.638-.585-.421.161-1.19-.723-1.438-1.656-.111-.416-.47-.89-.797-1.054-.725-.363-1.214-1.046-1.453-2.027-.106-.436-.44-.836-.82-.98-.643-.245-1.526-1.33-1.429-1.758.107-.468-.367-1.155-.797-1.155-.426 0-1.413-1.327-1.315-1.77.101-.457-.379-1.14-.801-1.14-.527 0-1.332-1.258-1.266-1.977.027-.296-.213-.638-.58-.825-.697-.357-1.664-1.68-1.463-2.005.205-.332-.404-1.279-.824-1.279-.456 0-1.28-1.487-1.04-1.876.093-.15-.334-.738-.95-1.306-.83-.767-1.08-1.173-.973-1.583.103-.393-.116-.812-.76-1.456-.836-.836-1.032-1.22-.927-1.81.09-.495-.299-1.23-.65-1.23-.51 0-1.244-1.495-1.044-2.126.11-.346-.045-.708-.475-1.111-.907-.85-1.22-1.553-1.06-2.384.098-.515.012-.77-.3-.89-.668-.255-1.249-1.58-1.046-2.386.138-.55.04-.802-.458-1.178-.536-.405-.627-.687-.592-1.841.031-1.048-.082-1.485-.49-1.894-.452-.451-.505-.74-.357-1.925.14-1.127.095-1.424-.238-1.552-.5-.192-.549-1.55-.083-2.295.261-.418.261-.633 0-1.051-.477-.764-.42-2.293.093-2.49.342-.131.388-.406.244-1.453-.164-1.192-.116-1.354.616-2.103.52-.533.746-.988.658-1.326-.165-.63.661-1.966 1.11-1.794.423.163.92-.342.92-.934 0-.592 1.29-1.806 1.737-1.634.452.173 1.449-.378 1.369-.757-.098-.465 1.177-1.023 1.962-.858.495.104.847-.007 1.19-.376.614-.657 1.84-.982 2.292-.607.362.301 1.504.124 1.504-.234 0-.361 1.615-.597 1.93-.281.365.364 1.774.385 1.774.027 0-.436 1.85-.315 2.02.132.172.445 1.3.541 1.552.132.27-.437 1.34-.3 2.056.265.74.582 1.419.687 1.567.242.134-.403 2.065-.012 2.065.418 0 .409 1.272.695 1.494.336.238-.386 1.593-.026 2.205.586.434.434.743.507 1.58.374.89-.143 1.128-.07 1.664.508.528.57.808.66 1.802.574.648-.056 1.237-.121 1.31-.146a.825.825 0 0 1 .314-.018c.27.038.588-1.064.508-1.761-.048-.414.234-.886.884-1.481.615-.563.897-1.02.795-1.287-.208-.541.578-2.05 1.068-2.05.418 0 1.004-.894.751-1.147-.087-.087-.009-.52.174-.96.3-.724.556-.928.924-.737.27.14.924-1.101.779-1.478-.212-.552.638-1.763 1.236-1.763.326 0 .544-.247.643-.727.241-1.181.77-2.04 1.319-2.146.602-.116 1.177-.815 1.016-1.235-.168-.439.933-1.713 1.481-1.713.536 0 1.242-.711.974-.98-.23-.23 1.174-1.686 1.456-1.512.371.23 1.288-.41 1.288-.9 0-.523 1.447-1.488 1.855-1.236.428.265 1.252-.11 1.388-.632.14-.536 1.851-1.02 2.002-.567.13.39 1.253.334 1.597-.08.412-.497 1.843-.23 2.184.409.207.386.466.489.985.39.836-.16 2.16.541 2.16 1.144 0 .587.532 1.054 1.202 1.054.648 0 1.443.765 1.443 1.388 0 .767.315 1.258.808 1.258.59 0 1.31.963 1.31 1.757 0 .914.28 1.418.79 1.418.505 0 1.197 1.329.991 1.905-.169.473.276 1.27.709 1.27.417 0 .985 1.238.914 1.99-.094 1 .037 1.45.422 1.45.565 0 1.012 1.005.837 1.88-.116.58-.003.897.486 1.357.708.666 1.121 1.908.717 2.158-.395.244-.054 1.18.493 1.354.56.178.966 1.64.567 2.04-.335.335-.098 1.026.5 1.457.567.409.883 1.608.533 2.03-.343.413-.064 1.482.388 1.482.496 0 .72.911.517 2.108-.144.852-.086 1.074.34 1.302.654.35.946 1.732.514 2.433-.278.452-.242.597.243.981.647.513 1.067 2.028.637 2.294-.475.294-.31 1.166.28 1.482.508.272.544.446.384 1.861-.146 1.292-.108 1.562.221 1.562.502 0 .864 1.717.463 2.2-.353.425-.097 1.504.357 1.504.403 0 .704 1.613.368 1.971-.384.408-.277 1.468.148 1.468.498 0 .856 1.776.442 2.19a.938.938 0 0 0 .232 1.515c.373.2.53.554.53 1.2 0 .504-.12.916-.266.916-.454 0-.29.778.265 1.252.561.48.738 2.028.265 2.32-.427.264-.306.896.264 1.384.596.51.694 1.668.206 2.448-.273.438-.232.602.265 1.065.608.567.807 1.948.323 2.247-.435.269-.3 1.042.265 1.526.547.468.75 2.046.264 2.046-.408 0-.313 1.247.108 1.409.496.19.824 1.733.448 2.11-.423.422-.357 1.426.106 1.603.451.174.557 1.891.132 2.154-.435.268-.3 1.042.264 1.526.548.468.752 2.046.265 2.046-.422 0-.306 1.25.132 1.418.451.173.574 2.286.133 2.286-.417 0-.309 1.058.125 1.224.588.226.845 1.964.332 2.25-.462.259-.338 1.103.233 1.577.42.348.506 2.093.103 2.093-.422 0-.305 1.25.133 1.418.45.173.573 2.286.132 2.286-.417 0-.309 1.058.125 1.224.214.082.467.561.561 1.064.135.717.065.992-.323 1.276-.48.35-.476.386.1 1.166.6.812.82 2.413.33 2.413-.422 0-.305 1.251.133 1.42.452.172.557 1.89.132 2.152-.408.253-.312 1.38.133 1.551.447.172.568 2.021.132 2.021-.422 0-.306 1.25.132 1.419.451.173.573 2.285.132 2.285-.422 0-.305 1.251.133 1.419.451.173.557 1.89.132 2.153-.409.253-.312 1.38.132 1.551.447.172.568 2.021.133 2.021-.423 0-.306 1.25.132 1.419.543.208.537 1.984-.008 2.193-.455.174-.295 1.018.307 1.62.486.486.463 1.817-.035 2.008-.501.192-.519 1.123-.024 1.313.6.23.832 1.799.32 2.173-.538.393-.557 1.339-.03 1.54.45.174.572 2.286.131 2.286-.145 0-.264.298-.264.662 0 .411.15.661.397.661.46 0 .576 1.974.132 2.25-.409.252-.313 1.38.132 1.55.233.09.397.486.397.963 0 .476-.164.873-.397.962-.497.191-.517 1.131-.031 1.522.583.47.75 1.654.296 2.108-.515.515-.506 1.141.02 1.436.276.154.388.514.33 1.066l-.086.834-.86-.676zm-9.46-3.735c-.29-.072-.793-.374-1.116-.672-.483-.446-.659-.483-.99-.208-.504.419-2.259.132-2.259-.37 0-.417-1.15-.785-1.279-.408-.15.44-1.586.283-2.084-.23-.57-.585-1.4-.92-1.4-.563 0 .448-1.567.276-2.07-.227-.659-.658-1.25-.853-1.581-.52-.376.375-2.17.018-2.17-.433 0-.45-1.112-.756-1.35-.37-.248.401-2.089.028-2.089-.423 0-.463-1.068-.737-1.495-.383-.423.35-1.375.064-2.154-.65-.495-.453-.697-.498-1.098-.248-.651.407-2.397-.05-2.397-.628 0-.337-.225-.378-1.287-.232-1.148.158-1.368.103-2.023-.504-.792-.734-1.192-.836-1.614-.414-.311.311-1.955-.165-1.955-.567 0-.37-1.16-.74-1.356-.433-.254.399-1.789-.04-2.087-.597-.214-.4-.538-.483-1.738-.441-1.205.041-1.545-.046-1.862-.479-.299-.407-.696-.53-1.723-.532-1.025-.003-1.424-.125-1.72-.529-.295-.403-.695-.527-1.713-.529-1.084-.003-1.416-.118-1.799-.626-.38-.502-.621-.589-1.26-.449-.942.207-2.204-.215-2.204-.737 0-.461-.92-.732-1.276-.375-.351.351-2.164-.246-2.164-.713 0-.471-.784-.742-1.185-.409-.448.372-1.922-.169-2.28-.837-.232-.433-.45-.492-1.299-.349-.896.152-1.122.074-1.871-.641-.93-.89-.998-.915-1.537-.574-.453.287-2.014-.322-2.014-.786 0-.43-.977-.776-1.35-.48-.404.321-1.958-.257-1.958-.728 0-.476-1.087-.914-1.482-.597-.45.361-1.885-.253-2.048-.877-.12-.457-.28-.521-.97-.383-.935.187-2.379-.417-2.379-.995 0-.449-.923-.715-1.272-.366-.32.32-1.27-.148-2.104-1.038-.422-.45-.76-.587-1.144-.465-.751.238-2.014-.333-2.185-.99-.112-.426-.295-.511-.862-.403-.906.173-2.222-.27-2.222-.748 0-.52-.817-.882-1.638-.725-.556.106-.908-.066-1.651-.81-.581-.58-1.1-.885-1.347-.79-.542.207-1.979-.413-1.979-.856 0-.498-.863-.905-1.544-.727-.633.166-2-.585-1.764-.968.203-.328-.794-.83-1.279-.643-.52.2-2.027-.595-2.027-1.068 0-.415-.911-.794-1.313-.546-.377.232-1.862-.602-1.862-1.046 0-.487-.738-.897-1.334-.742-.513.135-1.841-.624-1.841-1.051 0-.441-.895-.973-1.204-.716-.357.296-1.971-.661-1.971-1.17 0-.416-.711-.775-1.082-.546-.36.223-1.691-.65-1.976-1.296-.166-.376-.578-.619-1.228-.723-1.082-.173-1.8-.65-1.8-1.194 0-.42-.793-.879-1.242-.717-.506.182-1.348-.394-1.723-1.18-.24-.503-.585-.753-1.126-.814-.96-.11-1.697-.606-2.102-1.414-.17-.338-.542-.615-.828-.617-.795-.004-1.645-.584-2.032-1.388-.212-.44-.566-.73-.899-.735-.803-.013-1.954-.851-1.954-1.424 0-.51-.489-.816-1.304-.816-.508 0-1.256-.719-1.723-1.655-.164-.33-.56-.607-.89-.624-.74-.038-1.64-.827-1.64-1.438 0-.422-.54-.824-1.19-.887-.482-.047-1.493-.89-1.552-1.294-.09-.609-.742-1.285-1.106-1.145-.381.146-1.885-1.334-1.622-1.598.287-.286-.625-1.128-1.046-.966-.52.2-1.42-.663-1.42-1.361 0-.674-.469-1.203-1.066-1.203-.592 0-1.515-1.051-1.624-1.849-.055-.41-.29-.695-.618-.754-.747-.134-1.75-1.125-1.661-1.642.097-.574-.534-1.315-.974-1.146-.42.16-1.571-1.368-1.328-1.762.226-.366-.352-1.046-.898-1.057-.52-.01-1.442-1.203-1.28-1.654.166-.46-.294-1.248-.728-1.248-.51 0-1.516-1.338-1.344-1.787.19-.497-.314-1.388-.786-1.388-.522 0-1.283-1.222-1.084-1.74.166-.433-.434-1.546-.694-1.286-.29.29-1.299-1.468-1.136-1.98.115-.363-.115-.787-.8-1.472-.743-.743-.927-1.104-.806-1.587.192-.763-.047-1.46-.5-1.46-.454 0-1.018-1.423-.816-2.06.206-.648-.067-1.38-.513-1.38-.466 0-1-1.573-.67-1.97.334-.404.044-1.47-.4-1.47-.489 0-.73-.936-.523-2.037.142-.756.066-1.034-.402-1.47-.51-.475-.556-.712-.405-2.055.14-1.23.095-1.547-.234-1.673-.46-.177-.573-1.89-.142-2.157.405-.25.314-1.188-.132-1.36-.45-.172-.572-2.212-.133-2.212.146 0 .265-.297.265-.661 0-.364-.12-.662-.265-.662-.4 0-.317-1.69.126-2.543.253-.487.299-.842.132-1.009-.417-.417-.312-2.19.14-2.364.454-.175.534-1.111.116-1.37-.344-.212-.064-1.736.387-2.106.501-.412.74-1.26.412-1.462-.402-.248-.032-2.11.419-2.11.41 0 .762-.927.508-1.338-.339-.548.138-2.065.706-2.245.439-.14.522-.337.424-1.006-.15-1.027.262-2.29.748-2.29.52 0 .882-.817.725-1.638-.106-.555.065-.907.797-1.639.658-.657.89-1.09.79-1.473-.168-.644.563-1.865 1.117-1.865.422 0 .448-.053.524-1.072.066-.87.912-2.165 1.314-2.01.407.156.968-.755.775-1.26-.198-.513.692-1.724 1.274-1.735.517-.01.991-.763.807-1.28-.155-.432.658-1.359 1.458-1.665.331-.127.677-.44.767-.697.31-.877 1.23-1.658 1.952-1.658.71 0 1.452-.564 1.145-.87-.088-.088.237-.402.723-.697.544-.33.978-.442 1.129-.291.325.325 1.223-.158 1.223-.658 0-.503 1.484-1.257 2.092-1.064.617.196 1.347-.085 1.347-.517 0-.505 1.4-.988 2.245-.775.571.143.836.062 1.165-.356.476-.602 2.147-1.08 2.147-.614 0 .478.912.319 1.393-.244.476-.555 2.31-.765 2.31-.264 0 .396 1.001.319 1.244-.097.3-.51 1.873-.69 2.234-.255.393.474 1.266.447 1.454-.045.093-.24.493-.397 1.018-.397.476 0 1.013.179 1.195.397.18.218.54.397.797.397.258 0 .537-.179.621-.397.088-.229.484-.397.936-.397.43 0 .961.179 1.18.397.446.446 1.493.539 1.493.132 0-.323 2.037-.356 2.16-.035.049.127.357.313.685.415.422.132.644.064.756-.23.212-.55 1.914-.565 2.124-.017.168.438 1.418.554 1.418.132 0-.441 2.113-.319 2.286.132.168.438 1.419.555 1.419.132 0-.486 1.577-.282 2.045.265.496.579 1.26.697 1.543.238.26-.42 1.71-.066 2.292.56.534.572 1.263.703 1.263.227 0-.487 1.67-.021 2.14.598.333.437.591.517 1.224.378.998-.219 2.193.06 2.193.513 0 .479.612.657 1.666.486.759-.123 1.037-.015 1.744.676.912.891 1.106.962 1.514.554.36-.36 1.955.196 1.955.681 0 .56 1.013 1.012 1.453.647.442-.367 1.986.335 1.986.903 0 .46.67.721 1.41.548.68-.16 1.898.406 1.898.88 0 .497.71.84 1.388.67.683-.171 1.919.522 1.919 1.076 0 .456.582.69 1.27.51.612-.16 1.905.598 1.905 1.117 0 .475.754.87 1.36.711.595-.155 1.815.593 1.815 1.114 0 .51.507.786 1.331.723.722-.055 1.961.868 1.71 1.274-.195.316.794.826 1.257.648.45-.172 1.787.834 1.787 1.344 0 .43.787.895 1.24.731.488-.175 1.67.717 1.67 1.26 0 .57.685 1.02 1.305.858.46-.12 1.226.58 1.724 1.574.169.336.542.594.86.594.684 0 2.02 1.1 1.788 1.474-.263.427.431 1.068.971.897.625-.199 1.88 1 1.656 1.583-.21.546-.421.52-1.282-.157-.53-.417-.776-.484-.92-.25-.264.426-1.591.1-2.209-.542-.52-.54-1.124-.64-1.38-.226-.22.358-1.42.035-2.316-.625-.565-.416-.8-.465-1.045-.22-.48.48-1.47.377-2.062-.214-.56-.56-1.45-.702-1.714-.274-.214.346-1.805.016-2.07-.429-.253-.428-1.14-.47-1.39-.067-.23.372-1.917.066-2.423-.44-.435-.435-1.134-.504-1.134-.113 0 .145-.47.264-1.043.264s-1.116-.119-1.206-.264c-.09-.146-.454-.265-.81-.265-.354 0-.645.12-.645.265 0 .145-.41.264-.91.264-.501 0-.985-.119-1.074-.264-.223-.36-1.38-.336-1.608.033-.124.199-.73.241-1.838.127-1.394-.142-1.68-.1-1.822.268-.138.361-.41.409-1.551.273-1.218-.145-1.436-.096-1.82.412-.315.416-.758.592-1.588.631-1.588.076-1.547.064-1.547.487 0 .496-1.451 1.522-2.01 1.42a.613.613 0 0 0-.625.317l-.572 1.187c-.21.435-.675.937-1.035 1.116-.533.266-.656.529-.67 1.43-.012.803-.175 1.232-.595 1.572-.598.484-.756 1.28-.343 1.72.288.306.063 1.971-.266 1.971-.382 0-.267 1.064.162 1.493.448.448.536 1.83.133 2.08-.463.285-.286 1.16.298 1.472.492.263.544.463.412 1.575-.132 1.112-.066 1.365.523 2 .539.581.645.908.528 1.625-.174 1.074.011 1.661.523 1.661.457 0 .959 1.222.76 1.85-.195.612.101 1.325.55 1.325.487 0 1.233 1.496 1.044 2.093-.182.57.09 1.4.395 1.21.396-.244 1.356 1.269 1.2 1.89-.202.802.079 1.422.642 1.422.517 0 1.207 1.357.985 1.938-.16.414.194 1.09.597 1.138.15.018.379.048.506.066.337.048.907 1.54.71 1.858-.24.388.412 1.322.814 1.167.44-.169 1.478 1.513 1.165 1.89-.294.355.303 1.203.848 1.203.526 0 1.342 1.253 1.147 1.76-.217.565.31 1.424.766 1.25.482-.186 1.451 1.34 1.276 2.008-.126.481.258.872.96.978.477.072.908.792 1.078 1.803.083.494.378.908.794 1.114.813.403 1.636 1.377 1.436 1.7-.297.483.187 1.294.773 1.294.635 0 1.513 1.21 1.302 1.795-.166.461.414 1.115.844.95.417-.16 1.569 1.367 1.387 1.84-.17.445.5 1.333.847 1.118.405-.25 1.196.79 1.348 1.773.09.584.299.882.662.948.72.13 1.746 1.114 1.686 1.617-.085.72.337 1.336.922 1.344.615.01 1.618 1.163 1.365 1.57-.258.42.437 1.27.932 1.142.541-.142 1.312.84 1.312 1.672 0 .627.633 1.295 1.008 1.063.346-.214 1.312.92 1.416 1.662.05.348.298.735.553.86l.926.45c.254.125.566.571.692.993.379 1.266.569 1.516 1.18 1.561.693.052 1.349.832 1.36 1.62.01.623.646 1.285 1.015 1.057.344-.212 1.731 1.326 1.514 1.678-.252.406.388 1.126.845.95.48-.184 1.725 1.16 1.535 1.656-.208.54.346 1.108 1.08 1.108.673 0 1.26.733 1.534 1.918.127.546.328.728.806.728.708 0 1.782 1.155 1.575 1.694-.155.403.56 1.062.914.843.378-.233 1.438.742 1.484 1.366.051.693.649 1.434.988 1.224.371-.23 1.786 1.216 1.618 1.653-.2.521.434 1.197.965 1.028.555-.176 1.722 1.013 1.518 1.546-.18.467.604 1.21 1.092 1.034.51-.184 1.667.997 1.498 1.529-.168.53.508 1.164 1.029.964.41-.157 1.95 1.297 1.67 1.577-.3.3.378.887 1.022.887.65 0 1.805 1.216 1.548 1.63-.234.38.46 1.059.906.888.452-.174 1.962 1.135 1.734 1.503-.233.378.442 1.007 1.082 1.007.716 0 1.464.771 1.464 1.51 0 .682.596 1.195 1.145.984.497-.19 1.88 1.076 1.625 1.488-.256.414.418 1.076.93.914.649-.206 1.93.876 1.77 1.493-.143.544.693 1.166 1.17.871.367-.227 1.562.908 1.562 1.485 0 .585.622 1.094 1.11.907.577-.222 1.85.887 1.67 1.455-.155.488.468.936 1.144.824.566-.094 1.632.737 1.632 1.271 0 .662.656 1.165 1.266.97.525-.166 1.223.43 1.764 1.506.186.37.543.595.95.598.933.006 1.841.591 1.841 1.186 0 .625.858 1.153 1.245.766.385-.385 2.765.81 2.663 1.338-.084.438-.564.56-1.394.355zm11.314-1.31c-.36-.146-.048-.943.635-1.625.42-.42.462-1.014.09-1.244-.145-.09-.264-.566-.264-1.058 0-.492.119-.968.264-1.058.146-.09.265-.448.265-.794 0-.347-.12-.704-.265-.794-.145-.09-.264-.507-.264-.926 0-.42.119-.836.264-.926.362-.224.334-1.352-.05-1.966-.245-.393-.235-.74.043-1.584.277-.84.288-1.23.05-1.754-.377-.828-.399-1.884-.043-2.104.146-.09.265-.447.265-.794 0-.347-.12-.704-.265-.794-.37-.228-.33-1.621.064-2.252.261-.419.261-.633 0-1.051-.412-.66-.427-2.181-.024-2.583.228-.23.196-.469-.133-.97-.483-.737-.583-2.15-.171-2.404.145-.09.264-.454.264-.81 0-.355-.119-.645-.264-.645-.34 0-.347-1.93-.007-2.269.167-.167.12-.522-.133-1.01-.442-.851-.525-2.542-.125-2.542.407 0 .314-1.047-.132-1.493-.448-.448-.536-1.83-.133-2.08.326-.2.354-1.454.034-1.454-.353 0-.607-1.65-.301-1.955.36-.36.34-1.409-.03-1.638-.2-.123-.241-.73-.127-1.848.115-1.118.073-1.726-.127-1.849-.201-.124-.239-.727-.116-1.871.134-1.251.097-1.687-.143-1.687-.238 0-.278-.429-.153-1.627.097-.934.06-1.758-.087-1.936-.304-.366-.355-1.526-.118-2.721.1-.505.062-.86-.091-.86-.422 0-.607-1.532-.273-2.264.25-.549.224-.815-.139-1.429-.489-.828-.6-2.128-.18-2.128.422 0 .305-1.25-.133-1.418-.476-.183-.556-2.189-.094-2.343.214-.071.182-.366-.112-1.014-.633-1.4-.768-2.043-.466-2.23.41-.253.333-1.349-.122-1.726-.44-.366-.55-2.117-.132-2.117.39 0 .322-.82-.108-1.302-.454-.51-.572-1.49-.298-2.479.147-.531.084-.87-.224-1.211-.474-.524-.574-1.9-.167-2.307.172-.172.082-.597-.265-1.243-.573-1.07-.675-1.917-.26-2.173.378-.235.325-.827-.114-1.266-.496-.496-.845-2.306-.446-2.306.423 0 .364-1.257-.07-1.508-.478-.278-.813-1.827-.445-2.055.403-.248.345-1.081-.1-1.45-.52-.432-.802-1.848-.44-2.21.419-.419.359-1.18-.114-1.444-.495-.277-.864-2.181-.423-2.181.472 0 .35-.654-.252-1.349-.467-.537-.525-.846-.381-2.002.13-1.034.08-1.421-.201-1.588-.458-.27-.798-1.86-.446-2.078.435-.269.284-1.044-.3-1.545-.486-.415-.535-.656-.383-1.876.138-1.101.092-1.432-.212-1.549-.475-.182-.85-1.73-.502-2.076.343-.344.085-1.548-.333-1.548-.425 0-.789-1.828-.434-2.183.318-.318.089-1.012-.474-1.434-.295-.22-.401-.712-.371-1.712.034-1.138-.06-1.472-.495-1.778-.457-.32-.515-.569-.386-1.656.131-1.11.075-1.333-.424-1.682-.461-.323-.58-.68-.597-1.806-.016-1.095-.155-1.538-.632-2.014-.483-.484-.58-.8-.463-1.522.174-1.068-.005-1.675-.492-1.675-.409 0-.762-1.36-.538-2.067.105-.331-.114-.775-.671-1.358-.665-.696-.803-1.03-.701-1.697.157-1.032.004-1.493-.499-1.493-.41 0-1.2-1.564-.975-1.93.243-.393-.183-1.51-.576-1.51-.45 0-1.288-1.481-1.054-1.861.261-.422-.14-1.313-.59-1.313-.538 0-1.116-.77-1.127-1.5-.014-.922-.295-1.41-.811-1.41-.555 0-1.648-1.262-1.417-1.636.213-.345-.666-1.268-1.063-1.116-.354.136-1.133-.62-1.597-1.55-.204-.408-.541-.598-1.082-.608-.993-.02-1.976-.546-1.976-1.06 0-.328-.293-.365-1.72-.22-1.212.125-1.72.088-1.72-.124 0-.166-.297-.301-.661-.301-.396 0-.662.151-.662.376 0 .474-1.914 1.158-2.055.734-.134-.402-1.384.182-1.384.646 0 .421-1.141 1.21-1.633 1.129-.613-.102-1.278.329-1.278.828 0 .55-1.26 1.648-1.63 1.42-.386-.239-1.015.428-1.015 1.076 0 .651-.753 1.464-1.357 1.464-.559 0-1.025.544-1.025 1.197 0 .613-1.117 1.83-1.411 1.536-.266-.266-.978.775-.824 1.207.185.52-.584 1.594-1.35 1.886-.477.181-.648.444-.648.996 0 .893-.432 1.545-1.327 2.002-.407.207-.635.53-.599.848.098.855-.479 1.951-1.215 2.313-.488.24-.676.52-.63.94.09.824-.674 2.233-1.12 2.062-.415-.16-.665.364-.665 1.388 0 .825-.583 1.749-1.103 1.749-.222 0-.402.442-.485 1.19-.073.655-.221 1.161-.33 1.125a2.447 2.447 0 0 0-.596-.066c-.576 0-.496-1.128.132-1.853.58-.667.676-1.2.264-1.455-.322-.2-.058-1.484.38-1.852.506-.424.712-1.23.408-1.596-.366-.44-.077-1.553.55-2.12.394-.358.464-.68.342-1.576-.123-.9-.05-1.23.36-1.642.677-.677.891-1.275.572-1.594-.354-.354-.007-1.598.556-1.995.58-.408.964-1.515.526-1.515-.503 0-.035-1.38.705-2.076.507-.476.623-.788.501-1.343-.2-.91.25-2.138.783-2.138.222 0 .41-.148.418-.33.087-1.995.206-2.698.473-2.787.707-.235 1.08-.884.932-1.623-.171-.858.274-1.874.82-1.874.44 0 .747-.816.525-1.394-.204-.534.58-2.046 1.06-2.046.417 0 .796-.91.547-1.313-.232-.376.602-1.862 1.046-1.862.487 0 .898-.738.742-1.333-.147-.56.64-1.842 1.131-1.842.464 0 .69-.4.755-1.33.051-.737.899-1.984 1.167-1.716.283.283.842-.496.842-1.173 0-.732 1.078-2.023 1.411-1.69.246.247.983-.758.845-1.151-.161-.46.878-1.671 1.435-1.671.55 0 1.186-.658.971-1.006-.18-.291 1.352-1.8 1.587-1.564.292.292 1.159-.335 1.159-.838 0-.672.92-1.428 1.777-1.46.474-.018.826-.237 1.027-.64.434-.872 1.307-1.41 2.014-1.244.677.16 1.002-.018 1.419-.773.351-.636 1.684-1.131 1.939-.72.257.417 1.279.075 1.423-.476.13-.495 1.691-.894 1.938-.495.232.375 1.436.242 1.596-.177.173-.45 2.213-.572 2.213-.132 0 .146.29.265.646.265.355 0 .72-.12.809-.265.275-.445 1.344-.296 2.09.291.505.397.904.506 1.4.382.82-.206 2.199.299 2.199.805 0 .511.907.948 1.253.603.383-.383 1.598.285 2.02 1.11.231.45.519.624.95.575.802-.09 1.735.53 2.186 1.455.271.554.522.715 1.032.663.696-.072 1.388.497 1.937 1.592.167.333.542.594.854.594.694 0 1.674.857 1.674 1.464 0 .575.675 1.154 1.066.912.423-.261 1.58.914 1.58 1.606 0 .665.635 1.306 1.044 1.053.412-.254 1.679 1.128 1.488 1.625-.202.528.294 1.145.92 1.145.604 0 1.593 1.231 1.398 1.74-.19.493.375 1.18.828 1.006.462-.178 1.512 1.322 1.304 1.864-.2.524.335 1.21.945 1.21.518 0 1.068 1.033 1.068 2.004 0 .453.202.732.65.902.739.282 1.616 1.734 1.2 1.99-.365.227.175 1.19.667 1.19.552 0 1.274 1.229 1.104 1.878-.186.712.04 1.297.503 1.297.576 0 1.247 1.237 1.065 1.962-.214.853.051 1.478.629 1.478.642 0 1.244 1.446.816 1.962-.249.3-.124.561.629 1.314.92.92 1.203 1.822.674 2.148-.36.223.168 1.19.651 1.19.521 0 1.11 1.847.676 2.115-.448.277-.1 1.238.507 1.397.564.147 1.01 1.688.606 2.093-.377.377-.09 1.205.468 1.35.584.153.968 1.65.551 2.15-.356.43-.098 1.214.4 1.214.198 0 .464.387.59.86.243.905.148 1.521-.235 1.521-.325 0 .046.854.575 1.323.546.484.87 1.758.505 1.984-.485.3-.299 1.386.263 1.533.403.105.53.36.53 1.073 0 .515-.12 1.009-.265 1.099-.4.247-.321.588.261 1.13.626.583.98 2.033.56 2.293-.438.27-.361 1.472.093 1.472.484 0 .9 1.909.448 2.06-.431.143-.378 1.294.068 1.465.205.079.457.53.56 1.001.145.657.083.937-.263 1.19-.514.375-.354 1.288.267 1.527.443.17.54 1.891.122 2.15-.425.262-.317 1.455.133 1.455.286 0 .397.294.397 1.058 0 .582-.12 1.058-.265 1.058-.422 0-.306 1.25.132 1.419.451.173.574 2.285.133 2.285-.423 0-.306 1.251.132 1.419.25.096.397.501.397 1.095s-.147.999-.397 1.095c-.218.084-.397.381-.397.661s.179.578.397.662c.256.098.397.507.397 1.154 0 .646-.141 1.056-.397 1.154-.218.084-.397.381-.397.661s.179.578.397.662c.262.1.397.515.397 1.219 0 .771-.11 1.066-.397 1.066-.247 0-.397.25-.397.662 0 .411.15.661.397.661.287 0 .397.295.397 1.067 0 .704-.135 1.118-.397 1.219-.218.084-.397.437-.397.785 0 .387.155.633.397.633.278 0 .397.28.397.935 0 .586-.148.99-.397 1.086-.445.171-.541 1.299-.132 1.551.424.263.319 1.98-.133 2.154-.492.189-.517 1.071-.042 1.546.436.436.256 1.974-.255 2.17-.465.179-.47 1.073-.01 1.534.448.448.253 1.989-.252 1.989-.422 0-.507 1.205-.102 1.455.473.293.297 1.84-.264 2.32-.63.54-.677.948-.133 1.156.573.22.492 1.59-.132 2.213-.573.573-.686 1.195-.265 1.455.498.308.306 1.944-.264 2.249-.583.312-.717 1.216-.205 1.387.544.181.26 1.867-.398 2.368-.555.423-.565.489-.176 1.19.506.915.38 1.845-.298 2.209-.525.28-.719 1.313-.246 1.313.529 0 .282 1.815-.323 2.379-.51.474-.542.62-.249 1.09.442.708.14 2.11-.488 2.275-.513.134-.883 1.325-.456 1.467.452.151-.083 1.837-.629 1.98-.525.137-.614.451-.522 1.828.042.618-.153 1.046-.755 1.663-.889.909-.952 1.094-.524 1.522.36.36-.392 1.935-.925 1.935-.402 0-.802 1.146-.443 1.27.356.122-.298 1.944-.759 2.113-.587.215-.817.645-.644 1.2.194.625-.388 2.032-.84 2.032-.5 0-.758.528-.69 1.417.064.84-.626 2.13-1.012 1.891-.36-.222-.79.758-.619 1.411.172.655-.536 1.895-1.08 1.895-.462 0-.689.585-.503 1.297.169.645-.55 1.878-1.095 1.878-.416 0-.796.91-.547 1.313.232.376-.602 1.862-1.046 1.862-.487 0-.897.738-.742 1.334.147.562-.64 1.841-1.134 1.841-.466 0-.87.75-.718 1.334.152.581-.69 1.91-1.108 1.749-.414-.16-.967.758-.769 1.275.195.508-.573 1.728-1.088 1.728-.447 0-1.025.955-.799 1.32.263.425-.637 1.855-1.167 1.855-.529 0-.81.483-.824 1.41-.01.723-.587 1.5-1.113 1.5-.572 0-1.085.709-.886 1.226.095.248-.024.65-.276.93-.463.51-.546.534-1.088.315zM83.312 180.762c-8.757-.755-14.554-1.582-23.018-3.283-41.812-8.4-82.989-26.922-112.58-50.64-10.544-8.45-21.203-19.02-29.358-29.116-11.248-13.923-20.117-29.359-24.635-42.878-2.392-7.153-3.396-14.026-2.46-16.827.727-2.175 2.335-2.87 4.422-1.911 1.824.837 5.53 4.954 9.007 10.007 7.059 10.256 12.277 16.603 19.376 23.564 6.539 6.412 12.45 10.937 18.885 14.456 1.455.796 4.908 2.737 7.673 4.315 6.475 3.693 20.477 10.752 27.252 13.738 22.453 9.896 44.511 16.293 65.22 18.912 8.375 1.059 11.296 1.215 22.49 1.206 11.416-.01 14.125-.183 22.621-1.442 10.774-1.598 23.05-4.921 29.477-7.98 4.879-2.322 12.08-4.305 18.677-5.143 4.09-.52 13.267-.597 17.198-.145 21.822 2.51 43.001 12.37 64.559 30.06 3.606 2.96 7.892 6.735 8.028 7.071.113.28-8.848 4.634-16.098 7.821-29.451 12.949-60.686 22.205-88.106 26.111-4.667.665-9.785 1.226-15.875 1.741-3.321.281-20.527.556-22.755.363zM243.65 150.5c-6.458-1.722-12.946-6.65-26.48-20.115-2.36-2.35-8.478-7.207-13.472-10.7-25.154-17.592-51.548-23.59-76.276-17.335-5.992 1.516-17.327 3.2-27.838 4.136-4.113.366-7.973.473-17.33.476-12.261.005-15.339-.145-24.606-1.205-45.72-5.227-88.946-25.87-123.863-59.15-17.189-16.382-31.028-34.409-41.51-54.07-1.357-2.547-3.26-5.828-4.23-7.291-10.475-15.828-19.303-44.117-22.474-72.02-1.187-10.44-1.31-19.337-.411-29.565 1.715-19.494 3.918-29.236 6.612-29.236.31 0 .938.387 1.396.86 1.921 1.983 3.804 7.61 6.282 18.77 1.852 8.34 2.944 12.696 4.76 18.984 13.393 46.387 38.652 83.885 73.16 108.612 25.128 18.005 54.553 28.878 87.368 32.285 3.69.384 4.072.378 7.408-.117 11.3-1.675 18.924-3.621 42.543-10.861 31.188-9.56 42.811-11.91 64.23-12.982 15.29-.766 32.937.817 45.902 4.117 19.591 4.987 32.605 13.592 39.25 25.952.741 1.379 1.736 3.635 2.212 5.014l.864 2.507-2.219 2.204c-3.77 3.744-6.271 7.391-9.11 13.279-3.128 6.49-5.619 15.583-6.476 23.647-.756 7.112.358 15.08 3.078 22.016 4.103 10.463 11.229 20.307 23.992 33.147 2.44 2.454 4.436 4.555 4.436 4.67 0 .373-4.627 2.606-7.17 3.46-3.31 1.112-7.057 1.303-10.028.51zm192.51-10.788c.218-2.012.647-15.48.806-25.29.358-22.047-1.098-39.054-4.536-52.99-5.357-21.714-16.033-37.889-32.94-49.91-2.293-1.63-3.319-2.721-11.02-11.724-30.492-35.643-50.858-64.908-66.094-94.97-16.161-31.887-25.011-62.636-27.149-94.324-.377-5.595-.377-19.496 0-25.136 1.097-16.386 4.707-37.99 7.274-43.524 3.318-7.154 6.198.93 8.482 23.813 2.627 26.31 10.396 61.323 18.88 85.083 7.648 21.422 16.074 36.978 25.734 47.514 1.221 1.332 5.312 5.201 9.09 8.599 45.845 41.223 68.802 72.81 78.33 107.777 1.882 6.905 3.349 15.103 4.283 23.945.667 6.307.664 26.728-.006 34.263-1.563 17.61-4.017 33.627-9.037 59-.95 4.798-1.726 8.756-1.726 8.795 0 .039-.108.07-.24.07-.131 0-.19-.446-.132-.991zm-93.424-73.118c-16.885-14.21-37.216-23.133-57.172-25.092-3.828-.375-12.767-.379-16.562-.006-3.927.386-9.464 1.41-12.033 2.226-1.128.359-2.106.597-2.173.53-.193-.193-.078-.24 3.386-1.416 12.555-4.262 23.09-11.659 28.77-20.2 4.067-6.118 6.704-14.1 6.704-20.295V.703l.728.547c.4.301 1.68 1.333 2.844 2.292 3.16 2.605 10.128 7.15 14.023 9.148 11.28 5.785 22.926 8.318 34.04 7.404 8.24-.678 15.341-2.602 23.154-6.273 1.686-.792 3.132-1.44 3.214-1.44.082 0-1.134 1.275-2.704 2.833-7.59 7.535-13.47 17.173-18.231 29.886-2.216 5.916-4.768 15.255-5.754 21.057-.167.983-.38 1.783-.475 1.78-.094-.004-.886-.608-1.759-1.343zm-90.98-25.051c-.09-.144.196-.41.634-.59 1.144-.475 2.109-1.727 2.102-2.73-.02-2.882-3.623-6.183-12.782-11.706-6.99-4.216-13.046-9.94-16.78-15.862-1.32-2.095-2.88-5.61-3.615-8.146-1.306-4.505-1.589-11.56-.464-11.56.243 0 1.394.198 2.558.438 3.333.689 9.698.618 12.538-.14 3.92-1.046 5.362-1.922 8.806-5.354 5.655-5.635 9.782-7.647 15.68-7.642 7.358.007 16.213 5.292 23.583 14.076 3.52 4.196 4.685 7.411 4.675 12.91-.008 4.827-1.186 8.76-4.052 13.53-1.862 3.097-3.15 4.713-6.592 8.263-8.065 8.32-17.282 13.827-24.418 14.59-1.047.113-1.775.083-1.873-.077zm82.027-25.845c-12.045-1.53-23.36-6.586-34.275-15.312-1.836-1.468-5.78-5.1-8.762-8.069-16.3-16.227-32.737-25.606-46.7-26.647-4.555-.339-9.605.632-13.758 2.646-3.523 1.709-6.542 4.153-8.513 6.89-.315.437-.64.725-.723.642-.637-.637 2.365-7.392 4.588-10.325 5.4-7.123 14.771-12.796 26.44-16.005 9.437-2.596 22.872-4.202 29.623-3.541 27.486 2.69 54.37 20.258 79.97 52.257 4.396 5.494 7.522 9.646 7.522 9.991 0 .176-1.072.878-2.382 1.56-4.974 2.593-10.694 4.462-16.933 5.532-4.134.71-12.042.897-16.097.381zm40.425-9.84c-13.407-18.961-29.018-36.036-42.15-46.1-3.662-2.807-8.37-5.88-11.818-7.717-3.316-1.766-3.92-2.345-9.91-9.51-14.316-17.126-25.869-36.824-31.499-53.71-2.48-7.441-3.557-12.353-4.87-22.226-4.163-31.278-4.603-53.957-1.105-56.86 1.495-1.24 3.521 2.529 5.037 9.368 2.548 11.498 4.568 19.195 7.54 28.733 10.072 32.319 24.363 61.13 40.043 80.73 1.344 1.68 6.57 7.8 11.613 13.602 16.927 19.475 23.082 26.915 35.545 42.96a2638.224 2638.224 0 0 0 12.49 15.925c3.535 4.466 6.428 8.18 6.428 8.253 0 .074-.554-.11-1.232-.41-1.931-.855-5.853-.945-9.351-.215-1.528.318-3.092.638-3.474.71-.638.12-.912-.175-3.287-3.533zM217.324-10.411c-1.455-.57-5.156-1.859-8.224-2.866-38.537-12.65-84.638-13.248-142.016-1.84-6.885 1.369-20.073 4.225-21.409 4.637-.254.078-.463.035-.463-.097s2.352-1.17 5.226-2.307c30.274-11.978 58.85-18.502 88.77-20.265 6.918-.408 26.146-.175 32.74.396 12.652 1.097 23.928 2.852 35.85 5.58 5.053 1.156 11.719 2.897 11.94 3.12.237.235-1.662 2.439-2.776 3.222-.928.652-1.404.8-2.571.8-1.116 0-1.433.09-1.433.41 0 .643 2.378 4.096 4.883 7.088 1.26 1.505 2.253 2.83 2.209 2.946-.044.116-1.27-.255-2.726-.824zm14.155-1.218c-2.813-.29-6.383-1.737-7.674-3.111l-.59-.63 1.102-2.043c1.73-3.207 3.375-5.507 5.397-7.545 3.561-3.59 6.446-4.998 10.645-5.198 3.494-.166 6.571.532 9.05 2.053l.865.53-.678 1.339c-1.875 3.7-5.208 8.309-7.457 10.311-1.794 1.598-4.119 3.062-5.685 3.583-1.426.473-3.879.824-4.975.711zm2.382-5.848c1.483-1.483 1.196-3.977-.58-5.06-1.711-1.044-3.397-.357-3.923 1.598-.554 2.055 1.023 4.17 3.134 4.205.338.006.955-.329 1.37-.743zm75.892-35.89c-.27-.269-9.225-2.549-12.955-3.298-2.128-.427-5.284-.965-7.012-1.194-4.418-.588-5.546-.873-7.534-1.904-5.573-2.89-10.337-10.17-13.976-21.357-2.572-7.905-4.52-18.705-4.516-25.03.003-4.675 1.147-10.532 2.276-11.644l.67-.662.905 1.033c1.072 1.225 2.806 5.537 5.01 12.461.834 2.62 1.907 5.537 2.383 6.482 3.269 6.492 16.394 23.417 31.546 40.681 2.076 2.366 3.775 4.36 3.775 4.432 0 .17-.402.17-.572 0z" style="fill:#fff;stroke-width:.264583" transform="translate(175.591 260.68)"/></svg>