<svg xmlns="http://www.w3.org/2000/svg" width="300mm" height="300mm" viewBox="0 0 300 300"><path d="M56.826 216.644C28.6 180.31 7.939 122.664 7.939 80.242V58.635l11.145-2.09C40.796 52.472 61.795 31.71 68.12 8.067L70.096.674l78.805.14c43.343.072 80.046.908 81.563 1.845 1.516.937 3.738 6.174 4.938 11.638 3.22 14.662 26.92 36.863 44.318 41.516l14.407 3.853v18.14c0 29.488-8.57 65.999-22.13 94.276-14.132 29.467-23.306 42.98-44.446 65.46-15.878 16.885-71.424 62.475-76.118 62.475-33.588-20.493-71.177-53.559-94.607-83.373Zm149.592-23.04c20.163-24.606 30.605-50.278 35.284-86.75 1.862-14.513 1.38-16.915-3.72-18.487-17.215-5.305-26.444-12.448-31.09-24.061l-4.93-12.318h-50.929v191.065l21.994-17.77c12.097-9.774 27.123-24.029 33.39-31.678z" style="fill:#fff;stroke-width:3.17986"/></svg>