<svg xmlns="http://www.w3.org/2000/svg" xml:space="preserve" width="1890" height="1890" overflow="hidden"><defs><clipPath id="a"><path d="M537 260h1890v1889H537z"/></clipPath></defs><g fill-rule="evenodd" clip-path="url(#a)" transform="translate(-537 -260)"><path fill="#24A148" d="M1837.93 1692.48h483.76l-26.46 58.33c-92.05 187.39-229.92 334.36-405.95 381.76l-51.35 9.78Zm-622.77 0h540.25v455.97l-7.51.01c-49.5-1.77-101.34-10.94-155.39-28.46-117.78-38.18-118.34-38.83-229.17-.32-44.27 15.39-87.12 24.64-128.46 28.39l-19.72.93Zm-569.988 0h487.468v453.13l-17.14-2.21c-195.103-33.94-348.459-195.23-448.115-401.35ZM1837.93 1060.1h583.36l4.24 48.97c7.1 144.48-11.69 298.76-53.81 443.05l-18.59 57.82h-515.2Zm-622.77 0h540.25v549.84h-540.25Zm-672.404 0h589.884v549.84H612.93l-20.414-63.27c-47.281-160.74-65.48-331.67-50.271-482.95Zm373.952-450.851c50.808-1.055 107.072 7.218 169.012 26.288l46.92 16.143v325.875H555.492L568.75 920.1c50.614-179.817 163.183-307.015 347.958-310.851Zm838.702-66.787v435.093h-540.25V687.892l19.59 9.396c35.29 18.048 72.03 39.071 110.26 63.253 129.84-93.136 246.92-157.724 351.78-198.197Zm219.95-33.631c240.21 9.844 378.25 192.623 429.06 432.848l6 35.876h-572.49V520.868l7.08-1.703c46.41-8.735 89.83-11.995 130.35-10.334ZM1047.24 260h274.34c19.87 0 32.41 7.679 37.63 23.037 3.84 11.293-8.62 142.74-37.39 394.342-195.38-252.054-294.76-383.049-298.13-392.987-2.61-7.679-1.07-13.777 4.62-18.294 4.94-4.066 11.25-6.098 18.93-6.098Z"/><path fill="#DEFBE6" d="M838.79 1234.71 790 1361.03h102.747Zm613.43-37.33v116.57h47.64c.76.38 1.63.57 2.58.57h2.01c13.01 0 24.3-1.15 33.87-3.44 9.56-2.3 17.6-5.55 24.11-9.77 6.5-4.59 11.48-10.62 14.92-18.08 3.44-7.47 5.17-16.18 5.17-26.13 0-10.72-1.73-19.81-5.17-27.27-3.44-7.47-8.42-13.5-14.92-18.09-6.51-4.21-15.41-7.47-26.7-9.76-11.28-2.3-24.96-3.45-41.04-3.45Zm471.23-49.38h220.99v47.66H2110c-5.74.77-10.61 1.72-14.63 2.87-4.02 1.15-7.18 2.68-9.47 4.59-2.3 1.92-4.02 4.6-5.17 8.04-1.15 3.45-1.72 7.66-1.72 12.64v257.82h79.21c20.28.76 36.45-1.72 48.5-7.47 12.06-5.74 20.38-14.35 24.97-25.84 4.21-11.48 7.47-24.31 9.76-38.47 2.3-14.16 3.64-29.48 4.02-45.94l54.53-1.14V1531h-376.55v-47.09h29.85c.77.39 1.53.58 2.3.58h1.72c4.59 0 8.61-.48 12.05-1.44 3.45-.95 6.13-2.39 8.04-4.3 2.29-1.92 4.02-4.6 5.17-8.04 1.14-3.45 1.72-7.66 1.72-12.64v-235.42c0-4.21-.58-8.04-1.72-11.49-1.15-3.44-2.88-6.12-5.17-8.04-2.3-1.91-5.45-3.44-9.47-4.59-4.02-1.15-8.9-1.72-14.64-1.72l-29.85-1.15Zm-626.79 0h252.56c21.82.77 40.95 3.54 57.4 8.33 16.46 4.78 30.24 11.77 41.33 20.95 11.1 9.19 19.52 20.49 25.26 33.88 5.74 13.4 8.61 29.1 8.61 47.09 0 17.61-2.97 33.11-8.9 46.51-5.93 13.4-14.83 24.5-26.69 33.3-11.86 8.81-26.88 15.41-45.06 19.82-18.18 4.4-39.32 6.6-63.43 6.6l-85.52-1.15v93.6c0 5.36.57 9.85 1.72 13.49 1.15 3.64 2.87 6.41 5.16 8.33 2.3 1.91 5.46 3.35 9.48 4.3 4.01.96 8.89 1.44 14.63 1.44l36.17-1.15V1531h-222.72v-47.09h29.85c.76.39 1.53.58 2.3.58h1.72c4.59 0 8.61-.48 12.05-1.44 3.45-.95 6.12-2.39 8.04-4.3 2.29-1.92 4.02-4.6 5.16-8.04 1.15-3.45 1.73-7.66 1.73-12.64v-235.42c0-4.21-.58-8.04-1.73-11.49-1.14-3.44-2.87-6.12-5.16-8.04-2.3-1.91-5.46-3.44-9.47-4.59-4.02-1.15-8.9-1.72-14.64-1.72l-29.85-1.15Zm-481.978 0h87.249l119.389 275.05c.77 1.91 1.34 3.54 1.73 4.88.38 1.34.95 2.58 1.72 3.73.38 1.53.86 2.87 1.43 4.02.58 1.15 1.06 2.3 1.44 3.45.76 1.14 1.34 2.29 1.72 3.44.38 1.15.96 2.3 1.72 3.45.38 1.15.86 2.2 1.44 3.15.57.96 1.05 1.82 1.43 2.59 3.06 5.74 6.41 10.72 10.05 14.93 3.63 4.21 7.36 7.46 11.19 9.76 4.21 2.68 9.47 4.59 15.79 5.74 6.31 1.15 14.06 1.72 23.24 1.72V1531H881.841v-48.23h20.09c.765.38 1.339.57 1.722.57H908.245c4.209 0 7.844-.29 10.906-.86 3.061-.58 5.74-1.24 8.036-2.01 2.679-1.15 4.688-2.68 6.027-4.59 1.339-1.92 2.009-4.22 2.009-6.9 0-1.91-.191-3.92-.574-6.02-.383-2.11-.957-4.5-1.722-7.18-.765-2.3-1.626-4.69-2.583-7.18a91.87 91.87 0 0 1-2.583-7.75c-.383-.77-.765-1.53-1.148-2.3-.383-.76-.765-1.53-1.148-2.29-.383-.77-.765-1.54-1.148-2.3-.383-.77-.765-1.72-1.148-2.87-.765-1.92-1.531-3.74-2.296-5.46-.765-1.72-1.531-3.35-2.296-4.88-.765-1.91-1.435-3.54-2.009-4.88a84.924 84.924 0 0 0-2.009-4.31v-1.14H771.632c-.383 1.14-.766 2.1-1.149 2.87-.382.76-.574 1.53-.574 2.29-.382 1.15-.765 2.11-1.148 2.87-.382.77-.765 1.54-1.147 2.3a42.107 42.107 0 0 1-1.436 4.59 46.7 46.7 0 0 1-2.009 4.6c-.382 1.15-.86 2.3-1.435 3.44a26.417 26.417 0 0 0-1.435 3.45c-.382.38-.669.86-.861 1.43-.191.58-.287 1.06-.287 1.44-.382.77-.669 1.34-.861 1.72-.191.39-.287.96-.287 1.73-1.148 2.29-2.009 4.59-2.583 6.89a94.614 94.614 0 0 1-2.009 6.89l-1.148 6.89c-.383 2.29-.574 4.4-.574 6.31 0 2.68.479 5.08 1.435 7.18.957 2.11 2.583 3.54 4.879 4.31 1.914.76 5.071 1.34 9.472 1.72 4.4.38 9.853.57 16.359.57l16.646-1.14V1531H631v-48.23c.383.38.861.57 1.435.57h4.305c6.123 0 11.767-.38 16.933-1.15 5.166-.76 9.663-1.91 13.49-3.44 4.209-1.92 8.227-5.17 12.054-9.77 3.826-4.59 7.462-10.52 10.906-17.8.765-1.91 1.53-3.73 2.296-5.45.765-1.72 1.53-3.35 2.296-4.88.382-.77.765-1.53 1.148-2.3.382-.76.765-1.72 1.148-2.87.382-.76.765-1.53 1.148-2.3.383-.76.765-1.53 1.148-2.29v-.86c0-.2.191-.48.574-.87 0 0 .095-.09.287-.28.191-.19.287-.48.287-.86 0-.39.096-.77.287-1.15.191-.39.478-.77.861-1.15.765-1.15 1.339-2.2 1.722-3.16s.956-2.01 1.722-3.16c.383-.76.861-1.72 1.435-2.87.574-1.15 1.052-2.3 1.435-3.44 1.148-1.92 2.2-4.02 3.157-6.32.956-2.3 1.817-4.59 2.583-6.89Z"/></g></svg>