<svg xmlns="http://www.w3.org/2000/svg" width="625.657" height="625.367" viewBox="0 0 165.538 165.462"><path d="M83.844 146.745V126.79h47.229V166.685l-1.308-.06c-2.432-.11-5.203-.488-7.811-1.066-1.952-.433-3.549-.884-6.671-1.884-4.927-1.579-6.317-1.91-8.306-1.984-2.294-.085-3.635.213-8.735 1.94-3.309 1.12-4.482 1.477-6.336 1.926-2.382.577-5.504 1.055-7.295 1.118l-.767.026zm-8.017 19.589c-5.36-.702-11.589-3.175-16.824-6.68-10.05-6.728-18.97-18.36-24.985-32.58l-.12-.284h42.586V166.395l-.197-.013a8.641 8.641 0 0 1-.46-.048zm62.518-19.872V126.79h42.324l-.122.284c-3.84 8.927-8.339 16.266-13.817 22.541-1.385 1.586-4.342 4.52-5.91 5.863-4.52 3.872-9.16 6.665-14.284 8.598-1.948.734-3.435 1.145-5.694 1.573a231.1 231.1 0 0 0-2.3.442l-.197.044zM30.06 116.472c-1.077-3.351-1.717-5.618-2.43-8.609-2.367-9.95-3.502-20.464-3.196-29.629.086-2.557.261-5.383.404-6.493l.053-.416h51.593v48.192H31.039Zm17.488-6.002c-.02-1.836-.04-2.12-.155-2.096-.377.085-3.06.01-3.417-.093-.55-.162-.73-.514-.664-1.294.081-.947.325-1.691 1.545-4.71l.08-.198 6.231.022 6.232.023.565 1.27c.865 1.944 1.187 2.916 1.201 3.622.012.569 0 .61-.269.85-.453.405-.857.477-2.697.478l-1.665.001-.024 2.125-.023 2.125h18.754v-4.096l-.329-.054a6.399 6.399 0 0 0-.81-.057c-1.115-.006-2.153-.378-2.91-1.045-.688-.607-1.508-1.984-2.117-3.554-.15-.389-2.62-6.117-5.488-12.728l-5.213-12.022-3.861-.002-3.861-.002-4.587 11.456c-2.522 6.301-4.814 11.91-5.092 12.464-.278.555-.71 1.462-.96 2.016-.62 1.378-.96 1.915-1.577 2.486-.374.347-.658.527-.984.624-.627.188-1.473.303-2.232.305l-.636.002v4.206h14.987zm-.945-12.837c-.003-.163 4.17-10.87 4.216-10.816.04.047 4.421 10.28 4.612 10.772.034.087-.88.11-4.392.11-2.439 0-4.435-.03-4.436-.066zm37.241-2.212V71.325h47.229v48.192H83.844Zm26.637 15.066v-2.107l-1.95.06c-1.647.05-2.034.038-2.497-.082-.699-.18-.949-.347-1.187-.793-.19-.355-.193-.415-.217-4.985l-.025-4.626 4.888.026c4.313.023 5.016.008 5.983-.13 4.342-.62 6.941-2.105 8.24-4.707.63-1.265.872-2.3.937-4.011.12-3.145-.73-5.487-2.632-7.257-1.383-1.288-3.19-2.076-5.934-2.588l-1.093-.205-12.07-.026-12.07-.026v4.211l.285.004c.156 0 .994.039 1.862.082 1.748.088 2.25.207 2.674.63.55.55.53.069.504 12.215-.026 12.027.013 11.18-.536 11.76-.44.464-.878.545-2.965.545h-1.824v4.118H110.481v-2.107zm-5.87-21.988v-5.082l.81.003c1.935.01 5.256.174 5.995.298 3.034.509 4.327 1.803 4.473 4.474.12 2.205-.666 3.775-2.277 4.548-1.452.697-2.512.84-6.217.84h-2.784zm33.734 6.922V71.325h25.542c20.375 0 25.542.022 25.543.11 0 .06.08.976.176 2.036.878 9.662-.091 22.195-2.578 33.35-.99 4.441-1.485 6.208-3.438 12.28l-.133.416h-45.112zm40.482 9.792V97.83l-2.213.025c-1.217.014-2.295.043-2.397.064-.171.037-.189.117-.246 1.115-.157 2.757-.717 5.486-1.384 6.745-.535 1.009-1.633 1.803-3.036 2.196-.639.179-.884.189-5.381.218l-4.712.03.024-11.68c.023-11.166.031-11.697.187-12.053.218-.498.558-.767 1.265-.998.509-.167.836-.197 2.45-.23l1.861-.038v-4.189h-19.452v4.206l.329.005c1.2.018 3.29.167 3.649.26.627.164 1.141.688 1.269 1.295.14.66.138 21.638-.001 22.29-.076.356-.184.55-.46.826-.487.487-.88.56-3.038.56h-1.748v4.118h33.034v-7.383zM26.045 63.899c.023-.085.302-1.278.62-2.653 1.04-4.515 2.257-7.928 4.165-11.695 1.874-3.698 3.926-6.592 6.53-9.209 1.56-1.569 2.86-2.64 4.596-3.79 3.922-2.6 8.337-4.099 13.455-4.569 1.236-.113 4.774-.112 6.133.002 4.157.348 8.198 1.248 12.925 2.878l1.971.68.022 14.254.023 14.255H51.243c-23.997 0-25.239-.008-25.198-.154zm57.8-12.464c0-6.94.02-12.618.047-12.618.103 0 3.24 1.603 4.471 2.285a143.7 143.7 0 0 1 5.586 3.266l1.21.756 1.33-.947c9.406-6.695 19.392-12.339 28.027-15.842.756-.306 2.54-.95 3.965-1.43l2.592-.872v38.02H83.844Zm54.5-7.352v-19.97l.416-.096c.653-.151 3.019-.518 4.272-.661 2.196-.253 4.076-.335 6.484-.284 3.273.07 5.839.39 8.615 1.074 12.732 3.138 22.27 12.978 27.485 28.351 1.127 3.322 2 6.658 2.499 9.54.145.843.287 1.642.314 1.774l.049.241h-50.134zM90.278 34.08C75.233 14.648 67.495 4.418 67.068 3.393c-.332-.793-.067-1.424.781-1.858l.518-.264 12.36-.026c8.141-.017 12.596.005 13.048.065.377.05.855.165 1.062.257.527.233 1.073.754 1.338 1.275.213.42.225.513.212 1.67-.022 2.084-.483 7.39-1.376 15.85-.426 4.036-1.523 13.979-1.814 16.434l-.109.914z" style="fill:#fff;stroke-width:.0876221" transform="translate(-24.385 -1.24)"/></svg>