<svg xmlns="http://www.w3.org/2000/svg" width="444.02" height="444.02" viewBox="0 0 117.48 117.48"><path d="M117.733 55.214c.001-11.456-.585-10.781 9.374-10.781 7.247 0 7.826.105 8.908 1.623.633.887.635.916.715 9.158l.08 8.269h-3.732v-6.35h-11.906v6.35h-3.44l.001-8.269zm15.345-4.431v-2.91h-11.906v5.82h11.906zm6.616 6.283c0-9.041-.092-8.93 7.399-8.93h4.506v3.44H143.132v11.907h-3.44l.002-6.417zm14.022-1.256v-7.673h6.416c5.893.002 6.485.044 7.261.517 1.74 1.061 1.792 1.29 1.884 8.4l.083 6.429h-3.463l-.072-5.887-.07-5.887-4.3-.073-4.3-.073v11.92h-3.44zm20.213 7.294c-.452-.196-1.077-.716-1.39-1.155-.535-.752-.567-1.1-.567-6.14 0-5.04.032-5.387.568-6.14.962-1.35 1.806-1.532 7.122-1.532 5.382 0 6.183.192 7.122 1.713.487.787.534 1.311.534 5.96 0 7.593-.086 7.678-7.713 7.662-3.476-.007-5.088-.112-5.676-.368zm9.95-7.301v-4.24l-4.3.073-4.3.073-.074 3.824c-.04 2.103-.014 3.978.058 4.167.1.261 1.144.343 4.374.343h4.241zm7.38 7.079c-1.783-1.192-1.824-1.437-1.824-11.107V43.11h3.439v16.933h3.44v3.44h-2.078c-1.72 0-2.232-.104-2.977-.601zm8.526.148c-1.73-.853-1.882-1.432-1.882-7.22 0-7.59.082-7.673 7.513-7.673h4.656V43.11h3.44V63.483l-6.417-.006c-5.442-.006-6.552-.073-7.31-.447zm10.155-7.22v-4.101l-4.3-.073-4.3-.073v8.493l4.3-.073 4.3-.072zm8.405 7.28c-.47-.204-1.094-.765-1.388-1.246-.5-.82-.533-1.322-.533-7.886 0-6.567.034-7.068.534-7.888.947-1.553 1.476-1.637 10.303-1.637h7.946v3.44h-15.346v12.17h15.346v3.44l-8.003-.01c-6.272-.009-8.189-.092-8.859-.383z" style="fill:#fff;stroke-width:.264583" transform="translate(-117.727 2.35)"/></svg>