<svg xmlns="http://www.w3.org/2000/svg" width="300mm" height="300mm" viewBox="0 0 300 300"><path d="M146.677 57.394c-3.01.464-6.833 2.027-9.398 3.843C135.622 62.41 7.098 189.917 4.962 192.506c-1.509 1.83-3.397 5.55-4.044 7.968C.501 202.033.436 202.79.445 206c.009 3.419.056 3.873.59 5.631 2.194 7.238 7.594 12.61 14.762 14.685 1.48.428 2.572.581 4.758.666 5.157.2 8.686-.754 12.963-3.508 1.168-.752 14.01-13.41 58.822-57.984l57.327-57.021 57.22 56.952c61.571 61.285 58.578 58.408 62.502 60.057 3 1.26 4.956 1.636 8.487 1.628 2.62-.006 3.408-.09 5.127-.544 7.712-2.042 13.364-7.73 15.422-15.522.371-1.404.464-2.371.472-4.934.011-3.648-.319-5.463-1.525-8.393-1.723-4.183 2.668.34-68.258-70.3-35.829-35.684-65.768-65.36-66.531-65.944-1.744-1.336-5.136-2.988-7.366-3.588-1.297-.348-2.454-.474-4.804-.522-1.703-.034-3.384-.018-3.736.036z" style="fill:#fff;stroke-width:.212997"/></svg>