<svg xmlns="http://www.w3.org/2000/svg" width="300mm" height="300mm" viewBox="0 0 300 300"><path d="M146.32 243.676c-3.008-.466-6.833-2.037-9.397-3.861-1.657-1.179-130.181-129.296-132.317-131.898-1.51-1.839-3.397-5.577-4.044-8.006-.417-1.566-.482-2.328-.474-5.552.01-3.435.057-3.89.59-5.658 2.195-7.272 7.595-12.67 14.763-14.755 1.48-.43 2.572-.584 4.758-.67 5.157-.2 8.685.759 12.963 3.526 1.168.755 14.01 13.474 58.822 58.261l57.327 57.295 57.219-57.225c61.572-61.578 58.578-58.689 62.503-60.345 3-1.266 4.956-1.643 8.487-1.636 2.62.006 3.408.09 5.127.547 7.712 2.051 13.364 7.767 15.422 15.596.37 1.41.463 2.383.471 4.958.012 3.665-.318 5.489-1.525 8.433-1.723 4.203 2.669-.342-68.257 70.636-35.829 35.856-65.768 65.673-66.531 66.26-1.745 1.343-5.137 3.003-7.366 3.606-1.297.35-2.454.476-4.804.524-1.703.035-3.384.018-3.737-.036z" style="fill:#fff;stroke-width:.213506"/></svg>