<svg xmlns="http://www.w3.org/2000/svg" width="1000mm" height="1000mm" viewBox="0 0 1000 1000"><path d="M535.41 767.836c-.897-.122-5.875-1.05-8.58-1.599-1.615-.328-3.823-.898-5.192-1.342-4.231-1.37-9.595-3.579-10.087-4.154-.105-.122-.273-.222-.374-.222-.22 0-8.53-4.395-10.381-5.49-1.753-1.037-5.633-3.153-7.14-3.892-.674-.331-1.976-1.08-2.895-1.663-1.722-1.095-2.84-1.729-6.551-3.712-6.921-3.699-10.721-5.815-13.311-7.413-1.706-1.053-6.858-3.931-9.91-5.536-2.661-1.4-3.719-1.984-9.013-4.98-7.21-4.08-11.962-6.72-13.774-7.653-1.11-.57-2.367-1.27-2.792-1.554-.426-.284-.849-.516-.94-.516-.093 0-.404-.189-.692-.42a5.763 5.763 0 0 0-1.152-.68 5.32 5.32 0 0 1-1.06-.606c-.237-.19-1.112-.693-1.945-1.12-.833-.425-3.689-1.986-6.346-3.467l-7.86-4.378a288.217 288.217 0 0 1-5.048-2.878 97.78 97.78 0 0 0-3.966-2.197c-3.908-2.02-10.469-5.654-12.785-7.083-1.394-.86-8.21-4.623-12.455-6.877a287.558 287.558 0 0 1-3.677-1.982c-.635-.353-1.206-.643-1.27-.643-.064 0-.486-.242-.938-.536a30.875 30.875 0 0 0-1.687-1.009c-.475-.26-1.449-.828-2.163-1.262-2.19-1.332-10.345-5.833-11.033-6.09-.357-.133-.722-.328-.81-.433-.089-.105-.835-.545-1.659-.978-.823-.432-1.906-1.061-2.406-1.398-.5-.337-.96-.612-1.023-.612-.203 0-1.087-.452-1.385-.708-.16-.136-2.009-1.175-4.11-2.31-2.103-1.134-4.177-2.281-4.61-2.548-.432-.267-1.957-1.118-3.389-1.89a114.98 114.98 0 0 1-11.833-7.304c-1.11-.778-2.291-1.585-2.624-1.792-1.005-.627-5.96-5.436-9.01-8.747-1.58-1.713-2.824-3.114-2.767-3.114.058 0-.06-.173-.26-.385a6.575 6.575 0 0 1-.7-.945 11.456 11.456 0 0 0-.816-1.143c-.264-.321-.48-.648-.48-.727 0-.079-.118-.226-.26-.326-.143-.101-.389-.435-.546-.743a91.734 91.734 0 0 0-1.397-2.476c-1.91-3.298-3.552-6.937-4.993-11.066-.465-1.333-.975-2.704-1.134-3.048-.159-.344-.365-1.146-.459-1.781-.093-.636-.294-1.507-.446-1.936-.153-.43-.538-2.006-.858-3.504l-.58-2.723V510.431l.001-103.814.497-2.144c.272-1.18.658-2.691.856-3.36.198-.668.463-1.765.589-2.437.126-.673.352-1.502.503-1.844.15-.34.706-1.806 1.234-3.256 2.002-5.493 4.04-9.586 6.96-13.973 3.212-4.826 8.976-11.073 13.3-14.415 3.8-2.937 6.736-4.974 9.376-6.506a45.13 45.13 0 0 0 2.398-1.491c.486-.337.93-.612.988-.612.105 0 3.129-1.636 4.474-2.421 1.885-1.1 3.387-1.916 5.855-3.18 1.475-.756 3.14-1.663 3.7-2.015.561-.351 1.202-.707 1.426-.79.383-.14 2.514-1.358 5.749-3.283 2.616-1.557 9.644-5.422 12.908-7.1a74.03 74.03 0 0 0 4.687-2.667 55.617 55.617 0 0 1 2.524-1.43c1.812-.963 14.037-7.814 18.605-10.427a188.37 188.37 0 0 1 5.553-3.05 133.15 133.15 0 0 0 4.182-2.27 563.316 563.316 0 0 1 4.327-2.45 1151.65 1151.65 0 0 0 6.13-3.468 258.714 258.714 0 0 1 6.201-3.422c1.389-.73 2.717-1.46 2.952-1.622.236-.162.787-.46 1.226-.663.44-.202 2.453-1.313 4.476-2.468 10.521-6.01 16.051-9.074 19.004-10.53.973-.48 2.11-1.143 2.528-1.473.418-.33 2.023-1.28 3.567-2.11 3.652-1.963 15.685-8.613 18.096-10 1.867-1.074 6.853-3.836 9.735-5.393.833-.45 4.598-2.56 8.365-4.69 9.583-5.417 9.415-5.326 14.062-7.649 9.481-4.739 13.695-6.32 19.698-7.388a59.452 59.452 0 0 0 3.173-.652c1.15-.288 1.608-.307 8.55-.367 8.256-.07 9.383-.006 13.126.752 4.128.836 11.155 2.89 13.115 3.833.46.221.93.368 1.045.325.114-.042.247.024.296.148.048.123.185.224.303.224s.404.13.635.29c.231.16 2.09 1.123 4.133 2.14a216.347 216.347 0 0 1 7.606 4.032c2.142 1.2 4.251 2.353 4.687 2.563.437.21 1.54.822 2.452 1.36 3.28 1.93 5.793 3.345 7.747 4.361 2.832 1.472 9.985 5.443 11.435 6.347.674.421 3.043 1.759 5.264 2.973l7.067 3.864c1.666.91 5.495 3.051 8.51 4.757 3.014 1.706 6.292 3.53 7.283 4.053.992.523 2.073 1.13 2.403 1.349.33.218 2.536 1.444 4.903 2.723 2.367 1.28 4.945 2.703 5.728 3.164.782.46 2.372 1.357 3.533 1.992 5.148 2.817 14.232 7.916 15.812 8.876 1.555.945 4.371 2.488 8.725 4.78.833.439 2.456 1.334 3.606 1.99 1.15.656 2.708 1.526 3.461 1.934.754.408 2.474 1.386 3.822 2.172 3.105 1.81 8.633 4.88 11.225 6.232a121.32 121.32 0 0 1 3.867 2.125c1.03.597 1.92 1.085 1.98 1.085.058 0 .654.334 1.324.742s2.517 1.456 4.103 2.33a362.27 362.27 0 0 1 4.812 2.696c1.06.61 2.088 1.168 2.284 1.24.197.073.822.424 1.39.78.568.357 2.325 1.335 3.903 2.173 1.579.838 3.29 1.808 3.802 2.155.512.348 1.366.845 1.897 1.104.532.26 1.048.568 1.148.685.1.117.373.254.605.303.232.05.504.203.603.34.1.138.797.55 1.55.918 4.515 2.2 15.346 8.364 19.182 10.917.833.554 2.002 1.272 2.596 1.594.595.323 1.212.728 1.37.9.16.173.467.402.685.508 1.58.773 7.068 5.842 10.538 9.733 1.164 1.305 3.364 4.177 3.833 5.004.207.366.49.701.63.745.138.044.252.155.254.246 0 .09.523 1.016 1.161 2.055 1.913 3.12 4.087 7.43 5.615 11.132 2.029 4.919 3.358 11.363 3.609 17.49.381 9.331.554 113.616.287 173.698l-.13 29.533-.505 3.079c-1.052 6.426-2.328 11.085-4.111 15.014-.934 2.058-4.012 7.8-5.045 9.41-2.078 3.24-5.235 7.321-7.554 9.763-2.123 2.237-6.182 5.777-8.978 7.831-.981.721-4.37 2.956-5.9 3.89-.252.154-.688.454-.97.665-.282.212-.617.385-.744.385a.444.444 0 0 0-.347.2c-.064.11-.667.494-1.341.852-.675.358-1.298.74-1.386.85-.088.109-.22.198-.293.198-.275 0-8.47 4.447-11.733 6.367-.726.427-1.72.973-2.21 1.213-.491.24-1.346.733-1.902 1.096-1.43.933-4.572 2.673-6.62 3.665-.96.465-1.94.987-2.177 1.16-.238.172-1.634.96-3.101 1.752a275.717 275.717 0 0 0-5.048 2.8c-1.309.75-3.353 1.9-4.543 2.56a223.97 223.97 0 0 0-4.09 2.329c-1.06.622-1.984 1.132-2.053 1.132-.069 0-.498.231-.954.514-.456.283-1.804 1.015-2.995 1.626a144.055 144.055 0 0 0-3.97 2.125 425.53 425.53 0 0 1-2.488 1.389c-.377.207-.685.437-.685.512 0 .075-.34.284-.757.465-.417.181-2.64 1.397-4.94 2.703a679.187 679.187 0 0 1-7.86 4.383c-2.023 1.105-3.904 2.187-4.18 2.404-.275.217-.605.395-.73.395-.127 0-.753.334-1.392.742a27.79 27.79 0 0 1-2.298 1.294c-.624.304-1.2.627-1.28.717-.079.09-.728.461-1.442.824-2.17 1.103-11.072 6.02-14.062 7.765-3.309 1.933-7.588 4.304-9.014 4.995-.555.269-1.983 1.038-3.173 1.71-1.19.672-3.072 1.724-4.182 2.34-1.11.615-4.908 2.747-8.438 4.738-3.53 1.99-7.172 4.008-8.094 4.484-2.097 1.081-4.787 2.649-5.028 2.93-.1.117-.25.213-.333.213-.084 0-1.195.575-2.47 1.279-1.276.703-3.357 1.846-4.627 2.54-3.757 2.054-4.124 2.26-5.438 3.052-.69.416-2.561 1.45-4.158 2.296-1.596.847-3.22 1.745-3.608 1.995-.389.25-.771.455-.851.455-.08 0-.468.236-.862.525-.395.288-2.035 1.212-3.645 2.053-1.61.841-4.42 2.36-6.244 3.376-9.076 5.055-12.315 6.603-17.254 8.25-6.225 2.075-11.667 3.103-18.139 3.425-2.826.14-8.562.168-9.461.045zm11.379-9.839c1.7-.136 2.754-.33 2.88-.527.036-.057.11-.606.165-1.221l.1-1.118-1.484-.7c-2.796-1.318-5.219-3.44-7.177-6.285-1.839-2.67-2.555-4.271-3.705-8.284l-.679-2.367-.155-15.046c-.21-20.25-.198-167.592.014-178.806.17-8.918.144-8.63 1.11-12.54.782-3.171 1.421-4.995 2.537-7.245 3.723-7.51 7.856-12.366 16.023-18.829 3.982-3.15 8.362-6.02 14.615-9.576 1.904-1.083 3.589-2.08 3.744-2.217.155-.136.706-.447 1.226-.69.519-.244 4.416-2.477 8.66-4.961 8.568-5.017 11.592-6.765 13.413-7.752 2.29-1.243 2.956-1.642 3.389-2.035.238-.215.92-.641 1.514-.947.595-.305 1.73-.934 2.524-1.398 3.262-1.907 8.543-4.924 9.014-5.15.278-.134.894-.49 1.37-.792 1.516-.962 11.922-7.022 14.783-8.61.833-.461 5.247-3.03 9.808-5.708 8.544-5.016 11.501-6.705 13.124-7.498.516-.251 1.022-.574 1.126-.718.104-.143.315-.26.469-.26.154 0 .28-.066.28-.145 0-.08.295-.268.656-.418.36-.15.87-.431 1.131-.625.262-.193.568-.352.68-.352.112 0 .285-.126.384-.28.1-.154.267-.28.373-.28.106 0 .31-.125.453-.278.143-.154.915-.618 1.717-1.032 1.411-.729 7.745-4.373 10.976-6.315.872-.525 1.799-1.04 2.06-1.147.26-.106.918-.47 1.462-.809.545-.338 1.26-.749 1.589-.912.33-.163.841-.509 1.138-.769.296-.26 1.542-1.032 2.77-1.717 4.213-2.35 5.412-3.025 9.586-5.398 2.3-1.308 5.415-3.115 6.922-4.016 3.25-1.943 6.878-4.044 8.582-4.97.674-.367 1.518-.872 1.875-1.122.357-.25 1.392-.842 2.301-1.314.91-.473 1.786-.976 1.947-1.119.162-.143.538-.335.834-.427.297-.092.59-.242.65-.332.127-.192.539-.454 1.037-.662.194-.08.746-.417 1.226-.748.481-.33 2.043-1.249 3.47-2.04 1.428-.791 3.135-1.777 3.792-2.191.657-.414 1.52-.912 1.915-1.107.844-.415 6.726-3.874 8.5-4.998 1.6-1.014 3.77-2.119 6.273-3.194 7.797-3.347 14.366-3.762 19.594-1.236 1.57.758 2.347 1.345 5.036 3.798 1.25 1.14 2.439 2.136 2.641 2.21.202.075.817.136 1.368.136h1v-1.8c0-2.309-.109-2.827-1.177-5.619-1.76-4.597-3.377-7.632-6.352-11.912-5.64-8.118-11.853-13.396-22.975-19.52a526.684 526.684 0 0 1-5.116-2.847 53.578 53.578 0 0 0-2.668-1.413c-1.368-.663-5.532-2.986-9.667-5.391-6.219-3.619-14.757-8.324-15.103-8.324-.122 0-.3-.092-.396-.204-.096-.112-.477-.373-.847-.58a50.819 50.819 0 0 1-1.899-1.16 36.643 36.643 0 0 0-2.812-1.57c-1.91-.947-4.448-2.334-5.296-2.892-.728-.48-5.42-3.061-8.189-4.506-1.07-.558-2.52-1.39-3.222-1.85-.701-.458-2.224-1.34-3.384-1.958-1.16-.618-2.37-1.296-2.69-1.506-.321-.21-1.395-.791-2.386-1.29-2.336-1.178-9.833-5.341-10.673-5.928-.357-.25-2.044-1.208-3.75-2.13a453.58 453.58 0 0 1-6.273-3.472c-1.746-.987-4.129-2.283-5.297-2.88-1.168-.598-2.628-1.434-3.245-1.858-.617-.424-1.97-1.21-3.008-1.749-1.038-.537-3.877-2.084-6.31-3.437-2.432-1.353-4.464-2.46-4.515-2.46-.051 0-.652-.342-1.335-.76-.683-.418-1.404-.822-1.602-.897-.198-.075-1.068-.583-1.933-1.13-.866-.545-1.695-.992-1.844-.992-.149 0-.308-.095-.353-.21-.046-.116-.151-.21-.234-.21-.082 0-.67-.323-1.304-.718-.635-.395-2.231-1.264-3.548-1.931-2.163-1.096-8.638-4.73-16.6-9.317-1.626-.936-3.736-2.102-4.687-2.59-.952-.488-1.893-.994-2.092-1.125-.198-.13-1.236-.697-2.307-1.259-2.456-1.287-7.62-4.147-9.23-5.112-3.957-2.37-11.324-6.377-16.01-8.707-8.512-4.233-12.513-5.502-19.807-6.284-2.73-.293-11.24-.335-14.374-.07-3.763.317-6.731.81-9.307 1.545-2.306.658-7.16 2.362-7.573 2.658-.209.15-1.055.601-1.882 1.003a99.303 99.303 0 0 0-3.304 1.712c-.992.54-3.164 1.706-4.828 2.591-2.83 1.506-11.14 6.126-14.715 8.18-2.815 1.617-9.635 5.376-10.6 5.842-.516.249-1.522.797-2.236 1.218-3.906 2.302-6.908 4.014-9.158 5.222-3.543 1.901-11.433 6.293-13.413 7.465-2.876 1.702-3.777 2.212-5.48 3.103-4.038 2.11-10.454 5.656-13.125 7.253-1.895 1.134-10.278 5.782-11.536 6.397-.515.252-1.002.536-1.082.632-.08.096-.34.218-.579.272-.238.053-.53.181-.649.284-.119.103-2.033 1.207-4.254 2.455-2.221 1.247-4.2 2.377-4.4 2.512-.197.134-1.171.673-2.163 1.197-.991.524-2.072 1.13-2.402 1.347-.33.217-1.628.952-2.885 1.634a130.968 130.968 0 0 0-3.582 2.012c-.714.425-1.72.977-2.236 1.227-1.868.906-4.553 2.387-4.976 2.745-.238.202-.951.62-1.586.928-.635.308-1.998 1.051-3.029 1.65-1.031.6-3.984 2.225-6.562 3.61-2.578 1.386-5.486 3.014-6.463 3.619-.977.604-1.886 1.139-2.02 1.187-.133.049-1.346.736-2.694 1.528a112.305 112.305 0 0 1-4.832 2.652c-1.309.667-2.931 1.528-3.606 1.914a86.568 86.568 0 0 1-2.668 1.448 35.293 35.293 0 0 0-2.452 1.402c-.555.361-1.366.83-1.802 1.044-.437.213-2.124 1.158-3.75 2.1-1.626.942-4.255 2.42-5.841 3.282-1.587.864-2.982 1.65-3.101 1.747-.12.098-.664.377-1.211.621-1.539.687-7.054 3.913-10.4 6.083a51.544 51.544 0 0 0-9.362 7.724c-6.138 6.377-9.117 11.123-12.126 19.314a295.316 295.316 0 0 1-1.422 3.784c-.688 1.78-.96 3.177-1.249 6.434-.088.995-.211 12.29-.302 27.713-.182 31.203-.061 171.3.153 177.122.23 6.242.526 8.65 1.308 10.638.228.58.456 1.242.506 1.473.051.231.248.798.438 1.26.189.462.707 1.847 1.15 3.08 1.862 5.166 5.08 10.588 8.722 14.696 1.462 1.65 7.397 7.308 8.869 8.457 1.466 1.144 6.783 4.556 9.229 5.922 4.041 2.257 4.999 2.778 7.644 4.163 1.507.79 3.22 1.743 3.807 2.119.587.376 1.122.683 1.19.683.068 0 .123.063.123.14 0 .077.084.14.187.14s.67.292 1.262.65c.591.356 2.08 1.195 3.31 1.864 1.23.668 3.177 1.751 4.327 2.407 1.15.655 3.39 1.885 4.976 2.733 1.586.848 3.37 1.834 3.962 2.192.593.359 1.151.652 1.24.652.09 0 .578.304 1.086.676 1.265.926 2.764 1.784 3.725 2.133.442.16.901.374 1.02.476.119.101 1.417.832 2.884 1.623 1.468.792 6.146 3.404 10.396 5.806 4.25 2.4 8.47 4.76 9.375 5.244.906.483 2.945 1.59 4.531 2.458 1.587.869 3.068 1.647 3.293 1.73.224.082.808.426 1.298.762.87.599 11.804 6.765 15.961 9.002 5.078 2.732 6.595 3.58 7.074 3.951.28.218.924.6 1.43.847.504.247 3.616 1.946 6.916 3.774 3.299 1.829 6.452 3.566 7.007 3.861.556.295 1.4.8 1.875 1.124 1.035.702 3.955 2.341 6.346 3.564 1.84.94 9.497 5.204 15.74 8.764 2.074 1.183 3.82 2.15 3.88 2.15.06 0 .62.317 1.242.705.623.388 2.414 1.373 3.98 2.19 3.616 1.886 6.776 3.62 8.618 4.73 2.73 1.644 8.132 4.68 14.207 7.982 1.943 1.056 3.893 2.166 4.333 2.465.44.299.857.544.928.544.07 0 .262.119.426.265.164.146.817.464 1.452.708.634.243 2.224.981 3.533 1.64 2.657 1.338 4.402 1.987 8.005 2.98 4.503 1.241 6.594 1.611 10.24 1.812 2.963.163 9.546.17 11.523.01zm57.725-74.475c1.23-.368 2.916-1.18 5.886-2.833 2.57-1.43 3.95-2.58 4.56-3.8l.35-.699.047-7.628.046-7.628 1.108-1.097c.609-.603 1.506-1.375 1.993-1.716 1.166-.815 5.22-4.96 5.486-5.608.037-.09.325-.433.64-.764 1.51-1.588 4.427-6.026 6.243-9.5 2.801-5.358 4.246-9.805 5.093-15.677.32-2.225.367-10.53.07-12.527-1.07-7.175-2.646-10.043-7.3-13.284-3.34-2.325-6.118-3.161-12.564-3.782-1.192-.115-2.555-.302-3.029-.416-.474-.114-1.965-.277-3.313-.362-4.588-.288-6.14-.568-7.99-1.44-1.839-.867-2.663-1.789-3.429-3.834-.4-1.073-.435-2.248-.11-3.774.977-4.594 2.654-7.434 6.257-10.594 3.232-2.836 8.624-5.364 12.427-5.827.642-.078 2.864-.239 4.938-.358 5.69-.326 5.78-.352 6.612-1.944.492-.942 1.87-4.92 2.133-6.158.097-.455.325-1.21.506-1.68.708-1.829 1.273-5.42 1.204-7.657l-.05-1.602-.648-.867-.65-.866h-2.162c-1.19.002-3.754.058-5.697.126-3.378.119-3.621.146-5.515.624-1.09.276-2.074.5-2.188.5-.114 0-.245-.173-.29-.384-.047-.212-.182-2.864-.3-5.894-.228-5.815-.348-7.01-.787-7.846-.303-.576-.67-.784-1.63-.924-1.04-.151-2.098.145-3.587 1.007-.744.43-1.686.932-2.095 1.117-.409.185-.78.429-.825.542-.045.113-.202.206-.349.206-.605 0-4.526 2.813-5.026 3.605-.133.21-.403.62-.599.908-.325.478-.368.723-.475 2.73-.065 1.212-.121 4.65-.125 7.638l-.007 5.434-3.79 3.81c-5.165 5.194-7.028 7.453-9.77 11.846-2.846 4.559-4.3 8.233-5.842 14.768l-.825 3.497.09 5.26c.05 2.892.153 5.736.23 6.32.274 2.105 1.781 5.999 2.921 7.549.805 1.095 2.479 2.653 3.884 3.616 2.6 1.78 5.19 2.643 9.857 3.282 3.06.42 3.467.48 4.155.625.381.08 2.068.243 3.75.36 5.713.402 6.998.61 8.73 1.42 1.347.628 2.978 2.144 3.52 3.27.836 1.739 1.17 4.343.843 6.59-.426 2.937-2.383 7.108-4.263 9.087-.256.269-.686.797-.956 1.172-.709.986-3.428 3.3-4.797 4.082-.646.369-1.52.89-1.942 1.157-1.651 1.048-5.839 2.526-8.611 3.04-1.702.315-2.226.353-4.215.305-1.25-.03-2.563-.124-2.92-.209-.357-.085-1.56-.198-2.672-.252l-2.023-.097-.979 1.026c-1.07 1.121-1.877 2.564-2.385 4.262-.636 2.13-2.182 8.749-2.32 9.937-.205 1.752-.187 4.258.033 4.69.41.803 2.973 1.577 6.036 1.821 3.173.253 6.936-.17 11.736-1.317 1.285-.307 2.077-.435 2.18-.353.22.178.31 1.164.563 6.287.26 5.215.42 6.941.676 7.242.686.806 2.423.986 4.247.44zm55.906-18.828c2.058-1.004 10.532-5.728 16.907-9.426 1.428-.828 2.92-1.665 3.317-1.859.397-.194 2.052-1.155 3.678-2.134 1.626-.98 3.508-2.07 4.183-2.422a43.354 43.354 0 0 0 2.216-1.253c.545-.337 1.13-.664 1.298-.727.282-.105 2.668-1.473 8.6-4.931 1.546-.9 2.53-1.584 3.187-2.213 1.348-1.289 1.357-1.338 1.354-7.138-.002-5.082-.075-5.692-.73-6.11-.65-.412-1.217-.165-6.19 2.685-1.507.863-6.797 3.836-11.755 6.607-4.957 2.77-9.845 5.52-10.86 6.111-1.016.591-4.26 2.415-7.211 4.054-5.43 3.015-7.474 4.201-8.558 4.966-.754.532-1.297 1.586-1.489 2.892-.274 1.866-.08 9.115.278 10.41.137.494.474.997.668.997.036 0 .534-.229 1.107-.509z" style="fill:#fff;stroke-width:.142079" transform="matrix(1.8566 0 0 1.9131 -499.541 -475.174)"/></svg>