<svg xmlns="http://www.w3.org/2000/svg" width="1000mm" height="1000mm" viewBox="0 0 1000 1000"><path d="M530.159 771.544c-3.1-.503-9.647-1.814-11.18-2.238-4.422-1.226-12.368-4.495-12.368-5.09 0-.14-.078-.175-.174-.08-.096.096-.323.05-.505-.1-.182-.151-.997-.627-1.81-1.056-.814-.43-2.164-1.156-3.001-1.615-.837-.458-1.998-1.09-2.58-1.403a41.224 41.224 0 0 1-2.117-1.242c-1.983-1.26-8.235-4.724-8.527-4.724-.16 0-.332-.1-.38-.224-.095-.243-5.249-3.401-5.989-3.67-.247-.09-2.803-1.513-5.68-3.162-2.876-1.649-5.295-2.998-5.376-2.998-.08 0-.665-.357-1.3-.793-.634-.437-1.23-.794-1.322-.794-.092 0-.547-.282-1.01-.625-.942-.7-8.108-4.818-10.764-6.186a71.016 71.016 0 0 1-3.44-1.925c-.946-.57-2.077-1.224-2.514-1.451a21.567 21.567 0 0 1-1.491-.868c-.384-.25-2.349-1.397-4.366-2.55a509.618 509.618 0 0 1-6.049-3.509c-1.31-.778-3.226-1.825-4.258-2.326-1.032-.5-2.028-1.094-2.215-1.319-.186-.224-.503-.408-.703-.408-.2 0-.611-.247-.912-.548-.302-.301-.775-.592-1.052-.645-.277-.053-.767-.342-1.09-.643-.322-.3-.693-.545-.825-.545-.217 0-1.966-.988-12.89-7.276l-5.953-3.427c-1.455-.837-2.824-1.676-3.042-1.865-.219-.19-.814-.516-1.323-.726-1.115-.46-12.662-7.002-13.237-7.499-.222-.192-1.234-.813-2.249-1.379a588.844 588.844 0 0 1-4.693-2.66 225.988 225.988 0 0 0-5.085-2.823 118.304 118.304 0 0 1-3.58-1.98c-.738-.436-1.408-.792-1.488-.792-.08 0-.462-.224-.848-.497a19.923 19.923 0 0 0-1.629-1c-.51-.277-1.58-.93-2.381-1.45-.8-.521-2.705-1.637-4.233-2.48a147.843 147.843 0 0 1-4.444-2.548c-.916-.56-1.958-1.09-2.315-1.18-.357-.09-.65-.266-.65-.392s-.533-.472-1.184-.77c-1.103-.502-2.783-1.514-3.484-2.099-.166-.139-.375-.18-.463-.092-.088.088-.16.015-.16-.164 0-.178-.101-.262-.225-.185-.123.076-.477-.097-.787-.386-.31-.288-.833-.64-1.164-.783a9.049 9.049 0 0 1-1-.51c-.218-.137-1.646-.933-3.174-1.769-1.528-.835-3.121-1.754-3.54-2.042-.418-.287-1.37-.842-2.116-1.233-3.971-2.08-9.784-5.774-13.176-8.374-.825-.633-1.58-1.15-1.677-1.15-.466 0-6.47-5.917-8.86-8.732-1.05-1.237-2.213-2.517-2.583-2.844-.371-.327-.567-.599-.435-.604.132-.005.061-.153-.157-.33-.218-.178-.565-.648-.77-1.046a6.706 6.706 0 0 0-.86-1.246c-.268-.287-.487-.646-.487-.798a.271.271 0 0 0-.264-.275.263.263 0 0 1-.265-.26c0-.143-.458-1.008-1.017-1.922-1.813-2.962-4.238-8.338-5.344-11.845-.594-1.884-1.175-3.483-1.29-3.555-.117-.072-.29-.793-.385-1.602-.095-.81-.28-1.676-.411-1.926-.131-.25-.517-1.823-.857-3.497l-.618-3.042V405.408l.608-2.778c.335-1.528.707-2.962.828-3.186.12-.224.307-1.057.415-1.852.108-.795.345-1.742.528-2.106.183-.364.879-2.27 1.546-4.237 2.27-6.687 6.414-13.989 10.884-19.179 2.211-2.566 6.68-7.241 7.334-7.673.22-.145 1.401-1.074 2.623-2.063 2.412-1.952 6.957-5.119 8.438-5.877.508-.261 1.312-.784 1.786-1.162.473-.378.95-.688 1.06-.69.109-.002.928-.448 1.82-.992s1.704-.99 1.805-.99c.1 0 .68-.338 1.288-.752 1.045-.71 4.598-2.671 6.927-3.823a21.575 21.575 0 0 0 2.164-1.281c.608-.417 1.215-.758 1.348-.758s.996-.487 1.917-1.083c.921-.595 1.922-1.19 2.224-1.32.302-.131.847-.46 1.21-.733 1.012-.756 13.358-7.712 13.689-7.712.16 0 .33-.09.378-.198.049-.11.743-.546 1.544-.97.8-.425 1.753-1 2.116-1.281a9.427 9.427 0 0 1 1.456-.881c.436-.205 1.21-.622 1.72-.927.509-.305 2.295-1.335 3.968-2.288 3.94-2.244 13.163-7.614 16.404-9.55.51-.305 1.64-.918 2.514-1.363 1.466-.747 3.358-1.817 5.299-2.996.432-.263 1.977-1.161 3.432-1.995 2.758-1.581 3.03-1.74 6.567-3.837a134.285 134.285 0 0 1 6.795-3.784c.8-.415 1.494-.843 1.543-.952.048-.11.204-.199.345-.199.142 0 1.888-.961 3.88-2.136l4.55-2.683c.51-.3 1.7-.991 2.646-1.536s3.625-2.102 5.953-3.46c2.329-1.358 5.161-2.92 6.295-3.47 1.134-.551 2.244-1.15 2.466-1.333.223-.182.615-.51.87-.728.256-.218 1.467-.926 2.692-1.574 1.224-.647 4.49-2.482 7.255-4.076a640.322 640.322 0 0 1 7.013-3.995 172.59 172.59 0 0 0 4.63-2.693c1.455-.879 3.3-1.944 4.101-2.369.8-.424 1.515-.833 1.588-.909.072-.075.43-.284.793-.463 1.282-.63 4.535-2.49 10.98-6.277a784.844 784.844 0 0 1 8.642-5.01c.808-.468 2.025-1.102 8.292-4.317 5.7-2.924 11.5-5.034 15.48-5.631 1.09-.164 2.697-.497 3.57-.74 1.321-.368 2.918-.442 9.525-.442 7.925 0 7.944 0 12.18.865 3.982.812 12.142 3.354 12.968 4.04.199.164.485.223.637.129.152-.094.276-.045.276.11 0 .153.17.28.375.28.206 0 .415.095.463.212.049.117 1.577.943 3.396 1.835 1.819.893 3.605 1.799 3.968 2.014 4.309 2.545 9.012 5.218 9.533 5.419.36.138 1.273.68 2.03 1.202.758.523 1.532.982 1.72 1.021.19.039.403.139.476.222.177.204 4.775 2.891 4.947 2.891.116 0 2.21 1.18 9.737 5.485.873.499 1.766 1.06 1.985 1.244.218.186.754.516 1.19.734.437.218 2.237 1.232 4.001 2.254 1.764 1.022 3.967 2.257 4.895 2.745.928.488 1.747.95 1.82 1.026.073.076.49.312.926.524.436.212 3.651 2.073 7.144 4.135 3.492 2.062 7.004 4.075 7.805 4.473.8.398 1.634.877 1.852 1.064.218.188 2.183 1.324 4.366 2.526 5.241 2.886 5.112 2.813 6.482 3.685a53.311 53.311 0 0 0 2.778 1.61c.873.468 2.838 1.59 4.366 2.493 1.528.902 4.445 2.569 6.482 3.704 2.037 1.135 4.22 2.418 4.85 2.85 1.137.78 3.715 2.263 6.262 3.6.728.382 1.383.76 1.456.841.072.08.601.365 1.175.632.574.267 2.1 1.127 3.392 1.91 1.291.783 3.024 1.781 3.851 2.219.827.437 1.815 1 2.195 1.251 1.46.963 9.802 5.786 11.737 6.785.586.303 1.125.61 1.197.683.073.073.603.35 1.178.616.574.266 1.658.891 2.408 1.39.75.497 1.462.904 1.582.904.12 0 .822.401 1.56.891.738.49 2.592 1.58 4.12 2.422 1.528.842 3.628 2.048 4.667 2.68 1.038.634 1.97 1.151 2.069 1.151.1 0 .678.338 1.287.75.608.413 1.463.937 1.9 1.166 3.453 1.805 5.677 3.086 6.15 3.546.182.176.807.53 1.39.787.582.257 1.058.55 1.058.653 0 .101.298.26.662.35.364.092.661.283.661.426 0 .143.123.26.272.26.407 0 10.706 5.782 15.018 8.43 3.042 1.87 4.78 2.987 5.745 3.696a18.511 18.511 0 0 0 2.182 1.342c.619.311 1.125.682 1.125.824 0 .143.135.26.301.26.414 0 3.644 2.67 4.971 4.11.599.65 1.184 1.181 1.3 1.181.117 0 .56.444.987.986.426.542 1.328 1.524 2.003 2.183 1.41 1.374 4.939 5.934 5.278 6.82.125.327.35.595.5.595.148 0 .27.118.27.262 0 .144.51 1.066 1.133 2.05 1.724 2.72 4.791 9.104 5.982 12.449 1.186 3.333 1.923 6.463 2.721 11.565.522 3.338.544 4.955.726 55.085.104 28.405.104 75.078 0 103.717l-.187 52.07-.678 4.366c-1.144 7.369-3.008 13.14-5.898 18.257-.205.363-.805 1.554-1.333 2.645-1.563 3.234-5.718 9.099-8.984 12.684-2.487 2.73-7.417 7.037-10.33 9.026-1.48 1.011-2.76 1.838-2.842 1.838-.082 0-.458.268-.835.596-.376.327-.772.595-.88.595-.108 0-.405.208-.66.463-.254.255-.633.463-.84.463-.208 0-.378.113-.378.251 0 .139-.596.525-1.323.859-.728.334-1.323.697-1.323.807 0 .11-.137.2-.303.2-.316 0-9.642 5.243-12.072 6.787-.767.487-1.497.886-1.624.886-.126 0-.868.44-1.648.978-1.64 1.13-4.947 3.019-7.24 4.133-.873.425-1.647.847-1.72.939-.143.181-.703.51-2.768 1.622-1.478.796-5.512 3.12-7.153 4.122a88.768 88.768 0 0 1-2.87 1.636 70.54 70.54 0 0 0-3.559 2.114c-.962.618-1.852 1.124-1.978 1.124-.126 0-.727.34-1.335.757-.609.415-1.88 1.123-2.826 1.572a41.89 41.89 0 0 0-3.44 1.887c-.946.59-2.106 1.252-2.58 1.474-.472.222-.86.52-.86.664 0 .143-.14.26-.314.26-.173 0-1.156.499-2.183 1.107-5.07 3.001-14.085 8.154-14.267 8.154-.093 0-.411.243-.707.54-.297.295-.644.473-.772.394-.127-.079-.272-.051-.32.061-.13.296-3.767 2.445-4.14 2.445-.173 0-.315.1-.315.224s-.506.449-1.125.722c-.618.274-3.208 1.703-5.754 3.177-2.547 1.474-5.047 2.893-5.556 3.154-.51.261-1.7.971-2.646 1.578-2.062 1.322-7.767 4.576-9.793 5.585a38.7 38.7 0 0 0-2.879 1.63c-.785.497-1.678 1.014-1.984 1.147-.307.133-1.3.69-2.206 1.236-.907.547-4.122 2.412-7.144 4.146-3.022 1.734-6.042 3.49-6.71 3.903-.667.412-1.277.75-1.354.75-.281 0-5.372 2.966-5.53 3.222-.09.145-.209.232-.265.195-.057-.037-.584.236-1.171.607a51.853 51.853 0 0 1-2.646 1.516 89.454 89.454 0 0 0-3.297 1.876c-.946.569-2.137 1.228-2.646 1.465-.51.238-1.284.7-1.72 1.03-.437.328-1.417.913-2.179 1.299-.762.385-2.397 1.299-3.633 2.03-1.237.73-2.29 1.294-2.338 1.254-.05-.041-.3.135-.555.391-.256.256-.575.398-.71.315-.133-.082-.242-.035-.242.105 0 .271-1.866 1.398-4.895 2.955-1.019.523-3.4 1.854-5.292 2.957-8.403 4.901-12.286 6.822-17.065 8.444-6.007 2.038-11.257 3.106-16.801 3.416-4.277.24-9.235.278-10.452.081zm13.295-10.174c.971-.245.992-.277.992-1.5v-1.251l-1.786-.834c-2.231-1.042-4.598-3.167-6.335-5.686-1.965-2.851-2.828-4.742-3.782-8.29l-.854-3.174-.245-35.057c-.312-44.59-.125-165.55.261-169.125.153-1.413.453-3.085.667-3.716.215-.631.528-1.916.698-2.855.584-3.243 3.376-8.918 6.696-13.614 3.42-4.836 10.872-11.546 18.119-16.312 1.85-1.217 3.681-2.39 4.071-2.607.39-.218 2.04-1.199 3.666-2.181 1.627-.983 3.064-1.786 3.194-1.786.13 0 .237-.12.237-.265 0-.145.148-.266.33-.268.182-.002 2.057-1.051 4.167-2.33 11.99-7.27 16.944-10.229 18.124-10.825.728-.368 1.383-.743 1.456-.833.072-.09.578-.39 1.124-.668.546-.278.992-.612.992-.743 0-.13.566-.486 1.257-.79.691-.303 1.316-.641 1.39-.751.072-.11.846-.59 1.719-1.066.873-.476 3.112-1.798 4.976-2.938 1.864-1.139 3.483-2.071 3.598-2.071.116 0 .703-.357 1.306-.794.603-.436 1.174-.794 1.27-.794.096 0 1.08-.579 2.185-1.287 2.772-1.774 9.248-5.659 10.213-6.126a15.844 15.844 0 0 0 1.455-.816c.364-.238 2.388-1.47 4.498-2.74 2.11-1.268 4.67-2.812 5.689-3.431a487.658 487.658 0 0 1 3.042-1.833c.655-.39 1.37-.82 1.588-.956 2.416-1.508 7.14-4.215 7.607-4.358.327-.101.595-.295.595-.43 0-.137.178-.248.397-.248.218 0 .397-.106.397-.236s.27-.303.6-.386c.33-.083.854-.386 1.163-.674.309-.288.63-.454.716-.37.085.085.229-.04.32-.279.092-.238.273-.367.403-.286.13.08.237.03.237-.11 0-.142.566-.528 1.257-.858.691-.331 1.673-.862 2.183-1.18.51-.319 2.533-1.53 4.498-2.69 1.964-1.162 4.25-2.547 5.08-3.078.83-.53 1.605-.965 1.724-.965.118 0 .833-.417 1.59-.926.756-.51 1.48-.926 1.608-.926.13 0 .461-.251.738-.558.278-.306.98-.799 1.563-1.095.582-.296 2.215-1.236 3.629-2.088 1.414-.853 2.63-1.55 2.703-1.55.072 0 1.832-1.029 3.911-2.285 2.079-1.256 4.137-2.466 4.573-2.689.437-.222 1.27-.724 1.853-1.116 1.493-1.004 7.654-4.705 9.392-5.641.8-.431 1.694-.986 1.985-1.232.29-.247 1.332-.845 2.315-1.329.982-.484 1.786-.966 1.786-1.071 0-.105.297-.266.661-.357.364-.091.662-.29.662-.441 0-.151.119-.202.264-.112.146.09.265.038.265-.116 0-.155.137-.28.305-.28.169 0 .734-.328 1.257-.728.523-.4 1.427-.98 2.01-1.288 1.748-.926 4.977-2.84 5.865-3.475.457-.327.913-.595 1.014-.595.1 0 1.272-.672 2.605-1.493 1.332-.82 3.136-1.912 4.01-2.426.872-.513 1.944-1.198 2.38-1.522 1.305-.967 6.446-3.427 8.996-4.305 4.913-1.69 9.505-2.068 13.08-1.075 3.253.903 4.899 1.917 7.775 4.788 2.584 2.58 2.605 2.593 3.902 2.593h1.305l-.012-2.182c-.006-1.201-.172-2.6-.37-3.11-.196-.509-.724-1.937-1.172-3.174-2.984-8.233-9.89-17.783-16.825-23.267-1.794-1.42-5.841-4.275-7.331-5.174-2.033-1.226-8.435-4.897-8.541-4.897-.074 0-.786-.417-1.582-.926-.796-.51-1.575-.926-1.73-.926-.156 0-.787-.32-1.402-.712a72.976 72.976 0 0 0-2.84-1.676c-2.649-1.483-3.603-2.038-4.688-2.728-.55-.35-2.16-1.306-3.58-2.126-1.418-.819-3.68-2.13-5.027-2.911-5.112-2.971-6.741-3.87-7.015-3.87-.155 0-.322-.09-.37-.198-.05-.11-.625-.487-1.28-.84-.654-.353-1.25-.71-1.323-.795-.277-.32-2.892-1.83-3.483-2.01-.34-.103-.796-.339-1.014-.523-.219-.184-.933-.6-1.588-.925-.655-.325-1.37-.742-1.587-.925-.436-.367-6.12-3.591-9.26-5.254-1.092-.578-2.331-1.337-2.754-1.687-.422-.35-1.613-1.06-2.645-1.58-1.033-.518-2.375-1.284-2.982-1.7-.608-.418-1.429-.882-1.824-1.032-.396-.15-2.73-1.43-5.185-2.845a936.93 936.93 0 0 0-4.988-2.86 7.228 7.228 0 0 1-.986-.684c-.256-.218-.941-.632-1.523-.92-.582-.288-3.045-1.671-5.472-3.073a1208.98 1208.98 0 0 0-5.028-2.893c-.337-.19-.672-.404-.745-.477-.073-.072-1.15-.636-2.393-1.252-1.243-.616-2.518-1.36-2.833-1.654-.315-.293-.697-.533-.848-.533a.271.271 0 0 1-.276-.265c0-.145-.09-.235-.199-.2-.179.06-6.259-3.315-10.665-5.918-.955-.564-1.812-1.026-1.905-1.026-.093 0-.698-.357-1.345-.793-.647-.437-1.278-.795-1.403-.797-.124-.002-.987-.534-1.916-1.183-.93-.65-1.793-1.118-1.918-1.04-.126.077-.228-.005-.228-.184 0-.178-.07-.254-.155-.17-.085.086-.382-.04-.66-.277-.557-.478-3.576-2.192-4.97-2.824-.81-.366-2.539-1.36-7.841-4.509a373.744 373.744 0 0 0-3.572-2.09c-1.684-.969-3.226-1.88-6.284-3.713a51.127 51.127 0 0 0-2.977-1.632c-.8-.396-1.514-.789-1.587-.874-.073-.085-.787-.499-1.588-.92-2.67-1.404-8.048-4.464-9.922-5.645-1.888-1.192-11.942-6.95-12.133-6.95-.057 0-2.127-1.066-4.6-2.369-8.715-4.592-15.061-6.104-25.58-6.094-7.979.007-13.72.792-18.276 2.498-1.019.381-2.591.93-3.495 1.22-.903.289-1.715.643-1.803.786-.089.143-.897.605-1.797 1.027-.9.421-2.41 1.212-3.356 1.757-1.773 1.023-3.206 1.813-5.953 3.285a91.495 91.495 0 0 0-3.043 1.72c-.8.477-2.765 1.607-4.366 2.51-1.6.902-3.862 2.219-5.027 2.925-1.164.705-2.533 1.507-3.042 1.78-.51.274-2.474 1.398-4.366 2.496-1.892 1.1-3.916 2.216-4.498 2.481-.582.266-1.427.758-1.877 1.094-.45.336-.906.61-1.013.61-.108 0-.81.4-1.563.89a41.394 41.394 0 0 1-2.294 1.389c-.51.275-.985.574-1.058.664-.073.09-.847.527-1.72.97-.873.443-3.135 1.7-5.027 2.792-1.892 1.092-4.661 2.68-6.154 3.528-1.493.848-3.517 2.056-4.498 2.685a58.3 58.3 0 0 1-3.9 2.237c-1.164.601-2.176 1.158-2.249 1.237-.073.08-1.025.611-2.117 1.182a72.397 72.397 0 0 0-3.704 2.098c-.946.584-2.2 1.308-2.789 1.609-.588.301-1.422.786-1.853 1.077-1.093.737-1.4.919-5.28 3.124-1.892 1.075-4.195 2.39-5.118 2.92-.924.532-1.787.967-1.919.967-.131 0-.239.12-.239.265 0 .145-.23.264-.51.264s-.689.179-.907.397c-.218.219-.455.397-.526.397-.072 0-1.062.553-2.202 1.229a175.437 175.437 0 0 1-4.351 2.517c-.348.195-.81.49-1.029.654-.218.164-1.35.804-2.513 1.42-1.164.618-2.296 1.274-2.514 1.458-.218.184-.992.652-1.72 1.039-2.17 1.155-2.844 1.542-4.233 2.433a27.414 27.414 0 0 1-2.646 1.465c-.727.34-1.382.677-1.455.75-.073.072-.817.49-1.653.926-.836.436-1.52.89-1.521 1.006 0 .118-.626.504-1.39.86-1.454.677-1.595.756-3.832 2.16-.762.478-1.44.869-1.506.869-.067 0-2.109 1.13-4.538 2.513-2.43 1.383-4.468 2.514-4.528 2.514-.061 0-.849.5-1.75 1.113-.902.612-1.64 1.067-1.64 1.01 0-.056-.476.198-1.058.564-2.69 1.692-5.703 3.431-6.582 3.798-.531.222-1.734.874-2.673 1.449a57.243 57.243 0 0 1-3.37 1.884c-.914.462-2.026 1.116-2.47 1.455-.445.34-1.218.804-1.72 1.034-.501.23-1.745.938-2.764 1.574-1.907 1.19-6.858 4.032-8.731 5.012-.582.304-1.098.643-1.147.752-.048.11-.233.198-.411.198-.417 0-5.18 2.801-9.468 5.568-4.473 2.885-6.994 4.94-10.272 8.373-6.387 6.689-9.503 11.842-12.607 20.852-.501 1.455-1.075 3.003-1.275 3.44-.612 1.335-.953 3.906-1.206 9.076-.332 6.796-.327 197.745.006 205.18.29 6.475.58 8.746 1.334 10.4.285.625.518 1.357.518 1.627s.102.604.226.742c.124.139.617 1.442 1.095 2.898 1.72 5.233 4.692 10.552 8.355 14.949 2.138 2.565 7.735 8.038 9.771 9.554 2.172 1.617 6.633 4.53 8.02 5.237.627.32 1.799 1.003 2.604 1.518.805.514 1.839 1.11 2.299 1.325.46.214 1.073.53 1.365.704.29.174 1.809 1.007 3.373 1.851 1.564.844 2.844 1.655 2.844 1.801 0 .146.12.192.265.102.145-.09.264-.037.264.117s.09.256.199.226c.109-.03.853.37 1.653.89.8.519 2.101 1.27 2.89 1.669.79.399 2.04 1.112 2.778 1.584.74.472 2.654 1.578 4.254 2.456l4.234 2.327c.727.4 1.639.95 2.025 1.22.386.27.814.491.952.491.137 0 .533.247.88.548.966.837 3.57 2.363 4.033 2.363.227 0 .479.107.56.237.08.13.831.597 1.669 1.037 1.393.731 6.269 3.512 9.857 5.62 6.42 3.774 12.253 7.13 12.395 7.131.095 0 1.482.775 3.082 1.72 1.6.945 3.018 1.717 3.15 1.717.132 0 .609.28 1.06.62.45.341 1.354.922 2.009 1.292.654.37 3.393 1.948 6.085 3.51 5.912 3.427 6.929 4.005 8.467 4.819.655.346 1.786.98 2.513 1.41.728.429 1.83 1.04 2.449 1.359.619.318 1.358.796 1.642 1.06.285.266.612.488.727.495.115.007 1.597.81 3.294 1.785 8.248 4.744 10.354 5.942 11.396 6.481.621.322 1.203.685 1.292.807.09.123.41.36.711.53.301.168 1.24.718 2.086 1.221a79.68 79.68 0 0 0 3.655 1.996c1.164.594 2.653 1.412 3.308 1.817.654.405 3.333 1.957 5.953 3.45s5.868 3.389 7.219 4.213c1.351.825 2.543 1.5 2.65 1.5.105 0 .806.414 1.557.92.75.505 1.94 1.19 2.643 1.52 1.328.626 8.209 4.47 9.32 5.208.35.232.945.612 1.323.845 1.208.744 11.49 6.657 12.726 7.32 2.85 1.527 4.14 2.294 4.697 2.794.327.294.599.425.603.29.005-.134.165-.038.357.215.191.252.575.497.851.544.585.1 4.548 1.986 5.134 2.443 1.102.86 8.234 3.069 12.435 3.85 3.704.69 15.346.826 17.794.21zm56.796-76.076c1.104-.549 2.484-1.3 3.066-1.668a30.084 30.084 0 0 1 2.028-1.163c1.476-.75 3.07-2.418 3.381-3.54.162-.581.277-4.068.278-8.394l.003-7.4 1.38-1.398c.76-.768 1.484-1.397 1.61-1.397.437 0 5.477-5.368 5.477-5.833 0-.14.09-.253.202-.253.294 0 3.142-4.001 4.61-6.476 4.721-7.955 6.927-15.182 7.27-23.818.266-6.74-.558-12.367-2.406-16.43-1.177-2.585-5.139-5.995-8.682-7.47-2.022-.842-5.443-1.504-9.305-1.8-1.25-.097-2.272-.259-2.272-.361 0-.102-1.459-.267-3.242-.366-5.508-.307-7.258-.736-9.532-2.338-.908-.64-2.002-2.744-2.207-4.244-.21-1.545.743-5.409 1.927-7.807 1.729-3.5 5.67-7.155 9.836-9.122 4.501-2.126 5.442-2.344 11.42-2.644 4.341-.218 5.522-.357 5.915-.7.68-.594 1.365-2.009 1.877-3.876.238-.869.544-1.783.68-2.031.137-.249.327-.963.422-1.588.096-.625.27-1.26.39-1.412.448-.575 1.346-5.367 1.388-7.414.04-1.972-.014-2.21-.712-3.127l-.755-.994-5.595.093c-5.016.083-5.806.159-7.638.731-1.124.35-2.136.546-2.25.433-.112-.113-.277-3.083-.365-6.6-.202-8.073-.39-8.617-2.979-8.634-1.074-.007-1.603.188-3.197 1.182-1.05.655-2.049 1.19-2.219 1.19-.17 0-.308.12-.308.265 0 .146-.15.265-.334.265-.825 0-5.222 3.337-5.222 3.963 0 .128-.209.44-.463.695-.417.416-.471 1.25-.541 8.287l-.078 7.824-3.78 3.837c-4.396 4.46-5.965 6.374-8.748 10.673-3.176 4.905-4.976 9.317-6.386 15.651l-.941 4.231.095 5.955c.094 5.857.11 5.999.942 8.563 1.17 3.601 1.98 4.961 4.143 6.957 2.775 2.558 5.67 3.888 9.966 4.582 1.835.296 3.687.538 4.114.538.427 0 .89.109 1.028.242.139.132 2.46.367 5.16.522 5.899.337 7.584.835 9.866 2.916 2.495 2.275 2.951 7.942.997 12.395-1.038 2.365-2.304 4.47-3.264 5.425-.403.401-.733.83-.733.953 0 .217-2.122 2.268-3.459 3.344-.361.29-1.19.815-1.84 1.164-.651.349-1.377.8-1.613 1.002-.405.347-.965.585-4.873 2.072-.879.334-2.189.687-2.91.784-.722.097-1.491.236-1.71.309-.713.237-5.025.231-5.104-.007-.043-.128-1.233-.293-2.645-.367l-2.567-.134-1.152 1.16c-1.232 1.24-2.042 3.037-2.73 6.056a228.1 228.1 0 0 1-.922 3.836c-.847 3.384-.987 4.351-1.003 6.939-.016 2.404-.005 2.446.715 2.818 3.06 1.583 8.482 1.807 14.191.587 1.877-.402 3.712-.844 4.078-.983.397-.15.762-.156.905-.013.131.131.344 3.108.472 6.615.136 3.732.355 6.606.528 6.93.742 1.385 3.32 1.311 6.323-.181z" style="fill:#fff;stroke-width:.264583" transform="matrix(1.8566 0 0 1.9131 -494.58 -476.827)"/><path d="M651.564 666.882c-.45-.834-.651-10.28-.25-11.76.166-.61.648-1.457 1.072-1.881.424-.424 2.832-1.938 5.352-3.365 2.519-1.426 5.1-2.901 5.734-3.278a46.66 46.66 0 0 1 1.852-1.044 25.608 25.608 0 0 0 1.624-.951c.51-.325 1.82-1.105 2.91-1.733 1.092-.629 2.521-1.463 3.176-1.855.655-.392 4.584-2.651 8.731-5.022 4.147-2.37 8.255-4.752 9.128-5.294 6.409-3.979 6.483-3.936 6.483 3.778 0 5.758-.06 6.033-1.632 7.497-.485.453-2.49 1.75-4.454 2.884-1.964 1.133-4.294 2.52-5.178 3.08-.883.56-1.695 1.019-1.804 1.019-.11 0-.718.357-1.352.794-.635.436-1.234.793-1.331.793-.216 0-2.602 1.42-5.858 3.487-1.335.847-2.517 1.54-2.628 1.54-.11 0-.923.458-1.807 1.018-3.618 2.292-18.642 10.889-19.029 10.889-.23 0-.562-.268-.739-.596z" style="fill:#50a927;stroke-width:.264583" transform="matrix(1.8566 0 0 1.9131 -494.58 -476.827)"/></svg>