<svg xmlns="http://www.w3.org/2000/svg" width="1928.565" height="1881.18" viewBox="0 0 510.266 497.729"><path d="M-175.952 208.325v-45.917h78.468V175.157l6.539.164 6.538.164v26.156l-6.538.165-6.54.164V214.719h13.369v13.016c0 11.781-.095 13.052-1.001 13.4-.551.211-3.494.333-6.54.271l-5.537-.112-.164 6.474-.164 6.475h-78.43zm65.1 19.472v-13.078h-38.944v26.156h38.943zm-.135-39.67-.157-13.223H-149.505l-.157 13.223-.156 13.224H-110.83zm39.658 32.986v-33.131h12.75l.164-6.539.164-6.539 6.54-.164 6.538-.165v-12.167h39.524v12.206H7.14v13.33l6.539.164 6.539.165v65.68H-5.94l-.157-12.933-.156-12.932h-38.92v26.155H-71.33Zm65.1-19.452v-13.058l-6.25-.165-6.248-.165-.29-6.685-.29-6.684h-12.207l-.29 6.684-.291 6.685-6.539.164-6.539.164V214.72H-6.23zm52.698 52.195c-.213-.213-.387-3.156-.387-6.54l.001-6.15H33.585l-.164-6.54-.165-6.538H59.45V240.875h38.943V214.73l-26.01-.151-26.01-.152-.166-6.248-.165-6.248H33.294V175.195h12.788V162.408h65.68V175.157l6.539.164 6.539.164v12.788H98.684l-.29-6.685-.291-6.684H59.74l-.156 13.217-.157 13.218 26.022.15 26.021.152.29 6.394.291 6.393 6.54.165 6.538.164v12.997c0 11.763-.095 13.033-1.001 13.38-.55.212-3.493.334-6.54.272l-5.537-.112-.164 6.474-.164 6.475H79.29c-17.838 0-32.608-.174-32.82-.387zm104.487-.377c-.163-.424-.22-3.369-.128-6.543l.167-5.77 12.938-.157 12.937-.156-.15-32.975-.15-32.974-12.933-.156-12.932-.157v-12.183h79.048v12.183l-12.932.157-12.933.156-.15 32.974-.15 32.975 12.937.156 12.938.156v12.788l-39.105.15c-32.08.122-39.159.01-39.402-.624zm117.614-5.71-.164-6.475-5.538.112c-3.046.062-5.988-.06-6.539-.271-.866-.333-1.001-1.276-1.001-7.007v-6.622H242.54v-39.524h12.748l.165-6.248.165-6.249 6.54-.164 6.538-.164V162.408h52.312V175.157l6.539.164 6.539.164v12.788H307.93l-.29-6.685-.291-6.684h-24.994l-.29 6.684-.29 6.685-6.54.164-6.539.164v39.448l6.54.165 6.538.164.165 6.248.165 6.249H307.6l.165-6.249.165-6.248h26.156l.166 6.056c.123 4.446-.032 6.186-.58 6.547-.412.271-3.364.453-6.561.405l-5.813-.087-.164 6.472-.164 6.472h-52.236z" style="fill:#fff;stroke-width:.581239" transform="translate(175.972 27.592)"/></svg>