<svg xmlns="http://www.w3.org/2000/svg" width="300mm" height="300mm" viewBox="0 0 300 300"><path d="M135.798 298.759c-27.055-2.505-53.773-12.94-76.41-29.845-7.202-5.379-23.106-21.283-28.484-28.485-40.643-54.423-40.643-126.412 0-180.835 5.378-7.202 21.282-23.106 28.485-28.485 54.422-40.642 126.411-40.642 180.834 0 7.203 5.379 23.106 21.283 28.485 28.485 40.643 54.423 40.643 126.412 0 180.835-5.379 7.202-21.282 23.106-28.485 28.485-30.48 22.761-67.29 33.282-104.425 29.845zm25.182-26.183c9.302-.906 18.056-2.772 27.482-5.857 46.272-15.145 79.126-56.465 83.909-105.534 1.612-16.543-.307-32.87-5.858-49.83-15.145-46.272-56.465-79.125-105.533-83.908-16.543-1.613-32.87.306-49.83 5.858C64.876 48.449 32.023 89.769 27.24 138.838c-3.472 35.615 9.885 72.458 35.582 98.156 25.692 25.691 62.55 39.053 98.157 35.582zm-14.175-46.171c-5.382-.798-10.133-4.226-12.472-9-1.64-3.345-1.56-9.665.164-12.934 1.68-3.186 4.833-6.21 8.052-7.723 3.873-1.82 10.154-1.688 14.14.298 3.626 1.807 7.245 5.734 8.19 8.885 3.48 11.618-5.928 22.275-18.074 20.474zm-5.926-52.317-.352-10.944 1.846-4.086c1.618-3.58 3.127-5.39 12.217-14.644 12.496-12.723 13.616-14.573 13.576-22.419-.03-5.956-1.265-9.17-4.936-12.84-3.643-3.643-6.872-4.879-12.84-4.913-4.162-.024-5.479.216-8.172 1.485-6.207 2.926-10.525 7.897-11.366 13.085-.206 1.27-.496 2.899-.644 3.621l-.27 1.313h-25.672l.342-2.48c1.72-12.485 4.161-17.985 10.935-24.64 7.827-7.689 15.786-12.134 25.225-14.086 5.758-1.19 19.135-.85 24.505.626 10.663 2.928 20.272 10.403 24.405 18.985 5.051 10.486 5.243 24.894.458 34.296-2.416 4.745-8.51 11.73-16.978 19.46-10.024 9.148-10.774 9.966-12.644 13.788-1.402 2.865-1.674 4.234-1.864 9.347l-.221 5.99H141.23z" style="fill:#fff;stroke-width:.583669"/></svg>