<svg xmlns="http://www.w3.org/2000/svg" width="300mm" height="300mm" viewBox="0 0 300 300"><path d="M86.912 211.101c-.749-40.292-1.167-140.204-.684-148.233.932-15.514 1.854-20.158 5.58-28.133 4.658-9.966 13.172-18.965 23.45-24.785 3.764-2.13 10.139-5.067 11.441-5.27.362-.057.831-.211 1.043-.343 1.135-.708 10.865-2.877 13.313-2.968.319-.012 2.535-.19 4.926-.395 5.435-.465 13.956.022 19.27 1.102 17.34 3.524 33.044 14.728 42.211 30.114 5.105 8.568 8.051 17.874 8.856 27.977 1.497 18.782-5.656 37.875-19.018 50.758l-2.216 2.137 2.337 2.3c8.667 8.53 15.114 20.286 17.663 32.207 1.865 8.72 1.935 17.121.215 25.79-2.66 13.411-8.663 24.473-18.36 33.83-4.671 4.507-4.941 4.731-8.999 7.448-6.1 4.085-14.482 7.692-21.224 9.134-1.697.363-3.781.841-4.63 1.062-.926.241-9.513.472-21.458.578l-19.913.176-.272 5.85c-.149 3.218-.503 42.856-.778 67.975-30.018-.078-.288 0-32.894-.222zm72.437-19.16c9.55-2.111 17.637-8.786 21.735-17.939 2.058-4.596 2.584-7.175 2.598-12.734.015-5.761-.57-8.501-2.904-13.584-3.804-8.286-10.85-14.257-20.25-17.159-2.452-.757-3.848-.85-16-1.057-7.322-.126-15.478-.141-18.124-.035l-4.81.193c-.712 22.48-.393 41.091-.684 63.092l17.501-.01c15.97-.006 17.801-.074 20.938-.768zM170.622 90.78c5.81-4 10.063-10.11 12.179-17.493 1.281-4.471 1.27-12.19-.025-16.593-1.745-5.935-4.65-10.645-9.087-14.734-6.362-5.862-14.786-9.032-22.481-8.46-15.334 1.14-27.349 9.528-29.076 20.3-.297 1.854-.53 10.076-.648 22.884l-.184 19.99 37.313-.241c4.44-1.41 9.14-3.687 12.009-5.653z" style="fill:maroon;stroke-width:.385883"/></svg>