<svg xmlns="http://www.w3.org/2000/svg" width="1057" height="1057.016" viewBox="0 0 279.665 279.669"><path d="m205.376 268.844-33.858-33.859 5.954-6.027c3.275-3.316 6.885-7.196 8.023-8.624 11.607-14.562 17.97-31.822 18.597-50.453 1.094-32.435-16.915-62.957-45.86-77.724-8.722-4.45-16.763-7.033-26.683-8.572-4.45-.69-14.804-.956-19.635-.505-7.839.734-16.346 2.754-23.261 5.526l-1.356.543-4.28-10.333c-2.353-5.684-4.243-10.363-4.2-10.398.272-.222 4.36-1.723 7.62-2.797 6.76-2.228 14.638-3.924 22.225-4.787 4.697-.534 17.983-.459 22.754.128 21.282 2.62 40.009 10.528 56.092 23.687 3.493 2.858 9.933 9.134 12.944 12.614 28.336 32.751 34.132 79.036 14.777 117.994-2.34 4.712-5.958 10.652-8.943 14.684a629.675 629.675 0 0 0-3.082 4.189c-.438.615-.396.66 16.67 17.727l17.111 17.11V36.53h22.49V302.702h-20.241ZM-20.19 165.118V32.033H.05l33.788 33.788 33.789 33.787-5.746 5.834c-3.16 3.209-6.794 7.143-8.075 8.744-10.598 13.248-16.866 28.781-18.451 45.721-.449 4.8-.185 14.912.505 19.367 1.534 9.893 4.123 17.963 8.546 26.633 12.098 23.713 34.847 40.372 61.175 44.797 14.623 2.458 29.847 1.02 43.499-4.108 1.536-.577 2.82-1.018 2.853-.98.099.113 8.354 20.13 8.406 20.385.073.351-4.67 2.16-9.476 3.615-7.206 2.18-13.743 3.485-21.431 4.277-4.075.42-15.472.421-19.58.004-24.971-2.541-47.234-12.802-64.657-29.8-4.43-4.322-7.538-7.8-10.692-11.964-11.82-15.608-18.82-33.055-21.264-52.992-.661-5.4-.661-18.148 0-23.548 2.443-19.932 9.293-37.137 21.012-52.771l2.186-2.916-17.002-17.003C10.085 73.55 2.344 65.9 2.235 65.9c-.11 0-.2 52.268-.2 116.152v116.152H-20.19zm83.344 2.117V110.88h112.712v43.118l-6.642 6.656-6.641 6.656 6.641 6.646 6.642 6.645v42.991H63.154Zm90.427 28.45.071-5.548-5.758-5.762-5.758-5.763H85.643v22.756l33.933-.067 33.933-.067zm-5.697-45.315 5.757-5.752v-11.25H85.643V156.123h56.484z" style="fill:#fff;stroke-width:.264583" transform="translate(20.19 -27.3)"/></svg>