<svg xmlns="http://www.w3.org/2000/svg" width="300mm" height="300mm" viewBox="0 0 300 300"><path d="M99.704 289.664c-9.329-1.185-18.798-5.166-25.53-10.731-3.953-3.269-9.152-9.207-9.74-11.127-.33-1.074-1.838-1.507-6.324-1.816-16.748-1.155-31.59-17.811-34.17-38.345-.447-3.566-1.131-4.76-4.952-8.641-2.92-2.966-5.435-6.68-7.364-10.874-2.825-6.138-2.912-6.608-2.407-13.02l.523-6.65-2.857-3.398c-7.813-9.29-9.374-24.676-3.872-38.164 2.875-7.047 6.095-10.177 12.801-12.444 4.101-1.386 7.713-1.92 12.977-1.92 6.473 0 7.715.265 11.032 2.36 4.404 2.78 8.552 7.608 10.218 11.893.656 1.685 1.229 5.631 1.274 8.77l.081 5.706H61.57c9.003 0 10.607.231 13.937 2.01 4.803 2.568 9.241 7.318 11.716 12.543 2.969 6.267 2.845 6.461-4.456 6.999-11.584.853-19.739 6.514-24.555 17.048-1.495 3.272-1.853 5.495-1.846 11.46.007 4.07.31 9.162.678 11.317.643 3.778.576 3.975-1.872 5.511-5.756 3.613-12.504 16.153-9.713 18.05 1.77 1.203 2.348.99 3.116-1.143 2.576-7.162 3.823-9.54 6.44-12.279 3.931-4.115 7.947-5.786 13.907-5.786 5.428 0 8.246 1.202 13.467 5.743 4.622 4.02 4.954 6.21 1.944 12.808-2.587 5.67-3.98 14.849-2.587 17.044.474.747 1.492 1.01 2.676.69 1.802-.485 1.91-.898 1.91-7.3 0-7.78 1.431-11.764 5.901-16.428 6.051-6.312 15.35-7.254 24.19-2.45 3.758 2.043 4.582 2.227 5.207 1.166 1.155-1.96 1.014-2.15-3.082-4.132-9.107-4.407-15.86-4.52-23.475-.393l-4.226 2.29-3.473-3.752c-1.91-2.064-5.661-4.893-8.336-6.288-4.13-2.154-5.717-2.508-10.536-2.355l-5.673.181-.948-3.853c-1.277-5.19-1.248-14.446.056-18.37 3.815-11.473 17.127-18.039 29.033-14.32 5.916 1.847 6.303 1.802 6.303-.731 0-4.006 3.317-11.687 6.892-15.958 7.203-8.607 19.684-11.907 30.39-8.037 2.897 1.048 6.088 2.725 7.09 3.726l1.824 1.822-.015 41.855c-.015 46.013-.253 48.922-4.836 59.238-6.776 15.25-21.024 22.747-38.915 20.475zm88.745.302c-15.646-2.4-25.919-12.248-31.556-30.255-1.434-4.577-3.462-22.816-2.636-23.703.272-.292 2.35 1.26 4.618 3.45 5.93 5.728 11.515 7.812 21.198 7.913 7.215.075 7.968.246 9.523 2.173.93 1.15 1.69 2.619 1.69 3.262 0 1.576 5.587 8.14 6.928 8.14 2.485 0 2.006-3.375-1.17-8.246-5.118-7.847-5.902-16.963-2.133-24.793 1.529-3.175 1.565-4.396.132-4.396-1.687 0-5.32 9.582-5.902 15.567l-.518 5.327h-6.743c-12.378 0-20.034-5.296-25.49-17.634l-2.404-5.437.048-30.228c.03-18.938.348-30.427.85-30.76.441-.293 2.292.913 4.112 2.68 1.82 1.766 6.091 4.638 9.492 6.383l6.183 3.172H197.594l6.386-3.505c6.06-3.326 6.551-3.452 9.61-2.461 1.774.574 6.97 1.074 11.55 1.11 7.493.06 8.829-.18 13.372-2.405 3.108-1.521 6.35-3.998 8.435-6.442 3.438-4.032 6.743-10.041 6.743-12.26 0-.99 1.716-1.168 9.118-.943 10.358.316 13.1-.419 19.656-5.27 5.019-3.713 6.804-3.407 10.845 1.856 7.768 10.116 8.568 27.984 1.758 39.268-1.653 2.74-3.555 5.465-4.228 6.057-.963.848-1.144 2.524-.853 7.91.414 7.7-.932 12.172-5.722 19.008-2.912 4.156-3.829 4.636-3.829 2.004 0-1.165-.453-1.691-1.31-1.524-.973.19-1.605-.96-2.446-4.441-3.223-13.356-10.455-21.128-24.484-26.313-4.712-1.741-5.799-1.562-5.799.956 0 1.164 1.107 2.014 3.935 3.023 8.963 3.198 18.93 12.339 22.331 20.48 7.804 18.68-1.276 43.967-19.179 53.41-6.91 3.646-10.86 4.44-10.496 2.112.16-1.017-.286-1.524-1.34-1.524-1.55 0-1.549-.08.107-4.57 1.291-3.502 1.7-6.618 1.746-13.322.057-8.403-.06-9.012-2.95-15.292-1.72-3.74-5.102-8.994-7.896-12.27l-4.886-5.728 1.267-3.792c.697-2.085 1.48-6.671 1.739-10.192.438-5.96.364-6.38-1.071-6.083-1.3.269-1.565 1.174-1.688 5.752-.37 13.746-6.303 23.121-17.481 27.62-2.129.856-3.85 2.106-3.85 2.795 0 .892.518 1.074 1.823.639 4.011-1.336 10.872-5.59 13.12-8.134 1.309-1.481 2.82-2.694 3.356-2.694 1.517 0 9.616 9.822 12.343 14.967 2.907 5.487 4.41 13.323 3.717 19.392-.275 2.41-1.775 7.278-3.332 10.816-5.252 11.935-16.02 21.107-29.72 25.316-5.24 1.61-15.454 2.685-19.542 2.059zm-96.005-115.33c-5.016-9.586-12.185-15.11-22.93-17.665-3.24-.77-2.74-2.384 1.48-4.789 6.543-3.729 10.862-10.755 10.875-17.69.003-1.317.187-2.394.409-2.394.222 0 2.89 1.36 5.927 3.023 10.581 5.793 20.21 6.997 27.996 3.503 7.896-3.544 17.987-18.715 12.448-18.715-.6 0-2.58 2.506-4.397 5.568-4.748 8.001-9 10.538-17.66 10.538-5.854 0-7.13-.329-13.152-3.393-3.668-1.866-7.286-4.125-8.04-5.02-1.29-1.531-1.279-1.7.186-2.89.856-.696 1.883-1.277 2.283-1.293 1.368-.052 7.649-6.119 9.266-8.951 4.47-7.83 3.996-20.862-1.164-31.942l-2.754-5.914 3.473-3.816c1.91-2.1 4.604-5.37 5.986-7.27l2.513-3.453 3.133 2.293c5.774 4.225 12.295 5.17 19.6 2.838 4.484-1.43 4.782-1.826 3.163-4.204-.855-1.256-1.434-1.361-3.295-.601-5.81 2.373-13.718.437-18.478-4.525-3.038-3.167-7.15-10.94-7.169-13.547-.006-.735-.807-1.047-2.237-.87-1.855.229-2.184.64-1.964 2.452.145 1.197 1.143 4.269 2.217 6.826 2.216 5.273 2.097 5.797-2.791 12.324-4.022 5.37-6.305 7.49-11.037 10.248-3.55 2.07-4.957 2.363-11.346 2.37-6.995.006-7.57-.143-14.006-3.692-3.692-2.035-6.848-3.7-7.014-3.7-.167 0-1.398 2.086-2.737 4.634-2.648 5.041-8.252 11.235-12.892 14.25-3.603 2.34-12.754 4.198-16.733 3.396-2.895-.584-2.945-.664-2.945-4.724 0-11.86 6.353-24.534 15.758-31.433 3.6-2.642 7.218-4.05 12.203-4.753a834.33 834.33 0 0 0 3.444-.49c.112-.018.203-.83.203-1.803 0-2.922 3.946-10.371 7.898-14.91 5.336-6.127 12.675-9.714 20.063-9.804 3.12-.038 6.83.249 8.243.638 2.437.67 2.682.503 4.717-3.227 5.561-10.194 16.883-17.573 26.752-17.436 12.349.17 20.235 6.515 23.886 19.214 1.59 5.525 1.643 7.88 1.643 71.445 0 62.262-.075 65.698-1.418 65.099-5.455-2.435-9.507-3.268-16.006-3.288-8.34-.028-14.319 1.956-20.045 6.648-3.118 2.555-8.82 9.515-10.762 13.136-.714 1.33-1.077 1.039-2.793-2.241zm86.721-6.005c-6.53-1.463-12.315-5.221-18.635-12.108l-6.036-6.578-.328-41.9c-.27-34.55-.135-42.028.769-42.63.602-.403 4.925-.707 9.605-.677 6.732.044 9.467.453 13.087 1.96 5.72 2.38 11.03 7.332 13.867 12.93 2.371 4.68 4.625 13.675 4.64 18.516.008 2.783-.3 3.184-3.535 4.613-3.68 1.625-10.229 7.093-10.229 8.542 0 2.099 2.654 1.617 5.41-.983 4.108-3.875 7.48-5.207 13.182-5.207 3.428 0 6.22.643 9.447 2.177 5.568 2.645 6.498 2.69 7.657.364.734-1.473.625-2.04-.58-3.02-1.792-1.458-7.588-3.571-12.018-4.381-5.001-.914-6.078-1.807-6.078-5.043 0-2.627-2.344-13.72-3.644-17.244-.386-1.049.112-1.83 1.755-2.75 4.525-2.533 11.559-11.092 14.669-17.852 2.901-6.307 3.022-6.927 2.977-15.324-.03-5.655-.492-10.041-1.306-12.397-.889-2.573-1.006-3.919-.4-4.571 2.21-2.374 15.091-.03 21.296 3.877 4.512 2.839 10.15 9.125 12.685 14.141 4.407 8.722 6.163 28.431 3.106 34.869-3.155 6.641-11.802 12.827-20.564 14.71-1.763.378-2.236.917-2.047 2.333.325 2.45 3.307 2.102 10.027-1.171 6.536-3.184 11.896-8.542 14.717-14.713 1.948-4.262 2.245-5.947 2.245-12.746 0-4.31-.302-9.109-.672-10.665-.632-2.66-.544-2.83 1.47-2.83 3.577 0 10.751 4.39 14.93 9.136 7.136 8.105 10.063 16.605 9.692 28.141-.19 5.931 0 7.513.948 7.823 2.033.665 5.717 4.804 7.515 8.442 1.398 2.829 1.726 5.035 1.749 11.753.025 7.24-.224 8.754-1.998 12.148-4.185 8.01-13.573 12.911-22.492 11.744-13.49-1.764-21.54-8.82-23.762-20.831-.715-3.864-1.425-5.673-2.228-5.673-.954 0-1.097 1.086-.751 5.706.583 7.807 4.256 15.745 9.097 19.663 1.989 1.61 3.627 3.244 3.64 3.633.07 1.97-4.53 10.617-7.043 13.238-4.671 4.874-10.552 6.77-19.503 6.288-5.972-.322-7.835-.744-9.027-2.049-1.462-1.6-1.44-1.758.855-6.131 2.393-4.557 4.732-11.676 4.748-14.447.018-3.122-2.365-1.5-3.2 2.176-2.492 10.988-9.952 20.744-18.142 23.73-4.844 1.765-16.333 2.44-21.567 1.268zM55.89 148.857c-1.405-4.653-6.013-11.855-9.314-14.56-5.709-4.677-9.84-6.037-18.191-5.987-5.474.033-9.168.562-12.78 1.83l-5.08 1.785-.97-1.873c-.566-1.094-.981-5.516-.998-10.64-.027-8.064.167-9.174 2.403-13.845 3.45-7.204 5.492-8.597 12.314-8.402 6.832.196 14.043-1.775 19.003-5.194 3.779-2.605 9.7-8.925 12.113-12.93 1.272-2.112 1.301-2.116 4.235-.62 10.654 5.43 16.866 5.84 28.577 1.886 1.418-.48 2.071.222 4.187 4.5 5.073 10.253 5.512 22.212 1.058 28.817-2.736 4.056-8.058 7.582-13.964 9.25-2.369.669-4.226 1.549-4.126 1.955.1.407.722 2.306 1.383 4.222 3.37 9.773-1.16 18.561-11.235 21.79-6.342 2.032-7.48 1.77-8.615-1.984zm132.95-80.693c-7.204-6.906-11.65-8.486-24.299-8.639l-10.13-.122.043-15.236c.038-13.597.247-15.884 1.939-21.271 2.44-7.773 8.991-15.424 14.632-17.091 16.27-4.81 32.348 4.491 39.061 22.6 1.439 3.879 1.816 6.666 1.838 13.586.025 7.785-.209 9.225-2.216 13.616-2.307 5.047-9.13 13.054-13.452 15.784l-2.44 1.542z" style="fill:#fff;stroke-width:.839988"/></svg>