<svg xmlns="http://www.w3.org/2000/svg" width="300mm" height="300mm" viewBox="0 0 300 300"><path d="M132.865 299.05c-3.81-1.352-9.403-6.657-9.403-8.92v-1.235h27.034c26.801 0 27.036.01 27.207 1.204.233 1.632-5.001 7.032-8.244 8.504-2.292 1.04-3.896 1.135-18.669 1.105-9.833-.02-16.852-.279-17.925-.659zm-15.94-17.17c-2.493-1.086-3.748-3.065-3.748-5.915 0-2.902 1.272-4.85 3.878-5.939 2.855-1.193 63.997-1.21 66.812-.02 2.76 1.168 4.089 2.942 4.157 5.545.075 2.853-1.462 5.256-4.056 6.34-2.876 1.201-64.279 1.19-67.042-.012zm-4.336-20.158c-1.25-.63-2.485-1.915-3.15-3.277-.975-1.994-1.007-2.473-.294-4.345.44-1.157 1.547-2.662 2.459-3.343 1.638-1.223 2.102-1.24 37.613-1.416 23.567-.116 36.674.033 38.046.431 5.159 1.5 6.73 7.063 3.039 10.755l-1.921 1.921-36.867.155c-34.24.145-37.014.082-38.925-.881zm.588-18.713c-2.758-1.205-5.73-4.162-6.407-6.377-.304-.993-.729-4.847-.943-8.564-1.27-22.02-8.03-36.684-25.168-54.587-4.58-4.785-9.89-10.879-11.8-13.542-9.337-13.023-15.375-27.869-18.064-44.416-1.13-6.95-.942-23.932.343-31.148 7.566-42.47 39.874-75.122 81.768-82.639 9.872-1.77 25.309-1.77 35.18 0 26.927 4.832 51.029 20.583 66.228 43.282 19.953 29.801 22.465 68.747 6.486 100.59-4.907 9.778-10.61 17.677-19.138 26.51-9.277 9.607-13.833 15.593-17.812 23.406-5.315 10.435-7.69 19.438-8.375 31.747-.53 9.527-1.422 11.913-5.509 14.746l-2.343 1.625-36.195.133c-31.392.115-36.467.013-38.25-.766zm69.513-18.027c1.309-23.11 11.272-43.65 30.144-62.15 16.609-16.28 25.51-37.934 25.52-62.09.02-42.225-29.799-78.004-71.99-86.382-7.33-1.455-23.705-1.474-31.415-.035-7.63 1.423-16.97 4.623-24.063 8.244-24.371 12.442-41.352 35.05-46.88 62.415-1.602 7.935-1.466 24.928.265 32.928 3.967 18.334 11.178 31.654 24.779 45.77 11.44 11.873 14.856 16.471 20.27 27.276 5.346 10.667 9.146 25.5 9.146 35.699v4.35H182.348zM87.906 97.171c-3.024-1.532-4.163-4.295-3.485-8.453.904-5.553 3.43-13.476 6.083-19.086 10.561-22.332 29.273-35.383 55.128-38.452 4.177-.496 5.502-.452 7.16.24 2.102.88 3.875 3.461 3.875 5.645 0 1.463-1.339 4.205-2.54 5.202-.47.39-4.326 1.22-8.57 1.842-14.59 2.141-23.386 6.294-32.38 15.288-8.06 8.06-12.758 16.667-15.386 28.187-1.689 7.401-1.82 7.742-3.42 8.899-2.27 1.64-4.183 1.844-6.465.688z" style="fill:#fff;stroke-width:.5877"/></svg>