<svg xmlns="http://www.w3.org/2000/svg" width="1000mm" height="1000mm" viewBox="0 0 1000 1000"><path d="M430.527 769.327c.19-.077.419-.067.507.02.088.089-.069.151-.347.14-.309-.013-.371-.076-.16-.16zm16.668 0c.191-.077.42-.067.508.02.087.089-.069.151-.348.14-.308-.013-.37-.076-.16-.16zm-17.991-.265c.19-.076.419-.067.507.021.088.088-.069.15-.347.14-.309-.014-.371-.076-.16-.16zm19.314 0c.191-.076.42-.067.507.021.088.088-.068.15-.347.14-.308-.014-.37-.076-.16-.16zm-10.07-109.548a8.42 8.42 0 0 1 1.72 0c.472.059.085.107-.86.107-.946 0-1.333-.048-.86-.107zm-8.066-.263c.402-.06.997-.06 1.322.004.326.063-.004.113-.73.11-.728-.002-.995-.053-.592-.114zm16.14 0c.401-.06.997-.06 1.322.004.325.063-.004.113-.731.11-.728-.002-.994-.053-.592-.114zm-20.242-.262c.329-.063.805-.06 1.058.005.253.066-.016.118-.598.115-.582-.003-.79-.057-.46-.12zm24.47.005c.255-.066.672-.066.927 0 .254.067.046.121-.463.121-.51 0-.718-.054-.463-.12zm-27.51-.265c.257-.068.614-.063.793.01.179.072-.032.127-.468.122-.437-.005-.583-.065-.326-.132zm30.69 0c.258-.068.615-.063.795.01.179.072-.032.127-.468.122-.437-.005-.584-.065-.326-.132zm-33.21-.257c.182-.073.48-.073.662 0 .182.074.033.134-.33.134-.364 0-.513-.06-.331-.134zm35.72 0c.181-.073.479-.073.66 0 .183.074.034.134-.33.134s-.513-.06-.33-.134zm-37.836-.264c.182-.074.48-.074.661 0 .182.073.033.133-.33.133-.364 0-.513-.06-.331-.133zm40.217 0c.181-.074.48-.074.661 0 .182.073.033.133-.33.133-.364 0-.513-.06-.331-.133zm-42.053-.27c.191-.077.42-.068.507.02.088.088-.068.15-.347.14-.308-.013-.37-.076-.16-.16zm44.186 0c.19-.077.419-.068.507.02.088.088-.069.15-.347.14-.309-.013-.371-.076-.16-.16zm-46.319-.26c.182-.073.48-.073.662 0 .182.074.033.134-.331.134s-.513-.06-.33-.134zm48.17-.006c.192-.076.42-.067.508.021.088.088-.068.15-.347.14-.309-.013-.371-.076-.16-.16zm1.588-.264c.191-.077.42-.067.507.02.088.089-.068.151-.347.14-.308-.013-.37-.076-.16-.16zm-52.916-.265c.19-.076.419-.067.507.021.088.088-.069.15-.347.14-.309-.014-.371-.076-.16-.16zm54.504 0c.19-.076.42-.067.507.021.088.088-.068.15-.347.14-.309-.014-.371-.076-.16-.16zm2.91-.529c.191-.076.42-.067.507.021.088.088-.068.15-.347.139-.308-.013-.37-.075-.16-.16zm-61.648-.265c.191-.076.42-.067.507.021.088.088-.068.15-.347.14-.308-.013-.37-.076-.16-.16zm62.971 0c.191-.076.42-.067.507.021.088.088-.068.15-.347.14-.308-.013-.37-.076-.16-.16zm1.323-.264c.191-.077.42-.067.507.02.088.089-.068.151-.347.14-.308-.013-.371-.076-.16-.16zm-258.204-10.072-.641-.728.728.642c.68.6.848.814.641.814-.047 0-.375-.328-.728-.728zm451.135.066c.342-.364.68-.661.754-.661.072 0-.148.297-.49.661-.341.364-.68.662-.753.662-.073 0 .147-.298.489-.662zm-454.574-3.506-.642-.727.728.641c.4.353.728.68.728.728 0 .207-.215.038-.814-.642zm458.014.067c.341-.364.68-.662.753-.662.073 0-.147.298-.489.662-.342.363-.68.661-.754.661-.072 0 .148-.298.49-.661zm1.322-1.556c0-.054.209-.263.463-.463.42-.329.43-.32.1.1-.345.441-.563.581-.563.363zm-466.7-9.755c-1.771-3.6-3.192-7.674-3.914-11.22-.454-2.233-.476-7.783-.476-121.27 0-113.892.02-119.03.48-121.295 2.284-11.228 10.125-23.347 18.665-28.845 2.863-1.844 200.254-115.75 202.708-116.975 10.149-5.065 25.704-5.402 36.48-.79 2.27.972 201.793 116.022 205.085 118.258 2.383 1.619 6.72 5.887 8.762 8.624 2.133 2.86 3.926 5.732 3.577 5.732-.166 0-21.721 12.366-47.902 27.48-45.381 26.198-47.618 27.456-47.976 26.965-.206-.282-1.467-2.267-2.802-4.409-23.25-37.313-62.069-63.959-105.482-72.406-11.271-2.193-17.775-2.784-30.692-2.79-11.179-.007-14.582.22-23.945 1.599-41.114 6.05-79.114 28.737-104.39 62.32-18.891 25.1-29.697 54.083-31.997 85.816-.345 4.767-.345 16.664 0 21.431 1.464 20.2 6.206 38.725 14.528 56.753 1.973 4.272 6.12 12.184 6.865 13.093.329.401.337.455.033.23-.318-.236-9.82 5.15-47.758 27.07-26.048 15.05-47.561 27.478-47.807 27.617-.382.217-.679-.217-2.042-2.988zm133.433-9.26-.504-.596.595.504c.327.277.595.545.595.595 0 .212-.213.056-.686-.504zm205.474.495c0-.055.208-.264.463-.463.42-.33.429-.32.1.1-.346.44-.563.58-.563.363zm1.587-1.323c0-.055.209-.264.463-.463.42-.33.43-.32.1.1-.346.44-.563.58-.563.363zm-208.79-.628c-.329-.42-.32-.429.1-.1.44.346.581.563.363.563-.055 0-.263-.208-.463-.463zm345.072-.485c.012-.308.075-.371.16-.16.076.191.066.42-.022.507-.087.088-.15-.068-.139-.347zm-134.033-.904c.264-.291.539-.53.611-.53.073 0-.083.239-.346.53-.264.291-.539.53-.611.53-.073 0 .083-.239.346-.53zm-213.142-.463-.641-.728.727.642c.68.6.85.814.642.814-.048 0-.375-.328-.728-.728zm347.46-.066c0-.364.06-.513.133-.33.074.181.074.479 0 .66-.073.182-.133.034-.133-.33zm-131.275-2.25c.494-.508.957-.925 1.03-.925.073 0-.272.417-.766.926-.493.51-.957.926-1.03.926-.072 0 .272-.417.766-.926zm131.56-.131c0-.51.054-.718.12-.463.067.254.067.67 0 .926-.066.254-.12.046-.12-.463zm-351.044-.596-1.046-1.124 1.124 1.046c.619.575 1.125 1.08 1.125 1.124 0 .2-.23 0-1.203-1.046zm-6.88-6.879-1.045-1.124 1.124 1.045c.618.576 1.124 1.082 1.124 1.125 0 .2-.23 0-1.203-1.046zm235.095-1.124c.494-.51.957-.926 1.03-.926.073 0-.272.416-.765.926-.494.509-.957.926-1.03.926-.073 0 .271-.417.765-.926zm-238.145-2.183-.641-.728.727.642c.68.6.85.813.642.813-.048 0-.375-.327-.728-.727zm240.659-.596c.263-.29.538-.529.61-.529.074 0-.082.238-.346.53-.263.29-.538.529-.61.529-.074 0 .082-.238.346-.53zm-242.525-1.52c-.329-.42-.32-.43.1-.1.44.345.581.562.363.562-.055 0-.263-.208-.463-.463zm243.98-.167c0-.055.208-.263.463-.463.42-.329.429-.32.1.1-.346.44-.563.581-.563.363zm-245.426-1.553-.504-.596.595.504c.56.474.716.687.504.687-.05 0-.318-.268-.595-.595zm246.749-.034c0-.055.208-.264.463-.463.42-.33.429-.32.1.1-.346.44-.563.58-.563.363zM314.39 600.24c-.329-.42-.32-.429.1-.1.255.2.463.409.463.463 0 .218-.217.078-.563-.363zm249.272-.166c0-.055.208-.263.463-.463.42-.329.429-.32.1.1-.346.44-.563.581-.563.363zm1.058-1.323c0-.055.208-.263.463-.463.42-.329.43-.32.1.1-.346.44-.563.581-.563.363zm1.852-2.38c0-.056.208-.264.463-.464.42-.329.43-.32.1.1-.346.44-.563.58-.563.363zm-256.15-1.158c-.33-.42-.32-.429.1-.1.44.346.58.563.363.563-.055 0-.264-.208-.463-.463zm126.583-16.138c1.134-.05 2.92-.05 3.968 0 1.049.05.12.091-2.062.09-2.183 0-3.04-.04-1.906-.09zm-5.3-.25c.258-.068.615-.064.795.01.179.072-.032.126-.468.121-.437-.005-.584-.065-.326-.132zm13.754 0c.255-.067.671-.067.926 0 .255.066.046.12-.463.12-.51 0-.718-.054-.463-.12zm-16.272-.258c.182-.074.48-.074.662 0 .182.073.033.133-.331.133s-.513-.06-.33-.133zm19.05 0c.182-.074.48-.074.662 0 .182.073.033.133-.331.133s-.513-.06-.33-.133zm-20.885-.27c.19-.077.419-.067.507.02.088.088-.069.151-.347.14-.309-.013-.371-.076-.16-.16zm23.018 0c.191-.077.42-.067.508.02.087.088-.069.151-.348.14-.308-.013-.37-.076-.16-.16zm1.588-.265c.19-.076.42-.067.507.02.088.089-.068.151-.347.14-.308-.013-.371-.075-.16-.16zm123.727-.23c-.494-.396-.49-.4.081-.124.328.159.596.344.596.412 0 .202-.138.144-.677-.289zm-120.817-.3c.191-.076.42-.066.507.022.088.088-.068.15-.347.139-.308-.013-.37-.076-.16-.16zm-33.337-.264c.19-.076.42-.067.507.021.088.088-.068.15-.347.14-.309-.014-.371-.076-.16-.16zm149.127-2.347c-.494-.395-.49-.4.081-.123.328.159.596.344.596.411 0 .203-.138.144-.677-.288zm-5.027-2.91c-.494-.396-.49-.4.081-.124.328.16.596.344.596.412 0 .202-.138.144-.678-.289zm-5.028-2.911c-.493-.395-.49-.4.082-.123.328.159.595.344.595.412 0 .202-.137.144-.677-.289zm-172.394-7.988c-.329-.42-.32-.429.1-.1.44.346.581.563.363.563-.055 0-.263-.208-.463-.463zm101.105.363c0-.055.208-.263.463-.463.42-.329.429-.32.1.1-.346.44-.563.58-.563.363zm-102.816-1.818-.504-.596.595.504c.56.474.716.687.504.687-.05 0-.318-.268-.595-.595zm104.403.495c0-.055.209-.263.463-.463.42-.329.43-.32.1.1-.345.44-.563.581-.563.363zm-108.748-4.596-2.774-2.845 2.845 2.774c2.642 2.576 2.964 2.915 2.773 2.915-.039 0-1.319-1.28-2.844-2.844zm111.791 1.786c.568-.582 1.093-1.059 1.166-1.059.073 0-.333.477-.901 1.059-.569.582-1.093 1.058-1.166 1.058-.073 0 .333-.476.901-1.058zm3.56-3.506c1.097-1.168 1.335-1.378 1.335-1.18 0 .043-.566.608-1.257 1.257l-1.257 1.18zm-119.473-2.646-.504-.595.596.504c.56.473.715.686.504.686-.05 0-.318-.267-.596-.595zm121.998-.198c.264-.291.539-.53.612-.53.072 0-.084.239-.347.53-.263.29-.538.529-.611.529-.073 0 .083-.238.346-.53zm-123.461-1.522c-.33-.42-.32-.429.1-.1.44.346.58.563.363.563-.055 0-.264-.208-.463-.463zm-8.883-13.764c-6.017-11.617-8.884-23.506-8.884-36.837 0-16.578 4.51-31.299 13.778-44.98 18.48-27.276 51.632-40.523 83.662-33.429 18.758 4.155 35.535 14.921 46.993 30.158 2.295 3.051 5.52 7.997 5.335 8.182-.101.101-26.564 15.385-103.26 59.64-19.5 11.252-35.52 20.557-35.599 20.678-.079.121-.99-1.414-2.025-3.412zm196.362-10.182c-.07-.183-.095-4.261-.055-9.062l.074-8.73.062 8.926.063 8.927 8.93.073 8.93.073-8.939.063c-6.981.049-8.966-.01-9.065-.27zm66.94 0c-.071-.183-.095-4.261-.055-9.062l.074-8.73.062 8.926.062 8.927 8.93.073 8.93.073-8.938.063c-6.982.049-8.966-.01-9.066-.27zm-31.342-26.52v-8.86l-8.93-.073-8.93-.073 9.063-.063 9.062-.062v8.996c0 4.947-.06 8.996-.133 8.996-.072 0-.132-3.987-.132-8.86zm66.94 0v-8.86l-8.93-.073-8.93-.073 9.062-.063 9.062-.062v8.996c0 4.947-.06 8.996-.132 8.996-.073 0-.132-3.987-.132-8.86zm-111.592-9.063 8.926-.075.075-8.794.075-8.794-.005 8.864-.005 8.863-8.996.005-8.995.005 8.926-.075zm66.94 0 8.926-.075.075-8.794.075-8.794-.005 8.864-.005 8.863-8.996.005-8.996.005 8.926-.075zm57.942-108.547c0-.51.055-.718.121-.463.067.254.067.671 0 .926-.066.254-.12.046-.12-.463zm-.305-2.271c.013-.308.075-.371.16-.16.076.19.067.42-.02.507-.089.088-.151-.068-.14-.347zm-.264-1.588c.012-.308.075-.37.16-.16.076.191.066.42-.022.508-.087.087-.15-.069-.139-.348z" style="fill:#6499d0;stroke-width:.264583" transform="matrix(1.82176 0 0 1.80881 -299.278 -402.107)"/><path d="M435.542 659.514c.476-.06 1.19-.058 1.587.003.398.06.008.108-.864.107-.873-.003-1.199-.051-.723-.11zm5.816.005a3.768 3.768 0 0 1 1.19 0c.328.063.06.114-.595.114-.654 0-.922-.051-.595-.114zm-12.154-.259c.19-.076.419-.067.507.021.088.088-.069.15-.347.139-.309-.013-.371-.075-.16-.16zm19.314 0c.191-.076.42-.067.507.021.088.088-.068.15-.347.139-.308-.013-.37-.075-.16-.16zm-236.897-14.967-1.046-1.124 1.125 1.046c1.045.973 1.246 1.203 1.046 1.203-.044 0-.55-.506-1.125-1.125zm454.567.067c.568-.583 1.093-1.059 1.165-1.059.073 0-.332.476-.9 1.059-.569.582-1.094 1.058-1.166 1.058-.073 0 .332-.476.9-1.058zm7.011-10.335c0-.154-.119-.206-.264-.116-.146.09-.265.05-.265-.088 0-.139-.298-.327-.661-.418-.364-.091-.662-.274-.662-.405 0-.132-.417-.377-.926-.545-.51-.168-.926-.402-.926-.52 0-.12-.298-.29-.661-.382-.364-.091-.662-.29-.662-.441 0-.152-.119-.202-.264-.112-.146.09-.265.05-.265-.088s-.298-.326-.661-.417c-.364-.092-.662-.29-.662-.442 0-.15-.119-.201-.265-.111-.145.09-.264.037-.264-.117s-.17-.28-.378-.28-.535-.154-.728-.342c-.192-.188-.736-.5-1.21-.694-.472-.193-.86-.456-.86-.584 0-.128-.17-.232-.377-.232-.208 0-.586-.209-.841-.463-.255-.255-.531-.45-.614-.433-.304.061-1.342-.519-1.342-.75 0-.13-.12-.164-.265-.074-.145.09-.264.037-.264-.117s-.17-.28-.378-.28-.536-.154-.728-.342c-.192-.188-.736-.5-1.21-.693-.472-.194-.86-.457-.86-.584 0-.128-.17-.233-.377-.233-.208 0-.587-.208-.841-.463-.255-.255-.531-.45-.614-.433-.279.056-1.342-.51-1.342-.713 0-.111-.417-.34-.926-.508-.51-.168-.926-.402-.926-.52 0-.12-.298-.29-.662-.382-.364-.091-.661-.29-.661-.441 0-.151-.12-.202-.265-.112-.145.09-.264.061-.264-.063 0-.125-.417-.378-.926-.562-.51-.184-.927-.446-.927-.583 0-.136-.17-.247-.378-.247-.207 0-.535-.154-.727-.342-.192-.188-.737-.5-1.21-.693-.473-.194-.86-.444-.86-.556 0-.112-.297-.278-.661-.37-.364-.091-.661-.29-.661-.44 0-.152-.12-.202-.265-.113-.146.09-.265.062-.265-.063s-.416-.378-.926-.562c-.509-.184-.926-.446-.926-.582 0-.136-.17-.248-.378-.248s-.535-.154-.727-.342c-.193-.188-.737-.5-1.21-.693-.473-.194-.86-.444-.86-.556 0-.112-.297-.278-.661-.37-.364-.09-.662-.29-.662-.44 0-.152-.119-.202-.264-.112-.146.09-.265.05-.265-.088 0-.139-.297-.326-.661-.418-.364-.091-.662-.29-.662-.441 0-.151-.119-.202-.264-.112-.146.09-.265.038-.265-.116s-.17-.28-.378-.28-.535-.154-.727-.342c-.193-.188-.737-.5-1.21-.694-.473-.193-.86-.443-.86-.555 0-.112-.298-.279-.661-.37-.364-.091-.662-.29-.662-.441 0-.152-.119-.202-.264-.112-.146.09-.265.037-.265-.117s-.16-.28-.356-.28c-.196 0-.631-.238-.967-.529-.335-.291-.762-.53-.948-.53-.185 0-.494-.153-.687-.341-.192-.188-.736-.5-1.21-.694-.472-.193-.859-.443-.859-.555 0-.112-.298-.279-.661-.37-.364-.091-.662-.29-.662-.441 0-.151-.119-.202-.265-.112-.145.09-.264.05-.264-.088s-.298-.326-.662-.417c-.363-.092-.661-.274-.661-.405 0-.132-.417-.377-.926-.545-.51-.168-.926-.402-.926-.52 0-.12-.298-.291-.662-.382-.363-.092-.661-.29-.661-.442 0-.15-.12-.201-.265-.111-.145.09-.264.05-.264-.088s-.298-.326-.662-.418c-.363-.091-.661-.29-.661-.44 0-.152-.12-.202-.265-.112-.145.09-.264.05-.264-.088 0-.139-.298-.327-.662-.418-.364-.091-.661-.274-.661-.405 0-.132-.417-.377-.926-.545-.51-.168-.926-.402-.926-.52 0-.12-.298-.29-.662-.382-.364-.091-.661-.29-.661-.441 0-.152-.12-.202-.265-.112-.145.09-.264.05-.264-.088s-.298-.326-.662-.417c-.364-.092-.661-.29-.661-.442 0-.15-.12-.201-.265-.111-.145.09-.264.037-.264-.117s-.17-.28-.378-.28-.536-.154-.728-.342c-.192-.188-.737-.5-1.21-.694-.473-.193-.86-.443-.86-.555 0-.112-.297-.279-.66-.37-.365-.091-.662-.29-.662-.441 0-.151-.12-.202-.265-.112-.145.09-.265.05-.265-.088s-.297-.326-.661-.417c-.364-.091-.661-.29-.661-.441 0-.152-.12-.202-.265-.112-.146.09-.265.037-.265-.117s-.17-.28-.378-.28c-.207 0-.535-.154-.727-.342-.193-.188-.737-.5-1.21-.693-.473-.194-.86-.444-.86-.556 0-.112-.297-.278-.661-.37-.364-.09-.662-.29-.662-.44 0-.152-.119-.202-.264-.112-.146.09-.265.05-.265-.088 0-.139-.297-.327-.661-.418-.364-.091-.662-.274-.662-.405s-.416-.377-.926-.545c-.509-.168-.926-.402-.926-.52 0-.12-.297-.29-.661-.382-.364-.091-.662-.29-.662-.441 0-.152-.119-.202-.264-.112-.146.09-.265.05-.265-.088s-.297-.326-.661-.417c-.364-.092-.662-.29-.662-.442 0-.15-.119-.201-.264-.111-.146.09-.265.05-.265-.088s-.298-.326-.661-.418c-.364-.091-.662-.273-.662-.405 0-.131-.417-.376-.926-.544-.51-.168-.926-.403-.926-.521 0-.119-.298-.29-.661-.382-.364-.091-.662-.29-.662-.441 0-.151-.119-.202-.264-.112-.146.09-.265.05-.265-.088s-.298-.326-.661-.417c-.364-.091-.662-.29-.662-.441 0-.152-.119-.202-.264-.112-.146.09-.265.037-.265-.117s-.17-.28-.378-.28-.54-.163-.74-.362c-.199-.199-.624-.445-.943-.546-.32-.102-.747-.35-.949-.552-.548-.548-69.415-40.333-70.875-40.946-.691-.29-1.257-.617-1.257-.727 0-.11-.297-.276-.661-.367-.364-.091-.662-.29-.662-.441 0-.152-.119-.202-.264-.112-.146.09-.265.05-.265-.088s-.297-.326-.661-.417c-.364-.092-.662-.274-.662-.405 0-.132-.416-.377-.926-.545-.51-.168-.926-.403-.926-.521 0-.119-.297-.29-.661-.382-.364-.09-.662-.29-.662-.44 0-.152-.119-.202-.264-.112-.146.09-.265.05-.265-.088 0-.139-.298-.327-.661-.418-.364-.091-.662-.29-.662-.441 0-.151-.119-.202-.264-.112-.146.09-.265.038-.265-.116s-.17-.28-.378-.28-.535-.154-.728-.342c-.192-.188-.736-.5-1.21-.694-.472-.193-.859-.443-.859-.555 0-.113-.298-.279-.661-.37-.364-.092-.662-.29-.662-.441 0-.152-.119-.202-.264-.112-.146.09-.265.05-.265-.088s-.298-.326-.661-.418c-.364-.09-.662-.29-.662-.44 0-.152-.119-.202-.265-.112-.145.09-.264.037-.264-.117s-.17-.28-.378-.28-.535-.154-.728-.342c-.192-.188-.736-.5-1.21-.694-.472-.193-.86-.443-.86-.555 0-.112-.297-.279-.66-.37-.364-.091-.662-.29-.662-.441 0-.152-.12-.202-.265-.112-.145.09-.264.038-.264-.117 0-.154-.16-.28-.357-.28-.196 0-.63-.238-.966-.529-.336-.29-.762-.529-.948-.529-.185 0-.495-.154-.687-.342-.192-.188-.736-.5-1.21-.694-.472-.193-.86-.443-.86-.555 0-.112-.297-.278-.66-.37-.365-.091-.662-.29-.662-.441 0-.151-.12-.202-.265-.112-.145.09-.264.05-.264-.088s-.298-.326-.662-.417c-.364-.091-.661-.274-.661-.405 0-.132-.417-.377-.926-.545-.51-.168-.926-.402-.926-.52 0-.12-.298-.29-.662-.382-.364-.091-.661-.29-.661-.441 0-.152-.12-.202-.265-.112-.145.09-.264.05-.264-.088s-.298-.326-.662-.418c-.364-.09-.661-.29-.661-.44 0-.152-.12-.202-.265-.112-.145.09-.265.05-.265-.088 0-.139-.297-.327-.661-.418-.364-.091-.661-.273-.661-.405 0-.131-.417-.376-.926-.545-.51-.168-.927-.402-.927-.52 0-.119-.297-.29-.661-.382-.364-.091-.661-.29-.661-.441 0-.151-.12-.202-.265-.112-.146.09-.265.05-.265-.088s-.297-.326-.661-.417c-.364-.092-.662-.29-.662-.441 0-.152-.119-.202-.264-.112-.146.09-.265.037-.265-.117s-.17-.28-.378-.28-.535-.154-.727-.342c-.193-.188-.737-.5-1.21-.693-.473-.194-.86-.444-.86-.556 0-.112-.297-.278-.661-.37-.364-.091-.662-.29-.662-.44 0-.152-.119-.202-.264-.112-.146.09-.265.05-.265-.088 0-.139-.297-.327-.661-.418-.364-.091-.662-.29-.662-.441 0-.152-.119-.202-.264-.112-.146.09-.265.038-.265-.117 0-.154-.17-.28-.378-.28s-.535-.154-.727-.342c-.193-.188-.737-.5-1.21-.693-.473-.194-.86-.444-.86-.556 0-.112-.298-.278-.661-.37-.364-.09-.662-.29-.662-.44 0-.152-.119-.202-.264-.112-.146.09-.265.037-.265-.117s-.16-.28-.356-.28c-.196 0-.631-.238-.967-.53-.335-.29-.762-.528-.947-.528-.186 0-.495-.154-.688-.342-.192-.188-.736-.5-1.21-.694-.472-.193-.859-.443-.859-.555 0-.112-.298-.279-.661-.37-.364-.091-.662-.29-.662-.441 0-.152-.119-.202-.265-.112-.145.09-.264.05-.264-.088s-.298-.326-.662-.418c-.363-.09-.661-.273-.661-.405 0-.131-.417-.376-.926-.544-.51-.168-.926-.403-.926-.521 0-.119-.298-.29-.662-.382-.363-.09-.661-.29-.661-.44 0-.152-.12-.202-.265-.112-.145.09-.264.05-.264-.088 0-.139-.298-.327-.662-.418-.363-.091-.661-.29-.661-.441 0-.151-.12-.202-.265-.112-.145.09-.264.046-.264-.097 0-.143-.188-.3-.417-.346-.228-.047 15.458-9.244 34.86-20.438 19.4-11.194 52.836-30.495 74.3-42.892 21.465-12.396 57.957-33.465 81.095-46.82a187563.72 187563.72 0 0 0 43.196-24.933l1.126-.655 1.574 3.268c1.818 3.774 2.9 6.884 3.764 10.808l.611 2.778V617.504l-.611 2.779c-.336 1.528-.967 3.85-1.4 5.159-1.102 3.32-3.805 8.863-4.324 8.863-.226 0-.412-.126-.412-.28zM581.918 516.83v-8.995h17.992v-17.992h-17.992v-17.727h-17.992v17.727H546.2v17.992h17.727v8.819c0 4.85.08 8.899.177 8.996.097.097 4.145.176 8.996.176h8.819zm66.94 0v-8.995h17.991v-17.992h-17.991v-17.727h-17.992v17.727h-17.727v17.992h17.727v8.819c0 4.85.08 8.899.176 8.996.097.097 4.145.176 8.996.176h8.82zM546.86 617.901c.263-.29.538-.529.61-.529.074 0-.082.238-.346.53-.263.29-.538.528-.61.528-.074 0 .082-.238.346-.529zm-216.455-.595-.504-.595.596.504c.327.277.595.545.595.595 0 .212-.213.055-.687-.504zm222.403-5.027c1.525-1.564 2.805-2.844 2.844-2.844.191 0-.131.339-2.773 2.915l-2.844 2.773zm-227.551.132-.912-.992.992.912c.546.501.992.948.992.992 0 .202-.223.012-1.072-.912zm-4.906-5.16-.504-.594.595.504c.328.277.596.545.596.595 0 .212-.213.055-.687-.504zm237.753-.562c0-.055.209-.263.463-.463.42-.33.43-.32.1.1-.345.44-.563.58-.563.363zm2.117-2.381c0-.055.208-.264.463-.463.42-.33.43-.32.1.1-.346.44-.563.58-.563.363zm-127.314-25.481c.19-.077.42-.067.507.02.088.089-.068.151-.347.14-.308-.013-.371-.076-.16-.16zm58.787-19.499c0-.054.208-.263.463-.463.42-.329.43-.32.1.1-.346.441-.563.581-.563.363zm-106.132-.627c-.329-.42-.32-.43.1-.1.441.346.581.563.363.563-.055 0-.263-.209-.463-.463zm110.1-3.11c.343-.363.682-.66.754-.66.073 0-.147.297-.489.66-.341.365-.68.662-.753.662-.073 0 .147-.297.489-.661z" style="fill:#00589b;stroke-width:.264583" transform="matrix(1.82176 0 0 1.80881 -299.278 -402.107)"/><path d="M429.121 768.957c-2.794-.6-5.976-1.615-8.202-2.617-1.848-.831-201.233-115.859-203.994-117.686-2.986-1.976-8.143-7.337-10.566-10.984-1.14-1.715-2.026-3.156-1.97-3.203.37-.314 94.902-54.77 95.219-54.851.264-.068.83.627 1.7 2.092 3.73 6.285 9.184 13.903 14.448 20.186 26.45 31.568 63.615 51.748 104.237 56.6 9.754 1.164 23.133 1.405 32.28.58 27.819-2.509 53.263-11.424 76.14-26.679 15.243-10.164 29.06-23.309 39.968-38.027 2.554-3.447 7.571-10.98 8.948-13.436.88-1.568.95-1.63 1.5-1.28.316.2 21.769 12.594 47.671 27.539 25.903 14.945 47.147 27.22 47.209 27.279.062.058-.829 1.503-1.979 3.211-2.365 3.514-7.312 8.72-10.172 10.704-1.563 1.084-201.111 116.365-203.607 117.626-1.828.923-6.253 2.36-9.053 2.941-2.367.49-3.543.553-10.038.536-6.223-.017-7.725-.099-9.739-.531zm1.232-190.348c-15.353-1.752-29.396-7.594-41.58-17.298-3.267-2.601-9.677-9.007-12.21-12.201-2.148-2.707-5.003-6.78-6.157-8.781l-.715-1.24.61-.39c3.078-1.96 68.664-39.595 68.903-39.538.668.159 69.14 39.776 69.15 40.01.017.407-4.838 7.522-6.781 9.936-2.492 3.097-6.848 7.578-10.01 10.3-11.86 10.204-25.432 16.404-41.267 18.852-4.563.705-15.193.892-19.943.35z" style="fill:#004381;stroke-width:.264583" transform="matrix(1.82176 0 0 1.80881 -299.278 -402.107)"/></svg>