<svg xmlns="http://www.w3.org/2000/svg" width="1000mm" height="1000mm" viewBox="0 0 1000 1000"><path d="M478.713 991.458c-5.143-1.163-10.764-3.118-14.913-5.188-4.777-2.384-365.025-210.307-369.764-213.416-4.608-3.023-11.579-9.522-15.72-14.656-8.488-10.523-15.314-24.748-18.063-37.644-.837-3.921-.874-13.427-.874-221.491V281.668l1.272-5.302c4.77-19.882 17.57-39.6 32.262-49.702 4.828-3.32 368.008-212.952 372.502-215.013 4.487-2.058 11.472-4.139 17.666-5.262 6.808-1.235 23.55-1.236 30.368-.002 6.443 1.166 12.145 2.847 17.112 5.044 2.253.997 84.246 48.079 182.206 104.626C921.003 236.262 901.475 224.901 906.301 228.65c13.87 10.772 25.876 30.404 29.968 49.01.847 3.85.882 12.565.882 221.644 0 209.078-.035 217.793-.882 221.643-1.924 8.746-6.691 20.362-11.505 28.033-5.958 9.494-14.426 18.59-22.086 23.722-4.688 3.14-363.877 210.518-369.705 213.448-4.554 2.29-9.707 4.076-15.384 5.331-3.61.799-6.112.912-19.565.886-13.106-.025-16.01-.163-19.311-.909zm43.412-200.515c56.52-5.092 108.46-25.033 153.044-58.757 25.18-19.046 47.414-42.425 65.157-68.51 4.845-7.125 11.005-16.997 11-17.63 0-.246-27.362-16.282-60.799-35.635a237189.581 237189.581 0 0 1-63.083-36.52l-2.289-1.331-1.944 3.272c-7.509 12.64-20.855 27.71-33.443 37.765-10.935 8.733-27.674 18.283-39.926 22.776-32.167 11.797-66.204 12.494-97.57 1.998-44.1-14.756-79.015-49.89-93.22-93.806-5.065-15.656-7.022-28.268-7.022-45.261 0-14.058 1-22.364 4.292-35.68 10.88-44.005 42.894-81.331 85.064-99.18 26.94-11.403 57.466-14.421 86.13-8.516 38.507 7.933 71.76 30.655 93.781 64.082 2.096 3.182 4.067 5.714 4.379 5.628.312-.087 7.617-4.235 16.233-9.22l47.962-27.739c17.763-10.272 38.857-22.474 46.877-27.116 8.02-4.642 14.581-8.653 14.581-8.912 0-1.415-12.155-19.962-19.155-29.23-48.638-64.39-121.764-106-202.095-114.995-22.956-2.57-49.552-2.136-73.268 1.198-70.74 9.945-136.794 46.81-183.035 102.153-34.575 41.382-57.209 91.557-64.913 143.903-2.497 16.967-2.92 23.276-2.927 43.624-.007 20.366.407 26.52 2.93 43.623 11.97 81.152 59.03 154.648 128.402 200.531 42.86 28.348 90.813 44.38 143.403 47.94 7.798.529 33.695.244 41.454-.455zM758.56 531.841v-16.148h32.296v-32.296H758.56V450.619h-32.283l-.127 16.268-.127 16.269-16.268.127-16.269.127v32.283h32.778v32.295h32.296zm121.953 0v-16.148h32.296v-32.296h-32.296V450.619H848.23l-.127 16.268-.127 16.269-16.268.127-16.269.127v32.283h32.778v32.295h32.296z" style="fill:#fff;stroke-width:.482028"/></svg>