<svg xmlns="http://www.w3.org/2000/svg" width="300mm" height="300mm" viewBox="0 0 300 300"><g style="fill:#fff"><path d="M134.644 263.53c.182-.074.48-.074.662 0 .182.073.033.133-.331.133s-.513-.06-.33-.133zm4.234 0c.181-.074.48-.074.661 0 .182.073.033.133-.33.133-.365 0-.513-.06-.331-.133zm-7.806-58.487c.4-.061 1.055-.061 1.456 0 .4.06.072.11-.728.11-.8 0-1.128-.05-.728-.11zm10.584 0c.4-.061 1.055-.061 1.455 0 .4.06.073.11-.728.11-.8 0-1.128-.05-.727-.11zm-14.547-.259c.257-.067.614-.063.793.01.18.073-.031.127-.468.122-.436-.005-.583-.065-.325-.132zm19.314 0c.258-.067.615-.063.794.01.179.073-.032.127-.468.122-.437-.005-.583-.065-.326-.132zm-22.098-.256c.182-.074.48-.074.662 0 .182.073.033.133-.33.133-.365 0-.513-.06-.332-.133zm24.871 0c.182-.074.48-.074.662 0 .182.073.033.133-.331.133s-.513-.06-.33-.133zm-27.252-.265c.182-.073.48-.073.662 0 .182.073.033.134-.331.134s-.513-.06-.33-.134zm29.634 0c.181-.073.48-.073.661 0 .182.073.033.134-.33.134-.365 0-.513-.06-.331-.134zm-31.486-.265c.182-.073.48-.073.662 0 .181.074.033.134-.331.134s-.513-.06-.33-.134zm33.619-.006c.19-.076.419-.067.507.021.088.088-.068.15-.347.14-.309-.013-.371-.076-.16-.16zm-35.19-.264c.191-.077.42-.067.507.02.088.089-.068.151-.347.14-.308-.013-.37-.076-.16-.16zm36.777 0c.191-.077.42-.067.507.02.088.089-.068.151-.347.14-.308-.013-.37-.076-.16-.16zm-38.364-.265c.19-.076.419-.067.507.021.088.088-.069.15-.348.14-.308-.013-.37-.076-.16-.16zm39.952 0c.19-.076.419-.067.507.021.088.088-.069.15-.347.14-.309-.013-.371-.076-.16-.16zm1.587-.264c.191-.077.42-.067.507.02.088.089-.068.151-.347.14-.308-.013-.37-.076-.16-.16zm-44.45-.265c.191-.076.42-.067.507.021.088.088-.068.15-.347.139-.308-.013-.37-.075-.16-.16zm45.773 0c.191-.076.42-.067.507.021.088.088-.068.15-.347.139-.308-.013-.37-.075-.16-.16zM-16.51 179.501l-1.046-1.125 1.124 1.046c.619.576 1.125 1.082 1.125 1.125 0 .2-.23 0-1.203-1.046zm308.094-.992c-221.137-177.972-110.568-88.986 0 0zm-228.873.066c-.33-.42-.32-.43.1-.1.44.346.58.563.363.563-.055 0-.263-.208-.463-.463zm-1.588-1.323c-.329-.42-.32-.43.1-.1.255.2.463.408.463.463 0 .218-.217.078-.563-.363zm151.376.363c0-.055.208-.263.463-.463.42-.33.429-.32.1.1-.346.44-.563.58-.563.363zm-153.351-2.083-.504-.595.595.504c.56.474.716.686.504.686-.05 0-.318-.267-.595-.595zm155.6.066c.263-.29.538-.529.611-.529.073 0-.083.238-.347.53-.263.29-.538.528-.61.528-.074 0 .082-.238.346-.529zm-234.098-.349c-1.802-3.752-.126-.394-1.802-3.752-.318-.677-.384-12.848-.446-82.55-.066-73.292-.03-81.95.34-83.635.816-3.714 3.278-7.702 6.132-9.936 1.665-1.303 142.125-80.092 144.576-81.098 3.363-1.38 8.03-1.785 11.744-1.02 2.59.533 4.425 1.506 33.47 17.758a69428.058 69428.058 0 0 0 69.161 38.616l43.63 24.33 2.275 2.203c1.252 1.212 2.13 2.13 1.953 2.04-.178-.09-.595.01-.926.224-.332.214-6.728 16.853-21.062 25.028-14.334 8.174-31.751 5.223-31.858 5.39-.14.22-.196.21-.199-.034-.002-.186-.726-1.484-1.608-2.885-9.255-14.69-22.443-27.783-37.274-37.005-24.92-15.495-54.872-21.006-83.888-15.435-14.252 2.736-28.39 8.373-40.614 16.194-28.262 18.081-47.352 47.129-52.63 80.083-1.127 7.033-1.345 10.032-1.345 18.521 0 10.067.703 16.804 2.68 25.665 2.072 9.292 6.287 20.81 10.342 28.265.68 1.249 1.098 2.302.967 2.431-5.815 3.583-53.043 32.231-53.618 30.602zm73.623-4.347-2.509-2.58 2.58 2.509c2.396 2.33 2.7 2.65 2.508 2.65-.039 0-1.2-1.16-2.58-2.58zm165.37.066c1.376-1.382 2.562-2.513 2.635-2.513.073 0-.994 1.13-2.37 2.513-1.378 1.383-2.563 2.514-2.636 2.514-.073 0 .994-1.131 2.37-2.514zm-170.02-4.96-.504-.596.595.504c.56.474.716.686.504.686-.05 0-.318-.267-.595-.595zm174.65.065c.263-.29.538-.529.611-.529.073 0-.083.238-.347.53-.263.29-.538.528-.61.528-.074 0 .082-.238.346-.529zm-176.379-2.05c-.329-.42-.32-.429.1-.1.44.346.581.563.363.563-.055 0-.263-.208-.463-.463zm177.834.363c0-.055.208-.263.463-.463.42-.329.429-.32.1.1-.346.44-.563.581-.563.363zm-92.667-17.814c.329-.063.805-.06 1.058.005.253.066-.016.118-.598.115-.582-.003-.79-.057-.46-.12zm7.144 0c.329-.063.805-.06 1.058.005.253.066-.016.118-.599.115-.582-.003-.789-.057-.46-.12zm-10.058-.253c.182-.073.48-.073.662 0 .182.074.033.134-.331.134s-.513-.06-.33-.134zm13.23 0c.181-.073.479-.073.66 0 .183.074.034.134-.33.134s-.512-.06-.33-.134zm-15.346-.264c.182-.074.48-.074.661 0 .182.073.033.133-.33.133-.364 0-.513-.06-.331-.133zm17.462 0c.182-.074.48-.074.662 0 .181.073.033.133-.331.133s-.513-.06-.33-.133zm-18.769-.27c.191-.077.42-.067.507.02.088.088-.068.151-.347.14-.308-.013-.37-.076-.16-.16zm-1.587-.265c.19-.076.419-.067.507.021.088.088-.069.15-.347.139-.309-.013-.371-.075-.16-.16zm-24.062-11.13c-.329-.42-.32-.43.1-.1.255.2.463.408.463.463 0 .218-.217.078-.563-.363zm-1.322-1.058c-.33-.42-.32-.43.1-.1.254.2.462.408.462.463 0 .217-.217.077-.562-.363zm74.117.363c0-.055.208-.264.463-.463.42-.33.429-.32.1.1-.346.44-.563.58-.563.363zm-76.35-2.348-.776-.86.86.777c.801.725.981.943.777.943-.046 0-.433-.387-.86-.86zm78.73.199c.343-.364.682-.662.755-.662.072 0-.148.298-.49.662-.341.363-.68.661-.753.661-.073 0 .147-.298.489-.661zm-82.57-4.035-.64-.728.727.642c.68.599.849.813.641.813-.047 0-.374-.327-.727-.727zm86.54.066c.341-.364.68-.662.753-.662.073 0-.147.298-.489.662-.342.364-.68.661-.753.661-.073 0 .147-.297.489-.661zm-88.405-2.183c-.329-.42-.32-.429.1-.1.44.346.58.563.363.563-.055 0-.263-.208-.463-.463zm89.992.363c0-.055.209-.263.463-.463.42-.329.43-.32.1.1-.346.44-.563.58-.563.363zm-91.05-1.686c-.33-.42-.32-.429.1-.1.254.2.463.408.463.463 0 .218-.218.078-.563-.363zm92.108.363c0-.055.209-.263.464-.463.42-.329.429-.32.1.1-.346.44-.563.581-.563.363zm-98.76-11.475c-11.696-24.973-4.167-54.874 17.999-71.473 20.802-15.578 49.405-15.483 70.309.233 4.795 3.605 9.663 8.725 12.963 13.634.816 1.213 1.626 2.264 1.801 2.335.184.075.132.138-.122.15-.242.012-23.196 12.999-51.009 28.86-27.812 15.862-50.357 29.197-50.403 29.197-.045 0-.873-1.518-1.537-2.936zM295.599 7.434c.013-.308.075-.371.16-.16.076.191.067.42-.021.507-.088.088-.15-.068-.14-.347z" style="fill:#fff;stroke-width:.264583" transform="matrix(.85159 0 0 .85159 34.168 75.322)"/><path d="M135.72 263.524c.19-.076.418-.067.506.021.088.088-.068.15-.347.14-.308-.014-.371-.076-.16-.16zm2.38 0c.191-.076.42-.067.507.021.088.088-.068.15-.347.14-.308-.014-.37-.076-.16-.16zm-8.202-58.473c.191-.076.42-.067.507.021.088.088-.068.15-.347.14-.308-.013-.37-.076-.16-.16zm14.023 0c.191-.076.42-.067.507.021.088.088-.068.15-.347.14-.308-.013-.37-.076-.16-.16zM60.064 176.46c-.329-.42-.32-.43.1-.1.255.2.463.408.463.463 0 .217-.217.077-.563-.363zm153.492.363c0-.055.209-.264.463-.463.42-.33.43-.32.1.1-.346.44-.563.58-.563.363zm51.858-16.081a68905.61 68905.61 0 0 0-104.31-57.394c-31.45-6.252 5.972-40.053 25.593-45.382.368-.054 51.02-28.973 51.2-29.232.074-.104 11.86-6.878 26.195-15.052 14.333-8.175 26.344-15.045 26.689-15.268.584-.377.67-.362 1.242.218 1.117 1.133 2.431 3.643 3.063 5.853l.623 2.178-.028 81.626c-.027 76.659-.057 81.722-.488 83.211-.852 2.696-.687 2.29-1.101 3.108-.408.796-.84 1.258-1.16 1.241-.074-.004-12.456-6.802-27.517-15.107zm-48.947 13.403c.341-.364.68-.662.753-.662.073 0-.147.298-.489.662-.342.363-.68.661-.754.661-.072 0 .148-.298.49-.661zm-159.172-.199-.504-.595.595.504c.56.473.716.686.504.686-.05 0-.318-.268-.595-.595zm-6.213-6.218-.641-.727.727.641c.68.6.85.814.642.814-.048 0-.375-.327-.728-.728zm171.735.066c.341-.363.68-.661.753-.661.073 0-.147.298-.489.661-.342.364-.68.662-.754.662-.072 0 .148-.298.49-.662zm-174.13-2.711c-.33-.42-.32-.43.1-.1.44.345.58.563.363.563-.055 0-.263-.209-.463-.463zm176.246.363c0-.055.209-.264.463-.463.42-.33.43-.32.1.1-.345.44-.563.58-.563.363zm-90.157-18.868c.255-.067.672-.067.927 0 .254.066.046.12-.464.12-.509 0-.717-.054-.463-.12zm3.705 0c.254-.067.671-.067.926 0 .254.066.046.12-.463.12-.51 0-.718-.054-.463-.12zm39.753-17.016c.717-.727 1.363-1.323 1.436-1.323.072 0-.454.596-1.171 1.323-.717.728-1.363 1.323-1.435 1.323-.073 0 .454-.595 1.17-1.323zm-82.682-.132c-.643-.655-1.109-1.19-1.036-1.19.073 0 .658.535 1.3 1.19.643.655 1.11 1.19 1.037 1.19-.073 0-.658-.535-1.301-1.19z" style="fill:#fff;stroke-width:.264583" transform="matrix(.85159 0 0 .85159 34.168 75.322)"/><path d="M134.642 263.415c-.984-.13-2.606-.523-3.606-.873-1.84-.642-141.336-78.703-144.832-81.046-2.136-1.432-4.324-3.772-5.324-5.695-.398-.766-.559-1.192-.357-.946 3.85-59.407 3.959-84.936 53.64-30.28.31-.09.744.792 1.466 2.096 1.37 2.474 5.617 8.94 7.591 11.56 6.853 9.092 16.037 18.177 24.815 24.549 10.48 7.606 23.139 13.955 34.925 17.515 6.24 1.885 15.24 3.7 22.093 4.455 4.286.472 19.825.47 24.077-.004 21.276-2.37 40.54-9.852 57.547-22.351 8.56-6.291 17.575-15.261 24.286-24.164 1.726-2.291 6.167-8.994 7.21-10.885.375-.68.875-1.267 1.083-1.188.19.073 14.434 4.22 29.133 12.308 14.698 8.088 24.684 17.34 24.849 17.239.164-.102.073.2-.203.672-.898 1.535-3.223 3.89-5.056 5.122-2 1.343-141.939 79.899-143.611 80.617-2.697 1.157-6.729 1.696-9.726 1.298zm-1.52-116.932c-7.614-.503-14.46-2.346-21.605-5.816-6.106-2.965-11.257-6.697-16.126-11.681-3.774-3.864-6.635-7.62-9.043-11.878l-.834-1.473c35.517-20.256 65.18-50.382 59.405-52.818 14.625 8.04 38.03 4.258 28.663 6.037-20.722 3.936 19.284 43.315 17.37 45.877-1.847 2.47-13.921 16.206-16.567 18.412-11.361 9.477-26.356 14.324-41.262 13.34zm162.584-43.38c0-20.446.031-28.81.07-18.587.038 10.223.038 26.951 0 37.174-.04 10.223-.07 1.859-.07-18.587zm-.108-38.254c.013-.309.075-.371.16-.16.076.19.067.419-.021.507-.088.088-.15-.069-.14-.347z" style="fill:#fff;stroke-width:.264583" transform="matrix(.85159 0 0 .85159 34.168 75.322)"/></g></svg>