<svg xmlns="http://www.w3.org/2000/svg" width="300mm" height="300mm" viewBox="0 0 300 300"><path d="M47.058 297.444c-8.741-1.841-16.36-6.815-21.523-14.05-1.938-2.716-4.293-7.777-5.275-11.337l-.824-2.986V61.754l.819-2.968c2.813-10.19 9.663-18.35 19.188-22.858 1.517-.717 4.124-1.678 5.793-2.133 2.897-.79 3.427-.834 11.587-.956l8.551-.128.104-7.181c.103-7.151.108-7.193 1.051-9.841 1.25-3.508 2.546-5.634 5.071-8.318C75.863 2.839 81.04.605 87.304.596c9.692-.015 18.075 6.425 20.942 16.088.586 1.973.692 3.178.809 9.177l.134 6.905h22.1l.007-6.146c.006-6.612.298-8.803 1.612-12.055 1.255-3.106 2.671-5.206 5.256-7.792C142.597 2.338 147.7.388 154.161.66c5.751.241 10.048 2.144 14.186 6.282 2.638 2.637 4.432 5.495 5.636 8.979.807 2.335.844 2.705.956 9.637l.117 7.21h22.102v-5.482c0-3.015.152-6.464.338-7.664 1.416-9.143 8.14-16.558 16.867-18.603 3.12-.731 8.64-.452 11.574.586 5.759 2.037 9.976 5.794 12.662 11.28 1.994 4.075 2.292 5.668 2.485 13.28l.167 6.602h5.826c3.985 0 6.73.155 8.687.491C268.36 35.42 278.81 44.411 282.88 56.59c1.816 5.432 1.71-1.77 1.624 110.038l-.08 102.444-.852 3.036c-1.717 6.115-4.92 11.603-9.301 15.935-4.327 4.28-9.743 7.397-15.715 9.046l-2.967.82-102.9.055c-99.964.055-102.978.04-105.632-.52zm208.768-21.305c3.895-1.86 6.6-5.09 7.697-9.193.335-1.25.407-17.453.41-92.2l.002-90.682H39.925v90.92c0 90.669.002 90.924.618 92.755 1.478 4.388 4.463 7.441 8.759 8.96l2.005.709 101.079-.07 101.078-.071zm-197.92-50.398.08-16.77H95.623l.078 16.77.079 16.77H57.828Zm50.084 0 .079-16.77H145.708l.078 16.77.079 16.77h-37.953Zm-50.157-44.544v-16.695h37.943V197.891H57.834Zm50.084 0v-16.695h37.943V197.891h-37.942Zm50.084 0v-16.695h37.942V197.891h-37.942zm50.084 0v-16.695h37.942V197.891h-37.942zm-99.963-27.822c-.113-.113-.205-7.695-.205-16.849v-16.644h37.948l-.079 16.77-.078 16.771-18.691.078c-10.28.043-18.783-.014-18.895-.126zm50.084 0c-.113-.113-.205-7.695-.205-16.849v-16.644h37.948l-.079 16.77-.078 16.771-18.691.078c-10.28.043-18.783-.014-18.895-.126zm50.084 0c-.113-.113-.205-7.695-.205-16.849v-16.644h37.947l-.078 16.77-.079 16.771-18.69.078c-10.28.043-18.783-.014-18.895-.126zM90.82 72.233c1.948-.86 3.852-2.805 4.839-4.94l.875-1.896V20.473l-.79-1.683c-1.102-2.35-2.433-3.752-4.589-4.829-2.163-1.08-4.67-1.239-7.01-.441-1.935.66-4.24 2.807-5.276 4.919l-.85 1.73v45.835l.834 1.583c2.46 4.666 7.497 6.622 11.968 4.646zm66.139-.133c1.957-.89 3.643-2.605 4.651-4.73l.792-1.67V42.935c0-22.69-.003-22.77-.656-24.185-1.578-3.416-4.562-5.467-8.238-5.663-1.999-.107-2.405-.025-4.147.832-2.229 1.097-3.568 2.49-4.685 4.87l-.79 1.684v22.614c0 22.6 0 22.614.662 24.03 2.356 5.046 7.624 7.16 12.41 4.983zm65.935.054c1.831-.86 3.689-2.72 4.633-4.64l.743-1.51V19.866l-.818-1.55c-.45-.853-1.509-2.172-2.354-2.932-4.166-3.746-10.297-2.971-13.498 1.704-2.041 2.983-2.03 2.834-1.933 26.81l.087 21.499.79 1.683c2.426 5.173 7.607 7.302 12.35 5.074z" style="fill:#fff;stroke-width:.303538"/></svg>