<svg xmlns="http://www.w3.org/2000/svg" width="174.992" height="174.933" viewBox="0 0 46.3 46.284"><path d="M249.743 125.128c-2.167-2.682-3.862-6.85-4.421-10.873-.365-2.622-.372-11.66-.011-14.37.646-4.472 2.415-8.805 5.228-11.706 4.347-4.632 12.11-5.171 17.165-3.16 2.77 1.153 5.413 3.716 6.782 6.578.88 2.16 1.77 4.31 1.77 6.615h-5.535c-.47-1.918-1.116-4.043-1.886-5.424-.936-1.663-1.846-2.52-3.691-3.478-2.68-1.092-5.645-1.13-8.015.02-2.036 1-3.653 2.878-4.671 5.427-1.916 7.322-2.785 18.127.114 24.77 1.004 2.27 2.19 3.707 3.968 4.807 3.014 1.656 7.123 1.514 9.836-.263 3.006-2.41 3.506-4.775 4.345-8.132h5.535c-.033 2.298-.935 4.584-1.73 6.258-5.117 8.877-17.951 11.089-24.783 2.931z" style="fill:#fff;stroke-width:.264583" transform="translate(-237.096 -83.91)"/></svg>