<svg xmlns="http://www.w3.org/2000/svg" width="407.507" height="407.149" viewBox="0 0 107.819 107.725"><path d="M270.193 228.977c-5.042-.404-10.532-1.607-14.757-3.232-5.723-2.47-11.403-5.482-16.061-9.607-3.82-3.423-7.375-7.586-9.749-11.413-5.128-8.268-7.614-16.473-8.126-26.823-.908-18.358 6.642-35.06 20.733-45.863 4.005-3.07 10.184-6.303 15.23-7.967 11.686-3.855 26.83-3.55 37.991.765 14.28 5.922 24.386 16.014 30.155 29.878 4.789 12.059 4.854 28.496.162 40.646-1.387 3.592-4.738 9.906-6.21 11.703a253.9 253.9 0 0 0-1.821 2.324c-.849 1.091-2.661 3.098-4.028 4.46-7.996 7.965-18.165 13.049-29.399 14.696-3.386.497-10.58.717-14.12.433zm1.455-9.68c0-1.767.075-2.07.65-2.646.592-.592.856-.65 3.013-.65 3.273 0 3.573.258 3.706 3.176.036 2.483-.592 2.267 1.326 1.991 12.335-1.776 23.202-7.938 30.765-17.444 1.169-1.469 2.293-2.88 2.5-3.137.205-.256.374-.513.374-.57 0-.058.61-1.14 1.355-2.407 2.944-5.003 5.025-11.1 5.928-17.364l.176-1.227-2.168-.099c-2.917-.132-3.175-.433-3.175-3.705 0-2.157.057-2.421.65-3.014 1.34-1.424 3.436.179 4.633-.98-.028-.961-.807-5.098-1.308-6.94-6.361-14.868-14.032-25.014-26.406-31.063-3.092-1.56-8.853-3.235-13.324-3.875l-1.228-.176-.098 2.168c-.133 2.918-.433 3.175-3.706 3.175-2.157 0-2.42-.057-3.013-.65-.575-.574-.65-.878-.65-2.645 0-1.481-.09-1.996-.35-1.996-1.2 0-6.675 1.205-9.184 2.022-4.362 1.42-10.136 4.392-13.617 7.01-10.539 7.925-17.214 19.139-19.058 32.015l-.175 1.228 2.168.098c2.91.132 3.175.438 3.175 3.664s-.265 3.532-3.175 3.664l-2.168.099.176 1.227c.363 2.52.982 5.275 1.762 7.842.997 3.283 4.612 10.811 6.088 12.68 7.2 9.95 19.523 17.688 30.39 19.964 4.292.79 3.968.907 3.968-1.435zm9.95-31.842c-5.828-5.796-6.494-6.378-7.304-6.378-1.456 0-3.14-.985-3.999-2.339-1.233-2.27-1.051-7.154.796-8.88.554-.502.557-.59.557-15.383 0-17.715-1.402-16.218 2.49-16.359 7.402.007 4.71-2.326 4.919 16.088v14.691l1.146 1.057c1.289 1.188 1.764 2.398 1.764 4.49v1.373l5.821 5.827c2.958 3.5 7.163 5.038 6.928 9.458-.347 2.24-1.559 3.402-3.85 3.329-3.596-.541-6.59-4.31-9.268-6.974z" style="fill:#fff;stroke-width:.264583" transform="translate(-221.427 -121.378)"/></svg>