<?xml version="1.0" encoding="UTF-8" standalone="no"?>
<!-- Created with Inkscape (http://www.inkscape.org/) -->

<svg
   width="177.5175mm"
   height="149.6866mm"
   viewBox="0 0 177.5175 149.6866"
   version="1.1"
   id="svg5"
   xml:space="preserve"
   xmlns="http://www.w3.org/2000/svg"
   xmlns:svg="http://www.w3.org/2000/svg"><defs
     id="defs2" /><g
     id="layer1"
     transform="translate(-39.689112,-40.373976)"><path
       style="fill:#ffffff;stroke-width:0.264583"
       d="m 115.88345,189.92212 c -9.967,-0.63669 -20.497818,-2.39155 -29.368748,-4.89401 -6.238309,-1.75982 -13.635289,-5.03428 -17.332999,-7.67291 -2.24304,-1.6006 -4.94762,-4.55612 -5.8488,-6.39146 -0.74677,-1.52086 -0.76233,-1.64111 -0.73207,-5.65494 0.0249,-3.30385 0.16452,-4.74394 0.7182,-7.40834 2.51392,-12.09747 8.88527,-21.92383 19.01026,-29.31898 3.829849,-2.79727 10.232359,-5.78099 15.060529,-7.01855 4.399488,-1.12768 4.095578,-1.14577 6.448878,0.38374 5.70784,3.70977 11.0618,5.74249 17.46871,6.63229 3.66287,0.5087 11.85339,0.43684 15.34584,-0.13464 1.60072,-0.26193 3.2676,-0.58336 3.70416,-0.71428 5.18071,-1.55367 8.86535,-3.20215 12.49204,-5.58884 l 2.43787,-1.60434 2.06005,0.452 c 16.31472,3.57967 29.65521,15.4841 34.84131,31.09077 1.65501,4.98049 2.10951,7.7499 2.12764,12.96458 0.0157,4.52883 2e-4,4.66256 -0.70987,6.10749 -0.87249,1.77544 -3.94197,4.99859 -6.13963,6.44701 -8.9789,5.91774 -21.78541,9.66906 -40.3221,11.81125 -3.84328,0.44414 -6.73285,0.55603 -16.31231,0.63159 -6.40292,0.0505 -13.12995,-0.003 -14.94896,-0.11943 z M 61.776163,135.82634 c -11.19458,-2.33969 -19.23143,-6.39307 -21.48205,-10.83445 -0.6632,-1.30877 -0.67954,-1.45819 -0.52408,-4.79251 0.22487,-4.82297 1.32452,-8.77726 3.62934,-13.051 2.06879,-3.83608 5.69954,-7.951684 9.42271,-10.681044 3.12856,-2.29346 7.93643,-4.4267 11.77015,-5.22237 l 1.49316,-0.3099 1.89979,1.22897 c 5.1097,3.30545 9.64926,4.44463 17.187289,4.31307 2.65103,-0.0463 4.37061,0.0242 4.40859,0.18052 0.883,3.635444 3.7711,10.280474 5.86891,13.503394 l 1.04492,1.60534 -2.67499,0.85518 c -3.21598,1.02814 -8.8107,3.72356 -11.528589,5.55424 -6.25951,4.21621 -11.51905,9.80507 -15.28579,16.24291 -0.91264,1.55982 -1.33365,2.04638 -1.75934,2.03323 -0.30778,-0.01 -1.86929,-0.29102 -3.47002,-0.62558 z m 127.396877,-2.2936 c -4.54994,-7.58472 -11.44675,-14.01929 -19.1972,-17.91058 -3.69524,-1.85528 -4.74305,-2.30337 -6.94428,-2.96971 -1.74898,-0.52944 -1.89609,-0.62591 -1.55213,-1.01791 0.62837,-0.71612 3.1746,-5.31485 4.19513,-7.57678 0.7618,-1.68847 1.96074,-5.066154 2.74708,-7.739074 0.0721,-0.24522 1.10846,-0.33099 4.0082,-0.33173 7.12432,-0.002 11.82285,-1.30413 16.96061,-4.70096 l 1.40804,-0.93093 2.21179,0.54602 c 10.53254,2.60017 18.92678,10.299464 22.56547,20.697294 1.58752,4.53645 2.11859,10.4367 1.13447,12.60396 -1.39177,3.06499 -5.59963,6.01925 -11.92676,8.37356 -2.97063,1.10536 -10.34381,2.99366 -12.58075,3.22196 l -1.57446,0.1607 z m -65.42387,-12.01555 c -4.33083,-0.72812 -8.91651,-2.57674 -12.77847,-5.15137 -2.72579,-1.81719 -7.51476,-6.66996 -9.40535,-9.53068 -2.948038,-4.46075 -4.986568,-9.385864 -6.114428,-14.772534 -0.49588,-2.3683 -0.59012,-3.65027 -0.58673,-7.9809 0.006,-7.47567 0.97767,-11.77455 4.09714,-18.12395 3.752518,-7.63791 9.048968,-13.03654 16.229428,-16.542535 4.50244,-2.198402 7.42632,-2.924075 12.46665,-3.094081 2.93185,-0.09889 4.59089,-0.02534 6.35,0.281504 11.45634,1.998352 21.2392,10.208752 25.93364,21.765162 5.19329,12.78444 3.70969,27.41024 -3.9287,38.730554 -1.71706,2.54474 -5.54735,6.50705 -8.20302,8.48575 -2.57513,1.91869 -6.49274,3.94294 -9.39089,4.85232 -4.55024,1.42776 -10.15095,1.8404 -14.66927,1.08076 z m 10.36542,-10.85191 c 0.93207,-0.22155 2.69938,-0.87364 3.92735,-1.44908 6.86372,-3.21645 11.88269,-9.465564 13.98335,-17.410644 1.00654,-3.80693 1.16512,-9.22125 0.38101,-13.00875 -1.82949,-8.83705 -6.69902,-15.52326 -13.94833,-19.15203 -5.79572,-2.90114 -12.79359,-2.98488 -18.68602,-0.22359 -2.76093,1.29381 -4.19894,2.26611 -6.40847,4.33302 -8.38467,7.84344 -10.91996,21.03015 -6.21332,32.31703 1.68377,4.037814 5.16722,8.436784 8.64751,10.920274 3.01861,2.15403 6.87014,3.69763 10.40453,4.1699 1.58331,0.21156 6.13612,-0.0739 7.91239,-0.49613 z M 126.6389,94.387506 c -2.01956,-0.33887 -3.95826,-1.43888 -5.53225,-3.13897 -1.92886,-2.0834 -2.71235,-4.14208 -2.6772,-7.03453 0.0345,-2.83576 0.76223,-4.70156 2.61407,-6.70176 4.1982,-4.53456 10.88167,-4.53456 15.07987,0 1.9079,2.06076 2.59429,3.86891 2.59429,6.83405 0,2.96292 -0.68706,4.77519 -2.58639,6.82217 -1.62731,1.7538 -3.66865,2.87986 -5.87604,3.24138 -1.71704,0.28121 -1.81076,0.28063 -3.61635,-0.0223 z m -47.527077,-3.18008 c -10.43668,-2.73221 -17.73254,-12.95762 -17.73254,-24.8528 0,-11.98826 7.34839,-22.182574 17.94314,-24.892254 3.03207,-0.775472 7.504589,-0.70678 10.500039,0.161268 4.00268,1.159932 7.30924,3.122396 10.14243,6.01961 l 1.411648,1.443545 -1.751198,2.65572 c -0.96317,1.460641 -1.92823,2.802631 -2.14458,2.982191 -0.32807,0.27228 -0.64506,0.0609 -1.90941,-1.27312 -3.7182,-3.923186 -9.00997,-5.765523 -13.951439,-4.85722 -2.36198,0.434161 -5.68267,2.179543 -7.6525,4.02222 -9.28461,8.68529 -7.21821,24.94958 3.87886,30.52983 2.42524,1.21955 4.26826,1.56017 7.543949,1.39425 l 2.71198,-0.13737 0.0158,2.2866 c 0.009,1.25763 0.10723,2.84137 0.219,3.51942 0.2001,1.2138 0.19118,1.23522 -0.57801,1.38906 -1.75122,0.35025 -6.664389,0.12811 -8.647139,-0.39095 z m 90.575517,-2.00626 c 0.0941,-1.11336 0.17102,-2.75047 0.17091,-3.63802 l -2.1e-4,-1.61373 2.47847,0.0905 c 6.36125,0.23223 11.88308,-3.24624 14.85412,-9.35734 4.86481,-10.00637 0.25752,-22.722358 -9.43224,-26.032671 -2.08438,-0.712087 -5.40305,-0.970704 -7.50306,-0.584696 -2.6408,0.485411 -5.79648,2.222952 -8.04843,4.431517 -1.08046,1.05965 -2.06137,1.86675 -2.17979,1.79356 -0.11843,-0.0732 -1.10867,-1.33095 -2.20054,-2.795002 l -1.98521,-2.661923 0.53163,-0.746604 c 1.26496,-1.776474 5.00573,-4.562842 7.8682,-5.86075 4.34079,-1.968204 9.82361,-2.404589 14.21669,-1.131524 6.47218,1.875566 11.41459,6.048448 14.54278,12.278503 1.4134,2.8149 2.17508,5.23754 2.6673,8.48373 0.48097,3.17206 0.47942,4.77186 -0.008,8.00406 -0.61687,4.09246 -2.26697,8.3833 -4.43803,11.54042 -1.42787,2.0764 -4.20999,4.79307 -6.3921,6.24175 -3.88191,2.57715 -7.26587,3.57253 -12.16615,3.57861 l -3.14768,0.004 z M 81.854163,73.070506 c -1.56168,-0.55385 -3.25054,-2.10946 -3.97183,-3.65846 -1.57484,-3.38198 0.006,-7.60578 3.42853,-9.15967 1.34365,-0.61007 4.037549,-0.67509 5.344529,-0.129 2.29417,0.95857 3.94894,2.99226 4.25568,5.23021 0.26178,1.90986 -0.94204,5.21863 -2.33134,6.40781 -1.9052,1.63079 -4.43183,2.12259 -6.725569,1.30911 z m 88.728637,-0.50409 c -1.83455,-0.67362 -2.10015,-1.02151 -3.17386,-4.15714 -0.56135,-1.63938 -1.08547,-3.23967 -1.1647,-3.55619 -0.37462,-1.49651 1.53855,-4.14756 3.70204,-5.12987 1.34365,-0.61007 4.03755,-0.6751 5.34453,-0.12901 1.45295,0.60708 2.73709,1.71603 3.51044,3.03151 0.61707,1.04964 0.71387,1.504 0.70992,3.33204 -0.005,2.51091 -0.55527,3.78446 -2.2661,5.24887 -1.91019,1.63505 -4.48266,2.1601 -6.66227,1.35979 z"
       id="path181" /></g></svg>
