<svg xmlns="http://www.w3.org/2000/svg" width="804.497" height="679.001" viewBox="0 0 212.857 179.652"><path d="M317.273 287.623c-3.411-3.77-2.636-9.54 1.781-13.256 6.923-5.825 14.936-3.102 14.936 5.077 0 8.002-11.698 13.725-16.717 8.179zm24.188-8.044c-.024-2.928-.767-6.626-1.65-8.217-2.068-3.726-8.16-7.735-11.771-7.746-2.334-.004-2.826-.708-2.863-4.079-.024-2.239-.767-5.373-1.65-6.965-1.995-3.594-8.119-7.734-11.459-7.746-1.797-.004-2.557-.91-2.689-3.195-.474-8.209-7.314-15.602-14.434-15.602-2.453 0-3.544-1.175-5.592-6.02-1.895-4.487-3.683-6.562-7.014-8.143-5.07-2.406-10.034-2.717-13.526-.848-3.253 1.741-5.947-2.52-7.457-11.797-.634-3.897-2.387-8.819-3.896-10.938l-2.744-3.853 24.498-24.497 24.497-24.498 3.814 3.209c2.508 2.11 6.081 3.506 10.441 4.079 3.646.478 7.966 1.72 9.6 2.759l2.972 1.89-8.781 8.951c-10.208 10.406-11.568 12.68-11.568 19.349 0 10.963 12.622 18.604 22.297 13.498 1.86-.982 7.03-5.492 11.489-10.021 4.458-4.53 8.714-8.236 9.457-8.236.743 0 13.584 12.313 28.534 27.363 29.583 29.78 30.346 30.966 23.988 37.325-4.71 4.709-8.324 3.168-20.245-8.633-10.172-10.07-10.315-10.157-12.863-7.851-2.567 2.324-2.536 2.372 9.347 14.467 12.542 12.766 13.829 15.473 9.973 20.977-1.397 1.995-3.22 2.784-6.431 2.784-3.964 0-5.837-1.329-16.194-11.485-11.536-11.313-11.75-11.451-14.256-9.184-2.526 2.286-2.468 2.382 8.122 13.204 11.435 11.685 13.221 16.04 8.376 20.424-4.861 4.4-8.87 2.755-19.807-8.125-7.154-7.116-10.86-9.963-12.268-9.423-4.594 1.763-3.613 4.744 4.129 12.556 6.061 6.115 7.69 8.572 7.69 11.602 0 4.386-3.294 7.99-7.302 7.99-2.357 0-2.725-.71-2.764-5.325zm-42.978-8.24c-3.538-3.91-2.578-8.773 2.79-14.141 5.282-5.282 9.103-6.097 13.648-2.914 4.538 3.179 3.742 9.133-1.966 14.707-5.38 5.252-11.015 6.167-14.472 2.348zm-18.912-16.778c-3.384-4.83-2.395-8.403 4.134-14.932s10.101-7.518 14.932-4.134c1.994 1.397 2.784 3.22 2.784 6.428 0 3.617-1.052 5.53-5.472 9.95-4.42 4.42-6.333 5.472-9.95 5.472-3.208 0-5.032-.79-6.428-2.784zm-12.83-16.026c-3.186-1.27-5.405-4.907-5.405-8.86 0-3.665 9.21-12.415 13.067-12.415 4.638 0 8.646 4.014 8.646 8.657 0 2.945-1.158 5.166-4.28 8.212-4.9 4.78-8.126 5.961-12.027 4.406zm118.875-46.686-19.119-19.148 5.452-1.458c2.998-.802 6.812-2.56 8.475-3.906 2.954-2.392 2.97-2.507.71-5.005-2.304-2.545-2.333-2.546-6.86-.12-5.671 3.04-10.823 3.093-16.484.17l-4.384-2.264-12.038 11.66c-9.01 8.729-12.87 11.661-15.345 11.661-4.484 0-8.318-4.115-8.318-8.93 0-3.238 1.904-5.865 10.96-15.121 12.987-13.273 16.32-15.483 25.106-16.653 4.345-.578 7.942-1.988 10.442-4.09l3.813-3.21 24.586 24.586 24.586 24.586-2.846 3.85c-1.565 2.117-3.343 6.9-3.95 10.631-1.125 6.914-3.12 11.91-4.758 11.91-.5 0-9.514-8.617-20.028-19.148zm-149.352-15.32-6.824-6.909 29.722-29.722 29.722-29.722 7.196 7.196 7.196 7.196-29.415 29.436c-16.178 16.19-29.72 29.435-30.094 29.435-.374 0-3.75-3.11-7.503-6.91zm161.612-22.525-29.415-29.436 7.196-7.196 7.196-7.196 29.722 29.722 29.722 29.722-6.824 6.91c-3.753 3.8-7.129 6.91-7.502 6.91-.374 0-13.916-13.247-30.095-29.436z" style="fill:#fff;stroke-width:1.25264" transform="translate(-229.44 -110.176)"/></svg>