<svg xmlns="http://www.w3.org/2000/svg" width="300mm" height="300mm" viewBox="0 0 300 300"><path d="M23.166 297.562c-6.646-2.322-12.642-6.86-16.61-12.573-4.867-7.005-6.124-11.202-6.124-20.445 0-7.571.16-8.336 2.948-14.176 2.86-5.988 4.362-7.589 50.111-53.382l47.163-47.21-46.952-47.056C3.433 52.34 3.236 52.11.822 41.745-2.664 26.76 5.475 10.157 19.754 3.127 24.448.817 26.071.45 32.782.184c8.727-.346 15.36 1.36 21.205 5.455C55.784 6.9 77.96 28.663 103.27 54.004c25.308 25.342 46.262 46.077 46.565 46.077.302 0 21.768-21.205 47.702-47.121 43.802-43.772 47.543-47.307 52.64-49.74 7.033-3.356 17.253-4.186 24.81-2.014 16.485 4.739 27.316 21.821 24.411 38.5-2.05 11.777-.364 9.787-52.693 62.175L198.94 149.7l48.077 48.219c52.41 52.565 50.357 50.146 52.36 61.645 2.569 14.757-5.129 29.496-18.981 36.342-5.234 2.587-6.905 3.009-13.075 3.304-9.29.444-16.315-1.588-22.912-6.627-2.576-1.968-23.836-22.767-47.245-46.22-23.41-23.453-43.675-43.708-45.036-45.01l-2.473-2.368-47.801 47.65c-44.732 44.592-48.135 47.798-53.003 49.946-7.353 3.244-18.04 3.652-25.685.981z" style="fill:#fff;stroke-width:.80031"/></svg>