<svg xmlns="http://www.w3.org/2000/svg" width="1000mm" height="1000mm" viewBox="0 0 1000 1000"><path d="M478.234 866.456a3.768 3.768 0 0 1 1.191 0c.327.063.06.115-.595.115s-.923-.052-.596-.115zm4.234 0a3.768 3.768 0 0 1 1.19 0c.328.063.06.115-.595.115s-.923-.052-.595-.115zm-7.673-.253c.182-.074.48-.074.661 0 .182.073.033.133-.33.133-.364 0-.513-.06-.331-.133zm11.377 0c.182-.074.48-.074.661 0 .182.073.033.133-.33.133-.364 0-.513-.06-.331-.133zm-13.213-.27c.191-.077.42-.067.507.02.088.089-.068.151-.347.14-.308-.013-.37-.076-.16-.16zm-1.587-.265c.19-.076.419-.067.507.021.088.088-.069.15-.347.14-.309-.014-.371-.076-.16-.16zm20.373-.264c.19-.077.419-.067.507.02.088.088-.069.151-.347.14-.309-.013-.371-.076-.16-.16zm-13.114-109.82c1.71-.045 4.508-.045 6.218 0 1.71.047.31.085-3.109.085-3.42 0-4.819-.038-3.109-.084zm-8.466-.249c.254-.066.67-.066.926 0 .254.067.046.121-.463.121-.51 0-.718-.054-.463-.12zm22.88-.008c.47-.058 1.303-.06 1.852-.003.55.058.165.105-.854.107-1.018 0-1.468-.046-.998-.105zm-26.585-.256c.255-.066.672-.066.926 0 .255.067.047.121-.463.121-.509 0-.717-.054-.463-.12zm31.75 0c.255-.066.672-.066.926 0 .255.067.047.121-.463.121-.509 0-.717-.054-.463-.12zm-35.184-.265c.257-.067.614-.063.794.01.179.072-.032.127-.468.122-.437-.005-.584-.065-.326-.132zm38.364 0c.258-.067.615-.063.794.01.18.072-.031.127-.468.122-.436-.005-.583-.065-.326-.132zm-41.275-.265c.258-.067.615-.063.794.01.18.073-.031.128-.468.122-.436-.005-.583-.065-.326-.132zm44.049.008c.181-.073.48-.073.661 0 .182.074.033.134-.33.134-.365 0-.513-.06-.331-.134zm-46.567-.264c.182-.074.48-.074.661 0 .182.073.033.133-.33.133-.364 0-.513-.06-.331-.133zm48.948 0c.182-.074.48-.074.661 0 .182.073.033.133-.33.133-.364 0-.513-.06-.331-.133zm-51.048-.27c.19-.077.419-.067.507.02.088.088-.069.15-.347.14-.309-.013-.371-.076-.16-.16zm53.429.006c.182-.074.48-.074.661 0 .182.073.034.133-.33.133s-.513-.06-.331-.134zm-55.546-.27c.191-.077.42-.068.507.02.088.088-.068.15-.347.14-.308-.013-.371-.076-.16-.16zm57.944 0c.19-.077.419-.068.507.02.088.088-.068.15-.347.14-.309-.013-.371-.076-.16-.16zm-59.796-.265c.191-.077.42-.067.507.02.088.089-.068.151-.347.14-.308-.013-.371-.076-.16-.16zm61.648 0c.19-.077.42-.067.507.02.088.089-.068.151-.347.14-.308-.013-.371-.076-.16-.16zm-63.5-.265c.19-.076.42-.067.507.021.088.088-.068.15-.347.14-.308-.014-.371-.076-.16-.16zm65.087 0c.191-.076.42-.067.508.021.087.088-.069.15-.348.14-.308-.014-.37-.076-.16-.16zm-66.675-.264c.191-.077.42-.067.508.02.087.088-.069.151-.348.14-.308-.013-.37-.076-.16-.16zm68.527 0c.191-.077.42-.067.508.02.087.088-.069.151-.348.14-.308-.013-.37-.076-.16-.16zm-70.114-.265c.19-.076.42-.067.507.021.088.088-.068.15-.347.139-.308-.013-.371-.075-.16-.16zm-1.588-.265c.191-.076.42-.067.508.021.087.088-.069.15-.348.14-.308-.013-.37-.076-.16-.16zm79.375-.793c.191-.077.42-.067.508.02.087.089-.069.151-.348.14-.308-.013-.37-.076-.16-.16zm1.323-.265c.191-.076.42-.067.507.021.088.088-.068.15-.347.139-.308-.013-.37-.075-.16-.16zm-315.896-33.356c-.33-.42-.32-.429.1-.1.44.346.58.563.363.563-.055 0-.264-.208-.463-.463zm-1.323-1.058c-.33-.42-.32-.43.1-.1.44.345.58.563.363.563-.055 0-.264-.209-.463-.463zm545.34.098c0-.055.208-.263.463-.463.42-.329.429-.32.1.1-.346.44-.563.58-.563.363zm-548.49-3.009-1.711-1.786 1.786 1.712c.982.942 1.786 1.746 1.786 1.786 0 .195-.27-.053-1.86-1.712zm551.918-.132c.649-.691 1.215-1.257 1.257-1.257.199 0-.011.238-1.18 1.334l-1.256 1.18zm2.393-2.68c0-.055.208-.263.463-.463.42-.329.429-.32.1.1-.346.44-.563.581-.563.363zm-557.511-.627c-.33-.42-.32-.43.1-.1.44.345.58.563.363.563-.055 0-.264-.209-.463-.463zm146.843-1.059c-.329-.42-.32-.429.1-.1.255.2.463.409.463.463 0 .218-.217.078-.562-.363zm-1.322-1.058c-.33-.42-.32-.429.1-.1.44.346.58.563.363.563-.055 0-.264-.208-.463-.463zm-1.323-1.058c-.33-.42-.32-.43.1-.1.44.345.58.563.363.563-.055 0-.264-.209-.463-.463zm272.29.363c0-.055.208-.264.463-.463.42-.33.429-.32.1.1-.346.44-.563.58-.563.363zm-273.878-1.686c-.329-.42-.32-.43.1-.1.44.345.58.563.363.563-.055 0-.263-.209-.463-.463zm275.465.363c0-.055.209-.263.463-.463.42-.33.43-.32.1.1-.346.44-.563.58-.563.363zm-277.052-1.686c-.33-.42-.32-.43.1-.1.44.346.58.563.363.563-.055 0-.264-.209-.463-.463zm-1.852-1.588c-.33-.42-.32-.429.1-.1.254.2.463.408.463.463 0 .218-.218.078-.563-.363zm-145.982-3.482c-1.898-3.997-3.082-7.597-4.097-12.459-1.142-5.468-1.097.587-1.097-148.431V396.875l.599-3.307c1.193-6.588 2.46-10.62 4.947-15.743 3.29-6.778 8.312-12.888 14.927-18.16 3.687-2.939 6.722-4.775 30.327-18.344 4.366-2.51 14.248-8.192 21.96-12.628a230766.05 230766.05 0 0 1 69.321-39.853 41461.43 41461.43 0 0 0 35.984-20.684c5.384-3.1 16.1-9.265 23.812-13.702 7.713-4.437 16.226-9.343 18.918-10.9 2.692-1.559 11.8-6.829 20.24-11.711 8.44-4.883 16.775-9.731 18.521-10.775 17.447-10.426 35.007-12.181 52.512-5.249 4.302 1.704 10.337 5.09 56.371 31.623 26.263 15.137 79.004 45.53 117.204 67.54 38.199 22.009 70.286 40.554 71.305 41.212 7.265 4.687 12.985 10.384 17.67 17.597.545.838.892 1.492.773 1.455-.201-.062-93.526 53.541-95.062 54.6-.45.311-.687.364-.694.155-.015-.468-3.44-5.983-7.134-11.492-15.804-23.568-36.435-44.159-59.943-59.828-21.859-14.57-45.922-24.906-71.775-30.83-16.021-3.673-30.596-5.276-48.022-5.284-12.82-.006-21.613.65-33.602 2.504-31.808 4.921-62.289 17.027-89.032 35.36-19.351 13.267-37.22 30.463-51.262 49.33-22.719 30.53-36.931 66.128-41.328 103.52-1.017 8.647-1.226 11.805-1.386 20.913-.574 32.593 5.383 62.657 18.299 92.34 1.764 4.053 6.913 14.378 8.785 17.616.722 1.25 1.186 2.276 1.03 2.282-.222.01-93.556 53.632-96.883 55.662l-.82.5zm430.575 1.829c.263-.291.538-.53.61-.53.074 0-.082.239-.346.53-.263.29-.538.529-.61.529-.074 0 .082-.238.346-.53zm-286.834-.331-.504-.595.596.504c.327.277.595.545.595.595 0 .212-.213.055-.687-.504zm-2.381-2.117-.504-.595.595.504c.56.474.716.687.504.687-.05 0-.318-.268-.595-.596zm291.86.066c.264-.29.539-.529.612-.529.073 0-.083.238-.347.53-.263.29-.538.529-.611.529-.073 0 .083-.239.347-.53zm-298.717-6.68-4.23-4.3 4.3 4.23c3.993 3.93 4.418 4.37 4.23 4.37-.039 0-1.974-1.936-4.3-4.3zm306.258-.596c2.398-2.4 4.42-4.365 4.492-4.365.073 0-1.83 1.964-4.227 4.365-2.398 2.401-4.42 4.366-4.492 4.366-.073 0 1.83-1.965 4.227-4.366zm134.959-3.461c.012-.309.075-.371.16-.16.076.19.066.419-.021.507-.088.088-.151-.068-.14-.347zm.264-1.323c.013-.308.076-.371.16-.16.076.19.067.42-.02.507-.089.088-.151-.068-.14-.347zm-448.11-1.5-.776-.86.86.778c.801.724.981.942.777.942-.046 0-.433-.387-.86-.86zm448.375.177c.012-.308.075-.371.16-.16.076.191.067.42-.021.507-.088.088-.15-.068-.14-.347zm-128.741-.904c.263-.291.538-.53.611-.53.073 0-.083.239-.346.53-.264.29-.539.529-.612.529-.072 0 .084-.238.347-.53zm129.005-.684c.013-.308.076-.37.16-.16.077.192.067.42-.02.508-.089.088-.151-.069-.14-.348zm-451.293-1.499-.504-.595.596.504c.56.473.715.686.504.686-.05 0-.318-.268-.596-.595zm324.405-.198c.263-.291.538-.53.61-.53.074 0-.082.239-.346.53-.263.29-.538.529-.61.529-.074 0 .082-.238.346-.53zm127.174-.265c0-.364.06-.513.133-.33.074.181.074.479 0 .66-.073.183-.133.034-.133-.33zm-453.572-1.786c-.329-.42-.32-.429.1-.1.255.2.463.408.463.463 0 .218-.217.078-.563-.363zm328.118.099c0-.055.208-.264.463-.463.42-.33.429-.32.1.1-.346.44-.564.58-.564.363zm125.738-1.223c0-.51.054-.718.121-.463.067.254.067.67 0 .926-.067.254-.121.046-.121-.463zm-455.443-.728c-.33-.42-.32-.429.1-.1.254.2.463.408.463.463 0 .218-.217.078-.563-.363zm331.027.363c0-.055.209-.263.463-.463.42-.329.43-.32.1.1-.345.44-.563.581-.563.363zm2.646-3.175c0-.055.209-.263.463-.463.42-.329.43-.32.1.1-.345.44-.563.581-.563.363zm-171.773-28.934a13.098 13.098 0 0 1 2.116.003c.542.057.033.103-1.131.102-1.164 0-1.608-.047-.985-.103zm5.813 0c.619-.055 1.63-.055 2.25 0 .618.056.112.102-1.125.102s-1.743-.046-1.125-.102zm-10.446-.254c.258-.067.615-.062.794.01.18.073-.031.128-.468.122-.437-.005-.583-.064-.326-.132zm16.67 0c.257-.067.614-.062.793.01.179.073-.032.128-.468.122-.437-.005-.583-.064-.326-.132zm-19.58-.264c.257-.067.615-.063.794.01.179.072-.032.127-.468.122-.437-.005-.583-.065-.326-.132zm22.352.008c.182-.074.48-.074.662 0 .182.073.033.133-.331.133s-.513-.06-.33-.133zm-24.325-.27c.191-.077.42-.067.507.02.088.088-.068.151-.347.14-.308-.013-.371-.076-.16-.16zm26.706.006c.182-.074.48-.074.662 0 .182.073.033.133-.33.133-.365 0-.513-.06-.332-.133zm-28.823-.27c.191-.077.42-.068.508.02.087.088-.069.15-.348.14-.308-.013-.37-.076-.16-.16zm-1.852-.265c.191-.076.42-.067.507.02.088.089-.068.151-.347.14-.308-.013-.37-.076-.16-.16zm-1.587-.265c.19-.076.419-.067.507.021.088.088-.068.15-.347.14-.309-.013-.371-.076-.16-.16zm39.158-.264c.191-.077.42-.067.507.02.088.089-.068.151-.347.14-.308-.013-.37-.076-.16-.16zm-87.297-21.45c-.329-.419-.32-.428.1-.1.441.347.581.564.364.564-.055 0-.264-.209-.463-.463zm134.707-.43c0-.055.209-.263.463-.463.42-.329.43-.32.1.1-.346.44-.563.58-.563.363zm-137.882-2.215c-.329-.42-.32-.43.1-.1.255.2.463.408.463.463 0 .218-.217.078-.562-.363zm141.057-.43c0-.056.209-.264.463-.464.42-.329.43-.32.1.1-.346.44-.563.581-.563.363zm-143.288-1.554-.777-.86.86.777c.801.724.98.942.777.942-.046 0-.433-.386-.86-.86zm148.844-3.77c1.67-1.674 3.094-3.043 3.167-3.043.073 0-1.233 1.369-2.902 3.042-1.669 1.674-3.094 3.043-3.166 3.043-.073 0 1.233-1.37 2.901-3.043zm-156.124-3.506-.641-.728.727.641c.4.353.728.68.728.728 0 .207-.214.039-.814-.641zm160.755-1.39c.263-.29.538-.529.61-.529.074 0-.082.238-.346.53-.263.29-.538.529-.611.529-.073 0 .083-.238.347-.53zm-162.885-.992c-.33-.42-.32-.429.1-.1.44.346.58.563.363.563-.055 0-.263-.208-.463-.463zm-1.588-1.852c-.329-.42-.32-.429.1-.1.441.346.581.563.363.563-.055 0-.263-.208-.463-.463zm166.986-.166c0-.055.209-.263.463-.463.42-.329.43-.32.1.1-.346.44-.563.58-.563.363zm68.651-22.919c0-8.513.034-11.995.075-7.739.04 4.257.04 11.222 0 15.478-.041 4.257-.075.774-.075-7.739zm15.346 0c0-8.513.033-11.995.074-7.739.041 4.257.041 11.222 0 15.478-.04 4.257-.074.774-.074-7.739zm30.692 0c0-8.513.033-11.995.074-7.739.04 4.257.04 11.222 0 15.478-.04 4.257-.074.774-.074-7.739zm15.346 0c0-8.513.033-11.995.074-7.739.04 4.257.04 11.222 0 15.478-.04 4.257-.074.774-.074-7.739zm-309.075 4.542c-6.465-12.273-10.37-25.46-11.767-39.731-.523-5.342-.45-18.447.127-22.887 1.234-9.497 3.54-18.542 6.846-26.855 13.302-33.444 42.539-58.21 77.604-65.738 21.296-4.572 43.96-2.587 63.536 5.564 14.042 5.848 25.505 13.575 35.974 24.252 5.316 5.422 9.115 10.083 13.212 16.21 2.283 3.414 2.93 4.568 2.69 4.786-.175.159-21.333 12.38-47.017 27.159a970327.743 970327.743 0 0 0-139.441 80.244c-.076.046-.87-1.306-1.764-3.004zm216.993-27.56c0-4.293.036-6.05.08-3.903a228.7 228.7 0 0 1 0 7.805c-.044 2.147-.08.39-.08-3.902zm30.698-23.02c0-8.512.034-11.995.075-7.738.04 4.256.04 11.221 0 15.478-.041 4.256-.075.774-.075-7.74zm15.346 0c0-8.512.033-11.995.074-7.738.041 4.256.041 11.221 0 15.478-.04 4.256-.074.774-.074-7.74zm30.692 0c0-8.512.033-11.995.074-7.738.04 4.256.04 11.221 0 15.478-.04 4.256-.074.774-.074-7.74zm15.345-.131c0-8.44.034-11.932.075-7.758.04 4.173.04 11.079 0 15.345-.041 4.267-.074.853-.074-7.587zM604.04 515.21l-.062-7.871H634.665l.068-15.28.069-15.28 7.739-.07 7.739-.07v30.7h30.422l.069-15.28.068-15.28 7.74-.07 7.738-.07v30.695l15.28.072 15.28.071-15.346-.003-15.346-.003-.068-15.28-.069-15.279h-15.077v30.696l-15.412-.068-15.412-.069-.068-15.28-.068-15.279h-15.077v30.692H604.25l-.074 7.739-.074 7.739-.062-7.872zm168.264-115.954c.005-.436.065-.583.132-.325.067.257.063.614-.01.793-.073.18-.127-.031-.122-.468zm-.264-2.91c.005-.437.064-.583.131-.326.067.258.063.615-.01.794-.072.179-.127-.032-.122-.468zm-.296-2.139c.013-.308.076-.37.16-.16.077.191.067.42-.02.507-.089.088-.151-.068-.14-.347zm-.264-1.587c.012-.309.075-.371.16-.16.076.19.067.419-.021.507-.088.088-.15-.068-.14-.347z" style="fill:#9f77da;stroke-width:.264583" transform="matrix(1.45708 0 0 1.49238 -199.31 -305.967)"/><path d="M480.351 866.456a3.768 3.768 0 0 1 1.19 0c.328.063.06.115-.595.115s-.922-.052-.595-.115zm-4.498-.253c.182-.074.48-.074.662 0 .181.073.033.133-.331.133s-.513-.06-.33-.133zm12.187-.27c.191-.077.42-.067.508.02.087.089-.069.151-.348.14-.308-.013-.37-.076-.16-.16zM474.398 755.6c.255-.067.671-.067.926 0 .255.066.046.12-.463.12-.51 0-.718-.053-.463-.12zm13.89-.004a3.768 3.768 0 0 1 1.191 0c.328.063.06.115-.595.115s-.923-.052-.595-.115zm-19.033-.259c.191-.076.42-.067.507.021.088.088-.068.15-.347.14-.308-.014-.371-.076-.16-.16zm26.723 0c.191-.076.42-.067.507.021.088.088-.068.15-.347.14-.308-.014-.371-.076-.16-.16zm-30.427-.264c.19-.077.42-.067.507.02.088.089-.068.151-.347.14-.308-.013-.371-.076-.16-.16zm34.131 0c.191-.077.42-.067.507.02.088.089-.068.151-.347.14-.308-.013-.37-.076-.16-.16zm2.91-.265c.192-.076.42-.067.508.021.088.088-.069.15-.348.139-.308-.013-.37-.075-.16-.16zm-294.994-38.647c-.33-.42-.32-.43.1-.1.44.346.58.563.363.563-.055 0-.263-.208-.463-.463zm546.928.098c0-.054.208-.263.463-.463.42-.329.429-.32.1.1-.346.441-.564.581-.564.363zm4.233-4.233c0-.055.208-.263.463-.463.42-.329.429-.32.1.1-.346.44-.563.58-.563.363zm-555.923-.628c-.33-.42-.32-.429.1-.1.44.346.58.563.363.563-.055 0-.264-.208-.463-.463zm421.78-8.632c0-.055.207-.264.462-.463.42-.33.43-.32.1.1-.346.44-.563.58-.563.363zm-284.726-.628c-.33-.42-.32-.429.1-.1.44.346.58.563.363.563-.055 0-.264-.208-.463-.463zm378.255-27.081c-26.048-15.106-47.503-27.417-47.677-27.359-.175.06-.267-.035-.205-.21.112-.317-93.212-54.557-93.87-54.557-.18 0-.46-.119-.62-.264-.162-.146-21.265-12.407-46.898-27.247-25.633-14.84-46.606-27.052-46.606-27.136 0-.147 41.642-24.154 139.039-80.158 24.884-14.309 46.375-26.694 47.757-27.523 1.383-.83 23.35-13.502 48.816-28.162 25.466-14.66 46.56-26.817 46.876-27.016.544-.343.619-.284 1.402 1.103 1.969 3.488 4.252 10.089 5.163 14.923 1.239 6.578 1.19.441 1.191 147.638 0 95.481-.085 139.185-.279 141.287-.401 4.35-1.437 9.386-2.747 13.361-1.113 3.379-3.287 8.398-3.747 8.654-.129.072-21.546-12.229-47.595-27.334zm-67.865-90.725v-15.346h30.427v30.692h15.61v-30.692h30.692V553.641h-30.692v-30.692h30.692v-15.61h-30.692v-30.7l-7.739.07-7.739.07-.068 15.28-.069 15.28H650.28v-30.7l-7.74.07-7.738.07-.069 15.28-.068 15.28H603.978v15.61H634.669V553.64H603.978v15.346H634.669v30.692h15.611zm0-46.037v-15.346h30.427v30.692H650.28zM627.393 700.22c.264-.291.539-.53.611-.53.073 0-.083.239-.346.53-.264.29-.539.529-.611.529-.073 0 .083-.238.346-.53zm-289.885-.199c-.329-.42-.32-.429.1-.1.441.346.581.563.363.563-.054 0-.263-.208-.463-.463zm-2.896-2.646-.642-.727.728.641c.68.6.849.814.641.814-.047 0-.374-.327-.727-.728zm295.56.38c0-.045.386-.432.86-.86l.86-.776-.778.86c-.724.801-.943.981-.943.777zm-305.223-10.037-.504-.595.596.504c.559.474.715.686.504.686-.05 0-.318-.267-.596-.595zm316.07-.86c.342-.364.681-.661.754-.661.073 0-.147.297-.49.661-.34.364-.68.662-.753.662-.073 0 .147-.298.49-.662zm-319.121-2.447c-.33-.42-.32-.43.1-.1.44.346.58.563.363.563-.055 0-.263-.208-.463-.463zm321.502-.166c0-.055.209-.263.464-.463.42-.33.429-.32.1.1-.346.44-.564.58-.564.363zm-323.883-2.48c-.33-.42-.32-.429.1-.1.254.2.463.408.463.463 0 .218-.218.078-.563-.363zm326 .099c0-.055.209-.264.463-.463.42-.33.43-.32.1.1-.346.44-.563.58-.563.363zm-163.31-35.013c.328-.063.805-.06 1.058.005.252.067-.017.118-.599.115-.582-.003-.789-.057-.46-.12zm-6.867-.258c.191-.076.42-.067.508.021.088.088-.069.15-.348.14-.308-.014-.37-.076-.16-.16zm14.271.006c.182-.073.48-.073.662 0 .182.074.033.134-.33.134-.365 0-.513-.06-.332-.134zm3.192-.27c.191-.076.42-.067.507.021.088.088-.068.15-.347.139-.308-.013-.371-.075-.16-.16zm-79.36-24.624c-.328-.42-.319-.429.1-.1.441.346.582.563.364.563-.055 0-.263-.208-.463-.463zm138.94-.43c0-.055.21-.264.464-.464.42-.329.429-.32.1.1-.346.441-.563.581-.563.363zm1.853-1.588c0-.055.208-.263.463-.463.42-.33.429-.32.1.1-.346.44-.563.58-.563.363zm-145.93-2.612-1.046-1.125 1.124 1.046c1.046.973 1.246 1.203 1.046 1.203-.043 0-.549-.506-1.124-1.124zm-3.838-3.837-.912-.992.992.912c.546.502.992.948.992.992 0 .202-.224.012-1.072-.912z" style="fill:#380090;stroke-width:.264583" transform="matrix(1.45708 0 0 1.49238 -199.31 -305.967)"/><path d="M474.86 866.086c-3.123-.352-7.989-1.51-11.755-2.797-5.104-1.745-10.165-4.242-18.142-8.95-4.703-2.778-41.913-24.331-46.964-27.204-1.018-.58-7.329-4.21-14.022-8.068a56720.952 56720.952 0 0 0-51.33-29.55 77739.848 77739.848 0 0 1-41.54-23.888 75208.323 75208.323 0 0 0-35.189-20.244 9207.548 9207.548 0 0 1-15.213-8.773 5105.484 5105.484 0 0 0-14.023-8.077c-12.696-7.273-15.66-9.272-20.586-13.879-3.809-3.561-9.692-11.555-8.983-12.205.183-.168 10.334-6.055 22.557-13.082 12.224-7.028 33.988-19.55 48.364-27.827 14.376-8.278 26.233-14.992 26.348-14.92.115.07 1.15 1.711 2.3 3.646 5.682 9.556 14.222 21.46 21.125 29.447 21.827 25.252 46.829 43.942 76.89 57.48 18.638 8.394 40.592 14.495 61.114 16.985 9.935 1.205 14.697 1.462 26.855 1.45 11.755-.012 15.354-.189 24.182-1.188 38.859-4.398 74.85-18.724 106.18-42.262 21.555-16.194 41.353-38.036 54.85-60.511 1.136-1.892 2.211-3.6 2.39-3.797.267-.294 8.693 4.487 47.516 26.96 25.956 15.024 47.346 27.457 47.533 27.628.273.25-.08.942-1.766 3.468-3.867 5.79-8.74 10.639-14.979 14.902-2.56 1.75-21.336 12.622-88.238 51.09-31.46 18.09-70.564 40.612-123.031 70.86-14.77 8.515-28.586 16.33-30.7 17.366-3.995 1.957-9.61 3.997-13.486 4.897-5.24 1.218-12.846 1.652-18.256 1.043zm-1.19-219.609c-20.743-1.96-39.117-8.933-55.298-20.99-9.225-6.874-18.525-16.57-24.752-25.809-2.332-3.46-4.716-7.546-4.518-7.744.112-.112 10.613-6.193 23.336-13.514 12.723-7.32 33.547-19.303 46.275-26.63 12.73-7.325 23.266-13.315 23.416-13.31.213.007 93.4 53.873 93.76 54.198.257.23-.551 1.633-3.396 5.89-10.633 15.909-24.273 28.062-41.011 36.541-12.559 6.363-24.982 9.96-38.877 11.259-4.677.437-14.847.496-18.935.11z" style="fill:#270067;stroke-width:.264583" transform="matrix(1.45708 0 0 1.49238 -199.31 -305.967)"/></svg>