<svg xmlns="http://www.w3.org/2000/svg" width="1000mm" height="1000mm" viewBox="0 0 1000 1000"><path d="M490.748 991.878c-7.92-1.249-16.891-3.984-22.55-6.874-11.687-5.97-368.586-212.64-372.781-215.867-12.87-9.901-23.598-25.159-28.45-40.46-4.025-12.693-3.833-1.119-3.833-231.756 0-208.014.06-216.894 1.515-223.174 4.76-20.549 18.378-41.069 34.045-51.302 2.473-1.616 75.68-44.031 162.68-94.257C348.375 77.96 429.996 30.83 442.754 23.452 471.12 7.047 470.571 7.328 479.12 4.85c10.661-3.09 22.442-4.16 32.869-2.987 9.304 1.047 20.477 3.948 25.938 6.734 1.867.952 24.556 13.956 50.42 28.898 25.865 14.942 107.725 62.208 181.912 105.036 74.187 42.828 136.556 79.088 138.599 80.577 4.656 3.394 16.77 15.916 20.124 20.8 5.699 8.302 10.69 19.71 13.056 29.839 1.472 6.3 1.528 14.519 1.528 224.4v217.86l-2.174 7.863c-2.505 9.06-6.534 18.188-11.034 24.993-3.812 5.766-13.56 16.122-19.339 20.545-4.16 3.185-362.972 210.757-373.271 215.938-8.403 4.226-19.197 6.615-31.537 6.98-5.845.173-12.803-.028-15.463-.448zm52.659-203.89c13.78-1.933 21.946-3.502 34.532-6.634 71.93-17.902 132.693-62.675 173.265-127.67 3.409-5.46 5.502-9.598 5.072-10.025-.797-.794-123.217-71.78-124.906-72.428-.597-.23-2.348 1.6-4.152 4.338-12.206 18.529-30.289 36.47-47.88 47.503-7.42 4.654-22.788 11.908-30.618 14.451-28.571 9.284-60.33 9.127-89.514-.44-10.45-3.426-26.23-11.078-35.85-17.384-38.636-25.323-62.526-65.942-66.205-112.56-1.891-23.959 4.118-52.264 16.305-76.8 9.008-18.138 20.596-33.091 34.94-45.088 20.352-17.022 41.872-27.41 67.733-32.693 11.839-2.42 35.3-3.012 47.658-1.205 42.965 6.283 78.604 29.343 103.423 66.919 2.245 3.399 3.492 4.595 4.42 4.24 2.23-.855 123.035-70.863 124.284-72.025 1.026-.953.106-2.705-6.718-12.796-51.13-75.613-124.31-121.427-210.694-131.906-14.662-1.779-49.147-2.008-62.538-.416-28.069 3.338-51.344 8.765-74.548 17.384-92.758 34.455-160.24 108.589-182.918 200.949-6.038 24.588-8.173 43.112-8.11 70.357.085 35.844 5.479 68.372 16.79 101.249 29.656 86.192 99.002 153.017 187.475 180.658 22.768 7.113 41.605 10.823 68.668 13.522 8.288.827 51.115-.243 60.086-1.5zM701.234 573.15c.028-.112 1.04-9.401 2.248-20.641l2.196-20.438 13.692-.224 13.693-.224v1.944c0 1.953-2.857 29.815-3.724 36.313l-.463 3.474h24.333l1.819-18.189c1-10.004 2.027-19.384 2.28-20.845l.462-2.657h22.707v-22.89H770.26c-9.193 0-10.217-.144-10.204-1.43.008-.787.737-8.053 1.62-16.146.883-8.093 1.612-15.174 1.62-15.736.012-.772 3.02-1.022 12.278-1.022h12.262v-22.89H765.577l.486-3.474c.268-1.911 1.045-9.176 1.727-16.146.683-6.969 1.442-13.866 1.688-15.327l.446-2.657H758.05c-11.657 0-11.882.034-12.256 1.84-.21 1.01-.965 7.724-1.678 14.918-.713 7.194-1.515 14.827-1.783 16.963l-.487 3.883h-13.792c-13.762 0-13.792-.004-13.779-1.84.007-1.01.742-8.644 1.633-16.962s1.62-15.951 1.622-16.963c.002-1.822-.108-1.84-11.719-1.84h-11.72l-1.378 13.285c-.758 7.306-1.607 15.767-1.886 18.802l-.508 5.518h-23.471v22.89H687.284v2.491c0 2.272-1.816 19.936-2.917 28.369l-.453 3.474h-23.607v22.89h10.627c5.845 0 10.628.162 10.628.36 0 .199-.92 8.936-2.044 19.416s-2.043 19.698-2.043 20.485c0 1.297 1.109 1.43 11.853 1.43 6.52 0 11.877-.092 11.906-.204zm7.305-66.979c0-3.02 2.358-27.115 2.925-29.893.371-1.818.535-1.84 13.8-1.84 7.384 0 13.59.277 13.792.614.202.337-.42 7.97-1.382 16.963l-1.75 16.35-13.692.223-13.693.225z" style="fill:#fff;stroke-width:.817486"/></svg>