<svg xmlns="http://www.w3.org/2000/svg" width="300mm" height="300mm" viewBox="0 0 300 300"><path d="M345.329 206.697c-1208.335-976.687-604.167-488.343 0 0zM3.33 269.317C1.282 267.86.837 246.17 1.26 168.4l.538-99.06h61.066c53.488 0 62.863.502 75.555 4.046 14.91 4.164 30.873 11.495 40.892 18.78l5.702 4.144 11.633-5.865c15.086-7.607 30.788-9.028 43.775-3.962 22.102 8.621 33.76 24.246 33.858 45.381.127 27.314-17.334 45.55-48.401 50.552-5.46.879-7.764 2.329-7.765 4.887-.003 5.568-11.504 29.381-18.566 38.437-12.457 15.975-34.4 30.147-60.34 38.97-11.86 4.033-19.332 4.592-73.238 5.479-33.017.543-61.204.152-62.64-.87zm94.064-36.857c27.369-2.469 42.545-7.8 55.404-19.466 26.383-23.934 26.59-66.117.433-87.946-18.919-15.789-36.662-20.418-78.464-20.473l-28.463-.04-.46 33.6c-.476 34.598.482 92.486 1.562 94.43 1.135 2.044 26.74 1.989 49.988-.108zM279.18 92.313c-12.16-2.981-15.621-18.165-5.931-26.02 3-2.432 7.531-4.421 10.07-4.421 2.54 0 7.072 1.99 10.071 4.421 12.78 10.36 2.05 30.006-14.21 26.02z" style="fill:#c83737;stroke-width:2.10144"/></svg>