<svg xmlns="http://www.w3.org/2000/svg" width="2014.559" height="2027.184" viewBox="0 0 533.019 536.359"><path d="m45.591-2004.511-.22-.225-.22-.226-43.64-43.43-43.638-43.432-2.603-2.677-2.602-2.677-1.67-2.085-1.671-2.086-1.71-2.38-1.71-2.382-1.99-3.175-1.99-3.175-1.247-2.184-1.247-2.184-2.09-4.178-2.091-4.179-1.226-2.87-1.226-2.869-1.012-2.542-1.013-2.542-1.198-3.483-1.198-3.483-.699-2.564-.698-2.565.127-.127.127-.127 1.94.67 1.939.672 4.233 1.492 4.233 1.493 2.91 1.014c88.03 30.834 167.858 59.326 259.068 91.309 26.228-11.625 43.874-19.442 68.163-30.209l.456-.382-.225.613-12.076 37.659-12.076 37.658-.302 1.128-.301 1.127c-66.536-.102-133.071-.254-199.607-.397zm225.421-78.058-.834.27.405-.701.192-.621.466-.927.466-.926c9.786-22.183 20.407-46.041 28.988-65.519l-.698-2.033c-29.374-82.718-59.169-168.728-85.242-241.745l-1.231-3.44-1.15-3.307-1.151-3.308-1.363-3.836-1.364-3.837-.485-1.455-.485-1.455-1.717-4.762-1.718-4.763-.201-.493-.202-.493.88.194.879.193 3.989 1.255 3.99 1.254 3.042 1.119 3.042 1.118 3.44 1.46 3.44 1.46 3.572 1.749 3.571 1.748 3.043 1.698 3.043 1.698 3.143 1.97 3.143 1.968 2.413 1.734 2.413 1.734 2.514 2.007 2.513 2.007 9.77 9.8 9.77 9.8 34.781 34.839 34.781 34.839-.117 102.01-.118 102.011-.142.143-.143.143-15.848 5.053-15.848 5.054-20.505 6.551-20.506 6.552z" style="fill:#fff;stroke-width:.264583" transform="translate(188.159 2540.473)"/><path d="m201.442-2051.755-.188-.016c-85.691-30.463-171.621-60.255-257.307-90.733l-3.836-1.364-4.498-1.573-4.498-1.574-1.985-.677-1.984-.677-.3-.302-.301-.302-.94-3.97-.938-3.968-.15-1.058-.15-1.059-.155-1.72-.157-1.72-.247-2.91-.247-2.91-.263-130.037-.263-130.037.15-.39.15-.39L96.755-2255.72 270.178-2082.3v.397h-.49l-7.097 3.146-7.097 3.146-7.012 3.095-7.011 3.095-2.249 1.016-2.249 1.015-8.202 3.614-8.202 3.615-2.25 1.01-2.248 1.01-7.22 3.2-7.221 3.2-.188-.015zm1.598-374.395-.463-.025-2.513-.624c-7.26-1.842-15.473-1.993-21.752-2.24l-6.538-.26H-76.515l7.255-4.805c49.189-32.635 101.333-66.934 143.911-95.296l10.187-6.789 1.702-1.19 1.702-1.192 1.473-.554 1.473-.555 1.852-.397 1.852-.396 3.704.135 3.704.136 1.984.438 1.985.438 1.984.656 1.985.656 3.968 1.968 3.97 1.967 2.49 1.788 2.49 1.788 2.14 1.88 2.14 1.88 22.886 22.721 22.886 22.72 8.467 8.395 8.467 8.395 1.498 4.311c3.23 9.2 6.44 18.407 9.707 27.594l1.317 3.704.42 1.158.42 1.158v.462l-.464-.025z" style="fill:#cecece;stroke-width:.264583" transform="translate(188.159 2540.473)"/><path d="M270.218-2082.43h-.172L96.612-2255.866-76.823-2429.3l124.354.001h124.355l6.35.258 6.35.257 2.645.144 2.646.143.794.114.794.113 2.38.293 2.382.293 3.427.788 3.426.787.317-.121.316-.122.131.577.132.576 1.775 4.895 1.775 4.895.485 1.455.485 1.455c29.786 84.397 59.532 168.808 89.31 253.206l1.493 4.234.698 2.033.698 2.033-1.26 2.862-1.26 2.861-.86 1.985-.86 1.984-.544 1.19-.546 1.191-1.055 2.382-1.055 2.38-3.627 8.203-3.626 8.202-1.033 2.315-1.032 2.315-1.035 2.315-1.034 2.315-3.5 7.938-3.5 7.937-1.967 4.366-1.969 4.366-.27.727-.271.728h-.173zm-343.932-66.425-.198-.013-3.308-1.194-3.307-1.195-5.689-1.994-5.688-1.994-2.514-.88-2.513-.88-7.54-2.649-7.541-2.648-18.99-19.132-18.99-19.133-13.428-13.626-13.428-13.626-1.886-2.52-1.886-2.521-1.509-2.578-1.509-2.577-1.166-2.649-1.165-2.648-.76-2.705-.758-2.704-.336-2.46-.336-2.459.164-2.7.163-2.7.29-1.058.29-1.059.66-1.72.66-1.72 1.05-1.454 1.05-1.456 8.105-12.17 8.106-12.171c22.912-34.618 45.814-69.241 68.74-103.85l8.852-13.36 6.47-9.778 6.472-9.777.071 7.793.071 7.792.253 122.37.253 122.37.248 2.91.249 2.91.165 1.853.165 1.852.273 1.588.273 1.587.775 3.093.775 3.094v.56l-.198-.013z" style="fill:#b3b3b3;stroke-width:.264583" transform="translate(188.159 2540.473)"/></svg>