<svg xmlns="http://www.w3.org/2000/svg" width="300mm" height="300mm" viewBox="0 0 300 300"><path d="M136.635 299.462c-51.09-4.7-95.885-35.011-119.372-80.774-14.259-27.78-19.374-58.083-15.057-89.194C10.543 69.4 54.876 20.154 114.005 5.306c24.375-6.121 50.08-5.94 74.625.524 24.953 6.572 47.35 19.323 66.29 37.742 51.21 49.796 59.755 129.015 20.403 189.126-9.895 15.114-24.471 30.09-39.45 40.529-18.646 12.995-40.566 21.757-62.954 25.162-10.654 1.62-25.544 2.06-36.284 1.073zm49.42-28.271c7.763-3.97 12.887-8.764 14.202-13.287.574-1.974.563-2.135-.39-5.478-2.74-9.608-6.76-18.05-12.504-26.263-4.584-6.552-8.64-10.722-17.217-17.7-3.197-2.601-8.716-7.57-12.265-11.043l-6.454-6.314-3.555.67c-1.955.368-3.744.786-3.974.928-.276.171 5.878 13.917 18.013 40.238 10.138 21.988 18.596 40.088 18.795 40.22.484.324 1.837-.175 5.35-1.971zm-28.272-19.12c1.947-3.545 3.588-6.785 3.646-7.2.108-.773-7.462-17.618-8.263-18.388-.508-.487-16.218-2.309-22.703-2.632-10.75-.536-21.703 2.116-24.152 5.848-.812 1.238-11.757 26.317-11.757 26.94 0 .156 1.136-.034 2.525-.422 10.945-3.06 26.996-2.742 48.347.958 4.012.695 7.636 1.282 8.055 1.304.612.032 1.454-1.22 4.302-6.407zm-54.522-5.522c.3-.72 2.188-4.706 4.195-8.857 3.917-8.105 3.68-7.82 7.236-8.73 5.662-1.447 14.38-2.204 18.016-1.565l2.057.362-1.683.046c-3.875.106-10.335 1.341-16.163 3.092l-2.51.754-5.494 7.73c-6.173 8.686-6.418 8.997-5.654 7.168zm-37.463-16.974c.9-.49 6.77-3.63 13.045-6.978 6.275-3.349 11.457-6.124 11.514-6.167.058-.043-.657-1.368-1.59-2.946-.932-1.577-2.202-3.872-2.822-5.1-.62-1.228-1.335-2.239-1.59-2.246-.254-.007-6.73 1.466-14.393 3.273-8.787 2.073-13.932 3.453-13.934 3.737-.005 1.072 7.542 17.317 8.046 17.317.048 0 .823-.4 1.724-.89zm42.994-5.943c6.999-4.055 20.014-4.803 39.921-2.297 2.529.319 4.73.525 4.892.46.425-.173-14.81-31.895-15.376-32.019-.261-.057-2.043.219-3.96.612-2.493.511-3.525.594-3.619.29-.384-1.246-2.805-13.301-2.805-13.968 0-.7 24.177-17.484 73.769-51.212 1.175-.799 2.143-1.56 2.15-1.69.03-.504-7.118-6.15-11.394-8.999-4.878-3.251-11.625-6.715-16.645-8.545-22.74-8.292-47.94-3.787-67.726 12.107-8.55 6.868-15.09 15.186-20.005 25.448-12.954 27.045-7.7 59.117 13.23 80.748l2.799 2.893 1.554-1.434c.855-.788 2.302-1.865 3.215-2.394zm-7.512-10.841c-1.359-2.22-5.13-10.143-6.503-13.66-3.408-8.734-4.75-15.152-4.985-23.84-.211-7.78.487-13.076 2.54-19.264 4.578-13.798 15.087-26.696 29.827-36.607 3.192-2.146 9.915-6.036 10.433-6.036.142 0-1.282 1.053-3.163 2.338-18.586 12.703-30.45 28.674-34.197 46.033-1.198 5.552-1.188 16.32.02 21.953 1.664 7.755 4.515 14.671 9.53 23.122 1.37 2.306 2.49 4.323 2.49 4.482 0 .255-4.584 2.694-5.062 2.694-.102 0-.52-.547-.93-1.215zm-18.625-10.95c.107-.107-.454-2.308-1.247-4.89-.793-2.581-1.442-4.914-1.442-5.182 0-.269-.239-.687-.53-.928-.292-.242-6.814-1.753-14.495-3.357-17.373-3.629-16.396-3.447-16.396-3.056 0 1.77 3.051 16.397 3.615 17.328.188.312 30.184.395 30.495.085zm66.014-18.676a32542.4 32542.4 0 0 1 31.544-6.19c9.567-1.871 21.602-4.232 26.745-5.246 5.144-1.013 10.044-1.949 10.89-2.079 2.615-.401 2.567-.19 1.504-6.56-.527-3.165-1.73-10.55-2.671-16.414-.942-5.864-2.21-13.732-2.819-17.485-.608-3.754-1.106-6.928-1.106-7.054 0-.126-.245-.135-.545-.02-.847.325-80.383 54.91-80.87 55.5-.455.553-.391.914 1.036 5.81.572 1.959.894 2.525 1.439 2.525.386 0 7.07-1.254 14.853-2.787zm-70.336-.07c-.13-.955-.238-4.98-.238-8.943v-7.207l-14.614-9.05c-8.037-4.976-14.668-8.99-14.735-8.918-.397.426-1.023 8.827-1.21 16.254-.18 7.142-.127 8.7.302 8.968.554.348 29.842 10.565 30.402 10.606.182.014.224-.756.093-1.71zm1.066-23.9c.328-1.64 1.287-5.2 2.132-7.911l1.537-4.93-11.924-15.924c-6.558-8.758-12.037-15.923-12.175-15.923-.663 0-5.18 12.219-7.053 19.077-1.01 3.694-1.036 3.97-.445 4.641.853.97 27.124 24.16 27.24 24.044.05-.05.36-1.433.688-3.073zm6.666-19.084c1.488-3.035 5.172-8.773 7.843-12.216a346.56 346.56 0 0 0 2.8-3.643c.39-.531.179-1.922-1.231-8.092a7297.417 7297.417 0 0 1-5.261-23.349c-1.958-8.743-3.65-16.207-3.761-16.585-.161-.55-.983.137-4.088 3.42-2.137 2.259-4.7 5.093-5.698 6.298-1.914 2.313-9.395 12.772-10.904 15.244l-.89 1.456 9.88 19.772c5.435 10.874 9.973 19.771 10.086 19.771.113 0 .664-.934 1.224-2.076zm18.127-22.993c5.135-4.286 9.66-7.298 15.237-10.138l4.863-2.478 4.937-28.195c2.715-15.508 4.945-28.586 4.956-29.063.016-.727-.116-.826-.823-.612-9.403 2.842-24.711 10.827-34.034 17.754-3.902 2.9-3.647 1.098-2.328 16.455 1.635 19.042 3.159 37.56 3.162 38.435 0 .463.1.842.22.842.119 0 1.834-1.35 3.81-3zm92.048-11.893c2.603-2.224 10.036-8.488 16.516-13.919 6.481-5.431 16.58-13.907 22.444-18.836 5.863-4.929 10.742-9.029 10.842-9.11.28-.231-1.273-1.345-6.166-4.424-8.795-5.533-20.668-10.941-30.022-13.674-3.678-1.075-4.28-1.162-4.741-.687-.834.858-38.366 55.327-38.366 55.68 0 .174.647.42 1.437.546 4.53.724 13.38 3.942 18.575 6.753 1.646.891 3.387 1.642 3.87 1.668.612.033 2.304-1.172 5.61-3.997zm-61.18-3.987c5.417-1.374 11.271-2.068 17.447-2.068h5.559l15.604-29.01c8.582-15.956 15.536-29.079 15.452-29.162-.567-.567-10.24-.997-18.435-.82-11.52.25-23.794 1.883-24.563 3.267-.23.416-8.651 31.553-15.656 57.893-.289 1.088-.25 1.208.338 1.022.365-.116 2.28-.621 4.254-1.122z" style="fill:#fff;stroke-width:.374059"/></svg>