<svg xmlns="http://www.w3.org/2000/svg" width="1000mm" height="1000mm" viewBox="0 0 1000 1000"><path d="M256.62 864.596c-70.675-24.202-129.737-53.732-190.179-95.087-12.205-8.35-31.165-22.058-31.67-22.897-.964-1.598-3.273-38.367-4.005-63.782-1.854-64.32 4.288-132.181 17.54-193.787 14.417-67.023 35.249-126.808 66.535-190.948 16.465-33.755 32.896-63.03 53.008-94.444l6.417-10.023 4.544-2.156c30.424-14.436 70.027-29.36 106.507-40.135 29.699-8.772 81.091-20.375 83.76-18.911.551.302 2.512 3.367 4.356 6.81 4.602 8.591 15.17 30.432 18.55 38.337 2.428 5.676 2.922 6.479 3.858 6.265 2.34-.534 20.327-2.933 29.652-3.954 23.601-2.583 41.286-3.667 67.03-4.107 36.873-.63 74.083 1.815 113.453 7.455l4.854.695.46-1.242c1.366-3.682 8.556-19.478 13.486-29.628 7.11-14.638 10.327-20.52 11.416-20.875 1.133-.368 20.396 3.301 36.637 6.98C723.886 150.727 772 166.91 820.885 188.96l9.84 4.438 7.359 11.47c63.536 99.01 103.93 199.394 123.606 307.17 13.013 71.283 16.415 148.2 9.9 223.88-.44 5.126-.918 9.716-1.06 10.2-.53 1.792-33.036 24.718-54.003 38.086-39.015 24.875-81.405 46.796-123.416 63.822-23.403 9.484-59.261 21.975-61.385 21.383-1.328-.37-3.499-3.425-15.002-21.106-11.317-17.396-22.466-36.462-30.956-52.935-3.765-7.306-4.503-9.805-3.196-10.825.357-.279 4.39-2.02 8.963-3.87 17.666-7.144 40.16-18.04 56.676-27.452 12.008-6.843 12.543-7.59 8.146-11.385-5.771-4.98-14.47-11.765-15.094-11.771-.37-.005-4.814 1.876-9.873 4.177-61.345 27.9-125.22 44.32-191.062 49.112-21.237 1.546-56.75 1.42-77.942-.277-65.558-5.249-127.81-21.373-189.559-49.097-4.803-2.157-9.012-3.918-9.353-3.915-.579.005-9.474 6.968-15.039 11.771-3.02 2.606-3.216 4.11-.78 5.969 2.793 2.13 20.497 11.822 32.778 17.944 11.817 5.89 25.313 11.98 35.422 15.987 3.144 1.246 6.008 2.501 6.365 2.79 1.392 1.124.546 3.751-4.11 12.757-11.201 21.665-22.834 41.1-37.234 62.205-5.776 8.466-7.194 10.125-8.636 10.105-.59-.01-7.619-2.257-15.62-4.997zM361.38 633.69c24.67-5.412 45.303-21.986 57.794-46.423 7.503-14.676 11.054-28.993 11.614-46.826.445-14.142-1.035-25.068-5.084-37.534-14.555-44.813-56.504-70.92-97.575-60.727-13.686 3.397-26.168 10.392-36.598 20.51-39.037 37.87-40.846 105.103-3.92 145.634 13.481 14.797 29.74 23.433 50.067 26.593 3.934.612 18.836-.16 23.702-1.227zm314.081.03c36.133-7.83 63.201-40.319 68.534-82.255 1.016-7.988 1.025-20.927.02-28.785-7.126-55.72-54.618-92.762-102.903-80.262-35.384 9.16-61.503 42.815-65.68 84.63-3.213 32.167 8.849 65.832 30.86 86.129 12.661 11.675 26.972 18.826 42.606 21.29 6.434 1.013 20.23.626 26.563-.746z" style="fill:#fff;stroke-width:.526083"/></svg>