<svg xmlns="http://www.w3.org/2000/svg" width="300mm" height="300mm" viewBox="0 0 300 300"><path d="M140.66 298.695c-35.233-5.443-63.916-29.482-75.465-63.248-16.383-47.898.074-116.515 43.694-182.18 14.12-21.256 44.256-51.798 51.153-51.841.5-.004 1.334 7.367 1.853 16.379 1.093 19.01 6.429 41.74 13.058 55.632 6.307 13.213 16.292 25.92 38.461 48.945 10.383 10.783 21.136 22.934 23.895 27.003 14.555 21.456 17.16 54.365 6.791 85.809-9.545 28.948-35.086 53.665-62.935 60.902-10.923 2.838-30.727 4.11-40.504 2.599zm27.517-22.888c4.89-1.859 5.122-6.63.48-9.903-7.153-5.043-33.502-11.071-59.823-13.687l-9.145-.908 6.859 6.3c10.444 9.593 24.235 15.818 40.241 18.165 11.49 1.685 17.022 1.694 21.388.033z" style="fill:#fff;stroke-width:1.52416"/></svg>