<svg xmlns="http://www.w3.org/2000/svg" width="300mm" height="300mm" viewBox="0 0 300 300"><path d="M137.222 297.636c.827-.125 2.051-.121 2.72.007.67.13-.007.232-1.503.228-1.497-.004-2.045-.11-1.217-.235zm14.414.006c.673-.13 1.775-.13 2.449 0 .673.13.122.236-1.225.236s-1.898-.106-1.224-.236zm6.53-.52c.374-.151.986-.151 1.36 0 .375.15.069.274-.68.274-.748 0-1.054-.123-.68-.274zm3.844-.556c.392-.157.862-.138 1.043.043.18.18-.141.31-.715.286-.634-.026-.763-.155-.328-.329zm3.265-.544c.393-.157.862-.138 1.043.043.18.18-.14.31-.714.286-.634-.026-.763-.155-.33-.33zm-53.23-3.722c-29.596-10.663-52.167-34.46-60.637-63.932-1.295-4.507-3.036-12.865-3.036-14.58 0-.494 1.778.89 4.218 3.282 2.32 2.275 4.99 4.77 5.932 5.543 2.554 2.096 10.39 6.897 14.194 8.696l3.34 1.58.622 3.862c2.882 17.913 9.575 32.628 19.544 42.967 5.938 6.16 11.092 9.599 20.72 13.828 2.843 1.249.065.542-4.897-1.246zm15.237-1.546c-9.436-2.05-16.786-10-19.938-21.57-1.479-5.428-1.33-16.315.304-22.177.688-2.47 1.407-4.488 1.6-4.485.19.002 3.164.345 6.606.762 3.442.418 8.459.932 11.148 1.144l4.89.385 3.212 2.975c8.08 7.48 19.643 15.507 30.511 21.18l6.922 3.613-1.811 1.91c-3.235 3.412-10.353 8.339-15.94 11.034-6.395 3.084-11.732 4.643-18.524 5.41-5.694.642-5.143.653-8.98-.18zm113.782-65.425c.027-.634.156-.762.33-.328.156.393.137.862-.044 1.043-.18.18-.31-.14-.285-.715zm1.089-5.442c.026-.634.155-.763.329-.328.157.392.138.862-.043 1.043-.181.18-.31-.14-.286-.715zm.587-3.492c0-.748.124-1.054.275-.68.15.374.15.987 0 1.36-.151.375-.275.069-.275-.68zm.501-4.67c.026-.635.155-.764.33-.33.156.393.137.863-.044 1.044-.18.18-.31-.141-.286-.715zM47.914 210.41c0-.749.124-1.055.275-.68.15.373.15.986 0 1.36-.151.374-.275.068-.275-.68zm.02-16.599c.011-.898.133-1.2.271-.67.138.53.13 1.265-.02 1.633-.149.368-.262-.065-.25-.963zm194.806-.816c0-.748.124-1.054.275-.68.15.374.15.986 0 1.36-.151.374-.275.068-.275-.68zm-1.589-6.065c-4.623-16.58-16.677-31.836-43.546-55.114-7.609-6.593-9.372-8.384-9.373-9.524-.003-2.64 1.222-13.376 1.608-14.096.262-.49 1.97 1.167 5.333 5.17 2.72 3.239 8.285 9.807 12.364 14.596 20.657 24.25 29.476 38.909 33.802 56.186 1.69 6.75 1.54 8.98-.188 2.782zm-192.736 1.394c.027-.634.156-.763.33-.329.156.393.137.862-.044 1.043-.18.181-.31-.14-.286-.714zm.545-4.354c.026-.634.155-.763.328-.329.158.393.138.863-.043 1.043-.18.181-.309-.14-.285-.714zm29.202-33.756c-.791-1.281-3.177-15.626-3.938-23.682-.462-4.9-1.024-10.81-1.248-13.134l-.407-4.224 5.254-11.14c23.816-50.499 46.83-81.409 68.072-91.427 2.185-1.03 4.976-2.029 6.202-2.219l2.231-.345-.507 3.457c-.279 1.902-.363 6.948-.188 11.213.176 4.265.115 7.755-.134 7.755s-3.72 2.449-7.714 5.442c-3.993 2.993-7.444 5.442-7.668 5.442-.618 0-1.311-6.69-1.311-12.653 0-2.918-.147-5.306-.327-5.306-.8 0-4.872 3.431-8.145 6.863-12.582 13.199-24.119 35.057-34.148 64.7-6.566 19.41-10.795 34.819-13.949 50.837-.967 4.912-1.901 8.702-2.075 8.421zM184.9 101.16c-.677-.863-.658-.882.205-.205.907.71 1.195 1.157.747 1.157-.113 0-.541-.428-.952-.952zm-33.073-22.572c-.928-2.014-1.687-3.888-1.687-4.165 0-.584 10.394-10.532 10.692-10.234.158.157-4.225 11.032-6.839 16.972-.41.93-.725.555-2.166-2.573zm8.437-23.653c-.78-2.34-1.398-4.498-1.376-4.796.023-.298.755 1.521 1.628 4.043.872 2.522 1.491 4.68 1.375 4.797-.115.115-.848-1.704-1.627-4.044zm-2.462-8.105c.026-.634.155-.763.329-.329.157.393.138.863-.043 1.043-.181.181-.31-.14-.286-.714zm-1.131-4.036c-.367-1.529-.56-2.888-.427-3.02.132-.133.531 1.02.887 2.56s.547 2.899.426 3.02c-.12.12-.52-1.031-.886-2.56zm-1.003-4.898c0-.748.124-1.054.275-.68.15.374.15.986 0 1.36-.151.375-.275.068-.275-.68zm-.544-2.72c0-.75.123-1.055.274-.681.151.374.151.986 0 1.36-.15.375-.274.068-.274-.68zm-.524-2.994c.01-.898.133-1.2.27-.67.139.53.13 1.264-.02 1.633-.148.368-.261-.065-.25-.963zm-.524-3.537c0-1.048.112-1.477.249-.953.137.524.137 1.381 0 1.905s-.25.095-.25-.952z" style="fill:#c0b9cd;stroke-width:.544206" transform="translate(10.054 -2.646)"/><path d="M141.003 297.73c.163-.163 2.248-.763 4.632-1.332 12.538-2.995 23.492-8.712 32.492-16.96l3.536-3.24 4.238 1.335c2.33.734 6.752 1.9 9.827 2.59l5.59 1.257-2.87 1.83c-8.095 5.167-21.61 10.44-32.281 12.599-7.928 1.603-26.244 3.001-25.164 1.921zm-7.044-6.61c.53-.139 1.264-.13 1.633.02.368.148-.065.261-.963.25-.898-.01-1.2-.133-.67-.27zm37.314-17.215c.654-.695 1.003-1.47.775-1.72-.227-.25-.088-.267.308-.038.56.324.449.707-.503 1.72-.673.717-1.346 1.303-1.496 1.303-.15 0 .263-.57.916-1.265zm49.613-18.848c-8.684-2.603-12.398-4.066-20.862-8.214-3.545-1.737-3.705-1.897-3.402-3.414.176-.875.319-2.129.319-2.785 0-1.047.864-1.478 7.062-3.523 13.757-4.538 25.327-11.295 34.176-19.96l5.133-5.025-.369 3.082c-1.006 8.407-3.446 17.402-6.862 25.303-2.478 5.731-8.593 16.16-9.448 16.116-.318-.016-2.904-.727-5.747-1.58zM106.1 253.63c.026-.634.155-.763.33-.33.156.394.137.863-.044 1.044-.18.18-.31-.14-.286-.714zm91.185-62.67c-.158-.826-.44-2.848-.628-4.495-.187-1.646-1.664-11.197-3.282-21.224-3.157-19.57-4.328-28.279-4.902-36.461l-.362-5.17 1.285 1.128c10.71 9.402 15.68 13.837 15.502 13.837-.119 0 .75 2.244 1.933 4.986 6.147 14.259 6.922 27.115 2.217 36.804-1.6 3.297-7.134 9.564-9.835 11.139l-1.64.957zm10.76-49.8-1.037-1.224 1.224 1.037c1.15.974 1.472 1.412 1.037 1.412-.103 0-.654-.551-1.225-1.225zM73.992 128.461c.026-.634.155-.763.329-.329.157.393.138.863-.043 1.043-.18.181-.31-.14-.286-.714zm-.544-5.442c.026-.634.155-.763.329-.329.157.393.138.863-.043 1.043-.181.181-.31-.14-.286-.714zm114.827-5.442c.027-.634.156-.763.33-.329.156.393.137.862-.044 1.043-.18.181-.31-.14-.285-.714zm-115.308-2.676c.01-.898.133-1.2.27-.67.139.53.13 1.265-.02 1.633-.148.369-.261-.065-.25-.963zm79.076-43.264c1.169-1.197 2.248-2.177 2.397-2.177.15 0-.684.98-1.853 2.177-1.17 1.197-2.248 2.177-2.398 2.177-.15 0 .685-.98 1.854-2.177z" style="fill:#aca2bd;stroke-width:.544206" transform="translate(10.054 -2.646)"/><path d="M140.786 297.11c.392-.156.862-.137 1.043.044.18.18-.141.31-.715.286-.634-.027-.763-.156-.328-.33zm-4.354-5.985c.393-.158.862-.138 1.043.042.18.181-.14.31-.714.286-.634-.026-.763-.155-.33-.329zm-21.428-6.84-1.599-1.768 1.769 1.598c.973.88 1.768 1.675 1.768 1.769 0 .42-.449.05-1.938-1.598zm63.411-5.442c2.255-2.402 2.744-2.834 2.744-2.426 0 .088-1.163 1.25-2.585 2.585l-2.585 2.426zm-9.5-2.584c.54-.6 1.107-1.089 1.256-1.089.15 0-.17.49-.713 1.089-.541.598-1.107 1.088-1.257 1.088-.15 0 .171-.49.713-1.088zM196.44 242.2c.026-.634.155-.763.328-.329.158.393.138.863-.043 1.044-.18.18-.309-.141-.285-.715zM55.922 220.341c-.677-.863-.658-.882.205-.205.524.41.953.84.953.952 0 .448-.447.16-1.158-.747zm-7.075-7.074c-.677-.864-.657-.883.206-.206.524.411.952.84.952.953 0 .447-.447.16-1.158-.747zm-.892-6.123c0-1.047.112-1.476.248-.952.137.524.137 1.38 0 1.905-.136.523-.248.095-.248-.953zm0-9.251c0-1.048.112-1.476.248-.953.137.524.137 1.381 0 1.905-.136.524-.248.095-.248-.952zm149.072-5.986c0-.749.123-1.055.274-.68.151.373.151.986 0 1.36-.15.374-.274.068-.274-.68zm5.9-3.471c0-.113.429-.542.952-.953.864-.676.883-.657.206.206-.711.906-1.158 1.195-1.158.747zm-6.487-1.2c.026-.635.155-.763.328-.33.158.393.138.863-.043 1.044-.18.18-.309-.14-.285-.715zm-.545-4.354c.026-.634.155-.763.33-.329.156.393.137.862-.044 1.043-.18.18-.31-.14-.286-.714zm-.544-3.265c.026-.634.155-.763.329-.33.157.394.138.863-.043 1.044-.18.18-.31-.14-.286-.714zm-.544-3.81c.026-.634.155-.763.329-.329.157.393.138.863-.043 1.043-.181.181-.31-.14-.286-.714zm-.544-3.265c.026-.634.155-.763.329-.329.157.393.137.862-.043 1.043-.181.181-.31-.14-.286-.714zm-3.81-23.401c.026-.634.155-.763.33-.329.156.393.137.862-.044 1.043-.18.181-.31-.14-.286-.714zm-.501-3.492c0-.748.124-1.054.275-.68.15.374.15.986 0 1.36-.151.374-.275.068-.275-.68zm-.587-4.127c.026-.634.155-.763.329-.329.157.393.138.863-.043 1.043-.181.181-.31-.14-.286-.714zm-.481-4.308c.01-.898.133-1.2.27-.67.139.53.13 1.264-.02 1.633-.148.368-.261-.065-.25-.963zm-.513-6.53c.006-1.198.117-1.624.247-.947.13.677.126 1.657-.01 2.177-.137.52-.243-.033-.237-1.23zm-114.378-.59c.026-.634.155-.763.329-.329.157.393.138.862-.043 1.043-.18.18-.31-.14-.286-.714zm-.544-5.442c.026-.634.155-.763.329-.33.157.394.138.863-.043 1.044-.181.18-.31-.14-.286-.714zm-.481-7.03c.01-.898.133-1.199.27-.67.139.53.13 1.265-.02 1.633-.148.369-.261-.065-.25-.963zm115.308-1.678c.027-.634.156-.763.33-.328.156.392.137.862-.044 1.043-.18.18-.31-.14-.285-.715zm.545-4.897c.026-.634.155-.763.328-.33.158.394.138.863-.042 1.044-.181.18-.31-.14-.286-.714zM149.629 74.29c-.019-.487-.673-2.324-1.454-4.082-3.618-8.146-8.96-24.753-9.692-30.135l-.333-2.449 7.49-5.54c4.808-3.555 7.613-5.31 7.83-4.898.185.353.502 1.99.705 3.635.967 7.836 6.782 28.7 8.614 30.909.448.54.404.676-.177.55-.425-.092-.711.14-.636.514.074.374-.124.68-.44.68-.318 0-.402.283-.189.628.225.364.151.482-.176.28-.684-.423-10.412 8.088-11.053 9.67-.334.825-.463.888-.489.238z" style="fill:#a499c2;stroke-width:.544206" transform="translate(10.054 -2.646)"/><path d="M131.364 296.916c-5.368-.865-11.156-2.342-11.156-2.846 0-.282-.38-.367-.845-.19-.464.179-.713.113-.553-.147.16-.26-.733-1.149-1.984-1.977-10.658-7.053-17.211-20.552-15.951-32.858.51-4.995 1.804-11.137 3.04-14.44 1.03-2.75 1.069-2.784 3.114-2.589l2.071.198-1.342 3.899c-1.966 5.71-2.284 16.314-.681 22.654 2.965 11.726 9.103 19.114 18.165 21.867 9.467 2.875 25.172-.91 37.31-8.994 4.273-2.846 10.563-8.411 10.189-9.016-.143-.232.661.035 1.787.592 1.127.557 3.386 1.494 5.02 2.082 1.634.587 2.596 1.077 2.136 1.088-.459.01-2.173 1.385-3.809 3.053-5.719 5.833-16.533 12.141-25.866 15.09-9.061 2.862-14.48 3.528-20.645 2.534zm-31.906-13.99c-.676-.864-.657-.883.206-.206.524.41.952.839.952.952 0 .448-.447.16-1.158-.747zm-5.442-5.443c-.677-.863-.657-.882.206-.205.524.41.952.839.952.952 0 .448-.447.16-1.158-.747zm98.703-34.285-3.406-2.011 3.678-.868c2.023-.477 3.742-.827 3.821-.778.08.05-.043 1.345-.272 2.879l-.416 2.79zM70.842 230.027c-7.189-3.797-12.833-7.844-17.874-12.815l-4.416-4.354-.345-5.271c-1.334-20.376 5.477-50.7 18.936-84.302 5.72-14.28 5.678-14.21 5.713-9.744.034 4.26 1.35 18.194 2.17 22.964 1.25 7.276 2.893 14.586 3.278 14.586.222 0 .2 1.09-.05 2.423-1.045 5.597-2.685 23.22-3.268 35.127-.656 13.37-.374 31.338.613 39.113.318 2.505.5 4.634.403 4.73-.096.097-2.418-1.01-5.16-2.457zm167.73-13.631c1.475-1.497 2.803-2.721 2.953-2.721.15 0-.934 1.224-2.408 2.72-1.474 1.497-2.803 2.722-2.952 2.722-.15 0 .934-1.225 2.408-2.721zm-96.052-15.362c-3.581-4.152-3.53-3.784-1.055-7.6 3.1-4.776 6.173-11.368 8.514-18.26 1.799-5.295 2.008-6.525 2.203-12.927.185-6.118-.017-8.398-1.5-16.87-3.388-19.373-3.442-19.845-3.49-30.476-.065-14.472 1.315-19.944 10.567-41.913 2.141-5.083 3.95-9.555 4.02-9.937.305-1.652 1.185-.337 3.825 5.711 5.431 12.445 11.409 22.5 19.62 33.004l4.18 5.347-.664 6.005c-1.297 11.748-.467 22.282 3.788 48.055 3.096 18.752 4.517 28.812 4.316 30.557-.215 1.872-2.647 3.314-10.044 5.958-9.63 3.442-24.242 5.693-36.347 5.6l-6.028-.045zm100.721-1.282c.026-.634.155-.763.33-.329.156.393.137.863-.044 1.043-.18.181-.31-.14-.286-.714zm-38.681-12.949c0-.113.428-.541.952-.952.863-.677.882-.658.206.205-.711.907-1.158 1.195-1.158.747zm7.662-20.792c.026-.634.155-.763.328-.328.158.392.138.862-.043 1.043-.18.18-.309-.14-.285-.715zm5.902-14.784-1.32-1.496 1.497 1.319c1.399 1.233 1.746 1.674 1.32 1.674-.098 0-.772-.674-1.497-1.497zm-6.252-6.258-1.598-1.769 1.769 1.598c.972.88 1.768 1.675 1.768 1.77 0 .42-.449.05-1.939-1.6zm-82.685-119.59c1.474-1.496 2.803-2.72 2.952-2.72.15 0-.934 1.224-2.408 2.72-1.474 1.497-2.802 2.721-2.952 2.721-.15 0 .934-1.224 2.408-2.72z" style="fill:#968abc;stroke-width:.544206" transform="translate(10.054 -2.646)"/><path d="M116.33 292.899c-11.611-4.826-19.978-11.672-26.984-22.083-4.773-7.092-9.422-19.251-11.548-30.203-.639-3.292-1.246-6.388-1.35-6.88-.162-.768.2-.72 2.603.34 4.203 1.858 12.39 4.365 19.314 5.914 3.401.761 6.257 1.458 6.346 1.55.089.09-.438 1.952-1.172 4.137-.734 2.184-1.724 6.592-2.2 9.795-2.24 15.054 3.303 27.84 15.83 36.518 3.666 2.54 3.503 2.716-.84.912zm100.18-23.851c2.255-2.403 2.743-2.835 2.743-2.426 0 .087-1.163 1.25-2.585 2.585l-2.585 2.426zm9.58-11.452c.205-.537.51-.839.677-.671.168.167 0 .606-.372.976-.537.533-.6.47-.304-.305zm-85.816-5.69c-.677-.864-.658-.883.205-.206.524.41.953.84.953.952 0 .448-.447.16-1.158-.747zm-3.265-2.722c-.677-.863-.658-.882.205-.205.907.71 1.195 1.158.747 1.158-.113 0-.542-.429-.952-.953zm-4.354-3.81c-.677-.862-.658-.882.205-.205.907.711 1.195 1.158.747 1.158-.113 0-.541-.428-.952-.952zm-57.03-16.235c.027-.634.156-.763.33-.328.157.392.137.862-.043 1.043-.181.18-.31-.141-.286-.715zm-.48-5.396c.01-.898.133-1.2.27-.67.139.53.13 1.264-.02 1.632-.149.369-.261-.064-.25-.962zm158.258-2.655c0-.113.428-.541.952-.952.863-.677.882-.658.205.205-.71.907-1.157 1.195-1.157.747zm-158.726-8.502c0-2.244.096-3.163.214-2.04.117 1.122.117 2.959 0 4.081-.118 1.123-.214.204-.214-2.04zm168.648-5.442c0-1.047.112-1.476.248-.952.137.524.137 1.38 0 1.905-.136.523-.248.095-.248-.953zm-168.627-7.346c.001-3.293.09-4.57.2-2.838.107 1.732.106 4.426-.003 5.987-.11 1.56-.198.143-.197-3.15zm71.496 3.687c.972-.12 2.564-.12 3.537 0 .973.121.177.22-1.769.22-1.945 0-2.741-.099-1.768-.22zm13.095-.522c.392-.157.862-.138 1.043.043.18.18-.141.31-.715.286-.634-.026-.763-.155-.328-.329zm-17.075-1.941-1.599-1.769 1.77 1.599c.972.879 1.768 1.675 1.768 1.768 0 .42-.45.05-1.94-1.598zm101.07.68c0-.748.124-1.054.275-.68.15.374.15.986 0 1.36-.151.375-.275.069-.275-.68zm-109.16-11.122c-2.668-3.459-6.544-8.745-8.614-11.747l-3.763-5.457 4.65-18.897c6.648-27.02 9.835-41.571 12.538-57.264.748-4.34 1.66-8.748 2.027-9.796 1-2.855 3.92-7.618 6.341-10.347l2.15-2.423 2.024 4.017c2.261 4.491 2.281 4.011-.497 11.96-3.38 9.672-3.777 12.2-3.763 24.003.01 7.148.297 12.3.882 15.782.479 2.844 1.623 9.524 2.543 14.844 2.053 11.864 2.22 19.309.579 25.725-2.017 7.888-7.628 20.186-11.25 24.66l-.997 1.23zm66.082.577c0-.113.429-.542.952-.953.864-.676.883-.657.206.206-.711.906-1.158 1.195-1.158.747zm-125.041-7.958c0-1.047.112-1.476.249-.952s.137 1.38 0 1.905c-.137.523-.25.095-.25-.953zm.524-7.89c.011-.899.133-1.2.27-.67.139.529.13 1.264-.02 1.632-.148.368-.261-.065-.25-.963zm.481-6.032c.026-.634.155-.763.329-.33.157.394.138.863-.043 1.044-.181.18-.31-.14-.286-.714zm136.135-.771c0-1.048.112-1.476.249-.953.137.524.137 1.381 0 1.905s-.25.095-.25-.952zm-98.615-8.528c-7.733-13.612-15.722-32.025-20.105-46.342-3.386-11.06-3.429-9.86.79-22.23 10.895-31.938 21.491-51.818 34.831-65.346 3.32-3.368 6.328-6.123 6.683-6.123.455 0 .646 1.642.648 5.578.003 5.089.526 10.086 1.373 13.114.21.754.157.928-.15.49-.35-.502-1.769.348-5.341 3.202-19.249 15.376-25.391 24.676-26.192 39.656-.396 7.395.39 14.358 3.651 32.38 4.467 24.682 8.218 50.456 7.454 51.22-.162.161-1.801-2.358-3.642-5.6zm98.595 3.902c.01-.898.133-1.2.27-.67.139.53.13 1.264-.02 1.633-.149.368-.261-.065-.25-.963zm-135.027-4.4c.026-.633.155-.762.33-.328.156.393.137.862-.044 1.043-.18.181-.31-.14-.286-.714zm.545-3.809c.026-.633.155-.762.328-.328.158.393.138.862-.043 1.043-.18.18-.309-.14-.285-.715zm137.334-7.437-1.598-1.769 1.769 1.599c.973.879 1.768 1.675 1.768 1.768 0 .42-.449.05-1.939-1.598zm-9.19-8.071c.139-.224-.056-.531-.432-.683-.426-.172-.452-.292-.07-.319.338-.023.885.284 1.216.683.455.548.41.726-.181.726-.431 0-.67-.183-.532-.407z" style="fill:#8374b0;stroke-width:.544206" transform="translate(10.054 -2.646)"/><path d="M195.852 279.737c-20.792-4.687-43.928-17.084-60.726-32.54l-2.674-2.46 14.256-.02c15.916-.025 24.738-.623 35.43-2.401 5.871-.977 7.349-1.071 7.821-.502.32.386 4.41 2.615 9.088 4.953 8.575 4.287 18.379 8.093 24.152 9.377 1.72.383 3.129.865 3.129 1.072 0 1.722-10.674 13.137-17.243 18.44-7.15 5.773-6.55 5.588-13.233 4.081zm-71.688-35.964c.53-.138 1.264-.129 1.632.02.369.15-.065.262-.963.251-.897-.01-1.199-.133-.67-.27zm-5.725-.527c.374-.151.986-.151 1.36 0 .375.15.069.274-.68.274-.748 0-1.054-.123-.68-.274zm-4.32-.556c.393-.157.863-.138 1.043.043.181.18-.14.31-.714.286-.634-.026-.763-.155-.329-.329zm-3.809-.544c.393-.157.862-.138 1.043.043.18.18-.14.31-.714.286-.634-.026-.763-.155-.329-.33zm-11.87-2.1c-6.741-1.543-15.397-4.206-19.346-5.952l-2.814-1.244-.415-4.01c-1.762-17.007-1.01-47.811 1.68-68.77 1.943-15.144 7.015-38.144 11.522-52.243 1.53-4.789 1.575-4.856 1.996-2.993 2.16 9.566 9.412 28.963 15.542 41.568 4.376 8.998 10.305 19.596 10.727 19.175.764-.764-2.987-26.538-7.454-51.22-3.261-18.022-4.047-24.985-3.651-32.38.801-14.987 6.94-24.277 26.22-39.679 5.602-4.475 4.988-4.762 6.83 3.195 1.426 6.165 5.086 17.014 8.087 23.976l2.179 5.053-2.204 2.503c-2.48 2.816-5.375 7.536-6.377 10.394-.367 1.048-1.28 5.456-2.027 9.796-2.704 15.694-5.89 30.244-12.54 57.269l-4.65 18.903 3.665 5.314c2.016 2.923 5.268 7.396 7.226 9.94a806.077 806.077 0 0 1 5.995 7.891c1.339 1.796 3.312 4.208 4.386 5.361l1.952 2.095-4.626-.353c-19.913-1.52-32.39-6.542-43.29-17.424-6.989-6.979-11.9-15.198-16.105-26.957-2.588-7.236-2.644-6.564-.155 1.856 6.274 21.221 17.27 42.757 31.717 62.115l1.645 2.204-2.383 3.424c-1.31 1.883-3.403 5.484-4.65 8-1.247 2.517-2.425 4.56-2.618 4.538-.193-.02-2.922-.626-6.065-1.345zm98.699-2.056c1.447-5.782 1.71-31.787.424-41.804l-.394-3.067 1.821-.98c2.955-1.592 8.804-8.208 10.545-11.928 2.328-4.975 3.358-10.515 2.985-16.066-.378-5.626-2.275-13.316-4.866-19.73l-1.928-4.771 1.476 1.051c3.125 2.225 16.902 16.946 21.195 22.647 5.588 7.42 10.967 17.993 12.899 25.351 1.581 6.025 2.402 13.79 2.037 19.268l-.254 3.81-4.986 4.897c-8.802 8.647-20.72 15.614-34.807 20.345-6.215 2.087-6.434 2.122-6.147.977zm-44.687-34.5c.823-.125 2.17-.125 2.993 0 .823.124.15.226-1.496.226-1.647 0-2.32-.102-1.497-.227zm8.718-.532c.53-.138 1.264-.13 1.632.02.369.149-.065.262-.963.25-.897-.01-1.199-.132-.67-.27zm5.193-.54c.393-.156.862-.137 1.043.044.181.18-.14.31-.714.286-.634-.026-.763-.155-.329-.33zm3.81-.543c.393-.158.862-.138 1.043.043.18.18-.14.31-.715.285-.634-.026-.762-.155-.328-.328zm3.265-.545c.393-.157.862-.137 1.043.043.18.181-.14.31-.714.286-.634-.026-.763-.155-.33-.329zm2.72-.544c.394-.157.863-.138 1.044.043.18.181-.14.31-.714.286-.634-.026-.763-.155-.33-.329z" style="fill:#7867a9;stroke-width:.544206" transform="translate(10.054 -2.646)"/><path d="M122.929 243.605c-4.939-.527-10.98-1.258-13.426-1.623l-4.446-.665 1.038-2.423c1.231-2.872 4.762-8.955 6.71-11.563l1.386-1.853-1.663-2.228c-14.47-19.394-25.457-40.908-31.735-62.14-2.49-8.42-2.433-9.092.155-1.856 9.126 25.517 24.855 39.265 49.574 43.332 19.838 3.263 48.465-.038 62.801-7.243 2.051-1.03 3.803-1.797 3.893-1.703.418.438 1.357 16.248 1.353 22.787-.004 6.93-.736 18.163-1.383 21.251-.262 1.25-.765 1.532-4.217 2.367-6.977 1.688-17.9 3.46-25.037 4.062-10.621.895-34.401.63-45.003-.502z" style="fill:#65529d;stroke-width:.544206" transform="translate(10.054 -2.646)"/></svg>