<svg xmlns="http://www.w3.org/2000/svg" width="1196" height="1196" viewBox="0 0 316.442 316.442"><path d="M-53.636 110.003V9.858h21.43c11.788 0 21.432.055 21.432.122s-.956 1.346-2.125 2.844c-8.997 11.53-16.723 25.88-21.653 40.216-4.322 12.57-7.047 26.645-7.998 41.318-.395 6.08-.16 22.058.41 27.816 3.305 33.457 15.309 62.33 35.199 84.667 1.166 1.31 2.284 2.59 2.483 2.844.345.44-.86.463-24.408.463h-24.77zm277.052 99.685c.2-.253 1.41-1.636 2.688-3.073 3.102-3.486 7.965-9.57 11.027-13.795 5.288-7.295 14.727-22.3 14.29-22.713-.264-.248-47.416-23.75-47.494-23.67-.046.045-1.499 2.224-3.23 4.843-21.477 32.493-46.525 48.393-74.681 47.405-25.88-.908-44.73-13.938-55.573-38.412-5.598-12.636-9.233-29.998-9.903-47.293-.078-2.001-.207-5.246-.288-7.21l-.147-3.572H244.55V91.019c0-11.473-.239-17.326-.948-23.35-1.742-14.79-5.411-27.713-11.373-40.051-2.555-5.288-4.084-7.966-7.499-13.13-1.54-2.328-2.84-4.322-2.889-4.431-.049-.11 9.148-.199 20.438-.199h20.527v200.29H242.93c-18.84 0-19.857-.024-19.513-.46zM63.401 54.034c.52-4.98 2.085-10.246 4.517-15.204 2.238-4.561 4.385-7.535 8.223-11.392 7.042-7.076 15.8-11.281 26.17-12.568 3.422-.424 10.03-.17 13.386.516 17.04 3.481 28.486 16.168 31.085 34.455.215 1.511.393 3.432.395 4.269l.005 1.521H63.234Z" style="fill:#a80432;stroke-width:.264583" transform="translate(53.636 49.673)"/></svg>