<svg xmlns="http://www.w3.org/2000/svg" width="300mm" height="300mm" viewBox="0 0 300 300"><path d="M130.524 251.727c-44.34-5.698-82.78-27.907-109.296-63.143C13.86 178.79 6.67 166.438 2.08 155.68l-2.06-4.825 2.058-4.826c20.435-47.908 64.184-83.424 115.77-93.982 19.814-4.056 43.017-4.074 63.431-.05 27.036 5.328 53.186 18.212 74.019 36.469 4.981 4.365 6.154 5.527 13.386 13.264 11.09 11.865 21.38 27.711 28.38 43.702l2.362 5.398-2.063 4.838c-6.503 15.246-17.58 32.416-28.414 44.042-2.392 2.566-4.73 5.124-5.197 5.684-.468.56-3.614 3.468-6.992 6.46-25.535 22.625-53.76 35.382-88.287 39.903-8.284 1.084-29.402 1.067-37.949-.031zm30.6-33.852c14.111-2.508 26.517-8.96 36.585-19.028 12.993-12.993 19.86-29.586 19.86-47.991s-6.867-34.999-19.86-47.991c-12.993-12.993-29.586-19.86-47.991-19.86s-34.998 6.867-47.991 19.86c-13.05 13.049-19.858 29.57-19.86 48.191-.005 32.722 23.412 60.716 55.86 66.78 5.54 1.036 17.671 1.056 23.397.038zm-17.568-26.705c-8.903-1.492-16.186-5.24-22.55-11.603-8.138-8.138-11.794-17.04-11.794-28.711 0-11.672 3.656-20.573 11.795-28.712 7.048-7.049 14.444-10.577 24.616-11.743 9.382-1.076 18.214 1.08 26.444 6.456 8.213 5.365 14.8 14.559 17.234 24.055 1.31 5.111 1.318 14.893.016 19.887-5.268 20.211-25.655 33.742-45.762 30.371z" style="fill:#fff;stroke-width:.58493"/></svg>