<svg xmlns="http://www.w3.org/2000/svg" width="602.823" height="602.823" viewBox="0 0 159.497 159.497"><path d="M166.73 255.143c-.238-.14-1.27-.372-2.292-.517-1.497-.213-2.042-.188-2.799.129-1.325.553-3.417.498-4.635-.124-5.42-6.494-2.116-15.653.47-17.866 1.544-1.445 2.52-3.196 2.947-5.284.475-2.33.711-2.693 2.079-3.186 3.132-1.131 2.943-.837 2.154-3.353-.289-.922-.527-1.871-.529-2.11-.004-.45-1.928-2.345-2.383-2.345-.144 0-.807-.417-1.475-.926-.667-.51-1.397-.926-1.623-.926-.226 0-1.258-.468-2.295-1.04-2.249-1.24-5.122-2.478-9.954-4.286-3.509-1.313-11.23-5.138-16.63-8.239-3.8-2.181-8.477-4.398-13.004-6.16-2.11-.822-4.863-1.896-6.119-2.387-3.192-1.249-6.192-1.715-11.21-1.745-4.779-.028-7.4.418-11.087 1.885-1.493.594-2.172.75-2.375.547-1.267-1.267 6.597-4.629 12.697-5.429 5.544-.726 8.884-.485 14.772 1.067 1.318.348 3.229.762 4.247.922 1.017.159 3.637.985 5.82 1.834 2.184.85 5.386 1.918 7.115 2.374 1.73.456 4.468 1.412 6.086 2.124 1.887.832 3.51 1.36 4.528 1.475.874.098 3.017.476 4.763.84 1.746.363 4.187.767 5.424.898 1.237.132 2.933.315 3.768.408 1.892.21 2.447.013 9.064-3.216 8-3.903 7.969-3.892 11.774-4.107 1.82-.102 4.022-.335 4.895-.517 1.07-.223 2.664-.276 4.895-.165 1.926.096 4.44.039 6.02-.137 3.535-.394 4.852-.124 8.929 1.825l3.175 1.518 2.805-.005c2.594-.004 2.92-.065 4.324-.794.835-.434 1.673-1.087 1.862-1.45.19-.365.787-1.596 1.326-2.738 1.061-2.245 2.584-3.965 6.285-7.1 2.28-1.93 3.702-2.502 5.546-2.229.624.092 2.35.222 3.836.288 3.103.138 3.966.431 5.71 1.94 1.116.966 1.331 1.057 1.899.798.648-.295.64-.298 3.826 1.375.229.12.969.47 1.645.777 1.022.464 1.322.776 1.785 1.854.767 1.783.722 2.791-.169 3.735-.732.776-1.39 1.008-1.39.49 0-.154-.119-.207-.264-.117-.146.09-.265.006-.265-.186 0-.254-.558-.365-2.05-.407-2.877-.082-5.352-.461-6.284-.962-1.056-.567-3.908-.584-4.371-.026-.184.222-.286.452-.226.512.06.06 1.208.659 2.551 1.331 1.343.673 2.443 1.335 2.443 1.473 0 .137.19.25.423.25.394 0 1.758.523 2.814 1.08.253.133.64.242.86.242.22 0 .4.12.4.265 0 .146.244.265.54.265.298 0 .797.238 1.109.529.312.29.85.529 1.195.529.345 0 .565.1.489.224-.076.123-.041.838.077 1.588.165 1.043.13 1.435-.15 1.667-.375.311-.375.311-2.237-.714-.383-.21-1.93-.506-3.44-.657-3.657-.365-4.913-.76-7.964-2.508l-2.576-1.476-1.868.387c-2.193.454-2.364.573-3.397 2.37-1.228 2.138-4.004 4.792-5.618 5.372-.748.27-1.418.64-1.488.822-.07.183-.54.333-1.043.333-1.083 0-1.882.385-2.543 1.227-.266.337-.982.758-1.593.937-.61.178-1.198.449-1.305.601-.106.153-.196 1.03-.198 1.949-.005 1.964-.243 2.531-1.548 3.683l-.97.856.699.004c1.195.007 1.947.847 1.947 2.175 0 1.577-.654 2.495-2.05 2.877-1.938.531-3.44 1.389-4.712 2.69-1.127 1.153-2.366 1.673-2.366.993 0-.46-.653-.286-.997.265-.384.615-1.691.718-2.147.169-.164-.198-.581-.306-.926-.24-.438.084-.752-.058-1.04-.469-.227-.324-.882-.799-1.456-1.056-1.01-.452-1.068-.45-1.803.05-1.268.862-4.675 2.526-5.57 2.72-.462.1-.976.345-1.14.544-.245.294-.064.391.973.524 2.153.276 4.658.702 5.841.991.967.237 1.197.434 1.617 1.384.448 1.011.567 1.101 1.386 1.044 1.72-.12 3.73.6 4.779 1.712 1.208 1.28 1.76 2.915 1.315 3.893-.404.888-.849.714-1.455-.57-.805-1.706-1.758-2.53-1.758-1.52 0 .246-.252.714-.559 1.041-.444.474-.576 1-.644 2.583-.047 1.093-.216 2.23-.376 2.528-.577 1.08-2.924 1.759-3.632 1.051-.209-.21-.476-.167-.966.154-1.239.812-2.564.008-3.091-1.877-.442-1.577-.042-2.08.93-1.166.644.605.665.608.665.082 0-.299.154-.67.342-.827.35-.29.4-3.722.07-4.76-.194-.613-2.392-2.058-4.359-2.867-1.018-.42-2.019-.61-3.222-.614-1.992-.007-2.62-.433-2.62-1.772 0-.86.381-1.271 1.89-2.034 1.457-.736 2.673-1.835 3.331-3.01l.592-1.055-1.782.507c-1.139.324-2.33.473-3.296.41l-1.513-.097-1.204 2.04c-1.641 2.779-5.627 6.61-8.343 8.018-4.179 2.167-7.932 4.7-7.932 5.351 0 .167-.311.983-.692 1.815-.58 1.265-.663 1.73-.515 2.851.256 1.93.973 3.109 1.89 3.109.061 0 .118-.566.126-1.257.022-1.867.522-3.127 1.204-3.033.304.042.704-.107.89-.33.838-1.011 2.987-.049 4.089 1.832.675 1.153.922 2.788.42 2.788-.144 0-.431-.407-.639-.905-.422-1.009-1.38-1.683-1.799-1.265-.17.172-.154.46.05.84.416.777.159 1.33-.62 1.33-.508 0-.664.163-.756.794-.106.719-.048.793.616.793.402 0 .806.12.896.265.09.146.59.265 1.114.265.796 0 1.18.23 2.365 1.415.983.982 1.415 1.624 1.415 2.1 0 .955-.413 1.112-1.229.47-.728-.572-1.946-.742-1.946-.27 0 .15.244.604.541 1.006.835 1.13.285 2.017-.842 1.36z" style="fill:#fff;stroke-width:.264583" transform="translate(-85.834 -137.213)"/></svg>