<svg xmlns="http://www.w3.org/2000/svg" width="175mm" height="175mm" viewBox="0 0 175 175"><path d="M516.366 301.273c-28.342-5.522-44.417-22.751-44.325-47.508.07-19.076 9.034-32.087 32.878-47.725 8.919-5.85 14.87-11.72 18.221-17.975 3.73-6.96 8.42-9.445 14.076-7.46 2.991 1.049 4.448 2.4 6.599 6.116 3.913 6.764 10.329 13.025 20.248 19.762 17.257 11.72 24.395 19.429 29.146 31.47 4.913 12.455 3.394 28.75-3.726 39.97-6.232 9.823-17.82 17.933-31.446 22.01-8.356 2.499-31.843 3.254-41.671 1.34z" style="fill:#802c4e;fill-opacity:1;stroke-width:.953931" transform="translate(-447.219 -139.352)"/><path d="M568.355 203.995c-2.36-1.257-5.111-3.19-6.112-4.297-1.635-1.808-1.698-2.424-.623-6.064 3.858-13.068 15.014-25.996 28.462-32.983 7.78-4.041 23.43-8.749 29.086-8.749h2.872l-.533 5.886c-.386 4.26-1.652 8.146-4.582 14.07-5.558 11.236-18.423 25.356-29.003 30.508-9.555 4.654-14.064 4.557-19.567 1.629z" style="fill:green;stroke-width:.252394" transform="translate(-447.219 -139.352)"/></svg>