<svg xmlns="http://www.w3.org/2000/svg" width="1621.5" height="1621.5" viewBox="0 0 429.022 429.022"><path d="M-489.93-968.306v-23.548l76.83-30.956-76.83-31.257v-23.575l109.802 45.06v19.315zm140.362-45.429v-18.405l109.677-45.503-.138 23.739-76.03 30.982 76.147 31.209.014 23.416zm146.907 45.338-.99.16v-23.369l76.69-31.307-76.69-31.39v-23.334l109.433 45.041h.372v19.315h-.765l-108.049 44.885zM-83-1061.25c-10.466-.19-11.37-14.998-.894-15.742 12.132-.056 10.457 15.453.894 15.742zm-30.753-55.084c12.93-11.666 24.16 3.013 19.137 13.615-8.974 12.973-28.775-.932-19.137-13.615zm21.559-46.573c7.767-21.15 35.555-5.848 30.663 10.279-8.976 22.351-37.735 12.88-30.663-10.279z" style="fill:#fff;stroke-width:.264583" transform="translate(489.93 1260.283)"/></svg>