<svg xmlns="http://www.w3.org/2000/svg" width="300mm" height="300mm" viewBox="0 0 300 300"><path d="M229.134 287.961c-3.592-.3-6.365-.729-8.886-1.376-9.589-2.46-17.866-7.277-24.79-14.425-6.706-6.924-11.478-15.536-13.858-25.01-1.684-6.706-2.113-13.947-1.232-20.814 2.045-15.944 10.781-30.204 23.793-38.838 6.793-4.507 13.96-7.198 22.271-8.36 2.658-.372 9.954-.372 12.706 0 10.655 1.441 19.988 5.691 28.052 12.775 9.266 8.138 15.662 19.758 17.725 32.204.591 3.57.728 5.341.725 9.448-.002 4.147-.194 6.346-.878 10.077-3.883 21.15-19.308 37.913-39.563 42.994-4.739 1.188-11.26 1.726-16.065 1.325zm8.518-9.06c3.61-.349 6.678-1.046 10.103-2.298 10.602-3.874 19.507-11.847 24.75-22.16 6.886-13.54 6.908-29.714.06-43.24-2.403-4.748-5.284-8.66-9.131-12.4-7.976-7.755-18.189-12.13-29.188-12.506-18.822-.642-36.025 10.986-43.067 29.11-2.258 5.813-3.212 11.007-3.201 17.427.008 4.988.538 8.763 1.875 13.362a47.201 47.201 0 0 0 11.089 19.316c6.162 6.48 14.78 11.26 23.227 12.88 1.259.24 4.42.606 6.864.793 1.12.086 4.136-.044 6.619-.284zm-8.48-29.016-.038-12.304-11.866-.038-11.866-.037v-9.929h23.805v-23.22H239.138v23.22h23.805v9.929l-11.866.037-11.866.038-.037 12.304-.037 12.304h-9.928zm-87.225 19.464c-2.731-.061-5.261-.154-5.623-.205-.361-.052-2.694-.193-5.184-.315s-5.48-.314-6.645-.427c-1.165-.113-2.61-.247-3.213-.298-.603-.05-2.18-.22-3.505-.376l-4.893-.577c-1.365-.16-3.304-.423-4.308-.583-3.803-.604-8.169-1.346-9.858-1.674-.964-.187-2.344-.45-3.067-.585-2.089-.387-9.298-2.088-11.537-2.721a683.326 683.326 0 0 0-3.14-.88c-1.848-.51-5.533-1.68-7.302-2.318-.924-.333-1.975-.705-2.337-.827a24.192 24.192 0 0 1-1.479-.572c-.451-.193-.89-.352-.975-.352-.244 0-5.282-2.257-7.769-3.48-6.5-3.197-11.402-6.637-14.719-10.328-2.899-3.226-4.264-5.593-4.976-8.63-.274-1.165-.313-1.766-.313-4.854 0-6.604 1.116-13.928 3.197-20.975 4.62-15.65 14.776-30.099 28.13-40.016 4.335-3.22 7.187-4.964 11.983-7.328 3.155-1.555 4.457-2.146 5.907-2.678l2.774-1.022c.924-.34 1.976-.702 2.337-.804.362-.102 1.446-.416 2.41-.696a74.96 74.96 0 0 1 3.359-.882c4.74-1.096 5.148-1.124 6.09-.424 1.28.952 4.754 3.232 5.885 3.862l1.899 1.058c.401.224 1.065.594 1.474.824.903.508 4.593 2.202 5.901 2.709a71.022 71.022 0 0 0 17.818 4.354c3.053.342 3.77.368 10.15.367 6.734-.002 7.73-.05 12.21-.577 2.01-.237 5.927-.985 7.651-1.462 2.63-.727 4.75-1.37 5.55-1.683a17.705 17.705 0 0 1 1.387-.48c.516-.14 5.234-2.204 6.623-2.898 2.969-1.482 6.016-3.327 8.973-5.432 1.709-1.217 1.71-1.218 2.47-1.143 1.34.13 7.601 1.605 9.39 2.21.361.123 1.577.528 2.702.9 1.124.373 2.209.76 2.41.86.2.099.595.23.876.29.28.059.685.231.899.382.213.15.46.274.548.274.184 0 4.045 1.775 5.782 2.659 2.93 1.49 6.619 3.781 10.15 6.305 1.468 1.049 4.605 3.563 5.079 4.07l.332.356-2.742.09c-12.716.416-25.049 5.207-35.164 13.66-3.395 2.836-7.731 7.606-10.5 11.549-9.604 13.678-13.288 31.474-9.933 47.98 1.43 7.033 4.184 14.122 7.778 20.015.748 1.227 1.099 1.932.992 1.992-.158.09-2.05.308-4.255.492-.563.047-1.877.179-2.921.293-1.044.114-3.936.31-6.426.436-2.49.125-5.316.291-6.28.369-2.392.193-15.972.283-22.052.146zm3.724-113.41c-5.975-.742-8.756-1.422-13.582-3.319-5.505-2.164-10.728-5.297-15.416-9.249-2.15-1.812-5.94-5.703-7.668-7.874-5.6-7.035-9.156-13.912-11.894-23.002-1.677-5.564-2.62-12.396-2.62-18.985 0-7.91 1.17-14.999 3.685-22.345 6.723-19.63 21.664-34.108 40.083-38.839 4.919-1.263 6.698-1.466 12.892-1.467 5.939-.002 7.603.184 12.556 1.403 14.417 3.547 27.294 13.648 35.27 27.667 4.603 8.091 7.319 16.681 8.423 26.644.36 3.254.361 10.432 0 13.8-.894 8.365-2.938 15.576-6.535 23.054-6.396 13.3-17.754 24.137-30.537 29.135-4.372 1.71-7.614 2.558-12.17 3.186-2.891.398-9.948.506-12.487.19zm8.864-17.598c11.414-.913 22.262-7.863 29.173-18.69 1.147-1.795 3.152-5.76 3.916-7.74 3.4-8.817 4.255-18.212 2.493-27.383-1.445-7.521-4.72-14.721-9.336-20.519-2.383-2.994-6.53-6.728-9.918-8.929-4.153-2.698-9.652-4.78-14.458-5.472-2.473-.357-7.128-.428-9.42-.145-9.233 1.142-17.589 5.581-23.973 12.739-3.519 3.944-5.831 7.563-7.842 12.274-3.065 7.182-4.245 14.112-3.833 22.517.349 7.112 2.447 14.432 5.889 20.54 6.012 10.673 15.846 18.156 26.692 20.312 2.907.578 7.132.775 10.617.496zm-7.702-27.807c-3.455-.822-6.07-2.327-8.539-4.917-2-2.099-3.354-4.484-4.117-7.26-.363-1.32-.39-1.617-.39-4.41 0-2.79.027-3.089.39-4.409.806-2.93 2.37-5.566 4.587-7.733 1.717-1.678 3.379-2.754 5.899-3.82.29-.122 1.242-.398 2.118-.614 1.38-.34 1.893-.392 3.863-.393 1.948 0 2.488.053 3.797.375 2.64.65 4.293 1.43 6.403 3.02 4.408 3.32 6.733 7.994 6.733 13.533 0 4.703-1.452 8.392-4.609 11.71-2.448 2.572-5.21 4.13-8.827 4.98-1.823.427-5.374.397-7.308-.062z" style="fill:#fff;stroke-width:.146043"/></svg>