<svg xmlns="http://www.w3.org/2000/svg" width="201.016" height="201.016" viewBox="0 0 53.185 53.185"><path d="M54.037 210.15c0-2.259.085-3.044.33-3.045 1.329 0 6.18-.596 6.573-.806 1.017-.544 1.076-1.767.987-20.65-.083-17.829-.096-18.228-.616-18.748-.652-.651-2.737-1.07-5.326-1.07h-1.948v-5.821h49.212v22.225l-2.447-.004c-3.738-.006-3.483.22-3.847-3.42-.699-6.985-2.319-10.668-5.265-11.972-1.446-.64-6.05-.995-12.98-1.003l-5.359-.006v16.404h.643c1.477 0 4.859-.604 5.872-1.048 1.453-.638 2.391-2.533 2.951-5.96l.411-2.517h5.734v26.476l-2.977-.075-2.976-.075-.06-1.322c-.079-1.7-.577-4.47-1.048-5.818-.782-2.24-2.459-3.143-6.455-3.477l-2.064-.172.155 8.173c.085 4.495.251 8.434.37 8.754.412 1.116 1.346 1.433 5.13 1.744l3.591.295-.074 2.923-.075 2.923-14.22.069-14.222.068z" style="fill:#fff;stroke-width:.264583" transform="translate(-52.065 -160.01)"/></svg>