<svg xmlns="http://www.w3.org/2000/svg" width="300mm" height="300mm" viewBox="0 0 300 300"><path d="M240.417 282.038c-19.34-3.645-36.33-12.392-42.809-22.04-6.523-9.712-5.828-19.732 3.801-54.793 12.816-46.662 12.673-53.554-1.931-93.485-8.883-24.288-14.44-43.903-15.505-54.722-.474-4.824-1.256-8.319-1.737-7.767-.48.552-2.343 5.305-4.14 10.563-4.88 14.292-12.525 29.331-23.387 46.008-12.136 18.634-22.907 40.37-26.864 54.211-4.172 14.596-6.594 34.652-6.702 55.493-.05 9.66-.475 23.864-.946 31.564-.949 15.525-2.131 17.953-10.913 22.418-14.08 7.158-55.522 7.752-69.144.99-6.88-3.414-9.89-8.534-12.722-21.645l-2.095-9.697-4.157 8.32c-2.286 4.576-5.268 9.53-6.626 11.01-3.45 3.756-8.403 3.502-11.656-.598C.635 255.034.37 253.593.958 247.41c1.648-17.347 10.346-40.942 28.411-77.078 15.296-30.597 24.088-43.9 33.715-51.013 4.05-2.992 15.16-9.15 24.69-13.685 40.1-19.081 47.504-24.487 62.785-45.84 8.539-11.934 17.28-29.572 17.28-34.868 0-4.564 3.497-8.75 7.308-8.75 1.39 0 4.225 1.852 6.3 4.117l3.772 4.118 3.793-2.402c5.423-3.433 8.157-1.605 10.534 7.041 9.363 34.061 16.447 44.915 54.379 83.324 15.752 15.95 28.191 29.56 29.638 32.43 4.375 8.672 6.308 28.128 8.692 87.452l1.407 35.036-5.85 5.987c-3.216 3.293-7.462 6.844-9.434 7.891-4.995 2.653-25.946 3.132-37.96.867zm24.63-173.895c-16.008-3.167-26.985-16.632-25.052-30.73.905-6.606 3.532-11.725 8.938-17.421 6.405-6.748 11.873-9.162 20.734-9.154 13.794.014 21.276 3.877 26.307 13.588 3.365 6.495 3.717 23.25.61 29.032-2.469 4.594-10.829 11.63-16.766 14.111-4.73 1.977-7.195 2.073-14.772.574zM76.724 91.942c-11.879-3.653-19.228-15.284-19.252-30.469-.014-7.9.451-9.9 3.583-15.444 12.63-22.355 49.998-17.334 57.226 7.69 7.381 25.554-15.204 46.326-41.557 38.223z" style="fill:#fff;stroke-width:1.19501"/></svg>