<svg xmlns="http://www.w3.org/2000/svg" width="472.403" height="448.97" viewBox="0 0 124.99 118.79"><path d="m85.386 210.01-29.633-29.634 29.7-29.7 29.699-29.699v29.896l-14.75 14.752-14.75 14.75 14.752 14.755 14.752 14.753-.068 14.88-.069 14.88zm33.999 14.944V210.14l14.817-14.815 14.816-14.815-14.816-14.818-14.817-14.819v-29.78l30.68 29.637 30.678 29.638-4.022 3.927c-2.212 2.16-14.5 14.026-27.306 26.369-12.806 12.343-24.801 23.941-26.657 25.773l-3.373 3.33zm-14.95-33.995-10.58-10.584 10.648-10.649 10.649-10.648v21.232c0 11.678-.03 21.233-.068 21.233-.037 0-4.829-4.763-10.648-10.584z" style="fill:#fff;stroke-width:.264583" transform="translate(-55.753 -120.977)"/></svg>