<svg xmlns="http://www.w3.org/2000/svg" width="1000mm" height="1000mm" viewBox="0 0 1000 1000"><path d="M639.654 973.37c-10.011-1.484-16.88-7.808-19.182-17.66-.609-2.606-.66-12.08-.401-74.833.216-52.594.15-73.697-.246-78.748-1.538-19.593-5.234-34.843-11.938-49.247-4.353-9.353-8.822-15.986-15.622-23.188-2.52-2.669-3.694-4.228-3.28-4.359.353-.112 4.323-.668 8.822-1.236 41.108-5.192 75.107-14.95 103.759-29.779 17.777-9.2 31.302-18.956 44.808-32.32 36.493-36.105 55.697-86.424 59.455-155.786.614-11.33.343-35.478-.484-43.105-4.338-40.016-19.025-74.857-44.084-104.573l-3.922-4.65 1.582-4.622c3.264-9.539 5.915-21.826 7.21-33.421.908-8.143.775-29.027-.24-37.59-1.74-14.669-4.593-27.549-9.223-41.634-3.643-11.086-3.972-11.755-6.027-12.268-2.505-.625-15.633-.57-20.097.083-29.463 4.314-65.997 20.75-104.594 47.053l-4.807 3.276-9.683-2.51c-25.158-6.52-51.29-10.74-79.555-12.846-13.478-1.004-45.141-1.14-57.955-.25-30.661 2.134-61.927 7.217-86.436 14.053l-5.812 1.622-3.302-2.263c-18.17-12.452-43.422-26.655-60.79-34.192-16.442-7.134-31.447-11.663-45.27-13.664-4.927-.713-16.912-.898-20.164-.311-2.31.417-2.539.868-6.305 12.389-4.557 13.937-7.401 26.945-9.17 41.942-.994 8.417-1.138 28.588-.261 36.396 1.4 12.466 4.1 25.176 7.255 34.163l1.636 4.662-3.167 3.665c-11.153 12.906-22.104 30.149-28.996 45.655-6.915 15.558-11.597 31.417-14.243 48.247-2.14 13.611-2.37 17.263-2.326 37.044.04 19.491.585 29.059 2.55 44.965 8.433 68.272 35.794 117.732 82.706 149.504 30.751 20.827 72.373 34.787 122.455 41.071 4.498.565 8.465 1.117 8.815 1.227.402.127-.978 1.922-3.739 4.864-4.864 5.184-8.47 10.117-12.003 16.424-6.029 10.758-10.927 25.364-13.01 38.791l-.82 5.285-3.994 1.707c-16.708 7.14-33.551 10.793-50.03 10.848-9.91.03-16.095-.686-24.538-2.853-22.507-5.774-42.314-20.944-56.937-43.608a6994.83 6994.83 0 0 1-6.17-9.58c-4.443-6.917-9.749-13.414-16.763-20.525-12.695-12.872-24.664-20.356-38.612-24.146-5.183-1.409-5.734-1.462-15.424-1.491-8.227-.025-10.644.126-13.333.828-6.006 1.569-9.101 4.263-9.101 7.921 0 5.53 8.009 14.083 20.097 21.465 6.868 4.194 9.33 6.21 15.294 12.526 12.953 13.718 28.766 39.262 36.738 59.346 5.36 13.505 10.027 21.084 18.535 30.098 25.757 27.292 69.57 36.66 129.164 27.621 4.328-.657 8.85-1.38 10.048-1.608 1.199-.228 2.262-.33 2.363-.227.421.428.862 91.963.456 94.558-1.235 7.894-5.208 13.661-11.74 17.043-4.339 2.247-8.144 2.94-14.605 2.66-4.988-.215-6.203-.452-10.983-2.142-38.885-13.745-75.154-32.09-109.303-55.282-62.137-42.2-113.104-97.701-150.318-163.687-33.176-58.823-53.964-125.03-60.508-192.706-1.807-18.693-2.106-25.631-2.111-49.01-.005-23.41.284-30.108 2.111-49.009C38.345 311.95 120.815 177.157 247.035 96.724c44.99-28.669 96.442-50.109 148.374-61.826 37.922-8.556 72.88-12.157 111.96-11.533 18.102.289 25.045.673 40.895 2.265 127.487 12.799 244.66 77.683 325.595 180.298 57.555 72.972 93.516 162.618 102.499 255.515 1.803 18.649 2.11 25.665 2.119 48.534.01 23.022-.323 30.7-2.136 49.485-7.444 77.077-33.55 152.28-75.566 217.682-53.948 83.975-132.947 149.861-223.513 186.414-16.333 6.592-24.546 9.374-29.124 9.865-4.809.516-4.646.517-8.484-.053z" style="fill:#fff;stroke-width:.471582"/></svg>