<svg xmlns="http://www.w3.org/2000/svg" width="713.268" height="713" viewBox="0 0 188.719 188.648"><path d="M316.137 293.052c-38.23-4.708-70.278-32.636-80.003-69.716-6.651-25.36-1.94-54.52 12.272-75.966 9.201-13.882 26.43-28.518 40.56-34.453 36.85-15.48 76.592-8.326 104.408 18.794 24.424 23.812 33.978 58.198 25.45 91.598-8.732 34.2-38.219 61.93-72.912 68.571-8.175 1.565-22.124 2.114-29.775 1.172zm7.577-20.582v-13.891h-14.312c-7.871 0-14.312.218-14.312.484 0 1.05 7.22 12.916 11.593 19.054 4.258 5.977 4.897 6.525 8.091 6.935 3.309.424 6.952.948 8.309 1.194.347.063.631-6.136.631-13.776zm17.505 12.537c1.975-.395 3.62-1.985 7.188-6.946 4.45-6.188 11.508-17.802 11.508-18.935 0-.301-6.44-.547-14.312-.547h-14.312v26.94h3.683c2.026 0 4.836-.23 6.245-.512zm-46.18-10.433c-2.297-3.704-5.198-8.818-6.447-11.365l-2.271-4.63h-21.869l2.902 3.03c5.211 5.444 12.808 10.78 21.757 15.28 4.833 2.431 9.084 4.42 9.447 4.42.362 0-1.22-3.03-3.518-6.735zm70.855 2.316c8.95-4.502 16.547-9.837 21.758-15.28l2.901-3.031h-22.015l-1.013 2.446c-.557 1.345-3.4 6.46-6.319 11.365-2.918 4.906-5.034 8.92-4.702 8.92.331 0 4.557-1.99 9.39-4.42zm-85.721-34.383c-2.86-8.753-5.606-22.678-6.585-33.389l-.558-6.104h-32.07l.522 6.525c.926 11.594 6.183 26.288 13.286 37.138l2.832 4.325h25.348zm43.541-15.499v-23.994h-43.02l.51 5.262c1.35 13.951 3.19 22.733 7.318 34.938l2.634 7.788h32.559zm42.77 16.206c4.128-12.205 5.967-20.987 7.317-34.938l.51-5.262h-43.02v47.988h32.559zm33.753 3.463c6.532-9.977 11.975-24.497 13.116-34.988.292-2.687.708-5.739.924-6.78l.393-1.895H381.925l-.508 4.841c-1.263 12.025-3.97 25.974-6.637 34.196l-2.902 8.95h25.528zM273.201 194.14c0-8.492 3.814-29.288 7.195-39.227 1.136-3.341 2.066-6.387 2.066-6.77 0-.381-5.594-.694-12.431-.694H257.6l-2.832 4.325c-7.13 10.89-12.348 25.618-13.31 37.559l-.491 6.103h16.117c13.949 0 16.117-.174 16.117-1.296zm50.513-22.697V147.45h-32.559l-2.633 7.788c-4.128 12.205-5.967 20.986-7.318 34.938l-.51 5.261h43.02zm50.087 18.732c-1.35-13.952-3.19-22.733-7.317-34.938l-2.634-7.788H331.29V195.437h43.02zm39.723-1.263c-.927-11.594-6.184-26.288-13.287-37.138l-2.831-4.325h-12.882c-12.177 0-12.837.084-12.065 1.526 3.089 5.772 7.659 26.572 8.959 40.779l.52 5.682h32.107zm-124.853-53.88c1.293-2.663 4.065-7.61 6.16-10.995 2.094-3.384 3.667-6.294 3.494-6.467-.172-.173-3.431 1.152-7.242 2.943-8.358 3.928-17.797 10.331-22.898 15.532l-3.753 3.827H286.321zm35.043-8.63v-13.47h-3.683c-7.454 0-8.478.569-13.432 7.458-4.45 6.188-11.509 17.802-11.509 18.935 0 .301 6.44.547 14.312.547h14.312zm36.201 13.125c0-1.028-7.571-13.586-11.538-19.137-4.924-6.892-5.941-7.458-13.403-7.458h-3.683v26.94h14.312c7.872 0 14.312-.155 14.312-.345zm26.905-3.482c-5.135-5.236-14.593-11.637-23.049-15.6-3.878-1.817-7.26-3.304-7.516-3.304-.257 0 1.413 3.031 3.71 6.735 2.298 3.705 5.2 8.819 6.449 11.366l2.27 4.63h21.89z" style="fill:#fff;stroke-width:.841881" transform="translate(-233.165 -104.867)"/></svg>