<svg xmlns="http://www.w3.org/2000/svg" width="300mm" height="300mm" viewBox="0 0 300 300"><path d="M233.55 205.454c-5.664-.45-8.94-.982-13.092-2.124-12.456-3.427-23.356-11.532-29.713-22.096-1.695-2.816-3.035-5.757-4.127-9.054l-.68-2.054-.32.564c-.175.31-.598 1.088-.94 1.73-3.726 6.996-10.518 14.935-17.313 20.237-8.48 6.616-18.559 10.707-29.823 12.103-11.034 1.367-21.327-.24-30.34-4.738-5.048-2.519-9.47-5.699-13.424-9.653-3.656-3.657-6.076-6.998-8.396-11.598-3.636-7.206-5.263-14.956-5.075-24.175.17-8.373 1.95-15.646 5.68-23.222 1.433-2.909 2.377-4.553 4.195-7.305 4.473-6.771 10.072-12.77 16.205-17.36 9.395-7.034 20.08-11.157 32.665-12.605 2.466-.284 9.093-.322 11.408-.066 9.128 1.01 16.905 4.093 24.234 9.609 5.986 4.505 10.429 10.079 14.002 17.567.536 1.125.975 2.201.975 2.393 0 .39-.513.953-1.055 1.158-.188.071-1.734.488-3.435.926-1.701.439-5.513 1.438-8.472 2.22-10.775 2.851-14.755 3.87-15.108 3.87-.603 0-1.369-.567-2.455-1.817-2.472-2.847-4.342-4.32-7.246-5.709-6.09-2.913-12.454-3.33-18.705-1.225-3.106 1.046-7.535 3.538-10.407 5.855-5.687 4.59-9.543 10.753-10.934 17.48-.594 2.87-.671 3.722-.667 7.323.004 3.25.024 3.526.363 5.12 1.076 5.056 3.193 8.938 6.72 12.315 3.658 3.505 7.969 5.489 13.264 6.106 2.141.25 5.509.187 7.454-.14 4.624-.775 8.634-2.597 12.432-5.647 1.528-1.227 3.98-3.724 5.022-5.115 1.048-1.4 2.897-4.038 2.897-4.135 0-.043-6.493-.078-14.43-.078-16.16 0-15.351.045-16.203-.898-.56-.62-.71-1.372-.473-2.37.304-1.283 3.385-8.17 6.223-13.916 1.812-3.667 2.293-4.364 3.414-4.956l.664-.35 23.988-.034 23.988-.034.299-.938c.164-.516.649-1.813 1.076-2.883 4.449-11.12 13.254-22.253 22.946-29.012 5.765-4.02 12.692-7.122 20.126-9.012 11.114-2.825 21.454-3.313 30.353-1.434 8.02 1.693 15.305 5.275 21.951 10.792 1.664 1.38 4.67 4.371 6.078 6.046 5.244 6.24 8.448 13.337 9.858 21.842.732 4.418.948 11.632.476 15.944-1.018 9.312-3.851 17.19-8.923 24.817-3.713 5.583-9.095 11.365-14.529 15.606-7.689 6.001-16.66 10.202-26.75 12.526-2.378.548-4.523.847-9.301 1.299-3.767.356-5.166.42-6.62.305zm9.981-28.04c4.412-.733 8.341-2.372 12.771-5.326 7.705-5.137 12.415-12.312 13.913-21.191.44-2.604.527-4.179.354-6.347-1.212-15.202-14.352-25.16-29.248-22.165-3.377.679-6.229 1.648-9.327 3.172-3.3 1.623-5.823 3.435-8.321 5.98-1.632 1.662-2.382 2.593-3.697 4.587-1.937 2.937-3.59 6.721-4.569 10.461-.612 2.34-.843 3.841-.934 6.066-.338 8.3 3.622 16.17 10.444 20.758 3.403 2.289 7.676 3.793 12.107 4.261 1.559.165 4.725.04 6.507-.256zm-195.8-22.946c-6.238-.037-11.415-.114-11.504-.172a.393.393 0 0 1-.162-.293c0-.217 2.114-4.015 2.44-4.383.543-.614.127-.598 15.818-.598 17.022 0 15.38-.138 15.34 1.29-.03 1.115-.255 3.407-.36 3.68-.219.571-.55.606-5.524.573-2.588-.017-9.81-.061-16.048-.097zM.903 140.916a.43.43 0 0 1-.097-.256c0-.225 3.245-4.337 3.672-4.654l.366-.27 33.776-.034c24.927-.024 33.823.005 33.953.113.287.238.208.744-.393 2.518-.75 2.21-.702 2.114-1.147 2.344-.347.18-4.112.208-35.21.272-19.152.039-34.866.024-34.92-.033zm34.708-13.283c-6.987-.037-12.718-.081-12.736-.098-.266-.253 2.997-4.634 3.764-5.053.393-.215 1.9-.23 26.704-.262 18.09-.023 26.367.008 26.541.102.14.075.253.265.252.423-.003.428-2.698 4.377-3.226 4.726l-.44.292-14.078-.031c-7.743-.017-19.794-.062-26.781-.099z" style="fill:#fff;stroke-width:.129626"/></svg>