<svg xmlns="http://www.w3.org/2000/svg" width="190mm" height="297mm" viewBox="0 0 190 297"><path d="M140.355 293.95c-.184-1.42-1.884-19.92-3.778-41.11-1.894-21.192-3.58-38.53-3.747-38.53-.168 0-1.46 5.646-2.871 12.548-1.412 6.901-2.884 13.478-3.271 14.614-.538 1.577-33.702 51.017-35.769 53.322-.338.377-19.544-11.413-21.477-13.184-.278-.254 6.333-11.714 14.69-25.467l15.196-25.004 6.747-34.544c7.694-39.39 7.356-35.16 4.578-57.278-2.241-17.84-4.869-26.404-9.953-32.441-3.065-3.64-4.889-7.48-5.662-11.921-1.63-9.361 3.564-19.82 11.905-23.974 2.012-1.001 47.194-13.742 48.734-13.742.172 0 .17-.373-.004-.829-.279-.726-20.024-25.901-21.99-28.037-.63-.684-1.917.086-7.89 4.724-6.452 5.008-7.106 5.688-6.812 7.071.586 2.75-.865 9.554-2.948 13.828-5.116 10.497-16.919 16.824-28.137 15.083-2.194-.34-4.712-.894-5.594-1.23-1.427-.541-1.907-.357-4.323 1.656-1.494 1.246-17.93 14.552-36.523 29.57-18.593 15.016-33.805 27.42-33.805 27.564 0 .144.863.624 1.919 1.066 2.897 1.214 5.235 3.416 10.75 10.12 6.518 7.925 7.61 9.826 7.661 13.339.078 5.298-3.902 8.374-10.92 8.438-3.594.033-4.357-.168-6.59-1.734-3.197-2.243-5.59-6.903-8.465-16.484-2.473-8.242-2.618-13.08-.472-15.808.672-.855 17.478-15.015 37.346-31.468l36.125-29.914-2.99-2.99c-13.206-13.206-9.274-35.8 7.655-43.986 3.987-1.928 5.05-2.176 10.232-2.393 6.537-.273 9.64.36 14.714 3.005 3.14 1.636 8.89 6.947 10.33 9.541.577 1.042 1.068.758 6.02-3.476l5.39-4.61-1.469-1.926-1.468-1.925 6.907-5.953 6.906-5.953 1.788 1.725 1.787 1.725 3.476-2.872 3.476-2.872 3.461 4.235c1.904 2.33 3.462 4.406 3.463 4.614 0 .209-1.328 1.393-2.952 2.631-1.624 1.239-2.952 2.397-2.95 2.573 0 .177 8.675 9.615 19.276 20.973 10.6 11.359 19.634 21.514 20.074 22.568 2.182 5.22-.218 12.105-5.104 14.642-.812.422-9.98 3.064-20.372 5.872-10.393 2.808-19.218 5.216-19.613 5.35-.478.165.152 1.88 1.887 5.145 5.793 10.897 8.793 21.14 11.222 38.315 2.366 16.73 3.105 29.592 5.34 92.948 1.17 33.127 2.28 63.312 2.469 67.078l.343 6.848-8.205.405c-4.513.223-9.826.562-11.806.754l-3.6.348z" style="fill:#fff;stroke-width:.590492"/></svg>