<svg xmlns="http://www.w3.org/2000/svg" width="449.133" height="439.772" viewBox="0 0 118.833 116.356"><path d="M87.034 258.025c-.536-2.395-.819-2.542-2.72-2.2-1.2.228-2.231.365-2.291.305-.114-.114 2.907-1.53 3.436-1.61.855-.13.985-.496.963-3.255l-.07-8.862c2.023.623 1.844 2.604 2.26 1.237.122 0-.058 6.318-.016 7.733.066 2.26.14 2.605.605 2.847.947.493 3.042 1.772 3.042 1.858 0 .046-.724-.086-1.61-.292-.884-.207-1.73-.3-1.879-.209-.148.092-.476.628-.729 1.192-.495.774-1.074 3.586-.991 1.256zm19.504-1.134c-.453-1.37-.724-1.486-2.513-1.07-.865.2-1.602.336-1.638.3-.036-.035.733-.543 1.709-1.128l1.773-1.064.075-2.647-.03-7.893c.679-.647 1.356-1.096 2.295-1.222.094 0-.074 7.226-.033 8.92.059 2.422.16 3.122.471 3.275.219.107 1.151.534 2.072.947.922.414 1.571.788 1.443.83-.128.043-1.12-.091-2.204-.297-2.268-.432-2.634-.284-2.634 1.06 0 1.152-.404 1.147-.786-.011zm-12.443-10.63c-2.636-.481-3.59-.819-6.877-2.429-1.527-.748-2.53-1.52-4.366-3.36-2.454-2.46-3.693-4.264-4.788-6.976-1.272-3.148-1.556-4.727-1.556-8.64 0-3.915.284-5.493 1.556-8.642.967-2.395 2.231-4.336 4.21-6.466 9.743-10.487 26.21-7.89 32.744 5.162 1.675 3.346 2.184 5.628 2.193 9.813.009 4.38-.41 6.267-2.204 9.922-2.707 5.517-6.968 9.234-12.577 10.973-1.808.56-6.718.94-8.335.644zm-17.465-32.79c-.31-.724-.728-1.497-.93-1.72-.296-.327-.311-.76-.08-2.315.205-1.383.203-2.009-.008-2.263-.221-.267-1.208-.337-4.143-.292l-3.853.06-2.04 2.05c-1.428 1.436-2.543 2.288-3.72 2.843-2.015.951-2.148.848-2.147-1.663.003-3.873.766-6.451 2.837-9.58.57-.862.627-1.116.374-1.672-.164-.36-.422-.654-.573-.654-.152 0-1.24.833-2.42 1.852-2.888 2.496-5.053 3.877-7.053 4.5-1.894.588-7.656 1.48-7.912 1.222-.093-.093-.024-.957.153-1.92.747-4.054 3.697-8.123 9.756-13.457 1.156-1.018 1.44-1.883.711-2.162-.231-.09-1.773.488-3.505 1.314-6.182 2.944-8.813 3.772-11.096 3.491-1.255-.154-1.39-.233-1.39-.823 0-.787.76-2.327 2.204-4.468 2.423-3.596 3.963-4.933 8.03-6.972 2.371-1.189 2.71-1.505 2.167-2.025-.269-.259-.701-.29-1.685-.123-1.93.328-8.293.301-9.525-.04-1.177-.326-3.832-2.742-3.418-3.112.134-.12 1.672-.542 3.418-.938 9.148-2.076 14.685-3.933 14.685-4.925 0-.268-.122-.563-.272-.655-.149-.092-2.084-.573-4.3-1.07-4.796-1.072-8.424-2.206-10.774-3.368-2.696-1.332-3.368-2.712-3.67-7.53-.274-4.35.046-7.786.955-10.253.429-1.164 1.024-2.592 1.323-3.173l.543-1.056.875 1.982c2.73 6.185 6.344 12.485 8.398 14.64 2.076 2.18 4.303 3.24 8.642 4.115l2.38.48.194 2.883c.43 6.429 1.245 9.389 3.78 13.731 4.275 7.323 11.325 13.943 17.62 16.547 2.26.934 8.012 2.528 10.554 2.923 2.512.39 10.227.147 12.957-.41 6.303-1.285 11.247-4.127 16.544-9.513 3.711-3.774 6.87-8.305 8.562-12.28 1.125-2.644 1.652-5.398 1.82-9.508.135-3.294.178-3.518.702-3.639.306-.07 1.416-.304 2.466-.52 4.365-.892 6.838-2.252 8.923-4.906 1.881-2.394 4.618-7.166 6.617-11.536.99-2.164 1.837-3.977 1.881-4.027.162-.184 1.449 2.62 2.131 4.641.562 1.665.723 2.733.832 5.505.25 6.39-.697 10.059-2.932 11.36-1.588.925-7.699 2.882-11.555 3.7l-3.874.823c-.702.149-1.024.903-.568 1.333 1.032.974 11.136 3.968 16.946 5.021.547.1 1.06.285 1.139.413.08.128-.431.808-1.135 1.512-.92.92-1.623 1.365-2.513 1.589-1.359.342-7.577.395-9.482.08-1.463-.242-1.836-.14-1.836.498 0 .337.47.703 1.521 1.183 4.895 2.239 8.024 5.258 10.48 10.116 1.053 2.08.972 2.385-.69 2.59-2.27.278-5.223-.633-11.284-3.48-3.187-1.497-3.6-1.615-3.799-1.085-.237.632.215 1.195 2.846 3.55 3.168 2.837 5.008 5.055 6.474 7.807.986 1.85 2.092 5.63 1.748 5.974-.228.23-5.122-.482-7.111-1.033-2.68-.743-4.408-1.742-7.565-4.377l-2.75-2.295-.49.606c-.481.594-.478.625.19 1.702 1.829 2.947 2.486 4.735 2.747 7.478.26 2.723.135 4.599-.306 4.599-.135 0-.923-.32-1.751-.71-1.436-.678-4.208-3.16-5.97-5.347l-.723-.897-3.756.279c-2.066.153-3.96.36-4.21.458-.73.291-.802 1.083-.202 2.259.575 1.127.546 1.841-.075 1.841-.193 0-.821-.617-1.396-1.37-2.057-2.697-5.825-5.34-9.437-6.618-7.564-2.676-15.875-.829-21.652 4.813-1.832 1.789-2.708 2.938-4.434 5.813l-.551.919zm15.216-14.944c-2.446-.371-8.863-2.226-8.863-2.561 0-.076.85-1.287 1.89-2.69 2.093-2.828 3.37-5.294 5.089-9.832l1.149-3.033-.878-2.052c-1.163-2.716-1.611-4.283-1.965-6.862-.355-2.598-.16-3.95.725-5.001 1.238-1.473 2.122-1.687 6.765-1.643 2.405.022 4.594.173 5.16.356 1.48.477 4.416 2.76 5.337 4.15.449.677 1.103 2.14 1.454 3.252 1.02 3.226 2.242 12.475 2.683 20.294l.182 3.24-1.162.51c-1.616.712-4.976 1.53-7.637 1.86-2.509.312-7.91.318-9.929.012zm.138-4.568c.618-1.332 1.466-3.433 1.884-4.669.677-2.002.717-2.291.361-2.646-.56-.562-.97-.047-1.565 1.963-.259.873-1.071 2.865-1.806 4.425-1.084 2.302-1.276 2.91-1.015 3.226.55.663.977.205 2.14-2.3zm6.477-2.445c0-4.847-.019-5.023-.53-5.023-.506 0-.531.2-.6 4.753-.04 2.615-.011 4.915.065 5.113.075.198.346.319.601.27.423-.082.464-.536.464-5.113zm6.884 4.626c.093-.15-.122-.775-.477-1.39-1.119-1.934-1.834-4.218-2.007-6.407-.148-1.885-.225-2.117-.696-2.117-.454 0-.541.206-.617 1.455-.11 1.841.323 3.822 1.324 6.054 1.08 2.407 1.95 3.252 2.473 2.405zm-5.164-14.564c1.468-.335 3.226-1.503 3.117-2.071-.123-.64-.893-.65-1.74-.025-.881.652-2.35 1.042-3.957 1.051-.912.005-1.124.098-1.124.492 0 .266.08.564.176.661.26.26 2.167.202 3.528-.108zm-3.071-8.682c2.37-2.474-.46-6.857-3.092-4.788-.836.658-1.345 2.114-1.112 3.178.5 2.277 2.742 3.136 4.204 1.61zm-21.678 8.055c.486-2.727 3.148-7.389 4.878-8.543.78-.52 1.236-.6 3.44-.596 1.397.002 4.931.37 5.084.478.234.163.364 2.252.364 2.912 0 .112-2.878.302-4.297.39-4.197.258-5.351.881-7.94 4.286-1.706 2.243-1.742 2.269-1.53 1.073zm5.236-1.756c-.689-.244 2.393-1.579 4.27-1.85 2.968-.43 5.669-1.118 6.132.06l.115 1.736-6.125.129c-2.176.045-4.152.01-4.392-.075z" style="fill:#fff;stroke-width:.264583" transform="translate(-36.356 -142.574)"/></svg>