<svg xmlns="http://www.w3.org/2000/svg" width="459.473" height="458.274" viewBox="0 0 121.569 121.252"><path d="m76.718 184.456-.747-.27 2.982-8.135 3.673-3.279 6.267-.077 2.72 8.855-10.145.105-1.116-.837-3.835 5.16zM80.63 258.485l7-.542 1.381 3.648 2.022-3.55 6.409 1.48-6.2-4.45.333-7.728-3.747-1.874-.74 1.775.132 8.092zM101.041 258.78c.296-.049 5.682-3.512 5.682-3.512l-.11-8.172 3.845-1.923.419 10.304 6.638 3.537-7.495-.836-.907 2.876-2.109-2.824z" style="fill:#f60;stroke:#000;stroke-width:.264583px;stroke-linecap:butt;stroke-linejoin:miter;stroke-opacity:1" transform="translate(-36.689 -141.88)"/><path d="M62.098 232.322c-3.459-.417-7.479-2.285-10.577-4.913-2.828-2.4-5.35-6.619-6.462-10.812-.795-2.995-.8-8.142-.011-11.112.734-2.768 2.584-6.466 4.264-8.527 2.596-3.183 6.619-5.787 10.59-6.854 2.121-.57 7.164-.636 9.26-.122 7.57 1.856 13.479 7.903 15.35 15.707.711 2.968.715 7.723.007 10.674-2.524 10.527-11.933 17.225-22.42 15.959zm-17.663-33.187c-.354-.8-.753-1.456-.886-1.456-.148 0-.148-.526 0-1.339.134-.737.207-1.779.163-2.315l-.082-.976-3.955-.073-3.956-.074-1.997 1.952c-2.24 2.19-3.085 2.807-4.7 3.437l-1.113.434-.181-.968c-.264-1.408.318-6.135.931-7.567.29-.676.956-1.9 1.48-2.72.991-1.548 1.096-2.378.358-2.84-.34-.213-.668-.07-1.514.653-.939.804-1.424.985-3.72 1.386-2.468.433-2.91.614-6.82 2.811-2.3 1.292-4.525 2.432-4.945 2.534l-.763.184.192-1.294c.643-4.345 3.854-9.08 9.144-13.487 1.444-1.203 1.848-1.694 1.848-2.248 0-1.063-.583-1.398-2.081-1.2-1.353.18-5.202 1.403-6.528 2.076-.978.495-6.456 2.055-7.218 2.055-.5 0-.534-.079-.299-.698.45-1.182 3.103-5.083 4.401-6.471 1.313-1.403 4.011-3.207 6.5-4.345 2.33-1.066 2.043-1.666-1.125-2.35-1.092-.236-4.062-.668-6.602-.96-2.953-.34-4.844-.68-5.248-.944-.347-.227-.572-.473-.499-.546.073-.073 2.613-.719 5.646-1.435 5.681-1.342 9.4-2.477 11.452-3.495 2.318-1.15 1.778-1.595-3.315-2.734-4.42-.988-8.821-2.348-11.151-3.448-2.627-1.239-3.255-2.9-3.435-9.086-.151-5.188.164-7.085 1.723-10.374l1.04-2.194 1.28 2.778c4.286 9.306 7.774 14.383 11.011 16.03 1.264.644 3.893 1.422 6.63 1.963l1.522.301.005 2.032c.007 2.818.64 7.295 1.314 9.294 2.117 6.285 8.037 13.896 14.453 18.58 3.477 2.538 8.433 4.516 14.523 5.797 4.808 1.01 13.32.555 18.124-.97 6.805-2.162 13.85-8.045 18.884-15.766 3.176-4.873 4.193-7.955 4.677-14.165.167-2.153.427-3.99.576-4.082.15-.093.882-.25 1.627-.347 1.995-.26 5.861-1.622 7.175-2.526 2.548-1.753 5.086-5.548 8.751-13.081l2.438-5.01.792 1.57c1.86 3.69 2.557 8.525 1.944 13.495-.39 3.16-.937 4.686-2.016 5.634-1.627 1.429-8.42 3.659-14.686 4.82-1.91.355-2.38.613-2.38 1.308 0 .97 7.44 3.411 15.742 5.166 2.521.533 2.81.734 2.094 1.45-.393.394-1.143.604-2.9.814a205.16 205.16 0 0 0-5.809.82c-1.892.295-3.916.552-4.498.572-.876.03-1.072.136-1.141.62-.07.493.257.754 2.117 1.689 4.54 2.281 6.06 3.672 8.812 8.054 1.511 2.407 1.832 3.44.994 3.203-.255-.072-1.118-.214-1.918-.315-1.848-.234-2.381-.438-4.54-1.737-1.476-.887-2.186-1.123-4.366-1.451-1.432-.216-3.138-.357-3.792-.315-1.86.12-1.737.73.569 2.807 5.962 5.368 8.734 9.45 9.15 13.477l.15 1.466-.702-.176c-.387-.097-2.502-1.188-4.7-2.424-3.764-2.114-4.154-2.272-6.653-2.687-2.401-.399-2.766-.538-3.823-1.453-1.35-1.167-1.831-1.254-2.221-.398-.238.522-.116.876.818 2.365 1.816 2.896 2.172 4.117 2.322 7.965l.133 3.403-.631-.195c-2.196-.68-4.692-2.59-6.755-5.165l-1.285-1.606-3.704.175c-2.038.096-4.002.312-4.366.48-.81.373-.96 1.193-.413 2.253.497.96.537 1.884.082 1.881-.182-.001-.615-.42-.963-.93-.986-1.448-3.742-3.899-5.885-5.232-1.072-.667-3.08-1.597-4.463-2.067-4.749-1.613-10.568-1.315-15.136.775-3.941 1.804-7.68 5.19-9.875 8.942-.543.929-1.033 1.689-1.088 1.689-.056 0-.39-.655-.745-1.455zm16.79-14.303c-.364-.063-1.495-.25-2.513-.416-1.534-.25-7.468-1.945-7.758-2.217-.047-.043.76-1.192 1.794-2.552 2.063-2.716 3.602-5.682 5.277-10.173l1.096-2.938-.8-1.783c-1.54-3.435-1.978-5.309-1.984-8.518-.006-2.58.06-3.02.522-3.533 1.347-1.492 3.69-1.925 8.636-1.597 2.927.195 3.573.321 4.551.895 3.026 1.773 4.964 4.345 5.828 7.733.925 3.629 2.205 14.576 2.348 20.08l.069 2.639-1.72.624c-2.855 1.036-6.443 1.622-10.716 1.75-2.182.067-4.266.069-4.63.006zm-1.578-3.25c1.374-1.382 1.817-2.49 2.398-5.995.456-2.753.446-2.9-.198-2.992-.497-.07-.66.197-1.294 2.117-.4 1.209-1.26 3.353-1.912 4.766-1.652 3.58-1.266 4.387 1.006 2.103zm6.87-3.85c0-4.447-.056-5.153-.42-5.293-.232-.089-.53-.094-.662-.013-.133.082-.241 2.464-.241 5.293v5.144h1.323zm6.742 4.609c.088-.142-.308-1.243-.88-2.447-1.135-2.394-1.629-4.297-1.629-6.276 0-1.885-.869-2.076-1.57-.344-.478 1.183-.262 4.912.361 6.213.939 1.963 3.198 3.696 3.718 2.854zm-3.396-14.608c1.163-.555 1.292-.707 1.366-1.607.11-1.317-.44-1.513-1.649-.591-.7.533-1.443.779-2.99.986-1.131.153-2.165.373-2.295.49-.137.124-.04.515.228.925.449.685.53.706 2.261.56 1.053-.088 2.327-.404 3.08-.763zm-5.604-8c2.787-1.165 2.04-5.94-.934-5.966-2.824-.025-3.601 4.805-.958 5.954 1.044.454.835.453 1.892.011z" style="fill:#fdfdfd;stroke-width:.264583" transform="translate(-2.886 -126.396)"/><path d="M62.614 232.422c.255-.067.672-.067.926 0 .255.067.047.121-.463.121s-.717-.054-.463-.121zm3.445-.001c.257-.067.614-.063.794.01.179.072-.032.127-.468.122-.437-.005-.584-.065-.326-.132zm-14.128-4.513c-.33-.42-.32-.429.1-.1.44.346.58.563.363.563-.055 0-.263-.208-.463-.463zm25.434.099c0-.055.208-.264.463-.463.42-.33.429-.32.1.1-.346.44-.563.58-.563.363zm2.116-2.117c0-.055.209-.263.463-.463.42-.33.43-.32.1.1-.345.44-.563.58-.563.363zm-34.904-10.638c.013-.308.076-.37.16-.16.077.191.067.42-.02.507-.089.088-.151-.068-.14-.347zm-.224-1.962c0-.51.055-.718.121-.463.067.254.067.671 0 .926-.066.254-.12.046-.12-.463zm40.781-2.25c.001-1.454.045-2.016.099-1.247.054.769.053 1.96-.001 2.646-.055.686-.098.057-.098-1.398zm-40.8-2.248c0-.364.06-.513.133-.33.073.181.073.479 0 .66-.073.183-.133.034-.133-.33zm40.46-1.742c.013-.308.075-.37.16-.16.076.191.067.42-.021.507-.088.088-.15-.068-.14-.347zm-40.217-.265c.013-.308.076-.37.16-.16.077.192.067.42-.02.508-.089.088-.151-.069-.14-.348zm.404-6.151c-.075-.121.031-.22.237-.22.205 0 .312.099.237.22-.075.121-.182.22-.237.22-.056 0-.163-.099-.237-.22zm54.67-3.22c0-.509.055-.717.121-.462.067.254.067.671 0 .926-.066.254-.12.046-.12-.463zm-4.328.067c-.33-.42-.32-.43.1-.1.44.346.58.563.363.563-.055 0-.264-.208-.463-.463zm-15.346-.794c-.33-.42-.32-.429.1-.1.44.346.58.563.363.563-.055 0-.263-.208-.463-.463zm2.965.044c.013-.308.075-.37.16-.16.076.191.067.42-.021.508-.088.087-.15-.069-.14-.348zm-49.498-1.565c.494-.51.957-.926 1.03-.926.072 0-.272.417-.766.926-.493.51-.957.926-1.03.926-.072 0 .272-.417.766-.926zm47.203.33-.504-.595.595.504c.56.474.716.687.504.687-.05 0-.318-.268-.595-.595zm-37.107-.198c0-.364.06-.513.133-.33.074.181.074.479 0 .66-.073.183-.133.034-.133-.33zm-15.875-1.058c0-.364.06-.513.133-.33.074.181.074.479 0 .66-.073.182-.133.034-.133-.33zm49.666-.199c-.33-.42-.32-.429.1-.1.44.346.58.563.363.563-.055 0-.263-.208-.463-.463zm-27.218-.166c0-.055.208-.263.463-.463.42-.329.429-.32.1.1-.346.44-.563.581-.563.363zm32.014 0c0-.055.209-.263.463-.463.42-.329.43-.32.1.1-.346.44-.563.581-.563.363zm-3.738-.627c-.329-.42-.32-.43.1-.1.255.2.463.408.463.463 0 .217-.217.077-.563-.363zm-40.638-.261a17.073 17.073 0 0 1 2.382.002c.614.055.045.1-1.265.1-1.31-.002-1.812-.047-1.117-.102zm45.914.014c.191-.077.42-.067.507.02.088.089-.068.151-.347.14-.308-.013-.371-.076-.16-.16zm26.976-.495c-2.996-.466-4.263-.817-5.887-1.63-1.14-.57-5.164-3.38-5.164-3.606 0-.043 1.248.144 2.774.414 2.597.461 3.021.632 6.68 2.687 2.15 1.207 4.086 2.264 4.304 2.35.643.25-.099.191-2.707-.215zm3.786-.008c.013-.308.076-.37.16-.16.077.191.067.42-.02.507-.089.088-.151-.068-.14-.347zm-98.669-1.528a162.48 162.48 0 0 0 4.492-2.491c1.923-1.114 2.696-1.396 4.894-1.785 1.436-.254 2.79-.583 3.008-.73.219-.147-.08.166-.661.697-1.56 1.422-4.486 3.341-5.933 3.891-1.158.44-3.955 1.022-6.858 1.426-1.11.154-1.072.118 1.058-1.008zm46.195-1.403c.182-.074.48-.074.661 0 .182.073.033.133-.33.133-.364 0-.513-.06-.331-.133zm4.762 0c.182-.074.48-.074.662 0 .182.073.033.133-.331.133s-.513-.06-.33-.133zm-4.762-1.323c.182-.074.48-.074.661 0 .182.073.033.133-.33.133-.364 0-.513-.06-.331-.133zm5.027 0c.182-.074.48-.074.661 0 .182.073.033.133-.33.133-.364 0-.513-.06-.331-.133zm31.13-2.272-.505-.596.596.504c.56.474.715.687.504.687-.05 0-.318-.268-.596-.595zm-37.993.15c.191-.077.42-.067.507.02.088.088-.068.151-.347.14-.308-.013-.37-.076-.16-.16zm8.731 0c.191-.077.42-.067.508.02.087.088-.069.151-.348.14-.308-.013-.37-.076-.16-.16zm-7.954-1.318c.182-.073.48-.073.662 0 .182.074.033.134-.33.134-.365 0-.513-.06-.332-.134zm6.615 0c.182-.073.48-.073.661 0 .182.074.034.134-.33.134s-.513-.06-.331-.134zm42.366-2.14c-.33-.42-.32-.429.1-.1.44.346.58.563.363.563-.055 0-.264-.208-.463-.463zm-52.18 0c-.068-.109.151-.198.487-.198.336 0 .556.09.489.198-.068.11-.287.199-.489.199-.2 0-.42-.09-.488-.199zm13.38-1.126c-.583-.583-1.272-1.506-1.532-2.05-.529-1.11-.831-4.639-.497-5.802.175-.61.247-.385.397 1.24.195 2.117 1.455 5.793 2.395 6.989.789 1.002.448.834-.763-.377zm-11.554-.557c.234-.452.899-1.97 1.478-3.373.962-2.331 1.039-2.441.886-1.28-.265 2.015-.882 3.798-1.616 4.67-.879 1.045-1.292 1.035-.748-.017zm-40.894-.632c.494-.51.957-.926 1.03-.926.073 0-.272.417-.765.926-.494.51-.957.926-1.03.926-.073 0 .272-.416.765-.926zm96.44-.526c-1.502-.408-6.62-2.563-8.995-3.789-1.432-.738-1.51-.82-.794-.827.437-.004 1.913.163 3.28.37 1.95.298 2.806.574 3.969 1.284 2.35 1.434 2.616 1.537 4.888 1.901 1.616.26 2.2.269 2.345.04.111-.174.196-.008.199.39.003.567-.148.724-.823.86-1.24.247-2.593.171-4.068-.229zm-8.491-.466-.504-.595.595.504c.56.473.716.686.504.686-.05 0-.318-.268-.595-.595zM78.2 179.16c0-.364.06-.513.134-.331.073.182.073.48 0 .661-.074.182-.134.033-.134-.33zm-70.222.09c-.8-.138-.796-.133-.567-.73.088-.23.404-.419.702-.419.746 0 6.234-1.567 7.197-2.055 1.39-.705 5.263-1.92 6.633-2.08 1.046-.124 1.41-.064 1.692.275.306.37.3.41-.035.282-.216-.083-1.99.584-3.94 1.483-6.311 2.908-9.122 3.688-11.682 3.245zM21.273 178c0-.054.208-.263.463-.463.42-.329.43-.32.1.1-.346.441-.563.581-.563.363zm17.057-2.347-1.579-1.654 1.654 1.58c1.536 1.466 1.775 1.728 1.579 1.728-.04 0-.785-.745-1.654-1.654zm-15.205.76c0-.055.208-.263.463-.463.42-.33.43-.32.1.1-.346.44-.563.58-.563.363zm80.19-.584c.012-.308.075-.37.16-.16.076.191.067.42-.021.508-.088.088-.15-.069-.14-.348zm-25.4-.529c.012-.308.075-.37.16-.16.076.191.067.42-.021.507-.088.088-.15-.068-.14-.347zm12.679-.74c0-.054.208-.262.463-.462.42-.33.429-.32.1.1-.346.44-.563.58-.563.363zm-25.206-2.049c.18-.18.393-.262.474-.18.082.081-.065.229-.326.328-.377.144-.407.114-.148-.148zm12.262-.121c.013-.308.076-.371.16-.16.076.19.067.42-.02.507-.089.088-.151-.068-.14-.347zm-65.373-1.83c.342-.364.681-.662.754-.662.073 0-.147.298-.49.662-.341.364-.68.661-.753.661-.073 0 .147-.297.49-.661zm52.473-2.282c-.248-.303.02-.368 1.594-.388 1.934-.024 3.52-.583 4.535-1.598.421-.421.443-.41.358.19-.065.464-.44.805-1.374 1.251-1.591.76-4.667 1.088-5.113.545zm-5.885-1.71c.012-.307.075-.37.16-.159.076.191.067.42-.021.507-.088.088-.15-.068-.14-.347zm7.602-.025c.191-.077.42-.067.507.02.088.088-.068.15-.347.14-.308-.013-.37-.076-.16-.16zm43.062-.85c-.222-.36.65-.509 9.347-1.6 1.221-.153 2.412-.411 2.646-.574.234-.163-.094.192-.729.788-.634.597-1.586 1.205-2.116 1.352-1.19.33-8.947.36-9.148.034zm-39.4-.623c.068-.11.288-.199.489-.199.2 0 .42.09.488.199.068.109-.152.198-.488.198-.336 0-.556-.09-.488-.198zm-61.67-.328c-.572-.204-1.584-.927-2.249-1.606-.72-.737-.936-1.065-.534-.813.432.27 2.33.614 5.291.956 4.893.565 5.583.673 7.263 1.13l1.059.288-1.059.204c-1.866.36-8.623.25-9.771-.16zm52.997-5.626c-.33-.42-.32-.429.1-.1.255.2.463.409.463.463 0 .218-.217.078-.563-.363zm3.209.363c0-.054.208-.263.463-.463.42-.329.429-.32.1.1-.346.441-.563.581-.563.363zm34.681-2.964c.013-.309.075-.371.16-.16.076.19.067.419-.021.507-.088.088-.15-.069-.139-.347zm-43.34-.904c0-.655.051-.923.114-.596a3.77 3.77 0 0 1 0 1.191c-.063.327-.114.06-.114-.595zm-28.341-1.323c0-.364.06-.513.133-.331.074.182.074.48 0 .661-.073.182-.133.034-.133-.33zm45.309-.066-.504-.596.595.504c.328.278.596.545.596.596 0 .211-.213.055-.687-.504zm26.72-2.163c.02-.916.146-1.333.425-1.409.274-.074.3-.038.084.116-.172.123-.363.757-.425 1.41l-.113 1.186zm-39.064-1.121c.182-.074.48-.074.661 0 .182.073.033.133-.33.133-.364 0-.513-.06-.331-.133zm2.91 0c.182-.074.48-.074.662 0 .182.073.033.133-.331.133s-.513-.06-.33-.133zm57.216-.19c0-.055.209-.263.463-.463.42-.329.43-.32.1.1-.345.44-.563.581-.563.363zm-11.377-3.175c0-.055.209-.263.463-.463.42-.329.43-.32.1.1-.345.44-.563.581-.563.363zm1.323-1.323c0-.055.209-.263.463-.463.42-.329.43-.32.1.1-.346.441-.563.581-.563.363zm12.192-1.906c.013-.308.075-.371.16-.16.076.191.067.42-.021.507-.088.088-.15-.068-.14-.347zm0-6.086c.013-.308.075-.37.16-.16.076.192.067.42-.021.508-.088.088-.15-.069-.14-.348z" style="fill:#a5a8a5;stroke-width:.264583" transform="translate(-2.886 -126.396)"/><path d="M74.459 243.254c-.66-1.517-.901-1.615-2.732-1.106-1.747.485-1.69.11.149-.965l1.774-1.038.006-4.163.005-4.162 1.341-.68 1.342-.68-.188 4.348c-.191 4.434-.084 5.734.474 5.734.382 0 4.477 1.902 4.356 2.023-.047.047-1.09-.091-2.316-.307-3.21-.565-3.08-.603-3.362.996l-.245 1.389zm-19.323.397c-.012-1.939-.323-2.053-3.79-1.39-1.14.219-2.152.39-2.249.383-.31-.027 4.252-2.102 4.62-2.102.595 0 .706-1.194.507-5.477-.105-2.26-.091-4.057.032-3.993.122.063.728.333 1.347.6l1.124.483.006 3.995.006 3.995 1.845 1.038c1.015.57 1.798 1.084 1.742 1.14-.057.057-.812-.043-1.677-.222-.866-.179-1.748-.258-1.96-.176-.214.081-.55.637-.746 1.235-.391 1.185-.801 1.434-.807.49zM43.13 167.914c.61-3.086 2.132-6.268 3.984-8.328 1.444-1.605 2.91-2.033 5.777-1.686l1.852.224.41 1.72.412 1.72-2.512.202c-2.89.232-4.053.507-5.243 1.238-.733.45-2.892 2.942-4.376 5.049l-.461.655zm4.785-2.523c-.565-.353-.262-.858.866-1.442.787-.406 4.195-.93 6.056-.93 1.236 0 1.25.01 1.688 1.19l.441 1.191h-1.533c-.844 0-2.773.065-4.287.145-1.825.096-2.914.044-3.23-.154z" style="fill:#d76b32;stroke-width:.264583" transform="translate(-2.886 -126.396)"/><path d="m77.365 229.876 1.93-1.877c2.228-2.165 3.844-4.436 5.116-7.189 2.857-6.184 2.745-14.175-.283-20.187-.96-1.906-.961-1.917-.43-2.363.693-.58.795-2.146.198-3.056-.438-.669-.434-.692.147-.81.329-.066 1.806-.182 3.284-.257l2.686-.136 2.605 2.594c2.616 2.605 4.8 3.997 6.941 4.425.716.143.85.072 1.119-.597.37-.918.36-5.764-.016-7.716-.148-.77-.55-1.986-.891-2.7-.342-.715-.507-1.229-.366-1.141.142.087.985.708 1.874 1.38 2.995 2.26 6.824 3.49 12.13 3.893 2.765.21 2.742.237 2.334-2.716-.497-3.595-2.606-7.38-6.23-11.177-1.754-1.839-1.959-2.136-1.192-1.732.51.269 1.015.464 1.124.434.11-.03.199.085.199.255 0 .17.07.239.155.153.085-.085.976.195 1.98.622 2.881 1.226 4.873 1.649 6.826 1.449 2.25-.23 2.68-.485 2.68-1.583 0-1.359-.643-2.887-2.257-5.363-1.87-2.869-3.772-4.882-5.784-6.122l-1.581-.974 3.554-.136c4.192-.16 5.416-.607 7.125-2.6 1.014-1.182 2.007-2.888 1.801-3.094-.054-.054-2.713-.701-5.91-1.438-5.527-1.275-10.441-2.653-11.177-3.135-.213-.14 1.159-.586 3.704-1.205 4.5-1.095 9.062-2.724 10.586-3.78 2.08-1.442 3.12-5.041 3.11-10.76-.008-3.606-.365-5.868-1.32-8.345-.85-2.203-2.642-5.37-3.131-5.534-.163-.054-.474.298-.691.782-2.813 6.27-4.589 9.884-6.032 12.28-3.777 6.268-5.243 7.364-11.515 8.606-1.561.309-2.935.65-3.053.758-.117.107-.32 1.969-.45 4.136-.323 5.356-.78 7.329-2.507 10.819-3.104 6.275-8.58 12.451-14.159 15.97l-1.72 1.085-.44-5.445c-1.048-12.934-2.134-18.477-4.245-21.665-1.114-1.682-4.52-4.204-6.23-4.614-.713-.171-3.073-.334-5.245-.362-4.54-.058-6.08.302-7.442 1.741-1.126 1.19-1.381 1.78-1.577 3.65l-.17 1.63c3.281 9.337 1.036 4.835 2.992 10.12 0 .404-2.539 6.551-3.345 8.098-.684 1.313-3.192 4.92-4.735 6.808-.185.227-4.003-1.96-5.841-3.347-2.747-2.073-6.964-6.466-9.053-9.433-2.003-2.845-4.132-7.072-4.666-9.263-.466-1.91-.935-6.377-.935-8.9 0-1.236-.108-1.865-.33-1.933-.183-.055-1.735-.402-3.45-.77-3.637-.782-5.505-1.57-7.06-2.974-2.302-2.08-6.267-8.956-9.394-16.294-.538-1.262-1.148-2.36-1.354-2.44-.443-.17-2.463 3.672-3.464 6.588-.864 2.517-1.217 6.712-.883 10.514.497 5.662 1.45 7.21 5.513 8.948 2.579 1.103 6.325 2.234 10.06 3.037 1.308.28 2.061.554 1.852.67-.914.51-5.14 1.697-10.793 3.033-3.413.807-6.256 1.518-6.319 1.58-.27.27.692 1.95 1.793 3.133 1.97 2.114 2.742 2.393 6.947 2.507l3.622.098-1.978 1.323c-3.164 2.116-6.942 7.316-7.564 10.411-.383 1.907-.148 2.127 2.518 2.37 2.63.241 4.153-.18 10.717-2.966.196-.083-.488.703-1.518 1.748-4.037 4.094-6.378 8.783-6.378 12.78v1.35l2.448-.176c5.55-.397 9.163-1.586 12.418-4.088l1.769-1.36-.624 1.412c-.824 1.863-1.298 5.249-1.124 8.032.173 2.78.47 3.19 1.953 2.709 2.172-.704 4.03-1.874 6.056-3.812l2.108-2.017 2.986.051 2.986.052-.203 1.213a18.128 18.128 0 0 0-.208 2.403c-.004.997.077 1.19.5 1.192.322 0 .612.29.795.794.159.435.497 1.175.753 1.642.45.826.445.916-.2 3.141-.813 2.807-1.092 6.636-.69 9.47.832 5.859 4.026 11.628 8.257 14.914l1.56 1.211c15.42 6.537 16.075 1.898 24.342-.432zm-17.418 3.44c1.141.305 2.687.446 4.85.441 2.938-.006 3.75-.128 6.945-1.044l.596-.17c6.958-4.544-22.15 1.221-12.391.773zm7.314-.892c.19-.077.42-.067.507.02.088.088-.068.151-.347.14-.308-.013-.371-.076-.16-.16zm-16.777-5.707-.504-.595.596.504c.56.474.715.687.504.687-.05 0-.318-.268-.596-.596zm49.127-28.134c.012-.308.075-.37.16-.16.076.192.066.42-.021.508-.088.088-.15-.069-.14-.348zm-67.755-1.797c0-.055.209-.264.463-.463.42-.33.43-.32.1.1-.345.44-.563.58-.563.363zm67.785-.826c.006-.437.065-.584.132-.326.067.257.063.615-.01.794-.072.179-.127-.032-.122-.468zm-49.793.05c0-.046.387-.433.86-.86l.86-.778-.777.86c-.725.802-.943.981-.943.777zm-.926-.712c.263-.29.538-.529.611-.529.073 0-.083.238-.346.53-.264.29-.539.528-.612.528-.072 0 .084-.238.347-.529zm30.54-.992-.642-.728.728.642c.68.6.848.814.641.814-.047 0-.375-.328-.728-.728zm2.686.044c.013-.308.075-.37.16-.16.076.191.067.42-.02.507-.089.088-.151-.068-.14-.347zm9.611-.44-.504-.596.596.504c.56.473.715.686.504.686-.05 0-.318-.268-.596-.595zm-57.257.23c0-.055.209-.263.463-.463.42-.33.43-.32.1.1-.346.44-.563.58-.563.363zm7.078-1.145a3.768 3.768 0 0 1 1.19 0c.328.063.06.114-.595.114s-.923-.051-.595-.114zm70.66-.259c.191-.076.42-.067.507.021.088.088-.068.15-.347.139-.308-.013-.371-.075-.16-.16zm-97.631-.794c.19-.076.42-.067.507.021.088.088-.068.15-.347.14-.309-.013-.371-.076-.16-.16zm49.862-2.648c.258-.067.615-.063.794.01.18.072-.031.127-.468.122-.437-.005-.583-.065-.326-.132zm-1.443-1.056c.19-.076.419-.067.507.021.088.088-.069.15-.348.14-.308-.014-.37-.076-.16-.16zm3.175 0c.19-.076.419-.067.507.021.088.088-.069.15-.348.14-.308-.014-.37-.076-.16-.16zm-5.292-2.116c.19-.077.42-.067.507.02.088.088-.068.15-.347.14-.308-.013-.371-.076-.16-.16zm6.863.006c.181-.074.48-.074.661 0 .182.073.033.133-.33.133-.364 0-.513-.06-.331-.133zm.81-1.329c.19-.076.42-.067.507.021.088.088-.068.15-.347.139-.309-.013-.371-.075-.16-.16zm-48.898-5.475c0-.055.208-.264.463-.463.42-.33.429-.32.1.1-.346.44-.563.58-.563.363zM78.2 178.1c0-.364.06-.513.134-.331.073.182.073.48 0 .661-.074.182-.134.034-.134-.33zm9.087-.265c.263-.29.538-.529.61-.529.074 0-.082.238-.346.53-.263.29-.538.528-.611.528-.073 0 .083-.238.347-.529zm16.502-.992c-.329-.42-.32-.43.1-.1.44.346.581.563.363.563-.055 0-.263-.208-.463-.463zM89.8 175.355c0-.055.208-.263.463-.463.42-.33.43-.32.1.1-.346.44-.563.58-.563.363zm-11.885-.849c.012-.308.075-.37.16-.16.076.191.067.42-.021.508-.088.087-.15-.069-.14-.348zm-.265-2.91c.013-.308.076-.371.16-.16.076.191.067.42-.02.507-.089.088-.151-.068-.14-.347zm37.128-.441-.504-.595.595.504c.56.473.716.686.504.686-.05 0-.318-.268-.595-.595zm-37.392-1.94c.012-.309.075-.371.16-.16.076.19.066.419-.021.507-.088.088-.15-.069-.14-.347zm-12.126-1.358c.4-.061 1.055-.061 1.455 0 .4.06.073.11-.727.11-.8 0-1.128-.05-.728-.11zm48.286-1.854a8.42 8.42 0 0 1 1.72 0c.473.058.086.106-.86.106-.945 0-1.332-.048-.86-.106zm-4.48-.254c.19-.077.418-.067.506.02.088.088-.068.151-.347.14-.308-.013-.37-.076-.16-.16zm-96.719-.539c.402-.06.997-.059 1.323.004.325.063-.004.113-.731.11-.728-.001-.994-.052-.592-.113zm5.437-.255c.19-.076.42-.067.507.02.088.089-.068.151-.347.14-.309-.013-.371-.076-.16-.16zM6.172 163.35l-.642-.728.728.642c.4.352.728.68.728.727 0 .208-.215.039-.814-.641zm49.782-6.306c.013-.308.076-.371.16-.16.077.19.067.42-.02.507-.089.088-.151-.068-.14-.347zm43.392-1.323c.013-.308.075-.371.16-.16.076.191.067.42-.021.507-.088.088-.15-.068-.139-.347zm-71.662-2.756c0-.51.055-.718.121-.463.067.254.067.671 0 .926-.066.254-.12.046-.12-.463zm36.915-2.028c.181-.073.48-.073.661 0 .182.074.033.134-.33.134-.364 0-.513-.06-.331-.134zm58.295-5.8c.013-.308.075-.37.16-.16.076.192.067.42-.021.508-.088.088-.15-.069-.14-.347zM4.147 141.853c0-.655.052-.922.115-.595a3.77 3.77 0 0 1 0 1.19c-.063.328-.115.06-.115-.595zm0-2.646c0-.654.052-.922.115-.595a3.77 3.77 0 0 1 0 1.19c-.063.328-.115.06-.115-.595zm118.747-1.741c.013-.309.075-.371.16-.16.076.19.067.419-.021.507-.088.088-.15-.069-.14-.347z" style="fill:#fff;stroke-width:.264583" transform="translate(-2.886 -126.396)"/><path d="M54.66 247.34c-.14-.174-.397-1.179-.572-2.234-.176-1.055-.387-1.918-.47-1.918-.084 0-1.858.303-3.942.673-2.866.509-3.919.603-4.322.387-1.125-.602-.575-1.072 3.568-3.049l4.101-1.957v-8.934l-1.56-1.211c-4.23-3.286-7.425-9.055-8.257-14.915-.402-2.833-.124-6.662.69-9.469.645-2.225.65-2.315.2-3.14a14.57 14.57 0 0 1-.753-1.643c-.183-.503-.473-.793-.794-.794-.424-.001-.505-.195-.5-1.192.002-.655.096-1.736.207-2.403l.203-1.213-2.986-.052-2.986-.051-2.108 2.017c-2.026 1.938-3.884 3.108-6.056 3.812-1.484.481-1.78.07-1.953-2.71-.174-2.782.3-6.168 1.124-8.03l.624-1.413-1.769 1.36c-3.255 2.502-6.868 3.69-12.418 4.088l-2.448.175v-1.349c0-3.997 2.34-8.686 6.378-12.78 1.03-1.045 1.713-1.831 1.518-1.748-6.564 2.785-8.087 3.207-10.717 2.967-2.666-.244-2.9-.464-2.518-2.37.622-3.096 4.4-8.296 7.564-10.412l1.978-1.323-3.622-.098c-4.205-.114-4.978-.393-6.947-2.507-1.101-1.182-2.063-2.863-1.793-3.132.063-.063 2.906-.774 6.319-1.58 5.653-1.337 9.879-2.524 10.793-3.034.209-.116-.544-.39-1.853-.67-3.734-.803-7.48-1.934-10.059-3.037-4.062-1.738-5.016-3.286-5.513-8.948-.334-3.802.018-7.997.883-10.514 1.001-2.916 3.021-6.757 3.464-6.587.206.079.816 1.177 1.354 2.44 3.127 7.337 7.092 14.214 9.394 16.293 1.555 1.405 3.423 2.192 7.06 2.973 1.715.37 3.267.716 3.45.771.222.068.33.697.33 1.933 0 2.523.469 6.99.935 8.9.534 2.191 2.663 6.418 4.666 9.263 2.09 2.967 6.306 7.36 9.053 9.433 1.838 1.386 5.656 3.574 5.841 3.347 1.543-1.889 4.05-5.495 4.735-6.808.806-1.547 3.345-7.694 3.345-8.098 0-.086-2.255-.12-5.012-.075-3.747.06-5.096-.002-5.344-.25-.183-.181-.426-.33-.539-.33-.113 0-.872.95-1.686 2.112-.814 1.162-1.79 2.357-2.17 2.656-.603.474-.738.494-1.074.158-.335-.335-.33-.712.046-2.986.575-3.488 2.468-7.422 4.632-9.629 1.296-1.322 1.686-1.56 3.002-1.827.906-.184 2.243-.235 3.333-.128l1.82.18.17-1.63c.196-1.87.45-2.46 1.577-3.65 1.362-1.44 2.902-1.8 7.442-1.742 2.172.028 4.532.19 5.244.362 1.712.41 5.117 2.932 6.23 4.614 2.112 3.187 3.198 8.73 4.245 21.665l.441 5.445 1.72-1.085c5.58-3.519 11.055-9.695 14.16-15.97 1.726-3.49 2.182-5.463 2.505-10.82.13-2.166.334-4.028.451-4.135.118-.108 1.492-.45 3.053-.758 6.272-1.242 7.738-2.338 11.515-8.607 1.443-2.395 3.219-6.01 6.032-12.28.217-.483.528-.835.69-.78.49.162 2.282 3.33 3.131 5.533.955 2.477 1.313 4.74 1.32 8.346.011 5.718-1.029 9.317-3.109 10.759-1.524 1.056-6.087 2.685-10.586 3.78-2.545.619-3.917 1.065-3.704 1.205.736.482 5.65 1.86 11.177 3.135 3.197.737 5.856 1.384 5.91 1.438.206.206-.787 1.912-1.801 3.094-1.709 1.993-2.933 2.44-7.125 2.6l-3.554.136 1.58.974c2.013 1.24 3.915 3.253 5.785 6.122 1.614 2.476 2.258 4.004 2.258 5.363 0 1.098-.432 1.352-2.68 1.583-2.151.22-4.026-.242-8.093-1.995l-3.037-1.309 2.078 2.172c3.576 3.737 5.694 7.545 6.189 11.128.408 2.953.43 2.927-2.335 2.716-5.305-.403-9.134-1.632-12.129-3.894-.89-.671-1.733-1.292-1.874-1.38-.14-.087.024.427.366 1.141.342.715.743 1.93.891 2.7.375 1.953.385 6.799.016 7.717-.269.669-.403.74-1.119.597-2.142-.428-4.325-1.82-6.94-4.425l-2.606-2.594-2.686.136c-1.478.075-2.955.19-3.284.258-.58.117-.585.14-.147.81.597.91.495 2.474-.197 3.055-.533.446-.53.457.429 2.363 3.028 6.012 3.14 14.003.283 20.187-1.272 2.753-2.888 5.024-5.115 7.19l-1.931 1.876v9.5l4.035 1.861c4.175 1.927 4.803 2.466 3.543 3.04-.618.281-2.62.024-7.623-.98-.694-.14-.71-.11-1.028 1.856-.309 1.917-.743 2.75-1.266 2.427-.134-.083-.63-1.106-1.1-2.272-.47-1.166-.887-2.12-.928-2.12-.041 0-1.652.358-3.58.795-2.65.602-3.592.723-3.864.497-.25-.208-.461-.215-.69-.024-.234.193-1.305.05-3.639-.486-1.819-.418-3.442-.765-3.606-.771-.164-.006-.69.936-1.168 2.094-.874 2.117-1.322 2.629-1.79 2.046zm1.388-4.276c.52-1.36.68-1.401 3.128-.817.837.2 1.464.27 1.394.157-.07-.114-.964-.713-1.986-1.33l-1.857-1.122v-7.771l-1.197-.582c-.66-.32-1.255-.582-1.323-.582-.07 0-.126 2.087-.126 4.638 0 4.183-.045 4.654-.463 4.793-1 .333-4.561 2.037-4.463 2.135.057.057 1.16-.08 2.45-.306 3.332-.583 3.192-.62 3.402.911.1.728.273 1.267.383 1.2.11-.069.406-.664.658-1.324zm19.722-1.023c.115-.12 1.215-.032 2.444.199 1.23.23 2.464.412 2.743.404.554-.017-3.704-2.102-4.291-2.102-.29 0-.36-.968-.36-5.027 0-2.765-.044-5.027-.099-5.027-.054 0-.65.308-1.322.684l-1.224.684-.009 4.144-.008 4.145-2.002 1.143c-1.1.628-1.948 1.196-1.882 1.262.065.065.915-.066 1.889-.292.973-.225 1.88-.342 2.016-.258.135.083.503.712.82 1.397l.574 1.246.25-1.19c.138-.656.345-1.29.46-1.412zm-6.806-.576 3.374-2.078v-6.844l-.596.17c-3.195.916-4.007 1.038-6.945 1.044-2.163.004-3.709-.136-4.85-.44-.921-.247-1.725-.448-1.786-.448-.061 0-.108 1.458-.104 3.241l.006 3.241 3.632 2.258c1.997 1.242 3.69 2.185 3.764 2.095.072-.089 1.65-1.097 3.505-2.24zm.134-9.259c6.4-1.509 12.018-6.359 14.509-12.524 1.282-3.174 1.563-4.729 1.563-8.641 0-4.15-.38-6.05-1.855-9.293-1.234-2.711-2.693-4.733-4.94-6.847-2.342-2.203-4.276-3.399-7.134-4.41-7.716-2.73-16.643-.2-21.907 6.209-1.628 1.983-3.447 5.427-4.29 8.123-.542 1.734-.62 2.518-.62 6.218s.078 4.481.62 6.204c1.212 3.863 3.546 7.705 6.087 10.023 1.347 1.23 4.75 3.463 5.573 3.659.376.09.818.267.98.394.162.127 1.174.461 2.249.743 2.416.632 6.798.7 9.165.142zm-22.334-33.813c3.09-4.867 7.845-8.297 13.339-9.618 2.45-.59 7.061-.574 9.457.032 2.313.585 5.148 1.87 7.176 3.253 1.54 1.051 4.772 4.216 5.32 5.21.242.439.348.464.707.166.522-.433.528-1.05.017-1.725-.563-.745-.493-1.926.133-2.26.287-.154 2.126-.406 4.087-.561l3.565-.28 2.594 2.706c2.095 2.186 2.95 2.878 4.44 3.594l1.846.887.23-.596c.312-.804-.009-5.681-.474-7.227-.206-.684-.923-2.188-1.593-3.341-1.222-2.104-1.382-3.125-.489-3.125.223 0 1.138.636 2.033 1.413 4.864 4.218 7.59 5.401 13.631 5.913l1.949.166-.196-1.425c-.552-4.014-2.72-7.406-7.784-12.178-2.933-2.764-3.59-3.666-2.96-4.056.13-.08 1.529.461 3.11 1.202 6.75 3.163 10.124 4.136 12.378 3.57 1.003-.251.887-1.273-.394-3.472-2.741-4.707-5.263-7.072-9.809-9.2-2.024-.948-2.369-1.68-.75-1.595.506.026 2.885.081 5.286.122 3.933.066 4.483.02 5.556-.47 1.089-.496 3.175-2.443 3.175-2.963 0-.12-1.756-.612-3.903-1.094-8.76-1.968-14.353-3.835-14.353-4.793 0-.262.09-.533.2-.6.11-.069 2.137-.557 4.504-1.086 4.429-.989 8.745-2.357 10.932-3.466 2.586-1.31 3.169-2.925 3.346-9.272.145-5.205-.189-7.09-1.917-10.823-.932-2.012-.994-2.084-1.267-1.455-1.448 3.343-4.726 9.831-6.048 11.97-3.273 5.296-5.596 7-11.206 8.22l-2.91.633-.194 3.28c-.246 4.15-.727 6.7-1.775 9.417-1.5 3.892-5.124 9.13-8.993 13.004-5.786 5.791-11.744 8.7-19.542 9.54-5.61.603-9.039.307-14.962-1.293-6.695-1.808-10.49-3.99-15.416-8.866-3.154-3.12-5.142-5.623-7.239-9.112-2.5-4.16-3.446-7.677-3.866-14.37-.154-2.46-.189-2.58-.764-2.58-1.023 0-5.663-1.267-7.107-1.94-2.067-.965-3.447-2.327-5.49-5.42-1.815-2.75-4.703-8.211-6.215-11.755-.42-.983-.86-1.786-.979-1.786-.288 0-1.631 3.02-2.286 5.14-.97 3.143-.976 10.025-.01 13.465.52 1.851 1.827 2.945 4.966 4.158 2.549.984 7.686 2.37 11.77 3.172 2.667.525 2.366 1.3-1.008 2.598-2.737 1.053-4.187 1.459-10.527 2.944l-5.234 1.227.777 1.073c.428.59 1.197 1.332 1.71 1.649 1.124.695 4.53 1.153 7.122.957.982-.075 2.62-.202 3.638-.284 1.722-.138 1.852-.111 1.852.378 0 .383-.413.714-1.521 1.221-2.437 1.114-5.193 2.942-6.381 4.23-2.414 2.62-5.28 7.684-4.685 8.278.108.108 1.229.192 2.49.186 2.583-.013 4.244-.567 10.335-3.449 3.263-1.543 3.985-1.634 3.54-.443-.113.304-1.448 1.664-2.965 3.022-4.588 4.104-7.496 8.58-7.864 12.107l-.177 1.69 1.93-.18c6.076-.564 8.837-1.783 13.75-6.068.923-.805 1.835-1.403 2.027-1.33.777.299.608 1.103-.685 3.254-1.71 2.843-1.872 3.438-2.046 7.481-.168 3.902-.225 3.835 2.257 2.663.96-.453 2.295-1.483 3.69-2.844 1.202-1.174 2.303-2.122 2.447-2.107.144.014 1.857.044 3.806.066 2.772.03 3.574.12 3.686.411.079.205.015 1.232-.141 2.284-.246 1.655-.228 1.943.13 2.144.228.127.558.677.733 1.222.467 1.448.827 1.834 1.17 1.254.149-.253.729-1.182 1.288-2.064zm26.367-14.162c1.237-.29 2.934-.785 3.77-1.1l1.522-.57-.002-1.9c-.003-4.707-1.408-16.887-2.39-20.726-.92-3.6-1.9-5.157-4.415-7.014-2.368-1.75-2.845-1.865-7.876-1.905-4.342-.034-4.541-.012-5.69.627-1.493.831-2.119 2.01-2.107 3.968.018 2.978.646 5.382 2.7 10.34.238.574.102 1.166-.85 3.704-1.592 4.241-3.153 7.24-5.143 9.878-.941 1.249-1.781 2.383-1.867 2.52-.183.297 4.07 1.714 7.267 2.423 3.106.689 11.69.549 15.081-.245zm-7.812-1.688c-.076-.198-.105-2.499-.065-5.113.07-4.553.094-4.754.601-4.754.51 0 .53.177.53 5.024 0 4.577-.042 5.031-.464 5.113-.255.049-.526-.073-.602-.27zm-7.652-.187c-.083-.134.392-1.354 1.053-2.712.662-1.359 1.51-3.452 1.886-4.653.537-1.719.787-2.182 1.18-2.182.697 0 .637.621-.327 3.352-1.598 4.529-3.202 7.15-3.792 6.195zm14.47-.089c-1.304-1.623-2.78-6.323-2.658-8.459.069-1.193.157-1.396.61-1.396.474 0 .546.233.698 2.249.179 2.362.506 3.498 1.673 5.8.664 1.31.735 2.137.183 2.137-.132 0-.36-.149-.506-.33zm-7.692-14.92c.077-.405.432-.522 2.023-.664 1.453-.13 2.192-.347 2.997-.88 1.045-.69 1.966-.729 1.75-.072-.06.182-.617.688-1.236 1.124-.997.703-1.383.805-3.377.889-2.077.087-2.244.056-2.157-.397zm-2.711-8.276c-1.907-1.907-.339-5.724 2.129-5.182 2.937.645 2.422 5.955-.577 5.955-.508 0-1.048-.27-1.552-.773zm-15.525 5.489c1.507-1.787 2.734-2.298 6.4-2.665 1.968-.196 3.036-.41 2.966-.59-.06-.156-.247-.95-.416-1.763l-.307-1.48-1.377-.165c-4.38-.526-5.848.2-8.114 4.015-1.186 1.995-1.97 4.035-2.259 5.87l-.187 1.19 1.114-1.574a51.426 51.426 0 0 1 2.18-2.838zm10.665.782c.062-.062-.09-.626-.336-1.254l-.45-1.143-2.657.161c-3.04.185-4.286.483-5.282 1.267-.589.463-.648.618-.364.96.288.346.974.385 4.657.263 2.376-.078 4.37-.193 4.432-.254z" style="fill:#010501;stroke-width:.264583" transform="translate(-2.886 -126.396)"/></svg>