<svg xmlns="http://www.w3.org/2000/svg" width="961.727" height="984.495" viewBox="0 0 254.457 260.481"><path d="M113.01 249.577C55.422 240.494 11.849 197 3.145 139.915.83 124.735.834 114.49 3.16 100.193 17.339 13.013 111.203-35.642 189.194 3.76c9.807 4.955 27.742 16.99 27.742 18.615l-37.37 38.237-6.517-4.386c-41.025-23.276-90.754-8.039-109.842 30.91-10.512 23.159-9.126 46.874.178 66.651 4.05 8.496 7.098 12.688 14.703 20.219 11.025 10.916 20.771 16.542 34.936 20.164 26.112 6.679 57.812-1.228 73.428-18.315 7.014-8.797 12.293-17.808 14.406-28.373h-69.723l.683-51.07 120.48-.656 1.371 3.48c.755 1.914 1.67 9.791 2.034 17.505 2.993 63.432-34.728 116.01-93.621 130.493-11.71 2.88-37.781 4.125-49.073 2.344z" style="fill:#fff;stroke-width:1.26101" transform="translate(-1.412 10.078)"/></svg>