<?xml version="1.0" encoding="UTF-8" standalone="no"?>
<!-- Created with Inkscape (http://www.inkscape.org/) -->

<svg
   width="489.02499mm"
   height="489.02499mm"
   viewBox="0 0 489.02499 489.025"
   version="1.1"
   id="svg5"
   xml:space="preserve"
   xmlns="http://www.w3.org/2000/svg"
   xmlns:svg="http://www.w3.org/2000/svg"><defs
     id="defs2" /><g
     id="layer1"
     transform="translate(496.47716,-1881.0293)"><path
       style="fill:#ffffff;stroke-width:0.264583"
       d="m -285.16876,2292.6508 c -0.58209,-0.056 -2.72521,-0.2302 -4.7625,-0.3867 -36.84936,-2.8297 -56.22321,-21.6146 -60.44409,-58.6065 -0.80075,-7.0178 -0.58067,-15.1918 1.5847,-58.8578 0.90935,-18.3374 0.80775,-17.655 2.68029,-18.0038 9.6127,-1.791 8.961,-2.3078 13.71916,10.8792 2.17523,6.0286 4.29036,11.6159 4.70029,12.4163 6.62782,12.9403 6.54903,12.8322 9.08317,12.4597 1.07446,-0.158 11.1809,-1.6621 22.45877,-3.3424 11.27786,-1.6804 23.24364,-3.4585 26.59062,-3.9515 3.34698,-0.4929 7.75229,-1.1437 9.78959,-1.4463 2.03729,-0.3026 5.62789,-0.8327 7.97912,-1.178 2.35122,-0.3454 4.40264,-0.7068 4.55869,-0.8033 0.30365,-0.1876 2.28856,-6.177 5.19134,-15.6645 1.79183,-5.8565 1.79183,-5.8565 22.03581,-24.7386 39.23332,-36.5939 44.97258,-41.8973 46.23917,-42.728 0.82047,-0.5382 4.09268,-0.7965 21.28441,-1.6804 18.11501,-0.9314 17.51758,-0.8737 17.32769,-1.6719 -0.0763,-0.3206 -1.62727,-6.5849 -3.44665,-13.9207 -3.30798,-13.3377 -3.30798,-13.3377 -0.23439,-23.151 8.02841,-25.6331 15.78025,-50.0485 15.94442,-50.2189 0.23292,-0.2419 22.976022,-5.5111 29.368092,-6.8042 5.46505,-1.1056 6.88412,0.5812 -13.784212,-16.3845 -6.64059,-5.451 -8.28722,-6.9337 -8.94611,-8.0557 -1.04265,-1.7754 -13.12069,-26.0662 -13.33164,-26.812 -0.44681,-1.5795 67.693722,-0.9714 73.808742,0.6587 31.04155,8.2749 45.48987,25.4365 48.0132297,57.0297 0.68082,8.5242 0.53755,11.1293 -3.5738097,64.9829 -1.38316,18.1174 -3.16873,41.5131 -3.96798,51.9906 -0.79926,10.4775 -2.10495,27.563 -2.90158,37.9678 -4.93885,64.5077 -8.33414,109.8272 -8.33414,111.242 0,0.6276 -0.15407,1.269 -0.3424,1.4252 -0.33562,0.2786 -12.74098,1.2407 -32.9951,2.559 -1.99631,0.13 -4.11694,0.2765 -7.54062,0.521 -1.01865,0.073 -5.42396,0.3703 -9.78959,0.6614 -4.36562,0.2911 -8.77093,0.5897 -9.78958,0.6637 -1.01865,0.074 -3.81662,0.2558 -6.21771,0.4041 -4.83264,0.2984 -7.471622,0.4718 -10.054172,0.6606 -2.25353,0.1647 0.33555,-0.011 -48.81562,3.3178 -23.57437,1.5968 -55.00687,3.7344 -69.85,4.7504 -55.6462,3.8089 -60.36583,4.0938 -63.23541,3.8166 z m -149.15886,-71.1997 c -0.61892,-0.165 -0.60497,-0.219 0.45949,-1.777 0.99587,-1.4577 1.35478,-1.9643 5.16291,-7.2868 1.38245,-1.9322 2.87073,-4.02 3.30729,-4.6395 0.43656,-0.6195 2.04391,-2.8748 3.57188,-5.0118 2.30701,-3.2265 6.06784,-8.4994 7.77455,-10.9003 0.37783,-0.5315 0.63474,-0.5607 5.24106,-0.5956 2.66407,-0.02 7.87985,-0.091 11.59064,-0.1569 3.71078,-0.066 10.55687,-0.1887 15.21354,-0.2724 25.90946,-0.4655 22.98682,-1.2083 22.21234,5.6452 -0.06,0.5311 -0.23596,2.5135 -0.39097,4.4052 -0.15501,1.8918 -0.4547,5.4637 -0.66596,7.9375 -0.21126,2.4739 -0.51282,6.0451 -0.67012,7.9362 -0.34424,4.1383 0.0997,3.6978 -3.77267,3.7433 -1.77038,0.021 -7.32653,0.1159 -12.347,0.2112 -32.03792,0.6084 -56.05161,0.9311 -56.68698,0.7617 z m 110.13281,-65.1086 c -17.16394,-16.9865 -18.22863,-21.2062 -11.35398,-45.0001 28.84398,-99.8319 186.01896,-200.0036 207.62481,-132.3247 19.14289,59.9638 -99.84124,189.3414 -176.29478,191.6946 -5.29167,0.1629 -5.29167,0.1629 -19.97605,-14.3698 z m -152.2677,1.9148 c -4.77653,-1.0112 -5.50885,1.0282 5.61396,-15.6336 9.45041,-14.1566 9.45041,-14.1566 11.17864,-14.1372 108.35291,-2.4528 0.95512,0.039 98.89646,-2.4965 7.8945,-0.075 14.35364,-0.076 14.35364,0 0,0.072 -0.94257,1.2328 -2.0946,2.5785 -2.48656,2.9045 -8.74255,10.3924 -17.55885,21.0166 -3.5244,4.2471 -6.5866,7.812 -6.80488,7.922 -0.50325,0.2536 -8.51703,0.3445 -67.60104,0.7668 -9.89542,0.071 -21.6826,0.1724 -26.19375,0.226 -5.95181,0.071 -8.63762,0.01 -9.78958,-0.2387 z m 3.96875,-64.4547 c -12.95136,-0.025 -23.7413,-0.1165 -23.97765,-0.2037 -0.35888,-0.1324 16.17773,-23.5356 20.48992,-28.9981 0.6266,-0.7937 0.6266,-0.7937 13.56654,-0.7367 19.3513,0.085 88.60572,0.3073 112.36802,0.3603 11.46576,0.025 20.81217,0.1452 20.76979,0.2658 -0.0424,0.1207 -5.25626,5.4771 -11.58642,11.9033 -6.33015,6.4261 -15.3711,16.466 -16.97183,18.1015 -128.53072,0 -83.87327,-0.6314 -114.65837,-0.6924 z m 85.20845,-61.6868 c -37.16492,-0.066 -34.52394,1.2856 -21.56727,-11.0389 2.67723,-2.5466 5.23804,-4.9874 5.69068,-5.424 1.3584,-1.3101 10.16353,-9.7016 12.25684,-11.681 1.94912,-1.8431 1.94912,-1.8431 17.99167,-1.7705 56.68202,0.2567 82.79828,0.3613 85.19394,0.3412 3.07472,-0.026 3.79514,-1.2567 -6.04827,10.3346 -8.50952,10.0204 -13.2745,16.4986 -15.56996,19.2221 -82.4868,-0.3219 -55.27764,0.058 -77.94763,0.016 z m 83.63598,-49.2152 c 2.49634,-4.1844 18.52433,-24.5247 19.23811,-24.4141 0.45647,0.071 4.75902,0.1954 9.56121,0.2771 4.80218,0.082 10.27906,0.203 12.17083,0.2696 1.89177,0.067 6.29708,0.1842 9.78958,0.2611 14.38323,0.3168 27.74712,0.6837 27.83385,0.7643 0.0805,0.075 -3.24488,3.5373 -12.09114,12.5898 -4.43839,4.5419 -8.96276,9.1941 -10.05417,10.3382 -57.04891,0.6821 -56.52384,0.1004 -56.44827,-0.086 z"
       id="path311" /></g></svg>
