<svg xmlns="http://www.w3.org/2000/svg" width="559.5" height="559.5" viewBox="0 0 148.034 148.034"><path d="M111.736 244.322c0-.237 1.105-2.078 6.672-11.113 1.991-3.234 3.783-6.493 4.035-7.343.154-.518.08-.595-.569-.595-.41 0-1.796.31-3.08.687-2.495.734-3.6.71-4.546-.1-1.458-1.247-4.8-6.23-5.397-8.048-.356-1.083-.199-1.575.94-2.944.342-.411.622-.95.622-1.196s-.773-1.327-1.72-2.402c-.945-1.074-1.72-2.095-1.72-2.268 0-.705-4.439-2.634-15.236-6.621-3.651-1.348-7.164-2.7-7.806-3.003l-1.167-.552 12.61.065 12.608.065.837-1.4c2.825-4.722 9.738-12.355 13.213-14.587 2.402-1.543 3.425-1.775 4.917-1.115 1.82.805 2.954 1.799 3.442 3.018.293.733.57 2.82.816 6.138.46 6.199.678 7.54 1.231 7.54.162 0 .943-.446 1.737-.992 1.422-.978 1.474-.991 3.688-.916 1.68.057 2.402-.026 2.869-.332.98-.642 5.251-7.216 8.219-12.651 1.303-2.385 6.424-10.755 7.29-11.912.79-1.058 1.513-.14 6.83 8.68 6.4 10.617 10.193 15.7 12.063 16.17.445.112 1.211-.01 2.06-.324 1.993-.74 7.364-.693 9.47.084l1.505.554 1.194-.635c.768-.41 1.634-.636 2.424-.636 1.052 0 1.363.133 2.155.926 1.087 1.087 1.164 1.102 1.825.36.761-.855 2.033-1.286 3.79-1.286 2.22 0 2.81.346 3.663 2.147.857 1.812-.206 1.67 9.72 1.298 10.24-.385 17.859-.508 17.859-.288 0 .245-3.28 1.552-15.056 5.999-5.152 1.946-9.43 3.599-9.505 3.674-.075.076.15 1.714.502 3.642.88 4.825.877 9.43-.007 11.706-1.55 3.992-4.798 7.18-8.805 8.642-.834.305-1.633.694-1.776.866-.18.217.463 1.46 2.114 4.093 3.166 5.045 4.337 7.169 3.951 7.169-.497 0-8.422-3.025-24.07-9.186-7.932-3.123-15.89-6.205-17.687-6.848l-3.267-1.17-2.422.829-42.766 16.375a.267.267 0 0 1-.27-.264zm7.727-4.597a2170.335 2170.335 0 0 1 31.689-12.39c4.22-1.605 5.051-1.84 6.09-1.717 1.629.193 5.088 1.415 14.026 4.952 4.147 1.641 9.683 3.807 12.303 4.813 2.62 1.006 6.452 2.485 8.518 3.286 2.065.801 4.06 1.418 4.432 1.372l.676-.085-1.464-2.438c-.805-1.34-1.868-2.866-2.362-3.39l-.9-.953-3.14.183c-3.401.2-4.081.038-5.28-1.249-1.274-1.368-1.207-2.843.185-4.06.333-.29.945-1.058 1.36-1.705 1.513-2.363.852-4.158-2.302-6.252-1.654-1.098-2.568-2.211-3.833-4.667l-.934-1.815-1.58 1.11c-2.324 1.634-4.08 2.357-6.132 2.525-2.182.179-4.323-.46-6.78-2.023l-1.615-1.027-1.596 1.136c-1.815 1.292-3.351 2.105-4.505 2.384-1.457.352-4.028.178-5.703-.386-1.782-.6-2.367-.548-2.367.211 0 .776-1.34 1.854-3.027 2.434-3.04 1.046-5.426.478-7.963-1.895l-1.628-1.523-1.351 1.686c-.744.928-2.151 2.264-3.128 2.969-3.612 2.607-5.353 4.576-8.739 9.881-1.904 2.984-5.385 8.864-5.385 9.096 0 .31.772.163 2.435-.463zm76.808-9.517c4.835-1.565 7.353-4.417 8.087-9.16.517-3.345-.113-8.039-2.127-15.842-1.175-4.55-2.06-6.728-2.921-7.189-.945-.506-1.057.031-.359 1.722 1.167 2.822 1.95 5.925 1.95 7.723 0 1.538-.078 1.788-.773 2.484-.913.913-1.797.985-2.763.225-1.055-.83-1.85-2.398-3.214-6.331-1.223-3.53-2.19-5.292-2.905-5.292-.715 0-.669.528.253 2.888.858 2.195 1.508 5.065 2.642 11.664.885 5.152 2.038 7.25 3.984 7.25 1.268 0 2.195-.765 3.437-2.838.582-.97 1.161-1.766 1.287-1.766.295 0-.007 1.6-.648 3.43-.704 2.012-1.72 3.184-3.56 4.11-1.42.716-1.813.792-3.958.77-1.657-.016-2.9-.194-4.087-.583-1.923-.631-2.395-.48-2.395.762 0 1.197-.969 3.438-2.103 4.864-.574.724-.992 1.367-.929 1.43.35.35 2.504.525 5.545.45 2.823-.07 3.82-.209 5.557-.77zm-74.914-7.742c3.648-1.05 7.19-2.634 8.751-3.914.6-.491 1.444-1.532 1.877-2.313.734-1.326.783-1.592.75-4.065-.026-2.007-.199-3.189-.715-4.895-1.623-5.361-2.292-7.804-2.292-8.363 0-.329-.128-.933-.285-1.343l-.285-.745-.594.688c-.326.378-.981 1.797-1.455 3.153-1.943 5.565-5.28 8.718-9.234 8.725-1.935.003-2.92-.422-3.87-1.67-3.287-4.307-.869-11.45 6.244-18.45 1.987-1.955 3.813-3.161 4.785-3.161 1.888 0 1.63 5.522-.505 10.848-2.149 5.357-5.038 7.07-4.943 2.93.025-1.084.265-2.068.79-3.236.927-2.067 1.043-4.287.253-4.865-.724-.53-1.337-.103-2.552 1.778-1.325 2.049-2.095 4.099-2.44 6.487-.329 2.29-.008 3.328 1.23 3.976 4.55 2.384 10.672-4.894 11.196-13.312.285-4.574-.31-6.08-2.385-6.037-2.168.046-4.747 2.025-8.585 6.59-3.766 4.478-7.022 9.645-7.727 12.262-.4 1.484.01 3.523 1.033 5.135 1.003 1.582 3.032 2.6 5.535 2.78 4.339.31 8.223-2.063 11.417-6.976l1.358-2.088-.1 2.646c-.071 1.849-.24 2.908-.563 3.52-1.315 2.485-4.904 4.53-12.142 6.921-2.608.861-4.168 1.508-4.168 1.73 0 .441 2.276 3.851 3.59 5.38 1.154 1.34.96 1.343 6.03-.116zm67.417-5.3c1.183-1.125 1.574-2.066 1.728-4.163.214-2.918-.318-8.098-.993-9.667-1.568-3.646-7.011-6.26-7.941-3.813-.3.79.27 2.278 1.272 3.325 1.31 1.367 2.34.742 2.042-1.24-.156-1.042-.117-1.208.281-1.208.619 0 2.21 1.722 2.808 3.039.614 1.352.64 3.643.054 4.637-.557.943-1.383 1.32-2.891 1.32-1.956 0-2.633-.946-4.068-5.688-1.13-3.737-1.838-5.201-2.468-5.107-1.015.152-1.1.796-.355 2.66.384.96 1.177 3.484 1.761 5.608 1.763 6.41 2.872 8.89 4.687 10.483.837.735 1.09.819 2.118.703.803-.09 1.416-.368 1.965-.89zm-43.929-.292c.516-.515.737-2.304.496-4.01-.305-2.166-.502-2.358-1.817-1.765-1.25.564-1.961.4-3.147-.726-.937-.89-1.762-2.798-2.056-4.758-.169-1.128-.137-1.246.337-1.246.289 0 1.131.252 1.873.56 1.805.75 2.49.537 4.33-1.349 1.566-1.604 2.179-2.936 1.744-3.791-.318-.624-1.064-.472-1.397.285-.144.327-.467.66-.717.74-.514.163-1.559-.309-1.878-.85-.349-.59-.816-.414-1.917.723-.575.594-1.366 1.248-1.757 1.453-.876.46-1.33.108-1.813-1.407-.473-1.478-.636-1.523-1.543-.423-1 1.214-1.025 1.63-.166 2.894.869 1.28 1.89 4.562 2.41 7.74.229 1.405.465 2.812.524 3.128.166.884 1.425 2.224 2.61 2.78 1.132.528 3.365.542 3.884.022zm12.146-2.591c3.403-1.717 5.74-6.511 5.035-10.329-.514-2.783-1.676-4.746-3.313-5.598-.883-.458-3.096-.515-4.164-.106-1.574.603-4.21 4.98-5.118 8.5-1.56 6.045 2.496 10.086 7.56 7.533zm-2.472-5.706c-1.548-1.276-2.696-4.12-2.192-5.433.147-.386.32-.31 1.162.513 1.199 1.171 2.416 1.487 3.356.87.849-.556.85-1.39.003-2.54-.804-1.089-.85-1.997-.12-2.388 1.663-.889 4.459 3.26 3.845 5.705-.208.83-2.348 3.188-3.373 3.718-1.064.55-1.576.466-2.68-.445zm17.58 5.54c1.538-.462 3.101-1.951 3.966-3.78 1.422-3.004.899-6.846-1.333-9.803-1.262-1.671-2.951-2.58-5.048-2.718-3.118-.205-4.68 1.492-5.817 6.321-.975 4.14-.644 5.959 1.469 8.085 1.935 1.946 4.34 2.62 6.763 1.894zm-3.237-6.923c-1.847-.974-2.359-1.96-2.346-4.518.01-2.114.016-2.133.428-1.35.23.437.723 1.122 1.097 1.522.835.893 2.316.991 3.263.216l.625-.511-1.096-1.143c-1.3-1.355-1.598-2.118-1.015-2.602.35-.29.587-.223 1.51.426 1.396.981 3.842 3.85 4.075 4.782.26 1.038-.36 1.94-2.016 2.933-1.73 1.037-2.903 1.1-4.525.245zm48.51-5.145c2.293-.86 4.258-1.654 4.366-1.766.109-.112-3.434-.156-7.873-.098-8.933.118-9.263.176-9.256 1.614.004.825.67 4.015.925 4.427.07.113 1.824-.43 3.898-1.205a9097.33 9097.33 0 0 0 7.94-2.972zm-110.695.738c.487-1.377.691-2.306.53-2.406-.413-.256-12.149-.508-13.33-.287-1.306.244-1.28.26 3.307 2.123 4.908 1.992 8.311 3.186 8.518 2.988.1-.096.54-1.184.975-2.418zm44.112-5.56c2.888-2.217 2.97-2.253 5.116-2.217 2.158.035 4.555.734 5.752 1.676.967.76 1.319.689 3.25-.66.95-.664 2.153-1.264 2.712-1.354.551-.088 1.003-.26 1.003-.382 0-.787-11.196-19.025-11.68-19.025-.363 0-8.298 12.998-11.189 18.33-1.417 2.613-1.43 3.147-.072 2.927.94-.153 2.19.327 2.818 1.083.508.612 1.136.508 2.29-.378z" style="fill:#fff;stroke-width:.264583" transform="translate(-82.764 -133.464)"/></svg>