<svg xmlns="http://www.w3.org/2000/svg" width="560.398" height="560.398" viewBox="0 0 148.272 148.272"><path d="M43.02 179.262c-15.409 20.569-15.34 20.708-15.34 20.708l5.788 9.413-2.301 3.277 6.066 7.67 63.868-.976 4.741 10.04 13.527-3.486 5.299-3.8 2.161-7.007-3.137-18.408-2.371-4.95-3.905 1.673-45.15-1.295-20.042 2.41-2.65-15.548z" style="fill:#fff;stroke:#000;stroke-width:.264583px;stroke-linecap:butt;stroke-linejoin:miter;stroke-opacity:.0588235" transform="translate(-3.761 -131.075)"/><path d="M167.385 134.204c0-.358-1.326-2.71-3.734-6.623-1.439-2.338-2.616-4.385-2.616-4.55 0-.164.728-.564 1.62-.888 4.452-1.624 8.031-5.359 9.33-9.739.582-1.961.549-6.106-.078-9.695-.773-4.423-.784-4.61-.311-4.861.23-.123 3.515-1.373 7.298-2.78 9.25-3.437 17.066-6.558 17.066-6.814 0-.368-14.293-.106-24.41.446l-2.583.141-.635-1.435c-.348-.789-.938-1.634-1.31-1.877-1.632-1.07-4.696-.7-6.203.747l-.877.842-.71-.85c-1.299-1.552-2.656-1.75-4.752-.689l-1.403.71-1.38-.511c-1.986-.737-8.282-.745-9.909-.013-.954.43-1.22.453-1.92.163-1.994-.826-5.87-6.106-12.137-16.537-5.078-8.45-5.68-9.192-6.628-8.173-.66.709-5.773 9.037-7.287 11.868-2.888 5.4-7.507 12.352-8.512 12.81-.453.206-1.337.254-2.597.14-2.033-.185-2.54-.04-3.936 1.122-.946.786-1.656.797-1.867.026-.09-.327-.286-2.083-.436-3.902-.752-9.111-.818-9.388-2.562-10.826-1.368-1.128-3-1.715-4.16-1.498-3.36.63-11.338 8.515-15.772 15.59l-1.135 1.81-12.485-.194c-8.702-.135-12.537-.108-12.657.087-.18.29 2.402 1.37 8.695 3.632 4.873 1.753 11.902 4.553 13.686 5.452.915.462 1.665 1.054 1.893 1.496.208.403 1.045 1.479 1.859 2.391.814.913 1.48 1.78 1.48 1.93 0 .148-.417.816-.926 1.483-1.074 1.406-1.14 2.059-.362 3.594 1.057 2.088 3.995 6.286 4.952 7.075 1.208.995 2.334 1.022 5.332.125 2.58-.773 2.91-.802 2.91-.256 0 .82-2.118 4.532-8.027 14.07-1.551 2.505-2.82 4.634-2.82 4.731 0 .594.906.26 25.267-9.292 13.43-5.266 19.565-7.534 20.387-7.534.799 0 5.26 1.64 15.464 5.682 4.293 1.7 11.734 4.614 16.536 6.475 14.354 5.56 13.362 5.197 13.362 4.899zm-15.737-13.908c-.724-.148-1.36-.313-1.413-.365-.053-.053.383-.73.968-1.505 1.252-1.659 1.625-2.526 1.86-4.32.164-1.265.207-1.322.963-1.289.435.02 1.446.226 2.246.46 1.634.478 4.68.562 6.095.17.514-.144 1.485-.61 2.157-1.036.985-.624 1.408-1.153 2.175-2.715.975-1.985 1.532-4.454 1.006-4.454-.155 0-.65.646-1.102 1.435-2.389 4.175-5.267 4.097-6.587-.18-.297-.959-.85-3.628-1.23-5.931-.904-5.487-1.284-7.087-2.28-9.609-.895-2.265-.887-3.14.026-2.65.698.373 1.327 1.664 2.387 4.897 1.07 3.262 2.096 5.341 3.083 6.245 1.02.933 1.427 1.036 2.43.614.965-.406 1.63-1.672 1.63-3.104 0-1.244-.857-4.462-1.87-7.028-.47-1.188-.786-2.23-.703-2.313.388-.387 1.254.295 1.77 1.393.692 1.472 2.107 6.567 3.092 11.136.619 2.868.73 4.014.741 7.622l.013 4.246-1 2.024c-1.507 3.05-3.596 4.623-7.642 5.754-2.277.636-6.883.899-8.815.503zm-70.76-7.6c-.74-.638-3.117-3.878-3.739-5.097l-.53-1.041.734-.284c.404-.157 2.342-.822 4.307-1.478 4.51-1.506 7.984-3.16 9.569-4.557 1.77-1.56 2.347-2.923 2.53-5.971.084-1.423.046-2.518-.088-2.517-.13.002-.654.742-1.163 1.646-1.254 2.223-4.504 5.487-6.35 6.375-4.862 2.34-10.393.802-11.6-3.224-.964-3.218.41-6.494 5.617-13.398 2.285-3.03 6.545-7.331 8.097-8.176 1.758-.956 3.276-.885 4.077.192.491.66.553 1.09.53 3.704-.04 4.692-1.383 8.707-3.995 11.939-2.254 2.788-5.246 3.8-7.251 2.452-.857-.577-.903-.69-.978-2.403-.094-2.138.412-4.08 1.704-6.548 1.847-3.527 3.328-4.063 3.48-1.258.059 1.096-.088 1.809-.622 3.015-.915 2.069-1.136 4.108-.544 5.011.605.924 1.211.84 2.344-.322 2.69-2.76 5.19-11.497 4.063-14.196-.412-.986-.461-1.016-1.48-.88-1.321.178-3.088 1.458-5.41 3.92-4.48 4.747-6.764 9.17-6.764 13.093 0 1.649.122 2.154.861 3.582 1.129 2.18 2.034 2.725 4.551 2.739 1.582.008 2.079-.109 3.28-.774 2.593-1.435 4.539-4.063 6.002-8.104.91-2.512 1.602-3.778 1.949-3.563.118.073.282.761.364 1.53.083.768.595 2.825 1.14 4.572 1.722 5.528 2 6.78 2.019 9.128.022 2.712-.35 3.72-2.038 5.525-1.867 1.996-5.036 3.414-11.312 5.062-2.668.701-2.873.72-3.354.305zm69.363-5.499c-1.853-.936-3.356-3.956-5.082-10.21-1.2-4.35-1.999-6.751-2.41-7.248-.393-.472-.076-1.343.548-1.507.28-.073.636.019.79.204.154.185.803 1.945 1.443 3.91 1.884 5.78 2.51 6.679 4.655 6.679 1.603 0 2.63-.71 3.15-2.18.724-2.05-.519-5.164-2.708-6.787-.949-.703-1.209-.342-1.038 1.438.1 1.037.037 1.336-.307 1.468-.634.243-1.669-.546-2.277-1.738-.72-1.413-.684-2.276.118-2.802 1.232-.807 3.686.192 5.742 2.336 1.817 1.895 2.107 3.005 2.27 8.687.116 4.075.075 4.777-.333 5.637-.927 1.954-2.988 2.908-4.561 2.113zm-43.518-.622c-2.089-.653-3.642-2.499-3.642-4.328 0-2.293-1.7-8.244-2.77-9.694-.368-.499-.67-1.035-.67-1.191 0-.5 1.352-2.294 1.653-2.194.159.053.447.554.64 1.112.42 1.21.816 1.733 1.314 1.733.202 0 1.08-.655 1.95-1.455.87-.8 1.638-1.455 1.705-1.455.068 0 .428.305.801.678.837.837 1.998.799 2.383-.078.574-1.31 1.622-.88 1.353.555-.24 1.28-1.625 3.032-3.133 3.964l-1.238.766-1.732-.694c-.953-.381-1.85-.693-1.994-.693-.43 0-.298 1.678.278 3.544.376 1.217.854 2.078 1.574 2.835.978 1.028 1.096 1.078 2.172.922 2.345-.341 2.418-.331 2.617.371.104.364.2 1.452.214 2.419.02 1.317-.089 1.893-.436 2.301-.535.63-1.992.909-3.04.582zm10.381-2.424c-2.365-.943-3.502-3.987-2.781-7.445.508-2.44 2.45-6.376 3.845-7.794 1.19-1.21 2.23-1.557 3.972-1.323 1.724.23 2.79 1.088 3.731 3.002 1.636 3.323 1.26 7.443-.955 10.462-1.975 2.692-5.412 4.055-7.812 3.098zm5.318-5.748c1.337-.848 2.758-2.51 3.18-3.718.414-1.19-.341-3.228-1.736-4.683-1.122-1.171-1.889-1.433-2.476-.846-.512.512-.368 1.469.395 2.621.78 1.179.68 1.693-.437 2.26-.876.444-2.116.006-3.079-1.087-.45-.512-.897-.853-.992-.757-.349.348-.148 2.627.322 3.657.51 1.114 2.686 3.307 3.284 3.307.193 0 .886-.34 1.54-.754zm11.39 5.218c-3.506-.647-5.827-3.726-5.46-7.242.353-3.383 1.566-6.822 2.815-7.988 1.249-1.164 4.252-1.279 6.263-.238 2.094 1.082 4.011 4.398 4.218 7.295.374 5.225-3.261 9.016-7.836 8.173zm3.8-6.674c1.32-.615 3.04-2.263 3.04-2.913 0-1.24-4.586-6.089-5.62-5.942-.425.06-.622.29-.68.797-.063.544.171.958.992 1.755 1.236 1.2 1.296 1.449.487 2.016-1.287.9-2.75.317-3.655-1.458-.292-.573-.647-1.041-.79-1.041-.335 0-.336 2.779 0 3.947.349 1.219 1.202 2.086 2.784 2.832 1.634.771 1.8.771 3.441.007z" style="fill:#fdfdfd;stroke-width:.264583" transform="translate(-47.688 -25.372)"/><path d="M166.988 134.082c.09-.146.216-.265.28-.265.064 0 .117.12.117.265 0 .145-.126.264-.28.264-.154 0-.207-.119-.117-.264zm-90.62-.25c0-.136.118-.32.262-.41.15-.092.194.014.104.25-.176.458-.366.541-.366.16zm5.556-4.172c0-.451 5.7-9.765 7.61-12.436 1.953-2.73 3.942-4.722 6.682-6.69.911-.655 2.247-1.935 2.967-2.844.72-.91 1.357-1.654 1.413-1.654.057 0 .577.514 1.157 1.143 1.196 1.298 3.11 2.412 4.596 2.677 2.587.46 6.522-1.205 6.842-2.894.122-.647 1.157-.664 2.732-.043 1.346.53 4.15.554 5.846.05.722-.214 2.262-1.042 3.422-1.84l2.11-1.45 1.058.662c3.128 1.954 5.598 2.643 8.062 2.246 1.983-.32 3.137-.822 5.204-2.268 2.152-1.634 1.925-1.251 2.873.737.964 2.03 2.553 3.82 4.584 5.164 1.45.96 2.16 2.033 2.162 3.273.002 1.402-.315 2.058-1.829 3.788-1.53 1.749-1.67 2.477-.744 3.863 1.075 1.61 1.984 1.884 5.618 1.694l3.175-.166.703.744c1.113 1.178 3.98 5.955 3.726 6.21-.128.127-.744.064-1.403-.144-1.553-.49-12.663-4.77-24.326-9.369-10.67-4.207-12.82-4.926-14.684-4.905-1.405.015-9.842 3.164-28.99 10.82-8.81 3.52-10.566 4.125-10.566 3.632zm39.903-12.692c.19-.077.42-.067.507.02.088.089-.068.151-.347.14-.308-.013-.371-.076-.16-.16zm48.463-21.525c-.154-.288-.419-1.476-.588-2.64-.47-3.229-1.066-3.022 8.998-3.122 4.613-.046 8.32-.018 8.24.063-.126.126-7.252 2.844-14.325 5.463-2.006.743-2.051.748-2.325.236zM69.62 94.615c-2.23-.748-8.177-3.053-9.917-3.844-1.516-.69-1.887-.96-1.587-1.152.355-.229 14.002-.082 14.244.153.15.147-1.576 5.154-1.77 5.13-.096-.01-.533-.14-.97-.287zm43.755-7.538c-.564-.68-1.962-1.16-2.856-.981-1.835.366-1.247-.99 4.882-11.28 4.19-7.035 6.125-10.055 6.442-10.055.493 0 11.674 18.161 11.674 18.962 0 .188-.327.412-.727.496-1.108.234-2.31.811-3.535 1.7-1.347.975-1.781.995-3.04.14-1.124-.762-3.082-1.395-5.024-1.623-1.643-.193-3.06.369-5 1.982-1.407 1.172-2.231 1.365-2.816.66z" style="fill:#6197ab;stroke-width:.264583" transform="translate(-47.688 -25.372)"/><path d="M76.633 133.85c0-.24 2.921-5.118 5.758-9.615 1.935-3.068 4.71-8.04 4.952-8.872.15-.518.076-.596-.572-.596-.41 0-1.797.31-3.081.687-2.911.857-3.68.743-5.118-.755-1.343-1.4-3.636-4.82-4.507-6.724-.742-1.62-.608-2.408.605-3.546.995-.935.805-1.583-1.08-3.685-.946-1.055-1.72-2.065-1.72-2.245 0-.732-5.426-3.065-16.933-7.28-3.274-1.198-6.25-2.348-6.615-2.554-.575-.326.97-.362 11.928-.283l12.588.092 1.567-2.392c2.344-3.58 5.276-7.132 8.207-9.944 4.39-4.213 6.903-5.59 8.93-4.892 1.665.572 3.13 1.757 3.664 2.964.363.821.596 2.486.885 6.319.468 6.2.689 7.515 1.26 7.515.172 0 .96-.446 1.754-.992 1.42-.977 1.477-.99 3.671-.916 1.668.058 2.386-.026 2.855-.333.99-.649 5.769-8 8.432-12.969 1.788-3.338 7.27-12.042 7.583-12.042.545 0 1.806 1.748 4.722 6.546 7.186 11.825 9.095 14.667 11.515 17.146 1.69 1.731 2.41 1.95 4.207 1.284 2.006-.745 7.354-.686 9.52.104l1.554.568 1.114-.653a4.505 4.505 0 0 1 2.375-.653c1.087 0 1.387.127 2.186.926 1.054 1.054 1.197 1.095 1.7.487.643-.777 2.413-1.401 3.99-1.407 2.154-.009 2.74.347 3.587 2.173l.724 1.562 3.836-.153c2.11-.084 8.183-.215 13.494-.293l9.658-.14-2.25.978c-1.236.537-6.755 2.677-12.262 4.754-5.508 2.077-10.081 3.844-10.164 3.926-.082.082.167 2.094.555 4.47.795 4.873.859 6.685.324 9.21-.954 4.5-4.39 8.436-8.85 10.14-1.014.388-1.963.849-2.109 1.025-.19.229.637 1.789 2.891 5.454 2.798 4.549 3.467 5.836 3.034 5.836-.321 0-9.907-3.682-24.086-9.252-8.586-3.372-16.792-6.543-18.235-7.045l-2.624-.914-1.742.573c-2.431.801-13.115 4.905-27.14 10.426-10.539 4.148-15.988 6.212-16.404 6.212-.073 0-.133-.104-.133-.232zm15.857-7.823c19.148-7.655 27.585-10.804 28.99-10.82 1.864-.02 4.015.699 14.684 4.906 11.663 4.6 22.773 8.878 24.326 9.37.659.207 1.275.27 1.403.142.254-.254-2.613-5.03-3.726-6.21l-.703-.743-3.175.166c-3.634.19-4.543-.084-5.618-1.694-.926-1.386-.786-2.114.744-3.863 1.514-1.73 1.831-2.386 1.829-3.788-.002-1.24-.712-2.314-2.162-3.273-2.03-1.343-3.62-3.134-4.584-5.164-.504-1.062-.972-1.93-1.04-1.93-.069 0-.893.537-1.833 1.193-4.55 3.182-8.2 3.188-13.266.022l-1.059-.661-2.11 1.45c-1.16.797-2.7 1.625-3.42 1.84-1.697.503-4.501.479-5.847-.051-1.575-.62-2.61-.604-2.732.043-.32 1.69-4.255 3.354-6.842 2.894-1.486-.265-3.4-1.379-4.596-2.677-.58-.629-1.1-1.143-1.157-1.143-.056 0-.692.744-1.413 1.654-.72.91-2.056 2.19-2.967 2.844-2.74 1.968-4.73 3.96-6.682 6.69-1.91 2.67-7.61 11.985-7.61 12.436 0 .493 1.757-.111 10.566-3.633zm66.89-5.858c7.537-1.556 10.784-6.388 9.905-14.733-.505-4.793-2.788-14.187-4.046-16.655-.517-1.013-1.377-1.674-1.822-1.399-.147.09.037.899.44 1.93 1.284 3.297 1.94 5.884 1.94 7.646 0 1.538-.078 1.788-.773 2.484-2.062 2.062-4.041-.072-6.107-6.584-.476-1.5-1.117-3.096-1.424-3.547-1.275-1.87-2.349-1.637-1.6.347 1.404 3.717 1.811 5.246 2.502 9.404.833 5.01 1.46 7.796 1.987 8.826 1.368 2.675 4.001 2.593 5.637-.176.388-.655.978-1.509 1.313-1.897l.61-.705-.162.926c-.325 1.862-1.32 4.29-2.158 5.27-1.848 2.159-5.319 2.875-9.099 1.877-3.34-.882-3.242-.903-3.486.759-.264 1.789-.927 3.272-2.14 4.785-.521.65-.9 1.23-.842 1.288.633.634 6.532.731 9.325.154zm-74.18-7.911c7.783-2.134 11.065-4.178 12.163-7.576.83-2.574.44-5.477-1.577-11.73-.514-1.593-1.002-3.498-1.085-4.233-.162-1.445-.478-2.262-.874-2.262-.324 0-1.122 1.598-1.717 3.44-1.215 3.762-3.681 7.02-6.303 8.327-1.547.771-3.87.902-5.311.3-1.68-.702-3.07-3.344-3.07-5.836 0-1.49.651-3.872 1.604-5.868 2.06-4.317 8.024-10.61 10.53-11.111.645-.13.862-.034 1.242.545 1.027 1.569-.039 7.609-2.059 11.658-1.467 2.943-2.64 4.109-3.611 3.59-1.019-.546-.844-3.289.376-5.91.708-1.52.82-2.89.315-3.877-.5-.98-.926-.955-1.936.116-1.662 1.763-3.155 5.305-3.438 8.16-.22 2.22.12 2.979 1.634 3.648 2.075.918 4.153.182 6.388-2.263 2.664-2.915 4.275-7.006 4.501-11.432.166-3.238-.034-4.458-.867-5.29-1.765-1.766-5.387.437-10.203 6.206-2.77 3.317-5.573 7.45-6.802 10.027-.81 1.7-.975 2.33-.96 3.667.057 5.345 6.181 8.134 11.863 5.401 2.282-1.097 4.147-2.852 6.004-5.65l1.61-2.424-.107 2.646c-.073 1.813-.248 2.914-.557 3.499-1.3 2.456-4.72 4.424-11.888 6.84-2.707.912-4.432 1.628-4.432 1.839 0 .855 4.227 6.475 4.87 6.475.182 0 1.845-.415 3.696-.922zm68.563-5.76c.669-.669 1.245-1.554 1.42-2.183.624-2.252.14-9.349-.785-11.5-1.41-3.28-6.044-5.849-7.65-4.242-.637.637-.647.796-.119 2.06.82 1.962 2.697 3.155 3.142 1.996.094-.244.093-.958-.002-1.588-.147-.978-.104-1.145.29-1.145.62 0 2.21 1.722 2.808 3.039.288.633.485 1.688.489 2.61.005 1.411-.074 1.628-.894 2.448-.792.792-1.063.9-2.275.9-2.022 0-2.632-.769-3.966-4.988-1.724-5.45-2.391-6.542-3.39-5.543-.427.427-.4 1.162.068 1.877.213.324 1.053 2.905 1.869 5.737 1.923 6.675 2.795 8.751 4.356 10.371 1.097 1.138 1.354 1.276 2.372 1.276.99 0 1.29-.148 2.267-1.125zm-44.485.079c.963-.366 1.333-1.94.985-4.18-.15-.955-.387-1.853-.53-1.995-.167-.168-.637-.106-1.344.177-1.402.56-2.157.352-3.297-.91-.882-.976-1.479-2.499-1.885-4.812-.153-.87-.11-.992.349-.992.287 0 1.13.252 1.871.56 1.802.75 2.49.537 4.309-1.326 1.716-1.758 2.389-3.278 1.74-3.927-.495-.495-1.241-.259-1.427.452-.075.286-.367.593-.65.682-.463.148-.805-.015-2.239-1.066-.26-.192-.688.063-1.616.961-2.232 2.16-2.696 2.171-3.49.082-.269-.711-.593-1.322-.718-1.358-.37-.107-1.685 1.796-1.685 2.437 0 .322.166.724.368.892.887.736 2.554 6.193 2.956 9.68.101.874.336 1.886.522 2.25 1.018 1.992 3.803 3.145 5.781 2.393zm11.553-2.315c1.832-.592 4.13-2.705 5.103-4.69 1.43-2.92 1.52-5.832.27-8.617-1.29-2.87-2.624-3.659-5.897-3.487-1.904.1-4.894 4.478-5.992 8.774-.998 3.906.38 7.332 3.305 8.218 1.075.326 1.71.287 3.211-.198zm-1.415-6.19c-1.532-1.262-2.604-3.898-2.157-5.304.162-.513.231-.489 1.144.402 1.183 1.155 2.402 1.467 3.338.854.852-.558.844-1.327-.027-2.584-1.19-1.716-.336-3.096 1.317-2.13 1.564.913 2.864 3.794 2.453 5.435-.206.819-2.384 3.255-3.364 3.761-1.089.563-1.594.482-2.704-.433zm17.888 5.427c1.598-.545 3.416-2.529 4.047-4.416.579-1.732.572-4.205-.015-5.974-.636-1.915-2.53-4.392-3.889-5.085-2.746-1.401-5.932-.788-7.186 1.383-1.646 2.85-2.508 8.097-1.656 10.086 1.478 3.454 5.239 5.185 8.7 4.006zm-3.597-6.878c-1.826-.95-2.304-1.88-2.301-4.476l.002-2.116.668 1.168c.367.643.872 1.324 1.12 1.513.684.519 2.285.439 3.005-.15l.624-.511-1.116-1.144c-1.35-1.383-1.595-2.425-.599-2.542.46-.053 1.026.23 1.829.917 1.487 1.274 3.458 3.945 3.458 4.688 0 .878-.695 1.682-2.201 2.546-1.677.962-2.796.988-4.49.107zm47.02-4.45c3.336-1.254 6.132-2.346 6.213-2.427.08-.08-3.627-.11-8.24-.063-10.064.1-9.469-.107-8.998 3.122.17 1.164.434 2.352.588 2.64.32.598-.79.946 10.437-3.272zm-109.116.222c.464-1.391.801-2.57.75-2.62-.242-.236-13.89-.383-14.244-.154-.3.193.071.462 1.587 1.152 2.35 1.069 10.21 4.052 10.888 4.132.097.011.556-1.118 1.02-2.51zm44.582-5.975c1.938-1.613 3.356-2.175 4.999-1.982 1.942.228 3.9.86 5.023 1.623 1.26.855 1.694.835 3.04-.14 1.226-.889 2.428-1.466 3.536-1.7.4-.084.727-.308.727-.496 0-.8-11.18-18.962-11.674-18.962-.317 0-2.252 3.02-6.442 10.054-6.13 10.29-6.717 11.647-4.882 11.28.894-.178 2.292.302 2.856.982.585.706 1.41.513 2.817-.659z" style="fill:#343434;stroke-width:.264583" transform="translate(-47.688 -25.372)"/></svg>