<svg xmlns="http://www.w3.org/2000/svg" width="300mm" height="300mm" viewBox="0 0 300 300"><g style="fill:#fff"><path d="M415.623 428.471c22.81-.952 45.52-.992 44.953-.08-.34.547-12.686.877-27.434.732-14.75-.145-22.633-.439-17.52-.652zm70.39 0c22.81-.952 45.52-.992 44.954-.08-.34.547-12.686.877-27.435.732-14.749-.145-22.633-.439-17.52-.652zm140.116.004c21.03-.953 43.832-.997 43.83-.084 0 .547-11.806.879-26.232.736-14.427-.144-22.346-.437-17.598-.652zm9.96-77.642c-5.843-8.844-10.823-16.602-11.067-17.24-.246-.644 17.594-1.159 40.176-1.159h40.618v34.531l-29.55-.025-29.551-.026-10.625-16.08zm-33.202-49.805c-5.113-7.752-10.401-15.81-11.751-17.906l-2.455-3.813H705.816v35.86L659 315.145l-46.816-.023-9.297-14.094z" style="fill:#fff;stroke-width:1.32812" transform="translate(-406.076 -174.033)"/><path d="M513.23 376.275c18.997-28.481 34.54-52.094 34.54-52.474 0-.379-15.501-23.93-34.447-52.335-18.947-28.405-34.087-52.007-33.646-52.448.441-.441 11.908-.785 25.483-.765l24.68.037 69.063 103.688c37.984 57.029 69.26 104.227 69.504 104.884.254.685-10.546 1.181-25.234 1.16l-25.677-.036-21.692-32.664-21.693-32.665-21.811 32.7-21.812 32.702h-51.797z" style="fill:#fff;stroke-width:1.32812" transform="translate(-406.076 -174.033)"/><path d="M442.84 376.275c18.997-28.481 34.54-52.13 34.54-52.554 0-.423-14.882-23.069-33.072-50.324-18.19-27.254-33.75-50.82-34.578-52.367l-1.506-2.814 25.613.035 25.613.035 34.531 51.9c18.992 28.545 34.716 52.39 34.94 52.99.226.6-15.199 24.443-34.276 52.986l-34.687 51.897H408.3z" style="fill:#fff;stroke-width:1.32812" transform="translate(-406.076 -174.033)"/></g></svg>