<svg xmlns="http://www.w3.org/2000/svg" width="300mm" height="300mm" viewBox="0 0 300 300"><path d="M146.462 287.046c-17.365-25.363-34.01-43.018-72.086-76.465-20.848-18.313-32.623-29.48-40.687-38.588C15.383 151.32 5.635 131.76 2.035 108.48c-1.13-7.307-1.41-21.332-.556-27.808C6.416 43.26 35.042 14.615 72.222 9.883c6.453-.821 18.06-.624 23.78.405 13.875 2.495 26.591 8.165 37.017 16.505 5.274 4.219 12.017 11.45 16.57 17.77l.79 1.095 1.124-1.71c1.98-3.01 5.739-7.454 9.37-11.079 12.873-12.845 30.209-21.07 48.882-23.194 5.284-.6 17.32-.268 22.237.614 17.345 3.113 31.978 10.712 44.24 22.973 12.304 12.306 19.755 26.696 23.005 44.435.866 4.728 1.181 17.835.573 23.829-2.326 22.918-11.15 42.854-27.89 63.01-8.831 10.635-18.432 20.2-36.4 36.265-31.4 28.072-38.124 34.33-47.815 44.49-13.795 14.464-22.041 24.632-32.475 40.047-2.465 3.64-4.657 6.667-4.871 6.724-.214.058-1.968-2.2-3.897-5.016z" style="fill:#fff;stroke-width:.389656"/></svg>