<svg xmlns="http://www.w3.org/2000/svg" width="227.727" height="227.727" viewBox="0 0 60.253 60.253"><path d="M120.863 205.109c-2.228-.78-3.922-2.172-4.944-4.063-.275-.51-.574-.986-.663-1.059-.09-.073-.419-.608-.73-1.19a33.844 33.844 0 0 0-.896-1.578 87.677 87.677 0 0 1-2.097-3.582c-1.126-2.022-3.653-6.46-3.916-6.879-.138-.218-.88-1.528-1.649-2.91l-1.397-2.514c-.384-2.203-.523-4.231 0-6.085l1.163-2.117c3.515-5.017 8.781-18.265 13.728-20.982 1.265-.675 2.002-.869 3.79-1 1.34-.1 2.504-.053 2.934.115 1.474.577 2.092 2.722 1.185 4.107-.244.372-1.064.846-2.077 1.2-6.427 2.896-8.62 9.815-12.521 16.253-.655 1.08-1.19 2.036-1.19 2.127 0 .09 10.305.164 22.9.164h22.902c-3.474-4.603-6.162-12.66-10.18-16.729-.587-.57-1.487-1.117-2.117-1.284-3.258-.865-4.38-2.547-3.098-4.647.678-1.113 1.994-1.531 4.075-1.295 2.972.336 5.596 2.143 7.124 4.905.362.655 1.284 2.263 2.05 3.572 2.336 5.195 7.243 10.76 8.873 15.941.483 1.593.494 4.195.023 5.523-2.368 5.784-6.52 10.729-9.161 16.377 0 .06-.554 1.035-1.23 2.168-2.388 4-4.512 5.567-7.888 5.822-2.997.227-4.376-.7-4.376-2.942 0-1.223.914-2.1 2.794-2.678.865-.266 2.013-.825 2.552-1.243 3.327-5.028 7.965-11.133 10.164-16.465.141-.368-2.16-.41-22.633-.41h-22.79l.836 1.521c.46.837.924 1.64 1.03 1.786.108.146.49.8.852 1.456.362.654 1.726 3.036 3.033 5.291 1.306 2.256 2.544 4.399 2.751 4.763 1.053 1.85 2.734 2.964 5.16 3.417.66.123 1.49.496 1.843.827 1.388 1.304.954 3.637-.815 4.376-1.171.49-3.912.46-5.394-.06z" style="fill:#fff;stroke-width:.264583" transform="translate(-104.229 -148.139)"/></svg>