<svg xmlns="http://www.w3.org/2000/svg" width="264.852" height="264.852" viewBox="0 0 70.075 70.075"><path d="M-142.81-22.556c-18.321-5.469-18.216-5.425-20.544-8.484-1.816-2.387-2.406-4.132-2.547-7.533-.167-4.048.705-7.735 2.51-10.616l27.329-30.823c1.622-1.866 2.483-2.426 3.725-2.426.856 0 33.537 7.203 34.718 7.652 1.063.404 1.773 1.539 1.773 2.833 0 1.106-.162 1.343-3.942 5.72-13.915 16.11-25.398 29.2-26.023 29.662-.42.312-1.09.525-1.587.505-.472-.02-7.14-1.83-14.816-4.022-7.677-2.192-14.425-3.986-14.995-3.986-2.215 0-3.45 2.252-3.095 5.644.26 2.49 1.849 5.027 3.573 5.706.381.15 7.36 2.25 15.51 4.664l14.816 4.392.643-.744c.353-.41 3.262-3.9 6.464-7.756l11.396-13.724 5.574-6.714.005-2.811c.003-2.013.14-3.204.482-4.193.811-2.35 2.48-3.458 4.295-2.52 1.1.568 1.302 1.636 1.302 3.157-.086 5.187.51 6.98-.276 8.214-.262.403-4.187 5.197-8.722 10.654a12597.276 12597.276 0 0 0-13.06 15.743c-2.65 3.201-5.14 6.028-5.534 6.282-.394.254-1.133.452-1.642.44-.51-.01-8.308-2.223-17.33-4.916zm28.101-39.37c.573-.165 2.773-2.417 3.272-3.35.198-.37.12-.564-.354-.874-.335-.22-5.287-1.536-11.005-2.925-12.284-2.984-11.642-2.973-13.828-.226-1.389 1.746-1.391 1.752-.838 2.2.308.249 3.764 1.23 7.79 2.21l13.983 3.225c.218-.051.66-.168.98-.26z" style="fill:#fff;stroke-width:.264583" transform="translate(165.921 85.2)"/></svg>