<svg xmlns="http://www.w3.org/2000/svg" width="500mm" height="500mm" viewBox="0 0 500 500"><path d="m-151.896 397.04-19.553-.136c111.732-168.677 0 0 110.555-166.757l1.177-1.92-.697-1.252c-2.041-3.662-16.314-25.35-53.507-81.304-51.737-77.834-62.168-93.754-62.168-94.881 0-.387 4.212-.429 43.19-.429h43.189c116.69 177.802 0 0 115.72 174.647l1.42 2.268-.45.887C-7.816 282.212-42.83 338.66-84.03 396.709l-.569.629-23.872-.08c-13.13-.044-32.67-.142-43.425-.217zm99.23 0L58.42 229.184c-115.536-178.822 0 0-115.358-178.115l-.178-.707h86.176l230.374 346.956-87.512-.14-68.542-102.986-68.93 103.124H-9.11c-28.924 0-43.558-.092-43.558-.275zm297.398-67.087 79.176-.383v58.42h-41.587zm-55.134-85.448 134.173-1.742.14 58.283h-98.057zm-59.6-91.135 193.91-.157v60.523l-154.387.366zm-17.494-26.762L73.869 66.674l250.04-.13v60.339Z" style="fill:#ffc34d;fill-opacity:1;stroke-width:.274271" transform="translate(176.09 27.734)"/></svg>