<svg xmlns="http://www.w3.org/2000/svg" width="500mm" height="500mm" viewBox="0 0 500 500"><path d="m-151.896 397.04-19.553-.136 24.453-36.615c46.565-69.727 80.658-121.257 86.102-130.142l1.177-1.92-.697-1.252c-2.041-3.662-16.314-25.35-53.507-81.304-51.737-77.834-62.168-93.754-62.168-94.881 0-.387 4.212-.429 43.19-.429h43.189l22.663 34.079c12.465 18.743 22.898 34.299 23.185 34.569.286.27.52.614.52.766 0 .15 8.99 13.815 19.978 30.364 27.44 41.331 45.855 69.256 49.373 74.87l1.42 2.267-.448.887c-1.823 3.597-12.4 20.219-29.237 45.942-10.746 16.418-81.002 121.753-81.773 122.604l-.57.629-23.872-.08c-13.13-.044-32.67-.142-43.425-.217zm99.23 0c0-.15 13.103-19.929 29.118-43.951 42.288-63.43 67.647-101.714 78.03-117.802l3.94-6.104-6.004-9.255c-3.302-5.09-8.17-12.587-10.817-16.66-2.648-4.073-6.534-10.06-8.636-13.302-15.134-23.35-44.525-68.52-51.755-79.54-9.93-15.135-19.468-29.833-24.826-38.26a2200.936 2200.936 0 0 0-8.403-13.076c-2.608-4.023-4.82-7.633-4.918-8.022l-.178-.707h86.176l4.985 7.474c2.742 4.11 5.137 7.598 5.322 7.748.537.438 37.756 56.416 37.94 57.063.26.913 14.315 22.064 14.666 22.07.171 0 6.062 8.673 13.09 19.267 7.03 10.595 24.79 37.344 39.47 59.444 27.223 40.984 54.23 81.82 57.864 87.493 1.112 1.734 7.816 11.903 14.898 22.596 14.089 21.271 32.055 48.46 38.217 57.835l3.922 5.966-43.756-.07-43.756-.07-34.196-51.491c-18.808-28.32-34.263-51.493-34.346-51.495-.082 0-15.625 23.201-34.54 51.56l-34.39 51.564H-9.11c-28.924 0-43.558-.092-43.558-.275zm330.494-15.975a90182.31 90182.31 0 0 0-18.721-28.827c-7.825-12.046-14.294-22.074-14.375-22.285-.125-.327 5.667-.383 39.515-.383h39.661v58.42h-41.587Zm-70.284-108.188c-13.308-20.474-18.21-28.224-17.946-28.372 2.117-1.185 44.728-1.959 100.438-1.824l33.735.082.07 29.142.07 29.141h-98.057zm-38.698-59.667c-.37-.49-4.92-7.433-10.108-15.428-5.189-7.995-13.778-21.223-19.087-29.396-5.31-8.173-9.653-14.93-9.653-15.016 0-.086 43.63-.157 96.955-.157h96.955V213.736l-42.009.183c-23.105.1-57.842.183-77.193.183H169.52zm31.875-86.533-88.217-.07L99.9 107.205c-15.35-23.632-25.776-39.865-26.03-40.53-.183-.474.225-.488 9.524-.314 5.343.1 61.644.183 125.114.183h115.4v60.34l-17.485-.068c-9.616-.038-57.182-.1-105.702-.138z" style="fill:#fff;stroke-width:.274271" transform="translate(176.09 27.734)"/></svg>