<svg xmlns="http://www.w3.org/2000/svg" width="1479.701" height="1479.701" viewBox="0 0 391.504 391.504"><g transform="translate(5.346 29.894)"><path d="m298.25 365.232-1.177-1.159-.58-1.2-.581-1.2.112-1.548.112-1.55.695-1.049.694-1.05 1.393-.694 1.393-.694h3.092l1.014.518 1.015.518.694.825c-.021 2.26-.057.549.695 1.881v1.056l-.296.578-.296.578-.814.859-.813.86.255.727.256.729 2.299.206 2.298.207.891-.373.891-.372.443-.933.442-.932v-19.549l-.483-.438-.484-.438h-3.53v-4.77l8.532.07 8.533.07v4.498l-1.755.077-1.755.077-.415.459-.415.458-.079 9.518c-.056 4.743-.211 9.102-2.395 13.289-13.03.992-15.77 3.945-19.882-.109zm2.287-6.708.199.004v-.464l-.374-.31-.373-.31-.19.307-.19.307.365.231.365.23.198.005zm13.693-20.96h.926l-.463-.12-.463-.121-.464.12-.463.122z" style="fill:#94ebfd;stroke-width:.264583" transform="translate(-3702.53 -4254.255) scale(12.54171)"/><path d="m298.015 364.895-1.402-1.515-.32-1.068-.32-1.067v-2.02l.543-1.121.542-1.12.44-.353.439-.352-.585.835-.586.836.545-.143.545-.142.81.828.81.829h1.26l.529-.53.53-.529v-.555l-.417-.804-.416-.805.155-.403.154-.403-.995.156c-.556.03-1.414.346-.466-.084l.529-.24 1.532-.018 1.532-.019 1.014.518 1.015.518.694.825c.166 1.26.166 1.26.695 1.881v1.056l-.296.578-.296.578-.814.859-.813.86.255.727.256.729 2.299.206 2.298.207.891-.373.891-.372.443-.933.442-.932v-19.55l-.483-.437-.484-.438h-3.53v-4.77l8.532.07 8.533.07v4.498l-1.755.077-1.755.077-.415.459-.415.458-.079 9.518c-.056 4.743-.211 9.102-2.395 13.289-3.083 1.053-10.458 3.733-20.116-.447zm12.754.508.376.004.484-.438.484-.438v-.96l-.963.654-.963.653-.294.004-.294.004.397.256.397.257.376.004zm4.336-14.175.283-.505.118-3.682.117-3.682-.483-.353-.482-.353h-.64l-.115 1.257-.114 1.257.222 2.733.223 2.733.294.55.295.55zm.05-12.663 2.646-.09 1.323-.476 1.323-.475-.661-.187-.662-.187-4.887-.027-4.888-.026.568.567.567.568 1.013.212 1.013.211z" style="fill:#5ee2fd;stroke-width:.264583" transform="translate(-3702.53 -4254.255) scale(12.54171)"/><path d="m298.015 364.895-1.402-1.515-.32-1.068-.32-1.067v-2.117l1.125.243 1.124.243 1.402.152 1.402.153.641-.602.64-.602.313-.953.313-.954.385-.592.386-.593-.36-.128-.36-.127-1.454-.091-1.456-.09 1.664-.05 1.665-.048 1.014.517 1.015.518.694.825c.166 1.26.695 1.802.695 2.937l-.296.578-.296.578-.814.859-.813.86.255.727.256.729 2.299.206 2.298.207.891-.373.891-.372.443-.933.442-.932v-19.549l-.483-.438-.484-.438h-3.53v-4.77l8.532.07 8.533.07v4.497l-1.755.078-1.755.077-.415.459-.415.458-.079 9.519c-2.165 14.322-7.733 14.707-22.51 12.842zm10.372 1.3 2.8-.006 1.115-.506 1.115-.506.18-.716.18-.716-.243-.688-.241-.688-.392-.068-.391-.068-.414.86-.413.859-.91.478-.91.48-2.314-.169-2.315-.167v1.274l.176.176.176.177 2.8-.006zm6.485-11.715.284-.092.39-.774.39-.774.007-4.763.006-4.762-1-.489-1-.488-.39.15-.388.148.011 4.308.012 4.308.218 1.132.22 1.132.477.528.478.528zm3.59-15.482 4.366-.11.922-.896.922-.895H308.04l.888.916.888.916 2.14.09 2.141.09z" style="fill:#2fd8fd;stroke-width:.264583" transform="translate(-3702.53 -4254.255) scale(12.54171)"/><path d="m309.07 367.948-4.233.093-1.617-.367-1.617-.366-1.088-.555-1.087-.555-.944-.829-.943-.828-.661-1.127-.66-1.128-.09-1.283-.09-1.284.118.759.118.759 1.37-.17 1.37-.17 1.185-.165 1.185-.166 1.48-1.41 1.48-1.412.37-.693.371-.693-.506-.37-.507-.37h.448l.864.658.863.659.314.952.315.953-.166.83-.166.831-.942.964-.941.965.087.755.087.755.661.357.662.357-.699-.15-.698-.15-.435.662-.434.663.736.281.736.282 2.91.03 2.91.03 1.194-.536 1.194-.538.857-.857.857-.857.162-.647.163-.647-.229-1.769c-.115-1.35.598-2.497.408-3.246l.276-.992.275-.992.001-5.891.001-5.891-.86-.524-.86-.525-.661.003-.661.003-.328.208-.327.208-.073 9.776c-.075 11.226-.069 10.466-.136-.312l-.062-10.087-.401-.333-.4-.333-1.85-.132-1.847-.132.052-2.015.053-2.015.092 1.96.092 1.96 1.03-1.006 1.03-1.006 1.517.178 1.516.178 1.179.522 1.179.521h1.5l1.313-.517 1.313-.518 1.409-.175 1.41-.176 1.124-1.082 1.124-1.082v4.344h-1.988l-.905.26-.906.26-.213.335-.213.336-.004 8.652-.004 8.652-.28 1.308-.281 1.308-.844 1.406-.844 1.406-1.136.864-1.136.864-1.378.437-1.377.438zM304 355.618c-6.139-12.529-3.07-6.265 0 0z" style="fill:#07ccfa;stroke-width:.264583" transform="translate(-3702.53 -4254.255) scale(12.54171)"/><path d="m309.07 367.948-4.233.093-1.617-.367-1.617-.366-1.107-.565-1.107-.565-.98-.89-.98-.89-.513-.884-.512-.885.38.303.38.303 2.249.584 2.249.585.661.46.662.461.926.498.926.497 3.307.007 3.307.007 1.323-.706 1.323-.705 1.242-1.279 1.242-1.279.685-1.455.685-1.455-.057-9.364-.057-9.365.588-.476.587-.475 1.993-.335 1.993-.335.907-1.004.908-1.005V341.331h-1.988l-.906.26-.905.26-.213.335-.213.336-.004 8.652-.004 8.652-.28 1.308-.281 1.308-.844 1.406-.844 1.406-1.136.864-1.137.864-1.377.437-1.377.438zm-3.358-3.338-.447.004-.172-.279-.172-.278-.704.054-.703.053-.456-.04-.457-.04-.403-.78-.404-.78V361.214l.69-.82.689-.819 1.14-.668 1.14-.668.308-.371.308-.371-.24-.429-.24-.428-.773-.51-.773-.51.24-.002.24-.002.863.659.863.658.314.953.315.953-.166.83-.166.831-.942.964-.941.964.087.755.087.755.661.333.662.333-.448.004zm6.864-12.392c-.075 11.17-.066 11.311-.136.059l-.063-10.088-.4-.333-.401-.332-1.848-.133-1.849-.132.053-2.015.053-2.015.091 1.938.092 1.939 1.076-.972 1.075-.972 1.228.183 1.227.183.331.272.33.272v.876l-.393.562-.394.562z" style="fill:#00a9d7;stroke-width:.264583" transform="translate(-3702.53 -4254.255) scale(12.54171)"/><path d="m309.07 367.948-4.233.093-1.654-.374-1.653-.374-1.3-.708-1.3-.707-.883-.936-.883-.935.794.559.793.559 3.175.604 3.175.604h3.308l3.307-.002 2.294-1.12 2.293-1.12.825-.996.825-.994.662-1.348.663-1.348-.105-8.31-.105-8.309-.2-.851-.198-.852.802-.802.802-.802h2.656l.163.264.164.265h.498v-1.77l.529-.479.529-.479v4.051h-1.988l-.906.26-.905.26-.213.335-.213.335-.004 8.653-.004 8.652-.28 1.308-.282 1.308-.843 1.406-.844 1.406-1.136.864-1.137.864-1.377.437-1.377.437zm-3.307-3.348-.397-.005-1.257-1.076-1.257-1.077v-1.492l.804-.616.803-.615.917-.755.916-.755v-.668l-.582-.763c-.467-.646-.817-.966-.01-.268l.572.495.303.918.303.917-.166.831-.166.83-.942.965-.941.964.087.755.087.755.661.333.662.333-.397-.005zm6.812-7.461c-.113 9.83-.078-.732-.078-4.961v-9.922l.078 4.961.079 4.961zm-.243-15.852-.087.87-.312-.315-.311-.315-1.872-.134-1.87-.134.052-2.015.053-2.015.091 1.931.092 1.931 1.018-.806 1.019-.807h1.056l.58.47.579.469z" style="fill:#0089b6;stroke-width:.264583" transform="translate(-3702.53 -4254.255) scale(12.54171)"/><path d="m309.07 367.948-4.233.093-1.617-.367-1.617-.366-1.095-.56-1.095-.558v-.183l1.124.225 1.125.225 3.44.17 3.439.17 2.381-.296 2.381-.295 1.64-.806 1.64-.806 1.06-1.205 1.06-1.205.674-1.35.673-1.352v-16.061l-.396-.766-.396-.766.251-.66.251-.66.525-.281.524-.28 1.274.007 1.275.008.529.402.529.402.152-1.8.151-1.799.047 2.05.047 2.051h-1.988l-.906.26-.905.26-.213.335-.213.336-.004 8.652-.004 8.652-.281 1.308-.28 1.309-.844 1.406-.844 1.405-1.137.864-1.136.864-1.377.438-1.377.437zm-10.022-2.012h-.1l-.363-.463-.363-.463.463.363.463.364v.2zm-1.34-1.323h-.116l-.189-.305-.189-.305.306.188.305.19v.232zm8.055 0h-.353l.176-.176.177-.176.176.176.177.176zm-.556-.264h-.132l-.318-.318-.317-.317v-.606l-.53-.479-.528-.479v-.936l.822-.615.822-.616.934-.87.933-.869-.147 1.102-.148 1.102-.947.97-.946.969v1.327l.317.317.318.318zm7.368-7.21c-.113 9.83-.078-.732-.078-4.96v-9.923l.078 4.961.079 4.961zm-.29-15.015h-.066l-.299-.299-.298-.298-1.871-.134-1.871-.134.052-2.015.053-2.015.091 1.928.092 1.928.756-.539.757-.539h.82l.66.301.661.301.264.758.264.757z" style="fill:#0a7199;stroke-width:.264583" transform="translate(-3702.53 -4254.255) scale(12.54171)"/><path d="m309.467 367.921-3.836.105-1.641-.255-1.64-.254-.527-.195-.527-.195h10.42l1.587-.485 1.588-.484 1.263-.804 1.264-.804.904-1.057.905-1.056.544-1.158.544-1.158V342.943l-.307-.673-.306-.673.48-.53.48-.53h3.292l.33.396.33.397H322.824l-.906.26-.905.26-.213.335-.213.336-.004 8.652-.004 8.652-.281 1.308-.28 1.308-.844 1.406-.844 1.406-1.136.864-1.137.863-1.377.42-1.377.417zm-8.599-.926h-.132v-.265H301v.265zm-.53-.265h-.131v-.264h.264v.264zm-.528-.264h-.133v-.265h.265v.265zm5.82-1.853h-.132v-.264h.265v.264zm-.513-.264H305l-.188-.306-.19-.305.306.189.306.189v.233zm-.457-1.375-.088.61-.37-.848-.37-.848.263-.423.264-.423 1.033-.705 1.032-.705.19-.75.188-.75-.102 1.158-.102 1.158-.925.958-.925.959zm7.32-21.115h-.132v-.264h.265v.264zm-.727-.312-.33-.048-1.277-.1-1.277-.1.317-.381.317-.382h1.558l.51.274.513.274v.511z" style="fill:#1c475f;stroke-width:.264583" transform="translate(-3702.53 -4254.255) scale(12.54171)"/><path d="m307.747 368.012-1.323-.028-1.86-.217-1.861-.218-.573-.21-.573-.212 4.068.09 4.068.089 1.937-.3 1.938-.3 1.38-.63 1.381-.632 1.321-1.235 1.32-1.236.673-1.348.672-1.349v.878l-.528 1.41-.527 1.41-1.103 1.148-1.102 1.147-1.378.631-1.378.63-2.615.255-2.614.254zm-3.117-4.986-.118.661-.036-.595-.036-.595h-.566l.085-.575.084-.575 1.183-.83 1.182-.832.18-.644.18-.645.027.446.026.445-.28.745-.281.745-.756.794-.756.794zm15.969-20.575-.231.599-.2-.53-.2-.528-.1-.19-.102-.188.54-.539.538-.539h3.11l.33.397.33.397H322.2l-.685.26-.686.262zm-9.081-.906-.067-.05-1.542-.096-1.542-.096.318-.384.318-.383h1.233l.674.307.674.308v.444z" style="fill:#01315a;stroke-width:.264583" transform="translate(-3702.53 -4254.255) scale(12.54171)"/><rect width="27.624" height="21.091" x="47.565" y="224.429" rx="13.812" ry="10.545" style="fill:#fff;stroke-width:.264583"/></g></svg>