<svg xmlns="http://www.w3.org/2000/svg" width="300mm" height="300mm" viewBox="0 0 300 300"><path d="M20.501 256.017c-6.947-10.827-9.237-19.545-8.736-33.267.552-15.125 4.204-23.528 14.187-32.645 12.744-11.638 26.884-16.416 45.45-15.357 25.42 1.449 43.22 18.034 41.559 38.723-.787 9.81-4.671 16.772-13.58 24.343-5.853 4.975-6.444 5.968-6.44 10.815.007 7.486 3.77 13.158 9.798 14.769 2.656.71 13.99 1.454 25.188 1.655 23.505.421 27.123-.611 33.755-9.629 7.703-10.474 7.597-8.945 7.597-109.905 0-78.285-.278-92.619-1.86-95.676-2.967-5.74-9.865-7.73-26.794-7.73h-14.607V.126H287.611V41.858l-16.45.446c-18.569.504-22.31 2.007-25.149 10.108-1.114 3.18-1.542 26.866-1.609 88.948-.1 93.801-.055 93.203-8.436 110.191-33.942 63.267-177.697 49.583-215.466 4.466z" style="fill:#fff;stroke-width:1.27239"/></svg>