<?xml version="1.0" encoding="UTF-8" standalone="no"?>
<!-- Created with Inkscape (http://www.inkscape.org/) -->

<svg
   width="110.842mm"
   height="110.842mm"
   viewBox="0 0 110.842 110.842"
   version="1.1"
   id="svg5"
   xml:space="preserve"
   xmlns="http://www.w3.org/2000/svg"
   xmlns:svg="http://www.w3.org/2000/svg"><defs
     id="defs2" /><g
     id="layer1"
     transform="translate(-7.3015861,-196.66679)"><path
       style="fill:#ffffff;stroke-width:0.264583"
       d="m 60.731497,307.33271 c -3.358827,-0.52901 -7.143749,-1.70652 -7.143749,-2.22247 0,-0.34417 1.090155,-2.09921 1.303941,-2.09921 0.106336,0 -0.154361,-0.7015 -0.579324,-1.55889 l -0.772663,-1.5589 -0.04212,-0.8867 -0.04212,-0.88669 0.926042,-0.16541 0.926041,-0.16541 -0.926041,-0.0494 -0.926042,-0.0494 1.852083,-0.48747 c 1.018646,-0.2681 2.6718,-0.81642 3.673676,-1.21846 l 1.821596,-0.731 1.675619,-1.56746 1.675622,-1.56746 0.667808,-1.3667 0.667811,-1.36669 0.160504,-1.5875 0.160502,-1.5875 -0.415557,-1.77059 c -0.228555,-0.97383 -1.005893,-3.17648 -1.727414,-4.89479 -0.721519,-1.71831 -1.44784,-3.66788 -1.614043,-4.33239 l -0.302186,-1.20819 0.568603,-1.70223 c 0.601466,-1.8006 1.604454,-3.74419 5.242239,-10.1584 4.205383,-7.41502 4.36399,-7.95507 1.900428,-6.47094 -2.22617,1.34112 -5.522682,2.7168 -7.88753,3.29158 l -1.875362,0.4558 -4.048241,-0.13725 -4.048241,-0.13725 -0.957165,-0.29492 c -0.526441,-0.1622 -1.359879,-0.56174 -1.852083,-0.88784 l -0.894919,-0.59293 -0.631904,-1.27407 -0.631904,-1.27407 -0.131252,-1.83441 -0.131249,-1.8344 h -0.22224 c -0.122229,0 -0.403889,-0.35127 -0.625906,-0.78061 l -0.403669,-0.78061 v -0.95268 -0.95268 l 0.8768,-0.36635 c 1.623684,-0.67842 8.232274,-2.49355 10.522407,-2.89011 l 2.271082,-0.39327 1.703147,0.2412 c 2.667669,0.37779 5.490252,1.56762 8.174479,3.44588 l 1.190625,0.83313 -0.768437,-0.17245 -0.768438,-0.17244 0.802614,0.91412 0.802611,0.91413 0.759576,1.87603 c 0.893114,2.20585 1.062548,2.29251 1.30615,0.66805 l 0.182126,-1.21451 -0.173408,-1.49747 c -0.09537,-0.82362 -0.417364,-2.37132 -0.715536,-3.43935 -0.675638,-2.42008 -1.92319,-2.11708 9.568211,-2.32388 l 9.906613,-0.17829 3.175,0.32937 3.175,0.32937 2.513542,0.63151 2.513538,0.63151 1.9177,0.96639 1.9177,0.9664 1.00994,1.09565 1.00993,1.09565 0.56824,2.66859 c 0.31253,1.46772 0.82474,4.43789 1.13825,6.60037 l 0.57002,3.93179 -0.13151,4.76955 -0.13152,4.76955 -0.55939,2.11667 -0.55939,2.11667 -1.04354,2.11666 -1.04354,2.11667 -1.13201,1.32292 c -0.62261,0.7276 -1.81784,1.9318 -2.65608,2.676 l -1.52405,1.35308 -1.792044,0.93822 c -1.997858,1.04598 -6.273532,2.59129 -8.617132,3.11441 -1.862143,0.41564 -1.795026,0.31325 -1.419161,2.16497 l 0.306758,1.51125 1.282218,0.81207 1.282218,0.81208 -1.180049,1.37875 c -0.649028,0.75831 -2.168702,2.18126 -3.377057,3.16211 l -2.197005,1.78336 -3.19683,1.59107 -3.196828,1.59107 -2.345423,0.66068 -2.345423,0.66067 -3.025941,0.39666 -3.025939,0.39667 -3.624472,-0.036 c -1.993458,-0.0198 -3.922124,-0.0829 -4.285927,-0.14021 z m 4.914596,-11.82417 c 1.794343,-0.61043 4.610404,-1.92042 4.610404,-2.1447 0,-0.0623 -0.684609,0.19341 -1.521354,0.56824 -0.836745,0.37483 -2.414323,1.01733 -3.505729,1.42778 -2.414246,0.90794 -2.121852,1.01227 0.416679,0.14868 z m 21.061404,-4.67718 c 2.906913,-0.54943 6.910493,-1.58869 6.747615,-1.75157 -0.05969,-0.0597 -1.927187,0.0739 -4.15001,0.29678 -2.22282,0.22292 -5.007075,0.40323 -6.187236,0.4007 l -2.145744,-0.005 -1.757887,-0.37259 c -2.144762,-0.45459 -3.527655,-1.14147 -4.644707,-2.30701 l -0.846341,-0.88308 -0.608867,-1.32292 -0.608865,-1.32292 v -2.93527 -2.93527 l 1.242629,-2.48868 1.242629,-2.48869 1.268637,-1.43862 1.268635,-1.43862 -1.669296,0.88972 -1.669296,0.88973 -1.768012,1.64342 -1.768009,1.64341 -0.850035,1.41902 -0.850037,1.41902 -0.438862,1.71933 -0.438859,1.71933 0.155112,1.66106 0.155112,1.66106 0.54641,1.23525 c 0.300526,0.67939 0.856104,1.64128 1.234619,2.13754 l 0.688211,0.90229 1.222081,0.77519 c 3.104094,1.96898 8.484491,2.4386 14.630373,1.27698 z m -30.473916,-32.1244 c 0,-0.0653 -0.297656,-0.43984 -0.661458,-0.83239 -0.784156,-0.84611 -0.834279,-1.16562 -0.182862,-1.16562 0.263229,0 0.705218,-0.16571 0.9822,-0.36824 l 0.503605,-0.36824 -0.353139,-0.42551 -0.35314,-0.42551 h -0.62906 -0.629063 v -0.53229 -0.53229 l -1.124479,0.16823 c -0.618463,0.0925 -1.509556,0.34473 -1.980205,0.56046 l -0.855723,0.39223 -0.562801,0.91063 -0.5628,0.91063 0.45833,0.50645 c 0.451389,0.49878 1.47778,0.91925 2.775595,1.13705 0.949952,0.15942 3.175,0.20456 3.175,0.0644 z m 7.894978,-2.33798 1.233147,-0.55391 -1.058334,-0.32648 c -0.582083,-0.17956 -1.326224,-0.33562 -1.653645,-0.3468 l -0.595313,-0.0203 v 0.23151 c 0,0.12733 -0.07714,0.61719 -0.171413,1.08858 l -0.171415,0.85707 0.591912,-0.18786 c 0.325554,-0.10333 1.146829,-0.43713 1.825061,-0.74177 z m -3.463207,-9.37453 c -0.400183,-0.0606 -1.055026,-0.0606 -1.455209,0 l -0.727604,0.11022 h 1.455209 1.455208 z m -25.232433,44.25448 -2.412122,-0.62358 -1.660863,-0.82405 c -0.913477,-0.45322 -2.233192,-1.24416 -2.932697,-1.75765 l -1.271831,-0.93361 -0.905812,-1.24377 c -1.306486,-1.79394 -1.97826,-3.23668 -2.455246,-5.27303 l -0.41965,-1.79158 0.105436,-3.30729 0.105437,-3.30729 0.747998,-1.64981 c 0.411401,-0.90739 0.912035,-1.78594 1.112523,-1.95233 l 0.364524,-0.30253 -0.788479,1.68775 -0.788482,1.68775 -0.273794,1.93823 -0.273791,1.93824 0.276881,1.73322 c 0.32411,2.02883 0.808398,3.28428 1.736067,4.50052 l 0.669898,0.87829 1.355111,0.77393 1.355111,0.77394 1.83705,0.30985 1.837052,0.30986 1.299726,-0.17241 1.299726,-0.17242 1.471178,3.11938 c 0.809149,1.71565 1.57534,3.38726 1.702647,3.71468 l 0.231468,0.59531 -0.456472,-0.013 c -0.251061,-0.007 -1.541928,-0.29362 -2.868594,-0.6366 z m 3.716289,-4.46002 -1.341667,-0.64295 -0.846519,-1.02631 -0.846518,-1.02632 -0.535339,-1.42985 c -0.294439,-0.78642 -0.50038,-1.61985 -0.45765,-1.85208 l 0.07769,-0.42224 0.973987,-0.47611 0.973987,-0.47612 2.333304,-0.01 2.333305,-0.01 4.7625,0.85446 4.7625,0.85447 2.47488,0.0282 2.474878,0.0282 -1.284253,1.13171 -1.284256,1.13171 -2.381249,1.1657 c -1.309688,0.64114 -3.393281,1.48184 -4.630208,1.86822 l -2.248959,0.7025 -1.984375,0.12455 -1.984375,0.12455 -1.341665,-0.64294 z m -7.609151,-4.31568 -1.277903,-0.39261 -1.12817,-1.12817 -1.12817,-1.12817 -0.462508,-1.30506 -0.462507,-1.30506 -0.136599,-2.38125 -0.1366,-2.38125 0.438264,-1.67498 c 0.241046,-0.92124 0.735838,-2.34785 1.09954,-3.17025 l 0.661275,-1.49526 0.247941,0.39212 c 0.136369,0.21567 0.249767,0.61591 0.251995,0.88943 0.0083,1.01419 1.39636,6.73581 2.286452,9.42457 l 0.919679,2.77812 0.907497,1.65365 0.907494,1.65364 -0.85489,-0.0184 c -0.470188,-0.0101 -1.429946,-0.19511 -2.13279,-0.41104 z m 6.966442,-7.78025 c -0.800365,-0.13406 -1.811568,-0.34435 -2.247117,-0.46733 l -0.791911,-0.22358 1.261861,-0.31774 1.261859,-0.31774 0.378245,-0.85434 c 0.431663,-0.97499 2.627839,-12.28996 3.118208,-16.06539 l 0.326146,-2.51105 2.219963,4.88918 c 2.496531,5.49828 4.041655,9.46441 4.685135,12.02612 l 0.435227,1.73264 -0.318038,0.76781 -0.318037,0.7678 -1.235458,0.31497 -1.235459,0.31496 -3.042708,0.0937 -3.042708,0.0937 z m -7.555786,-15.18427 -0.513175,-0.37524 0.206629,-0.20663 0.206629,-0.20663 1.248164,0.0555 1.248164,0.0555 -0.720953,-0.40468 c -0.396523,-0.22258 -0.847195,-0.64057 -1.001495,-0.92888 l -0.280546,-0.5242 h 0.642461 0.642459 l 0.14237,-0.37101 c 0.189097,-0.49278 -0.03993,-0.68733 -0.809139,-0.68733 h -0.635193 l 0.167953,-0.52916 0.167952,-0.52917 h -0.915564 -0.915564 l -0.1606,0.41851 c -0.08833,0.23019 -0.160599,0.65564 -0.160599,0.94545 v 0.52692 l -0.463021,-0.0882 -0.463021,-0.0883 -0.08108,-0.56617 -0.08109,-0.56617 -1.572561,0.1426 -1.572564,0.1426 0.0021,-0.36748 0.0021,-0.36748 1.717561,-0.91231 c 1.978893,-1.05111 1.916578,-0.92093 1.050705,-2.19517 -0.36677,-0.53975 -0.73878,-1.341 -0.82669,-1.78056 l -0.15984,-0.79919 0.355248,-0.42805 0.355251,-0.42804 -0.520745,0.099 -0.520745,0.099 -0.137258,1.18825 -0.137258,1.18826 -0.737473,-1.40954 -0.737473,-1.40954 -0.0403,-1.01047 -0.04029,-1.01046 0.35211,-0.42426 0.35211,-0.42427 h 1.198634 1.198634 l 3.286768,1.10992 3.28677,1.10992 0.376992,0.72903 c 0.207346,0.40096 0.376994,1.00282 0.376999,1.33747 l 8e-6,0.60845 0.956739,0.76339 0.956739,0.76338 0.530817,1.2 0.530818,1.2 -0.146656,1.42095 -0.146653,1.42094 -0.495319,0.84811 -0.495318,0.8481 -0.884719,0.59621 -0.884719,0.59621 H 33.3583 31.463621 l -0.513175,-0.37524 z m 74.759947,-15.73006 c -0.3638,-0.26297 -1.18284,-0.68111 -1.8201,-0.92919 l -1.15863,-0.45106 -2.67782,-0.29046 -2.677823,-0.29047 -5.556249,0.27025 -5.55625,0.27024 -5.953125,-0.0635 -5.953124,-0.0635 -2.513542,-0.46209 c -1.382448,-0.25415 -2.677327,-0.55182 -2.87751,-0.66148 l -0.363972,-0.19939 0.760847,-0.18171 c 0.418465,-0.0999 3.201624,-0.94718 6.184802,-1.88276 6.019281,-1.88775 10.124108,-2.8417 14.273693,-3.31714 l 2.764321,-0.31672 2.302029,0.17378 c 6.308923,0.47626 10.861043,3.11198 11.469783,6.64112 0.1004,0.58208 0.24686,1.32622 0.32546,1.65364 l 0.14291,0.59532 -0.22712,-0.008 c -0.12492,-0.005 -0.52478,-0.22353 -0.88858,-0.4865 z m -80.697911,-2.16519 c -0.509323,-0.12356 -2.116666,-0.35461 -3.571875,-0.51345 -1.455208,-0.15884 -3.013147,-0.4055 -3.462087,-0.54813 l -0.816254,-0.25932 -0.694822,-0.72524 -0.694822,-0.72524 -0.406534,-1.15224 c -0.223594,-0.63373 -0.543707,-2.18252 -0.711362,-3.44175 l -0.304828,-2.28951 0.238063,-1.28487 0.238063,-1.28487 1.012662,1.47217 c 1.253429,1.82218 3.083369,3.55381 5.204086,4.9245 l 1.619975,1.04704 1.720937,0.57269 c 2.206114,0.73415 2.306037,0.5857 0.461066,-0.68498 -0.819933,-0.56471 -2.179138,-1.71509 -3.020453,-2.55641 l -1.529663,-1.52966 -0.454215,-1.18935 -0.454215,-1.18934 0.160399,-0.98842 0.160398,-0.98843 0.48175,-0.66766 0.48175,-0.66766 1.443386,-0.72349 1.443387,-0.7235 2.513542,-0.40272 c 1.382447,-0.2215 4.180043,-0.49124 6.216877,-0.59943 l 3.703335,-0.19669 -2.262695,-2.28708 -2.262695,-2.28707 -1.90839,-1.23454 -1.908389,-1.23453 -1.4919,-0.51329 c -0.820547,-0.2823 -1.711386,-0.51329 -1.979647,-0.51329 h -0.487746 v -0.24896 c 0,-0.13694 0.10896,-0.31631 0.242136,-0.39862 0.133175,-0.0823 1.055909,-1.36855 2.05052,-2.85832 l 1.808385,-2.70867 1.708354,-1.81152 1.708351,-1.81153 0.453792,2.10943 0.453789,2.10943 0.844815,2.02934 c 0.937813,2.25273 1.15534,2.44848 0.746572,0.67184 l -0.272288,-1.18346 0.100494,-2.43688 0.100491,-2.43689 1.046565,-2.04581 1.046565,-2.04582 1.852083,-1.00243 c 6.818074,-3.69026 16.758366,-5.48381 30.427082,-5.49004 l 5.027083,-0.002 2.38125,0.28179 c 1.309687,0.15499 3.508155,0.57393 4.885486,0.93098 l 2.504233,0.64918 2.157415,1.011 c 1.186577,0.55605 2.917172,1.52097 3.845764,2.14427 l 1.688351,1.13328 2.023875,2.06035 2.023874,2.06035 1.453356,2.19761 c 3.564681,5.39013 5.847924,11.55551 8.118734,21.92283 0.96371,4.39977 1.0925,4.00743 -1.19724,3.64708 l -1.83927,-0.28946 -4.894788,0.15179 -4.894791,0.1518 -8.202083,0.93054 c -8.367715,0.94933 -12.489801,1.31348 -18.425371,1.62771 l -3.344121,0.17705 -2.133449,-0.18886 -2.133449,-0.18885 -2.856804,-1.58578 c -2.572219,-1.4278 -5.173991,-3.17307 -7.733316,-5.18749 l -0.907764,-0.71449 0.884732,1.66538 c 0.486603,0.91596 1.351701,2.19588 1.922439,2.84427 l 1.037701,1.17889 h -0.294614 c -1.92166,0 -8.798125,-5.31451 -10.734153,-8.29595 l -0.490484,-0.75534 -1.605047,0.1059 -1.605048,0.10589 -1.513506,0.69736 -1.513507,0.69735 -1.137801,1.17071 -1.1378,1.17071 -0.833528,1.70952 c -0.458441,0.94023 -1.026456,2.41591 -1.262255,3.27929 l -0.428731,1.56977 -0.159806,2.57969 -0.159806,2.57969 -0.292253,-0.0271 c -0.160742,-0.0149 -0.708975,-0.12818 -1.218298,-0.25174 z"
       id="path2446" /></g></svg>
