<?xml version="1.0" encoding="UTF-8" standalone="no"?>
<!-- Created with Inkscape (http://www.inkscape.org/) -->

<svg
   width="135.55379mm"
   height="138.54848mm"
   viewBox="0 0 135.55379 138.54848"
   version="1.1"
   id="svg5"
   xml:space="preserve"
   xmlns="http://www.w3.org/2000/svg"
   xmlns:svg="http://www.w3.org/2000/svg"><defs
     id="defs2" /><g
     id="layer1"
     transform="translate(-28.31645,-158.39397)"><g
       id="g2251"
       transform="translate(116.24545,21.829544)"><path
         style="fill:#fefefe;stroke-width:0.264583"
         d="m -53.889094,213.2579 -0.197472,-0.31951 0.364625,-0.23095 c 0.480282,-0.30421 1.850355,-0.29532 2.34134,0.0152 0.535098,0.33841 0.337926,0.46054 -1.085535,0.6724 l -1.225487,0.18239 -0.197471,-0.31952 z m 23.246875,-0.25547 c -0.312531,-0.12781 -0.647118,-0.36001 -0.743527,-0.516 l -0.175286,-0.28362 0.720312,-0.27386 0.720309,-0.27386 1.21384,0.17498 c 0.667612,0.0962 1.37019,0.25841 1.561288,0.36037 l 0.347448,0.1854 -0.347448,0.27748 c -0.191098,0.15261 -0.88323,0.34588 -1.538074,0.42949 l -1.190625,0.15201 z"
         id="path2299" /><path
         style="fill:#a8ecfd;stroke-width:0.264583"
         d="m -25.576065,269.98366 c -2.944167,-0.30288 -6.969408,-1.0319 -10.054166,-1.82095 l -3.439583,-0.8798 -3.115017,-1.2058 c -14.8875,-5.76281 -26.842294,-16.82239 -34.079778,-31.52776 l -1.828844,-3.71591 -1.42848,-4.35388 -1.428479,-4.35389 -0.688208,-3.57187 c -1.658447,-8.60752 -1.658447,-16.79248 0,-25.4 l 0.688208,-3.57187 1.428479,-4.35389 1.42848,-4.35388 1.828844,-3.71591 c 7.237484,-14.70538 19.192278,-25.76495 34.079778,-31.52776 l 3.115017,-1.2058 3.439583,-0.8798 c 1.891771,-0.48389 4.74927,-1.09759 6.349999,-1.36376 l 2.910417,-0.48395 6.35,0.008 6.349999,0.008 3.39543,0.60297 c 12.8565347,2.28311 23.648216,7.70261 32.869755,16.50694 l 2.835997,2.70769 2.230871,2.71238 c 1.226979,1.49181 3.122549,4.05271 4.212376,5.69088 l 1.981504,2.97851 1.955249,3.96875 1.955253,3.96875 1.08731,3.175 c 1.327975,3.87776 2.449883,8.37814 3.080454,12.35682 l 0.47372,2.98902 v 6.48229 6.48229 l -0.47372,2.98902 c -0.630571,3.97868 -1.752479,8.47906 -3.080454,12.35681 l -1.08731,3.175 -1.955253,3.96875 -1.955249,3.96875 -1.981504,2.97851 c -1.089827,1.63818 -2.985397,4.19908 -4.212376,5.69089 l -2.230871,2.71238 -2.835997,2.70769 c -6.086637,5.81125 -12.8708545,10.13578 -20.7083336,13.20029 l -2.9854842,1.16734 -3.5075572,0.89834 c -1.929159,0.49409 -4.7577161,1.09568 -6.285685,1.33688 l -2.778125,0.43854 -5.423958,0.0836 c -2.983177,0.046 -5.900208,0.0346 -6.482291,-0.0253 z m 12.56933,-6.04563 c 8.6448177,-1.01646 16.1290358,-4.61566 20.5839522,-9.89892 1.3348651,-1.58308 1.3461205,-1.69033 0.2503619,-2.38599 -0.4729427,-0.30026 -1.0150924,-0.64835 -1.2047775,-0.77355 l -0.3448817,-0.22762 -0.3478027,-1.4962 -0.3478027,-1.4962 1.0895594,-0.27243 c 0.5992574,-0.14985 2.244537,-0.62891 3.6561761,-1.06458 l 2.566615,-0.79214 2.623952,-1.31359 2.623949,-1.3136 2.107393,-2.05439 2.107393,-2.0544 0.970235,-1.62205 c 1.211281,-2.02504 2.117013,-4.4082 2.708153,-7.1257 l 0.456854,-2.10016 0.0087,-4.49792 0.0087,-4.49792 -0.447207,-3.0427 c -0.245964,-1.67349 -0.724942,-4.38217 -1.064394,-6.01927 -0.699077,-3.37148 -0.6892,-3.45871 0.194217,-1.71536 0.852236,1.6818 1.224118,3.14428 1.455145,5.72255 l 0.192148,2.14437 0.219549,-5.82084 0.219548,-5.82083 -0.168217,-2.64583 -0.168216,-2.64583 -0.395193,-1.66198 c -0.217357,-0.91409 -0.632727,-2.12758 -0.923046,-2.69665 l -0.527852,-1.03468 -0.886343,-0.67604 c -0.48749,-0.37183 -1.338879,-0.83272 -1.891977,-1.02421 l -1.005637,-0.34816 -1.130085,-5.01039 C 17.315648,173.94432 14.272429,167.13253 8.9911451,161.60468 L 6.995364,159.51571 4.7982509,158.0538 2.6011378,156.5919 0.46569111,155.69128 C -3.4767565,154.02856 -7.8283292,153.20172 -12.636515,153.20172 h -2.764869 l -4.955047,-0.58278 -4.955051,-0.58279 -8.069791,-0.0125 -8.069791,-0.0125 -1.993355,0.44535 c -1.096346,0.24494 -2.702811,0.71079 -3.569925,1.03522 l -1.57657,0.58987 -1.480936,1.48094 -1.480939,1.48093 -0.433634,1.32031 c -0.238498,0.72616 -0.514681,2.03468 -0.613741,2.9078 l -0.180109,1.5875 -1.562069,1.71979 c -0.859139,0.94589 -2.322189,2.85089 -3.251226,4.23334 -0.929037,1.38244 -1.903751,2.76497 -2.166035,3.07227 l -0.476877,0.55873 -1.578406,0.30376 -1.578406,0.30376 -0.990676,0.6556 -0.990675,0.65559 -1.764519,2.05379 -1.764519,2.05379 -0.489235,1.05833 -0.489234,1.05833 -0.0058,1.3558 -0.0058,1.3558 0.377039,1.06864 0.377039,1.06864 -0.138752,2.47035 -0.138752,2.47036 0.412334,1.93452 0.412333,1.93451 0.60615,1.10819 0.606149,1.10819 0.929516,0.45487 0.929515,0.45487 2.642359,0.28138 c 1.453299,0.15475 3.279321,0.40745 4.057828,0.56155 l 1.41547,0.28019 -0.180805,1.23253 c -0.09944,0.67789 -0.343628,1.53018 -0.542634,1.89399 -0.199007,0.3638 -0.507381,0.93276 -0.685279,1.26436 l -0.323448,0.6029 0.440349,1.39694 0.440349,1.39695 1.306644,1.89674 1.306645,1.89674 -1.552123,0.74495 -1.552125,0.74495 0.219126,0.35455 0.219128,0.35455 1.484013,-0.12306 1.484013,-0.12307 v 0.50956 0.50956 l 0.529167,0.13838 0.529167,0.13838 v 0.41154 c 0,0.22635 -0.191516,1.43286 -0.425591,2.68112 l -0.425592,2.26958 0.154873,1.31023 0.154872,1.31022 -1.979613,2.03424 -1.979612,2.03424 -0.660773,1.44331 -0.660771,1.44332 -0.305755,2.16205 -0.305752,2.16206 0.308732,2.51221 0.308734,2.51222 0.504592,1.32798 c 0.277527,0.73039 0.884412,1.91988 1.348631,2.6433 l 0.844037,1.31532 1.326904,1.193 1.326907,1.193 2.150818,1.05684 2.150817,1.05684 2.092843,0.52762 c 1.151065,0.2902 2.36945,0.52762 2.707524,0.52762 h 0.614677 l 0.675185,1.33242 c 0.371353,0.73283 1.088729,1.79016 1.59417,2.34962 l 0.91898,1.0172 1.351738,0.58151 c 0.743458,0.31982 2.200978,0.76008 3.238936,0.97834 l 1.887196,0.39683 2.36374,-0.0868 2.36374,-0.0868 0.319852,1.25295 c 0.175919,0.68912 0.548859,1.64162 0.828759,2.11667 l 0.508908,0.86371 -0.745104,1.17764 c -0.961133,1.51908 -0.959334,1.52746 0.458256,2.13511 2.663716,1.1418 6.204794,1.7568 10.439928,1.81315 l 2.515164,0.0335 z m 37.020278,-61.7396 -0.945803,-1.27356 -0.310962,-1.54839 c -0.479925,-2.38973 0.14678,-1.82102 1.452348,1.31795 1.164592,2.8 1.105331,3.25571 -0.195583,1.504 z m -69.843366,-44.23483 0.912905,-0.78789 1.888397,-0.78614 1.888395,-0.78614 3.284114,-0.65932 c 1.806263,-0.36262 3.879427,-0.70985 4.607031,-0.77161 0.727604,-0.0618 1.084791,-0.0605 0.79375,0.003 -5.559814,1.20935 -9.118738,2.27786 -12.303125,3.69382 l -1.984375,0.88237 0.912908,-0.78789 z m 72.696093,60.26256 -0.115067,-0.5984 -0.0053,1.05833 -0.0053,1.05833 0.120407,-0.45993 c 0.06622,-0.25297 0.06863,-0.72922 0.0053,-1.05833 z"
         id="path2297" /><path
         style="fill:#caa8fc;stroke-width:0.264583"
         d="m 26.745863,218.68609 0.0053,-1.05833 0.115067,0.5984 c 0.06329,0.32911 0.06088,0.80536 -0.0053,1.05833 l -0.120407,0.45993 0.0053,-1.05833 z m -0.131103,-5.95312 c -0.08457,-0.21828 -0.298157,-1.70657 -0.474647,-3.3073 -0.17649,-1.60072 -0.486349,-3.50572 -0.688578,-4.23333 -0.202229,-0.7276 -0.4284,-1.72438 -0.5026,-2.21506 -0.173561,-1.14773 -1.051692,-3.19883 -2.199317,-5.13708 l -0.906682,-1.5313 -1.2016,-1.0577 -1.201602,-1.05769 -1.605817,-0.76297 -1.605817,-0.76297 -2.039366,-0.41834 -2.039366,-0.41835 -2.7231341,0.002 -2.7231339,0.002 -2.6458332,0.39845 c -3.64894265,0.54952 -7.072836,1.40917 -12.9645827,3.25508 -6.6337361,2.07839 -8.5286631,2.59359 -11.3770831,3.09325 l -2.38125,0.41772 -3.571874,0.0134 -3.571875,0.0134 -1.984375,-0.41714 -1.984375,-0.41715 -2.232512,-1.10079 -2.232509,-1.10079 -1.760191,-1.78481 -1.76019,-1.7848 -1.203468,-2.34494 c -0.99409,-1.93705 -2.585088,-5.84098 -2.585088,-6.34327 0,-0.0716 0.595527,0.58534 1.32339,1.45995 1.629572,1.95813 4.31781,4.15099 6.66451,5.43639 l 1.77019,0.96962 2.066268,0.64753 c 1.136447,0.35614 3.495016,0.88486 5.241266,1.17494 l 3.175,0.52743 3.35239,5e-5 c 4.756716,7e-5 10.067525,-0.40329 20.98927572,-1.59416 5.23874978,-0.57122 11.20070128,-1.11838 13.24877928,-1.21592 l 3.72378,-0.17734 2.592647,0.32634 c 2.989974,0.37635 4.382645,0.81135 5.620628,1.75561 l 0.880507,0.67159 0.527852,1.03468 c 0.290319,0.56907 0.715676,1.78256 0.945242,2.69665 l 0.417386,1.66198 0.12678,5.02708 0.126778,5.02708 -0.236025,1.98438 -0.236024,1.98437 z M -60.2011,193.56143 c -3.91164,-1.60825 -8.079657,-5.69197 -9.279035,-9.09137 l -0.352579,-0.99932 -0.0062,-1.44232 -0.0062,-1.44233 0.480819,-1.05833 c 0.26445,-0.58208 0.779014,-1.41552 1.143474,-1.85208 l 0.662656,-0.79375 -1.033377,2.11666 c -0.568357,1.16417 -1.033009,2.29526 -1.03256,2.51354 l 8.2e-4,0.39688 0.723183,-0.92604 c 0.397751,-0.50933 1.08104,-1.26677 1.518421,-1.68321 l 0.795233,-0.75717 1.690295,-0.80628 1.690295,-0.80627 1.907129,-0.12239 1.907127,-0.12239 2.184588,0.44265 2.184585,0.44265 2.0232,0.80132 c 1.112758,0.44073 2.678041,1.17875 3.478405,1.64006 l 1.455209,0.83874 -4.089675,0.18557 -4.089678,0.18558 -2.12803,0.4263 -2.128033,0.4263 -1.366649,0.62 -1.366648,0.61999 -0.459573,0.7014 -0.459573,0.70139 -0.122092,1.27064 -0.122093,1.27064 0.443897,0.93544 c 0.644913,1.35906 2.07488,2.93612 3.937373,4.3424 0.897612,0.67774 1.745134,1.33206 1.883378,1.45403 l 0.251355,0.22177 -0.383646,-0.006 c -0.211005,-0.003 -1.082101,-0.29344 -1.935766,-0.64442 z"
         id="path2295" /><path
         style="fill:#e6c5ae;stroke-width:0.264583"
         d="m -49.45471,230.1624 -0.330729,-0.33735 v -0.84835 -0.84835 l 1.437135,-4.85342 c 1.836978,-6.20375 3.400493,-10.71091 4.407781,-12.70634 l 0.795242,-1.57536 0.317942,0.10473 0.317941,0.10473 0.08457,1.43441 0.08457,1.43441 -0.303181,2.11666 c -0.484502,3.38257 -2.638348,14.23302 -2.94848,14.85359 l -0.2829,0.56609 -0.640998,0.29206 c -0.352549,0.16063 -1.083609,0.3613 -1.624576,0.44594 l -0.983581,0.15389 z m -5.54311,-11.07943 v -1.45521 l 0.110223,0.7276 c 0.06062,0.40018 0.06062,1.05503 0,1.45521 l -0.110223,0.7276 z m 2.471973,-3.97622 c -0.41582,-0.12461 -0.981366,-0.43048 -1.256771,-0.67972 l -0.500737,-0.45316 v -0.96441 -0.96441 l 0.3175,-0.3175 0.3175,-0.3175 h 0.740833 0.740833 l -0.004,0.19844 c -0.0088,0.43307 -0.428501,0.78715 -1.139224,0.9612 l -0.7464,0.18279 0.1134,0.32097 0.1134,0.32097 1.162167,-0.0305 c 0.639191,-0.0168 0.953807,0.0217 0.699145,0.0855 -0.620694,0.15555 -0.587306,0.31543 0.247939,1.18724 l 0.710959,0.74208 -0.38023,-0.0228 c -0.209127,-0.0125 -0.720445,-0.1247 -1.136264,-0.24931 z m 20.693476,-0.30423 -0.964636,-0.25701 -0.569497,-0.6062 -0.569497,-0.6062 0.72803,-0.86521 0.728033,-0.86522 0.863751,-0.3609 c 0.475062,-0.19849 1.280556,-0.3609 1.789988,-0.3609 h 0.926235 l -0.144217,0.37583 -0.144216,0.37582 0.483251,0.11409 c 0.265787,0.0627 0.06119,0.0659 -0.454666,0.007 l -0.937911,-0.10713 -0.761558,0.28955 -0.761555,0.28954 0.446135,0.44614 0.446132,0.44613 h 1.033349 1.033349 l -0.141904,0.2296 -0.141902,0.22961 0.568249,0.76859 0.568245,0.7686 -1.529273,-0.0273 c -0.841102,-0.015 -1.963361,-0.143 -2.493915,-0.28436 z m 10.042549,-2.20185 0.108109,-0.92604 0.434075,0.0203 c 0.238739,0.0112 0.90819,0.16323 1.487667,0.33788 l 1.053595,0.31754 -1.367226,0.58817 c -0.751975,0.3235 -1.470076,0.58818 -1.595779,0.58818 h -0.228553 z m -6.892012,-13.54858 c 0.329118,-0.0633 0.805368,-0.0609 1.058333,0.005 l 0.459936,0.12041 -1.058333,-0.005 -1.058334,-0.005 0.598398,-0.11507 z m 3.171915,5.3e-4 c 0.327422,-0.0631 0.863203,-0.0631 1.190625,0 l 0.595312,0.11466 h -1.190625 -1.190625 z"
         id="path2293" /><path
         style="fill:#5cddfe;stroke-width:0.264583"
         d="m -23.919334,274.9875 c 0.329118,-0.0633 0.805368,-0.0609 1.058333,0.005 l 0.459936,0.1204 -1.058334,-0.005 -1.058333,-0.005 0.598398,-0.11506 z m 6.614583,0 c 0.329118,-0.0633 0.805368,-0.0609 1.058333,0.005 l 0.459936,0.1204 -1.058333,-0.005 -1.058334,-0.005 0.598398,-0.11506 z m -3.839543,-4.76811 c 0.545703,-0.0571 1.438671,-0.0571 1.984374,0 l 0.992188,0.10378 h -1.984375 -1.984375 z m 47.955726,-14.62393 c 1.010841,-1.01864 1.897423,-1.85208 1.970183,-1.85208 0.07276,0 -0.694759,0.83344 -1.705599,1.85208 -1.010841,1.01865 -1.897423,1.85209 -1.970183,1.85209 -0.07276,0 0.694759,-0.83344 1.705599,-1.85209 z m -94.331597,-0.19843 -1.712148,-1.78594 1.785937,1.71215 c 1.658855,1.59031 1.906887,1.85972 1.712149,1.85972 -0.04058,0 -0.844256,-0.80367 -1.785938,-1.78593 z m 3.571236,-3.30729 -1.579217,-1.65365 1.653645,1.57922 c 0.909505,0.86857 1.653646,1.61271 1.653646,1.65364 0,0.1955 -0.261116,-0.0431 -1.728074,-1.57921 z m 87.320778,0.0661 c 0.864016,-0.87312 1.630466,-1.5875 1.703226,-1.5875 0.07276,0 -0.574627,0.71438 -1.438642,1.5875 -0.864016,0.87313 -1.630466,1.5875 -1.703227,1.5875 -0.07276,0 0.574628,-0.71437 1.438643,-1.5875 z m -111.190562,-42.99479 0.0053,-1.05833 0.115066,0.5984 c 0.06329,0.32911 0.06088,0.80536 -0.0053,1.05833 l -0.120406,0.45993 z m 135.202075,0 0.0053,-1.05833 0.115067,0.5984 c 0.06329,0.32911 0.06088,0.80536 -0.0053,1.05833 l -0.120407,0.45993 0.0053,-1.05833 z m -130.41385,-3.30729 v -2.24896 l 0.10128,1.12448 c 0.0557,0.61846 0.0557,1.6305 0,2.24896 l -0.10128,1.12448 z m 125.677076,0 v -2.24896 l 0.101282,1.12448 c 0.0557,0.61846 0.0557,1.6305 0,2.24896 l -0.101282,1.12448 z m -130.459962,-3.43958 v -1.19063 l 0.114662,0.59531 c 0.06306,0.32743 0.06306,0.86321 0,1.19063 l -0.114662,0.59531 z m 135.196736,0.13229 0.0053,-1.05833 0.115067,0.59839 c 0.06329,0.32912 0.06088,0.80537 -0.0053,1.05834 l -0.120407,0.45993 0.0053,-1.05833 z M -63.940647,159.55172 c 0.864015,-0.87313 1.630467,-1.5875 1.703227,-1.5875 0.07276,0 -0.574629,0.71437 -1.438643,1.5875 -0.864014,0.87312 -1.630467,1.5875 -1.703227,1.5875 -0.07276,0 0.574629,-0.71438 1.438643,-1.5875 z m 87.304215,-0.0661 -1.579219,-1.65364 1.653646,1.57921 c 1.536097,1.46696 1.774719,1.72808 1.579218,1.72808 -0.04094,0 -0.785076,-0.74414 -1.653645,-1.65365 z m -90.743798,-3.37343 c 1.010841,-1.01865 1.897423,-1.85209 1.970183,-1.85209 0.07276,0 -0.694759,0.83344 -1.705599,1.85209 -1.010841,1.01864 -1.897423,1.85208 -1.970183,1.85208 -0.07276,0 0.694759,-0.83344 1.705599,-1.85208 z m 94.184566,-0.0662 -1.844987,-1.91823 1.918229,1.84499 c 1.781651,1.71362 2.039062,1.99147 1.844987,1.99147 -0.04028,0 -0.903486,-0.8632 -1.918229,-1.91823 z m -47.94863,-14.67868 c 0.545703,-0.0571 1.438671,-0.0571 1.984374,0 l 0.992188,0.10379 h -1.984375 -1.984375 z m -2.77504,-4.75689 c 0.329118,-0.0633 0.805368,-0.0609 1.058333,0.005 l 0.459936,0.12041 -1.058334,-0.005 -1.058333,-0.005 z m 6.614583,0 c 0.329118,-0.0633 0.805368,-0.0609 1.058333,0.005 l 0.459936,0.12041 -1.058333,-0.005 -1.058334,-0.005 z"
         id="path2291" /><path
         style="fill:#a987dd;stroke-width:0.264583"
         d="m -5.6259668,247.91001 -2.0103146,-0.18215 -1.6938519,-0.56527 -1.6938487,-0.56528 -1.296782,-0.99103 -1.296778,-0.99102 -0.739764,-1.32292 -0.739765,-1.32292 -0.274251,-1.72718 -0.274251,-1.72718 0.252307,-1.55023 0.252304,-1.55023 0.761338,-1.61738 0.761339,-1.61738 1.249344,-1.38219 1.249343,-1.38218 2.0013431,-1.33859 c 2.3634011,-1.58073 2.6291512,-1.53958 1.1943079,0.18498 -1.3014801,1.56426 -2.497037,3.72262 -3.101409,5.59902 l -0.456223,1.41645 0.115461,2.42 0.115464,2.42001 0.606327,1.38299 0.606325,1.38299 1.1159912,1.02868 1.1159912,1.02869 1.5660184,0.58996 1.5660184,0.58995 2.5350284,0.14324 2.53503099,0.14324 3.55038541,-0.31159 c 1.9527148,-0.17137 4.0861692,-0.36708 4.7410129,-0.43492 l 1.190625,-0.12333 -0.996905,0.38669 c -0.548296,0.21268 -2.3501032,0.69018 -4.0040135,1.06112 l -3.0071085,0.67444 -2.08140288,0.14433 c -1.14477262,0.0794 -2.37905912,0.17673 -2.74286122,0.21633 -0.363802,0.0396 -1.5661004,-0.01 -2.6717756,-0.11014 z m -47.3025212,-6.8879 c -0.782791,-0.13684 -1.924528,-0.47054 -2.537192,-0.74155 l -1.113936,-0.49275 -0.921377,-0.92137 -0.921377,-0.92138 -0.624959,-1.29511 -0.624961,-1.29511 -0.113208,-2.69954 -0.113204,-2.69954 0.547719,-1.79838 0.547719,-1.79837 0.829913,-1.32292 c 0.456451,-0.7276 1.322144,-1.8315 1.923762,-2.4531 l 1.093851,-1.13018 0.162118,0.46216 0.162115,0.46216 -0.741767,1.59406 c -0.407972,0.87674 -0.924951,2.30369 -1.148842,3.17101 l -0.407075,1.57694 0.0031,1.99494 0.0031,1.99493 0.352517,1.32291 c 0.645885,2.42384 1.678271,3.79738 3.573576,4.75449 l 0.889667,0.44927 1.398569,0.14434 1.398571,0.14435 0.301356,0.6614 c 0.375105,0.82327 0.408275,0.79641 -1.17846,0.95412 l -1.318135,0.13102 z m 79.679691,-26.96623 v -1.19062 l 0.114662,0.59531 c 0.06307,0.32742 0.06307,0.8632 0,1.19063 l -0.114662,0.59531 z m -1.37386,-5.47187 -0.640339,-1.46318 -1.263965,-1.38298 -1.263965,-1.38298 -1.535279,-0.81384 c -2.014188,-1.0677 -4.367953,-1.8202 -7.330061,-2.34341 l -2.407301,-0.42522 -4.1010413,-0.18428 -4.1010415,-0.18427 -7.8178788,0.25353 -7.8178784,0.25352 -3.030038,-0.43782 c -5.342797,-0.77199 -7.298139,-1.54589 -4.683683,-1.85373 0.763985,-0.09 2.247424,-0.38168 3.296531,-0.64828 l 1.907471,-0.48472 0.341487,0.18913 c 0.18782,0.10402 1.591646,0.40856 3.119615,0.67676 l 2.7781248,0.48764 6.4822913,0.001 c 3.56526028,8e-4 9.3993225,-0.0583 12.9645829,-0.13106 l 6.482291,-0.13229 1.5875,0.36135 c 1.829364,0.41641 3.289207,1.10234 4.68712,2.20232 l 0.982951,0.77346 0.791429,1.63873 0.791427,1.63872 0.30402,2.16532 c 0.167211,1.19093 0.26171,2.28327 0.209994,2.42743 l -0.09402,0.26211 -0.640339,-1.46318 z m -55.010261,-15.31257 c -1.067105,-0.19486 -2.524406,-0.54833 -3.238445,-0.78549 l -1.298257,-0.43122 -1.127181,-1.2902 c -0.619948,-0.70961 -1.538478,-2.03976 -2.041178,-2.95588 l -0.913995,-1.66568 1.707745,1.34574 c 2.478363,1.953 4.805857,3.4743 7.520537,4.91558 l 2.389294,1.26852 -0.529167,-0.0236 c -0.291042,-0.013 -1.402252,-0.18297 -2.469353,-0.37782 z M -69.77162,181.77672 c 0.105762,-0.3638 0.654686,-1.63124 1.219831,-2.81653 l 1.027538,-2.15508 1.328639,-1.45374 1.328639,-1.45374 1.209598,-0.56858 1.209599,-0.56858 1.375337,-0.0164 1.375333,-0.0164 1.185521,0.31572 c 0.652037,0.17365 1.959428,0.72281 2.905313,1.22036 l 1.719792,0.90465 1.619914,1.38596 c 0.890952,0.76227 2.255406,2.08484 3.032117,2.93905 l 1.412205,1.55309 -1.369221,-0.84249 c -0.75307,-0.46337 -2.363885,-1.24357 -3.579588,-1.73379 l -2.210368,-0.89129 -2.205107,-0.44681 -2.205106,-0.44681 -1.892101,0.12143 -1.892105,0.12142 -1.530035,0.70048 c -1.871479,0.85679 -2.891245,1.68967 -4.230781,3.45545 l -1.027259,1.35415 z m 18.80969,-13.02429 c -0.389747,-1.05148 -0.918077,-2.81127 -1.174062,-3.91063 l -0.465431,-1.99885 0.08916,-1.57947 0.08916,-1.57947 0.41144,-1.2489 0.411441,-1.24889 1.15371,-1.2832 1.15371,-1.28321 1.804204,-0.8253 1.804205,-0.8253 2.248958,-0.47906 2.248958,-0.47906 7.408333,0.002 7.408333,0.002 3.307291,0.36436 c 1.819011,0.20041 4.081198,0.44034 5.027084,0.53319 l 1.719791,0.16881 -5.820833,0.18871 -5.820833,0.18871 -3.439583,0.40479 c -4.253172,0.50054 -9.02431,1.46837 -11.070211,2.24559 l -1.545212,0.58702 -1.629788,1.11389 -1.629788,1.1139 -0.998141,1.30556 -0.998143,1.30557 -0.556755,1.81152 -0.556757,1.81153 0.122417,2.75254 c 0.145661,3.27511 0.183087,3.23034 -0.702654,0.84074 z"
         id="path2289" /><path
         style="fill:#dca986;stroke-width:0.264583"
         d="m -36.999132,254.67417 -1.898068,-0.34437 -1.53434,-0.70244 c -2.378165,-1.08876 -3.16589,-2.10681 -5.246748,-6.78083 -0.546349,-1.2272 -2.037268,-4.31487 -3.313157,-6.86148 l -2.319801,-4.63021 -0.833244,-2.48827 c -0.458285,-1.36854 -1.190421,-4.22604 -1.626968,-6.35 l -0.793724,-3.86173 -0.162356,-2.30774 -0.162359,-2.30774 0.338294,-1.97767 0.338291,-1.97768 0.579382,0.43703 0.579382,0.43703 -0.115158,0.60241 -0.115159,0.60241 0.757525,0.29202 0.757526,0.29202 1.777479,-0.0969 1.777481,-0.0969 0.719712,-0.53734 c 0.395843,-0.29554 0.957485,-0.85581 1.24809,-1.24505 l 0.528375,-0.7077 0.11443,-1.58199 c 0.06294,-0.8701 0.03294,-2.01641 -0.06667,-2.54736 l -0.181104,-0.96537 -1.305248,-1.30525 -1.30525,-1.30525 v -0.58999 c 0,-0.32449 -0.174612,-0.83928 -0.388028,-1.14397 l -0.38803,-0.55399 -3.284958,-1.09239 -3.284958,-1.09238 h -1.107342 -1.107344 l 0.171116,-0.59531 c 0.09411,-0.32742 0.222533,-0.7826 0.285377,-1.0115 0.06284,-0.2289 0.226272,-1.83624 0.363175,-3.57187 l 0.248915,-3.15569 0.41978,-1.5875 c 0.230878,-0.87313 0.764638,-2.32847 1.186127,-3.23409 l 0.766347,-1.64659 1.241023,-1.32676 1.241022,-1.32675 1.444062,-0.70651 1.444061,-0.70652 1.587347,-0.0243 1.587349,-0.0243 1.025017,2.7177 c 0.563758,1.49474 1.475369,3.57833 2.025803,4.63021 l 1.000787,1.91251 1.987195,2.01428 1.987198,2.01428 1.988389,0.95086 c 1.093612,0.52297 2.760487,1.14511 3.704166,1.38253 l 1.715778,0.43168 4.174939,0.12172 4.17494,0.12172 2.042768,0.52394 c 1.123524,0.28817 3.147915,0.66417 4.498647,0.83555 l 2.455878,0.31161 0.372759,1.33445 c 0.205015,0.73395 0.498189,1.81071 0.651499,2.39279 l 0.278744,1.05834 0.0016,2.05052 0.0016,2.05052 h -0.227865 c -0.125325,0 -0.488476,-0.68461 -0.807003,-1.52135 l -0.579138,-1.52136 -0.815501,-1.02023 -0.815499,-1.02023 0.564168,0.30194 0.564171,0.30193 -5.29e-4,-0.20775 c -7.94e-4,-0.3409 -2.373542,-1.83835 -4.506714,-2.84426 l -1.993683,-0.94012 -1.975067,-0.41356 -1.975066,-0.41355 -2.067071,0.30054 c -2.236636,0.3252 -7.472177,1.70323 -10.236054,2.6942 l -1.719791,0.61663 -0.07852,1.2041 -0.07852,1.2041 0.626089,0.67556 0.626089,0.67556 0.04033,1.5328 c 0.04573,1.73816 0.428307,3.11056 1.156599,4.14903 l 0.498827,0.71126 1.382678,0.67362 1.382678,0.67361 2.116667,0.29849 2.116666,0.29849 2.910417,-0.14102 2.910417,-0.14103 2.248958,-0.71387 c 2.252683,-0.71506 5.84441,-2.38285 7.209895,-3.34785 0.400182,-0.28282 0.727604,-0.43481 0.727604,-0.33775 0,0.34438 -2.477664,5.07805 -4.795549,9.16207 -1.293285,2.27872 -2.788821,5.06415 -3.323409,6.18984 l -0.971979,2.04671 -0.113832,1.37267 -0.113831,1.37267 1.80762,4.47603 1.80762,4.47604 0.0074,2.64583 0.0074,2.64583 -0.715182,1.35575 -0.715182,1.35576 -1.237535,1.23753 -1.237538,1.23754 -1.49619,0.75527 c -1.882407,0.95024 -4.53835,1.76119 -7.874875,2.40446 l -2.598497,0.50098 1.984375,-0.10769 1.984375,-0.10769 -1.190625,0.2285 c -1.646653,0.31601 -3.242519,0.27972 -5.469943,-0.12441 z m 0.405643,-11.75627 c 1.36198,-0.45073 3.423179,-1.31211 4.580445,-1.91418 l 2.104118,-1.09468 1.199202,-1.08648 1.1992,-1.08647 -2.472354,-0.0269 -2.472353,-0.0269 -4.497917,-0.81341 c -2.473854,-0.44738 -5.15276,-0.88177 -5.953125,-0.96531 l -1.455208,-0.1519 -1.698717,0.2509 -1.698718,0.25089 -0.523819,0.52382 -0.52382,0.52382 0.339905,1.21403 c 0.18695,0.66772 0.668555,1.73225 1.070234,2.36563 l 0.730325,1.15161 0.887722,0.66238 c 0.488246,0.36431 1.244909,0.79507 1.681472,0.95723 l 0.793749,0.29484 2.116667,-0.1047 2.116667,-0.1047 z m -1.162402,-11.67636 1.843087,-0.26636 0.604309,-0.39596 0.604305,-0.39595 v -1.13144 -1.13144 L -35.45,225.5522 c -0.844822,-2.68258 -3.388206,-8.74681 -5.320995,-12.68694 l -1.297887,-2.64584 -0.06339,0.79375 -0.06339,0.79375 -0.156869,-1.30239 -0.156872,-1.3024 -0.317941,-0.10445 -0.317942,-0.10445 -0.808398,1.60142 c -0.982215,1.94576 -2.961094,7.69411 -4.630893,13.45206 l -1.236773,4.26476 0.0841,0.87401 0.0841,0.87401 0.762325,0.36365 c 0.41928,0.20001 1.609905,0.51751 2.645833,0.70557 l 1.883508,0.34191 2.38125,0.0186 c 1.309688,0.0102 3.210639,-0.10122 4.22434,-0.24772 z m -18.755134,-22.49261 -0.710491,-1.07363 0.08002,-1.2208 0.08002,-1.22079 0.335886,-0.1106 0.335886,-0.1106 -0.291907,0.64067 -0.29191,0.64067 0.401548,0.90445 c 0.22085,0.49745 0.659236,1.29141 0.974193,1.76435 l 0.572643,0.8599 h -0.387697 -0.387699 z"
         id="path2287" /><path
         style="fill:#aaa39c;stroke-width:0.264583"
         d="m -21.012003,264.13999 c 0.327422,-0.0631 0.863203,-0.0631 1.190625,0 l 0.595313,0.11466 h -1.190625 -1.190625 z m 3.96875,0 c 0.327422,-0.0631 0.863203,-0.0631 1.190625,0 l 0.595312,0.11466 h -1.190625 -1.190624 z m 23.349478,-8.9414 c 0.4936543,-0.50932 0.9570852,-0.92604 1.0298456,-0.92604 0.07276,0 -0.271608,0.41672 -0.7652622,0.92604 -0.4936543,0.50932 -0.9570852,0.92604 -1.0298456,0.92604 -0.072761,0 0.271608,-0.41672 0.7652622,-0.92604 z m 14.276442,-14.75052 c 1.096423,-1.16819 1.333974,-1.37824 1.333974,-1.17957 0,0.0425 -0.565547,0.60801 -1.256771,1.25677 l -1.256771,1.17957 z m -81.129202,-7.73906 0.0021,-1.85209 0.104137,0.99809 c 0.05727,0.54895 0.05631,1.38239 -0.0021,1.85208 l -0.106273,0.854 0.0021,-1.85208 z M 26.50994,223.3163 v -2.51354 l 0.0991,1.25677 c 0.0545,0.69122 0.0545,1.82232 0,2.51354 l -0.0991,1.25677 z m -80.39642,-59.26666 c 0.568388,-0.58209 1.092967,-1.05834 1.165727,-1.05834 0.07276,0 -0.332756,0.47625 -0.901144,1.05834 -0.568388,0.58208 -1.092967,1.05833 -1.165728,1.05833 -0.07276,0 0.332756,-0.47625 0.901145,-1.05833 z"
         id="path2285" /><path
         style="fill:#d4956d;stroke-width:0.264583"
         d="m -34.152975,254.70624 c 0.06063,-0.0525 0.646025,-0.17326 1.300869,-0.26834 l 1.190625,-0.17286 -0.396875,0.26428 c -0.35687,0.23765 -2.360121,0.40685 -2.094619,0.17692 z m 3.465438,-0.34142 -0.333349,-0.35686 0.341159,0.0186 c 0.18764,0.0102 0.572911,0.10929 0.85616,0.22014 l 0.514999,0.20153 -0.522812,0.13672 -0.522811,0.13672 z m 12.463187,-10.8079 0.0036,-1.32291 0.110574,0.73124 c 0.06082,0.40218 0.05919,0.99749 -0.0036,1.32292 l -0.114186,0.59167 0.0036,-1.32292 z m -10.318617,-27.58018 c 0.842057,-0.0527 2.151745,-0.0522 2.910416,0.001 l 1.379403,0.0968 -2.910417,-0.001 -2.910417,-0.001 z m 16.674929,-8.13857 0.0027,-1.5875 0.107066,0.86464 c 0.05889,0.47555 0.05767,1.18992 -0.0027,1.5875 l -0.109768,0.72286 0.0027,-1.5875 z m -12.848131,-4.28776 c 0.327422,-0.0631 0.863203,-0.0631 1.190625,0 l 0.595312,0.11466 h -1.190625 -1.190625 z"
         id="path2283" /><path
         style="fill:#01cbfe;stroke-width:0.264583"
         d="m -23.723982,275.01408 c -3.551422,-0.27172 -6.91751,-0.72385 -9.921874,-1.33272 l -3.307292,-0.67025 -3.836458,-1.26567 c -8.051887,-2.65636 -14.648825,-6.26641 -21.431249,-11.72785 l -2.778125,-2.23705 -3.045423,-3.14306 c -3.356047,-3.46364 -5.62785,-6.27625 -8.308866,-10.28681 l -1.768713,-2.64583 -2.186309,-4.36562 -2.18631,-4.36563 -1.127507,-3.175 c -2.286349,-6.43824 -3.516897,-12.49104 -4.018773,-19.76749 l -0.288119,-4.1773 0.288119,-4.1773 c 0.995032,-14.42647 5.586929,-26.93741 14.004435,-38.15603 l 2.282991,-3.04271 2.912654,-3.01609 c 10.991032,-11.38137 24.369901,-18.20022 39.822224,-20.29631 l 3.307095,-0.4486 h 5.159375 5.159375 l 3.277579,0.44476 c 15.5417296,2.109 28.775658,8.8517 39.85174,20.30452 l 2.912655,3.01172 2.282989,3.04271 c 8.417507,11.21862 13.009403,23.72956 14.004435,38.15603 l 0.288121,4.1773 -0.288121,4.1773 c -0.99496,14.42547 -5.58442,26.93062 -14.003472,38.15603 l -2.282028,3.04271 -3.04591,3.14712 -3.045907,3.14712 -2.84185,2.32705 c -9.756787,7.98935 -21.36352584,13.05472 -33.538356,14.6367 l -3.042709,0.39537 -3.968749,0.11605 c -2.182813,0.0638 -4.564063,0.0705 -5.291667,0.0148 z m 11.773958,-5.28607 c 3.8637102,-0.5044 8.0293496,-1.48543 11.90624934,-2.80398 l 3.04270816,-1.03484 3.9687498,-1.95687 3.9687497,-1.95687 2.695731,-1.80093 c 14.943354,-9.98318 24.72297,-24.8514 27.993497,-42.55928 l 0.645557,-3.4953 0.289007,-4.13307 0.28901,-4.13307 -0.287427,-4.11047 -0.287428,-4.11048 -0.52006,-2.96713 c -1.137306,-6.48875 -2.859561,-11.75176 -5.819536,-17.78379 l -1.817666,-3.70417 -1.896068,-2.91042 c -2.595584,-3.98416 -5.376373,-7.3923 -8.86837,-10.86908 l -2.944413,-2.93158 -3.200664,-2.4094 C 7.1312091,146.47198 -3.6198193,142.46879 -16.381795,141.55013 l -3.770312,-0.2714 -3.902604,0.27673 c -19.862341,1.40845 -37.278065,11.66864 -48.286671,28.4473 l -2.08314,3.175 -1.816072,3.70417 c -2.960123,6.03764 -4.681283,11.29873 -5.81794,17.78379 l -0.520059,2.96713 -0.287427,4.11048 -0.287428,4.11047 0.287428,4.11047 0.287427,4.11048 0.520059,2.96713 c 1.136657,6.48506 2.857817,11.74615 5.81794,17.78379 l 1.816072,3.70417 2.08314,3.175 c 10.846547,16.53166 28.241534,26.90544 47.691359,28.44149 l 2.778124,0.2194 3.439584,-0.12025 c 1.89177,-0.0661 4.808801,-0.299 6.482291,-0.51747 z"
         id="path2281" /><path
         style="fill:#a975a2;stroke-width:0.264583"
         d="m -2.7526686,248 c 0.3291178,-0.0633 0.8053678,-0.0609 1.0583332,0.005 l 0.4599358,0.1204 -1.0583333,-0.005 -1.0583333,-0.005 z M -60.024903,232.04755 v -1.45521 l 0.110222,0.7276 c 0.06062,0.40019 0.06062,1.05503 0,1.45521 l -0.110222,0.72761 z M 1.4775794,200.37541 c 0.3274219,-0.0631 0.8632031,-0.0631 1.190625,0 l 0.5953124,0.11466 H 2.0728919 0.88226696 Z m 0.5291667,-1.5875 c 0.3274218,-0.0631 0.8632031,-0.0631 1.1906249,0 l 0.5953125,0.11466 H 2.6020585 1.4114336 Z m 6.617668,-0.26499 c 0.3291179,-0.0633 0.8053678,-0.0609 1.0583333,0.005 l 0.4599356,0.1204 -1.0583331,-0.005 -1.0583333,-0.005 0.5983975,-0.11506 z m -27.7812491,-4.7625 c 0.329118,-0.0633 0.805368,-0.0609 1.058334,0.005 l 0.459936,0.1204 -1.058334,-0.005 -1.058333,-0.005 0.598397,-0.11506 z m -42.81368,-2.92172 -0.911798,-0.99219 0.992187,0.9118 c 0.923507,0.84868 1.11384,1.07257 0.911799,1.07257 -0.04421,0 -0.490699,-0.44648 -0.992188,-0.99218 z m 45.191845,-37.55912 c 0.327422,-0.0631 0.863203,-0.0631 1.190625,0 l 0.595313,0.11466 h -1.190625 -1.190625 z"
         id="path2279" /><path
         style="fill:#d18b5d;stroke-width:0.264583"
         d="m -29.412523,254.31143 -0.926042,-0.0934 1.984375,-0.51324 c 1.091406,-0.28228 2.845194,-0.91785 3.897307,-1.41238 l 1.912935,-0.89915 1.323409,-1.23789 1.323408,-1.23789 0.784445,-1.56982 0.784444,-1.56981 0.17511,-1.16771 0.175109,-1.16771 -0.312238,-1.79483 -0.312234,-1.79482 -1.608654,-3.83646 -1.60865,-3.83646 -0.01405,-1.45521 -0.01405,-1.45521 1.065392,-2.24895 c 0.585968,-1.23693 2.115606,-4.09443 3.399197,-6.35 4.736439,-8.32304 5.438772,-9.98464 3.729397,-8.82309 -0.556786,0.37835 -2.119254,1.21226 -3.47215,1.85313 l -2.459813,1.16523 -2.179362,0.55111 -2.179362,0.55111 -4.255323,-0.11089 -4.25532,-0.11089 -1.313249,-0.59067 c -1.627857,-0.73217 -2.171409,-1.21528 -2.838966,-2.52327 l -0.524031,-1.02677 -0.143621,-1.89901 -0.143621,-1.89901 1.952577,-0.87516 c 1.073918,-0.48134 3.50039,-1.39185 5.392161,-2.02335 l 3.439583,-1.14818 2.513542,-0.12611 2.513541,-0.12611 2.248958,0.38619 c 1.236927,0.21241 2.628056,0.50861 3.0914,0.65822 l 0.842441,0.27203 0.888939,0.98395 0.888937,0.98395 0.615984,1.64713 c 0.703969,1.88239 0.98262,2.04175 1.233331,0.70535 l 0.176676,-0.94176 -0.176795,-1.56268 c -0.09724,-0.85947 -0.346988,-2.19184 -0.555,-2.96083 -0.208002,-0.76899 -0.456803,-1.69582 -0.552884,-2.05962 l -0.174689,-0.66146 1.028023,1.18906 c 0.565412,0.65398 2.7120583,2.9757 4.7703261,5.15937 6.1822433,6.55892 8.7630921,9.80234 10.4226751,13.09844 l 0.8659125,1.71979 0.1224438,1.86095 0.1224439,1.86095 -0.7258605,0.86263 -0.7258579,0.86264 -1.0145104,0.51756 -1.0145103,0.51757 -1.00272845,-0.001 -1.00272845,-0.001 -0.8470503,-0.51648 -0.8470502,-0.51647 -0.4097205,-0.79232 -0.4097205,-0.79231 v -1.03206 -1.03207 l 0.6540155,-1.23003 0.654013,-1.23003 h -0.5496772 c -0.3023235,0 -1.2812394,0.18471 -2.1753696,0.41048 l -1.6256899,0.41047 -2.4234218,1.19012 -2.4234249,1.19012 -1.677617,1.54394 -1.677619,1.54393 -0.864659,1.44025 -0.864655,1.44024 -0.418939,1.96366 -0.418938,1.96366 0.164174,3.04271 0.164174,3.04271 0.351464,1.32292 c 0.193305,0.7276 0.597712,1.80451 0.898684,2.39314 l 0.547219,1.07022 1.146778,1.04829 1.146781,1.04829 1.146638,0.51135 1.146638,0.51135 -1.27893,0.66527 c -0.70341,0.3659 -1.338461,0.67204 -1.411221,0.68032 -0.07276,0.008 -1.144323,0.45085 -2.38125,0.98348 -1.236927,0.53263 -2.754974,1.12586 -3.373437,1.31829 -0.618464,0.19243 -1.124479,0.44698 -1.124479,0.56566 v 0.21577 l -0.264584,-0.16352 -0.264583,-0.16352 -0.318762,0.19701 c -0.175321,0.10835 -0.681336,0.23502 -1.124479,0.28149 -0.443145,0.0465 -0.984311,0.16173 -1.202592,0.25614 -0.218281,0.0944 -0.594686,0.14767 -0.836457,0.11834 -0.24177,-0.0293 -0.513474,0.0662 -0.603787,0.21237 l -0.164203,0.26569 -0.388403,-0.14905 -0.3884,-0.14904 -0.463021,0.19994 c -0.254661,0.10996 -0.747075,0.17159 -1.094253,0.13695 l -0.631232,-0.063 -0.162518,0.22208 -0.162518,0.22222 z m 5.817912,-39.06341 c 0.420502,-0.21745 0.920604,-0.60772 1.11134,-0.86726 l 0.346789,-0.4719 1.785408,-0.74978 1.785406,-0.74979 0.895874,0.16807 0.895874,0.16807 0.160668,-0.41869 0.160665,-0.4187 -1.457864,-0.64473 c -2.193145,-0.96992 -4.533469,-1.71341 -6.696702,-2.12747 l -1.941504,-0.37162 -2.556412,0.006 -2.556412,0.006 -1.134438,0.51488 -1.134438,0.51488 -0.386917,0.92602 c -0.212804,0.50929 -0.386916,1.23319 -0.386916,1.60865 v 0.68264 l 0.727605,0.66409 c 0.400182,0.36526 1.128339,0.84315 1.618128,1.06199 l 0.890521,0.3979 2.261362,0.11488 c 1.243748,0.0632 2.321372,0.17489 2.39472,0.24823 0.07335,0.0734 0.655208,0.13336 1.293026,0.13336 h 1.159666 z m -22.284107,14.35201 0.592071,-0.63023 1.059056,-5.27414 c 0.58248,-2.90079 1.333,-7.04956 1.667819,-9.21951 l 0.608767,-3.94536 1.930577,4.20615 c 2.082805,4.53781 3.575209,8.18883 4.510212,11.03378 l 0.589266,1.79297 0.04223,1.24974 0.04224,1.24974 -0.529167,-0.11466 c -0.866127,-0.18769 -8.085177,-0.12217 -9.653611,0.0876 l -1.45153,0.19414 z m -5.757743,-13.09457 c -0.993931,-0.11988 -1.588561,-0.48019 -1.588561,-0.96258 v -0.3003 l 2.109338,0.0958 2.109335,0.0958 0.801081,-0.80108 0.801079,-0.80107 v -0.41723 -0.41723 h 0.264583 0.264584 v -0.69636 -0.69637 l -0.913781,-0.8618 -0.913781,-0.86181 -1.364594,-0.32736 -1.364594,-0.32736 -1.821203,0.13031 -1.821201,0.1303 -0.795216,-1.20055 -0.795213,-1.20056 V 206.37 205.65401 l 0.357036,-0.29631 0.357037,-0.29632 1.164318,0.35085 c 0.640373,0.19296 2.227873,0.75246 3.527776,1.24333 l 2.363457,0.89249 0.105987,-0.31796 c 0.196657,-0.58997 0.78292,-0.32373 1.859854,0.8446 l 1.07161,1.16256 0.187592,1.25096 0.187595,1.25097 -0.318042,1.42116 -0.318043,1.42116 -0.77317,0.77317 -0.773171,0.77317 -1.337942,0.28694 c -0.735868,0.15781 -1.421376,0.26788 -1.523355,0.24459 -0.101978,-0.0233 -0.601654,-0.0925 -1.110395,-0.15391 z"
         id="path2277" /><path
         style="fill:#aac736;stroke-width:0.264583"
         d="m -21.607315,264.05256 c -3.233312,-0.27569 -8.863541,-1.71359 -8.863541,-2.26366 0,-0.15193 1.305832,-2.22469 1.40155,-2.22469 0.0396,0 0.743135,0.23589 1.563415,0.52419 0.82028,0.28831 2.52839,0.70503 3.7958,0.92605 l 2.304383,0.40185 h 2.862207 2.862209 l 3.025939,-0.39667 3.0259416,-0.39666 2.2882938,-0.66313 c 3.0325112,-0.87878 5.3235381,-1.94143 7.92947218,-3.67791 l 2.14599562,-1.43 1.903632,-1.96623 1.903632,-1.96623 1.0710254,0.68435 c 1.35178,0.86374 1.3776668,0.73688 -0.5788104,2.83651 l -1.6536458,1.77463 -2.0990982,1.56137 -2.0990982,1.56136 -2.6634016,1.29288 -2.6634015,1.29289 -2.3112015,0.66275 -2.3112041,0.66276 -2.8481703,0.39044 c -3.812141,0.5226 -7.109428,0.65893 -9.991923,0.41315 z m -5.291667,-49.50845 c -0.583067,-0.31891 -1.190625,-0.99889 -1.190625,-1.33255 0,-0.40323 0.793584,-0.21418 1.322917,0.31516 l 0.529167,0.52916 h 0.79375 0.79375 l 0.555087,-0.55508 0.555088,-0.55509 -0.105084,-0.90012 c -0.11734,-1.0051 -0.114216,-1.00836 0.599802,-0.62623 l 0.511773,0.27389 v 0.54518 c 0,0.29985 -0.198271,0.88083 -0.440603,1.29106 l -0.440602,0.74589 -0.630179,0.28712 c -0.80068,0.36482 -2.169753,0.356 -2.854241,-0.0184 z m -24.301234,-0.44355 -0.43846,-0.48449 0.179385,-0.17939 0.179388,-0.17939 0.629197,0.59111 0.629201,0.5911 0.712414,-0.39987 0.712414,-0.39987 0.168064,-0.78412 0.168066,-0.78413 0.06265,0.39687 c 0.106881,0.67705 -0.03143,1.17231 -0.461806,1.65365 l -0.414004,0.46302 h -0.844027 -0.844026 z m -0.387697,-1.9133 c 0.06366,-0.19099 0.272024,-0.39935 0.463021,-0.46302 l 0.347266,-0.11575 -0.115756,0.34726 c -0.06367,0.191 -0.272026,0.39936 -0.46302,0.46302 l -0.347266,0.11576 z m 23.579317,-0.41832 -0.315868,-0.1285 0.145738,-0.37978 0.145735,-0.37978 h 0.635391 0.635395 l -0.33047,0.52917 c -0.343834,0.55056 -0.395245,0.57071 -0.915921,0.35889 z"
         id="path2275" /><path
         style="fill:#c7774b;stroke-width:0.264583"
         d="m -17.412357,236.14859 -0.0016,-2.38125 0.100891,1.1165 c 0.05549,0.61407 0.05615,1.68563 0.0016,2.38125 l -0.09942,1.26475 -0.0016,-2.38125 z m 21.6686381,-11.90625 0.00534,-1.05833 0.1150673,0.5984 c 0.063286,0.32911 0.060883,0.80536 -0.00534,1.05833 l -0.1204066,0.45993 z m -9.870548,-15.14739 -0.9117991,-0.99219 0.9921874,0.9118 c 0.5457031,0.50149 0.9921875,0.94797 0.9921875,0.99218 0,0.20205 -0.2238957,0.0117 -1.0725758,-0.91179 z m -4.4979161,-4.7625 -0.911799,-0.99219 0.992187,0.9118 c 0.5457031,0.50149 0.9921875,0.94797 0.9921875,0.99219 0,0.20204 -0.2238957,0.0117 -1.0725755,-0.9118 z"
         id="path2273" /><path
         style="fill:#ab6756;stroke-width:0.264583"
         d="m -1.9620037,246.14832 c 0.3274218,-0.0631 0.8632031,-0.0631 1.19062491,0 l 0.59531247,0.11467 H -1.3666913 -2.5573162 Z m -40.3453183,-14.8198 c 0.402182,-0.0608 0.997495,-0.0592 1.322917,0.004 l 0.591674,0.11419 -1.322917,-0.004 -1.322916,-0.004 0.731242,-0.11057 z m 31.354224,-30.42897 c 0.475549,-0.0589 1.1899239,-0.0577 1.5875,0.003 l 0.7228654,0.10977 -1.5874994,-0.003 -1.5875,-0.003 0.864634,-0.10707 z M 0.15774788,198.7875 c 0.32911783,-0.0633 0.80536781,-0.0609 1.05833332,0.005 l 0.4599357,0.12041 -1.05833326,-0.005 -1.05833328,-0.005 0.59839752,-0.11507 z M -22.988395,193.75275 c 0.695616,-0.0547 1.767178,-0.054 2.38125,0.002 l 1.116496,0.10089 -2.38125,-0.002 -2.381249,-0.002 1.264753,-0.0994 z m 36.90139,-2.90234 c 0.327422,-0.0631 0.863204,-0.0631 1.190625,0 l 0.595313,0.11466 h -1.190625 -1.190625 z m -65.087496,-9.79659 c 0.618463,-0.0557 1.630494,-0.0557 2.248958,0 l 1.124479,0.10128 h -2.248958 -2.248958 z m 29.504678,-27.77738 c 0.402182,-0.0608 0.997495,-0.0592 1.322917,0.004 l 0.591674,0.11419 -1.322917,-0.004 -1.322916,-0.004 z m 3.042155,0.003 c 0.329118,-0.0633 0.805368,-0.0609 1.058333,0.005 l 0.459936,0.12041 -1.058333,-0.005 -1.058333,-0.005 z"
         id="path2271" /><path
         style="fill:#93a22e;stroke-width:0.264583"
         d="m -27.366135,215.15739 c -1.260383,-0.83109 -1.884781,-1.89526 -1.112044,-1.89526 h 0.40518 l 0.156052,0.40666 c 0.08582,0.22367 0.492894,0.58086 0.904597,0.79375 l 0.748548,0.38709 h 0.794441 c 0.436941,0 1.078021,-0.12921 1.42462,-0.28713 l 0.630179,-0.28712 0.440602,-0.74589 c 0.242332,-0.41023 0.440603,-0.98948 0.440603,-1.28722 v -0.54134 l -0.463021,-0.29771 -0.463021,-0.29771 0.484662,0.15227 c 0.266562,0.0838 0.668731,0.15227 0.893712,0.15227 h 0.409051 l -0.174535,1.09147 c -0.234207,1.46466 -0.561994,2.01512 -1.563629,2.62586 l -0.84301,0.51402 -1.190625,-7.9e-4 -1.190625,-7.9e-4 -0.731737,-0.48251 z m -23.801715,-0.19102 c -0.396523,-0.21519 -0.847195,-0.62714 -1.001495,-0.91545 l -0.280546,-0.5242 h 0.365178 c 0.200848,0 0.580676,0.23812 0.844066,0.52916 l 0.47889,0.52917 h 0.844026 0.844027 l 0.452096,-0.49956 c 0.248652,-0.27476 0.471146,-0.75245 0.494429,-1.06153 l 0.04233,-0.56198 0.274185,0.0901 c 0.150799,0.0495 0.31233,0.34941 0.358957,0.66639 l 0.08477,0.57631 -0.792025,0.79202 -0.792025,0.79203 -0.747958,-0.0106 c -0.411374,-0.006 -1.072386,-0.18666 -1.468909,-0.40184 z m -1.159438,-2.9165 c 0.08833,-0.23018 0.160599,-0.46831 0.160599,-0.52917 0,-0.0609 0.423746,-0.11065 0.941658,-0.11065 h 0.941654 l -0.156379,0.25303 -0.156379,0.25303 -0.386173,-0.14819 -0.38617,-0.14819 -0.16283,0.42433 -0.16283,0.42432 h -0.396875 -0.396875 z m 23.443931,-0.9044 v -0.52917 l 1.256771,0.0396 1.256771,0.0396 -0.79375,0.11561 -0.79375,0.1156 -0.211585,0.37392 c -0.116371,0.20566 -0.324731,0.37392 -0.46302,0.37392 h -0.251437 z"
         id="path2269" /><path
         style="fill:#d25300;stroke-width:0.264583"
         d="m -16.118172,238.55186 c -0.181372,-0.86102 -0.329769,-2.23499 -0.329769,-3.05327 v -1.48778 l 0.410634,-1.57694 c 1.06672,-4.0965 5.802272,-8.35083 11.1567535,-10.02303 l 0.5871818,-0.18337 -0.4990491,1.13973 -0.4990492,1.13972 -0.2869247,2.89377 -0.2869247,2.89376 -0.5515187,1.13929 -0.5515213,1.13928 -0.7902019,0.56268 c -0.4346125,0.30947 -1.317363,0.72132 -1.9616657,0.91523 l -1.171464,0.35256 v -0.33207 c 0,-0.18264 0.463508,-1.27827 1.0300204,-2.43474 l 1.0300176,-2.10267 1.3554868,-1.66026 1.3554868,-1.66026 -1.2649226,0.64098 c -0.6957059,0.35255 -2.025208,1.2125 -2.954448,1.91103 l -1.689526,1.27004 -1.279303,1.73361 -1.279303,1.73361 -0.451294,1.32291 -0.451297,1.32292 -0.148815,1.98438 -0.148815,1.98437 z m 17.9264806,-3.72531 c -2.01191539,-0.40509 -4.0834388,-1.18998 -5.792692,-2.19481 l -1.218766,-0.71648 3.5718748,-0.15629 3.5718748,-0.15628 1.189138,-0.33435 c 2.638118,-0.74175 3.8176728,-1.68554 4.817086,-3.8543 l 0.608113,-1.31962 -0.035634,-2.91041 -0.035631,-2.91042 -0.9371885,-3.70417 C 6.3891745,211.99525 4.5154696,205.95093 3.301982,202.87724 l -0.9140005,-2.31511 h 0.8541517 0.8541544 l 2.2663889,3.10886 c 3.4087143,4.6758 6.2119325,9.09567 8.0127895,12.63385 l 1.616001,3.175 0.746641,2.24896 0.746641,2.24896 0.03313,1.85208 0.03313,1.85208 -0.73302,1.49265 -0.73302,1.49265 -1.203833,1.10966 -1.203833,1.10965 -1.658189,0.77596 -1.658188,0.77596 -1.8289167,0.38746 -1.8289163,0.38745 -1.5874999,-0.0203 C 4.2424751,235.18195 2.754194,235.017 1.8083086,234.82655 Z m -1.03254965,-37.63785 -0.80771202,-1.52136 1.17927167,1.32292 c 1.2633113,1.41719 1.4063873,1.71979 0.8131545,1.71979 H 1.583471 Z M -9.8333575,186.89698 c -2.5574785,-0.38411 -4.4158265,-0.85843 -8.5989575,-2.19477 -2.619375,-0.83678 -5.580184,-1.67487 -6.579576,-1.86242 l -1.817077,-0.34099 -1.88709,0.14477 -1.88709,0.14477 -1.479487,0.55587 c -0.813718,0.30572 -2.047798,0.95992 -2.742398,1.45376 l -1.262909,0.8979 -1.358646,-0.79463 c -2.368896,-1.38549 -4.194558,-2.87656 -6.867032,-5.60849 l -2.59797,-2.65577 0.481303,-0.36262 c 1.705599,-1.28501 7.783684,-3.89875 10.894972,-4.68514 l 1.682417,-0.42523 h 1.950363 1.950365 l 1.212374,0.53629 1.212376,0.53629 4.421179,4.30705 4.42118,4.30706 2.031693,1.39597 c 2.551858,1.75338 5.286507,3.04518 8.0106354,3.78409 1.1641666,0.31577 2.3547916,0.67036 2.6458332,0.78798 l 0.5291667,0.21385 -1.8520833,-0.0181 c -1.0186457,-0.01 -2.1497394,-0.0628 -2.5135415,-0.11747 z m 2.7444355,-2.73339 c -6.429859,-1.68576 -12.514243,-7.32048 -14.257205,-13.20355 l -0.186711,-0.63021 1.947135,1.69398 c 2.261476,1.96745 3.792307,2.91047 6.189213,3.81266 l 1.721818,0.64809 2.4420112,0.39606 2.4420115,0.39605 2.9486911,0.001 2.94869381,0.001 1.70888017,-0.52782 1.70888012,-0.52782 1.2145486,-1.06909 1.2145512,-1.06909 0.694772,-1.42006 0.694772,-1.42006 0.1488837,-1.9686 0.1488863,-1.96861 -0.4462039,-1.3434 -0.4462065,-1.34339 -1.0399342,-1.18143 c -1.970397,-2.23848 -5.32821329,-3.92294 -10.425665,-5.23008 l -2.9256327,-0.75022 1.9843749,-0.0105 1.9843749,-0.0105 2.6117443,0.39366 c 3.4418904,0.51878 5.9373847,1.27677 8.3998511,2.55138 l 2.0157624,1.04339 1.4843574,1.47257 1.4843576,1.47257 0.676841,1.43072 0.676841,1.43072 0.283303,1.51708 0.283305,1.51708 -0.12482,2.77813 -0.124817,2.77812 -0.587568,1.53051 -0.587566,1.5305 -1.461418,1.5785 -1.4614151,1.57851 -1.7173441,0.81961 -1.7173416,0.81961 -2.4212019,0.49968 -2.42120466,0.49967 -2.91041654,-0.0111 -2.9104165,-0.0111 -1.8857726,-0.4944 z m -37.140267,-17.22093 c 0,-1.92999 3.134645,-4.59009 7.420617,-6.29724 l 1.972091,-0.7855 2.910416,-0.41168 c 3.50692,-0.49606 8.094678,-0.88723 12.567708,-1.07159 l 3.307291,-0.1363 -5.159374,1.73529 c -2.837656,0.95441 -7.77875,2.50739 -10.980208,3.45107 -5.938694,1.75051 -8.270245,2.5268 -10.539124,3.50897 -1.560076,0.67534 -1.499417,0.67506 -1.499417,0.007 z"
         id="path2267" /><path
         style="fill:#9e582b;stroke-width:0.264583"
         d="m -22.533357,261.11855 c -1.091406,-0.12601 -2.859759,-0.48871 -3.929673,-0.80601 l -1.945302,-0.5769 -0.652552,-0.98608 c -0.559641,-0.84567 -1.409972,-3.07793 -1.409972,-3.70141 v -0.19863 l 1.918229,-0.31352 c 3.770457,-0.61627 8.062319,-1.59504 10.277498,-2.34382 l 2.251654,-0.7611 2.690059,-1.44097 2.690058,-1.44097 2.1909376,0.38134 2.1909377,0.38135 3.1749999,-0.28968 c 1.7462499,-0.15933 4.3545519,-0.5326 5.7962294,-0.82949 1.4416775,-0.29689 2.6445024,-0.50889 2.6729451,-0.47111 0.1426765,0.18954 0.65895,2.6243 0.65895,3.10762 v 0.55563 l -1.23231,1.31744 c -5.8975305,6.30494 -16.7354187,9.64093 -27.3426887,8.41631 z m -23.799243,-30.1837 -1.177367,-0.26228 0.383617,-0.19967 c 0.210992,-0.10981 2.3519,-0.34055 4.757576,-0.51274 l 4.373954,-0.31307 1.406252,0.30158 1.40625,0.30159 -0.233254,0.23325 c -0.128289,0.12829 -0.870397,0.35409 -1.649132,0.50177 l -1.415878,0.26852 -3.337324,-0.0283 -3.337325,-0.0283 z m -6.826276,-21.56639 c 0.400182,-0.0606 1.055026,-0.0606 1.455208,0 l 0.727604,0.11022 h -1.455208 -1.455208 z m 48.4187474,-10.58935 c 0.8367448,-0.0525 2.2059634,-0.0525 3.0427082,0 l 1.52135408,0.0955 H -3.2187745 -6.2614827 Z"
         id="path2265" /><path
         style="fill:#a94300;stroke-width:0.264583"
         d="m -8.7750242,248.89851 -1.7197918,-0.33193 -1.472824,-0.68204 -1.472824,-0.68203 -1.01178,-1.02904 -1.011783,-1.02905 -0.612399,-1.32291 -0.612402,-1.32292 -0.302609,-1.95561 -0.302609,-1.95561 0.09232,-3.21801 0.09232,-3.21801 0.991185,-2.005 0.991182,-2.005 1.710446,-1.60004 1.710447,-1.60004 1.663994,-0.92725 c 1.9263989,-1.07347 5.3748112,-2.28522 6.5033067,-2.28522 h 0.7772585 l -0.6254723,1.23547 -0.6254724,1.23546 v 0.66537 c 0,0.36596 0.245282,1.17206 0.5450708,1.79134 l 0.5450707,1.12597 1.2163319,0.58881 1.21633449,0.58882 1.2103655,-0.32372 1.21036811,-0.32373 0.8927624,-0.68094 0.8927597,-0.68094 0.3688026,-0.88266 c 0.2028402,-0.48547 0.3688001,-1.28458 0.3688001,-1.77579 v -0.89312 l -0.4951333,-1.43048 c -1.1875955,-3.43107 -4.04495509,-7.19632 -11.5064402,-15.16248 -2.7124683,-2.89593 -4.9317593,-5.34485 -4.9317593,-5.44203 v -0.17669 l 6.6807291,-0.31713 c 3.6744009,-0.17442 7.0123814,-0.31512 7.4177363,-0.31266 l 0.7370048,0.004 0.5438298,1.25677 c 1.0104358,2.33509 3.34736,9.69678 4.4724874,14.08906 l 1.118301,4.36563 0.03202,2.91041 0.03202,2.91042 -0.608113,1.31962 c -1.0851118,2.35472 -2.4381988,3.32307 -5.5712543,3.98714 l -1.75788626,0.37259 -2.85988644,0.005 -2.8598837,0.005 0.1423352,0.23031 c 0.6665754,1.07854 6.0614901,2.88825 9.2816014,3.11349 l 2.1166666,0.14806 1.9594882,-0.41738 1.9594849,-0.41738 1.659909,-0.77677 1.659911,-0.77676 1.203833,-1.10966 1.203833,-1.10966 0.73302,-1.49264 0.73302,-1.49268 -0.03313,-1.85208 -0.03313,-1.85208 -0.746641,-2.24896 -0.746641,-2.24896 -1.633138,-3.20911 -1.633138,-3.20911 -2.507072,-3.80235 c -1.3788895,-2.09129 -3.2968698,-4.86652 -4.2621783,-6.16719 -2.1186985,-2.85474 -2.3463778,-2.62481 2.2407244,-2.26295 5.8614909,0.4624 10.1326019,1.46299 12.5762269,2.94626 l 0.840626,0.51025 1.331153,4.15752 c 0.732134,2.28663 1.782601,5.6458 2.334374,7.46481 l 1.003221,3.30729 -0.02008,4.63021 -0.02008,4.6302 -0.567706,2.30433 c -0.704183,2.85829 -1.806831,5.3242 -3.328905,7.4446 -1.0463,1.4576 -3.196175,3.74559 -2.688376,2.86109 l 0.20356,-0.35456 -1.028742,0.68078 -1.028745,0.6808 -2.110457,0.56495 -2.110457,0.56495 -3.9687493,7.9e-4 -3.9687498,8e-4 -2.6458332,-0.43577 c -1.4552083,-0.23967 -3.5239694,-0.67461 -4.5972464,-0.96652 l -1.9514131,-0.53076 -1.1460241,-0.67161 -1.1460215,-0.67161 -1.4139915,-1.52728 -1.4139914,-1.52728 -0.56143,-1.35095 -0.5614272,-1.35095 1.1684052,-0.56561 1.1684052,-0.56562 0.5244227,-0.73648 c 0.8338846,-1.17108 1.0658765,-2.02492 1.3619876,-5.01276 l 0.277921,-2.8043 0.4990491,-1.13973 0.4990491,-1.13972 -0.5871818,0.18337 c -5.3544816,1.6722 -10.0900336,5.92653 -11.1567536,10.02302 l -0.410634,1.57695 v 1.63523 1.63524 l 0.677156,2.60865 0.677154,2.60866 0.792607,1.23647 c 1.144841,1.78595 3.092918,3.13683 5.6582916,3.92368 l 1.0583333,0.32461 4.8947914,0.16804 4.8947914,0.16803 -2.05387829,0.32962 c -1.1296332,0.18129 -3.21322681,0.38627 -4.63020811,0.45551 l -2.5763377,0.12612 z m -37.1739568,-0.64382 c -0.291041,-0.0548 -1.471154,-0.33635 -2.622476,-0.62567 l -2.093309,-0.52604 -2.00533,-0.97784 -2.005329,-0.97784 -1.619489,-1.58894 -1.61949,-1.58894 -0.809551,-1.60498 -0.809554,-1.60498 -0.417631,-2.02189 -0.417632,-2.02188 0.0377,-2.19397 0.0377,-2.19396 0.199495,2.42994 0.199494,2.42994 0.644659,1.40813 0.644663,1.40812 0.902467,0.90247 0.90247,0.90247 1.456817,0.67036 1.45682,0.67036 2.762353,0.14536 2.762353,0.14535 1.566042,3.38861 c 1.664975,3.60269 1.659059,3.57875 0.846751,3.42582 z m -4.894791,-9.08711 c -3.057536,-0.48827 -4.682059,-2.02145 -5.54754,-5.2356 l -0.311092,-1.15531 0.0034,-2.28279 0.0034,-2.28279 0.55109,-1.71979 c 0.303098,-0.94589 0.770461,-2.1277 1.038585,-2.62626 l 0.487494,-0.90646 0.314802,1.83251 c 0.843981,4.91295 2.583529,10.50205 4.144459,13.31596 0.761847,1.3734 0.809765,1.29916 -0.684554,1.06053 z m 75.454649,-28.93154 c -0.329094,-1.68862 -0.662199,-3.27612 -0.74023,-3.52779 l -0.141878,-0.45758 0.257281,0.39688 c 0.31001,0.47822 1.445998,5.99024 1.315331,6.38224 -0.05068,0.15205 -0.36141,-1.10514 -0.690504,-2.79375 z m -2.369365,-11.27468 c -0.171392,-0.92162 -0.265472,-1.72182 -0.209068,-1.77822 0.152484,-0.15249 0.734171,2.81345 0.619342,3.15794 -0.05426,0.16277 -0.238879,-0.45811 -0.410274,-1.37972 z m -4.293621,-0.30294 -0.926041,-0.21605 -4.7625,-0.0124 c -2.6193751,-0.007 -5.9233593,0.0687 -7.3421874,0.16792 l -2.5796874,0.18034 -0.00545,-0.23252 c -0.00299,-0.12788 -0.5361146,-0.82783 -1.1847141,-1.55543 l -1.17927171,-1.32292 0.82357115,1.55063 0.82357116,1.55064 -5.9227109,-0.12581 -5.9227108,-0.12581 -2.348913,-0.46773 -2.348912,-0.46773 2.878079,-0.89143 c 1.582944,-0.4903 4.4258917,-1.37009 6.3176624,-1.95511 1.8917708,-0.58501 4.86833311,-1.36728 6.61458303,-1.73836 l 3.17499987,-0.6747 3.8426097,-0.14726 3.842612,-0.14725 1.857989,0.31338 c 1.021895,0.17237 2.125866,0.45557 2.453272,0.62934 l 0.595281,0.31595 1.18021,2.64099 c 1.353865,3.02958 1.353424,3.01941 0.11865,2.73134 z m -76.596871,-0.62525 c -0.145521,-0.0583 -1.793981,-0.28266 -3.663245,-0.49866 l -3.398662,-0.39271 -0.823131,-0.48074 -0.823131,-0.48073 -0.6057,-1.18254 -0.605699,-1.18253 -0.36314,-2.51354 -0.363141,-2.51354 0.163818,-1.32292 0.163818,-1.32292 0.822183,1.19063 0.822184,1.19062 0.135399,2.9233 0.135399,2.92331 0.448785,0.86785 0.448784,0.86785 0.842323,0.34576 0.842323,0.34575 2.778125,0.31619 c 3.480207,0.3961 4.233333,0.54478 4.233333,0.83577 v 0.23151 l -0.463021,-0.0209 c -0.254661,-0.0115 -0.582083,-0.0686 -0.727604,-0.12683 z m 29.70809,-5.77073 c -3.06116,-1.69135 -6.167048,-3.7661 -8.078404,-5.39642 -0.763984,-0.65166 -1.389062,-1.10954 -1.389062,-1.01752 0,0.50269 1.341435,2.88881 2.439985,4.34019 l 1.262639,1.66818 -2.173145,-1.13059 -2.173142,-1.1306 -1.877501,-1.49198 -1.877502,-1.49198 -1.570979,-2.02445 -1.57098,-2.02445 -1.564772,0.1366 -1.564772,0.13659 -1.477936,0.67531 -1.477936,0.6753 -0.894646,0.84557 c -0.492056,0.46506 -1.35526,1.54864 -1.918229,2.40794 -1.199293,1.83058 -1.35695,1.67332 -0.252622,-0.25198 l 0.765998,-1.33545 1.117362,-1.00947 1.117364,-1.00947 1.173573,-0.51913 c 0.645467,-0.28551 1.969727,-0.67763 2.942804,-0.87136 l 1.769229,-0.35225 -3.141043,-0.0249 -3.141043,-0.0249 -2.785015,0.41354 -2.785015,0.41353 -2.143733,0.67489 c -1.179055,0.37118 -2.471155,0.84299 -2.871338,1.04846 l -0.727604,0.37359 v -0.21251 c 0,-0.11688 0.173558,-0.46029 0.385685,-0.76315 l 0.385685,-0.55064 1.36336,-0.5865 c 0.749847,-0.32258 2.153869,-0.76178 3.120043,-0.976 l 1.756685,-0.38949 4.564062,-0.15809 4.564063,-0.15808 v -0.1691 c 0,-0.093 -1.041797,-1.22717 -2.315104,-2.52038 l -2.315104,-2.35129 -1.959899,-1.28276 -1.959898,-1.28277 -1.810152,-0.54981 -1.81015,-0.54982 0.180322,-0.29177 c 1.923526,-3.11233 6.593911,-9.10986 6.875068,-8.82871 0.06143,0.0614 0.346726,1.09575 0.633994,2.2985 l 0.522304,2.1868 1.036105,2.21099 c 1.200873,2.5626 1.408454,2.7578 0.874028,0.82193 l -0.383472,-1.38907 -0.02729,-2.38124 -0.02729,-2.38125 0.458038,-1.3507 c 0.251923,-0.74289 0.806307,-1.89986 1.231966,-2.57105 l 0.773925,-1.22036 2.061824,-1.03639 c 3.996806,-2.00901 9.264969,-3.51929 15.555575,-4.45946 l 3.175,-0.47453 h 7.276042 7.276041 l -1.058333,-0.17748 -1.058334,-0.17749 2.778125,0.12686 c 3.5194955,0.16072 6.7394692,0.6893 9.5609011,1.56949 l 2.2130569,0.6904 2.1810238,1.15009 c 2.5033075,1.32002 4.7070696,2.96197 6.4179341,4.78178 l 1.190625,1.26644 -1.0048928,-0.8478 c -2.2802478,-1.92379 -6.3062588,-3.45131 -10.9354456,-4.14905 l -2.6117443,-0.39366 -1.9843749,0.0105 -1.9843749,0.0105 2.9256327,0.75022 c 5.09745171,1.30713 8.455268,2.9916 10.425665,5.23009 l 1.0399342,1.18143 0.4462065,1.34339 0.4462039,1.3434 -0.1488863,1.96861 -0.1488837,1.9686 -0.694772,1.42006 -0.694772,1.42006 -1.2145512,1.06909 -1.2145486,1.06909 -1.70888012,0.52782 -1.70888017,0.52782 -2.94869381,-10e-4 -2.9486911,-0.001 -2.4420115,-0.39605 -2.4420112,-0.39606 -1.721818,-0.64809 c -2.396906,-0.90219 -3.927737,-1.84521 -6.189213,-3.81266 l -1.947135,-1.69398 0.186711,0.63021 c 1.383962,4.67132 5.537028,9.28351 10.681044,11.86185 l 1.6818185,0.84297 1.9985274,0.51114 1.9985275,0.51113 2.8019453,-0.003 2.80194794,-0.003 2.42120466,-0.49967 2.4212019,-0.49968 1.7173416,-0.81961 1.7173441,-0.81961 1.4614151,-1.57851 1.461418,-1.5785 0.612323,-1.53051 0.612322,-1.5305 -0.0027,-3.83646 -0.0027,-3.83645 -0.454872,-1.0245 c -1.352674,-3.04661 0.622097,0.0324 2.339428,3.64755 1.632775,3.43716 3.184834,7.96133 4.319283,12.59049 1.054496,4.30289 1.872405,8.30811 1.639231,8.02714 -0.101304,-0.12206 -0.575778,-2.00787 -1.054394,-4.19069 -0.478613,-2.18281 -1.278985,-5.3975 -1.778603,-7.14375 l -0.908394,-3.175 -0.956693,-1.98437 -0.956694,-1.98438 -0.205388,0.79375 c -0.112964,0.43657 -0.447847,1.76627 -0.744188,2.9549 -0.296339,1.18862 -0.840537,2.78661 -1.209326,3.55107 l -0.670526,1.38993 0.279519,1.03805 c 0.153734,0.57093 0.866976,2.59466 1.584981,4.49718 0.718006,1.90252 1.275927,3.48416 1.239825,3.51477 -0.0361,0.0306 -2.12367,0.19038 -4.63904,0.35504 -2.51537,0.16466 -8.2303697,0.70835 -12.6999996,1.20819 -10.1475774,1.13477 -14.7242334,1.46689 -20.2147584,1.46689 h -4.316076 z m 22.9439906,-5.44372 c -0.2910416,-0.11762 -1.4816666,-0.47221 -2.6458332,-0.78798 -2.7241284,-0.73891 -5.4587774,-2.03071 -8.0106354,-3.78409 l -2.031693,-1.39597 -4.42118,-4.30706 -4.421179,-4.30705 -1.212376,-0.53629 -1.212374,-0.53629 h -1.950365 -1.950363 l -1.682417,0.42523 c -3.111288,0.78639 -9.189373,3.40013 -10.894972,4.68514 l -0.481303,0.36262 2.59797,2.65577 c 2.672474,2.73193 4.498136,4.223 6.867032,5.60849 l 1.358646,0.79463 1.262909,-0.8979 c 0.6946,-0.49384 1.92868,-1.14804 2.742398,-1.45376 l 1.479487,-0.55587 1.88709,-0.14477 1.88709,-0.14477 1.817077,0.34099 c 0.999392,0.18755 3.960201,1.02564 6.579576,1.86242 4.183131,1.33634 6.041479,1.81066 8.5989575,2.19477 0.3638021,0.0546 1.4948958,0.1075 2.5135415,0.11747 l 1.8520833,0.0181 z M -42.729772,166.93568 c 2.268879,-0.98217 4.60043,-1.75846 10.539124,-3.50897 3.201458,-0.94368 8.142552,-2.49666 10.980208,-3.45107 l 5.159374,-1.73529 -3.307291,0.1363 c -4.47303,0.18436 -9.060788,0.57553 -12.567708,1.07159 l -2.910416,0.41168 -1.972091,0.7855 c -4.285972,1.70715 -7.420617,4.36725 -7.420617,6.29724 0,0.66808 -0.06066,0.66836 1.499417,-0.007 z"
         id="path2263" /><path
         style="fill:#9f1501;stroke-width:0.264583"
         d="m -43.170856,243.69566 c -1.273019,-0.24254 -2.3588,-0.85774 -3.357041,-1.9021 l -0.843502,-0.88247 -0.51557,-1.20874 -0.51557,-1.20873 1.094489,0.54727 1.094486,0.54728 5.688541,-0.0338 5.688542,-0.0338 2.646772,-0.41248 c 1.455727,-0.22686 2.884477,-0.48868 3.175,-0.58182 l 0.528227,-0.16934 -0.926041,0.8328 -0.926042,0.8328 -2.38125,1.15954 -2.38125,1.15954 -2.248958,0.63733 c -2.588511,0.73355 -4.498363,0.96873 -5.820833,0.71677 z"
         id="path2261" /><path
         style="fill:#7e3200;stroke-width:0.264583"
         d="M 0.61768364,247.99886 C 3.9082403,247.54706 11.04814,245.6971 10.729828,245.37879 c -0.06811,-0.0681 -2.0735501,0.0711 -4.456533,0.3094 l -4.3326948,0.43325 -3.4395831,-0.11573 -3.4395832,-0.11574 -1.4930093,-0.57961 -1.4930119,-0.57962 -1.180158,-1.26169 -1.1801607,-1.26168 -0.49263,-1.44189 -0.492631,-1.44189 -0.0092,-2.29306 c -0.01,-2.48557 -0.02069,-2.45115 0.846706,-2.71772 l 0.5913254,-0.18172 0.6512559,1.4726 0.651256,1.47261 1.3698669,1.44843 1.3698669,1.44843 1.1246802,0.65911 1.1246829,0.65911 1.9514131,0.53075 c 1.07327692,0.29192 3.142038,0.72685 4.5972463,0.96652 l 2.6458332,0.43577 3.9687498,-8e-4 3.9687494,-7.9e-4 2.110457,-0.56495 2.110457,-0.56495 0.989198,-0.65462 0.989197,-0.65462 -0.150463,0.3921 c -0.904047,2.35591 -13.9343255,7.17542 -18.84964857,6.97192 l -0.95752968,-0.0396 0.79374996,-0.10899 z M 25.112344,215.5662 c -0.497937,-1.77656 -1.479269,-5.00706 -2.18074,-7.17888 -1.448528,-4.4848 -1.435897,-4.33551 -0.279406,-3.30219 1.133549,1.01283 1.169451,1.12383 2.437075,7.53562 1.273897,6.44352 1.28167,7.43594 0.02307,2.94545 z m -3.587498,-15.68161 c -0.288248,-0.21788 -0.943091,-0.52187 -1.455208,-0.67553 l -0.931122,-0.27939 -1.24269,-2.81382 c -0.683479,-1.5476 -1.197533,-2.85898 -1.142341,-2.91417 0.194514,-0.19452 2.850811,1.40127 3.964924,2.38195 l 1.12789,0.99281 0.160427,1.00066 c 0.08824,0.55036 0.238006,1.38761 0.332828,1.86055 l 0.172399,0.8599 -0.23151,-0.008 c -0.127331,-0.005 -0.467349,-0.18668 -0.755597,-0.40455 z m -83.216534,-2.75094 -3.307292,-0.45069 -0.592574,-0.31721 -0.592574,-0.31722 -0.43395,-0.83917 -0.43395,-0.83916 -0.137535,-2.9017 -0.137535,-2.90169 1.53795,1.51357 1.53795,1.51357 1.742775,1.02554 c 0.958527,0.56405 2.39762,1.22395 3.197985,1.46646 0.800364,0.2425 1.618551,0.491 1.818195,0.55221 l 0.362987,0.11129 -0.16455,0.82275 c -0.0905,0.45251 -0.164549,1.10552 -0.164549,1.45113 v 0.62839 l -0.463021,-0.0337 c -0.254661,-0.0185 -1.951302,-0.23651 -3.770312,-0.48438 z m 3.028111,-3.82293 c -2.019379,-1.36833 -3.837773,-3.07405 -4.661081,-4.37227 l -0.74828,-1.17992 v -1.37082 -1.37083 l 1.256771,-0.53721 c 2.090607,-0.89364 4.816641,-1.62503 7.60677,-2.04089 l 2.645833,-0.39436 3.175,0.0233 3.175,0.0233 -1.83307,0.36402 -1.833071,0.36403 -1.37937,0.67486 -1.379368,0.67487 -1.110745,1.20501 -1.110745,1.20501 -0.627155,1.36989 c -0.344934,0.75344 -0.881025,2.44117 -1.191313,3.75051 -0.310284,1.30934 -0.589515,2.40703 -0.620506,2.43931 -0.03099,0.0323 -0.645093,-0.34024 -1.36467,-0.82782 z m 77.802093,-2.1628 c -0.291042,-0.045 -1.200698,-0.15473 -2.021459,-0.24396 l -1.492292,-0.16222 -0.962575,-2.51483 c -0.529418,-1.38315 -1.264378,-3.41387 -1.633244,-4.5127 l -0.670663,-1.99788 0.694737,-1.4673 c 0.382104,-0.80702 0.934712,-2.43054 1.228016,-3.60783 0.293304,-1.17729 0.621681,-2.49771 0.729726,-2.93427 l 0.196448,-0.79375 0.833189,1.63028 0.833191,1.63029 0.906256,2.99992 c 0.935189,3.0957 2.813878,10.89589 2.813878,11.68303 v 0.44502 l -0.46302,-0.036 c -0.254662,-0.0198 -0.701146,-0.0728 -0.992188,-0.11777 z"
         id="path2259" /><path
         style="fill:#7f0000;stroke-width:0.264583"
         d="m -45.899424,239.46411 c -0.700347,-0.12853 -1.56355,-0.42383 -1.918229,-0.65622 l -0.644869,-0.42254 v -0.64926 -0.64926 l 0.61405,-0.40234 0.61405,-0.40234 1.965637,-0.16415 1.965637,-0.16415 4.894792,0.86058 4.894791,0.86059 2.778125,0.17521 2.778125,0.17521 -0.784183,0.33331 c -0.431299,0.18332 -1.919581,0.50554 -3.307291,0.71605 l -2.523109,0.38275 -5.027083,0.12013 -5.027083,0.12013 z"
         id="path2257" /><path
         style="fill:#542100;stroke-width:0.264583"
         d="m -34.439606,212.32295 v -0.93918 l 0.38522,-0.74493 0.38522,-0.74493 1.003842,-0.4971 1.003843,-0.49709 2.645833,0.0228 2.645833,0.0228 1.5875,0.32327 c 3.09907,0.63109 8.069791,2.46131 8.069791,2.9713 0,0.32561 -0.321352,0.29132 -2.601751,-0.27767 -1.11565,-0.27836 -2.564238,-0.59005 -3.219082,-0.69265 -0.654844,-0.10259 -1.42875,-0.23132 -1.719791,-0.28607 -0.291042,-0.0548 -1.612125,-0.17605 -2.93574,-0.26957 l -2.406573,-0.17003 -1.366221,0.32775 -1.366219,0.32775 -0.882795,1.03135 c -1.086183,1.26895 -1.22891,1.27966 -1.22891,0.0922 z m -20.637499,-0.0152 v -0.68976 l -0.393653,0.15105 c -0.216508,0.0831 -0.990414,0.23023 -1.719791,0.32698 l -1.326139,0.17591 v -0.40228 -0.40227 l 0.682868,-0.17139 c 0.375579,-0.0943 1.170543,-0.49413 1.766591,-0.88858 l 1.083723,-0.71719 2.013246,-0.0916 2.013249,-0.0916 1.102923,0.29698 1.102921,0.29699 0.774102,0.65136 c 0.425757,0.35825 0.836711,0.89079 0.913233,1.18341 l 0.139131,0.53204 -0.195881,0.12106 c -0.107736,0.0666 -0.721635,-0.14166 -1.364223,-0.46276 l -1.168342,-0.58382 h -2.248958 -2.248959 l -0.08372,0.72761 -0.08372,0.7276 h -0.379301 -0.379301 v -0.68977 z m 16.813113,-5.80445 -0.445095,-0.93797 0.237887,-0.71568 0.237884,-0.71567 3.672007,-1.12001 c 6.886789,-2.10057 9.557289,-2.4786 12.557119,-1.77756 l 1.719791,0.4019 2.116667,1.05335 c 1.164167,0.57935 2.414323,1.2835 2.778125,1.56478 l 0.661458,0.51142 -1.969733,-0.51623 c -1.083352,-0.28393 -3.008693,-0.64256 -4.278534,-0.79696 l -2.308807,-0.28072 -1.965854,0.27342 c -2.394524,0.33305 -5.379969,1.257 -9.106884,2.81844 -1.543106,0.64649 -2.953086,1.17545 -3.133291,1.17545 h -0.327644 l -0.445096,-0.93797 z m -13.241238,-0.1311 c -1.018646,-0.41218 -2.593414,-0.95248 -3.499485,-1.20067 l -1.647402,-0.45126 -0.403119,0.33456 -0.403119,0.33456 -0.02088,0.82749 -0.02088,0.8275 -0.637188,-1.32291 -0.637186,-1.32292 -0.0034,-0.8538 -0.0034,-0.85379 0.64793,-0.42454 0.647933,-0.42454 1.534879,0.31624 c 0.844185,0.17393 2.665976,0.71875 4.048424,1.2107 l 2.513542,0.89446 0.330729,0.44894 0.330729,0.44893 v 1.00776 1.00777 l -0.463021,-0.0275 c -0.254661,-0.0151 -1.296458,-0.36476 -2.315104,-0.77694 z"
         id="path2255" /><path
         style="fill:#012229;stroke-width:0.264583"
         d="m -50.698823,213.72515 c -0.05666,-0.1819 -0.1559,-0.50932 -0.220525,-0.7276 -0.06463,-0.21828 -0.01035,-0.60523 0.120637,-0.8599 l 0.238141,-0.46302 0.586002,0.004 c 0.710745,0.005 1.10142,0.25054 1.312947,0.82547 l 0.159178,0.43265 -0.391916,0.55954 -0.39192,0.55954 h -0.654759 -0.654759 l -0.103026,-0.33073 z m 24.241587,-0.091 -0.602038,-0.42169 0.08014,-1.09967 0.08015,-1.09967 1.190625,-0.0689 1.190625,-0.0689 0.374827,0.24408 0.374825,0.2441 v 0.85825 0.85826 l -0.602575,0.48794 c -0.739513,0.59882 -1.30079,0.61664 -2.086581,0.0662 z"
         id="path2253" /></g></g></svg>
