<svg xmlns="http://www.w3.org/2000/svg" width="300mm" height="300mm" viewBox="0 0 300 300"><path d="M539 474c-.018-.017-1.4-.067-3.07-.111a179.61 179.61 0 0 1-3.924-.136 173.77 173.77 0 0 0-2.975-.136 157.818 157.818 0 0 1-2.72-.121c-.349-.023-1.26-.078-2.026-.122-.766-.045-1.506-.103-1.646-.13-.139-.026-.981-.084-1.871-.127-.89-.044-1.745-.099-1.899-.123a27.973 27.973 0 0 0-1.23-.121c-2.536-.209-3.57-.301-4.366-.39l-3.418-.382c-1.6-.178-3.737-.44-4.746-.58-1.01-.14-2.206-.305-2.658-.366-4.805-.649-17.314-3.15-17.591-3.517-.037-.048-.722-.251-1.522-.45-3.972-.99-6.588-1.809-6.782-2.122-.1-.162-.208-.17 8.337.582 7.067.622 14.064 1.208 16.672 1.397 2.287.165 7.21.442 7.867.442.395 0 .738.049.76.108.024.06 2.15.202 4.726.317 2.576.116 5.14.237 5.696.27.557.032 2.351.092 3.987.133 1.636.042 3.146.098 3.355.125.545.072 12.433.236 17.214.237 8.153.002 14.384-.15 23.163-.568 7.356-.35 8.038-.394 8.038-.515 0-.059.253-.107.562-.107.864 0 7.814-.6 11.842-1.021 9.405-.985 18.688-2.393 25.442-3.86 1.148-.249 2.487-.536 2.974-.638 1.63-.342 4.556-1.094 4.62-1.187.035-.05.576-.222 1.203-.381 1.787-.454 5.462-1.558 8.19-2.463 3.348-1.11 9.198-3.454 9.707-3.89.114-.097 1.312-.733 2.663-1.412 1.352-.68 3.194-1.694 4.094-2.253 2.026-1.259 4.666-3.038 4.995-3.368.359-.358 1.433-1.08 1.503-1.01.104.104-.226 1.26-.594 2.084-.378.847-1.4 2.388-1.995 3.007-1.494 1.558-4.192 4.049-5.036 4.65-1.835 1.306-5.579 3.46-7.769 4.47-.591.272-1.106.536-1.142.586-.102.139-2.76 1.312-4.68 2.066-4.16 1.633-11.85 3.827-15.798 4.508-.466.08-.875.19-.91.242-.138.21-8.596 1.694-14.366 2.52-4.3.616-10.536 1.386-13.86 1.71l-2.532.25c-1.01.1-2.319.218-2.91.263a61.26 61.26 0 0 0-1.456.126c-.21.023-.893.079-1.52.123a77.66 77.66 0 0 0-1.645.132c-.279.028-1.048.086-1.709.13-.661.043-1.402.097-1.645.12-.244.022-1.098.079-1.899.126-.8.047-1.683.105-1.962.129-.278.023-1.275.08-2.215.127a95.65 95.65 0 0 0-2.215.13c-.47.04-1.343.08-5.696.257-.905.036-2.329.096-3.164.132-1.52.065-18.385.163-18.447.107zm-24.778-15.33c-3.413-.044-13.786-.29-15.189-.358-.661-.033-2-.09-2.974-.128-6.246-.243-14.218-.75-22.025-1.399a155.305 155.305 0 0 1-2.721-.243c-.244-.029-.842-.086-1.329-.127a22.622 22.622 0 0 1-1.202-.128 22.54 22.54 0 0 0-1.203-.127c-.948-.08-1.39-.13-2.785-.317-.487-.066-1.199-.153-1.582-.195-2.623-.288-10.393-1.543-10.506-1.697-.034-.048-.376-.153-.759-.234-5.29-1.118-7.25-1.658-10.85-2.99-1.64-.607-3.6-1.758-4.636-2.722-.616-.575-1.253-1.898-1.324-2.75-.111-1.346.9-3.477 2.483-5.235 1.836-2.038 6.416-4.546 11.1-6.079.695-.228 1.294-.455 1.328-.504.273-.388 8.738-2.538 13.164-3.344 3.292-.599 8.265-1.263 10.886-1.454 1.709-.124 5.929-.088 6.803.058.546.092.748.31.285.31-.831 0-9.783 1.737-13.152 2.552-2.213.535-5.961 1.71-5.961 1.87 0 .053-.242.167-.538.255-1.017.302-3.777 1.637-4.815 2.33-1.79 1.195-2.997 2.751-3 3.871-.002.775.446 1.466 1.37 2.113 1.862 1.306 3.709 2.028 7.553 2.955 3.522.85 9.639 2.029 10.523 2.029.164 0 .299.049.299.109s.27.142.601.183c.33.04 2.11.273 3.956.517 9.533 1.26 22.193 2.364 32.846 2.863 5.97.28 28.168.034 40.25-.446 8.776-.349 10.62-.426 12.089-.506.592-.032 1.702-.089 2.468-.126 9.738-.478 17.694-1.035 26.264-1.84 1.428-.134 3.322-.31 4.21-.391.887-.082 1.613-.197 1.613-.256s.176-.107.39-.107c.215 0 1.853-.172 3.64-.382 12.052-1.416 22.011-3.345 27.742-5.374.521-.185 1.204-.422 1.517-.528.314-.106.627-.26.697-.34.07-.082.494-.319.943-.528 2.718-1.263 4.682-3.022 4.894-4.384.048-.304.15-.594.226-.645.09-.06.072-.095-.051-.097-.169-.003-.169-.018 0-.127.126-.082.137-.123.032-.124-.09-.001-.159-.16-.159-.36 0-.482-.34-1.599-.712-2.332-.168-.33-.246-.601-.174-.601.504 0 2.911 1.798 2.911 2.174 0 .066.14.304.31.527.927 1.215 1.086 2.546.446 3.736-.897 1.67-3.592 3.955-6.893 5.846-1.471.842-4.846 2.447-6.647 3.16-.591.234-1.11.475-1.15.535-.094.137-4.316 1.59-6.507 2.24-5.327 1.577-11.527 3.036-17.278 4.066-1.288.23-2.37.458-2.405.505-.11.15-7.863 1.283-11.645 1.702l-1.645.185c-.592.067-1.418.155-1.836.196-.417.04-1.272.127-1.898.191-1.15.118-5 .452-6.519.565l-3.354.253c-2.617.199-5.014.349-9.05.567-4.105.223-4.71.253-6.52.323-.974.039-2.141.095-2.594.125-.452.03-2.19.09-3.86.134-1.671.043-3.163.098-3.315.121-.152.024-2.089.078-4.303.121-2.215.044-4.512.106-5.103.139-1.216.067-20.076.146-23.67.1zm24.142-28.467c-.016-.013-1.34-.06-2.941-.106-1.602-.045-3.054-.105-3.228-.133-.173-.028-1.142-.087-2.15-.132-1.01-.045-2.007-.104-2.216-.13-.209-.026-.92-.083-1.582-.126s-1.374-.099-1.582-.125a42.213 42.213 0 0 0-1.456-.127 34.353 34.353 0 0 1-1.456-.13c-.208-.03-1.177-.143-2.151-.252-2.595-.29-5.048-.652-7.341-1.08-2.743-.513-5.92-1.236-6.006-1.366-.039-.06-.241-.147-.45-.195-.209-.049-1.304-.373-2.435-.721-3.053-.94-5.568-1.999-7.28-3.065-.365-.227-.83-.497-1.034-.6-.41-.205-2.352-1.985-2.352-2.154 0-.059-.175-.367-.39-.685-.816-1.209-1.11-2.892-.746-4.262.47-1.77 2.034-3.66 3.858-4.667.278-.153.563-.324.633-.38.283-.225 2.98-1.518 3.923-1.88.923-.356 2.399-.762 3.45-.95.5-.09.55.157.15.743-.539.791-.877 1.59-.955 2.256-.223 1.893 1.704 3.668 4.95 4.56 2.26.621 4.832 1.001 7.784 1.15 3.714.189 4.871.236 7.785.32 4.22.12 15.838.117 18.923-.004 7.67-.303 15.583-.904 20.8-1.58 3.763-.487 8.666-1.362 8.818-1.572.103-.142 2.228-.636 2.734-.636.653 0 1.356.233 1.766.585.192.166.396.3.453.3.057 0 .718.381 1.468.846 2.87 1.78 7.053 3.99 10.034 5.304.453.2.888.425.968.502.08.077.422.24.76.362 1.157.419 1.31.486 1.31.572 0 .336-10.113 3.354-16.581 4.949-1.776.437-3.256.837-3.291.887-.082.119-6.358 1.4-9.24 1.887-2.831.478-6.932 1.034-8.987 1.218-.522.046-1.035.1-1.14.119a35.39 35.39 0 0 1-1.582.123c-.765.05-1.62.107-1.898.13-1.577.123-9.995.328-10.097.245zm-3.383-32.65c-.105-.026-2.27-.11-4.81-.186-14.945-.45-24.643-1.405-34.202-3.364-2.442-.501-5.765-1.452-5.92-1.694-.037-.056-.465-.247-.952-.423-3.718-1.343-5.823-3.039-6.322-5.091-.176-.724-.083-2.186.191-3.004.627-1.871 1.71-3.306 3.98-5.27.825-.716 4.18-2.378 5.98-2.964 1.352-.44 4.445-1.162 4.547-1.06.027.027-.28.417-.683.867-1.51 1.688-1.718 1.955-2.042 2.634-.273.572-.333.878-.334 1.714 0 .919.036 1.075.379 1.601.747 1.148 3.114 2.53 5.456 3.188a38.77 38.77 0 0 0 2.645.605c.835.158 1.547.323 1.582.367.08.1 2.65.456 4.546.629 4.059.37 9.326.566 15.263.566 3.904 0 11.651-.155 12.214-.244.174-.028 1.285-.087 2.469-.133 4.48-.171 12.63-.699 12.72-.823.035-.048.975-.156 2.089-.242 3.177-.243 9.279-.866 13.227-1.35l4.177-.51c.313-.037.883-.119 1.266-.182s1.721-.261 2.974-.44a183.58 183.58 0 0 0 4.494-.709c2.645-.458 3.698-.486 4.419-.119.28.143 1.095.733 1.81 1.311a67.99 67.99 0 0 0 2.062 1.605c.417.304.787.59.822.633.366.466 3.412 2 5.268 2.653.743.261 1.285.515 1.205.565-.678.419-11.176 3.491-11.93 3.491-.12 0-.237.05-.26.109-.072.186-5.23 1.391-9.345 2.183-7.517 1.446-13.554 2.235-21.798 2.847-2.442.182-16.612.38-17.187.24zm73.54-2.436c0-.091 1.818-1.297 1.955-1.297.117 0 2.406-1.442 2.538-1.599.07-.082.469-.364.886-.626.418-.262 1.346-.865 2.062-1.34.716-.476 1.333-.865 1.37-.865.17 0 4.96-3.479 5.302-3.851.336-.366 1.53-1.339 1.643-1.339.049 0 .41-.27.803-.601 2.546-2.141 3.67-3.172 6.045-5.538 3.085-3.072 4.607-4.835 5.956-6.898.25-.383.53-.757.622-.83.273-.22 1.43-2.153 2.148-3.589.8-1.6 1.845-4.67 2.158-6.34.333-1.779.314-4.49-.044-6.202-.857-4.101-2.216-6.643-4.685-8.764a101.93 101.93 0 0 1-1.515-1.32c-.35-.323-2.567-1.432-3.603-1.802-1.981-.709-5.332-1.333-7.543-1.405-2.15-.07-2.696-.066-4.147.027-1.373.088-3.852.387-4.641.56-.56.122-.412-.138.443-.78 1.686-1.269 4.956-2.548 7.626-2.984.557-.091 1.04-.203 1.076-.25.138-.183 2.84-.417 4.873-.421 1.992-.005 4.725.23 4.873.419.035.044.747.244 1.582.443 1.8.43 3.291.935 4.693 1.587 1.396.65 3.902 2.127 5.088 2.998 1.117.82 2.958 2.679 4.114 4.152.433.552.886 1.105 1.005 1.23.379.394 1.346 2.162 1.687 3.082 1.052 2.844 1.358 4.507 1.36 7.405 0 2.345-.166 3.453-.88 5.822-.423 1.406-1.67 4.135-2.118 4.631-.238.265-1.848 2.698-1.848 2.793 0 .123-1.917 2.458-2.852 3.474-1.42 1.544-1.879 2-2.021 2.008-.07.004-.721.582-1.447 1.283-1.245 1.202-4.377 3.676-5.176 4.09-.201.104-.872.523-1.491.932-.62.409-1.554.993-2.076 1.298-.522.305-1.078.678-1.235.829-.372.357-6.719 3.513-8.764 4.357-.87.36-2.55 1.029-3.734 1.488-1.184.459-2.18.873-2.215.92-.086.115-5.618 1.902-7.617 2.46-1.566.437-2.256.545-2.256.353zm-92.527-29.306c-.035-.032-1.601-.097-3.48-.144-1.88-.048-3.731-.11-4.114-.136-.383-.028-1.608-.085-2.722-.127-1.114-.043-2.993-.13-4.177-.196a953.023 953.023 0 0 0-3.829-.203c-.922-.046-1.677-.132-1.677-.19 0-.06-.246-.108-.548-.108-1.954 0-12.808-1.025-18.185-1.717-5.938-.765-9.058-1.369-12.734-2.465-2.964-.884-4.41-1.612-5.164-2.6-.954-1.249-.773-2.055.817-3.628.616-.61 1.175-1.108 1.242-1.108.068 0 .57-.277 1.115-.615.546-.338 1.29-.766 1.656-.951.365-.185.664-.382.664-.438 0-.223 3.574-1.809 7.088-3.145 2.55-.97 7.732-2.667 10.19-3.338.556-.152 1.04-.318 1.075-.368.035-.051.946-.326 2.025-.61 5.702-1.502 12.441-2.741 18.417-3.387 1.998-.216 4.261-.214 4.217.005-.023.11-4.233 1.356-5.8 1.715-.899.207-7.27 2.174-7.34 2.267-.035.046-.52.242-1.076.436-4.911 1.709-9.072 3.646-10.8 5.027-.381.305-.798.616-.926.692-.129.075-.399.366-.601.645-1.054 1.455-1.1 2.234-.184 3.101.691.654 3.012 1.524 5.324 1.995 1.293.263 6.58.956 8.326 1.09.557.043 1.144.099 1.304.123.16.025.844.08 1.519.124.675.044 1.398.101 1.607.128.209.027 1.206.088 2.215.136 1.11.053 1.872.143 1.928.227.061.092.095.075.097-.05.002-.123.037-.14.097-.05.1.15 1.522.236 6.548.397 3.927.125 23.78.126 26.581 0 4.333-.193 5.19-.257 5.283-.396.06-.091.094-.074.097.05.003.127.034.142.097.046.057-.088.796-.179 1.928-.236 1.01-.05 1.92-.108 2.025-.127.105-.019.902-.072 1.772-.119.87-.046 1.782-.107 2.026-.134a53.866 53.866 0 0 1 1.772-.129c.73-.044 1.471-.1 1.645-.124.174-.024.915-.079 1.646-.12a65.464 65.464 0 0 0 1.898-.133c.313-.031.997-.089 1.52-.128.521-.04 1.205-.096 1.518-.125.313-.03.997-.087 1.519-.128 1.122-.089 3.371-.293 4.177-.38.313-.033 1.794-.176 3.29-.316 6.071-.569 11.432-1.175 19.114-2.162 6.49-.833 16.853-2.376 16.96-2.525.036-.048.4-.129.812-.18.411-.05.824-.12.918-.157.114-.043.17.038.17.249 0 .263-.234.46-1.448 1.216-.796.496-1.48.902-1.52.902-.04 0-1.538.901-3.33 2.002-1.793 1.101-3.558 2.164-3.923 2.362-.366.198-.665.407-.665.464 0 .057-.276.244-.614.415-.587.298-2.199.62-4.765.95-.856.11-1.82.25-4.81.7-.21.03-1.291.174-2.405.319-1.114.144-3.05.4-4.304.57-2.172.296-7.126.906-11.771 1.45-7.57.888-19.157 2.01-23.164 2.242-.765.045-1.42.123-1.455.173-.035.051-.747.13-1.582.177-.836.046-1.776.11-2.089.14-.313.03-2.364.143-4.557.25-2.193.107-4.414.222-4.936.255-1.345.086-13.467.222-13.544.153z" style="fill:#0c89c6;stroke-width:.126576" transform="translate(-406.076 -174.033)"/><path d="M533.209 474.159c.091-.037.2-.032.242.01.042.042-.032.072-.166.067-.147-.006-.177-.036-.076-.077zm.506 0c.091-.037.2-.032.243.01.042.042-.033.072-.167.067-.147-.006-.177-.036-.076-.077zm.506 0c.092-.037.2-.032.243.01.042.042-.033.072-.166.067-.148-.006-.178-.036-.077-.077zm.507 0c.09-.037.2-.032.242.01.042.042-.033.072-.166.067-.147-.006-.177-.036-.077-.077zm.506 0c.091-.037.2-.032.242.01.042.042-.032.072-.166.067-.147-.006-.177-.036-.076-.077zm.506 0c.091-.037.2-.032.243.01.042.042-.033.072-.166.067-.148-.006-.178-.036-.077-.077zm.506 0c.092-.037.201-.032.243.01.042.042-.033.072-.166.067-.148-.006-.178-.036-.077-.077zm.507 0c.091-.037.2-.032.242.01.042.042-.032.072-.166.067-.147-.006-.177-.036-.076-.077zm.506 0c.091-.037.2-.032.243.01.042.042-.033.072-.166.067-.148-.006-.178-.036-.077-.077zm.506 0c.092-.037.2-.032.243.01.042.042-.033.072-.166.067-.148-.006-.178-.036-.077-.077zm.507 0c.091-.037.2-.032.242.01.042.042-.032.072-.166.067-.147-.006-.177-.036-.076-.077zm.506 0c.091-.037.2-.032.243.01.042.042-.033.072-.167.067-.147-.006-.177-.036-.076-.077zm.498.003a.489.489 0 0 1 .317 0c.087.035.016.064-.158.064s-.246-.029-.159-.064zm-10.632-.127a.489.489 0 0 1 .316 0c.088.036.016.064-.158.064s-.245-.029-.158-.064zm.824-.007a2.25 2.25 0 0 1 .633.002c.156.03-.002.054-.35.053-.348 0-.475-.025-.283-.054zm12.91.003c.121-.031.32-.031.442 0 .122.032.023.058-.221.058s-.343-.026-.222-.058zm-17.784-.123a.489.489 0 0 1 .316 0c.087.035.016.064-.158.064s-.245-.029-.158-.064zm22.791-.003c.091-.036.2-.032.243.01.042.043-.033.073-.166.067-.148-.006-.178-.036-.077-.076zm.506 0c.092-.036.2-.032.243.01.042.043-.033.073-.166.067-.148-.006-.178-.036-.077-.076zm.507 0c.091-.036.2-.032.242.01.042.043-.032.073-.166.067-.147-.006-.177-.036-.076-.076zm-27.284-.13a2.25 2.25 0 0 1 .633.001c.156.03-.002.054-.35.053-.348 0-.475-.025-.283-.054zm30.377.002a1.04 1.04 0 0 1 .443 0c.122.032.022.058-.222.058-.243 0-.343-.026-.221-.058zm-33.471-.125c.09-.037.2-.032.242.01.042.042-.033.072-.166.067-.147-.006-.177-.036-.076-.077zm36.005-.001a.72.72 0 0 1 .38.005c.085.034-.016.06-.224.058-.21-.002-.28-.03-.156-.063zm-37.778-.126c.092-.036.201-.032.243.01.042.043-.033.073-.166.067-.147-.006-.177-.036-.077-.076zm40.497.003a.489.489 0 0 1 .316 0c.087.035.016.064-.158.064s-.245-.029-.158-.064zm1.9-.132c.157-.03.385-.03.506.002s-.008.057-.286.055c-.279 0-.378-.027-.22-.057zm-46.58-.126c.158-.03.385-.03.506.002.121.031-.008.056-.286.055-.278-.001-.377-.028-.22-.058zm49.118.003c.091-.037.2-.033.242.01.042.042-.032.072-.166.067-.147-.006-.177-.037-.076-.077zm-51.01-.127c.091-.037.2-.032.242.01.042.042-.032.072-.166.067-.147-.006-.177-.036-.076-.077zm52.402 0c.092-.037.2-.032.243.01.042.042-.033.072-.166.067-.148-.006-.178-.036-.077-.077zm3.726-.254a1.04 1.04 0 0 1 .443 0c.122.032.022.058-.221.058-.244 0-.344-.026-.222-.058zm1.97-.126c.091-.036.2-.032.243.01.042.043-.033.073-.166.067-.148-.006-.178-.036-.077-.076zm1.519-.126c.091-.037.2-.032.243.01.042.042-.033.072-.167.067-.147-.006-.177-.036-.076-.077zm2.911-.253c.092-.037.2-.033.243.01.042.042-.033.072-.166.067-.148-.006-.178-.037-.077-.077zm-71.895-.127c.092-.037.2-.032.243.01.042.042-.033.072-.166.067-.148-.006-.178-.036-.077-.077zm74.68-.127c.091-.036.2-.032.242.01.042.043-.032.073-.166.067-.147-.006-.177-.036-.076-.076zm9.24-1.012c.091-.037.2-.032.242.01.042.042-.032.072-.166.067-.147-.006-.177-.036-.076-.077zm-61.39-2.532c.092-.036.201-.032.243.01.042.043-.032.073-.166.067-.147-.006-.177-.036-.076-.076zm22.405 0c.091-.036.2-.032.242.01.042.043-.033.073-.166.067-.147-.006-.177-.036-.076-.076zm-27.475-.124a.489.489 0 0 1 .316 0c.087.035.016.064-.158.064s-.245-.029-.158-.064zm31.77 0a.489.489 0 0 1 .317 0c.087.035.015.064-.159.064s-.245-.029-.158-.064zm-35.686-.129c.091-.036.2-.032.242.01.042.043-.032.073-.166.067-.147-.006-.177-.036-.076-.076zm42.53-.126c.09-.037.2-.033.242.01.042.042-.033.072-.166.067-.148-.006-.178-.037-.077-.077zm-49.12-.124a.489.489 0 0 1 .316 0c.088.035.016.064-.158.064s-.245-.03-.158-.064zm51.777-.003c.092-.037.2-.032.243.01.042.042-.033.072-.166.067-.148-.006-.178-.036-.077-.077zm-54.427-.127c.091-.037.2-.032.242.01.042.042-.032.072-.166.067-.147-.006-.177-.036-.076-.077zm-2.532-.127c.092-.036.2-.032.243.01.042.043-.033.073-.166.067-.148-.006-.178-.036-.077-.076zm-2.38-.166a.127.127 0 0 1 .252 0 .127.127 0 0 1-.253 0zm65.945 0a.127.127 0 0 1 .253 0 .127.127 0 0 1-.253 0zm-68.248-.213c.091-.037.2-.032.243.01.042.042-.033.072-.166.067-.148-.006-.178-.036-.077-.077zm-4.304-.253c.092-.037.201-.032.243.01.042.042-.033.072-.166.067-.148-.006-.178-.037-.077-.077zm115.564-5.696c.091-.037.2-.032.243.01.042.042-.033.072-.167.067-.147-.006-.177-.036-.076-.077zm2.429-.673c0-.07.057-.127.126-.127a.127.127 0 1 1-.127.127zm16.075 0a.127.127 0 0 1 .253 0 .127.127 0 0 1-.253 0zm-13.568-.72c.092-.036.2-.032.243.01.042.043-.033.073-.166.067-.148-.006-.178-.036-.077-.076zm-108.986-1.398a6.318 6.318 0 0 1 1.013 0c.26.028.015.05-.541.05-.557 0-.77-.023-.472-.05zm15.506 0a8.161 8.161 0 0 1 1.14 0c.293.027.02.049-.606.048-.626 0-.867-.022-.534-.048zm-22.976-.123c.158-.03.386-.03.507.002.12.031-.008.056-.287.055-.278-.001-.377-.027-.22-.058zm30.57.002a.72.72 0 0 1 .38.005c.085.034-.016.06-.225.058-.209-.002-.279-.03-.156-.063zm-35.38-.123a.489.489 0 0 1 .316 0c.087.035.015.064-.159.064s-.245-.029-.158-.064zm40.949-.003a.72.72 0 0 1 .38.005c.085.035-.016.061-.225.058-.208-.002-.278-.03-.155-.063zm-44.992-.125c.09-.037.2-.032.242.01.042.042-.033.072-.166.067-.147-.006-.177-.036-.076-.077zm48.731 0c.092-.037.2-.032.243.01.042.042-.033.072-.166.067-.148-.006-.178-.036-.077-.077zm1.14 0c.09-.037.2-.032.242.01.042.042-.033.072-.166.067-.148-.006-.178-.036-.077-.077zm-53.036-.127c.092-.036.2-.032.243.01.042.043-.033.073-.166.067-.148-.006-.178-.036-.077-.076zm-6.202-.253c.091-.036.2-.032.243.01.042.042-.033.072-.167.067-.147-.006-.177-.036-.076-.077zm.633 0c.091-.036.2-.032.242.01.042.042-.032.072-.166.067-.147-.006-.177-.036-.076-.077zm67.338 0c.091-.036.2-.032.243.01.042.042-.033.072-.166.067-.148-.006-.178-.036-.077-.077zm-69.363-.126c.091-.037.2-.032.242.01.042.042-.032.072-.166.067-.147-.006-.177-.036-.076-.077zm72.14.003a.489.489 0 0 1 .316 0c.087.035.016.064-.158.064s-.245-.03-.158-.064zm-74.806-.127a.489.489 0 0 1 .316 0c.087.035.016.064-.158.064s-.245-.029-.158-.064zm77.219-.003c.091-.036.2-.032.242.01.042.043-.032.073-.166.067-.147-.006-.177-.036-.076-.076zm-78.738-.124a.489.489 0 0 1 .316 0c.087.035.016.064-.158.064s-.245-.029-.158-.064zm81.514 0a.489.489 0 0 1 .317 0c.087.035.016.064-.158.064s-.246-.029-.159-.064zm-83.73-.13c.123-.033.322-.033.444 0 .122.031.022.057-.222.057-.243 0-.343-.026-.221-.058zm85.25.002a.489.489 0 0 1 .316 0c.087.035.016.064-.158.064-.175 0-.246-.029-.159-.064zm.64-.003c.091-.036.2-.032.243.01.042.043-.033.073-.166.067-.148-.006-.178-.036-.077-.076zm-87.535-.127c.122-.032.321-.032.443 0s.022.058-.221.058c-.244 0-.344-.026-.222-.058zm89.364-.003a2.25 2.25 0 0 1 .633.002c.156.03-.002.054-.35.053-.348-.001-.475-.026-.283-.055zm-91.01-.123c.123-.032.322-.032.444 0s.022.058-.222.058c-.243 0-.343-.026-.221-.058zm92.78 0c.122-.032.322-.032.444 0 .121.032.022.058-.222.058s-.343-.026-.221-.058zm-94.296-.127a.72.72 0 0 1 .38.005c.086.035-.015.06-.224.058-.209-.002-.279-.03-.156-.063zm96.071 0a.72.72 0 0 1 .38.005c.085.035-.015.06-.224.058-.209-.002-.28-.03-.156-.063zm-97.845-.126c.122-.032.32-.032.443 0 .122.032.022.058-.222.058-.243 0-.343-.026-.221-.058zm99.362 0c.121-.032.32-.032.443 0 .121.032.022.058-.222.058s-.343-.026-.221-.058zm-100.881-.127a1.04 1.04 0 0 1 .443 0c.122.032.022.058-.222.058-.243 0-.343-.026-.221-.058zm102.59.003a.489.489 0 0 1 .316 0c.087.035.016.064-.158.064s-.246-.029-.159-.064zm-103.92-.126a.489.489 0 0 1 .317 0c.087.035.016.063-.158.063s-.245-.028-.158-.063zm105.628-.003c.122-.032.321-.032.443 0s.022.058-.221.058c-.244 0-.344-.026-.222-.058zm-106.885-.126c.091-.037.2-.032.243.01.042.042-.033.072-.167.067-.147-.006-.177-.036-.076-.077zm108.406-.001a.72.72 0 0 1 .38.005c.086.034-.015.06-.224.058-.209-.002-.279-.03-.156-.063zm-109.798-.126c.091-.036.2-.032.242.01.042.043-.032.073-.166.067-.147-.006-.177-.036-.076-.076zm111.064 0a.72.72 0 0 1 .38.004c.086.035-.015.061-.224.059-.209-.002-.279-.031-.156-.063zm-112.211-.123a.489.489 0 0 1 .316 0c.087.035.016.064-.158.064s-.245-.029-.158-.064zm113.664 0a.489.489 0 0 1 .317 0c.087.035.016.064-.158.064s-.246-.029-.159-.064zm-114.922-.13c.091-.036.2-.031.242.011.042.042-.032.072-.166.067-.147-.006-.177-.036-.076-.077zm116.127 0a.72.72 0 0 1 .38.005c.086.034-.015.06-.224.058-.209-.002-.279-.03-.156-.063zm1.461-.126c.092-.036.2-.032.243.01.042.043-.033.073-.166.067-.148-.006-.178-.036-.077-.076zm-119.74-.126c.091-.036.2-.032.243.01.042.042-.033.072-.167.067-.147-.006-.177-.036-.076-.077zm120.745.003a.489.489 0 0 1 .317 0c.087.035.015.064-.159.064s-.245-.029-.158-.064zm-121.766-.127a.489.489 0 0 1 .317 0c.087.036.016.064-.158.064s-.246-.028-.159-.064zm122.971-.003a.72.72 0 0 1 .38.005c.085.035-.015.061-.224.059-.21-.002-.28-.031-.156-.063zm-124.988-.253c.092-.037.2-.032.243.01.042.042-.033.072-.166.067-.148-.006-.178-.036-.077-.077zm-1.012-.127c.09-.036.2-.032.242.01.042.043-.033.073-.166.067-.147-.006-.177-.036-.077-.076zm129.099.003a.489.489 0 0 1 .316 0c.087.035.016.064-.158.064s-.245-.029-.158-.064zm-129.859-.129c.091-.036.2-.032.243.01.042.043-.033.073-.166.067-.148-.006-.178-.036-.077-.076zm131.892-.126c.091-.037.2-.033.242.01.042.042-.032.072-.166.066-.147-.006-.177-.036-.076-.076zm56.489-1.016c.092-.154.195-.252.228-.219.033.034-.042.16-.168.28-.218.208-.22.205-.06-.061zm-135.987-3.412a.489.489 0 0 1 .317 0c.087.035.016.063-.158.063s-.246-.028-.159-.063zm-3.03-.13c.092-.036.201-.032.243.01.042.043-.033.073-.166.067-.147-.006-.177-.036-.077-.076zm27.776 0c.122-.033.321-.033.443 0 .122.031.022.057-.222.057-.243 0-.343-.026-.221-.058zm5.128-.13c.157-.03.385-.029.506.003.121.031-.008.056-.286.055-.279-.001-.378-.028-.22-.058zm4.24-.124a.72.72 0 0 1 .38.005c.086.034-.014.06-.223.058-.21-.002-.28-.03-.156-.063zm-43.346-.126c.092-.036.2-.032.243.01.042.043-.033.073-.166.067-.148-.006-.178-.036-.077-.076zm47.205.003a.489.489 0 0 1 .317 0c.087.036.015.064-.159.064s-.245-.029-.158-.064zm3.418-.126a.489.489 0 0 1 .316 0c.087.035.016.064-.158.064s-.245-.029-.158-.064zm3.172-.13c.091-.036.2-.031.243.01.042.043-.033.073-.167.067-.147-.006-.177-.036-.076-.076zm5.688-.25a.489.489 0 0 1 .316 0c.087.035.016.064-.158.064s-.245-.029-.158-.064zm5.197-.256c.092-.036.201-.032.243.01.042.043-.033.073-.166.067-.148-.006-.178-.036-.077-.076zm2.659-.126c.09-.037.2-.032.242.01.042.042-.033.072-.166.067-.147-.006-.177-.036-.077-.077zm3.923-.253c.092-.037.2-.033.243.01.042.042-.033.072-.166.067-.148-.006-.178-.037-.077-.077zm2.026-.127c.09-.037.2-.032.242.01.042.042-.033.072-.166.067-.147-.006-.177-.036-.076-.077zm-139.48-.261c-.16-.205-.154-.208.08-.036l.306.222c.03.02-.007.035-.08.035-.072 0-.21-.1-.305-.221zm148.087-.371c.091-.037.2-.033.242.01.042.042-.032.072-.166.066-.147-.006-.177-.036-.076-.076zm25.315-2.912c.091-.036.2-.032.242.01.042.043-.032.073-.166.067-.147-.006-.177-.036-.076-.076zm3.164-.506c.092-.036.2-.032.243.01.042.042-.033.072-.166.067-.148-.006-.178-.036-.077-.076zm2.785-.506c.091-.037.2-.032.242.01.042.042-.032.072-.166.067-.147-.006-.177-.036-.076-.077zm.76-.127c.09-.036.2-.032.242.01.042.043-.033.073-.166.067-.148-.006-.178-.036-.077-.076zm5.948-1.266c.092-.036.2-.032.243.01.042.043-.033.073-.166.067-.148-.006-.178-.036-.077-.076zm1.013-.253c.091-.036.2-.032.243.01.042.043-.033.073-.167.067-.147-.006-.177-.036-.076-.076zm-169.65-1.127-.38-.326.41.272c.227.15.412.297.412.327 0 .095-.053.062-.443-.273zm-.814-1.392c.006-.147.037-.177.077-.076.037.091.032.2-.01.242-.042.042-.072-.032-.067-.166zm184.411.11c0-.072.1-.21.222-.305.204-.16.207-.155.035.08-.102.139-.202.276-.221.305-.02.03-.036-.006-.036-.08zm-184.41-.742c.005-.148.036-.178.076-.077.037.091.032.2-.01.243-.042.042-.072-.033-.067-.167zm185.55-.496c.235-.244.457-.443.492-.443.035 0-.13.2-.366.443s-.458.443-.493.443c-.035 0 .13-.2.366-.443zm-183.978-1.962c.272-.279.523-.506.557-.506.035 0-.159.227-.43.506-.273.278-.524.506-.558.506-.035 0 .159-.228.43-.506zm184.415-3.553c-.046-.074-.056-.162-.023-.195s.094.028.135.135c.086.223.013.262-.112.06zm-101.595-3.369c.091-.036.2-.032.242.01.042.043-.033.073-.166.067-.147-.006-.177-.036-.076-.076zm4.042.003a.489.489 0 0 1 .317 0c.087.036.015.064-.159.064s-.245-.028-.158-.064zm.64-.003c.092-.036.201-.032.243.01.042.043-.032.073-.166.067-.147-.006-.177-.036-.076-.076zm-67.844-.126c.092-.037.2-.032.243.01.042.042-.033.072-.166.067-.148-.006-.178-.036-.077-.077zm58.985 0c.091-.037.2-.032.242.01.042.042-.032.072-.166.067-.147-.006-.177-.036-.076-.077zm12.016.003a.489.489 0 0 1 .317 0c.087.035.016.064-.158.064s-.246-.029-.159-.064zm.641-.003c.092-.037.2-.032.243.01.042.042-.033.072-.166.067-.148-.006-.178-.036-.077-.077zm-70.882-.127c.091-.036.2-.032.242.01.042.043-.032.073-.166.067-.147-.006-.177-.036-.076-.076zm55.877 0a.72.72 0 0 1 .38.004c.086.035-.015.061-.224.059-.209-.002-.279-.031-.156-.063zm-2.344-.123a.489.489 0 0 1 .317 0c.087.035.016.063-.158.063s-.246-.028-.159-.063zm21.265 0a.489.489 0 0 1 .317 0c.087.035.015.063-.159.063s-.245-.028-.158-.063zm-23.163-.127a.489.489 0 0 1 .316 0c.087.035.016.064-.158.064s-.245-.029-.158-.064zm25.821-.127a.489.489 0 0 1 .317 0c.087.036.015.064-.159.064s-.245-.028-.158-.064zm-28.851-.129c.091-.036.2-.032.242.01.042.043-.032.073-.166.067-.147-.006-.177-.036-.076-.076zm31.13-.124a.489.489 0 0 1 .316 0c.087.035.016.064-.158.064s-.245-.029-.158-.064zm-74.799-.255c.092-.037.2-.032.243.01.042.042-.033.072-.166.067-.148-.006-.178-.036-.077-.077zm76.832 0c.091-.037.2-.032.242.01.042.042-.032.072-.166.067-.147-.006-.177-.036-.076-.077zm-38.1-.127c.092-.036.201-.032.243.01.042.043-.033.073-.166.067-.148-.006-.178-.036-.077-.076zm-44.37-.38a.72.72 0 0 1 .38.004c.086.035-.015.061-.224.059-.209-.002-.279-.031-.156-.064zm40.447-.126c.091-.037.2-.032.242.01.042.042-.033.072-.166.067-.147-.006-.177-.036-.076-.077zm-19.658-5.988c-.045-.072.006-.093.119-.05.22.085.26.175.077.175-.065 0-.154-.056-.196-.125zm94.337-1.354c.092-.036.2-.032.243.01.042.043-.033.073-.166.067-.148-.006-.178-.036-.077-.076zm-96.816-.514-.307-.348.348.306c.192.17.348.326.348.348 0 .1-.102.019-.389-.306zm-.805-1.008c-.069-.18-.054-.194.07-.07.087.085.126.188.087.227-.039.039-.11-.032-.157-.156zm28.764-3.667c.091-.037.2-.032.243.01.042.042-.033.072-.166.067-.148-.006-.178-.036-.077-.077zm24.43-.127c.09-.036.2-.032.242.01.042.043-.033.073-.166.067-.148-.006-.178-.036-.077-.076zm-30.26-.124a.489.489 0 0 1 .316 0c.087.035.016.064-.158.064s-.245-.029-.158-.064zm32.537-.003c.092-.036.201-.032.243.01.042.043-.033.073-.166.067-.147-.006-.177-.036-.077-.076zm-13.298-18.098a.489.489 0 0 1 .317 0c.087.035.015.064-.159.064s-.245-.029-.158-.064zm12.666-.003c.091-.036.2-.032.242.01.042.043-.032.073-.166.067-.147-.006-.177-.036-.076-.076zm-15.822-.126c.091-.037.2-.032.242.01.042.042-.032.072-.166.067-.147-.006-.177-.036-.076-.077zm-3.993-.128a.72.72 0 0 1 .38.005c.085.035-.015.06-.224.058-.209-.002-.28-.03-.156-.063zm-3.61-.123a.489.489 0 0 1 .317 0c.087.035.015.064-.159.064s-.245-.029-.158-.064zm-4.802-.256c.092-.036.2-.032.243.01.042.043-.033.073-.166.067-.148-.006-.178-.036-.077-.076zm39.365-.126c.092-.037.2-.032.243.01.042.042-.033.072-.166.067-.148-.006-.178-.036-.077-.077zm-43.289-.127c.092-.036.201-.032.243.01.042.043-.033.073-.166.067-.148-.006-.178-.036-.077-.076zm44.42.003a.489.489 0 0 1 .317 0c.087.035.016.064-.158.064s-.245-.029-.158-.064zm-45.812-.129c.091-.036.2-.032.243.01.042.043-.033.073-.166.067-.148-.006-.178-.036-.077-.076zm-1.461-.128a.72.72 0 0 1 .38.005c.085.035-.015.061-.224.059-.21-.002-.28-.031-.156-.063zm49.433.001c.092-.036.2-.032.243.01.042.043-.033.073-.166.067-.148-.006-.178-.036-.077-.076zm-50.764-.124a.489.489 0 0 1 .316 0c.087.035.016.064-.158.064s-.246-.029-.158-.064zm51.769 0a.489.489 0 0 1 .316 0c.087.035.016.064-.158.064s-.245-.029-.158-.064zm-52.774-.129c.091-.036.2-.032.242.01.042.042-.032.072-.166.067-.147-.006-.177-.036-.076-.077zm53.794 0c.092-.036.201-.032.243.01.042.042-.033.072-.166.067-.148-.006-.178-.036-.077-.077zm-55.255-.128a.72.72 0 0 1 .38.005c.085.035-.016.061-.224.059-.21-.002-.28-.031-.156-.063zm57.027-.125c.092-.037.201-.032.243.01.042.042-.033.072-.166.067-.148-.006-.177-.036-.077-.077zm-59.11-.127c.091-.036.2-.032.242.01.042.043-.032.073-.166.067-.147-.006-.177-.036-.076-.076zm59.997 0c.09-.036.2-.032.242.01.042.043-.033.073-.166.067-.147-.006-.177-.036-.077-.076zm-61.018-.124a.489.489 0 0 1 .317 0c.087.036.015.064-.159.064s-.245-.028-.158-.064zm61.904-.003c.09-.036.2-.032.242.01.042.043-.033.073-.166.067-.147-.006-.177-.036-.076-.076zm-62.782-.126c.091-.037.2-.032.243.01.042.042-.033.072-.166.067-.148-.006-.178-.036-.077-.077zm-.886-.127c.091-.036.2-.032.243.01.042.043-.033.073-.166.067-.148-.006-.178-.036-.077-.076zm65.06 0c.091-.036.2-.032.242.01.042.043-.032.073-.166.067-.147-.006-.177-.036-.076-.076zm-66.08-.124a.489.489 0 0 1 .316 0c.087.035.016.064-.158.064s-.245-.029-.158-.064zm66.84-.003c.09-.036.2-.032.242.01.042.043-.033.073-.166.067-.148-.006-.178-.036-.077-.076zm38.882-.047c0-.074.057-.099.126-.056.07.043.127.103.127.134 0 .03-.057.056-.127.056s-.126-.06-.126-.134zm-106.474-.08c.091-.036.2-.031.243.011.042.042-.033.072-.167.067-.147-.006-.177-.036-.076-.077zm-1.519-.252c.091-.037.2-.032.243.01.042.042-.033.072-.166.067-.148-.006-.178-.036-.077-.077zm71.389 0c.091-.037.2-.032.242.01.042.042-.032.072-.166.067-.147-.006-.177-.036-.076-.077zm.633-.127c.091-.036.2-.032.242.01.042.043-.033.073-.166.067-.147-.006-.177-.036-.076-.076zm-73.414-.126c.091-.037.2-.032.242.01.042.042-.032.072-.166.067-.147-.006-.177-.036-.076-.076zm-3.798-.76c.092-.036.201-.032.243.01.042.043-.033.073-.166.067-.148-.006-.177-.036-.077-.076zm88.12-1.558a.127.127 0 0 1 .254 0 .127.127 0 0 1-.253 0zM512 386.695c.122-.032.321-.032.443 0s.023.058-.221.058-.344-.026-.222-.058zm.889 0a.72.72 0 0 1 .38.005c.085.035-.016.061-.224.058-.21-.002-.28-.03-.156-.063zm.76 0a.72.72 0 0 1 .379.005c.086.035-.015.061-.224.058-.209-.002-.279-.03-.156-.063zm.759 0a.72.72 0 0 1 .38.005c.085.035-.016.061-.225.058-.208-.002-.279-.03-.155-.063zm.76 0a.72.72 0 0 1 .379.005c.086.035-.015.061-.224.058-.209-.002-.28-.03-.156-.063zm.759 0a.72.72 0 0 1 .38.005c.085.035-.016.061-.225.058-.208-.002-.279-.03-.155-.063zm.693.003a.489.489 0 0 1 .317 0c.087.035.016.064-.158.064-.175 0-.246-.029-.159-.064zm-10.126-.127a.489.489 0 0 1 .317 0c.087.035.016.064-.159.064-.174 0-.245-.028-.158-.064zm16.336-.003c.092-.036.201-.032.243.01.042.043-.033.073-.166.067-.148-.006-.178-.036-.077-.076zm-19.24-.126c.092-.037.201-.032.244.01.042.042-.033.072-.167.067-.147-.006-.177-.036-.076-.077zm22.397.003a.489.489 0 0 1 .316 0c.087.035.016.064-.158.064s-.245-.03-.158-.064zm-24.682-.127a.489.489 0 0 1 .316 0c.087.035.016.064-.158.064s-.245-.029-.158-.064zm30.386-.129c.091-.037.2-.032.242.01.042.042-.032.072-.166.067-.147-.006-.177-.036-.076-.076zm4.295-.25a.489.489 0 0 1 .317 0c.087.035.016.063-.158.063s-.246-.028-.159-.063zm1.907-.13c.091-.036.2-.032.243.01.042.043-.033.073-.167.067-.147-.006-.177-.036-.076-.076zm-65.27-.293c0-.174.03-.246.064-.159a.489.489 0 0 1 0 .317c-.035.087-.063.016-.063-.158zm67.169.166c.09-.036.2-.032.242.01.042.043-.033.073-.166.067-.147-.006-.177-.036-.076-.076zm1.669-.166c0-.07.057-.127.126-.127a.127.127 0 0 1 0 .253.127.127 0 0 1-.126-.126zm81.768.007c0-.066.056-.154.125-.197.071-.044.093.006.05.12-.085.219-.176.259-.176.077zm-78.754-.347c.091-.037.2-.033.242.01.042.042-.032.072-.166.067-.147-.006-.177-.037-.076-.077zm1.519-.127c.091-.037.2-.032.242.01.042.042-.032.072-.166.067-.147-.006-.177-.036-.076-.077zm3.924-.38c.091-.036.2-.032.242.01.042.043-.033.073-.166.067-.147-.006-.177-.036-.076-.076zm3.67-.38c.092-.036.2-.032.243.011.042.042-.033.072-.166.066-.148-.006-.178-.036-.077-.076zm2.152-.253c.091-.036.2-.032.243.01.042.043-.033.073-.166.067-.148-.006-.178-.036-.077-.076zm4.05-.506c.092-.036.201-.032.243.01.042.043-.033.073-.166.067-.148-.006-.177-.036-.077-.076zm1.891-.25a.489.489 0 0 1 .317 0c.087.035.015.063-.159.063s-.245-.028-.158-.063zm.894-.13c.092-.036.2-.032.243.01.042.043-.033.073-.166.067-.148-.006-.178-.036-.077-.076zm.886-.126c.092-.037.2-.032.243.01.042.042-.033.072-.166.067-.148-.006-.178-.036-.077-.077zm52.3.038c0-.026.1-.126.221-.221.2-.158.205-.153.048.048-.166.21-.27.277-.27.173zm-50.662-.289a.489.489 0 0 1 .316 0c.087.035.016.064-.158.064s-.245-.029-.158-.064zm.894-.129c.091-.036.2-.032.242.01.042.042-.032.072-.166.067-.147-.006-.177-.036-.076-.077zm1.012-.127c.092-.036.2-.032.243.01.042.043-.033.073-.166.067-.148-.006-.178-.036-.077-.076zm.76-.126c.091-.037.2-.032.242.01.042.042-.032.072-.166.067-.147-.006-.177-.036-.076-.077zm-82.377-.305c-.273-.223-.278-.24-.039-.123.153.075.313.193.356.262.114.185.037.151-.317-.139zm83.136.178c.091-.036.2-.032.243.01.042.043-.033.073-.166.067-.148-.006-.178-.036-.077-.076zm1.52-.253c.09-.036.2-.032.242.01.042.043-.033.073-.166.067-.148-.006-.178-.036-.077-.076zm2.396-.377a.489.489 0 0 1 .317 0c.087.035.015.064-.159.064s-.245-.029-.158-.064zm.64-.003c.092-.036.201-.032.244.01.042.042-.033.072-.167.067-.147-.006-.177-.036-.076-.077zm44.643-.293c.126-.14.257-.253.292-.253.035 0-.04.114-.166.253-.126.14-.257.253-.292.253-.035 0 .04-.114.166-.253zm-142.841-.926c0-.022.185-.207.411-.411l.412-.372-.372.411c-.347.384-.451.47-.451.372zm144.423-.53c.163-.174.325-.316.36-.316.035 0-.07.142-.234.316-.163.174-.325.317-.36.317-.035 0 .07-.143.234-.317zm13.54-1.195c.072-.136.194-.285.27-.332.077-.048.041.063-.078.246-.254.387-.385.445-.192.086zm1.36-1.28c.155-.162.306-.27.336-.24.03.032-.097.165-.281.297l-.336.24zm-11.356-1.069c.236-.244.458-.443.492-.443.035 0-.13.2-.366.443-.236.244-.457.443-.492.443-.035 0 .13-.2.366-.443zm-136.702-.237c0-.026.1-.126.222-.221.2-.158.205-.153.047.047-.165.211-.269.278-.269.174zm149.992-.522c.236-.243.458-.443.493-.443.035 0-.13.2-.366.443-.236.244-.458.443-.493.443-.035 0 .13-.199.366-.443zm-11.961-.696c.126-.139.257-.253.292-.253.035 0-.04.114-.166.253-.126.14-.257.253-.292.253-.035 0 .04-.113.166-.253zm-118.76-9.074c.122-.032.322-.032.443 0 .122.032.023.058-.221.058s-.343-.026-.222-.058zm10.577.001c.092-.036.2-.032.243.01.042.043-.033.073-.166.067-.148-.006-.178-.036-.077-.076zm6.26-.254a.72.72 0 0 1 .38.005c.086.035-.015.06-.224.058-.209-.002-.279-.03-.156-.063zm2.34-.123a.489.489 0 0 1 .316 0c.087.035.016.064-.158.064s-.245-.029-.158-.064zm-32.15-.126a.489.489 0 0 1 .316 0c.087.035.016.064-.158.064s-.246-.03-.159-.064zm-2.524-.13c.091-.036.2-.032.242.01.042.043-.032.073-.166.068-.147-.006-.177-.037-.076-.077zm-2.033-.123a.489.489 0 0 1 .316 0c.087.035.016.063-.158.063s-.245-.028-.158-.063zm-2.247-.17c0-.07.085-.127.19-.127.104 0 .19.057.19.127s-.086.126-.19.126c-.105 0-.19-.057-.19-.126zm47.086 0c0-.07.114-.127.253-.127.14 0 .253.057.253.127s-.114.126-.253.126c-.14 0-.253-.057-.253-.126zm-48.755-.213c.091-.037.2-.032.242.01.042.042-.032.072-.166.067-.147-.006-.177-.036-.076-.077zm-3.291-.253c.091-.037.2-.032.242.01.042.042-.032.072-.166.067-.147-.006-.177-.037-.076-.077zm84.679-2.912c.091-.036.2-.032.242.01.042.043-.032.073-.166.067-.147-.006-.177-.036-.076-.076zm.878-.124a.489.489 0 0 1 .316 0c.087.036.016.064-.158.064s-.245-.028-.158-.064zm-109.48-.129c.091-.036.2-.032.243.01.042.043-.033.073-.167.067-.147-.006-.177-.036-.076-.076zm111.513-.126c.091-.037.2-.032.243.01.042.042-.033.072-.167.067-.147-.006-.177-.036-.076-.077zm.878-.124a.489.489 0 0 1 .317 0c.087.035.015.064-.159.064s-.245-.03-.158-.064zm1.078-.13a.72.72 0 0 1 .38.004c.086.035-.015.061-.224.059-.209-.002-.279-.031-.156-.063zm.82-.123a.489.489 0 0 1 .317 0c.087.035.016.063-.158.063s-.245-.028-.158-.063zm1.021-.13c.092-.036.2-.032.243.01.042.043-.033.073-.166.067-.148-.006-.178-.036-.077-.076zm.886-.126c.092-.037.2-.032.243.01.042.042-.033.072-.166.067-.148-.006-.178-.036-.077-.077zm1.14-.127c.09-.036.2-.032.242.01.042.042-.033.072-.166.067-.147-.006-.177-.036-.077-.077zm.886-.126c.09-.037.2-.032.242.01.042.042-.033.072-.166.067-.147-.006-.177-.037-.076-.077zm69.27-.62c.006-.148.036-.178.077-.077.036.091.032.2-.01.242-.043.042-.073-.032-.067-.166zm-12.151-.127c.006-.148.036-.178.076-.077.037.092.032.2-.01.243-.042.042-.072-.033-.067-.166zm-52.064-.01a.489.489 0 0 1 .316 0c.087.035.016.063-.158.063s-.245-.028-.158-.064zm3.552-.51c.091-.036.2-.032.242.01.042.043-.032.073-.166.067-.147-.006-.177-.036-.076-.076zm-78.865-.509c.157-.03.413-.03.57 0 .156.03.028.055-.285.055s-.441-.024-.285-.055zm18.417.002c.122-.032.321-.032.443 0s.022.058-.222.058c-.243 0-.343-.026-.221-.058zm-23.29-.126c.122-.032.321-.032.443 0s.022.058-.221.058c-.244 0-.344-.026-.222-.058zm26.897.003a.489.489 0 0 1 .317 0c.087.035.016.064-.158.064s-.246-.03-.159-.064zm105.494-.233c.002-.209.031-.279.063-.156a.72.72 0 0 1-.005.38c-.035.086-.06-.015-.058-.224zm-136.062.103c.122-.032.322-.032.443 0 .122.032.023.058-.221.058s-.343-.026-.222-.058zm33.166 0a.72.72 0 0 1 .38.005c.085.035-.016.06-.225.058-.208-.002-.279-.03-.155-.063zm-35.729-.166c0-.07.143-.127.317-.127.174 0 .316.057.316.127s-.142.127-.316.127c-.174 0-.317-.057-.317-.127zm37.973 0c0-.07.085-.127.19-.127.104 0 .19.057.19.127s-.086.127-.19.127c-.105 0-.19-.057-.19-.127zm-40.275-.213c.091-.036.2-.032.243.01.042.042-.033.072-.166.067-.148-.006-.178-.036-.077-.076zm-1.772-.126c.091-.037.2-.033.243.01.042.042-.033.072-.166.066-.148-.006-.178-.036-.077-.076zm46.066.003a.489.489 0 0 1 .316 0c.087.035.016.063-.158.063s-.245-.028-.158-.063zm-48.1-.127a.489.489 0 0 1 .317 0c.087.035.016.064-.158.064s-.245-.029-.158-.064zm49.872 0a.489.489 0 0 1 .316 0c.087.035.016.064-.158.064s-.245-.029-.158-.064zm-51.002-.13c.091-.036.2-.031.242.011.042.042-.032.072-.166.067-.147-.006-.177-.036-.076-.077zm52.966 0a.72.72 0 0 1 .38.005c.085.034-.015.06-.224.058-.209-.002-.28-.03-.156-.063zm-54.485-.126c.091-.036.2-.032.242.01.042.043-.032.073-.166.067-.147-.006-.177-.036-.076-.076zm56.452 0c.092-.036.201-.032.243.01.042.043-.033.073-.166.067-.148-.006-.178-.036-.077-.076zm102.955-.23c.002-.208.03-.279.063-.155a.72.72 0 0 1-.005.38c-.035.085-.061-.016-.059-.225zm-160.8.104c.092-.037.201-.032.243.01.042.042-.033.072-.166.067-.148-.006-.178-.036-.077-.077zm59.49 0c.092-.037.201-.032.244.01.042.042-.033.072-.167.067-.147-.006-.177-.036-.076-.077zm-60.502-.127c.091-.036.2-.032.242.01.042.043-.032.073-.166.067-.147-.006-.177-.036-.076-.076zm62.014.003a.489.489 0 0 1 .316 0c.087.035.016.064-.158.064s-.245-.029-.158-.064zm87.78-.36c.001-.278.028-.377.058-.22.03.158.029.386-.002.507-.032.121-.056-.008-.055-.286zm-150.807.23c.092-.036.2-.031.243.011.042.042-.033.072-.166.067-.148-.006-.178-.036-.077-.077zm64.862 0c.122-.032.321-.032.443 0s.022.058-.221.058c-.244 0-.344-.026-.222-.058zm-66.009-.123a.489.489 0 0 1 .317 0c.087.035.015.064-.159.064s-.245-.029-.158-.064zm67.726-.003c.091-.037.2-.032.243.01.042.042-.033.072-.167.067-.147-.006-.177-.036-.076-.077zm-68.604-.126c.091-.037.2-.033.243.01.042.042-.033.072-.167.066-.147-.006-.177-.036-.076-.076zm69.988.003a.489.489 0 0 1 .317 0c.087.035.016.063-.158.063s-.246-.028-.159-.063zm-71.009-.127a.489.489 0 0 1 .317 0c.087.035.016.064-.158.064s-.246-.029-.159-.064zm72.663-.003c.091-.037.2-.032.242.01.042.042-.032.072-.166.067-.147-.006-.177-.036-.076-.077zm1.45-.128a.72.72 0 0 1 .38.005c.085.035-.016.061-.224.058-.21-.002-.28-.03-.156-.063zm-75.624-.125c.092-.037.201-.032.243.01.042.042-.033.072-.166.067-.147-.006-.177-.036-.077-.077zm77.077.003a.489.489 0 0 1 .317 0c.087.035.015.064-.159.064s-.245-.03-.158-.064zm-77.71-.13c.092-.036.201-.032.243.01.042.043-.032.073-.166.067-.147-.006-.177-.036-.076-.076zm78.984 0c.091-.036.2-.032.242.01.042.043-.032.073-.166.067-.147-.006-.177-.036-.076-.076zm1.197-.128a.72.72 0 0 1 .38.005c.085.035-.016.061-.224.059-.21-.002-.28-.031-.156-.063zm1.453-.122a.489.489 0 0 1 .316 0c.087.035.016.064-.158.064s-.245-.03-.158-.064zm1.266-.127a.489.489 0 0 1 .316 0c.087.035.016.064-.158.064s-.245-.029-.158-.064zm84.973-.116c.006-.148.036-.178.077-.077.036.092.032.2-.01.243-.042.042-.072-.033-.067-.166zm-83.581-.01a.489.489 0 0 1 .316 0c.088.034.016.063-.158.063s-.245-.029-.158-.064zm1.4-.13c.092-.037.2-.032.243.01.042.042-.033.072-.166.067-.148-.006-.178-.036-.077-.077zm-111.995-1.115c.236-.244.457-.443.492-.443.035 0-.13.2-.366.443-.236.244-.458.443-.492.443-.035 0 .13-.2.366-.443zm146.92-3.111c.045-.172.102-.229.134-.134a.325.325 0 0 1-.079.3c-.094.094-.11.044-.055-.166zm-125.183-.639c.086-.086.188-.125.227-.086.039.039-.031.11-.156.157-.18.069-.195.054-.071-.07zm74.017-1.376c-.071-.116.517-1.024.724-1.117.104-.047 2.757-3.756 2.757-3.855 0-.037.402-.706.894-1.487.931-1.481 2.29-3.953 2.714-4.933.135-.314.283-.598.33-.633.145-.11.748-2.156.929-3.155.176-.971.177-3.742 0-4.756-.115-.666-.798-2.881-.916-2.97-.05-.037-.326-.552-.614-1.144-.792-1.63-.87-1.78-1.307-2.531-.756-1.3-2.65-4.117-3.517-5.232-.225-.29-.41-.574-.411-.63-.001-.123-.615-.978-.838-1.17-.58-.497-5.086-7.244-6.265-9.381-.251-.455-.512-.864-.579-.91-.303-.203-1.935-4.092-2.584-6.16-.63-2.005-1.264-5.143-1.451-7.185-.091-.984-.086-4.313.008-5.47.197-2.423 1-5.8 1.89-7.947.677-1.63 1.924-4.22 2.157-4.477.116-.128.669-.945 1.228-1.815.56-.87 1.324-1.964 1.7-2.43.375-.466.682-.884.682-.928 0-.077.743-1.028 1.139-1.458 1.177-1.277 2.04-2.157 2.463-2.51.281-.235 1.337-1.212 2.347-2.17 1.62-1.538 3.46-3.106 4.082-3.478.116-.07 1.054-.73 2.083-1.469 1.03-.738 2.242-1.587 2.695-1.888.452-.3.947-.667 1.099-.815.151-.148.436-.351.632-.451.197-.1.956-.548 1.686-.995 2.778-1.699 3.493-2.089 7.468-4.072 1.288-.642 2.37-1.21 2.405-1.26.083-.123 1.753-.96 2.368-1.187.264-.098 1.506-.645 2.759-1.216 2.47-1.126 8.204-3.434 9.936-4 .592-.194 1.104-.39 1.139-.434.147-.191 4.746-1.743 8.734-2.947 3.58-1.08 3.547-1.075 3.54-.619-.001.14-.686.629-1.961 1.4-1.077.653-1.959 1.237-1.959 1.298 0 .061-.043.099-.095.083-.13-.038-1.297.662-1.297.778 0 .052-.157.173-.348.27-.378.19-3.52 2.181-5.855 3.709l-2.774 1.814c-.726.474-1.41.952-1.52 1.062-.207.209-3.267 2.325-3.811 2.637-.55.314-5.565 4.09-5.565 4.188 0 .053-.327.316-.728.586-1.54 1.037-6.297 4.957-8.259 6.805-1.711 1.613-5.833 5.793-6.191 6.28-.18.244-.759.984-1.286 1.645-1.51 1.89-2.951 4.139-3.788 5.906a85.043 85.043 0 0 1-.891 1.845c-.067.12-.121.301-.121.402 0 .1-.083.265-.184.366-.305.305-.82 2.386-.944 3.82-.109 1.25-.02 3.159.187 4.078.215.95.584 2.063.683 2.063.06 0 .15.177.198.395.185.843 1.672 3.844 2.86 5.771.29.472.615 1.03.721 1.238.286.562 2.953 4.627 3.249 4.952.14.154.474.64.741 1.081.268.441.89 1.457 1.384 2.258 1.234 2.001 3.002 5.21 3.002 5.449 0 .108.05.25.112.316.144.155 1.281 2.784 1.281 2.962 0 .073.048.133.107.133.253 0 1.349 3.763 1.658 5.696.2 1.253.165 4.238-.065 5.451-.307 1.617-1.26 4.43-1.584 4.675-.046.035-.383.633-.75 1.33-1.077 2.046-2.039 3.387-4.47 6.233-.846.992-1.611 1.804-1.699 1.804-.087 0-.159.051-.159.114 0 .143-3.227 3.074-4.746 4.31-.627.51-1.253 1.037-1.392 1.173-.34.332-3.293 2.417-5.272 3.722-1.9 1.254-2.394 1.482-2.576 1.187zm82.768-2.69-.24-.285.284.241c.268.227.342.329.241.329-.024 0-.152-.129-.285-.285zm11.325-.443c-.158-.2-.153-.205.047-.048.211.165.278.27.174.27-.026 0-.126-.1-.221-.222zm-1.133-1.266-.307-.348.348.307c.326.287.407.39.307.39-.022 0-.179-.158-.348-.349zm-12.83-.627c-.068-.18-.054-.195.071-.071.087.086.126.188.087.227-.04.039-.11-.031-.158-.156zm-133.885-2.15c.091-.036.2-.031.243.011.042.042-.033.072-.167.067-.147-.006-.177-.036-.076-.077zm.38-1.645c.091-.036.2-.032.242.01.042.043-.032.073-.166.067-.147-.006-.177-.036-.076-.076zm1.012-.126c.092-.037.2-.032.243.01.042.042-.033.072-.166.067-.148-.006-.178-.036-.077-.077zm1.132-.124a.489.489 0 0 1 .316 0c.087.035.016.064-.158.064s-.245-.029-.158-.064zm36.232-4.728c-2.977-2.98-4.556-4.608-4.558-4.701 0-.024-.76-.841-1.688-1.816a269.47 269.47 0 0 1-2.616-2.784 339.947 339.947 0 0 0-1.54-1.667c-.336-.36-.61-.714-.61-.788 0-.074-.133-.221-.295-.328-.439-.287-5.778-6.375-5.78-6.59 0-.072-.33-.47-.732-.886-1.08-1.113-4.303-5.18-5.287-6.671-.173-.261-.37-.475-.439-.475s-.112-.042-.096-.095c.04-.127-.94-1.423-1.076-1.423-.059 0-.074-.054-.034-.118.04-.065-.043-.2-.184-.298-.366-.256-2.357-3.107-4.336-6.208-.364-.57-1.862-3.18-2.12-3.695-.174-.347-.353-.659-.397-.694-.164-.128-1.738-3.392-2.18-4.517-1.534-3.913-1.705-7.968-.504-11.936.649-2.144 2.357-6.034 2.712-6.18.053-.02.387-.533.743-1.138.356-.605.996-1.585 1.423-2.177.427-.591.838-1.19.913-1.33.479-.884 2.505-3.274 4.764-5.617.108-.112.564-.63 1.013-1.15.974-1.131 2.055-2.234 3.607-3.682 1.146-1.07 2.978-2.729 3.275-2.967a.794.794 0 0 0 .21-.257c.088-.218 3.436-3.239 4.381-3.953.765-.576 3.181-2.677 3.303-2.87.116-.185 3.298-2.903 3.472-2.967.072-.026 1.046-.815 2.165-1.754 1.119-.94 2.137-1.772 2.262-1.85.126-.079.231-.2.235-.27.005-.124 2.054-1.837 2.196-1.837.134 0 5.962-4.836 6.194-5.14.128-.166.289-.303.358-.303.123 0 3.89-3.01 5.285-4.223a39.894 39.894 0 0 1 1.46-1.197c.676-.523 4.876-4.66 6.651-6.553 1.484-1.58 4.947-6.379 5.977-8.28.657-1.212 1.019-1.812 1.216-2.015.433-.446 1.792-3.489 2.928-6.559 3.026-8.174 3.856-15.998 2.593-24.434-.37-2.47-.388-3.008-.101-3.118.212-.081.804.226.804.418 0 .058.194.311.43.562.492.521 1.41 2.164 1.887 3.376.387.985.983 3.31 1.494 5.823 1.845 9.073 1.624 17.093-.704 25.536-.55 1.997-2.276 6.405-2.587 6.61-.056.037-.334.563-.616 1.168-.87 1.863-3.415 5.976-4.998 8.076-1.245 1.65-6.758 7.515-7.753 8.247-.278.205-1.93 1.757-3.67 3.449-1.741 1.691-3.706 3.564-4.367 4.162-.662.598-2.198 2.087-3.414 3.31-1.216 1.223-2.271 2.223-2.344 2.223-.074 0-1.072.954-2.219 2.12a165.092 165.092 0 0 1-3.288 3.258c-2.216 2.095-5.687 5.57-5.692 5.699-.003.07-.702.837-1.555 1.704-1.86 1.893-4.514 4.802-4.62 5.067-.043.104-.48.674-.974 1.265-.493.592-1.122 1.361-1.397 1.71-.275.347-.57.676-.655.73-.213.132-2.056 2.736-2.856 4.034-.937 1.518-2.51 4.363-2.9 5.242-.185.414-.469 1.065-.632 1.448-.164.383-.336.725-.382.76-.161.122-.975 2.631-1.256 3.872-.402 1.776-.406 4.652-.01 6.95.277 1.61 1.103 4.874 1.265 5 .045.034.337.832.648 1.772 1.233 3.725 2.92 7.698 4.893 11.518.593 1.149 1.15 2.145 1.24 2.215.089.07.504.782.922 1.582.743 1.422 2.29 4.1 3.404 5.897.306.493.557.932.557.975 0 .128 1.786 2.919 1.959 3.061.161.133 2.597 3.827 2.597 3.939 0 .215 3.787 5.483 4.339 6.035.232.233.884 1.601.822 1.729-.019.04-1.43-1.325-3.135-3.031zm84.046 2.027a.127.127 0 0 1 .253 0 .127.127 0 0 1-.253 0zm3.774-.466c.09-.037.2-.032.242.01.042.042-.033.072-.166.067-.147-.006-.177-.036-.076-.077z" style="fill:#ea1f24;stroke-width:.126576" transform="translate(-406.076 -174.033)"/></svg>