<svg xmlns="http://www.w3.org/2000/svg" width="300mm" height="300mm" viewBox="0 0 300 300"><path d="M.476 149.017V-1.832h301.698v301.698H.476Zm127.573 126.967c6.059-.555 12.45-2.213 16.631-4.315 3.088-1.553 6.583-4.079 9.037-6.533 5.372-5.372 8.485-11.81 10.347-21.396.626-3.222.63-3.554.732-55.17l.102-51.927H136.31l-.081 51.191c-.077 48.2-.112 51.295-.609 52.96-1.286 4.31-3.185 6.928-6.087 8.39-2.215 1.115-4.604 1.579-8.113 1.574-7.463-.009-11.867-3.178-17.188-12.368l-1.22-2.11-11.42 6.9c-6.28 3.794-11.465 7.034-11.52 7.199-.17.503 2.825 5.636 4.9 8.401 9.601 12.793 24.83 18.875 43.077 17.204zm110.36-.001c22.076-2.148 36.74-13.928 39.786-31.961.648-3.837.656-11.344.016-15.164-2.097-12.52-8.41-21.033-21.41-28.878-3.687-2.225-11.885-6.224-18.414-8.981-6.748-2.85-12.805-5.789-15.163-7.356-2.487-1.654-4.427-3.76-5.518-5.99-.763-1.56-.82-1.934-.823-5.36-.003-3.376.062-3.822.78-5.355 2.093-4.465 6.698-7.027 12.61-7.015 7.058.015 11.937 2.789 16.271 9.251.988 1.472 1.909 2.644 2.048 2.604.395-.115 20.977-13.35 21.435-13.784.346-.328.214-.697-.856-2.399-4.714-7.498-11.02-13.347-17.692-16.41-6.855-3.147-15.317-4.488-25.024-3.964-17.45.941-31.282 10.675-36.067 25.38-1.347 4.137-1.756 7.013-1.747 12.281.01 5.663.54 9.267 2.024 13.75 1.954 5.904 4.352 9.681 9.241 14.556 5.825 5.808 12.096 9.524 26.549 15.735 18.028 7.746 22.203 10.794 23.538 17.182.936 4.476-.304 8.624-3.478 11.646-4.048 3.852-9.46 5.472-17.085 5.114-4.294-.2-6.587-.653-10.01-1.973-5.145-1.984-10.445-6.51-14.416-12.31-1.53-2.234-1.947-2.667-2.357-2.448-1.64.878-22.05 12.783-22.25 12.979-.58.564 3.414 6.848 6.933 10.91 8.315 9.595 21.242 16.12 35 17.665 1.54.172 3.197.36 3.683.417 2.059.24 9.421.167 12.397-.122z" style="fill:#fff;stroke-width:.294627"/></svg>