<svg xmlns="http://www.w3.org/2000/svg" width="300mm" height="300mm" viewBox="0 0 300 300"><path d="M.215 149.486V-1.364h301.698v301.7H.215Zm126.69 126.974c11.37-.867 20.053-4.435 26.512-10.894 6.498-6.498 10.005-15.145 10.9-26.873.184-2.42.298-22.552.299-52.75v-48.837l-14.215.077-14.216.076-.155 51.265c-.143 47.42-.192 51.39-.662 52.922-1.21 3.95-2.635 6.153-4.934 7.628-4.293 2.755-11.672 3.07-16.656.712-3.157-1.493-7.175-5.992-10.043-11.245-.464-.848-.954-1.544-1.09-1.546-.194-.003-22.446 13.35-22.826 13.698-.203.185 2.063 4.315 3.806 6.94 2.439 3.67 7.756 8.992 11.41 11.42 6.324 4.2 13.782 6.712 21.922 7.381 4.38.36 5.524.364 9.947.026zm110.368 0c22.629-1.82 37.724-13.883 40.673-32.505.646-4.08.409-13.031-.447-16.835-1.686-7.494-4.8-13.177-10.105-18.44-5.837-5.79-14.11-10.666-28.679-16.898-17.715-7.58-21.183-10.26-22.257-17.202-.883-5.708 2.033-10.987 7.286-13.189 1.891-.792 2.255-.841 6.28-.849 3.695-.007 4.534.083 6.214.664 3.931 1.36 7.34 4.231 10.252 8.639l1.674 2.534 10.744-6.897c5.909-3.793 10.862-7.015 11.007-7.159.462-.457-4.128-6.937-7.124-10.057-3.695-3.85-6.704-6.08-11.077-8.21-6.766-3.296-11.627-4.258-21.543-4.265-6.318-.005-7.432.07-10.46.697-16.788 3.48-28.068 14.341-30.789 29.646-.548 3.084-.63 10.355-.156 13.699 1.56 10.993 6.632 19.317 16.002 26.264 4.86 3.603 10.294 6.448 21.868 11.444 16.197 6.993 20.549 9.887 22.6 15.03.524 1.313.65 2.237.66 4.867.015 3.103-.029 3.337-.972 5.253-1.834 3.725-5.446 6.442-10.517 7.91-2.078.602-2.961.678-7.794.67-6.126-.012-8.479-.452-12.612-2.362-5.309-2.453-10.351-7.101-14.186-13.077l-.963-1.5-.924.56c-.509.307-5.565 3.242-11.237 6.522-5.671 3.28-10.429 6.07-10.572 6.2-.527.482 3.235 6.371 6.732 10.54 3.713 4.424 9.72 9.157 15.159 11.942 10.04 5.14 22.501 7.39 35.263 6.364z" style="fill:#f5dd1c;stroke-width:.294627" transform="translate(-2.574 -.828)"/><path d="M116.957 276.434c-8.14-.67-15.598-3.18-21.922-7.382-3.654-2.427-8.971-7.748-11.41-11.42-1.743-2.624-4.009-6.754-3.806-6.94.38-.347 22.632-13.7 22.825-13.697.137.002.627.698 1.09 1.546 2.869 5.253 6.887 9.752 10.044 11.245 4.984 2.358 12.363 2.043 16.656-.712 2.299-1.475 3.724-3.678 4.934-7.628.47-1.532.52-5.503.662-52.922l.155-51.265 14.216-.076 14.216-.077-.001 48.837c0 30.198-.115 50.33-.3 52.75-.894 11.728-4.401 20.375-10.899 26.873-6.459 6.459-15.142 10.027-26.513 10.894-4.423.338-5.567.335-9.947-.026zm108.058.007c-18.12-1.573-32.767-9.643-41.783-23.021-2.147-3.187-3.408-5.536-3.113-5.805.143-.13 4.9-2.92 10.572-6.2 5.672-3.28 10.728-6.216 11.237-6.523l.924-.56.963 1.5c3.835 5.976 8.877 10.625 14.186 13.077 4.133 1.91 6.486 2.35 12.612 2.361 4.833.01 5.716-.067 7.794-.668 5.07-1.468 8.683-4.185 10.517-7.91.943-1.916.987-2.151.973-5.253-.012-2.63-.137-3.555-.661-4.868-2.051-5.142-6.403-8.037-22.6-15.03-11.574-4.996-17.009-7.84-21.868-11.443-9.37-6.947-14.441-15.271-16.002-26.265-.475-3.343-.392-10.614.156-13.699 2.72-15.305 14.001-26.166 30.79-29.646 3.027-.627 4.141-.701 10.46-.697 9.915.007 14.776.97 21.542 4.265 4.373 2.13 7.382 4.36 11.077 8.21 2.996 3.12 7.586 9.6 7.124 10.058-.145.144-5.098 3.365-11.007 7.158l-10.744 6.897-1.674-2.534c-2.912-4.407-6.32-7.28-10.252-8.639-1.68-.58-2.52-.67-6.214-.663-4.025.007-4.389.056-6.28.849-5.253 2.201-8.17 7.48-7.286 13.188 1.074 6.943 4.542 9.623 22.257 17.202 14.569 6.233 22.842 11.108 28.679 16.898 5.305 5.264 8.419 10.946 10.105 18.44.856 3.804 1.093 12.755.447 16.836-1.968 12.424-9.41 22.148-21.133 27.614-8.751 4.081-20.381 5.863-31.798 4.871z" style="fill:#010000;stroke-width:.294627" transform="translate(-2.574 -.828)"/></svg>