<svg xmlns="http://www.w3.org/2000/svg" width="414mm" height="1565.034" viewBox="0 0 414 414.082"><path d="M76.014 306.223C9.275 280.031-13.244 181.516-3.234 119.33c7.227-34.336 40.21-54.669 67.597-41.673 14.897 7.07 16.186 11.422 17.683 59.704 1.913 61.71 6.965 74.001 30.417 74.001 72.596-38.652 50.843-171.831 51.815-228.73-25.38 1.67-51.491 7.084-75.505 7.544-47.538 8.66-47.615-53.94-19.93-67.754 42.867-14.369 95.048-20.943 131.7-21.062C277.2-110.16 282.914-39.73 282.404 8.15c-.465 79.22-9.137 184.115-50.553 240.405-36.757 45.428-95.751 76.86-155.835 57.667Zm42.287-11.463c.85-1.375-1.59-2.35-5.88-2.35-8.465 0-25.725-4.95-45.553-13.066-13.329-5.455-13.678-5.483-9.396-.748 5.93 6.557 20.256 13.69 32.27 16.066 14.033 2.777 26.876 2.82 28.559.098zM65.443 94.186c0-.487-1.61-2.223-3.578-3.856-2.991-2.483-3.335-2.337-2.098.887 1.264 3.293 5.676 5.601 5.676 2.97zM77.189-20.805c0-.42-2.813-3.328-6.252-6.46-5.703-5.196-5.776-2.996-.142 4.288 2.037 2.634 6.394 4.114 6.394 2.172zm188.835-33.886c-3.873-16.202-10.237-23.184-25.172-27.62-6.468-1.92-12.053-3.2-12.411-2.842-.358.358 5.08 5.085 12.085 10.505 7.005 5.42 15.142 13.568 18.082 18.107 6.42 9.91 9.528 10.685 7.415 1.85z" style="fill:#fff;stroke-width:2.34925" transform="translate(74.333 102.125)"/></svg>