<svg xmlns="http://www.w3.org/2000/svg" width="300mm" height="300mm" viewBox="0 0 300 300"><path d="M41.02 189.48c.892-.357 1.956-.313 2.366.097.41.41-.318.702-1.62.648-1.437-.059-1.73-.352-.745-.746zm8.64 0c.891-.357 1.956-.313 2.366.097.41.41-.319.702-1.62.648-1.438-.059-1.73-.352-.746-.746zm140.318.045c-13.714-2.057-29.701-10.669-38.622-20.803-34.444-39.13-9.607-100.796 42.325-105.087 22.522-1.861 45.3 9.39 57.63 28.466 17.24 26.674 11.79 63.284-12.347 82.946-7.992 6.51-13.218 9.342-22.1 11.975-7.022 2.082-21.01 3.384-26.886 2.503zM.522 82.327C2.117 80.63 3.7 79.24 4.038 79.24c.34 0-.687 1.389-2.281 3.086-1.595 1.697-3.177 3.085-3.516 3.085-.34 0 .687-1.388 2.281-3.085zm117.022-24.911c.89-.357 1.955-.313 2.365.097.41.41-.319.702-1.62.649-1.438-.06-1.73-.352-.745-.746zm7.405 0c.891-.357 1.956-.313 2.366.097.41.41-.32.702-1.62.649-1.438-.06-1.73-.352-.746-.746zm-50.53-21.065c-1.535-1.957-1.491-2 .466-.466 1.188.932 2.16 1.904 2.16 2.16 0 1.016-1.013.362-2.626-1.694zM58.818-5.92c0-2.376.254-3.348.564-2.16.31 1.188.31 3.132 0 4.32-.31 1.188-.564.216-.564-2.16zM166.41-50.663l-2.351-2.777 2.777 2.352c2.61 2.21 3.339 3.203 2.351 3.203-.234 0-1.484-1.25-2.777-2.778z" style="fill:#9057a1;stroke-width:1.23424" transform="translate(20.59 84.341) scale(1.03937)"/><path d="M38.027 189.09c-36.508-5.348-60.873-39.8-53.42-75.538C-12.108 97.798.198 80.658 14.334 72.15c9.722-5.852 25.179-9.463 36.433-8.512 33.57 2.838 58.32 29.88 58.335 63.738.013 27.334-19.172 52.41-45.633 59.647-9.07 2.481-17.78 3.188-25.442 2.066z" style="fill:#c93a30;stroke-width:1.23424" transform="translate(20.59 84.341) scale(1.03937)"/><path d="M112.838 56.864c-11.32-1.39-26.036-8.9-34.854-17.789C65.737 26.73 59.766 11.952 59.766-6.015c0-29.739 19.379-54.145 48.431-60.994 21.72-5.121 42.218.913 58.357 17.178 14.715 14.83 20.978 33.163 18.114 53.023-5.041 34.952-35.983 58.073-71.83 53.672Z" style="fill:#379544;stroke-width:1.23424" transform="translate(20.59 84.341) scale(1.03937)"/></svg>