<svg xmlns="http://www.w3.org/2000/svg" width="1000mm" height="1000mm" viewBox="0 0 1000 1000"><path d="M330.982 511.04V267.913h125.24l.418 108.536.418 108.537 80.366-108.537 80.366-108.536h141.416l-.726 3.687c-.4 2.028-39.65 52.784-87.222 112.791-47.573 60.007-86.497 109.492-86.497 109.966 0 .474 39.165 55.481 87.033 122.238l87.033 121.376v16.195H617.873l-67.905-97.882c-37.347-53.835-68.174-97.882-68.505-97.882-.33 0-6.14 7.463-12.91 16.584l-12.308 16.584v162.596H330.982z" style="fill:#fff;stroke-width:1.60257" transform="matrix(1.8566 0 0 1.9131 -494.58 -476.827)"/></svg>