<svg xmlns="http://www.w3.org/2000/svg" width="300mm" height="300mm" viewBox="0 0 300 300"><path d="m342.445 426.831-.641-.728.728.642c.4.353.727.68.727.727 0 .208-.214.04-.814-.641zm-540.788-2.547c0-.055.208-.264.463-.463.42-.33.43-.32.1.1-.346.44-.563.58-.563.363zm535.232-3.01-.641-.727.727.642c.4.352.728.68.728.727 0 .208-.214.039-.814-.641zm-2.51-2.777-.777-.86.86.777c.473.427.86.814.86.86 0 .204-.219.024-.943-.777zm-5.027-5.027-.777-.86.86.777c.473.427.86.814.86.86 0 .204-.219.024-.943-.777zm-2.646-2.91-.777-.86.86.776c.473.428.86.815.86.86 0 .205-.219.025-.943-.777zm-5.027-5.028-.777-.86.86.777c.473.428.86.815.86.86 0 .205-.219.024-.943-.777zm-2.646-2.91-.777-.86.86.777c.473.427.86.814.86.86 0 .204-.218.024-.943-.777zm-490.653-4.829c.494-.51.957-.926 1.03-.926.073 0-.272.417-.765.926-.494.51-.957.926-1.03.926-.073 0 .271-.417.765-.926zm485.626-.198-.777-.86.86.777c.473.427.86.814.86.86 0 .204-.219.024-.943-.777zm-2.781-3.043-.642-.728.728.642c.4.352.727.68.727.727 0 .208-.214.039-.813-.641zm-479.405-.43c0-.056.208-.264.463-.464.42-.329.429-.32.1.1-.346.44-.563.581-.563.363zm4.365-4.134c.569-.582 1.093-1.059 1.166-1.059.073 0-.333.477-.901 1.059-.569.582-1.093 1.058-1.166 1.058-.073 0 .333-.476.901-1.058zm470.148-.33-.777-.86.86.776c.473.428.86.815.86.86 0 .205-.218.024-.943-.777zm-2.91-3.176-.777-.86.86.777c.472.428.86.815.86.86 0 .205-.219.024-.943-.777zm-459.3-4.432c1.01-1.018 1.897-1.852 1.97-1.852.073 0-.695.834-1.706 1.852-1.01 1.019-1.897 1.852-1.97 1.852-.073 0 .695-.833 1.706-1.852zm454.273-.595-.777-.86.86.777c.472.428.86.815.86.86 0 .205-.219.024-.943-.777zm-2.646-2.91-.777-.86.86.777c.473.427.86.814.86.86 0 .204-.219.024-.943-.777zm-445.674-2.388c0-.04.923-.963 2.05-2.05l2.05-1.979-1.977 2.051c-1.837 1.904-2.123 2.171-2.123 1.978zm440.647-2.64-.777-.86.86.778c.472.427.86.814.86.86 0 .204-.219.024-.943-.778zm-2.646-2.91-.777-.86.86.777c.473.428.86.815.86.86 0 .205-.219.024-.943-.777zm-428.212-4.3c1.377-1.382 2.563-2.513 2.636-2.513.073 0-.994 1.131-2.371 2.514-1.377 1.382-2.563 2.513-2.635 2.513-.073 0 .994-1.131 2.37-2.513zm423.185-.727-.777-.86.86.777c.473.428.86.815.86.86 0 .205-.219.024-.943-.777zm-2.646-2.91-.777-.86.86.777c.473.427.86.814.86.86 0 .204-.219.024-.943-.777zm-415.247-1.605c0-.045.387-.432.86-.86l.86-.777-.777.86c-.725.802-.943.982-.943.777zm410.09-3.555-.912-.992.992.912c.924.849 1.114 1.072.912 1.072-.044 0-.49-.446-.992-.992zm-406.386-.149c0-.045.387-.432.86-.86l.86-.777-.777.86c-.724.802-.943.982-.943.777zm403.476-3.026-.912-.992.992.912c.923.849 1.114 1.072.912 1.072-.044 0-.49-.446-.992-.992zm-399.772-.678c0-.045.387-.432.86-.86l.86-.777-.777.86c-.724.802-.943.982-.943.777zm395.143-3.952-1.046-1.124 1.125 1.045c1.046.973 1.246 1.203 1.046 1.203-.044 0-.55-.506-1.125-1.124zm-390.645-.546c0-.045.387-.432.86-.86l.86-.777-.777.86c-.724.802-.943.982-.943.777zm387.6-2.761-.911-.992.992.911c.924.849 1.114 1.073.912 1.073-.044 0-.49-.447-.992-.992zm-384.425-.414c0-.045.387-.432.86-.86l.86-.777-.777.86c-.724.802-.943.982-.943.777zm379.797-4.217-1.046-1.124 1.125 1.046c1.046.973 1.246 1.203 1.046 1.203-.043 0-.55-.506-1.125-1.125zm-374.24-1.389c.341-.363.68-.661.753-.661.073 0-.147.298-.489.661-.342.364-.68.662-.754.662-.072 0 .148-.298.49-.662zm371.061-2.05-.777-.86.86.777c.473.428.86.814.86.86 0 .204-.219.024-.943-.777zm-368.548-.463c.264-.291.539-.53.611-.53.073 0-.083.239-.346.53-.264.29-.539.53-.611.53-.073 0 .083-.24.346-.53zm364.054-4.035-1.046-1.124 1.125 1.045c1.046.973 1.246 1.203 1.046 1.203-.043 0-.55-.506-1.125-1.124zm-358.233-1.786c.263-.291.538-.53.611-.53.073 0-.083.239-.346.53-.264.291-.539.53-.612.53-.072 0 .084-.239.347-.53zm355.054-1.654-.777-.86.86.778c.473.427.86.814.86.86 0 .204-.218.024-.943-.778zm-353.202-.198c.263-.291.538-.53.611-.53.073 0-.083.239-.346.53-.264.291-.539.53-.612.53-.072 0 .084-.239.347-.53zm348.574-4.432-.911-.992.992.912c.923.849 1.114 1.072.912 1.072-.045 0-.491-.446-.993-.992zm-342.489-1.653c.264-.291.539-.53.612-.53.072 0-.084.239-.347.53-.263.29-.538.529-.611.529-.073 0 .083-.238.346-.53zm339.444-1.654-.777-.86.86.777c.473.428.86.814.86.86 0 .204-.218.024-.943-.777zm-337.856.066c.263-.29.538-.53.611-.53.073 0-.083.24-.346.53-.264.291-.539.53-.612.53-.072 0 .084-.239.347-.53zm333.098-4.829-1.046-1.124 1.125 1.046c1.045.973 1.246 1.203 1.045 1.203-.043 0-.549-.506-1.124-1.125zm-326.087-2.182c.494-.51.958-.926 1.03-.926.073 0-.271.416-.765.926-.494.509-.957.926-1.03.926-.073 0 .272-.417.765-.926zm323.042-1.125-.911-.992.992.912c.923.848 1.114 1.072.912 1.072-.045 0-.491-.446-.993-.992zm-4.628-4.63-1.046-1.125 1.125 1.046c1.045.973 1.246 1.203 1.045 1.203-.043 0-.549-.506-1.124-1.124zm-310.476-2.183c.342-.364.68-.661.754-.661.072 0-.148.297-.49.661-.341.364-.68.662-.753.662-.073 0 .147-.298.489-.662zm307.431-1.124-.911-.993.992.912c.923.849 1.114 1.073.912 1.073-.045 0-.491-.447-.993-.992zm-4.748-4.697c-.642-.655-1.109-1.19-1.036-1.19.073 0 .658.535 1.3 1.19.643.655 1.11 1.19 1.037 1.19-.073 0-.658-.535-1.3-1.19zm-294.878-1.984c.264-.291.539-.53.611-.53.073 0-.083.239-.346.53-.264.29-.539.53-.611.53-.073 0 .083-.24.346-.53zm291.558-1.654-1.045-1.124 1.124 1.046c1.046.972 1.246 1.203 1.046 1.203-.043 0-.55-.506-1.125-1.125zm-287.192-2.447c.79-.8 1.496-1.455 1.57-1.455.072 0-.515.654-1.306 1.455-.79.8-1.496 1.455-1.57 1.455-.072 0 .515-.655 1.306-1.455zm282.962-1.786-1.313-1.39 1.389 1.314c.764.722 1.389 1.347 1.389 1.389 0 .197-.245-.022-1.465-1.313zm-3.442-3.704-1.046-1.125 1.124 1.046c1.046.973 1.246 1.203 1.046 1.203-.043 0-.55-.506-1.124-1.124zm-271.715-2.315c1.01-1.019 1.897-1.852 1.97-1.852.073 0-.695.833-1.705 1.852-1.011 1.018-1.898 1.852-1.97 1.852-.073 0 .694-.834 1.705-1.852zm267.484-1.919-1.313-1.389 1.389 1.313c.764.722 1.389 1.348 1.389 1.39 0 .197-.245-.023-1.465-1.314zm-3.576-3.836-.912-.992.992.912c.923.848 1.114 1.072.912 1.072-.044 0-.49-.446-.992-.992zm-256.103-2.05c1.23-1.237 2.297-2.25 2.37-2.25.072 0-.875 1.013-2.105 2.25-1.23 1.236-2.297 2.248-2.37 2.248-.073 0 .875-1.012 2.105-2.249zm252.006-2.051-1.313-1.39 1.389 1.314c.764.722 1.389 1.347 1.389 1.389 0 .197-.245-.022-1.465-1.313zm-3.576-3.837-.912-.992.992.912c.924.849 1.114 1.073.912 1.073-.044 0-.49-.447-.992-.993zm-240.625-1.918c1.45-1.455 2.696-2.646 2.769-2.646.072 0-1.054 1.191-2.504 2.646-1.45 1.455-2.695 2.646-2.768 2.646-.073 0 1.054-1.19 2.503-2.646zm236.528-2.183-1.313-1.389 1.389 1.313c.764.722 1.39 1.348 1.39 1.39 0 .197-.246-.023-1.466-1.314zm-230.575-3.77c.494-.51.958-.926 1.03-.926.073 0-.271.417-.765.926-.494.51-.957.926-1.03.926-.073 0 .272-.417.765-.926zm226.999-.066-.912-.992.992.912c.924.848 1.114 1.072.912 1.072-.044 0-.49-.446-.992-.992zm-4.228-4.233-1.447-1.522 1.522 1.446c1.413 1.344 1.642 1.597 1.446 1.597-.041 0-.726-.685-1.521-1.521zm-219.596 1.174c0-.046.387-.433.86-.86l.86-.777-.777.86c-.724.801-.943.981-.943.777zm3.705-3.705c0-.045.387-.432.86-.86l.86-.777-.778.86c-.724.802-.942.982-.942.777zm212.315-1.306-1.046-1.124 1.125 1.046c1.046.972 1.246 1.203 1.046 1.203-.043 0-.55-.506-1.125-1.125zm-4.23-4.233-1.313-1.39 1.389 1.314c1.29 1.22 1.51 1.465 1.313 1.465-.042 0-.667-.625-1.39-1.39zm-203.587 1.042c0-.046.387-.433.86-.86l.86-.777-.778.86c-.724.801-.942.981-.942.777zm3.704-3.754c.342-.364.68-.662.753-.662.073 0-.147.298-.489.662-.341.364-.68.661-.753.661-.073 0 .147-.297.489-.661zm196.44-.992-1.045-1.125 1.124 1.046c1.046.973 1.246 1.203 1.046 1.203-.043 0-.55-.506-1.125-1.124zm-4.23-4.234-1.313-1.389 1.389 1.313c1.29 1.22 1.51 1.465 1.313 1.465-.042 0-.667-.625-1.39-1.389zm-186.919-.066c.342-.364.681-.661.754-.661.073 0-.147.297-.489.661-.342.364-.68.662-.754.662-.072 0 .148-.298.49-.662zm2.25-2.249c.263-.29.538-.529.61-.529.073 0-.083.238-.346.53-.263.29-.538.528-.611.528-.073 0 .083-.238.346-.529zm181.092-1.521-.911-.992.992.912c.923.848 1.114 1.072.912 1.072-.045 0-.491-.446-.993-.992zm-4.228-4.233-1.446-1.522 1.521 1.446c1.414 1.344 1.643 1.597 1.447 1.597-.042 0-.726-.685-1.522-1.521zm-171.044-.066c.264-.292.539-.53.611-.53.073 0-.083.238-.346.53-.264.29-.539.529-.611.529-.073 0 .083-.238.346-.53zm1.588-1.588c.263-.291.538-.53.61-.53.074 0-.082.239-.346.53-.263.291-.538.53-.61.53-.074 0 .082-.239.346-.53zm164.036-4.035-2.64-2.712 2.712 2.64c2.518 2.454 2.832 2.784 2.64 2.784-.039 0-1.26-1.22-2.712-2.712zm-156.893-3.109c.569-.582 1.093-1.058 1.166-1.058.073 0-.333.476-.901 1.058-.568.582-1.093 1.058-1.166 1.058-.072 0 .333-.476.901-1.058zm153.557-.198c-.329-.42-.32-.43.1-.1.255.2.463.408.463.463 0 .218-.217.077-.563-.363zm-4.337-4.63-2.64-2.712 2.712 2.64c1.491 1.453 2.712 2.673 2.712 2.712 0 .192-.33-.122-2.784-2.64zM5.122 221.315c.493-.51.957-.926 1.03-.926.072 0-.272.417-.766.926-.493.51-.957.926-1.03.926-.072 0 .272-.417.766-.926zm138.078-.33c-.329-.42-.32-.43.1-.1.255.199.463.407.463.462 0 .218-.217.078-.563-.363zm-4.336-4.631-2.641-2.712 2.712 2.64c2.519 2.454 2.832 2.784 2.64 2.784-.039 0-1.259-1.22-2.711-2.712zM13.19 213.246c.264-.29.539-.529.612-.529.072 0-.084.238-.347.53-.263.29-.538.528-.611.528-.073 0 .083-.238.346-.529zm122.336-.198c-.329-.42-.32-.43.1-.1.441.345.581.563.363.563-.054 0-.263-.209-.463-.463zm-4.336-4.63-2.641-2.712 2.712 2.64c2.519 2.453 2.832 2.783 2.64 2.783-.038 0-1.259-1.22-2.711-2.712zm-110.327-2.845c.264-.29.539-.529.612-.529.072 0-.084.238-.347.53-.263.29-.538.528-.611.528-.073 0 .083-.238.346-.529zm106.99-.463c-.329-.42-.32-.429.1-.1.255.2.463.408.463.463 0 .218-.217.078-.562-.363zm-102.889-3.373c.79-.8 1.497-1.455 1.57-1.455.073 0-.515.654-1.305 1.455-.79.8-1.497 1.455-1.57 1.455-.072 0 .515-.655 1.305-1.455zm98.553-1.257-2.641-2.712 2.712 2.64c2.519 2.454 2.832 2.784 2.64 2.784-.038 0-1.259-1.22-2.711-2.712zm-3.46-3.44-.504-.595.595.504c.56.474.716.687.504.687-.05 0-.318-.268-.595-.596zm-87.155-3.24c.937-.947 1.764-1.72 1.837-1.72.072 0-.635.773-1.573 1.72-.937.945-1.764 1.72-1.836 1.72-.073 0 .634-.775 1.572-1.72zm82.677-1.522-2.64-2.712 2.711 2.64c1.492 1.453 2.712 2.674 2.712 2.713 0 .191-.33-.122-2.783-2.641zm-3.336-3.307c-.329-.42-.32-.43.1-.1.255.2.463.408.463.463 0 .218-.217.077-.563-.363zm-71.536-2.977c1.304-1.31 2.43-2.381 2.503-2.381.072 0-.935 1.071-2.238 2.381-1.304 1.31-2.43 2.381-2.503 2.381-.073 0 .934-1.071 2.238-2.38zm67.199-1.654-2.376-2.447 2.447 2.376c2.274 2.206 2.568 2.519 2.376 2.519-.04 0-1.14-1.102-2.447-2.448zm-3.6-3.571c-.33-.42-.32-.43.1-.1.254.2.463.408.463.463 0 .217-.218.077-.563-.363zm-58.175-.15c0-.045.387-.432.86-.86l.86-.776-.777.86c-.725.801-.943.981-.943.777zm54.101-4.216-2.11-2.183 2.183 2.11c1.2 1.161 2.182 2.144 2.182 2.183 0 .193-.295-.083-2.255-2.11zm-50.397.512c0-.045.387-.432.86-.86l.86-.777-.777.86c-.724.802-.943.982-.943.777zm46.798-4.084c-.33-.42-.32-.429.1-.1.44.346.58.563.363.563-.055 0-.264-.208-.463-.463zm-42.3-.463c.342-.364.681-.661.754-.661.073 0-.147.297-.49.661-.341.364-.68.661-.753.661-.073 0 .147-.297.49-.661zm38.226-3.903-2.11-2.182 2.183 2.11c1.2 1.16 2.182 2.143 2.182 2.183 0 .193-.295-.083-2.255-2.11zm-34.522.248c0-.045.387-.432.86-.86l.86-.777-.777.86c-.724.802-.943.982-.943.777zm3.704-3.753c.342-.364.681-.662.754-.662.073 0-.147.298-.489.662-.342.363-.68.661-.754.661-.072 0 .148-.298.49-.661zm27.219-.066c-.33-.42-.32-.43.1-.1.254.2.463.408.463.463 0 .217-.218.077-.563-.363zm-4.206-4.498-2.243-2.315 2.315 2.243c2.15 2.083 2.436 2.387 2.243 2.387-.04 0-1.08-1.042-2.315-2.315zm-17.72-.728c.34-.364.68-.661.753-.661.073 0-.147.297-.49.661-.341.364-.68.661-.753.661-.073 0 .147-.297.49-.661zm2.248-2.249c.264-.291.539-.53.611-.53.073 0-.083.239-.346.53-.264.291-.539.53-.611.53-.073 0 .083-.239.346-.53zm12.005-.463c-.33-.42-.32-.429.1-.1.254.2.463.408.463.463 0 .218-.217.078-.563-.363zm-3.727-3.954-1.772-1.772-.607.505-.607.505.598-.647.597-.647 1.914 1.914c1.052 1.052 1.854 1.913 1.78 1.913-.072 0-.929-.797-1.903-1.771zM-198.343 20.377v-134.156H67.645l-2.643 2.712c-1.454 1.492-5.73 5.81-9.5 9.595-3.771 3.785-17.691 17.82-30.933 31.19A46008.542 46008.542 0 0 1-6.652-38.784C-10.582-34.83-20.88-24.45-29.54-15.715c-8.658 8.734-22.708 22.903-31.22 31.487-8.514 8.585-24.706 24.92-35.984 36.302-41.104 41.483-52.861 53.34-83.939 84.661l-17.66 17.799z" style="fill:#7f6de2;stroke-width:.264583" transform="matrix(.55278 0 0 .55278 108.69 63.443)"/><path d="M-198.343 426.299v-1.789l63.81-63.63c35.095-34.995 84.952-84.717 110.794-110.492 80.152-79.944 99.352-99.054 99.519-99.054.088 0 18.427 18.897 40.753 41.994 22.325 23.097 41.961 43.382 43.634 45.077 1.674 1.695 5.424 5.568 8.335 8.607 2.91 3.039 6.363 6.603 7.673 7.921 1.31 1.318 4.822 4.95 7.805 8.07 2.983 3.12 6.496 6.751 7.805 8.068 1.31 1.317 4.763 4.89 7.673 7.938s6.363 6.62 7.673 7.937c1.31 1.317 4.763 4.888 7.673 7.935 2.91 3.048 6.482 6.734 7.937 8.192 1.456 1.458 4.968 5.084 7.806 8.059 2.837 2.974 6.35 6.604 7.805 8.066 1.455 1.463 4.967 5.094 7.805 8.07s6.29 6.549 7.673 7.94c1.382 1.391 4.835 4.964 7.673 7.939 2.838 2.975 6.29 6.546 7.673 7.936 1.382 1.39 4.895 5.014 7.805 8.052 2.91 3.038 6.482 6.733 7.938 8.212 3.176 3.228 8.491 8.726 15.478 16.014a923.21 923.21 0 0 0 7.807 8.054c1.456 1.47 4.909 5.042 7.672 7.936a829.026 829.026 0 0 0 7.673 7.937c1.457 1.472 4.91 5.047 7.673 7.945 2.764 2.897 6.003 6.212 7.198 7.366 1.194 1.154 2.842 2.861 3.66 3.794l1.488 1.695H-198.343Z" style="fill:#4a7ddb;stroke-width:.264583" transform="matrix(.55278 0 0 .55278 108.69 63.443)"/><path d="M-198.343 289.344v-134.81l17.661-17.799c31.078-31.32 42.835-43.178 83.94-84.66 11.277-11.382 27.47-27.718 35.982-36.303 8.513-8.584 22.563-22.753 31.221-31.487C-20.88-24.45-10.58-34.83-6.652-38.785a49376.91 49376.91 0 0 0 31.22-31.492 48199.452 48199.452 0 0 1 33.615-33.902l9.538-9.6h273.732l-13.583 13.53c-7.47 7.44-32.93 32.816-56.578 56.39C194.27 32.924 142.893 84.147 4.265 222.373L-99.228 325.562c-33.133 33.033-68.66 68.492-78.95 78.798-10.29 10.306-19.037 18.976-19.437 19.267l-.728.528z" style="fill:#f68808;stroke-width:.264583" transform="matrix(.55278 0 0 .55278 108.69 63.443)"/></svg>