<svg xmlns="http://www.w3.org/2000/svg" width="952.843" height="953.617" viewBox="0 0 252.106 252.311"><path d="M115.445 223.504c-18.399-1.381-31.746-4.719-47.007-11.755-18.747-8.644-36.146-23.021-48.682-40.227C8.232 155.705.4 136.809-2.663 117.429c-1.169-7.394-1.453-11.296-1.453-19.976 0-10.807.814-18.388 3.01-28.046C4.198 46.071 15.677 25.352 32.756 8.286c9.956-9.95 19.721-17.043 32.047-23.28 35.952-18.194 77.53-18.33 113.463-.375 12.844 6.418 22.71 13.524 32.834 23.648 20.906 20.906 33.083 46.566 36.416 76.739.632 5.717.632 19.153 0 24.87-2.914 26.38-12.365 48.78-29.03 68.804-3.613 4.342-11.407 12.093-15.818 15.731C182.84 210.78 160.33 220.232 134.627 223c-3.61.389-16.285.723-19.182.505zm56.962-21.555c11.243-1.22 22.516-5.855 31.408-12.915 6.343-5.036 15.447-15.537 21.365-24.641 10.312-15.864 16.646-33.596 19.03-53.268.493-4.07.582-6.17.582-13.672 0-9.595-.382-14.202-1.835-22.139-8.049-43.969-39.386-80.165-81.74-94.415-8.354-2.811-16.433-4.617-25.618-5.727-6.435-.777-20.308-.85-26.636-.14-16.55 1.856-30.162 5.822-43.842 12.773-4.062 2.065-6.261 3.348-4.974 2.903 1.053-.364 6.407-1.433 8.864-1.77 3.201-.439 12.37-.448 15.478-.015 15.152 2.11 27.902 8.323 38.29 18.66 12.18 12.121 18.757 27.932 18.786 45.156.01 6.074-.452 10.078-1.795 15.549-1.245 5.068-2.473 8.39-4.913 13.29-3.28 6.586-6.343 10.836-12.62 17.51-1.736 1.846-3.99 4.466-5.01 5.823-19.395 25.804-15.231 62.362 9.463 83.092 5.161 4.333 12.274 8.46 18.362 10.654 4.347 1.567 10.305 2.917 14.975 3.392 2.165.22 10.012.157 12.38-.1zm-43.336-49.334c0-.285 3.96-8.022 8.618-16.834 9.824-18.587 13.477-25.981 16.936-34.29 3.414-8.199 5.996-16.842 7.173-24.014.679-4.133.674-15.292-.008-18.918-2.484-13.216-7.877-23.58-19.102-36.71l-.961-1.125 10.539.002 10.539.002 4.935 8.266c24.15 40.453 39.116 73.965 51.902 116.217l2.242 7.408-10.465.069c-5.755.038-10.51.023-10.567-.033-.056-.057-.578-1.934-1.16-4.17-2.647-10.181-6.66-22.57-10.792-33.32-2.23-5.801-7.644-19.193-9.075-22.444l-.627-1.425-1.29 3.277c-9.255 23.51-17.143 40.243-25.958 55.062l-1.845 3.102-10.517.007c-5.785.004-10.517-.054-10.517-.129zm-29.898 20.337c0-.095-.876-1.256-1.946-2.58-9.078-11.23-14.301-21.88-16.32-33.272-.815-4.602-1.002-12.559-.41-17.422 1.275-10.461 4.521-20.69 10.98-34.598 2.77-5.963 5.202-10.753 12.326-24.272 7.07-13.415 8.864-16.92 8.864-17.325 0-.178-3.046-.27-8.96-.27h-8.962l-.744 1.125c-2.03 3.067-6.944 12.05-10.674 19.513-5.728 11.462-10.581 22.58-16.168 37.042-1.21 3.128-2.276 5.778-2.37 5.888-.337.39-9.672-22.58-13.616-33.502-3.243-8.979-6.3-18.717-7.986-25.434a516.746 516.746 0 0 0-.924-3.64l-.26-.991h-9.118c-6.663 0-9.118.081-9.118.302 0 .595 4.525 15.058 7.13 22.786 12.17 36.114 27.66 68.694 49.686 104.507l1.424 2.315h8.583c4.72 0 8.583-.078 8.583-.172z" style="fill:#fff;stroke-width:.264583" transform="translate(4.116 28.738)"/></svg>