<svg xmlns="http://www.w3.org/2000/svg" width="300mm" height="300mm" viewBox="0 0 300 300"><path d="M19.62 297.72c-6.802-2.407-15.974-12.05-17.835-18.75C-.257 271.614-.227 28.385 1.817 21 3.772 13.94 13.89 3.823 20.95 1.868c7.484-2.071 250.616-2.071 258.1 0 7.06 1.955 17.178 12.073 19.133 19.134 2.071 7.483 2.071 250.615 0 258.099-1.955 7.06-12.073 17.178-19.134 19.133-3.723 1.03-42.69 1.458-129.714 1.422-103.794-.042-125.275-.363-129.715-1.934Zm258.764-19.285c2.623-2.624 2.661-4.435 2.661-128.385 0-123.95-.037-125.76-2.66-128.384-2.624-2.623-4.435-2.661-128.385-2.661-123.95 0-125.761.038-128.384 2.66-2.624 2.624-2.661 4.436-2.661 128.385 0 123.95.037 125.761 2.66 128.385 2.624 2.623 4.435 2.66 128.385 2.66 123.95 0 125.76-.037 128.384-2.66zM52.634 233.19c-4.525-1.823-5.74-5.568-5.74-17.684 0-9.333.462-11.805 2.757-14.722 2.648-3.366 3.28-3.505 15.965-3.505 17.904 0 18.529.624 18.529 18.529 0 12.684-.14 13.317-3.506 15.965-2.918 2.295-5.313 2.743-14.302 2.673-5.938-.047-12.104-.612-13.703-1.256zm51.467-17.274v-9.324h149.127l-.393 8.98-.394 8.98-74.17.344-74.17.344zm-52.685-48.924c-3.159-2.11-4.523-7.219-4.523-16.943s1.364-14.833 4.523-16.942c.805-.538 7.567-.987 15.025-.998 17.173-.026 17.704.512 17.704 17.94 0 17.429-.53 17.966-17.704 17.94-7.458-.011-14.22-.46-15.025-.997zm52.685-16.943v-8.647h149.005v17.295H104.101ZM49.533 99.166c-2.565-3.261-2.826-4.974-2.424-15.92.595-16.222 1.239-16.866 17.462-17.461 10.945-.402 12.658-.141 15.92 2.424 3.546 2.79 3.654 3.263 3.654 16.083 0 17.904-.625 18.529-18.53 18.529-12.82 0-13.291-.108-16.082-3.655zm54.568-14.982V74.86l74.17.344 74.17.343.394 8.98.393 8.98H104.101z" style="fill:#fff;stroke-width:1.33041"/></svg>