<svg xmlns="http://www.w3.org/2000/svg" width="300mm" height="300mm" viewBox="0 0 300 300"><path d="M36.436 299.056c-3.03-.728-7.396-3.519-9.506-6.08-4.012-4.867-3.81-.479-3.809-82.228l.001-74.324 1.79-3.784c1.709-3.613 4.29-6.275 8.196-8.454 1.184-.66 5.632-.946 18.414-1.183l16.853-.312.345-27.152c.37-29.076.463-30.036 3.991-40.843 7.187-22.015 25.191-40.688 47.51-49.273C129.8 1.74 136.868.483 148.273.433c13.375-.057 23.327 2.038 34.643 7.293 19.157 8.895 35.1 26.588 41.723 46.304 3.865 11.504 4.045 13.222 4.428 42.133l.352 26.528 16.541.312c18.934.358 19.252.434 24.046 5.765 4.996 5.558 4.708.24 4.521 83.534-.165 73.75-.17 73.936-1.484 76.738-1.717 3.66-5.367 7.328-8.938 8.98l-2.852 1.319-111.42.095c-61.28.053-112.308-.118-113.396-.378zm122.612-54.692.165-20.644 2.453-1.38c3.012-1.692 7.017-6.153 8.763-9.76 5.75-11.878.439-26.387-11.72-32.016-3.094-1.433-4.403-1.656-9.812-1.674-5.554-.019-6.655.172-9.987 1.727-10.996 5.133-16.457 17.057-13.056 28.508 1.667 5.613 5.871 10.957 10.641 13.526l2.102 1.132v20.352c0 11.194.195 20.547.432 20.784.237.238 4.802.355 10.143.26l9.712-.17zm44.937-145.86c-.218-23.138-.308-24.754-1.614-29.07-5.666-18.722-19.945-32.75-38.914-38.23-7.003-2.023-18.43-2.314-26.366-.672-22.062 4.566-39.783 23.264-43.137 45.514-.949 6.292-1.377 45.67-.507 46.541.229.229 25.246.416 55.593.416h55.177z" style="fill:#fff;stroke-width:.624195"/></svg>