<svg xmlns="http://www.w3.org/2000/svg" width="265" height="265" viewBox="0 0 70.115 70.115"><path d="M103.66 226.845c-1.892-.186-4.392-.41-5.556-.497-1.164-.087-2.533-.216-3.043-.286-.509-.07-1.58-.184-2.381-.253l-3.44-.297a189.561 189.561 0 0 1-2.645-.242c-.364-.04-2.275-.222-4.248-.406l-3.586-.334.115-1.613c.062-.888.488-6.733.945-12.99l.83-11.377 1.697-.605c2.642-.942 4.386-1.033 6.05-.318 1.547.666 2.08.563.943-.181-1.217-.798-4.323-.81-6.658-.027l-1.91.64.024-1.078c.013-.593.162-2.861.33-5.041l.308-3.964 4.364-2.703 4.363-2.704-.06-3.703c-.043-2.577.067-4.332.362-5.769.614-2.99.651-3.038 2.052-2.617 1.937.584 4.24 2.465 6.57 5.367l.68.845 3.865-2.352 3.866-2.353v27.635c0 15.199-.09 27.618-.199 27.597-.109-.02-1.746-.188-3.638-.374zm-11.896-5.906c3.237-1.47 6.144-7.696 6.996-14.982.302-2.584.333-2.668 1.348-3.607.78-.723 1.039-1.166 1.039-1.786 0-.556-.13-.824-.397-.824a.391.391 0 0 0-.397.383c0 .93-3.489 2.789-6.307 3.36-1.483.302-1.765.29-2.445-.1-.736-.422-.781-.418-1.058.1-.4.747-2.862 1.821-4.582 1.999-1.233.127-1.495.07-1.907-.41-.351-.411-.532-.473-.684-.233-.347.545-.243.938.416 1.57.58.558.642.874.777 3.914.3 6.785 2.414 10.868 5.736 11.076.218.014.878-.193 1.465-.46zm-3.178-1.662c-1.223-.961-2.2-2.508-2.058-3.254.202-1.057 2.08-3.002 3.234-3.348 2.005-.6 4.159.426 4.769 2.274.35 1.063.17 1.508-1.258 3.088-1.688 1.868-3.334 2.304-4.687 1.24zm-3.034-5.53c-.172-.792-.383-2.701-.467-4.243l-.153-2.803 1.494-.154c.821-.085 2.177-.471 3.014-.858 1.139-.527 2.018-.721 3.505-.773 1.179-.041 2.601-.292 3.505-.618l1.522-.55v.74c0 2.228-1.883 9.804-2.436 9.804-.116 0-.21-.175-.21-.388 0-.583-1.477-2.148-2.382-2.523-.457-.19-1.406-.279-2.23-.21-1.61.133-3.088 1.056-3.824 2.388-.955 1.727-1 1.733-1.338.188zm-.044-12.004c.67-.337 1.963-.882 2.873-1.211.91-.33 1.653-.702 1.653-.828 0-.31.129-.346-2.492.711-2.461.992-3.35 1.472-4.32 2.33-.922.814-.704 1.101.235.31.458-.384 1.38-.974 2.05-1.312zm-2.319-1.327c.81-.368 2.445-.78 3.802-.955 3.013-.392 3.297-.63.53-.444-2.074.14-4.553.87-5.572 1.64-.747.565-.371.492 1.24-.24zm8.62-1.34c.501-1.052.265-1.522-.646-1.283-.662.173-.98.903-.732 1.682.258.813.887.63 1.378-.4zm7.106-1.5c1.68-.244 2.45-.251 3.035-.03.636.24.784.226.784-.073 0-.93-3.136-.77-7.46.379-1.478.393-2.73.843-2.783 1-.054.163.817.02 2.039-.333a39.272 39.272 0 0 1 4.385-.944zm-4.153-.585c2.593-1.56 4.85-2.604 7.515-3.474 2.728-.891 3.308-1.186 2.334-1.186-.957 0-4.366 1.237-6.934 2.515-2.235 1.112-4.732 2.654-4.732 2.922 0 .251.375.09 1.817-.777zm-.188-1.829c2.74-2.723 6.144-4.89 10.872-6.923 1.676-.72 2.502-1.452 1.19-1.055-1.195.363-6.752 3.234-8.413 4.349-2.255 1.513-6.137 5.296-5.435 5.296.06 0 .863-.75 1.786-1.667zm-7.729-.177c.71-.38.872-.942 1.047-3.646.14-2.159.012-3.068-.299-2.136-.057.172-.234.231-.394.132-.434-.268-.093-1.195.474-1.288.344-.056.427-.191.27-.44-.302-.483-1.265-.158-1.647.555-.331.619-.66 6.003-.408 6.662.188.488.309.508.957.16zm11.036-5.174c.445-.49.609-1.106.748-2.823.097-1.209.138-2.912.09-3.785-.074-1.367-.161-1.598-.63-1.665-.803-.115-1.912.888-2.223 2.008-.388 1.396-.356 6.482.043 6.881.421.422 1.267.157 1.972-.616zm-.571-5.992c-.21-.54.32-1.612.73-1.475.51.17.497.624-.04 1.282-.452.555-.54.58-.69.193zm-3.727-4.465c.211-1.594.677-1.876 1.766-1.07.518.383.912.5 1.178.352.338-.19.307-.31-.203-.787-.683-.64-2.032-1.388-2.507-1.39-.406-.003-.869 1.65-.87 3.106-.003 1.554.42 1.414.636-.21zm26.257 3.54c-1.21-.616-1.274-.702-1.125-1.495.715-3.819.78-7.675.155-9.318l-.266-.7-.857.53c-.782.483-2.348 2.183-3.415 3.705l-.423.604-1.213-.77-1.213-.769 1.876-2.882c1.898-2.92 5.673-7.001 7.186-7.771.648-.33.776-.33.99.005.983 1.532 1.453 6.276 1.068 10.75-.294 3.41-.984 7.847-1.315 8.46-.116.213-.552.108-1.448-.349zm-3.083-4.645c-.8-.57-1.623-1.134-1.827-1.25-.308-.176-.273-.375.204-1.146.604-.978 2.515-2.836 2.917-2.836.49 0 .796 5.937.32 6.187-.088.045-.814-.385-1.614-.955z" style="fill:#fff;stroke-width:.264583" transform="translate(-71.946 -160.946)"/></svg>