<svg xmlns="http://www.w3.org/2000/svg" width="300mm" height="300mm" viewBox="0 0 300 300"><path d="M237.436 218.654c-3.448-2.792-4.23-5.379-4.828-15.969-.654-11.567-1.073-12.727-4.945-13.699-5.684-1.426-5.551-7.05.201-8.495 3.992-1.001 4.431-1.995 4.431-10.028 0-14.327 4.906-21.147 15.211-21.147 3.105 0 4.286.977 4.286 3.544 0 2.232-1.181 3.545-3.19 3.545-5.287 0-7.444 3.787-7.444 13.065 0 5.712-1.032 9.952-2.934 12.053-2.73 3.016-2.73 3.466 0 6.482 1.977 2.185 2.934 6.403 2.934 12.94 0 10.11 2.049 13.95 7.444 13.95 2.009 0 3.19 1.313 3.19 3.545 0 4.708-8.646 4.837-14.356.214zm32.08-.214c0-1.95 1.14-3.545 2.532-3.545 5.338 0 8.103-5.365 8.103-15.724 0-5.584.957-11.11 2.127-12.28 1.654-1.654 1.654-2.6 0-4.254-1.17-1.17-2.127-6.297-2.127-11.394 0-9.456-2.939-14.838-8.103-14.838-1.392 0-2.532-1.595-2.532-3.545 0-4.782 6.897-4.714 13.055.129 3.93 3.092 4.67 5.074 4.67 12.524 0 10.496 2.372 15.706 7.152 15.706 2.3 0 3.482 1.203 3.482 3.545 0 2.342-1.181 3.545-3.482 3.545-4.886 0-7.152 5.257-7.152 16.593 0 8.407-.638 10.238-4.67 13.41-6.158 4.843-13.055 4.911-13.055.128zm-117.75-83.408c-8.947-9.904-11.637-17.05-11.637-30.915 0-13.183 4.8-24.815 13.74-33.3 4.564-4.332 5.485-4.61 7.443-2.251 1.85 2.229 1.429 3.648-2.45 8.258-13.403 15.928-12.856 41.142 1.217 56.133 3.392 3.613 3.501 4.302 1.065 6.738-2.436 2.436-3.394 1.96-9.378-4.663zm120.782 4.061c-2.911-3.217-2.874-3.547.756-6.77 6.006-5.335 10.862-18.066 10.77-28.24-.094-10.487-3.173-18.879-9.816-26.757-4.515-5.354-4.557-5.615-1.368-8.5 3.122-2.826 3.572-2.62 8.845 4.037 15.796 19.944 15.38 44.545-1.078 63.727-4.927 5.743-5.123 5.803-8.109 2.503zm-91.653-3.957c0-2.32 1.182-3.545 3.418-3.545 1.88 0 4.68-1.26 6.22-2.8 2.553-2.554 2.537-3.25-.187-7.86-2.476-4.192-2.593-5.535-.685-7.834 1.266-1.526 3.772-2.775 5.568-2.775 6.8 0 9.335 13.778 3.794 20.619-6.385 7.882-18.128 10.6-18.128 4.195zm44.31.222c0-2.503 1.117-3.767 3.329-3.767 5.503 0 8.25-4.674 5.626-9.576-5.104-9.537 3.835-16.395 9.7-7.442 5.69 8.683-1.166 21.054-12.98 23.416-4.96.992-5.674.661-5.674-2.631zM49.6 121.093c-4.379-4.379-5.181-6.588-5.181-14.267 0-14.746 6.714-23.09 18.579-23.09 12.7 0 19.593 8.975 18.18 23.673-.688 7.163-1.946 9.88-6.428 13.886-7.861 7.024-18.006 6.942-25.15-.202zm17.307-3.301c5.638-3.585 6.8-18.675 1.904-24.751-2.83-3.514-9.757-2.579-12.77 1.724-7.646 10.915 1.023 29.285 10.866 23.027zm-54.392-6.584V97.915H6.311c-5.022 0-6.204-.675-6.204-3.545s1.182-3.545 6.204-3.545c6.067 0 6.203-.157 6.203-7.17 0-10.364 6.239-16.266 16.416-15.529 6.047.438 7.615 1.264 8.04 4.237.456 3.19-.211 3.585-4.89 2.899-7.098-1.042-10.704 2.185-10.704 9.577 0 5.913.098 5.986 7.976 5.986 6.795 0 7.976.526 7.976 3.545 0 3.02-1.181 3.545-7.976 3.545h-7.976v13.293c0 12.998-.098 13.294-4.43 13.294-4.333 0-4.432-.296-4.432-13.294zm79.76-6.203V85.508h4.43c2.438 0 4.432.843 4.432 1.873 0 1.05 1.731.66 3.939-.886 8.764-6.139 17.532-2.09 19.932 9.205 1.168 5.495.979 5.76-4.116 5.76-4.504 0-5.428-.761-5.901-4.859-.706-6.119-5.355-7.185-10.2-2.34-3.041 3.04-3.654 5.885-3.654 16.947 0 12.998-.099 13.294-4.431 13.294h-4.431zm97.838-7.444c-4.452-4.452-1.138-12.053 5.255-12.053 1.72 0 3.981 1.595 5.025 3.545 3.83 7.155-4.631 14.157-10.28 8.508zm42.241-1.31c-4.419-8.258 6.304-14.682 11.273-6.755 1.411 2.25 1.411 3.953 0 6.204-2.87 4.58-8.957 4.877-11.273.55z" style="fill:#fff;stroke-width:1.77243"/></svg>