<svg xmlns="http://www.w3.org/2000/svg" width="300mm" height="300mm" viewBox="0 0 300 300"><g style="fill:#fff"><path d="M561.937 472.063v-1.677l2.427-.159c1.334-.087 4.155-.32 6.267-.516 2.113-.197 3.863-.332 3.89-.3.025.031.126.813.222 1.737.147 1.416.115 1.68-.204 1.68-.209 0-2.206.162-4.438.361-2.231.199-4.981.404-6.11.457l-2.054.095zm-17.794 1.244c-6.02-.608-7.55-.798-7.832-.972-.228-.142-.263-.608-.131-1.746l.18-1.552 1.403.157c5.426.605 8.567.892 9.802.894l1.431.003v3.484l-1.43-.033a54.837 54.837 0 0 1-3.423-.234zm43.458-3.65a42.349 42.349 0 0 1-.39-1.686l-.153-.752 2.185-.47c1.202-.258 3.965-.958 6.141-1.555s3.984-1.056 4.019-1.019c.094.102.86 2.742.86 2.966 0 .31-5.784 1.933-11.75 3.297-.614.141-.694.073-.912-.78zm-68.593-.677c-5.21-1.372-8.337-2.342-8.337-2.586 0-.311.796-2.63.97-2.828.087-.098 1.668.267 3.514.811 1.845.544 4.531 1.278 5.969 1.631 1.437.353 2.643.672 2.68.709.078.076-.617 3.14-.736 3.243-.043.038-1.87-.403-4.06-.98zm92.986-7.615c-.322-.83-.545-1.536-.497-1.57.049-.033 1.489-.661 3.2-1.395a133.45 133.45 0 0 0 5.532-2.536c1.332-.662 2.513-1.203 2.624-1.203.18 0 1.55 2.549 1.55 2.884 0 .252-11.06 5.328-11.61 5.328-.118 0-.478-.678-.8-1.508zm-115.508-.206c-2.562-1.11-8.789-4.16-9.298-4.555-.446-.346-.439-.405.217-1.71.374-.745.708-1.385.742-1.425.035-.04 1.73.746 3.766 1.747 2.036 1 4.628 2.229 5.759 2.73l2.057.913-.626 1.416c-.344.779-.626 1.458-.626 1.51 0 .188-.408.06-1.991-.626zm138.406-11.492c-.431-.693-.784-1.3-.784-1.349 0-.048 1.479-1.073 3.286-2.277 1.807-1.204 4.143-2.824 5.19-3.6l1.903-1.411 1.058 1.356c.583.745 1.019 1.387.97 1.425-2.15 1.698-10.188 7.117-10.556 7.117-.156 0-.636-.567-1.067-1.26zm-162.421-1.899c-3.077-2.131-7.276-5.242-7.444-5.514-.061-.1.332-.76.873-1.47l.984-1.291 2.793 2.067c1.537 1.136 3.83 2.78 5.096 3.652 1.266.872 2.302 1.676 2.302 1.787 0 .26-1.578 2.677-1.743 2.67-.068-.002-1.356-.857-2.861-1.9zm79.698-9.217a14.252 14.252 0 0 1 2.116 0c.581.053.105.096-1.058.096s-1.64-.043-1.058-.096zm6.969 0a14.252 14.252 0 0 1 2.115 0c.582.053.106.096-1.058.096-1.163 0-1.64-.043-1.057-.096zm-11.324-.238c.24-.062.632-.062.871 0 .24.063.044.114-.435.114-.48 0-.675-.051-.436-.114zm16.923 0c.24-.062.631-.062.871 0 .24.063.044.114-.435.114-.48 0-.676-.051-.436-.114zm-19.785-.242a.96.96 0 0 1 .622 0c.172.069.032.126-.31.126-.343 0-.483-.057-.312-.126zm22.896 0a.96.96 0 0 1 .622 0c.171.069.031.126-.311.126-.342 0-.482-.057-.311-.126zm-25.136-.249a.96.96 0 0 1 .623 0c.17.07.03.126-.311.126-.343 0-.483-.057-.312-.126zm27.376 0a.96.96 0 0 1 .622 0c.17.07.03.126-.311.126-.343 0-.483-.057-.311-.126zm-29.102-.254c.18-.072.394-.063.477.02.083.083-.064.141-.327.13-.29-.011-.349-.07-.15-.15zm31.092.005a.96.96 0 0 1 .623 0c.17.07.03.126-.311.126-.343 0-.483-.057-.312-.126zm-32.834-.254c.18-.072.394-.063.477.02.083.083-.064.141-.327.13-.29-.011-.349-.07-.15-.15zm34.592 0c.18-.072.394-.063.477.02.083.083-.064.141-.327.13-.29-.011-.348-.07-.15-.15zm-36.085-.249c.18-.072.394-.063.477.02.082.083-.065.141-.327.13-.29-.011-.349-.07-.15-.15zm117.794-2.803c-.567-.673-1.014-1.314-.993-1.427.02-.112 2.035-2.16 4.478-4.55l4.441-4.346 1.121 1.1c.617.606 1.122 1.205 1.122 1.333 0 .296-4.202 4.59-6.996 7.149l-2.143 1.962zm-205.42-5.273-4.426-4.527 1.191-1.068c.656-.588 1.304-1.057 1.44-1.042.138.014 2.205 2.024 4.596 4.467l4.346 4.44-1.1 1.122c-.606.617-1.218 1.124-1.36 1.128-.143.004-2.252-2.03-4.686-4.52zm222.865-13.678-1.291-.984 2.067-2.794c1.137-1.536 2.78-3.829 3.652-5.095.872-1.266 1.683-2.302 1.802-2.302.163 0 1.903 1.084 2.628 1.637.206.157-6.814 10.056-7.378 10.405-.104.064-.77-.326-1.48-.867zm-236.724-2.533c-2.196-3.053-5.978-8.75-5.978-9.007 0-.144.196-.38.436-.523.24-.143.846-.51 1.348-.814l.912-.553 1.379 2.115c.758 1.164 2.38 3.513 3.606 5.222l2.227 3.106-1.335 1.008c-.734.554-1.367 1.005-1.407 1.001-.04-.004-.575-.704-1.188-1.555zm47.247-.616c-.31-.395-.3-.403.094-.094.24.188.436.384.436.436 0 .204-.205.073-.53-.342zm145.866.342c0-.052.196-.248.436-.436.395-.31.404-.3.094.094-.325.415-.53.547-.53.342zm1.867-1.648c.248-.274.506-.498.575-.498.068 0-.078.224-.326.498-.248.273-.507.497-.575.497-.068 0 .078-.224.326-.497zm-149.475-.187c-.31-.395-.3-.404.094-.094.415.325.547.53.342.53-.052 0-.248-.197-.436-.436zm-2.348-2.115-.73-.81.808.732c.754.681.923.886.73.886-.042 0-.406-.364-.808-.808zm153.69.73c0-.042.363-.406.808-.808l.81-.731-.732.809c-.681.753-.887.923-.887.73zm-160.658-7.699-.731-.808.809.73c.445.403.809.766.809.81 0 .192-.206.022-.887-.732zm167.626.731c0-.042.364-.406.808-.809l.81-.73-.732.808c-.681.754-.886.924-.886.731zm-169.758-3.095c-.31-.394-.3-.403.094-.094.24.188.436.384.436.436 0 .205-.204.073-.53-.342zm172.246.342c0-.052.196-.248.436-.436.395-.31.403-.3.094.094-.325.415-.53.547-.53.342zm-173.739-2.084c-.31-.394-.3-.403.094-.094.24.188.436.384.436.436 0 .205-.205.073-.53-.342zm175.232.342c0-.052.196-.248.436-.436.395-.31.404-.3.094.094-.325.415-.53.547-.53.342zm42.93-4.054c-.685-.353-1.277-.67-1.317-.704-.04-.034.748-1.728 1.75-3.765 1.002-2.036 2.232-4.62 2.733-5.743l.91-2.04 1.508.65c.83.358 1.508.74 1.508.85 0 .311-4.098 9.03-4.836 10.29-.363.62-.74 1.12-.836 1.114-.097-.006-.736-.3-1.42-.652zm-264.91-4.634c-1.392-2.931-3.74-8.285-3.74-8.528 0-.127 2.692-1.355 2.969-1.355.093 0 .544.924 1.002 2.053.458 1.13 1.6 3.666 2.538 5.637.937 1.971 1.704 3.656 1.704 3.744 0 .15-2.596 1.507-2.885 1.507-.075 0-.79-1.376-1.589-3.058zm127.474-5.326c.24-.063.632-.063.871 0 .24.063.044.114-.435.114-.48 0-.675-.051-.436-.114zm4.231 0c.24-.063.631-.063.871 0s.044.114-.436.114c-.479 0-.675-.051-.435-.114zm51.144-.004c.31-.06.758-.057.996.005s-.015.11-.563.108c-.547-.003-.742-.054-.433-.113zm4.109.004c.242-.063.578-.059.746.009.169.068-.03.12-.44.115-.41-.005-.549-.061-.306-.124zm23.393 0c.242-.063.578-.059.746.009.169.068-.03.12-.44.115-.41-.005-.548-.061-.306-.124zm3.355.008a.96.96 0 0 1 .622 0c.171.069.031.125-.311.125-.342 0-.482-.056-.311-.125zm-79.621-.254c.18-.072.394-.063.477.02.082.082-.065.141-.327.13-.29-.012-.349-.07-.15-.15zm83.866-3.5c.059-2.373-.002-3.176-.249-3.333-.244-.155-.217-.208.11-.21.393-.003.436.314.436 3.216 0 1.772-.084 3.273-.187 3.337-.103.064-.152-1.29-.11-3.01zm-160.852 1.37c-.066-.173-.09-17.056-.055-37.518l.064-37.206 4.853-.008 4.853-.008-4.791.076-4.79.077v74.648h46.288v-8.209l-18.478-.066-18.478-.065 18.608-.06 18.609-.061-.068 4.293-.069 4.293-23.213.063c-18.44.05-23.239 0-23.333-.249zm92.66.124a57.01 57.01 0 0 1 3.982 0c1.055.047.125.084-2.065.084s-3.052-.038-1.917-.084zm-32.45-1.62-.474-.56.56.475c.526.445.674.646.474.646-.047 0-.299-.252-.56-.56zm55.365.125c-.31-.395-.301-.403.094-.094.414.325.546.53.341.53-.052 0-.248-.196-.435-.436zm-29.46-.809c.249-.273.507-.497.576-.497.068 0-.078.224-.326.497-.248.274-.507.498-.575.498-.068 0 .078-.224.326-.498zm-27.53-.933c-.31-.395-.301-.403.094-.094.24.188.435.384.435.436 0 .204-.204.073-.53-.342zm54.999-.249c-.31-.395-.301-.403.094-.094.414.325.546.53.341.53-.051 0-.247-.196-.435-.436zm-25.602-.684c.322-.342.64-.622.71-.622.068 0-.14.28-.46.622-.322.342-.641.622-.71.622-.068 0 .139-.28.46-.622zm56.866-.125c.248-.273.506-.497.575-.497.068 0-.079.224-.326.497-.248.274-.507.498-.575.498-.069 0 .078-.224.326-.498zm12.77-.667c.18-.072.394-.063.477.02.082.082-.065.14-.327.13-.29-.012-.349-.07-.15-.15zm-84.007-.25c.239-.063.631-.063.87 0 .24.062.044.113-.435.113s-.675-.051-.435-.114zm2.488 0c.24-.063.632-.063.871 0 .24.062.044.113-.435.113-.48 0-.675-.051-.436-.114zm52.884-.011a14.252 14.252 0 0 1 2.115 0c.582.052.106.095-1.058.095-1.163 0-1.639-.043-1.057-.095zm-2.473-.237c.18-.072.394-.063.477.02.082.082-.065.141-.327.13-.29-.012-.349-.07-.15-.15zm6.719 0c.18-.072.394-.063.477.02.083.082-.064.141-.327.13-.29-.012-.348-.07-.15-.15zm-44.002-.173c0-.052.196-.248.435-.435.395-.31.404-.301.094.094-.325.414-.53.546-.53.341zm66.298-.466-.474-.56.56.474c.526.446.674.646.474.646-.047 0-.299-.252-.56-.56zm-88.728-2.115c-.31-.395-.3-.404.094-.094.24.188.436.384.436.435 0 .205-.205.073-.53-.341zm18.075-.81c.534-.547 1.028-.995 1.096-.995.068 0-.313.448-.848.996-.534.547-1.028.995-1.096.995-.068 0 .313-.448.848-.995zm69.675-16.3c0-9.444.03-13.271.069-8.505.037 4.766.037 12.494 0 17.172-.038 4.678-.07.778-.07-8.667zm-11.441 14.808c.534-.548 1.028-.996 1.096-.996.069 0-.313.448-.847.996-.535.547-1.028.995-1.097.995-.068 0 .313-.448.848-.995zm-87.427.124c.005-.41.06-.548.124-.306.063.242.058.578-.01.746-.068.169-.12-.03-.114-.44zm162.086-1.104c-.727-.26-1.232-.588-1.214-.79.017-.19.592-2.308 1.277-4.706.686-2.398 1.38-5.002 1.543-5.786.163-.784.372-1.425.465-1.424.093 0 .56.101 1.04.224.479.123 1.17.29 1.534.372l.662.147-.944 3.672c-1.387 5.395-2.475 8.776-2.818 8.754-.165-.01-.86-.22-1.545-.463zm-107.336-.389c.005-.41.06-.548.124-.306.063.242.059.578-.01.746-.068.169-.12-.03-.114-.44zm8.93-.27c.012-.29.07-.348.15-.15.072.18.063.394-.02.477-.082.083-.14-.064-.13-.327zm-185.283-3.4c-.82-2.705-2.656-10.199-2.53-10.325.131-.13 3.195-.843 3.253-.756.025.038.252 1.02.505 2.183.252 1.164.946 3.896 1.54 6.072.596 2.176 1.053 3.984 1.016 4.019-.102.094-2.742.86-2.966.86-.108 0-.476-.925-.818-2.054zM543.39 347.65c0-11.019.03-15.527.068-10.017.037 5.509.037 14.524 0 20.033-.037 5.51-.068 1.002-.068-10.016zm81.529 19.017c.011-.29.07-.349.15-.15.072.18.063.394-.02.477-.082.082-.141-.065-.13-.327zm-35.31-.477c.005-.41.06-.549.124-.306.063.242.059.578-.01.746-.068.169-.12-.03-.114-.44zm8.93-.02c.012-.29.07-.35.15-.151.072.18.063.394-.02.477-.082.083-.14-.064-.13-.327zm26.714-6.077c0-2.806.036-3.954.08-2.551a97.718 97.718 0 0 1 0 5.102c-.044 1.403-.08.255-.08-2.551zm-56.578 2.592c.012-.29.071-.349.15-.15.073.18.064.394-.019.477-.083.082-.142-.065-.13-.327zm.287-2.343c0-.48.051-.675.114-.436.063.24.063.632 0 .871-.063.24-.114.044-.114-.435zm23.336-1.836c0-.052.196-.248.435-.436.395-.31.404-.3.094.094-.325.415-.53.546-.53.342zm20.609-.823c.18-.072.394-.063.477.02.082.082-.065.141-.327.13-.29-.012-.349-.07-.15-.15zm1.493-.249c.18-.072.394-.063.477.02.083.082-.064.141-.327.13-.29-.011-.349-.07-.15-.15zm1.742-.249c.18-.072.394-.063.477.02.083.083-.064.141-.327.13-.29-.011-.349-.07-.15-.15zm1.742-.249c.18-.072.394-.063.477.02.083.083-.064.142-.327.13-.29-.011-.348-.07-.15-.15zm-13.19-4.977c.18-.072.395-.063.477.02.083.082-.064.141-.326.13-.29-.011-.35-.07-.15-.15zm2.987-.498c.18-.072.394-.063.477.02.082.083-.065.141-.327.13-.29-.011-.349-.07-.15-.15zm1.742-.248c.18-.072.394-.064.477.02.082.082-.065.14-.327.13-.29-.012-.349-.071-.15-.15zm1.726-.244a.96.96 0 0 1 .622 0c.171.069.031.125-.31.125-.343 0-.483-.056-.312-.125zm2.007-.254c.18-.072.394-.063.477.02.082.082-.065.14-.327.13-.29-.012-.349-.07-.15-.15zm1.726-.244a.96.96 0 0 1 .622 0c.171.07.031.126-.31.126-.343 0-.483-.057-.312-.126zm2.007-.254c.18-.072.394-.063.477.02.082.082-.065.141-.327.13-.29-.012-.349-.07-.15-.15zm1.493-.249c.18-.072.394-.063.477.02.082.082-.065.141-.327.13-.29-.011-.349-.07-.15-.15zM444.99 348.5c.012-.29.07-.348.15-.15.072.18.063.394-.02.477-.082.083-.141-.064-.13-.326zm178.913-.725c.322-.342.64-.622.71-.622.068 0-.14.28-.46.622-.322.342-.641.622-.71.622-.068 0 .139-.28.46-.622zm-179.411-1.763c.012-.29.07-.349.15-.15.072.18.063.394-.02.477-.082.082-.14-.065-.13-.327zm224.227 0c.012-.29.07-.349.15-.15.072.18.063.394-.02.477-.082.082-.141-.065-.13-.327zm-224.476-1.244c.012-.29.071-.35.15-.15.072.179.064.394-.02.476-.082.083-.14-.064-.13-.326zm257.836.211-.839-.102.158-1.413c.606-5.434.893-8.577.895-9.812l.003-1.431H705.852l-.17 2.55c-.207 3.087-.866 9.352-1.048 9.955-.133.443-.615.49-2.554.253zm-76.854-1.684c0-.821.048-1.127.103-.68.056.448.054 1.12-.003 1.493-.057.374-.102.008-.1-.813zm-181.23-.02c.011-.29.07-.35.15-.15.072.179.063.393-.02.476-.083.083-.142-.064-.13-.327zm147.825 0c.012-.29.07-.35.15-.15.072.179.063.393-.02.476-.082.083-.141-.064-.13-.327zm8.71 0c.012-.29.07-.35.15-.15.072.179.063.393-.02.476-.082.083-.14-.064-.13-.327zm68.686 0c.012-.29.071-.35.15-.15.073.179.064.393-.019.476-.083.083-.141-.064-.13-.327zm-260.829-.932c0-.214-.162-2.215-.361-4.447-.199-2.232-.404-4.982-.457-6.11l-.095-2.054h3.355l.159 2.427c.087 1.334.32 4.154.516 6.267.197 2.113.332 3.865.3 3.895-.031.03-.813.134-1.737.232-1.433.152-1.68.12-1.68-.21zm35.358-.562c.012-.29.071-.349.15-.15.073.18.064.394-.019.477-.083.083-.141-.064-.13-.327zm225.72 0c.012-.29.071-.349.15-.15.073.18.064.394-.02.477-.082.083-.14-.064-.13-.327zm-77.377-1.099c0-.342.057-.482.126-.311a.96.96 0 0 1 0 .622c-.07.171-.126.031-.126-.31zm-148.591-.643c.011-.29.07-.349.15-.15.072.18.063.394-.02.477-.082.083-.141-.064-.13-.327zm226.237-.103c0-.343.056-.483.125-.312a.96.96 0 0 1 0 .623c-.069.17-.125.03-.125-.311zm-226.467-1.991c0-.343.057-.483.126-.312a.96.96 0 0 1 0 .623c-.07.17-.126.03-.126-.311zm226.716 0c0-.343.056-.483.125-.312a.96.96 0 0 1 0 .623c-.069.17-.125.03-.125-.311zm-36.603-.146c.012-.29.07-.348.15-.15.072.18.063.394-.02.477-.082.083-.14-.064-.13-.327zm-190.352-2.219c.005-.41.06-.548.124-.306.063.242.058.578-.01.747-.068.168-.12-.03-.114-.44zm227.213 0c.005-.41.06-.548.124-.306.063.242.059.578-.01.747-.068.168-.12-.03-.114-.44zm-60.57-1.29c.18-.071.395-.063.478.02.082.083-.065.142-.327.13-.29-.011-.349-.07-.15-.15zm6.72 0c.18-.071.394-.063.477.02.083.083-.064.142-.327.13-.29-.011-.349-.07-.15-.15zm-3.5-.243a.96.96 0 0 1 .622 0c.171.069.031.125-.31.125-.343 0-.483-.056-.312-.125zm-170.098-1.453c.003-.548.054-.742.113-.433.06.31.058.758-.005.996-.062.238-.11-.016-.108-.563zm227.71 0c.004-.548.055-.742.114-.433.06.31.057.758-.005.996s-.11-.016-.108-.563zm-227.917-8.088c0-2.67.036-3.761.081-2.427a87.63 87.63 0 0 1 0 4.853c-.045 1.335-.081.243-.081-2.426zm228.208.124c0-2.6.037-3.63.082-2.289.044 1.342.044 3.47 0 4.729-.045 1.259-.082.161-.082-2.44zm-63.113 1.946c.18-.072.394-.063.477.02.082.082-.065.14-.327.13-.29-.012-.349-.07-.15-.15zm11.696 0c.18-.072.395-.063.477.02.083.082-.064.14-.326.13-.29-.012-.35-.07-.15-.15zm-9.721-.244a.96.96 0 0 1 .622 0c.171.069.031.126-.31.126-.343 0-.483-.057-.312-.126zm7.346-.008c.242-.063.578-.059.747.009.168.068-.03.12-.44.115-.411-.005-.549-.061-.307-.124zm85.428-9.253a287.566 287.566 0 0 0-.515-6.244c-.197-2.117-.276-3.923-.176-4.014.101-.091.865-.238 1.698-.328l1.514-.162.31 3.18c.27 2.766.742 9.598.67 9.681-.015.016-.773.087-1.686.157l-1.659.127zm-259.637-.654c.003-.547.054-.742.113-.432.06.31.058.757-.005.995-.062.238-.11-.015-.108-.563zm227.71 0c.004-.547.055-.742.114-.432.06.31.057.757-.005.995s-.11-.015-.108-.563zm-262.738-2.426c.101-1.54.367-4.424.59-6.408l.405-3.609 1.612.077c.886.042 1.653.118 1.703.169.051.05-.09 1.68-.312 3.62-.222 1.94-.474 4.747-.56 6.239l-.155 2.712h-3.467zm35.263-.56c.005-.41.06-.548.124-.306.063.242.058.578-.01.746-.068.169-.12-.03-.114-.44zm227.213 0c.005-.41.06-.548.124-.306.063.242.059.578-.01.746-.068.169-.12-.03-.114-.44zm-226.974-2.364c0-.342.057-.482.126-.31a.96.96 0 0 1 0 .621c-.07.171-.126.031-.126-.31zm226.716 0c0-.342.056-.482.125-.31a.96.96 0 0 1 0 .621c-.069.171-.125.031-.125-.31zm-66.673-.427a5.5 5.5 0 0 1 1.369 0c.376.057.068.104-.685.104-.752 0-1.06-.047-.684-.104zm-3.36-.235a.96.96 0 0 1 .622 0c.172.069.032.125-.31.125-.343 0-.483-.056-.312-.125zm7.466 0a.96.96 0 0 1 .622 0c.171.069.031.125-.31.125-.343 0-.483-.056-.312-.125zm-9.192-.254c.18-.072.394-.063.477.02.082.082-.065.14-.327.13-.29-.012-.349-.07-.15-.15zm11.199 0c.18-.072.394-.063.477.02.082.082-.065.14-.327.13-.29-.012-.349-.07-.15-.15zm-165.926-.971c.011-.29.07-.349.15-.15.072.18.063.394-.02.477-.082.082-.141-.065-.13-.327zm226.217 0c.012-.29.071-.349.15-.15.072.18.064.394-.02.477-.082.082-.14-.065-.13-.327zm-225.969-1.742c.012-.29.071-.349.15-.15.073.18.064.394-.019.477-.083.082-.141-.065-.13-.327zm225.72 0c.012-.29.071-.349.15-.15.073.18.064.394-.02.477-.082.082-.14-.065-.13-.327zm-225.47-1.742c.011-.29.07-.349.15-.15.072.18.063.394-.02.477-.083.082-.142-.065-.13-.327zm180.655-2.189c0-.051.196-.247.436-.435.394-.31.403-.3.094.094-.326.414-.53.546-.53.341zm-180.158-.549c.012-.29.07-.348.15-.15.072.18.063.394-.02.477-.082.083-.14-.064-.13-.327zm138.068-.041c-.31-.395-.3-.404.094-.094.24.188.436.384.436.435 0 .205-.205.073-.53-.341zm-137.82-1.203c.013-.29.072-.349.151-.15.072.18.063.394-.02.477-.082.082-.14-.065-.13-.327zm182.772-.85c.674-.685 1.282-1.245 1.35-1.245.068 0-.427.56-1.101 1.245-.674.684-1.282 1.244-1.35 1.244-.069 0 .427-.56 1.101-1.244zm40.958.85c.012-.29.07-.349.15-.15.072.18.063.394-.02.477-.082.082-.141-.065-.13-.327zm-88.38-1.037-.858-.933.934.858c.868.798 1.047 1.008.857 1.008-.041 0-.461-.42-.933-.933zm-2.01-2.24c-.309-.394-.3-.403.095-.094.24.188.435.384.435.436 0 .205-.204.073-.53-.342zm120.759-6.824c-.315-1.393-1.015-4.15-1.557-6.126s-.951-3.623-.91-3.66c.21-.183 3.008-.885 3.112-.78.313.313 2.867 10.045 3.105 11.832.072.541-.056.633-1.289.923-.753.177-1.486.326-1.63.332-.143.006-.517-1.129-.831-2.521zm-285.35-.13c-.274-.062-.909-.22-1.41-.348l-.913-.234 1.08-4.164c1.306-5.03 2.316-8.271 2.578-8.271.307 0 2.628.796 2.817.966.094.085-.373 2.032-1.038 4.327-.664 2.296-1.405 5.011-1.647 6.035-.24 1.024-.558 1.849-.704 1.833a8.733 8.733 0 0 1-.763-.143zm223.375-8.683c.012-.29.07-.349.15-.15.072.18.063.394-.02.477-.082.083-.14-.064-.13-.327zm-65.949-.248c.012-.29.07-.35.15-.15.072.179.063.393-.02.476-.082.083-.14-.064-.13-.326zm66.198-1.494c.012-.29.07-.349.15-.15.072.18.063.394-.02.477-.082.083-.14-.064-.13-.327zm-66.427-.352c0-.342.056-.482.125-.311a.96.96 0 0 1 0 .622c-.069.17-.125.031-.125-.311zm66.73-3.484c0-.753.047-1.061.104-.685a5.5 5.5 0 0 1 0 1.37c-.057.375-.103.067-.103-.685zm-66.73-3.484c0-.343.056-.483.125-.312a.96.96 0 0 1 0 .623c-.069.17-.125.03-.125-.311zm66.427-.394c.012-.29.07-.35.15-.15.072.179.063.393-.02.476-.082.083-.14-.064-.13-.326zm-66.198-1.494c.012-.29.07-.349.15-.15.072.18.063.394-.02.477-.082.083-.14-.064-.13-.327zm65.949-.249c.012-.29.07-.348.15-.15.072.18.063.394-.02.477-.082.083-.14-.064-.13-.327zm54.118-4.147c-.531-1.266-1.675-3.802-2.54-5.636-.867-1.834-1.576-3.406-1.576-3.495 0-.15 2.593-1.508 2.88-1.508.225 0 5.333 11.151 5.333 11.644 0 .153-2.65 1.297-3.006 1.297-.069 0-.56-1.036-1.09-2.302zm-270.214-.619c-.787-.345-1.431-.709-1.431-.809 0-.603 5.044-11.06 5.459-11.316.189-.117 2.531.864 2.955 1.237.043.038-.597 1.414-1.42 3.058a170.407 170.407 0 0 0-2.65 5.563c-.634 1.416-1.226 2.646-1.317 2.734-.09.088-.809-.122-1.596-.467zm157.469-11.016c.248-.273.506-.497.575-.497.068 0-.079.224-.326.497-.248.274-.507.498-.575.498-.069 0 .078-.224.326-.498zm68.78-.933c-.31-.395-.302-.403.093-.094.415.325.546.53.342.53-.052 0-.248-.196-.436-.436zm-19.38-1.182c-.605-.616-1.044-1.12-.975-1.12.068 0 .619.504 1.223 1.12.605.616 1.043 1.12.975 1.12-.068 0-.62-.504-1.224-1.12zm-47.783.28c0-.052.196-.248.436-.436.395-.31.404-.3.094.094-.325.414-.53.546-.53.341zm2.24-1.992c0-.051.196-.247.436-.435.394-.31.403-.3.094.094-.325.414-.53.546-.53.341zm-112.86-.901c.248-.274.507-.498.575-.498.069 0-.078.224-.326.498s-.506.498-.575.498c-.068 0 .079-.224.326-.498zm174.796.062c-.31-.395-.301-.403.094-.094.414.325.546.53.341.53-.051 0-.247-.196-.435-.436zm-173.302-1.804c.247-.274.506-.498.574-.498.069 0-.078.224-.326.498-.247.274-.506.498-.575.498-.068 0 .079-.224.327-.498zm171.692-.062-.474-.56.56.474c.526.445.673.646.474.646-.047 0-.3-.252-.56-.56zm-169.328-2.551c.464-.48.9-.871.968-.871.069 0-.255.392-.72.87-.464.48-.9.872-.968.872-.068 0 .255-.392.72-.871zm166.974-.062-.857-.934.933.858c.869.798 1.048 1.009.857 1.009-.041 0-.461-.42-.933-.933zm-207.041-2.453a23.346 23.346 0 0 0-1.213-.824c-.263-.153.017-.734 1.225-2.536 1.887-2.817 5.327-7.515 5.775-7.887.243-.201.646-.022 1.617.719l1.294.986-2.172 2.918a174.57 174.57 0 0 0-3.648 5.095c-.811 1.197-1.595 2.172-1.741 2.165-.147-.007-.658-.293-1.137-.636zm165.448-.02c.18-.071.394-.062.477.02.082.083-.065.142-.327.131-.29-.012-.349-.07-.15-.15zm1.726-.243a.96.96 0 0 1 .622 0c.171.069.031.125-.31.125-.343 0-.483-.056-.312-.125zm6.968 0a.96.96 0 0 1 .622 0c.172.069.032.125-.31.125-.343 0-.483-.056-.312-.125zm62.597-.267c.655-.052 1.662-.051 2.24 0 .578.053.042.095-1.19.094-1.232 0-1.704-.043-1.05-.095zm-3.367-.23a.96.96 0 0 1 .622 0c.171.068.031.125-.31.125-.343 0-.483-.057-.312-.126zm8.477-.006c.18-.072.394-.063.477.02.083.083-.064.141-.327.13-.29-.011-.349-.07-.15-.15zm-9.955-.249c.18-.072.395-.063.477.02.083.083-.064.141-.326.13-.29-.011-.35-.07-.15-.15zm-186.103-2.194c.464-.479.9-.87.968-.87.069 0-.255.391-.72.87-.464.48-.9.871-.968.871-.069 0 .255-.392.72-.87zm155.526-.062-.857-.933.933.857c.869.799 1.048 1.01.858 1.01-.042 0-.462-.42-.934-.934zm-152.913-2.302c.247-.274.506-.498.575-.498.068 0-.079.224-.326.498-.248.274-.507.498-.575.498-.069 0 .078-.224.326-.498zm150.29-.062-.474-.56.56.474c.308.26.56.513.56.56 0 .199-.2.052-.646-.474zm-148.922-1.027c0-.052.196-.248.436-.436.395-.31.403-.3.094.094-.325.415-.53.546-.53.342zm147.296-.342c-.31-.395-.3-.404.094-.094.415.325.547.53.342.53-.052 0-.248-.196-.436-.436zm-145.802-.903c0-.051.196-.247.435-.435.395-.31.404-.301.094.094-.325.414-.53.546-.53.341zm207.552 0c0-.051.196-.247.436-.435.395-.31.403-.301.094.094-.325.414-.53.546-.53.341zm-43.201-.963-.474-.56.56.474c.526.445.673.645.474.645-.047 0-.3-.251-.56-.56zm45.69-1.307c.464-.48.9-.871.969-.871.068 0-.256.392-.72.871-.464.48-.9.871-.969.871-.068 0 .256-.392.72-.871zm-48.677-1.68-.474-.56.56.474c.527.446.674.646.474.646-.047 0-.299-.252-.56-.56zm50.668-.53c0-.051.196-.247.435-.435.395-.31.404-.3.094.094-.325.415-.529.547-.529.342zm-247.592-7.965c-.913-.93-1.032-1.166-.805-1.59.147-.274 2.188-2.354 4.536-4.62l4.27-4.123 1.077 1.17c.593.644 1.082 1.24 1.088 1.323.005.084-1.12 1.26-2.502 2.613a371.373 371.373 0 0 0-4.401 4.39c-1.04 1.06-1.958 1.928-2.04 1.928-.084 0-.634-.491-1.223-1.091zm189.129-7.764c.011-.29.07-.35.15-.15.072.18.063.394-.02.476-.082.083-.141-.064-.13-.326zm65.949-.747c.011-.29.07-.349.15-.15.072.18.063.394-.02.477-.083.083-.141-.064-.13-.327zm-66.179-.85c0-.342.057-.482.126-.311a.96.96 0 0 1 0 .622c-.07.171-.126.031-.126-.311zm66.465-1.493c0-.48.052-.675.114-.436.063.24.063.632 0 .871-.062.24-.114.044-.114-.435zm-66.665-2.613c0-1.232.042-1.768.094-1.19.052.578.053 1.586.001 2.24-.051.654-.094.182-.095-1.05zm-100.925 1.696c.18-.072.395-.063.477.02.083.082-.064.141-.326.13-.29-.011-.35-.07-.15-.15zm40.068 0c.18-.072.394-.063.477.02.082.082-.065.141-.327.13-.29-.011-.349-.07-.15-.15zM538 211.848c.18-.072.394-.063.477.02.082.083-.065.141-.327.13-.29-.011-.349-.07-.15-.15zm37.08 0c.18-.072.395-.063.477.02.083.083-.064.141-.326.13-.29-.011-.35-.07-.15-.15zm-35.587-.249c.18-.072.394-.063.477.02.083.083-.064.142-.327.13-.29-.011-.349-.07-.15-.15zm34.094 0c.18-.072.395-.063.477.02.083.083-.064.142-.326.13-.29-.011-.35-.07-.15-.15zm-32.352-.248c.18-.072.394-.063.477.02.083.082-.064.14-.327.13-.29-.012-.349-.071-.15-.15zm30.346.005a.96.96 0 0 1 .622 0c.171.069.031.125-.311.125-.342 0-.482-.056-.311-.125zm-28.37-.25a.96.96 0 0 1 .621 0c.171.07.031.126-.31.126-.343 0-.483-.056-.312-.125zm26.379 0a.96.96 0 0 1 .622 0c.171.07.031.126-.311.126-.342 0-.482-.056-.311-.125zm-24.01-.256c.241-.063.577-.059.746.01.168.067-.03.119-.44.114-.411-.005-.549-.06-.307-.124zm21.65 0c.243-.063.578-.059.747.01.168.067-.03.119-.44.114-.41-.005-.549-.06-.307-.124zm-18.542-.252c.31-.06.758-.058.996.005.238.062-.016.11-.563.108-.548-.003-.742-.054-.433-.113zm15.18 0c.31-.06.758-.058.996.005.238.062-.015.11-.563.108-.547-.003-.742-.054-.432-.113zm-9.086-.258a53.235 53.235 0 0 1 3.858 0c1.06.046.193.085-1.929.085-2.121 0-2.99-.039-1.929-.085zm149.314-2.801c0-.48.052-.676.114-.436.063.24.063.631 0 .871-.062.24-.114.044-.114-.435zm-236.248-.896c-.576-.746-1.003-1.392-.95-1.436 1.725-1.394 10.198-7.125 10.535-7.125.147 0 .386.196.53.435.143.24.509.845.812 1.346l.552.91-2.482 1.627c-1.365.894-3.712 2.52-5.216 3.613L468.895 208zm169.764-.494c.012-.29.07-.349.15-.15.072.18.063.394-.02.477-.082.082-.141-.065-.13-.327zm66.198-.747c.011-.29.07-.348.15-.15.072.18.063.394-.02.477-.083.083-.141-.064-.13-.327zm-.25-1.493c.013-.29.072-.349.151-.15.072.18.063.394-.02.477-.082.083-.141-.064-.13-.327zm-82.144-10.152c-1.985-.984-4.535-2.202-5.668-2.707l-2.06-.919.402-.94c.22-.516.5-1.191.622-1.5.122-.307.323-.56.449-.56.61 0 11.088 5.042 11.347 5.46.154.25-.54 1.78-1.153 2.542-.3.374-.662.247-3.94-1.376zm-131.722-.783c-.37-.755-.674-1.435-.674-1.51 0-.401 11.447-5.43 11.72-5.15.23.238 1.268 2.847 1.168 2.938-.04.035-1.074.478-2.3.983-1.225.505-3.734 1.637-5.575 2.516-1.84.879-3.418 1.598-3.506 1.598-.087 0-.462-.619-.833-1.375zm155.115-3.697c0-.051.196-.247.436-.435.394-.31.403-.3.094.094-.326.415-.53.546-.53.342zm50.628-1.461-.73-.809.808.731c.754.681.923.887.731.887-.043 0-.407-.364-.809-.809zm-48.388-1.058c.321-.342.64-.622.709-.622.068 0-.139.28-.46.622-.322.343-.64.623-.71.623-.068 0 .14-.28.46-.623zm46.27-1.057-.604-.685.685.604c.376.331.684.64.684.684 0 .195-.201.036-.765-.603zm-93.928-.714c-1.095-.34-3.726-1.07-5.848-1.626-2.122-.555-3.898-1.048-3.948-1.095-.078-.074.338-2.191.594-3.02.065-.21 1.17-.014 3.776.67 3.985 1.045 8.494 2.361 8.662 2.529.176.176-.75 3.03-1.005 3.096-.132.035-1.136-.215-2.23-.554zm-85.856-1.493c-.466-1.604-.396-1.968.413-2.154.32-.073 3.035-.764 6.035-1.536 4.056-1.043 5.501-1.326 5.64-1.103.101.165.26.8.351 1.411.092.61.218 1.243.28 1.405.073.19-.479.41-1.576.623-.928.181-3.692.875-6.141 1.54-2.45.667-4.486 1.212-4.525 1.212-.038 0-.253-.63-.477-1.398zm59.103-3.981a122.987 122.987 0 0 0-5.583-.535l-2.722-.183.067-1.617c.036-.89.114-1.665.172-1.723.246-.246 12.02.9 12.538 1.22.207.127.232.602.087 1.647-.195 1.408-.234 1.47-.95 1.506-.41.02-2.034-.121-3.609-.315zm-33.96-1.46c-.098-.914-.14-1.698-.094-1.743.132-.127 8.569-.852 10.786-.927l1.99-.067.074 1.653.073 1.653-2.438.16c-3.19.21-7.894.615-9.187.791l-1.026.14zm138.437-.548c.18-.072.394-.063.477.02.082.082-.065.141-.327.13-.29-.012-.349-.07-.15-.15zm-11.448-.249c.18-.072.394-.063.477.02.083.082-.064.141-.327.13-.29-.011-.349-.07-.15-.15zm9.955 0c.18-.072.394-.063.477.02.082.082-.065.141-.327.13-.29-.011-.349-.07-.15-.15zm-7.85-.251c.242-.063.578-.06.746.009.169.068-.03.12-.44.115-.41-.005-.549-.061-.306-.124zm5.47 0c.24-.062.631-.062.87 0 .24.063.044.115-.435.115s-.675-.052-.435-.114z" style="fill:#fff;stroke-width:.248864" transform="translate(-406.076 -174.033)"/><path d="M553.227 438.571c-16.257-.56-31.75-4.366-45.991-11.296-12.243-5.957-21.691-12.67-31.158-22.137-18.395-18.395-29.67-41.7-32.746-67.692-.538-4.543-.748-16.81-.37-21.571 1.438-18.1 6.825-34.927 16.096-50.276 15.668-25.94 41.013-44.61 70.366-51.833 9.841-2.422 15.824-3.103 27.287-3.106 9.467-.003 12.064.196 19.785 1.516 27.013 4.62 52.182 19.591 69.46 41.32 14.278 17.957 22.673 39.326 24.504 62.379.384 4.836.172 17.061-.375 21.57-2.519 20.774-10.005 39.478-22.335 55.806-6.348 8.407-14.319 16.346-22.726 22.633-15.184 11.358-33.018 18.795-51.516 21.484-6.174.898-14.616 1.399-20.281 1.203zm4.933-55.32c3.86-1.11 6.824-3.112 9.874-6.671l1.742-2.033.07 3.598.068 3.599H577.615V327.74h-8.46l-.005 15.492c-.005 19.228-.151 20.873-2.246 25.234-1.593 3.315-4.633 6.16-7.657 7.165-6.285 2.087-13.004-.276-15.028-5.285l-.573-1.419-.068-20.593-.068-20.594h-8.699v21.848c0 18.742.054 22.058.38 23.33 1.456 5.707 5.75 9.405 12.437 10.713 2.565.501 8.172.3 10.532-.38zm55.168.006c3.491-.913 8.573-3.753 11.21-6.266.93-.885 1.109-.9 1.109-.094 0 .962.898 3.303 1.64 4.276.931 1.221 2.564 2.186 4.334 2.562 1.73.367 5.375.208 7.34-.32l1.244-.335.07-3.277.069-3.278-1.103.151c-1.706.234-3.494-.3-4.378-1.307-.411-.468-.805-1.102-.876-1.407-.07-.306-.156-8.563-.19-18.35l-.062-17.793-.58-1.608c-1.856-5.142-5.621-7.982-12.61-9.513-1.004-.22-3.328-.321-7.093-.309-5.24.017-5.759.06-8.088.68-3.904 1.037-6.842 2.611-9.107 4.877-2.715 2.716-3.893 5.536-4.298 10.29l-.122 1.431h8.855l.15-1.085c.752-5.494 4.96-8.355 12.31-8.367 6.268-.011 10.578 2.028 11.607 5.492.45 1.514.526 5.557.126 6.62-.419 1.109-1.716 2.277-3.107 2.798-1.591.595-2.802.813-9.82 1.766-7.09.963-9.887 1.532-12.292 2.503-2.69 1.086-3.936 1.828-5.551 3.302-2.796 2.553-4.27 5.914-4.488 10.24-.445 8.778 4.468 15.041 13.076 16.673 2.7.511 7.991.336 10.625-.352zm-8.311-7.367c-3.995-1.12-5.993-3.408-6.41-7.34-.177-1.675.413-4.197 1.295-5.534 1.189-1.8 3.944-3.32 7.77-4.288.86-.217 3.808-.728 6.553-1.134 5.654-.838 8.064-1.342 9.63-2.014.598-.256 1.142-.465 1.21-.465.067 0 .086 2.716.041 6.035l-.082 6.035-.737 1.331c-1.535 2.77-5.644 5.844-9.445 7.065-2.078.667-7.894.85-9.825.309zm-79.221 1.436.068-4.293H488.77v-66.457l-4.79.067-4.791.068-.064 37.205c-.035 20.463-.01 37.346.055 37.518.094.248 4.893.299 23.333.248l23.214-.063zm84.172-67.167c6.376-1.087 12.8-4.443 17.512-9.149 5.842-5.835 9.089-12.72 9.85-20.891 1.597-17.165-10.61-32.979-27.68-35.861-3.158-.533-8.165-.532-11.309.003-13.83 2.354-24.927 13.42-27.291 27.217-.511 2.982-.524 8.45-.026 11.371 1.963 11.521 10.043 21.398 20.917 25.569 5.879 2.255 11.71 2.818 18.027 1.741zm55.497-66.902c-13.607-2.297-24.277-12.483-27.25-26.013-.647-2.948-.777-9.115-.256-12.23 1.183-7.083 4.247-13.033 9.339-18.138 6.556-6.574 14.373-9.81 23.642-9.786 5.751.015 10.606 1.19 15.42 3.73 8.918 4.707 15.063 12.937 17.22 23.063.76 3.568.757 9.427-.007 13.046-1.419 6.72-4.355 12.124-9.233 16.989-5.028 5.015-11.091 8.168-17.907 9.312-2.793.469-8.273.483-10.968.028z" style="fill:#fff;stroke-width:.248864" transform="translate(-406.076 -174.033)"/></g></svg>