<svg xmlns="http://www.w3.org/2000/svg" width="1000mm" height="1000mm" viewBox="0 0 1000 1000"><path d="m214.28 715.18 162.442-159.1 45.419 42.918c42.743 40.39 47.294 42.918 77.26 42.918 29.966 0 34.517-2.528 77.26-42.918l45.419-42.917 162.442 159.1 162.442 159.1H51.838ZM7.643 514.67c0-172.227 1.302-311.894 2.893-310.373 1.591 1.521 75.028 72.772 163.194 158.334l160.3 155.568-158.052 154.804C89.05 758.145 15.612 827.807 12.785 827.807c-2.828 0-5.142-140.912-5.142-313.138ZM823.23 673.4 665.58 518.99 828.37 359.76l162.788-159.232v313.64c0 172.502-2.313 313.64-5.14 313.64-2.828 0-76.083-69.484-162.79-154.409zM267.992 375.28c-120.5-117.438-217.511-216.027-215.58-219.086 4.61-7.3 889.396-7.257 894.005.043 5.348 8.47-433.087 432.567-447.191 432.567-6.874 0-107.198-92.64-231.234-213.524z" style="fill:#fff;stroke-width:6.71054"/></svg>