<svg xmlns="http://www.w3.org/2000/svg" width="461.866" height="492.172" viewBox="0 0 122.202 130.22"><path d="M153.252 189.671c-.07-25.708-.026-36.62.149-37.04.204-.49 3.36-2.086 17.752-8.974 9.627-4.607 17.649-8.377 17.826-8.377.269 0 .324 1.015.324 5.982 0 3.451.09 5.983.21 5.983.117 0 1.837-.772 3.823-1.715 1.986-.943 3.708-1.65 3.827-1.572.263.171.29 11.09.028 11.525-.1.166-1.78 1.078-3.736 2.026-1.955.948-3.683 1.837-3.84 1.974-.209.184-.289 1.792-.304 6.127-.011 3.232-.08 5.98-.154 6.105-.073.125-.901.598-1.84 1.05l-1.707.824v5.874c0 3.23.05 5.874.11 5.874s1.617-.714 3.459-1.587c1.841-.873 3.494-1.587 3.673-1.587.178 0 .387.174.465.386.077.213.14 2.85.14 5.86 0 3.914.074 5.475.26 5.475.145 0 1.766-.721 3.605-1.603 1.838-.881 3.486-1.544 3.661-1.472.26.105.32 1.24.32 6.092 0 5.33-.043 6.015-.404 6.454-.465.564-6.968 3.715-7.668 3.715-.456 0-.467-.143-.467-5.983 0-3.29-.027-5.982-.06-5.982-.034 0-1.67.767-3.635 1.706-1.966.938-3.704 1.708-3.862 1.71-.223.001-.289-1.331-.289-5.858 0-4.82-.056-5.86-.318-5.86-.175 0-1.81.715-3.631 1.59-1.822.876-3.444 1.539-3.605 1.473-.224-.09-.292-1.478-.292-5.986 0-5.43-.03-5.868-.404-5.86-.222.005-3.675 1.58-7.673 3.503l-7.269 3.495-.059 18.559c-.055 17.305-.086 18.583-.462 18.919-.497.444-7.113 3.62-7.542 3.62-.26 0-.328-6.075-.41-36.445zm22.23-24.255c7.157-3.429 13.093-6.318 13.19-6.42.098-.103.15-2.548.116-5.434l-.062-5.247-13.27 6.363c-7.297 3.5-13.398 6.452-13.557 6.56-.216.148-.288 1.517-.288 5.45 0 5.01.02 5.245.43 5.108.235-.08 6.284-2.95 13.441-6.38zm-74.91 41.15c-2.665-1.212-4.963-2.367-5.106-2.565-.187-.26-.3-7.03-.402-23.98-.078-12.991-.204-29.58-.28-36.865-.116-11.104-.087-13.267.178-13.375.396-.16 46.811 23.42 47.206 23.983.359.511.42 11.925.064 12.157-.123.08-8.197-3.828-17.942-8.685-9.744-4.857-17.847-8.884-18.006-8.949-.225-.092-.288 1.031-.288 5.128 0 3.908.073 5.307.288 5.483.159.13 4.65 2.367 9.98 4.97 5.332 2.605 9.927 4.98 10.212 5.277.51.533.52.648.52 6.414 0 5.62-.02 5.871-.442 5.871-.243 0-4.914-2.142-10.381-4.761-5.467-2.62-9.983-4.762-10.036-4.762-.053 0-.08 8.267-.061 18.37.03 16.16-.007 18.379-.311 18.432-.19.032-2.527-.932-5.192-2.144zm19.385-75.671c-5.965-2.808-11.04-5.231-11.277-5.386-.237-.155-.341-.366-.23-.471.407-.387 6.938-2.944 7.517-2.944.33 0 1.716.494 3.08 1.099 1.363.604 2.613 1.098 2.778 1.098.266 0 29.63-12.625 29.825-12.823.043-.044-1.144-.5-2.638-1.015-1.494-.514-2.752-1.052-2.795-1.196-.043-.144 1.563-.95 3.57-1.792l3.65-1.53 1.281.355c4.305 1.19 24.198 7.63 24.14 7.814-.107.34-7.316 3.594-7.963 3.594-.311 0-1.753-.392-3.203-.87l-2.637-.872-15.332 6.908c-8.433 3.8-15.257 6.983-15.164 7.074.092.091 1.102.57 2.244 1.064 2.342 1.013 2.566 1.17 2.145 1.513-.45.364-7.484 3.498-7.838 3.491-.169-.004-5.188-2.303-11.153-5.111z" style="fill:#fff;stroke-width:.23738" transform="translate(-86.91 -100.916)"/></svg>