<svg xmlns="http://www.w3.org/2000/svg" width="300mm" height="300mm" viewBox="0 0 300 300"><path d="M144.24 298.719c-7.463-1.91-14.82-7.342-19.115-14.115-3.804-5.998-4.081-7.41-4.067-20.695.01-11.936 3.331-40.193 6.45-54.923.723-3.41.153-4.082-5.62-6.635-20.415-9.031-38.455-29.163-47.838-53.386-12.8-33.045-10.767-70.023 5.615-102.104 7.202-14.105 27.154-34.004 40.669-40.563l9.927-4.817h44.098l11.276 5.557c16.343 8.054 31.974 24.23 40.813 42.236 8.87 18.067 10.985 26.872 11.882 49.475.885 22.274-1.333 36.523-8.243 52.959-8.98 21.363-26.221 40.58-44.385 49.474-4.364 2.137-7.928 4.664-7.919 5.615.01.95 1.602 12.577 3.54 25.837 5.38 36.804 4.753 45.071-4.228 55.723-7.347 8.713-21.66 13.227-32.854 10.362zm26.175-122.39c11.108-4.156 23.872-17.161 30.595-31.172 19.868-41.408 6.66-94.145-28.103-112.2-7.54-3.916-10.024-4.477-19.957-4.502-9.434-.021-12.74.625-19.627 3.851-16.01 7.499-30.17 26.247-35.618 47.164-3.344 12.841-2.95 39.045.773 51.264 6.095 20.006 17.586 35.513 32.212 43.47 13.17 7.165 24.618 7.777 39.725 2.125zm-55.517-65.89c-2.903-2.902.79-8.064 19.262-26.933 24.325-24.846 29.752-29.384 33.66-28.144 6.121 1.944 2.891 6.54-21.994 31.299-22.606 22.491-28.039 26.668-30.928 23.778zm-.662-26.282c-.936-.936-1.702-2.28-1.702-2.987 0-2.326 20.28-22.256 22.646-22.256 2.781 0 5.716 2.7 5.716 5.257 0 2.953-19.195 21.688-22.221 21.688-1.506 0-3.503-.766-4.44-1.702z" style="fill:#fff;stroke-width:1.41811"/></svg>