<svg xmlns="http://www.w3.org/2000/svg" width="179.484" height="179.706" viewBox="0 0 47.489 47.547"><path d="M140.503 238.068c-10.145-1.32-18.482-9.149-20.371-19.127-.56-2.962-.349-8.29.438-11.01 2.272-7.852 8.571-14.151 16.424-16.423 2.72-.787 8.047-.999 11.009-.438 12.091 2.289 20.593 13.836 19.14 25.998-1.01 8.459-6.128 15.496-13.837 19.025-2.445 1.12-4.268 1.63-7.055 1.977-2.494.31-3.355.31-5.748-.003zm9.048-5.113c5.94-2.027 10.449-6.537 12.462-12.466.568-1.67.745-2.766.841-5.202.153-3.877-.334-6.25-1.936-9.433-2.583-5.13-6.452-8.39-12.038-10.145-1.68-.528-2.506-.617-5.547-.602-3.141.015-3.826.103-5.688.726-6.138 2.054-10.696 6.612-12.75 12.75-.624 1.862-.711 2.547-.726 5.688-.015 3.037.075 3.87.602 5.557 2.108 6.752 7.203 11.706 13.9 13.514 2.878.777 8.001.595 10.88-.387zm-19.05-15.232c-1.5-.62-2.422-2.619-1.976-4.278.718-2.664 4.065-3.434 6.001-1.381.758.803.87 1.103.87 2.323 0 1.563-.56 2.523-1.862 3.197-.822.425-2.19.488-3.033.14zm11.261-.23c-1.038-.558-1.869-1.93-1.867-3.085.002-1.664 1.887-3.573 3.53-3.575 1.93-.003 3.613 1.677 3.612 3.602-.003 2.732-2.828 4.37-5.275 3.057zm11.44-.036c-2.331-1.421-2.18-5.025.26-6.183.513-.243 1.27-.442 1.685-.441 1.013 0 2.362.86 3.004 1.915 1.85 3.032-1.88 6.58-4.95 4.71z" style="fill:#fff;stroke-width:.264583" transform="translate(-119.817 -190.755)"/></svg>