<svg xmlns="http://www.w3.org/2000/svg" xml:space="preserve" width="1884.677" height="293.372" viewBox="0 0 498.654 77.621"><path d="M-304.634 86.194c-.105-3.694-.105-21.092 0-38.664l.19-31.948h8.786c4.832 0 9.42.12 10.196.267 2.735.519 4.983 1.746 6.935 3.787 1.514 1.584 2.185 2.632 4.339 6.78 2.979 5.74 3.715 6.963 4.113 6.83.16-.054 1.469-2.35 2.907-5.104s2.978-5.572 3.42-6.263c1.76-2.741 5.352-5.3 8.44-6.012.687-.158 4.993-.275 10.246-.279l9.062-.006v76.994h-10.054V70.923c0-11.908-.079-26.85-.175-33.205l-.176-11.553h-2.694c-2.681 0-2.701.005-4.287 1.03-2.057 1.33-2.608 2.09-4.525 6.246-.873 1.892-3.313 7.19-5.422 11.774-2.11 4.584-4.514 9.764-5.343 11.51l-1.507 3.175-1.266-2.514c-.697-1.382-3.494-7.39-6.217-13.352-6.947-15.21-6.952-15.22-9.477-16.895-1.454-.966-1.49-.974-4.223-.974h-2.756l-.175 10.363c-.097 5.699-.176 20.641-.176 33.205v22.843l-3.24.002c-1.784 0-4.027.076-4.987.167l-1.744.164-.19-6.715zm13.24.264c-.1-3.548-.099-17.91.001-31.916l.182-25.467h.833c.979 0 1.903.87 2.776 2.61.318.634 4.147 8.85 8.509 18.256 7.892 17.02 8.513 18.293 8.926 18.293.271 0 2.906-5.528 11.29-23.68 7.013-15.188 7.392-15.848 8.928-15.555l.72.138v63.438H-259.204l-.172-2.422c-.094-1.332-.172-6.385-.172-11.229 0-5.523-.097-8.867-.262-8.969-.144-.089-.546.47-.893 1.241-6.32 14.028-8.156 18.06-8.808 19.347l-.779 1.54-1.004-2.202c-.553-1.21-2.61-5.767-4.573-10.125-1.963-4.359-3.826-8.407-4.142-8.996l-.573-1.071-.163 3.175c-.09 1.746-.178 6.896-.198 11.443l-.036 8.268-3.373.002c-1.856.001-4.158.076-5.117.167l-1.743.165-.181-6.45zm61.318 6.005c-.163-.426-.004-49.818.162-49.978.072-.071 8.254-.216 18.182-.324 17.363-.187 18.067-.214 18.512-.705.419-.463.425-.577.064-1.22l-.398-.71-4.356-.074c-2.395-.041-10.606-.16-18.246-.265l-13.89-.19-.073-5.136-.072-5.137 19.651.179 19.652.179 1.455.702c1.92.927 4.652 3.72 5.755 5.882.834 1.635.86 1.784.86 4.99 0 3.189-.03 3.364-.859 5.056-1.103 2.252-3.76 4.957-5.9 6.007l-1.576.772-13.699-.092c-12.094-.082-13.773-.044-14.331.322l-.633.415-.088 19.565c-.049 10.761-.148 19.62-.22 19.686-.074.066-2.316.18-4.983.254-3.573.098-4.88.051-4.969-.178zm13.293-.218c-.213-.797-.209-32.39.005-34.653l.168-1.779 7.8-.073 7.8-.074 4.424 8.864c6.22 12.463 13.768 27.876 13.768 28.112 0 .109-2.262.198-5.027.198h-5.026l-4.395-8.797c-7.035-14.085-8.63-17.046-8.863-16.452-.11.28-.209 5.705-.219 12.053-.01 6.348-.093 11.914-.184 12.37l-.165.826h-4.963c-4.924 0-4.965-.005-5.123-.595zm37.085.016c-1.212-1.85-18.099-36.125-17.897-36.326.062-.062 1.626-.236 3.476-.387 2.663-.216 3.795-.439 5.43-1.07 1.883-.726 2.292-1.027 4.586-3.376 2.118-2.17 2.632-2.87 3.24-4.41 1.632-4.13 1.55-8.497-.228-12.195-1.274-2.647-4.285-5.837-6.842-7.248l-1.897-1.047-20.18-.192-20.18-.191.072-5.053.071-5.052 20.24-.07c19.898-.068 20.273-.06 22.094.486 2.126.637 5.346 2.184 7.195 3.456 3.726 2.562 7.723 7.417 9.344 11.35 1.392 3.374 1.622 4.598 1.769 9.384.127 4.182.09 4.687-.531 7.191-.368 1.482-1.136 3.684-1.707 4.895-.92 1.952-1.38 2.532-4.056 5.115-1.66 1.603-4.06 3.67-5.334 4.595-1.273.925-2.315 1.815-2.315 1.978 0 .163 3.105 6.589 6.9 14.28 3.794 7.692 6.853 14.03 6.798 14.086-.056.056-2.243.182-4.86.28l-4.757.178-.43-.657zm14.509-.016c-.088-.328-.162-2.999-.163-5.936-.004-5.305 0-5.34.591-5.534.328-.106 2.798-.194 5.49-.194s5.163.088 5.49.194c.593.193.596.224.596 5.711 0 3.034-.073 5.705-.16 5.935-.14.364-.913.419-5.923.419-5.752 0-5.762-.001-5.921-.595zm84.683-17.823c-5.065-10.13-9.166-18.46-9.114-18.512.051-.052 1.814-.235 3.917-.407 3.26-.266 4.037-.42 5.28-1.038 4.816-2.4 7.92-6.516 8.764-11.62 1.093-6.617-3.354-13.915-9.934-16.304l-1.766-.64-18.972-.005c-10.435-.002-19.117-.096-19.294-.208-.243-.155-.281-1.408-.156-5.155l.164-4.951 20.246-.26c9.235-.07 15.649-1.185 22.597 1.047 7.5 2.41 14.11 9.193 16.768 17.204.714 2.154.746 2.463.74 7.276-.006 5.768-.353 7.547-2.242 11.497-.909 1.901-1.473 2.638-3.767 4.916-1.484 1.474-3.92 3.597-5.41 4.719-1.492 1.121-2.713 2.085-2.713 2.14 0 .057 3.096 6.324 6.88 13.928 3.783 7.603 6.879 13.965 6.879 14.136 0 .366-3.057.651-7.013.653l-2.647.002zM11.386 87.39v-5.398h31.103l1.845-.885c1.454-.699 2.32-1.387 4.093-3.256 3.52-3.708 4.498-6.036 4.498-10.706 0-4.39-1.157-6.956-4.85-10.751l-2.123-2.183 2.124-2.183c3.827-3.935 4.838-6.242 4.838-11.046 0-3.43-.555-5.522-2.107-7.94-1.248-1.944-4.762-5.13-6.688-6.061l-1.645-.796-15.544-.182-15.544-.182V15.297l15.544.082c15.164.08 15.595.096 17.646.674 8.76 2.467 15.883 9.84 18.146 18.781 1.373 5.942.45 12.08-1.647 16.938l-1.072 2.457.932 2.041c.512 1.123 1.25 3.069 1.641 4.324.928 4.857 1.234 10.215-.32 14.597-2.357 6.615-7.104 11.974-13.829 15.613-3.55 1.921-2.578 1.831-20.703 1.912l-16.338.072zm141.121 5.264-.827-.107-.197-26.535-.197-26.535-6.36-.174c-3.5-.095-7.585-.173-9.08-.173h-2.72l-.17-1.131c-.229-1.53-.05-8.562.226-8.836.262-.261 26.523-.482 27.843-.234l.91.17-.067 31.805-.067 31.804-4.233.027c-2.328.014-4.606-.022-5.06-.08zm-274.345-10.331c-.187-9.643-.05-39.655.184-39.888.059-.059 8.14-.188 17.956-.286 15.44-.154 17.912-.233 18.312-.581.705-.615.557-1.331-.397-1.912-.834-.509-1.381-.525-18.553-.525l-17.693-.001.109-4.83c.06-2.656.2-4.978.312-5.16.16-.258 4.335-.33 19.272-.33h19.068l1.752.86c4.817 2.364 7.969 8.168 7.005 12.9-.806 3.954-3.527 7.513-7.033 9.198l-1.78.855h-13.742c-7.559 0-13.931.073-14.161.16-.377.145-.419 2.152-.419 19.977v19.815h-9.992zm13.278 1.323c-.096-4.912-.175-13.186-.175-18.389v-9.459h15.898l8.835 17.794c4.859 9.786 8.91 18.06 9.002 18.388l.167.595h-9.965l-2.069-4.167c-5.412-10.906-10.853-21.233-11.186-21.233-.303 0-.364 2.1-.364 12.7v12.7h-9.968zm69.94 8.414c-5.006-1.107-7.95-2.611-10.851-5.545-2.23-2.255-3.531-4.484-4.57-7.83-1.242-4.005-1.3-5.252-1.192-26.062.098-18.986.114-19.498.678-21.623 1.632-6.15 5.04-10.605 9.852-12.88 4.526-2.14 6.705-2.475 17.592-2.71 8.416-.183 11.069.054 15.725 1.403 8.597 2.491 13.165 8.804 14.044 19.406.328 3.952.328 31.767 0 35.719-.55 6.64-2.349 11.095-5.942 14.715-1.78 1.792-2.547 2.346-4.645 3.351-4.802 2.301-5.476 2.396-17.727 2.48-9.68.066-10.933.025-12.965-.424zm24.234-10.98c3.232-1.494 5.116-3.668 6.168-7.12.538-1.764.554-2.307.554-19.861 0-19.858.045-19.242-1.66-22.463-.863-1.63-2.594-3.345-4.208-4.17-.535-.274-1.845-.736-2.91-1.027-1.836-.502-2.42-.52-11.066-.335l-9.128.195-1.768.836c-3.412 1.615-5.317 4.162-6.202 8.29-.636 2.968-.636 34.34 0 37.307.886 4.136 2.815 6.708 6.208 8.278 2.343 1.085 4.3 1.232 14.197 1.068l7.938-.131zm-20.927-2.233c-3.033-.881-4.605-2.154-5.888-4.768l-.727-1.48-.138-16.933c-.125-15.357-.095-17.154.322-19.307.61-3.15 1.761-4.88 4.092-6.151 2.22-1.211 4.795-1.47 13.483-1.356l6.912.091 1.992 1.053c2.26 1.195 3.261 2.4 4.155 5.008.517 1.509.535 2.182.535 19.494V72.43l-.992 1.927c-1.232 2.392-2.759 3.632-5.456 4.432-1.732.513-2.492.557-9.295.54-6.222-.017-7.662-.094-8.995-.482zm13.762-10.812.64-.727.01-13.244.008-13.243-.054-.33c-1.127-1.445-3.729-1.33-5.393-1.242-3.592.19-4.724.436-4.97 1.078-.07.182-.214 6.29-.32 13.57l-.191 13.24.813.813.814.813h8.003l.64-.728zM86.8 92.283c-2.158-.372-4.842-1.221-7.113-2.252-1.621-.736-2.486-1.375-4.358-3.222-2.593-2.557-3.511-4.087-4.957-8.257-1.377-3.08-.976-6.486-1.062-9.79-.273-10.368-.266-26.913.012-31.897.288-5.148.69-6.991 2.262-10.362 1.034-2.22 1.533-2.92 3.511-4.934 2.465-2.51 4.503-3.71 8.27-4.871 3.592-1.108 11.408-1.545 20.361-1.14 7.768.353 11.351 1.28 15.295 3.958 3.577 2.429 6.289 6.812 7.601 12.285l.685 2.859-.108 19.896c-.117 21.545-.109 21.411-1.62 25.417-2.3 6.094-6.676 9.873-13.603 11.748-2.541.687-2.644.693-13.145.752-5.82.032-11.234-.053-12.03-.19zm20.97-10.443c4.42-1.145 7-3.456 8.412-7.535.583-1.682.592-1.947.715-19.207.11-15.573.076-17.716-.312-19.458-1.149-5.164-3.802-8.03-8.522-9.21-1.962-.489-2.64-.508-11.216-.323l-9.128.197-1.762.88c-3.059 1.53-4.954 3.901-5.955 7.448-.45 1.597-.483 3.024-.458 19.976l.027 18.256.705 1.72c1.458 3.558 3.203 5.352 6.489 6.671 1.317.529 2.104.612 7.04.745 10.91.294 12.275.278 13.965-.16zm-17.684-2.743c-3.074-.482-5.445-2.211-6.735-4.915l-.792-1.658V35.657l.674-1.423c.37-.783 1.207-2.017 1.86-2.743 1.001-1.114 1.502-1.424 3.23-2 1.918-.638 2.352-.68 7.07-.663 8.295.028 12.236.32 13.57 1.008 1.73.89 3.19 2.35 4.045 4.045l.772 1.53v18.48c0 21.278.125 20.077-2.348 22.62-1.208 1.243-1.811 1.637-3.208 2.094-1.566.513-2.394.57-9.26.632-4.148.038-8.143-.025-8.878-.14zm12.747-10.927.977-.858-.175-13.364-.175-13.363-.792-.723-.791-.723-3.772.15c-2.074.082-3.926.197-4.114.256-.189.058-.525.543-.749 1.077-.54 1.296-.77 10.263-.503 19.748.176 6.238.257 7.156.675 7.673.427.529.79.603 3.608.74 1.723.083 3.515.173 3.983.198.623.034 1.112-.183 1.828-.811zm62.157-3.442c-.102-15.316-.146-29.633-.099-31.816l.086-3.969h14.2c7.81 0 14.298.1 14.42.22.284.285.46 6.685.233 8.5l-.174 1.394-9.048.193c-4.976.107-9.065.213-9.086.235-.02.023-.125 11.977-.232 26.566l-.195 26.524h-9.92zM11.386 67.581V55.798H41.68l1.665.788c4.473 2.116 7.463 7.737 6.658 12.514-.636 3.767-3.271 7.338-6.878 9.32l-1.445.794-15.147.074-15.147.075zm27.265 1.043c.948-.49 1.104-1.786.269-2.233-.798-.427-19.333-.373-19.33.057.003.182.077.774.166 1.316l.163.986 4.266.08c12.284.229 13.663.21 14.466-.206zM11.386 40.709V28.794l15.147.075 15.147.074 1.64.89c1.977 1.072 4.514 3.64 5.48 5.544.388.766.895 2.236 1.128 3.267.361 1.598.375 2.149.096 3.714-.697 3.9-3.494 7.625-7.089 9.44l-1.636.825H11.386zm27.534 1.057c.327-.175.511-.553.511-1.051 0-1.402-.458-1.462-10.517-1.374l-9.062.08V42.04h9.278c5.89 0 9.465-.1 9.79-.274zm94.07-16.284c-.212-.551-.208-8.012.005-9.074l.165-.826h60.455l.164.992c.211 1.281.219 8.36.009 8.908-.146.378-3.07.418-30.4.418-27.329 0-30.253-.04-30.398-.418z" style="fill:#fff;stroke-width:.264583" transform="translate(304.713 -15.297)"/></svg>