<svg xmlns="http://www.w3.org/2000/svg" width="441.79" height="435.628" viewBox="0 0 116.89 115.26"><path d="M232.82 63.419c-3.277-2.775-6.238-4.667-10.708-6.843-4.385-2.135-7.895-4.38-10.488-6.71-2.322-2.085-5.001-6.757-4.285-7.473 5.325-4.048 13.046-3.845 18.344-3.692-2.744-3.368-6.45-5.13-10.293-7.778-5.221-4.58-12.448-3.798-16.435-7.552-1.301-1.256-2.81-3.92-5.142-9.081-5.1-10.708-10.018-23.016-16.653-31.51-5.71-7.1-13.836-13.789-21.508-17.702-4.377-2.232-7.04-3.076-10.65-3.374-6.557-.542-6.074-.416-8.245-2.155-2.203-1.764-8.397-4.958-10.99-5.666-2.77-.756-4.594.094-4.594 2.141 0 1.246 1.576 4.16 3.692 6.825 4.293 5.41 5.618 7.933 7.818 14.888 2.238 7.078 3.812 10.354 6.221 12.947 2.65 2.853 2.704 3.486.78 9.18-2.587 8.226-2.791 16.287.04 23.669 1.135 2.908 2.614 4.928 3.834 5.235.383.096.748.122.812.059.064-.064.35-1.936.635-4.16.414-2.437 1.772-12.998 5.629-13.138.156.052.48.741.72 1.531 1.016 3.348 4.786 10.947 8.211 16.55 2.992 4.892 5.456 8.212 7.98 10.754 2.64 2.655 2.078 2.609-.731-.061a90.604 90.604 0 0 0-3.969-3.503c-2.65-2.183-5.749-5.375-7.396-7.619-.694-.946-2.03-3.25-2.968-5.121-.939-1.871-1.757-3.351-1.82-3.289-.148.148-.83 3.915-1.045 5.764-.213 1.848-.846 4.13-1.363 4.92-.544.829-2.416 1.695-3.664 1.695-2.535 0-5.16-2.425-7.3-6.747-2.41-4.865-3.54-11.64-2.933-17.596.31-3.05 2.172-11.426 2.846-12.806.544-1.113.494-1.29-.764-2.708-1.593-1.798-2.053-2.506-3.586-5.52-1.449-2.848-3.584-8.478-4.79-12.63-.924-3.177-1.372-3.947-5.442-9.356-2.843-4.135-6.237-8.043-4.346-12.508 1.789-4.159 6.47-4.879 13.22-2.032 2.926 1.233 6.126 3.1 7.883 4.596 1.546 1.316 2.516 1.592 5.693 1.62 1.849.016 5.61.843 9.222 2.027 2.19.717 7.369 3.765 11.92 7.015 8.017 5.723 14.21 12.177 19.906 20.74 2.858 4.297 3.355 5.239 5.184 9.83 1.782 4.476 4.979 11.42 8.238 17.898 2.524 5.017 2.682 5.26 3.74 5.744 3.614 1.77 7.04 2.868 10.62 5.019 3.173 1.942 8.524 5.933 12.008 8.957 1.886 1.637 5.137 5.523 4.99 5.965-.152.455-3.99 1.448-7.325 1.894-3.167.423-9.796 1.947-9.796 2.25 0 .72 1.926 2.562 4.283 4.1 6.265 4.086 7.146 4.738 9.382 6.942 3.52 3.469 6.35 6.73 6.822 7.863.232.555.388 1.044.346 1.086-.042.042-.847-.577-1.79-1.374zm-91.257-93.785c3.019-1.09 5.92 2.075 5.646 4.194-.21 1.156-.708 2.212-1.263 2.673-1.392-1.318-4.71-6.654-4.383-6.867z" style="fill:#fff;stroke-width:.264583" transform="translate(-117.727 50.465)"/></svg>