<svg xmlns="http://www.w3.org/2000/svg" width="300mm" height="300mm" viewBox="0 0 300 300"><path d="M295.994 296.106c-6.746-6.166-16.287-12.382-27.007-17.597-15.447-7.515-26.325-14.969-32.15-22.031-3.078-3.731-7.834-12.142-7.834-13.853 0-1.293 2.107-2.344 9.75-4.861 10.05-3.31 14.164-4.063 26.44-4.837 5.939-.374 10.9-.76 11.023-.858.773-.608-2.482-3.598-7.653-7.031-3.298-2.19-9.673-6.565-14.168-9.723-4.495-3.158-9.749-6.617-11.675-7.686-3.863-2.143-14.618-6.269-22.765-8.732-8.642-2.613-11.23-4.286-14.726-9.52-3.386-5.071-6.409-10.985-12.674-24.8a2318.999 2318.999 0 0 0-8.933-19.401c-2.55-5.458-5.488-12.143-6.53-14.856-8.428-21.939-28.58-48.41-49.949-65.607C113.181 53.476 96.03 43.49 83.618 39.376c-4.87-1.615-6.897-1.929-16.33-2.53-11.683-.744-12.58-.992-16.528-4.568-3.808-3.45-7.536-5.764-15.167-9.412-12.29-5.877-18.324-7.41-21.893-5.565-5.26 2.72-3.404 10.175 5.24 21.057 6.696 8.431 12.162 16.562 14.647 21.793 1.272 2.676 4.381 11.166 6.91 18.868 6.053 18.436 10.03 26.347 16.508 32.839 3.225 3.231 4.475 5.713 4.475 8.888 0 1.19-1.572 6.808-3.493 12.481-4.694 13.868-5.509 19.197-5.079 33.24.2 6.526.696 12.432 1.253 14.898 2.05 9.089 5.91 18.494 9.068 22.09 2.306 2.627 5.132 4.242 5.965 3.409.317-.317.946-3.82 1.399-7.784 1.969-17.243 3.904-23.142 10.257-31.262 4.611-5.894 5.198-6.059 6.35-1.78.976 3.621 7.888 19.31 11.512 26.126 10.982 20.655 22.288 36.933 31.85 45.855 2.904 2.71 4.994 4.927 4.644 4.927-1.004 0-7.218-4.837-10.103-7.865-1.444-1.516-4.99-4.676-7.88-7.023-6.437-5.227-16.085-15.026-19.825-20.134-1.528-2.087-4.734-7.696-7.125-12.466s-4.461-8.558-4.6-8.42c-.39.39-1.396 5.818-2.627 14.173-1.49 10.117-3.047 13.342-7.558 15.657-5.652 2.9-10.688 1.511-16.635-4.59-13.023-13.363-18.836-43.236-13.17-67.686 2.334-10.077 4.8-19.211 5.61-20.774 1.299-2.514 1.09-3.133-2.358-6.998-3.429-3.842-7.763-10.987-11.077-18.26-2.42-5.312-8.571-22.356-10.631-29.462-1.872-6.455-2.886-8.147-12.534-20.91-8.93-11.814-11.04-15.243-12.487-20.295-2.317-8.087 1.08-16.528 8.2-20.377 1.99-1.076 3.28-1.262 8.755-1.26 5.36.002 7.24.263 11.382 1.58 8.901 2.83 20.361 8.95 26.559 14.182 4.041 3.412 4.949 3.789 9.155 3.8 6.735.018 14.108 1.101 21.781 3.199 9.236 2.525 13.61 4.545 24.053 11.111 27.38 17.214 46.357 35.364 63.152 60.399 7.41 11.046 9.21 14.346 13.365 24.511 7.474 18.286 24.717 54.613 27.907 58.796.833 1.09 2.341 2.349 3.352 2.795 1.012.447 5.517 2.427 10.011 4.4 12.08 5.305 15.462 7.102 23.06 12.251 15.62 10.587 26.84 20.012 32.929 27.66 2.433 3.057 4.425 5.817 4.425 6.133 0 .892-8.987 3.468-15.468 4.434l-9.923 1.475c-2.248.333-6.25 1.233-8.896 2-2.646.766-5.989 1.57-7.429 1.786-2.384.358-2.563.496-2 1.547 2.057 3.844 6.49 7.367 17.45 13.866 9.066 5.376 16.65 11.742 23.113 19.401 2.205 2.612 5.347 6.016 6.983 7.563 2.769 2.619 6.814 9.837 5.512 9.837-.27 0-1.909-1.294-3.64-2.876zM61.678 56.936c.161-.162 1.86-.436 3.773-.61 3.198-.29 3.695-.167 6.12 1.5 2.733 1.881 5.671 6.277 5.665 8.477-.006 2.433-1.262 5.709-2.883 7.524l-1.647 1.843c-.103-3.824-12.343-17.017-11.028-18.735Z" style="fill:#00748e;stroke-width:.583704"/></svg>