<svg xmlns="http://www.w3.org/2000/svg" width="213.942" height="212.566" viewBox="0 0 56.605 56.241"><path d="M195.138 257.358c-.873-.75-1.075-1.52-3.416-13.02-1.368-6.722-2.66-12.65-2.871-13.174-.212-.524-.85-1.167-1.42-1.428-.57-.262-6.537-1.593-13.261-2.96-11.285-2.292-12.284-2.55-12.985-3.365-1.035-1.203-.975-2.615.163-3.825.798-.85 4.294-2.1 26.22-9.387 14.59-4.85 25.818-8.408 26.525-8.408.959 0 1.417.226 2.095 1.031.477.567.867 1.283.867 1.592 0 1.007-17.127 51.967-17.705 52.682-.334.412-1.12.77-1.924.878-1.11.15-1.53.036-2.288-.616z" style="fill:#fff;stroke-width:.335081" transform="translate(-160.45 -201.791)"/></svg>