<?xml version="1.0" encoding="UTF-8" standalone="no"?>
<!-- Created with Inkscape (http://www.inkscape.org/) -->

<svg
   width="95.112778mm"
   height="95mm"
   viewBox="0 0 95.112778 95"
   version="1.1"
   id="svg5"
   xml:space="preserve"
   xmlns="http://www.w3.org/2000/svg"
   xmlns:svg="http://www.w3.org/2000/svg"><defs
     id="defs2" /><g
     id="layer1"
     transform="translate(26.189727,-205.90491)"><g
       id="g195"
       transform="translate(0,14.176024)"><path
         style="fill:#fde752;stroke-width:0.264583"
         d="M 14.094631,270.71236 C 3.1694398,269.15505 -7.2231528,263.96749 -12.77948,257.2979 c -1.256074,-1.50774 -6.097116,-12.40134 -9.855226,-22.17682 -0.16228,-0.42212 0.195588,-0.1349 0.989015,0.79375 4.899393,5.73442 11.642392,10.83337 16.2520764,12.28957 7.2054244,2.27619 7.2196563,2.27379 17.4752976,-2.94977 9.373087,-4.77404 9.373087,-4.77404 18.765613,0.10822 10.28464,5.34597 10.348113,5.35736 17.185235,3.08214 4.606364,-1.53288 12.408181,-7.11371 16.040243,-11.47399 0.843029,-1.01205 1.568508,-1.80436 1.612178,-1.76069 0.381497,0.3815 -9.096899,21.09216 -10.191155,22.26806 -9.577229,10.29186 -25.756267,15.46378 -41.399166,13.23399 z"
         id="path201" /><path
         style="fill:#f2d300;stroke-width:0.264583"
         d="m -15.58746,236.50898 c -3.116194,-2.51046 -5.332802,-5.80109 -8.831239,-13.11027 -1.518229,-3.172 -1.998422,-4.40419 -1.675453,-4.29927 0.249,0.0809 1.583817,0.61593 2.966265,1.18897 2.513542,1.0419 2.513542,1.0419 3.175,0.44779 1.155002,-1.03741 2.67738,-2.08213 4.8723,-3.34358 2.262814,-1.30048 2.266291,-1.30501 6.4966266,-8.46343 0.198374,-0.33568 0.3655456,-0.29722 1.1129856,0.25609 5.783162,4.2811 5.8999411,4.33519 8.09156426,3.74763 3.00742614,-0.80627 6.63963404,-1.34407 10.38277354,-1.53731 3.307292,-0.17074 3.307292,-0.17074 6.982384,-3.03554 3.675091,-2.8648 3.675091,-2.8648 4.894791,-1.80547 4.570183,3.96929 5.882503,4.98946 6.241222,4.8518 0.638628,-0.24506 7.301055,0.39858 11.548679,1.11569 2.168083,0.36603 4.089231,0.57517 4.269216,0.46475 0.179988,-0.11042 1.736931,-1.20752 3.459877,-2.43801 2.453672,-1.75235 3.182361,-2.15678 3.362092,-1.86596 0.126206,0.2042 1.137335,1.9819 2.246953,3.95044 1.965153,3.48633 2.066753,3.61141 3.916757,4.82201 1.044598,0.68357 2.575266,1.84535 3.401486,2.58175 1.502217,1.33891 1.502217,1.33891 4.601588,0.2702 3.738928,-1.28924 3.507356,-1.60405 1.846871,2.51069 -4.403783,10.91273 -9.37102,16.33906 -12.221303,13.35083 -13.468453,-14.12027 -58.0196717,-13.641 -68.918126,0.7414 -0.653998,0.86307 -0.653998,0.86307 -2.22331,-0.4012 z"
         id="path199" /></g></g></svg>
