<svg xmlns="http://www.w3.org/2000/svg" width="707.605" height="707.605" viewBox="0 0 187.221 187.221"><path d="M75.477 244.68c-21.987-4.674-42.752-17.312-49.839-30.333-4.412-8.107-17.892-47.73-21.777-64.014C1.81 141.73.278 134.546.46 134.365c.182-.182 2.994.753 6.25 2.076l5.92 2.405 4.49-3.705c2.47-2.039 5.846-4.48 7.504-5.424 2.244-1.279 4.038-3.871 7.019-10.142 2.202-4.634 4.248-8.425 4.547-8.425.298 0 3.618 2.355 7.376 5.234l6.834 5.234 8.487-1.877c4.668-1.032 11.202-1.885 14.52-1.897l6.034-.021 7.163-6.436c3.939-3.54 7.374-6.368 7.632-6.286.259.082 3.619 2.978 7.467 6.435l6.996 6.287 6.033.021c3.319.011 9.868.868 14.553 1.904l8.519 1.883 6.842-5.24c3.764-2.883 7.069-5.241 7.345-5.241.277 0 2.304 3.79 4.506 8.425 2.98 6.27 4.775 8.863 7.019 10.142 1.658.945 5.076 3.42 7.596 5.502l4.582 3.783 5.798-2.514c3.188-1.383 5.959-2.352 6.157-2.154.198.198-1.319 7.397-3.371 15.999-3.885 16.284-17.365 55.907-21.777 64.014-1.398 2.57-5.166 7.11-8.373 10.088-19.01 17.659-51.487 26.018-78.65 20.244zm.089-53.92c9.82-5.505 18.147-10.01 18.503-10.01.356 0 8.733 4.533 18.615 10.073l17.968 10.074 8.881-2.611c4.885-1.436 9.443-3.04 10.129-3.563 2.724-2.078 13.53-16.974 13.53-18.651 0-2.947-5.982-10.75-11.996-15.65-24.546-19.992-70.36-23.505-101.938-7.816-4.72 2.345-10.79 6.199-13.49 8.565-5.624 4.93-10.848 12.309-10.769 15.213.03 1.09 3.14 5.796 6.912 10.456l6.86 8.474 8.58 2.62c4.72 1.441 8.98 2.67 9.47 2.729.488.06 8.924-4.396 18.745-9.902z" style="fill:#f9f9f9;stroke-width:.953426" transform="translate(-.445 -82.617)"/></svg>