<svg xmlns="http://www.w3.org/2000/svg" width="300mm" height="300mm" viewBox="0 0 300 300"><path d="M135.951 299.858c-2.703-.304-4.716-.438-8.91-.592-5.972-.22-15.299-1.035-21.923-1.917a155.79 155.79 0 0 0-4.454-.525c-1.057-.102-2.433-.298-3.058-.435a24.15 24.15 0 0 0-2.27-.362 37.951 37.951 0 0 1-2.534-.371c-.768-.142-2.026-.365-2.795-.496-3.268-.557-5.46-.96-6.114-1.126a24.794 24.794 0 0 0-1.921-.358c-.673-.099-1.891-.335-2.708-.524-.817-.188-2.389-.542-3.494-.785a139.773 139.773 0 0 1-3.319-.773 200.421 200.421 0 0 0-4.018-.979 24.49 24.49 0 0 1-1.922-.534 24.324 24.324 0 0 0-1.746-.504c-1.485-.362-3.902-1.067-6.027-1.756-.48-.156-1.306-.4-1.835-.543-.528-.142-1.196-.364-1.484-.493a15.28 15.28 0 0 0-1.398-.502c-1.256-.384-2.94-1.011-3.144-1.17-.096-.075-.464-.19-.817-.256-.352-.066-1.014-.308-1.47-.54-.457-.23-.932-.42-1.057-.42-.212 0-.847-.257-2.596-1.053a95.144 95.144 0 0 0-2.009-.868c-2.06-.864-7.026-3.281-8.935-4.35-4.64-2.596-7.152-4.27-10.512-7.005a90.23 90.23 0 0 1-2.196-1.834c-.796-.712-3.616-3.865-4.463-4.99-.97-1.288-2.367-3.619-2.654-4.428-.134-.376-.314-.77-.4-.874-.158-.192-.512-1.364-1.034-3.421-.358-1.41-.388-8.216-.05-11.442.356-3.414 1.073-9.033 1.171-9.193.05-.082.244-1.034.43-2.116.426-2.493 2.378-10.022 2.803-10.815.114-.213.307-.786.43-1.273.253-1.004.882-2.792 1.57-4.467.257-.624.606-1.489.777-1.921.554-1.41 2.044-4.58 3.24-6.9 1.372-2.659 1.812-3.444 4.014-7.149.725-1.221 3.152-4.749 4.615-6.71 4.128-5.535 10.185-12.03 14.775-15.844 1.152-.958 2.222-1.86 2.376-2.004.38-.355 3.399-2.62 5.59-4.192 4.024-2.89 10.875-6.74 16.021-9.005a197.03 197.03 0 0 0 2.935-1.314c.395-.186.856-.338 1.024-.338.169 0 .593-.153.942-.341.35-.188.91-.42 1.247-.515a29.374 29.374 0 0 0 1.834-.64 34.03 34.03 0 0 1 2.358-.789 57.18 57.18 0 0 0 1.922-.581c.432-.144 1.611-.468 2.62-.721 1.009-.253 2.385-.611 3.057-.796.673-.184 1.427-.334 1.675-.334.25 0 1.068-.157 1.819-.349 2.267-.58 2.684-.514 4.247.663 1.865 1.406 5.948 4.076 6.888 4.505.313.143.923.48 1.355.747.433.268 1.384.808 2.114 1.2.73.39 1.477.793 1.66.893.34.186 2.505 1.185 3.913 1.805.432.19.995.458 1.25.595.255.137.569.25.698.254.13.003.628.199 1.109.435.48.236.97.43 1.088.431.118 0 .708.194 1.31.43 1.567.611 6.065 2.018 6.454 2.018.18 0 .761.152 1.29.338.53.186 1.57.426 2.31.533.742.107 1.584.274 1.873.371.926.313 4.985.93 8.035 1.22 1.153.11 2.411.235 2.795.276 1.83.198 16.047.25 18.08.067 1.202-.108 3.05-.275 4.106-.372 2.417-.22 6.014-.766 7.949-1.207.816-.186 1.877-.388 2.358-.45.48-.06 1.148-.226 1.485-.367.336-.142 1.004-.332 1.485-.423 1.117-.211 5.117-1.471 6.398-2.015.54-.23 1.108-.417 1.262-.417.153 0 .615-.153 1.026-.34.41-.188 2.123-.947 3.804-1.688 3.075-1.356 3.762-1.696 6.432-3.187.8-.447 1.665-.92 1.922-1.052.978-.503 5.524-3.499 6.98-4.6 1.707-1.293 1.608-1.274 3.98-.76l3.745.81a58.16 58.16 0 0 1 3.145.786c.816.235 1.625.426 1.797.425.172-.002.621.155.998.347.376.192.807.35.957.35.369 0 5.439 1.71 6.205 2.093a5.61 5.61 0 0 0 1.249.42c.35.064.727.224.837.357.11.132.407.292.66.355.443.112 1.066.388 4.194 1.862.791.373 1.508.678 1.593.678.085 0 .342.146.571.325.23.179.613.386.853.46.24.073 1.184.567 2.097 1.095a518.015 518.015 0 0 0 3.668 2.114c1.08.614 4.05 2.59 5.997 3.99 1.04.75 2.141 1.53 2.446 1.737 1.175.796 5.138 4.151 7.679 6.501 4.28 3.96 9.207 9.504 12.187 13.714.332.468.76 1.064.952 1.325.467.635 3.077 4.546 3.329 4.987.109.192.441.742.738 1.223 2.675 4.323 5.64 10.485 7.875 16.358.389 1.022.755 2.084.813 2.358.059.275.289 1.01.512 1.635 1.46 4.087 3.15 11.452 3.688 16.072.14 1.2.33 2.616.421 3.144.302 1.742.576 8.07.482 11.093-.084 2.671-.146 3.137-.62 4.63-.952 3.004-1.925 4.902-3.85 7.511-1.016 1.376-4.982 5.457-6.295 6.478-.423.328-1.013.804-1.31 1.056-.754.64-4.55 3.288-5.608 3.912-.48.284-1.006.596-1.167.693-2.794 1.687-6.113 3.399-10.053 5.185l-1.485.673c-.41.186-1.336.582-2.057.88-.72.297-1.546.646-1.834.776-.288.13-.76.291-1.048.36-.288.068-.72.232-.96.365-.241.132-.87.387-1.398.566-.529.18-1.983.695-3.232 1.145-1.25.45-2.743.963-3.32 1.141-2.568.793-4.788 1.454-5.647 1.682-.513.135-1.063.315-1.223.4-.16.084-.637.21-1.06.28-.423.07-1.039.24-1.37.378-.33.138-1.045.33-1.59.424a20 20 0 0 0-2.036.498c-1.094.338-3.718.973-6.551 1.584-.913.197-2.328.511-3.145.699-.816.187-1.8.385-2.183.44a46.59 46.59 0 0 0-2.271.432c-1.952.414-5.155 1.003-6.202 1.14a91.65 91.65 0 0 0-2.708.437c-3.305.576-5.34.879-7.599 1.132-1.2.135-3.245.401-4.542.593-1.297.19-4.087.512-6.201.714-2.114.201-4.63.442-5.59.535-.961.093-2.533.243-3.494.333-.961.09-3.948.25-6.638.352-2.69.104-6.145.304-7.676.446-2.195.203-5.54.252-15.81.231-7.163-.014-13.26-.053-13.549-.085zm10.045-142.169c-5.73-.508-9.311-1.112-13.015-2.192-16.166-4.718-29.784-14.872-39.47-29.432-2.45-3.681-3.793-6.015-5.532-9.608-9.783-20.216-11.188-43.849-3.88-65.308 7.53-22.116 23.525-39.246 43.729-46.833 4.503-1.69 9.862-3.014 15.023-3.71 2.934-.396 11.778-.45 14.674-.091 8.146 1.01 15.35 3.147 22.254 6.602 16.481 8.246 29.453 22.993 36.403 41.386 8.344 22.079 7.233 47.069-3.029 68.128-9.716 19.94-26.83 34.33-46.827 39.377-5.876 1.482-14.517 2.197-20.33 1.681zm10.759-22.536c12.049-1.45 24.072-8.723 32.105-19.424 15.08-20.088 15.768-49.03 1.664-69.935-7.887-11.69-19.576-19.45-32.65-21.675-3.141-.535-9.358-.663-12.585-.26-10.606 1.326-20.156 6.088-28.033 13.98-8.917 8.934-14.382 20.378-16.267 34.071-.447 3.248-.447 12.134 0 15.373.719 5.198 1.881 9.856 3.554 14.238 6.064 15.887 18.205 27.695 33.124 32.217 5.59 1.695 12.503 2.207 19.088 1.415zm-8.552-34.172c-5.129-.442-9.653-2.545-13.305-6.186-4.063-4.051-6.234-9.267-6.253-15.024-.018-5.768 1.96-10.756 5.912-14.909 5.86-6.159 14.763-8.247 22.794-5.348 5.181 1.871 9.84 6.144 12.136 11.132 1.335 2.9 1.904 5.59 1.91 9.038.01 5.862-2.086 10.917-6.27 15.12-4.427 4.445-10.654 6.718-16.924 6.177z" style="fill:#fff;stroke-width:.174691"/></svg>