<svg xmlns="http://www.w3.org/2000/svg" width="300mm" height="300mm" viewBox="0 0 300 300"><path d="M70.955 272.537c-8.873-2.184-13.88-9.862-13.852-21.24.037-14.944 6.968-22.795 20.126-22.795 10.432 0 18.76 9.598 18.764 21.627.005 16.37-10.69 25.94-25.038 22.408zm12.283-11.054c5.412-8.27 3.106-22.68-3.91-24.441-4.765-1.196-9.735 1.306-11.46 5.768-1.964 5.082-.749 15.81 2.155 19.02 3.391 3.747 10.66 3.556 13.215-.347zm27.415 10.067c-13.411-6.917-14.038-32.119-1-40.177 5.507-3.403 14.058-3.767 19.722-.838 4.593 2.375 4.823 3.41 1.44 6.472-2.058 1.862-3.087 1.985-5.9.704-7.967-3.63-14.774 2.563-14.774 13.444 0 11.108 6.906 16.982 15.137 12.876 3.43-1.711 4.017-1.637 6.48.826l2.708 2.708-3.388 2.665c-4.737 3.726-14.534 4.36-20.425 1.32zm61.297-14.398v-16.657h3.998c2.199 0 3.998.6 3.998 1.332 0 2.024 3.456 1.592 5.33-.666 2.346-2.827 9.774-2.521 12.524.517 2.228 2.462 2.385 2.456 7.415-.3 4.12-2.257 5.884-2.553 8.895-1.494 5.623 1.978 7.103 6.324 7.125 20.932l.02 12.993h-9.328v-11.83c0-13.67-1.585-16.563-7.375-13.465-3.112 1.666-3.286 2.382-3.286 13.527v11.768h-9.228l-.383-12.185c-.305-9.717-.84-12.472-2.637-13.603-1.725-1.085-2.897-.836-4.997 1.065-2.351 2.128-2.743 4.07-2.743 13.602v11.12h-9.328zm61.298 15.732c-4.732-1.691-5.33-4.61-5.33-25.981v-21.066h9.327V245.2c0 15.983.35 19.497 1.999 20.13 2.648 1.016 2.568 6.642-.109 7.669-2.374.91-3.052.897-5.888-.116zm-92.203-2.74c-3.048-3.548-3.793-6.687-2.435-10.258 1.426-3.75 4.98-5.906 13.2-8.002 5.623-1.435 5.763-1.59 3.48-3.873-1.471-1.471-3.45-2.092-5.185-1.626a748.985 748.985 0 0 0-5.677 1.55c-2.178.606-3.095.087-3.807-2.154-1.084-3.418.33-4.636 7.763-6.694 3.688-1.02 6.377-.98 9.79.147 6.387 2.107 8.446 7.44 8.446 21.873v11.369h-3.886c-2.138 0-4.116-.686-4.395-1.524-.381-1.143-1.219-1.143-3.355 0-4.29 2.297-11.639 1.87-13.94-.808zm14.663-9.287c.408-4.224.354-4.268-3.558-2.905-6.753 2.354-7.066 8.377-.395 7.605 2.906-.337 3.613-1.177 3.953-4.7z" style="fill:#444243;stroke-width:1.33255" transform="translate(.983 .256)"/><path d="M95.646 219.263c-5.402-1.944-9.957-2.536-17.323-2.254-5.497.21-9.92-.068-9.83-.619.09-.551.572-4.077 1.07-7.836.965-7.272 4.546-15.495 7.992-18.355 1.15-.955 2.996-4.782 4.101-8.503 1.105-3.722 4.507-10.996 7.56-16.164 3.052-5.169 6.68-11.321 8.063-13.672 3.418-5.817 9.9-11.05 13.686-11.05 4.373 0 17.428 12.296 21.42 20.175 1.792 3.535 4.845 11.985 6.786 18.778 1.94 6.792 4.885 14.15 6.544 16.348 1.659 2.199 4.803 8.495 6.986 13.992l3.97 9.994-3.528.841c-1.941.463-14.023.87-26.849.903-19.981.051-24.368-.318-30.648-2.578zm174.563.736c-20.924-5.28-29.088-5.926-58.01-4.587-15.625.724-31.463 2.167-35.934 3.275-4.398 1.09-8.376 2.002-8.84 2.029-2.55.143-11.392-30.717-9.622-33.58.399-.645-.7-3.387-2.442-6.093-4.932-7.663-6.123-11.179-7.598-22.433-2.383-18.174-2.59-23.115-.984-23.346.826-.118 8.098-.293 16.16-.388 18.986-.223 27.533-2.783 36.643-10.973 8.068-7.255 13.662-15.105 15.964-22.403 4.08-12.933 4.734-13.743 12.976-16.028 4.239-1.176 9.293-2.744 11.23-3.485 1.955-.748 6.254-.938 9.661-.427l6.138.92v-5.418c0-2.98-.716-6.991-1.592-8.913-2.846-6.246-16.436-11.252-30.61-11.275-5.61-.009-9.077-.592-9.406-1.58-.557-1.669-11.677-1.9-18.569-.387-5.32 1.169-9.521 8.38-11.618 19.942-2.178 12.01-6.289 20.47-10.454 21.515-4.986 1.25-14.957-.241-23.688-3.545-9.82-3.715-16.786-10.62-20.409-20.229-8.257-21.897-17.009-35.384-24.91-38.388-3.368-1.28-10.65.235-14.368 2.99-1.245.923-4.949 7.675-8.23 15.004-3.281 7.329-6.821 13.884-7.867 14.566-3.308 2.16-7.828-2.28-15.47-15.19-8.047-13.593-11.84-17.366-17.466-17.366-7.49 0-10.395 2.615-16.177 14.563C18.839 60.917 9.347 74.7 4.171 78.605L1.035 80.97V.893H300.873l-.34 110.268-.341 110.268-11.327.21c-6.23.116-14.625-.622-18.656-1.64zm-240.524.243c-.733-.266-7.48-1.865-14.992-3.553l-13.658-3.07V161.2l4.33-5.614c2.382-3.088 6.73-10.224 9.662-15.858 6.331-12.168 8.777-13.192 17.148-7.18 8.262 5.933 31.981 12.26 45.958 12.26h5.984l-2.625 2.999c-3.262 3.727-5.11 7.528-8.445 17.375-1.436 4.242-3.977 9.63-5.645 11.973-1.83 2.57-3.357 7.175-3.85 11.608-.45 4.042-1.9 12.596-3.226 19.009-2.308 11.175-2.557 11.66-5.997 11.66-1.973 0-8.026.291-13.45.648-5.424.357-10.462.43-11.194.163z" style="fill:#ed720d;stroke-width:1.33255"/></svg>