<svg xmlns="http://www.w3.org/2000/svg" width="101.4mm" height="383.055" viewBox="0 0 101.4 101.35"><path fill="#fff" d="M52.501 101.31C31.618 99.442 14.7 89.454 5.833 73.761 1.854 66.719.022 59.67.001 51.332c-.012-5.114.215-6.95 1.442-11.642C6.683 19.644 25.817 4.15 49.856.487c4.25-.648 13.059-.644 17.066.007 5.932.964 9.914 2.18 14.86 4.538 12.03 5.735 18.832 14.367 19.566 24.832.441 6.297-1.827 13.157-5.996 18.13-.806.963-3.77 3.81-6.587 6.327-2.817 2.518-5.463 5.007-5.88 5.533s-.95 1.61-1.183 2.409c-.772 2.656.018 5.176 2.34 7.462 1.75 1.722 2.908 2.238 6.732 2.999 4.811.957 6.417 2.01 7.838 5.137.436.959.572 1.779.579 3.501.008 1.944-.092 2.456-.74 3.773-1.345 2.74-6.28 6.503-12.744 9.717-8.814 4.382-16.724 6.279-26.987 6.47-2.765.052-5.563.046-6.218-.012zm11.763-12.944c6.776-1.765 10.987-8.707 9.274-15.286-1.195-4.588-4.71-8.115-9.274-9.303-6.62-1.725-13.557 2.467-15.327 9.263-2.358 9.054 6.273 17.685 15.327 15.327zM28.842 72.621c1.646-.797 3.27-2.421 4.094-4.098.93-1.89.93-5.24 0-7.13-.826-1.678-2.443-3.296-4.122-4.122-1.083-.533-1.713-.647-3.565-.647-1.85 0-2.481.114-3.565.647-4.713 2.32-6.3 8.02-3.442 12.363.988 1.502 2.78 2.879 4.466 3.431 1.617.53 4.563.316 6.134-.444zM26.725 47.75c1.646-.797 3.27-2.421 4.094-4.098.93-1.89.93-5.24 0-7.13-.825-1.678-2.443-3.296-4.121-4.122-1.084-.533-1.714-.647-3.565-.647s-2.482.114-3.565.647c-4.714 2.32-6.301 8.02-3.443 12.363.989 1.502 2.78 2.879 4.467 3.431 1.616.53 4.563.316 6.133-.444zm44.45-14.817c1.646-.797 3.27-2.421 4.094-4.098.93-1.89.93-5.24 0-7.13-.825-1.678-2.443-3.296-4.121-4.122-1.084-.533-1.714-.647-3.565-.647-1.852 0-2.482.114-3.565.647-4.714 2.32-6.301 8.02-3.443 12.363.989 1.502 2.78 2.879 4.467 3.431 1.616.53 4.563.316 6.133-.444zm-25.4-2.91c1.646-.797 3.27-2.422 4.094-4.098.93-1.89.93-5.24 0-7.13-.825-1.679-2.443-3.296-4.121-4.122-1.084-.533-1.714-.648-3.565-.648s-2.482.115-3.565.648c-4.714 2.32-6.301 8.02-3.443 12.363.989 1.502 2.78 2.878 4.467 3.43 1.616.53 4.563.317 6.133-.444z"/></svg>