<svg xmlns="http://www.w3.org/2000/svg" width="300mm" height="300mm" viewBox="0 0 300 300"><path d="m111.697 209.317 40.28 36.644c-.019.785 0 0-39.124 53.63l-1.156-90.274zm64.44 23.533c-26.55-23.669-49.375-44.136-50.722-45.484-2.428-2.427-2.005-2.92 45.292-52.755 26.259-27.668 47.602-50.465 47.43-50.66-.173-.195-29.044 19.498-64.158 43.762-35.114 24.264-64.518 44.127-65.341 44.14-2.396.038-87.039-20.47-88.037-21.329-.498-.428 66.844-34.65 149.647-76.05C265.07 17.063 300.606-.187 299.98 1.783c-.45 1.42-17.217 62.789-37.258 136.374-20.04 73.584-36.86 134.675-37.375 135.758-.726 1.522-11.876-7.783-49.21-41.066z" style="fill:#fff;stroke-width:1.25935"/></svg>