<svg xmlns="http://www.w3.org/2000/svg" width="300mm" height="300mm" viewBox="0 0 300 300"><path d="M549.967 472.297c-4.146-.204-7.91-.5-11.28-.89-12.92-1.492-25.934-4.798-38.097-9.676-3.902-1.565-6.605-2.783-10.76-4.845-16.008-7.947-29.998-18.33-42.449-31.504-7.072-7.483-13.98-16.642-19.389-25.702-3.636-6.093-7.417-13.655-9.983-19.966-6.398-15.737-9.952-31.773-10.864-49.018-.192-3.629-.199-13.303-.011-16.02.89-12.907 2.72-23.237 6.126-34.56 5.852-19.456 15.93-37.924 29.16-53.434 2.96-3.47 4.376-4.989 8.304-8.913 4.723-4.716 6.869-6.661 11.608-10.52 5.303-4.319 11.739-8.81 17.635-12.307 4.446-2.638 11.26-6.149 15.9-8.194 14.577-6.424 30.092-10.473 45.789-11.951 6.158-.58 7.597-.644 14.468-.644 6.732 0 8.249.065 13.928.591 18.986 1.76 37.27 7.077 54.08 15.727 17.387 8.948 32.505 20.904 45.328 35.852 15.302 17.838 26.235 39.289 31.68 62.16 4.61 19.36 5.353 39.843 2.147 59.13-3.677 22.12-12.006 42.562-24.838 60.964-5.074 7.276-10.096 13.253-16.695 19.868-5.559 5.573-8.969 8.586-14.947 13.21-12.791 9.894-28.135 18.028-43.698 23.165-12.134 4.006-23.61 6.261-36.942 7.262-2.289.171-13.94.326-16.2.215zm7.534-20.136c.34-.658.433-2.865.394-9.381-.034-5.782-.056-6.378-.251-6.81-.446-.989-1.012-.821-1.29.38-.154.675-.148 14.753.008 15.331.237.881.807 1.122 1.139.48zm-19.2-2.881c2.477-1.16 4.21-2.905 5.233-5.267 1.137-2.623 1.361-5.836.407-5.836-.506 0-.79.605-1.344 2.869-.906 3.703-1.45 4.37-5.867 7.21-.763.49-1.095.902-.976 1.212.21.547 1.122.48 2.548-.188zm38.877.048c.152-.415-.315-.859-1.973-1.876-1.535-.942-2.95-2.139-3.526-2.985-.494-.725-.921-1.887-1.329-3.618-.198-.845-.423-1.698-.498-1.895-.318-.832-1.019-1.173-1.306-.635-.079.147-.135.71-.13 1.285.02 1.767.833 4.35 1.854 5.884 1.41 2.119 4.529 4.212 6.165 4.136.543-.025.66-.072.743-.296zm13.438-15.57c1.035-.251 2.19-.662 4.065-1.444l1.913-.797c9.733-4.057 14.892-6.58 21.161-10.35 12.75-7.665 23.199-17.894 31.05-30.394 7.708-12.274 11.856-25.698 12.27-39.712.308-10.406-1.025-19.692-3.929-27.36-5.063-13.372-15.843-26.168-32.696-38.81-7.917-5.94-19.236-13.416-31.714-20.948-10.056-6.07-14.449-9.232-18.575-13.371-4.022-4.037-6.52-8.14-7.52-12.353-.46-1.934-.859-5.259-1.06-8.847-.122-2.156-.15-2.932-.378-10.82-.198-6.845-.317-7.787-1.007-7.96-.16-.04-.804.019-1.43.131-1.24.223-1.794.179-2.252-.182-.163-.128-.662-.748-1.108-1.377-1.112-1.57-1.75-1.975-2.112-1.342-.242.423-.153 2.961.191 5.47.974 7.101 1.804 14.863 2.11 19.727.166 2.652.169 9.374.004 12.493-.545 10.364-1.95 20.22-4.502 31.563-.296 1.315-1.45 6.033-2.564 10.485a1169.493 1169.493 0 0 0-2.749 11.168c-5.055 21.509-7.447 38.107-7.75 53.787-.334 17.21 1.536 31.027 6.27 46.35 1.286 4.157 2.872 8.384 5.042 13.428.396.92 1.05 2.454 1.454 3.407 1.285 3.031 2.55 4.868 3.693 5.36.32.137 2.434.712 4.696 1.276 6.938 1.73 9.192 2.457 12.243 3.944 2.855 1.39 4.795 2.706 7.45 5.051 1.463 1.293 2.51 1.975 3.656 2.383.984.35 2.74.369 4.078.044zm9.224-13.812c-.433-.434-.111-1.75.93-3.8 1.199-2.36 2.986-4.867 6.2-8.695 1.02-1.217 2.648-3.153 3.616-4.304 4.647-5.526 8.036-10.553 10.519-15.602 4.725-9.61 7.35-21.641 7.35-33.683 0-15.004-4.02-29.306-11.584-41.22-6.191-9.75-15.156-19.247-29.961-31.742-8.459-7.138-11.728-10.537-15.385-15.993-3.164-4.72-4.531-7.903-3.906-9.091.305-.58.452-.528 1.835.64 1.642 1.389 5.37 5.023 12.434 12.125l6.815 6.85 3.394 2.496c13.078 9.617 16.003 11.97 22.67 18.23 12.358 11.608 19.324 20.838 23.313 30.892 3.836 9.671 5.393 21.076 4.594 33.655-.402 6.34-1.062 10.082-2.525 14.327-2.747 7.969-7.802 16.056-16.005 25.605-9.095 10.587-15.793 16.295-22.161 18.886-1.485.604-1.883.683-2.143.424zm-70.317 12.685c.954-.41 1.494-1.15 1.494-2.045 0-.712-.306-1.287-1.096-2.056-1.023-.994-2.477-1.824-7.818-4.459-2.765-1.364-5.59-2.818-6.276-3.231-7.134-4.294-15.11-11.38-24.629-21.881-2.593-2.861-3.612-4.076-5.295-6.31-5.207-6.918-8.74-14.148-10.782-22.069-1.68-6.518-2.614-14.853-2.33-20.817.467-9.842 2.975-19.405 7.415-28.273 3.286-6.562 7.525-12.33 17.925-24.39 6.886-7.984 16.609-18.632 23.46-25.692 8.938-9.212 10.113-10.484 12.879-13.94 6.155-7.693 9.502-15.222 9.99-22.477 1.47-21.797 1.77-26.937 1.78-30.367.01-3.479-.159-4.714-.832-6.107-.62-1.282-1.913-2.322-2.886-2.322-.766 0-1.327.77-1.632 2.237-.289 1.389-.348 3.126-.184 5.391.135 1.863.127 2.773-.066 7.147-.144 3.266-.228 7.365-.24 11.767-.018 7.143-.053 7.703-.642 10.341-1.01 4.52-3.292 8.808-7.514 14.117-1.296 1.63-5.639 5.988-7.862 7.89-5.322 4.552-8.535 6.885-17.541 12.74-6.397 4.16-16.921 12.239-24.417 18.745-6.18 5.364-11.64 10.777-14.866 14.74-1.911 2.349-6.914 9.623-8.972 13.045-4.469 7.433-6.805 14.506-7.785 23.574-1.905 17.626 1.746 35.324 10.442 50.615 4.862 8.55 10.535 15.26 18.126 21.436 7.698 6.264 18.779 12.686 30.128 17.461 5.843 2.458 12.426 4.673 15.722 5.289 1.285.24 3.643.186 4.304-.099zm17.461-8.265c.841-.427 1.059-.779 1.11-1.798.127-2.483-2.496-7.155-10.2-18.166-3.209-4.584-5.778-8.414-6.574-9.797-4.015-6.98-8.517-18.806-11.107-29.178-1.642-6.577-2.428-11.663-2.55-16.499-.076-3.016.032-4.729.507-8.036 1.65-11.501 7.34-27.272 13.663-37.873.432-.724 1.896-2.983 3.254-5.022 5.059-7.593 7.513-11.742 10.607-17.933 2.985-5.972 5.335-12.023 6.257-16.113 1.085-4.812 1.702-12.754 2.022-26.03.252-10.488.09-42.403-.24-47.285-.457-6.751-1.354-10.759-2.721-12.165-1.576-1.62-2.442 1.159-2.791 8.963-.102 2.276-.103 4.347-.001 8.205.317 12.075.4 17.705.405 27.696.006 10.537-.083 14.208-.453 18.584-.53 6.277-2.378 12.91-5.714 20.51-.854 1.947-3.447 7.459-3.797 8.072-2.866 5.028-7.351 11.337-17.04 23.97-5.588 7.285-8.888 11.91-11.648 16.319-6.69 10.69-10.501 20.54-11.795 30.487-.31 2.388-.31 8.852 0 11.656 1.152 10.387 4.594 21.687 9.834 32.28 1.652 3.34 3.276 6.221 4.916 8.72 1.583 2.412 2.486 3.602 4.842 6.378 4.581 5.401 8.342 9.5 12.431 13.549 3.088 3.058 4.744 4.566 6.95 6.329 4.696 3.755 7.947 5.136 9.833 4.177z" style="fill:#393b5a;stroke-width:.119556" transform="translate(-406.076 -174.033)"/></svg>