<svg xmlns="http://www.w3.org/2000/svg" width="300mm" height="300mm" viewBox="0 0 300 300"><path d="M124.96 276.075c-33.842-2.056-60.704-7.7-68.089-14.303l-2.39-2.137.382-9.286c.801-19.481 5.91-39.24 14.464-55.95 6.43-12.56 12.223-20.643 21.576-30.108 12.748-12.9 26.933-21.198 43.742-25.59 6.917-1.808 7.662-1.878 19.993-1.878 12.33 0 13.075.07 19.992 1.878 16.81 4.392 30.994 12.69 43.742 25.59 9.353 9.465 15.146 17.548 21.576 30.108 8.555 16.71 13.663 36.469 14.464 55.95l.382 9.286-2.39 2.137c-7.565 6.766-34.088 12.231-69.652 14.353-11.85.707-45.818.678-57.791-.05zm19.842-162.017c-6.993-1.138-17.051-5.46-22.965-9.87-9.484-7.07-16.84-17.73-20.085-29.103-1.605-5.627-1.605-21.212 0-26.84 6.743-23.635 28.1-39.648 52.886-39.648 21.369 0 40.297 11.74 49.314 30.585 4.003 8.365 4.702 11.71 4.702 22.483 0 10.774-.7 14.12-4.702 22.484-7.532 15.742-22.88 27.229-40.005 29.942-4.69.743-14.48.726-19.145-.033z" style="fill:#fff;stroke-width:.61733"/></svg>