<svg xmlns="http://www.w3.org/2000/svg" width="300mm" height="300mm" viewBox="0 0 300 300"><path d="M142.356 299.871c-19.497-1.31-35.947-5.23-52.475-12.504C43.757 267.07 10.395 224.385 2.136 175.1c-1.612-9.616-1.97-14.17-1.97-25.086 0-10.944.333-15.19 1.968-25.042C9.206 82.35 35.567 43.838 73.002 21.438 92.805 9.59 113.033 2.966 136.845.534c5.777-.59 21.928-.488 28.017.176 33.077 3.61 61.783 16.524 86.513 38.92 24.151 21.871 40.974 52.733 46.504 85.315 1.612 9.494 1.976 14.119 1.976 25.07 0 10.947-.361 15.539-1.978 25.108-6.92 40.96-31.028 77.587-66.177 100.54-20.154 13.16-42.44 21.057-66.685 23.627-4.202.446-19.023.826-22.659.581zm17.469-10.24c15.663-1.203 30.67-4.795 44.383-10.623 24.418-10.377 45.297-27.33 60.679-49.267 16.253-23.181 25.057-51.192 25.057-79.727 0-25.292-6.805-49.933-19.735-71.466-21.35-35.555-56.856-59.875-97.233-66.602-12.857-2.143-27.832-2.427-40.724-.773-22.061 2.83-44.063 11.353-62.128 24.067-12.209 8.593-24.074 20.166-32.886 32.077C8.81 105.74 2.185 156.527 19.78 201.149c12.827 32.532 37.875 59.506 69.558 74.906 15.508 7.538 32.663 12.164 50.262 13.553 4.73.373 15.501.385 20.225.023zm-47.323-58.789c-10.223-.281-15.373-.732-21.281-1.863-8.653-1.656-13.757-4.557-15.99-9.087-.998-2.027-1.005-2.067-1.105-7.261-.309-15.995 5.039-29.822 15.852-40.99 7.752-8.007 16.923-13.413 27.32-16.105 6.932-1.794 7.861-1.847 32.36-1.847 24.134 0 25.894.092 31.995 1.68 20.047 5.217 35.534 19.91 41.406 39.283 1.919 6.33 2.967 16.078 2.29 21.297-.932 7.19-6.85 11.274-19.322 13.334-5.568.92-10.006 1.255-20.803 1.573-10.832.32-60.96.31-72.722-.014zm28.017-82.038c-20.252-3.696-35.494-19.481-37.983-39.338-.243-1.941-.313-4.598-.192-7.35 1.006-22.98 19.32-41.431 42.691-43.009 14.128-.953 26.535 3.708 36.525 13.725 6.562 6.579 10.471 13.716 12.43 22.691.883 4.045.811 12.856-.139 17.099-4.068 18.169-17.173 31.458-35.266 35.762-4.54 1.08-13.33 1.284-18.066.42z" style="fill:#fff;stroke-width:.306198"/></svg>