<svg xmlns="http://www.w3.org/2000/svg" width="300mm" height="300mm" viewBox="0 0 300 300"><path d="M147.677 228.582a16.04 16.04 0 0 1 2.218.001c.572.052.041.094-1.178.093-1.22 0-1.687-.043-1.04-.094zm-10.484-.242a9.21 9.21 0 0 1 1.725-.002c.511.053.153.097-.795.099-.949 0-1.367-.043-.93-.098zm20.45 0a9.21 9.21 0 0 1 1.724-.002c.511.053.154.097-.795.099-.949 0-1.367-.043-.93-.098zm-25.491-.246c.374-.056.928-.055 1.231.003.303.059-.003.105-.68.103-.678-.002-.926-.05-.551-.106zm31.163.003a3.512 3.512 0 0 1 1.108 0c.305.059.056.107-.554.107-.61 0-.86-.048-.554-.107zm-34.736-.247c.306-.059.75-.056.985.005.236.062-.015.11-.557.108-.542-.003-.735-.054-.428-.113zm38.68 0c.307-.059.75-.056.986.005.236.062-.015.11-.557.108-.542-.003-.735-.054-.428-.113zm-42.01-.242c.238-.062.626-.062.863 0s.043.113-.431.113-.668-.05-.431-.113zm45.087 0c.238-.062.626-.062.863 0s.043.113-.431.113c-.475 0-.669-.05-.432-.113zm-47.792-.247c.24-.062.573-.058.74.01.166.067-.03.118-.437.113-.406-.005-.543-.06-.303-.123zm50.754 0c.24-.062.572-.058.739.01.167.067-.03.118-.436.113-.407-.005-.543-.06-.303-.123zm-53.218-.246c.24-.063.573-.059.74.009.166.067-.03.118-.436.113-.407-.005-.543-.06-.304-.122zm55.681 0c.24-.063.573-.059.74.009.166.067-.03.118-.436.113-.407-.005-.543-.06-.304-.122zm-57.898-.247c.24-.062.572-.058.74.01.166.067-.03.118-.437.113-.406-.005-.543-.06-.303-.123zm60.234.008a.95.95 0 0 1 .616 0c.17.069.031.125-.308.125-.338 0-.477-.056-.308-.125zm-62.451-.254c.24-.062.572-.058.739.01.167.067-.03.118-.436.113-.407-.005-.543-.06-.303-.123zm64.422.008a.95.95 0 0 1 .616 0c.17.069.031.125-.308.125-.338 0-.477-.056-.308-.125zm-66.275-.246a.95.95 0 0 1 .616 0c.17.068.03.124-.308.124-.339 0-.477-.056-.308-.124zm68.493 0a.95.95 0 0 1 .616 0c.169.068.03.124-.308.124-.34 0-.478-.056-.308-.124zm-70.464-.246a.95.95 0 0 1 .616 0c.17.068.03.124-.308.124-.339 0-.477-.056-.308-.124zm72.188 0a.95.95 0 0 1 .616 0c.17.068.031.124-.308.124-.338 0-.477-.056-.308-.124zm-73.912-.247a.951.951 0 0 1 .615 0c.17.069.031.125-.308.125-.338 0-.477-.056-.307-.125zm75.899-.005c.178-.07.39-.062.472.02.082.082-.064.14-.323.13-.287-.013-.346-.071-.15-.15zm-77.624-.24a.95.95 0 0 1 .616 0c.17.067.03.123-.308.123-.339 0-.477-.056-.308-.124zm79.102-.006c.178-.071.39-.062.472.02.082.081-.063.14-.323.129-.287-.012-.346-.07-.149-.149zm-80.565-.246c.178-.071.39-.063.472.02.082.081-.063.14-.323.129-.287-.012-.346-.07-.149-.15zm82.29 0c.178-.071.39-.063.472.02.082.081-.064.14-.323.129-.288-.012-.346-.07-.15-.15zm-83.768-.247c.178-.07.39-.062.472.02.082.082-.064.14-.323.13-.287-.013-.346-.071-.15-.15zm85.246 0c.178-.07.39-.062.472.02.082.082-.063.14-.323.13-.287-.013-.346-.071-.15-.15zm-86.724-.246c.177-.071.39-.062.472.02.082.081-.064.14-.324.129-.287-.012-.345-.07-.148-.15zm88.202 0c.178-.071.39-.062.472.02.082.081-.063.14-.323.129-.287-.012-.345-.07-.149-.15zm-89.68-.246c.177-.072.39-.063.471.019.082.082-.063.14-.323.13-.287-.012-.345-.07-.149-.15zm91.158 0c.178-.072.39-.063.473.019.082.082-.064.14-.324.13-.287-.012-.345-.07-.149-.15zm-92.39-.247c.177-.071.39-.062.472.02.082.082-.064.14-.324.129-.287-.012-.345-.07-.149-.149zm-6.483-1.177c-24.048-5.18-43.932-13.034-59.689-23.58C9.972 182.855-.339 161.3 6.58 140.099c7.833-24.001 37.95-44.748 80.3-55.316 32.254-8.048 70.457-9.453 104.364-3.837 7.823 1.295 18.775 3.61 18.58 3.926-.052.084.062 1.257.253 2.606.191 1.35.35 2.575.352 2.724.003.148 1.363.635 3.023 1.081 4.722 1.27 14.142 4.436 19.303 6.487 17.176 6.826 29.65 14.581 39.161 24.347 3.49 3.582 5.127 5.586 7.355 9 7.072 10.832 8.745 22.328 4.923 33.833-7.483 22.528-37.376 42.198-78.595 51.718-24.618 5.685-52.363 7.632-79.18 5.557-2.641-.205-5.627-.461-6.633-.57-1.28-.137-2.242-.1-3.203.127-2.244.529-10.046 1.776-12.83 2.05-1.422.14-2.92.301-3.326.357-.406.057-2.956-.375-5.666-.959zm-26.988-25.175c.375-.221.855-.696 1.067-1.054.211-.358 1.061-4.14 1.888-8.405.827-4.264 1.62-8.336 1.76-9.047l.257-1.293h8.3c10.958 0 15.323-.5 20.491-2.35 6.445-2.306 12.43-7.075 16.993-13.542.89-1.26 1.022-1.369.9-.739l-1.396 7.214c-1.394 7.193-1.392 7.583.046 8.793l.741.624h18.67l.845-.742c.464-.408.912-1.01.993-1.336.082-.327 1.813-9.167 3.846-19.646a9537.653 9537.653 0 0 1 3.964-20.37l.27-1.319 6.937.116c6.99.116 8.415.284 9.34 1.106.871.775.568 2.922-3.03 21.457-3.81 19.619-3.722 18.805-2.161 20.118l.751.632 9.703-.07c5.337-.038 9.704-.004 9.704.077s-.73 3.906-1.623 8.5c-1.037 5.334-1.574 8.66-1.486 9.203.078.485.46 1.174.889 1.602l.75.751h19.2l.783-.784c.766-.766.825-.993 2.586-9.978.991-5.057 1.805-9.211 1.808-9.232.003-.021 4.413-.092 9.8-.157 8.608-.104 10.135-.182 12.626-.642 7.975-1.476 12.907-4.058 18.62-9.75 6.808-6.785 10.08-13.95 10.951-23.984.85-9.786-2.541-17.708-9.603-22.43-3.327-2.226-7.208-3.637-12.35-4.49-2.497-.414-37.885-.631-39.198-.24-1.705.507-1.956 1.082-3.135 7.175-.589 3.04-1.2 6.192-1.36 7.005l-.29 1.478-.422-2.094c-.647-3.217-1.796-5.382-4.054-7.637-2.354-2.351-5.222-3.848-9.173-4.788-4.074-.969-5.983-1.137-14.721-1.294-4.506-.081-8.192-.226-8.192-.321 0-.096.726-3.914 1.614-8.485 1.785-9.189 1.79-9.368.321-10.604l-.741-.624h-18.694l-.868.8c-.988.913-.498-1.27-5.551 24.761-1.4 7.216-2.61 13.12-2.687 13.12-.077 0-.337-.764-.578-1.698-1.653-6.416-6.793-11.968-13.469-14.547a40.33 40.33 0 0 0-3.818-1.213c-4.295-1.089-5.486-1.144-24.772-1.144-17.266 0-18.406.027-19.042.444-.372.243-.84.798-1.04 1.231-.337.736-15.139 76.362-15.139 77.354 0 .775.729 1.907 1.552 2.409.744.454 1.298.48 9.867.482 7.962 0 9.161-.05 9.76-.403zm-13.988-2.737c2.26-.041 6.03-.041 8.377 0 2.346.04.496.073-4.111.073-4.608 0-6.527-.033-4.266-.073zm128.855 0c2.26-.041 6.03-.041 8.376 0 2.346.04.497.073-4.11.073-4.608 0-6.528-.033-4.266-.073zm-95.453-20.193c.307-.06.75-.057.986.005.235.062-.015.11-.557.107-.542-.003-.735-.053-.429-.112zm128.855 0c.307-.06.75-.057.986.005.235.062-.016.11-.558.107-.542-.003-.734-.053-.428-.112zm-124.9-.24c.178-.072.39-.063.472.019.082.082-.063.14-.323.13-.287-.013-.346-.071-.149-.15zm18.77-7.563c0-.051.195-.245.432-.431.39-.307.4-.298.093.093-.322.41-.524.54-.524.338zm129.841-1.016c.318-.338.634-.616.702-.616.067 0-.137.278-.456.616-.318.34-.634.616-.701.616-.068 0 .137-.277.455-.616zm1.478-1.478c.318-.339.634-.616.702-.616.068 0-.137.277-.455.616-.319.339-.634.616-.702.616-.068 0 .137-.277.455-.616zm-128.362-.462c0-.052.194-.246.431-.432.391-.306.4-.297.093.093-.321.41-.524.541-.524.338zm-27.163-1.303a.95.95 0 0 1 .616 0c.17.069.031.125-.308.125-.339 0-.477-.056-.308-.125zm128.855 0a.95.95 0 0 1 .616 0c.17.069.03.125-.308.125-.339 0-.477-.056-.308-.125zM76.406 159.84c.001-.478 4.616-24.378 4.811-24.913.18-.494 12.35-.242 14.747.307 2.43.556 3.767 1.274 4.539 2.44.59.891.668 1.27.748 3.61.253 7.385-2.926 14.558-7.426 16.759-3.041 1.487-7.91 2.214-14.894 2.224-2.243.003-2.525-.044-2.525-.427zm128.816.31c-.067-.066.965-5.693 2.293-12.503 1.328-6.81 2.417-12.534 2.42-12.72.01-.494 12.493-.242 14.858.3 2.379.546 4.04 1.515 4.694 2.736.476.889.532 1.357.512 4.323-.027 3.988-.718 7.02-2.357 10.347-2.417 4.907-6.083 6.86-13.882 7.395-3.7.253-8.34.32-8.538.122zm-83.71-15.79c.012-.288.07-.346.149-.15.07.178.062.39-.02.473-.082.082-.14-.064-.13-.324zm-17.246-.247c.011-.287.07-.345.148-.149.072.178.063.39-.019.472-.082.082-.14-.063-.13-.323zm146.1-.246c.012-.287.07-.346.15-.15.07.179.062.391-.02.473-.082.082-.14-.064-.13-.323zm-17.246-.247c.012-.287.07-.345.15-.149.07.178.062.39-.02.473-.082.081-.14-.064-.13-.324zm0-3.695c.012-.287.07-.346.15-.15.07.179.062.391-.02.473-.082.082-.14-.064-.13-.323zm-66.029-.247c.012-.287.07-.345.15-.149.07.178.062.39-.02.473-.082.081-.14-.064-.13-.324zm83.276-1.478c.011-.287.07-.345.148-.149.072.178.063.39-.02.472-.081.082-.14-.063-.128-.323zm-128.855-.493c.012-.287.07-.345.149-.149.07.178.062.39-.02.473-.082.081-.14-.064-.13-.324zm62.845-1.827c0-.339.056-.477.125-.308a.951.951 0 0 1 0 .616c-.069.17-.125.03-.125-.308zm-82.347-1.17-.597-.678.677.597c.373.329.678.634.678.678 0 .193-.2.036-.758-.597zm128.842 0c-.306-.391-.298-.4.093-.093.41.321.54.524.338.524-.051 0-.245-.194-.431-.431zm-46.495-1.787c0-.338.056-.477.125-.308a.951.951 0 0 1 0 .616c-.069.17-.125.031-.125-.308zm-23.244-.907c.178-.071.39-.062.472.02.082.081-.064.14-.323.129-.287-.012-.346-.07-.15-.15zm61.594-.246c.178-.072.39-.063.472.019.082.082-.064.14-.323.13-.287-.012-.346-.07-.15-.15zm-141.175-.263c1.668-.042 4.329-.042 5.913 0 1.584.043.22.078-3.032.078-3.252 0-4.549-.035-2.881-.078zm128.855 0c1.667-.042 4.328-.042 5.913 0 1.584.043.22.078-3.032.078-3.253 0-4.549-.035-2.881-.078zm-94.346-5.42c-.307-.391-.298-.4.093-.094.41.322.54.525.338.525-.051 0-.245-.194-.431-.432zm64.936-1.356-.724-.8.8.723c.441.398.802.759.802.801 0 .19-.204.023-.878-.724zm-12.227-4.787c.178-.072.39-.063.473.019.082.082-.064.14-.324.13-.287-.012-.345-.07-.149-.15zm-68.985-.247c.178-.071.39-.062.472.02.082.081-.063.14-.323.129-.287-.012-.345-.07-.149-.149zm66.141-.002c.24-.062.573-.058.74.01.166.067-.03.118-.436.113-.407-.005-.543-.06-.304-.123zm62.714.002c.178-.071.39-.062.472.02.082.081-.064.14-.323.129-.287-.012-.346-.07-.15-.149zm-32.275 104.464c.177-.072.39-.063.472.019.082.082-.064.14-.324.13-.287-.012-.345-.07-.148-.15zm1.231-.247c.178-.071.39-.062.473.02.082.082-.064.14-.324.129-.287-.012-.345-.07-.149-.149zm69.525-28.504c0-.051.194-.245.43-.431.392-.307.4-.298.094.093-.322.41-.524.54-.524.338zm1.232-.986c0-.05.194-.245.43-.43.392-.307.4-.299.094.092-.322.41-.524.541-.524.338zm1.478-1.231c0-.052.194-.246.431-.432.39-.306.4-.297.093.093-.322.41-.524.541-.524.338zm1.478-1.216c0-.043.36-.403.8-.801l.802-.724-.724.8c-.675.747-.878.915-.878.725zm3.932-3.68c1.02-1.088 1.242-1.284 1.242-1.099 0 .04-.527.566-1.17 1.17l-1.17 1.099zm3.213-3.511c.318-.34.634-.616.702-.616.068 0-.137.277-.456.616-.318.338-.634.616-.701.616-.068 0 .137-.278.455-.616zm1.232-1.449c0-.05.194-.245.431-.43.39-.307.4-.298.093.092-.322.41-.524.541-.524.338zm11.599-24.441c.012-.287.07-.346.149-.15.071.179.062.391-.02.473-.082.082-.14-.064-.13-.323zm.275-1.95c.005-.407.06-.544.123-.304.062.24.058.572-.01.739-.067.167-.118-.03-.113-.436zm.255-3.82c0-.474.051-.668.113-.43.062.236.062.624 0 .861-.062.238-.113.043-.113-.43zm-.255-4.065c.005-.406.06-.543.123-.303.062.24.058.572-.01.739-.067.167-.118-.03-.113-.436zm-.275-1.992c.012-.287.07-.345.149-.148.071.177.062.39-.02.472-.082.082-.14-.064-.13-.324zm-.246-1.478c.011-.287.07-.345.148-.149.072.178.063.39-.019.473-.082.082-.14-.064-.13-.324zm-.247-1.232c.012-.287.07-.345.15-.149.07.178.062.39-.02.473-.082.082-.14-.064-.13-.324zm-11.384-21.968c-.306-.391-.298-.4.093-.093.41.322.541.524.338.524-.051 0-.245-.194-.431-.431zm-1.832-2.094-.723-.801.8.724c.747.674.914.877.724.877-.042 0-.403-.36-.8-.8zm-4.802-4.805-.849-.924.924.85c.86.79 1.037.998.849.998-.041 0-.457-.416-.924-.924zm-2.35-2.094-.47-.554.554.47c.521.44.667.638.47.638-.047 0-.297-.249-.555-.554zm-1.364-1.109c-.306-.39-.297-.4.093-.093.41.322.541.525.338.525-.05 0-.245-.194-.43-.432zm-2.463-1.97c-.307-.391-.298-.4.093-.094.41.322.54.525.338.525-.051 0-.246-.194-.432-.432zM215.069 86.19c.178-.071.39-.062.472.02.082.081-.063.14-.323.129-.287-.012-.345-.07-.149-.149zm-2.71-.74c.178-.07.39-.062.472.02.082.082-.063.14-.323.13-.287-.012-.346-.07-.149-.15zm-.985-.246c.177-.07.39-.062.472.02.082.082-.064.14-.324.13-.287-.012-.345-.07-.148-.15zm-.986-.246c.178-.071.39-.062.472.02.082.081-.063.14-.323.129-.287-.012-.346-.07-.149-.149z" style="fill:#7579b1;stroke-width:.246376" transform="translate(-3.95 -7.231) scale(1.03937)"/><path d="M137.876 228.365c-11.831-.53-25.456-1.977-35.231-3.742l-2.464-.444 3.203-.31c3.22-.312 10.64-1.486 13.199-2.088.96-.226 1.924-.264 3.203-.127 16.852 1.817 37.765 1.798 55.91-.048 55.404-5.639 99.137-28.476 108.498-56.657 3.236-9.741 2.6-19.044-1.95-28.537-2.485-5.187-5.444-9.283-10.328-14.296-9.511-9.766-21.985-17.52-39.16-24.347-5.162-2.051-14.582-5.217-19.304-6.487-1.66-.446-3.02-.933-3.023-1.081-.003-.149-.161-1.377-.353-2.73-.191-1.353-.32-2.488-.284-2.524.182-.182 10.121 2.668 15.178 4.352 25.694 8.556 45.556 21.131 56.678 35.886 6.243 8.28 9.614 17.07 10.008 26.093.471 10.795-3.26 21.182-11.194 31.167-2.592 3.262-8.18 8.748-12.13 11.911-18.46 14.781-45.986 25.667-77.972 30.835-8.024 1.296-15.15 2.102-25.136 2.842-3.44.255-23.606.5-27.348.332zm-63.642-53.25c2.261-.04 6.03-.04 8.377 0 2.346.041.496.074-4.111.075-4.607 0-6.527-.034-4.266-.074zm53.775.002c6.098-.053 8.172-.146 8.334-.375.158-.222.189-.205.115.065-.087.319-1.228.37-8.334.375l-8.233.005 8.118-.07zm35.244.008c7.463-.174 13.864-.178 13.76-.01-.064.101-3.85.16-8.416.131-4.565-.029-6.97-.084-5.344-.122zm39.836-.01c2.26-.04 6.03-.04 8.377 0 2.346.041.496.074-4.112.075-4.607 0-6.526-.034-4.265-.074zm-112.686-.23c.178-.07.39-.062.472.02.082.082-.064.14-.323.13-.287-.013-.346-.071-.15-.15zm128.855 0c.177-.07.39-.062.472.02.082.082-.064.14-.324.13-.287-.013-.345-.071-.148-.15zm-107.63-9.255c1.02-1.088 1.241-1.284 1.241-1.099 0 .04-.526.567-1.17 1.17l-1.17 1.1zm-24.92-2.57c.177-.072.39-.063.471.019.082.082-.063.14-.323.13-.287-.013-.345-.071-.149-.15zm128.854 0c.178-.072.39-.063.472.019.082.082-.063.14-.323.13-.287-.013-.346-.071-.15-.15zm-94.05-19.44c.012-.287.07-.345.149-.149.07.178.062.39-.02.473-.082.081-.14-.064-.13-.324zm128.883-.718c.005-.407.06-.543.123-.304.062.24.058.573-.01.74-.067.166-.118-.03-.113-.436zm-.009-3.82c0-.338.056-.477.124-.307a.95.95 0 0 1 0 .616c-.068.17-.124.03-.124-.308zm-128.874-.636c.012-.287.07-.345.149-.149.071.178.062.39-.02.473-.081.082-.14-.064-.129-.324zm62.874-4.044c0-.61.048-.86.106-.555.059.305.059.804 0 1.109-.058.305-.106.055-.106-.554zm-18.577-.678c-.307-.39-.298-.4.093-.093.41.322.54.524.338.524-.051 0-.245-.194-.431-.43zm-17.277-1.97c2.067-.042 5.448-.042 7.515 0 2.066.04.375.075-3.758.075s-5.823-.034-3.757-.075zm-57.772-.24c.375-.056.93-.054 1.232.004.303.058-.003.105-.68.103-.678-.002-.926-.05-.552-.107zm128.855 0c.375-.056.929-.054 1.232.004.303.058-.003.105-.681.103-.677-.002-.925-.05-.55-.107zm-120.97-11.82c.24-.062.573-.058.74.01.167.067-.03.118-.436.113-.407-.005-.543-.06-.303-.122zm66.03 0c.24-.062.572-.058.739.01.166.067-.03.118-.436.113-.407-.005-.543-.06-.303-.122zm62.825 0c.24-.062.573-.058.74.01.166.067-.03.118-.436.113-.407-.005-.543-.06-.304-.122zM134.614 99.91c.087-.319 1.227-.37 8.334-.375l8.233-.005-8.118.07c-6.098.053-8.172.146-8.334.375-.158.223-.189.205-.115-.065z" style="fill:#494d89;stroke-width:.246376" transform="translate(-3.95 -7.231) scale(1.03937)"/><path d="M49.889 194.825c.069-.237 3.351-17.061 7.294-37.387 3.943-20.326 7.23-37.158 7.305-37.405.13-.429.907-.444 18.284-.35 19.717.105 20.165.133 24.72 1.56 10.42 3.268 15.484 11.972 13.906 23.903-1.166 8.818-4.249 15.088-10.288 20.928-4.814 4.655-9.49 7.002-16.719 8.39-1.674.322-4.295.425-13.058.515-6.03.062-11.04.187-11.132.278-.092.092-1.03 4.629-2.085 10.083l-1.918 9.917h-8.217c-7.71 0-8.21-.027-8.092-.432zm38.988-31.973c8.422-1.447 12.553-5.436 14.791-14.284.915-3.618 1.078-8.316.368-10.652-1.142-3.76-4.038-5.515-10.26-6.217-1.22-.137-5.121-.25-8.669-.252-5.932-.002-6.461.033-6.578.43-.137.466-6.065 30.965-6.065 31.205 0 .08 3.2.146 7.112.146 5.256 0 7.684-.099 9.3-.376zm89.907 31.607 7.343-37.76 7.186-36.957h17.985c19.894 0 20.568.044 25.375 1.635 6.753 2.234 11.464 6.989 13.035 13.156 1.848 7.253.196 17.412-3.96 24.347-4.217 7.04-11.117 12.554-18.228 14.565-4.72 1.336-5.61 1.414-17.41 1.537-10 .104-11.056.154-11.2.525-.086.225-.996 4.733-2.022 10.018l-1.864 9.608-8.198.065-8.198.065zm39.06-31.63c7.533-1.29 11.626-4.824 13.998-12.086 1.068-3.266 1.59-6.788 1.454-9.822-.1-2.24-.208-2.741-.901-4.149-.909-1.846-1.774-2.66-3.873-3.646-2.775-1.303-4.57-1.51-13.271-1.535l-7.872-.023-3.025 15.522c-1.664 8.537-3.028 15.66-3.03 15.83-.009.5 13.506.426 16.52-.09zm-97.285 9.823c.26-1.322 3.549-18.226 7.308-37.566 3.759-19.34 6.895-35.224 6.968-35.297.073-.073 3.728-.104 8.122-.068l7.99.065-1.773 9.116c-.974 5.013-1.839 9.463-1.92 9.887l-.15.77 10.169.128c11.161.14 13.47.359 17.556 1.668 8.241 2.64 10.857 8.285 8.86 19.12-.345 1.877-1.987 10.397-3.647 18.934l-3.02 15.522-8.295.064c-6.596.052-8.272.001-8.187-.246.058-.171 1.62-8.125 3.47-17.675 3.067-15.835 3.354-17.55 3.262-19.478-.155-3.243-1.097-4.413-4.28-5.316-1.195-.339-2.968-.435-9.68-.526-4.519-.062-8.31-.018-8.423.097-.114.116-2.047 9.69-4.297 21.275-2.25 11.586-4.15 21.26-4.22 21.497-.12.399-.729.43-8.208.43h-8.078z" style="fill:#010101;stroke-width:.246376" transform="translate(-3.95 -7.231) scale(1.03937)"/></svg>