<svg xmlns="http://www.w3.org/2000/svg" width="291mm" height="1101.285" viewBox="0 0 291 291.382"><path d="M241.407 245.694c-8.41-1.523-13.87-6.503-18.124-16.532-.648-1.528-1.36-3.671-1.581-4.763-2.197-10.798-3.297-34.12-2.961-62.74.192-16.358.147-17.176-1.107-20.325-1.116-2.802-2.425-4.79-4.576-6.953-1.606-1.614-2.502-2.267-4.255-3.103-3.061-1.46-5.167-1.953-7.705-1.806-1.131.066-2.057.045-2.057-.046 0-.09.37-1.351.822-2.8 1.373-4.398 4.137-11.595 6.653-17.32 4.885-11.119 6.634-17.06 7.751-26.33.595-4.94.599-15.14.007-20.898-.837-8.15-2.752-18.987-4.032-22.82-4.863-14.555-18.552-19.726-37.66-14.225-3.903 1.124-8.377 2.87-12 4.684-1.434.717-2.663 1.248-2.732 1.18-.325-.325 1.153-10.598 2.344-16.286 3.839-18.337 11.911-33.991 22.248-43.144 7.924-7.016 17.356-11.219 28.902-12.878 4.357-.626 14.176-.622 19.447.007C255.169-38.49 275.294-27.1 291.235-7.19c4.476 5.59 9.572 13.695 12.605 20.047 1.211 2.537 3.68 8.364 3.68 8.687 0 .037-2.728.021-6.061-.036-3.71-.064-7.115.018-8.779.211-4.978.579-9.676 2.081-13.41 4.288-1.933 1.143-5.763 4.982-6.918 6.933-2.25 3.804-3.458 8.761-3.46 14.196-.005 13.097 5.865 29.19 19.83 54.365 1.937 3.493 4.443 8.27 5.569 10.617 2.425 5.054 4.372 8.134 8.403 13.29l2.98 3.812-2.058.83c-4.545 1.833-7.21 4.154-9.039 7.876-1.68 3.419-2.13 5.617-2.403 11.73-.567 12.693-6.95 62.18-9.129 70.778-3.505 13.829-10.046 19.92-25.723 23.958-6.204 1.597-11.77 2.053-15.915 1.303zm-67.261-80.15c-3.956-.568-8.1-1.66-10.283-2.71l-1.994-.959 1.454-.505c.8-.278 4.014-1.092 7.143-1.81 13.465-3.085 16.35-4.693 22.746-12.683 5.219-6.52 6.755-7.94 8.58-7.935 3.229.008 6.688 3.535 7.547 7.696.61 2.95-.432 4.927-5.006 9.499-4.918 4.917-9.783 7.577-16.537 9.043-3.15.683-10.122.869-13.65.363zm-49.982-4.59c-13.171-5.33-27.99-36.597-40.215-84.853-4.152-16.387-7.556-33.219-9.012-44.56-1.45-11.294-.717-25.156 1.87-35.362 3.911-15.435 11.774-25.678 24.341-31.706 13.267-6.365 31.408-7.413 53.178-3.073 7.04 1.404 18.456 4.415 19.157 5.053.135.123-.687 1.196-1.892 2.469-8.6 9.084-15.659 23.227-19.623 39.313-2.886 11.711-4.182 23.038-3.888 33.965.617 22.9.5 29.854-.657 39.06-1.314 10.448-.822 17.129 1.85 25.123 2.342 7.001 6.797 14.078 11.826 18.783l1.738 1.625-2.5 2.7c-5.919 6.394-13.018 14.448-20.328 23.063-5.796 6.83-8.337 8.631-12.406 8.792-1.72.068-2.528-.024-3.44-.393zm184.679-8.151c-2.453-.296-4.405-.706-5.744-1.207l-1.47-.55.136-3.077c.154-3.494.768-5.543 2.12-7.083.985-1.123 2.038-1.675 4.943-2.59l2.234-.704.74.547c2.352 1.74 6.837 3.345 11.196 4.008 3 .457 12.186.464 16.14.013 2.443-.279 7.775-1.1 11.51-1.773l.925-.167-.926.824c-1.664 1.482-6.682 4.678-9.774 6.225-4.951 2.478-10.447 4.025-17.875 5.032-3.033.412-12.206.737-14.155.502zm-122.634-25.424c-1.806-.234-6.371-1.493-8.149-2.246-10.733-4.548-18.647-14.574-21.267-26.94-.704-3.325-.657-10.855.107-17.065.964-7.829 1.225-14.295.982-24.342-.12-4.948-.224-10.181-.233-11.63l-.015-2.633 1.587-1.131c2.034-1.45 8.764-4.797 12.128-6.033 12.424-4.564 22.716-3.879 27.214 1.812 2.128 2.693 2.95 5.018 4.313 12.216 2.815 14.867 3.231 26.591 1.313 37.032-1.156 6.297-2.633 10.58-7.481 21.696-2.006 4.597-4.786 12.084-6.165 16.603l-.868 2.844-1.337-.04a27.418 27.418 0 0 1-2.13-.142zm6.143-79.327c1.765-.524 3.683-1.836 4.762-3.259 2.473-3.26-.347-6.313-6.81-7.374-5.496-.902-9.53.579-9.513 3.492.012 1.85 2.133 4.795 4.42 6.135 2.381 1.396 4.72 1.725 7.141 1.006zm118.694 72.665-.574-.73 1.676-3.29c3.732-7.329 5.43-15.015 5.424-24.551-.003-4.667-.276-8.046-1.38-17.104-.74-6.087-.838-7.671-.84-13.758-.004-6.605.036-7.14.982-13.42 1.447-9.596 1.505-10.134 1.756-16.376.256-6.372.137-7.477-1.292-11.922-2.454-7.631-7.203-17.056-12.764-25.327-10.388-15.452-23.93-27.634-39.327-35.378l-3.787-1.904 1.293-.277c1.771-.38 8.017-1.274 11.705-1.675 4.692-.51 17.291-.433 21.96.135 7.132.866 14.55 2.605 20.551 4.817 3.411 1.257 10.45 4.71 13.448 6.598 7.175 4.518 16.004 12.69 19.795 18.324 1.054 1.566 2.073 4.47 2.716 7.745.59 3 .808 12.84.395 17.825-2.52 30.482-17.056 71.266-37.659 105.67-1.765 2.947-3.275 5.351-3.356 5.343-.08-.008-.405-.343-.722-.745zm-8.448-13.187c-.858-1.85-2.878-5.75-4.489-8.665-6.9-12.492-9.91-18.43-12.931-25.51-6.287-14.732-8.278-25.677-5.942-32.667 2.572-7.7 11.368-10.958 26.096-9.667 1.858.162 3.388.311 3.4.33.175.298-.642 7.761-1.465 13.373-1.873 12.784-1.97 18.152-.547 30.207 1.855 15.706 1.858 22.36.016 29.576-.634 2.482-2.086 6.386-2.375 6.386-.111 0-.905-1.513-1.763-3.363zm-7.076-63.665c3.926-2.05 6.056-5.967 4.186-7.7-.903-.837-2.548-1.208-5.336-1.203-5.155.009-9.606 2.085-9.606 4.482 0 1.318 1.62 3.21 3.643 4.252 2.005 1.032 5.31 1.11 7.113.169z" style="fill:#fff;stroke-width:.264583" transform="translate(-67.509 45.336)"/></svg>