<svg xmlns="http://www.w3.org/2000/svg" width="300mm" height="300mm" viewBox="0 0 300 300"><path d="M.068 251.576c0-2.024 5.67-28.508 12.598-58.855A100056.38 100056.38 0 0 0 35.39 92.928c5.88-25.905 11.057-45.936 12.341-47.76 3.004-3.81 3.513-7.928 10.523-8.799h233.596c8.313.258 7.314 4.947 7.348 10.846 0 5.928-45.325 201.951-47.622 205.957-2.896 4.396-3.217 8.615-10.565 9.43H7.416c-6.592-.212-7.955-2.937-7.348-11.026Zm182.48-98.034c3.059-4.638 2.858-10.502-.509-14.884-3.133-4.077-60.186-65.135-67.687-72.438-4.013-3.908-5.73-4.713-10.042-4.713-4.24 0-5.992.79-9.475 4.273-6.48 6.48-6.018 11.6 1.804 19.996 3.342 3.588 16.916 18.064 30.164 32.168 13.248 14.105 24.071 25.983 24.052 26.394l-93.09 69.103c-2.878 3.602-3.075 9.009-.51 13.97 2.443 4.725 5.132 6.204 11.312 6.224zm27.511 72.709c2.72-2.72 3.674-4.867 3.674-8.267 0-3.4-.954-5.546-3.674-8.266l-3.674-3.674h-63.229l-3.674 3.674c-2.72 2.72-3.674 4.866-3.674 8.266 0 3.4.954 5.547 3.674 8.267l3.674 3.674h63.23z" style="fill:#fff;stroke-width:1.25685"/></svg>