<svg xmlns="http://www.w3.org/2000/svg" width="300mm" height="300mm" viewBox="0 0 300 300"><path d="M3.742 258.929c-2.387-2.387-3.674-4.963-3.674-7.353 0-2.024 5.67-28.508 12.598-58.855A100056.38 100056.38 0 0 0 35.39 92.928c5.88-25.905 11.057-45.936 12.341-47.76 1.217-1.729 4.083-4.415 6.368-5.97l4.155-2.829h233.596l3.674 3.674c2.3 2.3 3.674 4.982 3.674 7.172 0 5.928-45.325 201.951-47.622 205.957-1.188 2.071-4.05 5.04-6.362 6.598l-4.203 2.833H7.416Zm123.2-63.618c29.34-21.088 54.363-39.884 55.607-41.769 3.058-4.638 2.857-10.502-.51-14.884-3.133-4.077-60.186-65.135-67.687-72.438-4.013-3.908-5.73-4.713-10.042-4.713-4.24 0-5.992.79-9.475 4.273-6.48 6.48-6.018 11.6 1.804 19.996 3.342 3.588 16.916 18.064 30.164 32.168 13.248 14.105 24.071 25.983 24.052 26.394-.02.412-20.435 15.454-45.366 33.427-24.932 17.973-46.408 34.027-47.725 35.676-2.877 3.602-3.074 9.009-.509 13.97 2.443 4.725 5.132 6.204 11.312 6.224 4.6.014 9.567-3.247 58.374-38.324zm83.117 30.94c2.72-2.72 3.674-4.867 3.674-8.267 0-3.4-.954-5.546-3.674-8.266l-3.674-3.674h-63.229l-3.674 3.674c-2.72 2.72-3.674 4.866-3.674 8.266 0 3.4.954 5.547 3.674 8.267l3.674 3.674h63.229z" style="fill:#4174cc;stroke-width:1.25685"/></svg>