<svg xmlns="http://www.w3.org/2000/svg" xml:space="preserve" width="260.752" height="260.749"><defs><clipPath id="a" clipPathUnits="userSpaceOnUse"><path d="M76.895 269.191h182.64V93.511H76.895z"/></clipPath><clipPath id="b" clipPathUnits="userSpaceOnUse"><path d="M127.18 108.516c0-4.396 1.826-8.36 4.749-11.198-.041.411-.066.826-.066 1.246 0 6.467 5.067 11.709 11.317 11.709 6.249 0 11.315-5.242 11.315-11.709 0-.123-.015-.244-.018-.367a15.523 15.523 0 0 1 3.919 10.319c0 8.622-6.985 15.608-15.607 15.608-8.619 0-15.609-6.986-15.609-15.608"/></clipPath><clipPath id="c" clipPathUnits="userSpaceOnUse"><path d="M174.524 108.516c0-3.963 1.487-7.568 3.921-10.319-.006.123-.018.244-.018.367 0 6.467 5.065 11.709 11.317 11.709 6.246 0 11.314-5.242 11.314-11.709 0-.42-.023-.835-.066-1.246 2.924 2.838 4.748 6.802 4.748 11.198 0 8.622-6.985 15.608-15.607 15.608-8.621 0-15.609-6.986-15.609-15.608"/></clipPath><clipPath id="d" clipPathUnits="userSpaceOnUse"><path d="M151.618 177.031c0-10.295 15.06-24.269 15.06-34.133 0 9.864 15.063 23.838 15.063 34.133 0 8.255-6.805 14.947-15.063 14.947-8.258 0-15.06-6.692-15.06-14.947"/></clipPath></defs><path d="M174.447 241.953c.84-7.471-6.946-15.765-14.796-15.762-7.836.003-14.087 5.75-15.013 13.8l-.545 4.75-2.507-4.011c-1.95-3.12-2.507-5.348-2.507-10.028 0-3.31.369-7.032.82-8.273l.819-2.256H114.56l.978 2.572c1.634 4.296 1.146 12.222-1.013 16.452-2.811 5.512-3.698 5.636-4.265.601-2.12-18.812-29.737-17.285-29.866 1.652l-.022 3.29-1.921-2.5c-5.95-7.744-4.699-20.854 2.64-27.655l2.486-2.304-3.335-1.688c-1.834-.928-4.83-2.807-6.657-4.175-3.834-2.87-2.749-3.423-14.192 7.222l-6.483 6.031-1.185-11.172c-1.183-11.147-4.336-23.896-8.925-36.087-3.74-9.937-5.503-20.3-5.503-32.353 0-22.033 6.706-40.914 20.514-57.759 6.113-7.458 7.058-10.772 6.398-22.447-.317-5.605-.99-7.868-3.582-12.037l-3.191-5.134h6.294c9.79 0 15.744 2.242 22.455 8.455l5.813 5.382 6.995-2.345c17.876-5.992 39.164-6.015 56.93-.06l6.815 2.285 5.043-4.81c6.304-6.011 13.61-8.907 22.477-8.907 3.564 0 6.48.235 6.48.523 0 .288-1.14 2.246-2.533 4.35-5.432 8.209-5.208 25.649.407 31.728 15.298 16.562 23.204 37.374 23.167 60.984-.02 12.902-1.246 19.341-7.002 36.787-5.344 16.196-7.02 24.35-7.02 34.16 0 4.376-.372 7.956-.827 7.956-.456 0-1.922-1.173-3.26-2.608-1.337-1.434-4.512-4.357-7.056-6.496l-4.626-3.889-7.047 3.616-7.046 3.615 3.063 4.345c5.208 7.389 4.64 20.63-1.11 25.832-1.653 1.497-1.741 1.394-1.4-1.632zm26.143-42.704c1.58-5.272 1.478-5.745-.798-3.685-1.644 1.488-2.476 1.593-5.163.656-4.675-1.63-4.692-1.503-.398 2.895 2.154 2.206 4.205 4.01 4.557 4.01.353 0 1.164-1.744 1.802-3.876zm-139.821-.883c1.893-2.066 3.316-3.884 3.16-4.04-.154-.154-1.535.195-3.068.778-2.193.834-3.146.733-4.48-.473-3.323-3.008-3.543-1.762-.925 5.236.465 1.24 1.075 2.256 1.357 2.256.282 0 2.062-1.69 3.956-3.757zm127.964-11.83c.533-1.403 1.263-3.772 1.62-5.265l.651-2.713-2.397 2.14c-1.728 1.541-2.959 1.911-4.404 1.324-4.422-1.8-4.754-.788-1.002 3.054 2.154 2.206 4.062 4.01 4.24 4.01.177 0 .758-1.147 1.292-2.55zm-116.793-2.54 3.964-4.09-3.8.699c-2.898.532-4.254.288-5.707-1.027-1.867-1.69-1.873-1.622-.27 3.391.9 2.813 1.684 5.115 1.743 5.115.058 0 1.89-1.84 4.07-4.089zm133.108-3.16 1.581-4.742-2.398 1.571c-1.659 1.088-3.414 1.357-5.697.876l-3.3-.696 3.946 4.099c2.17 2.254 4.023 3.993 4.116 3.865.094-.127.883-2.365 1.752-4.973zm-148.24-.73 3.873-3.965-3.66 1.122c-3.133.962-3.947.862-5.674-.701-1.11-1.004-2.016-1.469-2.016-1.034 0 1.732 2.363 8.545 2.963 8.545.352 0 2.384-1.785 4.514-3.966zm80.866-20.64c4.89-9.354 9.016-17.361 9.17-17.793.153-.432 2.756.547 5.783 2.175 15 8.069 32.504 5.102 43.98-7.454 6.477-7.087 9.156-14.115 9.156-24.02 0-10.16-2.678-16.996-9.58-24.45-3.761-4.064-7.307-6.692-11.697-8.672-15.554-7.014-34.925-1.436-44.324 12.764-3.992 6.032-6.963 16.235-6.412 22.02.284 2.976.05 3.774-.992 3.375-.75-.288-3.358-.524-5.795-.524h-4.43v-4.854c0-15.277-11.1-29.442-26.498-33.814-16.794-4.768-35.101 3.584-42.512 19.395-2.325 4.96-2.688 7.024-2.688 15.262 0 8.229.365 10.305 2.677 15.239 3.416 7.287 10.396 14.266 17.683 17.682 4.934 2.313 7.01 2.678 15.238 2.678 8.762 0 10.043-.262 15.959-3.262 3.537-1.793 6.47-3.147 6.518-3.008.047.14 2.33 4.54 5.072 9.78 2.743 5.239 6.804 13.02 9.025 17.29s4.43 7.636 4.908 7.481c.478-.155 4.87-7.936 9.76-17.29zm-14.92 4.3c-2.332-4.55-5.817-11.13-7.745-14.624-5.815-10.535-4.516-19.457 3.722-25.558 4.199-3.11 12.363-3.333 17.264-.471 5.425 3.167 8.948 9.861 8.197 15.571-.513 3.901-15.193 33.356-16.623 33.356-.318 0-2.485-3.723-4.816-8.273zm-34.279-31.011c-5.214-1.493-8.654-4.366-10.98-9.172-2.565-5.296-2.627-9.947-.206-15.22 2.19-4.77 4.427-6.908 9.4-8.986 13.29-5.553 27.548 6.638 23.846 20.39-2.627 9.754-12.68 15.673-22.06 12.988zm12.923-8.925c2.512-2.512 3.085-3.907 3.085-7.505 0-12.717-17.52-15.657-21.147-3.549-2.257 7.535 2.729 14.14 10.676 14.14 3.465-.001 4.9-.6 7.386-3.086zm-14.262-9.582c-.386-.387-.703-1.53-.703-2.542 0-1.305.747-1.838 2.577-1.838 2.095 0 2.517.42 2.256 2.246-.317 2.223-2.772 3.492-4.13 2.134zm82.979 18.331c-4.025-1.826-8.139-6.82-9.58-11.629-3.01-10.047 4.378-20.851 14.953-21.868 6.53-.627 11.432 1.095 15.141 5.319 7.283 8.294 5.889 20.171-3.153 26.87-3.464 2.565-13.004 3.284-17.361 1.308zm12.164-6.808c2.784-1.36 5.435-6.016 5.43-9.54-.014-10.451-13.972-14.901-20.034-6.387-3.575 5.02-1.92 13.299 3.156 15.78 4.88 2.385 6.811 2.41 11.448.147zm-13.255-12.39c-.346-.903-.167-2.106.4-2.672 1.634-1.634 4.752-.533 4.752 1.68 0 2.55-4.24 3.367-5.152.992zm10.152 53.645.749-3.51-2.373 2.12c-1.892 1.69-2.974 1.952-5.331 1.287-1.627-.458-3.115-.676-3.307-.484-.192.191 1.575 1.996 3.927 4.009 4.708 4.03 4.751 4.006 6.335-3.422zm-93.078-1.673c-.165-.164-1.75.118-3.522.626-2.705.776-3.417.612-4.436-1.02-1.931-3.092-2.66-2.265-1.6 1.816 1.802 6.937 1.667 6.874 5.898 2.743 2.177-2.126 3.824-4 3.66-4.165zm108.414-.18 1.06-4.36-2.25 2.113c-1.236 1.162-2.44 1.946-2.675 1.743-.235-.203-1.78-.69-3.435-1.082l-3.009-.713 3.963 4.08c2.18 2.244 4.26 3.742 4.624 3.33.365-.413 1.14-2.713 1.722-5.11zM70.89 162.69c.552-.458-.707-.519-2.798-.135-2.928.539-4.25.291-5.765-1.08-2.292-2.073-2.34-1.834-.828 4.17l1.139 4.521 3.625-3.322c1.993-1.827 4.076-3.696 4.627-4.154zm139.23.827c1.55-4.547.973-5.806-1.367-2.985-1.194 1.437-2.377 1.379-6.943-.342-.796-.3.07 1.341 1.922 3.647 1.853 2.306 3.703 4.193 4.11 4.193.408 0 1.433-2.03 2.278-4.513zm-158.282-.501c3.934-4.03 3.728-4.807-.816-3.08-1.774.675-3.038.52-4.578-.558-1.17-.82-2.127-1.178-2.127-.797 0 1.657 2.382 8.446 2.963 8.446.353 0 2.403-1.805 4.558-4.011z" style="fill:#fff;stroke-width:1.00278"/></svg>