<svg xmlns="http://www.w3.org/2000/svg" xml:space="preserve" width="260.752" height="260.749"><defs><clipPath id="b" clipPathUnits="userSpaceOnUse"><path d="M168.525 279.232c-23.405-.043-46.876-8.44-65.56-25.422-39.964-36.315-42.92-98.16-6.599-138.12 36.322-39.967 98.165-42.92 138.127-6.601 39.962 36.32 42.92 98.161 6.597 138.126-19.246 21.178-45.654 31.962-72.18 32.017z"/></clipPath><clipPath id="d" clipPathUnits="userSpaceOnUse"><path d="M0 279.233h339.473V0H0Z"/></clipPath><clipPath id="e" clipPathUnits="userSpaceOnUse"><path d="M76.895 269.191h182.64V93.511H76.895z"/></clipPath><clipPath id="a" clipPathUnits="userSpaceOnUse"><path d="M76.895 269.191h182.64V93.511H76.895z"/></clipPath><clipPath id="h" clipPathUnits="userSpaceOnUse"><path d="M80.762 188.708c-2.771-54.483 33.174-89.833 83.779-89.833 74.964 0 116.444 68.31 70.031 142.395 32.622-74.016-3.683-120.68-50.536-120.68-38.003 0-67.121 25.498-67.121 72.254 0 67.467 50.579 72.149 79.316 56.295-10.657 9.534-26.739 16.336-45.387 16.336-34.052 0-67.508-26.03-70.082-76.767"/></clipPath><clipPath id="j" clipPathUnits="userSpaceOnUse"><path d="M193.084 236.709a63.873 63.873 0 0 1-26.029 5.531 63.84 63.84 0 0 1-26.229-5.62c-9.601 14.883-26.912 10.801-26.912 10.801 9.143-7.666 6.357-20.992 4.288-27.403-11.509-12.813-18.588-30.136-18.588-49.209 0-15.186 9.751-32.441 11.702-55.563l12.351 10.7s14.787-10.01 43.388-10.01c28.607 0 43.39 10.01 43.39 10.01l12.353-10.7c1.954 23.122 11.701 40.377 11.701 55.563 0 19.293-7.246 36.798-18.992 49.651-2.047 6.567-4.506 19.469 4.425 26.961 0 0-2.173.512-5.405.512-5.873 0-15.245-1.691-21.443-11.224"/></clipPath><clipPath id="l" clipPathUnits="userSpaceOnUse"><path d="M127.18 108.516c0-4.396 1.826-8.36 4.749-11.198-.041.411-.066.826-.066 1.246 0 6.467 5.067 11.709 11.317 11.709 6.249 0 11.315-5.242 11.315-11.709 0-.123-.015-.244-.018-.367a15.523 15.523 0 0 1 3.919 10.319c0 8.622-6.985 15.608-15.607 15.608-8.619 0-15.609-6.986-15.609-15.608"/></clipPath><clipPath id="n" clipPathUnits="userSpaceOnUse"><path d="M174.524 108.516c0-3.963 1.487-7.568 3.921-10.319-.006.123-.018.244-.018.367 0 6.467 5.065 11.709 11.317 11.709 6.246 0 11.314-5.242 11.314-11.709 0-.42-.023-.835-.066-1.246 2.924 2.838 4.748 6.802 4.748 11.198 0 8.622-6.985 15.608-15.607 15.608-8.621 0-15.609-6.986-15.609-15.608"/></clipPath><clipPath id="p" clipPathUnits="userSpaceOnUse"><path d="M0 279.233h339.473V0H0Z"/></clipPath><clipPath id="q" clipPathUnits="userSpaceOnUse"><path d="M104.337 166.797h34.109v-38.491h-34.109z"/></clipPath><clipPath id="r" clipPathUnits="userSpaceOnUse"><path d="M195.538 166.797h34.11v-38.491h-34.11z"/></clipPath><clipPath id="s" clipPathUnits="userSpaceOnUse"><path d="M151.618 177.031c0-10.295 15.06-24.269 15.06-34.133 0 9.864 15.063 23.838 15.063 34.133 0 8.255-6.805 14.947-15.063 14.947-8.258 0-15.06-6.692-15.06-14.947"/></clipPath><radialGradient id="c" cx="0" cy="0" r="1" fx="0" fy="0" gradientTransform="scale(127.80571 -127.80571) rotate(11.057 8.897 4.247)" gradientUnits="userSpaceOnUse" spreadMethod="pad"><stop offset="0" style="stop-opacity:1;stop-color:#fff"/><stop offset=".405" style="stop-opacity:1;stop-color:#fff"/><stop offset=".824" style="stop-opacity:1;stop-color:#b0aeaf"/><stop offset="1" style="stop-opacity:1;stop-color:#b0aeaf"/></radialGradient><radialGradient id="i" cx="0" cy="0" r="1" fx="0" fy="0" gradientTransform="matrix(107.57257 -44.67343 -48.58997 -117.00349 93.83 204.712)" gradientUnits="userSpaceOnUse" spreadMethod="pad"><stop offset="0" style="stop-opacity:1;stop-color:#fdfeff"/><stop offset=".156" style="stop-opacity:1;stop-color:#fdfeff"/><stop offset=".745" style="stop-opacity:1;stop-color:#3e6aa5"/><stop offset=".796" style="stop-opacity:1;stop-color:#3e6aa5"/><stop offset=".994" style="stop-opacity:1;stop-color:#0a2d49"/><stop offset="1" style="stop-opacity:1;stop-color:#0a2d49"/></radialGradient><radialGradient id="k" cx="0" cy="0" r="1" fx="0" fy="0" gradientTransform="matrix(76.41132 -87.14402 -92.52952 -81.13354 135.49 208.538)" gradientUnits="userSpaceOnUse" spreadMethod="pad"><stop offset="0" style="stop-opacity:1;stop-color:#fbd427"/><stop offset=".667" style="stop-opacity:1;stop-color:#ed1c24"/><stop offset=".994" style="stop-opacity:1;stop-color:#6f0b0e"/><stop offset="1" style="stop-opacity:1;stop-color:#6f0b0e"/></radialGradient><radialGradient id="m" cx="0" cy="0" r="1" fx="0" fy="0" gradientTransform="matrix(14.54737 0 0 -14.54737 142.788 110.72)" gradientUnits="userSpaceOnUse" spreadMethod="pad"><stop offset="0" style="stop-opacity:1;stop-color:#e0e0e0"/><stop offset=".492" style="stop-opacity:1;stop-color:#e0e0e0"/><stop offset="1" style="stop-opacity:1;stop-color:#565353"/></radialGradient><radialGradient id="o" cx="0" cy="0" r="1" fx="0" fy="0" gradientTransform="matrix(14.54723 0 0 -14.54723 190.132 110.72)" gradientUnits="userSpaceOnUse" spreadMethod="pad"><stop offset="0" style="stop-opacity:1;stop-color:#e0e0e0"/><stop offset=".492" style="stop-opacity:1;stop-color:#e0e0e0"/><stop offset="1" style="stop-opacity:1;stop-color:#565353"/></radialGradient><radialGradient id="t" cx="0" cy="0" r="1" fx="0" fy="0" gradientTransform="matrix(3.63757 -18.41156 -18.47398 -3.6499 164.778 180.114)" gradientUnits="userSpaceOnUse" spreadMethod="pad"><stop offset="0" style="stop-opacity:1;stop-color:#e0e0e0"/><stop offset=".492" style="stop-opacity:1;stop-color:#e0e0e0"/><stop offset="1" style="stop-opacity:1;stop-color:#565353"/></radialGradient><mask id="f" width="1" height="1" x="0" y="0" maskUnits="userSpaceOnUse"><g clip-path="url(#a)"><image width="1" height="1" preserveAspectRatio="none" style="image-rendering:optimizeSpeed" transform="matrix(182.64 0 0 -175.68 76.895 269.191)"/></g></mask><mask id="g" width="1" height="1" x="0" y="0" maskUnits="userSpaceOnUse"><image width="1" height="1" preserveAspectRatio="none" style="image-rendering:optimizeSpeed"/></mask></defs><g clip-path="url(#b)" transform="matrix(1.33333 0 0 -1.33333 -94.595 372.31)"><path d="M168.525 279.232c-23.405-.043-46.876-8.44-65.56-25.422-39.964-36.315-42.92-98.16-6.599-138.12 36.322-39.967 98.165-42.92 138.127-6.601 39.962 36.32 42.92 98.161 6.597 138.126-19.246 21.178-45.654 31.962-72.18 32.017z" style="fill:url(#c);stroke:none"/></g><g clip-path="url(#d)" transform="matrix(1.33333 0 0 -1.33333 -94.595 372.31)"><g clip-path="url(#e)" style="opacity:.5"><g mask="url(#f)"><image width="1" height="1" mask="url(#g)" preserveAspectRatio="none" style="image-rendering:optimizeSpeed" transform="matrix(182.64 0 0 -175.68 76.895 269.191)"/></g></g></g><g clip-path="url(#h)" transform="matrix(1.33333 0 0 -1.33333 -94.595 372.31)"><path d="M80.762 188.708c-2.771-54.483 33.174-89.833 83.779-89.833 74.964 0 116.444 68.31 70.031 142.395 32.622-74.016-3.683-120.68-50.536-120.68-38.003 0-67.121 25.498-67.121 72.254 0 67.467 50.579 72.149 79.316 56.295-10.657 9.534-26.739 16.336-45.387 16.336-34.052 0-67.508-26.03-70.082-76.767" style="fill:url(#i);stroke:none"/></g><g clip-path="url(#j)" transform="matrix(1.33333 0 0 -1.33333 -94.595 372.31)"><path d="M193.084 236.709a63.873 63.873 0 0 1-26.029 5.531 63.84 63.84 0 0 1-26.229-5.62c-9.601 14.883-26.912 10.801-26.912 10.801 9.143-7.666 6.357-20.992 4.288-27.403-11.509-12.813-18.588-30.136-18.588-49.209 0-15.186 9.751-32.441 11.702-55.563l12.351 10.7s14.787-10.01 43.388-10.01c28.607 0 43.39 10.01 43.39 10.01l12.353-10.7c1.954 23.122 11.701 40.377 11.701 55.563 0 19.293-7.246 36.798-18.992 49.651-2.047 6.567-4.506 19.469 4.425 26.961 0 0-2.173.512-5.405.512-5.873 0-15.245-1.691-21.443-11.224" style="fill:url(#k);stroke:none"/></g><g clip-path="url(#l)" transform="matrix(1.33333 0 0 -1.33333 -94.595 372.31)"><path d="M127.18 108.516c0-4.396 1.826-8.36 4.749-11.198-.041.411-.066.826-.066 1.246 0 6.467 5.067 11.709 11.317 11.709 6.249 0 11.315-5.242 11.315-11.709 0-.123-.015-.244-.018-.367a15.523 15.523 0 0 1 3.919 10.319c0 8.622-6.985 15.608-15.607 15.608-8.619 0-15.609-6.986-15.609-15.608" style="fill:url(#m);stroke:none"/></g><g clip-path="url(#n)" transform="matrix(1.33333 0 0 -1.33333 -94.595 372.31)"><path d="M174.524 108.516c0-3.963 1.487-7.568 3.921-10.319-.006.123-.018.244-.018.367 0 6.467 5.065 11.709 11.317 11.709 6.246 0 11.314-5.242 11.314-11.709 0-.42-.023-.835-.066-1.246 2.924 2.838 4.748 6.802 4.748 11.198 0 8.622-6.985 15.608-15.607 15.608-8.621 0-15.609-6.986-15.609-15.608" style="fill:url(#o);stroke:none"/></g><g clip-path="url(#p)" transform="matrix(1.33333 0 0 -1.33333 -94.595 372.31)"><g clip-path="url(#q)" style="opacity:.52999902"><path d="M0 0c-.924-4.661-6.785-6.125-6.785-6.125s-4.873 3.59-3.951 8.253C-11.888-3.7-7.639-10.396-7.639-10.396S-1.153-5.825 0 0" style="fill:#231f20;fill-opacity:1;fill-rule:nonzero;stroke:none" transform="translate(115.271 164.668)"/><path d="M0 0c-.924-4.661-6.786-6.125-6.786-6.125s-4.871 3.59-3.95 8.254c-1.151-5.83 3.098-12.526 3.098-12.526S-1.153-5.825 0 0" style="fill:#231f20;fill-opacity:1;fill-rule:nonzero;stroke:none" transform="translate(126.879 162.334)"/><path d="M0 0c-.924-4.661-6.785-6.125-6.785-6.125s-4.873 3.591-3.95 8.254C-11.887-3.7-7.639-10.396-7.639-10.396S-1.152-5.825 0 0" style="fill:#231f20;fill-opacity:1;fill-rule:nonzero;stroke:none" transform="translate(118.674 151.776)"/><path d="M0 0c-.924-4.661-6.785-6.125-6.785-6.125s-4.873 3.591-3.95 8.254c-1.153-5.83 3.096-12.526 3.096-12.526S-1.153-5.825 0 0" style="fill:#231f20;fill-opacity:1;fill-rule:nonzero;stroke:none" transform="translate(130.282 149.442)"/><path d="M0 0c-.924-4.662-6.786-6.125-6.786-6.125s-4.871 3.59-3.949 8.254c-1.152-5.831 3.097-12.526 3.097-12.526S-1.152-5.825 0 0" style="fill:#231f20;fill-opacity:1;fill-rule:nonzero;stroke:none" transform="translate(122.126 138.702)"/><path d="M0 0c-.923-4.661-6.786-6.125-6.786-6.125s-4.872 3.59-3.949 8.253C-11.887-3.7-7.64-10.397-7.64-10.397S-1.153-5.825 0 0" style="fill:#231f20;fill-opacity:1;fill-rule:nonzero;stroke:none" transform="translate(138.446 160.008)"/></g><g clip-path="url(#r)" style="opacity:.52999902"><path d="M0 0c.924-4.661 6.785-6.125 6.785-6.125s4.873 3.59 3.951 8.253C11.888-3.7 7.64-10.396 7.64-10.396S1.153-5.825 0 0" style="fill:#231f20;fill-opacity:1;fill-rule:nonzero;stroke:none" transform="translate(218.714 164.668)"/><path d="M0 0c.925-4.661 6.787-6.125 6.787-6.125s4.869 3.59 3.948 8.254c1.151-5.83-3.097-12.526-3.097-12.526S1.152-5.825 0 0" style="fill:#231f20;fill-opacity:1;fill-rule:nonzero;stroke:none" transform="translate(207.107 162.334)"/><path d="M0 0c.925-4.661 6.785-6.125 6.785-6.125s4.873 3.591 3.951 8.254C11.888-3.7 7.64-10.396 7.64-10.396S1.153-5.825 0 0" style="fill:#231f20;fill-opacity:1;fill-rule:nonzero;stroke:none" transform="translate(215.31 151.776)"/><path d="M0 0c.925-4.661 6.785-6.125 6.785-6.125s4.872 3.591 3.949 8.254c1.154-5.83-3.095-12.526-3.095-12.526S1.154-5.825 0 0" style="fill:#231f20;fill-opacity:1;fill-rule:nonzero;stroke:none" transform="translate(203.703 149.442)"/><path d="M0 0c.925-4.662 6.787-6.125 6.787-6.125s4.869 3.59 3.948 8.254c1.153-5.831-3.097-12.526-3.097-12.526S1.153-5.825 0 0" style="fill:#231f20;fill-opacity:1;fill-rule:nonzero;stroke:none" transform="translate(211.858 138.702)"/><path d="M0 0c.925-4.661 6.787-6.125 6.787-6.125s4.873 3.59 3.949 8.253C11.89-3.7 7.641-10.397 7.641-10.397S1.154-5.825 0 0" style="fill:#231f20;fill-opacity:1;fill-rule:nonzero;stroke:none" transform="translate(195.538 160.008)"/></g><path d="M0 0c0-14.721-11.934-26.653-26.651-26.653-14.721 0-26.653 11.932-26.653 26.653 0 14.718 11.932 26.648 26.653 26.648C-11.934 26.648 0 14.718 0 0" style="fill:#fff;fill-opacity:1;fill-rule:nonzero;stroke:none" transform="translate(162.824 194.907)"/><path d="M0 0c0-7.176-5.819-12.997-12.999-12.997C-20.179-12.997-26-7.176-26 0c0 7.184 5.821 13.003 13.001 13.003S0 7.184 0 0" style="fill:#bfbebe;fill-opacity:1;fill-rule:nonzero;stroke:none" transform="translate(154.698 192.3)"/><path d="M0 0a8.318 8.318 0 0 0-8.321-8.317c-4.596 0-8.322 3.723-8.322 8.317a8.32 8.32 0 0 0 8.322 8.324A8.32 8.32 0 0 0 0 0" style="fill:#231f20;fill-opacity:1;fill-rule:nonzero;stroke:none" transform="translate(150.02 192.3)"/><path d="M0 0a2.493 2.493 0 0 0-4.985 0A2.492 2.492 0 0 0 0 0" style="fill:#fff;fill-opacity:1;fill-rule:nonzero;stroke:none" transform="translate(140.508 195.229)"/><path d="M0 0c0-14.721-11.935-26.653-26.654-26.653S-53.307-14.721-53.307 0c0 14.718 11.934 26.648 26.653 26.648S0 14.718 0 0" style="fill:#fff;fill-opacity:1;fill-rule:nonzero;stroke:none" transform="translate(224.1 194.907)"/><path d="M0 0c0-7.176-5.821-12.997-12.999-12.997-7.183 0-13.002 5.821-13.002 12.997 0 7.184 5.819 13.003 13.002 13.003C-5.821 13.003 0 7.184 0 0" style="fill:#bfbebe;fill-opacity:1;fill-rule:nonzero;stroke:none" transform="translate(215.974 192.3)"/><path d="M0 0a8.317 8.317 0 0 0-8.317-8.317c-4.598 0-8.325 3.723-8.325 8.317a8.322 8.322 0 0 0 8.325 8.324A8.318 8.318 0 0 0 0 0" style="fill:#231f20;fill-opacity:1;fill-rule:nonzero;stroke:none" transform="translate(211.292 192.3)"/><path d="M0 0a2.494 2.494 0 0 0-2.496-2.491 2.49 2.49 0 0 0 0 4.982A2.495 2.495 0 0 0 0 0" style="fill:#fff;fill-opacity:1;fill-rule:nonzero;stroke:none" transform="translate(201.782 195.229)"/></g><g clip-path="url(#s)" transform="matrix(1.33333 0 0 -1.33333 -94.595 372.31)"><path d="M151.618 177.031c0-10.295 15.06-24.269 15.06-34.133 0 9.864 15.063 23.838 15.063 34.133 0 8.255-6.805 14.947-15.063 14.947-8.258 0-15.06-6.692-15.06-14.947" style="fill:url(#t);stroke:none"/></g></svg>