<svg xmlns="http://www.w3.org/2000/svg" width="1000mm" height="1000mm" viewBox="0 0 1000 1000"><path d="M485.925 988.853c-51.337-1.902-93.271-8.46-126.014-19.71-15.358-5.276-38.461-16.604-48.994-24.024-23.568-16.602-39.223-38.403-45.037-62.72-1.93-8.071-1.957-10.331-1.63-135.259.329-125.223.363-127.181 2.38-136.175 4.192-18.704 8.671-29.907 17.076-42.715 17.194-26.202 46.012-44.147 84.238-52.455 9.588-2.084 10.832-2.109 146.026-2.887 89.81-.517 139.656-1.156 146.026-1.87 55.823-6.265 94.258-39.247 109.336-93.824 5.642-20.42 5.512-18.385 5.938-92.749l.395-68.923 48.058.021c43.495.019 48.84.193 56.279 1.833 37.322 8.227 68.663 34.836 89.447 75.943 12.238 24.204 21.112 54.106 26.093 87.917 1.347 9.144 1.514 20.01 1.228 80.21l-.33 69.634-3.576 16.589c-7.226 33.518-20.313 65.706-35.24 86.675-8.433 11.845-26.453 29.689-37.006 36.642-14.71 9.693-30.492 16.435-48.353 20.657-6.803 1.608-18.484 1.732-188.334 2.003l-181.082.29v33.586h240.714l.284 59.317c.155 32.625-.043 61.845-.442 64.935-2.937 22.768-20.688 45.477-48.144 61.593-31.295 18.369-79.048 30.144-138.257 34.093-15.764 1.052-57.828 1.864-71.079 1.373zm160.997-76.324c23.242-3.746 39.697-26.081 35.867-48.686-3.146-18.569-17.072-32.516-35.78-35.837-17.939-3.185-37.009 6.442-45.237 22.836-14.208 28.307 4.886 60.235 37.432 62.592.798.058 4.27-.35 7.718-.905zM130.168 739.153c-21.978-4.338-41.762-14.841-59.267-31.463-33.805-32.103-53.868-82.224-61.788-154.362-2.07-18.853-2.92-69.999-1.505-90.586 4.043-58.826 16.99-103.713 39.703-137.644 21.687-32.398 50.32-52.188 88.538-61.195 8.7-2.05 8.772-2.051 188.819-2.346l180.115-.295v-32.616H264.3l-.64-41.066c-.968-62.11-.815-79.481.761-86.87 3.144-14.734 10.495-27.227 23.65-40.196 28.489-28.082 78.802-45.106 153.37-51.893 18.288-1.664 77.76-2.279 98.156-1.014 63.981 3.968 111.611 15.68 146.275 35.968 11.407 6.676 18.534 12.167 28.599 22.035 13.69 13.422 22.426 28.304 26.9 45.82l2.33 9.127-.04 122.397c-.026 79.525-.399 125.594-1.064 131.524-4.13 36.795-21.958 66.49-51.172 85.238-13.993 8.979-32.275 16.174-52.705 20.743l-9.67 2.162-138.773.583c-150.001.63-144.458.434-164.884 5.799-44.087 11.578-75.175 44.15-87.516 91.69-5.443 20.972-5.805 26.994-5.805 96.602v63.35l-47.628-.09c-36.061-.068-49.242-.409-54.276-1.402zM378.62 166.646c11.936-3.068 22.297-11.789 27.912-23.494 2.833-5.906 2.995-6.867 2.995-17.771 0-11.163-.104-11.739-3.295-18.225-8.275-16.82-27.272-26.869-45.073-23.84-28.91 4.92-44.663 34.31-32.421 60.489 8.669 18.539 29.504 28.08 49.882 22.841z" style="fill:#fff;stroke-width:.963825"/></svg>