<svg xmlns="http://www.w3.org/2000/svg" width="1827.103" height="1827.103" viewBox="0 0 483.421 483.421"><path d="M297.256 379.333c-46-.174-73.948-.32-112.051-.585-11.86-.082-54.187-.196-94.06-.254-39.873-.057-73.21-.176-74.083-.265-18.685-1.89-34.984-12.302-47.04-30.051-13.297-19.573-21.037-46.064-23.609-80.8-.898-12.125-.96-32.243-.134-43.71 2.856-39.672 13.39-68.32 31.891-86.73 12.709-12.646 28.585-19.835 47.623-21.563 68.964-.418 115.96-.265 192.22-.265V96.06H86.25V64.338c0-19.97.102-32.737.275-34.462 1.411-14.091 10.143-26.394 25.194-35.495 16.629-10.056 41.59-16.473 73.221-18.824 17.36-1.29 41.147-1.344 58.208-.132 12.97.921 26.564 2.834 36.777 5.176 12.893 2.957 22.454 6.274 32.015 11.108 21.828 11.036 34.018 27.043 36.25 47.598.202 1.855.262 22.578.2 69.32l-.088 66.676-.577 3.631c-3.048 19.186-10.764 32.794-24.278 42.818-10.493 7.785-23.31 12.464-39.95 14.587-1.706.218-22.74.358-74.215.496-44.718.12-72.734.291-74.216.456-4.224.469-5.723.865-8.334 2.2-4.33 2.215-6.942 4.708-8.856 8.451-1.496 2.927-2.095 5.312-2.087 8.323.008 3.235.512 5.33 2.004 8.335 1.53 3.083 4.946 6.545 8.013 8.12 7.632 3.194 10.263 1.85 17.198 2.86l251.618.78c40.89 13.318 44.97 90.294 14.685 103.467-41.606-.004-86.426-.398-112.051-.494zM164.918 48.661c1.705-5.183 2.286-9.983 1.016-14.76-7.839-25.627-42.05-20.83-46.597 1.949-.67 3.784-.074 9.192 1.416 12.846 8.902 19.848 36.417 18.32 44.165-.035z" style="fill:#fff;stroke-width:.264583" transform="translate(54.302 61.002)"/></svg>