<svg xmlns="http://www.w3.org/2000/svg" width="942.114" height="942.114" viewBox="0 0 249.268 249.268"><path d="M153.041 264.088c-1.44-.22-3.663-.926-4.921-1.564-.682-.345-8.42-5.762-17.198-12.038-14.154-10.121-16.05-11.399-16.772-11.297-.446.062-2.182.538-3.856 1.056-8.438 2.613-19.994 3.96-29.108 3.39-14.485-.905-25.687-4.166-32.697-9.517-5.47-4.176-9.615-8.277-12.205-12.073-4.036-6.537-7.787-13.56-9.612-20.683-2.986-11.829-4.14-27.168-3.347-44.498.556-12.141.955-15.242 2.981-23.18 2.697-10.56 5.591-16.571 11.18-23.215 7.056-8.389 16.272-13.876 28.511-16.977 12.402-2.144 22.52-3.042 33.71-1.139 15.007 2.586 26.004 8.417 34.162 18.116 5.59 6.644 8.484 12.655 11.18 23.216 2.027 7.937 2.426 11.038 2.981 23.179.793 17.33-.36 32.669-3.346 44.498-.8 3.168-2.143 7.145-2.598 7.693-.137.166-.502.94-.81 1.72-.307.78-.89 1.911-1.296 2.513-.988 1.467-1.716 3.49-1.527 4.242.11.436 3.98 3.348 13.406 10.083 14.126 10.095 15.36 11.134 16.891 14.245 4.194 8.514-.178 18.816-9.168 21.607-1.684.522-5.082.846-6.54.623zm-58.583-46.932c8.831-1.296 10.801-2.215 17.077-7.965 2.012-1.844 5.066-7.405 6.545-11.921 1.69-5.154 3.305-14.497 3.892-22.51.43-5.865.16-16.347-.536-20.785-2.094-11.536-4.87-24.438-14.221-29.343-16.615-7.831-27.256-8.015-43.074 0-12.915 8.035-14.597 27.009-14.914 39.48-.203 9.62.471 17.254 2.335 26.43 1.842 9.076 4.862 15.401 9.617 20.15 3.637 3.633 7.52 5.24 15.632 6.47 4.626.701 12.847.698 17.647-.006zm129.084 19.14c-.223-.269.24-4.612 1.863-17.485 1.188-9.42 2.157-17.396 2.153-17.724l-.007-.595h-23.798l-.141.86c-.078.473-.923 8.36-1.88 17.529-.956 9.167-1.84 16.77-1.964 16.896-.311.313-20.985.209-21.302-.108-.157-.157.56-6.721 1.926-17.647 1.198-9.569 2.174-17.487 2.17-17.596-.004-.11-3.03-.198-6.725-.198-5.058 0-6.782-.082-6.978-.331-.169-.214-.19-3.096-.059-8.136.112-4.293.15-7.892.084-7.998-.065-.106.01-.434.168-.728.277-.518.53-.535 8.085-.535 5.923 0 7.8-.077 7.8-.32 0-.365 3.625-29.192 3.861-30.702l.155-.992h-8.726c-6.659 0-8.79-.078-8.997-.33-.266-.325.963-15.58 1.455-18.059l.21-1.058 9.193-.07 9.192-.07.13-.591c.072-.326 1.032-7.79 2.134-16.587 1.102-8.797 2.132-16.15 2.29-16.338.419-.506 18.023-.5 18.443.005.212.256-.181 4.73-1.476 16.793-.97 9.045-1.672 16.537-1.558 16.651.23.23 25.308.477 25.308.249 0-.478 4.27-33.705 4.365-33.975.091-.257 2.26-.331 9.633-.331 5.234 0 9.704.072 9.935.16.259.1.418.478.417.993 0 .457-.708 7.201-1.572 14.987-.865 7.785-1.655 15.077-1.757 16.205l-.184 2.05h7.283c6.184 0 7.334.061 7.616.402.269.323.22 2.079-.253 9.062-.323 4.763-.68 8.84-.793 9.058-.173.334-1.445.417-8.117.529l-7.911.132-1.626 14.817a6946.28 6946.28 0 0 1-1.775 16.073l-.149 1.257h7.102c5.37 0 7.169.08 7.377.332.192.23.123 2.62-.226 7.871-.276 4.147-.506 7.956-.512 8.466-.019 1.68.27 1.62-8.1 1.672l-7.648.047-1.935 17.595c-1.064 9.677-2.017 17.671-2.119 17.764-.101.093-5.04.223-10.973.288-8.86.098-10.842.055-11.087-.239zm8.52-69.881c1.11-8.774 1.94-16 1.847-16.059-.094-.057-5.734-.033-12.534.055-12.266.158-12.364.164-12.477.712-.063.305-.777 6.983-1.587 14.841-.81 7.858-1.544 14.795-1.631 15.415l-.159 1.127 12.262-.07 12.262-.068z" style="fill:#fff;stroke-width:.264636" transform="translate(-23.082 -54.27)"/></svg>