<svg xmlns="http://www.w3.org/2000/svg" width="300mm" height="300mm" viewBox="0 0 300 300"><path d="M634.897 439.69c-.637-1.675-.503-1.81.657-.658.803.796 1.164 1.744.802 2.106-.361.361-1.018-.29-1.46-1.449zm54.028-5.874c-.637-1.673-.502-1.808.658-.657.802.797 1.163 1.744.802 2.106-.362.362-1.019-.29-1.46-1.449zM580.217 398.97l.01-11.892 13.34-.35 13.338-.35 5.305 9.363c2.917 5.15 4.556 9.076 3.64 8.724-.915-.351-3.892-.022-6.615.732-2.724.754-10.369 2.336-16.99 3.517l-12.04 2.147.011-11.891zM521.48 409.2c-34.826-5.486-68.971-21.404-88.565-41.29-18.165-18.435-25.376-34.512-25.349-56.508.014-10.673.5-13.801 3.463-22.317 21.781-62.58 125.368-95.454 210.873-66.92 43.19 14.412 72.81 41.395 81.142 73.917 1.435 5.603 1.793 10.668 1.366 19.343-.644 13.073-3.562 22.685-10.42 34.318-4.548 7.716-21.488 25.423-29.041 30.355-4.91 3.207-5.157 3.249-6.367 1.087-.692-1.237-2.428-3.418-3.858-4.848l-2.6-2.6 6.618-4.097c18.744-11.607 28.383-28.844 28.317-50.637-.05-16.522-4.196-27.784-14.297-38.836-15.063-16.481-38.407-25.304-76.113-28.766-53.878-4.948-107.083 14.142-124.859 44.799-18.2 31.388 4.006 66.822 51.745 82.573l6.166 2.034v14.588c0 16.196.598 15.193-8.221 13.804zm79.169-30.05-2.238-2.642 2.643 2.237c2.483 2.103 3.177 3.048 2.237 3.048-.223 0-1.412-1.19-2.642-2.643zm-19.933-41.18c-.325-.847-.422-7.586-.214-14.975l.376-13.435.251 14.355.251 14.356 16.737.36 16.737.362-16.773.258c-12.94.2-16.91-.093-17.365-1.28zm97.312-19.014c.009-3.23.236-4.412.506-2.627.27 1.786.263 4.428-.016 5.873-.278 1.445-.5-.016-.49-3.246z" style="fill:#aaaaaf;stroke-width:1.17453" transform="translate(-406.076 -174.033)"/><path d="M529.701 357.715v-83.978l51.973.009c46.242.008 52.96.245 60.932 2.153 15.486 3.706 24.867 10.52 30.643 22.26 3.686 7.49 3.855 8.431 3.838 21.363-.015 11.37-.425 14.415-2.568 19.088-6.577 14.337-18.205 22.855-37.349 27.36-3.502.825-3.488.842 2.363 2.874 11.324 3.933 15.576 6.78 18.899 12.653 2.62 4.63 24.547 41.946 32.348 55.05 1.2 2.014 2.18 3.996 2.18 4.404 0 .409-12.61.743-28.022.743h-28.023l-10.816-20.39c-14.24-26.847-21.772-39.51-25.421-42.741-2.526-2.237-4.329-2.643-11.729-2.643h-8.743v65.774H529.701zm87.343-19.824c5.974-2.496 8.968-7.1 8.968-13.79 0-4.631-.64-6.412-3.424-9.531l-3.424-3.836-19.48-.372-19.478-.373v13.978c0 7.687.352 14.33.783 14.76 1.557 1.557 32.019.85 36.055-.836z" style="fill:#1f64b7;stroke-width:1.17453" transform="translate(-406.076 -174.033)"/></svg>