<svg xmlns="http://www.w3.org/2000/svg" width="252mm" height="252mm" viewBox="0 0 252 252"><path d="M450.093 214.834c-11.552-.973-22.44-6.273-30.889-15.036-6.409-6.648-10.843-15.116-12.274-23.442-.25-1.455-.488-2.69-.529-2.744-.04-.054-1.128.162-2.416.48a61.987 61.987 0 0 1-4.443.904l-2.101.324-.073 4.735-.072 4.734 2.652 4.428c1.458 2.435 2.652 4.495 2.652 4.578 0 .19-2.03 1.48-2.332 1.48-.124 0-1.555-2.192-3.18-4.87l-2.955-4.867v-9.76l-4.44-.16c-2.441-.088-4.644-.238-4.894-.334-.42-.161-.455.192-.455 4.601v4.776l2.657 4.414c1.461 2.428 2.681 4.522 2.712 4.653.06.266-2.365 1.74-2.533 1.54-.059-.07-1.435-2.347-3.06-5.061l-2.951-4.935V174.739l-1.89-.454c-1.04-.25-1.914-.421-1.942-.382-.028.04-.255 1.144-.504 2.453-.25 1.31-.917 3.773-1.484 5.473-5.46 16.388-20.059 28.845-37.704 32.173-3.71.7-12.36.619-15.892-.148-5.66-1.23-10.807-3.432-15.003-6.422-2.776-1.979-6.97-6.267-8.773-8.97-2.73-4.093-4.618-8.684-5.622-13.672-.658-3.269-.66-10.92-.004-14.254 2.647-13.452 11.02-25.088 23.157-32.18.955-.558 1.555-1.053 1.347-1.11-.208-.056-2.023-.42-4.034-.807-12.861-2.481-25.377-9.837-34.229-20.119-16.858-19.58-18.7-46.37-4.442-64.582 1.899-2.426 5.87-6.354 8.197-8.109 7.827-5.903 17.435-9.23 27.913-9.664 18.875-.782 38.467 8.748 50.255 24.447 5.22 6.953 8.682 14.599 10.512 23.224.681 3.21.73 3.863.729 9.79 0 6.838-.285 8.982-1.837 13.84-.357 1.119-.651 2.112-.653 2.208-.002.095.74.532 1.65.97.91.438 2.01 1.023 2.444 1.3.783.499.807.498 2.778-.13 2.142-.68 6.57-1.652 7.532-1.652.583 0 .594-.067.83-5.226.133-2.874.24-7.607.24-10.517-.001-5.995-.052-6.251-2.307-11.64-.732-1.747-1.36-3.212-1.397-3.254-.1-.116-1.19 1.788-1.19 2.077 0 .137.191.25.425.25.252 0 .368.147.286.362-.077.2-.222.916-.324 1.591-.1.675-.284 1.29-.407 1.365-.428.265-3.687-.504-4.213-.993-.291-.272-.53-.776-.53-1.12 0-.344 1.127-2.528 2.505-4.854 3.715-6.271 4.138-6.212 7.214 1.01 3.881 9.114 4.112 10.584 3.427 21.768-.252 4.104-.455 7.729-.452 8.056.006.586.06.596 3.355.596h3.348l-.172-3.903a427.762 427.762 0 0 0-.436-7.871c-.285-4.28-.043-8.38.653-11.052.216-.83 1.43-3.963 2.695-6.962 3.359-7.957 3.623-8.017 7.417-1.696 1.511 2.519 2.46 4.38 2.46 4.827.001 1.093-.747 1.637-2.763 2.008-2.102.388-2.133.367-2.407-1.631-.133-.965-.086-1.36.18-1.524.295-.182.27-.39-.145-1.158-.277-.515-.581-.936-.676-.936-.258 0-2.846 6.313-3.322 8.102-.635 2.392-.768 6.454-.398 12.198.186 2.878.353 6.278.37 7.556.03 2.096.086 2.336.563 2.44.29.062 1.575.3 2.854.53 1.278.228 3.053.642 3.944.92l1.62.503 2.332-1.11c1.716-.816 2.293-1.214 2.184-1.506-.577-1.547-1.478-6.57-1.743-9.724-.559-6.636.29-13.242 2.59-20.174 2.824-8.51 7.518-16.097 14-22.63 9.264-9.337 20.3-15.138 33.205-17.455 3.761-.676 12.004-.824 16.06-.29 11.119 1.464 20.896 6.271 28.128 13.83 11.31 11.82 15.258 28.556 10.683 45.282-5.508 20.139-22.227 36.234-43.441 41.819l-2.726.718 1.992 1.261c4.425 2.804 8.963 6.973 12.33 11.329 4.443 5.749 7.379 12.139 8.792 19.136.775 3.835.836 11.454.121 14.998-3.829 18.972-21.03 31.276-41.331 29.566zM333.66 199.658c9.816-2.93 17.597-11.406 19.91-21.69.601-2.673.593-7.672-.016-10.343-1.669-7.311-7.06-12.964-14.19-14.879-2.609-.7-8.157-.622-11.112.156-6.382 1.682-12.507 6.113-16.326 11.813-9.608 14.338-4.304 32.028 10.637 35.475 2.622.605 8.18.338 11.097-.532zm-6.974-15.263c-6.174-3.085-5.19-12.87 2.005-19.952 1.857-1.828 3.915-3.078 6.49-3.942 8.88-2.981 13.973 5.1 9.205 14.608-2.988 5.96-8.798 10.111-14.149 10.111-1.598 0-2.163-.131-3.551-.825zm133.47 15.64c11.729-3 17.667-15.376 13.455-28.044-3.161-9.507-10.556-16.577-19.965-19.088-3.196-.853-8.245-.856-11.211-.008-6.719 1.923-11.728 6.894-13.648 13.547-.81 2.805-.996 7.809-.406 10.94 1.128 5.987 3.994 11.197 8.566 15.564 3.667 3.504 7.663 5.766 12.3 6.965 3.265.844 7.887.896 10.908.124zm-12.577-14.18c-3.415-.915-7.487-3.99-9.738-7.355-4.745-7.096-4.331-14.552.938-16.883 6.778-2.998 16.943 4.191 19 13.437 1.7 7.643-3.08 12.705-10.2 10.8zm-46.527-14.22c14.666-3.17 25.41-12.028 28.615-23.59.81-2.919 1.11-8.377.56-10.142-.075-.237-.521.008-1.363.75-1.666 1.466-3.996 2.73-6.42 3.485-1.648.512-2.546.614-5.292.603-2.908-.012-3.562-.102-5.424-.747-2.842-.985-4.61-2.035-6.687-3.972-2.23-2.077-4.102-4.95-5.002-7.668-.616-1.863-.712-2.596-.721-5.459-.007-2.454.113-3.713.467-4.879.65-2.135 2.016-4.786 3.316-6.431.593-.75.983-1.422.868-1.494-.116-.072-1.394-.37-2.84-.663-7.477-1.516-14.891-1.333-22.122.546l-2.294.596.742.937c1.16 1.465 2.558 4.203 3.163 6.193 2.795 9.191-2.466 19.162-11.752 22.274-5.132 1.72-10.701.96-15.713-2.145l-1.16-.72.143 3.543c.1 2.483.312 4.13.711 5.509 3.109 10.743 12.834 19.318 25.851 22.794 4.88 1.303 7.234 1.553 13.583 1.444 4.843-.083 6.147-.197 8.77-.764zm-10.582-7.723c-3.01-.654-4.452-1.162-7.208-2.542-2.186-1.094-3.107-1.75-4.74-3.372-2.434-2.42-3.251-3.963-3.393-6.408l-.101-1.747 1.681.234c2.826.395 2.872.415 2.872 1.23 0 .405.349 1.286.774 1.957 2.144 3.38 8.09 6.146 13.92 6.476 3.171.18 5.176-.288 6.6-1.539 1.208-1.06 1.543-2.346 1.31-5.018l-.183-2.094h4.525l.187 1.749c.626 5.847-1.893 9.65-7.357 11.104-1.764.47-6.66.453-8.887-.03zm-22.699-25.267c4.56-1.408 8.595-5.792 9.695-10.534.456-1.966.394-5.277-.133-7.09-1.463-5.033-5.456-9.003-10.33-10.273-2.042-.532-5.72-.521-7.548.022-7.435 2.207-11.983 9.5-10.46 16.77 1.307 6.238 6.127 10.777 12.462 11.738 1.413.214 4.61-.106 6.314-.633zm-7.383-6.555c-3.977-1.916-5.794-6.615-4.089-10.579.779-1.81 2.953-3.82 4.792-4.432 2.053-.681 4.79-.437 6.622.59 3.725 2.091 5.195 6.866 3.277 10.65-1.418 2.798-3.817 4.322-7.02 4.457-1.746.074-2.175-.008-3.582-.686zm61.048 6.66c2.095-.615 4.193-1.817 5.732-3.284 8.284-7.901 4.982-21.428-6.03-24.696-2.175-.646-6.063-.562-8.235.178-4.93 1.681-8.63 5.648-9.799 10.507-.54 2.246-.417 5.474.293 7.682 2.434 7.572 10.449 11.843 18.039 9.614zm-5.417-6.986c-2.25-.562-4.315-2.211-5.432-4.339-.6-1.142-.704-1.67-.707-3.588-.003-2.002.082-2.405.78-3.666 3.233-5.836 11.495-5.828 14.414.013.692 1.386.81 1.915.81 3.653 0 1.737-.118 2.267-.81 3.651-.445.89-1.189 1.94-1.653 2.333-1.946 1.646-5.187 2.497-7.402 1.943zm-71.422-4.9c.72-.504.8-2.104.171-3.43-.398-.84-2.11-2.568-4.63-4.677-1.482-1.239-7.46-4.86-14.003-8.479-6.219-3.44-8.543-4.823-8.528-5.072.008-.133.59-.572 1.295-.976 1.879-1.078 5.657-3.16 6.572-3.62 2.482-1.253 6.38-3.694 7.489-4.69 2.156-1.94 4.527-5.838 5.79-9.522 1.224-3.573 1.678-7.326 1.949-16.127.138-4.505.178-8.434.09-8.732-.353-1.174-3.676-5.804-5.704-7.947-3.173-3.352-7.432-5.985-12.128-7.498-2.355-.759-6.313-1.533-10.616-2.078-3.389-.428-3.727-.429-5.659-.01-1.13.246-3.02.91-4.2 1.478-1.18.567-3.218 1.531-4.528 2.143-6.312 2.947-11.525 7.778-17.397 16.124-.982 1.396-2.133 3.2-2.557 4.008-2.83 5.397-2.256 11.979 1.703 19.498.784 1.49 1.558 2.86 1.719 3.042.16.183 1.15 1.642 2.197 3.243 3.361 5.137 7.08 10.28 8.478 11.724 1.546 1.599 5.153 4.335 7.313 5.546 2.513 1.41 8.925 4.017 13.877 5.641 2.62.86 4.859 1.563 4.974 1.563.116 0 2.5.851 5.298 1.892 5.376 2 9.012 3.64 11.136 5.024 3.032 1.976 8.354 3.015 9.9 1.932zM307.88 99.436c-4.523-3.152-8.53-7.023-11.305-10.921-.828-1.164-2.714-3.665-4.19-5.556-3.478-4.458-4.08-5.45-4.267-7.02-.193-1.634.558-3.27 2.753-5.992a93.773 93.773 0 0 0 2.722-3.567c3.74-5.237 6.153-8.28 8.176-10.309 2.21-2.216 2.328-2.293 4.179-2.712 1.047-.237 2.498-.43 3.224-.43 3.016 0 11.924 2.342 15.132 3.978 1.497.764 4.48 2.903 5.575 3.998 1.52 1.52 2.45 3.3 2.386 4.566-.497 9.804-1.191 13.738-3.056 17.33-.87 1.678-3.917 4.8-6.909 7.081-1.164.888-2.371 1.836-2.682 2.108-.311.271-1.024.85-1.584 1.287-.56.437-2.763 2.193-4.896 3.903-2.132 1.71-3.92 3.103-3.972 3.097-.052-.006-.631-.385-1.286-.841zm8.071-9.874c5.398-1.406 9.918-5.992 10.989-11.147.452-2.177.206-6.212-.497-8.156-.709-1.962-2.658-4.864-4.11-6.12-1.48-1.279-3.393-2.355-5.457-3.07-2.3-.798-7.056-.85-9.26-.103-6.183 2.097-10.149 7.069-10.517 13.186-.177 2.941.238 5.095 1.469 7.616 1.747 3.58 5.61 6.709 9.61 7.785 1.905.512 5.823.517 7.773.009zm-4.048-4.84c-1.965-.7-3.222-1.812-4.221-3.73-1.584-3.041-.993-6.296 1.57-8.648 1.443-1.325 2.743-1.803 4.879-1.792 3.767.02 6.826 2.879 7.17 6.699.472 5.26-4.505 9.218-9.398 7.471zm144.144 39.898c1.964-.304 5.285-.78 7.38-1.06 8.881-1.184 11.502-2.121 14.168-5.068 3.207-3.544 5.254-9.891 5.62-17.428.487-10.044-2.793-19.101-9.163-25.301-1.682-1.637-3.151-2.508-6.628-3.926-7.086-2.892-10.078-4.132-10.98-4.552-.582-.271-1.442-.666-1.91-.876l-.853-.384 2.836-1.76c6.517-4.045 14.232-6.2 22.02-6.152 4.575.029 6.861.48 9.695 1.913 1.636.828 4.063 2.798 4.063 3.298 0 .163.655 1.33 1.455 2.592s1.455 2.36 1.455 2.44c0 .232 2.938 2.97 4.31 4.018 1.632 1.246 2.808 1.721 4.261 1.721 1.722 0 2.277-.791 2.277-3.243 0-3.088-2.18-8.907-4.483-11.97-2.147-2.854-5.583-5.661-9.158-7.48-1.718-.874-5.638-2.135-8.378-2.695-11.144-2.278-26.585-.49-34.853 4.036-2.523 1.381-11.356 7.3-13.11 8.785-2.325 1.969-4.078 3.937-6.3 7.074-6.883 9.715-8.096 12.695-8.106 19.913-.008 6.547 1.364 12.04 4.919 19.691.756 1.628 1.227 2.247 2.507 3.291.867.708 2.054 1.99 2.639 2.851 1.086 1.6 2.62 4.62 2.62 5.159.001.556 3.291 3.022 5.455 4.087 1.18.58 2.966 1.228 3.968 1.438 2.377.497 7.506.325 12.274-.412zm-11.612-9.66c-2.143-.93-6.788-6.907-8.656-11.138-.376-.852-.904-2.034-1.174-2.627-.925-2.036-1.646-6.362-1.478-8.862.172-2.548.97-5.474 1.87-6.86l2.637-4.066c2.53-3.898 4.284-6.238 6.043-8.058 1.949-2.016 2.004-2.03 3.524-.882.718.541 2.793 1.99 4.612 3.22 9.228 6.237 16.305 13.323 19.345 19.37 1.888 3.755 2.286 6.85 1.292 10.067-1.776 5.751-2.933 6.486-12.17 7.73-1.673.226-5.28.884-8.017 1.463-5.41 1.145-6.47 1.233-7.828.643zm10.911-6.186c4.013-1.393 7.16-4.695 8.416-8.829.459-1.51.533-2.305.436-4.668-.107-2.586-.203-3.027-1.052-4.805-2.498-5.232-6.603-7.91-12.126-7.91-3.925 0-6.88 1.274-9.641 4.155-6.134 6.4-4.11 17.59 3.866 21.379 1.083.514 2.497 1.046 3.144 1.182 1.722.363 5.18.113 6.957-.504zm-6.664-3.963c-2.407-.831-4.434-3.276-4.917-5.928-.265-1.453.28-3.685 1.254-5.132 1.185-1.764 2.886-2.746 5.055-2.92 3.385-.272 5.868 1.093 7.307 4.016.785 1.595.842 1.888.727 3.691-.204 3.177-1.97 5.544-4.751 6.37-1.78.528-2.935.504-4.675-.097zm41.364 11.774c6.956-2.244 11.739-7.575 13.272-14.794.55-2.592.349-8.354-.377-10.765-2.266-7.53-7.313-13.678-13.954-17.001-3.48-1.741-8.928-2.785-12.303-2.356-1.506.192-1.62.244-.926.42 4.03 1.019 7.461 2.697 10.563 5.164 6.803 5.414 10.776 14.753 9.68 22.757-.665 4.859-2.463 8.602-5.67 11.809-2.206 2.206-4.438 3.575-7.512 4.608-2.7.907-2.35 1.065 2.067.932 2.366-.071 3.514-.244 5.16-.774zm-145.537-12.452c14.201-4.179 22.615-20.177 17.427-33.137-2.52-6.294-8.763-11.136-15.32-11.881l-1.562-.177 2.041 1.373c2.798 1.884 4.991 4.37 6.44 7.302 1.796 3.636 2.106 5.113 2.083 9.922-.018 3.644-.097 4.355-.718 6.386-.97 3.176-1.814 4.988-3.509 7.535-4.475 6.726-11.692 11.063-19.392 11.655l-2.235.172 1.21.475c3.792 1.49 9.233 1.64 13.535.375z" style="fill:#fff;stroke-width:.264583" transform="translate(-264.583)"/></svg>