<svg xmlns="http://www.w3.org/2000/svg" xml:space="preserve" width="83.61" height="84.161" viewBox="0 0 22.122 22.268"><path d="M51.937 87.375c-1.13-.656-.83-1.534-.802-10.683.015-4.77-.035-8.927.066-9.29.1-.362.28-1.059.775-1.392.829-.559 1.593-.516 4.41-.447l3.044-.012.09 9.61c.048 5.24-.061 10.338-.146 10.811-.367 2.273-1.398 1.753-5.187 1.796-1.384-.004-1.982-.237-2.25-.393zm15.012-12.058c-2.772-.897-4.132-4.086-2.899-6.8.755-1.661 2.061-2.52 4.057-2.664 3.493.09 4.727 2.118 5.093 4.654.002 2.036-.589 3.184-2.17 4.22-.998.655-2.991.943-4.08.59z" style="fill:#eee6e6;stroke-width:.264583" transform="translate(-51.079 -65.524)"/></svg>