<svg xmlns="http://www.w3.org/2000/svg" width="798.229" height="798.251" viewBox="0 0 211.198 211.204"><path d="M101.474 255.197c-16.432-.576-29.913-3.924-43.786-10.875-9.444-4.732-17.07-10.049-25.334-17.662-3.389-3.123-3.994-3.944-3.667-4.976.084-.265 6.08-6.405 13.325-13.645 11.04-11.03 13.291-13.162 13.905-13.162.566 0 1.362.599 3.498 2.63 12.505 11.892 28.783 18.365 46.16 18.353 10.458-.007 19.655-2.293 29.637-7.369 20.513-10.43 32.711-27.977 35.767-51.45.432-3.32.423-12.954-.015-16.14-1.4-10.17-4.955-19.486-10.754-28.177-8.226-12.33-19.578-20.795-34.526-25.748-7.54-2.498-13.781-3.56-20.902-3.553-10.098.01-18.446 2.003-27.914 6.665-6.915 3.406-15.478 9.163-15.478 10.406 0 .408 2.92 3.503 9.922 10.513 5.457 5.464 9.922 10.057 9.922 10.207 0 .839-.75 1.178-3.44 1.556-4.445.625-18.488 2.697-33.205 4.9-2.037.304-4.895.725-6.35.935-1.455.21-8.659 1.281-16.007 2.382-20.637 3.09-21.393 3.189-21.906 2.868-.248-.155-.488-.646-.533-1.09-.044-.444.647-5.611 1.536-11.483l2.4-15.834C5.55 93.433 10.116 62.53 10.74 58c.55-3.997.803-4.87 1.474-5.084.465-.147 2.087 1.354 10.13 9.377 5.318 5.305 9.782 9.553 10.04 9.553.718 0 1.472-.477 3.341-2.113 12.728-11.136 28.052-19.002 44.846-23.019 7.932-1.897 12.234-2.395 22.094-2.56 14.931-.247 23.626.98 35.85 5.064 26.006 8.687 45.985 25.343 59.674 49.747 6.86 12.23 10.863 25.268 12.472 40.614.437 4.166.438 15.443.002 19.976-1.732 18.013-7.374 34.049-17.126 48.683-14.332 21.506-35.656 36.865-60.723 43.738-10.79 2.959-17.917 3.691-31.34 3.22zm2.25-81.38c-4.889-.906-7.213-1.78-10.438-3.928-2.584-1.72-4.925-4.108-6.716-6.852-2.448-3.75-3.514-7.494-3.514-12.346 0-3.933.543-6.389 2.16-9.77 3.158-6.607 8.641-11.107 15.541-12.756 1.947-.465 2.859-.53 5.877-.417 6.987.26 12.283 2.546 16.556 7.145 4.26 4.586 6.066 9.522 6.066 16.592 0 3.286-.09 4.12-.62 5.812-2.473 7.872-8.69 13.75-16.843 15.921-1.8.48-6.737.846-8.07.599z" style="fill:#fff;stroke-width:.264583" transform="translate(.209 -44.124)"/></svg>