<svg xmlns="http://www.w3.org/2000/svg" width="30mm" height="30mm" viewBox="0 0 30 30"><path d="M100.455 192.785h1.686l-3.886 11.779c-.64 0-1.28.003-1.92.004zm17.641 8.666c.943-2.874 1.812-5.464 1.93-5.755.118-.291 0 0 1.126-2.994.574-1.525-1.126 2.994 0 0 1.627.083 1.638-.062 1.627.083-.01.146-1.023 3.33-2.249 7.076l-1.358 4.614-1.92.004zm-12.892-2.875-.018-5.475 3.524-.14c3.191.094 3.582.16 4.355.734.643.477 1.064 2.149.87 2.983-.273 1.18-1.533 2.26-2.314 2.465 1.14 1.37.475.705 1.14 1.37.558.557 2.762 3.454 2.762 3.63 0 .083-.701.152-1.558.152-1.406 0-1.602-.07-2.032-.728-.656-.974-1.533-1.989-2.041-2.778-.338-.526-.685-.727-1.255-.727h-.787V204.295h-2.646zm5.838-.905c.368-.197.512-.556.512-1.278 0-1.242-.691-1.696-2.397-1.575l-1.175.084-.08 1.521-.079 1.522h1.354c.744 0 1.584-.123 1.865-.274z" style="fill:#fff;stroke-width:.264583" transform="translate(-94.453 -183.732)"/></svg>