<svg xmlns="http://www.w3.org/2000/svg" width="1000mm" height="1000mm" viewBox="0 0 1000 1000"><path d="M434.049 677.155c-4.072-.163-9.626-.675-12.666-1.168-25.503-4.13-38.972-20.682-40.784-50.115-.15-2.416 1.978-49.61 2.417-53.62.19-1.748-.208-1.588 5.21-2.096 1.992-.187 3.487-.22 3.626-.081.26.26.986 2.218 4.536 12.238 1.307 3.692 2.614 6.967 2.903 7.277.289.31 1.51 2.528 2.713 4.929 2.135 4.258 2.208 4.363 2.962 4.277.425-.049 13.49-1.984 29.032-4.3 15.543-2.316 28.35-4.21 28.462-4.21.112 0 1.38-3.819 2.82-8.486l2.616-8.485 21.177-19.647c30.305-28.118 30.498-28.295 31.436-28.766.694-.35 3.587-.565 15.537-1.16 8.076-.404 14.72-.762 14.762-.797.043-.035-1.156-4.98-2.663-10.989l-2.741-10.925 5.515-17.484c3.033-9.616 6.401-20.23 7.484-23.588l1.97-6.104 13.3-3.07c10.236-2.361 13.393-3 13.7-2.773.355.263.355.248.002-.132-.434-.466-19.566-16.147-20.75-17.006-.525-.381-2.284-3.633-6.277-11.605-3.05-6.091-5.471-11.151-5.378-11.244.293-.294 12.512-.324 34.257-.083l21.034.233 4.101 1.067c9.937 2.586 17.135 6.299 22.973 11.85 9.248 8.794 13.593 20.264 13.977 36.902.133 5.78.047 7.117-2.934 45.905-8.468 110.188-12.055 157.33-12.055 158.441 0 1.058-.081 1.241-.596 1.344-.327.066-13.275.968-28.773 2.004s-59.61 4.015-98.028 6.618c-80.96 5.488-72.546 4.943-74.877 4.85zm-32.015-106.613c-6.257-6.082-11.496-11.242-11.641-11.466-.488-.753-.326-11.682.221-14.96 1.46-8.736 4.868-18.543 10.02-28.835 2.25-4.498 2.449-4.862 5.32-9.756 21.04-35.874 61.554-71.558 97.337-85.733 21.049-8.338 37.677-7.974 46.89 1.028 9.497 9.28 10.418 25.516 2.605 45.905-3.66 9.55-8.102 17.959-15.027 28.443-23.86 36.12-65.622 70.715-99.477 82.402-7.956 2.746-12.902 3.718-19.843 3.9l-5.028.13z" style="fill:#cc2311;stroke-width:.264583" transform="matrix(3.66232 0 0 3.68208 -1388.633 -1497.19)"/><path d="M430.61 676.884c-11.634-.617-21.57-3.4-29.105-8.152-3.713-2.341-8.515-7-11.247-10.91-1.864-2.668-4.627-8.155-5.785-11.488-2.127-6.124-3.592-14.551-3.787-21.785l-.064-2.381 4.203-7.673c2.312-4.22 5.41-9.816 6.884-12.436a877.946 877.946 0 0 0 4.896-8.829c2.58-4.74 2.107-4.771 4.669.314 2.929 5.815 6.463 13.891 15.36 35.106 2.839 6.767 5.248 12.395 5.354 12.508.194.205 25.734-3.479 26.226-3.783.145-.09 1.043-2.655 1.996-5.7 1.817-5.807 13.175-43.078 16.04-52.634l1.666-5.557 9.283-8.599c8.588-7.955 9.37-8.612 10.451-8.785.642-.102 16.742-.991 35.777-1.975 30.183-1.56 34.641-1.74 34.855-1.401.205.324.246.312.25-.076.001-.254-.123-.463-.277-.463-.154 0-.21-.113-.124-.252s-2.72-11.634-6.234-25.544l-6.389-25.292 2.954-9.304c1.624-5.118 2.977-9.317 3.007-9.333.268-.141 60.226-13.886 60.567-13.885.357.002 11.25 8.657 19.061 15.147.692.574 1.257.983 1.257.908 0-.163.21.01-36.403-29.96l-29.126-23.843 5.71-3.191c13.005-7.268 20.536-11.504 20.65-11.616.068-.065-.736-1.84-1.785-3.946-1.05-2.105-1.908-3.885-1.908-3.957 0-.071 4.183-.13 9.296-.13 8.948 0 9.42.026 12.593.68 14.472 2.981 25.119 9.435 31.717 19.225 3.102 4.603 5.304 10.106 6.698 16.74 1.183 5.633 1.466 8.633 1.458 15.478-.006 5.438-.378 10.982-2.965 44.186-1.626 20.882-3.88 49.933-5.008 64.558l-2.051 26.59-6.687 3.8c-3.678 2.09-6.687 3.845-6.687 3.902 0 .17 3.839 27.22 6.242 43.986 1.238 8.637 2.215 15.8 2.172 15.92-.044.118-7.342-6.215-16.219-14.075-18.526-16.403-27.441-24.233-28.188-24.756-.478-.335-2.902.99-28.31 15.458l-27.789 15.823 10.526.857c5.79.472 24.754 1.992 42.143 3.378 47.854 3.814 46.848 3.728 45.509 3.921-.655.095-13.633 1.008-28.84 2.029s-59.13 4-97.609 6.62c-38.478 2.619-71.16 4.74-72.628 4.712a159.18 159.18 0 0 1-4.256-.135zm6.217-.344c0-.146-.052-.265-.117-.265-.064 0-.19.12-.28.265-.09.145-.037.264.117.264s.28-.119.28-.264zm-.895-1.234c-.224-.413-.411-.667-.417-.565-.018.315.597 1.543.714 1.426.06-.06-.073-.448-.297-.86zm1.605-1.462c-.085-.21-.147-.148-.16.16-.011.279.051.435.14.347.087-.088.096-.316.02-.507zm-3.059-1.98c-.312-.537-.387-.366-.132.3.09.236.22.374.29.306.067-.068-.003-.341-.158-.607zm-.794-1.853c-.312-.536-.387-.365-.132.3.091.237.221.375.29.307.067-.068-.003-.341-.158-.607zM559.51 556.634c-.085-.211-.147-.149-.16.16-.011.278.051.435.139.347.088-.088.097-.316.02-.507zm-.265-1.059c-.084-.21-.147-.148-.16.16-.011.28.052.435.14.348.087-.088.097-.317.02-.508zm-.264-1.058c-.085-.211-.147-.148-.16.16-.012.279.05.435.139.347.088-.088.097-.316.02-.507zm-.265-1.058c-.084-.211-.147-.149-.16.16-.011.278.051.435.14.347.087-.088.097-.316.02-.507zm79.194-64.336c0-.05-.267-.318-.595-.595l-.595-.504.504.595c.473.56.686.716.686.504zm-1.323-1.058c0-.05-.267-.318-.595-.595l-.595-.504.504.595c.474.56.686.716.686.504zm-1.322-1.075c0-.059-.626-.607-1.39-1.217l-1.389-1.11 1.323 1.212c1.328 1.217 1.456 1.314 1.456 1.115zm-218.546 71.125c-11.133-10.833-21.052-20.507-22.044-21.497l-1.802-1.801.975-3.024c7.757-24.05 27.406-52.01 52.478-74.676 13.706-12.39 27.964-22.62 42.227-30.296 3.353-1.804 9.637-4.842 10.6-5.125.337-.099 51.445 49.47 51.444 49.894-.001.476-4.788 10.08-6.674 13.391-7.852 13.787-18.282 27.505-30.876 40.61-22.506 23.42-49.567 42.526-72.137 50.933-1.958.73-3.647 1.318-3.755 1.307-.108-.01-9.304-8.882-20.436-19.716z" style="fill:#ad1103;stroke-width:.264583" transform="matrix(3.66232 0 0 3.68208 -1388.633 -1497.19)"/><path d="M431.006 676.884c-.946-.046-3.386-.266-5.424-.49-16.799-1.848-28.373-8.154-35.886-19.553-5.108-7.749-8.352-18.884-8.87-30.44l-.166-3.704 3.279-5.963c1.803-3.28 5.779-10.561 8.835-16.181 3.056-5.62 5.592-10.122 5.635-10.005.044.117-.699 9.6-1.65 21.075-1.969 23.763-2.511 30.87-2.367 31.028.056.06 5.643-1.532 12.417-3.538 6.773-2.006 12.363-3.6 12.422-3.541.246.246 9.95 23.578 10.587 25.456.234.689 1.787 4.522 3.452 8.52 1.666 3.997 3.028 7.324 3.028 7.394 0 .125-1.933.104-5.292-.058zm6.549-.003a3.768 3.768 0 0 1 1.19 0c.328.063.06.115-.595.115s-.923-.052-.595-.115zm3.638-.357c2.781-.383 11.186-1.773 12.744-2.108.752-.161 1.418-.434 1.48-.607.06-.172 4.74-19.178 10.399-42.235l10.288-41.92-4.047-7.912c-2.226-4.351-3.987-7.971-3.914-8.044.073-.074 4.457 1.263 9.743 2.97a3763.36 3763.36 0 0 0 13.18 4.236c1.965.622 15.42 4.943 29.899 9.6 26.83 8.632 35.45 11.385 44.846 14.321 2.91.91 5.445 1.739 5.633 1.842.345.19-8.763 8.834-15.951 15.14-13.065 11.459-26.727 21.311-40.878 29.479l-4.101 2.367 4.1.326c30.865 2.46 56.2 4.462 85.064 6.725 25.335 1.986 34.562 2.793 33.602 2.938-.727.11-23.647 1.694-50.932 3.52-57.52 3.848-101.336 6.825-122.37 8.314-8.15.576-16.126 1.106-17.727 1.176-2.676.118-2.761.108-1.058-.127zm45.893-70.176c.02-2.036-1.11-3.79-3.084-4.787-1.818-.919-1.786-.616.373 3.541 2.01 3.87 2.07 3.951 2.38 3.241.176-.4.324-1.298.331-1.995zm134.95 44.321a24898.416 24898.416 0 0 0-46.633-41.275c-1.71-1.509-3.117-2.645-3.126-2.525-.009.12-.127-.057-.262-.393-.284-.71-5.965-23.282-6.205-24.658-.149-.855-10.162-40.786-17.213-68.645-1.655-6.541-2.983-11.908-2.952-11.926.032-.018 6.011-.419 13.287-.891 7.276-.473 15.67-1.03 18.653-1.239 2.984-.209 8.877-.616 13.097-.905 4.22-.288 8.507-.591 9.525-.673 1.019-.082 11.302-.792 22.85-1.577 11.55-.786 21.035-1.464 21.078-1.508.096-.097-2.047-1.883-19.652-16.386-20.76-17.1-32.401-26.66-45.23-37.14-6.412-5.239-11.643-9.544-11.624-9.568.02-.023 6.702.885 14.851 2.018 8.15 1.133 15.532 2.127 16.406 2.209l1.59.149 5.936-13.445 5.938-13.444 3.418.901c26.37 6.957 37.993 26.764 35.139 59.887-.307 3.565-1.99 25.235-3.739 48.154-1.748 22.92-3.255 42.651-3.347 43.848l-.167 2.177-9.907 5.629-9.907 5.629.179 1.72c.098.945 2.904 20.762 6.236 44.036s6.03 42.338 5.997 42.364c-.034.026-6.431-5.61-14.217-12.523zm-35.181-126.275c3.64-3.943 4.429-9.964 1.947-14.863-.829-1.634-3.25-4.247-4.755-5.13-6.004-3.518-13.74-1.816-17.529 3.859-1.271 1.903-2.215 4.529-1.69 4.704.182.06.482.26.665.444.441.44 9.786 6.221 15.664 9.69 1.31.772 2.739 1.618 3.175 1.88 1.134.68 1.417.614 2.523-.584zM423.2 556.904a16625.712 16625.712 0 0 0-23.896-23.238l-4.58-4.429 1.179-3.144c2.485-6.623 6.526-14.636 11.329-22.465 2.95-4.81 8.184-12.41 8.516-12.37.25.031 64.73 62.576 64.722 62.78-.02.481-10.479 7.534-16.6 11.193-7.178 4.29-18.265 9.82-20.76 10.355-.497.107-3.783-2.976-19.91-18.682z" style="fill:#900d03;stroke-width:.264583" transform="matrix(3.66232 0 0 3.68208 -1388.633 -1497.19)"/><path d="M422.93 675.215c-2.878-.197-8.305-.964-8.564-1.21-.057-.054.062-.156.264-.225 1.413-.483 17.559-5.178 17.808-5.178.173 0 .878 1.39 1.567 3.087.966 2.379 1.176 3.137.913 3.304-.187.118-1.543.217-3.013.22-1.47.003-3.375.053-4.233.112-.858.06-2.993.01-4.743-.11zm135.968-57.974c.452-3.113.687-6.544.691-10.088.003-2.147.089-3.903.191-3.903.246 0 11.295 3.47 11.419 3.586.18.169-11.608 11.256-12.19 11.463-.185.066-.222-.291-.111-1.058zm12.197-14.825-1.065-4.334 23.159-25.852c12.737-14.219 23.364-26.057 23.616-26.307.433-.431.514-.426 1.503.102 1.198.64 1.277.603 2.71-1.248 1.019-1.317 3.75-5.553 4.775-7.408 1.792-3.242 2.387-4.218 2.758-4.526.446-.37.555-.576-2.691 5.055-12.287 21.308-26.83 40.062-51.881 66.903l-1.818 1.949zm-145.173-53.04c-13.138-12.75-24.879-24.16-26.09-25.355l-2.202-2.172.395-.905c.217-.498.404-.765.416-.594.012.17 11.868 11.82 26.348 25.887 14.479 14.067 26.326 25.671 26.326 25.788 0 .215-.64.533-1.072.533-.128 0-10.983-10.432-24.121-23.182zm208.22-31.915c.213-6.324-.734-13.328-2.575-19.053-.429-1.333-.739-2.464-.689-2.514.088-.087 12.215-1.116 13.213-1.12.421-.003.467.133.317.932-.79 4.213-6.877 19.58-9.83 24.819l-.573 1.016zm10.624-22.742c-.205-.201-5.946-4.935-12.757-10.52-11.79-9.666-12.361-10.175-11.907-10.603 14.963-14.055 29.785-27.79 29.883-27.693.556.556 1.42 9.413 1.419 14.553 0 9.172-2.2 21.774-5.776 33.082-.418 1.323-.542 1.493-.862 1.18zm-8.709-53.903c-6.476-.982-11.91-1.834-12.075-1.895-.183-.067 1.495-4.165 4.324-10.56 2.543-5.749 4.669-10.498 4.724-10.554.344-.347 4.942 3.674 7.122 6.228 3.574 4.19 6.313 9.122 8.078 14.548 1.271 3.906 1.285 4.072.33 4.041-.4-.012-6.027-.826-12.503-1.808z" style="fill:#7a120b;stroke-width:.264583" transform="matrix(3.66232 0 0 3.68208 -1388.633 -1497.19)"/></svg>