<svg xmlns="http://www.w3.org/2000/svg" width="1000mm" height="1000mm" viewBox="0 0 1000 1000"><path d="m198.305 993.544-9.922-.636c-31.255-2-52.964-5.933-73.853-13.38-9.594-3.42-20.71-8.542-28.673-13.213-35.976-21.1-60.098-54.45-72.72-100.532-4.529-16.539-7.538-34.683-9.17-55.298-.483-6.104-.509-7.591-.267-15.61.823-27.368 3.662-93.342 6.226-144.728 1.65-33.09 2.478-45.497 3.12-46.803.836-1.7 2.58-2.136 12.278-3.066 9.738-.934 13.288-1.195 16.254-1.195 2.194 0 2.686.078 3.102.495.857.856 3.543 8.067 13.662 36.679 7.467 21.11 11.607 31.819 13.385 34.62 2.328 3.669 5.044 8.677 10.306 19.003 7.133 13.999 7.964 15.3 9.771 15.3.793 0 23.51-3.334 66.681-9.787l37.174-5.557c57.228-8.555 91.725-13.69 98.69-14.693 4.657-.67 8.636-1.308 8.844-1.416.798-.416 4.233-10.852 13.647-41.455l6.434-20.918 1.942-1.863c1.068-1.024 13.49-12.627 27.606-25.784 14.115-13.157 45.072-42.02 68.792-64.14 83.781-78.132 90.818-84.6 93.79-86.217 3.062-1.667 9.111-2.122 68.928-5.182 32.743-1.676 40.954-2.133 41.838-2.333l.827-.187-.872-3.836c-1.433-6.31-4.206-17.639-11.75-48.006l-7.16-28.825 8.76-27.929c24.866-79.282 45.815-145.504 46.078-145.663.037-.022 5.365-1.265 11.84-2.761 6.476-1.496 21.716-5.02 33.867-7.83 25.041-5.793 35.318-8.094 43.127-9.658 5.845-1.17 9.85-1.6 10.164-1.092.103.166.32.301.485.301.544 0-1.191-1.592-7.473-6.857-13.081-10.964-48.982-40.545-63.567-52.376-3.614-2.932-6.607-5.568-7.043-6.204-2.682-3.91-8.812-15.59-20.783-39.596-12.52-25.109-20.262-41.322-20.262-42.439 0-.241.4-.425 1.125-.517.618-.078 8.744-.277 18.058-.442 12.665-.225 26.57-.224 55.165.004 21.028.168 55.854.413 77.39.546 21.538.133 40.588.352 42.334.487 1.746.135 4.355.255 5.797.266 2.42.019 3.327.205 11.774 2.416 18.407 4.819 28.671 8.161 40.637 13.232 5.27 2.233 15.503 7.349 20.109 10.052 31.508 18.493 54.31 45.63 67.044 79.793 8.796 23.597 13.361 53.336 13.356 87.011 0 10.962.01 10.753-2.095 40.746-2.277 32.447-1.91 27.582-16.91 223.97-14.3 187.253-23.977 314.529-29.386 386.556-6.179 82.26-6.74 89.975-6.743 92.56 0 2.215-.393 3.658-1.093 4.033-.299.16-1.693.396-3.098.525-4.71.432-44.05 3.194-84.575 5.937-9.75.66-23.8 1.613-31.221 2.119-7.421.506-21.441 1.456-31.155 2.11a229331.987 229331.987 0 0 0-66.609 4.504c-22.835 1.544-52.027 3.524-64.336 4.365-6.354.434-17.665 1.203-25.135 1.71-7.471.507-25.847 1.756-40.836 2.776-39.01 2.656-48.019 3.269-89.694 6.098a130698.748 130698.748 0 0 1-66.014 4.486c-15.06 1.02-29.05 1.976-31.088 2.123-2.037.147-9.895.683-17.462 1.191a6181.85 6181.85 0 0 0-17.463 1.19c-2.037.148-9.895.685-17.462 1.196-22.003 1.485-29.124 1.97-33.073 2.252-2.037.146-6.324.441-9.525.656-3.202.215-12.846.866-21.431 1.448-56.973 3.857-85.217 5.659-86.651 5.526-.219-.02-1.945-.137-3.837-.258zm-95.911-372.656c-33.374-32.624-60.358-59.2-61.852-60.918-1.334-1.534-1.373-1.626-1.705-4.049-.243-1.773-.336-6.473-.326-16.502.026-26.841 1.049-36.226 6.213-57.017 6.839-27.537 17.058-54.262 33.082-86.52 7.69-15.48 12.508-24.202 22.947-41.539 69.273-115.05 193.322-230.398 312.13-290.236 46.139-23.239 86.438-36.142 123.692-39.604 7.014-.652 22.482-.656 28.84-.008 12.12 1.236 23.563 3.99 32.772 7.884 6.862 2.903 14.921 7.653 20.409 12.031 3.17 2.529 10.326 9.758 13.032 13.166 20.633 25.98 26.605 63.407 17.51 109.738-5.456 27.789-17.07 60.257-33.209 92.837-16.802 33.918-42.998 74.827-70.483 110.067-22.187 28.448-44.509 53.622-71.572 80.717-12.485 12.5-18.611 18.385-30.04 28.856-67.559 61.895-140.896 111.064-206.191 138.239-16.924 7.043-34.886 13.193-49.392 16.91-15.684 4.02-27.566 5.61-46.302 6.196l-13.362.419-4.894.153-21.3-20.82z" style="fill:#fff;stroke-width:.264583"/></svg>