<svg xmlns="http://www.w3.org/2000/svg" width="300mm" height="300mm" viewBox="0 0 300 300"><path d="M138.204 239.393c0-.181.946-1.14 2.103-2.13 1.156-.99 2.102-1.349 2.102-.796 0 .552-.946 1.51-2.102 2.13-1.157.618-2.103.977-2.103.796zm23.647-.814c-.364-.588-1.069-.817-1.567-.509-.498.308-1.183.112-1.522-.435-1.249-2.021 1.303-2.075 3.122-.065 1.034 1.143 1.598 2.078 1.254 2.078-.345 0-.924-.481-1.287-1.069zm14.839-5.415c.297-.482.986-.876 1.53-.876.545 0 .99.394.99.876s-.689.876-1.531.876-1.287-.394-.99-.876zm16.189-4.483c0-.289.946-1.032 2.103-1.65 1.156-.62 2.102-.89 2.102-.6 0 .289-.946 1.032-2.102 1.65-1.157.62-2.103.89-2.103.6zm-89.056-1.988c-.359-.581-.107-.708.572-.289.668.413 1.214.25 1.214-.363 0-.612.394-1.114.876-1.114s.876.631.876 1.402c0 1.627-2.592 1.893-3.538.364zm104.91-4.482c.05-1.225.3-1.474.636-.635.303.759.266 1.666-.083 2.015-.35.35-.598-.271-.553-1.38zm-.067-4.151c-.012-1.586.73-2.19 2.876-2.34 2.665-.187 2.727-.109.788.995-1.156.66-2.45 1.712-2.875 2.34-.451.666-.78.252-.789-.995zm23.788-28.354c-.939-2.446-.875-2.63.905-2.63 1.77 0 1.97.907.656 2.98-.709 1.118-1.025 1.047-1.56-.35zm7.691-16.39c-.645-1.205-.941-2.424-.658-2.707.283-.283.828.474 1.212 1.682.386 1.216 1.206 1.883 1.836 1.494.678-.419.835-.213.388.51-1.038 1.68-1.429 1.542-2.778-.978zM87.448 161.083c1.867-.232 5.179-.236 7.36-.008 2.182.228.655.418-3.394.422-4.048.004-5.832-.181-3.966-.413zm-11.805-5.55c.357-.578.858-1.051 1.113-1.051s.464.473.464 1.051c0 .579-.501 1.052-1.113 1.052-.613 0-.822-.473-.464-1.052zm167.288-1.927c-.298-.482.126-.877.943-.877.816 0 1.24.395.943.877-.298.481-.722.876-.943.876-.221 0-.646-.395-.943-.876zm-168.782-1.84c.05-1.225.3-1.474.635-.636.304.76.266 1.666-.083 2.016-.35.349-.598-.272-.552-1.38zm-11.762-2.16c-.806-.976-2.884-2.68-4.619-3.788-2.642-1.687-2.749-1.897-.657-1.294 1.615.466 2.26.334 1.823-.371a1.289 1.289 0 0 1 .42-1.768c.602-.372 1.027-.287.944.19-.335 1.933.204 3.211 2.308 5.47 1.214 1.303 1.991 2.587 1.727 2.852-.265.265-1.141-.317-1.946-1.292zm50.056-.381c-.357-.579-.148-1.052.464-1.052s1.113.473 1.113 1.052c0 .578-.208 1.051-.463 1.051s-.756-.473-1.114-1.051zm-45.83-.526c-.086-.578-.097-1.417-.024-1.863.072-.447-1.054-1.263-2.504-1.814-3.016-1.147-3.316-2.336-1.06-4.209 1.272-1.055 1.592-1.029 1.652.134.04.794.454.497.92-.66 1.12-2.783.497-3.644-2.254-3.114-1.61.31-1.94.11-1.14-.689 1.916-1.917 4.955-.559 6.605 2.952 1.263 2.687 2.049 3.24 3.943 2.778 1.378-.336 2.366-.09 2.366.588 0 .64-.71 1.165-1.577 1.165s-1.577.473-1.577 1.052c0 .578.473 1.051 1.051 1.051.579 0 1.014.828.969 1.84-.053 1.17-.282 1.346-.628.482-.423-1.054-.881-1.08-2.044-.114-1.213 1.007-1.373.915-.837-.482.886-2.308-1.276-2.215-2.633.114-.59 1.012-1.142 1.367-1.228.789zm1.625-5.71c.333-.539.05-1.322-.626-1.74-.734-.454-.95-.307-.537.363.382.618.1 1.364-.626 1.657-.945.381-.965.556-.068.615.688.046 1.524-.357 1.857-.895zm66.811-.106c0-.56.71-1.019 1.578-1.019.867 0 1.577.186 1.577.414 0 .227-.71.685-1.577 1.018-.868.333-1.578.147-1.578-.413zm-23.853-2.859c.289-1.3.053-2.365-.523-2.365-.576 0-1.99-1.065-3.143-2.366-1.566-1.767-1.952-1.904-1.522-.541.492 1.561.285 1.644-1.431.572-1.68-1.05-2.006-2.517-2.006-9.039 0-4.282-.247-8.033-.55-8.336-.302-.303-2.271-.74-4.375-.972-2.104-.231-4.304-.523-4.889-.647s-1.202.602-1.373 1.614c-.17 1.012.1 1.84.602 1.84 1.707 0 2.435 7.435.877 8.959-2.063 2.017-12.489 5.936-12.489 4.695a1.03 1.03 0 0 0-1.018-1.037c-.56 0-.777.63-.482 1.398.297.774-.537 1.914-1.873 2.557-2.244 1.08-2.265 1.172-.307 1.336 1.76.148 1.679.295-.503.902-1.998.557-3.287.076-5.52-2.058-3.027-2.893-4.106-5.381-1.337-3.083 1.838 1.525 2.026.7.495-2.161-.917-1.713-1.401-1.825-3.155-.73-1.14.712-2.109 2.008-2.154 2.881-.057 1.089-.25 1.172-.616.266-.293-.726-.977-1.046-1.52-.71-.543.336-.925.22-.848-.257.27-1.674-1.395-5.598-2.375-5.598-.545 0-.649.554-.23 1.231.418.677-.428.335-1.88-.76-2.208-1.666-2.41-2.225-1.233-3.402.775-.775 1.885-1.114 2.468-.754.583.36 1.06.169 1.06-.425 0-.595.787-.779 1.75-.41 1.089.419 1.49.253 1.062-.439-.377-.61.255-1.356 1.405-1.657 2.84-.743 2.627-3.336-.624-7.598-3.945-5.172-3.118-7.145 3.43-8.187 2.98-.475 5.652-1.47 5.937-2.211.284-.741-.386-3.365-1.49-5.831-3.006-6.713-2.793-7.108 3.835-7.108 7.625 0 8.342-.81 6.856-7.742-.754-3.513-.822-5.907-.186-6.543 1.417-1.417 6.413.047 6.413 1.88 0 .92.623 1.285 1.572.921.864-.332 1.36-.943 1.103-1.36-.257-.415.574-.72 1.846-.678 2.114.072 2.34-.49 2.627-6.493.36-7.542 1.451-8.128 8.469-4.548 4.88 2.49 6.166 1.786 7.07-3.873.39-2.429 1.279-5.198 1.978-6.154 1.179-1.612 1.473-1.605 4.066.093 1.537 1.008 2.527 2.265 2.2 2.794-.327.53-.205.857.272.728.476-.129 1.862.106 3.08.522 1.217.416 3.346.304 4.731-.25 1.385-.554 1.971-1.038 1.303-1.074-.707-.039-.976-.985-.643-2.259.445-1.701.79-1.878 1.547-.788.678.975.783.715.345-.852-.393-1.403.031-2.917 1.121-4.007 1.635-1.634 1.955-1.557 4.794 1.164 1.674 1.603 2.854 3.406 2.624 4.006-.582 1.517 4.651 1.69 6.12.203.658-.668 2.109-2.765 3.223-4.661 2.58-4.393 4.561-3.974 7.647 1.619 2.95 5.349 5.504 5.728 8.776 1.302 1.282-1.735 2.774-3.154 3.314-3.154s.424.672-.258 1.494c-1.012 1.22-.865 1.397.8.961 1.472-.385 1.89-1.168 1.5-2.809-.52-2.185-.464-2.201 1.416-.418 1.695 1.608 1.77 2.158.56 4.096-1.222 1.955-1.186 2.157.283 1.593.925-.355 1.716-.305 1.76.11.042.416.28 1.85.528 3.186.266 1.434.024 2.165-.591 1.785-.612-.378-.77.068-.383 1.076.481 1.253.873 1.374 1.447.445.434-.7 1.274-.974 1.867-.607.594.367 1.238.248 1.432-.263.473-1.248 8.244-6.443 9.638-6.443.608 0 .24.633-.82 1.407-1.544 1.13-1.694 1.806-.758 3.418 1.096 1.888 1.168 1.862 1.198-.444.02-1.51.537-2.268 1.346-1.972.723.265 1.18 1.064 1.015 1.776-.165.711.246 1.95.913 2.754.666.804.985 2.327.709 3.386-.421 1.61.099 1.905 3.175 1.803 2.023-.067 4.323.522 5.11 1.31.788.788 1.433 1.02 1.433.516s-.515-1.43-1.143-2.06c-.823-.823-.823-1.34 0-1.849.628-.389 1.143-.205 1.143.407 0 .613 1.183 1.114 2.628 1.114 2.397 0 2.629.4 2.629 4.52 0 2.487.568 5.09 1.262 5.784.981.981.806 1.265-.789 1.278-1.129.008-1.578.363-.999.788 1.056.776 1.766 4.453.86 4.453-.97 0-3.488-3.037-3.488-4.206 0-.734-.614-.588-1.577.375-1.922 1.922-1.996 2.592-.263 2.4.723-.08 1.55.327 1.84.905.29.58-1.032 1.13-2.953 1.225-1.913.096-4.16.436-4.994.756-.834.32-1.516.095-1.516-.499s-.548-.742-1.217-.328c-.844.521-1.025.014-.589-1.653.626-2.391-.734-4.516-3.214-5.021-1.695-.346-1.627.29.4 3.717 1.156 1.956 1.206 2.28.158 1.03-.841-1.002-1.772-1.58-2.068-1.284-.297.297-3.036-.715-6.089-2.248-3.052-1.533-8.072-3.374-11.155-4.09-5.52-1.284-5.651-1.258-8.528 1.676-1.607 1.64-3.513 2.994-4.236 3.01-.723.016-1.314.53-1.314 1.142 0 .613-.546.776-1.214.364-.705-.436-.93-.292-.537.344 1.011 1.637-1.901 3.575-4.162 2.769-2.932-1.046-5.775-3.75-6.823-6.493-.511-1.336-1.35-2.17-1.863-1.852-.514.318-1.482-.082-2.151-.888-.67-.807-1.787-1.349-2.485-1.205-3.904.805-7.83 1.919-9.68 2.745-1.157.517-2.794 1.072-3.639 1.233-.845.161-2.028.65-2.628 1.085-4.511 3.272-19.04 12.35-19.766 12.35-.497 0-.644.42-.327.933.317.513-.123 1.513-.977 2.222-.855.71-1.299 1.703-.986 2.209.475.77 8.163 1.234 15.443.934 9.637-.398 36.538.472 36.538 1.181 0 1.718-3.223 3.07-5.946 2.496l-2.992-.631 2.629 1.703c2.413 1.563 2.44 1.664.341 1.23-1.589-.328-2.123-.047-1.752.922.616 1.605-5.505 3.104-9.532 2.335-1.599-.306-2.982.186-3.829 1.361-.73 1.012-1.884 1.627-2.565 1.365-.681-.261-1.239.234-1.239 1.101s.395 1.332.877 1.035c.482-.298.876-.058.876.535 0 .592-.946 1.583-2.103 2.202-1.157.618-2.103 1.846-2.103 2.727 0 .881.48 1.305 1.069.942.587-.363.796-1.1.463-1.64-.557-.902.94-1.437 3.015-1.077.477.083.567-.334.2-.926-.366-.593-.283-1.074.185-1.07.852.008 3.48 4.925 3.48 6.51 0 .463-.975.842-2.165.842-1.191 0-1.872-.475-1.513-1.056.4-.648-.793-.952-3.09-.788-2.058.147-3.744.4-3.745.564 0 .163.668 1.9 1.488 3.861 1.256 3.008 1.266 3.866.064 5.487-1.24 1.67-1.726 1.738-3.717.52-1.643-1.004-2.612-1.079-3.428-.263-.816.816-.67 1.138.52 1.138.913 0 2.202.655 2.866 1.455.94 1.132.798 1.61-.64 2.163-1.015.39-2.013.208-2.217-.403-.204-.612-1.159-1.105-2.123-1.096-1.515.014-1.54.154-.175 1.035 1.364.882 1.34 1.022-.175 1.036-.964.008-1.964-.576-2.222-1.298-.258-.723-.885-.924-1.393-.447-.516.484-.06 1.351 1.033 1.963 1.6.895 1.694 1.282.517 2.115-1.055.747-.808.881.926.501 2.819-.618 2.803-.69.691 3.108-1.347 2.423-1.572 2.55-1.15.645zm-37.13-4.53c0-.613.473-.821 1.051-.464 1.557.963 1.275-.083-.397-1.47-1.138-.945-1.568-.747-2.005.922-.305 1.169-.126 2.125.398 2.125s.953-.5.953-1.113zm18.572-9.274c.35-2.293.316-2.288-2.274.302-3.227 3.227-3.318 3.964-.355 2.868 1.25-.463 2.434-1.89 2.629-3.17zm18.797 2.046c-.381-.617-1.375-1.122-2.208-1.122-.833 0-1.515-.394-1.515-.876 0-1.83-2.74-.782-2.882 1.103-.106 1.405.366 1.819 1.629 1.426.978-.304 2.475-.117 3.325.417 1.808 1.134 2.642.655 1.651-.948zm-26.675-1.81c1.058-.957 1.923-2.85 1.923-4.206 0-3.448-3.811-7.024-6.669-6.257-1.247.334-2.547.615-2.888.622-.341.008-1.158 1.196-1.816 2.64-2.899 6.362 4.308 11.854 9.45 7.2zm28.735-1.415c-.358-.578-.149-1.051.463-1.051.613 0 1.114.531 1.114 1.18 0 .868.373.87 1.411.01.776-.645 1.722-.86 2.103-.48.38.38.692-.28.692-1.467 0-1.595-.824-2.28-3.157-2.622-3.48-.511-11.34 2.564-8.131 3.182 1.003.193 1.825.79 1.825 1.325 0 .536.974.974 2.165.974 1.19 0 1.872-.473 1.515-1.051zm4.275-7.472c.501-.811-.356-.951-2.83-.462-1.951.386-3.075.318-2.497-.15 1.394-1.13 1.825-3.481.639-3.481-1.227 0-2.391 3.07-1.631 4.3.831 1.345 5.453 1.194 6.319-.207zm-26.881-3.042c0-.578-.473-1.051-1.052-1.051-.578 0-1.051.473-1.051 1.051s.473 1.051 1.051 1.051c.579 0 1.052-.473 1.052-1.051zm19.977-.701c0-.771-.71-1.402-1.577-1.402s-1.577.63-1.577 1.402c0 .771.71 1.402 1.577 1.402s1.577-.631 1.577-1.402zm-25.805-4.484c1.053-1.704-1.236-2.222-2.593-.586-1.057 1.273-.992 1.565.344 1.565.904 0 1.916-.44 2.249-.979zm-11.667-1.65c-.332-.867-1.012-1.577-1.51-1.577-.499 0-.634.71-.301 1.578.332.867 1.012 1.577 1.51 1.577.499 0 .634-.71.301-1.577zm65.507-3.942c2.514-4.025.618-5.729-3.82-3.434-4.134 2.138-4.047 2.967.231 2.198 2.844-.512 3.02-.443 1.052.408-1.302.563-2.366 1.275-2.366 1.582 0 1.145 4.112.512 4.903-.754zm-8.691-.614c.297-.482-.148-.876-.99-.876s-1.53.394-1.53.876.444.877.989.877c.544 0 1.233-.395 1.53-.877zm-16.277-2.656c-.241-.207-1.858-.695-3.593-1.083-2.303-.515-2.729-.418-1.577.362 1.42.96 6.225 1.631 5.17.721zM90.889 89.404c0-.517-.74-1.223-1.644-1.57-.92-.353-1.312-1.168-.889-1.852.464-.752.296-.938-.438-.484-.88.544-.856 1.274.09 2.79 1.337 2.14 2.88 2.738 2.88 1.116zm2.612-8.365c-.794-.794-2.612 1.107-2.612 2.732 0 1.436.244 1.383 1.491-.323.82-1.121 1.325-2.206 1.121-2.409zm104.635.429c0-1.579-1.888-3.257-2.723-2.421-.734.733.718 3.936 1.784 3.936.516 0 .939-.682.939-1.515zm-51.52-3.088c0-.218-.829-1.046-1.84-1.84-1.668-1.308-1.706-1.27-.398.397 1.374 1.751 2.237 2.308 2.237 1.443zm7.622-4.646c1.012-.875 1.84-2.442 1.84-3.482 0-2.75-2.259-7.274-3.308-6.626-.494.305-.898.037-.898-.596 0-1.52-3.968.496-6.904 3.507-1.743 1.789-1.95 2.654-1.051 4.376 2.882 5.516 6.167 6.415 10.321 2.821zm28.652 1.889c-.357-.579-1.213-1.045-1.902-1.036-.753.01-.623.423.325 1.036 2.02 1.305 2.384 1.305 1.577 0zm6.834-1.084c-2.988-.77-3.639-.551-2.732.915.347.562 1.696.739 2.996.392 2.354-.627 2.353-.634-.264-1.307zm-30.57-.4c.95-1.143.919-1.664-.133-2.271-.751-.434-1.015-.401-.586.072.429.473.252 1.495-.392 2.272-.644.776-.934 1.41-.645 1.41.289 0 1.08-.667 1.757-1.483zm22.755-2.46c-.148-1.011-1.17-1.95-2.273-2.084-1.102-.134-1.412.024-.689.35.723.328 1.314 1.266 1.314 2.085 0 .82.432 1.49.959 1.49.527 0 .837-.828.689-1.84zm9.634 1.205c-.35-.349-1.257-.386-2.016-.083-.839.336-.59.585.635.636 1.109.045 1.73-.203 1.38-.553zm-16.132-4.509c-.382-.35-.907-.044-1.166.683-.26.726-.978 1.008-1.596.626-.68-.42-.816-.196-.342.57.605.98 1.122.982 2.29.013.83-.69 1.197-1.54.814-1.891zm16.453 2.013c-.832-.514-1.89-.702-2.352-.417-.462.285-.84-.238-.84-1.162 0-1.385-.257-1.442-1.467-.325-1.254 1.158-1.24 1.439.092 1.927.858.315 2.577.649 3.82.742 1.724.13 1.902-.051.747-.765zm-6.345-3.4c0-.456-.414-.828-.92-.828s-1.212-1.46-1.57-3.245c-.39-1.954-1.175-3.07-1.97-2.804-1.722.574-1.73 3.501-.009 3.157 1.576-.315 1.757 1.442.246 2.376-.588.364-.815 1.071-.505 1.573.69 1.117 4.728.92 4.728-.23zm-17.108-.412c-.35-.35-1.256-.387-2.016-.083-.838.335-.59.585.636.635 1.108.046 1.73-.203 1.38-.552zm10.799-1.53c0-.544-.394-.99-.876-.99s-.876.69-.876 1.532c0 .842.394 1.287.876.989.482-.298.876-.987.876-1.53zm8.411-.99c0-.578-.473-1.05-1.05-1.05-.58 0-1.052.472-1.052 1.05 0 .579.473 1.052 1.051 1.052s1.051-.473 1.051-1.051zm-34.144-5.053c-.323-.324-1.172-.001-1.885.717-1.03 1.039-.91 1.16.589.589 1.037-.395 1.62-.983 1.296-1.306zm-2.094-5.049c-1.802-1.802-2.3-1.827-2.944-.149-.307.8.457 1.373 1.952 1.464 2.098.127 2.243-.064.992-1.315zm1.54-1.989c0-.867-.457-1.577-1.018-1.577-.56 0-.746.71-.413 1.577.333.868.791 1.577 1.019 1.577.227 0 .413-.71.413-1.577zm89.967 83.7c-.32-.518.047-1.182.814-1.477.768-.295 1.396.129 1.396.941 0 1.656-1.32 1.976-2.21.536zm2.56-3.662c0-.218.829-1.046 1.84-1.84 1.669-1.307 1.706-1.27.398.397-1.374 1.752-2.237 2.309-2.237 1.443zm-116.184-5.911c.358-.578.859-1.052 1.114-1.052.255 0 .464.474.464 1.052 0 .578-.501 1.051-1.114 1.051-.612 0-.821-.473-.464-1.051zm-33.317-7.027c.759-.304 1.666-.266 2.015.083.35.35-.272.598-1.38.552-1.225-.05-1.474-.3-.635-.635zm145.162-1.122c-1.308-1.668-1.27-1.705.397-.397 1.751 1.374 2.308 2.237 1.443 2.237-.218 0-1.046-.828-1.84-1.84zm-109.216-2.428c0-.612.473-.82 1.051-.463.579.357 1.052.858 1.052 1.113s-.473.464-1.052.464c-.578 0-1.051-.501-1.051-1.114zm-1.051-4.256c0-.64-.686-.9-1.524-.58-.976.375-1.33.08-.984-.82.517-1.347 4.927-2.693 8.825-2.693 1.017 0 2.114 1.014 2.438 2.254.443 1.692.29 1.955-.613 1.052-1.574-1.574-3.226-1.554-2.249.027.511.827.187 1.01-.99.559-.962-.37-1.75-.214-1.75.347 0 .56-.709 1.018-1.576 1.018-.868 0-1.577-.524-1.577-1.164zm9.463-3.042c0-.578.5-1.051 1.113-1.051.612 0 .821.473.464 1.051-.358.579-.859 1.052-1.114 1.052-.255 0-.463-.473-.463-1.052zm4.205-2.103c-1.359-.878-1.331-1.021.201-1.035.978-.009 2.07.457 2.428 1.035.822 1.331-.57 1.331-2.629 0zm3.86-1.866c.677-.43 1.548-2.045 1.935-3.588.387-1.543 1.393-3.07 2.236-3.393 1.288-.494 1.273-.217-.095 1.735-.895 1.278-1.627 3.164-1.627 4.192 0 1.085-.772 1.862-1.84 1.853-1.21-.01-1.418-.284-.61-.8zm18.773-2.663c-2.628-2.85-2.945-4.814-.706-4.38.952.186 2.413.373 3.246.417 1.108.06.967.496-.526 1.625-1.122.849-1.54 1.558-.927 1.577.612.018 2.031.728 3.154 1.577 2.014 1.523 2.013 1.543-.062 1.49-1.156-.03-3.037-1.068-4.179-2.306zm-13.17.002c0-.838.71-2.112 1.577-2.832 1.193-.99 1.578-1.003 1.578-.054 0 .69-.71 1.965-1.578 2.833-1.352 1.352-1.577 1.36-1.577.053zm68.915-4.862c-.333-.539-.051-1.322.626-1.74.734-.454.95-.307.536.363-.382.618-.1 1.364.626 1.657.946.38.965.556.069.615-.689.046-1.525-.357-1.857-.895zM106.943 93.82c1.023-.267 2.443-.25 3.155.039.711.288-.126.506-1.86.485-1.735-.022-2.318-.258-1.295-.524zm7.355-.026c1.598-.242 3.964-.235 5.257.014 1.293.25-.014.448-2.906.44-2.891-.008-3.95-.212-2.351-.454zm10.5.03c1.012-.265 2.668-.265 3.68 0 1.012.264.184.48-1.84.48s-2.852-.216-1.84-.48zm7.36 0c1.012-.265 2.668-.265 3.68 0 1.012.264.184.48-1.84.48s-2.852-.216-1.84-.48zm8.411-.029c1.59-.24 4.193-.24 5.783 0 1.59.241.29.438-2.891.438-3.18 0-4.482-.197-2.892-.438zm14.752-.02c2.765-.218 7.023-.215 9.463.005 2.44.22.179.398-5.026.395-5.204-.003-7.201-.183-4.437-.4zm15.76.045c1.023-.267 2.443-.25 3.155.039.711.288-.126.506-1.86.485-1.735-.022-2.318-.258-1.295-.524zm-17.106-9.131c0-.219.828-1.047 1.84-1.84 1.668-1.308 1.705-1.271.397.397-1.373 1.751-2.237 2.308-2.237 1.443zm55.767-4.136c-1.14-1.826-1.057-2.356.562-3.539 1.511-1.105 2.074-1.121 2.737-.077.562.886.84.923.85.112.008-.66.702-1.465 1.54-1.786 1.019-.39 1.33-.08.94.939-.322.838-.062 1.523.578 1.523.64 0 1.172-.828 1.18-1.84.014-1.574.165-1.612 1.047-.262.774 1.183.33 2.148-1.781 3.869-3.991 3.254-6.101 3.546-7.654 1.06zm-1.009-12.904c.05-1.225.3-1.474.636-.635.303.759.266 1.666-.083 2.015-.35.35-.598-.271-.553-1.38zm-7.443-2.954c0-.998 3.148-1.5 3.709-.592.341.553-.353 1.005-1.544 1.005-1.19 0-2.165-.186-2.165-.413z" style="fill:#ed9542;stroke-width:1.05144" transform="matrix(1.50105 0 0 1.50105 -75.262 -67.638)"/><path d="M135.05 241.422c0-.181 1.537-1.72 3.417-3.418l3.417-3.088-3.088 3.417c-2.88 3.186-3.747 3.9-3.747 3.089zm-48.334-35.776c.062-2.253 2.806-4.902 5.077-4.902 1.238 0 2.25.44 2.25.977 0 .537.744 1.72 1.652 2.628 1.502 1.502 1.335 1.66-1.84 1.733-1.92.044-4.32.239-5.332.433-1.012.193-1.825-.198-1.807-.87zm134.552-2.981c0-.478 1.42-.87 3.154-.87 1.735 0 3.154.184 3.154.407 0 .224-1.42.615-3.154.87-1.735.254-3.154.071-3.154-.407zm-152.46-6.039c0-.53.446-1.121.99-1.314.544-.193 1.221-1.644 1.504-3.225.284-1.58.786-3.312 1.117-3.848 1.488-2.408-.845-4.215-6.327-4.9-4.8-.6-5.695-1.049-5.695-2.857 0-1.18 1.257-3.794 2.794-5.808 3.399-4.457 2.613-6.3-3.567-8.36-2.367-.788-4.56-2.101-4.873-2.917-.327-.854 1.221-3.292 3.644-5.74 2.317-2.34 3.912-4.74 3.545-5.335-.368-.594-2.521-2.25-4.786-3.68-2.495-1.575-4.117-3.408-4.117-4.652 0-2.466 3.31-4.463 5.97-3.6 1.437.465 1.56.366.49-.399-1.651-1.179-.636-2.014 3.322-2.731 3.276-.595 3.942.131 2.777 3.026-.465 1.157-.879 1.454-.92.66-.059-1.163-.38-1.189-1.65-.134-2.267 1.88-1.955 3.063 1.114 4.23 1.48.563 2.42 1.465 2.086 2.004-.333.54-.175 1.247.352 1.573.527.326 1.23-.115 1.562-.979.331-.864 1.141-1.57 1.8-1.57.677 0 .91.748.534 1.725-.536 1.397-.376 1.489.837.482 1.163-.965 1.62-.94 2.044.114.346.864.575.688.628-.482.045-1.012-.39-1.84-.969-1.84a1.055 1.055 0 0 1-1.051-1.051c0-.579.71-1.052 1.577-1.052s1.577-.524 1.577-1.165c0-.679-.988-.924-2.366-.588-1.894.462-2.68-.091-3.943-2.778-.906-1.927-2.512-3.488-3.774-3.668-2.151-.308-12.278-9.675-10.459-9.675.509 0 1.871.828 3.028 1.84s1.758 1.248 1.335.526c-.422-.723-.267-1.315.345-1.315.613 0 1.114.517 1.114 1.149 0 .631.946 2.351 2.103 3.822 1.22 1.552 2.103 2.058 2.103 1.207 0-.806.932-2.048 2.071-2.76 1.754-1.095 2.238-.983 3.155.73 1.531 2.862 1.343 3.686-.495 2.16-2.765-2.294-1.691.19 1.314 3.041 1.626 1.542 3.835 2.608 5.046 2.435 2.003-.287 2.234.509 3.307 11.368.635 6.423 1.33 11.853 1.545 12.068.214.214 5.35.55 11.412.744l11.022.353-.318-14.478c-.175-7.963.085-14.479.578-14.479.493 0 1.493.592 2.221 1.315 1.062 1.054 1.19.898.648-.789-.617-1.92-.494-1.898 1.42.263 1.154 1.301 2.568 2.366 3.144 2.366.576 0 .812 1.064.523 2.365-.422 1.904-.197 1.778 1.15-.645 2.112-3.798 2.128-3.726-.691-3.108-1.734.38-1.981.246-.926-.501 1.177-.833 1.083-1.22-.517-2.115-1.092-.612-1.549-1.479-1.033-1.963.508-.477 1.135-.276 1.393.447.258.722 1.258 1.307 2.222 1.298 1.515-.014 1.54-.154.175-1.036-1.364-.881-1.34-1.02.175-1.035.964-.008 1.92.484 2.123 1.096.204.611 1.202.792 2.218.403 1.437-.552 1.58-1.031.64-2.163-.665-.8-1.954-1.455-2.866-1.455-1.19 0-1.337-.322-.521-1.138.816-.816 1.785-.741 3.428.263 1.991 1.218 2.478 1.15 3.717-.52 1.202-1.621 1.192-2.48-.064-5.487-.82-1.96-1.489-3.698-1.488-3.861.001-.164 1.687-.417 3.745-.564 2.297-.164 3.49.14 3.09.788-.359.581.322 1.056 1.513 1.056 1.19 0 2.165-.379 2.165-.842 0-1.585-2.628-6.502-3.48-6.51-.467-.005-.55.477-.184 1.07.366.592.276 1.01-.201.926-2.075-.36-3.572.175-3.015 1.078.333.538.124 1.276-.463 1.639-.588.363-1.069-.06-1.069-.942 0-.881.946-2.109 2.103-2.727 1.157-.62 2.103-1.61 2.103-2.202 0-.593-.394-.833-.876-.535-.482.297-.877-.168-.877-1.035 0-.867.558-1.362 1.24-1.1.68.26 1.835-.354 2.564-1.366.848-1.175 2.23-1.667 3.829-1.361 4.027.77 10.148-.73 9.532-2.335-.371-.969.163-1.25 1.752-.922 2.1.434 2.072.333-.341-1.23l-2.629-1.703 2.992.63c2.742.579 5.946-.78 5.946-2.521 0-.386-5.323-.683-11.83-.66-6.505.023-13.484-.275-15.508-.664-2.024-.388 9.805-.624 26.286-.525 29.272.176 30.084.238 35.06 2.687 6.384 3.143 10.601 6.955 9.56 8.641-.468.756-.342.995.31.592.603-.373 1.702.054 2.444.948 1.105 1.332 1.09 1.567-.081 1.303-.787-.178-1.602.624-1.812 1.78-.245 1.352-.07 1.653.491.844 1.378-1.987 3.056-.096 2.985 3.362-.059 2.872-.417 3.184-4.008 3.48-2.168.18-3.943.772-3.943 1.315 0 .543-.931.988-2.07.988-1.473 0-1.882.49-1.418 1.699.519 1.35.189 1.551-1.615.978-1.569-.497-2.461-.214-2.897.922-.43 1.123-1.14 1.355-2.247.735-.89-.497-2.503-.673-3.586-.39-1.485.389-1.808.093-1.311-1.2.493-1.286.219-1.548-1.096-1.043-1.027.394-1.503 1.33-1.147 2.257.53 1.384.305 1.377-1.78-.05-1.313-.9-2.253-2.196-2.088-2.88.654-2.724-1.017-5.429-3.03-4.903-1.1.288-2 .016-2-.604s-.3-.83-.665-.465c-.365.366-1.605.16-2.755-.455-1.15-.616-1.843-.717-1.54-.226.581.94-1.056 1.075-15.544 1.288l-8.937.131v6.712c0 7.583.441 7.956 9.463 8.006 7.882.043 12.526 1.119 11.898 2.756-.306.799-.005 1.452.669 1.452s.948-.45.609-.998c-.804-1.3 2.465-2.866 5.487-2.629 1.301.102 2.366-.313 2.366-.923 0-.61.748-.19 1.663.932 1.352 1.66 1.559 1.707 1.105.255-.394-1.26-.102-1.612.992-1.192 1.193.458 1.272.93.344 2.05-1.282 1.543-4.606 2.065-3.687.578.298-.482-.229-.877-1.17-.877-1.099 0-.251 1.227 2.36 3.42 3.398 2.853 4.062 4.052 3.998 7.22-.054 2.69.498 4.109 1.89 4.854 1.082.58 2.005 1.864 2.05 2.856.051 1.097.292 1.288.614.489.292-.723.914-1.315 1.382-1.315 1.5 0 2.204 3.373 1.004 4.82-1.586 1.91-.145 3.894 2.354 3.24 1.669-.436 1.816-.26.804.96-.96 1.158-.941 1.495.087 1.495.73 0 1.972-.828 2.76-1.84 1.33-1.71 1.388-1.711.802-.027-.962 2.765 4.988 7.456 6.261 4.936.284-.56.42-.498.305.138-.116.636-.672 1.155-1.236 1.152-3.346-.012-6.249 6.44-3.39 7.536.88.338.533 1.08-1.052 2.25-1.424 1.051-2.372 2.873-2.382 4.578-.012 2.073-.268 2.434-.956 1.347-.794-1.255-1.21-1.215-2.687.262-.962.962-2.373 1.748-3.138 1.748-1.33 0-3.168-2.86-2.845-4.43.085-.414-.553-.48-1.416-.149-1.075.413-2.024-.512-3.007-2.93-1.382-3.395-4.216-16.566-4.267-19.828-.014-.868-2.077-2.642-4.586-3.943-3.833-1.989-6.226-2.366-15.004-2.366h-10.444v13.669l8.149.124c4.481.069 8.518.064 8.97-.01.452-.075.756 4.84.676 10.924l-.146 11.06-10.664-.459c-11.751-.506-16.222-1.217-18.255-2.904-.83-.69-1.347-.72-1.347-.081 0 .57-1.893 1.036-4.206 1.036-2.313 0-4.206-.353-4.206-.785 0-1.3-5.153-1.868-5.575-.615-.266.789-.953.698-2.142-.284-1.118-.923-2.93-1.21-5.014-.792-2.622.524-3.144.343-2.659-.92.332-.866.264-1.559-.152-1.54-2.396.105-8.63 8.09-7.908 10.128.239.674-.538 1.534-1.727 1.911-2.633.836-2.874 3.671-.32 3.769 1.012.039-.29.741-2.892 1.561-5.302 1.67-15.771 2.042-15.771.56zm14.913-5.573c-.754-.754-1.244-.816-1.244-.157 0 1.403 1.244 2.647 1.945 1.945.3-.299-.016-1.103-.7-1.788zm1.91-3.101c0-.482-.445-.877-.989-.877s-1.233.395-1.53.877c-.299.482.147.876.989.876s1.53-.394 1.53-.876zm34.495-8.79c-.324-.324-.912.26-1.306 1.297-.571 1.498-.45 1.619.588.588.719-.713 1.042-1.561.718-1.885zm-7.157.553c0-.578-.445-1.051-.99-1.051-.543 0-1.281.473-1.639 1.051-.357.579.088 1.052.99 1.052.901 0 1.64-.473 1.64-1.052zm37.852-8.999c0-.901-.473-1.347-1.051-.99-.579.358-1.052 1.096-1.052 1.64 0 .544.473.99 1.052.99.578 0 1.051-.738 1.051-1.64zm23.132-10.978c0-.578-.501-1.051-1.114-1.051-.612 0-.82.473-.463 1.051.357.578.858 1.051 1.113 1.051s.464-.473.464-1.051zm-96.733-4.206c0-.578-.209-1.051-.464-1.051s-.756.473-1.113 1.051c-.358.579-.149 1.052.464 1.052.612 0 1.113-.473 1.113-1.052zm-2.436-4.403c-.336-.838-.585-.59-.635.636-.046 1.108.203 1.729.552 1.38.35-.35.387-1.257.083-2.016zm-12.178-3.086c-2.104-2.258-2.643-3.536-2.308-5.47.083-.476-.342-.561-.944-.19a1.289 1.289 0 0 0-.42 1.769c.436.705-.208.837-1.823.371-2.092-.603-1.985-.393.657 1.294 1.735 1.108 3.813 2.812 4.619 3.787.805.975 1.68 1.557 1.946 1.292.264-.265-.513-1.549-1.727-2.853zm51.415 1.18c0-.578-.502-1.05-1.114-1.05-.612 0-.821.472-.464 1.05.358.579.859 1.052 1.114 1.052.255 0 .464-.473.464-1.051zm55.138-2.996c-.897-1.02-2.386 1.192-1.81 2.69.583 1.52.752 1.485 1.398-.296.405-1.114.59-2.192.412-2.394zm-30.955-3.95c0-.228-.71-.414-1.577-.414-.868 0-1.578.459-1.578 1.019 0 .56.71.746 1.578.413.867-.333 1.577-.791 1.577-1.018zm-7.36-16.185c0-.578-.21-1.052-.464-1.052-.255 0-.756.474-1.114 1.052-.357.578-.148 1.051.464 1.051.613 0 1.114-.473 1.114-1.051zm50.469-3.33c0-.55-.44-.728-.979-.395-.538.333-1.276.124-1.64-.464-.362-.588-1.424-1.068-2.359-1.068-1.447 0-1.4.288.325 1.95 2.001 1.93 4.653 1.917 4.653-.022zm3.285-4.31c-1.039-1.031-1.16-.91-.589.588.395 1.037.983 1.62 1.307 1.297.323-.324 0-1.172-.718-1.886zm7.23-1.297c0-.868-.395-1.578-.877-1.578s-.876.71-.876 1.578c0 .867.394 1.577.876 1.577s.876-.71.876-1.577zm-57.83-.99c0-.255-.473-.756-1.052-1.113-.578-.358-1.051-.15-1.051.463s.473 1.114 1.051 1.114c.579 0 1.052-.209 1.052-.464zm0-4.76c0-.56.787-.717 1.75-.347 1.176.451 1.5.268.989-.56-.977-1.58.675-1.6 2.249-.026.903.903 1.056.64.613-1.052-.324-1.24-1.421-2.254-2.438-2.254-3.898 0-8.308 1.346-8.825 2.693-.346.9.008 1.195.984.82.838-.32 1.524-.06 1.524.58 0 .64.71 1.164 1.577 1.164s1.577-.458 1.577-1.018zm7.886-3.188c.357-.578.148-1.051-.464-1.051s-1.113.473-1.113 1.051c0 .579.208 1.052.463 1.052s.756-.473 1.114-1.052zm5.257-2.103c-.357-.578-1.45-1.044-2.428-1.035-1.532.014-1.56.157-.2 1.035 2.058 1.331 3.45 1.331 2.628 0zm3.68-2.92c0-1.028.732-2.914 1.627-4.192 1.368-1.952 1.383-2.23.095-1.735-.843.323-1.85 1.85-2.236 3.393-.387 1.543-1.258 3.157-1.935 3.588-.81.515-.601.788.609.799 1.068.009 1.84-.768 1.84-1.853zm20.565-.793c-1.123-.85-2.542-1.559-3.154-1.577-.613-.019-.195-.728.927-1.577 1.493-1.13 1.634-1.566.526-1.625-.833-.044-2.294-.231-3.246-.416-.952-.185-1.65.218-1.55.896.32 2.181 4.268 5.733 6.435 5.788 2.075.054 2.076.034.062-1.49zm-14.256-3.7c0-.95-.385-.936-1.578.053-.867.72-1.577 1.995-1.577 2.833 0 1.306.225 1.299 1.577-.054.868-.867 1.578-2.142 1.578-2.832zm-69.396 93.632c.868-.56 2.05-1.02 2.629-1.02.578 0 .342.46-.526 1.02-.867.56-2.05 1.019-2.628 1.019-.579 0-.342-.459.525-1.02zm98.556-13.8c.713-.718 1.561-1.041 1.885-.717.324.323-.26.911-1.297 1.306-1.498.57-1.619.45-.588-.589zm58.569-22.212-3.088-3.417 3.417 3.088c1.88 1.698 3.417 3.236 3.417 3.417 0 .812-.867.097-3.746-3.088zm-55.66-2.892c-.358-.578-.15-1.051.463-1.051s1.114.473 1.114 1.051c0 .579-.209 1.052-.464 1.052s-.756-.473-1.113-1.052zm-9.463-2.103c.357-.578 1.123-1.051 1.7-1.051.58 0 .76.473.403 1.051-.358.579-1.123 1.052-1.702 1.052-.578 0-.759-.473-.401-1.052zm-129.687-7.36c0-1.445.238-2.037.53-1.314.292.723.292 1.906 0 2.629-.292.723-.53.131-.53-1.315zm16.4-.698c.727-.293 1.008-1.039.626-1.657-.414-.67-.197-.817.537-.363 1.447.895.578 2.755-1.231 2.635-.897-.06-.877-.234.068-.615zm114.864-1.93c-.755-.91-.857-1.577-.241-1.577.587 0 1.34.71 1.673 1.577.332.867.44 1.577.24 1.577s-.952-.71-1.672-1.577zm52.588-.201c.01-.468.475-1.56 1.035-2.428.879-1.36 1.022-1.331 1.036.2.008.979-.457 2.071-1.036 2.429-.578.357-1.044.267-1.035-.201zm-156.9-4.782c1.336-.643 2.17-1.783 1.873-2.557-.295-.769-.078-1.398.482-1.398 1.423 0 1.272 2.48-.243 3.996-.694.694-1.996 1.23-2.892 1.19-1.059-.046-.786-.477.78-1.231zm-4.286-1.874c.437-1.67.867-1.867 2.005-.922 1.672 1.387 1.954 2.433.397 1.47-.578-.357-1.051-.149-1.051.464 0 .612-.43 1.113-.953 1.113-.524 0-.703-.956-.398-2.125zm-17.71-2.87c-1.307-1.667-1.27-1.704.398-.396 1.012.794 1.84 1.622 1.84 1.84 0 .865-.864.308-2.237-1.443zm32.73-1.92c0-.298 1.183-1.724 2.629-3.17 2.59-2.59 2.624-2.595 2.274-.302-.294 1.926-4.904 5.189-4.904 3.471zm22.05-.478c-.851-.534-2.348-.721-3.326-.417-1.263.393-1.735-.02-1.63-1.426.143-1.885 2.883-2.934 2.883-1.103 0 .482.682.876 1.515.876 1.499 0 3.272 1.872 2.503 2.642-.22.219-1.095-.038-1.946-.572zm77.574.388c.722-.291 1.314-1.228 1.314-2.082 0-.853.496-1.245 1.102-.87 1.329.821-.721 3.693-2.545 3.566-.745-.053-.697-.28.129-.614zm22.08-.956c-2.995-1.625-3.316-2.666-1.922-6.233.796-2.036.846-2.028 1.574.263.414 1.3 1.336 2.365 2.049 2.365 1.958 0 3.726 2.173 3.099 3.809-.686 1.787-1.167 1.767-4.8-.204zm-108.036-.388c0-.544.468-1.279 1.04-1.632.596-.368.772.054.413.99-.7 1.82-1.453 2.154-1.453.642zm129.923-.175c.49-.792-.08-.938-1.778-.457-1.926.546-2.136.455-.92-.397.867-.607 1.104-1.118.525-1.136-.578-.018-.354-.473.498-1.012 1.022-.646 1.822-.551 2.35.279.542.852.806.664.816-.581.011-1.248-.799-1.84-2.514-1.84-1.903 0-2.41-.462-2.043-1.862.314-1.2-.617-2.677-2.622-4.159-3.603-2.664-9.324-4.451-8.145-2.544.47.76-.077 1.204-1.483 1.204-1.224 0-1.96.432-1.634.96.65 1.05-2.104.91-3.176-.163-.367-.366.085-2.172 1.004-4.013.918-1.841 1.433-3.73 1.144-4.199-.29-.468.028-1.193.705-1.612.82-.507.947-.302.38.616-.575.93-.44 1.123.415.594.92-.569.953-1.157.118-2.163-.84-1.013-.784-1.546.212-2 .747-.34.294-.353-1.008-.03-1.4.347-2.365.103-2.365-.598 0-.652-.592-.844-1.315-.428-.75.432-.944.352-.451-.188.474-.519 1.534-.95 2.354-.957.82-.007 1.496-.486 1.503-1.065.006-.578-1.39-1.051-3.103-1.051-2.304 0-4.54-1.367-8.601-5.257-7.816-7.488-7.868-7.53-12.443-10.101-2.28-1.282-3.882-2.755-3.561-3.275.321-.52 1.298-.088 2.171.958 1.228 1.473 1.205 1.257-.1-.951-2.027-3.427-2.095-4.063-.4-3.717 2.48.505 3.84 2.63 3.214 5.021-.435 1.667-.255 2.174.589 1.653.669-.414 1.217-.266 1.217.328 0 .594.682.819 1.516.499.834-.32 3.081-.66 4.994-.756 1.92-.096 3.243-.645 2.953-1.225-.29-.578-1.117-.986-1.84-.905-1.733.192-1.66-.478.263-2.4.963-.963 1.577-1.11 1.577-.375 0 1.17 2.518 4.206 3.488 4.206.906 0 .196-3.677-.86-4.453-.584-.43-.176-.78.918-.788 1.716-.014 1.784-.244.525-1.796-1.245-1.535-1.227-1.647.134-.814.868.53 2.524.82 3.68.643 2.034-.31 2.038-.272.139 1.155-1.69 1.268-1.774 1.782-.602 3.66 1.487 2.38 2.958 2.185 7.56-1.004 2.395-1.659 2.892-1.73 2.892-.417 0 .873-.377 1.82-.838 2.105-.718.444-.856 3.419-.349 7.543.075.61 1.663.925 3.553.705 2.585-.302 4.002.223 5.817 2.155 2.124 2.26 2.255 2.906 1.14 5.604-1.52 3.678-1.663 4.167-1.831 6.267-.077.956-.637 1.327-1.346.889-.715-.443-.93-.29-.521.37.756 1.224 2.572 1.185 4.627-.099.723-.451 1.314-.385 1.314.147s1.151.748 2.558.479c1.407-.27 3.618.253 4.913 1.16 2.061 1.444 2.137 1.734.603 2.322-.964.37-1.445 1.171-1.07 1.78.428.69-.106.9-1.418.557-2.088-.546-5.466 2.853-3.538 3.56.506.187 1.08 1.995 1.276 4.019.196 2.024.83 4.027 1.408 4.452.593.436.25.78-.789.789-1.761.015-2.29 1.105-1.919 3.959.094.723-.587 1.314-1.514 1.314-.965 0-1.378-.498-.966-1.164zm1.025-8.229c-.381-.617-1.157-1.121-1.724-1.121s-.42.662.325 1.47c1.51 1.639 2.478 1.397 1.4-.349zm-7.673-22.849c-.726-.293-1.008-1.038-.626-1.656.414-.67.198-.817-.536-.364-1.448.895-.578 2.756 1.23 2.636.897-.06.878-.235-.068-.616zM240.82 126.5c-.531-1.385-.941-1.454-2.239-.377-1.329 1.103-1.477 1.027-.903-.468.39-1.016 1.343-1.533 2.213-1.2.84.323 1.962.586 2.493.586.53 0 .965.71.965 1.578 0 2.097-1.709 2.017-2.529-.119zm-58.455-.407c0-.578.501-1.052 1.114-1.052.612 0 .82.474.463 1.052-.357.578-.858 1.051-1.113 1.051s-.464-.473-.464-1.051zm-72.55-.975c0-.535-.82-1.132-1.824-1.325-3.208-.618 4.65-3.693 8.131-3.182 2.333.342 3.157 1.027 3.157 2.622 0 1.187-.312 1.848-.692 1.467-.38-.38-1.327-.165-2.103.48-1.038.86-1.411.858-1.411-.01 0-.649-.501-1.18-1.114-1.18-.612 0-.82.473-.463 1.051.357.579-.325 1.052-1.515 1.052-1.191 0-2.165-.439-2.165-.974zm-55.2-1.128c.357-.578.858-1.052 1.113-1.052s.464.474.464 1.052c0 .578-.5 1.051-1.113 1.051s-.821-.473-.464-1.051zm3.154-1.052c-.357-.578-.148-1.051.464-1.051s1.113.473 1.113 1.051c0 .579-.208 1.052-.463 1.052s-.756-.473-1.114-1.052zm137.583.253c.383-.619.1-1.364-.626-1.657-.797-.321-.59-.565.52-.615 2.08-.094 2.46 1.512.626 2.646-.718.443-.93.29-.52-.374zm-134.954-1.366c0-.612.473-.821 1.051-.464.579.358 1.052.859 1.052 1.114 0 .255-.473.463-1.052.463-.578 0-1.051-.5-1.051-1.113zm2.103-1.403c0-.227.734-.695 1.632-1.039.935-.36 1.357-.183.989.413-.618 1-2.621 1.478-2.621.626zm38.986-1.251c.05-1.225.3-1.474.635-.635.304.759.267 1.665-.083 2.015-.349.35-.597-.272-.552-1.38zm9.965-1.395c-.76-1.23.404-4.3 1.63-4.3 1.187 0 .756 2.35-.638 3.48-.578.47.546.537 2.498.15 2.473-.488 3.33-.348 2.829.463-.866 1.4-5.488 1.552-6.32.207zm-20.124-1.005c.524-.847 5.87-.385 5.87.507 0 .222-1.447.403-3.216.403-1.769 0-2.963-.41-2.654-.91zm-11.15-.86c.76-.303 1.666-.266 2.015.084.35.349-.271.597-1.38.552-1.224-.05-1.474-.3-.635-.635zm8.609-1.384c0-.578.473-1.051 1.051-1.051.579 0 1.052.473 1.052 1.051s-.473 1.051-1.052 1.051a1.055 1.055 0 0 1-1.051-1.051zm18.926-.701c0-.771.71-1.402 1.577-1.402s1.577.63 1.577 1.402c0 .771-.71 1.402-1.577 1.402s-1.577-.631-1.577-1.402zm-25.244-5.07c.714-.861 1.726-1.302 2.248-.98 1.343.83.06 2.545-1.904 2.545-1.336 0-1.4-.292-.344-1.565zm-23.123-1.001c0-.834.43-1.78.954-2.105.524-.324.706.358.403 1.515-.642 2.455-1.357 2.766-1.357.59zm12.238-.062c-.333-.868-.198-1.578.3-1.578.499 0 1.179.71 1.511 1.578.333.867.198 1.577-.3 1.577-.499 0-1.179-.71-1.511-1.577zm62.415-3.189c0-.307 1.064-1.02 2.366-1.582 1.968-.85 1.792-.92-1.052-.408-4.278.769-4.365-.06-.232-2.197 4.439-2.296 6.335-.592 3.82 3.433-.79 1.266-4.902 1.899-4.902.754zm59.798-1.28c-1.308-1.668-1.27-1.705.397-.397 1.751 1.374 2.308 2.237 1.443 2.237-.218 0-1.046-.828-1.84-1.84zm-66.107-.088c0-.482.69-.876 1.531-.876.842 0 1.287.394.99.876-.298.482-.987.877-1.531.877-.545 0-.99-.395-.99-.877zm-18.926-3.377c-1.152-.78-.726-.877 1.577-.362 3.867.865 4.706 1.467 2.016 1.445-1.109-.009-2.725-.496-3.593-1.083zm1.577-3.179c-2.894-.67-2.785-.74 1.315-.855 4.457-.124 5.645.307 3.154 1.144-.723.243-2.734.113-4.469-.289zm89.307-2.293-3.088-3.417 3.417 3.088c1.88 1.698 3.417 3.236 3.417 3.417 0 .812-.867.097-3.746-3.088zM97.859 95.82c-.283-.458 1.227-.66 3.355-.45 5.819.575 6.512 1.105 1.566 1.198-2.424.046-4.638-.29-4.921-.748zm1.529-4.809c.24-.21 1.62-.998 3.067-1.75 2.404-1.249 2.505-1.216 1.185.384-.793.962-2.174 1.75-3.067 1.75-.893 0-1.426-.173-1.185-.384zm-27.95-1.72c-1.879-.807-1.8-.911.726-.977 1.556-.04 3.121.399 3.479.977.776 1.256-1.285 1.256-4.206 0zm16.57-1.002c-.946-1.517-.97-2.247-.09-2.791.734-.454.902-.268.438.484-.423.684-.031 1.499.889 1.852.904.347 1.644 1.053 1.644 1.57 0 1.622-1.544 1.024-2.88-1.115zm2.88-4.518c0-.943.505-2.028 1.122-2.409 1.803-1.114 1.98-.116.37 2.086-1.247 1.706-1.491 1.759-1.491.323zm52.682-3.454c-3.132-3.567-4.408-6.577-2.212-5.22.578.357 1.051 1.249 1.051 1.982 0 1.494 3.896 5.33 6.31 6.213 1.305.477 1.279.59-.155.66-.952.045-3.2-1.59-4.994-3.635zm9.114 2.569c.7-.92.922-2.061.494-2.534-.43-.474-.229-.545.445-.16.673.386 1.436.106 1.696-.62s.77-1.047 1.137-.712c.366.335-.62 1.755-2.19 3.155-1.57 1.4-2.283 1.792-1.582.87zm42.911-1.631c-.365-.95-.447-1.944-.182-2.208.835-.836 2.723.842 2.723 2.42 0 2.063-1.723 1.919-2.54-.212zm-36.362-1.952c1.358-1.446 2.706-2.629 2.995-2.629.289 0-.586 1.183-1.944 2.629-1.358 1.445-2.706 2.628-2.995 2.628-.29 0 .585-1.183 1.944-2.628zm-14.855-2.366c-1.308-1.668-1.27-1.705.397-.397 1.752 1.373 2.309 2.237 1.443 2.237-.218 0-1.046-.828-1.84-1.84zm68.748-.263c.542-1.989 4.987-2.33 4.987-.382 0 1.797-1.746 1.881-2.46.12-.403-.993-.83-.929-1.745.262-1.077 1.402-1.164 1.402-.782 0zm-86.732-1.229c.611-.61 1.732-.904 2.49-.65.788.262.311.738-1.11 1.11-1.75.458-2.16.32-1.38-.46zm54.919.178c-.948-.613-1.078-1.026-.325-1.036.689-.009 1.545.457 1.902 1.036.807 1.305.443 1.305-1.577 0zm5.679-.17c-.907-1.465-.256-1.683 2.732-.914 2.617.673 2.618.68.264 1.307-1.3.347-2.649.17-2.996-.392zm-28.949-1.241c.644-.777.82-1.799.392-2.272-.429-.473-.165-.506.586-.072 1.052.607 1.082 1.128.134 2.271-.677.816-1.468 1.484-1.757 1.484-.29 0 0-.635.645-1.411zm13.61.692c.759-.303 1.666-.266 2.015.083.35.35-.272.598-1.38.553-1.225-.05-1.474-.3-.635-.636zm-39.758-.746c0-.227.734-.695 1.632-1.04.935-.359 1.358-.182.99.414-.618.999-2.622 1.477-2.622.626zm48.366-2.128c0-.82-.591-1.757-1.314-2.084-.723-.327-.413-.485.69-.35 1.969.24 3.455 3.924 1.583 3.924-.527 0-.959-.67-.959-1.49zm9.266.771c.76-.303 1.666-.266 2.016.083.349.35-.272.598-1.38.553-1.225-.05-1.475-.3-.636-.636zm-17.22-2.547c-.474-.766-.339-.99.342-.57.618.382 1.336.1 1.596-.626.26-.727.784-1.034 1.166-.683.383.352.016 1.203-.814 1.892-1.168.97-1.685.966-2.29-.013zm14.99.157c-1.332-.488-1.346-.77-.092-1.927 1.21-1.117 1.468-1.06 1.468.325 0 .924.377 1.447.839 1.162.461-.285 1.52-.097 2.352.417 1.155.714.977.895-.747.765-1.243-.093-2.962-.427-3.82-.742zm18.199-1.623c0-2.103-.526-2.628-2.629-2.628-1.635 0-2.628-.596-2.628-1.578 0-.867.828-1.57 1.84-1.56 1.572.013 1.61.164.263 1.035-1.23.794-.94 1.022 1.314 1.035 2.508.014 2.891.434 2.891 3.17 0 1.735-.236 3.155-.525 3.155-.29 0-.526-1.183-.526-2.629zm-62.56.526c-.358-.578-.15-1.052.463-1.052.612 0 1.113.474 1.113 1.052 0 .578-.208 1.051-.463 1.051s-.756-.473-1.114-1.051zm56.017-1.23c-.25-.75-1.718-1.257-3.264-1.13-3.742.31-3.549-.331.53-1.753 1.836-.64 3.023-.848 2.637-.462-.386.386-.165 1.348.49 2.138.656.79.938 1.691.626 2.002-.31.312-.77-.046-1.02-.795zm-18.162-.867c-.31-.502-.083-1.21.505-1.573 1.511-.934 1.33-2.691-.246-2.376-1.72.344-1.713-2.583.008-3.157.796-.265 1.58.85 1.971 2.804.357 1.784 1.063 3.245 1.57 3.245.505 0 .92.372.92.827 0 1.15-4.038 1.347-4.729.23zm-14.396-.724c.76-.304 1.666-.267 2.016.083.35.35-.272.598-1.38.552-1.225-.05-1.474-.3-.636-.635zm11.063-.905c0-.842.394-1.531.876-1.531s.876.445.876.99c0 .543-.394 1.232-.876 1.53-.482.298-.876-.147-.876-.99zm-24.052-.55c-.38-.617-.467-1.347-.192-1.622.276-.276.782.229 1.124 1.121.711 1.853.105 2.179-.932.501zm32.113-.981c0-.579.473-1.052 1.051-1.052s1.051.473 1.051 1.052c0 .578-.473 1.051-1.051 1.051a1.055 1.055 0 0 1-1.051-1.051zm-36.8-.414c0-.227.709-.685 1.576-1.018.868-.333 1.577-.147 1.577.413 0 .56-.71 1.019-1.577 1.019s-1.577-.186-1.577-.414zm23.815-2.181c-.428-1.114-.246-1.464.516-.994.714.442.967.154.645-.734-.292-.803-1.181-1.308-1.977-1.122-1.158.27-1.184.072-.131-1 1.833-1.864 1.64-3.077-.367-2.307-1.47.564-1.505.363-.281-1.597l1.4-2.242.83 2.242c.456 1.233.585 2.486.287 2.784-.298.298.402 1.202 1.555 2.01 2.16 1.513 3.015 4.144.927 2.853-.643-.397-1.523-.149-1.957.552-.574.93-.966.808-1.447-.445zm16.84-.21c-.386-.385-.701-1.189-.701-1.787 0-.658.49-.596 1.244.158.684.684 1 1.489.701 1.788-.299.298-.859.227-1.244-.158zm-37.782-1.532c.713-.718 1.562-1.041 1.885-.717.324.323-.26.911-1.296 1.306-1.499.57-1.62.45-.589-.589zm33.936.657c-1.383-5.242-.089-8.03 2.665-5.745 1.96 1.627 1.985 3.224.038 2.477-.968-.371-1.658.288-1.96 1.873-.256 1.345-.59 1.973-.743 1.395zm-60.185-1.755c.61-.61 1.731-.904 2.49-.65.787.262.31.738-1.11 1.11-1.75.457-2.16.32-1.38-.46zm-6.472-1.066c.304-.492.992-.621 1.53-.289 1.376.85 1.222 1.182-.551 1.182-.842 0-1.283-.402-.98-.893zm37.186-3.225c-1.034-2.135-1.001-2.186.342-.526.818 1.012 2.108 1.84 2.867 1.84.758 0 2.362-.828 3.564-1.84 2.183-1.838 2.183-1.838.182.526-1.101 1.301-2.859 2.366-3.905 2.366-1.047 0-2.42-1.065-3.05-2.366zm-27.774-.48c-.571-1.499-.45-1.62.588-.59.719.714 1.042 1.563.718 1.886-.324.324-.912-.26-1.306-1.297zm20.156-.046c.644-1.678 1.142-1.653 2.944.15 1.25 1.25 1.106 1.441-.992 1.314-1.495-.091-2.259-.664-1.952-1.464zm-3.927-.2c0-.545.468-1.28 1.04-1.632.596-.369.772.053.413.989-.699 1.821-1.453 2.155-1.453.642zm6.98-1.64c-.333-.867-.147-1.577.413-1.577.56 0 1.019.71 1.019 1.577 0 .868-.186 1.577-.413 1.577-.228 0-.686-.71-1.019-1.577zm14.82.165c.426-.669.781-1.532.79-1.917.042-1.815 1.386-1.784 1.864.043.368 1.408-.086 2.216-1.446 2.572-1.325.346-1.725.115-1.208-.698zm-31.397-1.48c-1.308-1.667-1.27-1.704.397-.396 1.752 1.373 2.309 2.237 1.443 2.237-.218 0-1.046-.828-1.84-1.84zm26.42.392c0-.218.828-1.046 1.84-1.84 1.668-1.307 1.705-1.27.397.397-1.373 1.752-2.237 2.309-2.237 1.443zm-14.126-2.014c.394-1.037.982-1.62 1.306-1.296.324.323 0 1.172-.718 1.885-1.038 1.03-1.16.91-.588-.589z" style="fill:#ba5422;stroke-width:1.05144" transform="matrix(1.50105 0 0 1.50105 -75.262 -67.638)"/><path d="M144.871 239.91a927.899 927.899 0 0 1-3.227-4.4c-.178-.251-2.194 1.369-4.48 3.6-3.793 3.704-4.392 3.95-6.87 2.821-1.53-.697-3.426-2.955-4.347-5.177-.898-2.167-1.783-4.1-1.966-4.296-.183-.196-2.506.918-5.163 2.475-4.546 2.664-4.981 2.733-7.376 1.164-1.81-1.185-2.75-3.039-3.256-6.418-.392-2.613-.838-4.752-.99-4.752-.154 0-1.977.71-4.053 1.578-7.673 3.205-11.203 1.17-11.203-6.46v-4.732l-5.575.697c-7.376.921-8.638-.48-7.69-8.544l.689-5.862-4.088.69c-3.416.578-4.583.265-7.106-1.906l-3.019-2.596 2.234-5.286 2.233-5.287-4.348-.712c-8.128-1.331-10.065-5.499-5.399-11.617 1.446-1.895 2.629-3.677 2.629-3.96 0-.283-1.66-1.062-3.69-1.732-7.755-2.56-8.883-7.053-3.161-12.598l3.663-3.55-4.189-2.499c-3.584-2.137-4.19-3.019-4.19-6.104 0-3.053.658-4.04 4.29-6.444l4.29-2.839-3.822-3.606c-5.306-5.006-4.856-8.328 1.552-11.455 5.122-2.499 5.286-3.149 1.941-7.673-4-5.411-.57-10.521 7.064-10.521 2.999 0 3.189-1.394.928-6.806-1.48-3.542-1.478-4.145.024-6.437 1.383-2.111 2.523-2.529 6.9-2.529h5.241l-.666-5.672c-.613-5.21-.459-5.809 1.887-7.346 2.005-1.314 3.332-1.45 6.17-.637 5.208 1.494 5.208 1.494 5.208-3.694 0-3.33.623-5.354 2.103-6.834 2.52-2.52 3.173-2.563 8.048-.526 4.595 1.92 5.62 1.968 5.627.263.003-.723.497-3.085 1.098-5.25 1.497-5.388 4.877-6.194 10.467-2.494 2.286 1.512 4.365 2.75 4.622 2.75.257 0 1.038-1.775 1.737-3.943 1.724-5.354 2.869-6.572 6.176-6.572 1.838 0 4.052 1.273 6.364 3.658l3.546 3.658 2.363-3.917c3.985-6.603 8.874-6.458 13.105.389l2.357 3.814 3.586-3.801c5.425-5.75 10.585-4.595 12.425 2.78 1.013 4.057 1.789 4.227 5.796 1.27 6.193-4.569 10.207-2.973 11.466 4.559.722 4.312 2.1 4.687 8.149 2.214 4.941-2.021 7.675.693 7.675 7.62 0 2.801.355 5.082.789 5.069.434-.014 2.65-.457 4.926-.985 7.149-1.658 9.86 1.457 8.098 9.3l-.972 4.327h5.07c7.957 0 9.99 3.24 6.808 10.855-1.749 4.185-1.628 4.348 3.941 5.353 2.523.456 4.565 1.651 5.65 3.307 1.612 2.46 1.557 2.81-1.059 6.763-1.517 2.293-2.759 4.577-2.759 5.076 0 .5 1.885 1.473 4.189 2.163 3.867 1.158 6.326 3.633 6.326 6.366 0 .614-1.688 2.985-3.75 5.268l-3.751 4.152 4.276 2.699c3.405 2.15 4.276 3.324 4.276 5.764 0 2.939-1.574 4.766-6.983 8.103-1.82 1.123-1.67 1.502 2.172 5.49 3.737 3.88 4.011 4.533 2.914 6.942-.711 1.56-2.959 3.358-5.44 4.35-2.326.931-4.229 2.05-4.229 2.488 0 .438 1.006 2.074 2.234 3.636 2.668 3.391 2.901 7.832.504 9.585-.952.696-3.659 1.574-6.016 1.95-3.536.566-4.15 1.002-3.513 2.497 4.334 10.171 2.84 13.457-5.944 13.075-4.532-.197-5.268.027-4.726 1.44.354.921.926 3.445 1.272 5.608 1.04 6.505-2.806 8.79-10.892 6.47l-3.41-.977v5.5c0 3.024-.568 6.066-1.262 6.76-1.746 1.746-5.593 1.577-9.445-.415-3.783-1.956-4.486-1.315-5.497 5.009-.508 3.172-1.29 4.335-3.477 5.166-2.407.915-3.476.611-7.28-2.07l-4.459-3.143-1.8 4.716c-1.677 4.388-3.988 6.719-6.663 6.719-.615 0-2.985-1.687-5.267-3.748l-4.148-3.748-2.829 4.274c-3.827 5.783-7.56 5.89-11.653.33zm25.88-29.938 7.732-2.421 1.835-7.809c2.229-9.485 3.85-11.03 10.458-9.966 7.33 1.18 11.855 1.096 12.309-.23.295-.862-3.67-1.316-13.766-1.577-14.105-.366-14.197-.384-17.495-3.522-4.538-4.317-5.764-6.985-7.97-17.353-1.431-6.724-2.608-9.648-4.758-11.825-2.72-2.754-3.334-2.891-12.926-2.891H136.1v9.378l8.675.305 8.675.306.295 12.232.295 12.232-2.644.664c-1.455.365-13.653.622-27.107.571-30.68-.116-27.893-.29-25.984 1.62 1.315 1.314 2.58 1.368 8.085.345 7.58-1.41 11.456-.282 12.307 3.58 3.185 14.452 2.706 13.613 8.992 15.752 13.54 4.608 29.57 4.835 43.062.61zm-60.529-4.233c2.475-3.93-3.644-8.13-6.384-4.382-1.783 2.44-1.743 3.083.321 5.148 2.05 2.049 4.484 1.741 6.063-.766zm85.6 1.104c2.948-2.948.08-7.918-3.847-6.671-2.65.84-3.584 3.338-2.21 5.906 1.224 2.286 4.165 2.657 6.058.765zm-101.967-.761c3.175-.073 3.342-.23 1.84-1.733-.908-.909-1.652-2.091-1.652-2.628 0-1.703-4.442-1.053-5.896.863-1.962 2.585-1.793 4.346.376 3.93 1.012-.193 3.412-.388 5.332-.432zm-9.275-10.015c2.602-.82 3.904-1.522 2.892-1.561-2.555-.098-2.313-2.933.32-3.769 1.189-.377 1.966-1.237 1.727-1.91-.721-2.04 5.512-10.024 7.908-10.13.416-.018.484.675.152 1.54-.485 1.264.037 1.445 2.66.92 2.083-.416 3.895-.13 5.013.793 1.189.982 1.876 1.073 2.142.284.422-1.253 5.575-.685 5.575.615 0 .432 1.893.785 4.206.785 2.313 0 4.206-.466 4.206-1.036 0-.64.516-.609 1.347.08 2.033 1.688 6.504 2.4 18.255 2.905l10.664.459.146-11.06c.08-6.083-.224-11-.676-10.925-.452.075-4.489.08-8.97.011l-8.15-.124v-13.669h10.445c8.778 0 11.17.377 15.004 2.366 2.509 1.3 4.572 3.075 4.586 3.943.05 3.262 2.885 16.433 4.267 19.829.983 2.417 1.932 3.342 3.007 2.93.863-.332 1.5-.266 1.416.147-.323 1.57 1.514 4.431 2.845 4.431.765 0 2.176-.786 3.138-1.748 1.477-1.477 1.893-1.518 2.687-.262.688 1.087.944.726.956-1.347.01-1.705.958-3.527 2.382-4.578 1.585-1.17 1.932-1.912 1.051-2.25-2.858-1.097.045-7.548 3.391-7.536.564.002 1.12-.516 1.236-1.152.115-.636-.021-.698-.305-.138-1.273 2.52-7.223-2.17-6.261-4.936.586-1.684.529-1.682-.802.027-.789 1.012-2.03 1.84-2.76 1.84-1.028 0-1.048-.337-.087-1.495 1.012-1.22.865-1.396-.804-.96-2.5.654-3.94-1.33-2.354-3.24 1.2-1.447.497-4.82-1.004-4.82-.469 0-1.09.592-1.382 1.315-.323.8-.563.608-.613-.489-.046-.992-.969-2.277-2.05-2.856-1.393-.745-1.945-2.163-1.891-4.853.064-3.17-.6-4.369-3.997-7.22-2.613-2.194-3.46-3.42-2.362-3.42.942 0 1.469.394 1.171.876-.919 1.486 2.405.965 3.687-.579.928-1.118.849-1.591-.344-2.049-1.094-.42-1.386-.069-.992 1.192.453 1.452.247 1.405-1.105-.255-.915-1.122-1.663-1.542-1.663-.932s-1.065 1.025-2.366.923c-3.022-.237-6.29 1.329-5.488 2.629.34.549.066.998-.608.998-.675 0-.975-.653-.669-1.452.628-1.637-4.016-2.713-11.898-2.756-9.022-.05-9.463-.423-9.463-8.006v-6.712l8.674-.072c4.771-.04 10.094-.306 11.829-.592 4.788-.79 8.937-.445 8.937.741 0 .428.9.542 2.002.254 2.012-.526 3.683 2.18 3.029 4.902-.165.685.775 1.981 2.088 2.88 2.085 1.428 2.31 1.435 1.78.051-.356-.926.12-1.863 1.147-2.257 1.315-.505 1.59-.243 1.096 1.042-.497 1.294-.174 1.59 1.31 1.201 1.084-.283 2.698-.107 3.587.39 1.108.62 1.816.388 2.247-.735.436-1.136 1.328-1.42 2.897-.922 1.804.573 2.134.373 1.615-.978-.464-1.21-.055-1.699 1.418-1.699 1.139 0 2.07-.445 2.07-.988 0-.543 1.775-1.135 3.943-1.314 3.59-.297 3.949-.609 4.008-3.48.071-3.46-1.607-5.35-2.985-3.363-.561.81-.736.508-.491-.844.21-1.156 1.025-1.958 1.812-1.78 1.172.264 1.186.029.08-1.303-.74-.894-1.84-1.32-2.442-.948-.639.394-.78.167-.34-.546.888-1.436-1.902-4.603-3.102-3.521-.451.406-.523.217-.16-.421.389-.681-1.818-2.416-5.35-4.206l-6.013-3.046-40.286-.32c-24.532-.196-40.156-.708-39.955-1.31.67-2 12.099-10.582 18.745-14.075 3.766-1.98 9.853-4.435 13.526-5.456l6.677-1.857 4.707 5.463c6.24 7.243 8.61 7.266 15.597.148 5.818-5.928 6.709-6.033 17.835-2.117 4.582 1.614 18.974 9.681 20.533 11.511.306.359 3.045 3.018 6.086 5.91 4.082 3.88 6.346 5.257 8.644 5.257 1.713 0 2.996.473 2.852 1.051-.145.579-.821 1.058-1.503 1.065-.682.007-1.629.438-2.103.958-.493.539-.3.62.451.187.723-.416 1.315-.223 1.315.428 0 .701.965.945 2.365.597 1.302-.322 1.755-.308 1.008.032-.996.453-1.053.986-.212 2 .835 1.005.803 1.593-.118 2.162-.856.529-.99.336-.415-.594.567-.918.44-1.123-.38-.616-.677.419-.995 1.144-.705 1.612.29.468-.226 2.358-1.144 4.199-.919 1.841-1.37 3.647-1.004 4.013 1.072 1.073 3.826 1.214 3.176.163-.326-.528.41-.96 1.634-.96 1.406 0 1.953-.444 1.483-1.204-1.179-1.907 4.542-.12 8.145 2.544 2.005 1.482 2.936 2.96 2.622 4.16-.366 1.4.14 1.86 2.043 1.86 1.715 0 2.525.593 2.514 1.84-.01 1.246-.274 1.434-.816.582-.528-.83-1.328-.925-2.35-.28-.852.54-1.076.995-.498 1.013.579.018.342.529-.525 1.136-1.216.852-1.006.943.92.397 1.699-.48 2.267-.335 1.778.457-.412.666.001 1.164.966 1.164.927 0 1.608-.591 1.514-1.314-.37-2.854.158-3.944 1.919-3.96 1.04-.008 1.382-.351.789-.788-.579-.425-1.212-2.428-1.408-4.452-.195-2.024-.77-3.832-1.276-4.018-1.928-.708 1.45-4.107 3.538-3.561 1.312.343 1.846.133 1.419-.557-.376-.609.105-1.41 1.069-1.78 1.534-.588 1.458-.878-.603-2.322-1.295-.907-3.506-1.43-4.913-1.16-1.407.269-2.558.053-2.558-.479s-.591-.598-1.314-.147c-2.055 1.284-3.87 1.323-4.627.099-.408-.66-.194-.813.521-.37.709.438 1.27.067 1.346-.89.168-2.1.31-2.588 1.83-6.266 1.11-2.686.984-3.344-1.06-5.52a7.72 7.72 0 0 0-5.704-2.47c-4.203 0-4.693-1.216-3.277-8.13.618-3.017.796-5.812.395-6.213-.4-.4-3.338-.255-6.528.323-6.634 1.202-7.829.48-7.137-4.32 1.101-7.631-1.273-9.37-8.611-6.303-5.238 2.189-6.444 1.51-7.286-4.102-1.069-7.13-2.727-7.876-8.419-3.789-5.516 3.962-6.886 3.46-8.898-3.258-1.76-5.873-3.686-6.258-8.379-1.675-2.152 2.102-4.61 3.821-5.46 3.821-.852 0-2.718-1.892-4.147-4.206-2.857-4.622-6.738-5.72-7.849-2.22-.346 1.092-1.84 3.292-3.32 4.89l-2.692 2.903-3.988-4.364c-2.194-2.4-4.714-4.363-5.6-4.363-.941 0-2.362 1.964-3.413 4.717-2.715 7.108-3.709 7.491-9.267 3.573-5.755-4.056-7.44-3.285-8.517 3.897-.392 2.617-1.356 5.005-2.14 5.306-.785.301-3.675-.446-6.422-1.662-6.047-2.675-7.136-1.92-6.883 4.772.258 6.816-.713 7.674-7.185 6.348-7.045-1.443-8.146-.375-6.595 6.402 1.51 6.597.494 7.77-6.407 7.408-6.341-.333-7.231 1.245-4.331 7.677 2.489 5.52 1.626 6.936-4.764 7.814-2.974.41-5.65 1.379-5.948 2.154-.298.776.919 3.533 2.703 6.127 1.785 2.593 3.245 5.011 3.245 5.372 0 .362-2.602 1.808-5.783 3.215-3.18 1.407-5.783 3.177-5.783 3.934 0 .758 1.893 3.226 4.206 5.484 2.313 2.26 4.206 4.464 4.206 4.9 0 .437-2.13 2.042-4.732 3.567-5.944 3.484-6.102 5.888-.614 9.352 2.265 1.43 4.418 3.086 4.785 3.68.368.594-1.227 2.996-3.544 5.336-2.423 2.447-3.971 4.885-3.644 5.739.313.816 2.506 2.129 4.873 2.918 6.18 2.06 6.966 3.902 3.567 8.359-1.537 2.014-2.794 4.628-2.794 5.808 0 1.808.896 2.257 5.695 2.857 5.482.685 7.815 2.492 6.327 4.9-.33.536-.833 2.267-1.117 3.848-.283 1.581-.96 3.032-1.504 3.225-.544.193-.99.784-.99 1.314 0 1.483 10.47 1.112 15.772-.559zm-1.402-3.384c-.385-.385-.7-1.19-.7-1.787 0-.66.489-.597 1.243.157.685.685 1 1.49.701 1.788-.298.299-.858.228-1.244-.158zm-.067-4.731c.298-.482.987-.877 1.531-.877.544 0 .99.395.99.877s-.69.876-1.531.876c-.842 0-1.288-.394-.99-.876zm35.709-7.493c.394-1.037.982-1.62 1.306-1.297.324.324 0 1.172-.718 1.885-1.038 1.03-1.159.91-.588-.588zm-8.48-.744c.358-.578 1.096-1.051 1.64-1.051.544 0 .989.473.989 1.051 0 .579-.738 1.052-1.64 1.052-.9 0-1.346-.473-.989-1.052zm38.378-8.35c0-.543.473-1.28 1.052-1.638.578-.358 1.051.087 1.051.99 0 .9-.473 1.638-1.051 1.638-.579 0-1.052-.445-1.052-.99zm-60.598-8.253c-8.742-.358-8.262.474-9.449-16.405-.77-10.953-1.165-10.217 7.483-13.946 2.893-1.248 6.106-3.395 7.14-4.772 1.738-2.315 1.756-2.798.249-6.406l-1.631-3.903h4.623c3.527 0 4.732.436 5.082 1.84.252 1.012.582 11.056.733 22.32.152 11.263.425 20.726.608 21.028.375.621-3.887.691-14.838.244zm12.232-22.826v-21.554H97.71c-2.477 0-2.601.252-1.991 4.065.922 5.767-.611 7.784-8.45 11.115l-6.896 2.93v7.19c0 3.955.513 9.58 1.139 12.5l1.138 5.309h17.7zm72.024 19.452c-.358-.578-.15-1.051.463-1.051s1.114.473 1.114 1.051-.209 1.051-.464 1.051-.756-.473-1.113-1.051zm-5.028-10.82c-.365-.952-.18-2.03.412-2.395 1.518-.938 1.84-.253.987 2.098-.646 1.781-.815 1.817-1.399.297zm-89.894-22.36c-2.575-1.803-3.167-6.576-1.075-8.667 2.091-2.092 6.864-1.5 8.667 1.075 2.163 3.088 2.065 4.595-.466 7.126-2.53 2.53-4.038 2.63-7.126.466zm5.864-1.728c2.967-2.966.074-7.915-3.89-6.657-1.156.366-2.4 1.611-2.767 2.766-1.258 3.965 3.691 6.857 6.657 3.891zm93.342-2.044c-1.724-1.663-1.772-1.951-.325-1.951.935 0 1.997.48 2.36 1.068.363.588 1.1.797 1.64.464.537-.333.978-.155.978.396 0 1.939-2.652 1.952-4.653.023zm54.292-2.583c-.746-.81-.892-1.471-.325-1.471 1.092 0 2.673 2 2.049 2.592-.203.193-.978-.312-1.724-1.121zm-46.943-1.163c-.57-1.499-.45-1.62.589-.589.718.714 1.041 1.562.718 1.886-.324.323-.912-.26-1.307-1.297zm6.066-1.885c0-.868.394-1.578.876-1.578s.876.71.876 1.578c0 .867-.394 1.577-.876 1.577s-.876-.71-.876-1.577zm-43.226-43.17c-2.523-1.766-2.98-4.659-1.248-7.895 2.222-4.151 10.477-1.339 10.477 3.57 0 2.07-3.622 5.963-5.549 5.963-.739 0-2.395-.737-3.68-1.637zm5.463-1.104c2.084-.8 2.17-4.992.137-6.68-1.838-1.525-5.4-.585-6.259 1.652-.34.887-.13 2.525.466 3.64 1.119 2.09 2.77 2.496 5.656 1.388zM89.837 192.333c.868-.56 1.104-1.02.526-1.02-.578 0-1.761.46-2.629 1.02-.867.56-1.104 1.019-.525 1.019.578 0 1.76-.459 2.628-1.02zm98.338-14.517c-.324-.324-1.172-.001-1.885.717-1.031 1.039-.91 1.16.588.59 1.037-.396 1.62-.984 1.297-1.307zm21.023-17.438c1.37-1.002 2.18-3.239 2.567-7.098l.565-5.634 3.943-.326c3.924-.325 3.943-.349 3.943-5.06v-4.734l-6.81-3.088c-3.746-1.698-7.6-4.293-8.565-5.768-1.694-2.584-1.617-3 2.141-11.654 4.4-10.128 4.54-9.332-3.376-19.066-7.48-9.2-25.576-20.333-35.563-21.881-4.11-.637-4.639-.395-10.263 4.698-3.261 2.954-6.9 5.37-8.085 5.37-1.185 0-4.714-2.421-7.843-5.38-5.337-5.047-5.934-5.336-9.663-4.67-6.21 1.11-20.292 8.495-26.07 13.671l-5.242 4.696 38.454.047c43.466.054 44.606.22 53.115 7.709 11.483 10.108 11.697 23.597.535 33.661l-4.432 3.996 3.15 3.589c1.733 1.973 3.977 6.326 4.987 9.672 1.01 3.346 2.55 6.676 3.421 7.399 2.102 1.743 6.604 1.67 9.091-.15zm-18.422-6.949c0-.578-.501-1.051-1.114-1.051-.612 0-.82.473-.463 1.051.357.579.858 1.052 1.113 1.052s.464-.473.464-1.052zm-8.937-2.103c.357-.578.176-1.051-.402-1.051-.578 0-1.344.473-1.701 1.051-.358.579-.177 1.052.401 1.052.579 0 1.344-.473 1.702-1.052zm.906-9.988c-.333-.868-1.086-1.577-1.673-1.577-.616 0-.514.668.24 1.577.72.867 1.474 1.577 1.674 1.577.2 0 .091-.71-.241-1.577zm53.227-2.428c-.014-1.532-.157-1.56-1.036-.2-1.33 2.058-1.33 3.45 0 2.628.579-.358 1.045-1.45 1.036-2.428zm-46.325-10.096c.841-1.014.882-1.7.128-2.165-.606-.375-1.102.017-1.102.87 0 .854-.592 1.79-1.314 2.082-.826.333-.874.561-.13.614.653.045 1.74-.585 2.418-1.401zm24.592.035c.627-1.636-1.141-3.809-3.1-3.809-.712 0-1.634-1.064-2.048-2.365-.728-2.29-.778-2.3-1.574-.263-1.394 3.567-1.073 4.608 1.922 6.233 3.633 1.97 4.114 1.991 4.8.204zm-50.732-.691c2.722-1.457 2.575-4.722-.303-6.738-1.794-1.257-5.214-1.637-14.72-1.637h-12.383V129.246h12.686c6.978 0 13.602-.49 14.72-1.088zm79.841-1.54c0-.868-.435-1.578-.965-1.578-.531 0-1.653-.263-2.493-.586-.87-.333-1.823.184-2.213 1.2-.574 1.495-.426 1.571.903.468 1.298-1.077 1.708-1.008 2.24.377.819 2.136 2.528 2.216 2.528.119zm-59.407-.526c.358-.578.15-1.052-.463-1.052s-1.114.474-1.114 1.052c0 .578.209 1.051.464 1.051s.756-.473 1.113-1.051zm38.904-3.68c0-2.546-.496-3.225-2.57-3.517-3.361-.475-5.668 2.471-4.153 5.302.74 1.385 1.97 1.918 3.902 1.695 2.36-.273 2.82-.84 2.82-3.48zm-25.76-.588c0-.544-.829-.952-1.84-.906-1.11.05-1.317.294-.52.615.727.293 1.009 1.039.626 1.657-.41.664-.198.817.52.374.667-.413 1.213-1.196 1.213-1.74z" style="fill:#391a12;stroke-width:1.05144" transform="matrix(1.50105 0 0 1.50105 -75.262 -67.638)"/></svg>