<svg xmlns="http://www.w3.org/2000/svg" width="300mm" height="300mm" viewBox="0 0 300 300"><path d="M123.471 207.21a3.972 3.972 0 0 1-2.097-1.015c-.324-.292-2.011-2.873-4.32-6.605-2.083-3.369-3.833-6.172-3.889-6.23-.056-.057-.88-.187-1.83-.29l-1.73-.185-5.065 5.442c-5.767 6.196-5.829 6.246-7.7 6.234-.729-.005-1.178-.091-1.649-.318-.742-.358-1.623-1.165-1.939-1.776-.119-.23-1.306-3.343-2.638-6.918-1.333-3.575-2.476-6.596-2.541-6.713-.066-.118-.872-.45-1.792-.74l-1.672-.525-5.665 4.087c-3.116 2.247-6.034 4.278-6.483 4.513-2.037 1.065-4.59.151-5.544-1.984-.235-.526-.637-2.656-1.478-7.84-.636-3.914-1.203-7.163-1.26-7.22-.058-.057-.762-.461-1.565-.898l-1.46-.793-4.879 2.229c-8.252 3.77-8.59 3.915-9.407 3.999-1.762.182-3.603-.962-4.24-2.634l-.31-.812.25-7.421c.137-4.082.225-7.485.195-7.563-.03-.079-.642-.63-1.36-1.225l-1.304-1.082-1.188.284c-9.564 2.29-13.471 3.136-14.075 3.048-1.424-.209-2.618-1.042-3.233-2.257-.694-1.368-.669-1.571 1.153-9.302.907-3.85 1.65-7.105 1.65-7.232 0-.127-.466-.802-1.034-1.5l-1.032-1.267-.784-.014c-.43-.007-3.828.092-7.549.22l-6.766.233-.817-.311a4.078 4.078 0 0 1-2.634-4.138c.06-.838.358-1.563 3.136-7.649l3.069-6.723-.853-1.565c-.7-1.284-.922-1.578-1.235-1.64-.21-.04-3.426-.564-7.147-1.163-7.041-1.133-7.672-1.287-8.646-2.11-.604-.512-1.18-1.721-1.28-2.69-.152-1.476.027-1.792 4.712-8.295l4.31-5.982-.488-1.638c-.268-.901-.537-1.691-.598-1.756-.062-.065-3.087-1.227-6.723-2.581-3.636-1.354-6.816-2.568-7.066-2.698-1.321-.683-2.09-2.022-2.094-3.648-.005-1.809.069-1.899 6.193-7.607l5.342-4.978-.038-1.224c-.02-.673-.085-1.502-.142-1.84l-.106-.618-6.196-3.841c-3.407-2.113-6.374-4.012-6.592-4.22-.218-.207-.564-.719-.768-1.137-.74-1.512-.388-3.53.822-4.705.267-.26 3.251-2.182 6.632-4.273l6.147-3.802.078-.64c.043-.353.12-1.158.172-1.788l.094-1.145-5.108-4.739c-2.81-2.606-5.349-5.028-5.642-5.382-1.612-1.946-1.005-5.05 1.211-6.192.295-.152 3.52-1.39 7.168-2.752 3.648-1.361 6.647-2.497 6.665-2.524.018-.027.261-.802.54-1.721l.508-1.672-4.325-6.004C-8.91 11.571-9.21 11.066-9.21 9.79c0-1.08.404-1.994 1.26-2.85.48-.48 1.037-.884 1.368-.994.307-.1 3.767-.706 7.69-1.344l7.13-1.16.868-1.575.867-1.575-2.757-6.04c-3.635-7.966-3.513-7.652-3.433-8.885.127-1.937 1.332-3.35 3.242-3.8.42-.1 10.34.153 14.12.359l1.086.059 1.087-1.332c.598-.733 1.087-1.423 1.087-1.534 0-.112-.743-3.367-1.652-7.236-1.824-7.765-1.848-7.957-1.15-9.333.426-.841 1.179-1.545 2.08-1.943 1.118-.495 2.026-.39 7.06.815l6.943 1.66 2.385.57 1.354-1.105c1.243-1.015 1.355-1.147 1.358-1.609.002-.277-.105-3.63-.238-7.453-.277-7.992-.286-7.895.875-9.186.86-.956 1.822-1.377 3.134-1.37.992.005 1.032.02 7.785 3.103l6.788 3.099 1.509-.806c.83-.443 1.54-.858 1.581-.924.04-.065.586-3.28 1.213-7.145.626-3.865 1.245-7.312 1.374-7.66.31-.836 1.181-1.76 2.082-2.209.811-.404 2.133-.491 3.092-.204.556.166.68.252 7.836 5.398 2.468 1.775 4.563 3.27 4.656 3.325.13.075 3.46-.815 3.542-.948.01-.015 1.125-3.009 2.48-6.652 1.354-3.643 2.577-6.848 2.717-7.122.313-.611 1.177-1.449 1.846-1.789.294-.15.944-.28 1.587-.318.942-.055 1.192-.016 1.852.289.87.403 1.271.802 7.172 7.136 3.806 4.087 3.975 4.247 4.4 4.172.244-.043 1.002-.121 1.685-.174.878-.068 1.299-.163 1.436-.326.107-.126 1.823-2.886 3.815-6.133 2.217-3.614 3.872-6.16 4.27-6.567 1.545-1.581 4.467-1.496 5.886.17.244.288 2.076 3.166 4.07 6.397 1.995 3.23 3.725 5.983 3.846 6.117.165.182.639.282 1.887.398l1.667.155.98-1.024c.538-.564 2.315-2.467 3.947-4.23 4.216-4.553 5.335-5.678 5.983-6.015.815-.425 2.43-.512 3.305-.177.847.323 1.828 1.224 2.239 2.056.176.356 1.404 3.572 2.73 7.148l2.409 6.501 1.72.528 1.72.529 5.687-4.108c3.127-2.26 6.032-4.285 6.454-4.502 1.03-.527 2.45-.55 3.506-.057.87.407 1.797 1.387 2.115 2.236.13.348.753 3.806 1.384 7.684.63 3.878 1.191 7.095 1.245 7.15.054.054.763.46 1.575.901l1.477.803 6.785-3.101 6.784-3.102h1.069c1.226-.001 1.981.305 2.896 1.174.817.776 1.13 1.486 1.2 2.727.034.588-.04 3.807-.166 7.153-.125 3.347-.227 6.394-.227 6.77v.686l1.354 1.105 1.353 1.105 7.015-1.67c4.963-1.183 7.265-1.67 7.87-1.668 2.115.006 3.865 1.674 4.014 3.823.05.725-.202 1.955-1.63 7.975l-1.69 7.118 1.135 1.378L226-18.016l1.081-.06c3.642-.202 13.696-.457 14.117-.357 1.392.327 2.628 1.425 3.056 2.711.528 1.59.473 1.76-2.94 9.262L238.245.294l.577 1.08c.317.594.717 1.305.887 1.579l.31.499 6.964 1.124c3.83.618 7.262 1.212 7.626 1.319.9.264 1.986 1.263 2.412 2.217.452 1.015.456 2.473.008 3.387-.173.353-2.197 3.252-4.498 6.444l-4.184 5.802.499 1.676c.274.921.54 1.712.592 1.757.051.045 3.01 1.16 6.574 2.48 3.564 1.319 6.775 2.544 7.135 2.722 1.36.675 2.183 2.072 2.171 3.69-.007 1.043-.21 1.67-.786 2.43-.181.24-2.693 2.641-5.582 5.335l-5.252 4.899.094 1.36c.052.748.13 1.552.171 1.787.07.388.632.77 6.205 4.202 3.37 2.076 6.333 3.946 6.584 4.156 1.13.946 1.617 2.746 1.164 4.304-.409 1.406-1.005 1.869-7.79 6.053l-6.071 3.743-.097 1.234a33.615 33.615 0 0 1-.175 1.741l-.078.507 5.431 5.049c4.756 4.42 5.484 5.152 5.854 5.89a4.105 4.105 0 0 1-.587 4.55c-.308.351-.832.769-1.164.929-.332.16-3.552 1.388-7.155 2.73-3.604 1.34-6.567 2.453-6.586 2.472-.018.018-.262.788-.542 1.71-.493 1.628-.501 1.69-.262 2.055.135.207 1.982 2.78 4.103 5.72 2.12 2.938 4.038 5.696 4.26 6.126.367.712.399.889.345 1.923-.065 1.265-.267 1.768-1.068 2.654-.604.669-1.256 1.028-2.245 1.236-.392.082-3.723.638-7.402 1.235-3.679.596-6.697 1.098-6.707 1.114-.01.016-.386.722-.837 1.569l-.819 1.54 3.102 6.792c3.086 6.76 3.1 6.798 3.106 7.79.006 1.315-.415 2.275-1.375 3.139-1.271 1.142-1.152 1.132-9.689.839l-7.41-.255-.3.367-1.12 1.362-.822.995 1.64 6.998c1.177 5.02 1.64 7.248 1.64 7.886-.003 1.57-.919 2.976-2.396 3.677-1.216.578-1.91.48-9.566-1.336l-6.906-1.639-1.324 1.077c-.729.592-1.35 1.116-1.379 1.163-.03.048.063 3.367.206 7.375.17 4.808.214 7.49.125 7.884a4.144 4.144 0 0 1-2.178 2.81c-.602.311-.918.375-1.864.379l-1.14.004-6.743-3.093-6.743-3.093-1.556.817c-1.032.542-1.58.913-1.626 1.102-.038.157-.582 3.444-1.209 7.306-1.24 7.649-1.318 7.937-2.368 8.859-.864.759-1.686 1.065-2.83 1.056-.726-.006-1.17-.093-1.638-.322-.352-.173-3.25-2.195-6.439-4.495l-5.798-4.18-1.73.522-1.728.521-2.523 6.762c-1.388 3.719-2.628 6.96-2.757 7.203-.313.592-1.156 1.315-1.95 1.672-.8.36-2.398.388-3.141.054-.893-.4-1.463-.958-6.346-6.21l-4.819-5.182-1.29.096c-2.508.186-1.767-.594-6.124 6.44-2.516 4.061-4.035 6.373-4.422 6.73-.895.825-2.203 1.212-3.422 1.014zm6.982-39.6c10.652-.678 20.909-2.861 30.765-6.549 1.671-.625 6.172-2.49 6.28-2.602.017-.019 1.035-4.713 2.261-10.432 2.546-11.87 2.513-11.766 4.183-13.442 1.059-1.064 2.192-1.724 3.585-2.088 1.81-.474 3.16-.283 13.008 1.836l8.805 1.895 1.615-1.721c2.112-2.252 4.399-4.926 6.42-7.509.897-1.146 1.631-2.108 1.631-2.136 0-.03-10.236-.036-22.748-.016-25.46.04-23.425.122-25.752-1.024-2.082-1.025-3.76-2.4-5.722-4.692-1.604-1.873-3.037-3.993-4.087-6.045-1.678-3.28-2.2-5.211-4.721-17.475-.757-3.682-1.561-7.41-1.786-8.286-1.734-6.735-5.596-11.342-11.127-13.273-2.806-.98-1.794-.926-18.031-.98l-14.707-.05v19.384h13.105c12.914 0 13.108.004 13.389.285.281.281.285.474.285 16.002v15.717l-.3.272c-.293.265-1.277.273-43.858.342l-43.558.071 1.548 1.98c1.87 2.39 4.813 5.831 6.429 7.518l1.184 1.236 8.76-1.91c4.818-1.05 9.284-1.952 9.925-2.004 2.313-.188 4.412.58 6.04 2.212 1.713 1.716 1.68 1.612 4.233 13.516l2.235 10.424 2.28.99c9.76 4.24 20.143 7.005 30.553 8.135 4.868.529 13.119.722 17.878.419zm58.662-7.488c2.983-.77 5.612-3.484 6.222-6.424.25-1.198.103-3.6-.287-4.706-1.24-3.523-4.907-5.953-8.581-5.684-2.984.218-5.665 1.94-7.006 4.502-.748 1.43-.99 2.43-.984 4.063.01 2.54.912 4.558 2.82 6.305 1.04.952 2.219 1.609 3.492 1.945 1.063.28 3.237.28 4.324 0zm-126.458-.561c2.62-.785 4.822-3 5.656-5.694.4-1.291.423-3.45.05-4.7-1.173-3.935-4.896-6.59-8.805-6.278-3.737.298-6.892 2.961-7.733 6.528-.687 2.913.155 5.888 2.273 8.027 1.425 1.44 3.1 2.258 5.03 2.458 1.34.139 2.203.056 3.529-.341zm143.928-68.063c5.342-1.26 8.292-4.322 9.485-9.847.191-.885.265-2.163.33-5.705.075-4.07.112-4.607.34-4.956.142-.215.419-.452.615-.527.206-.078 2.72-.136 5.891-.136h5.534l.118-1.247c.193-2.026.143-11.787-.075-14.577l-.196-2.505-9.994-4.441c-5.497-2.443-10.318-4.659-10.712-4.924-1.474-.993-2.65-2.69-3.12-4.498-.315-1.218-.233-3.312.174-4.415.159-.431 2.541-5.864 5.294-12.073 2.752-6.21 5.004-11.329 5.004-11.376 0-.17-1.93-3.318-3.498-5.706-4.493-6.84-9.553-12.89-15.588-18.636-14.154-13.478-32.181-22.9-51.207-26.764l-1.71-.347-.35.31c-.192.17-3.205 3.034-6.695 6.364-8.882 8.473-8.567 8.19-9.74 8.746-2.871 1.363-6.003.984-8.383-1.014-.628-.527-6.387-6.516-13.629-14.173-.258-.272-.082-.298-4.148.627-17.035 3.876-32.78 12.01-46.506 24.024-1.826 1.598-8.333 8.073-8.333 8.291 0 .08 22.57.148 57.083.174l57.082.042 2.007.379c10.54 1.985 18.55 6.115 25.295 13.039 4.892 5.022 7.66 10.305 8.897 16.983.19 1.02.253 2.124.258 4.486.005 2.719-.037 3.348-.32 4.748-.9 4.452-3.035 8.791-6.388 12.986-1.251 1.566-4.712 5.032-6.531 6.54a78.556 78.556 0 0 1-6.48 4.805c-.937.615-1.701 1.15-1.699 1.19.002.039.946.822 2.097 1.74 4.028 3.212 6.315 5.482 8.187 8.127 2.842 4.014 4.838 9.258 6.363 16.716.307 1.505.696 3.004.863 3.331 1.006 1.973 4.393 3.89 8.046 4.555 1.292.235 4.676.056 6.339-.336zM52.608 57.72V24.176h-7.407c-4.074 0-7.407.03-7.407.064 0 .035.856 2.006 1.902 4.38 1.045 2.374 2.008 4.637 2.14 5.029 1.003 2.98-.221 6.578-2.911 8.553-.427.313-4.48 2.196-10.213 4.747l-9.506 4.228-.167 1.776c-.343 3.65-.494 9.65-.336 13.345.343 7.99 1.215 14.132 3.088 21.727l.799 3.24h30.019Zm83.205-13.183c8.297-.84 13.004-4.523 12.612-9.867-.287-3.916-3.152-6.966-8.225-8.755a26.014 26.014 0 0 0-2.597-.729c-1.359-.294-1.634-.298-19.47-.298H100.04v19.799h17.149c10.936 0 17.683-.055 18.624-.15zm91.618-4.918c1.394-.358 2.597-1.028 3.702-2.065 1.16-1.086 1.801-2.068 2.337-3.574.315-.885.371-1.283.37-2.611 0-1.335-.058-1.735-.39-2.701-1.44-4.187-5.591-6.602-9.81-5.708-2.956.626-5.239 2.6-6.33 5.471-.483 1.271-.61 3.522-.273 4.86.786 3.12 3.144 5.522 6.213 6.328 1.056.277 3.1.277 4.181 0zm-203.96-.42c2.863-.746 5.384-3.267 6.13-6.129.255-.982.284-3.01.057-4.08-.492-2.328-2.264-4.589-4.47-5.705-4.69-2.372-10.378.04-11.976 5.081-.443 1.396-.5 3.366-.135 4.707.783 2.886 3.111 5.25 5.987 6.077 1.098.316 3.287.34 4.408.049zm101.773-77.49c4.474-1.055 7.301-5.557 6.346-10.106-.34-1.617-1.092-2.972-2.337-4.207-1.242-1.233-2.341-1.868-3.944-2.278-4.601-1.177-9.404 1.823-10.383 6.485-.95 4.52 1.861 9.029 6.298 10.103 1.102.267 2.894.268 4.02.003z" style="fill:#fff;stroke-width:.142439" transform="translate(20.59 84.341) scale(1.03937)"/></svg>