<svg xmlns="http://www.w3.org/2000/svg" width="1198.758" height="1198.758" viewBox="0 0 317.171 317.171"><path d="M17.479 282.575c-4.138-.394-8.627-1.425-10.206-2.343-1.845-1.073-3.752-2.994-5.363-5.401-5.333-7.973-5.35-19.583-.046-29.876 5.506-10.686 20.777-22.876 43.462-34.695 2.292-1.194 4.167-2.272 4.167-2.395 0-.583-5.64-4.77-17.462-12.963-15.133-10.487-21.038-15.16-28.055-22.2-7.43-7.455-12.102-14.357-14.625-21.609-1.566-4.501-1.861-6.317-1.693-10.4.687-16.666 14.614-37.013 37.561-54.879 12.653-9.85 30.316-19.91 48.66-27.714 17.759-7.555 30.322-11.108 45.464-12.858 5.777-.668 18.468-.668 23.68 0 19.397 2.488 32.686 9.262 39.786 20.283 4.065 6.31 5.658 16.162 4.135 25.579-3.291 20.35-19.932 41.185-41.54 52.009-9.587 4.802-22.56 8.599-35.057 10.26-2.53.336-6.43.604-10.186.7-13.623.346-21.926-1.53-29.743-6.722-2.756-1.83-6.193-5.167-7.642-7.42-1.15-1.786-2.17-4.457-2.17-5.678 0-.832 1.029-2.053 1.73-2.053.236 0 1.47 1 2.74 2.222 4.448 4.28 9.227 6.658 16.314 8.12 3.432.707 11.576.973 15.795.516 21.946-2.378 42.922-11.905 57.064-25.92 10.697-10.598 16.607-22.581 16.061-32.563-.265-4.855-1.52-8.143-4.204-11.011-8.228-8.797-27.54-11.846-49.934-7.886-18.886 3.34-38.571 11.247-60.032 24.113-11.523 6.909-19.943 13.187-27.244 20.314-9.54 9.313-15.093 18.357-16.84 27.43-.613 3.182-.802 8.15-.413 10.814.902 6.17 4.04 12.256 9.474 18.379 4.097 4.616 8.436 8.393 19.645 17.097 3.856 2.995 8.142 6.366 9.525 7.49 3.446 2.804 9.1 7.96 9.947 9.072.469.614.855.874 1.175.79.263-.069 4.148-2.143 8.635-4.61 4.486-2.466 11.42-6.26 15.41-8.43 6.08-3.308 7.377-4.118 8.022-5.005 2.811-3.87 7.802-8.71 12.332-11.963 2.594-1.862 7.045-4.24 9.49-5.067 8.08-2.737 13.984.115 15.55 7.51.448 2.112.525 7.426.141 9.768-.141.865-.214 1.615-.161 1.668.053.052.669-.268 1.369-.712 1.04-.66 1.551-.807 2.803-.807 2.35 0 4.895 1.198 5.943 2.796.745 1.137.49 2.931-1.45 10.183-5.044 18.857-6.159 23.987-6.328 29.123-.077 2.335-.022 4.056.137 4.341.234.417.363.337 1.117-.694 2.304-3.155 11.497-22.987 25.807-55.67 2.962-6.767 3.646-8.642 4.92-13.484.68-2.587 1.236-4.166 1.602-4.555 1.08-1.15 4.746-2.022 9.877-2.349 4.497-.286 7.915.65 8.944 2.451l.486.85-1.338 4.08c-2.067 6.305-2.424 8.01-2.59 12.365-.11 2.91-.032 4.664.318 7.144.586 4.142 1.128 5.906 3.08 10.019 1.43 3.011 1.593 3.248 1.92 2.778.835-1.202 7.083-12.055 9.841-17.094 6.106-11.154 8.186-15.749 9.507-20.993 1.89-7.502 2.347-8.604 3.866-9.316 2.361-1.106 5.084-1.527 9.887-1.529 4.371 0 4.54.02 5.977.725 1 .49 1.632 1.01 1.95 1.602l.472.875-1.352 4.122c-2.026 6.18-2.432 8.073-2.602 12.128-.183 4.404.411 9.394 1.518 12.738.418 1.26 1.838 4.447 3.156 7.08l2.396 4.787.99-.44c9.846-4.386 17.573-6.045 28.109-6.035 6.578.006 9.51.349 14.757 1.728 14.2 3.731 24.861 13.406 28.142 25.536.777 2.87.976 8.941.385 11.74-.495 2.346-1.843 5.292-3.456 7.552-2.873 4.026-8.775 8.007-12.075 8.145-1.407.06-1.812-.235-1.82-1.322-.004-.61.114-.716 3.909-3.532 7.353-5.457 9.122-13.35 4.889-21.814-5.525-11.045-19.419-17.363-38.303-17.418-7.49-.022-12.556.721-18.719 2.745-1.76.578-3.238 1.088-3.282 1.132-.045.045.266 1.103.69 2.352 1.79 5.26 2.291 10.311 1.382 13.908-1.641 6.49-6.647 12.308-14.792 17.195-2.29 1.375-8.531 3.99-11.244 4.712-4.391 1.169-8.493-.397-10.102-3.856-.863-1.855-.775-6.395.191-9.922 1.838-6.706 6.497-13.676 13.926-20.833l3.651-3.518-1.462-2.906c-2.184-4.342-3.569-7.805-4.65-11.636-1.04-3.686-2.282-8.965-2.286-9.724-.005-.936-.432-.39-1.854 2.367-4.287 8.314-9.414 17.1-14.219 24.37l-3.026 4.58 1.086 2.961c1.735 4.729 2.167 6.758 2.327 10.913.22 5.733-.698 9.36-3.436 13.57-4.967 7.636-17.035 13.728-28.24 14.256-3.612.17-5.563-.168-7.185-1.244-1.586-1.051-2.198-2.17-2.177-3.973.035-3.07.709-4.007 15.673-21.786 1.811-2.151 6.854-8.766 7.523-9.868.1-.165-.88-2.487-2.176-5.16-1.298-2.672-2.721-5.775-3.164-6.895-.916-2.317-2.654-8.522-3.586-12.8-.346-1.59-.64-2.747-.652-2.57-.033.451-5.62 13.813-8.22 19.656-5.732 12.876-17.386 35.336-21.274 40.995-1.926 2.803-5.232 6.042-7.306 7.158-1.533.825-1.936.925-3.704.92-2.433-.006-3.627-.563-5.374-2.506-1.302-1.448-2.094-3.232-2.764-6.218-.46-2.055-.608-9.719-.262-13.626l.198-2.25-1.432 3.355c-2.298 5.383-3.26 7.47-5.77 12.52-3.829 7.702-6.153 10.73-9.41 12.256-1.387.65-1.785.71-4.82.71-3.015 0-3.436-.062-4.762-.69C86.92 249.996 81.486 237.3 81.06 225.2c-.24-6.815 1.06-16.363 3.09-22.7.438-1.37.797-2.558.797-2.64 0-.329-17.015 9.353-17.328 9.859-.072.116.152.849.497 1.63 4.172 9.432 4.398 24.084.553 35.811-6.221 18.974-23.786 33.325-43.215 35.307-2.575.263-5.874.307-7.975.107zm11.85-18.237c13.533-2.77 26.353-16.707 29.066-31.596.876-4.805.505-12.894-.788-17.206l-.309-1.029-4.971 3.022c-11.558 7.024-22.375 15.271-26.743 20.388-7.07 8.28-10.045 18.874-6.758 24.056.745 1.176 2.194 2.14 3.812 2.535 1.397.342 4.59.26 6.692-.17zm139.543-29.834c1.69-.721 5.554-3.73 7.701-5.995 3.365-3.55 4.884-6.555 5.345-10.574l.196-1.709-3.112 3.958c-3.099 3.942-4.68 5.777-9.847 11.427-1.494 1.634-2.716 3.107-2.716 3.274 0 .356 1.117.18 2.433-.381zm-66.617-.582c1.382-.905 4.007-5.486 6.487-11.32 1.652-3.888 6.897-17.465 8.552-22.14 3.15-8.896 5.161-16.194 5.402-19.604.153-2.178.133-2.293-.465-2.712-2.436-1.707-8.503 1.72-12.49 7.053-3.431 4.592-7.8 12.915-9.59 18.278-2.218 6.637-3.314 15.015-2.783 21.267.27 3.175.974 6.53 1.647 7.839.854 1.66 2.018 2.14 3.24 1.34zm112.775-10.791c4.854-2.444 7.97-6.112 9.191-10.819.634-2.442.784-4.968.423-7.115-.567-3.372-.433-3.346-3.087-.602-4.035 4.173-6.312 7.773-8.58 13.568-1.039 2.656-1.535 5.104-1.207 5.959.187.485.544.376 3.26-.991z" style="fill:#cf649a;stroke-width:.264583;fill-opacity:1" transform="translate(12.384 -7.665)"/></svg>