<svg xmlns="http://www.w3.org/2000/svg" width="300mm" height="300mm" viewBox="0 0 300 300"><path d="m27.688 67.162.068-15.015 1.82-.454c2.008-.502 6.651-1.19 20.123-2.987 4.938-.659 9.035-1.255 9.106-1.325.07-.07-.008-.129-.173-.129-.166 0-5.216-.655-11.223-1.456-12.155-1.62-18.463-2.617-19.257-3.042-.518-.277-.528-.563-.528-15.477V12.083l1-.27c1.88-.505 7.067-1.293 18.675-2.837 8.036-1.069 11.373-1.604 10.848-1.741-.416-.109-5.758-.856-11.87-1.661C34.085 3.968 31.1 3.509 29.013 2.917l-1.389-.394v-15.19c0-8.355.097-15.25.215-15.324.644-.398 6.936-1.403 18.46-2.95 24.234-3.25 35.05-5.075 44.81-7.557 9.465-2.406 15.203-5.104 16.546-7.78.36-.716.4.671.4 14.235.002 12.542-.06 15.15-.377 15.762-.461.892-2.193 2.49-3.339 3.083l-.839.434 1.3.876c1.516 1.021 2.923 2.542 3.13 3.384.08.325.112 7.675.07 16.334l-.165 14.766-.623 1.277c-.249.51-1.18 1.401-1.979 2.077l-1.671 1.417.976.604c1.43.883 2.699 2.058 3.136 2.903.555 1.074.573 31.563.02 32.857-2.015 4.709-16.44 8.97-44.484 13.142-2.91.433-10.292 1.451-16.404 2.263-11.255 1.494-16.444 2.289-18.122 2.774-.508.147-.956.267-.994.267-.039 0-.04-6.756-.002-15.015z" style="fill:#fff;stroke-width:.264583" transform="matrix(2.32184 0 0 2.32184 -7.21 108.701)"/><path d="M45.88 45.517c-12.246-1.672-17.64-2.576-18.1-3.032-.606-.6 3.651-1.36 19.29-3.441 31.367-4.175 46.47-7.181 54.611-10.87l1.694-.768 1.156.677c2.614 1.532 3.956 3.735 3.276 5.377-1.98 4.78-15.345 8.911-41.987 12.979-2.93.447-5.847.801-6.482.786-.635-.015-6.691-.784-13.458-1.708Zm5.556-39.296c-4.001-.557-9.597-1.326-12.435-1.71-6.117-.827-10.614-1.647-10.978-2.003-.173-.169-.133-.337.117-.491.707-.437 6.193-1.321 18.137-2.924 32.457-4.353 44.7-6.74 54.571-10.639l2.713-1.071 1.431.95c1.584 1.052 2.638 2.3 2.91 3.45 1.114 4.699-9.956 9.11-32.929 13.121-6.028 1.053-15.027 2.406-15.717 2.363-.3-.019-3.818-.49-7.82-1.046Z" style="fill:#b3b3b3;stroke-width:.264583" transform="matrix(2.32184 0 0 2.32184 -7.21 108.701)"/></svg>