<svg xmlns="http://www.w3.org/2000/svg" width="1087.787" height="1087.787" viewBox="0 0 287.81 287.81"><path d="M252.91 253.975c-7.004-1.266-15.453-5.642-20.28-10.505-6.132-6.175-11.894-19.739-17.006-40.03-.66-2.62-5.329-23.371-10.375-46.115-5.047-22.743-9.26-41.257-9.361-41.143-19.948 45.124-39.917 90.239-59.753 135.411l-37.873-.03c30.195-65.3 53.312-115.013 85.934-185.29l-1.137-5.5c-4.203-20.321-8.496-34.102-14.036-45.056-5.385-10.648-11.45-16.69-19.167-19.093-5.563-1.258-12.477-.647-17.305 1.589-6.008 2.815-11.296 8.139-14.017 14.11-1.868 4.1-3.288 9.56-3.876 14.904a147.68 147.68 0 0 1-.418 3.506l-.127.86h-7.194c.85-19.013 5.742-40.089 16.064-52.874 6.705-8.042 14.967-12.214 24.182-12.214 10.063 0 20.008 6.228 26.98 16.895 4.12 6.305 8.393 16.234 11.726 27.25 5.68 18.778 10.772 40.006 26.952 112.356 5.11 22.847 9.993 44.397 10.854 47.89 3.683 14.952 7.603 26.69 11.574 34.66 5.259 10.553 12.603 17.196 21.4 19.358 2.581.634 8.293.635 11.008.003 8.367-1.95 13.77-7.501 17.144-17.611 1.306-4.574 2.256-8.634 2.688-13.524h7.173c.033 16.2-2.557 35.493-11.18 47.392-4.805 6.397-10.686 10.556-17.422 12.32-3.255.852-9.778 1.09-13.151.481z" style="fill:#fff;stroke-width:.264583" transform="translate(-52.509 33.495)"/></svg>