<svg xmlns="http://www.w3.org/2000/svg" width="300mm" height="300mm" viewBox="0 0 300 300"><path d="M-346.155 1108.676c-8.067-1.733-14.782-5.11-24.145-12.144-8.286-6.225-17.309-15.328-25.158-25.38-3.391-4.343-10.705-15.276-13.248-19.803-8.827-15.714-13.615-30.682-13.615-42.56 0-12.48 5.17-21.428 14.853-25.705 9.498-4.196 16.564-4.157 28.072.158 4.731 1.774 8.051 1.924 12.105.55 10.471-3.553 22.261-8.376 29.704-12.153l4.57-2.319-3.998-.025c-13.602-.087-31.085-2.223-44.176-5.397-32.1-7.783-55.295-21.852-72.301-43.856-10.267-13.284-17.53-30.667-20.003-47.872-1.203-8.366-1.133-20.324.156-26.658 1.44-7.079 2.527-10.483 4.924-15.424 3.424-7.056 7.655-11.587 13.57-14.533 6.377-3.176 12.008-3.206 18.324-.1 2.916 1.434 3.938 2.236 7.945 6.235 5.33 5.32 8.086 8.937 15.82 20.758 12.173 18.606 13.716 20.925 16.778 25.22 9.19 12.89 19.167 23.685 28.343 30.664 7.33 5.575 16.764 10.435 26.715 13.762 4.348 1.454 13.207 3.886 15.97 4.385l1.212.218-1.919-3.317c-7.226-12.495-13.763-27.441-16.18-36.994-1.991-7.871-1.267-15.642 2.118-22.729 5.54-11.599 15.071-20.488 42.69-39.815 18.384-12.864 30.229-19.13 41.611-22.014 2.254-.571 4.18-1.119 4.278-1.218.099-.098-2.003-1.438-4.67-2.978-4.891-2.822-14.72-9.309-18.94-12.5-21.443-16.214-38.005-34.497-51.346-56.684-2.22-3.691-6.905-13.572-8.087-17.05l-1.075-3.167-2.84-.24a84.282 84.282 0 0 0-5.857-.24c-7.108 0-25.458-1.966-26.847-2.876-2.03-1.33-2.536-4.616-.98-6.364 1.244-1.398 2.796-1.798 5.477-1.412 7.788 1.12 28.147 2.422 28.147 1.8 0-.165-.333-1.884-.74-3.817-2.208-10.48-2.976-21.066-2.332-32.161.252-4.353.701-9.446.997-11.318.296-1.871.494-3.446.44-3.5-.734-.734-20.705-8.51-30.164-11.746-5.62-1.922-6.398-2.313-7.157-3.599-1.233-2.087-.48-4.84 1.623-5.927 1.917-.99 2.118-.952 10.675 2.037 5.542 1.936 15.182 5.608 20.946 7.978 3.037 1.248 5.567 2.23 5.622 2.181.055-.049.774-2.768 1.597-6.043 6.143-24.432 18.597-50.844 34.534-73.233 1.917-2.693 1.96-3.067 1.11-9.724-.304-2.375-.823-6.632-1.155-9.46l-1.185-10.091-1.118-9.521c-.297-2.514-.81-6.884-1.143-9.711-.332-2.828-.847-7.198-1.145-9.711-.298-2.514-.807-6.884-1.133-9.711-.325-2.828-.84-7.198-1.142-9.712-.303-2.513-.817-6.883-1.143-9.71-.325-2.828-.84-7.198-1.142-9.712-.303-2.513-.819-6.883-1.146-9.71-.326-2.829-.84-7.198-1.14-9.712-1.452-12.162-1.485-12.653-.958-14.249 1.35-4.092 6.777-6.525 10.802-4.843 1.078.45 6.792 4.133 33.575 21.637 2.723 1.78 10.863 7.093 18.09 11.808a33517.462 33517.462 0 0 1 28.915 18.882l4.352 2.845 3.835-1.219c17.585-5.589 34.185-9.185 50.107-10.857 13.422-1.408 33.438-1.666 43.795-.562 1.99.212 5.16.541 7.045.732 1.885.191 5.196.62 7.357.952l3.929.604 2.575-2.392 12.256-11.38c5.325-4.942 12.68-11.778 16.346-15.19 3.665-3.412 11.066-10.293 16.446-15.291l9.783-9.087h14.456l.597 1.619c.328.89 1.38 4.874 2.337 8.854.958 3.98 2.408 9.977 3.224 13.329l3.426 14.09 3.427 14.091c4.821 19.79 5.713 23.534 5.713 23.988 0 .277 1.238 1.42 2.751 2.539 12.25 9.06 29.026 23.68 39.534 34.452 10.841 11.113 15.268 17.36 22.427 31.645 8.879 17.716 14.737 36.011 17.377 54.27.569 3.929.743 4.493 1.455 4.71.445.134 2.437.93 4.427 1.767 13.862 5.833 25.918 13.684 34.997 22.79 3.042 3.052 8.124 9.118 9.102 10.865.243.434.972.427 4.558-.045 26.416-3.47 48.975-11.747 64.813-23.78 1.58-1.2 3.344-2.27 3.92-2.38l1.047-.197-.015 4.994-.014 4.993-1.604 1.121c-12.861 8.993-28.046 15.62-45.876 20.02-4.735 1.169-14.142 2.97-18.1 3.466-1.931.243-3.564.484-3.629.538-.065.053.304 1.101.82 2.328 1.23 2.931 2.42 6.593 3.14 9.657.792 3.366 1.672 10.983 1.676 14.501.006 2.676-.55 9.892-.936 12.21-.163.981-.087 1.022 3.338 1.785 3.569.795 7.777 1.621 11.883 2.332 8.507 1.474 25.79 2.266 34.93 1.602 6.42-.466 7.489-.264 8.664 1.638 1.193 1.93 1.023 3.84-.476 5.339-1.685 1.686-3.32 1.849-18.174 1.812-15.062-.036-24.676-1.055-38.1-4.035l-4.016-.891-1.247 4.037c-4.157 13.461-10.692 25.518-20.559 37.93-4.032 5.073-15.234 16.486-20.241 20.624-31.56 26.08-73.318 43.08-128.53 52.322-17.993 3.013-34.315 4.856-49.04 5.538-3.095.144-5.708.392-5.807.553-.32.516 27.251 27.879 32.379 32.135 5.785 4.802 12.123 9.122 16.264 11.085 3.047 1.444 6.576 2.071 8.169 1.452.452-.176 3.708-3 7.236-6.274 11.562-10.732 13.326-12.213 19.513-16.375 13.154-8.848 24.517-10.545 35.668-5.327 4.886 2.286 10.96 7.247 14.096 11.51 8.025 10.912 5.682 25.385-6.71 41.458-9.325 12.096-26.764 26.858-39.968 33.834-5.543 2.928-13.612 5.499-21.206 6.756-4.975.823-15.34.826-20.648.012-15.217-2.355-29.476-8.932-43.514-20.073-2.165-1.719-6.355-5.5-9.311-8.406l-5.375-5.28-2.228 4.068c-2.785 5.087-6.61 10.832-12.27 18.433-5.89 7.91-8.949 11.57-13.859 16.588l-4.121 4.21 3.334 3.199c1.834 1.759 6.419 6.211 10.189 9.894 37.024 36.166 36.111 35.305 53.125 50.102 18.486 16.076 28.554 24.522 29.037 24.356 1.144-.393 10.446-1.39 17.899-1.917 28.557-2.02 50.949.808 65.456 8.265 13.488 6.933 20.152 17.312 20.13 31.35-.009 4.714-.689 8.031-2.414 11.765-5.7 12.34-20.363 20.167-44.612 23.817-12.8 1.926-30.184 2.66-47.12 1.99-15.832-.627-29.878-1.77-33.67-2.74-5.595-1.431-8.285-3.01-14.782-8.675-5.57-4.857-20.46-18.026-24.198-21.402l-9.312-8.41c-17.175-15.508-30.4-27.683-39.053-35.952-2.2-2.101-8.797-8.453-14.662-14.115-14.717-14.207-31.466-29.783-34.899-32.454-.535-.417-1.588.156-7.426 4.043-34.747 23.133-67.447 39.506-101.628 50.885-2.094.697-4.365 1.386-5.046 1.53-.68.146-1.238.401-1.238.569 0 .167 1.264 2.167 2.81 4.444 11.623 17.133 16.377 30.616 14.543 41.245-1.587 9.198-6.958 15.816-16.781 20.68-8.601 4.259-14.908 5.315-22.279 3.732zm10.663-8.54c5.77-1.389 12.397-4.972 15.526-8.395 2.29-2.506 3.415-4.813 4.183-8.577 1.671-8.198-2.614-19.807-13.01-35.242-1.694-2.514-3.308-5.084-3.589-5.713-.853-1.91-.643-5.538.444-7.668 1.48-2.9 2.64-3.731 7.11-5.09 31.428-9.556 65.816-26.342 100.062-48.843 4.45-2.925 8.092-5.452 8.092-5.617 0-.498-22.14-19.211-29.216-24.694l-1.605-1.244-2.012 1.51c-6.93 5.2-17.64 7.884-26.195 6.566-3.54-.545-8.719-2.093-11.184-3.343l-1.86-.942-2.065 1.459c-7.246 5.115-10.135 7.019-15.738 10.37-8.942 5.348-15.576 8.94-26.468 14.33-9.836 4.867-14.217 6.757-23.992 10.347-13.819 5.075-16.716 5.3-25.533 1.977-9.205-3.469-14.331-3.501-21.349-.135-4.255 2.041-6.741 4.545-8.375 8.435-1.06 2.521-1.09 2.785-1.09 9.26-.001 6.006.102 7.073 1.044 10.807 6.431 25.508 27.244 55.707 49.323 71.568 10.363 7.444 20.218 10.624 27.497 8.873zm332.698-4.177c26.99-2.71 42.635-9.129 47.926-19.666 1.433-2.852 1.848-5.41 1.63-10.05-.303-6.482-2.026-10.858-5.977-15.181-9.979-10.918-31.577-16.014-62.39-14.718-8.053.339-19.521 1.381-24.648 2.24-4.528.76-4.629.727-8.992-2.916-6.836-5.71-21.827-18.587-32.709-28.1-9.368-8.188-36.308-33.956-59.124-56.55l-7.14-7.071v-1.873c0-1.782.097-1.958 1.987-3.614 13.067-11.442 24.765-26.632 33.25-43.173 8.697-16.957 13.894-30.56 15.862-41.518 1.14-6.343 1.214-17.122.145-20.825-.993-3.436-2.18-5.662-3.893-7.297-2.636-2.514-3.39-2.666-14.029-2.828-14.16-.214-38.647-2.666-51.03-5.11l-5.77-1.135c-4.576-.9-7.722-1.595-12.891-2.85-4.01-.973-8.733-1.9-11.633-2.282l-1.732-.228.16 3.65c.203 4.648-.529 7.844-2.96 12.94-2.684 5.62-5.952 9.94-12.392 16.38-4.943 4.945-7.446 7.015-18.475 15.281-7.017 5.26-14.729 10.969-17.138 12.688-4.776 3.41-5.534 4.43-5.237 7.065.14 1.247.898 2.437 4.09 6.427 15.935 19.921 20.67 29.078 20.7 40.031.018 6.048-1.439 10.67-4.864 15.437l-1.271 1.77 3.286 2.63c9.935 7.955 26.282 21.952 39.278 33.635 11.144 10.017 16.897 15.44 42.082 39.66 23.817 22.905 77.205 70.893 81.642 73.384 3.614 2.03 6.773 2.607 19.092 3.489 15.126 1.082 15.204 1.085 32.365.962 9.897-.07 17.012-.304 20.8-.684zm-307.58-138.996c6.473-3.959 13.4-8.677 13.257-9.028-.056-.135-1.644-1.538-3.53-3.116-4.977-4.168-10.09-9.69-14.583-15.756l-2.005-2.706-2.776-.235c-4.08-.344-12.975-2.46-21.193-5.04-13.143-4.125-24.996-10.278-34.144-17.724-3.533-2.875-12.706-11.722-12.59-12.141.046-.16-.791-1.384-1.859-2.72-13.076-16.356-18.879-24.516-35.57-50.024-6.989-10.679-10.183-14.39-14.008-16.273-2.336-1.15-2.838-1.252-6.176-1.252-3.337 0-3.841.102-6.172 1.25-11.47 5.646-17.884 29.484-13.779 51.21 1.418 7.504 5.322 18.655 9.32 26.62 7.33 14.605 19.263 27.721 34.416 37.827 18.962 12.646 45.88 20.53 76.563 22.425 1.047.065 8.073.102 15.614.084l13.71-.032 5.506-3.368zm45.407-8.81c3.022-.708 8.065-2.588 8.687-3.238.105-.11 1.148-.927 2.319-1.816 10.76-8.172 12.892-17.384 6.854-29.61-2.635-5.336-6.203-10.583-13.343-19.62-3.388-4.29-6.484-8.418-6.88-9.174-.394-.757-.921-2.483-1.17-3.836-.383-2.075-.355-2.903.177-5.29 1.055-4.734 1.967-5.88 8.119-10.209 2.973-2.092 10.942-7.956 17.708-13.032 10.184-7.64 13.192-10.12 17.464-14.401 9.733-9.754 13.995-18.244 12.343-24.586-1.15-4.416-4.642-7.755-10.39-9.935-1.818-.69-4.589-1.787-6.157-2.44-9.192-3.821-21.567-2.726-34.751 3.076-8.852 3.895-19.67 10.711-37.611 23.697-17.755 12.85-25.883 20.685-29.7 28.626-4.347 9.043-4.004 14.67 1.795 29.514 1.975 5.055 7.884 17.273 10.775 22.279 13.144 22.757 27.997 36.897 41.975 39.96 3.221.705 8.852.722 11.786.034zm229.186-23.604c6.458-.784 13.1-2.55 18.293-4.865 3.254-1.45 9.624-5.402 14.458-8.972 16.065-11.86 28.47-25.633 32.681-36.284 3.574-9.04 2.367-15.651-3.954-21.656-8.576-8.146-17.734-9.689-28.196-4.748-6.764 3.194-12.41 7.513-24.347 18.623-3.762 3.502-7.697 6.939-8.744 7.638-5.951 3.97-14.26 2.192-25.699-5.502-6.823-4.59-13.188-10.125-24.203-21.054l-7.63-7.57-.451 6.01c-.757 10.09-2.597 18.34-6.056 27.143-1.38 3.51-6.199 14.842-6.84 16.082-.524 1.012-.472 1.112 2.075 3.998 7.578 8.587 18.526 17.309 28.246 22.5 14.025 7.49 27.02 10.278 40.367 8.657zM-81.48 812.981c17.235-1.416 31.475-3.485 50.225-7.297 47.348-9.626 83.65-25.249 110.865-47.71 5.307-4.381 15.1-14.147 19.147-19.094 9.096-11.12 15.753-22.824 19.687-34.615.866-2.597 1.437-4.848 1.269-5.002-.169-.155-1.42-.668-2.782-1.14-7.136-2.476-9.044-4.246-7.997-7.418.556-1.685 2.043-2.856 3.629-2.856.682 0 2.992.695 5.133 1.543 2.141.849 3.94 1.491 3.999 1.428.26-.282.949-8.243.949-10.964 0-4.364-.975-11.13-2.228-15.467-1.205-4.168-3.34-9.538-3.943-9.91-.213-.131-2.089-.208-4.17-.169l-3.782.07-1.317-1.317c-1.05-1.049-1.317-1.617-1.317-2.793 0-2.374 1.406-3.83 4.143-4.287l1.286-.215-1.631-2.095c-4.664-5.99-13.465-13.447-21.526-18.238-6.996-4.159-17.317-8.713-23.84-10.522l-2.153-.596-.25-2.745c-1.517-16.59-6.475-34.606-14.117-51.3-3.654-7.982-8.719-17.21-11.835-21.566-8.996-12.572-27.666-30.034-52.288-48.908-3.67-2.813-3.073-1.45-6.078-13.88-1.063-4.398-2.975-12.281-4.249-17.518-3.957-16.27-6.123-25.194-10.285-42.382-1.225-5.06-1.226-5.062-2.023-4.38-.772.661-9.507 8.76-25.207 23.372a255710.46 255710.46 0 0 1-21.653 20.149l-14.05 13.072-2.896-.46c-14.874-2.358-26.816-3.228-40.6-2.957-19.891.39-31.979 1.914-50.328 6.344-9.288 2.242-22.91 6.356-25.324 7.648-.678.363-.927.207-30.505-19.134-2.774-1.814-6.93-4.525-9.233-6.024a5592.101 5592.101 0 0 1-8.665-5.65c-24.914-16.287-37.534-24.519-38.203-24.92-.259-.155-.364.13-.288.782l1.271 10.93a14354.22 14354.22 0 0 0 2.855 24.372c.296 2.514.807 6.884 1.136 9.711.329 2.828.846 7.198 1.149 9.711.303 2.514.809 6.798 1.124 9.521a8424.803 8424.803 0 0 0 4.997 42.081c1.152 9.53 2.083 17.829 2.068 18.44-.015.62-.586 1.887-1.286 2.857-7.087 9.812-9.58 13.615-14.248 21.737-6.87 11.951-12.79 24.99-17.228 37.943-2.267 6.617-5.707 19.218-5.707 20.905 0 .661.502 1.06 2.38 1.894 13.164 5.842 26.903 13.45 35.322 19.558 7.33 5.318 8.379 6.452 8.379 9.06 0 2.004-2.031 3.943-4.13 3.943-1.343 0-1.973-.35-4.894-2.712-4.297-3.474-11.456-8.186-18.129-11.93-5.24-2.941-19.683-10.112-20.367-10.112-.435 0-.733 2.392-1.275 10.238-.794 11.512.35 25.019 2.965 34.985l.624 2.38 2.705-.004c12.27-.015 28.025-2.498 37.63-5.931 2.917-1.043 2.945-1.046 4.454-.365 3.495 1.576 3.536 6.038.072 7.805-2.241 1.143-9.55 3.253-15.079 4.352-6.81 1.355-13.375 2.125-20.484 2.404-3.306.13-6.098.374-6.202.544-.105.17.432 1.814 1.192 3.654 6.302 15.24 18.803 32.897 34.05 48.092 14.88 14.832 30.935 26.43 50.028 36.143 31.918 16.236 68.559 25.406 110.313 27.607 7.045.372 41.808-.122 48.746-.692zm-11.234-31.659c-15.22-1.686-29.974-6.753-40.749-13.993-13.391-9-22.553-22.725-26.667-39.954-1.86-7.79-2.5-13.491-2.724-24.293-.305-14.682.244-17.22 4.284-19.781 3.066-1.945 4.169-1.88 12.042.7 23.221 7.61 49.919 13.329 74.76 16.011 12.354 1.334 22.124 1.736 42.271 1.736 20.376.001 25.815-.273 35.798-1.808 7.355-1.131 9.102-1.095 11.374.236 3.328 1.95 5.009 5.918 4.076 9.62-1.7 6.75-8.299 19.727-14.292 28.102-5.501 7.689-13.413 16.14-20.01 21.373-10.789 8.562-23.934 15.107-37.414 18.63-13.603 3.556-29.822 4.854-42.75 3.421zm25.896-8.72c14.801-1.888 27.276-5.983 38.273-12.564 16.387-9.807 29.622-24.441 37.959-41.97 2.286-4.807 4.431-10.393 4.018-10.46-.337-.056.318-.138-6.226.779-9.193 1.288-14.72 1.607-31.528 1.821-27.136.345-45.252-.849-67.637-4.459-18.462-2.977-39.37-7.947-55.522-13.2-3.535-1.15-6.54-1.978-6.677-1.84-.457.455-.517 15.155-.082 19.99 2.167 24.052 10.189 39.323 26.321 50.103 9.691 6.476 21.67 10.333 38.822 12.5 2.7.34 17.848-.135 22.279-.7zm15.043-100.955c-4.378-.796-8.438-2.246-14.281-5.101-15.27-7.46-25.418-17.42-25.997-25.518-.324-4.524 1.436-7.667 5.495-9.815 5.6-2.963 11.666-3.887 27.356-4.169 22.62-.406 34.173 1.653 37.865 6.75 1.465 2.022 1.713 4.129.983 8.339-2.078 11.977-10.485 24.431-19.1 28.298-4.105 1.842-7.203 2.147-12.321 1.216zm-120.883-10.88c-6.582-.531-13.697-2.519-20.338-5.681-19.734-9.398-38.035-31.554-46.091-55.803-3.142-9.455-4.35-16.77-4.372-26.444-.013-6.157.128-8.152.823-11.678 2.455-12.45 7.52-21.344 15.68-27.536 3.813-2.894 5.775-3.998 9.572-5.387 4.535-1.66 8.076-2.241 13.597-2.235 19.811.025 41.905 14.347 58.98 38.235 14.571 20.386 20.615 46.64 15.478 67.238-.922 3.693-3.953 10.582-6.06 13.771-2.435 3.684-7.125 8.302-10.147 9.992-4.906 2.744-12.396 5.039-17.596 5.392-1.695.115-3.682.262-4.415.326-.733.063-3.033-.022-5.111-.19zm11.869-9.06c7.493-1.452 13.077-4.345 16.51-8.553 7.5-9.192 10.131-25.077 6.82-41.171-4.04-19.635-15.577-38.355-32.45-52.654-16.304-13.817-34.2-18.415-46.904-12.051-9.401 4.71-15.583 13.906-17.566 26.135-.721 4.447-.73 13.375-.018 18.381 2.299 16.169 9.175 31.416 20.552 45.574 3.92 4.878 10.555 11.221 15.26 14.59 3.923 2.808 10.86 6.492 15.043 7.989 7.055 2.523 15.463 3.174 22.753 1.76zm-5.63-28.551c-6.965-1.457-11.676-9.26-10.114-16.753 1.01-4.84 3.346-8.048 7.271-9.98 2.176-1.071 2.725-1.186 5.03-1.05 10.659.634 16.301 13.003 10.155 22.262-2.765 4.166-7.88 6.454-12.342 5.52zM8.828 637.558c-13.855-1.374-28.86-9.48-42.26-22.832-13.838-13.787-23.485-30.638-28.243-49.332-1.72-6.762-2.39-12.087-2.39-19.022 0-6.851.618-11.151 2.379-16.537 1.96-6 4.256-9.951 8.175-14.068 11.51-12.094 29.432-13.632 48.247-4.14 8.422 4.248 14.859 9.019 22.429 16.623 16.085 16.16 27.18 37.638 30.262 58.582.856 5.817.766 15.827-.187 20.738-3.095 15.952-13.27 27.082-27.039 29.579-3.253.59-7.878.756-11.373.41zm10.817-8.935c10.805-2.756 17.427-10.997 19.425-24.175 1.9-12.53-1.19-27.794-8.75-43.224-15.138-30.898-45.161-51.949-66.255-46.454-4.488 1.169-9.398 4.338-12.527 8.086-10.592 12.686-9.154 38.668 3.44 62.167 11.954 22.304 32.082 39.502 50.97 43.551 3.555.762 10.799.788 13.697.049zM9.811 602.53c-2.924-.733-5.564-2.667-7.47-5.473-4.765-7.01-2.342-17.361 4.97-21.235 2.413-1.277 7.762-1.278 10.224 0 8.21 4.261 10.137 15.837 3.832 23.018-2.528 2.879-7.921 4.6-11.556 3.69z" style="fill:#fff;stroke-width:.380828" transform="matrix(.42367 0 0 .42367 208.568 -171.025)"/></svg>