<svg xmlns="http://www.w3.org/2000/svg" width="300mm" height="300mm" viewBox="0 0 300 300"><path d="M365.896 551.44c-7.817-6.628-22.482-19.868-26.594-24.008-8.518-8.576-11.42-15.857-9.546-23.942 1.381-5.96 3.629-10.072 10.77-19.703 9.754-13.153 16.826-18.561 25.731-19.678 7.278-.912 15.537 1.591 25.08 7.603 13.642 8.593 20.468 17.66 20.468 27.187 0 4.432-1.002 7.04-6.62 17.216-3.861 6.992-11.627 17.888-17.178 24.103-6.117 6.846-15.444 15.325-16.822 15.29-.279-.007-2.66-1.837-5.29-4.068zM87.323 538.018c-10.932-11.208-18.851-24.757-23.838-40.786-3-9.642-3.837-15.722-3.552-25.803.303-10.761 1.747-17.272 5.533-24.944 4.372-8.862 10.27-12.704 17.67-11.512 5.96.96 8.948 3.866 17.833 17.346a4944.378 4944.378 0 0 1 9.924 15.112c5.865 8.994 15.074 21.589 24.22 33.127 1.974 2.491 3.533 4.579 3.464 4.64-.07.06-1.417-.135-2.996-.433-4.195-.793-15.242-1.091-19.692-.531-11.653 1.467-20.336 6.697-24.363 14.676-2.492 4.936-3.338 12.667-2.092 19.108.275 1.42.48 2.582.454 2.582-.025 0-1.18-1.162-2.565-2.582zm323.335-110.91c-.737-.068-3.75-.304-6.695-.525-33.291-2.495-65.092-13.053-87.994-29.214-7.843-5.535-17.535-14.537-22.909-21.279-11.58-14.53-18.007-30.4-19.391-47.892-1.465-18.508 4.523-38.21 16.912-55.642 5.35-7.528 12.769-14.963 19.565-19.608l1.83-1.25 2.953 2.767c20.595 19.303 44.59 24.783 65.33 14.922 4.276-2.034 7.706-4.906 10.916-9.142 1.91-2.522 4.906-8.049 5.692-10.503.253-.789.667-1.434.92-1.434.537 0 4.876 1.124 19.566 5.068 5.892 1.582 12.707 3.359 15.146 3.948l4.434 1.07 1.097 2.13c1.739 3.377 8.567 9.935 14.302 13.738 8.193 5.432 18.155 9.755 24.895 10.802 3.544.551 7.679.237 10.43-.793 8.911-3.334 18.276-16.45 20.34-28.487l.456-2.662 4.761-2.886c2.618-1.586 5.232-3.205 5.808-3.596 1.044-.71 1.06-.706 5.179.837 9.88 3.703 20.724 4.382 28.59 1.79 9.982-3.29 17.418-10.834 21.258-21.567l.87-2.434 3.09.255c13.24 1.094 23.677 4.433 37.14 11.882 8.664 4.794 19.526 13.848 23.87 19.896l1.235 1.721h-1.4c-1.084 0-1.697.295-2.703 1.3-1.093 1.094-1.3 1.576-1.3 3.02 0 1.37.226 1.962 1.11 2.909 1.25 1.339 1.212 1.33 6.088 1.358l3.563.021 1.16 2.678c3.851 8.895 5.399 18.588 4.52 28.311-.247 2.736-.529 5.056-.626 5.157-.098.101-1.243-.216-2.545-.705-6.225-2.338-6.304-2.359-7.418-1.937-2.525.957-3.732 3.44-2.785 5.727.733 1.768 1.95 2.427 9.996 5.407l1.012.375-.953 3.127c-3.63 11.902-11.343 25.68-20.514 36.64-26.804 32.034-71.642 54.972-131.194 67.114-27.758 5.659-48.298 7.887-71.68 7.773-6.924-.034-13.19-.118-13.927-.186zm47.057-31.893c36.182-3.126 65.098-20.953 83.202-51.294 5.082-8.517 9.325-18.35 9.644-22.349.158-1.98.034-2.584-.9-4.397-1.345-2.61-3.67-4.447-6.09-4.81-1.133-.17-3.614.021-6.983.538-8.784 1.347-11.668 1.593-24.106 2.059-18.418.69-44.641-.265-60.29-2.194-24.588-3.03-50.193-8.72-72.212-16.044-2.88-.958-5.701-1.741-6.269-1.741-2.194 0-4.185.934-6.149 2.886-2.818 2.802-2.953 3.703-2.705 18.149.21 12.186.63 16.21 2.54 24.3 2.282 9.673 6.056 18.226 11.358 25.744 3.163 4.485 10.864 11.801 15.955 15.158 4.353 2.87 10.288 5.916 15.62 8.016 5.733 2.258 15.645 4.654 23.857 5.768 4.595.623 17.426.738 23.528.211zm-16.26-8.274c-3.342-.175-8.607-.865-13.198-1.73-14.685-2.769-27.235-8.72-36.025-17.085-10.285-9.785-15.674-21.498-18.164-39.476-.674-4.87-1.025-24.107-.45-24.683.143-.144 2.01.36 4.147 1.12 17.34 6.167 49.501 13.352 71.916 16.067 30.643 3.713 69.657 3.707 90.824-.012l1.491-.262-.274 1.111c-.506 2.049-3.725 9.32-6.044 13.653-10.448 19.521-26.445 34.478-46.06 43.066-8.5 3.722-18.409 6.287-28.842 7.466-5.236.592-15.129.983-19.32.765zm-90.671-122.197c-16.837-3.497-32.192-15.469-44.3-34.539-16.018-25.23-18.638-55.112-6.278-71.617 3.17-4.232 8.49-8.177 13.46-9.981 10.816-3.927 26.01-.231 39.184 9.53 17.245 12.779 30.826 31.9 35.972 50.646 5.522 20.118 3.004 38.567-6.64 48.648-4.804 5.024-14.039 8.139-23.892 8.06-2.357-.018-5.509-.332-7.506-.747zm17.872-29.6c2.589-1.225 4.973-3.749 6.36-6.73 1.316-2.834 1.604-7.789.624-10.766-1.601-4.869-5.465-8.338-10.556-9.479-7.499-1.68-15.269 6.585-14.36 15.277.375 3.59 1.604 6.29 4.02 8.84 4.001 4.22 8.908 5.228 13.912 2.859zm167.489 6.66c-11.26-1.826-24.47-9.471-35.39-20.48-7.91-7.978-13.812-16.275-18.769-26.387-16.716-34.104-10.095-65.502 14.392-68.245 9.02-1.01 19.605 2.295 30.438 9.504 19.242 12.805 34.979 36.492 39.917 60.08 3.668 17.521.063 33.713-9.042 40.612-4.834 3.662-8.56 4.949-14.851 5.127-2.525.071-5.538-.024-6.695-.211zm10.082-27.31c2.564-1.255 4.972-3.81 6.287-6.673 1.329-2.893 1.628-7.827.656-10.833-1.927-5.958-6.451-9.566-12.04-9.6-2.903-.019-6.212 1.224-8.191 3.076-2.72 2.544-4.807 7.384-4.823 11.184-.009 2.16 1.072 5.744 2.402 7.961 1.467 2.446 3.383 4.05 6.323 5.291 2.883 1.218 6.376 1.066 9.386-.407z" style="fill:#fdfdfd;stroke-width:.382582" transform="matrix(.42367 0 0 .42367 -14.551 -7.032)"/><path d="M182.448 715.418c-10.107-2.477-19.755-8.574-31.124-19.67-15.92-15.537-29.343-36.47-35.4-55.207-4.256-13.165-4.154-23.337.3-29.829 2.712-3.953 8.986-6.963 15.17-7.278 4.34-.22 7.334.365 13.122 2.567 6.987 2.656 11.671 2.716 18.853.239 14.37-4.956 24.512-9.342 37.825-16.358 15.355-8.092 23.41-12.871 32.084-19.035l4.913-3.491 3.691 1.501c4.337 1.764 7.93 2.627 12.35 2.967 7.77.596 17.418-2.196 23.53-6.811 1.257-.949 2.206-1.414 2.514-1.232 1.53.902 19.018 15.42 26.633 22.11l4.331 3.805-6.052 3.986c-36.744 24.197-70.461 40.696-104.568 51.168-2.827.868-4.315 2.075-5.508 4.468-1.085 2.178-1.344 5.472-.588 7.463.225.59 1.58 2.796 3.013 4.903 7.81 11.481 12.118 20.406 13.585 28.141.742 3.91.742 6.379.003 9.514-.82 3.48-2.237 5.84-5.157 8.595-2.615 2.467-7.26 5.08-12.043 6.775-2.627.93-8.972 1.323-11.478.709zm303.004-3.65c-.63-.058-4.332-.295-8.225-.526-15.604-.927-18.698-1.367-22.78-3.241-2.916-1.339-5.192-3.19-19.495-15.864-27.113-24.023-53.186-48.059-75.369-69.48-24.654-23.806-51.015-47.299-70.1-62.47l-3.515-2.796 1.278-1.796c6.431-9.036 6.566-20.332.386-32.4-3.14-6.132-6.86-11.477-15.933-22.89-4.201-5.283-4.51-5.785-4.51-7.34 0-2.708.484-3.377 4.422-6.123 5.735-3.999 28.292-21.006 31.837-24.005 9.144-7.734 16.479-17.516 19.076-25.44.955-2.914 1.096-3.927 1.096-7.841 0-3.9.083-4.496.624-4.496 1.143 0 8.9 1.446 12.002 2.237 20.518 5.234 50.996 9.229 70.476 9.237 8.099.004 9.07.075 11.043.813 5.35 2.002 7.744 7.084 8.087 17.172.323 9.514-1.571 19.787-5.503 29.842-3.807 9.734-12.495 28.487-14.09 30.415-.349.42.5-1.426 1.885-4.105 2.841-5.493 3.661-8.13 3.661-11.772 0-9.526-6.826-18.594-20.468-27.187-9.543-6.012-17.802-8.515-25.08-7.603-6.278.787-10.977 3.34-16.85 9.157-4.21 4.169-12.196 14.482-15.404 19.894-4.718 7.959-5.902 15.1-3.57 21.526 2.486 6.848 5.667 10.342 25.716 28.242 8.015 7.156 14.531 12.593 15.092 12.593.261 0 1.165-.547 2.01-1.216l1.534-1.215-.619 1.197c-.34.658-.621 1.85-.625 2.65-.007 1.68-2.665-1.028 33.68 34.318 13.415 13.046 26.095 24.983 32.513 30.607 15.07 13.205 35.875 30.936 37.02 31.548.84.45 1.835.41 7.133-.285 18.594-2.437 35.15-2.89 49.197-1.346 6.664.733 10.674 1.46 15.86 2.879 17.716 4.846 26.696 14.285 26.704 28.071.004 4.193-.801 7.314-2.63 10.213-6.423 10.174-23.328 16.3-50.974 18.473-6.476.509-32.227.757-36.592.353zM186.465 575.03c-19.492-.669-36.461-3.595-53.23-9.18-14.604-4.864-26.112-10.972-36.486-19.363-6.77-5.477-6.727-5.427-7.3-8.396-1.261-6.516-.426-14.223 2.077-19.181 4.027-7.98 12.71-13.21 24.363-14.676 4.38-.551 15.458-.267 19.573.503l2.75.514 4.519 4.382c12.212 11.842 22.477 18.356 37.814 23.996 7.365 2.71 21.446 6.33 26.463 6.805l2.753.261 2.846 3.683c4.687 6.063 11.249 12.878 16.103 16.724.82.65 1.39 1.346 1.265 1.547-.367.593-8.479 5.96-14.048 9.294l-5.162 3.09-5.168.004c-2.842 0-6.287.07-7.655.153-1.367.082-6.532.011-11.477-.159zm63.891-12.41c-8.448-1.904-16.785-7.387-25.222-16.587-10.936-11.925-21.704-30.103-28.72-48.482-3.354-8.787-4.357-14.429-3.47-19.521 1.987-11.412 10.786-20.951 35.78-38.79 19.673-14.041 28.978-19.585 39.124-23.31 7.422-2.724 10.422-3.264 18.088-3.257 7.36.007 7.546.046 15.877 3.372 5.421 2.164 7.138 3.07 9.093 4.8 7.92 7.008 5.07 17.417-8.5 31.037-4.94 4.96-7.204 6.81-20.135 16.451-8.012 5.975-15.894 11.772-17.516 12.884-1.622 1.112-3.288 2.575-3.703 3.252-1.462 2.384-2.332 5.35-2.377 8.107-.07 4.3.703 5.95 5.786 12.353 9.62 12.12 12.606 16.395 15.514 22.214 2.427 4.857 3.342 7.83 3.568 11.59.32 5.34-.9 8.996-4.534 13.578-4.092 5.162-10.56 9.113-17.099 10.448-2.639.538-8.88.463-11.554-.14zm125.487-10.212c.315-.315 2.726-2.622 5.356-5.126 4.217-4.015 4.375-4.133 1.339-.999-1.894 1.955-4.304 4.262-5.356 5.126-1.052.864-1.655 1.314-1.34.999zm101.33-13.538c-13.486-1.84-27.704-8.506-41.074-19.258-3.116-2.506-11.448-10.53-13.63-13.127l-1.502-1.786 1.763-3.952c2.94-6.594 6.53-15.603 7.75-19.447 2.272-7.16 3.8-16.193 3.99-23.576l.1-3.873 8.227 8.081c18.114 17.794 28.902 25.543 38.957 27.987 3.458.84 6.503.628 9.246-.646 2.098-.974 3.522-2.172 12.857-10.82 9.51-8.811 15.345-13.229 21.46-16.248 5.899-2.913 12.087-3.82 17.116-2.511 4.559 1.187 9.934 4.647 13.693 8.814 5.375 5.956 5.476 14.564.286 24.186-6.64 12.31-23.919 28.883-40.14 38.5-11.259 6.676-25.681 9.507-39.098 7.676zm-72.254-22.372c.225-.421.496-.766.6-.766.106 0 .008.345-.217.766-.226.42-.496.765-.601.765-.105 0-.007-.345.218-.765zm-3.443-88.762c-45.175-2.078-81.958-11.096-115.349-28.28-27.963-14.39-51.146-34-68.552-57.99-6.972-9.608-13.444-20.92-16.111-28.156l-.789-2.141 5.998-.238c12.207-.484 24.815-2.668 34.019-5.893 4.168-1.46 5.592-3.307 4.68-6.07-.923-2.796-3.398-3.496-7.264-2.055-7.966 2.969-20.83 5.114-33.536 5.592l-6.568.248-.44-1.633c-2.438-9.053-3.223-15.777-3.24-27.753-.014-8.945.543-17.9 1.152-18.511.248-.25 2.372.704 10.118 4.544 12.786 6.339 21.633 11.694 28.408 17.197 1.842 1.496 3.864 2.822 4.493 2.948 2.46.492 4.974-1.638 4.974-4.215 0-1.88-1.455-3.44-7.224-7.74-8.016-5.975-22.897-14.334-36.085-20.27-2.795-1.258-3.303-1.622-3.161-2.264 3.773-17.114 9.167-32.054 17.61-48.78 5.25-10.4 12.805-22.822 18.157-29.852 3.311-4.35 3.26-4.158 2.533-9.631-.648-4.873-1.1-8.69-5.6-47.171a147897.17 147897.17 0 0 0-5.712-48.778c-1.666-14.203-2.98-25.872-2.919-25.933.06-.06 6.288 3.93 13.838 8.868 7.55 4.938 15.88 10.38 18.51 12.093 2.63 1.713 6.805 4.436 9.276 6.051l24.632 16.094 20.139 13.157 6.548-2.156c26.096-8.593 47.917-12.117 74.92-12.102 11.566.007 22.005.834 34.122 2.703 4.83.745 4.953.746 5.739.042 2.432-2.175 47.673-44.217 55.806-51.86 2.897-2.722 5.362-4.854 5.478-4.737.117.116 4.386 17.388 9.489 38.382l9.276 38.17 2.27 1.723c15.88 12.051 27.906 22.392 39.192 33.703 12.59 12.618 16.375 17.842 23.707 32.732 7.129 14.475 11.9 28.233 14.739 42.5 1.048 5.268 2.402 16.44 2.037 16.804-.128.128-1.585-.024-3.239-.337-1.653-.313-5.208-.783-7.9-1.044-3.346-.324-4.841-.611-4.727-.91.092-.24.487-1.889.877-3.665.987-4.492.996-18.005.016-23.315-2.701-14.628-8.113-27.767-16.74-40.64-13.666-20.396-32.16-34.347-50.927-38.419-4.804-1.042-13.235-.953-17.529.186-4.005 1.062-8.762 3.365-11.944 5.78-12.953 9.836-17.55 28.796-12.526 51.668 2.55 11.613 9.585 27.115 16.925 37.302 5.555 7.71 14.3 16.923 20.936 22.062 4.198 3.25 9.038 6.358 13.033 8.366l3.178 1.598-.932.72c-1.168.904-9.521 5.956-10.412 6.298-.571.219-.659-.012-.659-1.74 0-4.772-3.059-7.27-11.224-9.167-5.641-1.31-12.015-1.74-25.312-1.71-13.477.03-19.4.524-24.998 2.081-4.942 1.375-8.343 3.648-9.867 6.594-.887 1.717-1.082 5.452-.399 7.652.404 1.298.44 1.815.124 1.811-.66-.008-9.584-2.28-20.335-5.177a1833.783 1833.783 0 0 0-14.174-3.767l-4.61-1.189.52-1.721c2.013-6.684 2.839-16.766 2.022-24.677-2.025-19.607-9.687-36.803-23.846-53.515-12.798-15.105-27.89-25.104-43.506-28.822-4.365-1.04-14.776-.93-18.938.2-10.547 2.863-19.965 10.893-24.764 21.115-9.098 19.38-5.625 47.888 8.724 71.597 3.866 6.388 8.721 12.992 12.583 17.116l1.927 2.058-1.113.811c-8.82 6.43-14.871 12.43-20.449 20.278-21.889 30.8-22.809 66.049-2.523 96.648 6.628 9.996 17.008 20.471 27.91 28.165 12.436 8.775 28.42 16.388 44.38 21.138 6.605 1.966 19.456 4.973 24.677 5.773 8.363 1.283 10.68 1.584 16.642 2.158 3.577.344 11.755.747 18.173.896 6.418.149 9.587.3 7.043.337-2.544.037-7.709.14-11.477.23-3.769.088-10.037.014-13.93-.165zm95.19-8.293c.277-.11.607-.097.734.03s-.099.218-.502.201c-.446-.018-.536-.109-.231-.231zm10.713-2.296c.276-.11.606-.096.734.03.127.128-.1.218-.503.202-.445-.019-.536-.11-.23-.231zm1.53-.382c.277-.11.607-.097.734.03s-.1.218-.502.201c-.446-.018-.537-.109-.231-.231zm3.061-.765c.276-.11.606-.097.733.03.128.127-.098.218-.502.2-.445-.017-.536-.108-.23-.23zm1.53-.383c.277-.11.607-.097.734.03s-.1.218-.502.201c-.446-.018-.537-.109-.231-.23zm1.53-.382c.277-.11.607-.097.734.03s-.099.217-.502.2c-.446-.018-.536-.108-.231-.23zm1.531-.383c.276-.11.606-.097.733.03.128.127-.098.218-.502.201-.445-.018-.536-.109-.23-.231zm1.794-.504c.42-.18 1.109-.324 1.53-.317.615.009.577.07-.191.317-1.309.42-2.314.42-1.34 0zm3.06-.765c.421-.18 1.024-.329 1.34-.329.36 0 .29.122-.192.329-.42.18-1.023.329-1.34.329-.36 0-.29-.122.192-.329zm3.563-1.026c.276-.111.606-.097.733.03s-.099.217-.502.2c-.446-.018-.536-.108-.231-.23zm5.62-1.682c2.524-.818 4.742-1.44 4.928-1.381.385.12-8.55 2.962-9.137 2.906-.21-.02 1.683-.707 4.208-1.525zm5.578-1.653c.088-.084 2.484-.95 5.325-1.925 29.186-10.014 55.28-24.907 74.052-42.263 1.275-1.179.964-.81-.692.821-11.593 11.419-29.693 23.27-49.258 32.252-10.28 4.72-30.866 12.495-29.427 11.115zm85.667-50.54c.714-.736 1.384-1.339 1.489-1.339.105 0-.393.603-1.107 1.34-.713.736-1.383 1.339-1.489 1.339-.105 0 .393-.603 1.107-1.34zm3.06-3.396c0-.08.302-.38.67-.67.607-.475.62-.462.145.145-.5.637-.814.84-.814.525z" style="fill:#fda918;stroke-width:.382582" transform="matrix(.42367 0 0 .42367 -14.551 -7.032)"/><path d="M184.934 724.38c-7.059-1.01-10.825-2.226-17.195-5.551-7.641-3.99-14.931-9.553-22.987-17.544-20.116-19.955-35.644-46.812-39.634-68.552-.922-5.029-.93-13.347-.016-17.338 1.806-7.88 6.31-13.693 13.263-17.12 5.354-2.637 8.805-3.48 14.156-3.461 4.94.018 7.687.603 14.842 3.16 5.817 2.078 7.626 2.076 13.713-.016 10.5-3.61 21.936-8.33 29.287-12.092l3.562-1.822-4.973-.284c-13.773-.784-18.846-1.179-24.053-1.873-19.354-2.58-37.582-7.907-52.272-15.277-12.46-6.25-20.425-11.976-30.045-21.597-12.131-12.133-20.16-25.006-25.42-40.758-7.218-21.617-6.745-45.484 1.21-61.13 6.799-13.367 19.617-19.251 30.693-14.088 7.102 3.31 12.976 9.69 23.114 25.1 15.22 23.134 17.876 27.063 21.855 32.328 10.757 14.235 21.523 24.567 32.515 31.205 5.01 3.026 12.98 6.684 18.96 8.703 5.375 1.815 16.438 4.765 17.218 4.591.386-.085-.125-1.263-1.795-4.137-2.898-4.985-9.303-18.089-11.22-22.955-4.063-10.315-5.543-16.14-5.543-21.819 0-15.585 9.063-27.607 35.056-46.503 19.724-14.339 31.128-21.467 41.57-25.986 4.973-2.152 11.095-4.138 14.179-4.6.979-.147 1.776-.377 1.771-.51-.005-.135-1.244-.933-2.754-1.775-7.645-4.26-17.863-11.124-25.548-17.162-24.853-19.525-45.95-46.097-54.872-69.11a438.01 438.01 0 0 0-1.762-4.495c-.336-.817-.564-.861-4.475-.867-9.521-.013-29.318-1.875-31.093-2.924-1.704-1.007-2.494-2.935-1.948-4.757.839-2.799 2.728-3.42 8.07-2.653 3.181.457 15.158 1.434 21.69 1.77l5.047.259-.53-2.275c-.855-3.659-2.027-11.08-2.465-15.592-.617-6.366-.501-19.234.235-25.945.99-9.034 1.516-7.784-4.275-10.165-6.785-2.789-17.908-7.01-25.04-9.504-3.25-1.136-6.222-2.348-6.603-2.692-.38-.345-.882-1.262-1.115-2.04-.347-1.159-.307-1.658.224-2.777.776-1.635 2.832-2.754 4.463-2.428 2.757.552 20.556 7.099 29.908 11.002 2.483 1.036 4.649 1.8 4.813 1.7.164-.102.512-1.183.773-2.403 1.174-5.486 4.184-15.528 6.858-22.876 6.871-18.89 18.133-39.982 29.822-55.857l.845-1.148-2.87-24.485a41379.086 41379.086 0 0 0-4.015-34.146 15809.97 15809.97 0 0 1-5.154-43.901c-.952-8.206-1.994-17.035-2.315-19.619-.66-5.301-.438-6.913 1.219-8.883 2.34-2.78 7.106-3.716 10.271-2.016.842.452 20.209 13.024 43.038 27.938l41.507 27.117 4.403-1.435c16.431-5.355 36.71-9.619 52.416-11.02 9.917-.886 22.673-1.211 31.563-.806 8.513.387 20.42 1.498 24.64 2.299 3.929.745.545 3.405 27.009-21.232 5.681-5.29 15.74-14.644 22.353-20.787l12.023-11.17 7.101.104 7.1.104.454.957c.25.526 3.146 12.06 6.437 25.633a31440.88 31440.88 0 0 0 8.786 36.154c1.542 6.312 2.92 12.03 3.065 12.707.216 1.018 1.233 1.983 5.877 5.58 22.892 17.727 43.007 37.146 51.003 49.239 4.034 6.1 11.6 21.091 15.061 29.84 2.585 6.534 5.504 15.622 7.23 22.51 1.512 6.028 3.464 16.381 3.756 19.925.108 1.305.119 1.311 6.431 4.035 9.82 4.238 16.502 8.06 24.617 14.082 5.398 4.007 13.51 12.012 16.866 16.645 1.254 1.73 2.493 3.146 2.755 3.146 3.36 0 17.255-2.522 25.432-4.616 17.145-4.39 30.395-10.237 41.782-18.438 4.63-3.335 5.223-3.696 6.086-3.713.603-.013.67.463.67 4.749V241l-2.391 1.705c-15.469 11.03-37.584 19.211-61.853 22.88-2.857.432-5.26.847-5.34.921-.079.075.39 1.477 1.041 3.116 1.722 4.329 2.996 9.053 3.71 13.764.745 4.907.829 14.493.17 19.368-.25 1.855-.362 3.465-.25 3.578.721.72 15.77 3.512 23.403 4.34 5.454.592 23.334.888 28.31.468 4.498-.38 5.9-.125 7.131 1.293 1.664 1.916 1.03 5.067-1.302 6.478-1.173.71-2.026.748-16.35.747-12.43-.001-16.028-.124-20.276-.695-7.31-.98-13.38-2.021-18.376-3.15-2.372-.535-4.425-.835-4.562-.667-.137.167-.456 1.126-.708 2.13-1.45 5.772-6.24 17.08-9.921 23.418-17.76 30.575-48.197 54.387-91.002 71.196-31.887 12.522-75.272 21.37-117.319 23.924-4.366.266-7.938.61-7.938.764 0 .154.62.854 1.377 1.555.758.7 7.257 7.142 14.443 14.313 12.637 12.611 16.518 16.166 23.02 21.08 8.29 6.266 15.482 9.35 18.683 8.013.672-.28 3.887-2.991 7.143-6.023 11.59-10.79 14.738-13.42 20.76-17.343 3.938-2.566 10.215-5.573 13.471-6.454 9.945-2.69 19.293-.744 28.02 5.831 5.724 4.314 9.1 8.714 11.034 14.38.889 2.606 1.042 3.678 1.038 7.266-.01 9.843-4.698 19.794-14.866 31.563-10.79 12.489-29.316 26.937-40.345 31.465-17.528 7.195-35.5 7.56-53.463 1.089-13.725-4.945-28.226-14.626-39.861-26.61-3.644-3.753-3.354-3.753-5.267-.014-1.83 3.574-5.128 8.73-9.361 14.638-7.456 10.402-12.008 15.986-18.184 22.305l-3.202 3.276 20.198 19.7c34.127 33.287 35.484 34.523 71.874 65.466l3.472 2.952 5.519-.722c9.86-1.29 17.52-1.735 30.004-1.74 18.208-.008 29.169 1.422 40.612 5.298 7.361 2.494 13.421 5.976 18.066 10.38 4.904 4.652 7.662 9.25 9.296 15.497 1.134 4.338 1.227 12.694.183 16.45-2.629 9.462-9.913 16.724-21.865 21.797-18.647 7.915-49.972 10.396-91.628 7.257-13.701-1.033-17.795-2.05-23.234-5.768-2.943-2.013-26.225-22.617-49.646-43.936-17.756-16.163-27.757-25.558-46.677-43.85-18.012-17.415-32.051-30.185-32.847-29.88-.284.11-3.339 2.082-6.79 4.383-27.65 18.447-54.707 32.895-82.024 43.8-3.156 1.26-6.858 2.685-8.225 3.168-6.85 2.414-14.907 5.133-16.356 5.517-.894.238-1.626.602-1.626.811 0 .208 1.346 2.397 2.99 4.863 10.186 15.274 14.609 26.299 14.609 36.414 0 8.624-3.29 15.445-10.073 20.88-7.006 5.612-18.655 9.663-25.125 8.736zm9.98-10.053c7.23-2.662 12.686-6.815 14.936-11.368 4.321-8.746.742-21.555-10.957-39.212-2.22-3.35-4.202-6.528-4.406-7.065-.722-1.9-.44-5.227.625-7.364 1.195-2.397 2.686-3.605 5.508-4.459 33.042-10.002 68.021-27.089 104.004-50.804l6.636-4.374-4.34-3.81c-7.445-6.534-25.132-21.199-26.644-22.09-.308-.182-1.257.283-2.514 1.232-6.539 4.937-16.713 7.643-24.935 6.633-4.517-.555-6.89-1.174-11.197-2.917l-3.422-1.385-4.921 3.497c-8.522 6.055-16.53 10.798-32.575 19.294-12.804 6.779-24.146 11.631-38.583 16.506-6.076 2.052-10.996 1.875-17.586-.63-7.997-3.042-13.296-3.48-18.824-1.555-9.36 3.259-12.88 8.515-12.831 19.164.12 25.99 27.77 68.788 55.409 85.768 3.734 2.294 7.367 3.976 11.281 5.22 3.507 1.115 3.944 1.17 8.226 1.043 3.166-.094 4.392-.323 7.11-1.324zm331.666-3.226c25.396-2.738 40.426-8.6 46.392-18.094 1.986-3.16 2.68-5.776 2.677-10.086-.01-17.763-13.814-27.843-42.756-31.225-4.374-.51-8.65-.666-17.982-.65-12.688.02-19.271.458-31.212 2.08-5.143.698-6.096.738-6.942.286-1.885-1.008-41.918-35.518-48.5-41.81-6.255-5.977-46.14-44.744-50.406-48.99-4.039-4.022-4.303-4.379-4.29-5.784.018-1.988.511-2.754 3.238-5.03 7.383-6.164 16.748-17.263 24.458-28.988 5.934-9.023 9.614-16.05 15.13-28.885 5.475-12.741 7.015-17.429 8.67-26.398.868-4.712.977-17.141.177-20.263-1.218-4.748-3.178-7.721-6.189-9.387l-2.075-1.148-11.668-.25c-10.83-.233-14.833-.517-28.755-2.043-13.078-1.432-29.869-4.42-40.871-7.27-2.855-.74-10.164-2.106-11.269-2.106-.749 0-.787.218-.799 4.496-.013 4.742-.45 6.811-2.356 11.135-3.022 6.857-9.636 15.106-17.568 21.912-3.597 3.086-25.79 19.858-32.073 24.239-3.938 2.746-4.421 3.415-4.421 6.125 0 1.574.32 2.074 5.565 8.679 10.31 12.985 15.52 21.389 17.983 29.007 1.38 4.27 1.755 11.856.775 15.704-.789 3.096-2.501 6.798-4.241 9.168l-1.338 1.823 3.731 2.99c20.05 16.06 45.462 38.714 70.11 62.5 24.508 23.65 51.455 48.428 80.342 73.872 9.475 8.347 11.84 10.248 14.027 11.283 3.746 1.772 6.98 2.223 24.613 3.434 10.28.705 40.144.502 47.823-.326zM206.763 575.034h4.04l5.135-3.083c5.54-3.327 13.674-8.712 14.032-9.292.121-.196-.536-.978-1.461-1.738-5.32-4.37-11.807-11.137-16.04-16.734l-2.643-3.493-2.977-.278c-3.203-.3-12.402-2.454-19.794-4.637-12.688-3.746-24.926-9.928-34.51-17.432-4.169-3.265-13.946-12.408-13.798-12.904.047-.159-2.25-3.288-5.107-6.955-10-12.834-19.227-25.57-23.908-32.997-1.038-1.647-4.777-7.377-8.308-12.732-7.428-11.267-10.433-14.757-14.376-16.698-2.359-1.16-2.78-1.241-6.36-1.216-3.354.024-4.098.156-5.957 1.061-7.903 3.847-13.594 16.157-14.95 32.333-2.151 25.681 11.707 56.996 33.334 75.322 9.702 8.222 19.308 14.162 30.063 18.592 14.354 5.912 31.246 10.069 48.557 11.95 6.779.736 20.834 1.308 26.781 1.09 2.315-.086 6.026-.156 8.247-.157zm56.027-12.422c4.2-1.027 7.815-2.803 11.32-5.564 3.618-2.85 6.394-6.213 8.098-9.81 1.19-2.512 1.24-2.812 1.226-7.212-.013-3.804-.167-5.017-.902-7.077-2.489-6.978-6.762-13.771-16.004-25.442-3.333-4.209-6.358-8.287-6.724-9.064-1.7-3.616-1.49-8.413.546-12.467 1.136-2.26 1.657-2.826 4.31-4.676 1.66-1.157 9.58-6.996 17.599-12.974 15.74-11.733 21.577-16.882 26.502-23.371 2.897-3.818 5.626-9.217 6.258-12.384.869-4.346-.545-8.5-3.927-11.54-2.36-2.121-3.132-2.526-10.044-5.258-7.793-3.08-7.963-3.115-15.303-3.115-7.447 0-10.503.559-17.897 3.273-10.146 3.724-19.451 9.268-39.124 23.309-22.984 16.405-31.557 25.032-34.847 35.07-.96 2.928-1.098 3.916-1.083 7.755.013 3.654.196 5.01 1.076 7.997 2.036 6.915 5.102 14.377 9.602 23.364 3.845 7.68 5.698 10.912 9.986 17.418 13.126 19.915 26.883 30.968 40.15 32.26 2.695.261 7.053.028 9.182-.492zm233.375-24.098c10.214-1.79 18.35-5.484 28.677-13.022 15.53-11.335 27.142-23.688 32.373-34.436 2.39-4.911 3.148-8.146 2.959-12.63-.127-3.009-.315-3.788-1.47-6.097-2.33-4.652-8.08-9.552-13.951-11.886-5.214-2.072-11.72-1.701-17.926 1.022-7.204 3.161-12.67 7.405-29.194 22.671-5.044 4.66-7.41 6.016-10.955 6.277-7.363.542-18.374-5.362-31.675-16.984-3.252-2.84-20.434-19.38-20.434-19.67l-.112 4.109c-.353 13.003-3.199 23.515-11.35 41.936l-2.156 4.871 1.006 1.225c2.135 2.598 9.71 10.025 12.995 12.742 13.839 11.445 27.916 18.198 42.222 20.256 4.57.657 14.157.463 18.99-.384zM426.917 427.74c20.451-.58 32.982-1.746 51.671-4.806 50.278-8.232 87.096-21.38 117.492-41.957 7.948-5.38 14.69-10.997 22.149-18.452 14.73-14.722 23.83-28.722 29.321-45.11.837-2.496 1.377-4.675 1.202-4.842-.176-.166-2.203-1.008-4.505-1.87-4.383-1.642-5.595-2.456-6.342-4.258-.942-2.274 1.111-5.341 3.575-5.341.644 0 2.962.7 5.151 1.556 2.19.856 4.036 1.502 4.103 1.435.293-.293.95-7.851.95-10.925 0-8.149-2.053-17.447-5.346-24.211l-.843-1.73-3.93.145c-3.877.144-3.948.13-5.145-.948-1.37-1.235-1.862-3.17-1.227-4.823.485-1.263 2.506-2.58 3.962-2.582.578 0 1.052-.1 1.052-.222 0-.484-4.684-5.864-7.331-8.422-5.854-5.656-12.407-10.333-20.27-14.467-7.218-3.795-14.659-6.852-20.05-8.235l-1.55-.398-.471-4.883c-1.722-17.818-7.852-37.686-17.5-56.724-6.65-13.118-10.614-18.471-22.544-30.437-11.437-11.472-23.391-21.76-39.378-33.892l-2.268-1.721-3.752-15.467c-2.064-8.507-4.611-18.997-5.66-23.31a57748.7 57748.7 0 0 1-4.047-16.643c-4.612-18.982-5.1-20.927-5.307-21.134-.118-.118-2.584 2.013-5.48 4.734a4559.532 4559.532 0 0 1-13.685 12.772c-4.629 4.303-12.075 11.227-16.546 15.387-12.752 11.861-24.695 22.934-25.585 23.72-.795.702-.914.701-5.547-.044-22.766-3.663-48.759-3.664-71.496-.003-12.047 1.94-24.6 5.063-37.733 9.388l-6.554 2.157-18.314-11.974a63860.556 63860.556 0 0 1-25.674-16.794c-4.047-2.65-9.126-5.964-11.286-7.365-2.16-1.4-10.006-6.523-17.436-11.382-7.43-4.86-13.586-8.835-13.681-8.835-.096 0-.09.646.012 1.435s.365 2.898.584 4.686c.376 3.081 9.21 78.55 12.069 103.106.734 6.313 1.527 12.714 1.761 14.225.235 1.51.323 3.156.198 3.657-.126.5-1.322 2.363-2.659 4.14-6.031 8.014-12.097 17.919-17.908 29.244-8.123 15.83-14.019 31.578-17.395 46.464-.498 2.198-.868 4.024-.822 4.057.046.033 2.064.959 4.483 2.057 13.068 5.933 26.862 13.73 34.938 19.75 5.463 4.072 7.146 5.832 7.146 7.473 0 2.682-2.34 4.837-4.817 4.435-.794-.128-2.498-1.211-4.628-2.941-4.122-3.348-10.267-7.444-16.379-10.917-4.582-2.603-16.052-8.434-20.14-10.238l-2.158-.952-.52 4.456c-.323 2.773-.51 8.357-.494 14.785.027 11.03.555 16.086 2.597 24.868l.89 3.826 5.896-.027c11.085-.052 23.888-1.99 32.803-4.966 4.544-1.517 6.07-1.63 7.445-.548 1.174.923 1.929 2.985 1.589 4.34-.585 2.332-3.376 3.705-12.065 5.94-8.13 2.09-21.683 3.87-29.48 3.87h-3.377l.793 2.199c1.505 4.177 6.44 13.694 9.768 18.842 8.21 12.695 16.245 22.587 26.6 32.745 39.174 38.437 95.274 60.036 163.301 62.872 10.21.426 11.855.427 25.824.03zm8.8-32.726c-14.835-1.622-29.15-6.318-39.607-12.993-17.091-10.91-26.74-27.09-30.291-50.801-.69-4.605-.82-7.26-.844-17.3-.025-10.065.063-12.062.58-13.199 1.483-3.266 4.606-5.424 7.918-5.47 1.188-.016 3.545.574 6.96 1.742 17.795 6.089 43.094 11.942 64.898 15.015 17.026 2.4 28.777 3.063 53.894 3.045 21.96-.016 27.697-.33 38.17-2.085 4.617-.774 5.003-.785 6.998-.205 3.9 1.134 6.789 5.539 6.112 9.32-.738 4.116-5.64 15.082-9.918 22.181-13.233 21.964-32.536 37.64-55.91 45.407-14.757 4.904-33.888 6.992-48.96 5.343zm26.015-8.74c12.984-1.722 23.87-5.02 33.81-10.245 17.46-9.177 31.408-23.366 40.938-41.645 2.37-4.543 6.027-13.272 5.7-13.6-.066-.065-2.01.201-4.32.592-10.721 1.81-24.14 2.454-45.33 2.172-20.8-.277-29.132-.794-44.57-2.764-22.217-2.835-49.12-8.84-68.808-15.36-4.36-1.444-5.358-1.66-5.637-1.22-.464.733-.439 15.804.035 20.675 2.033 20.894 8.692 35.337 20.994 45.54 9.296 7.708 21.924 13.079 36.2 15.395 2.103.342 4.772.782 5.93.978 2.963.503 20.016.15 25.058-.519zm14.906-101.45c-8.888-1.495-22.583-8.466-31.015-15.788-3.827-3.323-6.653-6.825-8.282-10.264-1.081-2.282-1.24-3.017-1.236-5.682.006-3.471.495-4.697 2.749-6.885 2.871-2.789 8.311-4.609 16.757-5.606 5.746-.68 27.19-.68 33.476 0 10.689 1.154 16.087 3.159 18.197 6.759 3.063 5.227-1.446 19.49-9.022 28.535-4.216 5.033-8.287 7.816-13.093 8.95-2.853.672-4.437.668-8.53-.02zm-123.75-11.139c-9.383-1.486-17.1-4.318-24.842-9.117-10.797-6.694-21.922-18.422-30.02-31.648-18.104-29.57-18.91-65.247-1.871-82.804 4.83-4.976 11.367-8.864 17.71-10.532 4.33-1.139 14.358-1.255 18.632-.216 15.164 3.687 28.712 12.29 41.305 26.232 15.428 17.078 24.192 35.94 26.165 56.31 2.07 21.36-5.51 40.052-19.049 46.978-7.083 3.624-13.392 5.08-21.664 5-2.975-.028-5.84-.12-6.366-.203zm13.769-8.757c3.448-.654 7.561-2.03 10.525-3.523 10.34-5.205 16.247-21.45 14.333-39.415-2.095-19.668-11.535-38.337-27.415-54.217-10.566-10.566-20.741-16.856-32.254-19.939-1.843-.493-4.023-.67-8.417-.679-5.507-.012-6.148.063-8.99 1.048-7.62 2.64-13.973 8.291-17.7 15.745-4.82 9.637-5.736 24.022-2.427 38.067 3.688 15.649 12.437 31.526 24.051 43.647 6.351 6.628 12.176 11.011 19.536 14.701 7.464 3.743 12.877 5.093 20.59 5.134 3.065.016 6.252-.206 8.168-.569zm-8.344-30.037c-4.459-2.228-7-6.368-7.262-11.834-.193-4.009.526-6.745 2.52-9.583 1.57-2.233 4.347-4.34 6.516-4.942 6.376-1.77 13.607 2.74 15.59 9.724 1.856 6.532-1.436 14.161-7.295 16.905-2.961 1.388-6.967 1.28-10.07-.27zm174.313 14.927c-4.674-.997-8.57-2.377-13.889-4.92-8.29-3.966-14.911-8.713-22.719-16.288-9.69-9.401-16.308-18.631-22.423-31.271-6.175-12.764-9.376-25.837-9.376-38.294 0-17.004 5.979-29.397 17.542-36.364 17.278-10.41 42.404-3.343 63.755 17.93 14.725 14.671 25.71 34.683 29.615 53.944 1.318 6.503 1.684 10.995 1.449 17.765-.252 7.235-.992 11.113-3.17 16.586-2.11 5.306-4.162 8.505-7.797 12.158-4.808 4.832-9.872 7.58-16.562 8.986-3.745.788-12.197.668-16.425-.232zm15.952-8.269c8.221-2.01 14.668-8.417 17.77-17.66 1.766-5.257 2.388-13.92 1.531-21.3-2.279-19.625-13.188-41.085-28.526-56.112-5.437-5.326-7.538-7.078-12.39-10.326-9.139-6.116-19.504-9.894-27.118-9.884-11.117.015-20.244 6.161-24.39 16.423-2.19 5.423-2.604 8.039-2.61 16.476-.008 8.421.506 12.2 2.688 19.79 2.847 9.902 8.301 21.271 14.091 29.372 17.102 23.925 41.273 37.546 58.954 33.221zm-10.664-26.366c-3.773-1.201-6.453-3.614-8.235-7.412-.883-1.883-.995-2.595-.994-6.33 0-3.844.095-4.4 1.086-6.42 1.47-2.999 4.361-5.776 7.082-6.803 4.584-1.731 9.724-.38 13.18 3.465 2.572 2.86 3.493 5.475 3.504 9.95.008 3.29-.104 3.875-1.193 6.179-.662 1.4-1.926 3.268-2.81 4.152-3.083 3.083-7.878 4.411-11.62 3.22z" style="fill:#021026;stroke-width:.382582" transform="matrix(.42367 0 0 .42367 -14.551 -7.032)"/></svg>