<svg xmlns="http://www.w3.org/2000/svg" width="300mm" height="300mm" viewBox="0 0 300 300"><path d="M92.845 287.714c-15.13-6.303-27.561-11.512-27.626-11.576-.064-.063 2.072-9.676 4.747-21.362 2.675-11.686 4.864-21.535 4.864-21.885 0-.351-1.623-2.25-3.608-4.222l-3.607-3.584-21.739 4.987c-11.956 2.743-21.809 4.91-21.896 4.814-.453-.497-22.817-54.829-22.86-55.536-.035-.59 5.417-4.232 18.695-12.489l18.744-11.656.137-5.347.137-5.347-19.003-11.788C9.378 126.239.827 120.793.827 120.62c0-.297 22.889-55.661 23.141-55.974.066-.082 9.905 2.093 21.864 4.832l21.744 4.981 3.627-3.603c1.995-1.981 3.627-3.871 3.627-4.2 0-.327-2.191-10.173-4.87-21.878-2.678-11.706-4.814-21.331-4.747-21.39.068-.06 12.697-5.319 28.065-11.687C120.07.599 121.248.16 121.906 1.056c.378.514 5.738 9.07 11.911 19.013l11.225 18.079 5.356-.065 5.356-.065 11.649-18.744C173.809 8.964 179.234.466 179.459.388c.364-.126 55.505 22.573 55.974 23.042.105.105-2.052 9.977-4.795 21.938l-4.985 21.748 3.682 3.682 3.682 3.682 21.76-4.973c11.969-2.735 21.844-4.889 21.946-4.787.622.621 23.068 55.53 22.887 55.989-.122.31-8.518 5.697-18.657 11.971-10.14 6.274-18.515 11.466-18.611 11.536-.23.167-.23 10.904 0 11.088.096.077 8.555 5.346 18.798 11.708 10.242 6.362 18.623 11.806 18.623 12.098 0 .817-22.955 55.845-23.295 55.845-.165 0-10.016-2.226-21.892-4.947l-21.593-4.947-3.667 3.667-3.667 3.667 4.985 21.748c2.742 11.962 4.883 21.85 4.758 21.976-.518.517-55.507 23.147-55.912 23.01-.243-.083-5.685-8.575-12.093-18.871l-11.652-18.72-5.341-.05-5.341-.05-11.676 18.77c-6.422 10.324-11.98 18.814-12.35 18.868-.371.054-13.053-5.059-28.182-11.362zm32.87-26.115 10.719-17.15 4.13.244c5.916.348 15.165.3 19.793-.104l3.976-.347 10.33 16.657c5.682 9.161 10.602 16.95 10.935 17.31.5.54 3.21-.419 15.636-5.534 8.267-3.403 15.102-6.25 15.19-6.329.086-.078-1.922-9.085-4.464-20.014l-4.62-19.873 2.028-1.68c2.578-2.136 13.16-12.712 15.734-15.726l1.956-2.29 19.867 4.615c10.928 2.538 19.922 4.554 19.988 4.48.667-.747 12.415-30.147 12.19-30.51-.164-.267-7.58-5.021-16.476-10.565-8.897-5.543-16.54-10.43-16.987-10.86-.717-.691-.754-1.338-.32-5.65.467-4.658.25-17.87-.345-20.934-.283-1.459-.26-1.476 17.012-12.172 9.512-5.891 17.302-10.92 17.31-11.176.014-.385-12.048-29.96-12.367-30.325-.057-.064-9.042 1.962-19.968 4.502l-19.865 4.62-1.976-2.311c-2.6-3.04-11.535-11.966-15.02-15.003l-2.756-2.402 4.626-19.876c2.545-10.932 4.552-19.932 4.46-20-.091-.07-6.932-2.92-15.202-6.333-12.33-5.091-15.141-6.091-15.624-5.56-.323.357-5.275 8.146-11.003 17.31l-10.414 16.662-4.39-.352c-5.61-.45-13.4-.449-19.014 0l-4.4.353-10.65-17.15c-5.858-9.431-10.72-17.235-10.806-17.341-.185-.232-30.338 12.168-30.566 12.57-.087.154 1.903 9.144 4.424 19.976l4.582 19.694-3.061 2.674c-3.892 3.4-8.989 8.496-13.316 13.316l-3.386 3.77-19.714-4.59c-10.842-2.524-19.86-4.44-20.04-4.257-.622.632-12.565 29.898-12.346 30.252.121.196 7.897 5.156 17.28 11.022l17.06 10.666-.366 4.869c-.467 6.206-.466 12.378.005 18.326l.37 4.695-16.68 10.349c-9.175 5.691-16.96 10.602-17.3 10.912-.493.45.63 3.586 5.504 15.386 3.368 8.152 6.28 14.98 6.47 15.171.19.192 9.215-1.715 20.055-4.24l19.71-4.588 2.405 2.779c3.095 3.578 9.824 10.303 14.059 14.053l3.318 2.939-4.602 19.67c-2.531 10.82-4.452 19.836-4.27 20.036.404.44 29.297 12.488 29.987 12.503.268.006 5.31-7.707 11.205-17.14zm20.685-56.634c-8.138-.902-14.868-2.735-20.53-5.591-14.319-7.226-25.04-20.473-29.125-35.988-1.375-5.223-1.885-16.72-.99-22.309 1.88-11.738 8.357-23.88 16.93-31.74 8.322-7.63 19.233-12.85 29.973-14.343 4.012-.557 14.035-.323 17.904.42 35.596 6.823 55.239 45.493 39.65 78.06-2.815 5.88-5.433 9.674-9.923 14.373-10.182 10.657-22.814 16.37-37.803 17.094-2.41.117-5.149.127-6.086.024zm13.632-17.507c7.364-1.858 15.671-7.141 20.48-13.025 2.849-3.486 6.346-10.376 7.584-14.942 1.196-4.407 1.194-15.078-.003-19.475-6.628-24.36-33.388-36.083-55.946-24.506-3.68 1.89-5.331 3.145-9.141 6.955-3.81 3.81-5.066 5.46-6.955 9.141-3.319 6.467-4.325 10.69-4.325 18.148 0 4.617.244 6.999 1.01 9.87 3.816 14.304 15.889 25.542 30.499 28.393 4.214.822 12.4.55 16.797-.56z" style="fill:#fff;stroke-width:.486866"/></svg>