<svg xmlns="http://www.w3.org/2000/svg" xml:space="preserve" width="112" height="111.039" viewBox="0 0 29.633 29.379"><path d="M143.751 84.39h6.086v-5.822h5.82V90.21h-11.906zM161.332 84.449v-5.821h5.82v5.82h6.086v5.821h-11.906zM161.461 96.077l11.774-.143v5.814l-2.976.075-2.977.075-.15 5.953c-5.653.068-5.644.065-5.698-.036.003-18.204.032.017.027-11.738zM149.78 101.908l-2.977-.075-2.977-.075v-5.813l11.774.142v5.82l-.03 5.908-2.835.075-2.806-.011-.15-5.971z" style="fill:#fff;stroke-width:.264583" transform="translate(-143.751 -78.568)"/></svg>