<svg xmlns="http://www.w3.org/2000/svg" width="109mm" height="109mm" viewBox="0 0 109 109"><path d="M33.878 183.305c-7.485-.589-15.5-2.203-20.897-4.207C5.347 176.263.665 172.746-1.5 168.22l-.95-1.985V92.152l.62-1.63C.383 84.688 8.294 79.77 20.04 76.93c17.331-4.192 40.533-2.616 53.936 3.666 6.59 3.087 10.688 7.32 11.547 11.924.365 1.951.364 71.145 0 73.066-1.635 8.622-13.794 15.124-32.41 17.332-4.055.48-15.202.706-19.235.388zm14.605-7.952c13.429-.944 25.454-5.017 28.575-9.677.646-.965.663-1.116.742-6.62l.08-5.633-2.858 1.426c-1.572.784-3.692 1.74-4.71 2.122-3.96 1.488-10.567 2.97-17.331 3.887-3.47.47-19.369.471-22.754.002-10.29-1.428-17.406-3.413-22.953-6.401l-1.918-1.034v5.456c0 5.335.015 5.481.658 6.579.855 1.46 3.37 3.347 6.358 4.772 8.666 4.134 22.418 6.084 36.111 5.121zm2.51-22.35c10.859-1.141 19.604-3.866 24.145-7.524 2.656-2.14 2.704-2.31 2.71-9.494.002-3.396-.085-6.133-.195-6.083-.109.05-1.18.596-2.379 1.214-7.908 4.076-18.287 6.274-31.168 6.599-14.066.354-27.11-1.964-35.65-6.338a313.802 313.802 0 0 0-2.902-1.475c-.109-.05-.198 2.75-.198 6.222 0 5.432.061 6.405.437 6.968 1.958 2.927 6.598 5.586 12.924 7.405 4.663 1.341 8.876 2.061 16.008 2.734 2.858.27 12.86.129 16.267-.229zm1.988-23.804c11.89-1.567 21.346-5.218 24.077-9.296.654-.977.662-1.06.74-7.423l.08-6.436-1.534.9c-3.101 1.817-8.901 3.902-14.092 5.066-18.52 4.152-42.69 2.04-54.937-4.802-.887-.495-1.69-.9-1.786-.9-.095 0-.173 2.742-.173 6.095 0 5.539.048 6.19.52 7.116 1.995 3.91 12.303 8.154 23.16 9.533 5.16.656 7.397.764 13.89.675 4.218-.057 7.988-.255 10.055-.528zm-5.511-23.163c10.688-.713 19.758-2.952 25.433-6.278 3.182-1.865 5.198-4.306 4.823-5.842-.646-2.649-4.804-5.544-11.027-7.68-12.19-4.182-29.017-4.895-43.742-1.852-7.829 1.618-15.13 5.186-16.943 8.28-.845 1.44-.83 2.201.07 3.512 4.503 6.564 23.382 11.063 41.386 9.86Z" style="fill:#fff;stroke-width:.264583" transform="translate(12.768 -74.59)"/></svg>