<svg xmlns="http://www.w3.org/2000/svg" width="466.202" height="552.833" viewBox="0 0 123.349 146.27"><path d="M41.878 192.553v-26.061h12.965v39.158h91.546v-39.158h12.964V218.615H41.878zm26.194-6.614v-6.483H133.159v12.965H68.072Zm33.073-16.606c-17.39-3.645-31.66-6.66-31.71-6.7-.05-.04.494-2.85 1.208-6.243.929-4.41 1.408-6.188 1.68-6.236.41-.072 63.156 13.012 63.354 13.211.104.104-.642 3.852-2.137 10.733-.23 1.055-.498 1.906-.597 1.89-.1-.015-14.408-3.01-31.798-6.655zm6.218-23.356c-16.008-7.475-29.207-13.631-29.332-13.68-.219-.085 4.635-11.197 5.09-11.652.188-.188 58.233 26.76 58.852 27.322.267.242-4.877 11.646-5.242 11.62-.145-.01-13.361-6.134-29.368-13.61zm12.17-21.825c-13.679-11.37-24.965-20.765-25.081-20.877-.218-.209 7.625-9.808 8.013-9.808.336 0 49.877 41.257 49.877 41.536 0 .136-1.548 2.108-3.44 4.383s-3.678 4.43-3.97 4.788l-.529.652zm16.185-17.97c-10.575-14.253-19.227-26.03-19.227-26.172 0-.262 10.04-7.82 10.18-7.663.041.047 8.68 11.694 19.198 25.882a42263.44 42263.44 0 0 0 19.349 26.092c.15.197-1.458 1.546-4.815 4.035-2.772 2.057-5.135 3.74-5.25 3.74-.114 0-8.86-11.661-19.435-25.914z" style="fill:#fff;stroke-width:.264583" transform="translate(-41.878 -72.344)"/></svg>