<svg xmlns="http://www.w3.org/2000/svg" width="798.873" height="758.763" viewBox="0 0 211.369 200.756"><path d="M167.529 67.114c-.537-1.404-.238-2.505.678-2.505.917 0 1.215 1.1.679 2.505-.607 1.712-.895 1.192-1.357 0zm-8.245-1.587c-1.476-.945-1.963-1.423-2.296-2.255-.587-1.468-.53-2.175.24-2.897l.66-.621.002.906c0 .56.244 1.208.64 1.7l.638.793-.305-1.151c-.279-1.054-.247-1.257.38-2.382.624-1.121.78-1.236 1.785-1.31l1.1-.082-.447.937c-.58 1.218-.31 1.751 2.12 4.19.998 1 1.772 1.859 1.72 1.91-.252.249-3.072-.5-3.549-.942-.782-.728-.984-.627-.525.26.218.423.817 1.028 1.33 1.345.513.317.932.626.932.687 0 .06-.574.11-1.276.11-1.062 0-1.591-.201-3.15-1.198zm13.421 1.088c0-.061.42-.37.933-.687.513-.317 1.111-.922 1.33-1.345.458-.887.256-.988-.526-.26-.476.443-3.296 1.19-3.55.941-.05-.05.724-.91 1.72-1.909 2.432-2.439 2.702-2.972 2.122-4.19l-.447-.937 1.1.081c1.004.075 1.16.19 1.785 1.311.626 1.125.658 1.328.38 2.382l-.306 1.151.639-.793c.395-.492.639-1.14.64-1.7v-.906l.662.621c.769.722.827 1.429.24 2.897-.334.832-.82 1.31-2.296 2.255-1.559.997-2.088 1.198-3.15 1.198-.702 0-1.276-.05-1.276-.11zm-7.638-5.973c-1.665-1.316-1.928-1.804-1.979-3.671-.022-.82-.128-1.556-.235-1.636-.187-.14-.731-2.601-.731-3.306 0-.21.727-.472 1.918-.692l1.918-.354-1.455-.082c-.8-.044-1.56-.185-1.689-.313-.372-.369 2.363-2.854 3.482-3.165 1.103-.307 2.707-.361 3.35-.114.328.125.226.262-.44.595l-.866.433-.073 4.696c-.08 5.255-.022 5.131-1.948 4.149-1.247-.636-1.6-.531-.671.2.431.339.702.893.822 1.683.098.648.24 1.505.317 1.906.188.981-.143.918-1.72-.329zm2.555-6.418c-.07-2.246-.12-2.448-.605-2.448-.489 0-.526.16-.479 2.084.058 2.392.169 2.811.745 2.811.353 0 .404-.368.339-2.447zm-2.421.161c-.093-.675-.169-1.458-.169-1.739 0-.344-.15-.483-.461-.423-.365.07-.443.307-.373 1.125.114 1.325.472 2.265.864 2.265.213 0 .255-.376.139-1.228zm4.43 6.586c.08-.4.218-1.264.31-1.919.114-.826.36-1.336.803-1.666.726-.54.8-.426.273.419-.379.608-.77 2.57-.513 2.57.398 0 2.123-1.8 2.521-2.63.435-.905.447-.91.294-.148-.27 1.346-.83 2.188-2.108 3.164-1.477 1.128-1.768 1.166-1.58.21zm-.015-6.602c.042-1.96-.005-2.186-.483-2.333-.35-.108-.414-.21-.19-.302.814-.335 1.117.136 1.085 1.688-.017.841-.127 1.887-.244 2.323-.148.551-.2.13-.168-1.376zm2.166-.31c.142-1.072.1-1.478-.172-1.65-.265-.168-.206-.229.223-.232.547-.004.573.083.429 1.385-.085.764-.27 1.508-.412 1.654-.167.172-.19-.234-.068-1.157zm2.573-5.884c-1.078-.534-2.179-1.615-2.179-2.14 0-.137.346-.002.769.3 1.422 1.013 1.718.59.819-1.173-.653-1.28-.653-1.266.032-1.048l.562.178-.576-1.025c-.836-1.488-2.129-2.277-3.938-2.402-1.07-.075-1.392-.028-1.115.163.214.148.333.305.264.35a23.11 23.11 0 0 1-.918.485c-.665.34-.807.586-.875 1.521-.045.614-.196 1.116-.336 1.116s-.18.298-.088.662c.225.896-.03.832-1.065-.265-.48-.51-1.12-.926-1.422-.926-.302 0-.614-.106-.695-.237-.18-.29.463-.557 1.346-.557.569 0 .628-.08.443-.595-.119-.327-.21-1.057-.203-1.62.01-.832.193-1.192.969-1.902 1.113-1.02 3.174-1.707 5.083-1.694 1.288.009 1.315.024.68.378-.631.35-.637.377-.133.559 2.481.893 3.595 1.77 4.49 3.534.668 1.32 1.13 3.192.786 3.192-.114 0-.425-.197-.69-.437-.308-.278-.485-.323-.485-.122 0 .657 1.063 2.36 1.97 3.156.517.455.94.89.94.967 0 .077-.743.14-1.653.14-1.15 0-1.998-.17-2.782-.558zm-6.677-2.087c0-.291.12-.53.265-.53.145 0 .264.239.264.53 0 .29-.119.529-.264.529-.146 0-.265-.238-.265-.53z" style="fill:#fff;stroke-width:.264583" transform="translate(-58.987 50.597)"/><path d="M100.143 147.51c.508-1.573 6.102-18.796 12.432-38.272 6.329-19.477 11.453-35.55 11.386-35.719-.067-.169-14.713-10.903-32.547-23.855L58.987 26.116 99.3 26.05l40.312-.067 1.2-3.637c.66-2 5.735-17.627 11.28-34.725 13.08-40.34 12.468-38.506 12.703-38.072.155.287 14.359 43.893 23.54 72.268l1.348 4.166 40.337.067 40.337.067-32.542 23.642C219.915 62.76 205.27 73.517 205.27 73.66c0 .144 5.23 16.354 11.623 36.022 6.393 19.668 11.976 36.86 12.407 38.206.431 1.345.648 2.363.482 2.263-.166-.1-14.858-10.755-32.649-23.678-17.79-12.923-32.398-23.496-32.461-23.496-.064 0-14.557 10.492-32.206 23.317-17.65 12.824-32.351 23.487-32.67 23.695-.55.361-.533.24.346-2.48z" style="fill:#ccc;stroke-width:.264583;fill-opacity:1" transform="translate(-58.987 50.597)"/></svg>