<svg xmlns="http://www.w3.org/2000/svg" width="1239.519" height="1239.519" viewBox="0 0 327.956 327.956"><path d="M23.138 298.151c-1.841-.265-4.335-1.057-6.343-2.015-6.726-3.207-11.365-9.275-12.728-16.648-.372-2.015-.372-6.002 0-8.017.86-4.653 3.111-8.952 6.387-12.2 7.823-7.753 19.92-8.895 29.04-2.74.744.501 1.93 1.457 2.638 2.125.714.673 1.39 1.166 1.52 1.108.128-.057 6.287-5.213 13.688-11.458 7.4-6.246 21.87-18.44 32.158-27.1L108.2 205.46l-.72-1.444a24.56 24.56 0 0 1-2.111-6.435c-.452-2.598-.287-7.043.353-9.486 3.23-12.336 15.643-19.683 27.957-16.547 7.998 2.037 14.339 8.404 16.481 16.55.529 2.01.573 2.416.588 5.415.015 2.756-.047 3.529-.412 5.158-.236 1.055-.403 1.938-.37 1.963.032.026 8.06 4.163 17.841 9.194 9.78 5.031 22.242 11.452 27.693 14.268 8.366 4.323 9.939 5.076 10.095 4.835 2.624-4.032 4.024-5.645 6.553-7.549 3.944-2.97 8.668-4.53 13.717-4.53 3.796 0 7.02.757 10.358 2.431.975.49 1.786.872 1.803.85.117-.15 4.538-7.457 23.055-38.105 11.54-19.103 23.026-38.108 25.521-42.234 2.496-4.126 5.603-9.268 6.903-11.427l2.365-3.924-1.05-.791c-4.236-3.186-7.52-8.628-8.467-14.03-.404-2.303-.357-6.31.101-8.557 1.89-9.276 9.227-16.436 18.497-18.053 2.295-.4 6.138-.353 8.374.103 4.779.973 8.79 3.191 12.169 6.728 3.019 3.16 4.94 6.823 5.897 11.237.425 1.962.476 6.673.093 8.613-.926 4.686-3.046 8.674-6.408 12.052-3.288 3.303-6.95 5.294-11.618 6.318-1.183.26-2.283.333-4.778.32-3.26-.016-4.07-.144-7.58-1.199-.257-.076-1.331 1.633-8.8 14l-7.331 12.132c-2.68 4.432-6.935 11.476-9.459 15.653-2.523 4.177-11.006 18.213-18.85 31.191L242.4 223.757l1.017 1.2c1.34 1.578 2.148 2.863 3.228 5.129 5.844 12.262-.674 27.23-13.68 31.412-12.567 4.04-25.793-3.186-29.221-15.968-.878-3.272-.992-6.624-.352-10.36l.114-.668-7.66-3.944a20613.5 20613.5 0 0 1-12.941-6.666 13161.91 13161.91 0 0 0-9.262-4.773l-14.979-7.715c-6.048-3.116-11.05-5.665-11.114-5.664-.065 0-.427.482-.806 1.069-2.31 3.586-6.986 7.107-11.445 8.618-7.779 2.637-16.81.775-22.656-4.67-.838-.78-.917-.814-1.313-.563-.232.147-14.848 12.424-32.48 27.28l-32.057 27.013.61 1.329c4.055 8.827 2.244 18.97-4.606 25.797-3.562 3.55-7.532 5.625-12.328 6.445-1.868.32-5.446.365-7.33.093z" style="fill:#fff;stroke-width:.185237" transform="translate(-3.788 -30.317)"/></svg>