<svg xmlns="http://www.w3.org/2000/svg" width="300mm" height="300mm" viewBox="0 0 300 300"><path d="M295.84 283.046c-3.366-6.16-6.327-10.277-10.039-13.956-11.425-11.326-27.131-14.116-47.033-8.355-4.062 1.175-11.01 3.806-13.322 5.043-5.923 3.17-13.464 6.593-17.985 8.161-14.993 5.203-29.09 7.54-45.475 7.54-12.689 0-24.017-1.296-36.454-4.17-48.819-11.28-93.445-42.408-122.343-85.335-1.732-2.573-3.15-4.776-3.15-4.896 0-.12.87.483 1.932 1.34 11.132 8.985 29.454 18.915 46.928 25.433 31.167 11.626 62.06 14.123 89.891 7.268 10.442-2.572 20.285-6.46 28.999-11.456 1.45-.832 2.729-1.597 2.84-1.7.112-.102-1.687-1.671-3.996-3.486-15.032-11.81-29.6-24.786-45.46-40.493-24.805-24.563-45.944-48.642-73.483-83.698a128.968 128.968 0 0 0-4.592-5.462c-1.303-1.447-3.447-4.07-4.765-5.829-2.535-3.383-9.64-13.958-9.48-14.11.052-.05 1.294.994 2.76 2.32 22.3 20.166 60.417 50.023 92.32 72.316 8.99 6.282 20.213 13.683 25.178 16.604l1.066.626-.683-.777a464.454 464.454 0 0 0-4.138-4.508c-18.503-19.975-38.782-44.632-59.385-72.204-9.78-13.088-21.187-29.168-21.187-29.866 0-.115 3.747 3.502 8.326 8.037 34.187 33.858 73.499 66.763 112.503 94.169 5.89 4.138 18.402 12.497 20.916 13.974.952.56 2.491 1.5 3.42 2.092 1.274.812 1.739.991 1.9.732.523-.848 3.046-8.864 4.117-13.085 4.379-17.256 4.977-34.369 1.873-53.54-4.034-24.917-15.218-51.161-31.843-74.721l-1.682-2.384 1.05.626c3.03 1.81 12.239 8.067 15.97 10.85 8.124 6.063 14.381 11.434 21.819 18.729C239.289 60.7 251.998 77.816 261.84 96.97c9.664 18.812 15.221 36.89 17.608 57.284.67 5.722.671 21.55.003 27.044-.743 6.103-1.726 11.435-3.16 17.127l-1.328 5.27 2.398 3.17c14.97 19.788 23.263 43.495 22.604 64.612-.196 6.25-1.016 10.411-2.332 11.824-.74.794-1.26.72-1.793-.256z" style="fill:#f95029;fill-opacity:1;stroke-width:.266437"/></svg>