<svg xmlns="http://www.w3.org/2000/svg" width="937" height="937.534" viewBox="0 0 247.915 248.056"><path d="M117.994 267.826c-.142-.33-2.927-8.637-6.188-18.46-3.26-9.822-6.051-17.946-6.201-18.053-.15-.107-20.417-.196-45.037-.198-48.45-.004-46.215.058-50.128-1.415-7.523-2.831-13.408-9.226-15.628-16.978l-.606-2.117V40.743l.611-2.117c2.418-8.378 9.268-15.227 17.646-17.645l2.116-.611h78.815l10.998 37.174 121.496 1.41c8.742 4.688 13.906 10.966 16.233 19.095v169.863l-.61 2.116c-2.4 8.31-9.091 15.053-17.514 17.643l-1.984.61-51.88.072-51.88.073zm103.046-12.19c4.52-1.815 6.834-4.165 8.448-8.576.898-58.44.462-87.324.462-166.894-1.664-4.722-5.072-8.462-8.863-9.882l-112.977-.11c0 .259.11.827.243 1.262.476 1.548 6.83 23.062 8.088 27.383 4.45 15.284 8.866 30.213 9.008 30.441.053.087.966.051 2.028-.079 4.722-.58 14.549 1.62 15.543 3.477.156.292.28 2.094.28 4.092 0 2.923-.078 3.648-.425 3.995-.39.389-.485.385-1.164-.047-5.313-3.384-7.09-4.048-11.339-4.24-2.989-.136-3.004-.134-2.823.436.1.315.834 2.8 1.633 5.524.798 2.724 1.54 5.043 1.65 5.155.11.112 1.44.504 2.955.87 6.78 1.643 10.008 4.65 10.846 10.105.744 4.843-1.579 10.24-5.461 12.693-.64.404-1.164.902-1.164 1.106 0 .205.725 2.824 1.612 5.821l15.585 52.919c0 .232-5.472 5.894-12.161 12.582-8.172 8.17-12.057 12.229-11.84 12.369.176.115 20.205.175 44.507.133 41.232-.07 44.262-.106 45.329-.535zm-27.845-67.272c-.357-.356-.365-.526-.058-1.256.196-.465 1.914-4.48 3.818-8.925l3.463-8.08-7.392-19.4c-4.067-10.67-7.393-19.497-7.393-19.616 0-.119.187-.403.415-.632.562-.561 7.55-.615 8.098-.062.193.194 2.672 6.683 5.51 14.418 2.837 7.736 5.224 14.066 5.305 14.067.08 0 2.455-6.324 5.278-14.055 2.823-7.732 5.296-14.22 5.495-14.42.563-.563 7.542-.517 8.112.052.229.23.416.512.416.628 0 .636-22.328 57.086-22.69 57.363-.298.23-1.59.331-4.197.331-3.06 0-3.845-.077-4.18-.413zm-35.061-14.16c-2.048-.36-5.026-1.876-6.707-3.411-1.584-1.448-3.02-3.907-3.792-6.49-.666-2.231-.599-6.283.142-8.638 2.173-6.902 8.83-10.145 22.535-10.978l2.885-.175v-1.65c0-2.492-.991-4.234-2.992-5.257-1.38-.706-1.804-.783-4.882-.892-3.932-.14-6.69.286-10.632 1.64-1.39.478-2.721.952-2.957 1.055-.257.112-.602.015-.86-.244-.624-.624-.637-7.293-.015-7.915.228-.228.496-.416.595-.417.099 0 1.565-.295 3.259-.655 9.016-1.914 17.02-1.271 21.6 1.734 2.49 1.634 4.003 3.832 4.994 7.257.408 1.41.47 3.364.557 17.493.089 14.447.058 15.945-.335 16.338-.357.357-1.049.432-3.966.432-4.198 0-4.366-.087-4.366-2.268 0-.79-.064-1.436-.144-1.436-.079 0-.763.463-1.52 1.03-2.908 2.171-6.105 3.36-9.58 3.562-1.31.076-3.029.024-3.82-.115zm8.467-8.334c1.526-.443 4.427-2.038 5.781-3.177l.815-.686v-10.314l-1.786.17c-4.2.4-8.237.972-9.583 1.358-2.875.825-4.8 2.176-5.596 3.928-.55 1.211-.658 3.921-.218 5.506.357 1.284 1.754 2.673 3.206 3.186 1.552.549 5.538.564 7.38.03zm-126.847-2.124-.18-19.74 1.261.953c2.84 2.146 9.102 5.242 13.088 6.47 5.76 1.774 11.635 1.781 16.952.02 3.105-1.027 8.437-3.864 11.305-6.015 3.21-2.406 7.148-6.405 9.303-9.445 2.737-3.863 5.451-10.093 6.337-14.548.555-2.797.491-13.224-.103-16.712-1.584-9.285-5.867-17.756-12.014-23.76-5.721-5.588-14.45-8.978-23.102-8.972-4.016.003-5.888.289-9.525 1.458-4.299 1.382-6.591 2.777-12.004 7.306-1.088.91-2.046 1.654-2.13 1.654l-.153-8.527-18.97.192-.193 14.029c-.196 14.292-.167 94.817.034 95.178.06.11 4.647.199 10.192.199h10.082zm7.591-32.818c-4.142-3.143-7.478-8.42-8.401-13.287-.48-2.53-.553-7.654-.142-9.976 1.23-6.94 5.57-13.191 10.937-15.75 3.118-1.486 5.08-1.932 8.497-1.933 5.777-.002 10.812 2.214 14.847 6.534 1.57 1.68 1.99 2.352 2.95 4.71 1.928 4.734 2.471 7.245 2.466 11.396-.003 2.893-.498 5.806-1.473 8.673-6.285 12.352-19.163 17.496-29.68 9.633zm88.792 30.782c.011-1.107-.133-2.09-.374-2.558-.379-.732-1.906-2.032-2.127-1.81-.092.092 1.458 5.673 1.896 6.829.275.722.585-.542.605-2.46z" style="fill:#fff;stroke-width:.264583" transform="translate(5.794 -20.37)"/></svg>