<svg xmlns="http://www.w3.org/2000/svg" width="370" height="441.685" viewBox="0 0 97.896 116.862"><path d="M163.815 246.415c-3.342-.674-6.19-3.267-7.106-6.47-.209-.73-2.227-18.95-4.484-40.487-2.257-21.537-4.177-39.724-4.265-40.415l-.16-1.257h79.473l-.16 1.257c-.089.691-2.002 18.878-4.251 40.415-2.296 21.981-4.267 39.747-4.493 40.5-.813 2.71-2.987 5.035-5.735 6.135-1.063.425-2.97.464-24.436.502-12.806.023-23.778-.058-24.383-.18zm7.467-9.911c.777-.456 1.307-1.04 1.722-1.898l.6-1.24-2.407-31.241c-1.324-17.183-2.543-31.599-2.709-32.036-1.387-3.647-6.755-3.803-8.477-.246l-.59 1.217 2.413 31.334c2.63 34.185 2.445 32.685 4.199 33.913 1.019.714 1.343.81 2.827.833.934.015 1.615-.164 2.422-.636zm18.353.27c1.036-.536 2.062-1.823 2.388-2.994.377-1.361.377-61.726 0-63.087-.326-1.172-1.352-2.458-2.388-2.994-.964-.499-3.234-.499-4.197 0-1.037.536-2.063 1.822-2.388 2.994-.181.652-.27 11.344-.263 31.676.01 32.54-.014 31.873 1.218 33.26 1.328 1.494 3.93 2.024 5.63 1.145zm19.284-.372c1.892-1.347 1.667.424 4.318-34.008l2.412-31.338-.588-1.215c-1.721-3.555-7.087-3.398-8.477.248-.167.437-1.385 14.854-2.708 32.038l-2.406 31.244.597 1.233c.871 1.8 2.3 2.61 4.398 2.495 1.142-.063 1.843-.262 2.454-.697zm-70.33-90.813c0-3.373.32-4.348 1.802-5.479l.934-.712 12.588-.133 12.589-.132.132-3.175c.074-1.774.276-3.425.457-3.742.513-.894 1.852-1.901 2.925-2.2 1.344-.373 33.696-.373 35.04 0 1.074.299 2.413 1.306 2.925 2.2.182.317.383 1.968.457 3.742l.133 3.175 12.588.132 12.589.133.934.712c1.481 1.13 1.802 2.106 1.802 5.48v2.936h-97.896z" style="fill:#fff;stroke-width:.264583" transform="translate(-138.588 -129.737)"/></svg>