<svg xmlns="http://www.w3.org/2000/svg" width="300mm" height="300mm" viewBox="0 0 300 300"><path d="M75.858 298.295c-4.351-1.903-4.555-3.078-4.555-26.309v-20.94l2.104-2.354 2.103-2.356 22.272-.36c28.29-.458 26.414.502 31.35-16.048 4.433-14.857 10.714-43.573 10.67-48.777-.033-4.036-2.58-7.705-9.097-13.11-8.961-7.432-24.597-22.842-31.424-30.968-11.884-14.148-20.07-28.677-23.25-41.27-3.603-14.272-5.646-38.126-5.74-67.037-.067-20.608-.013-21.475 1.431-23.412C75.274.592 70.012.899 148.833.853l71.4-.043 2.871 1.616c1.58.888 3.278 2.42 3.776 3.403.66 1.304.904 7.15.904 21.62 0 36.429-2.903 63.239-8.332 76.94-7.476 18.866-27.044 42.972-50.786 62.564-8.113 6.694-10.088 9.495-10.093 14.313-.008 6.916 6.143 34.846 11.556 52.48 2.116 6.89 3.831 9.44 7.685 11.42 1.057.543 8.416.81 22.358.812 19.335.002 20.943.1 23.09 1.41 3.592 2.19 3.936 4.721 3.684 27.115l-.222 19.768-2.358 2.357-2.358 2.356-71.926.158c-60.154.132-72.303-.008-74.224-.847zm112.977-19.818c.416-.776.747-6.01.747-11.811 0-8.526-.203-10.585-1.118-11.344-1.647-1.367-76.879-1.38-78.526-.014-.937.779-1.132 2.82-1.132 11.886 0 7.552.269 11.215.866 11.812.651.651 10.444.865 39.64.865 37.599 0 38.799-.042 39.523-1.395zM50.189 111.518c-12.668-4.47-20.73-13.512-25.122-28.175-1.093-3.65-1.615-7.857-1.885-15.186-.322-8.745-.163-10.974 1.155-16.227 4.121-16.431 13.66-25.38 27.133-25.454 5.78-.032 12.267 1.85 13.35 3.871 1.002 1.873.892 9.618-.152 10.661-.49.491-2.843.866-5.437.866-10.61 0-14.12 5.688-14.02 22.718.076 12.86 3.4 22.984 8.928 27.186 4.195 3.19 7.324 4.434 11.618 4.62 2.305.1 4.61.532 5.125.958 1.18.98 4.286 11.31 3.69 12.275-.245.395-2.575 1.376-5.178 2.18-6.454 1.994-13.009 1.894-19.205-.293zm179.42.751c-3.887-1.223-6.13-2.486-6.13-3.45 0-1.243 2.801-10.206 3.555-11.376.447-.693 1.687-.985 3.681-.868 7.708.455 16.384-5.713 19.336-13.746 3.901-10.616 4.038-27.565.284-35.1-2.064-4.142-4.463-5.392-11.19-5.83l-5.93-.386v-11.54l2.677-1.308c1.473-.72 4.73-1.649 7.239-2.064 8.257-1.369 17.724 2.34 23.28 9.122C277 48.643 278.278 75.7 269.133 93.32c-4.816 9.28-14.445 16.966-24.017 19.17-4.355 1.004-11.96.895-15.506-.22z" style="fill:#fff;stroke-width:.721207"/></svg>