<svg xmlns="http://www.w3.org/2000/svg" width="968.363" height="968.856" viewBox="0 0 256.213 256.343"><path d="M304.876 261.479c-6.688-.542-13.231-1.575-19.315-3.05-6.16-1.494-16.495-4.972-21.795-7.336-.855-.38-1.599-.693-1.654-.693-.054 0-.099.957-.099 2.125-.696 7.053-4.707 6.736-8.731 6.739-10.836-.582-7.828-3.631-13.011-15.478-9.219-21.332-5.926-25.547 16.258-25.488 13.558 1.502 21.048-4.536 21.312 8.379.096 4.806-1.594 5.321-3.131 6.904l-.9.926 2.828 1.123c12.057 4.787 24.269 7.644 37.3 8.385 10.551.6 24.43-1.388 36.004-5.158 17.986-5.858 32.901-14.984 45.95-28.115 7.23-7.274 11.787-13.107 16.77-21.46 3.332-5.588 5.381-9.665 7.513-14.95 10.395-25.766 10.567-50.226.534-75.67-3.031-7.687-6.631-14.54-11.343-21.597-1.13-1.692-2.182-3.537-2.338-4.101-.409-1.472-.346-7.676.09-8.897.579-1.624 1.7-2.855 3.24-3.56 1.356-.621 1.626-.649 5.584-.564 3.865.083 4.242.136 5.318.751 1.778 1.015 5.556 6.58 10.19 15.009 5.755 10.467 10.638 24.499 12.687 36.452 1.369 7.987 1.63 11.784 1.627 23.68-.002 8.793-.098 11.85-.481 15.346-1.263 11.522-3.738 21.323-8.364 33.12-4.296 10.958-12.1 23.774-20.35 33.423-3.045 3.563-10.585 11.07-14.327 14.264-7.89 6.738-17.335 12.812-27.59 17.744-11.668 5.613-26.004 9.75-38.953 11.243-6.977.804-23.73 1.078-30.823.504zm-10.406-37.437c-1.833-.563-3.465-2.271-4.03-4.218-.658-2.262-.445-8.014.353-9.546.743-1.427 2.441-2.863 3.841-3.249.814-.224 7.196-.286 23.735-.23 22.601.077 22.623.078 23.68.648.583.314 1.38.91 1.772 1.323 1.318 1.389 1.536 2.35 1.533 6.763-.002 3.678-.058 4.163-.62 5.37-.746 1.602-2.167 2.752-3.983 3.223-2.088.542-44.496.464-46.281-.084zm-84.366-22.383c-3.69-5.557-4.784-7.451-7.61-13.174-4.518-9.146-6.8-15.296-9.13-24.604-2.959-11.818-4.08-22.511-3.76-35.85.478-19.996 4.54-36.624 13.169-53.91 9.375-18.78 24.165-35.471 41.778-47.143 7.733-5.125 10.603-6.712 19.12-10.57 11.7-5.3 24.794-8.785 38.968-10.371 5.07-.568 19.37-.792 25.255-.397 9.01.605 15.933 1.722 24.785 3.997 6.892 1.772 12.525 3.673 17.708 5.975.198.088.338-.755.433-2.615.149-2.921.487-3.945 1.753-5.31 1.458-1.572 2.458-1.873 6.574-1.979 4.444-.114 5.917.237 7.456 1.776l10.736 34.881c-.63 1.649-1.78 2.863-3.245 3.429-1.156.446-2.454.48-18.178.48h-16.933l-1.099-.587c-1.35-.722-2.563-2.152-2.965-3.493-.167-.558-.3-2.71-.296-4.814.005-3.147.092-3.995.502-4.898.272-.6.627-1.173.788-1.272.837-.518-.155-.973-6.107-2.8-22.907-7.034-40.988-6.996-64.377.134-6.016 1.834-12.448 4.59-19.526 8.366-10.443 5.572-21.451 14.182-29.6 23.15-7.433 8.181-12.26 15.17-17.158 24.843-3.134 6.19-4.929 10.55-6.71 16.305-6.931 22.397-6.724 40.5.721 62.993 2.67 8.068 7.23 17.331 12.282 24.948 3.447 4.34 5.253 12.857 1.61 16.719-6.762 4.597-13.512.94-16.944-4.209zm71.224-2.346c-1.481-.671-2.27-1.396-3.003-2.755-.519-.965-.57-1.457-.57-5.557 0-3.873.069-4.622.49-5.394.61-1.12 1.602-2.053 2.874-2.703.95-.485 2.146-.502 36.587-.502 39.007 0 36.605-.096 38.325 1.536 1.498 1.422 1.85 2.52 1.973 6.15.16 4.717-.157 6.022-1.89 7.799-.909.93-1.718 1.494-2.423 1.686-.74.202-11.61.288-36.115.285-34.717-.004-35.07-.01-36.248-.545zm.132-26.136c-1.387-.631-2.942-2.381-3.3-3.715-.196-.725-.264-6.29-.214-17.433l.074-16.368.794-1.274c.547-.878 1.234-1.521 2.212-2.07 1.308-.737 1.664-.808 4.63-.922 5.297-.203 7.63.661 9.165 3.395l.662 1.178.08 10.12.081 10.12h44.939l.072-22.82.072-22.82.583-1.091c.622-1.162 1.864-2.344 2.974-2.828.372-.163 2.652-.36 5.067-.437l4.392-.142-7.4-8.07c-4.071-4.438-9.037-9.856-11.036-12.038-14.595-15.935-17.235-18.794-17.413-18.854-.111-.038-1.746 1.625-3.633 3.696-12.07 13.29-21.641 23.517-32.37 35.341l4.812.111c5.16.12 5.9.28 7.502 1.632 1.65 1.391 1.94 2.47 1.934 7.195-.005 3.523-.086 4.393-.494 5.29-.6 1.32-2.327 2.839-3.697 3.25-1.581.473-35.008.408-36.352-.071-1.524-.544-2.726-1.598-3.412-2.989-.574-1.167-.622-1.587-.622-5.497 0-3.872.05-4.328.59-5.336 19.483-22.081 36.898-40.738 55.46-61.06 2.35-2.573 3.817-3.949 4.762-4.466 1.365-.748 1.365-.748 5.731-.662 5.23.103 5.506.218 8.494 3.526 1.957 2.166 7.314 8.017 13.202 14.418 3.483 3.787 8.143 8.876 23.02 25.137a4270.214 4270.214 0 0 0 11.826 12.887 675.714 675.714 0 0 1 5.791 6.35c3.775 4.2 3.916 4.57 3.771 9.865-.096 3.493-.13 3.68-.896 4.918a6.846 6.846 0 0 1-2.09 2.089l-1.296.8-10.803.075-10.803.075v22.026c0 23.834.003 23.779-1.425 25.651-.404.53-1.343 1.267-2.088 1.638l-1.353.674-35.468-.006c-33.741-.006-35.52-.03-36.527-.488z" style="fill:#fff;stroke-width:.264583" transform="translate(-189.55 -5.44)"/></svg>