<svg xmlns="http://www.w3.org/2000/svg" width="501.475" height="684.06" viewBox="0 0 132.682 180.991"><path d="M294.47 224.042c-1.833-.563-3.465-2.271-4.03-4.218-.658-2.262-.445-8.014.353-9.546.743-1.427 2.441-2.863 3.841-3.249.814-.224 7.196-.286 23.735-.23 22.601.077 22.623.078 23.68.648.583.314 1.38.91 1.772 1.323 1.318 1.389 1.536 2.35 1.533 6.763-.002 3.678-.058 4.163-.62 5.37-.746 1.602-2.167 2.752-3.983 3.223-2.088.542-44.496.464-46.281-.084zm-13.142-24.729c-1.481-.671-2.27-1.396-3.003-2.755-.519-.965-.57-1.457-.57-5.557 0-3.873.069-4.622.49-5.394.61-1.12 1.602-2.053 2.874-2.703.95-.485 2.146-.502 36.587-.502 39.007 0 36.605-.096 38.325 1.536 1.498 1.422 1.85 2.52 1.973 6.15.16 4.717-.157 6.022-1.89 7.799-.909.93-1.718 1.494-2.423 1.686-.74.202-11.61.288-36.115.285-34.717-.004-35.07-.01-36.248-.545zm.132-26.136c-1.387-.631-2.942-2.381-3.3-3.715-.196-.725-.264-6.29-.214-17.433l.074-16.368.794-1.274c.547-.878 1.234-1.521 2.212-2.07 1.308-.737 1.664-.808 4.63-.922 5.297-.203 7.63.661 9.165 3.395l.662 1.178.08 10.12.081 10.12h44.939l.072-22.82.072-22.82.583-1.091c.622-1.162 1.864-2.344 2.974-2.828.372-.163 2.652-.36 5.067-.437l4.392-.142-7.4-8.07c-4.071-4.438-9.037-9.856-11.036-12.038-14.595-15.935-17.235-18.794-17.413-18.854-.111-.038-1.746 1.625-3.633 3.696-12.07 13.29-21.641 23.517-32.37 35.341l4.812.111c5.16.12 5.9.28 7.502 1.632 1.65 1.391 1.94 2.47 1.934 7.195-.005 3.523-.086 4.393-.494 5.29-.6 1.32-2.327 2.839-3.697 3.25-1.581.473-35.008.408-36.352-.071-1.524-.544-2.726-1.598-3.412-2.989-.574-1.167-.622-1.587-.622-5.497 0-3.872.05-4.328.59-5.336 19.483-22.081 36.898-40.738 55.46-61.06 2.35-2.573 3.817-3.949 4.762-4.466 1.365-.748 1.365-.748 5.731-.662 5.23.103 5.506.218 8.494 3.526 1.957 2.166 7.314 8.017 13.202 14.418 3.483 3.787 8.143 8.876 23.02 25.137a4270.214 4270.214 0 0 0 11.826 12.887 675.714 675.714 0 0 1 5.791 6.35c3.775 4.2 3.916 4.57 3.771 9.865-.096 3.493-.13 3.68-.896 4.918a6.846 6.846 0 0 1-2.09 2.089l-1.296.8-10.803.075-10.803.075v22.026c0 23.834.003 23.779-1.425 25.651-.404.53-1.343 1.267-2.088 1.638l-1.353.674-35.468-.006c-33.741-.006-35.52-.03-36.527-.488z" style="fill:#fff;stroke-width:.264583" transform="translate(-251.562 -43.504)"/></svg>