<svg xmlns="http://www.w3.org/2000/svg" width="300mm" height="300mm" viewBox="0 0 300 300"><path d="m107.38 256.547-42.236-42.363 42.7-.106c63.286-.157 126.55-.174 126.55-.034 0 .067-18.158 18.3-40.351 40.519-22.193 22.218-41.212 41.285-42.265 42.372-1.053 1.086-1.97 1.975-2.038 1.975-.068 0-19.13-19.063-42.36-42.363zM21.247 130.164C21.289 130.041 150.458.745 150.539.745c.033 0 56.615 56.7 76.576 76.736a190933.62 190933.62 0 0 1 52.568 52.778c.04.043-58.105.077-129.21.077-84.355 0-129.264-.06-129.226-.172z" style="fill:#fff;stroke-width:.175598"/></svg>