<svg xmlns="http://www.w3.org/2000/svg" width="300mm" height="300mm" viewBox="0 0 300 300"><g style="fill:#fff"><path d="M153.523 123.37c-.741-.89-1.426-1.65-1.522-1.687-.096-.038-1.513.816-3.149 1.896-3.46 2.286-7.408 4.366-9.827 5.18-2.788.937-7.33 1.668-9.145 1.472-5.874-.635-10.483-2.81-14.194-6.697-2.685-2.814-4.026-5.43-4.468-8.718-.395-2.934-.098-4.915 1.104-7.375 2.61-5.339 7.928-8.416 14.515-8.4 6.39.017 12.355 2.513 17.171 7.186 1.077 1.044 2.03 1.899 2.12 1.899.09 0 1.828-1.679 3.864-3.73 4.708-4.745 7.62-7.015 11.345-8.845 4.334-2.13 6.894-2.794 11.405-2.96 4.503-.165 7.672.312 10.945 1.646 5.773 2.354 9.76 5.918 11.994 10.722.905 1.947 1.29 3.93 1.316 6.772.046 5.086-1.591 9.246-5.009 12.728-3.308 3.37-6.245 5.113-11.054 6.56-9.08 2.356-20.715.17-27.411-7.65zm22.024 2.02c2.34-1.91 3.935-4.474 4.737-7.61.634-2.478.688-5.903.13-8.268-.45-1.911-1.843-4.826-2.305-4.826-1.147 0-9.974 5.091-14.66 8.454-7.18 5.155-8.289 5.99-8.295 6.257-.015.679 7.884 4.541 11.365 5.557 1.907.556 6.007 1.377 7.018 1.406.548.015 1.173-.287 2.01-.97zm-47.987-3.924c3.383-.699 6.73-2.617 11.316-6.485 1.164-.982 2.514-2.198 3-2.704l.884-.918-1.148-.788c-3.308-2.269-6.72-3.379-11.228-3.653l-2.936-.178-2.502 1.35c-5.285 2.848-7.765 7.004-6.81 11.411l.372 1.719 1.32.306c1.923.447 5.41.42 7.732-.06z" style="fill:#fff;stroke-width:.264583" transform="matrix(3.4802 0 0 3.4802 -386.307 -225.208)"/><path d="M168.968 131.56c-3.867-.738-7.995-2.27-10.24-3.801-1.653-1.126-6.226-5.638-6.226-6.142 0-.25.477-.786 1.06-1.19l1.06-.734 1.57 1.102c2.17 1.52 6.604 3.673 9.142 4.437 3.43 1.032 6.458 1.387 11.983 1.404 5.401.018 7.293-.24 9.86-1.344 1.205-.519 1.587-1.231.509-.949-.261.068-.974-.16-1.585-.506-.61-.347-1.327-.63-1.593-.63s-.64-.152-.833-.337c-.192-.186-.528-.327-.746-.315a1.238 1.238 0 0 1-.692-.195c-.163-.12-.945-.171-1.74-.115l-1.444.103.919-2.68c1.63-4.757 1.479-8.849-.486-13.06l-1.016-2.177-1.139.402c-1.661.586-3.675 1.63-7.385 3.828-4.823 2.859-6.09 3.722-13.721 9.343-.79.581-1.565 1.057-1.723 1.057-.55 0-10.731-7.444-10.731-7.846 0-.149.207-.517.46-.82.324-.385.242-.355-.273.1l-.736.65-.963-.517a13.903 13.903 0 0 1-1.78-1.18c-.764-.616-.807-.742-.638-1.852.1-.655.21-1.816.244-2.58.035-.763.107-1.389.16-1.389.359 0 2.373 1.533 4.01 3.052l1.94 1.8 4.061-4.13c2.234-2.271 4.983-4.812 6.109-5.645 4.523-3.344 9.733-5.468 14.688-5.986 12.054-1.26 23.133 5.405 25.513 15.349.55 2.294.418 6.493-.274 8.749-1.825 5.948-6.672 10.85-13.024 13.173-4.642 1.697-10.356 2.325-14.3 1.571zm11.05-9.94c0-.146-.052-.265-.116-.265s-.19.119-.28.264c-.09.146-.038.265.116.265s.28-.12.28-.265zm-29.168-1.258c-.248-.4-.454-.571-.458-.38-.004.19-.128.27-.276.18-.148-.092-.21-.263-.136-.381.072-.118-.223-.285-.658-.372-.434-.087-.789-.327-.789-.533 0-.206-.268-.442-.595-.525-.328-.083-1.126-.618-1.775-1.189-.649-.571-1.602-1.26-2.117-1.53-.515-.27-1.022-.61-1.126-.757a.763.763 0 0 0-.529-.28c-.187-.006-.306-.17-.263-.363.054-.248-.13-.312-.62-.218-.64.122-.595.029.555-1.139l1.253-1.272 1.484 1.094c.816.602 2.139 1.587 2.94 2.19 1.821 1.37 4.362 3.159 5.49 3.865.472.296.855.616.85.71-.018.313-1.92 1.628-2.353 1.628-.234 0-.629-.327-.877-.728zm-33.406-.33c-.09-.146-.037-.265.117-.265s.28.12.28.265c0 .145-.052.264-.116.264-.065 0-.19-.119-.28-.264z" style="fill:#fff;stroke-width:.264583" transform="matrix(3.4802 0 0 3.4802 -386.307 -225.208)"/><path d="M191.925 106.356c0-.15-.328-.284-.728-.3-3.972-.16-4.891-.249-5.046-.49-.233-.364-3.017-.941-4.545-.943h-1.19l1.058-.345c.582-.19 2.07-.353 3.307-.362 1.832-.014 2.661.127 4.472.757 2.175.757 3.22 1.405 2.854 1.77-.1.101-.182.061-.182-.087z" style="fill:#fff;stroke-width:.264583" transform="matrix(3.4802 0 0 3.4802 -386.307 -225.208)"/></g></svg>