<svg xmlns="http://www.w3.org/2000/svg" width="693" height="487" viewBox="0 0 183.356 128.852"><path d="M69.396 127.44v-3.836h34.13V94.235h-39.57L58.426 75l-2.387-.453c-3.154-.598-7.318-2-10.622-3.577l-2.68-1.278c-.682 1.782-1.298 3.587-1.924 5.39L7.218 65.098v-1.782L26.633 2.425h2.043l31.856 9.148-.558 6.415c.078.127 1.367.306 2.864.4 8.882.55 44.082 2.84 45.872 2.982l2.141.17.896 1.49c.492.818 4.669 8.155 9.28 16.304l8.386 14.817 1.014.183c.557.1 7.71.19 15.896.198l14.883.016v68.97c9.788.236 19.578.35 29.369.35V131.278H69.395zm84.137-34.395v-30.56h-33.887l2.472 2.363c3.769 3.603 4.692 5.769 4.692 11.006 0 4.501-1.051 7.256-3.82 10.013-2.374 2.362-5.051 3.333-9.21 3.338l-2.58.003v34.396h42.333zm-30.774 17.142a853.452 853.452 0 0 1-6.201-5.943l-4.035-3.903c-.202-4.52 3.88-6.344 6.669-6.37l3.707 3.571c2.04 1.965 3.822 3.572 3.962 3.572.14 0 4.415-4.048 9.501-8.995l9.247-8.996c4.804-.221 6.601 1.86 6.601 6.484l-9.459 9.147c-5.202 5.032-10.496 10.121-11.765 11.31-3.165 3.153-5.06 3.106-8.227.123zm-45.955-23.59-3.456-11.33-2.704.11c-1.487.061-2.841.154-3.01.207l2.818 10.893c.014.341 6.352.461 6.352.12zm10.052-9.595c-1.236-.82-2.825-1.816-3.531-2.214-1.13-.636-1.268-.663-1.148-.229.724 2.623 3.449 11.916 3.538 12.07l6.12.198c-1.369-4.392-2.238-8.009-4.979-9.825zm14.96 8.904c-.868-.498-1.613-.87-1.655-.828-.043.042-.002.453.09.913.164.82.194.836 1.655.828l1.489-.008-1.579-.905zm13.48-5.28c1.798-1.054 3.585-3.539 3.57-4.967-.011-1.245-.997-2.747-2.929-4.465-1.831-1.628-12.467-10.514-19.766-16.514l-3.219-2.646.34-11.245h7.589v6.343l4.432 3.695 4.432 3.695 4.857.013c3.997.01 4.832-.051 4.718-.348-.106-.278-7.872-14.04-13.356-23.67-.358-.629-.906-1.24-1.218-1.359-.762-.29-32.721-2.538-43.838-3.085l-3.594-.176-3.45 10.158a1595.994 1595.994 0 0 0-5.742 17.24c-1.262 3.894-2.356 7.242-2.431 7.44-.154.4 2.822 2.25 5.778 3.591 2.891 1.31 8.755 2.909 11.841 3.227 4.84.5 9.842.007 14.94-1.47 1.608-.467 3.001-.687 4.344-.687h1.976l11.523 6.925c6.338 3.809 12.618 7.494 13.955 8.19 2.712 1.41 3.027 1.417 5.247.115zM39.86 51.174C47.44 28.371 50.88 17.727 50.738 17.5c-.31-.502-17.847-5.934-18.144-5.62-.21.22-15.884 47.487-15.781 47.586.034.033 3.099 1.016 6.81 2.183l8.863 2.79c1.164.368 2.256.674 2.426.68.176.008 2.303-5.988 4.948-13.944zm-14.946 8.532c-1.117-.607-1.556-1.887-1.555-4.537.002-3.918.972-4.855 5.026-4.855 2.632 0 3.544.303 4.475 1.486.48.61.552 1.064.552 3.476.34 4.744-2.6 4.828-4.93 4.817-1.968-.007-3.094-.129-3.568-.387z" style="fill:#fff;stroke-width:.264583" transform="translate(-7.218 -2.425)"/></svg>