<svg xmlns="http://www.w3.org/2000/svg" width="326.853" height="371.959" viewBox="0 0 86.48 98.414"><path d="M153.118 33c-.916-1.162-10.77-9.319-12.197-14.229 1.903-4.38 8.467-11.025 12.208-13.604 5.561 5.073 14.076 8.107 12.03 13.766-3.795 8.935-12.02 14.094-12.04 14.067z" style="fill:#85324c;stroke-width:.264583" transform="translate(-110.37 30.427)"/><path d="M110.37-16.28c-.11-.55 12.019-12.824 12.673-12.824l29.92 33.585 31.175-34.908c.54 0 12.712 12.18 12.712 12.721 0 .528-31.225 36.638-31.682 36.638-12.267-13.49-.009.001-12.267-13.49L140.92 18.77z" style="fill:#853232;stroke-width:.264583" transform="translate(-110.37 30.427)"/><path d="M110.66 53.141c30.211-34.264.065-.32 30.26-34.37l12.218 14.214c.286.333.005.007-29.15 33.629L110.659 53.14z" style="fill:#323267;stroke-width:.264583" transform="translate(-110.37 30.427)"/><path d="m153.143 32.992 12.016-14.059 31.363 35.53c.146.374 0 0-13.296 13.524z" style="fill:#323232;stroke-width:.264583" transform="translate(-110.37 30.427)"/></svg>