<svg xmlns="http://www.w3.org/2000/svg" width="29mm" height="29mm" viewBox="0 0 29 29"><path d="M77.526 119.398c-.45-.72-2.204-.128-1.05-1.53l1.666-1.98c.915-1.09 1.837-2.254 1.957-2.254.12 0 1.459.848 2.229 2.045l1.41 2.194c.432-.35-.578 1.046-.943 1.467-1.36 1.564-2.684 2.975-2.768 2.975-.084 0-1.204-1.425-2.5-2.917z" style="fill:#e6e6e6;stroke-width:.264583" transform="translate(-65.325 -103.518)"/><path d="M71.809 112.482c-2.568-2.961-4.669-5.448-4.669-5.526 0-.22 3.696-3.299 3.96-3.299.13 0 2.16 2.233 4.513 4.961 2.353 2.729 4.373 4.961 4.489 4.961.115 0 2.144-2.232 4.509-4.96 2.364-2.73 4.41-4.962 4.544-4.962.288 0 3.915 3.052 3.915 3.295 0 .09-2.1 2.585-4.666 5.543l-4.666 5.378-1.089-1.283a98.948 98.948 0 0 0-1.816-2.08l-.728-.798-.728.798c-.4.439-1.216 1.374-1.814 2.077l-1.086 1.28z" style="fill:#fff;stroke-width:.264583" transform="translate(-65.325 -103.518)"/><path d="M69.916 131.63a89.468 89.468 0 0 0-2.06-1.844l-.997-.86 4.413-5.093c2.428-2.802 4.581-5.273 4.786-5.491.328-.35.457-.297 1.085.442.392.461 1.218 1.43 1.836 2.15l1.122 1.313-4.506 5.191c-2.479 2.855-4.532 5.188-4.562 5.185-.031-.004-.534-.45-1.117-.993z" style="fill:#b3b3b3;stroke-width:.264583" transform="translate(-65.325 -103.518)"/><path d="m84.571 127.254-4.397-5.104.693-.784c.381-.431 1.183-1.361 1.782-2.066l1.09-1.283 4.665 5.378c2.566 2.958 4.666 5.451 4.666 5.54 0 .19-3.74 3.431-3.954 3.427-.081-.002-2.126-2.3-4.545-5.108z" style="fill:gray;stroke-width:.264583" transform="translate(-65.325 -103.518)"/></svg>