<svg xmlns="http://www.w3.org/2000/svg" width="300mm" height="300mm" viewBox="0 0 300 300"><path d="M66.22 259.557c-15.435-2.55-30.823-13.697-41.932-30.373-28.214-42.35-30.97-115.227-6.147-162.563 23.236-44.312 64.164-54.442 94.718-23.445 7.173 7.277 12.436 14.835 17.709 25.434 21.505 43.226 21.505 104.956 0 148.182-5.273 10.599-10.536 18.157-17.709 25.434-13.572 13.769-30.387 20.017-46.639 17.331zm0-76.437c14.32-3.893 25.695-15.563 29.617-30.383 1.358-5.132 1.358-14.94 0-20.072-3.183-12.03-11.296-22.176-21.928-27.424-6.597-3.256-10.758-4.147-19.2-4.11-6.274.028-8.06.258-11.907 1.536-11.026 3.662-19.95 11.197-24.846 20.978-3.882 7.755-4.238 9.912-3.602 21.869l.535 10.052 2.866 5.773c5.843 11.771 17.216 20.322 30.164 22.68 4.096.746 14.049.257 18.301-.899zm-19.777-12.244c-9.95-3.405-16.965-10.473-19.722-19.87-1.221-4.162-1.221-12.448 0-16.61 2.825-9.63 10.706-17.288 20.862-20.272 2.699-.792 8.896-1.33 8.896-.771 0 .094-.531 1.212-1.18 2.486-2.12 4.157-1.243 10.356 1.946 13.776 4.754 5.096 13.842 4.842 18.347-.512.853-1.014 1.712-2.486 1.91-3.273.197-.787.54-1.43.76-1.43.22 0 1.233 1.394 2.25 3.099 5.185 8.7 5.62 18.865 1.207 28.19-2.15 4.545-8.07 10.716-12.591 13.124-6.77 3.606-15.78 4.426-22.685 2.063zm172.978 88.45c-19.996-4.315-36.615-19.559-48.633-44.608-20.138-41.973-20.138-102.061 0-144.035 14.545-30.315 36.737-46.888 60.623-45.272 21.35 1.445 40.127 16.38 53.514 42.56 16.593 32.452 20.894 79.79 10.879 119.73-9.327 37.193-29.76 63.682-54.54 70.706-5.75 1.63-16.462 2.08-21.843.92zm-1.304-75.63c5.602-1.134 14.142-5.19 18.167-8.628 6.87-5.868 12.303-14.517 14.146-22.521 1.252-5.436 1.252-14.257 0-19.692-.537-2.33-2.088-6.387-3.447-9.014-4.45-8.601-10.395-14.435-19.002-18.65-12.031-5.892-24.448-5.848-36.898.128-4.844 2.325-6.333 3.428-10.922 8.082-8.569 8.692-11.45 15.736-11.95 29.218-.26 7.008-.16 8.193.898 10.626.655 1.507 1.547 3.93 1.982 5.388 1.222 4.093 5.758 10.517 10.563 14.96 9.742 9.01 23.303 12.767 36.463 10.103zm-16.001-12.363c-14.397-3.958-23.925-18.422-21.678-32.908 2.155-13.888 14.675-25.203 27.925-25.236l2.816-.007-1.253 2.458c-1.01 1.978-1.21 3.24-1.028 6.461.192 3.4.499 4.342 2.036 6.25 3.91 4.856 9.977 6.288 15.438 3.645 2.767-1.34 6.037-5.226 6.037-7.174 0-1.055.119-1.02 1.194.346 2.226 2.83 4.678 8.953 5.366 13.4 2.256 14.575-7.347 28.897-21.987 32.794-3.888 1.034-11.048 1.02-14.866-.03z" style="fill:#fff;stroke-width:.590367"/></svg>