<svg xmlns="http://www.w3.org/2000/svg" width="500mm" height="500mm" viewBox="0 0 500 500"><path d="M52.176 491.143c.21-12.61 1.092-48.508 1.364-55.54 2.762-71.314 16.891-142.138 41.326-207.151 14.078-37.457 32.076-73.823 52.313-105.702 2.853-4.495 4.754-7.364 10.681-16.122.757-1.118 1.785-2.536 2.283-3.15.5-.615 1.086-1.47 1.305-1.901.218-.43.71-1.148 1.094-1.594.661-.77 1.706-2.222 4.806-6.68 2.624-3.773 11.786-15.66 11.947-15.5.052.052-.033.42-.19.818-1.965 4.991-4.66 15.993-5.846 23.864-1.623 10.779-1.833 27.77-.492 39.78 4.597 41.16 24.62 82.493 55.229 113.997 23.935 24.635 53.78 41.808 82.726 47.6 4.121.824 4.04.795 3.002 1.066-67.418 17.622-127.802 47.387-178.505 87.99-12.588 10.081-20.744 17.394-32.676 29.295-11.38 11.352-18.416 19.123-27.493 30.367-2.946 3.65-3.953 5.168-7.88 11.878-3.973 6.789-4.913 8.622-7.978 15.564-1.91 4.328-4.021 9.501-4.69 11.496-.669 1.995-1.377 3.966-1.573 4.378a13.37 13.37 0 0 0-.616 1.627c-.185.628-.224-1.17-.137-6.38zm292.57-195.775c-7.392-.689-13.331-1.685-20.264-3.4-33.914-8.39-67.046-31.145-91.982-63.173-32.077-41.199-46.986-92.925-39.718-137.806 2.788-17.217 8.824-33.02 17.633-46.17 16.778-25.047 42.667-40.135 73.224-42.676 7.322-.61 19.497-.089 27.304 1.167 57.844 9.305 112.978 60.248 134.68 124.444 15.449 45.698 12.067 91.18-9.211 123.89-6.714 10.32-12.79 16.661-24.804 25.887-2.766 2.124-4.763 3.402-8.062 5.158-11.965 6.372-18.553 8.882-28.66 10.919-7.244 1.46-10.735 1.797-19.632 1.893-4.472.048-9.2-.012-10.508-.133zm15.387-36.523c6.046-.558 12.633-2.068 17.012-3.9 2.758-1.154 9.597-4.633 11.133-5.664 2.024-1.358 8.088-6.357 10.025-8.264 6.889-6.78 13.26-18.095 16.495-29.29 1.736-6.006 2.998-13.091 3.512-19.72.43-5.538.19-16.835-.476-22.39-3.319-27.658-14.687-54.693-32.91-78.265-21.494-27.802-50.938-47.079-79.08-51.773-15.686-2.616-30.108-.79-42.407 5.37-21.392 10.713-34.464 34.146-35.752 64.085-1.398 32.486 11.104 68.422 33.972 97.652 23.113 29.543 54.505 48.93 84.233 52.018 3.989.414 10.574.48 14.243.14zm-42.775-73.43c-4.96-.807-9.062-2.217-13.217-4.544-3.442-1.928-5.902-3.855-8.96-7.02-5.52-5.713-8.946-12.453-10.27-20.204-.671-3.931-.547-11.263.25-14.658 2.38-10.158 8.008-18.398 16.416-24.038 4.05-2.717 7.98-4.4 13.148-5.627 3.883-.923 10.454-1.093 14.635-.379 14.196 2.427 25.976 12.504 30.375 25.984 1.512 4.63 1.902 7.217 1.88 12.464-.015 3.662-.122 4.994-.578 7.13-1.157 5.436-2.937 9.703-5.894 14.132-5.644 8.454-14.22 14.229-24.367 16.408-3.225.692-10.199.875-13.418.352z" style="fill:#000;stroke-width:.250182"/></svg>