<svg xmlns="http://www.w3.org/2000/svg" width="465.614" height="465.614" viewBox="0 0 123.194 123.194"><path d="M120.27 242.256c-.082-.131.529-.455 1.357-.718 2.148-.683 3.266-1.275 2.968-1.572-.155-.155-.377-.147-.59.022-.48.38-1.781.582-1.953.304-.253-.41 1.518-1.654 3.177-2.233 3.174-1.107 4-1.378 4.693-1.535.387-.089 1.412-.753 2.279-1.477 2.005-1.676 2.143-2.165 2.977-10.515.133-1.34.315-2.722.403-3.073.176-.701.317-.61-2.612-1.677-.993-.362-2.363-1-3.043-1.417-.68-.417-1.84-1.1-2.578-1.517-1.43-.807-3.944-2.586-6.518-4.612-1.883-1.481-6.343-6.275-6.142-6.601.078-.127.362-.23.63-.23.582 0 .928-.81 1.75-4.101 1.18-4.725 1.346-5.33 1.564-5.683.239-.387.507.455 1.462 4.59.298 1.29.657 2.563.798 2.827.142.264.257.726.257 1.027 0 1.296 2.11 2.116 3.267 1.27.268-.196 1.277-2.798 2.438-6.284 2.368-7.109 2.398-7.175 3.154-6.985.743.186 1.258-.439 1.148-1.396l-.085-.743h-6.615l-.086.76c-.084.732.238 1.32.761 1.39l.516.066c.388.048.329.56-.282 2.446-.301.928-.835 2.806-1.186 4.174-.35 1.367-.702 2.55-.78 2.628-.249.249-.58-.316-.905-1.542-.173-.655-.619-2.322-.99-3.705-.768-2.86-.899-4.094-.434-4.098.565-.005.916-.582.827-1.36l-.086-.76-3.089-.074c-2.905-.07-3.098-.042-3.259.463-.259.816.091 1.576.809 1.756.354.09.644.24.644.334 0 .095-.417 1.72-.926 3.61-.51 1.89-1.061 3.943-1.225 4.561-.165.619-.375 1.125-.468 1.125-.093 0-.477-1.042-.854-2.315l-1.27-4.3c-.755-2.557-.798-3.062-.253-2.973.616.1 1.079-.581.98-1.443l-.085-.743-2.436-.133c-1.34-.072-2.546-.251-2.681-.397-.136-.145-.446-2.467-.689-5.159-.243-2.692-.569-5.43-.724-6.085-.983-4.157-3.672-10.11-5.048-11.176-.598-.464-6.816-2.583-7.578-2.583-1.07 0-4.524-.917-4.524-1.2 0-.739 3.482-.834 8.636-.236l3.584.415.985-.651c1.063-.704 4.505-2.363 5.58-2.69.364-.11.78-.293.926-.406.63-.487 3.345-1.07 5.678-1.216 3.45-.217 8.378.366 10.462 1.237.29.121 1.243.434 2.116.694 3.934 1.172 10.398 5.465 16.042 10.652 3.076 2.828 4.63 3.82 7.242 4.62 1.883.578 5.084 1.704 5.626 1.98.252.128.816.377 1.253.553.436.176 1.13.488 1.543.693.412.204.864.372 1.004.372s1.145.417 2.233.926c1.088.51 2.1.926 2.25.926.15 0 1.606.64 3.236 1.423 4.926 2.364 6.068 2.658 10.397 2.669 2.2.006 3.991-.112 4.366-.285.35-.162 1.112-.44 1.694-.619 1.353-.415 7.112-3.136 9.525-4.5 1.67-.945 6.338-3.873 9.609-6.028 2.872-1.891 3.889-2.322 2.716-1.149-1.756 1.757.51 1.283 5.103-1.066 1.321-.676 1.57-.413.486.512-.931.795-1.058 1.106-.452 1.106.784 0 .363.432-1.683 1.726-4.49 2.841-5.593 3.627-5.593 3.986 0 .482.365.471 1.354-.04.44-.227 1.058-.376 1.376-.33.424.06-.159.498-2.2 1.655-1.529.865-3.076 1.8-3.44 2.075-1.15.872-5.34 3.835-7.62 5.388-2.11 1.437-2.87 2.214-2.513 2.57.092.092.742.167 1.446.167.703 0 1.278.103 1.278.23 0 .125-.475.557-1.056.96-1.11.769-3.97 3.87-3.97 4.304 0 .14.743.363 1.653.496l1.654.243-1.085.573c-.596.315-2.148 1.64-3.449 2.944-2.313 2.32-2.382 2.425-3.122 4.792l-.756 2.42.577.404c.609.427 2.007 1.886 2.9 3.026.293.374.839 1.349 1.212 2.166.95 2.075.899 2.833-.127 1.905-1.081-.979-5.966-2.477-8.76-2.687-2.235-.168-1.891-.328-5.214 2.443-2.93 2.444-7.04 4.817-9.825 5.673-.655.202-1.326.467-1.492.59-.536.401-5.465 1.597-7.478 1.815-2.02.219-2.466.5-2.28 1.436.058.292.24 1.543.404 2.78.164 1.237.465 3.082.668 4.101.204 1.019.496 2.724.65 3.79.271 1.887 1.19 4.166 1.9 4.719.193.15.917.5 1.607.777.691.277 1.257.601 1.257.721.001.292-2.779-.067-4.091-.527-1.24-.436-2.228-.272-3.771.627-1.132.658-1.758.637-1.494-.05.149-.388-.322-.571-1.888-.734l-.793-.083 1.058-.495c3.203-1.498 3.904-1.929 4.38-2.69.61-.977.657-2.3.138-3.863-.206-.624-.74-2.622-1.187-4.441-.985-4.016-1.427-5.303-1.907-5.559-.201-.107-1.556-.273-3.012-.37-1.455-.095-3.756-.425-5.112-.732-2.966-.67-2.92-.698-3.712 2.295-.655 2.482-1.68 6.082-2.248 7.897-.22.706-.33 1.48-.243 1.72.35.968 3.038 3.98 3.57 4.002.106.004 1.083.424 2.171.933 1.088.51 2.054.927 2.147.927.093 0 .472.238.842.529l.672.529h-.63c-.348 0-1.465-.185-2.484-.41-4.335-.96-7.036-1.223-9.26-.903-2.095.303-5.396 1.146-8.467 2.162-1.937.642-3.46.87-3.658.548zm19.349-37.843.081-1.125h-1.882v-3.135c0-1.725.135-3.54.3-4.035.63-1.886 3.016-3.674 4.915-3.682.551-.002 1.13-.091 1.287-.198.739-.506.702-2.262-.053-2.552-1.147-.44-5.09 1.227-5.856 2.476-.532.867-.858.634-.858-.615 0-1.57-.35-1.793-2.687-1.698-1.911.077-1.944.09-2.028.821-.106.925.308 1.45 1.229 1.556l.708.082v10.848l-.926.132c-.828.119-.935.228-1.012 1.03-.051.54.055.99.265 1.126.193.124 1.72.196 3.393.16l3.043-.067zm16.689.968c1.26-.381 3.846-2.375 3.944-3.042.043-.293-.21-.796-.573-1.137l-.65-.61-1.147 1.042c-1.362 1.24-2.452 1.654-4.346 1.654-2.46 0-4.59-1.835-4.688-4.039l-.05-1.12 5.689-.132 5.688-.133.082-1.29c.115-1.802-.987-4.345-2.36-5.449-3.558-2.859-9.063-1.751-11.374 2.288-.71 1.238-.88 1.856-.975 3.506-.172 3.012.433 4.8 2.194 6.492.763.733 1.908 1.532 2.545 1.776 1.346.516 4.606.62 6.021.194zm-7.538-10.354c.215-1.074 1.564-2.485 2.75-2.877 1.423-.469 3.637-.182 4.449.577.826.771 1.428 1.872 1.428 2.61 0 .526-.14.543-4.399.543H148.6zm20.875 10.088c.146-.232.188-.73.093-1.108-.134-.535-.36-.704-1.03-.768l-.86-.083-.073-4.167c-.083-4.735.07-5.302 1.711-6.315 1.378-.852 3.506-.854 4.41-.004.97.911 1.228 2.46 1.228 7.377 0 3.33.09 4.587.357 4.951.393.537 2.78.871 4.012.562.609-.153.68-.288.608-1.156-.075-.902-.159-.995-1.008-1.116l-.926-.132-.132-4.895c-.11-4.04-.218-5.066-.62-5.874-.838-1.686-2.828-2.857-4.852-2.857-1.705 0-3.13.485-3.984 1.356-.938.956-1.076.945-1.177-.1l-.083-.86-2.226-.077c-1.603-.056-2.287.018-2.444.265-.606.955.208 2.21 1.262 1.945.868-.218.925.194.837 6.07l-.075 5.027-.991.082c-.785.065-1.024.211-1.147.703-.086.341-.02.873.145 1.182.285.532.47.558 3.5.488 2.585-.06 3.25-.155 3.465-.496zm42.124-32.254c-.09-.145.029-.264.265-.264.235 0 .354.119.264.264-.09.146-.209.265-.264.265-.056 0-.175-.12-.265-.265zm-5.16-1.323c0-.145.127-.264.28-.264.155 0 .207.119.117.264-.09.146-.216.265-.28.265-.064 0-.116-.12-.116-.265z" style="fill:#fff;stroke-width:.264583" transform="translate(-89.135 -139.656)"/></svg>