<?xml version="1.0" encoding="UTF-8" standalone="no"?>
<!-- Created with Inkscape (http://www.inkscape.org/) -->

<svg
   width="40.480999mm"
   height="40.480999mm"
   viewBox="0 0 40.480999 40.480999"
   version="1.1"
   id="svg5"
   xml:space="preserve"
   xmlns="http://www.w3.org/2000/svg"
   xmlns:svg="http://www.w3.org/2000/svg"><defs
     id="defs2" /><g
     id="layer1"
     transform="translate(22.089913,-195.9663)"><path
       style="fill:#f7a41d;stroke-width:0.264583;fill-opacity:1"
       d="m -20.587123,233.65439 0.53668,-0.59532 9.86979,-11.90625 9.86978735,-11.90625 -5.96203705,-0.13229 -5.9620403,-0.13229 2.5047703,-2.84427 2.50477,-2.84427 h 5.924732 5.924734 l 6.2444337,-2.79998 6.244437,-2.79997 0.0827,0.088 0.0827,0.088 -10.3109867,12.30312 -10.31099,12.30313 5.86076,0.0713 5.860761,0.0713 -0.08649,0.23766 -0.08649,0.23766 -2.331746,2.66764 -2.331745,2.66764 h -5.90793 -5.90793 l -6.2155603,2.91042 -6.21555,2.91042 h -0.20912 -0.20912 z m -1.50277,-17.79323 v -12.56771 h 5.97517 5.97518 l -0.0882,0.25331 -0.0882,0.25331 -2.1853,2.65711 -2.1853,2.6571 h -0.79126 -0.79127 v 6.74688 6.74687 h 1.08039 1.08038 l -0.0882,0.24277 -0.0882,0.24278 -2.33175,2.66764 -2.33174,2.66764 h -1.57086 -1.57086 z m 28.3545153,12.32493 0.08819,-0.24277 2.331747,-2.66765 2.3317427,-2.66764 h 0.777111 0.777108 v -6.61458 -6.61459 h -1.080382 -1.080383 l 0.0882,-0.24247 0.08819,-0.24248 2.315166,-2.80023 2.315167,-2.80023 h 1.587437 1.587439 v 12.56771 12.5677 H 12.28389 6.1764233 Z"
       id="path2519" /></g></svg>
