<svg xmlns="http://www.w3.org/2000/svg" width="527.996" height="497.002" viewBox="0 0 139.699 131.499"><path d="M54.886 173.677c-3.238-.83-6.604-2.684-9.044-4.979-3.382-3.181-5.274-6.39-6.306-10.695-.51-2.124-.522-3.314-.524-49.35-.002-51.392-.067-49.014 1.46-52.774 2.053-5.05 6.437-9.485 11.459-11.59 4.005-1.678.784-1.593 57.988-1.513l51.99.073 1.853.622c7.215 2.422 12.274 7.537 14.271 14.43l.678 2.338V172.416l-.9.9c-.79.79-1.065.9-2.262.9-.75 0-1.712-.182-2.139-.402-1.505-.779-1.578-1.215-1.583-9.441-.002-4.119-.101-7.641-.22-7.829-.158-.25-.92-.32-2.84-.265l-2.624.077-.132 7.805c-.14 8.28-.17 8.466-1.49 9.504-.986.776-3.195.764-4.195-.023-1.487-1.17-1.46-.775-1.46-20.479 0-20.1-.053-19.449 1.7-20.518 1.58-.963 4.094-.386 4.965 1.14.254.447.383 2.592.48 8.019l.132 7.408h5.556l.067-37.505.067-37.504H46.154l.004 40.282c.005 44.4-.083 42.003 1.657 45.282 1.103 2.08 3.6 4.583 5.637 5.65 3.271 1.716 2.163 1.654 29.94 1.654 27.46 0 26.419-.056 27.513 1.492.863 1.22.974 2.289.378 3.636-.959 2.167 1.15 2.018-28.272 2.002-24.905-.014-26.235-.039-28.125-.524zm116.85-109.513c-.1-1.636-.403-3.628-.698-4.583-1.03-3.334-3.742-6.549-6.846-8.116-3.397-1.715.076-1.619-56.051-1.542l-51.006.07-1.567.597c-2.346.893-3.75 1.804-5.465 3.546-2.647 2.688-3.949 6.138-3.949 10.465v2.458h125.757zM117.311 173.5c-1.22-1.026-1.572-2.093-1.572-4.755v-2.313l5.291-13.245c2.91-7.284 5.292-13.391 5.292-13.57 0-.244-.986-.327-3.903-.328-4.37 0-5.13-.237-6.153-1.915-.958-1.572-.445-3.744 1.11-4.692.825-.502 1.32-.534 8.463-.535h7.586l.81.68c.445.375.945 1.136 1.112 1.692.294.983.133 1.436-5.922 16.583-3.423 8.565-6.17 15.662-6.103 15.77.066.11 2.273.2 4.903.2 4.332 0 4.863.05 5.644.533 2.137 1.32 2.235 4.58.181 6.042-.772.55-1.048.568-8.344.568h-7.545zm24.77.32c-1.577-.561-2.323-1.231-3.14-2.82-.64-1.243-.784-1.947-1.028-5.04-.263-3.322-.246-3.673.214-4.615.33-.677.848-1.191 1.534-1.526.94-.46 1.134-.472 2.093-.133 1.618.572 2.091 1.42 2.306 4.136.1 1.278.275 2.54.387 2.807.39.926 2.613 1.278 4.32.683 1.094-.382 1.364-1.399 1.365-5.135 0-4.155-.22-4.437-5.9-7.55-2.942-1.614-4.763-3.345-5.177-4.92-.439-1.673-.63-7.702-.326-10.27.655-5.525 2.662-7.109 9.024-7.124 4.5-.011 6.844.865 7.91 2.954.651 1.277 1.184 4.877 1.032 6.978-.107 1.47-.21 1.704-1.12 2.538-.914.838-1.11.907-2.22.782-1.72-.194-2.593-1.212-2.81-3.278-.228-2.188-.46-2.805-1.209-3.2-.725-.385-3.291-.31-3.708.106-.472.472-.845 3.392-.704 5.521.136 2.066.164 2.139 1.192 3.054.58.516 2.405 1.636 4.057 2.49 5.428 2.803 5.963 3.51 6.396 8.457.314 3.596-.026 8.589-.748 10.961-.596 1.96-2.169 3.623-3.916 4.142-1.783.53-8.34.531-9.825.002zm-89.93-63.387c-.21-.3-.324-.747-.252-.992.073-.245 5.39-6.696 11.816-14.336 8.255-9.814 11.862-13.916 12.29-13.977.805-.116 1.415.428 1.316 1.175-.044.336-5.312 6.846-11.848 14.641-12.298 14.666-12.415 14.785-13.322 13.49Zm16.843-.273c-1.486-.275-2.41-.792-3.58-2.003-1.247-1.292-1.798-2.623-1.798-4.348 0-2.17.497-3.399 1.975-4.877 1.876-1.876 4.202-2.445 6.807-1.664 1.363.408 3.205 2.054 3.896 3.48.713 1.473.74 4.103.056 5.607-1.253 2.758-4.352 4.36-7.356 3.805zm2.445-4.066c.645-.269 1.051-.684 1.334-1.36.493-1.182.307-2.1-.627-3.08-.56-.59-.925-.728-1.916-.728-1.005 0-1.355.137-1.96.768-1.296 1.353-.888 3.698.77 4.421 1.027.448 1.284.445 2.399-.02zm13.667 3.945c-.729-.51-.77-1.589-.076-1.96.322-.173 3.692-.274 9.122-.274h8.61l.409.624c.5.763.274 1.451-.582 1.777-.354.135-4.3.245-8.769.245-6.926 0-8.213-.061-8.714-.412zM56.496 94.65c-3.35-1.183-5.184-5.538-3.706-8.806 2.031-4.492 7.416-5.553 10.835-2.133 1.248 1.248 2.108 3.144 2.108 4.647 0 1.594-.863 3.459-2.207 4.768-2.005 1.952-4.368 2.465-7.03 1.524zm3.757-3.801c1.553-.708 1.922-3.062.686-4.377-1.225-1.305-3.72-.967-4.435.6-1.17 2.57 1.186 4.945 3.75 3.777z" style="fill:#fff;stroke-width:.264583" transform="translate(-39.012 -42.741)"/></svg>