<?xml version="1.0" encoding="UTF-8" standalone="no"?>
<!-- Created with Inkscape (http://www.inkscape.org/) -->

<svg
   width="300mm"
   height="300mm"
   viewBox="0 0 300 300"
   version="1.1"
   id="svg5"
   inkscape:version="1.1 (c68e22c387, 2021-05-23)"
   sodipodi:docname="+20.svg"
   xmlns:inkscape="http://www.inkscape.org/namespaces/inkscape"
   xmlns:sodipodi="http://sodipodi.sourceforge.net/DTD/sodipodi-0.dtd"
   xmlns="http://www.w3.org/2000/svg"
   xmlns:svg="http://www.w3.org/2000/svg">
  <sodipodi:namedview
     id="namedview7"
     pagecolor="#ffffff"
     bordercolor="#666666"
     borderopacity="1.0"
     inkscape:pageshadow="2"
     inkscape:pageopacity="0.0"
     inkscape:pagecheckerboard="0"
     inkscape:document-units="mm"
     showgrid="false"
     inkscape:zoom="0.35355339"
     inkscape:cx="289.91378"
     inkscape:cy="694.37886"
     inkscape:window-width="1920"
     inkscape:window-height="1017"
     inkscape:window-x="1912"
     inkscape:window-y="-8"
     inkscape:window-maximized="1"
     inkscape:current-layer="layer1" />
  <defs
     id="defs2" />
  <g
     inkscape:label="Calque 1"
     inkscape:groupmode="layer"
     id="layer1">
    <path
       style="fill:#ffffff;stroke-width:0.468691"
       d="m 245.63676,207.06727 c -4.41761,-0.79258 -8.2519,-1.94308 -11.54229,-3.46336 -13.38659,-6.18511 -21.04558,-18.71404 -24.40988,-39.93082 -1.22045,-7.69669 -1.20097,-31.99675 0.0319,-39.74678 2.58858,-16.2727 7.21954,-26.917341 15.29791,-35.163363 6.63638,-6.774138 13.29133,-10.223415 22.61113,-11.719458 5.26022,-0.844372 16.47902,-0.356024 20.74281,0.902949 6.45074,1.904693 10.81844,4.481374 15.50108,9.144693 2.56166,2.551082 5.05038,5.577787 6.20144,7.541978 3.98639,6.802451 7.01432,16.513481 8.62221,27.652791 0.96559,6.68945 0.81699,31.90947 -0.22621,38.38922 -3.50946,21.79901 -11.91153,35.84823 -25.36912,42.42002 -6.75884,3.30058 -9.38954,3.87348 -18.55579,4.041 -4.25339,0.0778 -8.26069,0.0468 -8.90515,-0.0689 z m 14.43171,-22.68118 c 5.87676,-3.30292 9.46612,-12.48362 10.91799,-27.92555 0.82148,-8.73734 0.28942,-30.30367 -0.90742,-36.77973 -2.03886,-11.03227 -4.88672,-16.96032 -9.63078,-20.047238 -1.70854,-1.11171 -2.36586,-1.248978 -5.90636,-1.23332 -3.38787,0.01419 -4.26801,0.190266 -5.88304,1.171716 -5.44566,3.309352 -8.83189,10.399762 -10.7756,22.562952 -1.04563,6.54329 -1.46852,27.85134 -0.70214,35.3788 1.49126,14.64756 4.7911,22.76823 10.82452,26.63848 2.2705,1.45646 2.97782,1.60773 6.80662,1.45563 2.42422,-0.0963 3.83879,-0.4251 5.25621,-1.22174 z m -149.88348,17.01627 c 0,-21.57273 7.00927,-35.45419 25.30933,-50.12363 1.93336,-1.54979 6.46794,-5.00446 10.07686,-7.67704 11.18776,-8.28507 17.78824,-15.80249 19.72854,-22.46924 1.18379,-4.0674 0.75022,-11.23883 -0.869,-14.37345 -3.24512,-6.28224 -8.51932,-8.514491 -18.85954,-7.982154 -9.09878,0.468434 -16.81462,3.464644 -25.16448,9.771924 -1.98259,1.49758 -3.7226,2.72288 -3.86669,2.72288 -0.14421,0 -0.26204,-5.43307 -0.26204,-12.073492 V 87.12467 l 4.3396,-2.385271 c 5.25527,-2.888568 12.0852,-5.426332 18.39193,-6.833826 3.98336,-0.888975 6.09402,-1.047152 14.06073,-1.053684 8.16015,-0.0074 9.91007,0.127539 13.51539,1.037009 13.6852,3.452136 22.64651,11.442211 26.14229,23.308982 0.96311,3.26936 1.10366,4.73122 1.10366,11.47985 0,6.66832 -0.1465,8.22975 -1.06368,11.33737 -3.83544,12.9954 -9.74571,19.97048 -29.23746,34.50516 -6.62035,4.93668 -13.71056,10.61452 -15.75602,12.61742 -3.7801,3.70148 -6.64343,7.94251 -6.6514,9.8518 l -0.003,1.05455 h 26.48107 26.48105 v 11.48293 11.48294 h -41.9482 -41.94787 z M 34.257005,179.23188 V 162.359 H 17.149776 0.04254699 v -8.90514 -8.90512 H 17.149776 34.257005 v -17.10725 -17.10723 h 8.905146 8.905128 v 17.10723 17.10725 H 68.940164 85.81305 v 8.90512 8.90514 H 68.940164 52.067279 v 16.87288 16.87288 h -8.905128 -8.905146 z"
       id="path2494" />
  </g>
</svg>
