<?xml version="1.0" encoding="UTF-8" standalone="no"?>
<!-- Created with Inkscape (http://www.inkscape.org/) -->

<svg
   width="500mm"
   height="500mm"
   viewBox="0 0 500 500"
   version="1.1"
   id="svg7445"
   inkscape:version="1.1 (c68e22c387, 2021-05-23)"
   sodipodi:docname="05ab1e_white.svg"
   xmlns:inkscape="http://www.inkscape.org/namespaces/inkscape"
   xmlns:sodipodi="http://sodipodi.sourceforge.net/DTD/sodipodi-0.dtd"
   xmlns="http://www.w3.org/2000/svg"
   xmlns:svg="http://www.w3.org/2000/svg">
  <sodipodi:namedview
     id="namedview7447"
     pagecolor="#ffffff"
     bordercolor="#666666"
     borderopacity="1.0"
     inkscape:pageshadow="2"
     inkscape:pageopacity="0.0"
     inkscape:pagecheckerboard="0"
     inkscape:document-units="mm"
     showgrid="false"
     fit-margin-top="0"
     fit-margin-left="0"
     fit-margin-right="0"
     fit-margin-bottom="0"
     inkscape:zoom="0.47433592"
     inkscape:cx="600.84001"
     inkscape:cy="1119.4598"
     inkscape:window-width="1920"
     inkscape:window-height="1106"
     inkscape:window-x="-11"
     inkscape:window-y="-11"
     inkscape:window-maximized="1"
     inkscape:current-layer="layer1" />
  <defs
     id="defs7442" />
  <g
     inkscape:label="Calque 1"
     inkscape:groupmode="layer"
     id="layer1"
     transform="translate(176.08922,27.7343)">
    <path
       style="fill:#ffffff;stroke-width:2.32583"
       d="m -154.43191,295.07792 c -16.13762,-7.31268 -23.09319,-27.09836 -21.33602,-60.69195 1.24487,-23.79954 4.90524,-33.04078 16.51473,-41.69454 9.22562,-6.87685 31.13534,-6.87685 40.36097,0 13.26696,9.88928 15.86991,17.86037 15.86991,48.59933 0,30.87891 -3.36444,41.87871 -15.52612,50.76154 -7.9203,5.78488 -26.3627,7.33994 -35.88347,3.02562 z m 28.09535,-11.65485 c 8.11981,-8.11983 11.14509,-22.62529 10.10777,-48.46449 -0.73445,-18.29541 -1.82611,-23.84638 -5.71741,-29.07289 -10.06525,-13.51898 -25.97737,-12.76186 -34.38623,1.6361 -6.69073,11.45619 -8.22276,49.36947 -2.59085,64.1164 6.6677,17.45917 21.53556,22.83609 32.58672,11.78488 z m 50.824085,10.34269 c -10.728723,-4.8712 -15.747982,-11.24715 -18.239705,-23.16986 -1.427231,-6.8292 -1.115107,-7.70184 2.287748,-6.39601 2.167248,0.83158 5.404865,1.51206 7.194681,1.51206 1.789817,0 3.911698,2.61968 4.715303,5.82145 2.052442,8.17769 13.850141,17.43694 22.217213,17.43694 14.611269,0 22.926962,-10.56791 22.926962,-29.13637 0,-8.79221 -1.243634,-12.00427 -6.798585,-17.55919 -9.003296,-9.00327 -22.304687,-9.40836 -32.3164,-0.98402 -6.463347,5.43853 -16.816462,7.97478 -16.614965,4.0702 0.04918,-0.9594 1.925621,-13.78058 4.169147,-28.49148 l 4.079125,-26.74699 28.392501,-0.65315 c 27.199776,-0.62588 28.392512,-0.45447 28.392512,4.0702 0,4.4133 -1.439724,4.72325 -21.938676,4.72325 -24.028628,0 -22.546604,-0.93742 -25.740886,16.2808 -0.83062,4.47719 -2.007453,9.91389 -2.615214,12.08146 -0.961115,3.42779 -0.107595,3.65502 6.55432,1.7444 11.730264,-3.36422 20.397111,-2.65282 31.160751,2.55778 11.871398,5.74681 17.231364,15.66494 17.231364,31.88491 0,27.69312 -27.806684,43.32623 -55.057196,30.95353 z m 73.6638572,-4.79542 v -6.9775 h 79.0782978 79.0783 v 6.9775 6.9775 H 77.22968 -1.8486178 Z M 200.49876,257.57156 v -38.37619 h -12.79204 c -11.24153,0 -12.7921,-0.56348 -12.7921,-4.65169 0,-3.64378 1.55057,-4.6517 7.15641,-4.6517 8.42514,0 20.75363,-10.94678 20.75363,-18.42772 0,-3.60209 1.47874,-4.83057 5.8145,-4.83057 h 5.81459 v 54.65707 54.65708 h -6.9775 -6.97749 z m 46.51668,31.39878 v -6.9775 h 38.37619 38.37628 v 6.9775 6.9775 H 285.39163 247.01544 Z M 7.2921708,267.41425 c -9.7514855,-6.57155 -13.3097763,-17.22156 -9.127436,-27.31865 3.7491424,-9.05118 11.5481694,-13.07954 31.4902762,-16.26533 8.693753,-1.38882 16.674851,-3.06166 17.735753,-3.71734 1.060904,-0.65577 1.928925,-4.75674 1.928925,-9.11344 0,-9.03501 -4.731662,-12.73661 -16.280815,-12.73661 -9.606907,0 -16.011642,3.64078 -18.660443,10.60764 -2.434609,6.40356 -13.90121939,8.29564 -13.90121939,2.29381 0,-17.53452 29.21747339,-28.42468 49.91307939,-18.60397 10.961668,5.20163 12.884393,11.64562 12.884393,43.18198 0,27.26495 0.120043,27.91923 4.84187,26.42052 4.077671,-1.29423 4.720088,-0.67687 4.070202,3.91346 -0.641528,4.53136 -2.144175,5.45024 -8.912072,5.45024 -6.211089,0 -8.684545,-1.24027 -10.436313,-5.23311 -2.277937,-5.19222 -5.844513,-7.12808 -5.844513,-3.17233 0,3.43192 -15.293971,9.56834 -23.847332,9.56834 -4.491268,0 -11.474145,-2.32343 -15.8543552,-5.27521 z M 43.733724,256.19391 c 4.044358,-3.79954 5.585965,-7.74958 5.585965,-14.31304 v -9.06524 l -13.373527,1.62184 c -19.744098,2.39438 -26.0587886,6.40752 -26.1300131,16.60614 -0.087872,12.55168 22.4038301,15.9669 33.9175751,5.1503 z m 66.105426,14.03358 c -3.17171,-1.33897 -7.61987,-4.11161 -9.884796,-6.16139 -3.819109,-3.45617 -4.118022,-3.3629 -4.118022,1.28545 0,3.79567 -1.411143,5.0121 -5.814583,5.0121 H 84.207172 V 215.70658 161.0495 h 5.814577 c 5.724552,0 5.814583,0.29273 5.814583,18.87418 v 18.8742 l 6.396048,-4.27732 c 8.73162,-5.83912 31.90744,-5.88184 40.58783,-0.0791 20.39403,13.64319 20.69388,59.11195 0.47724,72.35842 -7.25541,4.75394 -25.80982,6.65234 -33.45828,3.4233 z m 22.70628,-10.4713 c 7.82958,-5.48398 12.13338,-15.74633 12.13338,-28.93172 0,-27.35416 -20.17787,-41.50879 -37.3001,-26.16559 -8.633524,7.73647 -12.010307,20.58306 -9.268298,35.26029 3.514728,18.81344 21.282858,29.04916 34.435018,19.83702 z m 141.2171,8.90315 c -15.48623,-3.87742 -24.42129,-18.62487 -24.42129,-40.30782 0,-19.91674 7.37184,-32.72976 22.05759,-38.33822 11.97642,-4.57389 26.02012,-3.61379 35.20879,2.40685 7.14997,4.68484 14.71326,20.46554 14.78341,30.84542 l 0.0527,7.5589 h -29.07297 -29.0729 v 7.2101 c 0,9.78573 13.05968,23.02579 22.71215,23.02579 7.79677,0 18.15186,-7.13714 20.335,-14.01565 1.01433,-3.1959 3.52984,-4.59105 8.27796,-4.59105 8.20598,0 8.41159,1.58248 1.54125,11.86672 -8.74238,13.08649 -25.1887,18.64835 -42.40005,14.33896 z m 33.72458,-53.13165 c 0,-8.61974 -11.70778,-19.5907 -20.90656,-19.5907 -9.75786,0 -15.5307,3.3819 -19.77144,11.58259 -6.82586,13.19972 -5.76158,14.00159 18.58252,14.00159 h 22.09548 z"
       id="path7688" />
  </g>
</svg>
