<?xml version="1.0" encoding="UTF-8" standalone="no"?>
<!-- Created with Inkscape (http://www.inkscape.org/) -->

<svg
   width="300mm"
   height="88mm"
   viewBox="0 0 300 88"
   version="1.1"
   id="svg5"
   inkscape:version="1.1 (c68e22c387, 2021-05-23)"
   sodipodi:docname="404.svg"
   xmlns:inkscape="http://www.inkscape.org/namespaces/inkscape"
   xmlns:sodipodi="http://sodipodi.sourceforge.net/DTD/sodipodi-0.dtd"
   xmlns="http://www.w3.org/2000/svg"
   xmlns:svg="http://www.w3.org/2000/svg">
  <sodipodi:namedview
     id="namedview7"
     pagecolor="#ffffff"
     bordercolor="#666666"
     borderopacity="1.0"
     inkscape:pageshadow="2"
     inkscape:pageopacity="0.0"
     inkscape:pagecheckerboard="0"
     inkscape:document-units="mm"
     showgrid="false"
     inkscape:zoom="0.35355339"
     inkscape:cx="57.982756"
     inkscape:cy="24.04163"
     inkscape:window-width="1920"
     inkscape:window-height="1017"
     inkscape:window-x="1912"
     inkscape:window-y="-8"
     inkscape:window-maximized="1"
     inkscape:current-layer="layer1" />
  <defs
     id="defs2" />
  <g
     inkscape:label="Calque 1"
     inkscape:groupmode="layer"
     id="layer1">
    <path
       style="fill:#ffffff;stroke-width:0.153942"
       d="m 145.86376,87.723931 c -3.93144,-0.34025 -6.818,-0.851085 -10.08309,-1.784382 -8.35896,-2.389321 -15.6388,-6.611189 -21.47502,-12.454217 -6.82677,-6.834739 -10.90058,-14.962222 -12.26883,-24.477025 -0.26309,-1.82951 -0.26278,-8.180057 4.6e-4,-10.00624 0.70093,-4.862007 1.86733,-8.675021 3.95565,-12.931136 4.26442,-8.691122 11.68636,-15.976618 20.93593,-20.5510848 5.25565,-2.5992257 10.37966,-4.1650248 16.39481,-5.00992038 2.42634,-0.34080563 9.13652,-0.47331738 11.67041,-0.23046851 14.54404,1.39392599 27.22184,8.21894409 35.3794,19.04631069 4.24663,5.636452 6.85091,11.806343 7.99191,18.933818 0.33947,2.120543 0.46072,6.963793 0.235,9.38639 -0.96349,10.340528 -6.00725,20.203727 -14.02026,27.41691 -7.72878,6.957361 -17.71858,11.381757 -28.24835,12.510999 -2.07254,0.222258 -8.5593,0.315241 -10.46806,0.150046 z m 7.43733,-3.391534 c 6.13598,-0.432982 10.59816,-1.437058 15.74095,-3.54204 8.06058,-3.299282 15.23941,-9.057603 19.75887,-15.849058 1.335,-2.006127 2.4398,-3.985602 3.24271,-5.809982 5.27512,-11.986196 4.12296,-24.968322 -3.19364,-35.985281 C 180.13608,10.025097 163.33143,2.3094208 146.44943,3.6782614 134.90856,4.6140358 124.38989,9.3255099 116.7616,16.975884 c -6.3685,6.386948 -10.21349,14.149704 -11.32921,22.872869 -0.24479,1.913886 -0.2411,6.615608 0.007,8.466801 1.17492,8.779085 4.97658,16.381976 11.39603,22.790857 5.04945,5.04111 11.26495,8.780027 18.40671,11.072498 5.51027,1.768801 12.2022,2.566761 18.05933,2.153488 z m -5.05123,-14.632654 c -5.79446,-0.629298 -11.16087,-4.065059 -14.76287,-9.451729 -6.68592,-9.998615 -6.05471,-24.101146 1.49414,-33.382038 1.71802,-2.112197 4.46595,-4.320161 6.88014,-5.528148 5.29074,-2.64738 11.48892,-2.64738 16.77968,0 2.8506,1.426376 6.09243,4.255974 8.03577,7.013951 1.93395,2.744651 3.4799,6.309987 4.25871,9.821587 2.9324,13.221627 -3.49672,26.711953 -14.58496,30.603902 -2.38888,0.83847 -5.55456,1.198969 -8.10061,0.922475 z m 3.77157,-3.529475 c 7.48018,-0.831266 13.79938,-7.537342 15.64224,-16.599905 0.44385,-2.182605 0.5517,-6.207665 0.22812,-8.513363 -0.87912,-6.264597 -3.87716,-11.665144 -8.32369,-14.994074 -2.87616,-2.153268 -5.84924,-3.162393 -9.317,-3.162393 -4.46837,0 -8.23629,1.719133 -11.70416,5.340048 -5.19106,5.420155 -7.35589,14.126437 -5.50843,22.153192 1.9623,8.525787 8.20161,14.938917 15.34587,15.773389 1.49027,0.174062 2.09408,0.174573 3.63705,0.003 z M 55.543155,84.620654 c -0.23016,-0.197809 -0.481317,-0.532828 -0.558131,-0.744495 -0.07681,-0.211666 -0.190985,-2.930667 -0.253719,-6.04223 l -0.114054,-5.657362 -6.216717,-0.01934 c -3.419188,-0.01052 -6.268669,-0.03166 -6.332169,-0.04679 -0.0635,-0.01503 -7.874135,-0.08106 -17.356961,-0.146479 C 2.0439456,71.807571 1.6175828,71.798864 1.1340142,71.48202 0.34872111,70.967458 0.34648117,70.939052 0.29150378,60.7848 0.25804594,54.604739 0.29443354,51.225069 0.39549725,51.051527 0.48088908,50.90533 1.3144669,50.004758 2.2479004,49.05029 3.1813319,48.095801 6.5049833,44.647806 9.6337872,41.388082 14.889161,35.912828 32.103609,17.99527 42.243826,7.4461217 c 2.361377,-2.4566 4.37591,-4.5153833 4.476741,-4.5750677 0.100834,-0.059687 7.832504,-0.1513759 17.1815,-0.203759 18.512709,-0.1037321 17.488709,-0.1477547 18.01378,0.774439 0.24285,0.4265303 0.273901,2.2895102 0.409997,24.595787 0.08099,13.27387 0.174363,24.158859 0.207503,24.188868 0.03317,0.03006 2.900484,0.101901 6.371879,0.159624 5.708371,0.09499 6.348401,0.131299 6.696476,0.379728 0.211669,0.151057 0.460292,0.423383 0.552483,0.605181 0.111694,0.220213 0.199074,3.292178 0.261836,9.205444 0.08035,7.569164 0.06152,8.938238 -0.128255,9.30516 -0.482252,0.932555 -0.306613,0.910742 -7.330739,0.910742 -3.532228,0 -6.452829,0.052 -6.49023,0.115458 -0.03741,0.06352 -0.153072,2.470762 -0.25705,5.349486 -0.115453,3.19633 -0.257332,5.378464 -0.364429,5.60503 -0.09645,0.204061 -0.359006,0.506877 -0.583446,0.672914 -0.395515,0.292616 -0.791162,0.304118 -12.854158,0.373475 l -12.446082,0.07154 z m 23.073874,-3.2677 c 0.01426,-0.009 0.106103,-2.372579 0.204094,-5.251143 0.09799,-2.878555 0.25156,-5.426598 0.341277,-5.662312 0.08972,-0.235694 0.336268,-0.564742 0.547896,-0.731219 0.36867,-0.290001 0.654963,-0.302666 6.838527,-0.302666 h 6.453742 l -0.04739,-6.683802 c -0.02605,-3.676114 -0.08202,-6.714813 -0.124405,-6.752678 -0.04237,-0.03787 -2.904749,-0.108072 -6.360925,-0.155997 -5.36457,-0.07435 -6.338214,-0.122681 -6.654786,-0.330109 C 78.967746,54.927835 79.01776,56.228465 78.891201,31.458914 78.826745,18.843359 78.757596,8.2444536 78.737546,7.9057852 78.717527,7.5671158 78.69368,7.0091078 78.684612,6.6657832 l -0.01653,-0.6242544 -15.1248,0.064236 c -8.31864,0.03536 -15.201706,0.1084404 -15.295713,0.1624246 -0.094,0.053986 -2.133622,2.1417425 -4.532493,4.6394536 -2.398878,2.497705 -5.996168,6.238486 -7.993986,8.312858 -1.997816,2.074372 -6.094527,6.334715 -9.103812,9.46744 -3.009279,3.132714 -9.397111,9.780806 -14.19518,14.773531 l -8.723766,9.077673 v 5.329798 c 0,2.931388 0.045144,6.474891 0.1003526,7.874435 l 0.1003632,2.544627 8.9437332,0.09669 c 4.919053,0.05311 13.342627,0.131669 18.719055,0.174514 21.517502,0.171507 25.299578,0.241665 25.666623,0.476167 0.74356,0.475065 0.775997,0.717772 0.893531,6.685235 0.06083,3.088567 0.140611,5.667542 0.177283,5.731047 0.05016,0.08697 20.18685,-0.01102 20.317768,-0.09869 z M 26.552336,54.776067 c -0.323123,-0.256806 -0.688465,-0.611043 -0.81187,-0.78723 -0.284048,-0.405538 -0.290077,-1.388492 -0.01094,-1.784972 0.185162,-0.262987 4.838964,-5.177618 17.5319,-18.514472 1.735691,-1.823759 5.155554,-5.427009 7.599685,-8.007237 5.651722,-5.96638 5.185701,-5.537987 6.024173,-5.537987 0.543685,0 0.793277,0.09459 1.190624,0.451107 l 0.502741,0.451118 -0.03142,2.743188 c -0.01728,1.508749 -0.14679,8.770028 -0.287824,16.136142 -0.20669,10.794762 -0.298281,13.474796 -0.472127,13.814835 -0.410264,0.802499 -0.703353,0.879701 -3.684296,0.97048 -4.363315,0.132881 -23.277028,0.531906 -25.211826,0.531906 -1.718378,0 -1.762393,-0.008 -2.338839,-0.466878 z m 18.157198,-3.304683 c 5.410872,-0.125357 9.850832,-0.245924 9.866565,-0.267908 0.03643,-0.0508 0.513973,-24.814369 0.47932,-24.854468 -0.0142,-0.01643 -1.682426,1.715456 -3.707228,3.848544 C 47.96031,33.766635 34.691454,47.725994 32.04171,50.508729 l -1.136507,1.193549 1.983189,-0.002 c 1.090747,-5.81e-4 6.410262,-0.104105 11.821142,-0.229421 z M 259.05448,84.312778 c -0.23015,-0.197809 -0.48132,-0.532828 -0.55813,-0.744495 -0.0768,-0.211686 -0.19097,-2.930687 -0.25372,-6.04223 l -0.11405,-5.657362 -6.21671,-0.01934 c -3.41919,-0.01052 -6.26868,-0.03166 -6.33217,-0.04679 -0.0635,-0.01503 -7.87414,-0.08106 -17.35697,-0.146488 -22.66744,-0.156368 -23.09383,-0.165085 -23.57739,-0.481929 -0.7853,-0.514562 -0.78753,-0.542978 -0.8425,-10.697239 -0.0335,-6.180051 0.003,-9.559722 0.10399,-9.733243 0.0854,-0.146198 0.91898,-1.04678 1.8524,-2.001248 0.93345,-0.954479 4.25709,-4.402483 7.38589,-7.662198 5.25537,-5.475274 22.46983,-23.392832 32.61003,-33.9419741 2.36138,-2.4566101 4.37593,-4.5153833 4.47676,-4.5750727 0.10085,-0.059687 7.8325,-0.1513739 17.1815,-0.203757 18.51271,-0.1037211 17.48871,-0.1477477 18.01376,0.7744429 0.24285,0.4265304 0.27391,2.2895093 0.41001,24.5957899 0.081,13.27386 0.17437,24.158849 0.20751,24.188859 0.0332,0.03006 2.90048,0.1019 6.37187,0.159634 5.70838,0.09499 6.34839,0.131288 6.69648,0.379707 0.21165,0.151067 0.46027,0.423403 0.55247,0.605181 0.1117,0.220233 0.19909,3.292188 0.26185,9.205464 0.0804,7.569144 0.0615,8.938238 -0.12827,9.30516 -0.48224,0.932545 -0.30661,0.910723 -7.33074,0.910723 -3.53223,0 -6.45283,0.052 -6.49021,0.115477 -0.0375,0.06352 -0.15308,2.470762 -0.25705,5.349476 -0.11546,3.19634 -0.25733,5.378474 -0.36443,5.60505 -0.0965,0.204041 -0.35901,0.506857 -0.58344,0.672904 -0.39554,0.292616 -0.79118,0.304108 -12.85417,0.373475 l -12.44608,0.07154 z m 23.07388,-3.26771 c 0.0142,-0.009 0.10609,-2.372569 0.2041,-5.251133 0.098,-2.878574 0.25154,-5.426608 0.34127,-5.662312 0.0898,-0.235714 0.33627,-0.564741 0.5479,-0.731219 0.36867,-0.290001 0.65497,-0.302666 6.83853,-0.302666 h 6.45374 l -0.0474,-6.683812 c -0.0261,-3.676104 -0.0821,-6.714813 -0.1244,-6.752678 -0.0424,-0.03787 -2.90475,-0.108082 -6.36093,-0.155997 -5.36458,-0.07435 -6.33821,-0.122691 -6.65481,-0.330109 -0.84729,-0.555183 -0.79729,0.745447 -0.92385,-24.024124 -0.0644,-12.615545 -0.13359,-23.2144432 -0.15364,-23.5531226 -0.0199,-0.3386695 -0.0438,-0.8966665 -0.0529,-1.2400131 l -0.0165,-0.6242324 -15.12481,0.064347 c -8.31864,0.035359 -15.2017,0.1084293 -15.2957,0.1624146 -0.094,0.053986 -2.13364,2.1417424 -4.53251,4.6394565 -2.39886,2.497705 -5.99615,6.238486 -7.99397,8.312848 -1.99784,2.074381 -6.09452,6.334725 -9.10381,9.467449 -3.0093,3.132705 -9.39712,9.780797 -14.19519,14.773511 l -8.72376,9.077673 v 5.329818 c 0,2.931388 0.0452,6.474891 0.10033,7.874415 l 0.10034,2.544637 8.94375,0.09669 c 4.91905,0.0531 13.34262,0.131669 18.71905,0.174503 21.51749,0.171508 25.29958,0.241676 25.66662,0.476177 0.74356,0.475075 0.77599,0.717782 0.89353,6.685225 0.0609,3.088578 0.1406,5.667543 0.17729,5.731068 0.0501,0.08697 20.18685,-0.01102 20.31776,-0.0987 z M 230.06365,54.468171 c -0.3231,-0.256776 -0.68845,-0.611033 -0.81184,-0.787219 -0.28406,-0.405528 -0.29009,-1.388503 -0.011,-1.784963 0.18517,-0.262987 4.83897,-5.177628 17.53191,-18.514492 1.73569,-1.823749 5.15557,-5.426999 7.59969,-8.007227 5.65168,-5.96638 5.18567,-5.537977 6.02415,-5.537977 0.54367,0 0.79328,0.09459 1.19061,0.451098 l 0.50274,0.451107 -0.0314,2.743198 c -0.0172,1.508749 -0.14681,8.770008 -0.28785,16.136123 -0.20668,10.794791 -0.29826,13.474805 -0.47211,13.814854 -0.41027,0.802499 -0.70336,0.879701 -3.68431,0.97048 -4.36331,0.132871 -23.27703,0.531906 -25.21182,0.531906 -1.71838,0 -1.76238,-0.008 -2.33884,-0.466888 z m 18.1572,-3.304673 c 5.41089,-0.125357 9.85084,-0.245914 9.86657,-0.267907 0.0364,-0.051 0.51397,-24.814369 0.47932,-24.854468 -0.0141,-0.01643 -1.68241,1.715445 -3.70722,3.848543 -3.38789,3.569083 -16.65675,17.528442 -19.30649,20.311178 l -1.13651,1.193558 1.98319,-0.002 c 1.09077,-5.71e-4 6.41028,-0.104095 11.82114,-0.229401 z"
       id="path1589" />
  </g>
</svg>
