<?xml version="1.0" encoding="UTF-8" standalone="no"?>
<!-- Created with Inkscape (http://www.inkscape.org/) -->

<svg
   width="300mm"
   height="300mm"
   viewBox="0 0 300 300"
   version="1.1"
   id="svg5"
   sodipodi:docname="admin.svg"
   inkscape:version="1.1 (c68e22c387, 2021-05-23)"
   xmlns:inkscape="http://www.inkscape.org/namespaces/inkscape"
   xmlns:sodipodi="http://sodipodi.sourceforge.net/DTD/sodipodi-0.dtd"
   xmlns="http://www.w3.org/2000/svg"
   xmlns:svg="http://www.w3.org/2000/svg">
  <sodipodi:namedview
     id="namedview7"
     pagecolor="#ffffff"
     bordercolor="#666666"
     borderopacity="1.0"
     inkscape:pageshadow="2"
     inkscape:pageopacity="0.0"
     inkscape:pagecheckerboard="0"
     inkscape:document-units="mm"
     showgrid="false"
     inkscape:zoom="0.47433592"
     inkscape:cx="672.51917"
     inkscape:cy="790.57897"
     inkscape:window-width="1920"
     inkscape:window-height="1106"
     inkscape:window-x="-11"
     inkscape:window-y="-11"
     inkscape:window-maximized="1"
     inkscape:current-layer="layer1" />
  <defs
     id="defs2" />
  <g
     inkscape:label="Calque 1"
     inkscape:groupmode="layer"
     id="layer1">
    <path
       style="fill:#ffffff;stroke-width:3.17986"
       d="M 56.825549,216.64437 C 28.599774,180.31039 7.9394507,122.6635 7.9394507,80.241729 V 58.63544 L 19.084339,56.544602 C 40.79603,52.471572 61.79527,31.710655 68.118503,8.0670092 L 70.095767,0.67366021 148.90115,0.8142753 c 43.3431,0.0721103 80.04616,0.907388 81.5624,1.8444613 1.51636,0.937434 3.7388,6.1742042 4.93883,11.6380024 3.22045,14.662428 26.91902,36.862906 44.31791,41.516424 l 14.40692,3.853214 v 18.139947 c 0,29.487466 -8.57091,65.998346 -22.13101,94.275206 -14.13098,29.46751 -23.30557,42.98002 -44.44471,65.45993 -15.87881,16.8857 -71.42405,62.47564 -76.11843,62.47564 C 117.84468,279.52359 80.255748,246.4585 56.825549,216.64437 Z M 206.41789,193.60489 c 20.16336,-24.60668 30.60505,-50.27891 35.28441,-86.75074 1.86201,-14.513634 1.37875,-16.914907 -3.72125,-18.486912 -17.2137,-5.305635 -26.44309,-12.448641 -31.08964,-24.061525 l -4.92874,-12.318122 c -50.92934,0 0,0 -50.92934,0 v 95.532929 95.53293 l 21.994,-17.77038 c 12.09674,-9.77371 27.12249,-24.02884 33.39056,-31.67818 z"
       id="path872"
       sodipodi:nodetypes="cscssccssscsssccssssccccss" />
  </g>
</svg>
