<?xml version="1.0" encoding="UTF-8" standalone="no"?>
<!-- Created with Inkscape (http://www.inkscape.org/) -->

<svg
   width="165.53833mm"
   height="165.46161mm"
   viewBox="0 0 165.53833 165.46161"
   version="1.1"
   id="svg1894"
   inkscape:version="1.1 (c68e22c387, 2021-05-23)"
   sodipodi:docname="apl_white.svg"
   xmlns:inkscape="http://www.inkscape.org/namespaces/inkscape"
   xmlns:sodipodi="http://sodipodi.sourceforge.net/DTD/sodipodi-0.dtd"
   xmlns="http://www.w3.org/2000/svg"
   xmlns:svg="http://www.w3.org/2000/svg">
  <sodipodi:namedview
     id="namedview1896"
     pagecolor="#ffffff"
     bordercolor="#666666"
     borderopacity="1.0"
     inkscape:pageshadow="2"
     inkscape:pageopacity="0.0"
     inkscape:pagecheckerboard="0"
     inkscape:document-units="mm"
     showgrid="false"
     fit-margin-top="0"
     fit-margin-left="0"
     fit-margin-right="0"
     fit-margin-bottom="0"
     inkscape:zoom="0.67081229"
     inkscape:cx="304.85428"
     inkscape:cy="556.78765"
     inkscape:window-width="1920"
     inkscape:window-height="1017"
     inkscape:window-x="1912"
     inkscape:window-y="-8"
     inkscape:window-maximized="1"
     inkscape:current-layer="layer1" />
  <defs
     id="defs1891" />
  <g
     inkscape:label="Calque 1"
     inkscape:groupmode="layer"
     id="layer1"
     transform="translate(-24.385198,-1.2397562)">
    <path
       style="fill:#ffffff;stroke-width:0.0876221"
       d="m 83.844268,146.74546 1.1e-5,-19.95594 h 23.614161 23.61416 v 19.9475 19.9475 l -1.30761,-0.059 c -2.43191,-0.10974 -5.20282,-0.48813 -7.81142,-1.06672 -1.95179,-0.4329 -3.54816,-0.88382 -6.67057,-1.88422 -4.92689,-1.57855 -6.31675,-1.9105 -8.30648,-1.98394 -2.29328,-0.0846 -3.63486,0.21338 -8.734404,1.94026 -3.308866,1.1205 -4.481655,1.47701 -6.336605,1.92625 -2.38155,0.57677 -5.50348,1.05503 -7.294544,1.11751 l -0.766711,0.0267 z m -8.017415,19.58855 C 70.467369,165.63173 64.238491,163.15855 59.003411,159.65425 48.952852,152.92649 40.032267,141.29452 34.017772,127.07429 l -0.120442,-0.28477 h 21.293348 21.293349 v 19.80259 19.8026 l -0.197147,-0.0131 c -0.10849,-0.007 -0.31545,-0.0286 -0.460027,-0.0476 z m 62.518377,-19.87165 v -19.67284 h 21.16192 21.16191 l -0.12249,0.28477 c -3.83992,8.92647 -8.33839,16.26544 -13.81653,22.54079 -1.38477,1.58627 -4.34231,4.52048 -5.90974,5.86305 -4.52019,3.8718 -9.16064,6.6648 -14.28423,8.59741 -1.94821,0.73487 -3.43482,1.14557 -5.69361,1.57297 -1.15661,0.21885 -2.19164,0.41788 -2.30007,0.44229 l -0.19716,0.0444 z M 30.060156,116.47202 c -1.077618,-3.35101 -1.717375,-5.61823 -2.429207,-8.60889 -2.368348,-9.950251 -3.502691,-20.463739 -3.196765,-29.628738 0.08536,-2.557011 0.260972,-5.383709 0.403432,-6.493465 l 0.05343,-0.416209 h 25.79649 25.796496 V 95.420801 119.51688 H 53.761682 31.039337 Z m 17.488221,-6.00213 c -0.02026,-1.83544 -0.04132,-2.12083 -0.15489,-2.09542 -0.377026,0.0844 -3.061299,0.0102 -3.417264,-0.0938 -0.549789,-0.16133 -0.730328,-0.5132 -0.663823,-1.29377 0.08071,-0.94684 0.324796,-1.69134 1.544544,-4.71028 l 0.07991,-0.19773 6.231451,0.0225 6.231452,0.0225 0.565202,1.27052 c 0.864693,1.94373 1.187008,2.91517 1.201465,3.62117 0.01161,0.56944 -0.0011,0.61033 -0.269094,0.85002 -0.453333,0.40574 -0.857122,0.47734 -2.697809,0.47846 l -1.664815,9.7e-4 -0.02345,2.12483 -0.02345,2.12484 h 9.377117 9.377128 v -2.04766 -2.04766 l -0.328588,-0.0543 c -0.18072,-0.0298 -0.54544,-0.0554 -0.810504,-0.0568 -1.1153,-0.006 -2.153177,-0.37873 -2.909141,-1.04545 -0.688491,-0.6072 -1.508616,-1.98346 -2.117761,-3.5538 -0.150826,-0.38879 -2.620317,-6.116584 -5.487747,-12.728385 l -5.213519,-12.021455 -3.861,-0.0023 -3.860989,-0.0023 -4.586581,11.456593 c -2.52262,6.301121 -4.814214,11.910037 -5.092427,12.464247 -0.278213,0.5542 -0.709791,1.46109 -0.959066,2.0153 -0.619892,1.37825 -0.960625,1.91533 -1.577318,2.48627 -0.374544,0.34678 -0.658358,0.52673 -0.984349,0.62415 -0.626961,0.18737 -1.473246,0.30303 -2.232409,0.30511 l -0.63526,0.002 v 2.10293 2.10294 h 7.493251 7.493239 z M 46.603416,97.633254 c -0.0034,-0.162848 4.169313,-10.869305 4.215577,-10.815812 0.04007,0.04633 4.421388,10.279319 4.612081,10.772006 0.03358,0.08675 -0.880266,0.109514 -4.391903,0.109514 -2.438858,0 -4.434946,-0.0296 -4.435755,-0.06568 z M 83.844279,95.420801 V 71.324718 H 107.45844 131.0726 V 95.420801 119.51688 H 107.45844 83.844279 Z M 110.4814,110.48713 v -2.1076 l -1.94959,0.0602 c -1.64812,0.0509 -2.03435,0.0382 -2.49775,-0.0813 -0.69882,-0.18031 -0.94868,-0.34728 -1.18743,-0.79345 -0.18978,-0.35467 -0.1924,-0.41487 -0.21697,-4.98522 l -0.0248,-4.626212 4.88789,0.02607 c 4.31329,0.023 5.01666,0.008 5.98317,-0.13013 4.34175,-0.619175 6.94158,-2.104169 8.23968,-4.706443 0.6308,-1.264554 0.87266,-2.299346 0.93754,-4.011223 0.11918,-3.144333 -0.73042,-5.487167 -2.63164,-7.256965 -1.38316,-1.287528 -3.19052,-2.075822 -5.93442,-2.588317 l -1.09308,-0.204161 -12.06994,-0.02607 -12.069952,-0.02607 v 2.105591 2.105591 l 0.28477,0.0034 c 0.156621,0.0011 0.994516,0.0387 1.861975,0.08242 1.747895,0.088 2.249689,0.206311 2.67405,0.630683 0.549709,0.549698 0.529833,0.06796 0.5039,12.214424 -0.02573,12.026942 0.01286,11.180202 -0.535514,11.759462 -0.439854,0.46461 -0.878273,0.54523 -2.965024,0.54523 h -1.824157 v 2.05913 2.05912 h 9.813682 9.81367 v -2.10761 z m -5.87068,-21.98848 v -5.082079 l 0.81051,0.0034 c 1.93485,0.0091 5.25617,0.174027 5.99524,0.298044 3.03324,0.508955 4.32656,1.802766 4.47257,4.474289 0.12049,2.204245 -0.66587,3.775017 -2.27684,4.54808 -1.45217,0.696847 -2.51176,0.840012 -6.21718,0.840012 h -2.7843 z m 33.73451,6.922151 V 71.324718 h 25.54185 c 20.37451,0 25.54206,0.0222 25.54288,0.109514 8.8e-4,0.06022 0.0798,0.976984 0.17614,2.037219 0.87767,9.662 -0.0912,22.194402 -2.57809,33.348989 -0.99032,4.44188 -1.48475,6.20814 -3.43762,12.28023 l -0.13385,0.4162 h -22.55566 -22.55565 z m 40.48145,9.791769 2e-5,-7.382168 -2.21247,0.0247 c -1.21688,0.01355 -2.29558,0.04246 -2.39715,0.06421 -0.17134,0.03677 -0.18905,0.116959 -0.24597,1.114401 -0.15733,2.757317 -0.71738,5.486397 -1.38414,6.744927 -0.53457,1.009 -1.63255,1.8034 -3.03569,2.19634 -0.63926,0.17902 -0.88422,0.18895 -5.38159,0.21797 l -4.71184,0.0304 0.024,-11.680521 c 0.023,-11.166233 0.0312,-11.696943 0.18705,-12.05325 0.21776,-0.498014 0.5584,-0.766699 1.26488,-0.99768 0.50902,-0.166422 0.83597,-0.197125 2.44941,-0.230047 l 1.86198,-0.03802 V 81.129599 79.03538 h -9.72606 -9.72606 v 2.102939 2.102927 l 0.32859,0.0046 c 1.19986,0.01776 3.28964,0.167253 3.64895,0.260955 0.6273,0.163565 1.14151,0.687637 1.26942,1.293766 0.1392,0.659576 0.13821,21.638333 -0.001,22.291203 -0.0757,0.35473 -0.18426,0.54955 -0.46003,0.8253 -0.48688,0.48689 -0.87904,0.55906 -3.03776,0.55906 h -1.74813 v 2.05912 2.05912 h 16.51677 16.51677 l 2e-5,-7.38216 z M 26.044822,63.898746 c 0.02362,-0.08436 0.302401,-1.278033 0.619515,-2.652648 1.041599,-4.515112 2.257478,-7.928472 4.16607,-11.695474 1.873358,-3.697458 3.92532,-6.591401 6.529062,-9.208179 1.561415,-1.569224 2.860452,-2.640683 4.596474,-3.791216 3.92162,-2.599018 8.336575,-4.097855 13.454958,-4.567809 1.236585,-0.113498 4.773631,-0.112701 6.133549,0.0011 4.156233,0.348828 8.197122,1.248719 12.924261,2.878199 l 1.971499,0.679589 0.0222,14.254728 0.0222,14.25474 H 51.243285 c -23.997314,0 -25.239221,-0.008 -25.198395,-0.153342 z M 83.844279,51.434501 c 0,-6.939671 0.02129,-12.617577 0.04736,-12.617577 0.103138,0 3.240027,1.602659 4.471739,2.284627 1.797746,0.995358 4.137426,2.363871 5.585228,3.266882 l 1.21064,0.755088 1.3304,-0.946896 c 9.405554,-6.694301 19.391254,-12.33851 28.026544,-15.841438 0.75536,-0.306411 2.53956,-0.949777 3.96491,-1.429702 l 2.59152,-0.872593 V 45.04249 64.052088 H 107.45847 83.844302 Z M 138.34523,44.08298 V 24.113884 l 0.41621,-0.09654 c 0.65301,-0.151396 3.01843,-0.517892 4.27157,-0.661831 2.19551,-0.252177 4.07568,-0.334324 6.48404,-0.283313 3.27334,0.06933 5.83884,0.389002 8.61545,1.073521 12.73133,3.138652 22.26989,12.978015 27.48457,28.351299 1.12685,3.32206 2.00051,6.657758 2.49854,9.539714 0.14574,0.843359 0.28713,1.641819 0.3142,1.774352 l 0.0492,0.240953 h -25.06686 -25.0669 z M 90.277557,34.079563 C 75.232872,14.64758 67.495127,4.4175678 67.067135,3.3932423 66.7356,2.5997827 67.001108,1.9691834 67.849419,1.5353139 L 68.366513,1.270846 80.727461,1.2452434 c 8.140669,-0.01686 12.595275,0.00524 13.047253,0.06482 0.37747,0.049725 0.855449,0.165235 1.062193,0.2566847 0.526828,0.2330436 1.073076,0.7537865 1.338209,1.2757349 0.212698,0.4187162 0.224617,0.5125748 0.212038,1.6687347 -0.02265,2.084391 -0.483409,7.3916353 -1.375958,15.8504173 -0.425909,4.036358 -1.523688,13.979202 -1.814492,16.434213 l -0.108262,0.914281 z"
       id="path1985" />
  </g>
</svg>
