<?xml version="1.0" encoding="UTF-8" standalone="no"?>
<!-- Created with Inkscape (http://www.inkscape.org/) -->

<svg
   width="117.48024mm"
   height="117.48024mm"
   viewBox="0 0 117.48024 117.48024"
   version="1.1"
   id="svg5"
   inkscape:version="1.1 (c68e22c387, 2021-05-23)"
   sodipodi:docname="arnoldc_white.svg"
   xmlns:inkscape="http://www.inkscape.org/namespaces/inkscape"
   xmlns:sodipodi="http://sodipodi.sourceforge.net/DTD/sodipodi-0.dtd"
   xmlns="http://www.w3.org/2000/svg"
   xmlns:svg="http://www.w3.org/2000/svg">
  <sodipodi:namedview
     id="namedview7"
     pagecolor="#ffffff"
     bordercolor="#666666"
     borderopacity="1.0"
     inkscape:pageshadow="2"
     inkscape:pageopacity="0.0"
     inkscape:pagecheckerboard="0"
     inkscape:document-units="mm"
     showgrid="false"
     fit-margin-top="0"
     fit-margin-left="0"
     fit-margin-right="0"
     fit-margin-bottom="0"
     inkscape:zoom="0.94867184"
     inkscape:cx="80.639054"
     inkscape:cy="141.77716"
     inkscape:window-width="1920"
     inkscape:window-height="1017"
     inkscape:window-x="1912"
     inkscape:window-y="-8"
     inkscape:window-maximized="1"
     inkscape:current-layer="layer1"
     height="129.26004mm"
     width="117.48024mm" />
  <defs
     id="defs2" />
  <g
     inkscape:label="Calque 1"
     inkscape:groupmode="layer"
     id="layer1"
     transform="translate(-117.72707,2.3509018)">
    <path
       style="fill:#ffffff;stroke-width:0.264583"
       d="m 117.73329,55.214272 c 0.001,-11.456306 -0.58509,-10.781771 9.37406,-10.781771 7.24669,0 7.82516,0.105442 8.90802,1.623711 0.63267,0.887068 0.63489,0.915503 0.71472,9.15806 l 0.0801,8.26823 h -1.86602 -1.86601 v -3.175 -3.175001 h -5.95312 -5.95313 v 3.175001 3.175 h -1.71979 -1.7198 l 9.8e-4,-8.26823 z m 15.34485,-4.431771 v -2.910416 h -5.95312 -5.95313 v 2.910416 2.910417 h 5.95313 5.95312 z m 6.61557,6.283855 c 10e-4,-9.041833 -0.0915,-8.929688 7.39885,-8.929688 h 4.50641 v 1.719792 1.719791 h -4.23333 -4.23333 v 5.953126 5.953125 h -1.71979 -1.7198 l 0.001,-6.416146 z m 14.02193,-1.256771 v -7.672917 l 6.41615,9.79e-4 c 5.89295,9e-4 6.48509,0.04303 7.26166,0.516535 1.74029,1.061122 1.7915,1.289477 1.8835,8.399705 l 0.0832,6.428615 h -1.73177 -1.73176 l -0.0712,-5.88698 -0.0712,-5.886979 -4.29948,-0.0727 -4.29948,-0.0727 v 5.95968 5.959679 h -1.71979 -1.71979 z m 20.21318,7.294729 c -0.45166,-0.196612 -1.07674,-0.716346 -1.38906,-1.154967 -0.53569,-0.752298 -0.56787,-1.100246 -0.56787,-6.139762 0,-5.04137 0.032,-5.387239 0.5685,-6.140654 0.96175,-1.350654 1.80588,-1.532263 7.12208,-1.532263 5.38159,0 6.18222,0.192576 7.12192,1.713044 0.4864,0.787021 0.53333,1.311464 0.53333,5.959873 0,7.593698 -0.0857,7.67883 -7.7129,7.662561 -3.47618,-0.0074 -5.088,-0.111869 -5.676,-0.367832 z m 9.94932,-7.301283 v -4.239888 l -4.29948,0.0727 -4.29948,0.0727 -0.0737,3.824292 c -0.0405,2.10336 -0.0145,3.978594 0.0578,4.167187 0.10019,0.261075 1.14372,0.342896 4.37323,0.342896 h 4.24163 z m 7.38132,7.078885 c -1.78386,-1.191694 -1.8242,-1.437259 -1.82466,-11.107227 l -4.1e-4,-8.665104 h 1.71979 1.7198 v 8.466666 8.466667 h 1.71979 1.71979 v 1.719792 1.719792 h -2.07754 c -1.71947,0 -2.23249,-0.103516 -2.97656,-0.600586 z m 8.52583,0.148172 c -1.73115,-0.852824 -1.88225,-1.432473 -1.88225,-7.220503 0,-7.588772 0.0824,-7.672917 7.51248,-7.672917 h 4.65637 v -2.513542 -2.513541 h 1.71979 1.7198 v 10.186458 10.186459 l -6.41615,-0.006 c -5.44207,-0.0051 -6.55185,-0.07288 -7.31004,-0.446389 z m 10.15431,-7.220503 v -4.101042 l -4.29948,-0.0727 -4.29948,-0.0727 v 4.246442 4.246441 l 4.29948,-0.0727 4.29948,-0.0727 z m 8.40573,7.280648 c -0.47007,-0.204354 -1.09471,-0.765241 -1.38807,-1.246415 -0.49937,-0.819057 -0.53339,-1.32206 -0.53339,-7.886317 0,-6.566785 0.0339,-7.067003 0.53397,-7.887275 0.94727,-1.55371 1.47584,-1.637725 10.30347,-1.637725 h 7.946 v 1.719792 1.719792 h -7.67292 -7.67291 v 6.085416 6.085417 h 7.67291 7.67292 v 1.719792 1.719792 l -8.00365,-0.01035 c -6.2718,-0.0081 -8.18858,-0.09075 -8.85833,-0.381912 z"
       id="path2775" />
  </g>
</svg>
