<?xml version="1.0" encoding="UTF-8" standalone="no"?>
<!-- Created with Inkscape (http://www.inkscape.org/) -->

<svg
   width="300mm"
   height="300mm"
   viewBox="0 0 300 300"
   version="1.1"
   id="svg5"
   inkscape:version="1.1 (c68e22c387, 2021-05-23)"
   sodipodi:docname="arrow_down.svg"
   xmlns:inkscape="http://www.inkscape.org/namespaces/inkscape"
   xmlns:sodipodi="http://sodipodi.sourceforge.net/DTD/sodipodi-0.dtd"
   xmlns="http://www.w3.org/2000/svg"
   xmlns:svg="http://www.w3.org/2000/svg">
  <sodipodi:namedview
     id="namedview7"
     pagecolor="#ffffff"
     bordercolor="#666666"
     borderopacity="1.0"
     inkscape:pageshadow="2"
     inkscape:pageopacity="0.0"
     inkscape:pagecheckerboard="0"
     inkscape:document-units="mm"
     showgrid="false"
     inkscape:zoom="0.23716796"
     inkscape:cx="2.1082106"
     inkscape:cy="643.00422"
     inkscape:window-width="1920"
     inkscape:window-height="1017"
     inkscape:window-x="1912"
     inkscape:window-y="-8"
     inkscape:window-maximized="1"
     inkscape:current-layer="layer1" />
  <defs
     id="defs2" />
  <g
     inkscape:label="Calque 1"
     inkscape:groupmode="layer"
     id="layer1">
    <path
       style="fill:#ffffff;stroke-width:0.213506"
       d="m 146.32031,243.67597 c -3.00874,-0.46559 -6.83301,-2.03685 -9.39711,-3.86095 C 135.26628,238.63632 6.7416129,110.51871 4.6061334,107.91705 3.096925,106.07838 1.2087263,102.3403 0.5618465,99.910536 0.14493341,98.344576 0.08001068,97.583416 0.08835217,94.359371 0.09723674,90.92406 0.14475023,90.468172 0.67800196,88.701439 2.8730588,81.428964 8.2729876,76.031821 15.44068,73.946382 c 1.480945,-0.43088 2.571936,-0.584452 4.757906,-0.66973 5.157567,-0.201213 8.685826,0.758173 12.963154,3.524872 1.168275,0.755673 14.009592,13.474661 58.821841,58.261496 l 57.327299,57.29477 57.21907,-57.22504 c 61.57183,-61.578234 58.57848,-58.688269 62.50327,-60.345053 2.99947,-1.266187 4.95536,-1.643065 8.48698,-1.635354 2.62024,0.0057 3.40783,0.08974 5.12662,0.54686 7.71173,2.051003 13.36417,7.767164 15.42223,15.596078 0.37082,1.410619 0.46327,2.382781 0.47142,4.957338 0.0115,3.665577 -0.31821,5.489377 -1.52514,8.433521 -1.72285,4.20267 2.66862,-0.34188 -68.25719,70.63633 -35.82907,35.85555 -65.76829,65.6726 -66.53158,66.26011 -1.74418,1.3425 -5.13616,3.0026 -7.36598,3.60502 -1.29674,0.35034 -2.45358,0.47662 -4.80391,0.52448 -1.70271,0.0346 -3.38407,0.0183 -3.73636,-0.0362 z"
       id="path854" />
  </g>
</svg>
