<?xml version="1.0" encoding="UTF-8" standalone="no"?>
<!-- Created with Inkscape (http://www.inkscape.org/) -->

<svg
   width="1000mm"
   height="1000mm"
   viewBox="0 0 1000 1000"
   version="1.1"
   id="svg930"
   inkscape:version="1.1 (c68e22c387, 2021-05-23)"
   sodipodi:docname="bash_white.svg"
   xmlns:inkscape="http://www.inkscape.org/namespaces/inkscape"
   xmlns:sodipodi="http://sodipodi.sourceforge.net/DTD/sodipodi-0.dtd"
   xmlns="http://www.w3.org/2000/svg"
   xmlns:svg="http://www.w3.org/2000/svg">
  <sodipodi:namedview
     id="namedview932"
     pagecolor="#ffffff"
     bordercolor="#666666"
     borderopacity="1.0"
     inkscape:pageshadow="2"
     inkscape:pageopacity="0.0"
     inkscape:pagecheckerboard="0"
     inkscape:document-units="mm"
     showgrid="false"
     units="mm"
     width="1000mm"
     inkscape:zoom="0.16"
     inkscape:cx="2234.375"
     inkscape:cy="1690.625"
     inkscape:window-width="1920"
     inkscape:window-height="1017"
     inkscape:window-x="1912"
     inkscape:window-y="-8"
     inkscape:window-maximized="1"
     inkscape:current-layer="g1637" />
  <defs
     id="defs927" />
  <g
     inkscape:label="Calque 1"
     inkscape:groupmode="layer"
     id="layer1">
    <g
       id="g258" />
    <g
       id="g3051"
       transform="matrix(1.8566022,0,0,1.9131033,-494.58032,-476.82736)">
      <g
         id="g1637"
         transform="translate(-2.6720493,0.86437875)">
        <path
           style="fill:#ffffff;stroke-width:0.142079"
           d="m 535.4098,767.83638 c -0.89712,-0.1224 -5.87513,-1.05034 -8.57957,-1.59928 -1.61518,-0.32786 -3.82348,-0.89847 -5.1921,-1.34162 -4.23142,-1.37011 -9.59541,-3.57916 -10.0872,-4.15424 -0.10445,-0.12213 -0.27275,-0.22205 -0.37402,-0.22205 -0.22006,0 -8.53049,-4.3952 -10.38108,-5.49035 -1.75286,-1.03727 -5.63302,-3.15267 -7.13914,-3.89212 -0.67424,-0.33103 -1.97709,-1.07949 -2.89522,-1.66321 -1.72198,-1.09482 -2.83988,-1.72816 -6.55151,-3.71166 -6.92137,-3.69881 -10.72099,-5.81484 -13.31117,-7.41309 -1.70589,-1.05264 -6.8581,-3.93073 -9.90904,-5.53537 -2.66183,-1.39999 -3.71957,-1.98448 -9.01405,-4.98101 -7.20907,-4.08012 -11.96134,-6.72031 -13.77365,-7.65212 -1.11062,-0.57106 -2.36724,-1.27055 -2.79252,-1.55443 -0.42524,-0.28388 -0.84847,-0.51615 -0.94048,-0.51615 -0.092,0 -0.40312,-0.18865 -0.69135,-0.41923 -0.28824,-0.23056 -0.8065,-0.53669 -1.1517,-0.6803 -0.34519,-0.14359 -0.82183,-0.41617 -1.0592,-0.60573 -0.23739,-0.18953 -1.11306,-0.69333 -1.94596,-1.11953 -0.8329,-0.42619 -3.68855,-1.98658 -6.3459,-3.46752 -2.65734,-1.48093 -6.19445,-3.45128 -7.86025,-4.37851 -1.66579,-0.92725 -3.93734,-2.22216 -5.04788,-2.87755 -1.11052,-0.6554 -2.89531,-1.64432 -3.96617,-2.19762 -3.90766,-2.01895 -10.46819,-5.65321 -12.78483,-7.08226 -1.39354,-0.85962 -8.21041,-4.62369 -12.45453,-6.877 -1.38816,-0.73702 -3.04314,-1.62907 -3.67773,-1.98236 -0.63459,-0.35328 -1.20604,-0.64278 -1.26988,-0.64337 -0.0639,0 -0.48571,-0.24185 -0.93747,-0.53619 -0.45176,-0.29434 -1.21079,-0.74806 -1.68673,-1.00827 -0.47594,-0.26022 -1.44946,-0.82832 -2.16337,-1.26245 -2.1902,-1.33188 -10.34477,-5.83275 -11.0332,-6.08972 -0.35696,-0.13324 -0.72145,-0.32822 -0.81,-0.43328 -0.0885,-0.10507 -0.83489,-0.54489 -1.65858,-0.97739 -0.82368,-0.4325 -1.90635,-1.06183 -2.40592,-1.39853 -0.49957,-0.33668 -0.96015,-0.61215 -1.02347,-0.61215 -0.20273,0 -1.08717,-0.45159 -1.38539,-0.70738 -0.15865,-0.13607 -2.00834,-1.17563 -4.11041,-2.31015 -2.10208,-1.13451 -4.17586,-2.28125 -4.60838,-2.54829 -0.43254,-0.26705 -1.95772,-1.11742 -3.38929,-1.88974 -4.2392,-2.28696 -7.89612,-4.5442 -11.83325,-7.30411 -1.11053,-0.77847 -2.29129,-1.5851 -2.62388,-1.79248 -1.00539,-0.6269 -5.95951,-5.43555 -9.01121,-8.7466 -1.57866,-1.71282 -2.82327,-3.11423 -2.76581,-3.11423 0.0575,0 -0.0596,-0.1732 -0.2601,-0.38489 -0.20052,-0.21171 -0.51559,-0.63685 -0.70014,-0.94477 -0.18455,-0.30793 -0.55184,-0.82239 -0.81619,-1.14328 -0.26436,-0.32089 -0.48064,-0.64797 -0.48064,-0.72689 0,-0.0789 -0.11676,-0.22576 -0.25947,-0.32635 -0.14272,-0.10063 -0.38852,-0.43483 -0.54624,-0.74275 -0.15773,-0.30794 -0.78627,-1.42227 -1.39677,-2.47629 -1.91013,-3.29787 -3.5516,-6.93606 -4.99275,-11.06599 -0.46484,-1.33209 -0.97513,-2.70356 -1.13399,-3.04773 -0.15887,-0.34416 -0.36531,-1.14563 -0.45877,-1.78105 -0.0934,-0.63543 -0.29445,-1.50659 -0.44665,-1.9359 -0.1522,-0.4293 -0.53801,-2.00594 -0.85737,-3.50364 l -0.58064,-2.72306 9.3e-4,-103.81422 9.4e-4,-103.81422 0.49606,-2.14396 c 0.27282,-1.17918 0.65826,-2.69081 0.85651,-3.35917 0.19826,-0.66836 0.46331,-1.76546 0.58899,-2.43798 0.12567,-0.67253 0.35181,-1.50196 0.50252,-1.84317 0.15071,-0.34118 0.70627,-1.80645 1.23457,-3.25609 2.00182,-5.49298 4.04065,-9.58613 6.96002,-13.97295 3.21197,-4.8265 8.97601,-11.07371 13.3008,-14.41575 3.79989,-2.93644 6.73512,-4.97338 9.37461,-6.5057 0.8329,-0.48351 1.91202,-1.15447 2.39802,-1.49098 0.48603,-0.33654 0.93073,-0.61187 0.98825,-0.61187 0.10512,0 3.12902,-1.63652 4.47398,-2.42129 1.88564,-1.10026 3.38738,-1.916 5.85473,-3.1803 1.47498,-0.75578 3.14042,-1.66208 3.70097,-2.014 0.56057,-0.35191 1.20189,-0.70725 1.42517,-0.78963 0.38356,-0.14153 2.51474,-1.35874 5.74923,-3.28365 2.6164,-1.55708 9.64393,-5.42238 12.90812,-7.09977 1.36575,-0.70182 3.16172,-1.72368 4.68731,-2.66697 0.55526,-0.34332 1.69103,-0.98663 2.52393,-1.42957 1.81214,-0.96369 14.03625,-7.81513 18.60502,-10.42784 1.78479,-1.02064 4.28348,-2.39315 5.55265,-3.04998 1.26918,-0.65684 3.15133,-1.67869 4.18253,-2.27076 1.0312,-0.59206 2.97824,-1.69413 4.32674,-2.44903 1.3485,-0.75489 4.10681,-2.31573 6.12956,-3.46854 2.02276,-1.1528 4.8135,-2.69269 6.20167,-3.42198 1.38817,-0.72929 2.71649,-1.45888 2.95185,-1.62133 0.23535,-0.16245 0.78702,-0.46093 1.22591,-0.66328 0.4389,-0.20237 2.45298,-1.31325 4.47573,-2.46861 10.52107,-6.00947 16.05144,-9.07375 19.00386,-10.5297 0.97295,-0.47979 2.11069,-1.14248 2.52834,-1.47264 0.41763,-0.33017 2.02294,-1.27962 3.56733,-2.10992 3.65132,-1.96302 15.68472,-8.6129 18.09583,-10.0001 1.86715,-1.07424 6.85316,-3.83628 9.73518,-5.39289 0.8329,-0.44985 4.59716,-2.5606 8.36504,-4.69055 9.58276,-5.41705 9.41421,-5.32537 14.06192,-7.64856 9.48059,-4.73895 13.695,-6.31963 19.69752,-7.38791 1.07682,-0.19164 2.50465,-0.48521 3.17295,-0.6524 1.15003,-0.28768 1.60778,-0.30731 8.55013,-0.36667 8.25621,-0.0706 9.38327,-0.006 13.12597,0.75198 4.12802,0.83605 11.15537,2.88963 13.11524,3.83262 0.46046,0.22155 0.93044,0.3681 1.04442,0.32565 0.11404,-0.0425 0.24711,0.0238 0.29597,0.14731 0.0488,0.12345 0.18537,0.22446 0.30345,0.22446 0.1181,0 0.40379,0.13067 0.6349,0.29038 0.23112,0.1597 2.09081,1.12279 4.13267,2.14019 2.04186,1.0174 5.46481,2.83125 7.60655,4.03078 2.14174,1.19954 4.25103,2.35305 4.68731,2.56337 0.43628,0.21031 1.53961,0.82191 2.45182,1.35912 3.27907,1.931 5.79267,3.3464 7.74679,4.36216 2.83175,1.47197 9.98484,5.44236 11.43512,6.34718 0.67426,0.42067 3.04314,1.75832 5.26422,2.97256 2.22105,1.21424 5.40121,2.95286 7.06701,3.86359 1.66579,0.91072 5.49497,3.05148 8.50927,4.75721 3.0143,1.70573 6.29181,3.52946 7.28335,4.05274 0.99156,0.52326 2.0727,1.1304 2.40255,1.3492 0.32984,0.21877 2.53647,1.44434 4.90364,2.72346 2.36715,1.27912 4.94443,2.70262 5.72729,3.16333 0.78284,0.4607 2.37293,1.35724 3.5335,1.99231 5.14838,2.81715 14.2316,7.91639 15.81151,8.8764 1.55524,0.94502 4.37141,2.48772 8.7256,4.77988 0.8329,0.43845 2.45544,1.33383 3.60563,1.98972 1.15019,0.65589 2.70782,1.52644 3.4614,1.93454 0.75357,0.40811 2.47345,1.3854 3.82196,2.17176 3.10487,1.81056 8.63265,4.8795 11.22455,6.2317 1.09681,0.57222 2.83701,1.5285 3.86712,2.12511 1.03011,0.5966 1.92096,1.08473 1.97965,1.08473 0.0587,0 0.65494,0.33391 1.32499,0.74203 0.67004,0.40809 2.5163,1.4564 4.10277,2.32956 1.58647,0.87316 3.75168,2.0866 4.81158,2.69654 1.0599,0.60994 2.08787,1.16831 2.28435,1.24081 0.19651,0.0724 0.82204,0.42361 1.3901,0.78024 0.56804,0.35664 2.32443,1.33412 3.90309,2.1722 1.57866,0.83807 3.28924,1.80801 3.80133,2.1554 0.51208,0.3474 1.36594,0.84417 1.89745,1.10393 0.53151,0.25975 1.04826,0.56803 1.14833,0.68505 0.10012,0.11701 0.37208,0.25327 0.60449,0.30282 0.23239,0.0495 0.50372,0.20252 0.60298,0.33997 0.0993,0.13746 0.79702,0.55038 1.5506,0.91762 4.514,2.19979 15.345,8.3641 19.1819,10.91711 0.8329,0.5542 2.00113,1.2717 2.59605,1.59442 0.59492,0.32274 1.21149,0.72796 1.37014,0.90048 0.15864,0.17253 0.46677,0.40093 0.68472,0.50757 1.57921,0.77268 7.06757,5.84146 10.53776,9.73218 1.16421,1.30528 3.36347,4.17695 3.83257,5.0043 0.20735,0.36574 0.49059,0.70111 0.62941,0.74526 0.13881,0.0442 0.25338,0.15475 0.25461,0.24579 10e-4,0.091 0.52379,1.01581 1.16127,2.05506 1.91327,3.1191 4.08719,7.42933 5.61468,11.13215 2.02909,4.91872 3.35879,11.36245 3.60934,17.49077 0.38145,9.33046 0.55403,113.6155 0.28742,173.69703 l -0.13105,29.53271 -0.50427,3.07923 c -1.05243,6.42637 -2.32815,11.08519 -4.11134,15.01421 -0.93393,2.05779 -4.01208,7.79918 -5.0449,9.40976 -2.07799,3.24039 -5.23525,7.32123 -7.55392,9.76363 -2.12335,2.23667 -6.18173,5.77657 -8.97785,7.83096 -0.98116,0.72086 -4.36965,2.95513 -5.89975,3.89009 -0.25197,0.15396 -0.68871,0.45314 -0.97054,0.66483 -0.28182,0.2117 -0.61663,0.38491 -0.74401,0.38491 -0.12741,0 -0.28353,0.09 -0.34698,0.20002 -0.0634,0.11001 -0.66699,0.49321 -1.34124,0.85156 -0.67423,0.35835 -1.29795,0.74072 -1.38601,0.84972 -0.088,0.109 -0.21952,0.19818 -0.29208,0.19818 -0.27522,0 -8.47063,4.44757 -11.73357,6.3677 -0.72541,0.42687 -1.72014,0.97262 -2.21052,1.21275 -0.49036,0.24014 -1.34586,0.73326 -1.90114,1.09582 -1.42955,0.93342 -4.57192,2.6731 -6.62058,3.66531 -0.95946,0.46466 -1.93916,0.98619 -2.17713,1.15891 -0.23797,0.17275 -1.63334,0.96132 -3.10083,1.75238 -1.46749,0.79107 -3.73903,2.05122 -5.04787,2.80033 -1.30885,0.7491 -3.35324,1.90091 -4.54309,2.55957 -1.18984,0.65863 -3.03051,1.70687 -4.09035,2.3294 -1.05984,0.62253 -1.98342,1.13187 -2.0524,1.13187 -0.069,0 -0.49825,0.23145 -0.95391,0.51432 -0.45566,0.28287 -1.80362,1.01447 -2.99547,1.62577 -1.19183,0.6113 -2.97825,1.56739 -3.9698,2.12465 -0.99153,0.55726 -2.11109,1.18246 -2.48788,1.38938 -0.37679,0.2069 -0.68506,0.43731 -0.68506,0.51204 0,0.0747 -0.34073,0.28397 -0.75718,0.46505 -0.41645,0.18107 -2.63932,1.39738 -4.9397,2.7029 -2.3004,1.30552 -5.8375,3.27794 -7.86026,4.38316 -2.02275,1.10521 -3.90344,2.18704 -4.17933,2.40407 -0.27588,0.21702 -0.60493,0.39458 -0.73123,0.39458 -0.1263,0 -0.75247,0.33382 -1.3915,0.74183 -0.63904,0.408 -1.67291,0.9906 -2.2975,1.29468 -0.6246,0.30406 -1.20052,0.6267 -1.27985,0.71696 -0.0793,0.0902 -0.72834,0.46107 -1.44225,0.82403 -2.16946,1.10296 -11.07192,6.01895 -14.06192,7.76506 -3.30896,1.93239 -7.58794,4.30325 -9.01406,4.99443 -0.55526,0.26911 -1.98308,1.03875 -3.17294,1.71032 -1.18986,0.67157 -3.07199,1.72429 -4.18253,2.33939 -1.11053,0.61511 -4.90725,2.74727 -8.43715,4.73814 -3.5299,1.99089 -7.17229,4.00868 -8.09417,4.48397 -2.09757,1.08143 -4.78741,2.64911 -5.02792,2.93035 -0.10012,0.11701 -0.25023,0.21273 -0.33372,0.21273 -0.0835,0 -1.19507,0.57553 -2.47021,1.27896 -1.27514,0.7034 -3.35685,1.84663 -4.62602,2.5405 -3.75743,2.05417 -4.12455,2.26021 -5.43807,3.05192 -0.69054,0.41621 -2.56171,1.44957 -4.15811,2.29636 -1.59641,0.84679 -3.22027,1.74432 -3.60858,1.99451 -0.38831,0.25019 -0.77115,0.45489 -0.85077,0.45489 -0.0796,0 -0.46762,0.23619 -0.86222,0.52487 -0.39458,0.28868 -2.03467,1.21285 -3.64461,2.05369 -1.60994,0.84084 -4.41988,2.36012 -6.24433,3.37615 -9.0753,5.05405 -12.31435,6.60272 -17.2541,8.24967 -6.2247,2.07533 -11.66648,3.10287 -18.1382,3.42486 -2.82611,0.14061 -8.56204,0.16814 -9.46163,0.0454 z m 11.37921,-9.83901 c 1.70009,-0.13669 2.75406,-0.32974 2.88002,-0.52754 0.0359,-0.0564 0.11022,-0.60577 0.16517,-1.22089 l 0.0999,-1.11841 -1.48458,-0.69984 c -2.79548,-1.31778 -5.21802,-3.43912 -7.17645,-6.28419 -1.83873,-2.67115 -2.5546,-4.27186 -3.70493,-8.28433 l -0.67868,-2.36729 -0.15594,-15.04627 c -0.20987,-20.24922 -0.1976,-167.59203 0.0149,-178.80579 0.16895,-8.91741 0.14356,-8.63021 1.10905,-12.54023 0.78292,-3.17058 1.42165,-4.9943 2.53735,-7.24473 3.72343,-7.5104 7.85572,-12.36619 16.02305,-18.82845 3.98188,-3.15061 8.36235,-6.02081 14.6155,-9.57647 1.90377,-1.08253 3.58821,-2.07994 3.74323,-2.21649 0.15501,-0.13653 0.70667,-0.4476 1.22591,-0.69124 0.51924,-0.24366 4.41629,-2.47592 8.66011,-4.96058 8.56791,-5.01635 11.59273,-6.76451 13.41291,-7.75187 2.29123,-1.24286 2.95601,-1.64187 3.38929,-2.03427 0.23797,-0.21552 0.91943,-0.64167 1.51436,-0.94702 0.59492,-0.30534 1.73069,-0.93453 2.52394,-1.3982 3.26207,-1.90679 8.54282,-4.92433 9.01404,-5.15084 0.27764,-0.13345 0.89421,-0.48965 1.37015,-0.79157 1.51563,-0.96145 11.92194,-7.02169 14.78305,-8.60908 0.83289,-0.4621 5.24618,-3.031 9.80729,-5.70865 8.54388,-5.01579 11.50182,-6.70558 13.12447,-7.4977 0.5156,-0.2517 1.02227,-0.57485 1.12591,-0.71813 0.10366,-0.14329 0.31459,-0.2605 0.46874,-0.2605 0.15415,0 0.28026,-0.0653 0.28026,-0.14493 0,-0.0797 0.29506,-0.26769 0.65565,-0.41769 0.36059,-0.15 0.8697,-0.43122 1.13135,-0.62487 0.26165,-0.19368 0.56757,-0.35213 0.67981,-0.35213 0.11225,0 0.28516,-0.12598 0.38422,-0.27993 0.0991,-0.15396 0.26689,-0.27994 0.37291,-0.27994 0.10603,0 0.30971,-0.12542 0.45267,-0.27869 0.14294,-0.15329 0.91558,-0.61736 1.71699,-1.03129 1.4117,-0.72911 7.74518,-4.37337 10.97593,-6.3155 0.87257,-0.52453 1.79939,-1.04053 2.05964,-1.14668 0.26025,-0.10614 0.91866,-0.47009 1.46313,-0.80879 0.54448,-0.33869 1.25933,-0.74917 1.58853,-0.91215 0.32923,-0.16299 0.84117,-0.50906 1.13769,-0.76903 0.29651,-0.25996 1.54294,-1.03252 2.76983,-1.71682 4.21332,-2.34989 5.41306,-3.0255 9.58619,-5.3982 2.30039,-1.30792 5.41565,-3.11514 6.92279,-4.01608 3.25037,-1.94298 6.8781,-4.04415 8.58139,-4.9703 0.67426,-0.36662 1.51797,-0.87135 1.87493,-1.12163 0.35694,-0.25025 1.39273,-0.84167 2.30173,-1.31427 0.90901,-0.47259 1.78517,-0.97606 1.94704,-1.11881 0.16187,-0.14277 0.53718,-0.33502 0.83404,-0.42725 0.29685,-0.0922 0.5889,-0.24173 0.64901,-0.33217 0.12728,-0.19154 0.53905,-0.45388 1.03795,-0.66127 0.19348,-0.0804 0.74512,-0.41709 1.22591,-0.74816 0.48078,-0.33106 2.04236,-1.24915 3.47019,-2.0402 1.42782,-0.79106 3.13398,-1.77709 3.79146,-2.19116 0.65748,-0.41409 1.51909,-0.91205 1.91469,-1.10661 0.84419,-0.41515 6.72634,-3.87417 8.50001,-4.99846 1.59998,-1.01423 3.76945,-2.11866 6.27377,-3.19389 7.79609,-3.34725 14.36511,-3.76158 19.59341,-1.23585 1.5695,0.75822 2.34741,1.34486 5.03563,3.79758 1.25081,1.14122 2.43947,2.13595 2.6415,2.21047 0.20202,0.0746 0.8174,0.13553 1.36749,0.13553 h 1.00019 v -1.80045 c 0,-2.30789 -0.10849,-2.82578 -1.17671,-5.61771 -1.75906,-4.59754 -3.37713,-7.63236 -6.35163,-11.91295 -5.64095,-8.11786 -11.85328,-13.39587 -22.97522,-19.51979 -2.06242,-1.1356 -4.36465,-2.41659 -5.11608,-2.84666 -0.75142,-0.43007 -1.9521,-1.06599 -2.66816,-1.41316 -1.36775,-0.66315 -5.5322,-2.9857 -9.66698,-5.39137 -6.21882,-3.61822 -14.75704,-8.32385 -15.10336,-8.32385 -0.1217,0 -0.29963,-0.0916 -0.3954,-0.20361 -0.0958,-0.11198 -0.47689,-0.37315 -0.84695,-0.58037 -0.37005,-0.20722 -1.22448,-0.72886 -1.89873,-1.15923 -0.67426,-0.43035 -1.93983,-1.13681 -2.81239,-1.5699 -1.90937,-0.94769 -4.44845,-2.33459 -5.29619,-2.89286 -0.72806,-0.47947 -5.42033,-3.06099 -8.18884,-4.50524 -1.07086,-0.55864 -2.52072,-1.39116 -3.22186,-1.85005 -0.70116,-0.45889 -2.22384,-1.34009 -3.3837,-1.95821 -1.15988,-0.61813 -2.371,-1.29595 -2.69135,-1.50626 -0.32037,-0.2103 -1.39376,-0.7912 -2.38529,-1.29087 -2.33541,-1.17688 -9.83239,-5.34025 -10.67265,-5.92696 -0.35696,-0.24923 -2.04438,-1.20767 -3.74985,-2.12986 -1.70546,-0.9222 -4.52866,-2.48455 -6.27378,-3.47188 -1.74512,-0.98734 -4.12845,-2.28385 -5.2963,-2.88113 -1.16785,-0.59727 -2.62812,-1.43286 -3.24506,-1.85689 -0.61694,-0.42401 -1.97072,-1.21104 -3.0084,-1.74895 -1.03768,-0.5379 -3.87691,-2.08488 -6.3094,-3.43774 -2.43248,-1.35287 -4.46455,-2.45975 -4.51569,-2.45975 -0.0511,0 -0.65168,-0.34203 -1.33453,-0.76008 -0.68284,-0.41806 -1.40378,-0.82159 -1.60208,-0.8967 -0.19832,-0.0751 -1.06839,-0.58338 -1.9335,-1.12945 -0.86513,-0.54607 -1.69465,-0.99284 -1.8434,-0.99284 -0.14875,0 -0.30782,-0.0945 -0.35348,-0.20994 -0.0457,-0.11548 -0.15072,-0.20995 -0.23346,-0.20995 -0.0827,0 -0.66967,-0.32324 -1.30429,-0.7183 -0.63461,-0.39507 -2.23116,-1.26401 -3.5479,-1.931 -2.16327,-1.09577 -8.63831,-4.72969 -16.60023,-9.31636 -1.62614,-0.93679 -3.73544,-2.10243 -4.68732,-2.59032 -0.95188,-0.48788 -1.89295,-0.99412 -2.09126,-1.12497 -0.1983,-0.13084 -1.23672,-0.69719 -2.3076,-1.25855 -2.45569,-1.28731 -7.61928,-4.14745 -9.23038,-5.11277 -3.95591,-2.37027 -11.32322,-6.37714 -16.00897,-8.70681 -8.51275,-4.2324 -12.51344,-5.50172 -19.80691,-6.28428 -2.73084,-0.293 -11.23989,-0.33445 -14.37438,-0.07 -3.76338,0.31749 -6.73099,0.81024 -9.30727,1.54539 -2.30544,0.65788 -7.16005,2.36198 -7.57319,2.65839 -0.2085,0.14961 -1.055,0.6008 -1.88113,1.00264 -0.8261,0.40185 -2.31327,1.17233 -3.30482,1.71218 -0.99155,0.53985 -3.16387,1.70589 -4.8274,2.59119 -2.82952,1.50584 -11.1409,6.12564 -14.71508,8.17925 -2.81472,1.61726 -9.63507,5.37622 -10.60052,5.84237 -0.51561,0.24895 -1.52157,0.79691 -2.23549,1.2177 -3.90566,2.302 -6.90853,4.01418 -9.15827,5.22188 -3.54263,1.90177 -11.43329,6.29352 -13.41292,7.46532 -2.87551,1.70211 -3.77684,2.21237 -5.48055,3.10267 -4.03704,2.10964 -10.45359,5.65601 -13.12446,7.25377 -1.89531,1.13382 -10.27807,5.78197 -11.53629,6.39676 -0.51467,0.25148 -1.00143,0.53567 -1.08168,0.63154 -0.0802,0.0959 -0.34064,0.21827 -0.57861,0.27199 -0.23797,0.0537 -0.53002,0.18171 -0.64901,0.2844 -0.11898,0.10268 -2.03357,1.20722 -4.25463,2.45449 -2.22107,1.24729 -4.20056,2.37771 -4.39886,2.51205 -0.19831,0.13433 -1.17183,0.67311 -2.16338,1.19727 -0.99154,0.52415 -2.07283,1.13051 -2.40286,1.34744 -0.33004,0.21695 -1.62806,0.95192 -2.8845,1.63328 -1.25645,0.68136 -2.86855,1.58683 -3.58246,2.01216 -0.71391,0.42531 -1.71989,0.97773 -2.2355,1.22759 -1.86836,0.90543 -4.55284,2.38623 -4.97575,2.74472 -0.23797,0.2017 -0.95189,0.61914 -1.58648,0.9276 -0.63458,0.30848 -1.9975,1.05155 -3.02872,1.65128 -1.03121,0.59972 -3.98421,2.22402 -6.56224,3.60956 -2.57801,1.38553 -5.48643,3.01379 -6.46314,3.61835 -0.97671,0.60456 -1.88533,1.13892 -2.01914,1.1875 -0.13383,0.0486 -1.34663,0.73596 -2.69514,1.52754 -1.34851,0.79158 -3.52269,1.98494 -4.83153,2.6519 -1.30885,0.66696 -2.93138,1.52852 -3.60563,1.91459 -0.67424,0.38607 -1.87492,1.03765 -2.66815,1.44795 -0.79324,0.41031 -1.89656,1.04118 -2.45182,1.40191 -0.55527,0.36076 -1.36654,0.83029 -1.80281,1.04342 -0.43629,0.21312 -2.12371,1.15828 -3.74986,2.10035 -1.62613,0.94206 -4.25463,2.41917 -5.8411,3.28247 -1.58648,0.86328 -2.98185,1.64931 -3.10083,1.74674 -0.11899,0.0974 -0.66406,0.37689 -1.21127,0.62107 -1.53812,0.68637 -7.0534,3.91232 -10.39884,6.0824 -3.51439,2.2797 -6.4666,4.71533 -9.36273,7.72443 -6.13771,6.37714 -9.11741,11.1232 -12.12603,19.31432 -0.42413,1.15472 -1.06404,2.85742 -1.42202,3.7838 -0.68808,1.78057 -0.95899,3.17628 -1.2488,6.43368 -0.0885,0.99504 -0.21148,12.29006 -0.3017,27.71314 -0.1825,31.20309 -0.0616,171.29913 0.15281,177.12183 0.22992,6.24258 0.52589,8.65051 1.30757,10.6383 0.22779,0.57924 0.45576,1.24212 0.5066,1.47307 0.0508,0.23095 0.24754,0.7978 0.4371,1.25969 0.18954,0.46188 0.70769,1.84754 1.15142,3.07924 1.86125,5.16638 5.07905,10.58907 8.72077,14.69636 1.46275,1.64976 7.39714,7.30861 8.86925,8.45745 1.46606,1.14413 6.78318,4.55585 9.22898,5.92178 4.04143,2.25705 4.99898,2.77859 7.64392,4.16337 1.50715,0.78907 3.22042,1.74237 3.80729,2.11841 0.58684,0.37605 1.12228,0.68371 1.18985,0.68371 0.0676,0 0.12284,0.0629 0.12284,0.13997 0,0.077 0.0842,0.13996 0.18692,0.13996 0.1028,0 0.67069,0.29202 1.26196,0.64895 0.59128,0.35692 2.08103,1.19589 3.31054,1.86439 1.22953,0.66847 3.17655,1.75174 4.32675,2.40726 1.1502,0.65551 3.38929,1.88546 4.97576,2.7332 1.58646,0.84774 3.36958,1.83436 3.96245,2.19248 0.59288,0.35812 1.15109,0.65113 1.24046,0.65113 0.0893,0 0.57781,0.30417 1.08542,0.67592 1.26541,0.92677 2.76365,1.78484 3.72497,2.13336 0.44197,0.16022 0.90091,0.37429 1.0199,0.47574 0.11899,0.10141 1.41701,0.83209 2.8845,1.62368 1.46748,0.79163 6.14561,3.40397 10.39584,5.80522 4.25022,2.40125 8.4688,4.76131 9.37461,5.2446 0.90581,0.48332 2.94497,1.58942 4.53144,2.45804 1.58647,0.86862 3.06799,1.6469 3.29227,1.72951 0.22427,0.0825 0.80839,0.42589 1.29802,0.76281 0.86968,0.59846 11.8039,6.76492 15.96177,9.0018 5.07777,2.73181 6.59469,3.57908 7.07337,3.95078 0.28114,0.21832 0.92433,0.59935 1.42932,0.84674 0.50498,0.24738 3.61738,1.94596 6.91642,3.7746 3.29905,1.82865 6.45258,3.56607 7.00785,3.86094 0.55526,0.29487 1.39898,0.80035 1.87492,1.12329 1.03468,0.70204 3.95442,2.34179 6.34589,3.5639 1.83935,0.93994 9.49688,5.204 15.74019,8.76481 2.07324,1.18245 3.81909,2.14994 3.87965,2.14994 0.0606,0 0.61963,0.31716 1.24232,0.70478 0.62269,0.38765 2.41396,1.37336 3.98059,2.19048 3.61499,1.88548 6.77465,3.61955 8.61742,4.72936 2.72949,1.64383 8.13194,4.67919 14.20616,7.98174 1.94343,1.05665 3.89328,2.16593 4.33301,2.46509 0.43972,0.29917 0.8574,0.54394 0.92817,0.54394 0.0707,0 0.26264,0.1193 0.4264,0.26514 0.16377,0.14581 0.81696,0.46437 1.45156,0.70787 0.63458,0.2435 2.22466,0.98176 3.53351,1.64057 2.65715,1.33749 4.40232,1.98717 8.00447,2.97985 4.50327,1.24099 6.59388,1.61092 10.23997,1.81191 2.96386,0.16336 9.54673,0.1693 11.52344,0.0103 z m 57.72537,-74.47545 c 1.22891,-0.36822 2.91555,-1.17993 5.88546,-2.8325 2.57002,-1.43004 3.95074,-2.58038 4.56052,-3.79955 l 0.35003,-0.69983 0.0463,-7.62812 0.0463,-7.62811 1.10755,-1.09637 c 0.60916,-0.60299 1.50619,-1.37523 1.99338,-1.71608 1.16569,-0.81548 5.21994,-4.95975 5.48654,-5.60837 0.0369,-0.0896 0.32433,-0.43343 0.63893,-0.76412 1.51065,-1.588 4.4274,-6.02595 6.24398,-9.50043 2.8008,-5.35695 4.24561,-9.80452 5.09248,-15.67613 0.32102,-2.22565 0.36711,-10.52994 0.0695,-12.5269 -1.06916,-7.175 -2.64537,-10.04327 -7.30005,-13.284 -3.34004,-2.32543 -6.11697,-3.16154 -12.56342,-3.78271 -1.19201,-0.11485 -2.55493,-0.30206 -3.02872,-0.41601 -0.47379,-0.11395 -1.96476,-0.27656 -3.31325,-0.36135 -4.58784,-0.28845 -6.13977,-0.56815 -7.98909,-1.43982 -1.83966,-0.86711 -2.66422,-1.7892 -3.42942,-3.83501 -0.4012,-1.07269 -0.43568,-2.24733 -0.11078,-3.77388 0.9778,-4.594 2.65478,-7.43322 6.25734,-10.59401 3.23155,-2.83529 8.62373,-5.36333 12.42674,-5.82612 0.64201,-0.0781 2.86439,-0.23929 4.93862,-0.35816 5.68988,-0.32608 5.7804,-0.35269 6.61154,-1.94437 0.49207,-0.94235 1.87012,-4.91983 2.13364,-6.15838 0.0968,-0.45454 0.32437,-1.21036 0.50593,-1.67959 0.70755,-1.8287 1.27212,-5.42017 1.20362,-7.65682 l -0.0491,-1.60245 -0.64901,-0.86661 -0.64902,-0.8666 -2.16338,10e-4 c -1.18985,0.001 -3.75345,0.0573 -5.69687,0.12555 -3.37718,0.1186 -3.62116,0.14622 -5.51431,0.62433 -1.08945,0.27511 -2.07405,0.50022 -2.18798,0.50022 -0.11395,0 -0.24501,-0.1732 -0.29127,-0.3849 -0.0463,-0.2117 -0.1811,-2.86387 -0.29964,-5.89371 -0.22749,-5.8148 -0.34737,-7.01024 -0.78677,-7.8461 -0.30279,-0.576 -0.66974,-0.78409 -1.62879,-0.92364 -1.041,-0.1515 -2.09866,0.14513 -3.58807,1.00627 -0.74337,0.42979 -1.6861,0.93266 -2.09495,1.11746 -0.40887,0.18481 -0.78001,0.42861 -0.82479,0.54181 -0.0448,0.11321 -0.20181,0.20581 -0.34901,0.20581 -0.60483,0 -4.52651,2.81293 -5.026,3.60502 -0.13319,0.2112 -0.40279,0.62012 -0.59912,0.90871 -0.32491,0.47759 -0.36756,0.72262 -0.47505,2.72932 -0.065,1.21255 -0.12108,4.64995 -0.12472,7.63866 l -0.007,5.43405 -3.78991,3.81043 c -5.16505,5.19301 -7.02841,7.45202 -9.77043,11.84493 -2.84576,4.55908 -4.2993,8.23372 -5.84189,14.76865 l -0.82543,3.49682 0.0906,5.25944 c 0.0498,2.89268 0.15295,5.73677 0.22917,6.32021 0.27503,2.10512 1.7821,5.99892 2.9217,7.54877 0.80548,1.09545 2.47862,2.65302 3.88433,3.616 2.59953,1.78085 5.18947,2.64335 9.85684,3.28252 3.06074,0.41916 3.467,0.48029 4.15459,0.62501 0.38125,0.0802 2.06869,0.24254 3.74985,0.36066 5.71342,0.40138 6.99811,0.61012 8.72992,1.4185 1.34734,0.6289 2.97844,2.14444 3.52049,3.27106 0.83647,1.73853 1.16973,4.34233 0.84333,6.5889 -0.42675,2.93735 -2.38359,7.10852 -4.26312,9.08723 -0.25592,0.26943 -0.68625,0.79712 -0.95626,1.17265 -0.70897,0.98595 -3.42795,3.2994 -4.79692,4.08143 -0.64603,0.36905 -1.51981,0.88998 -1.94176,1.15765 -1.65166,1.04774 -5.83928,2.52565 -8.61149,3.0392 -1.70144,0.31519 -2.22606,0.35324 -4.2147,0.30568 -1.24925,-0.0299 -2.56343,-0.12392 -2.92038,-0.20899 -0.35696,-0.085 -1.5593,-0.19848 -2.67186,-0.25204 l -2.02287,-0.0974 -0.97898,1.02617 c -1.07004,1.1216 -1.87706,2.564 -2.38461,4.26204 -0.63679,2.13045 -2.18267,8.74906 -2.32106,9.93754 -0.20389,1.75109 -0.18605,4.25787 0.0335,4.68884 0.40924,0.80378 2.97267,1.57738 6.03663,1.82177 3.17238,0.25304 6.9357,-0.16934 11.73587,-1.31717 1.28495,-0.30726 2.07675,-0.43528 2.17963,-0.35241 0.22089,0.17791 0.30919,1.1631 0.56345,6.28622 0.25883,5.21559 0.4198,6.94177 0.67529,7.24211 0.68611,0.80657 2.42295,0.98635 4.24751,0.43968 z m 55.90593,-18.82759 c 2.05795,-1.0041 10.53195,-5.72878 16.90676,-9.42633 1.42784,-0.82817 2.92056,-1.66468 3.31719,-1.85887 0.39661,-0.19421 2.05159,-1.15469 3.67773,-2.13438 1.62613,-0.97972 3.50826,-2.06971 4.18252,-2.42221 0.67425,-0.3525 1.67178,-0.91633 2.21673,-1.25295 0.54497,-0.33663 1.12908,-0.66354 1.29803,-0.72652 0.28131,-0.10482 2.66796,-1.47328 8.60014,-4.93117 1.54513,-0.90066 2.52921,-1.58402 3.1866,-2.21285 1.34774,-1.28909 1.35697,-1.33776 1.35437,-7.13822 -0.002,-5.08136 -0.0754,-5.69209 -0.73122,-6.10913 -0.64823,-0.4122 -1.2157,-0.16613 -6.18947,2.68386 -1.50715,0.8636 -6.79661,3.83694 -11.75434,6.60741 -4.95772,2.77046 -9.845,5.52053 -10.86058,6.11127 -1.01562,0.59072 -4.26067,2.41472 -7.21126,4.05334 -5.42952,3.01531 -7.47387,4.20178 -8.55794,4.96679 -0.7536,0.53178 -1.29636,1.5861 -1.48841,2.8912 -0.27461,1.86635 -0.081,9.11592 0.27787,10.40973 0.13739,0.49511 0.47373,0.99746 0.66784,0.99746 0.036,0 0.53433,-0.22879 1.10744,-0.50843 z"
           id="path2339" />
      </g>
    </g>
  </g>
</svg>
