<?xml version="1.0" encoding="UTF-8" standalone="no"?>
<!-- Created with Inkscape (http://www.inkscape.org/) -->

<svg
   width="1000mm"
   height="1000mm"
   viewBox="0 0 1000 1000"
   version="1.1"
   id="svg930"
   inkscape:version="1.1 (c68e22c387, 2021-05-23)"
   sodipodi:docname="bash.svg"
   xmlns:inkscape="http://www.inkscape.org/namespaces/inkscape"
   xmlns:sodipodi="http://sodipodi.sourceforge.net/DTD/sodipodi-0.dtd"
   xmlns="http://www.w3.org/2000/svg"
   xmlns:svg="http://www.w3.org/2000/svg">
  <sodipodi:namedview
     id="namedview932"
     pagecolor="#ffffff"
     bordercolor="#666666"
     borderopacity="1.0"
     inkscape:pageshadow="2"
     inkscape:pageopacity="0.0"
     inkscape:pagecheckerboard="0"
     inkscape:document-units="mm"
     showgrid="false"
     units="mm"
     width="1000mm"
     inkscape:zoom="0.16"
     inkscape:cx="1653.125"
     inkscape:cy="2728.125"
     inkscape:window-width="1920"
     inkscape:window-height="1017"
     inkscape:window-x="1912"
     inkscape:window-y="-8"
     inkscape:window-maximized="1"
     inkscape:current-layer="g3051" />
  <defs
     id="defs927" />
  <g
     inkscape:label="Calque 1"
     inkscape:groupmode="layer"
     id="layer1">
    <g
       id="g258" />
    <g
       id="g3051"
       transform="matrix(1.8566022,0,0,1.9131033,-494.58032,-476.82736)">
      <path
         style="fill:#ffffff;stroke-width:0.264583"
         d="m 530.15884,771.5441 c -3.10055,-0.5029 -9.64721,-1.81362 -11.18002,-2.23838 -4.42204,-1.22542 -12.3679,-4.49495 -12.3679,-5.08913 0,-0.13983 -0.0783,-0.17589 -0.17409,-0.0801 -0.0958,0.0958 -0.3231,0.0504 -0.50521,-0.10073 -0.18211,-0.15113 -0.99673,-0.62634 -1.81028,-1.05603 -0.81354,-0.42968 -2.16378,-1.15612 -3.00052,-1.61433 -0.83675,-0.45818 -1.99761,-1.08955 -2.57969,-1.40306 -0.58208,-0.31347 -1.53458,-0.87264 -2.11667,-1.24261 -1.98303,-1.2604 -8.23528,-4.72332 -8.52785,-4.72332 -0.16038,0 -0.33128,-0.10112 -0.37979,-0.22471 -0.0953,-0.24286 -5.2486,-3.40079 -5.98852,-3.66977 -0.24732,-0.0899 -2.80312,-1.51262 -5.67955,-3.16158 -2.87643,-1.64894 -5.29576,-2.9981 -5.37628,-2.9981 -0.0805,0 -0.66557,-0.35719 -1.30009,-0.79375 -0.63452,-0.43657 -1.22947,-0.79375 -1.3221,-0.79375 -0.0926,0 -0.54743,-0.28136 -1.01066,-0.62524 -0.94145,-0.69887 -8.10776,-4.81724 -10.76412,-6.18599 -0.94588,-0.48738 -2.49369,-1.35326 -3.43958,-1.9242 -0.94588,-0.57092 -2.07698,-1.22405 -2.51354,-1.4514 -0.43656,-0.22736 -1.1079,-0.61794 -1.49185,-0.86797 -0.38396,-0.25 -2.34849,-1.39713 -4.36563,-2.54915 -2.01713,-1.15203 -4.73908,-2.73135 -6.04877,-3.50962 -1.30969,-0.77827 -3.22566,-1.82494 -4.25772,-2.3259 -1.03206,-0.50099 -2.0289,-1.09456 -2.21521,-1.31906 -0.1863,-0.22447 -0.50275,-0.40814 -0.70322,-0.40814 -0.20046,0 -0.61107,-0.24659 -0.91246,-0.54798 -0.30139,-0.30139 -0.77466,-0.59163 -1.05172,-0.645 -0.27706,-0.0533 -0.76729,-0.34253 -1.08941,-0.64265 -0.32212,-0.30009 -0.69354,-0.54562 -0.82538,-0.54562 -0.21671,0 -1.96608,-0.98751 -12.88967,-7.2762 -1.81901,-1.0472 -4.49792,-2.589 -5.95313,-3.4262 -1.4552,-0.83722 -2.82442,-1.67685 -3.0427,-1.86587 -0.21829,-0.18899 -0.8136,-0.51559 -1.32292,-0.72577 -1.11416,-0.45977 -12.66196,-7.00178 -13.23659,-7.49872 -0.22236,-0.1923 -1.23439,-0.81267 -2.24896,-1.37858 -1.01456,-0.56592 -3.12621,-1.76337 -4.69255,-2.66097 -1.56634,-0.89763 -3.85489,-2.16755 -5.08567,-2.82207 -1.23079,-0.6545 -2.84174,-1.54612 -3.5799,-1.98136 -0.73817,-0.43524 -1.40779,-0.79135 -1.48807,-0.79135 -0.0803,0 -0.46199,-0.22336 -0.84825,-0.49635 -0.38627,-0.27303 -1.11902,-0.72303 -1.62834,-1.00002 -0.50933,-0.277 -1.58089,-0.92978 -2.38125,-1.45066 -0.80037,-0.52086 -2.70537,-1.63645 -4.23334,-2.47909 -1.52797,-0.84262 -3.5277,-1.98962 -4.44384,-2.54887 -0.91615,-0.55925 -1.95794,-1.09016 -2.31511,-1.1798 -0.35716,-0.0896 -0.64938,-0.26617 -0.64938,-0.39227 0,-0.1261 -0.53304,-0.47213 -1.18452,-0.76891 -1.10287,-0.50242 -2.78242,-1.51479 -3.48364,-2.09981 -0.1664,-0.13883 -0.37476,-0.18018 -0.46302,-0.0919 -0.0883,0.0883 -0.16049,0.0146 -0.16049,-0.16383 0,-0.17835 -0.10103,-0.26183 -0.22451,-0.18552 -0.12348,0.0763 -0.4776,-0.097 -0.78694,-0.38521 -0.30933,-0.28818 -0.83337,-0.64098 -1.16454,-0.78399 -0.33118,-0.14298 -0.78073,-0.37224 -0.99901,-0.50945 -0.21828,-0.13722 -1.64703,-0.93319 -3.175,-1.76885 -1.52797,-0.83566 -3.12068,-1.75458 -3.53936,-2.04208 -0.41868,-0.28749 -1.37118,-0.84225 -2.11666,-1.23277 -3.97072,-2.08013 -9.78373,-5.77482 -13.17544,-8.3742 -0.82569,-0.63283 -1.58053,-1.15056 -1.67741,-1.15056 -0.466,0 -6.46917,-5.9163 -8.85947,-8.73125 -1.05033,-1.23693 -2.21299,-2.51685 -2.5837,-2.84428 -0.37071,-0.32742 -0.5662,-0.59909 -0.43442,-0.60372 0.13177,-0.005 0.061,-0.15346 -0.15729,-0.33073 -0.21828,-0.17727 -0.56474,-0.64773 -0.76992,-1.04545 -0.20518,-0.39772 -0.59213,-0.95829 -0.8599,-1.24571 -0.26776,-0.28742 -0.48684,-0.64662 -0.48684,-0.79822 0,-0.15161 -0.11907,-0.27564 -0.26459,-0.27564 -0.14552,0 -0.26458,-0.11698 -0.26458,-0.25993 0,-0.14296 -0.45781,-1.00788 -1.01735,-1.92207 -1.81283,-2.96182 -4.23794,-8.33712 -5.3437,-11.84441 -0.59388,-1.88373 -1.17475,-3.48364 -1.29082,-3.55537 -0.11606,-0.0717 -0.28886,-0.79266 -0.38399,-1.60205 -0.0951,-0.80941 -0.28029,-1.67595 -0.41147,-1.92567 -0.13118,-0.24974 -0.51662,-1.82327 -0.85653,-3.49676 l -0.61802,-3.0427 V 510.5797 405.40782 l 0.60812,-2.77813 c 0.33447,-1.52797 0.70681,-2.96147 0.82743,-3.18555 0.12061,-0.22409 0.3074,-1.05753 0.41509,-1.85209 0.10768,-0.79456 0.34543,-1.74231 0.52833,-2.10611 0.18289,-0.3638 0.87871,-2.27035 1.54626,-4.23677 2.27015,-6.6873 6.41393,-13.98913 10.88397,-19.17885 2.21071,-2.56663 6.67887,-7.24172 7.33329,-7.67292 0.22086,-0.14552 1.40134,-1.07403 2.62329,-2.06336 2.41162,-1.95252 6.95698,-5.11874 8.43765,-5.87753 0.50835,-0.2605 1.31201,-0.78303 1.78591,-1.16117 0.47391,-0.37814 0.95096,-0.68882 1.06011,-0.6904 0.10916,-0.002 0.92842,-0.44806 1.82058,-0.99219 0.89216,-0.54412 1.70415,-0.98931 1.80441,-0.98931 0.10027,0 0.68001,-0.33849 1.28831,-0.75219 1.04461,-0.71044 4.59777,-2.67149 6.92684,-3.82303 0.58208,-0.2878 1.55603,-0.86439 2.16434,-1.28132 0.6083,-0.41692 1.21492,-0.75804 1.34804,-0.75804 0.13312,0 0.9957,-0.48712 1.91684,-1.08248 0.92115,-0.59537 1.92187,-1.18962 2.22384,-1.32057 0.30196,-0.13095 0.84668,-0.46057 1.21048,-0.73248 1.01178,-0.75622 13.35798,-7.71239 13.68838,-7.71239 0.15974,0 0.33013,-0.0893 0.37863,-0.19844 0.0485,-0.10914 0.74304,-0.54555 1.54341,-0.9698 0.80036,-0.42425 1.75286,-1.00061 2.11666,-1.2808 0.3638,-0.2802 1.01865,-0.67668 1.45521,-0.88108 0.43656,-0.2044 1.21047,-0.62142 1.71979,-0.92671 0.50933,-0.30529 2.29526,-1.33497 3.96875,-2.28818 3.94001,-2.2442 13.16262,-7.61367 16.40417,-9.55062 0.50932,-0.30434 1.64042,-0.91727 2.51354,-1.36207 1.46594,-0.7468 3.35824,-1.81698 5.29866,-2.99665 0.43272,-0.26307 1.97738,-1.16078 3.43259,-1.99491 2.75833,-1.58108 3.02963,-1.7396 6.56708,-3.83708 2.37905,-1.41062 4.56401,-2.62728 6.79438,-3.78335 0.80036,-0.41485 1.49489,-0.84357 1.5434,-0.95271 0.0485,-0.10914 0.20385,-0.19843 0.34522,-0.19843 0.14136,0 1.88761,-0.96146 3.88055,-2.13658 1.99295,-1.17511 4.04026,-2.38218 4.54958,-2.68236 0.50932,-0.30019 1.69995,-0.99154 2.64583,-1.53634 0.94589,-0.5448 3.62479,-2.10178 5.95313,-3.45995 2.32833,-1.35818 5.16095,-2.91992 6.2947,-3.47055 1.13376,-0.55062 2.24362,-1.1501 2.46636,-1.33216 0.22274,-0.18206 0.61427,-0.50962 0.87007,-0.7279 0.25579,-0.21828 1.46693,-0.92668 2.69142,-1.57423 1.22449,-0.64754 4.48924,-2.4819 7.25502,-4.07635 2.76577,-1.59444 5.92164,-3.39224 7.01305,-3.9951 1.09141,-0.60285 3.175,-1.8147 4.63021,-2.69299 1.45521,-0.87828 3.30068,-1.94396 4.10104,-2.36817 0.80037,-0.42421 1.51474,-0.83324 1.5875,-0.90896 0.0728,-0.0757 0.42995,-0.28411 0.79375,-0.46308 1.28205,-0.63069 4.53475,-2.49029 10.98021,-6.27747 2.03729,-1.19706 4.61641,-2.69901 5.73138,-3.33766 1.11497,-0.63866 2.42466,-1.39149 2.91042,-1.67295 0.80718,-0.4677 2.02464,-1.10147 8.29153,-4.3163 5.70031,-2.92418 11.50029,-5.03402 15.48001,-5.6311 1.09037,-0.16359 2.69687,-0.49646 3.56999,-0.7397 1.32149,-0.36816 2.91755,-0.44231 9.525,-0.44254 7.92455,-2.7e-4 7.94442,0.001 12.18053,0.86505 3.98122,0.81193 12.14101,3.35401 12.96737,4.03982 0.19867,0.16488 0.48549,0.22298 0.63739,0.1291 0.15189,-0.0939 0.27617,-0.0446 0.27617,0.10952 0,0.1541 0.16867,0.28019 0.37483,0.28019 0.20615,0 0.41451,0.0957 0.46302,0.21272 0.0485,0.11699 1.57647,0.94287 3.39548,1.83527 1.81901,0.89241 3.60495,1.7984 3.96875,2.01331 4.30803,2.54493 9.01139,5.21872 9.53299,5.41933 0.35941,0.13825 1.27299,0.67918 2.03015,1.20207 0.75719,0.5229 1.53109,0.98234 1.71979,1.02099 0.18873,0.0387 0.40265,0.13867 0.47541,0.22227 0.17713,0.20352 4.77554,2.89071 4.94667,2.89071 0.11615,0 2.20959,1.17909 9.7377,5.48461 0.87313,0.49936 1.76609,1.05952 1.98438,1.24481 0.21828,0.18528 0.75406,0.51533 1.19062,0.73343 0.43656,0.21811 2.23705,1.23248 4.00108,2.25415 1.76403,1.02167 3.96669,2.2568 4.89479,2.74472 0.92811,0.48793 1.747,0.9497 1.81976,1.02615 0.0728,0.0765 0.48948,0.31246 0.92604,0.52444 0.43656,0.21198 3.65125,2.0725 7.14375,4.13449 3.4925,2.06199 7.00484,4.07483 7.80521,4.47297 0.80036,0.39814 1.6338,0.87714 1.85208,1.06445 0.21828,0.18731 2.18281,1.32398 4.36562,2.52593 5.24172,2.88632 5.11271,2.81299 6.4823,3.68441 0.65484,0.41665 1.905,1.14112 2.77812,1.60993 0.87313,0.46881 2.83766,1.59066 4.36563,2.49301 1.52796,0.90234 4.445,2.56928 6.48229,3.70429 2.03729,1.13502 4.22007,2.41782 4.8506,2.85066 1.13655,0.78018 3.71449,2.26217 6.2619,3.59978 0.7276,0.38206 1.38244,0.76038 1.45521,0.84072 0.0728,0.0804 0.6019,0.36479 1.17586,0.63211 0.57393,0.26731 2.1001,1.12669 3.39145,1.90974 1.29135,0.78304 3.02443,1.78156 3.85125,2.21892 0.82682,0.43737 1.81462,1.00054 2.19509,1.25148 1.46045,0.96322 9.80194,5.78549 11.73678,6.78511 0.58584,0.30268 1.12472,0.60985 1.19748,0.68261 0.0728,0.0728 0.60254,0.35005 1.17724,0.6162 0.57473,0.26614 1.65862,0.89122 2.40866,1.38906 0.75001,0.49784 1.46169,0.90516 1.58149,0.90516 0.11981,0 0.82188,0.4008 1.56012,0.89066 0.73827,0.48987 2.59244,1.57961 4.12041,2.42166 1.52797,0.84204 3.62775,2.04858 4.66619,2.68121 1.03844,0.63262 1.9695,1.15022 2.06899,1.15022 0.0995,0 0.67863,0.33766 1.28693,0.75035 0.60831,0.4127 1.4632,0.93702 1.89976,1.16516 3.45409,1.80502 5.6773,3.08679 6.15114,3.54632 0.18164,0.17618 0.80672,0.53054 1.38906,0.78746 0.58233,0.25692 1.05876,0.55037 1.05876,0.65211 0,0.10174 0.29766,0.25969 0.66146,0.351 0.3638,0.0913 0.66146,0.28281 0.66146,0.42555 0,0.14275 0.12247,0.25955 0.2722,0.25955 0.40614,0 10.70605,5.78264 15.01749,8.4312 3.04241,1.869 4.77972,2.98645 5.74468,3.69502 0.58209,0.42743 1.56435,1.03146 2.18281,1.34229 0.61847,0.31084 1.12448,0.6818 1.12448,0.82436 0,0.14257 0.13558,0.25921 0.30129,0.25921 0.41417,0 3.64344,2.67042 4.97133,4.11101 0.59854,0.64936 1.18348,1.18066 1.29985,1.18066 0.11633,0 0.56038,0.44341 0.98673,0.98536 0.42635,0.54195 1.32779,1.52421 2.00319,2.18281 1.40983,1.37473 4.93861,5.93459 5.27772,6.81985 0.12542,0.32742 0.35005,0.59531 0.49917,0.59531 0.14914,0 0.27114,0.11785 0.27114,0.26188 0,0.14403 0.50996,1.06677 1.13321,2.05052 1.72342,2.72019 4.79086,9.10425 5.98128,12.44842 1.18673,3.33381 1.92323,6.46384 2.72132,11.56522 0.52231,3.33861 0.54364,4.9557 0.72636,55.08535 0.10353,28.40517 0.10369,75.07767 0,103.71668 l -0.18788,52.0709 -0.67758,4.36562 c -1.14363,7.36862 -3.00788,13.13961 -5.89753,18.25626 -0.20545,0.3638 -0.80537,1.55442 -1.3331,2.64583 -1.56351,3.23339 -5.71807,9.09849 -8.98438,12.68349 -2.48716,2.72986 -7.41677,7.03736 -10.3297,9.02618 -1.48085,1.01103 -2.75987,1.83825 -2.84226,1.83825 -0.0824,0 -0.45795,0.26789 -0.8345,0.59531 -0.37658,0.32742 -0.77293,0.59531 -0.8808,0.59531 -0.1079,0 -0.40452,0.20836 -0.65918,0.46302 -0.25466,0.25466 -0.6331,0.46302 -0.84098,0.46302 -0.20788,0 -0.37798,0.11317 -0.37798,0.25146 0,0.13827 -0.59532,0.52454 -1.32292,0.85834 -0.7276,0.3338 -1.32292,0.69688 -1.32292,0.80687 0,0.11002 -0.13628,0.2 -0.30286,0.2 -0.31565,0 -9.64139,5.24341 -12.07154,6.78722 -0.76682,0.48713 -1.49759,0.8857 -1.62396,0.8857 -0.12636,0 -0.8682,0.44024 -1.64851,0.97832 -1.63936,1.13046 -4.94694,3.01884 -7.23958,4.13329 -0.87313,0.42442 -1.64704,0.84691 -1.7198,0.93888 -0.14314,0.18092 -0.70344,0.50911 -2.76844,1.62158 -1.47775,0.79613 -5.51227,3.12123 -7.15343,4.12255 -0.58208,0.35518 -1.87304,1.09111 -2.86877,1.63547 -0.99576,0.54433 -2.59752,1.49571 -3.55947,2.11418 -0.96197,0.61846 -1.85221,1.12448 -1.97834,1.12448 -0.12613,0 -0.72702,0.3403 -1.33533,0.75623 -0.6083,0.41592 -1.87991,1.12366 -2.8258,1.57274 -0.94588,0.4491 -2.4937,1.29836 -3.43958,1.88722 -0.94589,0.58888 -2.10675,1.25195 -2.57969,1.47351 -0.47294,0.22154 -0.8599,0.52028 -0.8599,0.66384 0,0.14357 -0.14165,0.26104 -0.31482,0.26104 -0.17315,0 -1.15541,0.49768 -2.18282,1.10593 -5.0696,3.00144 -14.08535,8.15449 -14.26704,8.15449 -0.0928,0 -0.41111,0.24246 -0.70747,0.53882 -0.29634,0.29634 -0.64336,0.47419 -0.77116,0.39521 -0.12776,-0.079 -0.27225,-0.0516 -0.32107,0.0608 -0.12861,0.29617 -3.76666,2.44477 -4.13954,2.44477 -0.17317,0 -0.31483,0.10099 -0.31483,0.22439 0,0.12343 -0.50601,0.44829 -1.12447,0.72195 -0.61847,0.27363 -3.20808,1.70323 -5.75469,3.17688 -2.54662,1.47365 -5.04693,2.893 -5.55625,3.15412 -0.50932,0.26109 -1.69995,0.97105 -2.64583,1.57768 -2.06177,1.32229 -7.76666,4.57597 -9.79271,5.58509 -0.79865,0.39778 -2.09423,1.13091 -2.87904,1.6292 -0.78483,0.49827 -1.6778,1.01489 -1.98437,1.14808 -0.3066,0.13317 -1.29924,0.68927 -2.20591,1.23579 -0.90668,0.54655 -4.12136,2.41237 -7.14375,4.14631 -3.02239,1.73392 -6.04147,3.4901 -6.70904,3.90261 -0.6676,0.41248 -1.27741,0.74999 -1.35515,0.74999 -0.28098,0 -5.37202,2.9665 -5.53013,3.22236 -0.0892,0.14433 -0.20841,0.23196 -0.2649,0.19473 -0.0565,-0.0372 -0.58335,0.23577 -1.17084,0.60661 -0.58745,0.37087 -1.77808,1.05302 -2.64583,1.51593 -0.86773,0.46289 -2.35162,1.30723 -3.2975,1.87627 -0.94589,0.56906 -2.13651,1.22856 -2.64583,1.4656 -0.50933,0.23702 -1.28323,0.70001 -1.7198,1.02884 -0.43656,0.32885 -1.41702,0.91355 -2.17879,1.29934 -0.76179,0.38576 -2.39686,1.29905 -3.63355,2.02948 -1.23666,0.73047 -2.28877,1.29493 -2.33801,1.25437 -0.0492,-0.0406 -0.29898,0.1357 -0.55497,0.39171 -0.25601,0.25599 -0.57494,0.3978 -0.70871,0.31512 -0.1338,-0.0827 -0.24326,-0.0356 -0.24326,0.10459 0,0.27149 -1.86608,1.39793 -4.89479,2.95471 -1.01864,0.52361 -3.39989,1.8546 -5.29167,2.95778 -8.40366,4.90058 -12.28574,6.82127 -17.06562,8.44338 -6.00649,2.03838 -11.25613,3.10594 -16.80104,3.41667 -4.27678,0.23966 -9.23485,0.27792 -10.45104,0.0806 z m 13.29531,-10.1744 c 0.97131,-0.24471 0.99219,-0.27628 0.99219,-1.50042 v -1.25045 l -1.78594,-0.83402 c -2.23167,-1.04219 -4.59831,-3.1664 -6.33503,-5.68608 -1.96516,-2.85112 -2.82791,-4.74181 -3.78228,-8.28882 l -0.85428,-3.175 -0.24494,-35.05729 c -0.31155,-44.59057 -0.12463,-165.55056 0.26136,-169.12424 0.1526,-1.41298 0.45279,-3.08541 0.66706,-3.71655 0.21428,-0.63113 0.52813,-1.91587 0.69745,-2.85493 0.58465,-3.2426 3.37623,-8.91773 6.69648,-13.61366 3.41935,-4.83607 10.87191,-11.54576 18.1188,-16.31271 1.84929,-1.21646 3.68137,-2.38952 4.07126,-2.60681 0.3899,-0.21729 2.03957,-1.19874 3.66593,-2.181 1.62637,-0.98227 3.06353,-1.78594 3.19371,-1.78594 0.13017,0 0.23667,-0.11906 0.23667,-0.26458 0,-0.14552 0.14882,-0.26642 0.33073,-0.26866 0.1819,-0.002 2.05713,-1.05078 4.16718,-2.3301 11.9897,-7.2693 16.94344,-10.22798 18.12396,-10.82478 0.72761,-0.36783 1.38245,-0.74246 1.45521,-0.83252 0.0728,-0.09 0.57878,-0.39084 1.12448,-0.66842 0.5457,-0.27758 0.99219,-0.61169 0.99219,-0.74248 0,-0.13079 0.56554,-0.48614 1.25677,-0.78966 0.69122,-0.30353 1.3163,-0.64196 1.38906,-0.75207 0.0728,-0.11011 0.84667,-0.58976 1.71979,-1.06587 0.87313,-0.47612 3.11229,-1.79787 4.97594,-2.93723 1.86365,-1.13935 3.4829,-2.07155 3.59833,-2.07155 0.11544,0 0.70295,-0.35719 1.30562,-0.79375 0.60266,-0.43656 1.17416,-0.79375 1.27002,-0.79375 0.0959,0 1.07919,-0.57925 2.18512,-1.28723 2.77185,-1.77442 9.24777,-5.65896 10.21289,-6.12614 0.43656,-0.21133 1.0914,-0.5787 1.45521,-0.81639 0.3638,-0.23769 2.38786,-1.47025 4.49791,-2.73902 2.11005,-1.26876 4.6699,-2.81303 5.68854,-3.43171 1.01865,-0.61867 2.38787,-1.44354 3.04271,-1.83305 0.65485,-0.38951 1.36922,-0.81963 1.5875,-0.95581 2.41663,-1.50774 7.14095,-4.21459 7.60677,-4.35838 0.32742,-0.10107 0.59532,-0.2948 0.59532,-0.43052 0,-0.13571 0.17859,-0.24675 0.39687,-0.24675 0.21828,0 0.39688,-0.10616 0.39688,-0.2359 0,-0.12975 0.27027,-0.30373 0.60057,-0.38663 0.33031,-0.0829 0.85342,-0.3863 1.16248,-0.67421 0.30903,-0.28791 0.63127,-0.45408 0.71609,-0.36925 0.0848,0.0848 0.22905,-0.0407 0.32046,-0.279 0.0914,-0.23827 0.27284,-0.36735 0.40312,-0.28683 0.13028,0.0805 0.23686,0.0309 0.23686,-0.11021 0,-0.14113 0.56555,-0.52713 1.25677,-0.85778 0.69122,-0.33065 1.67349,-0.86168 2.18281,-1.18006 0.50932,-0.31838 2.53339,-1.52897 4.49792,-2.69019 1.96453,-1.16122 4.25077,-2.54582 5.08053,-3.07687 0.82973,-0.53107 1.60525,-0.96557 1.72331,-0.96557 0.11808,0 0.83346,-0.41672 1.58977,-0.92604 0.75632,-0.50932 1.4804,-0.92604 1.60912,-0.92604 0.12869,0 0.46082,-0.2508 0.73803,-0.55732 0.27723,-0.30653 0.98028,-0.79941 1.56236,-1.09529 0.58209,-0.29587 2.2152,-1.2357 3.62913,-2.08851 1.41396,-0.8528 2.63015,-1.55055 2.70267,-1.55055 0.0725,0 1.83269,-1.0279 3.91149,-2.28422 2.07881,-1.25632 4.13682,-2.46618 4.57338,-2.68858 0.43656,-0.2224 1.27,-0.72462 1.85208,-1.11604 1.49342,-1.00423 7.65469,-4.70483 9.39271,-5.64144 0.80037,-0.43132 1.69333,-0.98585 1.98438,-1.2323 0.29104,-0.24645 1.33283,-0.84429 2.3151,-1.32854 0.98227,-0.48425 1.78594,-0.96628 1.78594,-1.07119 0,-0.10491 0.29765,-0.26545 0.66146,-0.35676 0.3638,-0.0913 0.66145,-0.28983 0.66145,-0.44117 0,-0.15134 0.11907,-0.20157 0.26459,-0.11164 0.14552,0.0899 0.26458,0.0374 0.26458,-0.11667 0,-0.15411 0.13758,-0.2802 0.30575,-0.2802 0.16817,0 0.73351,-0.32742 1.25632,-0.7276 0.52279,-0.40019 1.42701,-0.9799 2.00933,-1.28826 1.74868,-0.92596 4.97835,-2.83895 5.86544,-3.47424 0.45723,-0.32743 0.91356,-0.59532 1.01407,-0.59532 0.10054,0 1.27278,-0.67166 2.60501,-1.49259 1.3322,-0.82092 3.13658,-1.91265 4.00971,-2.42605 0.87312,-0.51341 1.94468,-1.19828 2.38125,-1.52195 1.30421,-0.96694 6.44519,-3.42732 8.99583,-4.30523 4.91257,-1.69088 9.50452,-2.06845 13.07999,-1.07548 3.25287,0.90337 4.89855,1.91691 7.77426,4.78794 2.58421,2.58004 2.6049,2.59378 3.9026,2.59378 h 1.30461 l -0.0116,-2.18281 c -0.006,-1.20055 -0.17265,-2.59953 -0.36944,-3.10886 -0.19683,-0.50932 -0.72462,-1.93807 -1.1729,-3.175 -2.98349,-8.23241 -9.88957,-17.7826 -16.82528,-23.26718 -1.79414,-1.41875 -5.84065,-4.27434 -7.33081,-5.17328 -2.03327,-1.22659 -8.4351,-4.89704 -8.54117,-4.89704 -0.0739,0 -0.78576,-0.41672 -1.58194,-0.92604 -0.79622,-0.50932 -1.5748,-0.92604 -1.73019,-0.92604 -0.15542,0 -0.78621,-0.32061 -1.40179,-0.71245 -0.61556,-0.39185 -1.89312,-1.14567 -2.83901,-1.67517 -2.6493,-1.48304 -3.60347,-2.03833 -4.68871,-2.7287 -0.54991,-0.34982 -2.16069,-1.30629 -3.57952,-2.12549 -1.41883,-0.81919 -3.68101,-2.12943 -5.02708,-2.91164 -5.11241,-2.97086 -6.74161,-3.86947 -7.0154,-3.86947 -0.1555,0 -0.32237,-0.0893 -0.37089,-0.19844 -0.0485,-0.10914 -0.62397,-0.48721 -1.27882,-0.84016 -0.65484,-0.35295 -1.25015,-0.71051 -1.32291,-0.79458 -0.27723,-0.3203 -2.89293,-1.82944 -3.48306,-2.00954 -0.33988,-0.10374 -0.79658,-0.33926 -1.01486,-0.52337 -0.21828,-0.18412 -0.93265,-0.60063 -1.5875,-0.92558 -0.65484,-0.32495 -1.36922,-0.74107 -1.5875,-0.92471 -0.4355,-0.3664 -6.11939,-3.5912 -9.26042,-5.25398 -1.0914,-0.57776 -2.3301,-1.33665 -2.75269,-1.6864 -0.42257,-0.34976 -1.61319,-1.06061 -2.64584,-1.57966 -1.03261,-0.51906 -2.37453,-1.28476 -2.98196,-1.70156 -0.60745,-0.4168 -1.42819,-0.88089 -1.82382,-1.03131 -0.39566,-0.15043 -2.72899,-1.43083 -5.18517,-2.84533 -2.45621,-1.41451 -4.70054,-2.70147 -4.9874,-2.85991 -0.28686,-0.15844 -0.73073,-0.46629 -0.98639,-0.6841 -0.25567,-0.21781 -0.9411,-0.6317 -1.52318,-0.91975 -0.58209,-0.28804 -3.04454,-1.67078 -5.47214,-3.07274 -2.42758,-1.40197 -4.68977,-2.70392 -5.02709,-2.89323 -0.33729,-0.1893 -0.6728,-0.40372 -0.74556,-0.47648 -0.0728,-0.0728 -1.14949,-0.63631 -2.39274,-1.25234 -1.24325,-0.61602 -2.5182,-1.36016 -2.83321,-1.65364 -0.31501,-0.29349 -0.69681,-0.53361 -0.84841,-0.53361 -0.15161,0 -0.27564,-0.11906 -0.27564,-0.26458 0,-0.14552 -0.0893,-0.23535 -0.19844,-0.19961 -0.17923,0.0587 -6.2593,-3.31538 -10.66538,-5.91863 -0.95465,-0.56403 -1.81187,-1.02551 -1.90498,-1.02551 -0.0931,0 -0.69852,-0.35719 -1.34538,-0.79375 -0.64685,-0.43656 -1.27791,-0.79503 -1.40231,-0.79661 -0.12444,-0.002 -0.98693,-0.53414 -1.91665,-1.1835 -0.92974,-0.64935 -1.79294,-1.11729 -1.91822,-1.03986 -0.12531,0.0774 -0.22781,-0.005 -0.22781,-0.18351 0,-0.17837 -0.0696,-0.2547 -0.15465,-0.16965 -0.0851,0.0851 -0.3819,-0.0399 -0.65966,-0.27773 -0.55763,-0.47747 -3.57619,-2.19213 -4.97073,-2.82357 -0.80991,-0.36673 -2.53865,-1.36086 -7.841,-4.50912 -1.01865,-0.60482 -2.62599,-1.54521 -3.57188,-2.08977 -1.68333,-0.96911 -3.22551,-1.88048 -6.28385,-3.71351 -0.83675,-0.5015 -2.1762,-1.23574 -2.97656,-1.63163 -0.80037,-0.39589 -1.51474,-0.78924 -1.5875,-0.87411 -0.0728,-0.0849 -0.78714,-0.49864 -1.5875,-0.91949 -2.67058,-1.40424 -8.04791,-4.46424 -9.92188,-5.64608 -1.88896,-1.1913 -11.94236,-6.9502 -12.13305,-6.9502 -0.0578,0 -2.1278,-1.06576 -4.60012,-2.36835 -8.7155,-4.59196 -15.06174,-6.10387 -25.57997,-6.09413 -7.97929,0.007 -13.72043,0.79213 -18.27644,2.49813 -1.01865,0.38143 -2.5912,0.93018 -3.49455,1.21945 -0.90336,0.28926 -1.7149,0.64312 -1.80341,0.78634 -0.0885,0.14323 -0.89723,0.60525 -1.79712,1.02671 -0.89989,0.42146 -2.41008,1.21255 -3.35596,1.75799 -1.77295,1.02234 -3.20574,1.81289 -5.95313,3.28465 -0.87312,0.46773 -2.24234,1.24129 -3.04271,1.71902 -0.80036,0.47774 -2.76489,1.60738 -4.36562,2.51032 -1.60073,0.90294 -3.86292,2.21923 -5.02708,2.92509 -1.16417,0.70586 -2.53339,1.50736 -3.04271,1.78113 -0.50933,0.27376 -2.47386,1.3968 -4.36563,2.49564 -1.89177,1.09884 -3.91583,2.21523 -4.49791,2.48086 -0.58209,0.26563 -1.42676,0.75775 -1.87706,1.0936 -0.4503,0.33585 -0.90637,0.61064 -1.0135,0.61064 -0.10712,0 -0.81026,0.4002 -1.56252,0.88935 -0.75227,0.48914 -1.78448,1.11422 -2.2938,1.38906 -0.50932,0.27484 -0.98557,0.57365 -1.05833,0.66402 -0.0728,0.0904 -0.84667,0.52694 -1.71979,0.97014 -0.87313,0.44321 -3.13532,1.69949 -5.02709,2.79174 -1.89177,1.09224 -4.66101,2.67974 -6.15388,3.52777 -1.49286,0.84803 -3.51692,2.05664 -4.49791,2.6858 -0.98099,0.62916 -2.73612,1.63567 -3.90029,2.23667 -1.16417,0.60101 -2.1762,1.1578 -2.24896,1.23733 -0.0728,0.0795 -1.02526,0.61116 -2.11667,1.18143 -1.0914,0.57028 -2.75828,1.51445 -3.70416,2.09818 -0.94589,0.58372 -2.20102,1.30776 -2.78918,1.60897 -0.58817,0.30122 -1.42212,0.78579 -1.85322,1.07683 -1.09274,0.73771 -1.39945,0.91921 -5.27948,3.12407 -1.89177,1.07502 -4.19516,2.38947 -5.11864,2.92099 -0.92349,0.53152 -1.78669,0.9664 -1.91823,0.9664 -0.13154,0 -0.23917,0.11906 -0.23917,0.26458 0,0.14552 -0.22962,0.26459 -0.51027,0.26459 -0.28064,0 -0.68886,0.17859 -0.90714,0.39687 -0.21828,0.21828 -0.45507,0.39688 -0.5262,0.39688 -0.0711,0 -1.0619,0.55296 -2.20171,1.2288 -1.9019,1.12772 -2.54039,1.49701 -4.35124,2.51663 -0.34736,0.19558 -0.81016,0.48999 -1.02844,0.65424 -0.21828,0.16425 -1.34937,0.80377 -2.51354,1.42116 -1.16417,0.61739 -2.29526,1.2731 -2.51354,1.45714 -0.21828,0.18404 -0.99219,0.65148 -1.71979,1.03875 -2.16972,1.15484 -2.84434,1.5426 -4.23334,2.43327 -0.7276,0.46656 -1.91823,1.12594 -2.64583,1.46529 -0.7276,0.33936 -1.38245,0.67654 -1.45521,0.7493 -0.0728,0.0728 -0.81648,0.48948 -1.65272,0.92604 -0.83623,0.43656 -1.52084,0.8896 -1.52135,1.00675 -5.3e-4,0.11715 -0.62601,0.50394 -1.38999,0.85953 -1.45398,0.67675 -1.59503,0.75623 -3.83239,2.15972 -0.76174,0.47783 -1.43938,0.86879 -1.50586,0.86879 -0.0665,0 -2.10864,1.1311 -4.53813,2.51355 -2.42948,1.38244 -4.46705,2.51354 -4.52792,2.51354 -0.0609,0 -0.84828,0.5009 -1.7498,1.11311 -0.90152,0.61221 -1.63913,1.06707 -1.63913,1.0108 0,-0.0563 -0.47625,0.1973 -1.05833,0.56348 -2.69038,1.69247 -5.70363,3.43133 -6.58235,3.79848 -0.53101,0.22187 -1.73374,0.87364 -2.67275,1.44837 -0.939,0.57474 -2.45543,1.4226 -3.36984,1.88414 -0.91441,0.46154 -2.02616,1.11644 -2.47055,1.45533 -0.4444,0.33889 -1.21831,0.80412 -1.7198,1.03384 -0.50149,0.22973 -1.74523,0.93791 -2.76388,1.57373 -1.90702,1.19034 -6.85819,4.03251 -8.73125,5.0121 -0.58208,0.30442 -1.09802,0.64279 -1.14653,0.75193 -0.0485,0.10914 -0.23373,0.19844 -0.41161,0.19844 -0.4166,0 -5.17954,2.8006 -9.46821,5.56729 -4.47218,2.88509 -6.99321,4.94024 -10.27198,8.37373 -6.38702,6.68841 -9.50253,11.84168 -12.60632,20.85169 -0.5013,1.45521 -1.0751,3.00302 -1.27512,3.43958 -0.61191,1.33554 -0.95349,3.90625 -1.20603,9.07656 -0.33191,6.7953 -0.32666,197.74493 0.006,205.18004 0.28938,6.47489 0.5807,8.74549 1.33426,10.39966 0.28478,0.62513 0.51778,1.35745 0.51778,1.62735 0,0.26993 0.10166,0.60388 0.22592,0.74213 0.12426,0.13824 0.61704,1.44198 1.09506,2.89719 1.71929,5.23385 4.69196,10.55261 8.35502,14.94896 2.13789,2.56587 7.73439,8.03814 9.77087,9.55397 2.17245,1.61705 6.63299,4.53001 8.01979,5.23732 0.62734,0.31999 1.79909,1.00298 2.60389,1.51781 0.8048,0.51482 1.83934,1.11114 2.29896,1.32516 0.45963,0.21403 1.07382,0.5311 1.36486,0.70462 0.29104,0.17351 1.80909,1.00629 3.37344,1.85062 1.56435,0.84432 2.84427,1.65473 2.84427,1.80092 0,0.14621 0.11906,0.19222 0.26458,0.10228 0.14552,-0.0899 0.26458,-0.0374 0.26458,0.11669 0,0.15409 0.0893,0.2558 0.19844,0.226 0.10914,-0.0298 0.85328,0.37063 1.65365,0.88985 0.80036,0.51922 2.10078,1.27037 2.88981,1.66923 0.78903,0.39883 2.03919,1.11165 2.77812,1.58398 0.73894,0.47236 2.65321,1.57771 4.25394,2.45634 1.60073,0.87863 3.50573,1.92556 4.23334,2.32648 0.7276,0.40092 1.63895,0.95007 2.02522,1.22031 0.38626,0.27022 0.81453,0.49133 0.9517,0.49133 0.13717,0 0.53337,0.2463 0.88046,0.54732 0.96588,0.8377 3.56919,2.3631 4.03296,2.3631 0.22704,0 0.47872,0.10665 0.5593,0.23704 0.0806,0.13036 0.83174,0.5969 1.66926,1.03674 1.39302,0.73158 6.26931,3.51219 9.85714,5.62084 6.42067,3.77362 12.25308,7.12869 12.39575,7.13065 0.0946,0 1.48127,0.77521 3.08154,1.71979 1.60028,0.94459 3.01779,1.71744 3.15003,1.71744 0.13224,0 0.60886,0.27892 1.05916,0.61987 0.4503,0.34091 1.35451,0.9221 2.00935,1.29153 0.65484,0.36944 3.39328,1.94866 6.08542,3.50938 5.91241,3.42763 6.92899,4.00633 8.46666,4.81971 0.65485,0.34639 1.78594,0.98086 2.51355,1.40994 0.7276,0.42907 1.82936,1.04066 2.44836,1.35911 0.619,0.31842 1.35816,0.79578 1.64258,1.06077 0.28443,0.26498 0.61141,0.4872 0.72664,0.49384 0.11522,0.007 1.59745,0.81034 3.29383,1.78594 8.24832,4.74379 10.35429,5.94138 11.39674,6.48097 0.62114,0.32152 1.20256,0.68463 1.29204,0.80692 0.0895,0.12232 0.40929,0.36044 0.71069,0.52917 0.30139,0.16875 1.24021,0.71845 2.08626,1.22155 0.84605,0.50311 2.49077,1.40108 3.65494,1.99549 1.16417,0.59441 2.65245,1.41219 3.30729,1.81724 0.65484,0.40508 3.33375,1.95768 5.95313,3.45027 2.61937,1.4926 5.86801,3.3886 7.21919,4.21333 1.35119,0.82476 2.5434,1.49956 2.64937,1.49956 0.10596,0 0.80682,0.41359 1.55745,0.91911 0.75063,0.50548 1.94003,1.19009 2.6431,1.52135 1.32855,0.62592 8.20892,4.47045 9.32027,5.20785 0.34936,0.2318 0.94467,0.61195 1.32291,0.84476 1.20832,0.74374 11.49014,6.65739 12.72625,7.31956 2.85029,1.52694 4.13968,2.29418 4.69635,2.79453 0.32742,0.2943 0.5991,0.42503 0.60373,0.29052 0.005,-0.13452 0.1651,-0.0382 0.35662,0.21399 0.19151,0.25218 0.57468,0.4971 0.85148,0.54428 0.58435,0.0996 4.54767,1.98604 5.13348,2.44345 1.10192,0.8604 8.23444,3.06861 12.43542,3.84998 3.7039,0.68889 15.34607,0.82587 17.79323,0.20936 z m 56.79551,-76.07541 c 1.10448,-0.54904 2.48438,-1.29982 3.06647,-1.66838 0.58208,-0.36859 1.49463,-0.89181 2.0279,-1.16266 1.47642,-0.74999 3.06988,-2.41795 3.38135,-3.53952 0.16158,-0.58182 0.27696,-4.06826 0.27781,-8.39509 l 0.003,-7.4 1.38002,-1.3974 c 0.75903,-0.76854 1.48375,-1.39737 1.61054,-1.39737 0.43659,0 5.47611,-5.36816 5.47611,-5.83324 0,-0.1387 0.091,-0.25218 0.20233,-0.25218 0.29337,0 3.14208,-4.00142 4.61073,-6.47639 4.7203,-7.95472 6.92581,-15.1824 7.26819,-23.8184 0.26717,-6.73896 -0.55669,-12.36692 -2.40496,-16.4288 -1.17684,-2.58633 -5.139,-5.99559 -8.68212,-7.47059 -2.02242,-0.84193 -5.44346,-1.50405 -9.30473,-1.80086 -1.25003,-0.0961 -2.27277,-0.25831 -2.27277,-0.36055 0,-0.10221 -1.45852,-0.26702 -3.24115,-0.36621 -5.50852,-0.30652 -7.25823,-0.73567 -9.5323,-2.33807 -0.90792,-0.63971 -2.00239,-2.74399 -2.20708,-4.24333 -0.2109,-1.54501 0.74301,-5.40912 1.92741,-7.80751 1.72821,-3.49959 5.66902,-7.15452 9.8356,-9.12204 4.50101,-2.12548 5.44229,-2.34336 11.4196,-2.64338 4.34176,-0.21793 5.52196,-0.35771 5.91513,-0.70067 0.68022,-0.5933 1.36575,-2.00869 1.87733,-3.87596 0.23801,-0.86873 0.54438,-1.78268 0.68079,-2.03099 0.13642,-0.24831 0.32608,-0.96269 0.42143,-1.5875 0.0954,-0.62481 0.27046,-1.2604 0.38913,-1.4124 0.44907,-0.57528 1.34614,-5.36644 1.38808,-7.41384 0.0404,-1.97217 -0.0135,-2.20927 -0.71147,-3.1274 l -0.7552,-0.99343 -5.5948,0.0929 c -5.01607,0.0833 -5.8062,0.15891 -7.63844,0.73097 -1.124,0.35094 -2.13603,0.54575 -2.24895,0.43291 -0.11293,-0.11282 -0.27731,-3.08256 -0.36532,-6.5994 -0.20203,-8.07312 -0.38996,-8.6179 -2.97902,-8.63483 -1.07384,-0.007 -1.60321,0.18872 -3.1972,1.18221 -1.05066,0.65484 -2.04912,1.19062 -2.21879,1.19062 -0.16971,0 -0.30853,0.11906 -0.30853,0.26458 0,0.14553 -0.1501,0.26459 -0.33356,0.26459 -0.82532,0 -5.22269,3.33713 -5.22269,3.96348 0,0.12764 -0.20836,0.44024 -0.46302,0.69469 -0.41638,0.41603 -0.47083,1.25101 -0.54052,8.28712 l -0.0775,7.8245 -3.78077,3.83646 c -4.3961,4.46085 -5.96458,6.37455 -8.74805,10.6735 -3.17587,4.90501 -4.97591,9.31701 -6.38524,15.65053 l -0.94155,4.23135 0.0955,5.95511 c 0.0939,5.85623 0.10956,5.99845 0.94178,8.56229 1.16893,3.60129 1.97914,4.96176 4.14311,6.95695 2.77429,2.55791 5.66886,3.88879 9.9654,4.5819 1.83549,0.29609 3.68692,0.53837 4.11427,0.53837 0.42736,0 0.89011,0.10872 1.02836,0.24162 0.13824,0.1329 2.45975,0.36782 5.1589,0.52207 5.89941,0.33711 7.58452,0.83519 9.86721,2.91645 2.49505,2.27487 2.95061,7.94216 0.99631,12.39481 -1.03804,2.36508 -2.30415,4.46947 -3.26384,5.42475 -0.40331,0.40145 -0.73327,0.83066 -0.73327,0.9538 0,0.21698 -2.12151,2.268 -3.45826,3.34338 -0.36177,0.29104 -1.19018,0.81476 -1.84089,1.16379 -0.65075,0.34904 -1.37631,0.80024 -1.61243,1.00267 -0.40478,0.34703 -0.96472,0.58505 -4.87293,2.07145 -0.87892,0.33427 -2.18861,0.68725 -2.91042,0.78438 -0.72178,0.0971 -1.49096,0.23604 -1.70924,0.30872 -0.71305,0.23738 -5.02525,0.23132 -5.10466,-0.007 -0.0426,-0.12784 -1.23261,-0.29286 -2.64456,-0.36671 l -2.56717,-0.1343 -1.15255,1.16049 c -1.23156,1.23999 -2.0414,3.03665 -2.72944,6.05525 -0.21559,0.94589 -0.6304,2.67229 -0.92179,3.83646 -0.84709,3.38445 -0.98692,4.35115 -1.00364,6.93851 -0.0156,2.40435 -0.005,2.44624 0.71533,2.81866 3.06033,1.58256 8.48172,1.80658 14.19114,0.58643 1.87708,-0.40117 3.71218,-0.84318 4.07799,-0.98227 0.39661,-0.15079 0.76171,-0.15626 0.90443,-0.0135 0.13163,0.13163 0.34404,3.10864 0.47204,6.61556 0.13616,3.73113 0.35547,6.60561 0.52864,6.92917 0.74157,1.38565 3.31975,1.31183 6.32298,-0.18105 z"
         id="path3055" />
      <path
         style="fill:#50a927;stroke-width:0.264583"
         d="m 651.56433,666.88231 c -0.45069,-0.8346 -0.65175,-10.28126 -0.25033,-11.76007 0.16582,-0.61082 0.64839,-1.45746 1.07236,-1.88145 0.424,-0.42397 2.8321,-1.93808 5.35136,-3.36466 2.51928,-1.42658 5.09976,-2.90163 5.73439,-3.27792 0.63466,-0.37626 1.46809,-0.84632 1.85208,-1.04455 0.38402,-0.1982 1.11491,-0.62611 1.62423,-0.95086 0.50932,-0.32477 1.81901,-1.10469 2.91042,-1.73318 1.0914,-0.62849 2.52015,-1.46312 3.175,-1.85475 0.65484,-0.39164 4.5839,-2.65126 8.73124,-5.0214 4.14735,-2.37014 8.255,-4.75281 9.12813,-5.29487 6.40842,-3.9784 6.48229,-3.93533 6.48229,3.77812 0,5.75813 -0.0597,6.03279 -1.63108,7.49739 -0.48535,0.45241 -2.4898,1.74996 -4.45434,2.88343 -1.96453,1.1335 -4.29455,2.51952 -5.17781,3.08007 -0.88329,0.56055 -1.69527,1.01918 -1.80441,1.01918 -0.10916,0 -0.71763,0.35718 -1.35215,0.79375 -0.63452,0.43656 -1.23333,0.79375 -1.3307,0.79375 -0.21579,0 -2.60228,1.42054 -5.85824,3.48705 -1.33453,0.84701 -2.51685,1.54003 -2.62739,1.54003 -0.11052,0 -0.92361,0.45778 -1.8069,1.01727 -3.61897,2.29243 -18.64203,10.88898 -19.02923,10.88898 -0.2296,0 -0.56213,-0.26789 -0.73892,-0.59531 z"
         id="path3053" />
    </g>
  </g>
</svg>
