<?xml version="1.0" encoding="UTF-8" standalone="no"?>
<!-- Created with Inkscape (http://www.inkscape.org/) -->

<svg
   width="510.2662mm"
   height="497.72894mm"
   viewBox="0 0 510.2662 497.72894"
   version="1.1"
   id="svg7445"
   inkscape:version="1.1 (c68e22c387, 2021-05-23)"
   sodipodi:docname="basic_white.svg"
   xmlns:inkscape="http://www.inkscape.org/namespaces/inkscape"
   xmlns:sodipodi="http://sodipodi.sourceforge.net/DTD/sodipodi-0.dtd"
   xmlns="http://www.w3.org/2000/svg"
   xmlns:svg="http://www.w3.org/2000/svg">
  <sodipodi:namedview
     id="namedview7447"
     pagecolor="#ffffff"
     bordercolor="#666666"
     borderopacity="1.0"
     inkscape:pageshadow="2"
     inkscape:pageopacity="0.0"
     inkscape:pagecheckerboard="0"
     inkscape:document-units="mm"
     showgrid="false"
     fit-margin-top="0"
     fit-margin-left="0"
     fit-margin-right="0"
     fit-margin-bottom="0"
     inkscape:zoom="0.23716796"
     inkscape:cx="674.62738"
     inkscape:cy="434.29138"
     inkscape:window-width="1920"
     inkscape:window-height="1106"
     inkscape:window-x="-11"
     inkscape:window-y="-11"
     inkscape:window-maximized="1"
     inkscape:current-layer="layer1" />
  <defs
     id="defs7442" />
  <g
     inkscape:label="Calque 1"
     inkscape:groupmode="layer"
     id="layer1"
     transform="translate(175.97155,27.592489)">
    <path
       style="fill:#ffffff;stroke-width:0.581239"
       d="m -175.9517,208.3254 v -45.91789 h 39.23364 39.233652 v 6.37459 6.3746 l 6.538934,0.16435 6.538942,0.16434 v 13.07789 13.07787 l -6.538942,0.16435 -6.538934,0.16435 v 6.37458 6.3746 h 6.684244 6.684252 v 13.0157 c 0,11.78142 -0.09496,13.05213 -1.001358,13.39995 -0.550748,0.21135 -3.493268,0.33356 -6.538942,0.2716 l -5.537583,-0.11267 -0.164345,6.47484 -0.164345,6.47485 h -39.214605 -39.21461 z m 65.09878,19.47152 v -13.07789 h -19.47151 -19.47151 v 13.07789 13.07787 h 19.47151 19.47151 z m -0.13439,-39.66958 -0.15623,-13.22319 h -19.18089 -19.18088 l -0.15623,13.22319 -0.15621,13.22319 h 19.49332 19.49334 z m 39.658661,32.98533 v -33.13064 h 6.374597 6.374597 l 0.164345,-6.53894 0.164344,-6.53894 6.538942,-0.16435 6.538942,-0.16434 v -6.08397 -6.08398 h 19.762128 19.7621348 v 6.10302 6.103 H 0.74501233 7.1386393 v 6.66521 6.66522 l 6.5389417,0.16435 6.53894,0.16434 v 32.84002 32.84 H 7.1386393 -5.9392396 L -6.0956735,241.0201 -6.2520993,228.08753 H -25.712491 -45.172882 v 13.07789 13.07788 H -58.250766 -71.328649 Z M -6.22986,201.66082 V 188.6026 l -6.248321,-0.16497 -6.248322,-0.16498 -0.29062,-6.68425 -0.29062,-6.68425 h -6.103011 -6.103011 l -0.290622,6.68425 -0.29062,6.68425 -6.538933,0.16435 -6.538942,0.16434 v 13.05885 13.05884 h 19.471508 19.471514 z m 52.699018,52.19498 c -0.213124,-0.21311 -0.38717,-3.15565 -0.386769,-6.53894 l 5.82e-4,-6.15144 h -6.249048 -6.249047 l -0.164346,-6.53895 -0.164345,-6.53894 h 13.096916 13.096916 v 6.39363 6.39363 H 78.921533 98.393044 V 227.8029 214.731 l -26.010307,-0.1513 -26.010454,-0.15128 -0.164974,-6.24833 -0.164973,-6.24832 h -6.373967 -6.373968 v -13.36849 -13.36851 h 6.393631 6.393631 v -6.39363 -6.39363 h 32.840016 32.840001 v 6.37459 6.3746 l 6.53895,0.16435 6.53894,0.16434 v 6.39363 6.39363 H 111.76168 98.683807 l -0.290623,-6.68425 -0.290613,-6.68425 H 78.921679 59.740784 l -0.156205,13.21719 -0.156213,13.21721 26.021351,0.1513 26.021353,0.1513 0.29061,6.39363 0.29063,6.39364 6.53893,0.16434 6.53894,0.16434 v 12.99667 c 0,11.7634 -0.095,13.03312 -1.00135,13.38091 -0.55075,0.21135 -3.49328,0.33356 -6.53894,0.2716 l -5.53758,-0.11267 -0.16436,6.47484 -0.16434,6.47485 H 79.290133 c -17.83841,0 -32.607858,-0.17438 -32.820975,-0.3875 z m 104.487192,-0.37633 c -0.16294,-0.42462 -0.22083,-3.36897 -0.12864,-6.54304 l 0.16762,-5.77101 12.93737,-0.15645 12.93736,-0.15644 -0.15011,-32.97419 -0.1501,-32.97419 -12.93256,-0.15643 -12.93258,-0.15643 v -6.09188 -6.0919 h 39.52426 39.52426 v 6.0919 6.09188 l -12.93257,0.15643 -12.93257,0.15643 -0.15011,32.97419 -0.1501,32.97419 12.93736,0.15644 12.93737,0.15645 v 6.39362 6.39363 l -39.10499,0.14941 c -32.08054,0.12257 -39.15823,0.0107 -39.40127,-0.62261 z m 117.61363,-5.71102 -0.16435,-6.47484 -5.53758,0.11267 c -3.04566,0.062 -5.98819,-0.0603 -6.53893,-0.2716 -0.86658,-0.33253 -1.00137,-1.27562 -1.00137,-7.00632 v -6.62206 h -6.39362 -6.39363 v -19.76214 -19.76213 h 6.37396 6.37396 l 0.16498,-6.24832 0.16497,-6.24832 6.53894,-0.16434 6.53894,-0.16435 v -6.3746 -6.37459 h 26.15577 26.15576 v 6.37459 6.3746 l 6.53894,0.16435 6.53894,0.16434 v 6.39363 6.39363 H 321.00778 307.9299 l -0.29062,-6.68425 -0.29062,-6.68425 h -12.49664 -12.49664 l -0.29062,6.68425 -0.29062,6.68425 -6.53895,0.16435 -6.53894,0.16434 v 19.72406 19.72406 l 6.53894,0.16434 6.53895,0.16436 0.16497,6.24831 0.16497,6.24832 h 12.74794 12.74793 l 0.16497,-6.24832 0.16498,-6.24831 h 13.07788 13.07788 l 0.16672,6.05547 c 0.12242,4.44643 -0.032,6.18627 -0.58124,6.54772 -0.41137,0.27074 -3.36353,0.45298 -6.56034,0.405 l -5.8124,-0.0873 -0.16434,6.47212 -0.16435,6.4721 h -26.11769 -26.11769 z"
       id="path8871" />
  </g>
</svg>
