<?xml version="1.0" encoding="UTF-8" standalone="no"?>
<!-- Created with Inkscape (http://www.inkscape.org/) -->

<svg
   width="300mm"
   height="300mm"
   viewBox="0 0 300 300"
   version="1.1"
   id="svg5"
   inkscape:version="1.1 (c68e22c387, 2021-05-23)"
   sodipodi:docname="beta.svg"
   xmlns:inkscape="http://www.inkscape.org/namespaces/inkscape"
   xmlns:sodipodi="http://sodipodi.sourceforge.net/DTD/sodipodi-0.dtd"
   xmlns="http://www.w3.org/2000/svg"
   xmlns:svg="http://www.w3.org/2000/svg">
  <sodipodi:namedview
     id="namedview7"
     pagecolor="#ffffff"
     bordercolor="#666666"
     borderopacity="1.0"
     inkscape:pageshadow="2"
     inkscape:pageopacity="0.0"
     inkscape:pagecheckerboard="0"
     inkscape:document-units="mm"
     showgrid="false"
     inkscape:zoom="0.47433592"
     inkscape:cx="672.51917"
     inkscape:cy="790.57897"
     inkscape:window-width="1920"
     inkscape:window-height="1106"
     inkscape:window-x="-11"
     inkscape:window-y="-11"
     inkscape:window-maximized="1"
     inkscape:current-layer="layer1" />
  <defs
     id="defs2" />
  <g
     inkscape:label="Calque 1"
     inkscape:groupmode="layer"
     id="layer1">
    <path
       style="fill:#800000;stroke-width:0.385883"
       d="M 86.912193,211.1015 C 86.163436,170.8091 85.744757,70.897162 86.227579,62.867804 c 0.932858,-15.513355 1.854209,-20.15762 5.581163,-28.133088 4.6571,-9.965897 13.171238,-18.964632 23.449648,-24.7843264 3.76404,-2.1312077 10.13814,-5.0677809 11.44094,-5.2708855 0.36134,-0.056297 0.83063,-0.2106595 1.04287,-0.3429561 1.13508,-0.7075848 10.86506,-2.8767911 13.31296,-2.9680175 0.31837,-0.011668 2.53511,-0.189191 4.92612,-0.3940896 5.43479,-0.46569978 13.95592,0.0212935 19.26891,1.1011202 17.34015,3.5244479 33.04452,14.7280579 42.21225,30.1145129 5.10482,8.567572 8.05068,17.87375 8.85592,27.976552 1.49704,18.782223 -5.65665,37.874966 -19.01815,50.758254 l -2.21627,2.13696 2.33751,2.3007 c 8.66616,8.52966 15.11337,20.28573 17.66259,32.20665 1.86468,8.71979 1.93484,17.12078 0.21534,25.79019 -2.65993,13.41107 -8.66326,24.47261 -18.35957,33.82879 -4.67179,4.5079 -4.9423,4.73178 -8.99982,7.44903 -6.09989,4.08498 -14.48179,7.69228 -21.22357,9.13397 -1.6979,0.36307 -3.78167,0.84092 -4.6306,1.06189 -0.92586,0.24096 -9.5126,0.47227 -21.4574,0.578 l -19.91386,0.17627 -0.27117,5.84987 c -0.14915,3.21742 -0.50334,42.85597 -0.77874,67.97526 -30.017792,-0.0788 -0.28762,0 -32.894029,-0.2225 z m 72.437147,-19.16064 c 9.54952,-2.11114 17.63678,-8.7859 21.73481,-17.93866 2.0578,-4.59599 2.58401,-7.17495 2.59826,-12.73415 0.0147,-5.76137 -0.57105,-8.50126 -2.90446,-13.58405 -3.80386,-8.28583 -10.85019,-14.25668 -20.24955,-17.15889 -2.4529,-0.75736 -3.84856,-0.84962 -16.00029,-1.05756 -7.32212,-0.12528 -15.47785,-0.14103 -18.12383,-0.0348 l -4.81088,0.19294 c -0.71114,22.48117 -0.39235,41.09134 -0.68294,63.09192 l 17.50061,-0.009 c 15.97045,-0.007 17.80116,-0.0748 20.93826,-0.76833 z M 170.62171,90.779849 c 5.80954,-4.000766 10.06323,-10.110372 12.17931,-17.493196 1.28144,-4.470825 1.26969,-12.18873 -0.0252,-16.592977 -1.74483,-5.934402 -4.65026,-10.645085 -9.08721,-14.73346 -6.36195,-5.86215 -14.7859,-9.032426 -22.48107,-8.460521 -15.33398,1.139594 -27.34843,9.527907 -29.07514,20.299834 -0.29724,1.854326 -0.53013,10.076185 -0.64818,22.884191 l -0.18426,19.990043 c 12.43765,-0.08036 24.87529,-0.160619 37.31294,-0.240937 4.43922,-1.408956 9.13969,-3.68724 12.00884,-5.652977 z"
       id="path1829"
       sodipodi:nodetypes="cssssscscssscsssssssscsccccssssscccccccssssssccc" />
  </g>
</svg>
