<?xml version="1.0" encoding="UTF-8" standalone="no"?>
<!-- Created with Inkscape (http://www.inkscape.org/) -->

<svg
   width="279.66458mm"
   height="279.66876mm"
   viewBox="0 0 279.66458 279.66876"
   version="1.1"
   id="svg5371"
   inkscape:version="1.1 (c68e22c387, 2021-05-23)"
   sodipodi:docname="bqn.svg"
   xmlns:inkscape="http://www.inkscape.org/namespaces/inkscape"
   xmlns:sodipodi="http://sodipodi.sourceforge.net/DTD/sodipodi-0.dtd"
   xmlns="http://www.w3.org/2000/svg"
   xmlns:svg="http://www.w3.org/2000/svg">
  <sodipodi:namedview
     id="namedview5373"
     pagecolor="#ffffff"
     bordercolor="#666666"
     borderopacity="1.0"
     inkscape:pageshadow="2"
     inkscape:pageopacity="0.0"
     inkscape:pagecheckerboard="0"
     inkscape:document-units="mm"
     showgrid="false"
     fit-margin-top="0"
     fit-margin-left="0"
     fit-margin-right="0"
     fit-margin-bottom="0"
     inkscape:zoom="0.67081229"
     inkscape:cx="471.81604"
     inkscape:cy="696.91627"
     inkscape:window-width="1920"
     inkscape:window-height="1017"
     inkscape:window-x="1912"
     inkscape:window-y="-8"
     inkscape:window-maximized="1"
     inkscape:current-layer="layer1" />
  <defs
     id="defs5368" />
  <g
     inkscape:label="Calque 1"
     inkscape:groupmode="layer"
     id="layer1"
     transform="translate(20.190042,-27.2999)">
    <path
       style="fill:#2b7067;stroke-width:0.264583;fill-opacity:1"
       d="m 205.37579,268.8436 -33.85736,-33.85814 5.95382,-6.0278 c 3.2746,-3.31529 6.88506,-7.1961 8.02325,-8.62402 11.60664,-14.56117 17.96875,-31.82127 18.59697,-50.45275 1.09368,-32.43511 -16.91574,-62.95685 -45.86137,-77.724272 -8.7206,-4.44905 -16.76202,-7.03235 -26.68259,-8.57175 -4.44866,-0.6903 -14.80326,-0.95633 -19.63414,-0.50444 -7.83921,0.73331 -16.34642,2.75404 -23.261538,5.52536 l -1.356088,0.54347 -4.278873,-10.33343 c -2.353379,-5.68338 -4.243454,-10.36241 -4.200163,-10.39784 0.271082,-0.22189 4.359021,-1.72252 7.619336,-2.79696 6.75998,-2.22778 14.637596,-3.92451 22.224996,-4.78697 4.69687,-0.53389 17.98292,-0.45901 22.75417,0.12824 21.28176,2.61938 40.00842,10.5275 56.09167,23.68704 3.49313,2.85812 9.93299,9.13373 12.94378,12.61362 28.33607,32.751122 34.13282,79.036042 14.77767,117.993982 -2.3411,4.71214 -5.9584,10.65183 -8.94285,14.68437 -1.45393,1.96453 -2.8411,3.84941 -3.08261,4.18861 -0.43798,0.61518 -0.39588,0.65995 16.67101,17.72683 l 17.11009,17.1101 V 152.74887 36.530888 h 11.24479 11.24479 V 169.61631 302.70173 H 249.35384 239.23316 Z M -20.190042,165.11839 V 32.032968 h 10.119926 10.11992681 l 33.78843519,33.78767 33.788439,33.78766 -5.746105,5.833692 c -3.160358,3.20853 -6.793825,7.14338 -8.074374,8.74411 -10.598029,13.2479 -16.866516,28.78095 -18.451183,45.72127 -0.4489,4.79881 -0.184981,14.91125 0.505429,19.36623 1.533244,9.89351 4.122515,17.96298 8.54584,26.63314 12.097814,23.71294 34.84714,40.37204 61.174238,44.79728 14.62311,2.45795 29.84713,1.02032 43.49947,-4.10774 1.53606,-0.57697 2.81983,-1.01826 2.85281,-0.98065 0.0992,0.11315 8.35389,20.12988 8.40655,20.38501 0.0725,0.35135 -4.671,2.16104 -9.47627,3.61526 -7.20609,2.18079 -13.74296,3.48528 -21.43125,4.27683 -4.07459,0.4195 -15.47187,0.42172 -19.57917,0.004 -24.972061,-2.54089 -47.235146,-12.8015 -64.657967,-29.79972 -4.429771,-4.32182 -7.538157,-7.80016 -10.691273,-11.96375 -11.82024,-15.60822 -18.821083,-33.05488 -21.264151,-52.99195 -0.661654,-5.39953 -0.661654,-18.14838 0,-23.54792 2.442554,-19.93288 9.292636,-37.13717 21.01158,-52.77155 L 36.436553,99.905888 19.434961,82.902758 C 10.084086,73.551048 2.3437298,65.899638 2.2341658,65.899638 c -0.109564,0 -0.199208,52.268442 -0.199208,116.152092 v 116.15209 h -11.1125 -11.1124998 z m 83.343752,2.11667 v -56.35625 h 56.35625 56.35626 v 21.55906 21.55907 l -6.64181,6.65606 -6.6418,6.65606 6.6418,6.64564 6.64181,6.64564 v 21.49548 21.49549 H 119.50996 63.15371 Z m 90.4269,28.45047 0.0717,-5.5485 -5.75798,-5.76244 -5.75798,-5.76245 H 113.88982 85.643294 v 11.37809 11.37808 l 33.932816,-0.0671 33.93281,-0.0672 z m -5.69629,-45.3154 5.7569,-5.75243 v -5.62466 -5.62465 H 119.64226 85.643294 v 11.37709 11.37708 h 28.242066 28.24207 z"
       id="path5462" />
  </g>
</svg>
