<?xml version="1.0" encoding="UTF-8" standalone="no"?>
<!-- Created with Inkscape (http://www.inkscape.org/) -->

<svg
   width="300mm"
   height="300mm"
   viewBox="0 0 300 300"
   version="1.1"
   id="svg5"
   inkscape:version="1.1 (c68e22c387, 2021-05-23)"
   sodipodi:docname="brainfuck_white.svg"
   xmlns:inkscape="http://www.inkscape.org/namespaces/inkscape"
   xmlns:sodipodi="http://sodipodi.sourceforge.net/DTD/sodipodi-0.dtd"
   xmlns="http://www.w3.org/2000/svg"
   xmlns:svg="http://www.w3.org/2000/svg">
  <sodipodi:namedview
     id="namedview7"
     pagecolor="#ffffff"
     bordercolor="#666666"
     borderopacity="1.0"
     inkscape:pageshadow="2"
     inkscape:pageopacity="0.0"
     inkscape:pagecheckerboard="0"
     inkscape:document-units="mm"
     showgrid="false"
     inkscape:zoom="0.47433592"
     inkscape:cx="247.71474"
     inkscape:cy="218.19979"
     inkscape:window-width="1920"
     inkscape:window-height="1017"
     inkscape:window-x="1912"
     inkscape:window-y="-8"
     inkscape:window-maximized="1"
     inkscape:current-layer="layer1" />
  <defs
     id="defs2" />
  <g
     inkscape:label="Calque 1"
     inkscape:groupmode="layer"
     id="layer1">
    <path
       style="fill:#ffffff;stroke-width:0.839988"
       d="m 99.703798,289.66366 c -9.328729,-1.18501 -18.797979,-5.16526 -25.529387,-10.7309 -3.952985,-3.26841 -9.151934,-9.20697 -9.740548,-11.12628 -0.329379,-1.07406 -1.8381,-1.50743 -6.324103,-1.81669 -16.748128,-1.15459 -31.590584,-17.81107 -34.169107,-38.34525 -0.447709,-3.56534 -1.1318,-4.7588 -4.953101,-8.64096 -2.91945,-2.96602 -5.434321,-6.6794 -7.363795,-10.87309 -2.8244004,-6.13887 -2.9113026,-6.60897 -2.4068022,-13.0201 l 0.5233989,-6.6513 -2.8572381,-3.39734 c -7.81282083,-9.28959 -9.3737362,-24.67563 -3.8717197,-38.16381 2.8745439,-7.04697 6.0943974,-10.1771 12.8008101,-12.44402 4.101119,-1.38628 7.712472,-1.92086 12.976635,-1.92086 6.472911,0 7.715014,0.26588 11.032643,2.36088 4.403695,2.78094 8.551098,7.60851 10.217816,11.89351 0.655297,1.68479 1.22832,5.63095 1.273318,8.76932 l 0.08178,5.70602 h 10.17426 c 9.003005,0 10.607509,0.23158 13.937482,2.01111 4.803191,2.56679 9.240826,7.31742 11.716212,12.54249 2.968619,6.26618 2.844499,6.46106 -4.456228,6.99861 -11.58456,0.85293 -19.738798,6.51435 -24.554731,17.0481 -1.495702,3.27153 -1.853844,5.49473 -1.845972,11.45912 0.0061,4.07003 0.310143,9.163 0.6772,11.31776 0.643565,3.77757 0.576636,3.97468 -1.871581,5.51115 -5.756441,3.61267 -12.504115,16.15253 -9.712673,18.05008 1.769609,1.20296 2.347838,0.99072 3.1154,-1.14335 2.575766,-7.16164 3.822954,-9.53969 6.439613,-12.27847 3.93185,-4.11543 7.948027,-5.7864 13.907187,-5.7864 5.428164,0 8.246041,1.2017 13.467473,5.74329 4.621792,4.02005 4.954174,6.20991 1.944023,12.80796 -2.586884,5.67026 -3.980246,14.84867 -2.587344,17.04344 0.474113,0.74707 1.492485,1.01005 2.67593,0.69095 1.802598,-0.48599 1.910513,-0.89826 1.910513,-7.30023 0,-7.78057 1.43116,-11.76458 5.901297,-16.42812 6.050508,-6.31222 15.350311,-7.25451 24.188761,-2.45082 3.75915,2.04311 4.58283,2.22755 5.20792,1.16616 1.15468,-1.96056 1.01338,-2.14996 -3.08231,-4.13196 -9.10639,-4.4067 -15.85992,-4.51969 -23.474493,-0.39276 l -4.226136,2.29053 -3.473197,-3.75244 c -1.910273,-2.06383 -5.661428,-4.89343 -8.33595,-6.28798 -4.13031,-2.15364 -5.717233,-2.50832 -10.535923,-2.35464 l -5.673215,0.18102 -0.947829,-3.85336 c -1.276778,-5.19066 -1.248352,-14.44576 0.05636,-18.37025 3.814225,-11.47242 17.126397,-18.03863 29.032887,-14.32047 5.915847,1.84741 6.302935,1.80257 6.302935,-0.73037 0,-4.00638 3.317021,-11.68727 6.891521,-15.958 7.20367,-8.60676 19.6841,-11.90726 30.38947,-8.03664 2.89737,1.04756 6.08855,2.72436 7.09148,3.72613 l 1.82355,1.8215 -0.0153,41.85459 c -0.0154,46.01351 -0.25302,48.92261 -4.83624,59.2386 -6.77559,15.25062 -21.02366,22.7472 -38.914272,20.47466 z m 88.744972,0.30202 c -15.64555,-2.39881 -25.91834,-12.24779 -31.55624,-30.25435 -1.43328,-4.57766 -3.46153,-22.81609 -2.63593,-23.70294 0.27232,-0.29252 2.35044,1.26012 4.61815,3.45027 5.92997,5.72719 11.51484,7.81165 21.19869,7.91206 7.2148,0.075 7.96726,0.24658 9.52288,2.17333 0.92899,1.15064 1.68905,2.61862 1.68905,3.26225 0,1.57534 5.58769,8.13997 6.92858,8.13997 2.48485,0 2.00578,-3.37544 -1.17039,-8.24601 -5.11753,-7.84768 -5.90146,-16.9631 -2.1322,-24.79296 1.52845,-3.17497 1.56505,-4.39677 0.13171,-4.39677 -1.68674,0 -5.31932,9.5821 -5.90172,15.56774 l -0.51828,5.32663 h -6.74302 c -12.37837,0 -20.03375,-5.29602 -25.49006,-17.63411 l -2.40429,-5.43674 0.0484,-30.22793 c 0.0306,-18.93805 0.34797,-30.4267 0.85034,-30.76025 0.44099,-0.29284 2.29107,0.91297 4.11125,2.67943 1.82018,1.76644 6.0917,4.63903 9.49231,6.38348 l 6.18292,3.17177 h 11.46136 11.46136 l 6.38632,-3.50497 c 6.05985,-3.32581 6.55111,-3.45161 9.61052,-2.46105 1.77328,0.57419 6.97042,1.07403 11.54918,1.11084 7.49354,0.0604 8.82905,-0.18011 13.37251,-2.40496 3.1078,-1.52191 6.34913,-3.99792 8.43442,-6.44291 3.43853,-4.03166 6.74385,-10.04047 6.74385,-12.25978 0,-0.99062 1.71511,-1.16781 9.11762,-0.94222 10.35805,0.31557 13.09919,-0.41922 19.65616,-5.27028 5.01877,-3.71306 6.80369,-3.40766 10.84502,1.85556 7.76749,10.11605 8.56752,27.98419 1.75815,39.26819 -1.65324,2.73964 -3.55585,5.46535 -4.22803,6.05709 -0.96322,0.84805 -1.1441,2.52376 -0.85379,7.91087 0.41491,7.6993 -0.93122,12.17127 -5.72158,19.00747 -2.91197,4.15565 -3.82849,4.63521 -3.82849,2.00321 0,-1.1643 -0.45325,-1.69092 -1.31121,-1.52355 -0.97187,0.18961 -1.60463,-0.95987 -2.44491,-4.44138 -3.22347,-13.3556 -10.45543,-21.12762 -24.48412,-26.31236 -4.71249,-1.74166 -5.79893,-1.56266 -5.79893,0.95534 0,1.16418 1.10684,2.01475 3.93477,3.02371 8.96304,3.19799 18.92974,12.3385 22.331,20.47987 7.80409,18.6803 -1.27583,43.96636 -19.1791,53.41049 -6.91066,3.64541 -10.85954,4.43975 -10.49558,2.11127 0.15898,-1.0171 -0.28671,-1.52355 -1.34043,-1.52355 -1.5509,0 -1.54903,-0.0803 0.1069,-4.57064 1.29127,-3.5016 1.69959,-6.61752 1.74565,-13.32176 0.0577,-8.40269 -0.0597,-9.01161 -2.94943,-15.29243 -1.72094,-3.7405 -5.10182,-8.99409 -7.89595,-12.26969 l -4.88639,-5.72836 1.26753,-3.79125 c 0.69716,-2.08517 1.47934,-6.67174 1.73821,-10.19238 0.43824,-5.96073 0.36455,-6.37927 -1.07094,-6.08261 -1.29895,0.26863 -1.56456,1.1737 -1.68764,5.75175 -0.3695,13.74598 -6.30324,23.12094 -17.48134,27.61953 -2.12812,0.85645 -3.84968,2.10661 -3.84968,2.79557 0,0.89202 0.51829,1.07364 1.82352,0.63879 4.01066,-1.33613 10.8711,-5.58949 13.11892,-8.13356 1.30922,-1.4817 2.81994,-2.69406 3.35715,-2.69406 1.51643,0 9.61554,9.82145 12.34237,14.96709 2.90757,5.48667 4.40959,13.32295 3.71679,19.39144 -0.27507,2.41066 -1.77423,7.27781 -3.33116,10.81581 -5.25213,11.93501 -16.02064,21.10749 -29.72136,25.31631 -5.23936,1.6095 -15.45317,2.68549 -19.54151,2.05868 z M 92.443727,174.63602 C 87.42848,165.05043 80.258546,159.52678 69.5143,156.97142 c -3.239366,-0.77041 -2.740839,-2.38459 1.47919,-4.78941 6.54318,-3.72872 10.862639,-10.75463 10.87575,-17.69007 0.0024,-1.31682 0.186544,-2.39418 0.408776,-2.39418 0.222384,0 2.889523,1.36058 5.927122,3.02347 10.581043,5.79259 20.209792,6.99713 27.996082,3.50243 7.8962,-3.54409 17.98687,-18.71424 12.44803,-18.71424 -0.60077,0 -2.57935,2.50556 -4.39683,5.56797 -4.74855,8.00108 -9.00007,10.53809 -17.65975,10.53809 -5.8549,0 -7.130369,-0.32907 -13.152623,-3.39331 -3.66793,-1.86635 -7.285594,-4.12523 -8.039219,-5.01982 -1.290348,-1.5316 -1.279536,-1.7002 0.185319,-2.89082 0.855567,-0.69542 1.882704,-1.27683 2.282561,-1.29206 1.368492,-0.0524 7.649253,-6.11951 9.266312,-8.95151 4.47057,-7.82943 3.9955,-20.862418 -1.164335,-31.941676 l -2.75416,-5.913801 3.473207,-3.816552 c 1.910236,-2.09908 4.604148,-5.370363 5.986418,-7.26948 l 2.51323,-3.453019 3.13301,2.292608 c 5.77359,4.224839 12.29423,5.169114 19.60028,2.838431 4.48289,-1.430059 4.78089,-1.826277 3.16224,-4.204195 -0.85502,-1.256071 -1.43364,-1.36175 -3.29459,-0.601723 -5.81103,2.373292 -13.71862,0.43711 -18.47789,-4.524353 -3.03808,-3.167106 -7.15134,-10.93943 -7.16936,-13.546992 -0.006,-0.735307 -0.80679,-1.04735 -2.236672,-0.870637 -1.855768,0.229429 -2.184572,0.639706 -1.964731,2.451984 0.1452,1.197076 1.143202,4.268979 2.217753,6.826488 2.21551,5.273108 2.09684,5.796998 -2.791506,12.323788 -4.022209,5.370393 -6.304933,7.489996 -11.036656,10.248294 -3.54957,2.069183 -4.957146,2.363214 -11.346401,2.37026 -6.994747,0.0061 -7.569515,-0.143661 -14.005942,-3.692067 -3.691516,-2.034999 -6.847869,-3.7 -7.014107,-3.7 -0.166328,0 -1.397834,2.085204 -2.736826,4.633799 -2.648422,5.041049 -8.252411,11.235116 -12.89154,14.249067 -3.603542,2.341138 -12.75419,4.198558 -16.733579,3.396598 -2.894578,-0.58331 -2.944722,-0.66373 -2.944722,-4.724046 0,-11.860271 6.353294,-24.533624 15.75754,-31.432832 3.600938,-2.641684 7.218723,-4.050821 12.203223,-4.75317 1.782993,-0.251484 3.333005,-0.471631 3.444442,-0.489704 0.111498,-0.01838 0.202473,-0.829438 0.202473,-1.803027 0,-2.921595 3.946216,-10.371034 7.897915,-14.909202 5.336116,-6.128092 12.675559,-9.714909 20.062847,-9.804843 3.120239,-0.03768 6.829827,0.249033 8.243467,0.638022 2.436665,0.670338 2.681877,0.502601 4.716622,-3.227174 5.561567,-10.19429 16.88289,-17.5731248 26.75227,-17.4361718 12.34864,0.17123 20.23512,6.5151808 23.88645,19.2140498 1.58879,5.525634 1.64295,7.87972 1.64295,71.445528 0,62.262288 -0.075,65.698158 -1.4183,65.098518 -5.4553,-2.43511 -9.50698,-3.2674 -16.00654,-3.28798 -8.33944,-0.0276 -14.31811,1.95661 -20.0448,6.64867 -3.11801,2.55466 -8.820122,9.51446 -10.762187,13.13601 -0.713283,1.33014 -1.076998,1.03823 -2.792912,-2.24141 z m 86.721523,-6.005 c -6.53046,-1.46295 -12.315,-5.22149 -18.63518,-12.10838 l -6.03638,-6.5776 -0.32733,-41.90009 c -0.26986,-34.549888 -0.13508,-42.028305 0.76842,-42.630856 0.60265,-0.401884 4.92513,-0.706054 9.60553,-0.675913 6.73122,0.0435 9.46633,0.452855 13.08651,1.959401 5.71971,2.380245 11.0308,7.332611 13.867,12.930318 2.37148,4.680513 4.62506,13.675162 4.63927,18.516542 0.009,2.782228 -0.29896,3.183168 -3.53428,4.612088 -3.68067,1.6257 -10.22844,7.09396 -10.22844,8.54202 0,2.09906 2.6532,1.61717 5.40944,-0.9824 4.10848,-3.87494 7.48047,-5.20692 13.1819,-5.20692 3.42803,0 6.21934,0.64308 9.44713,2.17652 5.568,2.64514 6.49858,2.68938 7.65715,0.3639 0.73356,-1.47239 0.62485,-2.03892 -0.57933,-3.01894 -1.79258,-1.45891 -7.58835,-3.57196 -12.0183,-4.3817 -5.00178,-0.914248 -6.07841,-1.807498 -6.07841,-5.043008 0,-2.62713 -2.34379,-13.719816 -3.64351,-17.244143 -0.38666,-1.048483 0.1118,-1.829646 1.75429,-2.749048 4.52573,-2.533464 11.55907,-11.093262 14.66899,-17.852698 2.90168,-6.306857 3.02222,-6.927266 2.97737,-15.324105 -0.0306,-5.655081 -0.49233,-10.041134 -1.30625,-12.397395 -0.88852,-2.572243 -1.00605,-3.918555 -0.39902,-4.570637 2.20974,-2.373721 15.09025,-0.03063 21.29557,3.876621 4.51122,2.83935 10.14933,9.125224 12.68416,14.141395 4.40753,8.722175 6.1632,28.431352 3.10607,34.868546 -3.1543,6.641719 -11.8014,12.827094 -20.56399,14.709664 -1.76234,0.37865 -2.2352,0.9176 -2.04709,2.33335 0.32561,2.45064 3.30715,2.10246 10.02777,-1.17094 6.53605,-3.1835 11.8955,-8.54136 14.71654,-14.712123 1.94849,-4.262118 2.24534,-5.947428 2.24534,-12.746869 0,-4.309474 -0.30234,-9.108621 -0.67224,-10.664851 -0.63208,-2.660493 -0.54437,-2.829425 1.46932,-2.829425 3.57745,0 10.75201,4.390035 14.93001,9.135455 7.13641,8.105656 10.06401,16.605295 9.69286,28.141273 -0.19085,5.93108 7.8e-4,7.51285 0.94819,7.82291 2.0327,0.66543 5.71621,4.803728 7.51434,8.442138 1.39794,2.82862 1.72636,5.03506 1.74933,11.75309 0.0245,7.24065 -0.22391,8.75351 -1.99787,12.14771 -4.18563,8.00927 -13.57315,12.91106 -22.4921,11.74458 -13.49054,-1.76446 -21.53968,-8.82083 -23.76208,-20.83145 -0.715,-3.86403 -1.42522,-5.67264 -2.2276,-5.67264 -0.95387,0 -1.09686,1.08549 -0.75161,5.70564 0.5834,7.80733 4.25609,15.74543 9.09747,19.66322 1.98841,1.60907 3.62655,3.24369 3.64033,3.63243 0.0698,1.96988 -4.53087,10.61725 -7.04326,13.23832 -4.67151,4.87358 -10.55216,6.76948 -19.50298,6.28771 -5.97251,-0.32147 -7.83539,-0.74415 -9.02692,-2.04826 -1.46286,-1.6011 -1.44093,-1.75843 0.85508,-6.13186 2.39228,-4.55685 4.73151,-11.67526 4.7475,-14.44691 0.0184,-3.12143 -2.36545,-1.50008 -3.19958,2.17648 -2.49284,10.98811 -9.95196,20.74431 -18.14216,23.72912 -4.84415,1.76538 -16.33307,2.44127 -21.56697,1.26872 z M 55.889044,148.85679 c -1.405492,-4.65249 -6.012918,-11.85473 -9.313943,-14.5594 -5.708932,-4.67753 -9.840713,-6.03747 -18.191483,-5.98749 -5.473406,0.0328 -9.167955,0.562 -12.779215,1.83054 l -5.079915,1.78449 -0.9697913,-1.87244 c -0.5666811,-1.09412 -0.981737,-5.51681 -0.9985238,-10.63998 -0.027569,-8.06457 0.1663289,-9.1746 2.4026381,-13.84509 3.449772,-7.204328 5.492,-8.597808 12.313832,-8.402108 6.832523,0.19605 14.043129,-1.7749 19.003613,-5.1942 3.77863,-2.604714 9.699531,-8.925225 12.11243,-12.929986 1.272522,-2.112036 1.301591,-2.116294 4.235438,-0.620776 10.654038,5.430837 16.865907,5.840897 28.576882,1.886376 1.4182,-0.478916 2.071116,0.222691 4.18716,4.499821 5.072753,10.253285 5.511604,22.212133 1.057518,28.817123 -2.735417,4.05633 -8.05796,7.58232 -13.963209,9.25005 -2.369432,0.66917 -4.226339,1.54921 -4.12645,1.95562 0.09985,0.40642 0.722136,2.30604 1.382733,4.22132 3.370743,9.77292 -1.16041,18.56148 -11.23429,21.78997 -6.342511,2.03267 -7.481265,1.77044 -8.615424,-1.98384 z M 188.83963,68.163663 c -7.20472,-6.905701 -11.64977,-8.485976 -24.29932,-8.638613 l -10.13071,-0.12222 0.0432,-15.235426 c 0.0386,-13.597136 0.2472,-15.884598 1.93904,-21.271655 2.44108,-7.772326 8.99127,-15.4233508 14.63205,-17.0911098 16.27018,-4.81041997 32.34764,4.4916998 39.06158,22.6003238 1.43806,3.878674 1.81514,6.666195 1.83786,13.585925 0.0245,7.784946 -0.2089,9.225388 -2.21603,13.615882 -2.30731,5.047048 -9.13123,13.053949 -13.45264,15.78471 l -2.43934,1.541465 z"
       id="path5784"
       sodipodi:nodetypes="cssssssscssssssscssssscsssssssssssssssscssscscsssssccscccssscssssssscssccssscccssssssssssssssssssssssssssscssssssssssssscccsssssssssssscsscsscssssscssssscsssssssccsscssssscsssccsscssssscsssssssssssscsscssssssscssscsccsssssssssscssssscscscccssssssssssscccscsscsscc" />
  </g>
</svg>
