<?xml version="1.0" encoding="UTF-8" standalone="no"?>
<!-- Created with Inkscape (http://www.inkscape.org/) -->

<svg
   width="300mm"
   height="300mm"
   viewBox="0 0 300 300"
   version="1.1"
   id="svg5"
   inkscape:version="1.1 (c68e22c387, 2021-05-23)"
   sodipodi:docname="bulb.svg"
   xmlns:inkscape="http://www.inkscape.org/namespaces/inkscape"
   xmlns:sodipodi="http://sodipodi.sourceforge.net/DTD/sodipodi-0.dtd"
   xmlns="http://www.w3.org/2000/svg"
   xmlns:svg="http://www.w3.org/2000/svg">
  <sodipodi:namedview
     id="namedview7"
     pagecolor="#ffffff"
     bordercolor="#666666"
     borderopacity="1.0"
     inkscape:pageshadow="2"
     inkscape:pageopacity="0.0"
     inkscape:pagecheckerboard="0"
     inkscape:document-units="mm"
     showgrid="false"
     inkscape:zoom="0.67081229"
     inkscape:cx="397.27954"
     inkscape:cy="562.75057"
     inkscape:window-width="1920"
     inkscape:window-height="1017"
     inkscape:window-x="1912"
     inkscape:window-y="-8"
     inkscape:window-maximized="1"
     inkscape:current-layer="layer1" />
  <defs
     id="defs2" />
  <g
     inkscape:label="Calque 1"
     inkscape:groupmode="layer"
     id="layer1">
    <path
       style="fill:#ffffff;stroke-width:0.5877"
       d="m 132.86509,299.04918 c -3.81039,-1.35095 -9.40321,-6.65588 -9.40321,-8.91917 v -1.23539 h 27.03424 c 26.80128,0 27.03572,0.0109 27.20656,1.2041 0.23361,1.63248 -5.00079,7.03261 -8.24342,8.5044 -2.29204,1.04034 -3.89641,1.13527 -18.6693,1.10466 -9.83282,-0.02 -16.85219,-0.27828 -17.92487,-0.6586 z m -15.93946,-17.16987 c -2.49399,-1.08548 -3.74853,-3.06475 -3.74853,-5.91411 0,-2.90216 1.27202,-4.85024 3.87799,-5.93908 2.85522,-1.19298 63.99714,-1.21039 66.81193,-0.02 2.7592,1.16784 4.08902,2.94141 4.15728,5.54454 0.0749,2.85287 -1.46279,5.25614 -4.05606,6.33968 -2.87607,1.2017 -64.27917,1.19069 -67.04261,-0.0109 z m -4.33624,-20.15744 c -1.25118,-0.63067 -2.48562,-1.91446 -3.15128,-3.27723 -0.9737,-1.99349 -1.00604,-2.47232 -0.29343,-4.34465 0.44047,-1.15733 1.5472,-2.66157 2.45935,-3.34275 1.63802,-1.22326 2.10235,-1.24073 37.61248,-1.4159 23.56777,-0.11613 36.67472,0.0322 38.04611,0.4309 5.15897,1.49988 6.73091,7.06232 3.03924,10.75455 l -1.921,1.92135 -36.86726,0.15527 c -34.23914,0.14415 -37.01388,0.0813 -38.92421,-0.88154 z m 0.58771,-18.71273 c -2.75826,-1.20517 -5.72951,-4.16248 -6.40759,-6.37749 -0.30399,-0.99301 -0.72807,-4.84682 -0.94237,-8.56403 -1.2696,-22.01931 -8.030924,-36.68408 -25.167691,-54.58643 -4.58016,-4.78478 -9.890103,-10.87875 -11.799853,-13.54216 -9.337638,-13.02259 -15.375968,-27.869 -18.064926,-44.41615 -1.129274,-6.9492 -0.941913,-23.931542 0.343647,-31.148172 7.565384,-42.4694 39.873201,-75.1212912 81.767503,-82.6383408 9.87183,-1.77129918 25.30877,-1.77129918 35.18059,0 26.92702,4.8314905 51.02851,20.5826928 66.22713,43.2818638 19.9538,29.801001 22.46513,68.747159 6.4862,100.588869 -4.90722,9.77878 -10.60956,17.67764 -19.13812,26.51001 -9.27699,9.6075 -13.83216,15.59361 -17.81127,23.40641 -5.31493,10.43557 -7.68983,19.43814 -8.37512,31.74747 -0.5304,9.52685 -1.422,11.91343 -5.50915,14.74646 l -2.34331,1.62425 -36.19436,0.13305 c -31.39225,0.11553 -36.46728,0.0134 -38.25131,-0.76566 z m 69.51285,-18.02695 c 1.30906,-23.10945 11.27206,-43.65045 30.14434,-62.14938 16.60853,-16.27997 25.50884,-37.93496 25.51968,-62.091 0.02,-42.224818 -29.79891,-78.00367 -71.98992,-86.381758 -7.32916,-1.455373 -23.70524,-1.473899 -31.41496,-0.03554 -7.63058,1.423633 -16.96988,4.62354 -24.06285,8.244636 -24.371713,12.442255 -41.352499,35.050089 -46.879702,62.414559 -1.602776,7.935152 -1.466125,24.928223 0.264793,32.927943 3.967075,18.33447 11.178018,31.65444 24.778334,45.77038 11.439705,11.87337 14.856685,16.47111 20.270945,27.27562 5.34553,10.66728 9.1458,25.50106 9.1458,35.69906 v 4.34938 h 31.94115 31.94117 z M 87.905952,97.170724 c -3.023497,-1.531615 -4.162522,-4.294397 -3.485047,-8.453212 0.90453,-5.552481 3.429716,-13.475309 6.083154,-19.085941 10.561311,-22.331623 29.272461,-35.382851 55.127581,-38.45206 4.17778,-0.495913 5.50282,-0.451288 7.1603,0.241269 2.10224,0.878365 3.87503,3.460459 3.87503,5.643996 0,1.463548 -1.33876,4.205526 -2.54014,5.20257 -0.46999,0.390071 -4.32614,1.218724 -8.56917,1.841491 -14.5904,2.141401 -23.38649,6.294505 -32.38056,15.288591 -8.05998,8.059979 -12.75826,16.666924 -15.386371,28.1869 -1.688435,7.400993 -1.819352,7.741635 -3.420055,8.898637 -2.269252,1.640222 -4.182656,1.843797 -6.464722,0.687759 z"
       id="path854"
       sodipodi:nodetypes="sscscscsssscssssssssssscsssscssssssssssssccsssscsssssssscccsssssssssssss" />
  </g>
</svg>
