<?xml version="1.0" encoding="UTF-8" standalone="no"?>
<!-- Created with Inkscape (http://www.inkscape.org/) -->

<svg
   width="1000mm"
   height="1000mm"
   viewBox="0 0 1000 1000"
   version="1.1"
   id="svg930"
   inkscape:version="1.1 (c68e22c387, 2021-05-23)"
   sodipodi:docname="cpp.svg"
   xmlns:inkscape="http://www.inkscape.org/namespaces/inkscape"
   xmlns:sodipodi="http://sodipodi.sourceforge.net/DTD/sodipodi-0.dtd"
   xmlns="http://www.w3.org/2000/svg"
   xmlns:svg="http://www.w3.org/2000/svg">
  <sodipodi:namedview
     id="namedview932"
     pagecolor="#ffffff"
     bordercolor="#666666"
     borderopacity="1.0"
     inkscape:pageshadow="2"
     inkscape:pageopacity="0.0"
     inkscape:pagecheckerboard="0"
     inkscape:document-units="mm"
     showgrid="false"
     units="mm"
     width="1000mm"
     inkscape:zoom="0.16"
     inkscape:cx="1659.375"
     inkscape:cy="1884.375"
     inkscape:window-width="1920"
     inkscape:window-height="1017"
     inkscape:window-x="1912"
     inkscape:window-y="-8"
     inkscape:window-maximized="1"
     inkscape:current-layer="layer1" />
  <defs
     id="defs927" />
  <g
     inkscape:label="Calque 1"
     inkscape:groupmode="layer"
     id="layer1">
    <g
       id="g258" />
    <g
       id="g1561"
       transform="matrix(1.8217552,0,0,1.8088114,-299.27821,-402.10669)">
      <path
         style="fill:#6499d0;stroke-width:0.264583"
         d="m 430.52669,769.3268 c 0.19099,-0.0764 0.4192,-0.067 0.50712,0.0209 0.0879,0.0879 -0.0684,0.15046 -0.34727,0.13898 -0.30822,-0.0127 -0.37092,-0.0754 -0.15985,-0.15986 z m 16.66875,0 c 0.19099,-0.0764 0.4192,-0.067 0.50712,0.0209 0.0879,0.0879 -0.0684,0.15046 -0.34727,0.13898 -0.30822,-0.0127 -0.37092,-0.0754 -0.15985,-0.15986 z m -17.99167,-0.26458 c 0.191,-0.0764 0.4192,-0.067 0.50712,0.0209 0.0879,0.0879 -0.0684,0.15047 -0.34726,0.13899 -0.30823,-0.0127 -0.37092,-0.0754 -0.15986,-0.15986 z m 19.31459,0 c 0.19099,-0.0764 0.4192,-0.067 0.50711,0.0209 0.0879,0.0879 -0.0684,0.15047 -0.34726,0.13899 -0.30823,-0.0127 -0.37092,-0.0754 -0.15985,-0.15986 z M 438.44765,659.51406 c 0.47295,-0.0587 1.24685,-0.0587 1.71979,0 0.47295,0.0587 0.086,0.10671 -0.85989,0.10671 -0.94589,0 -1.33284,-0.048 -0.8599,-0.10671 z m -8.06615,-0.26305 c 0.40218,-0.0608 0.99749,-0.0592 1.32292,0.004 0.32542,0.0628 -0.004,0.11255 -0.73125,0.11057 -0.7276,-0.003 -0.99385,-0.0534 -0.59167,-0.1142 z m 16.13958,0 c 0.40218,-0.0608 0.9975,-0.0592 1.32292,0.004 0.32542,0.0628 -0.004,0.11255 -0.73124,0.11057 -0.72761,-0.003 -0.99386,-0.0534 -0.59168,-0.1142 z m -20.24118,-0.26185 c 0.32912,-0.0633 0.80537,-0.0609 1.05834,0.005 0.25296,0.0662 -0.0163,0.118 -0.5984,0.11506 -0.58208,-0.003 -0.78905,-0.0571 -0.45994,-0.12041 z m 24.47088,0.005 c 0.25466,-0.0666 0.67138,-0.0666 0.92604,0 0.25466,0.0665 0.0463,0.12099 -0.46302,0.12099 -0.50932,0 -0.71768,-0.0544 -0.46302,-0.12099 z m -27.51163,-0.26556 c 0.25743,-0.0671 0.61462,-0.0627 0.79375,0.01 0.17913,0.0725 -0.0315,0.12734 -0.46806,0.12197 -0.43656,-0.005 -0.58313,-0.0647 -0.32569,-0.13179 z m 30.69166,0 c 0.25743,-0.0671 0.61462,-0.0627 0.79375,0.01 0.17913,0.0725 -0.0315,0.12734 -0.46805,0.12197 -0.43657,-0.005 -0.58313,-0.0647 -0.3257,-0.13179 z m -33.21024,-0.25646 c 0.1819,-0.0734 0.47956,-0.0734 0.66146,0 0.1819,0.0734 0.0331,0.13345 -0.33073,0.13345 -0.3638,0 -0.51263,-0.0601 -0.33073,-0.13345 z m 35.71875,0 c 0.1819,-0.0734 0.47956,-0.0734 0.66146,0 0.1819,0.0734 0.0331,0.13345 -0.33073,0.13345 -0.3638,0 -0.51263,-0.0601 -0.33073,-0.13345 z m -37.83542,-0.26459 c 0.1819,-0.0734 0.47956,-0.0734 0.66146,0 0.1819,0.0734 0.0331,0.13346 -0.33073,0.13346 -0.3638,0 -0.51263,-0.0601 -0.33073,-0.13346 z m 40.21667,0 c 0.1819,-0.0734 0.47956,-0.0734 0.66146,0 0.1819,0.0734 0.0331,0.13346 -0.33073,0.13346 -0.3638,0 -0.51263,-0.0601 -0.33073,-0.13346 z m -42.05221,-0.27008 c 0.19099,-0.0764 0.4192,-0.067 0.50711,0.0209 0.0879,0.0879 -0.0684,0.15047 -0.34726,0.13898 -0.30823,-0.0127 -0.37092,-0.0754 -0.15985,-0.15986 z m 44.18541,0 c 0.191,-0.0764 0.4192,-0.067 0.50712,0.0209 0.0879,0.0879 -0.0684,0.15047 -0.34726,0.13898 -0.30823,-0.0127 -0.37092,-0.0754 -0.15986,-0.15986 z m -46.31862,-0.25908 c 0.1819,-0.0734 0.47956,-0.0734 0.66146,0 0.1819,0.0734 0.0331,0.13345 -0.33073,0.13345 -0.3638,0 -0.51263,-0.0601 -0.33073,-0.13345 z m 48.17071,-0.006 c 0.191,-0.0764 0.4192,-0.067 0.50712,0.0209 0.0879,0.0879 -0.0684,0.15047 -0.34726,0.13899 -0.30824,-0.0127 -0.37092,-0.0754 -0.15986,-0.15986 z m 1.5875,-0.26458 c 0.191,-0.0764 0.4192,-0.067 0.50712,0.0209 0.0879,0.0879 -0.0684,0.15047 -0.34726,0.13898 -0.30824,-0.0127 -0.37092,-0.0754 -0.15986,-0.15986 z m -52.91667,-0.26459 c 0.19099,-0.0764 0.4192,-0.067 0.50712,0.0209 0.0879,0.0879 -0.0684,0.15047 -0.34727,0.13899 -0.30822,-0.0127 -0.37092,-0.0754 -0.15985,-0.15986 z m 54.50417,0 c 0.191,-0.0764 0.4192,-0.067 0.50712,0.0209 0.0879,0.0879 -0.0684,0.15047 -0.34726,0.13899 -0.30824,-0.0127 -0.37092,-0.0754 -0.15986,-0.15986 z m 2.91041,-0.52916 c 0.191,-0.0764 0.41921,-0.067 0.50713,0.0209 0.0879,0.0879 -0.0684,0.15047 -0.34727,0.13898 -0.30824,-0.0127 -0.37092,-0.0754 -0.15986,-0.15986 z m -61.64791,-0.26459 c 0.19099,-0.0764 0.4192,-0.067 0.50711,0.0209 0.0879,0.0879 -0.0684,0.15047 -0.34726,0.13899 -0.30823,-0.0127 -0.37092,-0.0754 -0.15985,-0.15986 z m 62.97083,0 c 0.191,-0.0764 0.4192,-0.067 0.50713,0.0209 0.0879,0.0879 -0.0684,0.15047 -0.34727,0.13899 -0.30824,-0.0127 -0.37092,-0.0754 -0.15986,-0.15986 z m 1.32292,-0.26458 c 0.191,-0.0764 0.4192,-0.067 0.50712,0.0209 0.0879,0.0879 -0.0684,0.15047 -0.34726,0.13899 -0.30824,-0.0127 -0.37092,-0.0754 -0.15986,-0.15986 z m -258.20375,-10.07181 -0.64144,-0.72761 0.72761,0.64143 c 0.68005,0.59952 0.84894,0.81378 0.64143,0.81378 -0.0474,0 -0.37481,-0.32742 -0.7276,-0.7276 z m 451.1346,0.0661 c 0.34177,-0.3638 0.68094,-0.66146 0.7537,-0.66146 0.0728,0 -0.14735,0.29766 -0.48911,0.66146 -0.34177,0.3638 -0.68093,0.66146 -0.7537,0.66146 -0.0728,0 0.14735,-0.29766 0.48911,-0.66146 z m -454.57419,-3.50573 -0.64143,-0.7276 0.72761,0.64143 c 0.40018,0.35279 0.7276,0.68021 0.7276,0.7276 0,0.20751 -0.21426,0.0386 -0.81378,-0.64143 z m 458.01378,0.0661 c 0.34176,-0.3638 0.68093,-0.66146 0.75369,-0.66146 0.0728,0 -0.14735,0.29766 -0.48911,0.66146 -0.34176,0.3638 -0.68093,0.66146 -0.75369,0.66146 -0.0728,0 0.14734,-0.29766 0.48911,-0.66146 z m 1.32291,-1.55512 c 0,-0.0549 0.20836,-0.26328 0.46302,-0.46302 0.41966,-0.32909 0.429,-0.31975 0.0999,0.0999 -0.34565,0.44072 -0.56293,0.58089 -0.56293,0.36311 z m -466.70022,-9.75516 c -1.77127,-3.60008 -3.19243,-7.67395 -3.91409,-11.22005 -0.45451,-2.2334 -0.47631,-7.78272 -0.47631,-121.27071 0,-113.89189 0.0204,-119.03035 0.48073,-121.29427 2.28318,-11.228 10.12464,-23.34684 18.66451,-28.84569 2.8625,-1.84317 200.25355,-115.74934 202.70789,-116.97429 10.14903,-5.06535 25.70427,-5.40247 36.47922,-0.7906 2.27151,0.97225 201.7942,116.02278 205.08536,118.25812 2.38387,1.61912 6.72004,5.8868 8.76223,8.62382 2.13368,2.85965 3.92634,5.73264 3.57698,5.73264 -0.16542,0 -21.72121,12.36588 -47.90173,27.47972 -45.38099,26.19816 -47.61843,27.45573 -47.9761,26.96545 -0.20635,-0.28285 -1.4673,-2.26695 -2.80212,-4.40913 -23.25063,-37.31337 -62.06884,-63.95931 -105.48218,-72.40598 -11.27096,-2.19292 -17.77453,-2.78437 -30.69167,-2.79119 -11.17883,-0.006 -14.58168,0.22141 -23.94479,1.5995 -41.11389,6.05128 -79.11394,28.73712 -104.38993,62.32028 -18.89145,25.10028 -29.69766,54.08271 -31.99683,85.816 -0.34535,4.76665 -0.34535,16.66459 0,21.43125 1.46354,20.19985 6.20564,38.72465 14.52804,56.75312 1.97205,4.27199 6.12013,12.1834 6.86451,13.09232 0.32903,0.40177 0.3367,0.4557 0.0328,0.23038 -0.31791,-0.23572 -9.82026,5.1504 -47.7573,27.06973 -26.04822,15.05018 -47.56151,27.47814 -47.8073,27.61768 -0.38192,0.21685 -0.67875,-0.21754 -2.04188,-2.9881 z m 133.43238,-9.26108 -0.50403,-0.59531 0.59531,0.50403 c 0.32743,0.27721 0.59532,0.5451 0.59532,0.59532 0,0.21172 -0.21294,0.0554 -0.6866,-0.50404 z m 205.47409,0.49541 c 0,-0.0549 0.20836,-0.26329 0.46303,-0.46302 0.41965,-0.32909 0.42899,-0.31975 0.0999,0.0999 -0.34565,0.44071 -0.56293,0.58089 -0.56293,0.36311 z m 1.5875,-1.32292 c 0,-0.0549 0.20836,-0.26328 0.46303,-0.46302 0.41965,-0.32909 0.42899,-0.31975 0.0999,0.0999 -0.34565,0.44072 -0.56293,0.58089 -0.56293,0.36311 z m -208.78999,-0.62769 c -0.32911,-0.41966 -0.31975,-0.429 0.0999,-0.0999 0.44073,0.34565 0.58089,0.56293 0.36313,0.56293 -0.0549,0 -0.2633,-0.20836 -0.46302,-0.46302 z m 345.07129,-0.48506 c 0.0127,-0.30824 0.0754,-0.37092 0.15986,-0.15987 0.0764,0.19101 0.067,0.41921 -0.0209,0.50713 -0.0879,0.0879 -0.15046,-0.0684 -0.13898,-0.34726 z m -134.03234,-0.90401 c 0.2634,-0.29104 0.53843,-0.52916 0.61119,-0.52916 0.0728,0 -0.0832,0.23812 -0.3466,0.52916 -0.2634,0.29105 -0.53843,0.52917 -0.61119,0.52917 -0.0728,0 0.0832,-0.23812 0.3466,-0.52917 z m -213.1419,-0.46302 -0.64143,-0.7276 0.7276,0.64143 c 0.68006,0.59952 0.84894,0.81378 0.64144,0.81378 -0.0474,0 -0.37482,-0.32742 -0.72761,-0.72761 z m 347.45972,-0.0661 c 0,-0.3638 0.0601,-0.51263 0.13346,-0.33073 0.0734,0.1819 0.0734,0.47956 0,0.66146 -0.0734,0.1819 -0.13346,0.0331 -0.13346,-0.33073 z m -131.27511,-2.24896 c 0.49366,-0.50932 0.95708,-0.92604 1.02984,-0.92604 0.0728,0 -0.2716,0.41672 -0.76526,0.92604 -0.49366,0.50932 -0.95707,0.92604 -1.02983,0.92604 -0.0728,0 0.27159,-0.41672 0.76525,-0.92604 z m 131.5593,-0.13229 c 0,-0.50933 0.0544,-0.71768 0.12099,-0.46302 0.0666,0.25466 0.0666,0.67138 0,0.92604 -0.0665,0.25466 -0.12099,0.0463 -0.12099,-0.46302 z m -351.04362,-0.59531 -1.04589,-1.12448 1.12448,1.04587 c 0.61847,0.57525 1.12448,1.08127 1.12448,1.12448 0,0.20018 -0.23041,-1.1e-4 -1.20307,-1.04587 z m -6.87917,-6.87917 -1.04588,-1.12448 1.12448,1.04587 c 0.61846,0.57526 1.12448,1.08127 1.12448,1.12448 0,0.20018 -0.23042,-1.1e-4 -1.20308,-1.04587 z m 235.09474,-1.12448 c 0.49366,-0.50932 0.95708,-0.92604 1.02984,-0.92604 0.0728,0 -0.2716,0.41672 -0.76526,0.92604 -0.49366,0.50932 -0.95707,0.92604 -1.02983,0.92604 -0.0728,0 0.27159,-0.41672 0.76525,-0.92604 z m -238.14502,-2.18281 -0.64144,-0.72761 0.72761,0.64143 c 0.68005,0.59952 0.84894,0.81378 0.64143,0.81378 -0.0474,0 -0.37481,-0.32742 -0.7276,-0.7276 z m 240.65856,-0.59532 c 0.2634,-0.29104 0.53843,-0.52916 0.61119,-0.52916 0.0728,0 -0.0832,0.23812 -0.3466,0.52916 -0.2634,0.29105 -0.53843,0.52917 -0.61119,0.52917 -0.0728,0 0.0832,-0.23812 0.3466,-0.52917 z m -242.52437,-1.5211 c -0.32911,-0.41965 -0.31975,-0.42899 0.0999,-0.0999 0.44072,0.34566 0.58088,0.56293 0.36312,0.56293 -0.0549,0 -0.2633,-0.20836 -0.46302,-0.46302 z m 243.97958,-0.16605 c 0,-0.0549 0.20836,-0.26329 0.46302,-0.46302 0.41966,-0.32909 0.429,-0.31975 0.0999,0.0999 -0.34565,0.44072 -0.56293,0.5809 -0.56293,0.36312 z m -245.42618,-1.55374 -0.50403,-0.59531 0.59532,0.50403 c 0.55944,0.47365 0.71576,0.68659 0.50403,0.68659 -0.0502,0 -0.3181,-0.26789 -0.59532,-0.59531 z m 246.7491,-0.0338 c 0,-0.0549 0.20836,-0.26329 0.46302,-0.46302 0.41965,-0.32909 0.42899,-0.31975 0.0999,0.0999 -0.34565,0.44072 -0.56292,0.5809 -0.56292,0.36312 z m -247.94833,-1.42145 c -0.32911,-0.41965 -0.31975,-0.42899 0.0999,-0.0999 0.25466,0.19974 0.46302,0.4081 0.46302,0.46302 0,0.21778 -0.21727,0.0776 -0.56291,-0.36311 z m 249.27124,-0.16605 c 0,-0.0549 0.20836,-0.26329 0.46302,-0.46302 0.41966,-0.32909 0.429,-0.31975 0.0999,0.0999 -0.34565,0.44072 -0.56293,0.5809 -0.56293,0.36312 z m 1.05834,-1.32292 c 0,-0.0549 0.20836,-0.26329 0.46302,-0.46302 0.41965,-0.32909 0.42899,-0.31975 0.0999,0.0999 -0.34565,0.44071 -0.56292,0.58089 -0.56292,0.36311 z m 1.85208,-2.38125 c 0,-0.0549 0.20836,-0.26329 0.46302,-0.46302 0.41966,-0.32909 0.429,-0.31975 0.0999,0.0999 -0.34565,0.44071 -0.56293,0.58089 -0.56293,0.36311 z m -256.15041,-1.15686 c -0.32911,-0.41966 -0.31975,-0.429 0.0999,-0.0999 0.44073,0.34565 0.58089,0.56293 0.36313,0.56293 -0.0549,0 -0.2633,-0.20836 -0.46302,-0.46302 z m 126.58282,-16.13802 c 1.13443,-0.0497 2.92037,-0.0494 3.96875,0 1.04837,0.0501 0.1202,0.0908 -2.06262,0.0904 -2.18281,0 -3.04057,-0.0413 -1.90613,-0.0911 z m -5.29873,-0.25107 c 0.25743,-0.0671 0.61462,-0.0627 0.79375,0.01 0.17913,0.0725 -0.0315,0.12735 -0.46805,0.12198 -0.43657,-0.005 -0.58313,-0.0647 -0.3257,-0.13179 z m 13.7533,0 c 0.25466,-0.0666 0.67138,-0.0666 0.92604,0 0.25466,0.0666 0.0463,0.121 -0.46302,0.121 -0.50932,0 -0.71768,-0.0544 -0.46302,-0.121 z m -16.27187,-0.25744 c 0.1819,-0.0734 0.47955,-0.0734 0.66145,0 0.18191,0.0734 0.0331,0.13346 -0.33072,0.13346 -0.36381,0 -0.51264,-0.0601 -0.33073,-0.13346 z m 19.05,0 c 0.1819,-0.0734 0.47955,-0.0734 0.66145,0 0.18191,0.0734 0.0331,0.13346 -0.33073,0.13346 -0.3638,0 -0.51263,-0.0601 -0.33072,-0.13346 z m -20.88555,-0.27008 c 0.19099,-0.0764 0.4192,-0.067 0.50712,0.0209 0.0879,0.0879 -0.0684,0.15047 -0.34727,0.13898 -0.30822,-0.0127 -0.37092,-0.0754 -0.15985,-0.15986 z m 23.01875,0 c 0.19099,-0.0764 0.4192,-0.067 0.50712,0.0209 0.0879,0.0879 -0.0684,0.15047 -0.34727,0.13898 -0.30822,-0.0127 -0.37092,-0.0754 -0.15985,-0.15986 z m 1.5875,-0.26459 c 0.19099,-0.0764 0.4192,-0.067 0.50712,0.0209 0.0879,0.0879 -0.0684,0.15046 -0.34727,0.13898 -0.30822,-0.0127 -0.37092,-0.0754 -0.15985,-0.15986 z m 123.72673,-0.23074 c -0.49318,-0.39513 -0.48993,-0.4 0.0817,-0.12298 0.32742,0.15867 0.59531,0.34383 0.59531,0.41148 0,0.20246 -0.13721,0.14399 -0.67704,-0.2885 z m -120.81631,-0.29842 c 0.19099,-0.0764 0.4192,-0.067 0.50711,0.0209 0.0879,0.0879 -0.0684,0.15047 -0.34726,0.13898 -0.30823,-0.0127 -0.37092,-0.0754 -0.15985,-0.15986 z m -33.3375,-0.26459 c 0.19099,-0.0764 0.4192,-0.067 0.50711,0.0209 0.0879,0.0879 -0.0683,0.15046 -0.34726,0.13898 -0.30823,-0.0127 -0.37092,-0.0754 -0.15985,-0.15986 z m 149.12673,-2.34741 c -0.49318,-0.39512 -0.48993,-0.39999 0.0817,-0.12297 0.32742,0.15867 0.59531,0.34382 0.59531,0.41148 0,0.20245 -0.13721,0.14398 -0.67704,-0.28851 z m -5.02708,-2.91041 c -0.49319,-0.39513 -0.48993,-0.4 0.0817,-0.12298 0.32743,0.15867 0.59532,0.34383 0.59532,0.41148 0,0.20246 -0.13722,0.14399 -0.67704,-0.2885 z m -5.02709,-2.91042 c -0.49318,-0.39513 -0.48993,-0.4 0.0817,-0.12298 0.32742,0.15867 0.59531,0.34383 0.59531,0.41148 0,0.20246 -0.13721,0.14399 -0.67704,-0.2885 z m -172.3942,-7.98806 c -0.32911,-0.41966 -0.31975,-0.429 0.0999,-0.0999 0.44073,0.34565 0.58089,0.56293 0.36313,0.56293 -0.0549,0 -0.2633,-0.20836 -0.46302,-0.46302 z m 101.10458,0.36311 c 0,-0.0549 0.20836,-0.26328 0.46302,-0.46302 0.41965,-0.32909 0.42899,-0.31975 0.0999,0.0999 -0.34566,0.44072 -0.56293,0.58089 -0.56293,0.36311 z m -102.81576,-1.81832 -0.50403,-0.59531 0.59531,0.50403 c 0.55945,0.47366 0.71576,0.68659 0.50403,0.68659 -0.0502,0 -0.3181,-0.26789 -0.59531,-0.59531 z m 104.40326,0.49541 c 0,-0.0549 0.20836,-0.26329 0.46302,-0.46302 0.41965,-0.32909 0.42899,-0.31975 0.0999,0.0999 -0.34566,0.44072 -0.56293,0.5809 -0.56293,0.36312 z m -108.74848,-4.59645 -2.7734,-2.84427 2.84427,2.77339 c 2.64182,2.57601 2.96449,2.91515 2.7734,2.91515 -0.039,0 -1.3189,-1.27992 -2.84427,-2.84427 z m 111.79119,1.78594 c 0.56837,-0.58209 1.09296,-1.05834 1.16572,-1.05834 0.0728,0 -0.33276,0.47625 -0.90114,1.05834 -0.56838,0.58208 -1.09297,1.05833 -1.16573,1.05833 -0.0728,0 0.33277,-0.47625 0.90115,-1.05833 z m 3.56081,-3.50573 c 1.09644,-1.16819 1.33398,-1.37824 1.33398,-1.17957 0,0.0425 -0.56555,0.60802 -1.25677,1.25677 l -1.25677,1.17957 z m -119.47345,-2.64584 -0.50403,-0.59531 0.59531,0.50403 c 0.55945,0.47366 0.71576,0.6866 0.50403,0.6866 -0.0502,0 -0.3181,-0.26789 -0.59531,-0.59532 z m 121.99805,-0.19843 c 0.2634,-0.29104 0.53843,-0.52917 0.61119,-0.52917 0.0728,0 -0.0832,0.23813 -0.3466,0.52917 -0.2634,0.29104 -0.53843,0.52916 -0.61119,0.52916 -0.0728,0 0.0832,-0.23812 0.3466,-0.52916 z m -123.46187,-1.52136 c -0.32911,-0.41965 -0.31975,-0.42899 0.0999,-0.0999 0.44073,0.34565 0.58089,0.56292 0.36313,0.56292 -0.0549,0 -0.2633,-0.20836 -0.46302,-0.46302 z m -8.8825,-13.76439 c -6.0167,-11.61711 -8.88395,-23.50614 -8.88395,-36.83717 0,-16.57726 4.50931,-31.29844 13.77776,-44.97916 18.47929,-27.2764 51.63183,-40.52336 83.66202,-33.42934 18.75835,4.15458 35.53465,14.92073 46.99339,30.1579 2.29457,3.05118 5.51926,7.99698 5.33453,8.18171 -0.10107,0.10109 -26.56346,15.38512 -103.26021,59.64065 -19.49979,11.25175 -35.51904,20.55664 -35.59833,20.67756 -0.0793,0.12089 -0.99064,-1.41457 -2.02521,-3.41215 z m 196.36153,-10.18241 c -0.0702,-0.18301 -0.0946,-4.2609 -0.0541,-9.06198 l 0.0736,-8.72924 0.0624,8.92617 0.0624,8.92617 8.92969,0.0733 8.92969,0.0733 -8.938,0.0625 c -6.98153,0.0488 -8.96594,-0.0103 -9.06568,-0.27025 z m 66.93958,0 c -0.0702,-0.18301 -0.0946,-4.2609 -0.0541,-9.06198 l 0.0736,-8.72924 0.0624,8.92617 0.0624,8.92617 8.92969,0.0733 8.92969,0.0733 -8.938,0.0625 c -6.98153,0.0488 -8.96593,-0.0103 -9.06568,-0.27025 z m -31.34111,-26.51895 v -8.86002 l -8.92969,-0.0733 -8.92969,-0.0733 9.06198,-0.0625 9.06198,-0.0625 v 8.99583 c 0,4.94771 -0.0595,8.99584 -0.13229,8.99584 -0.0728,0 -0.13229,-3.98701 -0.13229,-8.86003 z m 66.93958,0 v -8.86002 l -8.92969,-0.0733 -8.92968,-0.0733 9.06197,-0.0625 9.06198,-0.0625 v 8.99583 c 0,4.94771 -0.0595,8.99584 -0.13229,8.99584 -0.0728,0 -0.13229,-3.98701 -0.13229,-8.86003 z m -111.59154,-9.06357 8.92617,-0.0751 0.075,-8.79388 0.0749,-8.79388 -0.005,8.86354 -0.005,8.86354 -8.99583,0.005 -8.99583,0.005 8.92616,-0.0751 z m 66.93958,0 8.92617,-0.0751 0.075,-8.79388 0.0749,-8.79388 -0.005,8.86354 -0.005,8.86354 -8.99584,0.005 -8.99583,0.005 8.92617,-0.0751 z m 57.94251,-108.54723 c 0,-0.50932 0.0544,-0.71768 0.12099,-0.46302 0.0666,0.25466 0.0666,0.67138 0,0.92604 -0.0665,0.25466 -0.12099,0.0463 -0.12099,-0.46302 z m -0.30509,-2.27101 c 0.0127,-0.30822 0.0754,-0.37092 0.15986,-0.15985 0.0764,0.19099 0.067,0.4192 -0.0209,0.50712 -0.0879,0.0879 -0.15047,-0.0684 -0.13899,-0.34727 z m -0.26458,-1.5875 c 0.0127,-0.30822 0.0754,-0.37092 0.15986,-0.15985 0.0764,0.19099 0.067,0.4192 -0.0209,0.50712 -0.0879,0.0879 -0.15046,-0.0684 -0.13898,-0.34727 z"
         id="path1567" />
      <path
         style="fill:#00589b;stroke-width:0.264583"
         d="m 435.54197,659.51372 c 0.47555,-0.0589 1.18993,-0.0577 1.5875,0.003 0.39758,0.0604 0.008,0.10854 -0.86463,0.10705 -0.87312,-0.003 -1.19841,-0.0509 -0.72287,-0.10974 z m 5.8161,0.005 c 0.32742,-0.0631 0.8632,-0.0631 1.19062,0 0.32743,0.0631 0.0595,0.11464 -0.59531,0.11464 -0.65484,0 -0.92273,-0.0516 -0.59531,-0.11464 z m -12.1543,-0.25861 c 0.191,-0.0764 0.4192,-0.067 0.50712,0.0209 0.0879,0.0879 -0.0684,0.15047 -0.34726,0.13899 -0.30823,-0.0127 -0.37092,-0.0754 -0.15986,-0.15986 z m 19.31459,0 c 0.19099,-0.0764 0.4192,-0.067 0.50711,0.0209 0.0879,0.0879 -0.0684,0.15047 -0.34726,0.13899 -0.30823,-0.0127 -0.37092,-0.0754 -0.15985,-0.15986 z m -236.89722,-14.96666 -1.04588,-1.12448 1.12448,1.04588 c 1.04575,0.97266 1.24606,1.20308 1.04588,1.20308 -0.0432,0 -0.54924,-0.50601 -1.12448,-1.12448 z m 454.56662,0.0661 c 0.56837,-0.58208 1.09296,-1.05833 1.16572,-1.05833 0.0728,0 -0.33276,0.47625 -0.90114,1.05833 -0.56838,0.58208 -1.09297,1.05833 -1.16573,1.05833 -0.0728,0 0.33277,-0.47625 0.90115,-1.05833 z m 7.01145,-10.33436 c 0,-0.15412 -0.11906,-0.20661 -0.26458,-0.11668 -0.14552,0.0899 -0.26458,0.0503 -0.26458,-0.088 0,-0.13833 -0.29766,-0.32621 -0.66146,-0.41751 -0.3638,-0.0913 -0.66146,-0.27358 -0.66146,-0.40506 0,-0.13147 -0.41672,-0.37655 -0.92604,-0.54464 -0.50932,-0.16809 -0.92604,-0.40254 -0.92604,-0.52099 0,-0.11848 -0.29766,-0.29009 -0.66146,-0.3814 -0.3638,-0.0913 -0.66146,-0.28985 -0.66146,-0.44119 0,-0.15132 -0.11906,-0.20156 -0.26458,-0.11163 -0.14552,0.0899 -0.26459,0.0504 -0.26459,-0.088 0,-0.13832 -0.29765,-0.3262 -0.66145,-0.41751 -0.36381,-0.0913 -0.66146,-0.28985 -0.66146,-0.44119 0,-0.15132 -0.11907,-0.20156 -0.26459,-0.11163 -0.14552,0.0899 -0.26458,0.0374 -0.26458,-0.11668 0,-0.1541 -0.1701,-0.2802 -0.37798,-0.2802 -0.20789,0 -0.53531,-0.15385 -0.72761,-0.34189 -0.1923,-0.18807 -0.73657,-0.50017 -1.20951,-0.69358 -0.47295,-0.19341 -0.8599,-0.45625 -0.8599,-0.58412 0,-0.12787 -0.1701,-0.23249 -0.37798,-0.23249 -0.20789,0 -0.58632,-0.20836 -0.84098,-0.46302 -0.25466,-0.25466 -0.53107,-0.44937 -0.61423,-0.43267 -0.30401,0.061 -1.34181,-0.51901 -1.34181,-0.74989 0,-0.13075 -0.11906,-0.16414 -0.26458,-0.0742 -0.14552,0.0899 -0.26459,0.0374 -0.26459,-0.11668 0,-0.1541 -0.1701,-0.2802 -0.37798,-0.2802 -0.20788,0 -0.53531,-0.15385 -0.7276,-0.34189 -0.1923,-0.18807 -0.73658,-0.50017 -1.20952,-0.69358 -0.47294,-0.19341 -0.8599,-0.45625 -0.8599,-0.58412 0,-0.12787 -0.1701,-0.23249 -0.37798,-0.23249 -0.20788,0 -0.58632,-0.20836 -0.84098,-0.46302 -0.25466,-0.25466 -0.53107,-0.44937 -0.61423,-0.43267 -0.27853,0.0559 -1.34181,-0.50972 -1.34181,-0.71377 0,-0.11086 -0.41672,-0.33912 -0.92604,-0.50721 -0.50932,-0.16809 -0.92604,-0.40253 -0.92604,-0.52099 0,-0.11848 -0.29766,-0.29009 -0.66146,-0.38139 -0.3638,-0.0913 -0.66146,-0.28985 -0.66146,-0.4412 0,-0.15131 -0.11906,-0.20156 -0.26458,-0.11162 -0.14552,0.0899 -0.26458,0.0613 -0.26458,-0.0635 0,-0.12488 -0.41672,-0.37775 -0.92604,-0.5619 -0.50933,-0.18417 -0.92605,-0.44622 -0.92605,-0.58232 0,-0.1361 -0.1701,-0.24746 -0.37798,-0.24746 -0.20788,0 -0.53531,-0.15386 -0.7276,-0.3419 -0.1923,-0.18806 -0.73658,-0.50017 -1.20952,-0.69358 -0.47294,-0.19341 -0.8599,-0.44336 -0.8599,-0.55544 0,-0.1121 -0.29765,-0.2785 -0.66145,-0.3698 -0.36381,-0.0913 -0.66146,-0.28985 -0.66146,-0.4412 0,-0.15131 -0.11907,-0.20156 -0.26459,-0.11162 -0.14552,0.0899 -0.26458,0.0613 -0.26458,-0.0635 0,-0.12488 -0.41672,-0.37775 -0.92604,-0.5619 -0.50932,-0.18417 -0.92604,-0.44622 -0.92604,-0.58232 0,-0.1361 -0.1701,-0.24746 -0.37799,-0.24746 -0.20788,0 -0.5353,-0.15386 -0.7276,-0.3419 -0.1923,-0.18806 -0.73657,-0.50017 -1.20952,-0.69358 -0.47294,-0.19341 -0.85989,-0.44336 -0.85989,-0.55544 0,-0.1121 -0.29766,-0.2785 -0.66146,-0.3698 -0.3638,-0.0913 -0.66146,-0.28985 -0.66146,-0.4412 0,-0.15131 -0.11906,-0.20156 -0.26458,-0.11162 -0.14552,0.0899 -0.26459,0.0503 -0.26459,-0.088 0,-0.13833 -0.29765,-0.32621 -0.66145,-0.41752 -0.36381,-0.0913 -0.66146,-0.28985 -0.66146,-0.44119 0,-0.15131 -0.11907,-0.20156 -0.26459,-0.11163 -0.14552,0.0899 -0.26458,0.0374 -0.26458,-0.11668 0,-0.15409 -0.1701,-0.28019 -0.37798,-0.28019 -0.20789,0 -0.53531,-0.15386 -0.72761,-0.3419 -0.1923,-0.18806 -0.73657,-0.50017 -1.20951,-0.69358 -0.47295,-0.19341 -0.8599,-0.44336 -0.8599,-0.55544 0,-0.1121 -0.29766,-0.2785 -0.66146,-0.3698 -0.3638,-0.0913 -0.66146,-0.28985 -0.66146,-0.4412 0,-0.15131 -0.11906,-0.20156 -0.26458,-0.11162 -0.14552,0.0899 -0.26458,0.0374 -0.26458,-0.11668 0,-0.1541 -0.16037,-0.2802 -0.3564,-0.2802 -0.196,0 -0.63095,-0.23812 -0.96652,-0.52917 -0.33557,-0.29104 -0.762,-0.52916 -0.94763,-0.52916 -0.18561,0 -0.49483,-0.15386 -0.68712,-0.3419 -0.1923,-0.18806 -0.73658,-0.50016 -1.20952,-0.69358 -0.47294,-0.19341 -0.8599,-0.44336 -0.8599,-0.55544 0,-0.1121 -0.29765,-0.2785 -0.66145,-0.3698 -0.36381,-0.0913 -0.66146,-0.28985 -0.66146,-0.4412 0,-0.15131 -0.11907,-0.20156 -0.26459,-0.11162 -0.14552,0.0899 -0.26458,0.0503 -0.26458,-0.088 0,-0.13833 -0.29766,-0.32621 -0.66146,-0.41752 -0.3638,-0.0913 -0.66146,-0.27358 -0.66146,-0.40505 0,-0.13147 -0.41671,-0.37655 -0.92604,-0.54464 -0.50932,-0.16809 -0.92604,-0.40254 -0.92604,-0.52099 0,-0.11848 -0.29766,-0.29009 -0.66146,-0.3814 -0.3638,-0.0913 -0.66146,-0.28985 -0.66146,-0.44119 0,-0.15132 -0.11906,-0.20156 -0.26458,-0.11163 -0.14552,0.0899 -0.26458,0.0504 -0.26458,-0.088 0,-0.13832 -0.29766,-0.32621 -0.66146,-0.41751 -0.3638,-0.0913 -0.66146,-0.28985 -0.66146,-0.4412 0,-0.15131 -0.11906,-0.20156 -0.26458,-0.11162 -0.14552,0.0899 -0.26459,0.0503 -0.26459,-0.088 0,-0.13833 -0.29765,-0.32621 -0.66145,-0.41752 -0.36381,-0.0913 -0.66146,-0.27358 -0.66146,-0.40505 0,-0.13147 -0.41672,-0.37655 -0.92604,-0.54464 -0.50933,-0.16809 -0.92605,-0.40254 -0.92605,-0.52099 0,-0.11848 -0.29765,-0.29009 -0.66145,-0.3814 -0.36381,-0.0913 -0.66146,-0.28985 -0.66146,-0.44119 0,-0.15132 -0.11907,-0.20156 -0.26459,-0.11163 -0.14552,0.0899 -0.26458,0.0504 -0.26458,-0.088 0,-0.13832 -0.29766,-0.32621 -0.66146,-0.41751 -0.3638,-0.0913 -0.66146,-0.28985 -0.66146,-0.4412 0,-0.15131 -0.11906,-0.20156 -0.26458,-0.11162 -0.14552,0.0899 -0.26458,0.0374 -0.26458,-0.11668 0,-0.1541 -0.1701,-0.2802 -0.37799,-0.2802 -0.20788,0 -0.5353,-0.15385 -0.7276,-0.34189 -0.1923,-0.18807 -0.73657,-0.50017 -1.20952,-0.69358 -0.47294,-0.19341 -0.85989,-0.44336 -0.85989,-0.55544 0,-0.11211 -0.29766,-0.2785 -0.66146,-0.36981 -0.3638,-0.0913 -0.66146,-0.28985 -0.66146,-0.44119 0,-0.15132 -0.11906,-0.20156 -0.26458,-0.11163 -0.14552,0.0899 -0.26459,0.0504 -0.26459,-0.088 0,-0.13832 -0.29765,-0.3262 -0.66145,-0.41751 -0.36381,-0.0913 -0.66146,-0.28985 -0.66146,-0.4412 0,-0.15131 -0.11907,-0.20155 -0.26459,-0.11162 -0.14552,0.0899 -0.26458,0.0374 -0.26458,-0.11668 0,-0.1541 -0.1701,-0.2802 -0.37798,-0.2802 -0.20789,0 -0.53531,-0.15385 -0.72761,-0.34189 -0.1923,-0.18807 -0.73657,-0.50017 -1.20951,-0.69358 -0.47295,-0.19341 -0.8599,-0.44336 -0.8599,-0.55544 0,-0.1121 -0.29766,-0.2785 -0.66146,-0.36981 -0.3638,-0.0913 -0.66146,-0.28985 -0.66146,-0.44119 0,-0.15132 -0.11906,-0.20156 -0.26458,-0.11163 -0.14552,0.0899 -0.26458,0.0504 -0.26458,-0.088 0,-0.13832 -0.29766,-0.3262 -0.66146,-0.41751 -0.3638,-0.0913 -0.66146,-0.27358 -0.66146,-0.40505 0,-0.13147 -0.41672,-0.37656 -0.92604,-0.54465 -0.50932,-0.16809 -0.92604,-0.40253 -0.92604,-0.52099 0,-0.11848 -0.29766,-0.29009 -0.66146,-0.3814 -0.3638,-0.0913 -0.66146,-0.28985 -0.66146,-0.44119 0,-0.15131 -0.11906,-0.20156 -0.26458,-0.11163 -0.14552,0.0899 -0.26459,0.0503 -0.26459,-0.088 0,-0.13832 -0.29765,-0.3262 -0.66145,-0.41751 -0.36381,-0.0913 -0.66146,-0.28985 -0.66146,-0.44119 0,-0.15132 -0.11907,-0.20156 -0.26459,-0.11163 -0.14552,0.0899 -0.26458,0.0504 -0.26458,-0.088 0,-0.13832 -0.29766,-0.3262 -0.66146,-0.41751 -0.3638,-0.0913 -0.66146,-0.27358 -0.66146,-0.40505 0,-0.13147 -0.41671,-0.37656 -0.92604,-0.54465 -0.50932,-0.16809 -0.92604,-0.40253 -0.92604,-0.52099 0,-0.11848 -0.29766,-0.29009 -0.66146,-0.3814 -0.3638,-0.0913 -0.66146,-0.28985 -0.66146,-0.44119 0,-0.15131 -0.11906,-0.20156 -0.26458,-0.11163 -0.14552,0.0899 -0.26458,0.0503 -0.26458,-0.088 0,-0.13832 -0.29766,-0.3262 -0.66146,-0.41751 -0.3638,-0.0913 -0.66146,-0.28985 -0.66146,-0.44119 0,-0.15132 -0.11906,-0.20156 -0.26458,-0.11163 -0.14552,0.0899 -0.26459,0.0374 -0.26459,-0.11668 0,-0.15409 -0.1701,-0.28019 -0.37798,-0.28019 -0.20788,0 -0.54086,-0.16288 -0.73993,-0.36198 -0.19908,-0.19907 -0.6236,-0.445 -0.94338,-0.5465 -0.31977,-0.10149 -0.74654,-0.34964 -0.94837,-0.55149 -0.54782,-0.54782 -69.41484,-40.33372 -70.87523,-40.9461 -0.69123,-0.28985 -1.25677,-0.61727 -1.25677,-0.7276 0,-0.11036 -0.29766,-0.27533 -0.66146,-0.36664 -0.3638,-0.0913 -0.66146,-0.28985 -0.66146,-0.44119 0,-0.15131 -0.11906,-0.20156 -0.26458,-0.11163 -0.14552,0.0899 -0.26459,0.0503 -0.26459,-0.088 0,-0.13832 -0.29765,-0.3262 -0.66145,-0.41751 -0.36381,-0.0913 -0.66146,-0.27358 -0.66146,-0.40505 0,-0.13147 -0.41672,-0.37656 -0.92604,-0.54465 -0.50933,-0.16808 -0.92605,-0.40253 -0.92605,-0.52099 0,-0.11848 -0.29765,-0.29009 -0.66145,-0.38139 -0.36381,-0.0913 -0.66146,-0.28985 -0.66146,-0.4412 0,-0.15131 -0.11906,-0.20156 -0.26459,-0.11162 -0.14552,0.0899 -0.26458,0.0504 -0.26458,-0.088 0,-0.13833 -0.29766,-0.32621 -0.66146,-0.41752 -0.3638,-0.0913 -0.66146,-0.28985 -0.66146,-0.44119 0,-0.15131 -0.11906,-0.20156 -0.26458,-0.11163 -0.14552,0.0899 -0.26458,0.0374 -0.26458,-0.11668 0,-0.15409 -0.1701,-0.28019 -0.37799,-0.28019 -0.20788,0 -0.5353,-0.15386 -0.7276,-0.3419 -0.1923,-0.18806 -0.73657,-0.50016 -1.20952,-0.69357 -0.47294,-0.19342 -0.85989,-0.44337 -0.85989,-0.55544 0,-0.11211 -0.29766,-0.27851 -0.66146,-0.36981 -0.3638,-0.0913 -0.66146,-0.28985 -0.66146,-0.4412 0,-0.15131 -0.11906,-0.20156 -0.26458,-0.11162 -0.14552,0.0899 -0.26459,0.0504 -0.26459,-0.088 0,-0.13833 -0.29765,-0.32621 -0.66145,-0.41752 -0.36381,-0.0913 -0.66146,-0.28985 -0.66146,-0.44119 0,-0.15131 -0.11906,-0.20156 -0.26459,-0.11163 -0.14552,0.0899 -0.26458,0.0374 -0.26458,-0.11668 0,-0.15409 -0.1701,-0.28019 -0.37798,-0.28019 -0.20789,0 -0.53531,-0.15386 -0.72761,-0.3419 -0.1923,-0.18806 -0.73657,-0.50016 -1.20951,-0.69357 -0.47295,-0.19342 -0.8599,-0.44337 -0.8599,-0.55544 0,-0.11211 -0.29765,-0.2785 -0.66146,-0.36981 -0.3638,-0.0913 -0.66146,-0.28985 -0.66146,-0.4412 0,-0.15131 -0.11906,-0.20155 -0.26458,-0.11162 -0.14552,0.0899 -0.26458,0.0374 -0.26458,-0.11668 0,-0.1541 -0.16037,-0.2802 -0.3564,-0.2802 -0.196,0 -0.63095,-0.23812 -0.96652,-0.52916 -0.33557,-0.29105 -0.762,-0.52917 -0.94763,-0.52917 -0.18561,0 -0.49482,-0.15386 -0.68712,-0.3419 -0.1923,-0.18806 -0.73658,-0.50016 -1.20952,-0.69357 -0.47294,-0.19341 -0.8599,-0.44337 -0.8599,-0.55544 0,-0.11211 -0.29765,-0.2785 -0.66145,-0.36981 -0.36381,-0.0913 -0.66146,-0.28985 -0.66146,-0.4412 0,-0.15131 -0.11906,-0.20155 -0.26459,-0.11162 -0.14552,0.0899 -0.26458,0.0504 -0.26458,-0.088 0,-0.13833 -0.29765,-0.32621 -0.66146,-0.41752 -0.3638,-0.0913 -0.66146,-0.27357 -0.66146,-0.40505 0,-0.13147 -0.41671,-0.37655 -0.92604,-0.54464 -0.50932,-0.16809 -0.92604,-0.40254 -0.92604,-0.52099 0,-0.11848 -0.29765,-0.29009 -0.66146,-0.3814 -0.3638,-0.0913 -0.66146,-0.28985 -0.66146,-0.44119 0,-0.15132 -0.11906,-0.20156 -0.26458,-0.11163 -0.14552,0.0899 -0.26458,0.0503 -0.26458,-0.088 0,-0.13832 -0.29766,-0.3262 -0.66146,-0.41751 -0.3638,-0.0913 -0.66146,-0.28985 -0.66146,-0.44119 0,-0.15132 -0.11906,-0.20156 -0.26458,-0.11163 -0.14552,0.0899 -0.26459,0.0504 -0.26459,-0.088 0,-0.13833 -0.29765,-0.32621 -0.66145,-0.41752 -0.36381,-0.0913 -0.66146,-0.27357 -0.66146,-0.40505 0,-0.13147 -0.41672,-0.37655 -0.92604,-0.54464 -0.50933,-0.16809 -0.92605,-0.40254 -0.92605,-0.52099 0,-0.11848 -0.29765,-0.29009 -0.66145,-0.3814 -0.36381,-0.0913 -0.66146,-0.28985 -0.66146,-0.44119 0,-0.15132 -0.11906,-0.20156 -0.26459,-0.11163 -0.14552,0.0899 -0.26458,0.0503 -0.26458,-0.088 0,-0.13832 -0.29765,-0.3262 -0.66146,-0.41751 -0.3638,-0.0913 -0.66146,-0.28985 -0.66146,-0.44119 0,-0.15132 -0.11906,-0.20156 -0.26458,-0.11163 -0.14552,0.0899 -0.26458,0.0374 -0.26458,-0.11668 0,-0.1541 -0.1701,-0.2802 -0.37799,-0.2802 -0.20788,0 -0.5353,-0.15385 -0.7276,-0.34189 -0.1923,-0.18807 -0.73657,-0.50017 -1.20952,-0.69358 -0.47294,-0.19341 -0.85989,-0.44336 -0.85989,-0.55544 0,-0.1121 -0.29766,-0.2785 -0.66146,-0.36981 -0.3638,-0.0913 -0.66146,-0.28985 -0.66146,-0.44119 0,-0.15132 -0.11906,-0.20156 -0.26458,-0.11163 -0.14552,0.0899 -0.26459,0.0503 -0.26459,-0.088 0,-0.13832 -0.29765,-0.3262 -0.66145,-0.41751 -0.36381,-0.0913 -0.66146,-0.28985 -0.66146,-0.44119 0,-0.15132 -0.11906,-0.20156 -0.26459,-0.11163 -0.14552,0.0899 -0.26458,0.0374 -0.26458,-0.11668 0,-0.1541 -0.17009,-0.2802 -0.37797,-0.2802 -0.20789,0 -0.53531,-0.15385 -0.72761,-0.34189 -0.19229,-0.18807 -0.73658,-0.50017 -1.20952,-0.69358 -0.47295,-0.19341 -0.8599,-0.44336 -0.8599,-0.55544 0,-0.1121 -0.29765,-0.2785 -0.66146,-0.36981 -0.3638,-0.0913 -0.66146,-0.28985 -0.66146,-0.44119 0,-0.15132 -0.11906,-0.20156 -0.26458,-0.11163 -0.14552,0.0899 -0.26458,0.0374 -0.26458,-0.11668 0,-0.15409 -0.16038,-0.28019 -0.35639,-0.28019 -0.19602,0 -0.63095,-0.23813 -0.96653,-0.52917 -0.33557,-0.29104 -0.762,-0.52917 -0.94762,-0.52917 -0.18563,0 -0.49483,-0.15385 -0.68713,-0.34189 -0.19229,-0.18807 -0.73658,-0.50017 -1.20952,-0.69358 -0.47294,-0.19341 -0.8599,-0.44336 -0.8599,-0.55544 0,-0.1121 -0.29765,-0.2785 -0.66145,-0.36981 -0.36381,-0.0913 -0.66146,-0.28985 -0.66146,-0.44119 0,-0.15132 -0.11906,-0.20156 -0.26459,-0.11163 -0.14552,0.0899 -0.26458,0.0503 -0.26458,-0.088 0,-0.13832 -0.29765,-0.3262 -0.66146,-0.41751 -0.3638,-0.0913 -0.66146,-0.27358 -0.66146,-0.40505 0,-0.13147 -0.41671,-0.37656 -0.92604,-0.54465 -0.50932,-0.16809 -0.92604,-0.40253 -0.92604,-0.52099 0,-0.11848 -0.29765,-0.29009 -0.66146,-0.38139 -0.3638,-0.0913 -0.66146,-0.28986 -0.66146,-0.4412 0,-0.15131 -0.11906,-0.20156 -0.26458,-0.11163 -0.14552,0.0899 -0.26458,0.0504 -0.26458,-0.088 0,-0.13832 -0.29766,-0.3262 -0.66146,-0.41751 -0.3638,-0.0913 -0.66146,-0.28985 -0.66146,-0.44119 0,-0.15132 -0.11906,-0.20156 -0.26458,-0.11163 -0.14552,0.0899 -0.26459,0.0462 -0.26459,-0.0973 0,-0.14343 -0.18731,-0.29927 -0.41625,-0.34634 -0.22893,-0.047 15.45755,-9.24395 34.85887,-20.43757 19.40128,-11.19362 52.83681,-30.49488 74.30113,-42.89168 21.46433,-12.3968 57.95698,-33.46561 81.0948,-46.81957 23.13781,-13.35396 42.57577,-24.57437 43.19547,-24.93425 l 1.1267,-0.65432 1.57356,3.2676 c 1.81753,3.77417 2.90073,6.88464 3.76391,10.80822 l 0.61119,2.77812 V 498.8388 617.50442 l -0.61119,2.77813 c -0.33615,1.52797 -0.9665,3.84968 -1.40076,5.15937 -1.10098,3.32044 -3.80455,8.86354 -4.32302,8.86354 -0.22654,0 -0.41191,-0.1261 -0.41191,-0.28019 z m -91.28125,-117.1948 v -8.99583 h 8.99584 8.99583 v -8.99584 -8.99583 h -8.99583 -8.99584 v -8.86354 -8.86354 h -8.99583 -8.99583 v 8.86354 8.86354 h -8.86354 -8.86355 v 8.99583 8.99584 h 8.86355 8.86354 v 8.81943 c 0,4.85071 0.0794,8.89884 0.1764,8.99583 0.097,0.097 4.14512,0.1764 8.99583,0.1764 h 8.81943 z m 66.93959,0 v -8.99583 h 8.99583 8.99583 v -8.99584 -8.99583 h -8.99583 -8.99583 v -8.86354 -8.86354 h -8.99584 -8.99583 v 8.86354 8.86354 h -8.86354 -8.86354 v 8.99583 8.99584 h 8.86354 8.86354 v 8.81943 c 0,4.85071 0.0794,8.89884 0.1764,8.99583 0.097,0.097 4.14512,0.1764 8.99583,0.1764 h 8.81944 z M 546.86067,617.9013 c 0.2634,-0.29104 0.53843,-0.52917 0.61119,-0.52917 0.0728,0 -0.0832,0.23813 -0.3466,0.52917 -0.2634,0.29104 -0.53843,0.52916 -0.61119,0.52916 -0.0728,0 0.0832,-0.23812 0.3466,-0.52916 z m -216.4543,-0.59532 -0.50403,-0.59531 0.59531,0.50403 c 0.32743,0.27721 0.59532,0.5451 0.59532,0.59532 0,0.21172 -0.21294,0.0554 -0.6866,-0.50404 z m 222.40269,-5.02708 c 1.52538,-1.56435 2.8053,-2.84427 2.84427,-2.84427 0.19108,0 -0.13157,0.33914 -2.77339,2.91515 l -2.84427,2.77339 z m -227.55117,0.13229 -0.9118,-0.99218 0.99219,0.9118 c 0.5457,0.50149 0.99219,0.94798 0.99219,0.99219 0,0.20204 -0.2239,0.0116 -1.07258,-0.91181 z m -4.90569,-5.15937 -0.50403,-0.59531 0.59532,0.50403 c 0.32742,0.2772 0.59531,0.54509 0.59531,0.59531 0,0.21172 -0.21293,0.0554 -0.6866,-0.50403 z m 237.75326,-0.56293 c 0,-0.0549 0.20836,-0.26329 0.46303,-0.46302 0.41965,-0.32909 0.42899,-0.31975 0.0999,0.0999 -0.34565,0.44071 -0.56293,0.58089 -0.56293,0.36311 z m 2.11667,-2.38125 c 0,-0.0549 0.20836,-0.26329 0.46302,-0.46302 0.41966,-0.32909 0.429,-0.31975 0.0999,0.0999 -0.34565,0.44071 -0.56293,0.58089 -0.56293,0.36311 z M 432.90794,578.82681 c 0.19099,-0.0764 0.4192,-0.067 0.50712,0.0209 0.0879,0.0879 -0.0684,0.15047 -0.34727,0.13899 -0.30822,-0.0127 -0.37092,-0.0754 -0.15985,-0.15986 z m 58.78711,-19.49833 c 0,-0.0549 0.20836,-0.26329 0.46302,-0.46302 0.41965,-0.32909 0.42899,-0.31975 0.0999,0.0999 -0.34566,0.44072 -0.56293,0.5809 -0.56293,0.36312 z m -106.13167,-0.6277 c -0.32911,-0.41966 -0.31975,-0.429 0.0999,-0.0999 0.44073,0.34565 0.58089,0.56293 0.36312,0.56293 -0.0549,0 -0.2633,-0.20836 -0.46302,-0.46302 z m 110.10042,-3.10885 c 0.34176,-0.36381 0.68093,-0.66146 0.75369,-0.66146 0.0728,0 -0.14735,0.29765 -0.48911,0.66146 -0.34176,0.3638 -0.68093,0.66145 -0.75369,0.66145 -0.0728,0 0.14735,-0.29765 0.48911,-0.66145 z"
         id="path1565" />
      <path
         style="fill:#004381;stroke-width:0.264583"
         d="m 429.12109,768.95684 c -2.79451,-0.60005 -5.97582,-1.61494 -8.20208,-2.6166 -1.84751,-0.83127 -201.23331,-115.85929 -203.99375,-117.68642 -2.9858,-1.97628 -8.14276,-7.33693 -10.56636,-10.98373 -1.13957,-1.71469 -2.0263,-3.15632 -1.9705,-3.20357 0.37055,-0.31396 94.90283,-54.76875 95.21915,-54.85048 0.26492,-0.0684 0.83006,0.62703 1.6998,2.09187 3.73147,6.28462 9.18455,13.90288 14.4491,20.1861 26.45029,31.56839 63.61411,51.74802 104.23652,56.5995 9.75405,1.16494 23.13347,1.40568 32.27916,0.58084 27.81991,-2.50902 53.26359,-11.42415 76.14129,-26.67894 15.24291,-10.16394 29.05868,-23.30908 39.9674,-38.02737 2.55458,-3.44667 7.57156,-10.97981 8.94808,-13.43581 0.87918,-1.56863 0.9507,-1.62972 1.49937,-1.281 0.31689,0.2014 21.76928,12.59427 47.67199,27.53968 25.9027,14.94541 47.14652,27.22084 47.20849,27.27873 0.0619,0.0579 -0.82831,1.50312 -1.97834,3.21167 -2.36541,3.51409 -7.31256,8.71939 -10.17286,10.70369 -1.56247,1.08395 -201.11102,116.36546 -203.60624,117.6257 -1.82855,0.92353 -6.25374,2.3612 -9.05361,2.9414 -2.36624,0.49033 -3.54292,0.55314 -10.03791,0.53573 -6.2223,-0.0167 -7.72484,-0.0986 -9.7387,-0.53099 z m 1.23171,-190.34778 c -15.35311,-1.75159 -29.39599,-7.59362 -41.58067,-17.29811 -3.26627,-2.60144 -9.67643,-9.00719 -12.20972,-12.20132 -2.14694,-2.707 -5.00193,-6.77933 -6.15617,-8.78109 l -0.71527,-1.24045 0.61089,-0.38899 c 3.07678,-1.95919 68.66353,-39.59505 68.90213,-39.53835 0.66838,0.15883 69.1392,39.77584 69.14922,40.00955 0.0175,0.4073 -4.83743,7.52231 -6.78053,9.93709 -2.4916,3.09647 -6.84736,7.57806 -10.00992,10.29914 -11.86003,10.20442 -25.43154,16.40448 -41.26667,18.85243 -4.56356,0.70549 -15.19285,0.89207 -19.94329,0.3501 z"
         id="path1563" />
    </g>
  </g>
</svg>
