<?xml version="1.0" encoding="UTF-8" standalone="no"?>
<!-- Created with Inkscape (http://www.inkscape.org/) -->

<svg
   width="1000mm"
   height="1000mm"
   viewBox="0 0 1000 1000"
   version="1.1"
   id="svg930"
   inkscape:version="1.1 (c68e22c387, 2021-05-23)"
   sodipodi:docname="c++_white.svg"
   xmlns:inkscape="http://www.inkscape.org/namespaces/inkscape"
   xmlns:sodipodi="http://sodipodi.sourceforge.net/DTD/sodipodi-0.dtd"
   xmlns="http://www.w3.org/2000/svg"
   xmlns:svg="http://www.w3.org/2000/svg">
  <sodipodi:namedview
     id="namedview932"
     pagecolor="#ffffff"
     bordercolor="#666666"
     borderopacity="1.0"
     inkscape:pageshadow="2"
     inkscape:pageopacity="0.0"
     inkscape:pagecheckerboard="0"
     inkscape:document-units="mm"
     showgrid="false"
     units="mm"
     width="1000mm"
     inkscape:zoom="0.16"
     inkscape:cx="1659.375"
     inkscape:cy="1884.375"
     inkscape:window-width="1920"
     inkscape:window-height="1017"
     inkscape:window-x="1912"
     inkscape:window-y="-8"
     inkscape:window-maximized="1"
     inkscape:current-layer="layer1" />
  <defs
     id="defs927" />
  <g
     inkscape:label="Calque 1"
     inkscape:groupmode="layer"
     id="layer1">
    <g
       id="g258" />
    <path
       style="fill:#ffffff;stroke-width:0.482028"
       d="m 478.71276,991.45798 c -5.14304,-1.1627 -10.76423,-3.1182 -14.91277,-5.1881 -4.77691,-2.3834 -365.025148,-210.30707 -369.764098,-213.41591 -4.60774,-3.02279 -11.57891,-9.52211 -15.71981,-14.65585 -8.48789,-10.52295 -15.31397,-24.74826 -18.06357,-37.64379 -0.83612,-3.92139 -0.87361,-13.4276 -0.87361,-221.49164 v -217.3944 l 1.27227,-5.30231 c 4.77054,-19.88153 17.57026,-39.60076 32.2614,-49.70185 4.82798,-3.31954 368.008598,-212.951994 372.502138,-215.012949 4.48725,-2.0580747 11.47226,-4.1387247 17.66638,-5.2623507 6.80825,-1.235032 23.54943,-1.236072 30.36773,-0.0019 6.4436,1.166359 12.14501,2.846917 17.11198,5.0439537 2.25348,0.99678 84.24636,48.078679 182.2064,104.626446 208.23594,120.20488 188.70744,108.8438 193.53404,112.59223 13.8706,10.7721 25.8753,30.40485 29.9681,49.01047 0.847,3.85065 0.8817,12.56515 0.8817,221.64366 0,209.07851 -0.035,217.79299 -0.8817,221.64367 -1.9239,8.74571 -6.6913,20.36181 -11.5052,28.03298 -5.9577,9.49373 -14.4258,18.58891 -22.0862,23.72169 -4.6875,3.14084 -363.87739,210.51834 -369.70495,213.44844 -4.55362,2.2895 -9.70714,4.0753 -15.38389,5.3308 -3.61089,0.7986 -6.11255,0.9118 -19.56516,0.8855 -13.10601,-0.025 -16.00912,-0.1623 -19.31118,-0.9088 z m 43.41256,-200.51487 c 56.51883,-5.09233 108.45918,-25.03347 153.04374,-58.75727 25.17938,-19.04568 47.41362,-42.42449 65.15657,-68.51076 4.84578,-7.12441 11.00532,-16.99585 11.00006,-17.629 0,-0.24588 -27.36132,-16.28163 -60.79842,-35.63504 -33.43709,-19.3534 -61.82461,-35.78721 -63.08337,-36.51961 l -2.28872,-1.33155 -1.94387,3.2721 c -7.50888,12.63929 -20.85511,27.70998 -33.44336,37.76459 -10.93465,8.73386 -27.67392,18.28296 -39.92605,22.77623 -32.16689,11.79671 -66.204,12.49391 -97.57,1.99854 -44.10002,-14.75631 -79.01457,-49.89024 -93.22066,-93.80636 -5.06435,-15.65568 -7.02079,-28.26841 -7.02079,-45.26128 0,-14.05778 0.99897,-22.36371 4.29127,-35.67976 10.87979,-44.00451 42.89385,-81.33134 85.06399,-99.18045 26.93963,-11.40259 57.46633,-14.42059 86.13085,-8.51527 38.50691,7.933 71.75958,30.65507 93.78091,64.08196 2.09585,3.18138 4.06605,5.71376 4.37821,5.6275 0.31216,-0.0863 7.61724,-4.23492 16.23348,-9.21926 8.61624,-4.98434 30.19902,-17.46694 47.96174,-27.73911 17.76271,-10.27216 38.85744,-22.47459 46.87717,-27.1165 8.01974,-4.64191 14.58134,-8.65242 14.58134,-8.91223 0,-1.4144 -12.15505,-19.96206 -19.15534,-29.22956 -48.63774,-64.39018 -121.76416,-106.0002 -202.0953,-114.99524 -22.95579,-2.57046 -49.55206,-2.13534 -73.26818,1.19869 -70.74006,9.94469 -136.79342,46.80963 -183.03426,102.15295 -34.57545,41.38161 -57.20907,91.5567 -64.91355,143.90279 -2.49715,16.96633 -2.92049,23.27558 -2.92699,43.62349 -0.007,20.36615 0.40678,26.52014 2.92965,43.62349 11.97057,81.15213 59.03095,154.64807 128.40232,200.53077 42.86084,28.34847 90.8129,44.37921 143.40319,47.94077 7.79841,0.52815 33.69489,0.24352 41.45437,-0.45562 z m 236.4345,-259.10255 v -16.14792 h 16.14792 16.1479 V 499.54472 483.3968 h -16.1479 -16.14792 V 467.00786 450.61893 H 742.41831 726.2768 l -0.12692,16.26842 -0.12692,16.26843 -16.26843,0.12692 -16.26843,0.12692 v 16.14151 16.14151 h 16.38894 16.38894 v 16.14792 16.14792 h 16.14792 16.14792 z m 121.95292,0 v -16.14792 h 16.148 16.1479 V 499.54472 483.3968 h -16.1479 -16.148 v -16.38894 -16.38893 h -16.1415 -16.1415 l -0.1269,16.26842 -0.1269,16.26843 -16.2684,0.12692 -16.2685,0.12692 v 16.14151 16.14151 h 16.389 16.3889 v 16.14792 16.14792 h 16.1479 16.1479 z"
       id="path3587" />
  </g>
</svg>
