<?xml version="1.0" encoding="UTF-8" standalone="no"?>
<!-- Created with Inkscape (http://www.inkscape.org/) -->

<svg
   width="300mm"
   height="300mm"
   viewBox="0 0 300 300"
   version="1.1"
   id="svg5"
   inkscape:version="1.1 (c68e22c387, 2021-05-23)"
   sodipodi:docname="c.svg"
   xmlns:inkscape="http://www.inkscape.org/namespaces/inkscape"
   xmlns:sodipodi="http://sodipodi.sourceforge.net/DTD/sodipodi-0.dtd"
   xmlns="http://www.w3.org/2000/svg"
   xmlns:svg="http://www.w3.org/2000/svg">
  <sodipodi:namedview
     id="namedview7"
     pagecolor="#ffffff"
     bordercolor="#666666"
     borderopacity="1.0"
     inkscape:pageshadow="2"
     inkscape:pageopacity="0.0"
     inkscape:pagecheckerboard="0"
     inkscape:document-units="mm"
     showgrid="false"
     width="300mm"
     inkscape:zoom="0.33540614"
     inkscape:cx="132.67497"
     inkscape:cy="600.76419"
     inkscape:window-width="1920"
     inkscape:window-height="1017"
     inkscape:window-x="1912"
     inkscape:window-y="-8"
     inkscape:window-maximized="1"
     inkscape:current-layer="layer1" />
  <defs
     id="defs2" />
  <g
     inkscape:label="Calque 1"
     inkscape:groupmode="layer"
     id="layer1">
    <g
       id="g918"
       transform="matrix(0.85158986,0,0,0.85158986,34.167754,75.321847)">
      <path
         style="fill:#6498d0;stroke-width:0.264583"
         d="m 134.64418,263.52973 c 0.1819,-0.0734 0.47955,-0.0734 0.66146,0 0.1819,0.0734 0.0331,0.13345 -0.33073,0.13345 -0.36381,0 -0.51263,-0.0601 -0.33073,-0.13345 z m 4.23333,0 c 0.1819,-0.0734 0.47956,-0.0734 0.66146,0 0.1819,0.0734 0.0331,0.13345 -0.33073,0.13345 -0.3638,0 -0.51263,-0.0601 -0.33073,-0.13345 z m -7.80521,-58.48721 c 0.40018,-0.0606 1.05503,-0.0606 1.45521,0 0.40018,0.0607 0.0728,0.11023 -0.7276,0.11023 -0.80037,0 -1.12779,-0.0496 -0.72761,-0.11023 z m 10.58334,0 c 0.40018,-0.0606 1.05502,-0.0606 1.4552,0 0.40019,0.0607 0.0728,0.11023 -0.7276,0.11023 -0.80036,0 -1.12779,-0.0496 -0.7276,-0.11023 z m -14.54705,-0.25841 c 0.25743,-0.0671 0.61462,-0.0627 0.79375,0.01 0.17913,0.0725 -0.0315,0.12734 -0.46806,0.12197 -0.43656,-0.005 -0.58312,-0.0647 -0.32569,-0.13179 z m 19.31458,0 c 0.25743,-0.0671 0.61462,-0.0627 0.79375,0.01 0.17913,0.0725 -0.0315,0.12734 -0.46806,0.12197 -0.43656,-0.005 -0.58312,-0.0647 -0.32569,-0.13179 z m -22.09774,-0.25646 c 0.1819,-0.0734 0.47956,-0.0734 0.66146,0 0.1819,0.0734 0.0331,0.13345 -0.33073,0.13345 -0.3638,0 -0.51263,-0.0601 -0.33073,-0.13345 z m 24.87083,0 c 0.1819,-0.0734 0.47956,-0.0734 0.66146,0 0.1819,0.0734 0.0331,0.13345 -0.33073,0.13345 -0.3638,0 -0.51263,-0.0601 -0.33073,-0.13345 z m -27.25208,-0.26459 c 0.1819,-0.0734 0.47956,-0.0734 0.66146,0 0.1819,0.0734 0.0331,0.13346 -0.33073,0.13346 -0.3638,0 -0.51263,-0.0601 -0.33073,-0.13346 z m 29.63333,0 c 0.1819,-0.0734 0.47956,-0.0734 0.66146,0 0.1819,0.0734 0.0331,0.13346 -0.33073,0.13346 -0.3638,0 -0.51263,-0.0601 -0.33073,-0.13346 z m -31.48542,-0.26458 c 0.18191,-0.0734 0.47956,-0.0734 0.66146,0 0.1819,0.0734 0.0331,0.13345 -0.33073,0.13345 -0.3638,0 -0.51263,-0.0601 -0.33073,-0.13345 z m 33.61862,-0.006 c 0.191,-0.0764 0.4192,-0.067 0.50712,0.0209 0.0879,0.0879 -0.0683,0.15047 -0.34726,0.13899 -0.30823,-0.0127 -0.37092,-0.0754 -0.15986,-0.15986 z m -35.18958,-0.26458 c 0.191,-0.0764 0.4192,-0.067 0.50712,0.0209 0.0879,0.0879 -0.0683,0.15047 -0.34727,0.13899 -0.30822,-0.0127 -0.37091,-0.0754 -0.15985,-0.15986 z m 36.77708,0 c 0.191,-0.0764 0.4192,-0.067 0.50712,0.0209 0.0879,0.0879 -0.0684,0.15047 -0.34726,0.13899 -0.30823,-0.0127 -0.37092,-0.0754 -0.15986,-0.15986 z m -38.36458,-0.26458 c 0.191,-0.0764 0.4192,-0.067 0.50712,0.0209 0.0879,0.0879 -0.0683,0.15047 -0.34727,0.13898 -0.30822,-0.0127 -0.37091,-0.0754 -0.15985,-0.15986 z m 39.95208,0 c 0.191,-0.0764 0.4192,-0.067 0.50712,0.0209 0.0879,0.0879 -0.0684,0.15047 -0.34726,0.13898 -0.30823,-0.0127 -0.37092,-0.0754 -0.15986,-0.15986 z m 1.5875,-0.26459 c 0.191,-0.0764 0.4192,-0.067 0.50712,0.0209 0.0879,0.0879 -0.0684,0.15046 -0.34726,0.13898 -0.30823,-0.0127 -0.37092,-0.0754 -0.15986,-0.15986 z m -44.45,-0.26458 c 0.191,-0.0764 0.41921,-0.067 0.50712,0.0209 0.0879,0.0879 -0.0684,0.15047 -0.34726,0.13899 -0.30823,-0.0127 -0.37092,-0.0754 -0.15986,-0.15986 z m 45.77292,0 c 0.19099,-0.0764 0.4192,-0.067 0.50712,0.0209 0.0879,0.0879 -0.0683,0.15047 -0.34727,0.13899 -0.30822,-0.0127 -0.37092,-0.0754 -0.15985,-0.15986 z m -176.307623,-23.43327 -1.045885,-1.12448 1.12448,1.04587 c 0.618463,0.57526 1.124479,1.08127 1.124479,1.12448 0,0.20018 -0.230413,-1.1e-4 -1.203074,-1.04587 z m 306.929103,0.0661 c 0.56838,-0.58208 1.09296,-1.05833 1.16572,-1.05833 0.0728,0 -0.33276,0.47625 -0.90114,1.05833 -0.56838,0.58209 -1.09297,1.05834 -1.16573,1.05834 -0.0728,0 0.33277,-0.47625 0.90115,-1.05834 z M 62.70991,178.5748 c -0.329107,-0.41966 -0.319749,-0.429 0.0999,-0.0999 0.44073,0.34565 0.580887,0.56293 0.363125,0.56293 -0.05494,0 -0.2633,-0.20836 -0.463021,-0.46302 z m -1.5875,-1.32292 c -0.329107,-0.41965 -0.319749,-0.429 0.0999,-0.0999 0.254662,0.19972 0.463021,0.40809 0.463021,0.46301 0,0.21778 -0.217273,0.0776 -0.562917,-0.36311 z m 151.37541,0.36311 c 0,-0.0549 0.20836,-0.26329 0.46302,-0.46301 0.41965,-0.3291 0.429,-0.31975 0.0999,0.0999 -0.34565,0.44072 -0.56292,0.58089 -0.56292,0.36311 z m -153.351173,-2.0829 -0.504028,-0.59531 0.595312,0.50402 c 0.559446,0.47367 0.715762,0.6866 0.504029,0.6866 -0.05021,0 -0.318098,-0.26789 -0.595313,-0.59531 z m 155.600133,0.0661 c 0.26339,-0.29104 0.53842,-0.52916 0.61118,-0.52916 0.0728,0 -0.0832,0.23812 -0.3466,0.52916 -0.26339,0.29105 -0.53842,0.52917 -0.61118,0.52917 -0.0728,0 0.0832,-0.23812 0.3466,-0.52917 z m -234.281516,-1.04522 c -0.163982,-0.3064 -0.409875,-0.48805 -0.546427,-0.40365 -0.136553,0.0844 -0.177372,-0.0313 -0.09071,-0.25718 0.08689,-0.22641 0.01918,-0.41061 -0.150937,-0.41061 -0.169678,0 -0.234921,-0.11906 -0.144984,-0.26459 0.08994,-0.14552 0.03221,-0.26458 -0.128275,-0.26458 -0.160488,0 -0.267484,-0.14883 -0.237768,-0.33073 0.02972,-0.1819 -0.113892,-0.68791 -0.31913,-1.12448 -0.318142,-0.67672 -0.383923,-12.84773 -0.446159,-82.549993 -0.06544,-73.292197 -0.03024,-81.9507733 0.340047,-83.635235 0.816387,-3.7138397 3.277618,-7.7017585 6.132213,-9.9359927 1.664937,-1.3031152 142.124986,-80.0921513 144.576136,-81.0978943 3.36231,-1.37961 8.02914,-1.785212 11.74334,-1.020634 2.59082,0.533326 4.42575,1.506927 33.46979,17.758859 14.04276,7.857789 45.16547,25.235072 69.16158,38.616186 l 43.62926,24.3292987 2.27595,2.2032514 c 1.25174,1.211789 2.13045,2.1295756 1.95265,2.0395247 -0.17777,-0.090048 -0.59449,0.011033 -0.92604,0.2246418 -0.33153,0.2136061 -12.33043,7.0765746 -26.66423,15.2510434 -14.3338,8.174468 -26.14893,14.999572 -26.25585,15.166894 -0.14018,0.219396 -0.19551,0.209897 -0.19843,-0.03406 -0.002,-0.186055 -0.72603,-1.484265 -1.60844,-2.884906 -9.25494,-14.690272 -22.44297,-27.7832883 -37.27378,-37.005237 -24.91945,-15.495171 -54.8722,-21.006346 -83.8885,-15.435121 -14.25133,2.736305 -28.38908,8.373549 -40.613535,16.194126 -28.262272,18.0812668 -47.352416,47.12874 -52.630925,80.083484 -1.126384,7.032225 -1.344073,10.031901 -1.344073,18.520832 0,10.067168 0.703324,16.803552 2.679555,25.664582 2.072272,9.29166 6.287245,20.81101 10.342152,28.26465 0.679714,1.24943 1.098586,2.30201 0.967599,2.43146 -0.260651,0.2576 -52.546877,30.09642 -53.129114,30.31985 -0.214427,0.0823 -0.502397,-0.0946 -0.672965,-0.41327 z m 73.806504,-3.65113 -2.508316,-2.57969 2.579688,2.50832 c 2.395987,2.3297 2.700043,2.65106 2.508316,2.65106 -0.03925,0 -1.200113,-1.16086 -2.579688,-2.57969 z m 165.369802,0.0662 c 1.3767,-1.38245 2.56262,-2.51355 2.63538,-2.51355 0.0728,0 -0.9941,1.1311 -2.3708,2.51355 -1.3767,1.38244 -2.56262,2.51354 -2.63538,2.51354 -0.0728,0 0.9941,-1.1311 2.3708,-2.51354 z m 75.95629,-1.87414 c 0.0127,-0.30822 0.0754,-0.37091 0.15986,-0.15985 0.0764,0.191 0.067,0.4192 -0.0209,0.50712 -0.0879,0.0879 -0.15047,-0.0684 -0.13899,-0.34727 z m -245.976212,-3.0868 -0.504029,-0.59531 0.595313,0.50402 c 0.559445,0.47367 0.715761,0.6866 0.504028,0.6866 -0.05021,0 -0.318098,-0.26789 -0.595312,-0.59531 z m 174.650132,0.0661 c 0.26339,-0.29104 0.53842,-0.52916 0.61118,-0.52916 0.0728,0 -0.0832,0.23812 -0.3466,0.52916 -0.26339,0.29105 -0.53842,0.52917 -0.61118,0.52917 -0.0728,0 0.0832,-0.23812 0.3466,-0.52917 z M 47.893244,164.02319 c -0.329107,-0.41964 -0.319749,-0.429 0.0999,-0.0999 0.44073,0.34564 0.580887,0.56291 0.363125,0.56291 -0.05494,0 -0.2633,-0.20835 -0.463021,-0.46302 z m 177.833746,0.36313 c 0,-0.0549 0.20835,-0.2633 0.46302,-0.46302 0.41964,-0.32911 0.429,-0.31975 0.0999,0.0999 -0.34564,0.44073 -0.56291,0.58089 -0.56291,0.36313 z M 133.05976,146.572 c 0.32912,-0.0633 0.80537,-0.0609 1.05834,0.005 0.25296,0.0662 -0.0163,0.118 -0.5984,0.11506 -0.58208,-0.003 -0.78906,-0.0571 -0.45994,-0.1204 z m 7.14375,0 c 0.32912,-0.0633 0.80537,-0.0609 1.05834,0.005 0.25296,0.0662 -0.0163,0.118 -0.5984,0.11506 -0.58209,-0.003 -0.78906,-0.0571 -0.45994,-0.1204 z m -10.05725,-0.25268 c 0.1819,-0.0734 0.47956,-0.0734 0.66146,0 0.1819,0.0734 0.0331,0.13345 -0.33073,0.13345 -0.3638,0 -0.51263,-0.06 -0.33073,-0.13345 z m 13.22917,0 c 0.1819,-0.0734 0.47955,-0.0734 0.66146,0 0.1819,0.0734 0.0331,0.13345 -0.33073,0.13345 -0.36381,0 -0.51263,-0.06 -0.33073,-0.13345 z m -15.34584,-0.26458 c 0.18191,-0.0734 0.47956,-0.0734 0.66146,0 0.1819,0.0734 0.0331,0.13345 -0.33073,0.13345 -0.3638,0 -0.51263,-0.06 -0.33073,-0.13345 z m 17.4625,0 c 0.1819,-0.0734 0.47956,-0.0734 0.66146,0 0.1819,0.0734 0.0331,0.13345 -0.33073,0.13345 -0.3638,0 -0.51263,-0.06 -0.33073,-0.13345 z m -18.76888,-0.2701 c 0.191,-0.0764 0.4192,-0.067 0.50712,0.0209 0.0879,0.0879 -0.0683,0.15045 -0.34726,0.13896 -0.30823,-0.0127 -0.37092,-0.0754 -0.15986,-0.15985 z m -1.5875,-0.26458 c 0.191,-0.0764 0.4192,-0.067 0.50712,0.0209 0.0879,0.0879 -0.0684,0.15046 -0.34726,0.13897 -0.30823,-0.0127 -0.37092,-0.0754 -0.15986,-0.15985 z m -24.06122,-11.1302 c -0.32911,-0.41964 -0.31975,-0.429 0.0999,-0.0999 0.25466,0.19972 0.46302,0.40808 0.46302,0.46302 0,0.21776 -0.21727,0.0776 -0.56292,-0.36313 z m -1.322915,-1.05833 c -0.329107,-0.41965 -0.319749,-0.429 0.0999,-0.0999 0.254655,0.19972 0.463015,0.40808 0.463015,0.46302 0,0.21777 -0.21727,0.0776 -0.562911,-0.36312 z m 74.117075,0.36312 c 0,-0.0549 0.20836,-0.2633 0.46303,-0.46302 0.41964,-0.3291 0.429,-0.31975 0.0999,0.0999 -0.34564,0.44073 -0.56292,0.58089 -0.56292,0.36312 z m -76.348928,-2.3475 -0.777105,-0.85989 0.859896,0.7771 c 0.801544,0.72437 0.981511,0.94269 0.777105,0.94269 -0.04553,0 -0.432488,-0.38695 -0.859896,-0.8599 z m 78.730178,0.19844 c 0.34178,-0.3638 0.68094,-0.66146 0.7537,-0.66146 0.0728,0 -0.14734,0.29766 -0.48911,0.66146 -0.34178,0.3638 -0.68094,0.66146 -0.7537,0.66146 -0.0728,0 0.14734,-0.29766 0.48911,-0.66146 z m -82.570018,-4.03489 -0.641432,-0.72761 0.727604,0.64143 c 0.680056,0.59952 0.84894,0.81378 0.641432,0.81378 -0.04739,0 -0.374814,-0.32742 -0.727604,-0.7276 z m 86.538768,0.0661 c 0.34178,-0.3638 0.68094,-0.66146 0.7537,-0.66146 0.0728,0 -0.14734,0.29766 -0.48911,0.66146 -0.34178,0.3638 -0.68094,0.66146 -0.7537,0.66146 -0.0728,0 0.14734,-0.29766 0.48911,-0.66146 z m -88.404575,-2.18281 c -0.329107,-0.41965 -0.319749,-0.429 0.0999,-0.0999 0.44073,0.34565 0.580888,0.56292 0.363125,0.56292 -0.05494,0 -0.2633,-0.20836 -0.463021,-0.46302 z m 89.992075,0.36312 c 0,-0.0549 0.20836,-0.2633 0.46303,-0.46302 0.41964,-0.3291 0.429,-0.31975 0.0999,0.0999 -0.34564,0.44073 -0.56292,0.58089 -0.56292,0.36312 z m -91.050408,-1.68604 c -0.329107,-0.41964 -0.319749,-0.429 0.0999,-0.0999 0.254661,0.19972 0.463021,0.40808 0.463021,0.46302 0,0.21776 -0.217273,0.0776 -0.562917,-0.36313 z m 92.108748,0.36313 c 0,-0.0549 0.20836,-0.2633 0.46302,-0.46302 0.41964,-0.32911 0.429,-0.31975 0.0999,0.0999 -0.34564,0.44073 -0.56291,0.58089 -0.56291,0.36313 z M 84.104734,112.95861 C 72.407547,87.98639 79.937277,58.085281 102.10304,41.485996 122.905,25.908028 151.508,26.002818 172.41205,41.719001 c 4.79498,3.604985 9.66319,8.725069 12.96342,13.634137 0.81555,1.213115 1.626,2.263841 1.80102,2.334943 0.18372,0.07464 0.13195,0.138107 -0.1225,0.150167 -0.24239,0.01149 -23.19627,12.9987 -51.00863,28.86047 C 108.233,102.56049 85.440459,115.5383 85.39526,115.5383 c -0.0452,0 -0.625935,-1.16086 -1.290526,-2.57969 z M 295.59786,7.4339663 c 0.0127,-0.3082264 0.0754,-0.3709194 0.15986,-0.1598533 0.0764,0.1909947 0.067,0.4192005 -0.0209,0.5071189 -0.0879,0.087918 -0.15047,-0.068352 -0.13899,-0.3472656 z"
         id="path924" />
      <path
         style="fill:#00579a;stroke-width:0.264583"
         d="m 135.71905,263.52422 c 0.19099,-0.0764 0.4192,-0.067 0.50712,0.0209 0.0879,0.0879 -0.0684,0.15047 -0.34727,0.13899 -0.30823,-0.0127 -0.37092,-0.0754 -0.15985,-0.15986 z m 2.38125,0 c 0.19099,-0.0764 0.4192,-0.067 0.50712,0.0209 0.0879,0.0879 -0.0684,0.15047 -0.34727,0.13899 -0.30823,-0.0127 -0.37092,-0.0754 -0.15985,-0.15986 z m -8.20209,-58.47291 c 0.191,-0.0764 0.4192,-0.067 0.50712,0.0209 0.0879,0.0879 -0.0683,0.15047 -0.34726,0.13899 -0.30823,-0.0127 -0.37092,-0.0754 -0.15986,-0.15986 z m 14.02292,0 c 0.19099,-0.0764 0.4192,-0.067 0.50712,0.0209 0.0879,0.0879 -0.0683,0.15047 -0.34727,0.13899 -0.30822,-0.0127 -0.37092,-0.0754 -0.15985,-0.15986 z m -83.857053,-28.5927 c -0.329108,-0.41965 -0.319749,-0.429 0.0999,-0.0999 0.254661,0.19972 0.463021,0.40808 0.463021,0.46302 0,0.21777 -0.217274,0.0776 -0.562917,-0.36312 z m 153.492073,0.36312 c 0,-0.0549 0.20836,-0.2633 0.46302,-0.46302 0.41965,-0.3291 0.42901,-0.31975 0.0999,0.0999 -0.34564,0.44073 -0.56292,0.58089 -0.56292,0.36312 z m 51.85833,-16.08081 C 232.98121,142.85626 198.47754,123.8715 161.1048,103.34719 146.15379,95.136415 133.92012,88.262655 133.91886,88.072165 c -0.001,-0.190489 0.11678,-0.272759 0.2623,-0.182822 0.14552,0.08994 0.26458,0.03041 0.26458,-0.132291 0,-0.162698 0.1199,-0.221708 0.26645,-0.131136 0.14655,0.09057 0.33762,-0.02077 0.4246,-0.247449 0.087,-0.226671 0.26474,-0.346252 0.39501,-0.265739 0.13027,0.08051 0.23686,0.01327 0.23686,-0.149426 0,-0.162698 0.11906,-0.222229 0.26458,-0.132292 0.14552,0.08994 0.26458,0.03041 0.26458,-0.132292 0,-0.162697 0.10659,-0.229938 0.23686,-0.149426 0.13027,0.08051 0.30803,-0.03907 0.39501,-0.265739 0.087,-0.226669 0.27805,-0.338019 0.4246,-0.247449 0.14655,0.09057 0.26645,0.03156 0.26645,-0.131136 0,-0.162697 0.11906,-0.222228 0.26458,-0.132291 0.14552,0.08994 0.26459,0.03041 0.26459,-0.132292 0,-0.162697 0.10658,-0.229939 0.23686,-0.149426 0.13027,0.08051 0.30802,-0.03907 0.395,-0.265739 0.087,-0.226669 0.27805,-0.338019 0.4246,-0.247449 0.14655,0.09057 0.26645,0.03156 0.26645,-0.131136 0,-0.162697 0.11907,-0.222229 0.26459,-0.132291 0.14552,0.08994 0.26458,0.03041 0.26458,-0.132292 0,-0.162698 0.10659,-0.229939 0.23686,-0.149426 0.13027,0.08051 0.30803,-0.03907 0.395,-0.26574 0.087,-0.226668 0.27805,-0.338018 0.42461,-0.247449 0.14654,0.09057 0.26645,0.03156 0.26645,-0.131135 0,-0.162698 0.11906,-0.222229 0.26458,-0.132292 0.14552,0.08994 0.26458,0.03041 0.26458,-0.132291 0,-0.162698 0.10659,-0.229939 0.23686,-0.149426 0.13027,0.08051 0.30803,-0.03907 0.39501,-0.26574 0.087,-0.226669 0.27805,-0.338018 0.4246,-0.247449 0.14655,0.09057 0.26645,0.03156 0.26645,-0.131135 0,-0.162698 0.11906,-0.222229 0.26458,-0.132292 0.14552,0.08994 0.26459,0.03041 0.26459,-0.132292 0,-0.162697 0.10658,-0.229938 0.23686,-0.149426 0.13027,0.08051 0.30802,-0.03907 0.395,-0.265739 0.087,-0.226669 0.27805,-0.338019 0.4246,-0.247449 0.14655,0.09057 0.26645,0.03156 0.26645,-0.131136 0,-0.162697 0.11907,-0.222228 0.26459,-0.132291 0.14552,0.08994 0.26458,0.03041 0.26458,-0.132292 0,-0.162698 0.10659,-0.229939 0.23686,-0.149426 0.13027,0.08051 0.30802,-0.03907 0.395,-0.26574 0.087,-0.226668 0.27805,-0.338018 0.4246,-0.247448 0.14655,0.09057 0.26646,0.03156 0.26646,-0.131136 0,-0.162697 0.11906,-0.222229 0.26458,-0.132292 0.14552,0.08994 0.26458,0.03041 0.26458,-0.132291 0,-0.162698 0.11907,-0.222229 0.26459,-0.132292 0.14552,0.08994 0.26458,0.03743 0.26458,-0.116676 0,-0.154109 0.17859,-0.280199 0.39687,-0.280199 0.21829,0 0.39688,-0.12609 0.39688,-0.280199 0,-0.154109 0.11906,-0.206613 0.26458,-0.116676 0.14552,0.08994 0.26459,0.03041 0.26459,-0.132292 0,-0.162697 0.11906,-0.222228 0.26458,-0.132291 0.14552,0.08994 0.26458,0.03743 0.26458,-0.116676 0,-0.154109 0.1786,-0.280199 0.39688,-0.280199 0.21828,0 0.39687,-0.12609 0.39687,-0.280199 0,-0.154109 0.11907,-0.206613 0.26459,-0.116676 0.14552,0.08994 0.26458,0.03041 0.26458,-0.132292 0,-0.162697 0.11906,-0.222229 0.26458,-0.132291 0.14552,0.08994 0.26459,0.03743 0.26459,-0.116676 0,-0.15411 0.17859,-0.280199 0.39687,-0.280199 0.21828,0 0.39688,-0.12609 0.39688,-0.280199 0,-0.15411 0.11906,-0.206614 0.26458,-0.116676 0.14552,0.08994 0.26458,0.03041 0.26458,-0.132292 0,-0.162698 0.11906,-0.222229 0.26459,-0.132292 0.14552,0.08994 0.26458,0.03743 0.26458,-0.116676 0,-0.154109 0.17859,-0.280199 0.39687,-0.280199 0.21829,0 0.39688,-0.12609 0.39688,-0.280199 0,-0.154109 0.11906,-0.206613 0.26458,-0.116676 0.14552,0.08994 0.26459,0.03041 0.26459,-0.132291 0,-0.162698 0.11906,-0.222229 0.26458,-0.132292 0.14552,0.08994 0.26458,0.03743 0.26458,-0.116676 0,-0.154109 0.1786,-0.280199 0.39688,-0.280199 0.21828,0 0.39687,-0.12609 0.39687,-0.280199 0,-0.154109 0.11906,-0.206613 0.26459,-0.116676 0.14552,0.08994 0.26458,0.03041 0.26458,-0.132292 0,-0.162697 0.11906,-0.222228 0.26458,-0.132291 0.14552,0.08994 0.26459,0.03743 0.26459,-0.116676 0,-0.154109 0.17859,-0.280199 0.39687,-0.280199 0.21828,0 0.39688,-0.12609 0.39688,-0.280199 0,-0.15411 0.11906,-0.206613 0.26458,-0.116676 0.14552,0.08994 0.26458,0.03041 0.26458,-0.132292 0,-0.162698 0.11906,-0.222229 0.26459,-0.132292 0.14552,0.08994 0.26458,0.03743 0.26458,-0.116676 0,-0.154109 0.17859,-0.280199 0.39687,-0.280199 0.21828,0 0.39688,-0.126089 0.39688,-0.280199 0,-0.154109 0.11906,-0.206613 0.26458,-0.116676 0.14552,0.08994 0.26459,0.03041 0.26459,-0.132291 0,-0.162698 0.11906,-0.222229 0.26458,-0.132292 0.14552,0.08994 0.26458,0.03743 0.26458,-0.116676 0,-0.154109 0.1786,-0.280199 0.39688,-0.280199 0.21828,0 0.39687,-0.12609 0.39687,-0.280199 0,-0.154109 0.11906,-0.206613 0.26459,-0.116676 0.14552,0.08994 0.26458,0.0176 0.26458,-0.160774 0,-0.178363 0.0722,-0.25209 0.16046,-0.163838 0.0882,0.08825 0.40393,-0.06638 0.70152,-0.34363 0.29759,-0.277246 0.64211,-0.441643 0.76559,-0.365326 0.12348,0.07632 0.22451,-0.0072 0.22451,-0.185539 0,-0.178364 0.0722,-0.25209 0.16046,-0.163838 0.0882,0.08825 0.40394,-0.06638 0.70153,-0.34363 0.29759,-0.277247 0.6421,-0.441643 0.76558,-0.365326 0.12348,0.07632 0.22452,-0.0072 0.22452,-0.185539 0,-0.178364 0.0722,-0.25209 0.16045,-0.163838 0.0882,0.08825 0.40394,-0.06638 0.70153,-0.343631 0.29759,-0.277246 0.6421,-0.441642 0.76558,-0.365326 0.12349,0.07632 0.22452,-0.0072 0.22452,-0.185539 0,-0.178363 0.0722,-0.252089 0.16045,-0.163838 0.0883,0.08825 0.40394,-0.06638 0.70153,-0.34363 0.29759,-0.277246 0.64211,-0.441642 0.76559,-0.365326 0.12348,0.07632 0.22451,-0.0072 0.22451,-0.185539 0,-0.178364 0.0722,-0.25209 0.16046,-0.163838 0.0882,0.08825 0.40394,-0.06638 0.70152,-0.34363 0.2976,-0.277246 0.64211,-0.441643 0.76559,-0.365326 0.12348,0.07632 0.22451,-0.0072 0.22451,-0.185539 0,-0.178364 0.0722,-0.25209 0.16046,-0.163838 0.0882,0.08825 0.40394,-0.06638 0.70153,-0.34363 0.29759,-0.277247 0.6421,-0.441643 0.76558,-0.365327 0.12349,0.07632 0.22452,-0.0072 0.22452,-0.185539 0,-0.178363 0.0722,-0.252089 0.16045,-0.163838 0.0883,0.08825 0.40394,-0.06638 0.70153,-0.34363 0.29759,-0.277246 0.64211,-0.441642 0.76559,-0.365326 0.12348,0.07632 0.22451,-0.0072 0.22451,-0.185539 0,-0.178363 0.0722,-0.25209 0.16046,-0.163838 0.0882,0.08825 0.40394,-0.06638 0.70152,-0.34363 0.29759,-0.277246 0.64211,-0.441642 0.76559,-0.365326 0.12348,0.07632 0.22451,-0.0072 0.22451,-0.185539 0,-0.178364 0.0722,-0.25209 0.16046,-0.163838 0.0883,0.08825 0.40394,-0.06638 0.70153,-0.34363 0.29759,-0.277247 0.6421,-0.441643 0.76558,-0.365326 0.12349,0.07632 0.22452,0.0056 0.22452,-0.157057 0,-0.162698 0.11906,-0.222229 0.26458,-0.132292 0.14552,0.08994 0.26458,0.05654 0.26458,-0.07421 0,-0.232709 0.96051,-0.767276 1.42563,-0.793425 0.12925,-0.0073 0.30784,-0.126619 0.39688,-0.265224 0.18882,-0.293965 5.01481,-3.063305 5.44942,-3.127094 0.36781,-0.05398 51.01988,-28.972519 51.20099,-29.231927 0.0728,-0.104219 11.85995,-6.87769 26.19375,-15.052158 14.3338,-8.1744688 26.34403,-15.0448589 26.68942,-15.2675349 0.58446,-0.3768328 0.67048,-0.3617436 1.24211,0.21794 1.11736,1.13304892 2.43107,3.643225 3.06308,5.8527523 l 0.62309,2.1783807 -0.0286,81.6255999 c -0.0269,76.658969 -0.0566,81.722099 -0.48803,83.211459 -0.25268,0.87222 -0.58179,1.73468 -0.73139,1.91658 -0.14956,0.1819 -0.19478,0.33073 -0.10048,0.33073 0.0943,0 -0.0268,0.38695 -0.26911,0.8599 -0.40807,0.79643 -0.83982,1.25843 -1.16049,1.24181 -0.0728,-0.004 -12.45526,-6.80211 -27.51667,-15.10742 z m -48.94791,13.40259 c 0.34177,-0.36381 0.68094,-0.66146 0.7537,-0.66146 0.0728,0 -0.14734,0.29765 -0.48912,0.66146 -0.34177,0.3638 -0.68094,0.66145 -0.7537,0.66145 -0.0728,0 0.14734,-0.29765 0.48912,-0.66145 z m -159.172006,-0.19844 -0.504029,-0.59531 0.595313,0.50402 c 0.559445,0.47367 0.715761,0.6866 0.504029,0.6866 -0.05021,0 -0.318098,-0.26789 -0.595313,-0.59531 z m -6.212596,-6.21771 -0.641432,-0.7276 0.727604,0.64143 c 0.680056,0.59951 0.848939,0.81377 0.641432,0.81377 -0.04739,0 -0.374814,-0.32742 -0.727604,-0.7276 z m 171.734602,0.0661 c 0.34177,-0.36381 0.68094,-0.66146 0.7537,-0.66146 0.0728,0 -0.14734,0.29765 -0.48912,0.66146 -0.34177,0.3638 -0.68094,0.66145 -0.7537,0.66145 -0.0728,0 0.14734,-0.29765 0.48912,-0.66145 z M 48.686994,165.08153 c -0.329107,-0.41965 -0.319749,-0.42901 0.0999,-0.0999 0.44073,0.34564 0.580887,0.56292 0.363125,0.56292 -0.05494,0 -0.2633,-0.20836 -0.463021,-0.46302 z m 176.246246,0.36312 c 0,-0.0549 0.20835,-0.2633 0.46302,-0.46302 0.41964,-0.32911 0.429,-0.31975 0.0999,0.0999 -0.34564,0.44073 -0.56291,0.58088 -0.56291,0.36312 z m -90.15677,-18.8679 c 0.25466,-0.0666 0.67138,-0.0666 0.92604,0 0.25466,0.0666 0.0463,0.121 -0.46302,0.121 -0.50932,0 -0.71768,-0.0545 -0.46302,-0.121 z m 3.70417,0 c 0.25466,-0.0666 0.67138,-0.0666 0.92604,0 0.25466,0.0666 0.0463,0.121 -0.46302,0.121 -0.50933,0 -0.71769,-0.0545 -0.46302,-0.121 z m 39.75364,-17.01553 c 0.71666,-0.72761 1.36256,-1.32292 1.43532,-1.32292 0.0728,0 -0.45407,0.59531 -1.17074,1.32292 -0.71666,0.7276 -1.36255,1.32291 -1.43531,1.32291 -0.0728,0 0.45407,-0.59531 1.17073,-1.32291 z m -82.682288,-0.1323 c -0.642681,-0.65484 -1.10898,-1.19062 -1.03622,-1.19062 0.07276,0 0.658122,0.53578 1.300803,1.19062 0.642681,0.65485 1.10898,1.19063 1.03622,1.19063 -0.07276,0 -0.658122,-0.53578 -1.300803,-1.19063 z"
         id="path922" />
      <path
         style="fill:#004381;stroke-width:0.264583"
         d="m 134.64192,263.41466 c -0.9835,-0.13033 -2.60639,-0.52284 -3.60642,-0.87223 -1.8398,-0.64278 -141.335884,-78.7038 -144.831134,-81.04647 -2.136179,-1.43174 -4.323966,-3.77214 -5.324014,-5.69535 -0.398252,-0.76589 -0.558958,-1.19132 -0.357125,-0.94541 0.334731,0.40784 2.689768,-0.87901 26.8077642,-14.64833 14.5424388,-8.3025 26.6334408,-15.15121 26.8688938,-15.21936 0.308996,-0.0894 0.706689,0.379 1.429443,1.68375 1.370568,2.47421 5.616586,8.94002 7.591039,11.55959 6.852864,9.09193 16.036545,18.17718 24.81496,24.549 10.479229,7.60635 23.138517,13.95513 34.924993,17.51531 6.23968,1.88471 15.2388,3.69924 22.09271,4.45466 4.28615,0.47241 19.82494,0.46995 24.07708,-0.004 21.27635,-2.37045 40.53936,-9.85218 57.54688,-22.3511 8.55985,-6.29069 17.57507,-15.26072 24.28579,-24.16406 1.72658,-2.29071 6.1672,-8.99409 7.21025,-10.88431 0.37534,-0.6802 0.76291,-1.07941 0.97056,-0.99973 0.19014,0.073 12.3718,6.75001 27.07036,14.83788 14.69858,8.08787 26.8592,14.62208 27.02361,14.52047 0.16441,-0.10161 0.0734,0.20059 -0.20217,0.67156 -0.89841,1.53523 -3.22381,3.89078 -5.05661,5.12216 -1.99948,1.34336 -141.93834,79.89887 -143.61117,80.61695 -2.69673,1.15765 -6.72823,1.69603 -9.72569,1.29883 z m -1.5191,-116.93161 c -7.61458,-0.50289 -14.46127,-2.34586 -21.60628,-5.81589 -6.10515,-2.96502 -11.25669,-6.69674 -16.125738,-11.68132 -3.774207,-3.86375 -6.634315,-7.62044 -9.043203,-11.87804 l -0.833523,-1.47322 24.135104,-13.76846 c 13.27431,-7.572648 24.19463,-13.682078 24.26739,-13.576507 0.0728,0.105571 12.09808,6.770229 26.72292,14.810357 14.62484,8.04012 26.63881,14.66224 26.69769,14.71582 0.13699,0.12464 -2.0033,3.3592 -3.91813,5.92137 -1.84635,2.47055 -6.3884,7.19996 -9.03361,9.40626 -11.36144,9.47626 -26.35684,14.32406 -41.26262,13.33963 z m 162.58283,-43.38017 c 0,-20.445672 0.0314,-28.809812 0.0697,-18.586974 0.0384,10.222838 0.0384,26.951114 0,37.173954 -0.0384,10.22284 -0.0697,1.8587 -0.0697,-18.58698 z m -0.10779,-38.254333 c 0.0127,-0.308227 0.0754,-0.37092 0.15986,-0.159854 0.0764,0.190995 0.067,0.419201 -0.0209,0.507119 -0.0879,0.08792 -0.15047,-0.06835 -0.13899,-0.347265 z"
         id="path920" />
    </g>
  </g>
</svg>
