<?xml version="1.0" encoding="UTF-8" standalone="no"?>
<!-- Created with Inkscape (http://www.inkscape.org/) -->

<svg
   width="300mm"
   height="300mm"
   viewBox="0 0 300 300"
   version="1.1"
   id="svg5"
   inkscape:version="1.1 (c68e22c387, 2021-05-23)"
   sodipodi:docname="calendar.svg"
   xmlns:inkscape="http://www.inkscape.org/namespaces/inkscape"
   xmlns:sodipodi="http://sodipodi.sourceforge.net/DTD/sodipodi-0.dtd"
   xmlns="http://www.w3.org/2000/svg"
   xmlns:svg="http://www.w3.org/2000/svg">
  <sodipodi:namedview
     id="namedview7"
     pagecolor="#ffffff"
     bordercolor="#666666"
     borderopacity="1.0"
     inkscape:pageshadow="2"
     inkscape:pageopacity="0.0"
     inkscape:pagecheckerboard="0"
     inkscape:document-units="mm"
     showgrid="false"
     inkscape:zoom="0.35355339"
     inkscape:cx="57.982756"
     inkscape:cy="476.58997"
     inkscape:window-width="1920"
     inkscape:window-height="1017"
     inkscape:window-x="1912"
     inkscape:window-y="-8"
     inkscape:window-maximized="1"
     inkscape:current-layer="layer1" />
  <defs
     id="defs2" />
  <g
     inkscape:label="Calque 1"
     inkscape:groupmode="layer"
     id="layer1">
    <path
       style="fill:#ffffff;stroke-width:0.303538"
       d="m 47.057669,297.44376 c -8.740917,-1.84109 -16.359199,-6.81432 -21.522424,-14.04993 -1.938181,-2.71612 -4.293474,-7.7773 -5.275643,-11.33659 l -0.823954,-2.98597 V 165.41278 61.754298 l 0.819354,-2.967812 c 2.813405,-10.190527 9.662501,-18.349603 19.188057,-22.858045 1.516895,-0.717939 4.123913,-1.678093 5.793378,-2.133659 2.896442,-0.790386 3.426843,-0.834153 11.586572,-0.956127 l 8.551189,-0.127836 0.10371,-7.181277 c 0.103251,-7.150578 0.107725,-7.192659 1.051186,-9.840656 1.249647,-3.507447 2.545917,-5.633752 5.071195,-8.3183573 4.262774,-4.5317198 9.439721,-6.76514167 15.703613,-6.77480137 9.691676,-0.014914 18.075338,6.42544587 20.942328,16.08802767 0.58552,1.973344 0.69165,3.17818 0.8084,9.177084 l 0.1344,6.905506 h 11.05034 11.05033 l 0.006,-6.146657 c 0.006,-6.611699 0.29869,-8.802226 1.61253,-12.054953 1.25434,-3.105445 2.67086,-5.2053627 5.25579,-7.7914903 4.43292,-4.4349507 9.53568,-6.38520097 15.99734,-6.11410977 5.75093,0.2412746 10.04792,2.14397207 14.18594,6.28154847 2.63802,2.6377069 4.43164,5.4954526 5.63568,8.9792666 0.80702,2.33501 0.84374,2.705268 0.95611,9.637355 l 0.1169,7.20904 h 11.05118 11.05118 v -5.481434 c 0,-3.01479 0.15212,-6.463752 0.33808,-7.664354 1.41595,-9.142094 8.13924,-16.5573838 16.86677,-18.60282 3.11965,-0.73113167 8.63889,-0.45156237 11.57353,0.5862361 5.75922,2.0366829 9.97666,5.7939859 12.66194,11.2805819 1.99434,4.074788 2.29241,5.667664 2.48501,13.279819 l 0.16704,6.601971 h 5.82587 c 3.9858,0 6.7296,0.155106 8.68713,0.491073 12.59585,2.161858 23.04633,11.153458 27.11757,23.332002 1.81583,5.431804 1.7096,-1.770502 1.62339,110.03761 l -0.0789,102.44424 -0.85249,3.03538 c -1.71737,6.11494 -4.92073,11.60301 -9.30157,15.93578 -4.3271,4.27962 -9.74272,7.397 -15.71433,9.04567 l -2.96779,0.81934 -102.89963,0.0559 c -99.964061,0.0543 -102.977579,0.0395 -105.631496,-0.51954 z M 255.82565,276.13913 c 3.89558,-1.86015 6.59954,-5.0894 7.69722,-9.19264 0.33469,-1.25097 0.40665,-17.45369 0.40962,-92.19989 l 0.003,-90.682206 H 151.93032 39.924507 v 90.919446 c 0,90.66891 0.0023,90.92449 0.618359,92.75498 1.478141,4.38777 4.463447,7.44159 8.758998,8.95997 l 2.005352,0.70886 101.078404,-0.0704 101.07841,-0.0704 z m -197.919045,-50.39802 0.07847,-16.77052 h 18.819406 18.819395 l 0.07847,16.77052 0.07847,16.77052 H 76.804505 57.828203 Z m 50.083895,0 0.0785,-16.77052 h 18.81941 18.8194 l 0.0785,16.77052 0.0785,16.77052 H 126.88841 107.9121 Z M 57.833297,181.1968 v -16.69464 h 18.971174 18.971162 v 16.69464 16.69463 H 76.804471 57.833297 Z m 50.083903,0 v -16.69464 h 18.97116 18.97118 v 16.69464 16.69463 H 126.88836 107.9172 Z m 50.08389,0 v -16.69464 h 18.97117 18.97117 v 16.69464 16.69463 h -18.97117 -18.97117 z m 50.08389,0 v -16.69464 h 18.97117 18.97118 v 16.69464 16.69463 h -18.97118 -18.97117 z m -99.96313,-27.82209 c -0.11254,-0.11254 -0.20465,-7.69448 -0.20465,-16.84871 v -16.64403 h 18.97373 18.97375 l -0.0785,16.77051 -0.0785,16.77052 -18.69064,0.0782 c -10.27985,0.043 -18.78273,-0.0139 -18.89528,-0.12647 z m 50.08389,0 c -0.11254,-0.11254 -0.20465,-7.69448 -0.20465,-16.84871 v -16.64403 h 18.97375 18.97372 l -0.0785,16.77051 -0.0785,16.77052 -18.69064,0.0782 c -10.27983,0.043 -18.78271,-0.0139 -18.89528,-0.12647 z m 50.08388,0 c -0.11254,-0.11254 -0.20464,-7.69448 -0.20464,-16.84871 v -16.64403 h 18.97376 18.97372 l -0.0785,16.77051 -0.0785,16.77052 -18.69065,0.0782 c -10.27982,0.043 -18.7827,-0.0139 -18.89528,-0.12647 z M 90.820573,72.233449 c 1.947589,-0.860562 3.851915,-2.805137 4.838077,-4.940333 l 0.875832,-1.896353 V 42.934891 20.473031 l -0.789537,-1.683312 c -1.102491,-2.350554 -2.433935,-3.751245 -4.589839,-4.828555 -2.163062,-1.0809 -4.67011,-1.238828 -7.009881,-0.441593 -1.935669,0.659545 -4.239668,2.807383 -5.276584,4.918957 l -0.850019,1.730957 v 22.917174 22.917174 l 0.834704,1.583434 c 2.459782,4.666202 7.496411,6.621637 11.967247,4.646182 z m 66.138347,-0.1334 c 1.95752,-0.890631 3.64298,-2.604681 4.65143,-4.730286 l 0.79205,-1.669465 V 42.934891 c 0,-22.690182 -0.003,-22.770087 -0.65592,-24.184648 -1.57864,-3.415864 -4.56231,-5.46699 -8.23823,-5.663419 -1.99895,-0.106808 -2.4057,-0.02524 -4.14769,0.832386 -2.22814,1.096916 -3.56785,2.489817 -4.68448,4.870509 l -0.78954,1.683312 v 22.613628 c 0,22.600308 3e-4,22.614476 0.66173,24.031068 2.35526,5.045053 7.62392,7.160172 12.41065,4.982322 z m 65.93551,0.05369 c 1.83106,-0.860104 3.68811,-2.720025 4.63294,-4.640068 l 0.74294,-1.509782 V 42.934949 19.866007 l -0.81795,-1.550359 c -0.44987,-0.852692 -1.50925,-2.171896 -2.35419,-2.931559 -4.166,-3.745624 -10.29721,-2.971529 -13.49778,1.704157 -2.0417,2.982715 -2.03092,2.833379 -1.9334,26.809851 l 0.0874,21.498723 0.78954,1.683312 c 2.42652,5.173359 7.60729,7.301649 12.35044,5.073608 z"
       id="path2207" />
  </g>
</svg>
