<?xml version="1.0" encoding="UTF-8" standalone="no"?>
<!-- Created with Inkscape (http://www.inkscape.org/) -->

<svg
   width="46.299999mm"
   height="46.284328mm"
   viewBox="0 0 46.299999 46.284328"
   version="1.1"
   id="svg5"
   inkscape:version="1.1 (c68e22c387, 2021-05-23)"
   sodipodi:docname="carbon_white.svg"
   xmlns:inkscape="http://www.inkscape.org/namespaces/inkscape"
   xmlns:sodipodi="http://sodipodi.sourceforge.net/DTD/sodipodi-0.dtd"
   xmlns="http://www.w3.org/2000/svg"
   xmlns:svg="http://www.w3.org/2000/svg">
  <sodipodi:namedview
     id="namedview7"
     pagecolor="#ffffff"
     bordercolor="#666666"
     borderopacity="1.0"
     inkscape:pageshadow="2"
     inkscape:pageopacity="0.0"
     inkscape:pagecheckerboard="0"
     inkscape:document-units="mm"
     showgrid="false"
     fit-margin-top="0"
     fit-margin-left="0"
     fit-margin-right="0"
     fit-margin-bottom="0"
     inkscape:zoom="1.8973437"
     inkscape:cx="75.105002"
     inkscape:cy="168.92037"
     inkscape:window-width="1920"
     inkscape:window-height="1017"
     inkscape:window-x="1912"
     inkscape:window-y="-8"
     inkscape:window-maximized="1"
     inkscape:current-layer="layer1" />
  <defs
     id="defs2" />
  <g
     inkscape:label="Calque 1"
     inkscape:groupmode="layer"
     id="layer1"
     transform="translate(-237.09583,-83.910235)">
    <path
       style="fill:#ffffff;stroke-width:0.264583"
       d="m 249.74336,125.12842 c -2.1671,-2.68277 -3.86195,-6.85079 -4.42143,-10.8733 -0.36468,-2.62192 -0.37155,-11.66072 -0.0109,-14.37059 0.64558,-4.471042 2.41467,-8.804495 5.22828,-11.705494 4.34622,-4.63218 12.11003,-5.171209 17.16427,-3.160239 2.76998,1.153145 5.41294,3.716632 6.78231,6.578358 0.88019,2.160254 1.77055,4.309641 1.77055,6.614584 h -5.53586 c -0.46895,-1.917878 -1.11535,-4.042352 -1.88592,-5.423959 -0.93521,-1.662294 -1.84517,-2.519779 -3.69073,-3.477879 -2.68012,-1.092117 -5.64483,-1.12931 -8.01487,0.02089 -2.03633,0.998438 -3.65351,2.876967 -4.67148,5.426413 -1.91543,7.322286 -2.78505,18.126386 0.11461,24.769746 1.00402,2.27026 2.19031,3.70716 3.9683,4.80662 3.01349,1.65645 7.12297,1.51436 9.8357,-0.26241 3.00543,-2.40941 3.50561,-4.77473 4.34439,-8.13234 1.84529,0 3.69057,0 5.53586,0 -0.0337,2.29771 -0.93542,4.58399 -1.72966,6.25859 -5.11759,8.87621 -17.95209,11.08843 -24.78342,2.93101 z"
       id="path1240"
       sodipodi:nodetypes="cscccccccccccccccccc" />
  </g>
</svg>
