<?xml version="1.0" encoding="UTF-8" standalone="no"?>
<!-- Created with Inkscape (http://www.inkscape.org/) -->

<svg
   width="107.81948mm"
   height="107.72495mm"
   viewBox="0 0 107.81948 107.72496"
   version="1.1"
   id="svg3784"
   inkscape:version="1.1 (c68e22c387, 2021-05-23)"
   sodipodi:docname="clock.svg"
   xmlns:inkscape="http://www.inkscape.org/namespaces/inkscape"
   xmlns:sodipodi="http://sodipodi.sourceforge.net/DTD/sodipodi-0.dtd"
   xmlns="http://www.w3.org/2000/svg"
   xmlns:svg="http://www.w3.org/2000/svg">
  <sodipodi:namedview
     id="namedview3786"
     pagecolor="#ffffff"
     bordercolor="#666666"
     borderopacity="1.0"
     inkscape:pageshadow="2"
     inkscape:pageopacity="0.0"
     inkscape:pagecheckerboard="0"
     inkscape:document-units="mm"
     showgrid="false"
     inkscape:zoom="0.94867184"
     inkscape:cx="150.21"
     inkscape:cy="403.19527"
     inkscape:window-width="1920"
     inkscape:window-height="1017"
     inkscape:window-x="1912"
     inkscape:window-y="-8"
     inkscape:window-maximized="1"
     inkscape:current-layer="g4173"
     fit-margin-top="0"
     fit-margin-left="0"
     fit-margin-right="0"
     fit-margin-bottom="0" />
  <defs
     id="defs3781" />
  <g
     inkscape:label="Calque 1"
     inkscape:groupmode="layer"
     id="layer1"
     transform="translate(43.156792,-121.37792)">
    <g
       id="g4173"
       transform="translate(-264.58334)">
      <path
         style="fill:#ffffff;stroke-width:0.264583"
         d="m 270.19308,228.9773 c -5.0421,-0.40459 -10.53224,-1.60696 -14.75711,-3.23191 -5.72288,-2.4709 -11.40308,-5.48252 -16.06104,-9.6078 -3.81913,-3.42232 -7.37541,-7.58536 -9.74894,-11.41226 -5.12838,-8.26866 -7.61405,-16.47366 -8.12602,-26.82342 -0.90811,-18.35781 6.64217,-35.05931 20.73339,-45.86301 4.00493,-3.07056 10.18391,-6.30301 15.22985,-7.96729 11.68569,-3.85423 26.82996,-3.54905 37.99105,0.76557 14.27888,5.92207 24.38567,16.01397 30.15503,29.87776 4.78864,12.05872 4.85405,28.49607 0.16175,40.64599 -1.38745,3.59256 -4.73789,9.90649 -6.21017,11.70312 -0.15274,0.1864 -0.9722,1.23202 -1.82103,2.32361 -0.84882,1.09159 -2.66117,3.09831 -4.02744,4.45939 -7.99676,7.96636 -18.16503,13.04959 -29.3993,14.69703 -3.38659,0.49662 -10.57954,0.71731 -14.12002,0.43322 z m 1.45521,-9.68012 c 0,-1.76686 0.0747,-2.07107 0.64944,-2.64583 0.5926,-0.59261 0.85628,-0.64943 3.01339,-0.64943 3.27252,0 3.57292,0.25737 3.7054,3.17474 0.0365,2.48331 -0.59127,2.26757 1.32609,1.99148 12.33544,-1.77632 23.20271,-7.93807 30.76528,-17.44393 1.16884,-1.46919 2.2936,-2.88097 2.49947,-3.1373 0.20586,-0.25632 0.3743,-0.51302 0.3743,-0.57044 0,-0.0574 0.60977,-1.14042 1.35504,-2.40668 2.94442,-5.00268 5.02579,-11.09934 5.92785,-17.36359 l 0.17677,-1.22759 -2.16825,-0.0985 c -2.91737,-0.13249 -3.17475,-0.43288 -3.17475,-3.70541 0,-2.15711 0.0568,-2.42079 0.64944,-3.01339 1.34037,-1.42481 3.43622,0.17866 4.63285,-0.98016 -0.0273,-0.9612 -0.80677,-5.09835 -1.3075,-6.93948 -6.36119,-14.86874 -14.03172,-25.01474 -26.40577,-31.06397 -3.09246,-1.55938 -8.85315,-3.23455 -13.32473,-3.87474 l -1.22759,-0.17575 -0.0985,2.16825 c -0.13248,2.91737 -0.43288,3.17475 -3.7054,3.17475 -2.15711,0 -2.42079,-0.0568 -3.01339,-0.64943 -0.57477,-0.57477 -0.64944,-0.87898 -0.64944,-2.64584 0,-1.48108 -0.0905,-1.9964 -0.3506,-1.9964 -1.19896,0 -6.67463,1.20587 -9.1836,2.02244 -4.36232,1.41977 -10.1359,4.39181 -13.61684,7.0095 -10.53928,7.92561 -17.21438,19.13916 -19.05787,32.01544 l -0.17575,1.22759 2.16825,0.0985 c 2.90965,0.13213 3.17475,0.43809 3.17475,3.66406 0,3.22598 -0.2651,3.53193 -3.17475,3.66407 l -2.16825,0.0985 0.17677,1.22759 c 0.36293,2.52033 0.98168,5.27469 1.76169,7.84217 0.99736,3.28291 4.61187,10.81066 6.08799,12.67917 7.20067,9.95029 19.52335,17.68875 30.38946,19.96478 4.29202,0.79012 3.96875,0.90702 3.96875,-1.43514 z m 9.95003,-31.84227 c -5.82787,-5.79606 -6.49431,-6.37799 -7.30423,-6.37799 -1.45602,0 -3.14015,-0.98506 -3.99872,-2.33889 -1.23337,-2.26965 -1.05134,-7.15375 0.7956,-8.88077 0.55412,-0.50113 0.55732,-0.5894 0.55732,-15.38267 0,-17.71415 -1.40239,-16.2179 2.48927,-16.35858 7.40236,0.007 4.7099,-2.32553 4.91907,16.08822 v 14.69095 l 1.14671,1.05701 c 1.28826,1.18747 1.7637,2.39768 1.7637,4.48936 v 1.37304 l 5.82115,5.8275 c 2.95766,3.50025 7.16276,5.03786 6.92732,9.45805 -0.34606,2.23994 -1.55851,3.40198 -3.85029,3.32887 -3.59555,-0.54114 -6.58907,-4.3109 -9.2669,-6.9741 z"
         id="path7485"
         sodipodi:nodetypes="scccsccccsssssssssccssscsccsccccsccscsscssccsccssccsscsccscccssccccc" />
    </g>
  </g>
</svg>
