<?xml version="1.0" encoding="UTF-8" standalone="no"?>
<!-- Created with Inkscape (http://www.inkscape.org/) -->

<svg
   width="212.8566mm"
   height="179.65236mm"
   viewBox="0 0 212.8566 179.65237"
   version="1.1"
   id="svg3784"
   inkscape:version="1.1 (c68e22c387, 2021-05-23)"
   sodipodi:docname="cooperation.svg"
   xmlns:inkscape="http://www.inkscape.org/namespaces/inkscape"
   xmlns:sodipodi="http://sodipodi.sourceforge.net/DTD/sodipodi-0.dtd"
   xmlns="http://www.w3.org/2000/svg"
   xmlns:svg="http://www.w3.org/2000/svg">
  <sodipodi:namedview
     id="namedview3786"
     pagecolor="#ffffff"
     bordercolor="#666666"
     borderopacity="1.0"
     inkscape:pageshadow="2"
     inkscape:pageopacity="0.0"
     inkscape:pagecheckerboard="0"
     inkscape:document-units="mm"
     showgrid="false"
     inkscape:zoom="0.47433592"
     inkscape:cx="553.40528"
     inkscape:cy="519.67391"
     inkscape:window-width="1920"
     inkscape:window-height="1017"
     inkscape:window-x="1912"
     inkscape:window-y="-8"
     inkscape:window-maximized="1"
     inkscape:current-layer="g4173"
     fit-margin-top="0"
     fit-margin-left="0"
     fit-margin-right="0"
     fit-margin-bottom="0" />
  <defs
     id="defs3781" />
  <g
     inkscape:label="Calque 1"
     inkscape:groupmode="layer"
     id="layer1"
     transform="translate(35.14306,-110.17638)">
    <g
       id="g4173"
       transform="translate(-264.58334)">
      <path
         style="fill:#ffffff;stroke-width:1.25264"
         d="m 317.27308,287.62296 c -3.41105,-3.76915 -2.63579,-9.53949 1.78093,-13.25594 6.92306,-5.82539 14.9356,-3.10189 14.9356,5.07664 0,8.00189 -11.69741,13.72536 -16.71653,8.1793 z m 24.18798,-8.04356 c -0.0237,-2.92804 -0.76702,-6.62598 -1.65022,-8.21763 -2.0677,-3.72617 -8.15993,-7.73473 -11.77127,-7.74529 -2.33387,-0.004 -2.82606,-0.70827 -2.86285,-4.07935 -0.0236,-2.23914 -0.76702,-5.37335 -1.65026,-6.96501 -1.99423,-3.59379 -8.11846,-7.73402 -11.4581,-7.74619 -1.79765,-0.004 -2.55729,-0.90905 -2.68938,-3.19514 -0.47429,-8.20869 -7.31393,-15.60188 -14.43371,-15.60188 -2.45365,0 -3.5445,-1.17442 -5.59198,-6.02073 -1.89552,-4.48651 -3.68289,-6.56131 -7.0143,-8.14217 -5.06954,-2.40565 -10.03389,-2.71675 -13.52641,-0.84761 -3.25281,1.74085 -5.94631,-2.52102 -7.45615,-11.79784 -0.63419,-3.89645 -2.38761,-8.81829 -3.89661,-10.93745 l -2.74353,-3.85295 24.49753,-24.49753 24.49747,-24.49753 3.81328,3.2087 c 2.50833,2.1106 6.08166,3.50644 10.44176,4.07887 3.64563,0.47865 7.96576,1.72034 9.60027,2.75936 l 2.97173,1.88906 -8.78183,8.95232 c -10.20774,10.40588 -11.56709,12.67971 -11.56709,19.3485 0,10.96292 12.62173,18.60381 22.2966,13.49786 1.86044,-0.98186 7.03026,-5.49138 11.48854,-10.02116 4.45829,-4.52977 8.71414,-8.23596 9.45744,-8.23596 0.74331,0 13.58351,12.31337 28.53384,27.36303 29.5834,29.78012 30.34603,30.96665 23.98773,37.325 -4.70941,4.70935 -8.32402,3.16802 -20.24434,-8.63261 -10.17199,-10.06988 -10.31483,-10.15708 -12.86274,-7.85125 -2.56789,2.32393 -2.53674,2.37222 9.34675,14.46757 12.54175,12.76541 13.8287,15.4722 9.97325,20.9766 -1.39728,1.99484 -3.22045,2.78402 -6.43197,2.78402 -3.96341,0 -5.83695,-1.32885 -16.19387,-11.4855 -11.53584,-11.31281 -11.75021,-11.45091 -14.25613,-9.18309 -2.5258,2.28583 -2.46709,2.38127 8.12276,13.20316 11.435,11.68568 13.22072,16.03976 8.37615,20.424 -4.8619,4.4 -8.87089,2.7557 -19.80759,-8.12419 -7.15363,-7.1165 -10.86004,-9.96348 -12.26786,-9.42325 -4.59356,1.76272 -3.61311,4.74411 4.12886,12.55554 6.06117,6.11551 7.6898,8.57271 7.6898,11.60202 0,4.3859 -3.2932,7.98944 -7.30134,7.98944 -2.35773,0 -2.72574,-0.70874 -2.76423,-5.32374 z m -42.97763,-8.24079 c -3.53797,-3.90948 -2.5785,-8.77241 2.79012,-14.14098 5.28123,-5.28123 9.10235,-6.09687 13.64771,-2.91322 4.53811,3.17863 3.74207,9.13246 -1.96625,14.70646 -5.37912,5.25258 -11.01524,6.16694 -14.47158,2.34774 z M 279.5707,254.56099 c -3.38359,-4.83073 -2.39443,-8.40322 4.13426,-14.93196 6.52868,-6.52868 10.10122,-7.51784 14.93195,-4.13427 1.99408,1.39675 2.78397,3.22058 2.78397,6.42804 0,3.61713 -1.05197,5.53006 -5.47206,9.95015 -4.42003,4.42003 -6.33296,5.47206 -9.95009,5.47206 -3.20746,0 -5.03134,-0.78994 -6.42803,-2.78402 z m -12.82876,-16.02608 c -3.18677,-1.27037 -5.40559,-4.90701 -5.40559,-8.85967 0,-3.66532 9.20892,-12.41482 13.0667,-12.41482 4.63753,0 8.64577,4.01335 8.64577,8.6568 0,2.94489 -1.15756,5.1658 -4.27989,8.21144 -4.90011,4.77975 -8.12566,5.9615 -12.02699,4.40625 z m 118.87359,-46.68571 -19.11816,-19.14804 5.45132,-1.45795 c 2.99821,-0.80191 6.81191,-2.55979 8.47491,-3.9064 2.95412,-2.39211 2.97046,-2.5072 0.71015,-5.00473 -2.30337,-2.54521 -2.33324,-2.54574 -6.86008,-0.11931 -5.67087,3.03939 -10.82303,3.09218 -16.48386,0.16902 l -4.38423,-2.26409 -12.03779,11.66087 c -9.01055,8.72839 -12.86946,11.66087 -15.34488,11.66087 -4.48391,0 -8.31764,-4.11589 -8.31764,-8.92979 0,-3.23842 1.90399,-5.86529 10.96061,-15.1219 12.98589,-13.2726 16.31843,-15.48319 25.10495,-16.65267 4.34495,-0.57831 7.94219,-1.98769 10.44176,-4.09091 l 3.81328,-3.20868 24.58596,24.58597 24.58597,24.58596 -2.8458,3.84912 c -1.56519,2.11703 -3.34253,6.90132 -3.94968,10.63179 -1.12526,6.91383 -3.1211,11.90924 -4.75811,11.90924 -0.50085,0 -9.51373,-8.61661 -20.02868,-19.14799 z m -149.35166,-15.31957 -6.82359,-6.90937 29.72194,-29.72194 29.72193,-29.72194 7.19606,7.19605 7.19604,7.19605 -29.41529,29.43527 c -16.17843,16.18942 -29.72089,29.43532 -30.09444,29.43532 -0.37354,0 -3.74968,-3.10923 -7.50265,-6.90944 z m 161.61233,-22.52588 -29.41529,-29.43527 7.19606,-7.19605 7.19604,-7.19605 29.72193,29.72194 29.72194,29.72194 -6.82354,6.90937 c -3.753,3.80021 -7.12921,6.90944 -7.5027,6.90944 -0.37355,0 -13.91601,-13.2459 -30.09444,-29.43532 z"
         id="path7023" />
    </g>
  </g>
</svg>
