<?xml version="1.0" encoding="UTF-8" standalone="no"?>
<!-- Created with Inkscape (http://www.inkscape.org/) -->

<svg
   width="300mm"
   height="300mm"
   viewBox="0 0 300 300"
   version="1.1"
   id="svg5"
   inkscape:version="1.1 (c68e22c387, 2021-05-23)"
   sodipodi:docname="cross.svg"
   xmlns:inkscape="http://www.inkscape.org/namespaces/inkscape"
   xmlns:sodipodi="http://sodipodi.sourceforge.net/DTD/sodipodi-0.dtd"
   xmlns="http://www.w3.org/2000/svg"
   xmlns:svg="http://www.w3.org/2000/svg">
  <sodipodi:namedview
     id="namedview7"
     pagecolor="#ffffff"
     bordercolor="#666666"
     borderopacity="1.0"
     inkscape:pageshadow="2"
     inkscape:pageopacity="0.0"
     inkscape:pagecheckerboard="0"
     inkscape:document-units="mm"
     showgrid="false"
     inkscape:zoom="0.5"
     inkscape:cx="421"
     inkscape:cy="493"
     inkscape:window-width="1920"
     inkscape:window-height="1017"
     inkscape:window-x="1912"
     inkscape:window-y="-8"
     inkscape:window-maximized="1"
     inkscape:current-layer="layer1" />
  <defs
     id="defs2" />
  <g
     inkscape:label="Calque 1"
     inkscape:groupmode="layer"
     id="layer1">
    <path
       style="fill:#ffffff;stroke-width:0.80031"
       d="M 23.165668,297.56222 C 16.520251,295.2405 10.523562,290.70125 6.5554234,284.98889 1.6894645,277.98408 0.43238957,273.78671 0.43238957,264.54436 c 0,-7.57149 0.15910427,-8.33607 2.94787523,-14.17643 2.8595212,-5.98822 4.3618768,-7.58864 50.1109492,-53.38242 L 100.65422,149.77634 53.702042,102.71983 C 3.4332592,52.339341 3.2356493,52.111454 0.82261851,41.744812 -2.6652435,26.760424 5.4737866,10.157167 19.753092,3.1274812 24.447757,0.81629515 26.070742,0.44959913 32.781858,0.18384055 41.508939,-0.1617424 48.142346,1.5448173 53.986827,5.6391811 55.78401,6.8982222 77.9613,28.662567 103.26968,54.004431 c 25.30841,25.341862 46.26262,46.076079 46.56492,46.076079 0.30217,0 21.7684,-21.204331 47.70239,-47.120753 43.8018,-43.772097 47.54266,-47.3068433 52.63974,-49.7394448 7.0331,-3.35658581 17.25347,-4.18631761 24.80993,-2.0141511 16.48528,4.7388269 27.31643,21.8209689 24.41178,38.5006339 -2.05065,11.775864 -0.36429,9.786122 -52.69361,62.174495 l -47.7647,47.81861 48.07692,48.21867 c 52.41064,52.56514 50.3566,50.14676 52.35902,61.64552 2.56979,14.75695 -5.12782,29.49591 -18.98017,36.34211 -5.23348,2.58654 -6.90452,3.0088 -13.07481,3.30378 -9.29051,0.44418 -16.31475,-1.5876 -22.9124,-6.62745 -2.57589,-1.96769 -23.83613,-22.76656 -47.24498,-46.21971 -23.40887,-23.45314 -43.67476,-43.70754 -45.03532,-45.00978 l -2.47377,-2.36766 -47.80073,47.65025 c -44.731801,44.59103 -48.134667,47.79761 -53.002712,49.94537 -7.353098,3.24419 -18.039703,3.65242 -25.68551,0.98122 z"
       id="path854" />
  </g>
</svg>
