<?xml version="1.0" encoding="UTF-8" standalone="no"?>
<!-- Created with Inkscape (http://www.inkscape.org/) -->

<svg
   width="257.1163mm"
   height="256.25787mm"
   viewBox="0 0 257.1163 256.25787"
   version="1.1"
   id="svg5"
   inkscape:version="1.1 (c68e22c387, 2021-05-23)"
   sodipodi:docname="crystal_white.svg"
   xmlns:inkscape="http://www.inkscape.org/namespaces/inkscape"
   xmlns:sodipodi="http://sodipodi.sourceforge.net/DTD/sodipodi-0.dtd"
   xmlns="http://www.w3.org/2000/svg"
   xmlns:svg="http://www.w3.org/2000/svg">
  <sodipodi:namedview
     id="namedview7"
     pagecolor="#ffffff"
     bordercolor="#666666"
     borderopacity="1.0"
     inkscape:pageshadow="2"
     inkscape:pageopacity="0.0"
     inkscape:pagecheckerboard="0"
     inkscape:document-units="mm"
     showgrid="false"
     inkscape:zoom="0.25"
     inkscape:cx="198"
     inkscape:cy="734"
     inkscape:window-width="1920"
     inkscape:window-height="1017"
     inkscape:window-x="1912"
     inkscape:window-y="-8"
     inkscape:window-maximized="1"
     inkscape:current-layer="layer1" />
  <defs
     id="defs2" />
  <g
     inkscape:label="Calque 1"
     inkscape:groupmode="layer"
     id="layer1"
     transform="translate(-21.869183,-13.411213)">
    <path
       style="fill:#ffffff;stroke-width:0.264583"
       d="m 58.956005,236.45719 c -2.539513,-0.66391 -3.222799,-1.09983 -3.435982,-2.19208 L 21.869183,106.68667 C 54.53228,77.159134 82.341772,41.869261 115.98802,13.481811 c 0.29691,-0.111586 0.91101,-0.08834 1.36466,0.05166 40.13252,9.77336 84.34588,24.198831 125.74753,33.926005 1.42056,0.330785 1.78535,0.781749 2.32159,2.870007 10.00085,43.992826 24.92994,87.245747 33.5637,125.809387 -31.26469,31.17674 -62.52938,62.35347 -93.79407,93.53021 -126.235425,-33.21189 0,0 -126.235425,-33.21189 z M 154.32525,75.881631 29.409793,109.54171 c 0,0.5168 90.971547,91.60029 91.487707,91.60029 z"
       id="path854"
       sodipodi:nodetypes="cccccccccccccc" />
  </g>
</svg>
