<?xml version="1.0" encoding="UTF-8" standalone="no"?>
<!-- Created with Inkscape (http://www.inkscape.org/) -->

<svg
   width="1000mm"
   height="1000mm"
   viewBox="0 0 1000 1000"
   version="1.1"
   id="svg930"
   inkscape:version="1.1 (c68e22c387, 2021-05-23)"
   sodipodi:docname="cs.svg"
   xmlns:inkscape="http://www.inkscape.org/namespaces/inkscape"
   xmlns:sodipodi="http://sodipodi.sourceforge.net/DTD/sodipodi-0.dtd"
   xmlns="http://www.w3.org/2000/svg"
   xmlns:svg="http://www.w3.org/2000/svg">
  <sodipodi:namedview
     id="namedview932"
     pagecolor="#ffffff"
     bordercolor="#666666"
     borderopacity="1.0"
     inkscape:pageshadow="2"
     inkscape:pageopacity="0.0"
     inkscape:pagecheckerboard="0"
     inkscape:document-units="mm"
     showgrid="false"
     units="mm"
     width="1000mm"
     inkscape:zoom="0.16"
     inkscape:cx="1659.375"
     inkscape:cy="1884.375"
     inkscape:window-width="1920"
     inkscape:window-height="1017"
     inkscape:window-x="1912"
     inkscape:window-y="-8"
     inkscape:window-maximized="1"
     inkscape:current-layer="layer1" />
  <defs
     id="defs927" />
  <g
     inkscape:label="Calque 1"
     inkscape:groupmode="layer"
     id="layer1">
    <g
       id="g258" />
    <g
       id="g1786"
       transform="matrix(1.4570774,0,0,1.4923809,-199.30942,-305.96674)">
      <path
         style="fill:#9f77da;stroke-width:0.264583"
         d="m 478.23435,866.45598 c 0.32742,-0.0631 0.86321,-0.0631 1.19063,0 0.32742,0.0631 0.0595,0.11465 -0.59532,0.11465 -0.65484,0 -0.92273,-0.0516 -0.59531,-0.11465 z m 4.23334,0 c 0.32742,-0.0631 0.8632,-0.0631 1.19062,0 0.32742,0.0631 0.0595,0.11465 -0.59531,0.11465 -0.65485,0 -0.92274,-0.0516 -0.59531,-0.11465 z m -7.67292,-0.2531 c 0.1819,-0.0734 0.47956,-0.0734 0.66146,0 0.1819,0.0734 0.0331,0.13346 -0.33073,0.13346 -0.3638,0 -0.51263,-0.0601 -0.33073,-0.13346 z m 11.37708,0 c 0.1819,-0.0734 0.47956,-0.0734 0.66146,0 0.1819,0.0734 0.0331,0.13346 -0.33073,0.13346 -0.3638,0 -0.51263,-0.0601 -0.33073,-0.13346 z m -13.21263,-0.27008 c 0.191,-0.0764 0.41921,-0.067 0.50713,0.0209 0.0879,0.0879 -0.0684,0.15047 -0.34727,0.13898 -0.30824,-0.0127 -0.37092,-0.0754 -0.15986,-0.15986 z m -1.5875,-0.26459 c 0.191,-0.0764 0.41921,-0.067 0.50713,0.0209 0.0879,0.0879 -0.0684,0.15046 -0.34727,0.13898 -0.30824,-0.0127 -0.37092,-0.0754 -0.15986,-0.15986 z m 20.37292,-0.26458 c 0.191,-0.0764 0.4192,-0.067 0.50713,0.0209 0.0879,0.0879 -0.0684,0.15047 -0.34727,0.13899 -0.30824,-0.0127 -0.37092,-0.0754 -0.15986,-0.15986 z M 478.63123,755.5847 c 1.70987,-0.0461 4.50784,-0.0461 6.21771,0 1.70987,0.0461 0.31088,0.0838 -3.10886,0.0838 -3.41974,0 -4.81872,-0.0377 -3.10885,-0.0838 z m -8.46667,-0.24937 c 0.25466,-0.0666 0.67138,-0.0666 0.92604,0 0.25466,0.0665 0.0463,0.12099 -0.46302,0.12099 -0.50932,0 -0.71768,-0.0544 -0.46302,-0.12099 z m 22.88056,-0.008 c 0.46969,-0.0584 1.30312,-0.0594 1.85208,-0.003 0.54896,0.0573 0.16465,0.1051 -0.85399,0.10629 -1.01865,0 -1.46778,-0.0457 -0.99809,-0.10414 z m -26.58473,-0.25601 c 0.25467,-0.0666 0.67138,-0.0666 0.92605,0 0.25466,0.0665 0.0463,0.12099 -0.46303,0.12099 -0.50932,0 -0.71768,-0.0544 -0.46302,-0.12099 z m 31.75,0 c 0.25467,-0.0666 0.67138,-0.0666 0.92605,0 0.25466,0.0665 0.0463,0.12099 -0.46302,0.12099 -0.50933,0 -0.71769,-0.0544 -0.46303,-0.12099 z m -35.18455,-0.26556 c 0.25744,-0.0671 0.61462,-0.0627 0.79375,0.01 0.17915,0.0725 -0.0315,0.12734 -0.46805,0.12197 -0.43656,-0.005 -0.58312,-0.0647 -0.3257,-0.13179 z m 38.36458,0 c 0.25744,-0.0671 0.61463,-0.0627 0.79375,0.01 0.17915,0.0725 -0.0315,0.12734 -0.46805,0.12197 -0.43656,-0.005 -0.58311,-0.0647 -0.3257,-0.13179 z m -41.275,-0.26459 c 0.25744,-0.0671 0.61463,-0.0627 0.79375,0.01 0.17915,0.0725 -0.0315,0.12735 -0.46805,0.12198 -0.43656,-0.005 -0.58311,-0.0647 -0.3257,-0.13179 z m 44.0481,0.008 c 0.1819,-0.0734 0.47956,-0.0734 0.66146,0 0.1819,0.0734 0.0331,0.13345 -0.33073,0.13345 -0.3638,0 -0.51263,-0.0601 -0.33073,-0.13345 z m -46.56667,-0.26459 c 0.1819,-0.0734 0.47956,-0.0734 0.66146,0 0.1819,0.0734 0.0331,0.13346 -0.33073,0.13346 -0.3638,0 -0.51263,-0.0601 -0.33073,-0.13346 z m 48.94792,0 c 0.1819,-0.0734 0.47956,-0.0734 0.66146,0 0.1819,0.0734 0.0331,0.13346 -0.33073,0.13346 -0.3638,0 -0.51263,-0.0601 -0.33073,-0.13346 z m -51.04805,-0.27008 c 0.191,-0.0764 0.41921,-0.067 0.50713,0.0209 0.0879,0.0879 -0.0684,0.15047 -0.34727,0.13898 -0.30824,-0.0127 -0.37092,-0.0754 -0.15986,-0.15986 z m 53.4293,0.006 c 0.1819,-0.0734 0.47956,-0.0734 0.66146,0 0.1819,0.0734 0.0331,0.13346 -0.33073,0.13346 -0.3638,0 -0.51263,-0.0601 -0.33073,-0.13346 z m -55.54596,-0.27008 c 0.191,-0.0764 0.4192,-0.067 0.50712,0.0209 0.0879,0.0879 -0.0684,0.15047 -0.34726,0.13898 -0.30824,-0.0127 -0.37092,-0.0754 -0.15986,-0.15986 z m 57.94375,0 c 0.191,-0.0764 0.4192,-0.067 0.50712,0.0209 0.0879,0.0879 -0.0684,0.15047 -0.34726,0.13898 -0.30824,-0.0127 -0.37092,-0.0754 -0.15986,-0.15986 z m -59.79584,-0.26459 c 0.191,-0.0764 0.41921,-0.067 0.50713,0.0209 0.0879,0.0879 -0.0684,0.15047 -0.34727,0.13899 -0.30823,-0.0127 -0.37092,-0.0754 -0.15986,-0.15986 z m 61.64792,0 c 0.191,-0.0764 0.4192,-0.067 0.50713,0.0209 0.0879,0.0879 -0.0684,0.15047 -0.34727,0.13899 -0.30824,-0.0127 -0.37092,-0.0754 -0.15986,-0.15986 z m -63.5,-0.26458 c 0.19099,-0.0764 0.4192,-0.067 0.50712,0.0209 0.0879,0.0879 -0.0684,0.15047 -0.34727,0.13899 -0.30822,-0.0127 -0.37092,-0.0754 -0.15985,-0.15986 z m 65.0875,0 c 0.191,-0.0764 0.4192,-0.067 0.50713,0.0209 0.0879,0.0879 -0.0684,0.15047 -0.34727,0.13899 -0.30824,-0.0127 -0.37092,-0.0754 -0.15986,-0.15986 z m -66.675,-0.26458 c 0.19099,-0.0764 0.4192,-0.067 0.50712,0.0209 0.0879,0.0879 -0.0684,0.15047 -0.34727,0.13898 -0.30822,-0.0127 -0.37092,-0.0754 -0.15985,-0.15986 z m 68.52708,0 c 0.19101,-0.0764 0.41921,-0.067 0.50713,0.0209 0.0879,0.0879 -0.0684,0.15047 -0.34727,0.13898 -0.30824,-0.0127 -0.37092,-0.0754 -0.15986,-0.15986 z m -70.11458,-0.26459 c 0.19099,-0.0764 0.4192,-0.067 0.50712,0.0209 0.0879,0.0879 -0.0684,0.15047 -0.34727,0.13899 -0.30822,-0.0127 -0.37092,-0.0754 -0.15985,-0.15986 z m -1.5875,-0.26458 c 0.19099,-0.0764 0.4192,-0.067 0.50712,0.0209 0.0879,0.0879 -0.0683,0.15047 -0.34727,0.13899 -0.30822,-0.0127 -0.37092,-0.0754 -0.15985,-0.15986 z m 79.375,-0.79375 c 0.191,-0.0764 0.41921,-0.067 0.50713,0.0209 0.0879,0.0879 -0.0684,0.15047 -0.34727,0.13899 -0.30824,-0.0127 -0.37092,-0.0754 -0.15986,-0.15986 z m 1.32292,-0.26458 c 0.191,-0.0764 0.4192,-0.067 0.50712,0.0209 0.0879,0.0879 -0.0684,0.15047 -0.34726,0.13898 -0.30824,-0.0127 -0.37092,-0.0754 -0.15986,-0.15986 z M 209.71466,718.01302 c -0.3291,-0.41966 -0.31974,-0.429 0.0999,-0.0999 0.44073,0.34565 0.58089,0.56293 0.36313,0.56293 -0.055,0 -0.26331,-0.20836 -0.46303,-0.46302 z m -1.32291,-1.05834 c -0.32911,-0.41965 -0.31975,-0.42899 0.0999,-0.0999 0.44073,0.34565 0.58089,0.56293 0.36313,0.56293 -0.0549,0 -0.2633,-0.20836 -0.46302,-0.46303 z m 545.34,0.0985 c 0,-0.0549 0.20836,-0.26329 0.46302,-0.46303 0.41966,-0.32908 0.429,-0.31974 0.0999,0.0999 -0.34565,0.44072 -0.56293,0.58089 -0.56293,0.36312 z m -548.4889,-3.00895 -1.71214,-1.78594 1.78593,1.71215 c 0.98227,0.94167 1.78594,1.74535 1.78594,1.78593 0,0.19474 -0.26941,-0.0533 -1.85973,-1.71214 z m 551.91742,-0.13229 c 0.64876,-0.69123 1.21431,-1.25677 1.25677,-1.25677 0.19868,0 -0.0114,0.23754 -1.17956,1.33397 l -1.25677,1.17957 z m 2.39231,-2.6796 c 0,-0.0549 0.20836,-0.26328 0.46302,-0.46302 0.41966,-0.32909 0.429,-0.31975 0.0999,0.0999 -0.34565,0.44071 -0.56293,0.58089 -0.56293,0.36311 z m -557.51083,-0.6277 c -0.32911,-0.41965 -0.31975,-0.42899 0.0999,-0.0999 0.44073,0.34565 0.58089,0.56293 0.36313,0.56293 -0.0549,0 -0.2633,-0.20836 -0.46302,-0.46303 z m 146.84375,-1.05833 c -0.32911,-0.41965 -0.31975,-0.42899 0.0999,-0.0999 0.25466,0.19974 0.46302,0.4081 0.46302,0.46303 0,0.21777 -0.21727,0.0776 -0.56291,-0.36312 z m -1.32292,-1.05833 c -0.32911,-0.41966 -0.31975,-0.429 0.0999,-0.0999 0.44073,0.34565 0.58088,0.56293 0.36312,0.56293 -0.0549,0 -0.2633,-0.20836 -0.46302,-0.46302 z m -1.32292,-1.05834 c -0.3291,-0.41965 -0.31974,-0.42899 0.0999,-0.0999 0.44073,0.34565 0.58089,0.56293 0.36312,0.56293 -0.0549,0 -0.2633,-0.20836 -0.46302,-0.46303 z m 272.29001,0.36312 c 0,-0.0549 0.20836,-0.26329 0.46302,-0.46302 0.41965,-0.32909 0.42899,-0.31975 0.0999,0.0999 -0.34565,0.44072 -0.56292,0.5809 -0.56292,0.36312 z m -273.87751,-1.68603 c -0.3291,-0.41966 -0.31974,-0.429 0.0999,-0.0999 0.44073,0.34565 0.58089,0.56293 0.36312,0.56293 -0.0549,0 -0.2633,-0.20836 -0.46302,-0.46302 z m 275.46501,0.36311 c 0,-0.0549 0.20836,-0.26328 0.46302,-0.46302 0.41965,-0.32909 0.42899,-0.31975 0.0999,0.0999 -0.34565,0.44071 -0.56292,0.58089 -0.56292,0.36311 z m -277.05251,-1.68603 c -0.3291,-0.41965 -0.31974,-0.42899 0.0999,-0.0999 0.44073,0.34566 0.58089,0.56293 0.36312,0.56293 -0.0549,0 -0.2633,-0.20836 -0.46302,-0.46302 z m -1.85208,-1.5875 c -0.32911,-0.41965 -0.31975,-0.42899 0.0999,-0.0999 0.25466,0.19973 0.46302,0.40809 0.46302,0.46302 0,0.21777 -0.21728,0.0776 -0.56292,-0.36312 z m -145.98142,-3.48218 c -1.89802,-3.99703 -3.08184,-7.59687 -4.09717,-12.45896 -1.14178,-5.46767 -1.09703,0.5869 -1.09703,-148.43125 V 396.87501 l 0.59909,-3.30729 c 1.19328,-6.58754 2.46037,-10.62006 4.94666,-15.74271 3.28964,-6.77784 8.31209,-12.88811 14.92747,-18.16064 3.68671,-2.93834 6.72188,-4.7742 30.32678,-18.34357 4.36562,-2.5096 14.24781,-8.19196 21.96041,-12.62747 27.4665,-15.79596 55.5059,-31.91607 69.32084,-39.8532 24.3848,-14.00987 25.98829,-14.9316 35.98333,-20.68433 5.38427,-3.09897 16.0999,-9.26485 23.8125,-13.70197 7.7126,-4.43711 16.22557,-9.34238 18.91771,-10.9006 2.69213,-1.55822 11.80041,-6.82787 20.24062,-11.71034 8.44021,-4.88246 16.77459,-9.73105 18.52084,-10.77463 17.44636,-10.42619 35.0072,-12.18151 52.51164,-5.24887 4.30175,1.70372 10.33748,5.08956 56.37117,31.62238 26.26278,15.1373 79.00443,45.5301 117.20365,67.53955 38.19922,22.00944 70.28656,40.55497 71.3052,41.21228 7.2647,4.68774 12.9852,10.3845 17.67102,17.59767 0.54399,0.83738 0.89125,1.49223 0.77171,1.45521 -0.20055,-0.0621 -93.52576,53.54063 -95.06164,54.60007 -0.45043,0.31071 -0.6871,0.36327 -0.69398,0.15414 -0.0153,-0.46721 -3.43926,-5.98285 -7.13367,-11.49197 -15.8047,-23.568 -36.43489,-44.15833 -59.94339,-59.82744 -21.85863,-14.56946 -45.92214,-24.90603 -71.77463,-30.83107 -16.02124,-3.67185 -30.59676,-5.27533 -48.02187,-5.28299 -12.82068,-0.006 -21.61297,0.64964 -33.60209,2.50426 -31.80818,4.92049 -62.28933,17.02641 -89.03229,35.36012 -19.35135,13.26637 -37.22033,30.46201 -51.26159,49.32993 -22.71923,30.52894 -36.93148,66.12793 -41.32834,103.51964 -1.01674,8.64663 -1.22614,11.80488 -1.38654,20.91258 -0.574,32.59307 5.38393,62.65744 18.29918,92.33958 1.76384,4.05371 6.91276,14.3787 8.78524,17.61683 0.72228,1.24908 1.18565,2.27606 1.02972,2.28222 -0.22195,0.009 -93.55528,53.63168 -96.88265,55.66211 l -0.81998,0.50036 z m 430.57455,1.82854 c 0.26339,-0.29105 0.53842,-0.52917 0.61118,-0.52917 0.0728,0 -0.0832,0.23812 -0.3466,0.52917 -0.26339,0.29104 -0.53843,0.52916 -0.61119,0.52916 -0.0728,0 0.0832,-0.23812 0.34661,-0.52916 z m -286.83348,-0.33073 -0.50402,-0.59532 0.59531,0.50404 c 0.32742,0.2772 0.59531,0.54509 0.59531,0.59531 0,0.21172 -0.21293,0.0554 -0.6866,-0.50403 z m -2.38125,-2.11667 -0.50402,-0.59531 0.59531,0.50403 c 0.55944,0.47366 0.71576,0.68659 0.50403,0.68659 -0.0502,0 -0.3181,-0.26789 -0.59532,-0.59531 z m 291.86056,0.0661 c 0.26339,-0.29105 0.53843,-0.52917 0.61119,-0.52917 0.0728,0 -0.0832,0.23812 -0.34661,0.52917 -0.26339,0.29104 -0.53842,0.52916 -0.61118,0.52916 -0.0728,0 0.0832,-0.23812 0.3466,-0.52916 z m -298.71769,-6.68073 -4.23023,-4.29948 4.29948,4.23024 c 3.99432,3.92998 4.41915,4.36872 4.23023,4.36872 -0.0381,0 -1.97285,-1.93477 -4.29948,-4.29948 z m 306.25832,-0.59532 c 2.39778,-2.40109 4.41915,-4.36562 4.49191,-4.36562 0.0728,0 -1.82954,1.96453 -4.22733,4.36562 -2.39779,2.4011 -4.41915,4.36563 -4.49191,4.36563 -0.0728,0 1.82954,-1.96453 4.22733,-4.36563 z m 134.95837,-3.46162 c 0.0127,-0.30824 0.0754,-0.37092 0.15986,-0.15986 0.0764,0.191 0.067,0.41921 -0.0209,0.50713 -0.0879,0.0879 -0.15047,-0.0684 -0.13898,-0.34727 z m 0.26459,-1.32292 c 0.0127,-0.30823 0.0754,-0.37091 0.15986,-0.15986 0.0764,0.19101 0.067,0.41921 -0.0209,0.50713 -0.0879,0.0879 -0.15046,-0.0684 -0.13898,-0.34727 z m -448.1094,-1.49931 -0.77711,-0.8599 0.8599,0.77711 c 0.80154,0.72438 0.98151,0.94269 0.7771,0.94269 -0.0455,0 -0.43248,-0.38696 -0.85989,-0.8599 z m 448.37398,0.1764 c 0.0127,-0.30824 0.0754,-0.37092 0.15986,-0.15986 0.0764,0.191 0.067,0.4192 -0.0209,0.50712 -0.0879,0.0879 -0.15047,-0.0684 -0.13899,-0.34726 z m -128.74067,-0.904 c 0.26339,-0.29105 0.53843,-0.52917 0.61119,-0.52917 0.0728,0 -0.0832,0.23812 -0.34661,0.52917 -0.26339,0.29104 -0.53842,0.52916 -0.61118,0.52916 -0.0728,0 0.0832,-0.23812 0.3466,-0.52916 z m 129.00525,-0.6835 c 0.0127,-0.30824 0.0754,-0.37092 0.15986,-0.15986 0.0764,0.191 0.067,0.4192 -0.0209,0.50712 -0.0879,0.0879 -0.15047,-0.0684 -0.13898,-0.34726 z m -451.29289,-1.49932 -0.50403,-0.59531 0.59531,0.50403 c 0.55945,0.47366 0.71577,0.6866 0.50403,0.6866 -0.0502,0 -0.31809,-0.26789 -0.59531,-0.59532 z m 324.40431,-0.19843 c 0.26339,-0.29105 0.53842,-0.52917 0.61119,-0.52917 0.0728,0 -0.0832,0.23812 -0.34661,0.52917 -0.26339,0.29104 -0.53843,0.52916 -0.61119,0.52916 -0.0728,0 0.0832,-0.23812 0.34661,-0.52916 z m 127.17407,-0.26459 c 0,-0.3638 0.0601,-0.51263 0.13345,-0.33073 0.0734,0.18191 0.0734,0.47956 0,0.66146 -0.0734,0.1819 -0.13345,0.0331 -0.13345,-0.33073 z M 318.45841,680.4421 c -0.3291,-0.41966 -0.31975,-0.429 0.0999,-0.0999 0.25466,0.19973 0.46302,0.40809 0.46302,0.46302 0,0.21778 -0.21727,0.0776 -0.56292,-0.36311 z m 328.11709,0.0985 c 0,-0.0549 0.20836,-0.26329 0.46302,-0.46302 0.41966,-0.32909 0.429,-0.31975 0.0999,0.0999 -0.34565,0.44072 -0.56293,0.5809 -0.56293,0.36312 z m 125.73847,-1.22301 c 0,-0.50933 0.0544,-0.71769 0.12099,-0.46302 0.0666,0.25466 0.0666,0.67138 0,0.92604 -0.0665,0.25466 -0.12099,0.0463 -0.12099,-0.46302 z M 316.87091,678.5901 c -0.3291,-0.41965 -0.31975,-0.42899 0.0999,-0.0999 0.25466,0.19973 0.46302,0.40809 0.46302,0.46302 0,0.21778 -0.21727,0.0776 -0.56292,-0.36312 z m 331.02751,0.36312 c 0,-0.0549 0.20836,-0.26329 0.46302,-0.46302 0.41965,-0.32909 0.42899,-0.31975 0.0999,0.0999 -0.34565,0.44072 -0.56292,0.5809 -0.56292,0.36312 z m 2.64583,-3.175 c 0,-0.0549 0.20836,-0.26329 0.46302,-0.46302 0.41966,-0.32909 0.429,-0.31975 0.0999,0.0999 -0.34565,0.44072 -0.56293,0.5809 -0.56293,0.36312 z M 478.7705,646.84447 c 0.62233,-0.0559 1.57483,-0.0551 2.11667,0.003 0.54187,0.0568 0.0327,0.10257 -1.13146,0.10162 -1.16417,0 -1.60751,-0.0475 -0.98521,-0.10337 z m 5.81385,0 c 0.61847,-0.0557 1.6305,-0.0557 2.24896,0 0.61846,0.0557 0.11245,0.10128 -1.12448,0.10128 -1.23693,0 -1.74294,-0.0456 -1.12448,-0.10128 z m -10.44601,-0.25421 c 0.25744,-0.0671 0.61462,-0.0627 0.79375,0.01 0.17915,0.0725 -0.0315,0.12734 -0.46805,0.12197 -0.43656,-0.005 -0.58312,-0.0647 -0.3257,-0.13179 z m 16.66875,0 c 0.25744,-0.0671 0.61463,-0.0627 0.79375,0.01 0.17915,0.0725 -0.0315,0.12734 -0.46805,0.12197 -0.43656,-0.005 -0.58312,-0.0647 -0.3257,-0.13179 z m -19.57917,-0.26459 c 0.25744,-0.0671 0.61463,-0.0627 0.79375,0.01 0.17915,0.0725 -0.0315,0.12735 -0.46805,0.12198 -0.43656,-0.005 -0.58311,-0.0647 -0.3257,-0.13179 z m 22.35227,0.008 c 0.1819,-0.0734 0.47955,-0.0734 0.66145,0 0.18191,0.0734 0.0331,0.13345 -0.33072,0.13345 -0.36381,0 -0.51264,-0.0601 -0.33073,-0.13345 z m -24.32513,-0.27009 c 0.191,-0.0764 0.4192,-0.067 0.50712,0.0209 0.0879,0.0879 -0.0684,0.15047 -0.34726,0.13899 -0.30824,-0.0127 -0.37092,-0.0754 -0.15986,-0.15986 z m 26.70638,0.006 c 0.1819,-0.0734 0.47955,-0.0734 0.66145,0 0.18191,0.0734 0.0331,0.13345 -0.33072,0.13345 -0.36381,0 -0.51264,-0.0601 -0.33073,-0.13345 z m -28.82305,-0.27009 c 0.191,-0.0764 0.4192,-0.067 0.50713,0.0209 0.0879,0.0879 -0.0684,0.15047 -0.34727,0.13899 -0.30824,-0.0127 -0.37092,-0.0754 -0.15986,-0.15986 z m -1.85208,-0.26458 c 0.191,-0.0764 0.4192,-0.067 0.50712,0.0209 0.0879,0.0879 -0.0684,0.15047 -0.34726,0.13898 -0.30824,-0.0127 -0.37092,-0.0754 -0.15986,-0.15986 z m -1.5875,-0.26459 c 0.191,-0.0764 0.4192,-0.067 0.50712,0.0209 0.0879,0.0879 -0.0684,0.15047 -0.34726,0.13899 -0.30824,-0.0127 -0.37092,-0.0754 -0.15986,-0.15986 z m 39.15833,-0.26458 c 0.191,-0.0764 0.4192,-0.067 0.50713,0.0209 0.0879,0.0879 -0.0684,0.15047 -0.34727,0.13899 -0.30824,-0.0127 -0.37092,-0.0754 -0.15986,-0.15986 z M 415.5605,623.55677 c -0.32911,-0.41965 -0.31975,-0.42899 0.0999,-0.0999 0.44073,0.34566 0.58089,0.56293 0.36313,0.56293 -0.0549,0 -0.2633,-0.20836 -0.46302,-0.46302 z m 134.70667,-0.43063 c 0,-0.0549 0.20835,-0.26329 0.46302,-0.46303 0.41965,-0.32908 0.42899,-0.31974 0.0999,0.0999 -0.34565,0.44072 -0.56292,0.58089 -0.56292,0.36312 z m -137.88167,-2.2152 c -0.32911,-0.41966 -0.31975,-0.429 0.0999,-0.0999 0.25467,0.19974 0.46302,0.40809 0.46302,0.46302 0,0.21778 -0.21727,0.0776 -0.56291,-0.36311 z m 141.05667,-0.43064 c 0,-0.0549 0.20835,-0.26328 0.46302,-0.46302 0.41965,-0.32909 0.42899,-0.31975 0.0999,0.0999 -0.34565,0.44071 -0.56292,0.58089 -0.56292,0.36311 z m -143.28853,-1.55374 -0.7771,-0.85989 0.8599,0.7771 c 0.80154,0.72438 0.98151,0.94269 0.7771,0.94269 -0.0455,0 -0.43249,-0.38695 -0.8599,-0.8599 z m 148.84478,-3.77031 c 1.66875,-1.67349 3.09361,-3.04271 3.16637,-3.04271 0.0728,0 -1.23304,1.36922 -2.90179,3.04271 -1.66875,1.67349 -3.09362,3.04271 -3.16638,3.04271 -0.0728,0 1.23304,-1.36922 2.9018,-3.04271 z m -156.1242,-3.50573 -0.64143,-0.7276 0.7276,0.64143 c 0.40019,0.35279 0.72761,0.68021 0.72761,0.7276 0,0.20751 -0.21426,0.0386 -0.81378,-0.64143 z m 160.7544,-1.38906 c 0.2634,-0.29104 0.53843,-0.52917 0.61119,-0.52917 0.0728,0 -0.0832,0.23813 -0.3466,0.52917 -0.2634,0.29104 -0.53843,0.52917 -0.61119,0.52917 -0.0728,0 0.0832,-0.23813 0.3466,-0.52917 z m -162.88479,-0.99219 c -0.32911,-0.41965 -0.31975,-0.42899 0.0999,-0.0999 0.44073,0.34565 0.58088,0.56292 0.36312,0.56292 -0.0549,0 -0.2633,-0.20836 -0.46302,-0.46302 z m -1.5875,-1.85208 c -0.32911,-0.41966 -0.31975,-0.429 0.0999,-0.0999 0.44073,0.34565 0.58088,0.56293 0.36312,0.56293 -0.0549,0 -0.2633,-0.20836 -0.46302,-0.46302 z m 166.98584,-0.16605 c 0,-0.0549 0.20835,-0.26329 0.46302,-0.46302 0.41965,-0.32909 0.42899,-0.31975 0.0999,0.0999 -0.34565,0.44072 -0.56292,0.58089 -0.56292,0.36312 z m 68.65106,-22.91885 c 0,-8.51297 0.0335,-11.99554 0.0743,-7.73906 0.0408,4.25649 0.0408,11.22164 0,15.47813 -0.0408,4.25648 -0.0743,0.7739 -0.0743,-7.73907 z m 15.34584,0 c 0,-8.51297 0.0334,-11.99554 0.0743,-7.73906 0.0408,4.25649 0.0408,11.22164 0,15.47813 -0.0408,4.25648 -0.0743,0.7739 -0.0743,-7.73907 z m 30.69166,0 c 0,-8.51297 0.0335,-11.99554 0.0743,-7.73906 0.0408,4.25649 0.0408,11.22164 0,15.47813 -0.0408,4.25648 -0.0743,0.7739 -0.0743,-7.73907 z m 15.34584,0 c 0,-8.51297 0.0334,-11.99554 0.0743,-7.73906 0.0408,4.25649 0.0408,11.22164 0,15.47813 -0.0408,4.25648 -0.0743,0.7739 -0.0743,-7.73907 z m -309.07428,4.54208 c -6.46568,-12.27349 -10.371,-25.45951 -11.76735,-39.73166 -0.52264,-5.34191 -0.44986,-18.4464 0.12711,-22.88646 1.23416,-9.49737 3.54011,-18.54268 6.84631,-26.8552 13.30174,-33.4436 42.53849,-58.20999 77.6036,-65.73785 21.29615,-4.5719 43.96089,-2.58703 63.53574,5.56419 14.04255,5.84749 25.5052,13.57495 35.97468,24.25201 5.31577,5.42117 9.11461,10.08215 13.21181,16.21019 2.28235,3.41365 2.93066,4.56732 2.68941,4.78578 -0.17483,0.15833 -21.33242,12.37959 -47.01685,27.1584 -60.38318,34.74444 -139.26433,80.13861 -139.44071,80.2447 -0.0757,0.0455 -0.86936,-1.30635 -1.76375,-3.0041 z m 216.99229,-27.56083 c 0,-4.29286 0.0364,-6.04903 0.0809,-3.9026 0.0444,2.14643 0.0444,5.65878 0,7.80521 -0.0445,2.14643 -0.0809,0.39026 -0.0809,-3.90261 z m 30.69865,-23.01874 c 0,-8.51297 0.0335,-11.99555 0.0743,-7.73907 0.0408,4.25649 0.0408,11.22164 0,15.47813 -0.0408,4.25648 -0.0743,0.7739 -0.0743,-7.73906 z m 15.34584,0 c 0,-8.51297 0.0334,-11.99555 0.0743,-7.73907 0.0408,4.25649 0.0408,11.22164 0,15.47813 -0.0408,4.25648 -0.0743,0.7739 -0.0743,-7.73906 z m 30.69166,0 c 0,-8.51297 0.0335,-11.99555 0.0743,-7.73907 0.0408,4.25649 0.0408,11.22164 0,15.47813 -0.0408,4.25648 -0.0743,0.7739 -0.0743,-7.73906 z m 15.34576,-0.1323 c -3e-5,-8.4402 0.0334,-11.93128 0.0744,-7.75795 0.0409,4.17333 0.0409,11.07895 5e-5,15.34583 -0.0409,4.26689 -0.0743,0.85233 -0.0744,-7.58788 z m -92.13692,-22.9526 -0.062,-7.87135 h 15.34369 15.34369 l 0.0683,-15.27969 0.0683,-15.27969 7.73906,-0.0701 7.73907,-0.0701 v 15.34983 15.34983 h 15.21139 15.2114 l 0.0683,-15.27969 0.0683,-15.27969 7.73906,-0.0701 7.73907,-0.0701 v 15.34768 15.34772 l 15.27968,0.0715 15.27969,0.0715 -15.34583,-0.003 -15.34584,-0.003 -0.0683,-15.27969 -0.0683,-15.27968 h -7.53849 -7.53848 v 15.34797 15.34795 l -15.41198,-0.0683 -15.41198,-0.0683 -0.0683,-15.27969 -0.0683,-15.27968 h -7.53849 -7.53848 v 15.34583 15.34583 h -15.34184 -15.34183 l -0.0743,7.73906 -0.0743,7.73907 -0.062,-7.87136 z M 772.30415,399.25626 c 0.005,-0.43656 0.0647,-0.58313 0.13179,-0.3257 0.0671,0.25744 0.0627,0.61462 -0.01,0.79375 -0.0725,0.17913 -0.12734,-0.0315 -0.12197,-0.46805 z m -0.26458,-2.91042 c 0.005,-0.43656 0.0647,-0.58312 0.13179,-0.32569 0.0671,0.25743 0.0627,0.61462 -0.01,0.79375 -0.0725,0.17913 -0.12735,-0.0315 -0.12198,-0.46806 z m -0.29528,-2.13871 c 0.0127,-0.30823 0.0754,-0.37092 0.15986,-0.15986 0.0764,0.191 0.067,0.4192 -0.0209,0.50712 -0.0879,0.0879 -0.15047,-0.0684 -0.13898,-0.34726 z m -0.26458,-1.5875 c 0.0127,-0.30823 0.0754,-0.37092 0.15986,-0.15986 0.0764,0.191 0.067,0.4192 -0.0209,0.50712 -0.0879,0.0879 -0.15047,-0.0683 -0.13899,-0.34726 z"
         id="path1792" />
      <path
         style="fill:#380090;stroke-width:0.264583"
         d="m 480.35102,866.45598 c 0.32742,-0.0631 0.8632,-0.0631 1.19062,0 0.32743,0.0631 0.0595,0.11465 -0.59531,0.11465 -0.65484,0 -0.92273,-0.0516 -0.59531,-0.11465 z m -4.49792,-0.2531 c 0.1819,-0.0734 0.47956,-0.0734 0.66146,0 0.1819,0.0734 0.0331,0.13346 -0.33073,0.13346 -0.3638,0 -0.51263,-0.0601 -0.33073,-0.13346 z m 12.18737,-0.27008 c 0.19101,-0.0764 0.41921,-0.067 0.50713,0.0209 0.0879,0.0879 -0.0684,0.15047 -0.34727,0.13898 -0.30824,-0.0127 -0.37092,-0.0754 -0.15986,-0.15986 z M 474.39789,755.59991 c 0.25467,-0.0666 0.67138,-0.0666 0.92605,0 0.25466,0.0665 0.0463,0.12099 -0.46303,0.12099 -0.50932,0 -0.71768,-0.0544 -0.46302,-0.12099 z m 13.89063,-0.004 c 0.32742,-0.0631 0.8632,-0.0631 1.19062,0 0.32743,0.063 0.0595,0.11464 -0.59531,0.11464 -0.65484,0 -0.92273,-0.0516 -0.59531,-0.11464 z m -19.03346,-0.25861 c 0.191,-0.0764 0.4192,-0.067 0.50712,0.0209 0.0879,0.0879 -0.0684,0.15046 -0.34726,0.13898 -0.30824,-0.0127 -0.37092,-0.0754 -0.15986,-0.15986 z m 26.72291,0 c 0.19101,-0.0764 0.41921,-0.067 0.50713,0.0209 0.0879,0.0879 -0.0684,0.15046 -0.34727,0.13898 -0.30824,-0.0127 -0.37092,-0.0754 -0.15986,-0.15986 z m -30.42708,-0.26458 c 0.191,-0.0764 0.4192,-0.067 0.50713,0.0209 0.0879,0.0879 -0.0684,0.15047 -0.34727,0.13899 -0.30824,-0.0127 -0.37092,-0.0754 -0.15986,-0.15986 z m 34.13125,0 c 0.191,-0.0764 0.4192,-0.067 0.50713,0.0209 0.0879,0.0879 -0.0684,0.15047 -0.34727,0.13899 -0.30824,-0.0127 -0.37092,-0.0754 -0.15986,-0.15986 z m 2.91042,-0.26458 c 0.191,-0.0764 0.4192,-0.067 0.50712,0.0209 0.0879,0.0879 -0.0684,0.15047 -0.34726,0.13898 -0.30824,-0.0127 -0.37092,-0.0754 -0.15986,-0.15986 z M 207.598,716.16093 c -0.32911,-0.41965 -0.31975,-0.42899 0.0999,-0.0999 0.44073,0.34565 0.58089,0.56293 0.36313,0.56293 -0.0549,0 -0.2633,-0.20836 -0.46302,-0.46303 z m 546.9275,0.0985 c 0,-0.0549 0.20836,-0.26329 0.46302,-0.46303 0.41966,-0.32908 0.429,-0.31974 0.0999,0.0999 -0.34565,0.44072 -0.56293,0.58089 -0.56293,0.36312 z m 4.23333,-4.23334 c 0,-0.0549 0.20836,-0.26328 0.46302,-0.46302 0.41966,-0.32909 0.429,-0.31975 0.0999,0.0999 -0.34565,0.44071 -0.56293,0.58089 -0.56293,0.36311 z m -555.92333,-0.6277 c -0.32911,-0.41965 -0.31975,-0.42899 0.0999,-0.0999 0.44073,0.34565 0.58089,0.56293 0.36313,0.56293 -0.0549,0 -0.2633,-0.20836 -0.46302,-0.46303 z m 421.77958,-8.63271 c 0,-0.0549 0.20836,-0.26329 0.46302,-0.46302 0.41966,-0.32909 0.429,-0.31975 0.0999,0.0999 -0.34565,0.44072 -0.56293,0.58089 -0.56293,0.36312 z m -284.72542,-0.6277 c -0.3291,-0.41966 -0.31975,-0.429 0.0999,-0.0999 0.44073,0.34565 0.58089,0.56293 0.36312,0.56293 -0.0549,0 -0.2633,-0.20836 -0.46302,-0.46302 z m 378.25563,-27.08137 c -26.04823,-15.10578 -47.50318,-27.41695 -47.67768,-27.35816 -0.17449,0.0588 -0.26662,-0.0359 -0.20476,-0.2104 0.11245,-0.31712 -93.21157,-54.55684 -93.86967,-54.55684 -0.18103,0 -0.46053,-0.11906 -0.62113,-0.26458 -0.16061,-0.14552 -21.26443,-12.40666 -46.8974,-27.247 -25.63297,-14.84032 -46.6054,-27.05145 -46.6054,-27.13586 0,-0.14705 41.64142,-24.15399 139.03854,-80.15794 24.88406,-14.30849 46.37484,-26.6939 47.75729,-27.52315 1.38245,-0.82925 23.34948,-13.50198 48.81563,-28.16164 25.46614,-14.65965 46.56055,-26.81704 46.87644,-27.01643 0.54356,-0.34307 0.61873,-0.28388 1.40176,1.10358 1.96866,3.48825 4.25209,10.08837 5.16284,14.92282 1.23915,6.57768 1.18962,0.44116 1.19169,147.63749 0,95.48149 -0.085,139.18599 -0.27909,141.2875 -0.40169,4.34927 -1.43735,9.38588 -2.74743,13.36146 -1.11329,3.3783 -3.28665,8.39771 -3.74711,8.65391 -0.12877,0.0716 -21.54629,-12.22901 -47.59452,-27.33476 z m -67.86562,-90.72436 v -15.34583 h 15.21354 15.21354 v 15.34583 15.34584 h 7.80521 7.80521 v -15.34584 -15.34583 h 15.34583 15.34583 v -7.67292 -7.67291 H 711.663 696.31717 V 538.2948 522.94896 h 15.34583 15.34583 v -7.80521 -7.8052 H 711.663 696.31717 v -15.34983 -15.34983 l -7.73907,0.0701 -7.73906,0.0701 -0.0683,15.27969 -0.0683,15.27969 h -15.2114 -15.21139 v -15.34983 -15.34983 l -7.73907,0.0701 -7.73906,0.0701 -0.0683,15.27969 -0.0683,15.27969 h -15.34369 -15.34369 v 7.8052 7.80521 h 15.34584 15.34583 v 15.34584 15.34583 h -15.34583 -15.34584 v 7.67291 7.67292 h 15.34584 15.34583 v 15.34583 15.34584 h 7.80521 7.80521 z m 0,-46.03749 v -15.34584 h 15.21354 15.21354 v 15.34584 15.34583 h -15.21354 -15.21354 z m -22.88646,161.92499 c 0.26339,-0.29104 0.53842,-0.52917 0.61118,-0.52917 0.0728,0 -0.0832,0.23813 -0.3466,0.52917 -0.26339,0.29104 -0.53843,0.52917 -0.61119,0.52917 -0.0728,0 0.0832,-0.23813 0.34661,-0.52917 z m -289.8848,-0.19844 c -0.3291,-0.41965 -0.31975,-0.42899 0.0999,-0.0999 0.44073,0.34565 0.58089,0.56292 0.36312,0.56292 -0.0549,0 -0.2633,-0.20836 -0.46302,-0.46302 z m -2.89669,-2.64583 -0.64143,-0.72761 0.7276,0.64143 c 0.68006,0.59952 0.84894,0.81378 0.64144,0.81378 -0.0474,0 -0.37482,-0.32742 -0.72761,-0.7276 z m 295.55961,0.38023 c 0,-0.0455 0.38696,-0.43249 0.8599,-0.85989 l 0.85989,-0.77711 -0.7771,0.85989 c -0.72438,0.80156 -0.94269,0.98153 -0.94269,0.77711 z m -305.22201,-10.03752 -0.50403,-0.59532 0.59531,0.50404 c 0.55945,0.47365 0.71576,0.68659 0.50403,0.68659 -0.0502,0 -0.3181,-0.26789 -0.59531,-0.59531 z m 316.06993,-0.8599 c 0.34176,-0.3638 0.68093,-0.66146 0.75369,-0.66146 0.0728,0 -0.14735,0.29766 -0.48911,0.66146 -0.34176,0.3638 -0.68093,0.66146 -0.75369,0.66146 -0.0728,0 0.14735,-0.29766 0.48911,-0.66146 z M 321.898,684.41094 c -0.32911,-0.41966 -0.31975,-0.429 0.0999,-0.0999 0.44073,0.34565 0.58089,0.56293 0.36313,0.56293 -0.0549,0 -0.2633,-0.20836 -0.46302,-0.46302 z m 321.5025,-0.16606 c 0,-0.0549 0.20836,-0.26328 0.46302,-0.46302 0.41966,-0.32909 0.429,-0.31975 0.0999,0.0999 -0.34565,0.44072 -0.56293,0.58089 -0.56293,0.36311 z M 319.51675,681.7651 c -0.32911,-0.41965 -0.31975,-0.42899 0.0999,-0.0999 0.25466,0.19973 0.46302,0.40809 0.46302,0.46302 0,0.21778 -0.21727,0.0776 -0.56291,-0.36312 z m 326.00042,0.0985 c 0,-0.0549 0.20836,-0.26328 0.46302,-0.46302 0.41965,-0.32909 0.42899,-0.31975 0.0999,0.0999 -0.34565,0.44072 -0.56292,0.58089 -0.56292,0.36311 z M 482.2062,646.8514 c 0.32911,-0.0633 0.80536,-0.0609 1.05833,0.005 0.25294,0.0662 -0.0164,0.11801 -0.59841,0.11507 -0.58208,-0.003 -0.78906,-0.0571 -0.45992,-0.12041 z m -6.86573,-0.25818 c 0.191,-0.0764 0.41921,-0.067 0.50713,0.0209 0.0879,0.0879 -0.0684,0.15047 -0.34727,0.13899 -0.30824,-0.0127 -0.37092,-0.0754 -0.15986,-0.15986 z m 14.27097,0.006 c 0.1819,-0.0734 0.47955,-0.0734 0.66145,0 0.18191,0.0734 0.0331,0.13345 -0.33072,0.13345 -0.36381,0 -0.51264,-0.0601 -0.33073,-0.13345 z m 3.19153,-0.27009 c 0.19101,-0.0764 0.41921,-0.067 0.50713,0.0209 0.0879,0.0879 -0.0684,0.15047 -0.34727,0.13899 -0.30824,-0.0127 -0.37092,-0.0754 -0.15986,-0.15986 z m -79.35914,-24.624 c -0.32911,-0.41966 -0.31975,-0.429 0.0999,-0.0999 0.44073,0.34565 0.58088,0.56293 0.36312,0.56293 -0.0549,0 -0.2633,-0.20836 -0.46302,-0.46302 z m 138.94,-0.43064 c 0,-0.0549 0.20836,-0.26328 0.46302,-0.46302 0.41966,-0.32909 0.429,-0.31975 0.0999,0.0999 -0.34565,0.44071 -0.56293,0.58089 -0.56293,0.36311 z m 1.85209,-1.5875 c 0,-0.0549 0.20835,-0.26328 0.46302,-0.46302 0.41965,-0.32909 0.42899,-0.31975 0.0999,0.0999 -0.34565,0.44071 -0.56292,0.58089 -0.56292,0.36311 z m -145.93016,-2.61207 -1.04589,-1.12448 1.12448,1.04587 c 1.04576,0.97266 1.24607,1.20309 1.04589,1.20309 -0.0432,0 -0.54925,-0.50602 -1.12448,-1.12448 z m -3.83825,-3.83646 -0.9118,-0.99219 0.99218,0.91181 c 0.54571,0.50149 0.99219,0.94798 0.99219,0.99219 0,0.20203 -0.22389,0.0116 -1.07257,-0.91181 z"
         id="path1790" />
      <path
         style="fill:#270067;stroke-width:0.264583"
         d="m 474.86091,866.08591 c -3.12375,-0.35195 -7.98943,-1.50961 -11.75588,-2.79702 -5.10429,-1.74471 -10.1654,-4.24172 -18.14203,-8.95077 -4.70336,-2.77664 -41.91297,-24.33021 -46.96354,-27.2035 -1.01865,-0.57949 -7.32896,-4.20974 -14.02292,-8.06718 -20.33532,-11.71837 -42.0065,-24.19418 -51.32917,-29.54954 -8.62494,-4.95453 -37.43574,-21.52356 -41.53958,-23.8893 -3.20136,-1.84552 -19.1378,-11.01307 -35.18958,-20.24311 -3.78355,-2.17559 -10.62964,-6.12386 -15.21355,-8.7739 -4.5839,-2.65007 -10.89422,-6.28471 -14.02291,-8.07699 -12.69585,-7.2729 -15.66005,-9.27121 -20.58617,-13.87822 -3.80857,-3.56187 -9.6917,-11.55557 -8.98279,-12.20539 0.18287,-0.16764 10.33375,-6.05454 22.5575,-13.082 12.22375,-7.02749 33.98744,-19.54969 48.36376,-27.82716 14.37632,-8.27743 26.23294,-14.99168 26.34805,-14.92054 0.11512,0.0711 1.15032,1.71217 2.30047,3.64673 5.68117,9.55588 14.22107,21.46017 21.12432,29.44656 21.82723,25.25199 46.82866,43.94221 76.89085,57.48099 18.63699,8.39335 40.59116,14.4947 61.11317,16.98411 9.93543,1.2052 14.6974,1.46238 26.85521,1.45029 11.75457,-0.0116 15.35369,-0.18847 24.18165,-1.18774 38.85917,-4.3987 74.85115,-18.72425 106.18102,-42.26224 21.55428,-16.19364 41.35234,-38.03563 54.84876,-60.51124 1.13599,-1.89177 2.2115,-3.60034 2.39004,-3.7968 0.26704,-0.2939 8.69302,4.48678 47.51678,26.95972 25.95568,15.02434 47.34552,27.45729 47.53295,27.62882 0.27282,0.24964 -0.0796,0.94147 -1.76635,3.46734 -3.86654,5.79017 -8.73988,10.63871 -14.9786,14.90239 -2.56129,1.75043 -21.33679,12.62147 -88.23854,51.09022 -31.45919,18.08914 -70.564,40.61142 -123.03125,70.85938 -14.77036,8.5153 -28.58513,16.33006 -30.6995,17.36612 -3.9946,1.95744 -9.61083,3.997 -13.48591,4.89749 -5.24032,1.21771 -12.84595,1.652 -18.25626,1.04248 z m -1.19062,-219.60842 c -20.74344,-1.95961 -39.11687,-8.93397 -55.29792,-20.99048 -9.22586,-6.87422 -18.52544,-16.57059 -24.75273,-25.80888 -2.33192,-3.45946 -4.71578,-7.54589 -4.51772,-7.74436 0.11182,-0.11205 10.61295,-6.19307 23.33584,-13.51341 12.72289,-7.32033 33.54697,-19.30357 46.27571,-26.62943 12.72876,-7.32587 23.2658,-13.31577 23.41563,-13.31093 0.2132,0.007 93.40032,53.87311 93.76066,54.19773 0.25667,0.23122 -0.55195,1.63322 -3.39672,5.88949 -10.63353,15.9095 -24.27349,28.06311 -41.01129,36.54226 -12.55858,6.36204 -24.98164,9.9595 -38.87719,11.25805 -4.67648,0.43701 -14.84691,0.4961 -18.93427,0.10996 z"
         id="path1788" />
    </g>
  </g>
</svg>
