<?xml version="1.0" encoding="UTF-8" standalone="no"?>
<!-- Created with Inkscape (http://www.inkscape.org/) -->

<svg
   width="1000mm"
   height="1000mm"
   viewBox="0 0 1000 1000"
   version="1.1"
   id="svg930"
   inkscape:version="1.1 (c68e22c387, 2021-05-23)"
   sodipodi:docname="c#_white.svg"
   xmlns:inkscape="http://www.inkscape.org/namespaces/inkscape"
   xmlns:sodipodi="http://sodipodi.sourceforge.net/DTD/sodipodi-0.dtd"
   xmlns="http://www.w3.org/2000/svg"
   xmlns:svg="http://www.w3.org/2000/svg">
  <sodipodi:namedview
     id="namedview932"
     pagecolor="#ffffff"
     bordercolor="#666666"
     borderopacity="1.0"
     inkscape:pageshadow="2"
     inkscape:pageopacity="0.0"
     inkscape:pagecheckerboard="0"
     inkscape:document-units="mm"
     showgrid="false"
     units="mm"
     width="1000mm"
     inkscape:zoom="0.16"
     inkscape:cx="1659.375"
     inkscape:cy="1859.375"
     inkscape:window-width="1920"
     inkscape:window-height="1017"
     inkscape:window-x="1912"
     inkscape:window-y="-8"
     inkscape:window-maximized="1"
     inkscape:current-layer="layer1" />
  <defs
     id="defs927" />
  <g
     inkscape:label="Calque 1"
     inkscape:groupmode="layer"
     id="layer1">
    <g
       id="g258" />
    <path
       style="fill:#ffffff;stroke-width:0.817486"
       d="m 490.74808,991.87812 c -7.91922,-1.24879 -16.89151,-3.98386 -22.55013,-6.87408 C 456.51092,979.03468 99.61223,772.36445 95.41697,769.13682 82.5479,759.23598 71.818979,743.97803 66.967348,728.67769 62.942412,715.98446 63.133855,727.5583 63.133855,496.92054 c 0,-208.01344 0.06028,-216.8939 1.514918,-223.17355 4.76,-20.54886 18.377747,-41.06903 34.045707,-51.30243 2.47289,-1.61514 75.67872,-44.03077 162.67962,-94.25694 C 348.375,77.961454 429.996,30.830377 442.7541,23.451896 471.11957,7.0470925 470.57138,7.3275015 479.1196,4.8503252 489.781,1.7607727 501.56202,0.6902198 511.98869,1.8634791 c 9.30408,1.0469407 20.47758,3.9474564 25.93824,6.7332784 1.8669,0.95242 24.55616,13.9567135 50.42059,28.8984315 25.86443,14.941718 107.72453,62.207914 181.91134,105.035991 74.18682,42.82808 136.55639,79.08754 138.59912,80.57659 4.65632,3.39429 16.77022,15.91588 20.1238,20.801 5.69877,8.30155 10.69009,19.70835 13.05638,29.83822 1.47172,6.30037 1.52764,14.51884 1.52764,224.39978 v 217.8599 l -2.17378,7.86329 c -2.50477,9.06037 -6.53449,18.18833 -11.03401,24.99344 -3.81242,5.76602 -13.55963,16.12131 -19.3386,20.54497 -4.15961,3.18414 -362.97242,210.75698 -373.27146,215.93714 -8.40293,4.22656 -19.1966,6.61574 -31.53692,6.98075 -5.84503,0.1729 -12.80335,-0.0286 -15.46295,-0.44814 z m 52.65854,-203.89095 c 13.78039,-1.93221 21.946,-3.50072 34.53195,-6.63308 71.93055,-17.90219 132.693,-62.67497 173.26571,-127.67078 3.4083,-5.45996 5.50124,-9.59703 5.07152,-10.02475 -0.79706,-0.79334 -123.21698,-71.77978 -124.90546,-72.42771 -0.59753,-0.22929 -2.34847,1.60012 -4.15227,4.33837 -12.20563,18.52864 -30.28866,36.46898 -47.88091,47.50308 -7.41952,4.65364 -22.78749,11.90729 -30.61688,14.45114 -28.57144,9.28311 -60.33116,9.12667 -89.51467,-0.44096 -10.44965,-3.42584 -26.22886,-11.07702 -35.85037,-17.38348 -38.63492,-25.32343 -62.52557,-65.94189 -66.2046,-112.55989 -1.89082,-23.95908 4.11844,-52.26426 16.30502,-76.80091 9.0082,-18.13725 20.59588,-33.09024 34.93981,-45.08706 20.35274,-17.02239 41.87209,-27.40926 67.73391,-32.6935 11.83862,-2.41894 35.29879,-3.01193 47.65759,-1.20461 42.96522,6.28309 78.60413,29.34294 103.42282,66.91884 2.24481,3.39869 3.49195,4.59508 4.41941,4.23957 2.22987,-0.85473 123.03549,-70.8627 124.28523,-72.02443 1.0252,-0.953 0.10554,-2.7046 -6.71815,-12.79554 -51.1311,-75.61314 -124.31116,-121.42793 -210.69457,-131.90651 -14.66184,-1.77853 -49.14633,-2.00765 -62.53765,-0.41551 -28.06868,3.33717 -51.34417,8.76477 -74.54803,17.38381 -92.75789,34.4548 -160.24,108.58857 -182.91844,200.94859 -6.03737,24.58772 -8.17227,43.11194 -8.10864,70.35749 0.0837,35.84333 5.47768,68.37202 16.78926,101.24869 29.65544,86.19246 99.00131,153.01687 187.47443,180.65778 22.76865,7.11342 41.60555,10.82276 68.66879,13.52226 8.28798,0.82672 51.11455,-0.24304 60.08519,-1.5009 z m 157.8269,-214.8361 c 0.0287,-0.11241 1.04035,-9.40109 2.24809,-20.64151 l 2.19589,-20.43714 13.69289,-0.22414 13.69288,-0.22414 v 1.94409 c 0,1.95261 -2.85751,29.81461 -3.72422,36.3129 l -0.46339,3.47431 h 12.16646 12.16646 l 1.8194,-18.18905 c 1.00067,-10.00398 2.02694,-19.38463 2.2806,-20.84588 l 0.46121,-2.65683 h 11.35382 11.35382 v -11.4448 -11.4448 h -10.21857 c -9.19257,0 -10.2171,-0.14364 -10.20389,-1.4306 0.008,-0.78683 0.7372,-8.05223 1.62029,-16.14534 0.88309,-8.0931 1.61222,-15.17457 1.6203,-15.73659 0.0111,-0.77142 3.01995,-1.02186 12.27696,-1.02186 h 12.26228 v -11.4448 -11.4448 h -11.12887 -11.12888 l 0.48629,-3.47431 c 0.26745,-1.91087 1.04456,-9.17627 1.72688,-16.14534 0.68232,-6.96906 1.4416,-13.8666 1.68729,-15.32785 l 0.4467,-2.65683 H 758.0492 c -11.6569,0 -11.88201,0.0338 -12.25617,1.83934 -0.20964,1.01164 -0.96458,7.72524 -1.67766,14.91911 -0.71308,7.19388 -1.51563,14.82715 -1.78344,16.96283 l -0.48695,3.88305 h -13.79194 c -13.76163,0 -13.79191,-0.004 -13.77888,-1.83934 0.007,-1.01164 0.74197,-8.64491 1.63287,-16.96282 0.89092,-8.31792 1.62078,-15.95119 1.62193,-16.96283 0.002,-1.82203 -0.10819,-1.83934 -11.71869,-1.83934 H 694.0895 l -1.37786,13.28414 c -0.75782,7.30628 -1.6065,15.76725 -1.88595,18.80217 l -0.5081,5.51802 h -11.73532 -11.73533 v 11.4448 11.4448 h 10.21857 10.21857 v 2.49155 c 0,2.27161 -1.81616,19.93608 -2.91668,28.36853 l -0.45345,3.47431 h -11.80344 -11.80346 v 11.4448 11.4448 h 10.62732 c 5.84502,0 10.62731,0.16233 10.62731,0.36075 0,0.19842 -0.91953,8.93529 -2.0434,19.41529 -1.12387,10.47998 -2.04354,19.69829 -2.04371,20.48512 -2.9e-4,1.29671 1.109,1.4306 11.85322,1.4306 6.51945,0 11.87703,-0.092 11.90573,-0.20437 z m 7.30518,-66.97889 c 0,-3.0203 2.35797,-27.11536 2.92538,-29.89315 0.37126,-1.81754 0.53482,-1.83934 13.80041,-1.83934 7.38358,0 13.58972,0.2759 13.79142,0.61311 0.2017,0.33722 -0.42036,7.97049 -1.38236,16.96283 l -1.74908,16.34971 -13.69289,0.22414 -13.69288,0.22414 z"
       id="path3913" />
  </g>
</svg>
