<?xml version="1.0" encoding="UTF-8" standalone="no"?>
<!-- Created with Inkscape (http://www.inkscape.org/) -->

<svg
   width="300mm"
   height="300mm"
   viewBox="0 0 300 300"
   version="1.1"
   id="svg5"
   inkscape:version="1.1 (c68e22c387, 2021-05-23)"
   sodipodi:docname="d_white.svg"
   xmlns:inkscape="http://www.inkscape.org/namespaces/inkscape"
   xmlns:sodipodi="http://sodipodi.sourceforge.net/DTD/sodipodi-0.dtd"
   xmlns="http://www.w3.org/2000/svg"
   xmlns:svg="http://www.w3.org/2000/svg">
  <sodipodi:namedview
     id="namedview7"
     pagecolor="#ffffff"
     bordercolor="#666666"
     borderopacity="1.0"
     inkscape:pageshadow="2"
     inkscape:pageopacity="0.0"
     inkscape:pagecheckerboard="0"
     inkscape:document-units="mm"
     showgrid="false"
     inkscape:zoom="0.23716796"
     inkscape:cx="318.3398"
     inkscape:cy="621.92212"
     inkscape:window-width="1920"
     inkscape:window-height="1017"
     inkscape:window-x="1912"
     inkscape:window-y="-8"
     inkscape:window-maximized="1"
     inkscape:current-layer="layer1" />
  <defs
     id="defs2" />
  <g
     inkscape:label="Calque 1"
     inkscape:groupmode="layer"
     id="layer1">
    <path
       style="fill:#ffffff;stroke-width:2.10144"
       d="m 345.32862,206.69709 c -1208.33431,-976.68687 -604.16711,-488.34346 0,0 z M 3.3299833,269.31734 C 1.2821291,267.85882 0.83727735,246.16997 1.259993,168.39892 L 1.7982631,69.338371 H 62.863741 c 53.487849,0 62.863509,0.5023 75.555569,4.046875 14.90998,4.164216 30.87241,11.494581 40.89219,18.778847 l 5.70197,4.145171 11.63233,-5.865171 c 15.08577,-7.606607 30.78855,-9.027886 43.77538,-3.962137 22.10222,8.621327 33.75951,24.246404 33.85762,45.381494 0.12678,27.31319 -17.33423,45.54994 -48.40128,50.55166 -5.45906,0.87886 -7.76307,2.32885 -7.76424,4.88643 -0.003,5.56868 -11.50471,29.38164 -18.56637,38.43764 -12.4568,15.97494 -34.40081,30.14701 -60.34031,38.96951 -11.85992,4.03375 -19.33177,4.59275 -73.237877,5.4792 -33.016711,0.54266 -61.2041893,0.15162 -62.6388975,-0.87055 z M 97.393871,232.45985 c 27.369109,-2.46881 42.544699,-7.8007 55.403859,-19.46597 26.38304,-23.93358 26.59083,-66.11667 0.43345,-87.94623 -18.91882,-15.78835 -36.66257,-20.41796 -78.464411,-20.4723 l -28.462708,-0.0403 -0.460819,33.59999 c -0.474892,34.59767 0.482723,92.4859 1.562467,94.42949 1.135374,2.04436 26.740648,1.98913 49.988702,-0.10798 z M 279.18056,92.312759 c -12.15971,-2.981041 -15.62068,-18.164513 -5.9309,-26.019546 2.99984,-2.431881 7.53169,-4.421488 10.07089,-4.421488 2.53926,0 7.07112,1.989607 10.07094,4.421488 12.77991,10.360115 2.05005,30.006127 -14.21093,26.019546 z"
       id="path3152"
       sodipodi:nodetypes="ccsscssscsssscssssscssccssccsssss" />
  </g>
</svg>
