<?xml version="1.0" encoding="UTF-8" standalone="no"?>
<!-- Created with Inkscape (http://www.inkscape.org/) -->

<svg
   width="300mm"
   height="300mm"
   viewBox="0 0 300 300"
   version="1.1"
   id="svg5"
   inkscape:version="1.1 (c68e22c387, 2021-05-23)"
   sodipodi:docname="delphi_white.svg"
   xmlns:inkscape="http://www.inkscape.org/namespaces/inkscape"
   xmlns:sodipodi="http://sodipodi.sourceforge.net/DTD/sodipodi-0.dtd"
   xmlns="http://www.w3.org/2000/svg"
   xmlns:svg="http://www.w3.org/2000/svg">
  <sodipodi:namedview
     id="namedview7"
     pagecolor="#ffffff"
     bordercolor="#666666"
     borderopacity="1.0"
     inkscape:pageshadow="2"
     inkscape:pageopacity="0.0"
     inkscape:pagecheckerboard="0"
     inkscape:document-units="mm"
     showgrid="false"
     inkscape:zoom="0.16770307"
     inkscape:cx="348.83082"
     inkscape:cy="187.83198"
     inkscape:window-width="1920"
     inkscape:window-height="1017"
     inkscape:window-x="1912"
     inkscape:window-y="-8"
     inkscape:window-maximized="1"
     inkscape:current-layer="layer1" />
  <defs
     id="defs2" />
  <g
     inkscape:label="Calque 1"
     inkscape:groupmode="layer"
     id="layer1">
    <path
       style="fill:#ffffff;stroke-width:0.374059"
       d="M 136.63546,299.46152 C 85.545381,294.76122 40.750488,264.4508 17.262802,218.68813 3.0044988,190.90772 -2.1110307,160.60499 2.2055519,129.49394 10.543473,69.399624 54.876928,20.153364 114.00492,5.3055498 c 24.37469,-6.12080987 50.07937,-5.94023813 74.62469,0.5242284 24.95341,6.5719438 47.3504,19.3233658 66.2913,37.7420678 51.20822,49.796356 59.75372,129.014664 20.40163,189.126494 -9.89435,15.11401 -24.47072,30.08918 -39.44903,40.52832 -18.64635,12.9956 -40.56668,21.75691 -62.95436,25.16218 -10.65383,1.62048 -25.54436,2.06071 -36.28369,1.07268 z m 49.42029,-28.27062 c 7.76181,-3.96943 12.88672,-8.7642 14.20142,-13.28653 0.57385,-1.97404 0.56235,-2.13541 -0.391,-5.47879 -2.73955,-9.60775 -6.75883,-18.04985 -12.50348,-26.26242 -4.5833,-6.55228 -8.63925,-10.72225 -17.21667,-17.70068 -3.19663,-2.60071 -8.71611,-7.56975 -12.26552,-11.04231 l -6.4535,-6.31377 -3.55506,0.66958 c -1.95529,0.36827 -3.7436,0.7861 -3.97402,0.92851 -0.27583,0.17047 5.87812,13.91677 18.01347,40.23747 10.1378,21.98819 18.59556,40.0876 18.79498,40.22089 0.48361,0.32322 1.83684,-0.17562 5.34938,-1.97195 z m -28.27298,-19.11897 c 1.94731,-3.54601 3.58791,-6.7863 3.64577,-7.20063 0.10801,-0.77323 -7.46149,-17.61822 -8.26293,-18.38812 -0.50729,-0.48734 -16.2177,-2.30903 -22.70212,-2.63242 -10.75041,-0.53615 -21.70306,2.11609 -24.15229,5.84859 -0.81184,1.2372 -11.75735,26.31665 -11.75735,26.93962 0,0.15597 1.1362,-0.0341 2.5249,-0.42235 10.94502,-3.06004 26.99583,-2.7419 48.34709,0.95831 4.01176,0.69525 7.63663,1.28213 8.05525,1.3042 0.61226,0.0322 1.45351,-1.22076 4.30168,-6.4072 z m -54.52198,-5.52256 c 0.30088,-0.72008 2.18865,-4.70592 4.19507,-8.85745 3.91713,-8.10509 3.68085,-7.82008 7.23641,-8.72905 5.66152,-1.44738 14.37997,-2.20508 18.01557,-1.56571 l 2.05733,0.36182 -1.68327,0.046 c -3.87521,0.10575 -10.33444,1.34142 -16.16315,3.09206 l -2.51001,0.75387 -5.49344,7.72981 c -6.17333,8.68647 -6.41864,8.99745 -5.65451,7.16872 z m -37.46305,-16.9747 c 0.900272,-0.4896 6.770819,-3.62977 13.045645,-6.97816 6.274841,-3.34839 11.456134,-6.12321 11.513986,-6.16628 0.05782,-0.0432 -0.657697,-1.36866 -1.590118,-2.94579 -0.932421,-1.57713 -2.202547,-3.87233 -2.822498,-5.10045 -0.619964,-1.22813 -1.335187,-2.23872 -1.589383,-2.24576 -0.254209,-0.007 -6.731175,1.46584 -14.393259,3.27302 -8.787569,2.07265 -13.932034,3.45225 -13.933688,3.73664 -0.0056,1.07229 7.541321,17.31694 8.045737,17.31694 0.04764,0 0.823293,-0.40057 1.723578,-0.89016 z m 42.99394,-5.94275 c 6.99901,-4.05456 20.01467,-4.80332 39.92166,-2.29659 2.5282,0.31837 4.72958,0.5249 4.89194,0.45898 0.42503,-0.17255 -14.80943,-31.89447 -15.37669,-32.01805 -0.26057,-0.0568 -2.04279,0.21863 -3.96051,0.61196 -2.49197,0.51114 -3.5241,0.59394 -3.61771,0.29024 -0.38416,-1.24646 -2.80529,-13.30189 -2.80529,-13.96828 0,-0.69983 24.17652,-17.4837 73.7688,-51.21193 1.17513,-0.79921 2.143,-1.55984 2.15084,-1.69027 0.0302,-0.50374 -7.11843,-6.14958 -11.39453,-8.99903 -4.87861,-3.25097 -11.62556,-6.7145 -16.6456,-8.54501 -22.73997,-8.291868 -47.93974,-3.78713 -67.72595,12.10682 -8.550151,6.86821 -15.088857,15.18642 -20.004307,25.44844 -12.954528,27.04527 -7.699986,59.11696 13.229487,80.7478 l 2.79877,2.89256 1.55471,-1.43309 c 0.8551,-0.7882 2.30157,-1.86574 3.21438,-2.39455 z m -7.5117,-10.84136 c -1.358658,-2.21987 -5.130328,-10.1426 -6.502586,-13.65928 -3.408247,-8.73429 -4.750476,-15.15236 -4.985741,-23.8401 -0.210693,-7.78032 0.487735,-13.07615 2.540607,-19.26402 4.577629,-13.79823 15.08626,-26.69572 29.82696,-36.60734 3.1914,-2.1459 9.91503,-6.03535 10.43319,-6.03535 0.14123,0 -1.28249,1.05204 -3.16387,2.33786 -18.58582,12.70243 -30.450255,28.67346 -34.196055,46.03226 -1.19808,5.55215 -1.18824,16.31951 0.02007,21.95292 1.663549,7.7559 4.513982,14.67161 9.530325,23.12246 1.36895,2.30623 2.489,4.32324 2.489,4.48225 0,0.25456 -4.58403,2.69404 -5.06237,2.69404 -0.10194,0 -0.52027,-0.54707 -0.9295,-1.2157 z M 82.654684,201.84098 c 0.107446,-0.10745 -0.453606,-2.3078 -1.246856,-4.88963 -0.79325,-2.58182 -1.442267,-4.91401 -1.442267,-5.18265 0,-0.26863 -0.238375,-0.68626 -0.529724,-0.92806 -0.291348,-0.24179 -6.813994,-1.75228 -14.494782,-3.35659 -17.372841,-3.6288 -16.396424,-3.4468 -16.396424,-3.05625 0,1.76996 3.051471,16.39701 3.614955,17.32803 0.188625,0.31168 30.184819,0.39543 30.495098,0.0851 z m 66.013906,-18.67565 c 7.78303,-1.53258 21.97815,-4.31798 31.54471,-6.18976 9.56653,-1.8718 21.60188,-4.23259 26.74518,-5.24622 5.14332,-1.01362 10.04366,-1.94919 10.88963,-2.07907 2.61507,-0.40145 2.56647,-0.18946 1.50403,-6.56091 -0.52762,-3.16415 -1.72984,-10.55031 -2.67159,-16.41367 -0.94176,-5.86339 -2.20996,-13.73159 -2.81822,-17.48493 -0.60827,-3.75333 -1.10593,-6.92747 -1.10593,-7.05363 0,-0.1261 -0.24523,-0.13529 -0.54494,-0.0202 -0.84728,0.32514 -80.38368,54.91012 -80.87012,55.50032 -0.45576,0.55295 -0.39143,0.91365 1.03608,5.80976 0.57109,1.95877 0.89356,2.52489 1.43819,2.52489 0.38611,0 7.06997,-1.25394 14.85298,-2.78652 z m -70.335447,-0.0712 c -0.130774,-0.9545 -0.23788,-4.97847 -0.23788,-8.94216 v -7.20668 l -14.613849,-9.04943 c -8.037623,-4.97718 -14.668507,-8.9908 -14.735307,-8.91914 -0.397509,0.42643 -1.022788,8.8277 -1.209745,16.25421 -0.179788,7.14207 -0.12738,8.69931 0.30184,8.96843 0.5537,0.34718 29.841739,10.5646 30.40142,10.60583 0.182263,0.0142 0.224351,-0.75654 0.09345,-1.71106 z m 1.065626,-23.89834 c 0.327823,-1.6399 1.287544,-5.20038 2.132707,-7.91218 l 1.536664,-4.93056 -11.924177,-15.9232 c -6.5583,-8.75779 -12.036852,-15.92323 -12.174553,-15.92323 -0.66324,0 -5.18135,12.21918 -7.053811,19.07699 -1.00875,3.69449 -1.035159,3.96999 -0.444912,4.64136 0.853009,0.97024 27.124795,24.15969 27.240228,24.04427 0.05047,-0.0505 0.36003,-1.43355 0.687854,-3.07345 z m 6.666142,-19.08525 c 1.488073,-3.03413 5.172543,-8.77237 7.843556,-12.21567 1.280758,-1.65106 2.540677,-3.29046 2.799833,-3.64312 0.3902,-0.53097 0.178559,-1.92155 -1.231614,-8.0921 C 94.54015,112.06162 92.172617,101.55483 90.2155,92.81121 88.258368,84.067595 86.566147,76.604089 86.454997,76.225653 c -0.161479,-0.549771 -0.98309,0.137558 -4.087633,3.419855 -2.137047,2.259352 -4.701306,5.093894 -5.698349,6.298945 -1.913688,2.312962 -9.394908,12.771304 -10.904131,15.243407 l -0.889244,1.45656 9.880013,19.77127 c 5.434004,10.8742 9.972445,19.77128 10.085447,19.77128 0.11296,0 0.663706,-0.9344 1.223811,-2.07643 z M 104.1919,117.1182 c 5.13527,-4.28634 9.66099,-7.29772 15.23685,-10.13845 l 4.86278,-2.47744 4.93715,-28.19555 c 2.71544,-15.507561 4.94577,-28.585638 4.95629,-29.062402 0.016,-0.72775 -0.11593,-0.826021 -0.82253,-0.612472 -9.40308,2.841852 -24.7115,10.827519 -34.034461,17.754148 -3.902232,2.899194 -3.647415,1.098312 -2.328315,16.455307 1.635613,19.041633 3.159086,37.558879 3.162146,38.434529 10e-4,0.46289 0.10051,0.84163 0.21983,0.84163 0.11933,0 1.83392,-1.3497 3.81026,-2.9993 z m 92.04784,-11.89277 c 2.6036,-2.2244 10.03609,-8.488039 16.51666,-13.919215 6.48056,-5.431178 16.58014,-13.907449 22.44352,-18.836173 5.86336,-4.928725 10.74231,-9.028658 10.84211,-9.110967 0.27943,-0.230486 -1.27313,-1.344053 -6.16638,-4.422794 -8.79484,-5.533577 -20.66811,-10.94168 -30.02208,-13.67463 -3.67791,-1.074588 -4.27908,-1.161677 -4.74077,-0.686778 -0.8341,0.857929 -38.36561,55.327421 -38.36561,55.679987 0,0.17379 0.64659,0.41937 1.43688,0.54574 4.53085,0.72451 13.38003,3.94202 18.57524,6.75384 1.64586,0.89079 3.38716,1.64116 3.86955,1.66748 0.61261,0.0335 2.30442,-1.17159 5.61088,-3.99649 z m -61.17929,-3.98731 c 5.41642,-1.373976 11.27096,-2.067922 17.44645,-2.067922 h 5.55911 l 15.60397,-29.010263 c 8.58219,-15.955654 15.53575,-29.078491 15.45238,-29.16186 -0.56728,-0.567288 -10.24054,-0.997185 -18.43523,-0.819305 -11.5205,0.250066 -23.79438,1.882315 -24.56324,3.266547 -0.23077,0.415476 -8.65121,31.553145 -15.65577,57.892853 -0.28917,1.08735 -0.24935,1.20791 0.33738,1.02169 0.36589,-0.11607 2.28062,-0.62092 4.25495,-1.12174 z"
       id="path3944" />
  </g>
</svg>
