<?xml version="1.0" encoding="UTF-8" standalone="no"?>
<!-- Created with Inkscape (http://www.inkscape.org/) -->

<svg
   width="1000mm"
   height="1000mm"
   viewBox="0 0 1000 1000"
   version="1.1"
   id="svg930"
   inkscape:version="1.1 (c68e22c387, 2021-05-23)"
   sodipodi:docname="discord.svg"
   xmlns:inkscape="http://www.inkscape.org/namespaces/inkscape"
   xmlns:sodipodi="http://sodipodi.sourceforge.net/DTD/sodipodi-0.dtd"
   xmlns="http://www.w3.org/2000/svg"
   xmlns:svg="http://www.w3.org/2000/svg">
  <sodipodi:namedview
     id="namedview932"
     pagecolor="#ffffff"
     bordercolor="#666666"
     borderopacity="1.0"
     inkscape:pageshadow="2"
     inkscape:pageopacity="0.0"
     inkscape:pagecheckerboard="0"
     inkscape:document-units="mm"
     showgrid="false"
     units="mm"
     width="1000mm"
     inkscape:zoom="0.16"
     inkscape:cx="1303.125"
     inkscape:cy="2084.375"
     inkscape:window-width="1920"
     inkscape:window-height="1017"
     inkscape:window-x="1912"
     inkscape:window-y="-8"
     inkscape:window-maximized="1"
     inkscape:current-layer="layer1" />
  <defs
     id="defs927" />
  <g
     inkscape:label="Calque 1"
     inkscape:groupmode="layer"
     id="layer1">
    <path
       style="fill:#ffffff;stroke-width:0.526083"
       d="M 256.61921,864.59579 C 185.94507,840.39417 126.88345,810.8641 66.440977,769.50909 54.236298,761.15862 35.275622,747.45081 34.770123,746.61239 33.806676,745.01444 31.498182,708.24456 30.765728,682.8295 28.911938,618.50941 35.054216,550.64854 48.30585,489.04315 62.722979,422.01953 83.554635,362.23538 114.84133,298.095 131.3063,264.34043 147.73742,235.06508 167.8492,203.65062 l 6.41639,-10.02239 4.54414,-2.1562 c 30.42414,-14.43636 70.02764,-29.36003 106.50776,-40.13514 29.69818,-8.77191 81.09056,-20.37522 83.75939,-18.9111 0.55153,0.30237 2.51172,3.36719 4.35598,6.81034 4.60186,8.59127 15.17012,30.43149 18.55078,38.3367 2.42732,5.67603 2.92167,6.47887 3.85755,6.26509 2.33896,-0.53426 20.32705,-2.93261 29.65217,-3.9535 23.60078,-2.58372 41.28526,-3.66738 67.03001,-4.10733 36.87277,-0.6301 74.08232,1.81481 113.45265,7.45462 l 4.85358,0.69525 0.46078,-1.24233 c 1.36546,-3.6814 8.55517,-19.47739 13.48544,-29.6278 7.10963,-14.63747 10.32706,-20.52053 11.41638,-20.87496 1.13263,-0.36836 20.39534,3.30157 36.63676,6.98023 51.05742,11.56459 99.17121,27.74748 148.05621,49.79816 l 9.83916,4.43818 7.35965,11.4689 c 63.5358,99.01107 103.93025,199.39483 123.60568,307.17102 13.01343,71.28301 16.41506,148.19935 9.90103,223.87909 -0.44112,5.12656 -0.91896,9.71685 -1.06157,10.20059 -0.52854,1.7921 -33.03509,24.71815 -54.00183,38.08598 -39.01565,24.87547 -81.40485,46.79602 -123.41653,63.82186 -23.40316,9.48451 -59.26073,21.97558 -61.38468,21.38345 -1.3276,-0.36989 -3.49896,-3.42504 -15.00209,-21.10682 -11.31712,-17.39573 -22.46648,-36.46131 -30.95562,-52.93421 -3.76497,-7.30587 -4.50319,-9.80579 -3.19668,-10.82514 0.35717,-0.27898 4.39073,-2.01996 8.96333,-3.86931 17.66641,-7.14524 40.16076,-18.04104 56.67557,-27.4526 12.00825,-6.84333 12.54304,-7.59069 8.14609,-11.38535 -5.77115,-4.98074 -14.47029,-11.76479 -15.09367,-11.77087 -0.37088,-0.005 -4.81362,1.87601 -9.87264,4.1769 -61.34522,27.90029 -125.22104,44.31936 -191.06261,49.11196 -21.23682,1.54589 -56.75026,1.41959 -77.94195,-0.27691 -65.55774,-5.24881 -127.8095,-21.37248 -189.55832,-49.09721 -4.80322,-2.15661 -9.01207,-3.91816 -9.353,-3.91458 -0.57919,0.005 -9.4742,6.96812 -15.03915,11.77086 -3.01983,2.60621 -3.21609,4.1092 -0.77943,5.96873 2.79169,2.13058 20.49599,11.82271 32.77749,17.94387 11.81699,5.88962 25.31307,11.98091 35.42167,15.98713 3.14363,1.24586 6.00802,2.50128 6.36526,2.78973 1.39186,1.12407 0.5452,3.7516 -4.111,12.75776 -11.20075,21.66478 -22.83371,41.09983 -37.23296,62.20466 -5.7762,8.46611 -7.194,10.12512 -8.63606,10.10504 -0.58956,-0.0105 -7.61905,-2.25679 -15.6211,-4.99697 z m 104.7621,-230.90522 c 24.66888,-5.41189 45.30228,-21.98533 57.79418,-46.42236 7.5024,-14.67643 11.05322,-28.99318 11.61373,-46.82624 0.44454,-14.14245 -1.03561,-25.06827 -5.08428,-37.53385 -14.55509,-44.8133 -56.50437,-70.92081 -97.57529,-60.72686 -13.6858,3.39685 -26.16794,10.39205 -36.59727,20.50962 -39.03689,37.87 -40.84676,105.10341 -3.92045,145.63434 13.48125,14.79728 29.73925,23.43276 50.06688,26.59308 3.93435,0.61171 18.83635,-0.16002 23.7025,-1.22773 z m 314.08065,0.0312 c 36.13277,-7.83083 63.20154,-40.31943 68.53407,-82.25623 1.01571,-7.98799 1.02451,-20.92672 0.0197,-28.78496 -7.12561,-55.71901 -54.61734,-92.76123 -102.90258,-80.26109 -35.38439,9.16032 -61.50312,42.8142 -65.6801,84.62871 -3.21333,32.16784 8.84869,65.83278 30.86,86.12954 12.661,11.67479 26.97209,18.82595 42.60592,21.28978 6.43363,1.01387 20.23091,0.62655 26.56311,-0.74575 z"
       id="path550" />
  </g>
</svg>
