<?xml version="1.0" encoding="UTF-8" standalone="no"?>
<!-- Created with Inkscape (http://www.inkscape.org/) -->

<svg
   width="300mm"
   height="300mm"
   viewBox="0 0 300 300"
   version="1.1"
   id="svg5"
   inkscape:version="1.1 (c68e22c387, 2021-05-23)"
   sodipodi:docname="elixir.svg"
   xmlns:inkscape="http://www.inkscape.org/namespaces/inkscape"
   xmlns:sodipodi="http://sodipodi.sourceforge.net/DTD/sodipodi-0.dtd"
   xmlns="http://www.w3.org/2000/svg"
   xmlns:svg="http://www.w3.org/2000/svg">
  <sodipodi:namedview
     id="namedview7"
     pagecolor="#ffffff"
     bordercolor="#666666"
     borderopacity="1.0"
     inkscape:pageshadow="2"
     inkscape:pageopacity="0.0"
     inkscape:pagecheckerboard="0"
     inkscape:document-units="mm"
     showgrid="false"
     width="300mm"
     inkscape:zoom="0.25"
     inkscape:cx="730"
     inkscape:cy="746"
     inkscape:window-width="1920"
     inkscape:window-height="1017"
     inkscape:window-x="1912"
     inkscape:window-y="-8"
     inkscape:window-maximized="1"
     inkscape:current-layer="layer1" />
  <defs
     id="defs2" />
  <g
     inkscape:label="Calque 1"
     inkscape:groupmode="layer"
     id="layer1">
    <g
       id="g1204"
       transform="translate(-134.42917,1.6733921)" />
    <g
       id="g5710"
       transform="translate(10.054169,-2.6458333)">
      <path
         style="fill:#c0b9cd;stroke-width:0.544206"
         d="m 137.22164,297.63626 c 0.82722,-0.12509 2.05169,-0.12174 2.72103,0.007 0.66934,0.12918 -0.008,0.23152 -1.50405,0.22744 -1.49657,-0.004 -2.04421,-0.10978 -1.21698,-0.23486 z m 14.41398,0.006 c 0.67346,-0.12971 1.77548,-0.12971 2.44893,0 0.67346,0.12972 0.12245,0.23585 -1.22446,0.23585 -1.34691,0 -1.89792,-0.10613 -1.22447,-0.23585 z m 6.53048,-0.52056 c 0.37414,-0.15096 0.98637,-0.15096 1.36051,0 0.37415,0.15097 0.068,0.2745 -0.68025,0.2745 -0.74829,0 -1.0544,-0.12353 -0.68026,-0.2745 z m 3.84346,-0.55554 c 0.39284,-0.1572 0.86222,-0.13787 1.04306,0.0429 0.18083,0.18083 -0.14059,0.30946 -0.71427,0.28583 -0.63397,-0.0261 -0.76292,-0.15507 -0.32879,-0.32879 z m 3.26523,-0.5442 c 0.39285,-0.15721 0.86223,-0.13788 1.04307,0.0429 0.18083,0.18084 -0.14059,0.30946 -0.71427,0.28583 -0.63398,-0.0261 -0.76293,-0.15507 -0.3288,-0.32879 z M 112.04461,292.2999 C 82.448929,281.63743 59.877825,257.83967 51.408015,228.36836 50.112505,223.86054 48.37247,215.503 48.37247,213.78837 c 0,-0.49436 1.777786,0.88888 4.217599,3.2816 2.31968,2.27489 4.989246,4.76946 5.932366,5.54348 2.553585,2.09572 10.390069,6.89647 14.193691,8.69527 l 3.340621,1.57984 0.621331,3.86222 c 2.88172,17.91288 9.574734,32.62774 19.543549,42.96729 5.938273,6.15911 11.092123,9.59852 20.720843,13.82798 2.8429,1.24876 0.0641,0.542 -4.89786,-1.24573 z m 15.23778,-1.54545 c -9.4367,-2.04999 -16.78597,-10.00098 -19.93855,-21.57103 -1.47876,-5.42705 -1.3296,-16.31406 0.30381,-22.17641 0.68803,-2.46934 1.4078,-4.48774 1.5995,-4.48535 0.19169,0.002 3.1648,0.34563 6.60691,0.76277 3.4421,0.41713 8.45858,0.93173 11.14773,1.14354 l 4.88937,0.38512 3.21317,2.97483 c 8.08016,7.48081 19.64287,15.50744 30.51092,21.18015 l 6.92161,3.61281 -1.81134,1.91049 c -3.23431,3.41132 -10.35251,8.33836 -15.9403,11.03349 -6.39445,3.08418 -11.73128,4.64266 -18.52343,5.40928 -5.69421,0.64269 -5.14293,0.65373 -8.9794,-0.17969 z m 113.78209,-65.42499 c 0.0261,-0.63397 0.15506,-0.76292 0.32879,-0.32879 0.1572,0.39284 0.13787,0.86223 -0.0429,1.04306 -0.18084,0.18083 -0.30946,-0.14059 -0.28583,-0.71427 z m 1.08841,-5.44206 c 0.0261,-0.63398 0.15507,-0.76293 0.32879,-0.3288 0.1572,0.39285 0.13787,0.86223 -0.0429,1.04307 -0.18083,0.18083 -0.30946,-0.14059 -0.28583,-0.71427 z m 0.58717,-3.492 c 0,-0.74828 0.12352,-1.0544 0.27449,-0.68025 0.15097,0.37414 0.15097,0.98637 0,1.36051 -0.15097,0.37414 -0.27449,0.068 -0.27449,-0.68026 z m 0.50124,-4.6711 c 0.0261,-0.63397 0.15507,-0.76292 0.32879,-0.32879 0.15721,0.39284 0.13788,0.86223 -0.0429,1.04306 -0.18083,0.18084 -0.30945,-0.14059 -0.28583,-0.71427 z M 47.914189,210.40955 c 0,-0.74828 0.123524,-1.0544 0.274492,-0.68025 0.150968,0.37414 0.150968,0.98637 0,1.36051 -0.150968,0.37414 -0.274492,0.068 -0.274492,-0.68026 z m 0.02019,-16.59829 c 0.0111,-0.89794 0.133058,-1.1994 0.271036,-0.6699 0.137978,0.5295 0.128906,1.26417 -0.02014,1.63262 -0.149075,0.36844 -0.261965,-0.0648 -0.250874,-0.96272 z m 194.805681,-0.81631 c 0,-0.74828 0.12352,-1.0544 0.27449,-0.68026 0.15097,0.37415 0.15097,0.98638 0,1.36052 -0.15097,0.37414 -0.27449,0.068 -0.27449,-0.68026 z m -1.58908,-6.06482 c -4.62343,-16.58106 -16.67657,-31.8364 -43.54568,-55.11461 -7.60914,-6.59224 -9.37208,-8.38344 -9.37329,-9.52362 -0.003,-2.6396 1.22181,-13.37544 1.60793,-14.09625 0.26191,-0.48893 1.9704,1.16744 5.33263,5.16996 2.72099,3.23916 8.28494,9.80767 12.36433,14.59668 20.65664,24.2499 29.47561,38.90872 33.8023,56.18588 1.69052,6.75051 1.53974,8.97899 -0.18822,2.78196 z m -192.735545,1.39372 c 0.02612,-0.63397 0.155067,-0.76292 0.328788,-0.32879 0.157205,0.39284 0.137875,0.86223 -0.04294,1.04306 -0.18084,0.18083 -0.309457,-0.14059 -0.285828,-0.71427 z m 0.544207,-4.35365 c 0.02612,-0.63397 0.155066,-0.76292 0.328787,-0.32879 0.157205,0.39284 0.137875,0.86222 -0.04294,1.04306 -0.18084,0.18083 -0.309458,-0.14059 -0.285828,-0.71427 z m 29.20271,-33.75618 c -0.791782,-1.28113 -3.177055,-15.62562 -3.937904,-23.68168 -0.462826,-4.90048 -1.024681,-10.81077 -1.248567,-13.13397 l -0.407072,-4.22401 5.254007,-11.14048 C 101.63861,47.53539 124.65293,16.625229 145.8949,6.6073213 c 2.18463,-1.0302887 4.97579,-2.028836 6.20257,-2.2189942 l 2.23051,-0.3457414 -0.5068,3.4576738 c -0.27874,1.9017203 -0.36325,6.9473965 -0.18781,11.2126135 0.17545,4.265218 0.1151,7.754941 -0.13411,7.754941 -0.24921,0 -3.72044,2.448928 -7.71386,5.442063 -3.99341,2.993135 -7.44429,5.442063 -7.6686,5.442063 -0.61774,0 -1.3108,-6.689907 -1.3108,-12.652797 0,-2.918306 -0.14693,-5.306012 -0.3265,-5.306012 -0.80128,0 -4.87296,3.430903 -8.14511,6.863281 -12.5823,13.198392 -24.11913,35.057026 -34.1481,64.699852 -6.566551,19.408876 -10.794866,34.818556 -13.949151,50.836296 -0.967452,4.91282 -1.901109,8.70248 -2.074787,8.42146 z M 184.89884,101.16013 c -0.67692,-0.86314 -0.65767,-0.88239 0.20547,-0.20547 0.90651,0.71094 1.1948,1.15783 0.74689,1.15783 -0.113,0 -0.54156,-0.42856 -0.95236,-0.95236 z M 151.82602,78.587521 c -0.92783,-2.013798 -1.68697,-3.887756 -1.68697,-4.16436 0,-0.583677 10.3942,-10.532237 10.69243,-10.234006 0.15712,0.157117 -4.22538,11.031802 -6.83947,16.971395 -0.40928,0.929956 -0.72462,0.555357 -2.16599,-2.573029 z m 8.43704,-23.652269 c -0.77919,-2.339679 -1.39827,-4.498023 -1.37574,-4.796319 0.0225,-0.29829 0.75487,1.521177 1.62741,4.043268 0.87254,2.522092 1.49162,4.680436 1.37573,4.796319 -0.11588,0.115889 -0.84822,-1.703583 -1.6274,-4.043268 z m -2.46215,-8.10505 c 0.0261,-0.633973 0.15506,-0.762922 0.32879,-0.328793 0.1572,0.392847 0.13787,0.862225 -0.0429,1.043064 -0.18084,0.180835 -0.30946,-0.14059 -0.28583,-0.714271 z m -1.13138,-4.036198 c -0.36677,-1.52888 -0.55864,-2.887998 -0.42637,-3.020263 0.13226,-0.132265 0.53134,1.019636 0.88685,2.559782 0.35551,1.540142 0.54738,2.89926 0.42638,3.020259 -0.121,0.121004 -0.52009,-1.030901 -0.88686,-2.559778 z m -1.00249,-4.897857 c 0,-0.748284 0.12353,-1.0544 0.27449,-0.680258 0.15097,0.374142 0.15097,0.986374 0,1.360516 -0.15096,0.374141 -0.27449,0.06802 -0.27449,-0.680258 z m -0.5442,-2.721032 c 0,-0.748284 0.12352,-1.0544 0.27449,-0.680258 0.15097,0.374142 0.15097,0.986374 0,1.360516 -0.15097,0.374142 -0.27449,0.06803 -0.27449,-0.680258 z M 154.5988,32.18198 c 0.0111,-0.89794 0.13306,-1.199396 0.27103,-0.6699 0.13798,0.529494 0.12891,1.264173 -0.0202,1.632619 -0.14904,0.368445 -0.26193,-0.06478 -0.25084,-0.962719 z m -0.52405,-3.537341 c 0,-1.047597 0.112,-1.47616 0.24889,-0.952361 0.13688,0.523799 0.13688,1.380923 0,1.904722 -0.13689,0.523799 -0.24889,0.09524 -0.24889,-0.952361 z"
         id="path5724" />
      <path
         style="fill:#aca2bd;stroke-width:0.544206"
         d="m 141.00278,297.73014 c 0.16316,-0.16316 2.24786,-0.76267 4.63267,-1.33227 12.53768,-2.99455 23.49114,-8.71176 32.49188,-16.9593 l 3.53587,-3.23998 4.23751,1.33441 c 2.33063,0.73392 6.75277,1.89983 9.82698,2.59091 l 5.58948,1.2565 -2.86845,1.83029 c -8.09614,5.16595 -21.61122,10.4401 -32.28218,12.59786 -7.92734,1.60297 -26.24385,3.00167 -25.16376,1.92158 z m -7.04351,-6.61097 c 0.5295,-0.13798 1.26418,-0.12891 1.63262,0.0202 0.36845,0.14907 -0.0648,0.26196 -0.96272,0.25087 -0.89794,-0.0111 -1.19939,-0.13306 -0.6699,-0.27103 z m 37.31395,-17.2139 c 0.65354,-0.69566 1.00234,-1.4696 0.77512,-1.71987 -0.22722,-0.25027 -0.0886,-0.26749 0.30805,-0.0383 0.56046,0.32388 0.44836,0.70717 -0.50302,1.71987 -0.67331,0.7167 -1.34665,1.3031 -1.4963,1.3031 -0.14966,0 0.26261,-0.56918 0.91615,-1.26484 z m 49.61266,-18.84815 c -8.68344,-2.6032 -12.39823,-4.06575 -20.86211,-8.21364 -3.54449,-1.73704 -3.70462,-1.89779 -3.40129,-3.41443 0.17508,-0.87537 0.31832,-2.12855 0.31832,-2.78484 0,-1.04723 0.86432,-1.4784 7.06225,-3.52309 13.75653,-4.53825 25.32673,-11.29558 34.17578,-19.95964 l 5.13325,-5.02594 -0.36895,3.08251 c -1.00624,8.40685 -3.44581,17.40233 -6.86222,25.3031 -2.47827,5.73124 -8.5926,16.16046 -9.44826,16.11591 -0.31725,-0.0165 -2.90329,-0.72749 -5.74677,-1.57994 z m -114.78457,-1.42851 c 0.0261,-0.63397 0.15506,-0.76292 0.32878,-0.32879 0.15721,0.39284 0.13788,0.86223 -0.0429,1.04306 -0.18084,0.18083 -0.30946,-0.14059 -0.28583,-0.71427 z m 91.18465,-62.66981 c -0.15816,-0.82566 -0.44071,-2.8481 -0.62789,-4.49432 -0.18718,-1.64623 -1.66401,-11.19705 -3.28184,-21.22405 -3.15759,-19.57014 -4.32842,-28.27937 -4.90174,-36.46183 l -0.36224,-5.16996 1.28509,1.12812 c 10.71018,9.4019 15.67938,13.83756 15.50201,13.83756 -0.1192,0 0.75044,2.24335 1.93252,4.98523 6.14748,14.25919 6.92198,27.11507 2.21731,36.80464 -1.6005,3.29631 -7.13397,9.56338 -9.83497,11.13882 l -1.64069,0.95699 z m 10.75936,-49.7995 -1.0367,-1.22447 1.22446,1.03671 c 1.15069,0.97425 1.47221,1.41222 1.03671,1.41222 -0.10327,0 -0.65428,-0.55101 -1.22447,-1.22446 z M 73.993133,128.46115 c 0.02612,-0.63397 0.155066,-0.76292 0.328788,-0.32879 0.157205,0.39285 0.137874,0.86223 -0.04294,1.04306 -0.18084,0.18084 -0.309458,-0.14059 -0.285828,-0.71427 z m -0.544206,-5.44206 c 0.02612,-0.63397 0.155066,-0.76292 0.328787,-0.32879 0.157205,0.39284 0.137875,0.86222 -0.04294,1.04306 -0.18084,0.18083 -0.309458,-0.14059 -0.285828,-0.71427 z m 114.827533,-5.44206 c 0.0261,-0.63398 0.15507,-0.76293 0.32879,-0.3288 0.15721,0.39285 0.13788,0.86223 -0.0429,1.04307 -0.18083,0.18083 -0.30945,-0.14059 -0.28583,-0.71427 z M 72.967848,114.90134 c 0.0111,-0.89794 0.133059,-1.1994 0.271037,-0.6699 0.137978,0.5295 0.128906,1.26418 -0.02019,1.63262 -0.149075,0.36844 -0.261965,-0.0648 -0.250874,-0.96272 z M 152.04378,71.636939 c 1.16908,-1.197254 2.24806,-2.176825 2.39772,-2.176825 0.14965,0 -0.68443,0.979571 -1.85352,2.176825 -1.16908,1.197254 -2.24806,2.176826 -2.39772,2.176826 -0.14965,0 0.68443,-0.979572 1.85352,-2.176826 z"
         id="path5722" />
      <path
         style="fill:#a499c2;stroke-width:0.544206"
         d="m 140.78551,297.11081 c 0.39284,-0.1572 0.86223,-0.13787 1.04306,0.0429 0.18084,0.18084 -0.14059,0.30946 -0.71427,0.28583 -0.63397,-0.0261 -0.76292,-0.15507 -0.32879,-0.32879 z m -4.35365,-5.98626 c 0.39284,-0.15721 0.86223,-0.13788 1.04306,0.0429 0.18084,0.18084 -0.14059,0.30946 -0.71427,0.28583 -0.63397,-0.0261 -0.76292,-0.15507 -0.32879,-0.32879 z m -21.42835,-6.83899 -1.59838,-1.76867 1.76867,1.59839 c 0.97277,0.87911 1.76867,1.67501 1.76867,1.76867 0,0.42043 -0.44904,0.0503 -1.93896,-1.59839 z m 63.41153,-5.44206 c 2.25517,-2.40277 2.74378,-2.83482 2.74378,-2.42619 0,0.0873 -1.16325,1.25059 -2.58498,2.58498 l -2.58498,2.42619 z m -9.50087,-2.58498 c 0.54176,-0.59863 1.10745,-1.08841 1.25711,-1.08841 0.14966,0 -0.17115,0.48978 -0.7129,1.08841 -0.54175,0.59863 -1.10745,1.08841 -1.25711,1.08841 -0.14965,0 0.17115,-0.48978 0.7129,-1.08841 z m 27.52539,-34.05824 c 0.0261,-0.63398 0.15506,-0.76293 0.32879,-0.3288 0.1572,0.39285 0.13787,0.86223 -0.0429,1.04307 -0.18084,0.18083 -0.30946,-0.14059 -0.28583,-0.71427 z M 55.92194,220.34132 c -0.676922,-0.86314 -0.657673,-0.88239 0.205471,-0.20547 0.523798,0.41079 0.952361,0.83936 0.952361,0.95236 0,0.4479 -0.446897,0.15962 -1.157832,-0.74689 z m -7.074682,-7.07468 c -0.676922,-0.86315 -0.657674,-0.88239 0.20547,-0.20547 0.523799,0.41079 0.952361,0.83935 0.952361,0.95236 0,0.4479 -0.446896,0.15962 -1.157831,-0.74689 z m -0.892738,-6.12232 c 0,-1.0476 0.111998,-1.47616 0.248882,-0.95236 0.136879,0.52379 0.136879,1.38092 0,1.90472 -0.136884,0.5238 -0.248882,0.0952 -0.248882,-0.95236 z m 0,-9.25151 c 0,-1.0476 0.111998,-1.47616 0.248882,-0.95236 0.136879,0.5238 0.136879,1.38092 0,1.90472 -0.136884,0.5238 -0.248882,0.0952 -0.248882,-0.95236 z m 149.0722,-5.98627 c 0,-0.74828 0.12353,-1.0544 0.2745,-0.68026 0.15096,0.37414 0.15096,0.98638 0,1.36052 -0.15097,0.37414 -0.2745,0.068 -0.2745,-0.68026 z m 5.90035,-3.47071 c 0,-0.113 0.42856,-0.54157 0.95236,-0.95236 0.86314,-0.67692 0.88239,-0.65767 0.20547,0.20547 -0.71093,0.90651 -1.15783,1.19479 -1.15783,0.74689 z m -6.48751,-1.20039 c 0.0261,-0.63398 0.15506,-0.76293 0.32879,-0.3288 0.1572,0.39285 0.13787,0.86223 -0.0429,1.04307 -0.18084,0.18083 -0.30946,-0.14059 -0.28583,-0.71427 z m -0.54421,-4.35365 c 0.0261,-0.63398 0.15507,-0.76293 0.32879,-0.3288 0.1572,0.39285 0.13787,0.86223 -0.0429,1.04307 -0.18083,0.18083 -0.30946,-0.14059 -0.28583,-0.71427 z m -0.5442,-3.26524 c 0.0261,-0.63398 0.15506,-0.76293 0.32878,-0.3288 0.15721,0.39285 0.13788,0.86223 -0.0429,1.04307 -0.18084,0.18083 -0.30946,-0.14059 -0.28583,-0.71427 z m -0.54421,-3.80945 c 0.0261,-0.63397 0.15507,-0.76292 0.32879,-0.32879 0.1572,0.39285 0.13787,0.86223 -0.0429,1.04306 -0.18084,0.18084 -0.30946,-0.14059 -0.28583,-0.71427 z m -0.54421,-3.26523 c 0.0261,-0.63398 0.15507,-0.76293 0.32879,-0.3288 0.15721,0.39285 0.13788,0.86223 -0.0429,1.04307 -0.18083,0.18083 -0.30945,-0.14059 -0.28583,-0.71427 z m -3.80944,-23.40088 c 0.0261,-0.63397 0.15506,-0.76292 0.32879,-0.32879 0.1572,0.39285 0.13787,0.86223 -0.0429,1.04306 -0.18084,0.18084 -0.30946,-0.14059 -0.28583,-0.71427 z m -0.50125,-3.49199 c 0,-0.74828 0.12353,-1.0544 0.27449,-0.68026 0.15097,0.37414 0.15097,0.98638 0,1.36052 -0.15096,0.37414 -0.27449,0.068 -0.27449,-0.68026 z m -0.58716,-4.1269 c 0.0261,-0.63397 0.15506,-0.76292 0.32878,-0.32879 0.15721,0.39285 0.13788,0.86223 -0.0429,1.04307 -0.18084,0.18083 -0.30946,-0.14059 -0.28583,-0.71428 z m -0.48108,-4.3083 c 0.0111,-0.89794 0.13306,-1.1994 0.27103,-0.6699 0.13798,0.5295 0.12891,1.26418 -0.0202,1.63262 -0.14907,0.36844 -0.26196,-0.0648 -0.25087,-0.96272 z m -0.51306,-6.53047 c 0.006,-1.19726 0.11748,-1.62296 0.24765,-0.94602 0.13017,0.67694 0.12523,1.65652 -0.011,2.17683 -0.13621,0.52031 -0.24272,-0.0336 -0.23667,-1.23081 z M 73.993133,130.09377 c 0.02612,-0.63397 0.155066,-0.76292 0.328788,-0.32879 0.157205,0.39284 0.137874,0.86223 -0.04294,1.04306 -0.18084,0.18084 -0.309458,-0.14059 -0.285828,-0.71427 z m -0.544206,-5.44206 c 0.02612,-0.63398 0.155066,-0.76292 0.328787,-0.3288 0.157205,0.39285 0.137875,0.86223 -0.04294,1.04307 -0.18084,0.18083 -0.309458,-0.14059 -0.285828,-0.71427 z m -0.481079,-7.02934 c 0.0111,-0.89794 0.133059,-1.19939 0.271037,-0.6699 0.137978,0.5295 0.128906,1.26418 -0.02019,1.63262 -0.149075,0.36845 -0.261965,-0.0648 -0.250874,-0.96272 z m 115.308612,-1.67796 c 0.0261,-0.63398 0.15507,-0.76293 0.32879,-0.3288 0.15721,0.39285 0.13788,0.86223 -0.0429,1.04307 -0.18083,0.18083 -0.30945,-0.14059 -0.28583,-0.71427 z m 0.54421,-4.89786 c 0.0261,-0.63397 0.15507,-0.76292 0.32879,-0.32879 0.1572,0.39284 0.13787,0.86222 -0.0429,1.04306 -0.18084,0.18083 -0.30946,-0.14059 -0.28583,-0.71427 z M 149.62935,74.289635 c -0.019,-0.486553 -0.6735,-2.323249 -1.45451,-4.081547 -3.61813,-8.145594 -8.95948,-24.753427 -9.69193,-30.135116 l -0.3333,-2.448929 7.49115,-5.539712 c 4.80747,-3.555131 7.61194,-5.309771 7.82834,-4.897857 0.18545,0.35302 0.5033,1.988766 0.70632,3.63499 0.96627,7.835187 6.78112,28.70018 8.61389,30.90852 0.44771,0.539472 0.40381,0.675594 -0.17744,0.5501 -0.42481,-0.09172 -0.71116,0.139361 -0.63633,0.513502 0.0748,0.374142 -0.12329,0.680258 -0.44027,0.680258 -0.31698,0 -0.40159,0.282732 -0.18802,0.628292 0.22483,0.363775 0.15079,0.481503 -0.17584,0.279624 -0.68411,-0.422805 -10.41283,8.088517 -11.0531,9.669975 -0.33405,0.825115 -0.46361,0.88815 -0.48896,0.2379 z"
         id="path5720" />
      <path
         style="fill:#968abc;stroke-width:0.544206"
         d="m 131.36394,296.91591 c -5.36782,-0.86532 -11.15623,-2.34188 -11.15623,-2.84583 0,-0.28237 -0.38006,-0.36756 -0.84458,-0.18931 -0.46451,0.17825 -0.71342,0.11189 -0.55313,-0.14747 0.16029,-0.25936 -0.73268,-1.14929 -1.98438,-1.97763 -10.65736,-7.05271 -17.210578,-20.55176 -15.95098,-32.85763 0.51126,-4.99479 1.80452,-11.13709 3.04042,-14.44031 1.02914,-2.75064 1.06895,-2.78373 3.11395,-2.58871 l 2.07148,0.19755 -1.34227,3.89897 c -1.96582,5.71024 -2.2847,16.31411 -0.68129,22.65477 2.96518,11.72568 9.10272,19.11375 18.16521,21.8664 9.46687,2.87548 25.17227,-0.9104 37.3107,-8.99396 4.27253,-2.84529 10.5617,-8.41115 10.18779,-9.01614 -0.14304,-0.23145 0.66147,0.0351 1.78781,0.59239 1.12634,0.55727 3.38507,1.49405 5.01939,2.08174 1.63433,0.58768 2.5958,1.07735 2.1366,1.08815 -0.45919,0.0108 -2.17344,1.38484 -3.80944,3.05342 -5.71871,5.83262 -16.53253,12.14116 -25.86582,15.08955 -9.06164,2.86257 -14.481,3.52775 -20.64523,2.53405 z M 99.458447,282.92505 c -0.676922,-0.86315 -0.657674,-0.88239 0.20547,-0.20547 0.523803,0.41079 0.952363,0.83935 0.952363,0.95236 0,0.4479 -0.4469,0.15962 -1.157833,-0.74689 z m -5.442064,-5.44207 c -0.676922,-0.86314 -0.657673,-0.88239 0.205471,-0.20547 0.523799,0.4108 0.952361,0.83936 0.952361,0.95237 0,0.4479 -0.446897,0.15962 -1.157832,-0.7469 z m 98.702587,-34.28479 -3.40552,-2.01127 3.67762,-0.86754 c 2.02269,-0.47714 3.74222,-0.82738 3.82118,-0.77831 0.0789,0.0491 -0.0435,1.34453 -0.27211,2.8788 l -0.41565,2.78959 z M 70.842075,230.02663 c -7.188699,-3.79708 -12.833272,-7.8438 -17.874326,-12.8145 l -4.415277,-4.35365 -0.345261,-5.27158 c -1.334508,-20.37573 5.476811,-50.69989 18.935654,-84.302 5.719413,-14.2794 5.678521,-14.20966 5.713508,-9.74407 0.03336,4.26067 1.349518,18.19449 2.169098,22.96402 1.250341,7.27636 2.893621,14.58621 3.279028,14.58621 0.221655,0 0.199321,1.09027 -0.04963,2.42282 -1.04573,5.59753 -2.685963,23.22093 -3.269352,35.12742 -0.65505,13.36903 -0.37313,31.3379 0.613653,39.11233 0.318001,2.50537 0.499282,4.63412 0.402848,4.73055 -0.09643,0.0964 -2.418409,-1.00947 -5.159946,-2.45755 z M 238.57258,216.39582 c 1.47407,-1.49656 2.80257,-2.72103 2.95223,-2.72103 0.14965,0 -0.93396,1.22447 -2.40802,2.72103 -1.47406,1.49657 -2.80256,2.72104 -2.95222,2.72104 -0.14966,0 0.93395,-1.22447 2.40801,-2.72104 z m -96.05241,-15.36137 c -3.58132,-4.15212 -3.53031,-3.78469 -1.05505,-7.59962 3.09911,-4.7764 6.17287,-11.3689 8.51375,-18.26002 1.79893,-5.29569 2.00861,-6.52628 2.20277,-12.92752 0.18558,-6.11838 -0.017,-8.39878 -1.49898,-16.87039 -3.38885,-19.3725 -3.44298,-19.84508 -3.49051,-30.47556 -0.0647,-14.47188 1.31498,-19.944136 10.5673,-41.913169 2.14081,-5.083225 3.94996,-9.555071 4.02032,-9.937442 0.30388,-1.651367 1.18404,-0.336684 3.82387,5.711653 5.43166,12.444921 11.40892,22.499449 19.62014,33.003638 l 4.17951,5.34663 -0.66311,6.00486 c -1.29735,11.74832 -0.46699,22.28206 3.78815,48.05559 3.09581,18.75145 4.51676,28.8123 4.31576,30.5572 -0.21558,1.87149 -2.64724,3.3138 -10.04421,5.95757 -9.62976,3.44181 -24.24172,5.69345 -36.34719,5.60093 l -6.0278,-0.0461 z m 100.72113,-1.28227 c 0.0261,-0.63397 0.15507,-0.76292 0.32879,-0.32879 0.15721,0.39285 0.13788,0.86223 -0.0429,1.04306 -0.18083,0.18084 -0.30945,-0.14059 -0.28583,-0.71427 z m -38.68161,-12.94897 c 0,-0.113 0.42856,-0.54157 0.95236,-0.95236 0.86314,-0.67692 0.88239,-0.65767 0.20547,0.20547 -0.71094,0.90651 -1.15783,1.1948 -1.15783,0.74689 z m 7.66185,-20.79182 c 0.0261,-0.63397 0.15507,-0.76292 0.32879,-0.32879 0.1572,0.39284 0.13787,0.86223 -0.0429,1.04306 -0.18083,0.18083 -0.30946,-0.14059 -0.28583,-0.71427 z m 5.90212,-14.78427 -1.31933,-1.49657 1.49657,1.31932 c 1.39877,1.23311 1.74613,1.67381 1.31932,1.67381 -0.0975,0 -0.77093,-0.67345 -1.49656,-1.49656 z m -6.25142,-6.25838 -1.59839,-1.76867 1.76868,1.59839 c 0.97276,0.87911 1.76867,1.67501 1.76867,1.76867 0,0.42043 -0.44905,0.0503 -1.93896,-1.59839 z M 129.18711,25.379401 c 1.47407,-1.496567 2.80257,-2.721032 2.95222,-2.721032 0.14966,0 -0.93395,1.224465 -2.40801,2.721032 -1.47407,1.496567 -2.80257,2.721032 -2.95222,2.721032 -0.14966,0 0.93395,-1.224465 2.40801,-2.721032 z"
         id="path5718" />
      <path
         style="fill:#8374b0;stroke-width:0.544206"
         d="m 116.32911,292.89864 c -11.61036,-4.82526 -19.976683,-11.67202 -26.983067,-22.08218 -4.773294,-7.09222 -9.422302,-19.25165 -11.547923,-30.20345 -0.639023,-3.29245 -1.246537,-6.38813 -1.350029,-6.87929 -0.162004,-0.76888 0.199784,-0.72161 2.60245,0.34003 4.203536,1.85735 12.389961,4.36376 19.314454,5.91342 3.401145,0.76116 6.256795,1.45825 6.345885,1.54909 0.0891,0.0908 -0.43834,1.95267 -1.17205,4.13742 -0.73371,2.18474 -1.72392,6.59281 -2.20045,9.79571 -2.239714,15.05368 3.30321,27.84022 15.83036,36.51784 3.66599,2.53945 3.50311,2.71625 -0.83963,0.91141 z m 100.18037,-23.85085 c 2.25517,-2.40278 2.74378,-2.83482 2.74378,-2.42619 0,0.0873 -1.16324,1.25058 -2.58498,2.58498 l -2.58498,2.42619 z m 9.58135,-11.45181 c 0.20436,-0.53671 0.50866,-0.83874 0.67622,-0.67118 0.16755,0.16755 3.4e-4,0.60667 -0.37158,0.97583 -0.53747,0.53346 -0.59997,0.47095 -0.30464,-0.30465 z m -85.81691,-5.69069 c -0.67692,-0.86315 -0.65767,-0.8824 0.20547,-0.20547 0.5238,0.41079 0.95236,0.83935 0.95236,0.95236 0,0.4479 -0.44689,0.15962 -1.15783,-0.74689 z m -3.26524,-2.72103 c -0.67692,-0.86315 -0.65767,-0.8824 0.20547,-0.20547 0.90652,0.71093 1.1948,1.15783 0.74689,1.15783 -0.113,0 -0.54156,-0.42857 -0.95236,-0.95236 z m -4.35365,-3.80945 c -0.67692,-0.86314 -0.65767,-0.88239 0.20547,-0.20547 0.90652,0.71094 1.1948,1.15783 0.74689,1.15783 -0.113,0 -0.54156,-0.42856 -0.95236,-0.95236 z M 75.625752,229.13932 c 0.02612,-0.63397 0.155066,-0.76292 0.328788,-0.32879 0.157205,0.39285 0.137874,0.86223 -0.04294,1.04306 -0.18084,0.18084 -0.309458,-0.14059 -0.285828,-0.71427 z m -0.481078,-5.39671 c 0.0111,-0.89794 0.133058,-1.1994 0.271036,-0.6699 0.137978,0.52949 0.128906,1.26417 -0.02019,1.63262 -0.149074,0.36844 -0.261964,-0.0648 -0.250874,-0.96272 z m 158.257946,-2.6544 c 0,-0.113 0.42857,-0.54157 0.95236,-0.95236 0.86315,-0.67692 0.8824,-0.65767 0.20548,0.20547 -0.71094,0.90651 -1.15784,1.19479 -1.15784,0.74689 z M 74.677342,212.58638 c 0,-2.24485 0.09606,-3.1632 0.21347,-2.04077 0.117407,1.12242 0.117407,2.95912 0,4.08154 -0.117412,1.12243 -0.21347,0.20408 -0.21347,-2.04077 z m 168.647248,-5.44206 c 0,-1.0476 0.112,-1.47616 0.24889,-0.95236 0.13687,0.52379 0.13687,1.38092 0,1.90472 -0.13689,0.5238 -0.24889,0.0952 -0.24889,-0.95236 z M 74.697946,199.79753 c 0.0011,-3.29245 0.09086,-4.56919 0.199185,-2.83721 0.108324,1.73198 0.107317,4.4258 -0.0022,5.98627 -0.109554,1.56046 -0.198184,0.14339 -0.196954,-3.14906 z m 71.495614,3.68787 c 0.97277,-0.12072 2.56457,-0.12072 3.53734,0 0.97277,0.12072 0.17687,0.21949 -1.76867,0.21949 -1.94554,0 -2.74144,-0.0988 -1.76867,-0.21949 z m 13.09496,-0.52228 c 0.39285,-0.15721 0.86223,-0.13788 1.04307,0.0429 0.18083,0.18083 -0.14059,0.30945 -0.71427,0.28583 -0.63398,-0.0261 -0.76293,-0.15507 -0.3288,-0.32879 z m -17.07469,-1.94112 -1.59839,-1.76868 1.76867,1.59839 c 0.97277,0.87911 1.76867,1.67501 1.76867,1.76867 0,0.42043 -0.44904,0.0503 -1.93895,-1.59838 z m 101.07043,0.68025 c 0,-0.74828 0.12353,-1.0544 0.27449,-0.68025 0.15097,0.37414 0.15097,0.98637 0,1.36051 -0.15096,0.37414 -0.27449,0.068 -0.27449,-0.68026 z M 134.12329,190.58047 c -2.66774,-3.45951 -6.54373,-8.74572 -8.61332,-11.74713 l -3.76287,-5.45712 4.64991,-18.89752 c 6.64828,-27.01902 9.8345,-41.57104 12.53814,-57.264063 0.74772,-4.340046 1.65985,-8.748117 2.02696,-9.795714 1.00055,-2.855179 3.91941,-7.6178 6.34129,-10.346924 l 2.15025,-2.42303 2.02319,4.017516 c 2.26157,4.490878 2.28151,4.010953 -0.49703,11.960273 -3.38044,9.671312 -3.77676,12.199512 -3.76266,24.002482 0.009,7.14731 0.29661,12.29996 0.88231,15.78198 0.47829,2.84348 1.62265,9.52339 2.54302,14.84424 2.0521,11.86366 2.21949,19.30829 0.57841,25.72487 -2.01733,7.88765 -7.62814,20.18588 -11.25006,24.65876 l -0.99712,1.23138 z m 66.08275,0.57639 c 0,-0.113 0.42856,-0.54156 0.95236,-0.95236 0.86314,-0.67692 0.88239,-0.65767 0.20547,0.20547 -0.71094,0.90651 -1.15783,1.1948 -1.15783,0.74689 z M 75.164837,183.19924 c 0,-1.0476 0.111997,-1.47616 0.248881,-0.95236 0.136879,0.5238 0.136879,1.38092 0,1.90472 -0.136884,0.5238 -0.248881,0.0952 -0.248881,-0.95236 z m 0.524043,-7.89099 c 0.0111,-0.89794 0.133058,-1.1994 0.271037,-0.66991 0.137978,0.5295 0.128906,1.26418 -0.02019,1.63262 -0.149074,0.36845 -0.261964,-0.0648 -0.250873,-0.96271 z m 0.481078,-6.03162 c 0.02612,-0.63398 0.155067,-0.76293 0.328788,-0.3288 0.157205,0.39285 0.137875,0.86223 -0.04294,1.04307 -0.18084,0.18083 -0.309457,-0.14059 -0.285828,-0.71427 z m 136.134872,-0.77096 c 0,-1.0476 0.112,-1.47616 0.24888,-0.95236 0.13688,0.52379 0.13688,1.38092 0,1.90472 -0.13688,0.5238 -0.24888,0.0952 -0.24888,-0.95236 z m -98.61532,-8.52814 c -7.73279,-13.61112 -15.721089,-32.0243 -20.104699,-46.3417 -3.385997,-11.05906 -3.428625,-9.86031 0.790547,-22.229502 10.894402,-31.938751 21.490602,-51.818362 34.830962,-65.346669 3.32049,-3.367277 6.32758,-6.122321 6.68242,-6.122321 0.45524,0 0.64609,1.642053 0.64831,5.578115 0.003,5.088143 0.52607,10.08505 1.37305,13.113607 0.21073,0.753516 0.15728,0.928095 -0.14974,0.489067 -0.35067,-0.501433 -1.7692,0.349137 -5.34166,3.202929 -19.24851,15.376261 -25.39095,24.67622 -26.19193,39.655804 -0.39541,7.394697 0.38985,14.358508 3.65125,32.38028 4.46677,24.68228 8.21758,50.45576 7.45396,51.21939 -0.16189,0.16188 -1.801,-2.35766 -3.64247,-5.599 z m 98.59516,3.90238 c 0.0111,-0.89794 0.13306,-1.1994 0.27104,-0.6699 0.13797,0.5295 0.1289,1.26418 -0.0202,1.63262 -0.14908,0.36844 -0.26197,-0.0648 -0.25088,-0.96272 z m -135.026299,-4.399 c 0.02612,-0.63397 0.155066,-0.76292 0.328788,-0.32879 0.157205,0.39285 0.137874,0.86223 -0.04294,1.04306 -0.18084,0.18084 -0.309458,-0.14059 -0.285828,-0.71427 z m 0.544206,-3.80944 c 0.02612,-0.63397 0.155067,-0.76292 0.328788,-0.32879 0.157205,0.39284 0.137875,0.86223 -0.04294,1.04306 -0.18084,0.18083 -0.309457,-0.14059 -0.285828,-0.71427 z m 137.334903,-7.43749 -1.59839,-1.76867 1.76867,1.59838 c 0.97277,0.87911 1.76867,1.67502 1.76867,1.76867 0,0.42044 -0.44904,0.0503 -1.93895,-1.59838 z m -9.18995,-8.07126 c 0.13836,-0.22386 -0.0561,-0.53106 -0.43209,-0.68265 -0.42595,-0.17173 -0.45234,-0.29181 -0.07,-0.31858 0.33749,-0.0236 0.88461,0.28356 1.21582,0.68264 0.45442,0.54755 0.40987,0.72561 -0.18153,0.72561 -0.43105,0 -0.67053,-0.18316 -0.53218,-0.40702 z"
         id="path5716" />
      <path
         style="fill:#7867a9;stroke-width:0.544206"
         d="M 195.85239,279.73713 C 175.0595,275.04966 151.92377,262.65271 135.1262,247.19788 l -2.67385,-2.46011 14.25577,-0.0216 c 15.91612,-0.0241 24.73758,-0.62175 35.43054,-2.40031 5.87078,-0.97648 7.34826,-1.07133 7.82073,-0.50204 0.32039,0.38604 4.40998,2.61517 9.08798,4.95361 8.57445,4.28621 18.37837,8.09258 24.15138,9.37679 1.72106,0.38284 3.12919,0.86526 3.12919,1.07204 0,1.72174 -10.67406,13.13701 -17.24254,18.43986 -7.1508,5.77297 -6.54986,5.58765 -13.23301,4.08102 z m -71.68883,-35.96391 c 0.52949,-0.13798 1.26417,-0.12891 1.63262,0.0202 0.36844,0.14907 -0.0648,0.26196 -0.96272,0.25087 -0.89794,-0.0111 -1.1994,-0.13306 -0.6699,-0.27104 z m -5.72452,-0.5275 c 0.37414,-0.15096 0.98637,-0.15096 1.36051,0 0.37414,0.15097 0.068,0.2745 -0.68026,0.2745 -0.74828,0 -1.0544,-0.12353 -0.68025,-0.2745 z m -4.31964,-0.55554 c 0.39284,-0.1572 0.86222,-0.13787 1.04306,0.0429 0.18084,0.18083 -0.14059,0.30946 -0.71427,0.28583 -0.63397,-0.0261 -0.76292,-0.15507 -0.32879,-0.32879 z m -3.80945,-0.5442 c 0.39285,-0.15721 0.86223,-0.13788 1.04307,0.0429 0.18083,0.18084 -0.14059,0.30946 -0.71427,0.28583 -0.63398,-0.0261 -0.76293,-0.15507 -0.3288,-0.32879 z m -11.870497,-2.10015 c -6.740676,-1.54234 -15.396577,-4.20539 -19.345436,-5.95176 l -2.813813,-1.2444 -0.415349,-4.00933 c -1.761852,-17.00685 -1.009454,-47.81134 1.679703,-68.76987 1.943176,-15.14457 7.015849,-38.14463 11.522394,-52.24381 1.530477,-4.78824 1.575134,-4.85523 1.99555,-2.99313 2.15995,9.56679 9.412478,28.96332 15.542988,41.56892 4.3756,8.99714 10.30477,19.5958 10.72649,19.17408 0.76362,-0.76363 -2.98719,-26.53711 -7.45396,-51.21939 -3.2614,-18.021772 -4.04666,-24.985583 -3.65125,-32.38028 0.80137,-14.986926 6.94014,-24.276626 26.22006,-39.678373 5.60202,-4.475177 4.98781,-4.762512 6.82938,3.1949 1.42677,6.165112 5.08629,17.013196 8.0881,23.975946 l 2.17843,5.052923 -2.20386,2.502838 c -2.47948,2.815854 -5.3752,7.535744 -6.37677,10.393829 -0.36711,1.047597 -1.27924,5.455668 -2.02696,9.795714 -2.70381,15.693993 -5.88979,30.244793 -12.53943,57.269263 l -4.65119,18.9027 3.66551,5.31448 c 2.01603,2.92296 5.26765,7.39606 7.22582,9.94022 1.95816,2.54417 4.65581,6.09511 5.99477,7.89099 1.33895,1.79588 3.31286,4.2082 4.38646,5.3607 l 1.952,2.09546 -4.62575,-0.35314 c -19.91336,-1.52022 -32.39099,-6.54256 -43.289649,-17.42444 -6.989263,-6.97849 -11.899925,-15.19765 -16.105704,-26.95671 -2.58811,-7.23617 -2.64413,-6.56444 -0.154762,1.85569 6.273932,21.22113 17.270595,42.75715 31.717185,62.11538 l 1.64453,2.20365 -2.383,3.42422 c -1.31065,1.88333 -3.40308,5.48343 -4.64984,8.00023 -1.24676,2.51679 -2.4247,4.55888 -2.61766,4.53797 -0.19295,-0.0209 -2.9222,-0.62637 -6.064987,-1.34547 z m 98.699217,-2.05538 c 1.44691,-5.78219 1.71098,-31.78776 0.42449,-41.80407 l -0.39391,-3.06695 1.82083,-0.98058 c 2.95521,-1.59148 8.80406,-8.20742 10.54526,-11.92827 2.32802,-4.97487 3.35722,-10.51489 2.98453,-16.06524 -0.37781,-5.62656 -2.27441,-13.31659 -4.86607,-19.73019 l -1.92799,-4.77119 1.4762,1.05114 c 3.12524,2.22536 16.90232,16.94605 21.19498,22.64665 5.58826,7.42113 10.9673,17.99332 12.89862,25.35147 1.58135,6.0248 2.40245,13.79003 2.03735,19.26741 l -0.25393,3.80944 -4.9856,4.89786 c -8.80225,8.64733 -20.72109,15.61388 -34.80777,20.3451 -6.21439,2.08719 -6.43341,2.12201 -6.14699,0.97742 z m -44.68674,-34.50116 c 0.82311,-0.12469 2.17002,-0.12469 2.99314,0 0.82311,0.12469 0.14965,0.22671 -1.49657,0.22671 -1.64623,0 -2.31968,-0.10202 -1.49657,-0.22671 z m 8.71766,-0.53155 c 0.5295,-0.13798 1.26417,-0.1289 1.63262,0.0202 0.36844,0.14908 -0.0648,0.26197 -0.96272,0.25088 -0.89794,-0.0111 -1.1994,-0.13306 -0.6699,-0.27104 z m 5.19362,-0.53883 c 0.39284,-0.1572 0.86223,-0.13787 1.04306,0.0429 0.18083,0.18084 -0.14059,0.30946 -0.71427,0.28583 -0.63397,-0.0261 -0.76292,-0.15507 -0.32879,-0.32879 z m 3.80944,-0.5442 c 0.39285,-0.15721 0.86223,-0.13788 1.04306,0.0429 0.18084,0.18084 -0.14059,0.30946 -0.71427,0.28583 -0.63397,-0.0261 -0.76292,-0.15506 -0.32879,-0.32879 z m 3.26524,-0.54421 c 0.39284,-0.1572 0.86223,-0.13787 1.04306,0.0429 0.18084,0.18083 -0.14059,0.30946 -0.71427,0.28583 -0.63397,-0.0261 -0.76292,-0.15507 -0.32879,-0.32879 z m 2.72103,-0.54421 c 0.39285,-0.1572 0.86223,-0.13787 1.04306,0.0429 0.18084,0.18084 -0.14059,0.30946 -0.71427,0.28583 -0.63397,-0.0261 -0.76292,-0.15507 -0.32879,-0.32879 z"
         id="path5714" />
      <path
         style="fill:#65529d;stroke-width:0.544206"
         d="m 122.92874,243.60537 c -4.93867,-0.52728 -10.98022,-1.25792 -13.42565,-1.62363 l -4.44626,-0.66493 1.0385,-2.4227 c 1.23104,-2.87191 4.76121,-8.95513 6.71015,-11.56301 l 1.38523,-1.85358 -1.66241,-2.22797 C 98.057649,203.856 87.070526,182.34237 80.793225,161.10985 c -2.489368,-8.42013 -2.433348,-9.09186 0.154762,-1.85569 9.126449,25.5169 24.855493,39.26529 49.574103,43.33157 19.83768,3.26336 48.46472,-0.038 62.80109,-7.24242 2.05104,-1.0307 3.80267,-1.79707 3.89251,-1.70303 0.41841,0.43797 1.35723,16.24819 1.35308,22.78632 -0.004,6.93093 -0.73529,18.16363 -1.38278,21.25152 -0.26203,1.24966 -0.76466,1.5318 -4.21684,2.36708 -6.9774,1.68824 -17.90073,3.46043 -25.03698,4.06197 -10.62141,0.89532 -34.40123,0.63017 -45.00343,-0.5018 z"
         id="path5712" />
    </g>
  </g>
</svg>
