<?xml version="1.0" encoding="UTF-8" standalone="no"?>
<!-- Created with Inkscape (http://www.inkscape.org/) -->

<svg
   width="316.44168mm"
   height="316.44168mm"
   viewBox="0 0 316.44168 316.44169"
   version="1.1"
   id="svg5"
   inkscape:version="1.1 (c68e22c387, 2021-05-23)"
   sodipodi:docname="erlang_white.svg"
   xmlns:inkscape="http://www.inkscape.org/namespaces/inkscape"
   xmlns:sodipodi="http://sodipodi.sourceforge.net/DTD/sodipodi-0.dtd"
   xmlns="http://www.w3.org/2000/svg"
   xmlns:svg="http://www.w3.org/2000/svg">
  <sodipodi:namedview
     id="namedview7"
     pagecolor="#ffffff"
     bordercolor="#666666"
     borderopacity="1.0"
     inkscape:pageshadow="2"
     inkscape:pageopacity="0.0"
     inkscape:pagecheckerboard="0"
     inkscape:document-units="mm"
     showgrid="false"
     fit-margin-top="0"
     fit-margin-left="0"
     fit-margin-right="0"
     fit-margin-bottom="0"
     inkscape:zoom="0.64"
     inkscape:cx="255.46875"
     inkscape:cy="552.34375"
     inkscape:window-width="1920"
     inkscape:window-height="1017"
     inkscape:window-x="1912"
     inkscape:window-y="-8"
     inkscape:window-maximized="1"
     inkscape:current-layer="layer1" />
  <defs
     id="defs2" />
  <g
     inkscape:label="Calque 1"
     inkscape:groupmode="layer"
     id="layer1"
     transform="translate(53.636456,-9.8583293)">
    <g
       id="g854"
       transform="translate(0,59.53125)"
       style="fill:#ffffff">
      <path
         style="fill:#ffffff;stroke-width:0.264583"
         d="M -53.636456,110.00312 V 9.8583293 h 21.43125 c 11.787187,0 21.43125,0.054643 21.43125,0.1214296 0,0.066786 -0.956112,1.3467081 -2.124691,2.8442711 -8.997342,11.530291 -16.723387,25.879968 -21.653031,40.216427 -4.322275,12.570103 -7.046842,26.644174 -7.998591,41.317667 -0.394344,6.079756 -0.158786,22.058256 0.410066,27.815836 3.305576,33.45702 15.309013,62.33005 35.1987498,84.66695 1.1663416,1.30984 2.2840289,2.58976 2.4837469,2.84427 0.345194,0.43988 -0.8602371,0.46274 -24.4078107,0.46274 h -24.770939 z m 277.052506,99.68493 c 0.19971,-0.25293 1.40933,-1.63564 2.68804,-3.07269 3.10234,-3.48651 7.96533,-9.57007 11.02738,-13.7952 5.28733,-7.29558 14.72682,-22.29982 14.28922,-22.71299 -0.26331,-0.24861 -47.4157,-23.74932 -47.49403,-23.67098 -0.0455,0.0455 -1.49869,2.22506 -3.2294,4.84354 -21.47689,32.49357 -46.52479,48.39316 -74.68163,47.40546 -25.8795,-0.90782 -44.730413,-13.93776 -55.572493,-38.41224 -5.597851,-12.63637 -9.23348,-29.99837 -9.903283,-47.29327 -0.07749,-2.00091 -0.206944,-5.24536 -0.287676,-7.20989 l -0.14678,-3.57188 h 92.221782 92.22178 V 91.019268 c 0,-11.473699 -0.23887,-17.326618 -0.94779,-23.34948 -1.74225,-14.790936 -5.41121,-27.713289 -11.37288,-40.052187 -2.55495,-5.287956 -4.08463,-7.966078 -7.49903,-13.129063 -1.53977,-2.328334 -2.83988,-4.322631 -2.88909,-4.431771 -0.0492,-0.1091409 9.14778,-0.1984377 20.43779,-0.1984377 h 20.52725 V 110.00312 210.14792 h -19.87613 c -18.84064,0 -19.85725,-0.024 -19.51303,-0.45987 z M 63.400923,54.034145 c 0.520531,-4.98016 2.085166,-10.246159 4.517401,-15.20394 2.23774,-4.56133 4.384556,-7.53556 8.223128,-11.392451 7.0417,-7.0753 15.799417,-11.280957 26.170458,-12.567654 3.42098,-0.424428 10.0291,-0.169767 13.38497,0.515827 17.03983,3.48118 28.48604,16.168365 31.08525,34.455432 0.21476,1.510948 0.39265,3.431789 0.39532,4.268533 l 0.005,1.521354 H 105.20814 63.233995 Z"
         id="path858"
         sodipodi:nodetypes="ccsscssssssccsssssssssscccscsssscccssssssssccccs" />
    </g>
  </g>
</svg>
