<?xml version="1.0" encoding="UTF-8" standalone="no"?>
<!-- Created with Inkscape (http://www.inkscape.org/) -->

<svg
   width="300mm"
   height="300mm"
   viewBox="0 0 300 300"
   version="1.1"
   id="svg5"
   inkscape:version="1.1 (c68e22c387, 2021-05-23)"
   sodipodi:docname="eye.svg"
   xmlns:inkscape="http://www.inkscape.org/namespaces/inkscape"
   xmlns:sodipodi="http://sodipodi.sourceforge.net/DTD/sodipodi-0.dtd"
   xmlns="http://www.w3.org/2000/svg"
   xmlns:svg="http://www.w3.org/2000/svg">
  <sodipodi:namedview
     id="namedview7"
     pagecolor="#ffffff"
     bordercolor="#666666"
     borderopacity="1.0"
     inkscape:pageshadow="2"
     inkscape:pageopacity="0.0"
     inkscape:pagecheckerboard="0"
     inkscape:document-units="mm"
     showgrid="false"
     inkscape:zoom="0.5"
     inkscape:cx="261"
     inkscape:cy="667"
     inkscape:window-width="1920"
     inkscape:window-height="1017"
     inkscape:window-x="1912"
     inkscape:window-y="-8"
     inkscape:window-maximized="1"
     inkscape:current-layer="layer1" />
  <defs
     id="defs2" />
  <g
     inkscape:label="Calque 1"
     inkscape:groupmode="layer"
     id="layer1">
    <path
       style="fill:#ffffff;stroke-width:0.58493"
       d="M 130.52402,251.72672 C 86.184586,246.02861 47.743196,223.81998 21.228335,188.58367 13.859181,178.79061 6.6702034,166.43818 2.0795123,155.68131 L 0.02007716,150.85564 2.0784511,146.02997 C 22.513407,98.122029 66.262328,62.606476 117.84811,52.047657 c 19.81415,-4.055642 43.01647,-4.074014 63.43127,-0.05018 27.03602,5.328864 53.18583,18.213008 74.01855,36.469301 4.98148,4.365391 6.15374,5.527017 13.38607,13.264632 11.09007,11.86485 21.38046,27.71095 28.37947,43.70141 l 2.36286,5.39835 -2.06362,4.83795 c -6.50299,15.24557 -17.58058,32.41591 -28.41411,44.0421 -2.39113,2.56611 -4.72978,5.12396 -5.19703,5.68412 -0.46724,0.56016 -3.61334,3.46724 -6.99131,6.46015 -25.53553,22.6247 -53.76103,35.38146 -88.28734,39.90225 -8.28408,1.08468 -29.40157,1.06746 -37.9489,-0.0309 z m 30.60009,-33.85219 c 14.111,-2.50735 26.51654,-8.9595 36.5849,-19.02785 12.99289,-12.99289 19.85931,-29.58596 19.85931,-47.99104 0,-18.4051 -6.86642,-34.99817 -19.85931,-47.99106 -12.9929,-12.992888 -29.58597,-19.859316 -47.99107,-19.859316 -18.40508,0 -34.99815,6.866428 -47.99104,19.859316 -13.049061,13.04907 -19.857965,29.57122 -19.860108,48.19165 -0.0044,32.72213 23.411758,60.7153 55.860088,66.78045 5.54048,1.03562 17.67146,1.05524 23.39723,0.0378 z m -17.56847,-26.70414 c -8.90304,-1.49227 -16.18514,-5.23952 -22.54902,-11.60342 -8.13834,-8.13833 -11.79507,-17.03948 -11.79507,-28.71133 0,-11.67184 3.65673,-20.57302 11.79507,-28.71134 7.04887,-7.04888 14.44457,-10.57703 24.61681,-11.74356 9.38128,-1.07582 18.21381,1.0806 26.44312,6.45597 8.21354,5.36508 14.80066,14.55904 17.23455,24.0551 1.31002,5.11122 1.31808,14.89297 0.0155,19.88766 -5.26734,20.21103 -25.65414,33.7412 -45.76186,30.37092 z"
       id="path1846" />
  </g>
</svg>
