<?xml version="1.0" encoding="UTF-8" standalone="no"?>
<!-- Created with Inkscape (http://www.inkscape.org/) -->

<svg
   width="159.49696mm"
   height="159.49696mm"
   viewBox="0 0 159.49696 159.49696"
   version="1.1"
   id="svg5"
   inkscape:version="1.1 (c68e22c387, 2021-05-23)"
   sodipodi:docname="factor_white.svg"
   xmlns:inkscape="http://www.inkscape.org/namespaces/inkscape"
   xmlns:sodipodi="http://sodipodi.sourceforge.net/DTD/sodipodi-0.dtd"
   xmlns="http://www.w3.org/2000/svg"
   xmlns:svg="http://www.w3.org/2000/svg">
  <sodipodi:namedview
     id="namedview7"
     pagecolor="#ffffff"
     bordercolor="#666666"
     borderopacity="1.0"
     inkscape:pageshadow="2"
     inkscape:pageopacity="0.0"
     inkscape:pagecheckerboard="0"
     inkscape:document-units="mm"
     showgrid="false"
     fit-margin-top="0"
     fit-margin-left="0"
     fit-margin-right="0"
     fit-margin-bottom="0"
     inkscape:zoom="0.67081229"
     inkscape:cx="348.08545"
     inkscape:cy="288.45625"
     inkscape:window-width="1920"
     inkscape:window-height="1017"
     inkscape:window-x="1912"
     inkscape:window-y="-8"
     inkscape:window-maximized="1"
     inkscape:current-layer="layer1" />
  <defs
     id="defs2" />
  <g
     inkscape:label="Calque 1"
     inkscape:groupmode="layer"
     id="layer1"
     transform="translate(-85.834083,-137.21329)">
    <path
       style="fill:#ffffff;stroke-width:0.264583"
       d="m 166.73071,255.14253 c -0.23861,-0.13934 -1.27032,-0.37198 -2.29269,-0.51698 -1.49671,-0.21227 -2.04197,-0.18712 -2.79881,0.12911 -1.32536,0.55377 -3.41723,0.49815 -4.63525,-0.12323 -5.41964,-6.49444 -2.11614,-15.65318 0.46912,-17.86613 1.54481,-1.44498 2.52185,-3.19668 2.94762,-5.28465 0.47507,-2.32972 0.71177,-2.69243 2.07909,-3.18601 3.13226,-1.13068 2.94322,-0.83657 2.15464,-3.35224 -0.28916,-0.92247 -0.52729,-1.87172 -0.52917,-2.10945 -0.004,-0.45129 -1.92824,-2.34589 -2.38313,-2.34589 -0.14384,0 -0.80747,-0.41672 -1.47471,-0.92604 -0.66725,-0.50932 -1.39777,-0.92604 -1.62337,-0.92604 -0.2256,0 -1.25827,-0.46791 -2.29484,-1.03979 -2.24919,-1.24091 -5.12182,-2.47777 -9.95444,-4.2861 -3.50838,-1.3128 -11.22909,-5.13789 -16.62927,-8.23866 -3.79972,-2.1818 -8.47794,-4.39823 -13.00407,-6.16101 -2.11005,-0.8218 -4.86361,-1.8958 -6.11902,-2.38666 -3.19262,-1.2483 -6.19256,-1.71516 -11.211189,-1.7447 -4.77776,-0.0281 -7.39885,0.41747 -11.08618,1.88467 -1.49318,0.59414 -2.17176,0.75035 -2.37531,0.5468 -1.26657,-1.26657 6.59776,-4.62851 12.69764,-5.42814 5.543699,-0.72671 8.883759,-0.48551 14.771859,1.06678 1.31789,0.34744 3.22878,0.76211 4.24644,0.92149 1.01765,0.15938 3.63702,0.98493 5.82083,1.83456 2.18381,0.84963 5.3854,1.9178 7.11466,2.37371 1.72926,0.45591 4.4677,1.41195 6.08542,2.12454 1.88745,0.83139 3.51011,1.35965 4.52881,1.47436 0.87313,0.0983 3.01625,0.47608 4.7625,0.83947 1.74625,0.36339 4.18703,0.768 5.42396,0.89912 1.23693,0.13113 2.9328,0.31438 3.76862,0.40724 1.89174,0.21018 2.44634,0.0134 9.06367,-3.21516 8.00051,-3.90345 7.96854,-3.8923 11.77396,-4.10719 1.81901,-0.10272 4.02167,-0.3354 4.89479,-0.51707 1.07049,-0.22274 2.6646,-0.27658 4.89479,-0.16531 1.92652,0.0961 4.43986,0.0389 6.02007,-0.13701 3.53476,-0.39352 4.85198,-0.12433 8.92889,1.82472 l 3.175,1.51788 2.8058,-0.005 c 2.59369,-0.004 2.92047,-0.0642 4.32338,-0.79375 0.83468,-0.43405 1.67277,-1.08683 1.86245,-1.45063 0.18965,-0.3638 0.78632,-1.59553 1.32591,-2.73716 1.06087,-2.24457 2.58421,-3.96522 6.28517,-7.09928 2.28024,-1.93094 3.70195,-2.5025 5.54604,-2.22962 0.62402,0.0923 2.34982,0.22185 3.83511,0.28781 3.10362,0.13782 3.9665,0.43109 5.71111,1.94105 1.11533,0.9653 1.33083,1.0558 1.89831,0.79724 0.64815,-0.29532 0.63984,-0.29831 3.82624,1.37527 0.22874,0.12015 0.9687,0.46955 1.64434,0.77646 1.02219,0.46431 1.32207,0.77561 1.78593,1.85394 0.76706,1.78304 0.72136,2.79155 -0.16925,3.73514 -0.7325,0.77608 -1.38991,1.00775 -1.38991,0.48978 0,-0.1541 -0.11906,-0.20661 -0.26458,-0.11667 -0.14552,0.0899 -0.26459,0.006 -0.26459,-0.18573 0,-0.2542 -0.55806,-0.36517 -2.05052,-0.40775 -2.87639,-0.0821 -5.35199,-0.46079 -6.28385,-0.9613 -1.05569,-0.56703 -3.90792,-0.58421 -4.37095,-0.0263 -0.18407,0.2218 -0.28577,0.45217 -0.226,0.51193 0.0597,0.0598 1.20779,0.65889 2.55124,1.33141 1.34342,0.67252 2.44258,1.33513 2.44258,1.47246 0,0.13732 0.19037,0.24968 0.42305,0.24968 0.39478,0 1.75865,0.52363 2.8145,1.08058 0.2527,0.13329 0.63966,0.24234 0.8599,0.24234 0.22026,0 0.40047,0.11906 0.40047,0.26458 0,0.14552 0.2431,0.26459 0.54023,0.26459 0.29712,0 0.79584,0.23812 1.10823,0.52916 0.31239,0.29105 0.85021,0.52917 1.19518,0.52917 0.34493,0 0.56491,0.10076 0.48879,0.22392 -0.0761,0.12316 -0.0414,0.83769 0.0772,1.58785 0.16489,1.043 0.12967,1.43526 -0.14962,1.66706 -0.37528,0.31146 -0.37592,0.31126 -2.23713,-0.71337 -0.3833,-0.21102 -1.93112,-0.50681 -3.43958,-0.65733 -3.65742,-0.36494 -4.91379,-0.76059 -7.96447,-2.50811 l -2.57595,-1.47558 -1.86846,0.38672 c -2.19292,0.45387 -2.36384,0.57314 -3.39657,2.37025 -1.22848,2.13769 -4.00396,4.79154 -5.61826,5.37203 -0.74846,0.26914 -1.41828,0.63909 -1.4885,0.82212 -0.0702,0.18302 -0.53951,0.33277 -1.04283,0.33277 -1.08315,0 -1.88129,0.38486 -2.54315,1.22628 -0.26524,0.33719 -0.98189,0.75897 -1.59252,0.93729 -0.61066,0.17832 -1.19777,0.44907 -1.30469,0.60168 -0.10692,0.1526 -0.19621,1.02943 -0.19844,1.9485 -0.005,1.96403 -0.24312,2.53116 -1.54786,3.68284 l -0.96973,0.85596 0.69829,0.004 c 1.19528,0.007 1.94755,0.84687 1.94755,2.17501 0,1.57739 -0.654,2.49566 -2.04947,2.87764 -1.9383,0.53058 -3.44103,1.38836 -4.71317,2.69035 -1.12621,1.15263 -2.36549,1.67243 -2.36549,0.99218 0,-0.45972 -0.65279,-0.28647 -0.99693,0.26458 -0.38448,0.61565 -1.6914,0.71869 -2.14735,0.16931 -0.16426,-0.19793 -0.58103,-0.30589 -0.92616,-0.23991 -0.43802,0.0837 -0.75199,-0.0578 -1.03984,-0.46877 -0.2268,-0.32379 -0.88202,-0.79899 -1.45606,-1.05599 -1.0101,-0.45224 -1.06815,-0.45066 -1.80275,0.049 -1.26772,0.86237 -4.67491,2.52686 -5.5694,2.72079 -0.46289,0.10035 -0.97648,0.34496 -1.14132,0.54358 -0.24396,0.29395 -0.0628,0.39154 0.9739,0.52459 2.15251,0.27625 4.65755,0.70138 5.84091,0.99127 0.96736,0.23696 1.19733,0.43363 1.61733,1.38311 0.44761,1.01189 0.56652,1.10149 1.38583,1.04425 1.7191,-0.12012 3.72912,0.59993 4.77865,1.71185 1.2083,1.28013 1.76076,2.91545 1.31526,3.89323 -0.40462,0.88805 -0.84892,0.71403 -1.45483,-0.56982 -0.80537,-1.70647 -1.75849,-2.52995 -1.75849,-1.51932 0,0.24528 -0.25138,0.71355 -0.55862,1.04059 -0.44468,0.47334 -0.57613,1.00007 -0.6445,2.58246 -0.0472,1.09331 -0.21611,2.23115 -0.37527,2.52854 -0.57785,1.07973 -2.92427,1.75853 -3.63207,1.05073 -0.20924,-0.20924 -0.47639,-0.16658 -0.96601,0.15423 -1.2394,0.81209 -2.56394,0.008 -3.09171,-1.87711 -0.4417,-1.57763 -0.0416,-2.07923 0.9303,-1.1662 0.64399,0.60499 0.66496,0.60758 0.66496,0.0818 0,-0.29859 0.15395,-0.67065 0.3421,-0.8268 0.34907,-0.2897 0.39959,-3.72156 0.0701,-4.75979 -0.19447,-0.61271 -2.39189,-2.0583 -4.35876,-2.86744 -1.01882,-0.41912 -2.01895,-0.60971 -3.22229,-0.61404 -1.99168,-0.007 -2.6207,-0.43249 -2.6207,-1.77204 0,-0.86027 0.38182,-1.27103 1.89014,-2.03337 1.45753,-0.73667 2.67369,-1.83519 3.33178,-3.00947 l 0.59171,-1.05585 -1.78233,0.50738 c -1.13827,0.32403 -2.32911,0.47227 -3.29541,0.41021 l -1.51307,-0.0972 -1.20442,2.03966 c -1.64084,2.77871 -5.62673,6.60951 -8.34269,8.01806 -4.17862,2.16711 -7.93196,4.69934 -7.93196,5.35137 0,0.16624 -0.31151,0.98267 -0.69225,1.8143 -0.5793,1.26537 -0.66325,1.7306 -0.51456,2.85148 0.25592,1.92917 0.97301,3.10874 1.88991,3.10874 0.0609,0 0.11737,-0.56554 0.12558,-1.25677 0.0222,-1.86706 0.52235,-3.12673 1.20425,-3.03294 0.30354,0.0418 0.70376,-0.10707 0.88938,-0.33073 0.83901,-1.01095 2.98723,-0.0482 4.08956,1.83276 0.67536,1.15242 0.92174,2.78768 0.42001,2.78768 -0.14356,0 -0.43114,-0.40713 -0.63905,-0.90474 -0.4217,-1.00927 -1.38021,-1.6833 -1.79866,-1.26484 -0.1712,0.1712 -0.15445,0.4592 0.0488,0.83894 0.41646,0.77816 0.15946,1.33064 -0.61899,1.33064 -0.50854,0 -0.66362,0.16279 -0.75623,0.79375 -0.1055,0.71882 -0.0474,0.79375 0.61581,0.79375 0.40277,0 0.8059,0.11907 0.89584,0.26459 0.0899,0.14552 0.59133,0.26458 1.11421,0.26458 0.79629,0 1.18048,0.22979 2.36563,1.41495 0.98268,0.98267 1.41495,1.62455 1.41495,2.10105 0,0.95393 -0.41286,1.11181 -1.22886,0.46994 -0.72839,-0.57294 -1.94614,-0.74256 -1.94614,-0.27106 0,0.15141 0.24331,0.6044 0.5407,1.00664 0.83478,1.1291 0.28449,2.01703 -0.84225,1.35903 z"
       id="path890"
       sodipodi:nodetypes="cssccssscsssssssssssssssssssssssssssccsssssssssssssssssscssssssssssssssscsssssssscsccssssssssscssssssssssssssssssssscssscsscsssssssssssssssssssssssscc" />
  </g>
</svg>
