<?xml version="1.0" encoding="UTF-8" standalone="no"?>
<!-- Created with Inkscape (http://www.inkscape.org/) -->

<svg
   width="175mm"
   height="175mm"
   viewBox="0 0 175 175"
   version="1.1"
   id="svg5"
   inkscape:version="1.1 (c68e22c387, 2021-05-23)"
   sodipodi:docname="fig.svg"
   xmlns:inkscape="http://www.inkscape.org/namespaces/inkscape"
   xmlns:sodipodi="http://sodipodi.sourceforge.net/DTD/sodipodi-0.dtd"
   xmlns="http://www.w3.org/2000/svg"
   xmlns:svg="http://www.w3.org/2000/svg">
  <sodipodi:namedview
     id="namedview7"
     pagecolor="#ffffff"
     bordercolor="#666666"
     borderopacity="1.0"
     inkscape:pageshadow="2"
     inkscape:pageopacity="0.0"
     inkscape:pagecheckerboard="0"
     inkscape:document-units="mm"
     showgrid="false"
     fit-margin-top="0"
     fit-margin-left="0"
     fit-margin-right="0"
     fit-margin-bottom="0"
     inkscape:zoom="0.47433592"
     inkscape:cx="-49.542948"
     inkscape:cy="310.96106"
     inkscape:window-width="1920"
     inkscape:window-height="1017"
     inkscape:window-x="1912"
     inkscape:window-y="-8"
     inkscape:window-maximized="1"
     inkscape:current-layer="layer1"
     width="150mm" />
  <defs
     id="defs2" />
  <g
     inkscape:label="Calque 1"
     inkscape:groupmode="layer"
     id="layer1"
     transform="translate(-447.21852,-139.35186)">
    <path
       style="fill:#802c4e;fill-opacity:1;stroke-width:0.953931"
       d="m 516.36594,301.27258 c -28.34163,-5.52143 -44.41684,-22.75099 -44.32505,-47.50793 0.0707,-19.07567 9.03377,-32.08629 32.87785,-47.72506 8.91907,-5.84982 14.8696,-11.71969 18.22134,-17.97433 3.72962,-6.95996 8.41904,-9.44553 14.07587,-7.46086 2.99115,1.04942 4.4481,2.39991 6.59862,6.11644 3.9139,6.76423 10.32909,13.0255 20.24798,19.76222 17.25714,11.72069 24.3959,19.42867 29.14646,31.47066 4.91325,12.45396 3.39428,28.74875 -3.72576,39.97013 -6.23196,9.8218 -17.82059,17.93232 -31.44668,22.0085 -8.35519,2.49938 -31.84303,3.25478 -41.67063,1.34023 z"
       id="path2446"
       sodipodi:nodetypes="sssssssssss" />
    <path
       d="m 568.35526,203.99467 c -2.36097,-1.25624 -5.11155,-3.1896 -6.11232,-4.29643 -1.63475,-1.80804 -1.69809,-2.42381 -0.62339,-6.06399 3.85816,-13.06793 15.01471,-25.99645 28.46265,-32.98316 7.77887,-4.04142 23.42907,-8.74879 29.08629,-8.74879 h 2.872 l -0.53373,5.88537 c -0.38614,4.25944 -1.65212,8.14658 -4.5822,14.0705 -5.55783,11.23627 -18.42291,25.35533 -29.00256,30.50805 -9.55489,4.65361 -14.06362,4.55655 -19.56674,1.62845 z"
       style="fill:#008000;stroke-width:0.252394"
       id="path3605"
       sodipodi:nodetypes="sccsscccss" />
  </g>
</svg>
