<?xml version="1.0" encoding="UTF-8" standalone="no"?>
<!-- Created with Inkscape (http://www.inkscape.org/) -->

<svg
   width="429.02182mm"
   height="429.02182mm"
   viewBox="0 0 429.02182 429.02183"
   version="1.1"
   id="svg5"
   inkscape:version="1.1 (c68e22c387, 2021-05-23)"
   sodipodi:docname="fish_white.svg"
   xmlns:inkscape="http://www.inkscape.org/namespaces/inkscape"
   xmlns:sodipodi="http://sodipodi.sourceforge.net/DTD/sodipodi-0.dtd"
   xmlns="http://www.w3.org/2000/svg"
   xmlns:svg="http://www.w3.org/2000/svg">
  <sodipodi:namedview
     id="namedview7"
     pagecolor="#ffffff"
     bordercolor="#666666"
     borderopacity="1.0"
     inkscape:pageshadow="2"
     inkscape:pageopacity="0.0"
     inkscape:pagecheckerboard="0"
     inkscape:document-units="mm"
     showgrid="false"
     fit-margin-top="0"
     fit-margin-left="0"
     fit-margin-right="0"
     fit-margin-bottom="0"
     inkscape:zoom="0.11313708"
     inkscape:cx="-578.94368"
     inkscape:cy="-1542.3767"
     inkscape:window-width="1920"
     inkscape:window-height="1017"
     inkscape:window-x="1912"
     inkscape:window-y="-8"
     inkscape:window-maximized="1"
     inkscape:current-layer="layer1" />
  <defs
     id="defs2" />
  <g
     inkscape:label="Calque 1"
     inkscape:groupmode="layer"
     id="layer1"
     transform="translate(489.92992,1260.2834)">
    <path
       style="fill:#ffffff;stroke-width:0.264583"
       d="m -489.92992,-968.30639 v -23.5479 l 76.8303,-30.95611 -76.83006,-31.2564 v -23.5751 l 109.802,45.0601 v 19.3146 z m 140.36145,-45.42861 v -18.4054 l 109.67714,-45.5029 c -0.0459,7.913 -0.0919,15.826 -0.1378,23.739 l -76.02953,30.9825 76.147,31.20881 c 0.005,7.8052 0.009,15.6104 0.014,23.4156 z m 146.9078,45.33761 -0.9901,0.1606 v -11.6845 -11.6846 l 76.68982,-31.30681 -76.69053,-31.3903 v -23.3339 l 109.433422,45.0412 h 0.372454 v 19.3145 h -0.382879 -0.382878 l -108.048139,44.88531 z m 119.659894,-92.85291 c -10.465899,-0.1896 -11.371135,-14.9982 -0.894027,-15.7416 12.131402,-0.056 10.457269,15.4529 0.894027,15.7416 z m -30.753364,-55.0836 c 12.93095,-11.6657 24.159449,3.013 19.137389,13.6152 -8.974749,12.9724 -28.774859,-0.9324 -19.137389,-13.6152 z m 21.559166,-46.5731 c 7.766918,-21.1509 35.555006,-5.8485 30.66329,10.2788 -8.97601,22.3516 -37.735366,12.8804 -30.66329,-10.2788 z"
       id="path2423"
       sodipodi:nodetypes="ccccccccccccccccccccccccccccccccccccccc" />
  </g>
</svg>
