<?xml version="1.0" encoding="UTF-8" standalone="no"?>
<!-- Created with Inkscape (http://www.inkscape.org/) -->

<svg
   width="300mm"
   height="300mm"
   viewBox="0 0 300 300"
   version="1.1"
   id="svg5"
   inkscape:version="1.1 (c68e22c387, 2021-05-23)"
   sodipodi:docname="follow.svg"
   xmlns:inkscape="http://www.inkscape.org/namespaces/inkscape"
   xmlns:sodipodi="http://sodipodi.sourceforge.net/DTD/sodipodi-0.dtd"
   xmlns="http://www.w3.org/2000/svg"
   xmlns:svg="http://www.w3.org/2000/svg">
  <sodipodi:namedview
     id="namedview7"
     pagecolor="#ffffff"
     bordercolor="#666666"
     borderopacity="1.0"
     inkscape:pageshadow="2"
     inkscape:pageopacity="0.0"
     inkscape:pagecheckerboard="0"
     inkscape:document-units="mm"
     showgrid="false"
     inkscape:zoom="0.17349362"
     inkscape:cx="1011.5646"
     inkscape:cy="907.81439"
     inkscape:window-width="1920"
     inkscape:window-height="1017"
     inkscape:window-x="1912"
     inkscape:window-y="-8"
     inkscape:window-maximized="1"
     inkscape:current-layer="layer1" />
  <defs
     id="defs2" />
  <g
     inkscape:label="Calque 1"
     inkscape:groupmode="layer"
     id="layer1">
    <path
       style="fill:#000000;stroke-width:0.264583"
       id="path2926"
       d="" />
    <path
       style="fill:#000000;stroke-width:0.264583"
       id="path2906"
       d="" />
    <path
       style="fill:#ffffff;stroke-width:0.146043"
       d="m 229.13418,287.96131 c -3.59182,-0.29969 -6.36504,-0.72916 -8.88584,-1.3761 -9.58884,-2.46086 -17.86617,-7.27751 -24.78962,-14.42528 -6.70709,-6.92442 -11.47904,-15.53634 -13.85851,-25.01042 -1.68418,-6.70571 -2.11273,-13.94616 -1.23192,-20.81396 2.04481,-15.94355 10.78073,-30.20341 23.79259,-38.83717 6.79284,-4.50727 13.96056,-7.19811 22.27151,-8.36096 2.65774,-0.37187 9.95335,-0.37134 12.70571,0.001 10.65463,1.44106 19.98747,5.69096 28.0521,12.77411 9.26616,8.13843 15.66154,19.75833 17.72451,32.20401 0.59177,3.57001 0.72785,5.34186 0.72564,9.4482 -0.002,4.14763 -0.19396,6.34614 -0.87882,10.07695 -3.88258,21.15031 -19.30797,37.91352 -39.56266,42.99388 -4.73872,1.18857 -11.25958,1.72674 -16.06469,1.32582 z m 8.51734,-9.05998 c 3.61143,-0.34918 6.67803,-1.04683 10.1031,-2.29839 10.60223,-3.87422 19.50761,-11.84698 24.7513,-22.15924 6.8849,-13.53987 6.90732,-29.7151 0.0599,-43.24061 -2.40392,-4.74839 -5.28492,-8.66065 -9.1321,-12.40101 -7.97566,-7.75412 -18.18833,-12.12941 -29.18805,-12.50468 -18.82139,-0.64211 -36.0243,10.98597 -43.06633,29.11014 -2.25832,5.81225 -3.21256,11.00601 -3.20184,17.42691 0.008,4.98747 0.53834,8.76294 1.87574,13.36159 2.10334,7.23238 5.91858,13.87823 11.08876,19.31577 6.16176,6.48035 14.78055,11.25958 23.22673,12.87947 1.25897,0.24147 4.41967,0.60701 6.864,0.79387 1.1197,0.0856 4.13602,-0.0438 6.61879,-0.28382 z m -8.48,-29.0164 -0.0373,-12.30409 -11.86597,-0.0374 -11.86597,-0.0374 v -4.96459 -4.96459 h 11.90248 11.90248 v -11.61039 -11.61039 h 4.96545 4.96545 v 11.61039 11.61039 h 11.90248 11.90248 v 4.96459 4.96459 l -11.86597,0.0374 -11.86597,0.0374 -0.0373,12.30409 -0.0373,12.3041 h -4.96379 -4.96379 z m -87.22482,19.46419 c -2.731,-0.0614 -5.26119,-0.15371 -5.62264,-0.20522 -0.36146,-0.0515 -2.69449,-0.19326 -5.18452,-0.315 -2.49003,-0.12174 -5.48025,-0.3138 -6.64494,-0.42679 -1.16469,-0.11301 -2.61051,-0.24702 -3.21294,-0.2978 -0.60242,-0.0508 -2.17969,-0.2203 -3.50502,-0.37669 -1.32534,-0.15639 -3.52693,-0.41588 -4.89243,-0.57665 -1.3655,-0.16077 -3.30422,-0.42291 -4.30826,-0.58253 -3.80252,-0.60455 -8.16895,-1.34616 -9.857882,-1.67432 -0.963882,-0.18729 -2.343985,-0.45038 -3.066896,-0.58466 -2.088673,-0.38793 -9.298057,-2.08849 -11.537372,-2.72144 -1.124528,-0.31786 -2.537491,-0.71392 -3.139917,-0.88013 -1.847824,-0.50982 -5.533322,-1.67978 -7.302134,-2.31806 -0.92372,-0.33331 -1.975227,-0.70533 -2.336683,-0.82668 -0.361455,-0.12134 -1.026865,-0.37883 -1.478689,-0.57219 -0.451823,-0.19335 -0.890726,-0.35155 -0.97534,-0.35155 -0.243738,0 -5.28234,-2.25727 -7.768958,-3.48045 -6.499762,-3.19728 -11.402143,-6.63726 -14.718866,-10.32817 -2.898823,-3.22586 -4.263748,-5.59255 -4.976674,-8.62922 -0.273665,-1.16565 -0.312307,-1.76627 -0.312307,-4.85415 0,-6.60472 1.116002,-13.9283 3.196289,-20.97512 4.620205,-15.6506 14.776935,-30.09915 28.129865,-40.01638 4.335245,-3.21979 7.187286,-4.9638 11.983944,-7.32817 3.154604,-1.55498 4.456904,-2.14546 5.906284,-2.678 0.602426,-0.22136 1.851091,-0.68106 2.774811,-1.02154 0.92372,-0.3405 1.975227,-0.70257 2.336683,-0.80461 0.361455,-0.10205 1.445822,-0.41525 2.409704,-0.69601 0.963882,-0.28076 2.475428,-0.67759 3.358978,-0.88183 4.74037,-1.09579 5.14852,-1.12421 6.09011,-0.42401 1.28017,0.952 4.75423,3.2319 5.88539,3.86239 0.64259,0.35817 1.49694,0.83415 1.89856,1.05776 0.40162,0.22361 1.06477,0.59458 1.47368,0.82443 0.90397,0.50808 4.59393,2.20157 5.90147,2.70845 5.69585,2.20804 11.64506,3.66185 17.81797,4.35416 3.05349,0.34245 3.76932,0.3683 10.14921,0.36658 6.73521,-0.002 7.73049,-0.0488 12.2115,-0.57677 2.01009,-0.23681 5.92676,-0.98525 7.6503,-1.4619 2.62932,-0.72713 4.74956,-1.3699 5.54962,-1.68238 0.48194,-0.18824 1.10627,-0.40461 1.38741,-0.48085 0.51629,-0.13998 5.23374,-2.2039 6.62321,-2.89769 2.96862,-1.4823 6.01554,-3.32694 8.97279,-5.43222 1.70894,-1.21661 1.71055,-1.21735 2.47092,-1.14299 1.33888,0.13095 7.6003,1.60529 9.3891,2.21083 0.36145,0.12235 1.57726,0.52734 2.70179,0.89997 1.12453,0.37264 2.20889,0.75906 2.4097,0.85873 0.20081,0.0997 0.59513,0.23016 0.87626,0.28998 0.28113,0.0598 0.6856,0.23204 0.8988,0.38269 0.21321,0.15068 0.45985,0.27394 0.54809,0.27394 0.18419,0 4.04513,1.77557 5.78222,2.65914 2.93049,1.49059 6.61863,3.78145 10.14997,6.30459 1.46821,1.04904 4.60556,3.56331 5.07885,4.07018 l 0.33247,0.35605 -2.74217,0.0898 c -12.7162,0.4163 -25.04873,5.20692 -35.16365,13.65949 -3.39511,2.83714 -7.73154,7.60715 -10.49968,11.54947 -9.60423,13.67822 -13.28867,31.47396 -9.93375,47.97975 1.42963,7.03354 4.1842,14.12225 7.77783,20.01573 0.74833,1.22726 1.09906,1.9316 0.9919,1.99204 -0.15796,0.0891 -2.05038,0.30793 -4.25495,0.49207 -0.56226,0.047 -1.87665,0.1788 -2.92085,0.29296 -1.04421,0.11418 -3.93585,0.31021 -6.42588,0.43562 -2.49003,0.12542 -5.31595,0.29158 -6.27984,0.36926 -2.3921,0.19276 -15.9721,0.28276 -22.05244,0.14614 z m 3.72409,-113.41026 c -5.9746,-0.74184 -8.75567,-1.42137 -13.58197,-3.31864 -5.50511,-2.16412 -10.72747,-5.29726 -15.41616,-9.24889 -2.1502,-1.81219 -5.93948,-5.70377 -7.66734,-7.87432 -5.6003,-7.03518 -9.156262,-13.91156 -11.894809,-23.00173 -1.676382,-5.56448 -2.618677,-12.39617 -2.618677,-18.985543 0,-7.910057 1.168879,-14.998663 3.684514,-22.344529 6.722682,-19.630798 21.663512,-34.108148 40.082492,-38.839072 4.91872,-1.263375 6.69856,-1.46597 12.89237,-1.467509 5.93873,-0.0015 7.60286,0.184492 12.55585,1.403118 14.41736,3.547227 27.29368,13.648018 35.26929,27.6669 4.60347,8.091605 7.31926,16.681775 8.42357,26.644065 0.36077,3.254602 0.36115,10.432225 0.001,13.80103 -0.89485,8.36427 -2.93901,15.57485 -6.53556,23.05373 -6.39594,13.30004 -17.75419,24.13644 -30.53742,29.13442 -4.37183,1.70928 -7.6143,2.55807 -12.17023,3.18577 -2.89108,0.39833 -9.94815,0.50639 -12.48665,0.1912 z m 8.86413,-17.59763 c 11.41416,-0.91346 22.26181,-7.86296 29.17349,-18.68985 1.1462,-1.79549 3.1515,-5.75989 3.91523,-7.74027 3.40022,-8.81696 4.25582,-18.211929 2.49379,-27.382998 -1.44508,-7.521371 -4.72109,-14.721477 -9.33605,-20.518996 -2.38358,-2.994352 -6.53096,-6.728002 -9.91823,-8.928834 -4.1529,-2.698286 -9.65184,-4.779666 -14.45823,-5.472523 -2.47275,-0.356455 -7.12808,-0.427936 -9.41975,-0.144638 -9.23312,1.141407 -17.58877,5.581302 -23.97354,12.738695 -3.51848,3.944247 -5.83071,7.563619 -7.84127,12.274065 -3.06572,7.182537 -4.24546,14.112361 -3.83328,22.516851 0.34878,7.111958 2.44738,14.432198 5.88881,20.541028 6.01208,10.67198 15.84631,18.15516 26.69239,20.31113 2.90657,0.57776 7.13125,0.77527 10.61664,0.49634 z m -7.70201,-27.80763 c -3.45488,-0.82143 -6.06973,-2.32705 -8.53888,-4.91666 -2.00092,-2.09854 -3.35363,-4.48374 -4.11712,-7.259683 -0.36305,-1.319967 -0.38933,-1.61761 -0.38933,-4.409392 0,-2.791782 0.0263,-3.089425 0.38933,-4.409392 0.80602,-2.930539 2.36966,-5.566748 4.58687,-7.733212 1.71755,-1.678242 3.37908,-2.75418 5.89919,-3.820075 0.28909,-0.122274 1.24202,-0.398641 2.11761,-0.614148 1.38041,-0.339753 1.89384,-0.39193 3.86308,-0.392581 1.94789,-5.84e-4 2.48824,0.05269 3.79711,0.374763 2.64065,0.649792 4.29323,1.42893 6.40346,3.019035 4.40802,3.321539 6.73296,7.994814 6.73296,13.533632 0,4.702816 -1.45225,8.392343 -4.609,11.709523 -2.4481,2.57249 -5.2105,4.13097 -8.82693,4.97994 -1.8235,0.42808 -5.37435,0.39808 -7.30835,-0.0617 z"
       id="path3334" />
  </g>
</svg>
