<?xml version="1.0" encoding="UTF-8" standalone="no"?>
<!-- Created with Inkscape (http://www.inkscape.org/) -->

<svg
   width="53.18549mm"
   height="53.18549mm"
   viewBox="0 0 53.18549 53.18549"
   version="1.1"
   id="svg5"
   inkscape:version="1.1 (c68e22c387, 2021-05-23)"
   sodipodi:docname="fortran_white.svg"
   xmlns:inkscape="http://www.inkscape.org/namespaces/inkscape"
   xmlns:sodipodi="http://sodipodi.sourceforge.net/DTD/sodipodi-0.dtd"
   xmlns="http://www.w3.org/2000/svg"
   xmlns:svg="http://www.w3.org/2000/svg">
  <sodipodi:namedview
     id="namedview7"
     pagecolor="#ffffff"
     bordercolor="#666666"
     borderopacity="1.0"
     inkscape:pageshadow="2"
     inkscape:pageopacity="0.0"
     inkscape:pagecheckerboard="0"
     inkscape:document-units="mm"
     showgrid="false"
     fit-margin-top="0"
     fit-margin-left="0"
     fit-margin-right="0"
     fit-margin-bottom="0"
     inkscape:zoom="2.6832492"
     inkscape:cx="149.25934"
     inkscape:cy="151.12275"
     inkscape:window-width="1920"
     inkscape:window-height="1017"
     inkscape:window-x="1912"
     inkscape:window-y="-8"
     inkscape:window-maximized="1"
     inkscape:current-layer="layer1" />
  <defs
     id="defs2" />
  <g
     inkscape:label="Calque 1"
     inkscape:groupmode="layer"
     id="layer1"
     transform="translate(-52.06459,-160.00976)">
    <path
       style="fill:#ffffff;stroke-width:0.264583"
       d="m 54.036702,210.1506 c 0,-2.2595 0.08532,-3.04506 0.330729,-3.04523 1.328262,-7.9e-4 6.179749,-0.59621 6.57275,-0.80654 1.017049,-0.54431 1.075466,-1.76651 0.987033,-20.65057 -0.08349,-17.82783 -0.09662,-18.22711 -0.616512,-18.74684 -0.651821,-0.65162 -2.736742,-1.07083 -5.325738,-1.07083 h -1.948262 v -2.91041 -2.91042 h 24.60625 24.606248 v 11.1125 11.1125 l -2.4474,-0.004 c -3.737638,-0.006 -3.483088,0.2208 -3.847158,-3.42055 -0.6983,-6.98417 -2.31832,-10.66766 -5.26496,-11.97112 -1.44549,-0.63941 -6.04954,-0.99513 -12.98058,-1.00289 l -5.357817,-0.006 v 8.20209 8.20208 h 0.642317 c 1.47779,0 4.85919,-0.60389 5.872,-1.04869 1.45296,-0.63812 2.39152,-2.53313 2.9514,-5.95911 l 0.41137,-2.5172 h 2.86667 2.86666 v 13.23783 13.23783 l -2.97656,-0.0748 -2.97657,-0.0748 -0.0605,-1.32292 c -0.0778,-1.69965 -0.57616,-4.46873 -1.04698,-5.81708 -0.78246,-2.24082 -2.45885,-3.14374 -6.45556,-3.47705 l -2.063549,-0.1721 0.154709,8.1727 c 0.0851,4.49499 0.25147,8.43437 0.36973,8.75418 0.4125,1.11551 1.3467,1.43301 5.13017,1.74356 l 3.59148,0.29479 -0.0743,2.92342 -0.0743,2.92342 -14.221356,0.0684 -14.221354,0.0685 z"
       id="path946" />
  </g>
</svg>
