<?xml version="1.0" encoding="UTF-8" standalone="no"?>
<!-- Created with Inkscape (http://www.inkscape.org/) -->

<svg
   width="300mm"
   height="300mm"
   viewBox="0 0 300 300"
   version="1.1"
   id="svg5"
   inkscape:version="1.1 (c68e22c387, 2021-05-23)"
   sodipodi:docname="friends.svg"
   xmlns:inkscape="http://www.inkscape.org/namespaces/inkscape"
   xmlns:sodipodi="http://sodipodi.sourceforge.net/DTD/sodipodi-0.dtd"
   xmlns="http://www.w3.org/2000/svg"
   xmlns:svg="http://www.w3.org/2000/svg">
  <sodipodi:namedview
     id="namedview7"
     pagecolor="#ffffff"
     bordercolor="#666666"
     borderopacity="1.0"
     inkscape:pageshadow="2"
     inkscape:pageopacity="0.0"
     inkscape:pagecheckerboard="0"
     inkscape:document-units="mm"
     showgrid="false"
     inkscape:zoom="0.24535702"
     inkscape:cx="474.81828"
     inkscape:cy="992.43134"
     inkscape:window-width="1920"
     inkscape:window-height="1017"
     inkscape:window-x="1912"
     inkscape:window-y="-8"
     inkscape:window-maximized="1"
     inkscape:current-layer="layer1" />
  <defs
     id="defs2" />
  <g
     inkscape:label="Calque 1"
     inkscape:groupmode="layer"
     id="layer1">
    <path
       style="fill:#ffffff;stroke-width:1.19501"
       d="m 240.4173,282.03825 c -19.34011,-3.64538 -36.32966,-12.39229 -42.80897,-22.03976 -6.52313,-9.7127 -5.82807,-19.73202 3.80107,-54.79315 12.81536,-46.66257 12.67299,-53.55394 -1.93139,-93.48503 -8.88308,-24.287898 -14.44074,-43.903029 -15.50476,-54.721924 -0.47438,-4.823941 -1.25606,-8.319372 -1.73704,-7.767581 -0.48097,0.551792 -2.34365,5.305273 -4.13936,10.563348 -4.88085,14.291789 -12.5258,29.330979 -23.38747,46.008027 -12.13611,18.63381 -22.90749,40.37033 -26.86402,54.21128 -4.17215,14.59516 -6.59445,34.65179 -6.70194,55.4924 -0.0497,9.66089 -0.47573,23.86452 -0.94636,31.56367 -0.94903,15.52518 -2.13111,17.95357 -10.91316,22.41853 -14.079236,7.1582 -55.521898,7.75177 -69.14406,0.99035 -6.879981,-3.4149 -9.889066,-8.53463 -12.721779,-21.6452 l -2.095244,-9.69742 -4.156705,8.32027 c -2.286161,4.57616 -5.267785,9.53027 -6.625787,11.00909 -3.449769,3.75663 -8.4032447,3.50275 -11.6567226,-0.5975 C 0.63547116,255.03435 0.3699862,253.59293 0.95750378,247.41126 2.6062388,230.0644 11.303558,206.46921 29.369091,170.33286 c 15.296325,-30.59707 24.08777,-43.899 33.715236,-51.0129 4.048894,-2.99183 15.159109,-9.15006 24.689333,-13.68494 40.10006,-19.081358 47.50442,-24.48744 62.78507,-45.840867 8.53924,-11.932912 17.28082,-29.57077 17.28082,-34.867416 0,-4.56383 3.49638,-8.75057 7.30766,-8.75057 1.3902,0 4.22499,1.853065 6.29951,4.117952 l 3.77189,4.117953 3.79366,-2.402011 c 5.42234,-3.433148 8.15664,-1.605421 10.53354,7.041133 9.3632,34.061024 16.44697,44.915194 54.3792,83.323516 15.75227,15.95001 28.19122,29.5603 29.63829,32.42937 4.37427,8.6727 6.30791,28.12898 8.69123,87.45276 l 1.40759,35.03611 -5.84939,5.98683 c -3.21716,3.29277 -7.46266,6.8438 -9.43442,7.8912 -4.99485,2.65322 -25.94644,3.13189 -37.96101,0.86727 z m 24.62913,-173.89558 c -16.00791,-3.16703 -26.98426,-16.631378 -25.05175,-30.730307 0.90535,-6.605463 3.53193,-11.724381 8.93869,-17.420745 6.40434,-6.747284 11.8723,-9.161264 20.73348,-9.153405 13.79433,0.01355 21.27647,3.876722 26.30713,13.587564 3.36477,6.495122 3.71674,23.250345 0.60987,29.032305 -2.46863,4.59409 -10.82883,11.630748 -16.76552,14.111258 -4.73063,1.97655 -7.19573,2.07225 -14.7719,0.57333 z M 76.72496,91.941632 C 64.846473,88.288842 57.497083,76.657912 57.472649,61.473374 c -0.01355,-7.899781 0.451658,-9.901035 3.583098,-15.44388 12.630182,-22.355748 49.998023,-17.334072 57.226463,7.690392 7.38109,25.553085 -15.20419,46.325584 -41.55725,38.221746 z"
       id="path2964" />
    <path
       style="fill:#000000;stroke-width:0.264583"
       id="path2926"
       d="" />
    <path
       style="fill:#000000;stroke-width:0.264583"
       id="path2906"
       d="" />
  </g>
</svg>
