<?xml version="1.0" encoding="UTF-8" standalone="no"?>
<!-- Created with Inkscape (http://www.inkscape.org/) -->

<svg
   width="124.98983mm"
   height="118.78998mm"
   viewBox="0 0 124.98983 118.78998"
   version="1.1"
   id="svg4963"
   inkscape:version="1.1 (c68e22c387, 2021-05-23)"
   sodipodi:docname="fs_white.svg"
   xmlns:inkscape="http://www.inkscape.org/namespaces/inkscape"
   xmlns:sodipodi="http://sodipodi.sourceforge.net/DTD/sodipodi-0.dtd"
   xmlns="http://www.w3.org/2000/svg"
   xmlns:svg="http://www.w3.org/2000/svg">
  <sodipodi:namedview
     id="namedview4965"
     pagecolor="#ffffff"
     bordercolor="#666666"
     borderopacity="1.0"
     inkscape:pageshadow="2"
     inkscape:pageopacity="0.0"
     inkscape:pagecheckerboard="0"
     inkscape:document-units="mm"
     showgrid="false"
     fit-margin-top="0"
     fit-margin-left="0"
     fit-margin-right="0"
     fit-margin-bottom="0"
     inkscape:zoom="0.67081229"
     inkscape:cx="186.34125"
     inkscape:cy="102.86037"
     inkscape:window-width="1920"
     inkscape:window-height="1106"
     inkscape:window-x="-11"
     inkscape:window-y="-11"
     inkscape:window-maximized="1"
     inkscape:current-layer="layer1" />
  <defs
     id="defs4960" />
  <g
     inkscape:label="Calque 1"
     inkscape:groupmode="layer"
     id="layer1"
     transform="translate(-55.753329,-120.97727)">
    <path
       style="fill:#ffffff;stroke-width:0.264583"
       d="M 85.386367,210.00962 55.753329,180.37564 85.452513,150.67646 115.15169,120.97727 v 14.94794 14.94793 l -14.74963,14.7514 -14.749633,14.75139 14.751863,14.75363 14.75187,14.75363 -0.0684,14.8802 -0.0684,14.8802 z m 33.998663,14.9439 v -14.81374 l 14.81667,-14.8149 14.81668,-14.8149 -14.81668,-14.81841 -14.81667,-14.81842 v -14.89 -14.89001 l 30.67907,29.63729 30.67906,29.63729 -4.02229,3.92686 c -2.21227,2.15977 -14.4998,14.02602 -27.30564,26.36944 -12.80583,12.34343 -24.80138,23.94123 -26.65677,25.77291 l -3.37343,3.33032 z M 104.43565,190.95885 93.854388,180.3751 104.50304,169.72645 115.15169,159.0778 v 21.2324 c 0,11.67782 -0.0303,21.2324 -0.0674,21.2324 -0.0371,0 -4.82895,-4.76269 -10.64865,-10.58375 z"
       id="path5072" />
  </g>
</svg>
