<?xml version="1.0" encoding="UTF-8" standalone="no"?>
<!-- Created with Inkscape (http://www.inkscape.org/) -->

<svg
   width="1000mm"
   height="1000mm"
   viewBox="0 0 1000 1000"
   version="1.1"
   id="svg930"
   inkscape:version="1.1 (c68e22c387, 2021-05-23)"
   sodipodi:docname="github.svg"
   xmlns:inkscape="http://www.inkscape.org/namespaces/inkscape"
   xmlns:sodipodi="http://sodipodi.sourceforge.net/DTD/sodipodi-0.dtd"
   xmlns="http://www.w3.org/2000/svg"
   xmlns:svg="http://www.w3.org/2000/svg">
  <sodipodi:namedview
     id="namedview932"
     pagecolor="#ffffff"
     bordercolor="#666666"
     borderopacity="1.0"
     inkscape:pageshadow="2"
     inkscape:pageopacity="0.0"
     inkscape:pagecheckerboard="0"
     inkscape:document-units="mm"
     showgrid="false"
     units="mm"
     width="1000mm"
     inkscape:zoom="0.083851536"
     inkscape:cx="172.92468"
     inkscape:cy="1687.5063"
     inkscape:window-width="1920"
     inkscape:window-height="1017"
     inkscape:window-x="1912"
     inkscape:window-y="-8"
     inkscape:window-maximized="1"
     inkscape:current-layer="layer1" />
  <defs
     id="defs927" />
  <g
     inkscape:label="Calque 1"
     inkscape:groupmode="layer"
     id="layer1">
    <path
       style="fill:#ffffff;stroke-width:0.471582"
       d="m 639.65418,973.37057 c -10.01153,-1.48481 -16.87935,-7.80817 -19.18218,-17.66144 -0.60884,-2.60538 -0.65972,-12.08006 -0.40144,-74.83168 0.21659,-52.59428 0.15062,-73.69756 -0.24578,-78.748 -1.53738,-19.59364 -5.23409,-34.84376 -11.93781,-49.24728 -4.35299,-9.35286 -8.82215,-15.98634 -15.62232,-23.18805 -2.52016,-2.66898 -3.69363,-4.22811 -3.28046,-4.35886 0.35357,-0.1119 4.32384,-0.66832 8.82239,-1.23653 41.10845,-5.19179 75.10721,-14.94936 103.75922,-29.77877 17.77681,-9.20083 31.30231,-18.95641 44.80816,-32.3192 36.49289,-36.10621 55.69658,-86.42485 59.45472,-155.78693 0.61395,-11.33074 0.34302,-35.47791 -0.48402,-43.10531 -4.3374,-40.01537 -19.02478,-74.85606 -44.08348,-104.57269 l -3.92181,-4.65071 1.58145,-4.62087 c 3.26455,-9.53882 5.91506,-21.8264 7.20932,-33.4217 0.90889,-8.14241 0.77552,-29.02647 -0.23975,-37.58964 -1.73955,-14.66895 -4.5924,-27.54853 -9.22197,-41.63418 -3.64346,-11.08548 -3.97252,-11.75514 -6.02723,-12.2678 -2.50475,-0.62495 -15.6334,-0.57079 -20.0975,0.0829 -29.46229,4.31443 -65.99641,20.74981 -104.59378,47.05301 l -4.80736,3.27607 -9.68287,-2.50959 c -25.1581,-6.52034 -51.28888,-10.73992 -79.55487,-12.84642 -13.47775,-1.00438 -45.14089,-1.14062 -57.95484,-0.24918 -30.66144,2.1328 -61.92668,7.21587 -86.43603,14.05269 l -5.8124,1.62135 -3.30163,-2.26267 c -18.16943,-12.4522 -43.4217,-26.65553 -60.78982,-34.1918 -16.44166,-7.13421 -31.44727,-11.66343 -45.27035,-13.66426 -4.92658,-0.71308 -16.91224,-0.89799 -20.16334,-0.31124 -2.30952,0.41702 -2.53925,0.8683 -6.30577,12.38904 -4.55653,13.93721 -7.40071,26.94535 -9.17048,41.94256 -0.99327,8.41687 -1.13762,28.5879 -0.26041,36.39543 1.40053,12.46577 4.09965,25.17584 7.2549,34.16326 l 1.63665,4.66181 -3.16693,3.66469 c -11.15338,12.90623 -22.10478,30.14944 -28.99617,45.65506 -6.91507,15.55876 -11.59672,31.41756 -14.24315,48.24784 -2.14023,13.61093 -2.36951,17.26219 -2.32603,37.04327 0.0403,19.49171 0.58542,29.05923 2.55002,44.96491 8.43265,68.2723 35.79424,117.73265 82.70622,149.50469 30.75124,20.82688 72.37318,34.78676 122.45458,41.07099 4.49857,0.56446 8.4656,1.1167 8.81561,1.22716 0.40143,0.12668 -0.97825,1.92173 -3.73906,4.8638 -4.86459,5.18417 -8.47013,10.1172 -12.00385,16.4237 -6.02808,10.75796 -10.92677,25.36444 -13.00974,38.79117 l -0.81999,5.28528 -3.99352,1.70663 c -16.70875,7.14073 -33.55144,10.79258 -50.03087,10.84759 -9.90884,0.0309 -16.09447,-0.68596 -24.53765,-2.85233 -22.50707,-5.77477 -42.31336,-20.94451 -56.93693,-43.60822 -1.89343,-2.93458 -4.66976,-7.24581 -6.16962,-9.58063 -4.44295,-6.91627 -9.74911,-13.41306 -16.76285,-20.52414 -12.69535,-12.87185 -24.66391,-20.35645 -38.61237,-24.14665 -5.18276,-1.4083 -5.73419,-1.46166 -15.42366,-1.49077 -8.22711,-0.0253 -10.64411,0.12568 -13.33286,0.82785 -6.00637,1.56893 -9.10157,4.26294 -9.10157,7.92162 0,5.5287 8.00909,14.08259 20.0975,21.46455 6.86788,4.19404 9.3289,6.20981 15.29347,12.52623 12.95347,13.71744 28.76639,39.26138 36.73802,59.34584 5.36016,13.5049 10.02726,21.08355 18.5347,30.09782 25.75767,27.29202 69.56966,36.66098 129.1642,27.62112 4.32812,-0.65653 8.84989,-1.3802 10.04834,-1.60819 1.19853,-0.22776 2.26198,-0.32996 2.36333,-0.22678 0.42057,0.42821 0.86119,91.96283 0.45532,94.55817 -1.23522,7.89384 -5.20764,13.661 -11.739,17.04285 -4.3398,2.24696 -8.14525,2.94019 -14.60575,2.66083 -4.98833,-0.21565 -6.203,-0.45267 -10.98348,-2.14266 C 305.1329,957.39173 268.8635,939.04773 234.71464,915.85505 172.57829,873.65424 121.61061,818.15373 84.39656,752.16842 51.221408,693.3446 30.4332,627.13725 23.8893,559.46178 22.081747,540.76857 21.782863,533.83103 21.778031,510.45243 21.773125,487.0412 22.061595,480.34438 23.8893,461.44309 38.344596,311.95019 120.8152,177.15686 247.03529,96.724166 c 44.98934,-28.669067 96.44135,-50.108712 148.37333,-61.82606 37.92206,-8.556307 72.88119,-12.15759 111.95946,-11.533456 18.10258,0.289367 25.04591,0.673679 40.8961,2.264971 127.48709,12.799175 244.65934,77.683489 325.59498,180.298779 57.55498,72.97174 93.51604,162.6176 102.49881,255.51469 1.80326,18.6488 2.10956,25.66482 2.11881,48.53355 0.01,23.02199 -0.32235,30.70131 -2.1362,49.48514 -7.44372,77.07765 -33.54938,152.28017 -75.5658,217.68215 -53.9481,83.97462 -132.9472,149.86135 -223.51267,186.41384 -16.33301,6.59203 -24.54621,9.37401 -29.12445,9.86517 -4.80818,0.51574 -4.64534,0.51673 -8.48328,-0.0529 z"
       id="path804" />
  </g>
</svg>
