<?xml version="1.0" encoding="UTF-8" standalone="no"?>
<!-- Created with Inkscape (http://www.inkscape.org/) -->

<svg
   width="188.71878mm"
   height="188.64787mm"
   viewBox="0 0 188.71878 188.64788"
   version="1.1"
   id="svg3784"
   inkscape:version="1.1 (c68e22c387, 2021-05-23)"
   sodipodi:docname="global.svg"
   xmlns:inkscape="http://www.inkscape.org/namespaces/inkscape"
   xmlns:sodipodi="http://sodipodi.sourceforge.net/DTD/sodipodi-0.dtd"
   xmlns="http://www.w3.org/2000/svg"
   xmlns:svg="http://www.w3.org/2000/svg">
  <sodipodi:namedview
     id="namedview3786"
     pagecolor="#ffffff"
     bordercolor="#666666"
     borderopacity="1.0"
     inkscape:pageshadow="2"
     inkscape:pageopacity="0.0"
     inkscape:pagecheckerboard="0"
     inkscape:document-units="mm"
     showgrid="false"
     inkscape:zoom="0.94867184"
     inkscape:cx="486.46959"
     inkscape:cy="518.09275"
     inkscape:window-width="1920"
     inkscape:window-height="1017"
     inkscape:window-x="1912"
     inkscape:window-y="-8"
     inkscape:window-maximized="1"
     inkscape:current-layer="g4173"
     fit-margin-top="0"
     fit-margin-left="0"
     fit-margin-right="0"
     fit-margin-bottom="0" />
  <defs
     id="defs3781" />
  <g
     inkscape:label="Calque 1"
     inkscape:groupmode="layer"
     id="layer1"
     transform="translate(31.417973,-104.86674)">
    <g
       id="g4173"
       transform="translate(-264.58334)">
      <path
         style="fill:#ffffff;stroke-width:0.841881"
         d="m 316.13735,293.05189 c -38.22946,-4.70767 -70.27816,-32.63548 -80.00341,-69.71629 -6.65125,-25.36036 -1.94036,-54.52042 12.27246,-75.96565 9.20061,-13.88245 26.42993,-28.51783 40.55951,-34.45316 36.85006,-15.47935 76.59252,-8.32554 104.40823,18.7939 24.42407,23.81273 33.97784,58.19798 25.45005,91.59799 -8.73191,34.19962 -38.21877,61.93094 -72.91263,68.57173 -8.17492,1.56474 -22.12374,2.11359 -29.77421,1.17148 z m 7.57694,-20.58225 V 258.5786 h -14.31201 c -7.87158,0 -14.31197,0.21796 -14.31197,0.48451 0,1.05006 7.2191,12.91607 11.59232,19.05417 4.25795,5.97631 4.8978,6.52468 8.09149,6.93426 3.30865,0.42434 6.95144,0.94805 8.30875,1.19452 0.34727,0.063 0.63142,-6.13632 0.63142,-13.77642 z m 17.5047,12.53691 c 1.97496,-0.39498 3.62042,-1.98501 7.18757,-6.94552 4.45007,-6.18826 11.50864,-17.80181 11.50864,-18.93527 0,-0.30101 -6.44039,-0.54716 -14.31197,-0.54716 h -14.31201 v 13.4701 13.4701 h 3.68323 c 2.0258,0 4.83581,-0.23037 6.24454,-0.51225 z m -46.17915,-10.43208 c -2.29744,-3.70422 -5.19909,-8.81865 -6.44812,-11.36542 l -2.271,-4.63045 h -10.93424 -10.93424 l 2.90127,3.03061 c 5.21147,5.44375 12.80864,10.77926 21.75759,15.28033 4.83317,2.43092 9.08418,4.41987 9.44673,4.41987 0.36255,0 -1.22055,-3.03074 -3.51799,-6.73494 z m 70.85457,2.31507 c 8.94895,-4.50107 16.54612,-9.83658 21.75759,-15.28033 l 2.90127,-3.03061 h -11.00749 -11.00746 l -1.01325,2.44619 c -0.55731,1.34538 -3.40083,6.45983 -6.31896,11.36539 -2.91811,4.90556 -5.03424,8.91923 -4.70246,8.91923 0.33174,0 4.55762,-1.98895 9.39076,-4.41987 z m -85.72147,-34.3828 c -2.85946,-8.75256 -5.60568,-22.678 -6.58463,-33.38871 l -0.55785,-6.10365 h -16.03508 -16.03511 l 0.52146,6.52459 c 0.9266,11.59414 6.18332,26.28756 13.28641,37.13761 l 2.83143,4.32508 h 12.6743 12.67434 z M 323.71429,227.008 V 203.01438 H 302.2045 280.69468 l 0.50942,5.26175 c 1.35063,13.9512 3.18991,22.73247 7.31784,34.93811 l 2.63367,7.78742 h 16.27935 16.27933 z m 42.76928,16.20624 c 4.12793,-12.20564 5.96721,-20.98691 7.31783,-34.93811 l 0.50943,-5.26175 h -21.50982 -21.50979 v 23.99362 23.99366 h 16.27932 16.27936 z m 33.7538,3.46234 c 6.53158,-9.97706 11.97425,-24.49631 13.11535,-34.98728 0.29242,-2.68754 0.7082,-5.73887 0.92419,-6.78069 l 0.39271,-1.89423 h -16.37217 -16.37214 l -0.50856,4.84081 c -1.26325,12.02453 -3.97049,25.97408 -6.63646,34.19564 l -2.90248,8.95083 h 12.76407 12.76406 z M 273.20136,194.14145 c 0,-8.49263 3.81401,-29.28849 7.19431,-39.22702 1.13652,-3.34149 2.0664,-6.38792 2.0664,-6.76984 0,-0.38193 -5.59406,-0.69442 -12.43127,-0.69442 h -12.43123 l -2.83143,4.32505 c -7.12944,10.89036 -12.34838,25.61745 -13.30986,37.55858 l -0.49148,6.10364 h 16.1173 c 13.94859,0 16.11726,-0.17437 16.11726,-1.29599 z m 50.51293,-22.69766 v -23.99362 h -16.27933 -16.27935 l -2.63367,7.78742 c -4.12793,12.20561 -5.96721,20.9869 -7.31784,34.93808 l -0.50942,5.26177 h 21.50982 21.50979 z m 50.08711,18.73188 c -1.35062,-13.95118 -3.1899,-22.73247 -7.31783,-34.93808 l -2.63367,-7.78742 h -16.27936 -16.27932 v 23.99362 23.99365 h 21.50979 21.50982 z m 39.72238,-1.26281 c -0.9266,-11.59414 -6.18332,-26.28756 -13.28641,-37.13764 l -2.83143,-4.32505 h -12.8818 c -12.17735,0 -12.83715,0.0834 -12.06506,1.52611 3.08891,5.77171 7.65872,26.57196 8.95897,40.77845 l 0.52012,5.68271 h 16.05353 16.05353 z M 288.67127,135.03242 c 1.29281,-2.66247 4.06448,-7.60981 6.15926,-10.99406 2.09482,-3.38429 3.66748,-6.29453 3.49483,-6.46718 -0.17278,-0.17278 -3.43166,1.15156 -7.24226,2.94273 -8.35788,3.92855 -17.79694,10.33139 -22.89784,15.53239 l -3.75329,3.82693 h 10.94436 10.94439 z m 35.04302,-8.62929 v -13.47014 h -3.68323 c -7.45371,0 -8.47816,0.5688 -13.43211,7.45781 -4.45007,6.18825 -11.50864,17.8018 -11.50864,18.93527 0,0.301 6.44039,0.54716 14.31197,0.54716 h 14.31201 z m 36.20091,13.12454 c 0,-1.0275 -7.57153,-13.58538 -11.53817,-19.13687 -4.92439,-6.89187 -5.94143,-7.45781 -13.40258,-7.45781 h -3.68323 v 13.47014 13.4701 h 14.31201 c 7.87158,0 14.31197,-0.1556 14.31197,-0.34556 z m 26.90505,-3.48137 c -5.13552,-5.23632 -14.59294,-11.63715 -23.04914,-15.59988 -3.87783,-1.81719 -7.2603,-3.30401 -7.51661,-3.30401 -0.25614,0 1.41373,3.03071 3.71117,6.73494 2.29744,3.70423 5.19909,8.81865 6.44812,11.36543 l 2.271,4.63045 h 10.94439 10.94436 z"
         id="path6789" />
    </g>
  </g>
</svg>
