<?xml version="1.0" encoding="UTF-8" standalone="no"?>
<!-- Created with Inkscape (http://www.inkscape.org/) -->

<svg
   width="300mm"
   height="300mm"
   viewBox="0 0 300 300"
   version="1.1"
   id="svg5"
   inkscape:version="1.1 (c68e22c387, 2021-05-23)"
   sodipodi:docname="go_white.svg"
   xmlns:inkscape="http://www.inkscape.org/namespaces/inkscape"
   xmlns:sodipodi="http://sodipodi.sourceforge.net/DTD/sodipodi-0.dtd"
   xmlns="http://www.w3.org/2000/svg"
   xmlns:svg="http://www.w3.org/2000/svg">
  <sodipodi:namedview
     id="namedview7"
     pagecolor="#ffffff"
     bordercolor="#666666"
     borderopacity="1.0"
     inkscape:pageshadow="2"
     inkscape:pageopacity="0.0"
     inkscape:pagecheckerboard="0"
     inkscape:document-units="mm"
     showgrid="false"
     width="300mm"
     inkscape:zoom="0.45254834"
     inkscape:cx="659.59805"
     inkscape:cy="710.42135"
     inkscape:window-width="1920"
     inkscape:window-height="1017"
     inkscape:window-x="1912"
     inkscape:window-y="-8"
     inkscape:window-maximized="1"
     inkscape:current-layer="layer1" />
  <defs
     id="defs2" />
  <g
     inkscape:label="Calque 1"
     inkscape:groupmode="layer"
     id="layer1">
    <g
       id="g1204"
       transform="translate(-134.42917,1.6733921)" />
    <path
       style="fill:#ffffff;stroke-width:0.129626"
       d="m 233.54984,205.45396 c -5.66354,-0.45048 -8.93915,-0.98198 -13.09223,-2.12431 -12.45608,-3.42617 -23.35548,-11.53145 -29.71275,-22.09574 -1.69474,-2.81627 -3.035,-5.75644 -4.12706,-9.05368 l -0.68023,-2.05387 -0.31911,0.56317 c -0.1755,0.30974 -0.59872,1.08816 -0.94046,1.7298 -3.72646,6.99666 -10.51819,14.93562 -17.31346,20.23798 -8.47889,6.61609 -18.55854,10.70647 -29.82274,12.10226 -11.03416,1.36729 -21.32651,-0.23993 -30.33974,-4.73772 -5.04768,-2.5189 -9.469214,-5.6984 -13.423677,-9.65287 -3.656712,-3.65675 -6.076026,-6.99846 -8.396636,-11.59796 -3.635873,-7.20643 -5.26261,-14.95616 -5.074599,-24.17527 0.170757,-8.37309 1.949629,-15.64548 5.680204,-23.2218 1.432291,-2.90879 2.376552,-4.55335 4.19444,-7.30514 4.473006,-6.77089 10.071918,-12.76902 16.204888,-17.36034 9.39534,-7.033601 20.07966,-11.156251 32.66577,-12.604391 2.46528,-0.28365 9.09236,-0.32208 11.40709,-0.0662 9.12878,1.00933 16.90512,4.09263 24.23433,9.608851 5.98604,4.50532 10.42871,10.07925 14.00196,17.56742 0.53658,1.12445 0.9756,2.20125 0.9756,2.39288 0,0.39008 -0.5132,0.95313 -1.05537,1.15789 -0.18832,0.0711 -1.73411,0.48808 -3.43509,0.92655 -1.70097,0.43848 -5.51343,1.43761 -8.47215,2.2203 -10.77506,2.85035 -14.75477,3.86975 -15.10746,3.86975 -0.60318,0 -1.36935,-0.56716 -2.45539,-1.8176 -2.47225,-2.84646 -4.34245,-4.31996 -7.24579,-5.70878 -6.09079,-2.91356 -12.45386,-3.33025 -18.70525,-1.22494 -3.1063,1.04612 -7.5347,3.53772 -10.4066,5.85517 -5.68762,4.5896 -9.54311,10.75279 -10.93431,17.47909 -0.59386,2.87135 -0.67139,3.72288 -0.66673,7.32387 0.004,3.25017 0.0237,3.5258 0.3629,5.12022 1.07548,5.0558 3.19328,8.93715 6.71927,12.31449 3.65894,3.50467 7.96905,5.48875 13.26468,6.10612 2.14084,0.24958 5.50867,0.1864 7.4535,-0.13983 4.62433,-0.77569 8.63477,-2.59738 12.43252,-5.64727 1.52828,-1.22735 3.97956,-3.7242 5.02182,-5.11519 1.04852,-1.39935 2.89695,-4.03741 2.89695,-4.1345 0,-0.043 -6.4934,-0.0783 -14.42978,-0.0783 -16.15967,0 -15.35111,0.0448 -16.20292,-0.89804 -0.55948,-0.61927 -0.70958,-1.37172 -0.47283,-2.37043 0.30408,-1.28284 3.38411,-8.17025 6.22288,-13.9154 1.81197,-3.66706 2.29231,-4.36444 3.41355,-4.95591 l 0.66411,-0.35033 23.98826,-0.0341 23.98825,-0.0341 0.29852,-0.93811 c 0.16418,-0.51596 0.64854,-1.81308 1.07635,-2.8825 4.44869,-11.12068 13.25321,-22.25312 22.94562,-29.01241 5.7647,-4.02019 12.69218,-7.121941 20.12638,-9.011511 11.11368,-2.82478 21.45411,-3.31336 30.35312,-1.43416 8.01892,1.69335 15.30408,5.274881 21.951,10.791541 1.66308,1.3803 4.66955,4.37144 6.07777,6.04679 5.24394,6.23868 8.44749,13.33693 9.85763,21.84199 0.73251,4.41796 0.94802,11.63123 0.47637,15.94401 -1.01825,9.31111 -3.85127,17.19044 -8.92288,24.81677 -3.71291,5.58321 -9.09534,11.36445 -14.52929,15.6058 -7.68879,6.00134 -16.66,10.20223 -26.75034,12.52619 -2.37772,0.54763 -4.52271,0.84718 -9.30095,1.29889 -3.76632,0.35606 -5.16622,0.42054 -6.61991,0.3049 z m 9.98121,-28.03983 c 4.41241,-0.73346 8.34096,-2.37172 12.77139,-5.32579 7.70454,-5.13713 12.41492,-12.31185 13.91267,-21.1914 0.43914,-2.60348 0.52705,-4.17898 0.35418,-6.3472 -1.21204,-15.20168 -14.35212,-25.1596 -29.24812,-22.16506 -3.3768,0.67885 -6.22882,1.64877 -9.32684,3.17192 -3.30098,1.62293 -5.82327,3.43561 -8.3216,5.98041 -1.63209,1.66244 -2.38212,2.59307 -3.69686,4.58702 -1.93667,2.93718 -3.58906,6.72099 -4.56853,10.46146 -0.61249,2.33901 -0.84375,3.84052 -0.93428,6.06587 -0.3376,8.29935 3.62206,16.16958 10.44345,20.75744 3.40307,2.28879 7.67652,3.79286 12.10749,4.26131 1.55874,0.16479 4.72524,0.0403 6.50705,-0.25598 z M 47.730907,154.46754 c -6.238255,-0.0364 -11.415195,-0.11343 -11.504313,-0.1711 -0.08912,-0.0577 -0.162032,-0.1898 -0.162032,-0.29362 0,-0.21707 2.11483,-4.015 2.440704,-4.38316 0.543098,-0.61356 0.126959,-0.59783 15.818045,-0.59783 17.021272,0 15.378904,-0.13817 15.339529,1.2905 -0.03073,1.1149 -0.254435,3.40643 -0.359204,3.67944 -0.219249,0.57136 -0.550919,0.60576 -5.525069,0.57299 -2.58796,-0.0171 -9.809407,-0.0608 -16.04766,-0.0972 z M 0.90349529,140.91575 c -0.0534708,-0.057 -0.0972198,-0.17207 -0.0972198,-0.25579 0,-0.22493 3.24443901,-4.33739 3.67143601,-4.6537 l 0.3659709,-0.2711 33.7763306,-0.0331 c 24.927185,-0.0244 33.82249,0.005 33.952524,0.1131 0.287006,0.23818 0.208051,0.74419 -0.392884,2.51795 -0.748766,2.21013 -0.701484,2.1135 -1.146882,2.34382 -0.346764,0.17932 -4.112126,0.20837 -35.210172,0.27162 -19.152037,0.039 -34.86563314,0.0242 -34.91910392,-0.0327 z M 35.610871,127.6332 c -6.986844,-0.0372 -12.717937,-0.0816 -12.73576,-0.0985 -0.266025,-0.25293 2.996889,-4.63367 3.763398,-5.05269 0.393513,-0.21512 1.900224,-0.22987 26.704929,-0.26162 18.090014,-0.0232 26.366801,0.008 26.540934,0.10179 0.139176,0.0745 0.252207,0.26462 0.251182,0.42251 -0.0028,0.42791 -2.69791,4.3774 -3.225549,4.7268 l -0.440454,0.29166 -14.077664,-0.0311 c -7.742715,-0.0171 -19.794172,-0.0616 -26.781016,-0.0988 z"
       id="path6587" />
  </g>
</svg>
