<?xml version="1.0" encoding="UTF-8" standalone="no"?>
<!-- Created with Inkscape (http://www.inkscape.org/) -->

<svg
   width="121.56895mm"
   height="121.25161mm"
   viewBox="0 0 121.56895 121.25161"
   version="1.1"
   id="svg5"
   inkscape:version="1.1 (c68e22c387, 2021-05-23)"
   sodipodi:docname="golfscript.svg"
   xmlns:inkscape="http://www.inkscape.org/namespaces/inkscape"
   xmlns:sodipodi="http://sodipodi.sourceforge.net/DTD/sodipodi-0.dtd"
   xmlns="http://www.w3.org/2000/svg"
   xmlns:svg="http://www.w3.org/2000/svg">
  <sodipodi:namedview
     id="namedview7"
     pagecolor="#ffffff"
     bordercolor="#666666"
     borderopacity="1.0"
     inkscape:pageshadow="2"
     inkscape:pageopacity="0.0"
     inkscape:pagecheckerboard="0"
     inkscape:document-units="mm"
     showgrid="false"
     fit-margin-top="0"
     fit-margin-left="0"
     fit-margin-right="0"
     fit-margin-bottom="0"
     inkscape:zoom="1.3416246"
     inkscape:cx="85.344292"
     inkscape:cy="7.0809675"
     inkscape:window-width="1920"
     inkscape:window-height="1017"
     inkscape:window-x="1912"
     inkscape:window-y="-8"
     inkscape:window-maximized="1"
     inkscape:current-layer="layer1" />
  <defs
     id="defs2" />
  <g
     inkscape:label="Calque 1"
     inkscape:groupmode="layer"
     id="layer1"
     transform="translate(-36.688871,-141.88007)">
    <path
       style="fill:#ff6600;stroke:#000000;stroke-width:0.264583px;stroke-linecap:butt;stroke-linejoin:miter;stroke-opacity:1"
       d="m 76.717782,184.45611 -0.747234,-0.27048 2.98282,-8.13496 3.673057,-3.27863 6.266873,-0.0769 2.719263,8.85503 -10.144939,0.10459 -1.115595,-0.8367 -3.834857,5.15963 z"
       id="path2594" />
    <path
       style="fill:#ff6600;stroke:#000000;stroke-width:0.264583px;stroke-linecap:butt;stroke-linejoin:miter;stroke-opacity:1"
       d="m 80.629662,258.48494 7.000997,-0.54234 1.380477,3.64841 2.021416,-3.5498 6.409362,1.47908 -6.199825,-4.44957 0.332793,-7.72821 -3.747013,-1.87351 -0.73954,1.7749 0.131578,8.0924 z"
       id="path2695" />
    <path
       style="fill:#ff6600;stroke:#000000;stroke-width:0.264583px;stroke-linecap:butt;stroke-linejoin:miter;stroke-opacity:1"
       d="m 101.04102,258.78075 c 0.29581,-0.0493 5.68214,-3.51282 5.68214,-3.51282 l -0.11093,-8.17194 3.84562,-1.92281 0.41907,10.30428 6.63836,3.53682 -7.49541,-0.83669 -0.90642,2.87614 -2.10917,-2.82385 z"
       id="path2730" />
    <g
       id="g2238"
       transform="translate(33.802391,15.483979)">
      <path
         style="fill:#fdfdfd;stroke-width:0.264583"
         d="m 62.098322,232.32193 c -3.458856,-0.4174 -7.479353,-2.28493 -10.576925,-4.913 -2.828608,-2.39987 -5.350455,-6.61873 -6.462827,-10.81184 -0.794522,-2.99496 -0.799616,-8.14181 -0.01101,-11.1125 0.734835,-2.76808 2.584222,-6.46567 4.264456,-8.52617 2.596002,-3.18353 6.618917,-5.78717 10.590186,-6.85401 2.121197,-0.56983 7.163427,-0.63649 9.260417,-0.12241 7.568872,1.85551 13.47841,7.90284 15.349506,15.70741 0.711356,2.96715 0.714518,7.72257 0.0071,10.67316 -2.523966,10.52722 -11.933449,17.22496 -22.420916,15.95936 z M 44.435318,199.13459 c -0.35396,-0.80036 -0.752922,-1.45521 -0.886587,-1.45521 -0.147585,0 -0.147418,-0.526 5.29e-4,-1.33943 0.133898,-0.73669 0.206941,-1.77849 0.162316,-2.31511 l -0.08123,-0.97566 -3.955476,-0.0735 -3.955479,-0.0735 -1.997646,1.9522 c -2.239674,2.18872 -3.085126,2.80699 -4.698849,3.43622 l -1.113702,0.43426 -0.181612,-0.96807 c -0.264072,-1.40763 0.318064,-6.13486 0.931792,-7.56663 0.289965,-0.67645 0.95594,-1.90014 1.47995,-2.71929 0.990999,-1.54919 1.095465,-2.37892 0.357714,-2.84119 -0.339109,-0.21249 -0.668153,-0.0705 -1.513579,0.65316 -0.939217,0.80393 -1.42491,0.98499 -3.719694,1.38663 -2.468579,0.43207 -2.910074,0.614 -6.820796,2.81082 -2.299756,1.29186 -4.524854,2.43194 -4.944664,2.53351 l -0.76329,0.18466 0.191628,-1.29441 c 0.64322,-4.34481 3.854138,-9.08069 9.144521,-13.48753 1.443747,-1.20262 1.847723,-1.69398 1.847723,-2.24738 0,-1.06265 -0.582474,-1.3984 -2.081104,-1.1996 -1.353165,0.1795 -5.201759,1.40294 -6.528264,2.07528 -0.977625,0.49552 -6.4554283,2.05545 -7.2178302,2.05545 -0.5001564,0 -0.5338535,-0.079 -0.2982169,-0.69873 0.4491456,-1.18134 3.1023291,-5.08223 4.4009161,-6.47052 1.312364,-1.40303 4.010667,-3.20691 6.498978,-4.34472 2.330906,-1.06583 2.043554,-1.66652 -1.124479,-2.35063 -1.091406,-0.23568 -4.062128,-0.66736 -6.601605,-0.95928 -2.953354,-0.3395 -4.8447073,-0.67982 -5.2484771,-0.94438 -0.347186,-0.22748 -0.5715783,-0.47328 -0.4986496,-0.5462 0.072929,-0.0729 2.6133375,-0.71864 5.6453527,-1.4349 5.681928,-1.34227 9.400429,-2.47703 11.452324,-3.49488 2.318156,-1.14992 1.778184,-1.59522 -3.314774,-2.73357 -4.420695,-0.98809 -8.821283,-2.34878 -11.1510719,-3.44799 -2.6265955,-1.23924 -3.2545975,-2.90059 -3.4348266,-9.0867 -0.1511296,-5.18731 0.1639765,-7.08432 1.7231375,-10.37368 l 1.0399731,-2.19403 1.2796325,2.77813 c 4.2864254,9.30597 7.7736044,14.38249 11.0115194,16.0302 1.263956,0.6432 3.89215,1.4212 6.630278,1.9627 l 1.521354,0.30086 0.0052,2.03177 c 0.0072,2.81861 0.639639,7.29485 1.313271,9.2945 2.117252,6.28497 8.03772,13.89564 14.453101,18.57924 3.477075,2.53846 8.433104,4.51677 14.523255,5.79726 4.807955,1.01091 13.320665,0.55507 18.123958,-0.9705 6.804777,-2.16126 13.850846,-8.04375 18.883885,-15.76541 3.176053,-4.87269 4.193696,-7.95486 4.676965,-14.16531 0.167471,-2.15216 0.426911,-3.989 0.576541,-4.08187 0.14962,-0.0929 0.88187,-0.2487 1.62722,-0.34631 1.99503,-0.26127 5.86061,-1.62253 7.17445,-2.52647 2.5482,-1.75321 5.08657,-5.54746 8.75143,-13.08131 l 2.43734,-5.01043 0.79217,1.57085 c 1.86099,3.69027 2.55742,8.52508 1.94384,13.49464 -0.39012,3.15973 -0.93643,4.68679 -2.01571,5.63441 -1.62732,1.4288 -8.42003,3.65852 -14.68563,4.82059 -1.91024,0.35429 -2.38125,0.61288 -2.38125,1.30735 0,0.96961 7.4408,3.4114 15.74271,5.16617 2.52134,0.53293 2.81099,0.73346 2.09445,1.45 -0.3937,0.3937 -1.14281,0.60397 -2.90013,0.81402 -1.30312,0.15577 -3.91713,0.52453 -5.8089,0.81948 -1.89177,0.29495 -3.91584,0.55239 -4.49792,0.5721 -0.8765,0.0297 -1.0726,0.13615 -1.14138,0.6197 -0.0702,0.49365 0.25683,0.75467 2.11667,1.68933 4.53955,2.28135 6.06098,3.67186 8.81208,8.05387 1.51147,2.40748 1.83216,3.44065 0.9944,3.20366 -0.25466,-0.072 -1.11786,-0.21392 -1.91823,-0.31529 -1.84831,-0.23409 -2.3808,-0.43776 -4.54029,-1.73655 -1.47545,-0.88738 -2.18576,-1.12359 -4.36562,-1.45172 -1.43191,-0.21555 -3.13817,-0.35718 -3.79171,-0.31474 -1.86106,0.12085 -1.73758,0.73069 0.56831,2.80672 5.96277,5.36839 8.73408,9.45056 9.14971,13.47761 l 0.15127,1.46559 -0.70278,-0.17638 c -0.38652,-0.097 -2.50175,-1.18741 -4.70049,-2.42311 -3.76283,-2.11471 -4.1537,-2.27262 -6.65238,-2.68759 -2.40105,-0.39877 -2.766292,-0.53751 -3.823303,-1.45234 -1.349401,-1.1679 -1.830959,-1.25421 -2.221037,-0.39808 -0.237699,0.52169 -0.115353,0.87514 0.818484,2.36451 1.816092,2.89649 2.171835,4.11675 2.322182,7.96548 l 0.132924,3.40275 -0.631489,-0.19555 c -2.195788,-0.67997 -4.692002,-2.58876 -6.75426,-5.16481 l -1.285563,-1.60585 -3.704167,0.17482 c -2.037291,0.0961 -4.001823,0.31202 -4.365625,0.47971 -0.810318,0.37351 -0.960683,1.19402 -0.41293,2.25326 0.496898,0.9609 0.537224,1.88381 0.0822,1.88132 -0.181901,-0.001 -0.615315,-0.41968 -0.963139,-0.93041 -0.986126,-1.44797 -3.742309,-3.89821 -5.884825,-5.23158 -1.072187,-0.66727 -3.080525,-1.59745 -4.462973,-2.06707 -4.748943,-1.61323 -10.568612,-1.31508 -15.136617,0.77547 -3.941114,1.80365 -7.680296,5.18943 -9.87434,8.94107 -0.543375,0.92913 -1.033296,1.68933 -1.08871,1.68933 -0.05542,0 -0.390359,-0.65484 -0.744318,-1.45521 z m 16.789818,-14.30253 c -0.363802,-0.0628 -1.494896,-0.24984 -2.513542,-0.41564 -1.533705,-0.24963 -7.467772,-1.94546 -7.757557,-2.21695 -0.04655,-0.0436 0.760733,-1.19215 1.793971,-2.5523 2.063268,-2.71608 3.601749,-5.68211 5.277011,-10.17355 l 1.095867,-2.93806 -0.799573,-1.7821 c -1.541233,-3.43512 -1.977893,-5.30929 -1.984709,-8.51846 -0.0055,-2.5799 0.05966,-3.02051 0.522283,-3.53282 1.347094,-1.49177 3.689249,-1.92483 8.63587,-1.59678 2.927152,0.19412 3.57291,0.32102 4.551286,0.89439 3.026209,1.77347 4.964396,4.34515 5.828123,7.73304 0.9252,3.62901 2.205297,14.57577 2.348124,20.08003 l 0.06847,2.63869 -1.719792,0.62423 c -2.85491,1.03624 -6.442663,1.62253 -10.715625,1.75108 -2.182813,0.0657 -4.266407,0.068 -4.630209,0.005 z m -1.578287,-3.25099 c 1.373793,-1.38103 1.816925,-2.48883 2.397845,-5.99439 0.456096,-2.75232 0.446362,-2.89969 -0.197554,-2.99147 -0.496684,-0.0708 -0.660466,0.19699 -1.294609,2.11667 -0.399296,1.20874 -1.259472,3.35339 -1.911504,4.76588 -1.652426,3.57964 -1.266192,4.3873 1.005822,2.10331 z m 6.869954,-3.84942 c 0,-4.44628 -0.05615,-5.15261 -0.420751,-5.29253 -0.231415,-0.0888 -0.529071,-0.0945 -0.661458,-0.0127 -0.13239,0.0818 -0.240708,2.46347 -0.240708,5.29254 v 5.14376 h 0.661459 0.661458 z m 6.742311,4.60929 c 0.08743,-0.14146 -0.308515,-1.24279 -0.879867,-2.4474 -1.135189,-2.39336 -1.629111,-4.29614 -1.629111,-6.27595 0,-1.88491 -0.869029,-2.07523 -1.569434,-0.3437 -0.478718,1.18348 -0.26249,4.91177 0.360365,6.21353 0.93898,1.96244 3.197487,3.6958 3.718047,2.85352 z m -3.395776,-14.60797 c 1.162439,-0.55507 1.291442,-0.70687 1.365916,-1.60727 0.10889,-1.31643 -0.440065,-1.51317 -1.64906,-0.59103 -0.699405,0.53347 -1.443683,0.77914 -2.989509,0.98679 -1.132041,0.15208 -2.165252,0.37261 -2.296025,0.49008 -0.137014,0.12308 -0.04037,0.51485 0.228052,0.92453 0.448927,0.68514 0.530956,0.70547 2.261389,0.5604 1.052788,-0.0883 2.326584,-0.4041 3.079237,-0.7635 z m -5.604569,-8.00045 c 2.78769,-1.16477 2.04052,-5.93901 -0.933611,-5.96555 -2.823721,-0.0252 -3.601186,4.80491 -0.958421,5.95432 1.044273,0.45419 0.834861,0.45295 1.892032,0.0112 z"
         id="path2248" />
      <path
         style="fill:#a5a8a5;stroke-width:0.264583"
         d="m 62.614199,232.422 c 0.254661,-0.0666 0.67138,-0.0666 0.926041,0 0.254662,0.0666 0.0463,0.121 -0.46302,0.121 -0.509323,0 -0.717683,-0.0545 -0.463021,-0.121 z m 3.444618,-0.001 c 0.257432,-0.0671 0.614619,-0.0627 0.79375,0.01 0.179131,0.0725 -0.03149,0.12736 -0.468056,0.12197 -0.436562,-0.005 -0.583126,-0.0647 -0.325694,-0.13178 z m -14.127848,-4.51291 c -0.329107,-0.41965 -0.319749,-0.429 0.0999,-0.0999 0.44073,0.34565 0.580888,0.56292 0.363125,0.56292 -0.05494,0 -0.2633,-0.20836 -0.463021,-0.46302 z m 25.433751,0.0985 c 0,-0.0549 0.208359,-0.2633 0.463021,-0.46302 0.419645,-0.32911 0.429003,-0.31975 0.0999,0.0999 -0.345644,0.44073 -0.562917,0.58088 -0.562917,0.36312 z m 2.116667,-2.11667 c 0,-0.0549 0.208359,-0.2633 0.46302,-0.46302 0.419646,-0.3291 0.429004,-0.31975 0.0999,0.0999 -0.345644,0.44073 -0.562917,0.58089 -0.562917,0.36312 z M 44.577275,215.25213 c 0.0127,-0.30823 0.07539,-0.37092 0.15985,-0.15986 0.07643,0.191 0.06703,0.41921 -0.02087,0.50712 -0.08792,0.0879 -0.150453,-0.0684 -0.138965,-0.34726 z m -0.224089,-1.96233 c 0,-0.50932 0.05445,-0.71768 0.121002,-0.46302 0.06655,0.25466 0.06655,0.67138 0,0.92604 -0.06655,0.25466 -0.121002,0.0463 -0.121002,-0.46302 z m 40.781085,-2.24896 c 7.93e-4,-1.45521 0.04512,-2.01676 0.09873,-1.2479 0.05362,0.76886 0.05305,1.95949 -0.0013,2.64583 -0.05423,0.68635 -0.0981,0.0573 -0.09741,-1.39793 z m -40.800694,-2.24896 c 0,-0.3638 0.06006,-0.51263 0.133454,-0.33072 0.0734,0.1819 0.0734,0.47955 0,0.66145 -0.0734,0.1819 -0.133454,0.0331 -0.133454,-0.33073 z m 40.460365,-1.74183 c 0.0127,-0.30823 0.07539,-0.37092 0.159851,-0.15986 0.07643,0.191 0.06703,0.4192 -0.02088,0.50712 -0.08792,0.0879 -0.150452,-0.0684 -0.138964,-0.34726 z m -40.216667,-0.26459 c 0.0127,-0.30822 0.07539,-0.37092 0.15985,-0.15985 0.07643,0.19099 0.06703,0.4192 -0.02087,0.50712 -0.08792,0.0879 -0.150453,-0.0684 -0.138965,-0.34727 z m 0.40324,-6.15156 c -0.07495,-0.12127 0.03185,-0.22049 0.237329,-0.22049 0.205478,0 0.312277,0.0992 0.237329,0.22049 -0.07495,0.12127 -0.181745,0.22048 -0.237329,0.22048 -0.05558,0 -0.162383,-0.0992 -0.237329,-0.22048 z m 54.670589,-3.2191 c 0,-0.50932 0.05445,-0.71768 0.121002,-0.46302 0.06655,0.25466 0.06655,0.67138 0,0.92604 -0.06655,0.25466 -0.121002,0.0463 -0.121002,-0.46302 z m -4.328467,0.0661 c -0.329108,-0.41965 -0.319749,-0.42901 0.0999,-0.0999 0.44073,0.34564 0.580887,0.56292 0.363125,0.56292 -0.05494,0 -0.263301,-0.20836 -0.463021,-0.46302 z m -15.345834,-0.7937 c -0.329107,-0.41965 -0.319749,-0.42901 0.0999,-0.0999 0.44073,0.34564 0.580888,0.56292 0.363125,0.56292 -0.05494,0 -0.2633,-0.20836 -0.463021,-0.46302 z m 2.965056,0.0441 c 0.0127,-0.30823 0.07539,-0.37092 0.159851,-0.15986 0.07643,0.191 0.06703,0.4192 -0.02088,0.50712 -0.08792,0.0879 -0.150453,-0.0684 -0.138965,-0.34726 z m -49.497974,-1.56546 c 0.493655,-0.50932 0.957086,-0.92604 1.029846,-0.92604 0.07276,0 -0.271608,0.41672 -0.765262,0.92604 -0.493655,0.50933 -0.957085,0.92604 -1.029846,0.92604 -0.07276,0 0.271608,-0.41671 0.765262,-0.92604 z m 47.202989,0.33073 -0.504029,-0.59531 0.595312,0.50403 c 0.559446,0.47366 0.715762,0.68659 0.504029,0.68659 -0.05021,0 -0.318098,-0.26789 -0.595312,-0.59531 z m -37.107047,-0.19844 c 0,-0.3638 0.06006,-0.51263 0.133454,-0.33072 0.0734,0.1819 0.0734,0.47955 0,0.66145 -0.0734,0.1819 -0.133454,0.0331 -0.133454,-0.33073 z M 27.664828,194.2398 c 0,-0.3638 0.06005,-0.51263 0.133452,-0.33073 0.0734,0.1819 0.0734,0.47956 0,0.66146 -0.0734,0.1819 -0.133452,0.0331 -0.133452,-0.33073 z m 49.666142,-0.19844 c -0.329108,-0.41964 -0.319749,-0.429 0.0999,-0.0999 0.440729,0.34564 0.580887,0.56291 0.363124,0.56291 -0.05494,0 -0.2633,-0.20835 -0.46302,-0.46302 z m -27.218334,-0.16604 c 0,-0.0549 0.208359,-0.2633 0.463021,-0.46302 0.419645,-0.32911 0.429003,-0.31975 0.0999,0.0999 -0.345644,0.44073 -0.562917,0.58088 -0.562917,0.36312 z m 32.014584,0 c 0,-0.0549 0.208359,-0.2633 0.463021,-0.46302 0.419645,-0.32911 0.429003,-0.31975 0.0999,0.0999 -0.345644,0.44073 -0.562917,0.58088 -0.562917,0.36312 z m -3.737917,-0.62771 c -0.329107,-0.41964 -0.319749,-0.429 0.0999,-0.0999 0.254662,0.19972 0.463021,0.40808 0.463021,0.46302 0,0.21776 -0.217273,0.0776 -0.562917,-0.36313 z m -40.637956,-0.26095 c 0.695616,-0.0547 1.767179,-0.054 2.38125,0.002 0.614074,0.0555 0.04493,0.10023 -1.264753,0.0994 -1.309688,-7.9e-4 -1.81211,-0.0462 -1.116497,-0.10088 z m 45.913764,0.0141 c 0.190994,-0.0764 0.4192,-0.067 0.507119,0.0209 0.08792,0.0879 -0.06835,0.15046 -0.347266,0.13897 -0.308226,-0.0127 -0.370919,-0.0754 -0.159853,-0.15985 z m 26.976359,-0.49469 c -2.99624,-0.46649 -4.26346,-0.81715 -5.88794,-1.62931 -1.13977,-0.56983 -5.16381,-3.38043 -5.16381,-3.60669 0,-0.0429 1.24821,0.14355 2.77381,0.41432 2.59774,0.46105 3.02181,0.6316 6.68073,2.68692 2.14881,1.20704 4.08551,2.26419 4.30379,2.34922 0.64249,0.25027 -0.0987,0.19154 -2.70658,-0.21448 z m 3.78581,-0.008 c 0.0127,-0.30823 0.0754,-0.37092 0.15985,-0.15986 0.0764,0.191 0.067,0.4192 -0.0209,0.50712 -0.0879,0.0879 -0.15045,-0.0683 -0.13896,-0.34726 z m -98.669115,-1.52854 c 1.214177,-0.64233 3.235348,-1.76308 4.49149,-2.49055 1.92285,-1.1136 2.696634,-1.39577 4.894792,-1.78495 1.435993,-0.25425 2.78949,-0.58279 3.007772,-0.73009 0.218281,-0.1473 -0.07937,0.16647 -0.661459,0.69727 -1.559192,1.42184 -4.485611,3.34124 -5.932335,3.89096 -1.15858,0.44022 -3.955597,1.0215 -6.858594,1.42535 -1.108913,0.15427 -1.071757,0.11888 1.058334,-1.00799 z m 46.194575,-1.40278 c 0.181901,-0.0734 0.479558,-0.0734 0.661459,0 0.181901,0.0734 0.03307,0.13345 -0.330729,0.13345 -0.363803,0 -0.512631,-0.0601 -0.33073,-0.13345 z m 4.7625,0 c 0.181902,-0.0734 0.479558,-0.0734 0.661459,0 0.181901,0.0734 0.03307,0.13345 -0.330729,0.13345 -0.363802,0 -0.512631,-0.0601 -0.33073,-0.13345 z m -4.7625,-1.32292 c 0.181901,-0.0734 0.479558,-0.0734 0.661459,0 0.181901,0.0734 0.03307,0.13345 -0.330729,0.13345 -0.363803,0 -0.512631,-0.0601 -0.33073,-0.13345 z m 5.027084,0 c 0.181901,-0.0734 0.479557,-0.0734 0.661458,0 0.181901,0.0734 0.03307,0.13345 -0.330729,0.13345 -0.363802,0 -0.51263,-0.0601 -0.330729,-0.13345 z m 31.12955,-2.27217 -0.504029,-0.59531 0.595313,0.50403 c 0.559446,0.47366 0.715761,0.68659 0.504029,0.68659 -0.05021,0 -0.318098,-0.26789 -0.595313,-0.59531 z m -37.992181,0.14999 c 0.190995,-0.0764 0.419198,-0.067 0.507119,0.0209 0.08792,0.0879 -0.06835,0.15045 -0.347265,0.13896 -0.308227,-0.0127 -0.37092,-0.0754 -0.159854,-0.15985 z m 8.731251,0 c 0.190994,-0.0764 0.419198,-0.067 0.507119,0.0209 0.08792,0.0879 -0.06835,0.15045 -0.347266,0.13896 -0.308226,-0.0127 -0.370919,-0.0754 -0.159853,-0.15985 z m -7.954037,-1.3174 c 0.181901,-0.0734 0.479557,-0.0734 0.661458,0 0.181901,0.0734 0.03307,0.13345 -0.330729,0.13345 -0.363802,0 -0.51263,-0.0601 -0.330729,-0.13345 z m 6.614583,0 c 0.181902,-0.0734 0.479558,-0.0734 0.661459,0 0.181901,0.0734 0.03307,0.13345 -0.330729,0.13345 -0.363802,0 -0.512631,-0.0601 -0.33073,-0.13345 z m 42.36573,-2.13988 c -0.32911,-0.41964 -0.31975,-0.429 0.0999,-0.0999 0.44073,0.34565 0.58088,0.56292 0.36312,0.56292 -0.0549,0 -0.2633,-0.20836 -0.46302,-0.46302 z m -52.180578,0 c -0.06745,-0.10914 0.152275,-0.19844 0.488286,-0.19844 0.33601,0 0.555739,0.0893 0.488286,0.19844 -0.06745,0.10914 -0.287182,0.19844 -0.488286,0.19844 -0.201105,0 -0.420833,-0.0893 -0.488286,-0.19844 z m 13.380966,-1.12634 c -0.58311,-0.58311 -1.272606,-1.50585 -1.532215,-2.05052 -0.52891,-1.10969 -0.831112,-4.63829 -0.496885,-5.80177 0.175138,-0.60968 0.247116,-0.38478 0.396727,1.23957 0.195061,2.11781 1.454907,5.79343 2.395672,6.98942 0.788448,1.00235 0.447482,0.83408 -0.763299,-0.3767 z m -11.554579,-0.55667 c 0.234109,-0.45271 0.899459,-1.97076 1.478558,-3.37344 0.962377,-2.33104 1.038542,-2.44112 0.885859,-1.28028 -0.265139,2.01582 -0.881748,3.79805 -1.615895,4.67054 -0.878874,1.04448 -1.292535,1.03519 -0.748522,-0.0168 z m -40.893311,-0.63209 c 0.493656,-0.50933 0.957087,-0.92604 1.029847,-0.92604 0.07276,0 -0.271608,0.41671 -0.765263,0.92604 -0.493655,0.50932 -0.957087,0.92604 -1.029847,0.92604 -0.07276,0 0.271608,-0.41672 0.765263,-0.92604 z m 96.440632,-0.52616 c -1.50311,-0.40795 -6.62092,-2.56337 -8.99584,-3.7887 -1.43192,-0.7388 -1.50971,-0.81985 -0.79375,-0.82705 0.43656,-0.004 1.91249,0.16231 3.27984,0.37043 1.95061,0.2969 2.80545,0.57328 3.96875,1.28315 2.3496,1.43377 2.61594,1.53737 4.88809,1.90137 1.61569,0.25883 2.19919,0.26871 2.34521,0.0397 0.11117,-0.17434 0.19612,-0.008 0.19844,0.38968 0.003,0.5675 -0.14719,0.72478 -0.82278,0.8599 -1.23942,0.24789 -2.59278,0.17187 -4.06796,-0.2285 z m -8.49181,-0.46603 -0.50403,-0.59531 0.59531,0.50403 c 0.55945,0.47366 0.71577,0.68659 0.50403,0.68659 -0.0502,0 -0.31809,-0.26789 -0.59531,-0.59531 z m -28.375795,-0.19844 c 0,-0.3638 0.06006,-0.51263 0.133453,-0.33073 0.0734,0.1819 0.0734,0.47956 0,0.66146 -0.0734,0.1819 -0.133453,0.0331 -0.133453,-0.33073 z m -70.222506,0.091 c -0.8003442,-0.1387 -0.7962342,-0.13341 -0.567005,-0.73077 0.08833,-0.23018 0.4045498,-0.41851 0.7027116,-0.41851 0.7457385,0 6.2331894,-1.56741 7.1960714,-2.05545 1.391112,-0.70509 5.263338,-1.91968 6.633536,-2.08071 1.045819,-0.12292 1.409799,-0.0635 1.691609,0.27604 0.30623,0.36898 0.301153,0.41042 -0.0345,0.28162 -0.216463,-0.0831 -1.989476,0.58425 -3.940028,1.48292 -6.3114,2.90784 -9.122194,3.68855 -11.682396,3.24486 z m 13.295313,-1.24918 c 0,-0.0549 0.208359,-0.2633 0.463021,-0.46302 0.419644,-0.32911 0.429002,-0.31975 0.09989,0.0999 -0.345643,0.44073 -0.562915,0.58089 -0.562915,0.36312 z m 17.057344,-2.3475 -1.579219,-1.65364 1.653646,1.57922 c 1.536097,1.46695 1.774719,1.72807 1.579219,1.72807 -0.04094,0 -0.785077,-0.74414 -1.653646,-1.65365 z m -15.205261,0.76 c 0,-0.0549 0.20836,-0.2633 0.463021,-0.46302 0.419644,-0.32911 0.429002,-0.31975 0.0999,0.0999 -0.345644,0.44073 -0.562916,0.58089 -0.562916,0.36312 z m 80.189645,-0.58361 c 0.0127,-0.30822 0.0754,-0.37092 0.15985,-0.15985 0.0764,0.19099 0.067,0.4192 -0.0209,0.50712 -0.0879,0.0879 -0.15045,-0.0684 -0.13896,-0.34727 z m -25.400005,-0.52916 c 0.0127,-0.30823 0.07539,-0.37092 0.159851,-0.15986 0.07643,0.191 0.06703,0.4192 -0.02088,0.50712 -0.08792,0.0879 -0.150452,-0.0684 -0.138964,-0.34726 z m 12.679112,-0.73931 c 0,-0.0549 0.208359,-0.2633 0.463021,-0.46302 0.419645,-0.32911 0.429003,-0.31975 0.0999,0.0999 -0.345644,0.44073 -0.562917,0.58089 -0.562917,0.36313 z m -25.205974,-2.0496 c 0.179478,-0.18083 0.39297,-0.26212 0.474432,-0.18066 0.08146,0.0815 -0.06538,0.22941 -0.326318,0.32877 -0.377084,0.14358 -0.407474,0.11319 -0.148114,-0.14811 z m 12.262279,-0.12151 c 0.0127,-0.30823 0.07539,-0.37092 0.159851,-0.15985 0.07643,0.19099 0.06703,0.41919 -0.02088,0.50711 -0.08792,0.0879 -0.150453,-0.0683 -0.138964,-0.34726 z m -65.372974,-1.83004 c 0.341774,-0.3638 0.680939,-0.66145 0.7537,-0.66145 0.07276,0 -0.147342,0.29765 -0.489116,0.66145 -0.341775,0.36381 -0.680939,0.66146 -0.7537,0.66146 -0.07276,0 0.147342,-0.29765 0.489116,-0.66146 z m 52.473248,-2.28176 c -0.248526,-0.30264 0.02035,-0.36806 1.59358,-0.3877 1.933551,-0.0241 3.519887,-0.58317 4.534805,-1.59809 0.421619,-0.42162 0.4431,-0.41025 0.358333,0.18973 -0.06558,0.46418 -0.440245,0.8054 -1.373846,1.2512 -1.591554,0.75998 -4.667078,1.08772 -5.112872,0.54486 z m -5.885691,-1.70903 c 0.0127,-0.30823 0.07539,-0.37092 0.159851,-0.15986 0.07643,0.191 0.06703,0.4192 -0.02088,0.50712 -0.08792,0.0879 -0.150453,-0.0683 -0.138964,-0.34726 z m 7.602419,-0.0264 c 0.190994,-0.0764 0.419197,-0.067 0.507119,0.0209 0.08792,0.0879 -0.06835,0.15045 -0.347266,0.13896 -0.308226,-0.0127 -0.370919,-0.0754 -0.159853,-0.15985 z m 43.061846,-0.84937 c -0.22227,-0.35964 0.65043,-0.50899 9.34678,-1.59957 1.22126,-0.15315 2.41189,-0.41162 2.64584,-0.57437 0.23394,-0.16275 -0.0937,0.19193 -0.72818,0.7882 -0.63444,0.59626 -1.58694,1.20449 -2.11667,1.35163 -1.18976,0.33047 -8.94673,0.35939 -9.14777,0.0341 z m -39.399481,-0.62353 c 0.06745,-0.10914 0.287181,-0.19844 0.488286,-0.19844 0.201104,0 0.420833,0.0893 0.488286,0.19844 0.06745,0.10914 -0.152276,0.19844 -0.488286,0.19844 -0.336011,0 -0.555739,-0.0893 -0.488286,-0.19844 z M 8.4589237,164.74183 c -0.5720932,-0.20382 -1.5841244,-0.92659 -2.2489583,-1.60617 -0.7205147,-0.73649 -0.9363592,-1.06483 -0.534352,-0.81284 0.4324387,0.27106 2.33117,0.61414 5.2916666,0.95614 4.89236,0.56518 5.583062,0.67263 7.263063,1.12987 l 1.058334,0.28804 -1.058334,0.20414 c -1.86585,0.35988 -8.6234551,0.2498 -9.7714193,-0.15918 z m 52.9970453,-5.62547 c -0.329107,-0.41964 -0.319749,-0.429 0.0999,-0.0999 0.254662,0.19972 0.463021,0.40808 0.463021,0.46302 0,0.21776 -0.217273,0.0776 -0.562917,-0.36313 z m 3.208751,0.36313 c 0,-0.0549 0.208359,-0.2633 0.46302,-0.46302 0.419645,-0.32911 0.429004,-0.31975 0.0999,0.0999 -0.345644,0.44073 -0.562917,0.58089 -0.562917,0.36313 z m 34.681306,-2.96486 c 0.0127,-0.30823 0.07539,-0.37092 0.159851,-0.15985 0.07643,0.19099 0.06703,0.41919 -0.02088,0.50712 -0.08792,0.0879 -0.150453,-0.0684 -0.138964,-0.34727 z m -43.340495,-0.90399 c 0,-0.65485 0.0516,-0.92274 0.114663,-0.59532 0.06307,0.32743 0.06307,0.86321 0,1.19063 -0.06306,0.32742 -0.114663,0.0595 -0.114663,-0.59531 z m -28.340703,-1.32292 c 0,-0.3638 0.06005,-0.51263 0.133452,-0.33073 0.0734,0.1819 0.0734,0.47956 0,0.66146 -0.0734,0.1819 -0.133452,0.0331 -0.133452,-0.33073 z m 45.309129,-0.0661 -0.504029,-0.59531 0.595313,0.50403 c 0.327421,0.27721 0.595312,0.5451 0.595312,0.59531 0,0.21173 -0.212934,0.0554 -0.686596,-0.50403 z m 26.71957,-2.16213 c 0.02003,-0.91611 0.146161,-1.33395 0.425363,-1.4092 0.27439,-0.074 0.30043,-0.0382 0.0844,0.11595 -0.17188,0.12261 -0.363291,0.75676 -0.425365,1.40921 l -0.112863,1.18628 z m -39.063703,-1.12195 c 0.181901,-0.0734 0.479557,-0.0734 0.661458,0 0.181901,0.0734 0.03307,0.13345 -0.330729,0.13345 -0.363802,0 -0.51263,-0.0601 -0.330729,-0.13345 z m 2.910416,0 c 0.181901,-0.0734 0.479558,-0.0734 0.661459,0 0.181901,0.0734 0.03307,0.13345 -0.330729,0.13345 -0.363803,0 -0.512631,-0.0601 -0.33073,-0.13345 z m 57.21615,-0.18925 c 0,-0.0549 0.20836,-0.2633 0.46302,-0.46302 0.41964,-0.32911 0.429,-0.31975 0.0999,0.0999 -0.34564,0.44072 -0.56291,0.58088 -0.56291,0.36312 z m -11.37709,-3.175 c 0,-0.0549 0.20836,-0.2633 0.46302,-0.46302 0.41965,-0.32911 0.42901,-0.31975 0.0999,0.0999 -0.34564,0.44072 -0.56292,0.58088 -0.56292,0.36312 z m 1.32292,-1.32292 c 0,-0.0549 0.20836,-0.2633 0.46302,-0.46302 0.41965,-0.3291 0.429,-0.31975 0.0999,0.0999 -0.34565,0.44073 -0.56292,0.58089 -0.56292,0.36312 z m 12.19172,-1.90652 c 0.0127,-0.30823 0.0754,-0.37092 0.15985,-0.15986 0.0764,0.191 0.067,0.4192 -0.0209,0.50712 -0.0879,0.0879 -0.15045,-0.0683 -0.13897,-0.34726 z m 0,-6.08542 c 0.0127,-0.30823 0.0754,-0.37092 0.15985,-0.15985 0.0764,0.19099 0.067,0.4192 -0.0209,0.50711 -0.0879,0.0879 -0.15045,-0.0683 -0.13897,-0.34726 z"
         id="path2246" />
      <path
         style="fill:#d76b32;stroke-width:0.264583"
         d="m 74.458973,243.25386 c -0.660199,-1.51733 -0.900938,-1.61479 -2.732421,-1.10621 -1.74661,0.48501 -1.68878,0.11074 0.149006,-0.96435 l 1.774859,-1.03829 0.0051,-4.16273 0.0051,-4.16273 1.34175,-0.67992 1.341749,-0.67991 -0.187708,4.34814 c -0.191437,4.43398 -0.08396,5.73402 0.474038,5.73402 0.381735,0 4.476888,1.90188 4.355825,2.02294 -0.04724,0.0472 -1.089763,-0.0908 -2.316721,-0.3067 -3.209642,-0.56485 -3.079486,-0.60341 -3.36133,0.99574 l -0.244817,1.38907 z m -19.322865,0.39688 c -0.01177,-1.93839 -0.322969,-2.05245 -3.789977,-1.38902 -1.140587,0.21826 -2.152618,0.39009 -2.248958,0.38186 -0.309589,-0.0265 4.251942,-2.1017 4.619699,-2.1017 0.595593,0 0.706062,-1.19352 0.506929,-5.47693 -0.105048,-2.2596 -0.09077,-4.05652 0.03173,-3.99316 0.122502,0.0634 0.728745,0.33311 1.347208,0.59945 l 1.124479,0.48425 0.0061,3.99476 0.0061,3.99476 1.844683,1.03756 c 1.014577,0.57066 1.798304,1.08394 1.74162,1.14063 -0.05669,0.0567 -0.811242,-0.0432 -1.676792,-0.22199 -0.86555,-0.17878 -1.747864,-0.25822 -1.960697,-0.17655 -0.212834,0.0817 -0.548325,0.63739 -0.745533,1.23494 -0.391112,1.18508 -0.800914,1.4346 -0.80664,0.49114 z M 43.129636,167.91376 c 0.609872,-3.08535 2.132536,-6.26783 3.984271,-8.3274 1.443603,-1.60564 2.909739,-2.03365 5.776854,-1.68646 l 1.852083,0.22428 0.410967,1.71979 0.410967,1.71979 -2.512047,0.20185 c -2.889748,0.23221 -4.052403,0.50692 -5.243058,1.23884 -0.732623,0.45037 -2.891718,2.94132 -4.37584,5.04842 l -0.461095,0.65464 z m 4.785516,-2.52247 c -0.565401,-0.35315 -0.261718,-0.85868 0.866222,-1.44196 0.78667,-0.40681 4.194567,-0.93036 6.055837,-0.93036 1.235808,0 1.250555,0.0104 1.687978,1.19062 l 0.441277,1.19063 h -1.533673 c -0.843521,0 -2.772585,0.0651 -4.286811,0.14472 -1.825368,0.096 -2.914113,0.0442 -3.23083,-0.15365 z"
         id="path2244" />
      <path
         style="fill:#ffffff;stroke-width:0.264583"
         d="m 77.36472,229.87625 1.930876,-1.87706 c 2.227382,-2.1653 3.843523,-4.43667 5.115193,-7.18903 2.857134,-6.18389 2.745224,-14.17491 -0.282716,-20.1876 -0.959421,-1.90515 -0.961562,-1.91693 -0.42953,-2.36277 0.692828,-0.58058 0.794206,-2.14552 0.197941,-3.05554 -0.438309,-0.66894 -0.434137,-0.69199 0.146563,-0.80971 0.328745,-0.0666 1.806376,-0.18255 3.28363,-0.25757 l 2.685918,-0.1364 2.605749,2.59481 c 2.61544,2.60446 4.799081,3.99656 6.940886,4.42493 0.71533,0.14306 0.84976,0.0713 1.11857,-0.59695 0.36942,-0.9184 0.35948,-5.76437 -0.0158,-7.71676 -0.14812,-0.77053 -0.54913,-1.98564 -0.891139,-2.70026 -0.342003,-0.71462 -0.506431,-1.228 -0.365392,-1.14083 0.141036,0.0872 0.984341,0.70812 1.874001,1.3799 2.99457,2.26118 6.82356,3.49046 12.12867,3.89386 2.76539,0.21028 2.74245,0.23697 2.33457,-2.71649 -0.49644,-3.59467 -2.60595,-7.3796 -6.22939,-11.1769 -1.75452,-1.83869 -1.95931,-2.1361 -1.19232,-1.73154 0.50932,0.26866 1.01534,0.46399 1.12448,0.43407 0.10914,-0.0299 0.19844,0.0845 0.19844,0.25428 0,0.16977 0.0697,0.23895 0.15495,0.15373 0.0852,-0.0852 0.97635,0.19457 1.98026,0.62178 2.88104,1.22599 4.87274,1.64863 6.82609,1.4485 2.24912,-0.23043 2.68036,-0.48507 2.68036,-1.58269 0,-1.35861 -0.64324,-2.88693 -2.25716,-5.3629 -1.87018,-2.86911 -3.77248,-4.88241 -5.78471,-6.12225 l -1.58113,-0.97423 3.55473,-0.13572 c 4.19128,-0.16004 5.4158,-0.60682 7.1247,-2.59952 1.01401,-1.18241 2.00703,-2.88846 1.80111,-3.09438 -0.054,-0.0539 -2.71327,-0.70115 -5.90959,-1.43822 -5.52724,-1.27458 -10.44176,-2.65289 -11.17741,-3.13479 -0.21335,-0.13975 1.15856,-0.58618 3.70416,-1.20535 4.4988,-1.09425 9.06144,-2.72339 10.58583,-3.77979 2.08008,-1.4415 3.12036,-5.04121 3.10923,-10.75897 -0.007,-3.60682 -0.36482,-5.86922 -1.31991,-8.34586 -0.84969,-2.20332 -2.6415,-5.37059 -3.13051,-5.53359 -0.16284,-0.0543 -0.47379,0.29738 -0.69099,0.78146 -2.81303,6.2694 -4.58877,9.88438 -6.03187,12.27947 -3.77729,6.2691 -5.243,7.36456 -11.51501,8.60625 -1.56131,0.3091 -2.935055,0.65022 -3.052752,0.75804 -0.117695,0.10783 -0.320747,1.96903 -0.451226,4.13601 -0.322543,5.35677 -0.779322,7.32892 -2.505885,10.81913 -3.104406,6.27549 -8.580009,12.45163 -14.159114,15.97061 l -1.719791,1.08474 -0.440923,-5.445 c -1.047412,-12.93458 -2.13337,-18.47764 -4.244399,-21.66471 -1.114348,-1.68237 -4.519012,-4.20399 -6.230538,-4.61458 -0.712832,-0.171 -3.072752,-0.33373 -5.244266,-0.36161 -4.540518,-0.0583 -6.08012,0.3019 -7.442185,1.74117 -1.126315,1.19016 -1.381326,1.7805 -1.576734,3.65005 l -0.170352,1.62986 c 3.281285,9.33686 1.035893,4.83443 2.992104,10.12001 0,0.40397 -2.538989,6.55065 -3.344709,8.09726 -0.684318,1.31358 -3.192391,4.91988 -4.735242,6.80871 -0.185397,0.22697 -4.003186,-1.96096 -5.841035,-3.34744 -2.747415,-2.07265 -6.963786,-6.46617 -9.052766,-9.43312 -2.003174,-2.84507 -4.132237,-7.07127 -4.666481,-9.26298 -0.46573,-1.91065 -0.934767,-6.37632 -0.934767,-8.89988 0,-1.236 -0.107638,-1.865 -0.330729,-1.93266 -0.181902,-0.0552 -1.73447,-0.40207 -3.450153,-0.77089 -3.636555,-0.78175 -5.50443,-1.56841 -7.059091,-2.97295 -2.302031,-2.07975 -6.266654,-8.95633 -9.394296,-16.29426 -0.5381569,-1.2626 -1.1472672,-2.36041 -1.3535782,-2.43958 -0.4427016,-0.16988 -2.4628592,3.67164 -3.4640987,6.5873 -0.8645229,2.51754 -1.2168598,6.71187 -0.8832092,10.514 0.496879,5.6622 1.4508877,7.21053 5.5135066,8.94826 2.5784095,1.10288 6.3248305,2.23377 10.0591265,3.03643 1.308459,0.28124 2.061599,0.55402 1.852083,0.6708 -0.913699,0.50928 -5.139789,1.69684 -10.7929906,3.0329 -3.4125131,0.80651 -6.255827,1.51763 -6.3184754,1.58028 -0.2699743,0.26997 0.6917287,1.95005 1.7930785,3.13248 1.9693546,2.11433 2.7413789,2.39292 6.9463855,2.50669 l 3.622768,0.098 -1.977957,1.32293 c -3.164672,2.11667 -6.9425055,7.31665 -7.5640393,10.41149 -0.3828902,1.90655 -0.1486974,2.1271 2.5174907,2.37078 2.6297276,0.24035 4.1534576,-0.18154 10.7173976,-2.96737 0.195303,-0.0829 -0.48777,0.70395 -1.517938,1.74852 -4.03769,4.09416 -6.377782,8.7834 -6.377782,12.78025 v 1.34895 l 2.447396,-0.17518 c 5.550371,-0.39729 9.162687,-1.58654 12.418311,-4.08837 l 1.768831,-1.35929 -0.624373,1.41182 c -0.823659,1.86243 -1.297519,5.24866 -1.123905,8.03148 0.173433,2.77992 0.469388,3.19031 1.953728,2.70915 2.171495,-0.7039 4.029327,-1.87346 6.055128,-3.81189 l 2.10801,-2.01709 2.986188,0.0514 2.986185,0.0514 -0.202744,1.21285 c -0.111509,0.66706 -0.205137,1.74862 -0.208061,2.40347 -0.0044,0.99748 0.07676,1.19081 0.500639,1.1918 0.320871,7.9e-4 0.61146,0.29111 0.794364,0.79375 0.158623,0.43591 0.497253,1.17509 0.752512,1.64261 0.450774,0.82563 0.445035,0.91584 -0.199842,3.14118 -0.813335,2.80665 -1.092301,6.63571 -0.689875,9.46917 0.832189,5.85938 4.026427,11.62871 8.257511,14.91444 l 1.559582,1.21113 c 15.42061,6.53731 16.074934,1.89825 24.341647,-0.43182 z m -17.41777,3.44011 c 1.141195,0.30481 2.686878,0.44534 4.850016,0.44093 2.937666,-0.006 3.750244,-0.12813 6.945313,-1.04398 l 0.595312,-0.17064 c 6.958005,-4.54348 -22.150468,1.22137 -12.390641,0.77369 z m 7.313994,-0.89272 c 0.190994,-0.0764 0.419198,-0.067 0.507119,0.0209 0.08792,0.0879 -0.06835,0.15045 -0.347266,0.13896 -0.308226,-0.0127 -0.370919,-0.0754 -0.159853,-0.15985 z m -16.776571,-5.70624 -0.504029,-0.59531 0.595313,0.50403 c 0.559445,0.47366 0.715761,0.6866 0.504028,0.6866 -0.05021,0 -0.318098,-0.26789 -0.595312,-0.59532 z m 49.126236,-28.13402 c 0.0127,-0.30823 0.07539,-0.37092 0.159851,-0.15985 0.07643,0.19099 0.06703,0.4192 -0.02088,0.50711 -0.08792,0.0879 -0.150452,-0.0684 -0.138964,-0.34726 z m -67.754224,-1.79764 c 0,-0.0549 0.20836,-0.2633 0.463021,-0.46302 0.419645,-0.32911 0.429004,-0.31975 0.0999,0.0999 -0.345643,0.44073 -0.562917,0.58089 -0.562917,0.36313 z m 67.784916,-0.82615 c 0.0054,-0.43656 0.06469,-0.58312 0.131773,-0.32569 0.06708,0.25743 0.06267,0.61462 -0.0098,0.79375 -0.07248,0.17913 -0.127362,-0.0315 -0.12197,-0.46806 z m -49.793248,0.0495 c 0,-0.0455 0.386953,-0.43248 0.859895,-0.85989 l 0.859896,-0.77711 -0.777105,0.8599 c -0.724371,0.80154 -0.942686,0.98151 -0.942686,0.7771 z m -0.926042,-0.71096 c 0.26339,-0.29104 0.538422,-0.52916 0.611182,-0.52916 0.07276,0 -0.08321,0.23812 -0.346599,0.52916 -0.26339,0.29105 -0.538422,0.52917 -0.611182,0.52917 -0.07276,0 0.08321,-0.23812 0.346599,-0.52917 z m 30.539349,-0.99218 -0.641432,-0.72761 0.727604,0.64144 c 0.680056,0.59951 0.84894,0.81377 0.641432,0.81377 -0.04739,0 -0.374814,-0.32742 -0.727604,-0.7276 z m 2.686749,0.0441 c 0.0127,-0.30823 0.07539,-0.37092 0.159851,-0.15986 0.07643,0.191 0.06703,0.4192 -0.02088,0.50712 -0.08792,0.0879 -0.150453,-0.0683 -0.138965,-0.34726 z m 9.611265,-0.44098 -0.504029,-0.59531 0.595313,0.50403 c 0.559445,0.47366 0.715761,0.68659 0.504028,0.68659 -0.05021,0 -0.318098,-0.26789 -0.595312,-0.59531 z m -57.257155,0.23084 c 0,-0.0549 0.208359,-0.2633 0.463021,-0.46303 0.419645,-0.3291 0.429003,-0.31974 0.0999,0.0999 -0.345644,0.44073 -0.562917,0.58089 -0.562917,0.36313 z m 7.077604,-1.14517 c 0.327422,-0.0631 0.863203,-0.0631 1.190625,0 0.327422,0.0631 0.05953,0.11467 -0.595312,0.11467 -0.654844,0 -0.922735,-0.0516 -0.595313,-0.11467 z m 70.660287,-0.25859 c 0.191,-0.0764 0.4192,-0.067 0.50712,0.0209 0.0879,0.0879 -0.0683,0.15045 -0.34727,0.13897 -0.30822,-0.0127 -0.37091,-0.0754 -0.15985,-0.15986 z M 14.608859,191.9424 c 0.190996,-0.0764 0.419199,-0.067 0.507118,0.0209 0.08792,0.0879 -0.06835,0.15045 -0.347266,0.13897 -0.308224,-0.0127 -0.370919,-0.0754 -0.159852,-0.15986 z m 49.862458,-2.64845 c 0.257432,-0.0671 0.614619,-0.0627 0.79375,0.01 0.179131,0.0725 -0.03149,0.12737 -0.468056,0.12197 -0.436562,-0.005 -0.583126,-0.0647 -0.325694,-0.13177 z m -1.443707,-1.05572 c 0.190995,-0.0764 0.419198,-0.067 0.507119,0.0209 0.08792,0.0879 -0.06835,0.15046 -0.347266,0.13897 -0.308226,-0.0127 -0.370919,-0.0754 -0.159853,-0.15985 z m 3.175,0 c 0.190995,-0.0764 0.419198,-0.067 0.507119,0.0209 0.08792,0.0879 -0.06835,0.15046 -0.347265,0.13897 -0.308227,-0.0127 -0.37092,-0.0754 -0.159854,-0.15985 z m -5.291667,-2.11667 c 0.190995,-0.0764 0.419198,-0.067 0.507119,0.0209 0.08792,0.0879 -0.06835,0.15045 -0.347265,0.13896 -0.308227,-0.0127 -0.37092,-0.0754 -0.159854,-0.15985 z m 6.862631,0.006 c 0.181901,-0.0734 0.479557,-0.0734 0.661458,0 0.181901,0.0734 0.03307,0.13345 -0.330729,0.13345 -0.363802,0 -0.51263,-0.0601 -0.330729,-0.13345 z m 0.810286,-1.32843 c 0.190995,-0.0764 0.419198,-0.067 0.507119,0.0209 0.08792,0.0879 -0.06835,0.15046 -0.347265,0.13897 -0.308227,-0.0127 -0.37092,-0.0754 -0.159854,-0.15985 z m -48.898308,-5.4754 c 0,-0.0549 0.208359,-0.2633 0.463021,-0.46302 0.419644,-0.32911 0.429002,-0.31975 0.09989,0.0999 -0.345643,0.44073 -0.562915,0.58089 -0.562915,0.36313 z m 58.514693,-1.22302 c 0,-0.3638 0.06006,-0.51263 0.133453,-0.33073 0.0734,0.1819 0.0734,0.47956 0,0.66146 -0.0734,0.1819 -0.133453,0.0331 -0.133453,-0.33073 z m 9.08635,-0.26458 c 0.26339,-0.29105 0.538422,-0.52917 0.611182,-0.52917 0.07276,0 -0.08321,0.23812 -0.346599,0.52917 -0.26339,0.29104 -0.538421,0.52916 -0.611182,0.52916 -0.07276,0 0.08321,-0.23812 0.346599,-0.52916 z m 16.502705,-0.99219 c -0.3291,-0.41965 -0.31975,-0.42901 0.0999,-0.0999 0.44073,0.34565 0.58089,0.56292 0.36312,0.56292 -0.0549,0 -0.2633,-0.20836 -0.46302,-0.46302 z m -13.989163,-1.48896 c 0,-0.0549 0.208359,-0.2633 0.463021,-0.46302 0.419645,-0.32911 0.429003,-0.31975 0.0999,0.0999 -0.345644,0.44073 -0.562917,0.58089 -0.562917,0.36313 z M 77.914775,174.5063 c 0.0127,-0.30823 0.07539,-0.37092 0.159851,-0.15986 0.07643,0.191 0.06703,0.4192 -0.02088,0.50712 -0.08792,0.0879 -0.150452,-0.0683 -0.138964,-0.34726 z m -0.264583,-2.91042 c 0.0127,-0.30823 0.07539,-0.37092 0.159851,-0.15985 0.07643,0.19099 0.06703,0.41919 -0.02088,0.50711 -0.08792,0.0879 -0.150453,-0.0684 -0.138964,-0.34726 z m 37.127928,-0.44097 -0.50402,-0.59532 0.59531,0.50403 c 0.55944,0.47366 0.71576,0.6866 0.50403,0.6866 -0.0502,0 -0.3181,-0.26789 -0.59532,-0.59531 z m -37.392511,-1.94028 c 0.0127,-0.30823 0.07539,-0.37092 0.15985,-0.15985 0.07643,0.19099 0.06703,0.41919 -0.02087,0.50711 -0.08792,0.0879 -0.150453,-0.0684 -0.138965,-0.34726 z m -12.125577,-1.35809 c 0.400182,-0.0606 1.055026,-0.0606 1.455208,0 0.400183,0.0606 0.07276,0.11023 -0.727604,0.11023 -0.800364,0 -1.127786,-0.0496 -0.727604,-0.11023 z m 48.286458,-1.85397 c 0.47294,-0.0587 1.24685,-0.0587 1.71979,0 0.47295,0.0587 0.086,0.10671 -0.85989,0.10671 -0.94589,0 -1.33284,-0.048 -0.8599,-0.10671 z m -4.48138,-0.25392 c 0.191,-0.0764 0.4192,-0.067 0.50712,0.0209 0.0879,0.0879 -0.0684,0.15045 -0.34727,0.13897 -0.30822,-0.0127 -0.37091,-0.0754 -0.15985,-0.15985 z m -96.718108,-0.53829 c 0.402183,-0.0608 0.997496,-0.0592 1.322917,0.004 0.325421,0.0628 -0.0036,0.11256 -0.731242,0.11057 -0.727605,-0.002 -0.993858,-0.0534 -0.591675,-0.11418 z m 5.436857,-0.25546 c 0.190996,-0.0764 0.419199,-0.067 0.507118,0.0209 0.08792,0.0879 -0.06835,0.15045 -0.347265,0.13897 -0.308225,-0.0127 -0.37092,-0.0754 -0.159853,-0.15985 z m -11.6120828,-1.6052 -0.6414331,-0.72761 0.7276042,0.64144 c 0.4001823,0.35279 0.7276042,0.68021 0.7276042,0.7276 0,0.20751 -0.2142594,0.0386 -0.8137753,-0.64143 z m 49.7825818,-6.3059 c 0.0127,-0.30823 0.07539,-0.37092 0.159851,-0.15986 0.07643,0.191 0.06703,0.4192 -0.02088,0.50712 -0.08792,0.0879 -0.150452,-0.0684 -0.138964,-0.34726 z m 43.391668,-1.32292 c 0.0127,-0.30823 0.07539,-0.37092 0.159851,-0.15985 0.07643,0.19099 0.06703,0.41919 -0.02088,0.50712 -0.08792,0.0879 -0.150453,-0.0684 -0.138964,-0.34727 z m -71.66159,-2.75608 c 0,-0.50932 0.05445,-0.71768 0.121,-0.46302 0.06655,0.25466 0.06655,0.67138 0,0.92604 -0.06655,0.25466 -0.121,0.0463 -0.121,-0.46302 z m 36.914138,-2.02731 c 0.181901,-0.0734 0.479557,-0.0734 0.661458,0 0.181901,0.0734 0.03307,0.13345 -0.330729,0.13345 -0.363802,0 -0.51263,-0.0601 -0.330729,-0.13345 z m 58.295366,-5.79994 c 0.0127,-0.30823 0.0754,-0.37092 0.15985,-0.15986 0.0764,0.191 0.067,0.4192 -0.0209,0.50712 -0.0879,0.0879 -0.15045,-0.0684 -0.13897,-0.34726 z M 4.1471977,141.8523 c 0,-0.65484 0.051598,-0.92273 0.1146622,-0.59531 0.063064,0.32742 0.063064,0.8632 0,1.19063 -0.063064,0.32742 -0.1146622,0.0595 -0.1146622,-0.59532 z m 0,-2.64583 c 0,-0.65484 0.051598,-0.92273 0.1146622,-0.59531 0.063064,0.32742 0.063064,0.8632 0,1.19062 -0.063064,0.32742 -0.1146622,0.0595 -0.1146622,-0.59531 z M 122.89394,137.46463 c 0.0127,-0.30823 0.0754,-0.37092 0.15985,-0.15985 0.0764,0.19099 0.067,0.4192 -0.0209,0.50711 -0.0879,0.0879 -0.15045,-0.0684 -0.13897,-0.34726 z"
         id="path2242"
         sodipodi:nodetypes="cssssscscssssscssssssssssssscsscssssssscsssssscssssssccsssssscssscsssssscscccssscscsscsssscccsccssssscccssccsssssscsssssssssssssssssssscsssssssscssssssssscsssscssscsscsssssssssscccccssssssssssssssscsscsssssssssssssssssssssssssssssscsssscssscssssscsscsscsssssssssccccccscccccsscsscsssscsssssscsscssssssssssssssssss" />
      <path
         style="fill:#010501;stroke-width:0.264583"
         d="m 54.660204,247.33918 c -0.139491,-0.17325 -0.397078,-1.17821 -0.572415,-2.23323 -0.175339,-1.05503 -0.387133,-1.91823 -0.470657,-1.91823 -0.08352,0 -1.856896,0.30281 -3.940828,0.67291 -2.866047,0.50901 -3.918842,0.60342 -4.322152,0.38757 -1.124953,-0.60206 -0.574834,-1.07218 3.567859,-3.04901 l 4.101042,-1.95697 v -4.46709 -4.46708 l -1.559582,-1.21113 c -4.231084,-3.28573 -7.425322,-9.05506 -8.257511,-14.91444 -0.402426,-2.83346 -0.12346,-6.66252 0.689875,-9.46917 0.644877,-2.22534 0.650616,-2.31555 0.199842,-3.14118 -0.255259,-0.46752 -0.593889,-1.2067 -0.752512,-1.64261 -0.182904,-0.50264 -0.473493,-0.793 -0.794364,-0.79375 -0.423881,-0.001 -0.505094,-0.19432 -0.500639,-1.1918 0.0029,-0.65485 0.09655,-1.73641 0.208061,-2.40347 l 0.202744,-1.21285 -2.986185,-0.0514 -2.986188,-0.0514 -2.10801,2.01709 c -2.025801,1.93843 -3.883633,3.10799 -6.055128,3.81189 -1.48434,0.48116 -1.780295,0.0708 -1.953728,-2.70915 -0.173614,-2.78282 0.300246,-6.16905 1.123905,-8.03148 l 0.624373,-1.41182 -1.768831,1.35929 c -3.255624,2.50183 -6.86794,3.69108 -12.418311,4.08837 l -2.447396,0.17518 v -1.34895 c 0,-3.99685 2.340092,-8.68609 6.377782,-12.78025 1.030168,-1.04457 1.713241,-1.8314 1.517938,-1.74852 -6.56394,2.78583 -8.08767,3.20772 -10.7173976,2.96737 -2.6661881,-0.24368 -2.9003809,-0.46423 -2.5174907,-2.37078 0.6215338,-3.09484 4.3993673,-8.29482 7.5640393,-10.41149 l 1.977957,-1.32293 -3.622768,-0.098 C 7.8585214,166.2969 7.0864971,166.01831 5.1171425,163.90398 4.0157927,162.72155 3.0540897,161.04147 3.324064,160.7715 c 0.062648,-0.0627 2.9059623,-0.77377 6.3184754,-1.58028 5.6532016,-1.33606 9.8792916,-2.52362 10.7929906,-3.0329 0.209516,-0.11678 -0.543624,-0.38956 -1.852083,-0.6708 -3.734296,-0.80266 -7.480717,-1.93355 -10.0591265,-3.03643 -4.0626189,-1.73773 -5.0166276,-3.28606 -5.5135066,-8.94826 -0.3336506,-3.80213 0.018686,-7.99646 0.8832092,-10.514 1.0012395,-2.91566 3.0213971,-6.75718 3.4640987,-6.5873 0.206311,0.0792 0.8154213,1.17698 1.3535782,2.43958 3.127642,7.33793 7.092265,14.21451 9.394296,16.29426 1.554661,1.40454 3.422536,2.1912 7.059091,2.97295 1.715683,0.36882 3.268251,0.71572 3.450153,0.77089 0.223091,0.0677 0.330729,0.69666 0.330729,1.93266 0,2.52356 0.469037,6.98923 0.934767,8.89988 0.534244,2.19171 2.663307,6.41791 4.666481,9.26298 2.08898,2.96695 6.305351,7.36047 9.052766,9.43312 1.837849,1.38648 5.655638,3.57441 5.841035,3.34744 1.542851,-1.88883 4.050924,-5.49513 4.735242,-6.80871 0.80572,-1.54661 3.344709,-7.69329 3.344709,-8.09726 0,-0.0862 -2.255284,-0.12003 -5.011743,-0.0753 -3.746912,0.0609 -5.09574,-0.002 -5.344583,-0.2493 -0.183063,-0.1819 -0.42541,-0.33073 -0.538554,-0.33073 -0.113141,0 -0.871826,0.95061 -1.685965,2.11248 -0.814141,1.16186 -1.790671,2.35665 -2.170065,2.65509 -0.602795,0.47415 -0.738238,0.49417 -1.0737,0.15871 -0.335465,-0.33546 -0.329748,-0.71211 0.04532,-2.98581 0.575406,-3.48818 2.467843,-7.42234 4.631926,-9.62923 1.296866,-1.32253 1.686174,-1.55943 3.002484,-1.82709 0.905594,-0.18415 2.242717,-0.23558 3.332594,-0.12818 l 1.820182,0.17935 0.170352,-1.62986 c 0.195408,-1.86955 0.450419,-2.45989 1.576734,-3.65005 1.362065,-1.43927 2.901667,-1.79947 7.442185,-1.74117 2.171514,0.0279 4.531434,0.19061 5.244266,0.36161 1.711526,0.41059 5.11619,2.93221 6.230538,4.61458 2.111029,3.18707 3.196987,8.73013 4.244399,21.66471 l 0.440923,5.445 1.719791,-1.08474 c 5.579105,-3.51898 11.054708,-9.69512 14.159104,-15.97061 1.726562,-3.49021 2.183341,-5.46236 2.505884,-10.81913 0.13048,-2.16698 0.333531,-4.02818 0.451226,-4.13601 0.117697,-0.10782 1.491433,-0.44894 3.052753,-0.75804 6.27201,-1.24169 7.73772,-2.33715 11.51501,-8.60625 1.4431,-2.39509 3.21884,-6.01007 6.03187,-12.27947 0.2172,-0.48408 0.52815,-0.83574 0.69099,-0.78146 0.489,0.163 2.28082,3.33027 3.13051,5.53359 0.95509,2.47664 1.31289,4.73904 1.31991,8.34586 0.0111,5.71776 -1.02915,9.31747 -3.10923,10.75897 -1.52439,1.0564 -6.08703,2.68554 -10.58583,3.77979 -2.5456,0.61917 -3.91751,1.0656 -3.70416,1.20535 0.73565,0.4819 5.65017,1.86021 11.17741,3.13479 3.19632,0.73707 5.85563,1.38427 5.90959,1.43822 0.20592,0.20592 -0.7871,1.91197 -1.80111,3.09438 -1.7089,1.9927 -2.93342,2.43948 -7.1247,2.59952 l -3.55474,0.13572 1.58114,0.97423 c 2.01223,1.23984 3.91453,3.25314 5.78471,6.12225 1.61391,2.47597 2.25716,4.00429 2.25716,5.3629 0,1.09762 -0.43124,1.35226 -2.68036,1.58269 -2.15044,0.22032 -4.0248,-0.24168 -8.09181,-1.99449 l -3.03692,-1.30886 2.07759,2.17127 c 3.57632,3.73756 5.69379,7.54513 6.18863,11.12816 0.40788,2.95346 0.43082,2.92677 -2.33457,2.71649 -5.30511,-0.4034 -9.13411,-1.63268 -12.12867,-3.89386 -0.88966,-0.67178 -1.732966,-1.29273 -1.874002,-1.3799 -0.141039,-0.0872 0.02339,0.42621 0.365392,1.14083 0.34201,0.71462 0.74302,1.92973 0.89114,2.70026 0.37531,1.95239 0.38525,6.79836 0.0158,7.71676 -0.26881,0.66827 -0.40324,0.74001 -1.118571,0.59695 -2.141805,-0.42837 -4.325445,-1.82047 -6.940886,-4.42493 l -2.605749,-2.59481 -2.685918,0.1364 c -1.477253,0.075 -2.954885,0.19092 -3.28363,0.25757 -0.580699,0.11772 -0.584872,0.14077 -0.146563,0.80971 0.596265,0.91002 0.494887,2.47496 -0.19794,3.05554 -0.532032,0.44584 -0.529892,0.45762 0.42953,2.36277 3.027939,6.01269 3.13985,14.00371 0.282715,20.1876 -1.27167,2.75236 -2.887811,5.02373 -5.115192,7.18903 l -1.930877,1.87706 v 4.74955 4.74955 l 4.034896,1.86183 c 4.175808,1.92684 4.803873,2.46558 3.543755,3.03973 -0.617952,0.28156 -2.619589,0.0242 -7.62295,-0.97995 -0.694349,-0.13936 -0.710964,-0.10936 -1.028065,1.85633 -0.309234,1.91693 -0.743609,2.74945 -1.266071,2.42655 -0.134723,-0.0833 -0.629571,-1.10554 -1.099664,-2.27173 -0.470082,-1.1662 -0.888087,-2.12035 -0.928891,-2.12035 -0.0408,0 -1.651299,0.35804 -3.578879,0.79565 -2.651762,0.60202 -3.592335,0.72291 -3.864821,0.49677 -0.250249,-0.20769 -0.461047,-0.21517 -0.690862,-0.0246 -0.233352,0.19356 -1.304494,0.0506 -3.638021,-0.48569 -1.81901,-0.41802 -3.44174,-0.76501 -3.606067,-0.77111 -0.164327,-0.006 -0.689869,0.93617 -1.167874,2.09393 -0.873974,2.11682 -1.32208,2.62884 -1.790991,2.04645 z m 1.388195,-4.27511 c 0.519274,-1.3597 0.679551,-1.40155 3.127227,-0.8166 0.8373,0.2001 1.464638,0.27041 1.394084,0.15626 -0.07056,-0.11416 -0.963977,-0.7125 -1.985385,-1.32965 l -1.857106,-1.12207 v -3.88568 -3.88567 l -1.197702,-0.58189 c -0.658736,-0.32004 -1.254049,-0.58189 -1.322917,-0.58189 -0.06887,0 -0.125214,2.08733 -0.125214,4.63851 0,4.18245 -0.04552,4.65369 -0.463021,4.79285 -0.999458,0.33314 -4.561324,2.03666 -4.463322,2.13466 0.05718,0.0572 1.15924,-0.0806 2.449009,-0.30622 3.333002,-0.583 3.192728,-0.62056 3.40341,0.91129 0.100089,0.72774 0.272195,1.26741 0.382458,1.19926 0.110262,-0.0681 0.406577,-0.66357 0.658479,-1.32316 z m 19.721119,-1.02267 c 0.115567,-0.12115 1.215652,-0.0319 2.444636,0.19844 1.228982,0.23029 2.463358,0.41197 2.74306,0.40374 0.554159,-0.0163 -3.703881,-2.1017 -4.291354,-2.1017 -0.290296,0 -0.359473,-0.96742 -0.359473,-5.02708 0,-2.7649 -0.04453,-5.02708 -0.09897,-5.02708 -0.05443,0 -0.649742,0.30783 -1.322917,0.68407 l -1.223949,0.68408 -0.0085,4.14457 -0.0085,4.14457 -2.00156,1.1429 c -1.10086,0.62859 -1.947974,1.19648 -1.882476,1.26198 0.0655,0.0655 0.915697,-0.0657 1.889337,-0.29147 0.973637,-0.2258 1.880714,-0.34227 2.015728,-0.25883 0.135012,0.0834 0.503912,0.71233 0.819777,1.39752 l 0.574299,1.24582 0.250362,-1.19063 c 0.1377,-0.65484 0.344916,-1.28975 0.460486,-1.4109 z m -6.805319,-0.57665 3.373437,-2.07742 v -3.42233 -3.42233 l -0.595312,0.17064 c -3.195069,0.91585 -4.007647,1.03799 -6.945313,1.04398 -2.163138,0.004 -3.708821,-0.13612 -4.850016,-0.44093 -0.921258,-0.24606 -1.72493,-0.44739 -1.785938,-0.44739 -0.06101,0 -0.108016,1.45851 -0.104462,3.24114 l 0.0065,3.24115 3.631565,2.25764 c 1.997359,1.2417 3.691094,2.18465 3.763855,2.09545 0.07276,-0.0892 1.650338,-1.09702 3.505729,-2.2396 z m 0.133808,-9.25843 c 6.399768,-1.50891 12.018473,-6.35927 14.508832,-12.52477 1.281824,-3.17348 1.563089,-4.7283 1.563089,-8.64071 0,-4.14917 -0.379536,-6.05059 -1.854882,-9.29266 -1.233842,-2.71137 -2.692673,-4.73353 -4.939509,-6.84692 -2.342708,-2.20356 -4.276559,-3.39897 -7.134995,-4.41049 -7.716026,-2.73048 -16.642782,-0.20029 -21.906149,6.20906 -1.628206,1.98271 -3.447439,5.42746 -4.290057,8.1233 -0.542073,1.73429 -0.620242,2.5179 -0.620242,6.21771 0,3.70015 0.07797,4.48162 0.619056,6.20466 1.213073,3.86292 3.546634,7.70496 6.08751,10.02264 1.347369,1.22902 4.749557,3.46249 5.573019,3.65859 0.376749,0.0897 0.817851,0.26709 0.980229,0.39415 0.162377,0.12708 1.174408,0.46129 2.248958,0.7427 2.415762,0.63267 6.797739,0.70091 9.165141,0.14274 z M 46.764278,198.39316 c 3.088952,-4.8675 7.845084,-8.29696 13.338771,-9.61807 2.450729,-0.58934 7.061319,-0.57391 9.456462,0.0316 2.313544,0.58494 5.148456,1.87013 7.176001,3.25321 1.541338,1.05142 4.772641,4.21568 5.320448,5.21006 0.241691,0.43872 0.348369,0.46377 0.707112,0.16604 0.521523,-0.43282 0.527677,-1.05054 0.0172,-1.72546 -0.562772,-0.74405 -0.493223,-1.92527 0.133096,-2.26047 0.286856,-0.15352 2.125906,-0.40554 4.086775,-0.56005 l 3.565216,-0.28094 2.593956,2.70689 c 2.094844,2.18604 2.949147,2.8776 4.439952,3.59412 l 1.846001,0.88723 0.23042,-0.59597 c 0.310909,-0.80416 -0.0094,-5.68147 -0.47466,-7.22738 -0.205896,-0.68414 -0.922795,-2.18779 -1.593106,-3.34143 -1.221957,-2.10304 -1.381583,-3.12404 -0.488426,-3.12404 0.22249,0 1.1372,0.63544 2.03269,1.41209 4.864034,4.21853 7.590564,5.40142 13.631074,5.91376 l 1.94876,0.16529 -0.19601,-1.42513 c -0.55203,-4.01372 -2.7199,-7.40528 -7.78385,-12.17755 -2.93271,-2.76378 -3.59089,-3.66591 -2.95937,-4.05621 0.12888,-0.0797 1.52786,0.46134 3.10886,1.2022 6.75003,3.1631 10.12403,4.13635 12.37823,3.57058 1.00308,-0.25176 0.88722,-1.27387 -0.39364,-3.47277 -2.7416,-4.7066 -5.26336,-7.07185 -9.80892,-9.20014 -2.02475,-0.94801 -2.36904,-1.6805 -0.74973,-1.59507 0.50568,0.0267 2.88395,0.0817 5.28505,0.12231 3.93332,0.0665 4.48352,0.0201 5.55625,-0.46913 1.08915,-0.49668 3.175,-2.44381 3.175,-2.96387 0,-0.11987 -1.75617,-0.6123 -3.90261,-1.09429 -8.76058,-1.96721 -14.35364,-3.83475 -14.35364,-4.79272 0,-0.26228 0.0902,-0.53262 0.20047,-0.60077 0.11027,-0.0681 2.13713,-0.55641 4.50414,-1.08503 4.42859,-0.98902 8.7445,-2.35729 10.93191,-3.46573 2.58606,-1.31046 3.16858,-2.92498 3.34559,-9.27264 0.14513,-5.20473 -0.18869,-7.08921 -1.91711,-10.82247 -0.93167,-2.01233 -0.9941,-2.08406 -1.2665,-1.45521 -1.44827,3.34342 -4.72636,9.83103 -6.04797,11.96943 -3.27315,5.29608 -5.59599,7.00009 -11.20574,8.22043 l -2.910416,0.63313 -0.194381,3.28069 c -0.245843,4.14923 -0.726173,6.69849 -1.774159,9.41601 -1.500923,3.89202 -5.124124,9.1309 -8.993634,13.00412 -5.785734,5.79129 -11.743503,8.69962 -19.541433,9.5393 -5.61059,0.60415 -9.039154,0.30815 -14.962193,-1.29171 -6.695181,-1.80843 -10.490743,-3.99128 -15.416612,-8.86619 -3.153643,-3.12102 -5.141471,-5.62352 -7.2385,-9.11265 -2.500287,-4.16009 -3.446247,-7.67627 -3.865742,-14.36912 -0.154256,-2.46108 -0.189408,-2.57969 -0.76453,-2.57969 -1.022447,0 -5.663107,-1.26759 -7.107195,-1.94132 -2.066557,-0.96415 -3.446235,-2.3263 -5.488946,-5.41922 -1.815789,-2.74933 -4.7037983,-8.21124 -6.2158352,-11.7556 -0.419037,-0.98227 -0.8594336,-1.78594 -0.9786588,-1.78594 -0.288067,0 -1.6312912,3.02003 -2.2859802,5.13966 -0.9709129,3.14345 -0.9757357,10.02532 -0.00944,13.46605 0.5198224,1.85094 1.8263548,2.94492 4.9651426,4.1574 2.5491046,0.98469 7.6863276,2.36935 11.7707066,3.17263 2.666301,0.52438 2.365405,1.29904 -1.009031,2.59774 -2.736131,1.05304 -4.186663,1.45875 -10.526194,2.94413 l -5.2345277,1.22646 0.7774578,1.07325 c 0.4276016,0.59029 1.196638,1.33232 1.7089697,1.64896 1.1251293,0.69536 4.5301052,1.1527 7.1227312,0.95667 0.982266,-0.0743 2.619375,-0.20178 3.638021,-0.28335 1.721487,-0.13785 1.852084,-0.11124 1.852084,0.37748 0,0.38305 -0.413019,0.71465 -1.521355,1.22145 -2.436459,1.11411 -5.193066,2.94169 -6.381118,4.23057 -2.4135409,2.61838 -5.2804929,7.68369 -4.6849293,8.27729 0.1085596,0.1082 1.228964,0.19169 2.4897872,0.18553 2.5837471,-0.0126 4.2445471,-0.56672 10.3357291,-3.44834 3.262642,-1.54349 3.985147,-1.6339 3.540264,-0.443 -0.113577,0.30403 -1.448231,1.66367 -2.965898,3.02141 -4.587235,4.10387 -7.495157,8.58088 -7.863698,12.10689 l -0.176675,1.69034 1.930693,-0.17944 c 6.074633,-0.56457 8.836528,-1.78351 13.74941,-6.06819 0.922843,-0.80484 1.834872,-1.4031 2.026729,-1.32948 0.776864,0.29811 0.607536,1.10214 -0.685025,3.25276 -1.709265,2.84396 -1.871863,3.43854 -2.045967,7.48169 -0.168034,3.90217 -0.225237,3.83466 2.256459,2.66276 0.960321,-0.45348 2.295851,-1.48282 3.69034,-2.84427 1.201952,-1.17348 2.30328,-2.12169 2.447396,-2.10714 0.144113,0.0146 1.856631,0.0443 3.805592,0.0662 2.772241,0.031 3.574621,0.12061 3.686233,0.41147 0.07847,0.20448 0.01495,1.23219 -0.141118,2.2838 -0.245652,1.65509 -0.228132,1.94317 0.130379,2.14381 0.22779,0.12747 0.557675,0.67734 0.733076,1.22192 0.466304,1.44777 0.826677,1.83456 1.168736,1.25441 0.14951,-0.25357 0.729604,-1.18239 1.289103,-2.06403 z m 26.367108,-14.16259 c 1.236928,-0.28978 2.933568,-0.78418 3.770313,-1.09867 l 1.521354,-0.57179 -0.0016,-1.89921 c -0.0037,-4.70696 -1.408467,-16.88698 -2.390373,-20.72619 -0.920769,-3.60018 -1.900378,-5.15658 -4.414658,-7.01398 -2.368516,-1.74973 -2.845062,-1.86497 -7.876387,-1.90474 -4.341683,-0.0343 -4.541096,-0.0123 -5.689994,0.62731 -1.4928,0.83112 -2.118887,2.00998 -2.107025,3.96734 0.01804,2.97808 0.645946,5.38266 2.700099,10.34023 0.237755,0.57381 0.101799,1.16579 -0.850693,3.70417 -1.591512,4.24135 -3.152794,7.2406 -5.14227,9.8784 -0.941552,1.24838 -1.781615,2.38256 -1.866805,2.5204 -0.182941,0.29601 4.069128,1.71339 7.266694,2.42228 3.105764,0.68853 11.690821,0.54876 15.08125,-0.24555 z m -7.812347,-1.68792 c -0.07581,-0.19755 -0.105211,-2.4983 -0.06535,-5.11279 0.06943,-4.55305 0.09481,-4.7536 0.601652,-4.7536 0.510585,0 0.529166,0.17639 0.529166,5.02346 0,4.57719 -0.0412,5.03139 -0.46382,5.11278 -0.255103,0.0491 -0.525846,-0.0723 -0.601652,-0.26985 z m -7.65212,-0.187 c -0.08243,-0.13337 0.391655,-1.35376 1.05351,-2.71198 0.661858,-1.35822 1.510207,-3.45176 1.885225,-4.65231 0.537075,-1.71934 0.787583,-2.18281 1.179833,-2.18281 0.697716,0 0.637204,0.62161 -0.326345,3.35236 -1.598012,4.52885 -3.202221,7.14939 -3.792223,6.19474 z m 14.469904,-0.0882 c -1.303922,-1.62362 -2.780276,-6.32316 -2.657533,-8.45948 0.06855,-1.19312 0.157205,-1.39625 0.609388,-1.39625 0.474364,0 0.54673,0.23291 0.698743,2.24896 0.178105,2.36203 0.505765,3.49864 1.672114,5.80032 0.664253,1.31084 0.735158,2.13718 0.183386,2.13718 -0.132271,0 -0.360014,-0.14883 -0.506098,-0.33073 z m -7.692295,-14.92079 c 0.07753,-0.40497 0.432686,-0.52148 2.023195,-0.66373 1.45347,-0.13 2.192459,-0.34679 2.996978,-0.87919 1.044953,-0.69152 1.966359,-0.72976 1.749525,-0.0726 -0.06,0.18182 -0.615831,0.68777 -1.235189,1.12434 -0.99737,0.70301 -1.383461,0.80453 -3.377329,0.88806 -2.07704,0.087 -2.243947,0.0563 -2.15718,-0.39687 z m -2.710577,-8.27605 c -1.906754,-1.90675 -0.338606,-5.72346 2.128896,-5.18151 2.937034,0.64508 2.422472,5.95491 -0.577078,5.95491 -0.507582,0 -1.047511,-0.26909 -1.551818,-0.7734 z m -15.525031,5.48921 c 1.507004,-1.78721 2.734271,-2.29822 6.399351,-2.66452 1.96859,-0.19674 3.036567,-0.40941 2.966955,-0.59082 -0.05982,-0.15589 -0.246935,-0.94901 -0.415814,-1.76249 l -0.307051,-1.47905 -1.377675,-0.1655 c -4.379418,-0.52609 -5.84808,0.2005 -8.113702,4.01411 -1.185688,1.99581 -1.97039,4.03522 -2.258576,5.86996 l -0.187016,1.19062 1.113759,-1.57404 c 0.612568,-0.86572 1.593463,-2.14294 2.179769,-2.83827 z m 10.665185,0.78175 c 0.06161,-0.0616 -0.08987,-0.62593 -0.336602,-1.25406 l -0.448609,-1.14205 -2.657401,0.16093 c -3.040362,0.18412 -4.286227,0.48283 -5.282571,1.26656 -0.588936,0.46325 -0.647631,0.61777 -0.364342,0.95911 0.287925,0.34693 0.974387,0.38587 4.657609,0.26421 2.37595,-0.0785 4.370314,-0.1931 4.431916,-0.2547 z"
         id="path2240" />
    </g>
  </g>
</svg>
