<?xml version="1.0" encoding="UTF-8" standalone="no"?>
<!-- Created with Inkscape (http://www.inkscape.org/) -->

<svg
   width="118.83322mm"
   height="116.35647mm"
   viewBox="0 0 118.83322 116.35647"
   version="1.1"
   id="svg5"
   inkscape:version="1.1 (c68e22c387, 2021-05-23)"
   sodipodi:docname="golfscript_white.svg"
   xmlns:inkscape="http://www.inkscape.org/namespaces/inkscape"
   xmlns:sodipodi="http://sodipodi.sourceforge.net/DTD/sodipodi-0.dtd"
   xmlns="http://www.w3.org/2000/svg"
   xmlns:svg="http://www.w3.org/2000/svg">
  <sodipodi:namedview
     id="namedview7"
     pagecolor="#ffffff"
     bordercolor="#666666"
     borderopacity="1.0"
     inkscape:pageshadow="2"
     inkscape:pageopacity="0.0"
     inkscape:pagecheckerboard="0"
     inkscape:document-units="mm"
     showgrid="false"
     fit-margin-top="0"
     fit-margin-left="0"
     fit-margin-right="0"
     fit-margin-bottom="0"
     inkscape:zoom="0.67081229"
     inkscape:cx="121.49449"
     inkscape:cy="157.27201"
     inkscape:window-width="1920"
     inkscape:window-height="1017"
     inkscape:window-x="1912"
     inkscape:window-y="-8"
     inkscape:window-maximized="1"
     inkscape:current-layer="layer1" />
  <defs
     id="defs2" />
  <g
     inkscape:label="Calque 1"
     inkscape:groupmode="layer"
     id="layer1"
     transform="translate(-36.355759,-142.57408)">
    <path
       style="fill:#ffffff;stroke-width:0.264583"
       d="m 87.034008,258.02502 c -0.536171,-2.39507 -0.818873,-2.54156 -2.719475,-2.19948 -1.20031,0.22769 -2.23156,0.36481 -2.29167,0.3047 -0.11393,-0.11393 2.90726,-1.53014 3.43583,-1.61057 0.85555,-0.1302 0.985498,-0.49584 0.96379,-3.25482 l -0.06973,-8.86163 c 2.022,0.62302 1.843675,2.60369 2.259066,1.23715 0.12206,0 -0.05776,6.31727 -0.01611,7.73217 0.0666,2.26134 0.13975,2.60583 0.6049,2.84764 0.94736,0.49251 3.04271,1.77168 3.04271,1.85753 0,0.046 -0.72426,-0.0853 -1.60945,-0.29177 -0.8852,-0.2065 -1.73104,-0.30032 -1.87964,-0.20847 -0.1486,0.0918 -0.47659,0.62801 -0.72887,1.1915 -0.495047,0.77417 -1.074579,3.58616 -0.991351,1.25605 z m 19.503792,-1.13407 c -0.45231,-1.37052 -0.72395,-1.48625 -2.51248,-1.0705 -0.86545,0.20118 -1.60269,0.33664 -1.63832,0.30101 -0.0356,-0.0356 0.73334,-0.54346 1.70879,-1.12853 l 1.77357,-1.06377 0.0748,-2.64687 -0.0298,-7.89365 c 0.67864,-0.64679 1.35577,-1.09514 2.2947,-1.22183 0.0942,0 -0.0741,7.22571 -0.0331,8.92003 0.0586,2.42222 0.15937,3.12223 0.47142,3.27537 0.21828,0.10711 1.15072,0.53331 2.07209,0.94711 0.92137,0.41379 1.57048,0.78725 1.44248,0.82992 -0.12801,0.0427 -1.11998,-0.0912 -2.20438,-0.29744 -2.26787,-0.43137 -2.6331,-0.28428 -2.6331,1.06038 0,1.15214 -0.40473,1.14636 -0.78677,-0.0112 z M 94.095403,246.26192 c -2.63609,-0.48222 -3.59128,-0.81967 -6.87745,-2.42964 -1.52734,-0.74829 -2.52989,-1.51982 -4.36562,-3.35963 -2.45433,-2.45979 -3.69323,-4.2648 -4.78863,-6.97674 -1.2716,-3.14816 -1.55586,-4.72684 -1.55586,-8.6407 0,-3.91386 0.28426,-5.49255 1.55586,-8.64071 0.96778,-2.39599 2.23149,-4.33692 4.21048,-6.46688 9.74323,-10.48651 26.210307,-7.8903 32.743367,5.16235 1.67495,3.34644 2.18493,5.62817 2.19326,9.81295 0.009,4.3793 -0.4106,6.26712 -2.20382,9.92187 -2.70712,5.51737 -6.96753,9.2343 -12.57722,10.97281 -1.80812,0.56036 -6.718247,0.93996 -8.334367,0.64432 z m -17.46579,-32.79156 c -0.31004,-0.72333 -0.72801,-1.49674 -0.92884,-1.71868 -0.29688,-0.32811 -0.31209,-0.76093 -0.0813,-2.31555 0.20527,-1.38302 0.2032,-2.00912 -0.007,-2.26299 -0.22196,-0.26743 -1.20824,-0.33687 -4.14387,-0.29175 l -3.85259,0.0592 -2.03972,2.05036 c -1.42827,1.43571 -2.54362,2.2881 -3.72061,2.84342 -2.01515,0.95077 -2.14802,0.84779 -2.14628,-1.66356 0.003,-3.87308 0.76598,-6.45102 2.83645,-9.57972 0.57073,-0.86243 0.62754,-1.11606 0.37441,-1.67161 -0.16412,-0.3602 -0.42231,-0.65491 -0.57375,-0.65491 -0.15145,0 -1.23986,0.83345 -2.4187,1.85212 -2.88914,2.4966 -5.0539,3.87741 -7.05424,4.49961 -1.89388,0.58908 -7.65518,1.47975 -7.9118,1.22313 -0.0931,-0.0931 -0.0241,-0.95715 0.1533,-1.92007 0.74703,-4.0543 3.69687,-8.12322 9.75639,-13.45769 1.15569,-1.01741 1.44003,-1.88221 0.71085,-2.16202 -0.2318,-0.0889 -1.77285,0.48864 -3.50573,1.31395 -6.18204,2.94429 -8.81211,3.77194 -11.09576,3.49169 -1.2544,-0.15394 -1.38906,-0.23377 -1.38906,-0.82343 0,-0.78652 0.75922,-2.32656 2.20283,-4.46834 2.42322,-3.59512 3.96385,-4.93265 8.02977,-6.9712 2.3717,-1.18911 2.71038,-1.50557 2.16798,-2.02571 -0.26917,-0.25813 -0.70137,-0.28959 -1.68495,-0.12268 -1.93127,0.32775 -8.29327,0.30111 -9.525,-0.0399 -1.17759,-0.32599 -3.832301,-2.74252 -3.4188,-3.11205 0.13409,-0.11983 1.67255,-0.54204 3.4188,-0.93826 9.14796,-2.07561 14.68437,-3.93248 14.68437,-4.92501 0,-0.2679 -0.12216,-0.56259 -0.27147,-0.65487 -0.14931,-0.0923 -2.08408,-0.57329 -4.29948,-1.06891 -4.79661,-1.07307 -8.42454,-2.20732 -10.77488,-3.3687 -2.69551,-1.33193 -3.36823,-2.71199 -3.670842,-7.53053 -0.273141,-4.34929 0.04728,-7.7853 0.956092,-10.2526 0.42881,-1.16417 1.02405,-2.59195 1.32276,-3.17285 l 0.5431,-1.05617 0.87511,1.98221 c 2.73052,6.18489 6.344,12.48436 8.39803,14.64049 2.07561,2.17878 4.30258,3.23907 8.64137,4.11424 l 2.38125,0.48031 0.19299,2.88297 c 0.43034,6.42854 1.2453,9.38851 3.78047,13.73088 4.27512,7.32266 11.32496,13.9431 17.61973,16.54654 2.25942,0.93448 8.01182,2.52784 10.55369,2.92328 2.51229,0.39084 10.226917,0.14699 12.957027,-0.40956 6.30327,-1.28496 11.24688,-4.12785 16.54401,-9.51387 3.71124,-3.77352 6.87015,-8.30408 8.56188,-12.27959 1.12505,-2.64382 1.6524,-5.39771 1.82077,-9.5082 0.13493,-3.29418 0.17808,-3.51806 0.7014,-3.63882 0.30669,-0.0708 1.41663,-0.30439 2.46653,-0.51915 4.3651,-0.89289 6.83801,-2.25269 8.923,-4.90656 1.88068,-2.39379 4.61777,-7.16581 6.61708,-11.53661 0.98987,-2.164 1.83633,-3.97615 1.88103,-4.027 0.16131,-0.1835 1.44843,2.6204 2.13061,4.64139 0.56206,1.66515 0.72335,2.73254 0.83187,5.50523 0.25008,6.38938 -0.69671,10.05837 -2.9314,11.35974 -1.58836,0.92497 -7.69927,2.88195 -11.55589,3.7007 -1.81901,0.38617 -3.56205,0.75616 -3.87342,0.82221 -0.70238,0.14898 -1.02381,0.90356 -0.56807,1.33358 1.03192,0.97369 11.13635,3.96737 16.94597,5.02064 0.54731,0.0992 1.05984,0.28514 1.13894,0.41314 0.0791,0.128 -0.43151,0.80808 -1.13472,1.51128 -0.92123,0.92123 -1.62353,1.36543 -2.51288,1.58937 -1.35917,0.34224 -7.5771,0.39467 -9.48291,0.08 -1.46264,-0.24153 -1.83583,-0.14028 -1.83583,0.49807 0,0.33671 0.47107,0.70313 1.52135,1.18338 4.89505,2.23833 8.02353,5.25802 10.48057,10.11611 1.05221,2.08046 0.97102,2.38462 -0.69098,2.58858 -2.2691,0.27847 -5.2228,-0.63214 -11.28369,-3.47866 -3.18725,-1.49691 -3.60031,-1.61494 -3.79879,-1.0855 -0.23695,0.63209 0.21456,1.19548 2.8455,3.55059 3.16847,2.83628 5.00795,5.0542 6.47437,7.80638 0.98589,1.85031 2.0922,5.6308 1.74839,5.97461 -0.2289,0.22891 -5.12245,-0.48214 -7.11142,-1.03331 -2.68053,-0.74282 -4.40779,-1.7422 -7.56513,-4.37718 l -2.74963,-2.2947 -0.49009,0.60523 c -0.48114,0.59419 -0.47766,0.62528 0.19048,1.70218 1.82836,2.94688 2.48517,4.73521 2.7465,7.47794 0.25949,2.72341 0.13471,4.5992 -0.30593,4.5992 -0.13549,0 -0.92359,-0.3196 -1.75132,-0.71021 -1.4362,-0.67776 -4.20801,-3.16005 -5.96985,-5.34628 l -0.72297,-0.89712 -3.75608,0.27857 c -2.06584,0.1532 -3.9599,0.35954 -4.20902,0.45853 -0.73175,0.29076 -0.80296,1.08254 -0.2031,2.25836 0.57504,1.12718 0.54594,1.84148 -0.075,1.84148 -0.19294,0 -0.82113,-0.61673 -1.39598,-1.37051 -2.05679,-2.69704 -5.82482,-5.33924 -9.43735,-6.61761 -7.563407,-2.67648 -15.874557,-0.82894 -21.651857,4.81312 -1.83137,1.78849 -2.7079,2.93774 -4.43364,5.81307 l -0.55114,0.91827 z m 15.21683,-14.94337 c -2.44617,-0.3712 -8.86354,-2.22552 -8.86354,-2.56115 0,-0.0762 0.8502,-1.28686 1.88934,-2.69025 2.09396,-2.82796 3.37055,-5.29406 5.08937,-9.8315 l 1.14905,-3.03334 -0.87814,-2.05165 c -1.16251,-2.71603 -1.61089,-4.28264 -1.96413,-6.86251 -0.35568,-2.5978 -0.15984,-3.95036 0.72411,-5.00087 1.23897,-1.47243 2.12227,-1.68695 6.76566,-1.6431 2.40455,0.0227 4.593357,0.17383 5.159377,0.35623 1.48112,0.47728 4.41668,2.75978 5.33769,4.15025 0.44854,0.67717 1.10277,2.1405 1.45384,3.25184 1.01902,3.22577 2.24164,12.4751 2.68258,20.29417 l 0.18268,3.23949 -1.16186,0.51096 c -1.61664,0.71096 -4.97649,1.52908 -7.63721,1.85965 -2.509267,0.31174 -7.909817,0.31815 -9.928817,0.0118 z m 0.13735,-4.56841 c 0.61863,-1.33148 1.46669,-3.43234 1.88456,-4.66859 0.67688,-2.00245 0.71628,-2.29123 0.36112,-2.64639 -0.56127,-0.56128 -0.97124,-0.0471 -1.56588,1.96369 -0.25819,0.87313 -1.07084,2.86432 -1.80589,4.42489 -1.08414,2.30171 -1.27565,2.91064 -1.0144,3.22541 0.55045,0.66326 0.97704,0.20507 2.14049,-2.29901 z m 6.47723,-2.4445 c 0,-4.84706 -0.0186,-5.02345 -0.52916,-5.02345 -0.50684,0 -0.53223,0.20055 -0.60165,4.7536 -0.0399,2.61448 -0.0105,4.91524 0.0653,5.11279 0.0758,0.19754 0.34655,0.31898 0.60165,0.26985 0.42262,-0.0814 0.46382,-0.53559 0.46382,-5.11279 z m 6.884057,4.62593 c 0.0926,-0.14988 -0.12212,-0.77495 -0.4772,-1.38907 -1.11882,-1.93494 -1.83395,-4.21876 -2.0066,-6.40823 -0.14862,-1.88464 -0.22493,-2.11667 -0.69609,-2.11667 -0.45439,0 -0.54156,0.20563 -0.61689,1.45521 -0.11096,1.84077 0.32221,3.82207 1.32357,6.05391 1.07984,2.40676 1.94944,3.25233 2.47321,2.40485 z m -5.16426,-14.56421 c 1.46843,-0.33507 3.2262,-1.50307 3.11681,-2.07105 -0.12306,-0.63902 -0.89301,-0.6498 -1.73897,-0.0243 -0.88182,0.65195 -2.349947,1.04177 -3.957527,1.05079 -0.91172,0.005 -1.12448,0.0981 -1.12448,0.49138 0,0.26679 0.0794,0.56445 0.17639,0.66146 0.26084,0.26085 2.16656,0.20238 3.527777,-0.10822 z m -3.070997,-8.68169 c 2.37011,-2.47386 -0.46074,-6.85754 -3.09188,-4.78789 -0.83621,0.65777 -1.34539,2.11357 -1.11157,3.17812 0.50002,2.2766 2.742,3.13519 4.20345,1.60977 z m -21.67806,8.05529 c 0.48619,-2.72765 3.14796,-7.38929 4.87829,-8.54347 0.77968,-0.52008 1.23625,-0.59914 3.43958,-0.59563 1.39731,0.002 4.931722,0.3704 5.084622,0.47734 0.23357,0.16331 0.363538,2.25216 0.363538,2.91226 0,0.11244 -2.87783,0.30205 -4.29666,0.38939 -4.19695,0.25838 -5.35161,0.88172 -7.94057,4.28675 -1.70573,2.24339 -1.74187,2.26877 -1.5288,1.07336 z m 5.23595,-1.75679 c -0.68834,-0.24344 2.39328,-1.57848 4.27063,-1.85015 2.96799,-0.42948 5.668659,-1.11758 6.131719,0.0613 l 0.114814,1.73559 -6.125163,0.1284 c -2.175667,0.0456 -4.15211,0.01 -4.392,-0.0751 z"
       id="path972"
       sodipodi:nodetypes="ccsssccsssssccsssccccssssssccscsssssscssscsccscsscsssssscscssssssssscssssssscssscssssssssssssssssssssssssssssssssssscsssssscssssssssccsssscsssssssscssssscssssscssssccscssssscsccssccssssssccssssssscssss" />
  </g>
</svg>
