<?xml version="1.0" encoding="UTF-8" standalone="no"?>
<!-- Created with Inkscape (http://www.inkscape.org/) -->

<svg
   width="190mm"
   height="297mm"
   viewBox="0 0 190 297"
   version="1.1"
   id="svg5"
   inkscape:version="1.1 (c68e22c387, 2021-05-23)"
   sodipodi:docname="golfer.svg"
   xmlns:inkscape="http://www.inkscape.org/namespaces/inkscape"
   xmlns:sodipodi="http://sodipodi.sourceforge.net/DTD/sodipodi-0.dtd"
   xmlns="http://www.w3.org/2000/svg"
   xmlns:svg="http://www.w3.org/2000/svg">
  <sodipodi:namedview
     id="namedview7"
     pagecolor="#ffffff"
     bordercolor="#666666"
     borderopacity="1.0"
     inkscape:pageshadow="2"
     inkscape:pageopacity="0.0"
     inkscape:pagecheckerboard="0"
     inkscape:document-units="mm"
     showgrid="false"
     inkscape:zoom="0.25"
     inkscape:cx="-310"
     inkscape:cy="930"
     inkscape:window-width="1920"
     inkscape:window-height="1017"
     inkscape:window-x="1912"
     inkscape:window-y="-8"
     inkscape:window-maximized="1"
     inkscape:current-layer="layer1" />
  <defs
     id="defs2" />
  <g
     inkscape:label="Calque 1"
     inkscape:groupmode="layer"
     id="layer1">
    <path
       style="fill:#ffffff;stroke-width:0.590492"
       d="m 140.35544,293.95078 c -0.18457,-1.42004 -1.8849,-19.92025 -3.77857,-41.11154 -1.89369,-21.19129 -3.57998,-38.52963 -3.74732,-38.52963 -0.16738,0 -1.45927,5.64659 -2.87094,12.54795 -1.41169,6.90139 -2.88364,13.478 -3.27101,14.6147 -0.53732,1.57668 -33.701594,51.01634 -35.768225,53.3215 -0.338026,0.37706 -19.544368,-11.41253 -21.477405,-13.18365 -0.277634,-0.25438 6.333063,-11.71454 14.690442,-25.46698 l 15.195249,-25.0045 6.747529,-34.5438 c 7.69402,-39.38931 7.35607,-35.16053 4.57768,-57.27776 -2.24098,-17.83947 -4.86848,-26.40358 -9.95302,-32.4412 -3.064594,-3.63901 -4.888742,-7.479616 -5.662233,-11.921288 -1.630161,-9.361079 3.564112,-19.820507 11.905443,-23.973275 2.01195,-1.001668 47.19404,-13.742693 48.73417,-13.742693 0.17185,0 0.16961,-0.372774 -0.004,-0.828415 -0.27887,-0.726691 -20.0243,-25.90149 -21.99063,-28.037351 -0.62981,-0.684131 -1.91614,0.08615 -7.88989,4.723925 -6.4513,5.008656 -7.10606,5.688413 -6.8116,7.071381 0.58551,2.75007 -0.86506,9.554151 -2.94801,13.828015 C 110.9168,64.492957 99.114459,70.819615 87.895778,69.07898 85.70169,68.738567 83.184329,68.185442 82.301636,67.849848 80.87517,67.307503 80.394689,67.491513 77.979432,69.505206 76.484896,70.751233 60.049513,84.057345 41.456397,99.074297 22.863214,114.09127 7.6506543,126.49556 7.6506543,126.63938 c 0,0.14373 0.8635951,0.62338 1.9191011,1.06568 2.8967866,1.21386 5.2354436,3.41554 10.7499136,10.12024 6.518283,7.92517 7.610116,9.82598 7.661558,13.33838 0.07767,5.29872 -3.90254,8.3743 -10.92052,8.43855 -3.593386,0.0328 -4.357111,-0.16805 -6.589626,-1.7343 C 7.2740544,155.62506 4.8809227,150.96501 2.0057973,141.38379 -0.4674822,133.1417 -0.61188971,128.3036 1.533956,125.5756 2.2060619,124.72116 19.01192,110.56068 38.880295,94.107866 L 75.004644,64.193653 72.014613,61.203622 C 58.808731,47.997739 62.741154,25.403439 79.670074,17.217996 c 3.986946,-1.927769 5.050301,-2.176434 10.231854,-2.392783 6.536958,-0.272948 9.639806,0.360656 14.713902,3.004582 3.14027,1.636298 8.89001,6.947316 10.32976,9.54163 0.57787,1.041283 1.06849,0.757935 6.0197,-3.476605 l 5.39053,-4.610282 -1.46835,-1.925114 -1.46836,-1.925136 6.90667,-5.9531685 6.90666,-5.9531689 1.78714,1.7252127 1.78712,1.725235 3.47621,-2.8720365 3.47618,-2.8720143 3.46138,4.2348078 c 1.90376,2.3291554 3.4617,4.4055168 3.4621,4.6141657 4e-4,0.208672 -1.32789,1.392566 -2.95174,2.630938 -1.62386,1.238371 -2.95157,2.396265 -2.95048,2.573111 0.001,0.176757 8.67536,9.614632 19.27618,20.972888 10.60081,11.358257 19.63446,21.51356 20.07477,22.567363 2.18128,5.220542 -0.21871,12.105056 -5.10438,14.642771 -0.81192,0.42174 -9.97932,3.063993 -20.37198,5.871687 -10.39267,2.807716 -19.21835,5.215475 -19.61261,5.35061 -0.47785,0.163812 0.15131,1.878893 1.88681,5.143946 5.79248,10.897325 8.7924,21.140135 11.22183,38.315465 2.36638,16.7294 3.10539,29.59143 5.34057,92.94818 1.16867,33.12661 2.27934,63.31181 2.46813,67.07817 l 0.34327,6.84796 -8.20515,0.405 c -4.51285,0.22273 -9.82534,0.56165 -11.80558,0.75313 l -3.6004,0.34814 z"
       id="path854" />
  </g>
</svg>
