<?xml version="1.0" encoding="UTF-8" standalone="no"?>
<!-- Created with Inkscape (http://www.inkscape.org/) -->

<svg
   width="254.45692mm"
   height="260.48102mm"
   viewBox="0 0 254.45692 260.48102"
   version="1.1"
   id="svg5"
   inkscape:version="1.1 (c68e22c387, 2021-05-23)"
   sodipodi:docname="google.svg"
   xmlns:inkscape="http://www.inkscape.org/namespaces/inkscape"
   xmlns:sodipodi="http://sodipodi.sourceforge.net/DTD/sodipodi-0.dtd"
   xmlns="http://www.w3.org/2000/svg"
   xmlns:svg="http://www.w3.org/2000/svg">
  <sodipodi:namedview
     id="namedview7"
     pagecolor="#ffffff"
     bordercolor="#666666"
     borderopacity="1.0"
     inkscape:pageshadow="2"
     inkscape:pageopacity="0.0"
     inkscape:pagecheckerboard="0"
     inkscape:document-units="mm"
     showgrid="false"
     fit-margin-top="0"
     fit-margin-left="0"
     fit-margin-right="0"
     fit-margin-bottom="0"
     inkscape:zoom="0.47433592"
     inkscape:cx="195.00948"
     inkscape:cy="620.86801"
     inkscape:window-width="1920"
     inkscape:window-height="1017"
     inkscape:window-x="1912"
     inkscape:window-y="-8"
     inkscape:window-maximized="1"
     inkscape:current-layer="layer1" />
  <defs
     id="defs2" />
  <g
     inkscape:label="Calque 1"
     inkscape:groupmode="layer"
     id="layer1"
     transform="translate(-1.4120205,10.078274)">
    <path
       style="fill:#ffffff;stroke-width:1.26101"
       d="M 113.0095,249.57687 C 55.422701,240.4936 11.8488,197.00016 3.1447633,139.91492 0.8301124,124.7343 0.83386302,114.49098 3.1595301,100.19311 17.338681,13.013525 111.20313,-35.642477 189.19393,3.7594893 c 9.80745,4.9548955 27.74219,16.9889987 27.74219,18.6149257 -37.36984,38.236191 0,0 -37.36984,38.236191 l -6.51744,-4.385879 C 132.02397,32.949347 82.295385,48.186261 63.206684,87.134081 c -10.51124,23.159889 -9.125505,46.874659 0.17854,66.651909 4.049821,8.49638 7.098193,12.6882 14.703273,20.2186 11.024832,10.91662 20.770818,16.54199 34.935433,20.1647 26.11226,6.67838 57.812,-1.22864 73.42853,-18.31562 7.01324,-8.79659 12.29272,-17.80733 14.40577,-28.37269 h -34.86147 -34.86149 c 0.6825,-51.07089 0,0 0.6825,-51.07089 120.47949,-0.654859 0,0 120.47949,-0.654859 l 1.37199,3.480057 c 0.7546,1.913982 1.66978,9.790972 2.03371,17.504432 2.99287,63.43267 -34.72828,116.01015 -93.62098,130.49323 -11.70976,2.87973 -37.78122,4.12508 -49.0725,2.34407 z"
       id="path890"
       sodipodi:nodetypes="sscscccccssccccccsssss" />
  </g>
</svg>
