<?xml version="1.0" encoding="UTF-8" standalone="no"?>
<!-- Created with Inkscape (http://www.inkscape.org/) -->

<svg
   width="148.27193mm"
   height="148.27193mm"
   viewBox="0 0 148.27192 148.27192"
   version="1.1"
   id="svg5"
   sodipodi:docname="groovy.svg"
   inkscape:version="1.1 (c68e22c387, 2021-05-23)"
   xmlns:inkscape="http://www.inkscape.org/namespaces/inkscape"
   xmlns:sodipodi="http://sodipodi.sourceforge.net/DTD/sodipodi-0.dtd"
   xmlns="http://www.w3.org/2000/svg"
   xmlns:svg="http://www.w3.org/2000/svg">
  <sodipodi:namedview
     id="namedview7"
     pagecolor="#ffffff"
     bordercolor="#666666"
     borderopacity="1.0"
     inkscape:pageshadow="2"
     inkscape:pageopacity="0.0"
     inkscape:pagecheckerboard="0"
     inkscape:document-units="mm"
     showgrid="false"
     inkscape:zoom="0.94867184"
     inkscape:cx="121.74916"
     inkscape:cy="261.94516"
     inkscape:window-width="1920"
     inkscape:window-height="1017"
     inkscape:window-x="1912"
     inkscape:window-y="-8"
     inkscape:window-maximized="1"
     inkscape:current-layer="layer1"
     fit-margin-top="0"
     fit-margin-left="0"
     fit-margin-right="0"
     fit-margin-bottom="0"
     width="128.91995mm" />
  <defs
     id="defs2" />
  <g
     inkscape:label="Calque 1"
     inkscape:groupmode="layer"
     id="layer1"
     transform="translate(-3.7613592,-131.0747)">
    <path
       style="fill:#ffffff;stroke:#000000;stroke-width:0.264583px;stroke-linecap:butt;stroke-linejoin:miter;stroke-opacity:0.0588235"
       d="m 43.020122,179.26213 c -15.409153,20.56878 -15.339427,20.70823 -15.339427,20.70823 l 5.787146,9.41283 -2.300912,3.27706 6.066047,7.66971 63.867794,-0.97615 4.74128,10.04036 13.52659,-3.48624 5.29907,-3.79999 2.16147,-7.00733 -3.13761,-18.40731 -2.37064,-4.95046 -3.90458,1.6734 -45.150094,-1.29544 -20.042476,2.41103 -2.649537,-15.5486 z"
       id="path1740" />
    <g
       id="g1369"
       transform="translate(-43.926544,105.7026)">
      <path
         style="fill:#fdfdfd;stroke-width:0.264583"
         d="m 167.38483,134.20357 c 0,-0.35782 -1.32593,-2.70945 -3.73374,-6.6221 -1.43894,-2.33826 -2.61626,-4.38569 -2.61626,-4.54985 0,-0.16415 0.72865,-0.56414 1.61923,-0.88886 4.45308,-1.62367 8.03194,-5.35869 9.33147,-9.73865 0.58194,-1.96139 0.54838,-6.10624 -0.0785,-9.69529 -0.77253,-4.422945 -0.7845,-4.609894 -0.31126,-4.861143 0.23059,-0.122425 3.51489,-1.373018 7.29843,-2.779096 9.24893,-3.437176 17.06563,-6.558621 17.06563,-6.814825 0,-0.367417 -14.29292,-0.106082 -24.41049,0.446325 l -2.58236,0.140994 -0.63449,-1.43469 c -0.34897,-0.78908 -0.93854,-1.633916 -1.31016,-1.877412 -1.63185,-1.069231 -4.6964,-0.700209 -6.20301,0.746951 l -0.87696,0.842354 -0.71054,-0.849757 c -1.2984,-1.552806 -2.65601,-1.749706 -4.75204,-0.689216 l -1.40326,0.709986 -1.37866,-0.511549 c -1.98643,-0.737057 -8.28325,-0.745037 -9.90945,-0.01257 -0.95425,0.429823 -1.22047,0.452329 -1.92053,0.162351 -1.99388,-0.825879 -5.86907,-6.105914 -12.13657,-16.536332 -5.0779,-8.450678 -5.67948,-9.192391 -6.62872,-8.1727 -0.65948,0.708428 -5.77286,9.036242 -7.28698,11.867799 -2.88725,5.399461 -7.50687,12.351846 -8.51154,12.809604 -0.45295,0.206375 -1.33687,0.253942 -2.59701,0.139751 -2.03275,-0.184203 -2.53915,-0.03985 -3.935765,1.121939 -0.945957,0.786902 -1.655996,0.797107 -1.86698,0.02684 -0.08968,-0.327422 -0.285964,-2.083594 -0.436184,-3.902605 -0.752422,-9.11116 -0.818009,-9.388255 -2.562521,-10.826229 -1.367412,-1.127135 -2.999849,-1.715 -4.158687,-1.4976 -3.361544,0.630629 -11.33924,8.515261 -15.77323,15.589227 l -1.134634,1.810187 -12.484584,-0.193355 c -8.702636,-0.134784 -12.537064,-0.10844 -12.65783,0.08696 -0.179752,0.290846 2.402334,1.369433 8.695472,3.632269 4.873331,1.752314 11.901638,4.552278 13.685658,5.452147 0.914757,0.461407 1.664763,1.054034 1.893334,1.496039 0.20818,0.402577 1.044557,1.478416 1.858613,2.390746 0.814057,0.91233 1.480103,1.78048 1.480103,1.92923 0,0.14875 -0.416718,0.81622 -0.926041,1.48326 -1.073627,1.40608 -1.139423,2.05919 -0.362141,3.59464 1.056862,2.08774 3.995579,6.28553 4.952392,7.07422 1.208182,0.99588 2.334172,1.02231 5.331624,0.12514 2.58033,-0.77233 2.910416,-0.80134 2.910416,-0.25579 0,0.81949 -2.118034,4.53236 -8.026646,14.07054 -1.551699,2.50488 -2.82127,4.63382 -2.82127,4.73097 0,0.59347 0.906761,0.25999 25.267711,-9.29273 13.4292,-5.26603 19.56497,-7.5332 20.38749,-7.5332 0.79818,0 5.25992,1.63931 15.46355,5.68154 4.29286,1.70065 11.73427,4.61426 16.53646,6.47469 14.354,5.56094 13.36146,5.19704 13.36146,4.89885 z m -15.73691,-13.90743 c -0.72442,-0.14835 -1.36023,-0.31284 -1.41292,-0.36553 -0.0527,-0.0527 0.3829,-0.72999 0.96798,-1.50511 1.2517,-1.65827 1.62488,-2.52537 1.85911,-4.31972 0.16508,-1.26457 0.20758,-1.3214 0.96386,-1.28847 0.43514,0.0189 1.44601,0.22589 2.24638,0.45988 1.63351,0.47756 4.67972,0.56201 6.09455,0.16896 0.51434,-0.14289 1.48525,-0.60865 2.15756,-1.03502 0.98423,-0.62418 1.40797,-1.15321 2.17488,-2.71528 0.97424,-1.98439 1.5317,-4.45361 1.00547,-4.45361 -0.15462,0 -0.65043,0.64547 -1.1018,1.43439 -2.38875,4.17509 -5.26654,4.09698 -6.58719,-0.17879 -0.29635,-0.95947 -0.84944,-3.62878 -1.22908,-5.93181 -0.90446,-5.486609 -1.28428,-7.086692 -2.28089,-9.608717 -0.89515,-2.265249 -0.88648,-3.139472 0.0263,-2.650974 0.69741,0.373245 1.32652,1.664187 2.38659,4.897356 1.06951,3.261955 2.09635,5.341768 3.0833,6.245069 1.01949,0.933076 1.42695,1.036096 2.43001,0.614336 0.96476,-0.405651 1.62989,-1.6725 1.62989,-3.104417 0,-1.243569 -0.85654,-4.461725 -1.8704,-7.02739 -0.46971,-1.188646 -0.78578,-2.229411 -0.70237,-2.312815 0.38741,-0.387408 1.25403,0.294121 1.77012,1.392063 0.69215,1.472483 2.10689,6.567498 3.09218,11.136129 0.6185,2.86791 0.72993,4.01464 0.7406,7.62228 l 0.0126,4.2465 -0.99958,2.02306 c -1.50751,3.05109 -3.59642,4.62398 -7.64207,5.75426 -2.27693,0.63614 -6.88255,0.89913 -8.81505,0.50337 z m -70.759948,-7.60097 c -0.739854,-0.63711 -3.116601,-3.87704 -3.738798,-5.09664 l -0.531037,-1.04092 0.734907,-0.28411 c 0.404198,-0.15626 2.34225,-0.82103 4.306781,-1.47727 4.510363,-1.50665 7.98416,-3.16116 9.568987,-4.55756 1.769941,-1.559492 2.347439,-2.922813 2.529298,-5.970993 0.08487,-1.422514 0.04699,-2.517942 -0.08702,-2.516325 -0.130519,0.0016 -0.654029,0.742074 -1.163352,1.645549 -1.253355,2.223297 -4.504182,5.487033 -6.35,6.37521 -4.861647,2.339349 -10.39305,0.802049 -11.599185,-3.22367 -0.964338,-3.218667 0.408813,-6.494391 5.616678,-13.398913 2.28513,-3.029596 6.544979,-7.33065 8.097099,-8.175417 1.757604,-0.956609 3.276053,-0.885319 4.076666,0.191395 0.491048,0.660389 0.552712,1.090853 0.530611,3.704166 -0.03968,4.692349 -1.383509,8.707695 -3.995769,11.939324 -2.253721,2.788081 -5.246195,3.799829 -7.251036,2.451555 -0.857012,-0.57635 -0.9027,-0.688618 -0.977744,-2.402576 -0.09361,-2.13815 0.411533,-4.079637 1.70357,-6.547511 1.846985,-3.527867 3.32817,-4.063548 3.479829,-1.258507 0.05924,1.095653 -0.08772,1.808967 -0.621244,3.015322 -0.914776,2.068433 -1.13647,4.107915 -0.544703,5.011065 0.605261,0.923748 1.211858,0.840439 2.34487,-0.322045 2.690143,-2.760115 5.190363,-11.49735 4.062492,-14.196728 -0.411999,-0.986049 -0.461338,-1.015365 -1.479145,-0.878847 -1.32174,0.177281 -3.089175,1.457256 -5.411388,3.918926 -4.478634,4.747588 -6.762851,9.169935 -6.762851,13.093182 0,1.649127 0.121338,2.154229 0.860518,3.582133 1.128921,2.180786 2.034069,2.725513 4.551251,2.738985 1.582026,0.0085 2.078514,-0.108643 3.279357,-0.773538 2.593057,-1.435749 4.539041,-4.063284 6.002364,-8.104598 0.90955,-2.511941 1.601859,-3.777478 1.949066,-3.56289 0.11833,0.07313 0.2823,0.761534 0.364382,1.529784 0.08208,0.768252 0.594511,2.82557 1.138732,4.57182 1.723086,5.528866 2.00006,6.780877 2.019356,9.128122 0.0223,2.71267 -0.349285,3.72023 -2.037718,5.5253 -1.867075,1.99605 -5.035621,3.4141 -11.311591,5.06239 -2.668466,0.70083 -2.872804,0.7194 -3.354237,0.30483 z m 69.362888,-5.49805 c -1.85267,-0.93613 -3.35562,-3.9561 -5.08168,-10.210945 -1.19998,-4.34848 -1.99911,-6.750343 -2.41106,-7.246715 -0.39245,-0.472871 -0.0754,-1.343782 0.54866,-1.506966 0.28087,-0.07345 0.63653,0.0181 0.79035,0.203443 0.15382,0.185346 0.80333,1.944704 1.44336,3.909682 1.88306,5.781294 2.50864,6.678909 4.6548,6.678909 1.60316,0 2.62982,-0.710396 3.14883,-2.17883 0.7245,-2.049841 -0.51777,-5.164744 -2.70692,-6.787439 -0.94876,-0.70326 -1.20916,-0.342657 -1.0381,1.437566 0.0997,1.037415 0.0373,1.335805 -0.30704,1.467927 -0.63452,0.243488 -1.66868,-0.545851 -2.27675,-1.737762 -0.72073,-1.412754 -0.68433,-2.276288 0.11814,-2.802081 1.23113,-0.806664 3.68596,0.192119 5.74151,2.336012 1.81659,1.894673 2.10677,3.005383 2.26944,8.68666 0.11671,4.075859 0.0753,4.777619 -0.33266,5.637329 -0.92705,1.9536 -2.98743,2.90824 -4.56088,2.11321 z m -43.51805,-0.62257 c -2.08855,-0.6527 -3.64173,-2.4984 -3.64173,-4.3276 0,-2.293068 -1.70044,-8.243994 -2.76986,-9.693509 -0.368352,-0.499268 -0.669728,-1.035584 -0.669728,-1.191815 0,-0.498952 1.351758,-2.293459 1.652168,-2.193319 0.1591,0.05303 0.4475,0.553458 0.64089,1.112059 0.4189,1.209972 0.81517,1.732704 1.31351,1.732704 0.20173,0 1.07909,-0.654844 1.94968,-1.455209 0.8706,-0.800364 1.63806,-1.455208 1.70547,-1.455208 0.0674,0 0.42791,0.305345 0.80111,0.678545 0.83676,0.836766 1.99787,0.798677 2.38263,-0.07816 0.57444,-1.309148 1.6217,-0.879565 1.3526,0.554839 -0.24007,1.279692 -1.62495,3.032443 -3.13233,3.964382 l -1.23787,0.765318 -1.73234,-0.693502 c -0.95279,-0.381426 -1.85015,-0.693502 -1.99413,-0.693502 -0.42981,0 -0.29812,1.678776 0.27801,3.544056 0.37585,1.216872 0.85399,2.077977 1.57418,2.835056 0.9783,1.028415 1.09603,1.078375 2.17216,0.921895 2.34488,-0.34096 2.41791,-0.33058 2.6172,0.37191 0.10321,0.3638 0.19952,1.45194 0.21402,2.41808 0.0198,1.31711 -0.0895,1.893 -0.43665,2.30168 -0.53525,0.63007 -1.99155,0.90863 -3.03899,0.5813 z m 10.38132,-2.42331 c -2.36542,-0.94322 -3.5026,-3.98692 -2.78158,-7.444936 0.50865,-2.439503 2.45113,-6.376503 3.84569,-7.794416 1.19058,-1.210506 2.23026,-1.556845 3.97216,-1.323208 1.72345,0.231164 2.78869,1.088428 3.73103,3.002582 1.6357,3.32258 1.25932,7.442907 -0.95567,10.461928 -1.97469,2.69152 -5.41223,4.05482 -7.81163,3.09805 z m 5.31808,-5.748133 c 1.337,-0.8479 2.75771,-2.509597 3.17907,-3.718317 0.41464,-1.189424 -0.34049,-3.227308 -1.73524,-4.682951 -1.12213,-1.171117 -1.88887,-1.4332 -2.4758,-0.84627 -0.51227,0.512274 -0.36836,1.469068 0.39429,2.621516 0.78007,1.178761 0.68071,1.692884 -0.43667,2.259536 -0.87612,0.444305 -2.1158,0.0066 -3.07851,-1.086847 -0.45045,-0.511651 -0.89694,-0.85235 -0.99218,-0.757103 -0.34879,0.34879 -0.1482,2.627755 0.32186,3.656857 0.50912,1.114602 2.68617,3.307292 3.28371,3.307292 0.19304,0 0.8858,-0.339172 1.53947,-0.753713 z m 11.38936,5.217693 c -3.50515,-0.64631 -5.82672,-3.725859 -5.45957,-7.242105 0.35316,-3.382206 1.56558,-6.822065 2.81531,-7.987515 1.2486,-1.164402 4.25162,-1.278792 6.26317,-0.238577 2.09379,1.082738 4.01071,4.39805 4.21799,7.294983 0.37386,5.225234 -3.2617,9.016814 -7.8369,8.173214 z m 3.79956,-6.673598 c 1.32039,-0.614878 3.04078,-2.263309 3.04078,-2.913602 0,-1.239179 -4.58596,-6.088637 -5.61911,-5.941968 -0.426,0.06048 -0.62231,0.290362 -0.68084,0.797256 -0.0628,0.544147 0.17138,0.958406 0.99219,1.754976 1.23572,1.199229 1.29591,1.448652 0.48639,2.015662 -1.28614,0.900845 -2.7486,0.31746 -3.65422,-1.45769 -0.29205,-0.572469 -0.64764,-1.04085 -0.7902,-1.04085 -0.33524,0 -0.3359,2.778789 -0.001,3.946718 0.34956,1.218854 1.20257,2.086616 2.78444,2.83259 1.63449,0.770787 1.80043,0.77112 3.44151,0.0069 z"
         id="path1375"
         sodipodi:nodetypes="sssssssssscssscsscsssssssssssssscssssssssssssssssssssssscssssssssssssssssssscsssssscsssssssssssssssssssssssssssssssssssssssssssssssssssssssssssssssssscssssssssssssssssssssssssssssssssssssssssscsss" />
      <path
         style="fill:#6197ab;stroke-width:0.264583"
         d="m 166.98795,134.08182 c 0.0899,-0.14552 0.21603,-0.26458 0.2802,-0.26458 0.0642,0 0.11668,0.11906 0.11668,0.26458 0,0.14552 -0.12609,0.26458 -0.2802,0.26458 -0.15411,0 -0.20662,-0.11906 -0.11668,-0.26458 z m -90.619791,-0.24897 c 0,-0.13693 0.1177,-0.32171 0.261554,-0.41061 0.149981,-0.0927 0.194336,0.0135 0.103983,0.24896 -0.175892,0.45837 -0.365537,0.54224 -0.365537,0.16165 z m 5.55625,-4.1726 c 0,-0.4513 5.699278,-9.7657 7.609657,-12.43655 1.952768,-2.73011 3.941702,-4.7215 6.68156,-6.6898 0.91154,-0.65484 2.246974,-1.93476 2.967633,-2.84427 0.720656,-0.9095 1.356501,-1.65364 1.412981,-1.65364 0.0565,0 0.57682,0.51437 1.15631,1.14304 1.19668,1.29825 3.11009,2.41241 4.5968,2.67669 2.58692,0.45986 6.52188,-1.20452 6.84134,-2.89369 0.1224,-0.64718 1.15778,-0.66355 2.73268,-0.0432 1.34539,0.52994 4.15002,0.55417 5.84601,0.0505 0.72151,-0.21427 2.26117,-1.04212 3.42145,-1.83967 l 2.10962,-1.45009 1.05833,0.66126 c 3.12834,1.95462 5.5986,2.64278 8.06237,2.246 1.98264,-0.3193 3.13648,-0.82202 5.20421,-2.26747 2.15116,-1.63413 1.92512,-1.25172 2.87291,0.73678 0.96339,2.02963 2.55296,3.82046 4.58337,5.16367 1.4505,0.95958 2.15964,2.03335 2.16186,3.27343 0.002,1.40151 -0.3144,2.0581 -1.82841,3.78825 -1.52977,1.74815 -1.67016,2.47678 -0.74426,3.86277 1.07543,1.60982 1.98392,1.88369 5.61789,1.69352 l 3.17577,-0.16618 0.70286,0.74417 c 1.11304,1.17848 3.97952,5.95567 3.72582,6.20937 -0.12811,0.12811 -0.74418,0.0653 -1.40325,-0.14301 -1.55317,-0.49096 -12.663,-4.76983 -24.32593,-9.36897 -10.66943,-4.20736 -12.81974,-4.92568 -14.68437,-4.90541 -1.40439,0.0153 -9.84119,3.16399 -28.990044,10.81942 -8.808958,3.52169 -10.565167,4.1256 -10.565167,3.63308 z m 39.902471,-12.6925 c 0.191,-0.0764 0.4192,-0.067 0.50712,0.0209 0.0879,0.0879 -0.0684,0.15046 -0.34726,0.13897 -0.30823,-0.0127 -0.37092,-0.0754 -0.15986,-0.15985 z m 48.46298,-21.525164 c -0.15377,-0.287309 -0.41846,-1.475254 -0.5882,-2.639873 -0.47056,-3.228488 -1.06601,-3.021888 8.99853,-3.122157 4.61275,-0.04596 8.32054,-0.01728 8.23953,0.06373 -0.12572,0.125719 -7.25163,2.843345 -14.32457,5.462998 -2.00605,0.742989 -2.05115,0.747553 -2.32529,0.235302 z M 69.621284,94.615485 c -2.230634,-0.748155 -8.177697,-3.053728 -9.916809,-3.844573 -1.516409,-0.689573 -1.887677,-0.959081 -1.5875,-1.15238 0.354791,-0.22847 14.001565,-0.08121 14.243675,0.153697 0.151154,0.146661 -1.575179,5.153292 -1.768996,5.130368 -0.09714,-0.01148 -0.533808,-0.140689 -0.97037,-0.287112 z m 43.754796,-7.538191 c -0.56386,-0.679903 -1.96218,-1.160561 -2.85614,-0.981768 -1.83473,0.366948 -1.24737,-0.990328 4.88162,-11.280374 4.18994,-7.034535 6.12496,-10.054167 6.44285,-10.054167 0.49294,0 11.67375,18.161414 11.67375,18.962112 0,0.188314 -0.32742,0.411464 -0.72761,0.495887 -1.10706,0.233548 -2.30908,0.811406 -3.53483,1.699339 -1.34632,0.975268 -1.78078,0.995321 -3.04065,0.140351 -1.12275,-0.761918 -3.08132,-1.394745 -5.02323,-1.623033 -1.64262,-0.193106 -3.06047,0.369199 -4.99904,1.98256 -1.40755,1.171424 -2.23187,1.364308 -2.81672,0.659093 z"
         id="path1373"
         sodipodi:nodetypes="sssssssssssssssssssscssccscssscsscssssssssssssssssssssssssssssssss" />
      <path
         style="fill:#343434;stroke-width:0.264583"
         d="m 76.632742,133.85022 c 0,-0.23952 2.921632,-5.11821 5.757847,-9.61475 1.935646,-3.06878 4.710403,-8.03992 4.952624,-8.87292 0.150463,-0.51745 0.0756,-0.59532 -0.572328,-0.59537 -0.409991,-4e-5 -1.796439,0.30914 -3.080999,0.68706 -2.911147,0.85647 -3.680021,0.74301 -5.117515,-0.75518 -1.343748,-1.40047 -3.636116,-4.81968 -4.507746,-6.72357 -0.741741,-1.62018 -0.607357,-2.40802 0.605017,-3.54699 0.9949,-0.93466 0.805122,-1.58228 -1.079608,-3.68418 -0.945886,-1.054875 -1.719792,-2.065137 -1.719792,-2.245029 0,-0.732365 -5.426009,-3.064926 -16.933333,-7.279387 -3.274219,-1.199155 -6.250782,-2.348772 -6.614584,-2.554708 -0.575776,-0.325924 0.969228,-0.36258 11.927335,-0.282988 l 12.58879,0.09143 1.566418,-2.391717 c 2.344381,-3.579572 5.276549,-7.132384 8.206944,-9.94409 4.39039,-4.212569 6.90286,-5.589008 8.929854,-4.892162 1.664854,0.57235 3.130016,1.757802 3.663982,2.964503 0.363368,0.821172 0.596691,2.485554 0.885801,6.318777 0.46767,6.200733 0.68816,7.515365 1.260478,7.515365 0.170833,0 0.959792,-0.446484 1.753237,-0.992187 1.420676,-0.977093 1.476526,-0.991026 3.671096,-0.915784 1.66813,0.0572 2.38582,-0.0267 2.85427,-0.333637 0.98995,-0.648639 5.76921,-7.99904 8.43218,-12.968513 1.78866,-3.337894 7.27011,-12.041963 7.58351,-12.041963 0.54511,0 1.80577,1.747632 4.72181,6.5458 7.18625,11.824484 9.09513,14.666696 11.51526,17.145554 1.69038,1.731385 2.40981,1.951003 4.20631,1.284054 2.0065,-0.74491 7.35417,-0.686062 9.51963,0.104762 l 1.55461,0.56774 1.11447,-0.653121 c 0.76273,-0.44699 1.51213,-0.653121 2.37445,-0.653121 1.0872,0 1.38697,0.126986 2.18602,0.926041 1.0538,1.053796 1.19767,1.095016 1.70063,0.487236 0.64291,-0.776901 2.4127,-1.401398 3.9887,-1.407467 2.15439,-0.0083 2.74138,0.347242 3.58793,2.173208 l 0.72399,1.561627 3.83646,-0.152477 c 2.11005,-0.08386 8.18224,-0.215538 13.49375,-0.292616 l 9.65729,-0.140139 -2.24895,0.977429 c -1.23693,0.537583 -6.75515,2.676845 -12.2627,4.753912 -5.50755,2.077066 -10.08119,3.84394 -10.16364,3.926385 -0.0824,0.08245 0.16725,2.093573 0.55488,4.469173 0.7952,4.87335 0.8589,6.6858 0.32372,9.2107 -0.95374,4.49962 -4.3894,8.43607 -8.85075,10.14085 -1.01311,0.38713 -1.96169,0.84807 -2.10794,1.02429 -0.18986,0.22877 0.63703,1.78871 2.89109,5.45407 2.79727,4.5487 3.46643,5.83569 3.03423,5.83569 -0.32149,0 -9.90761,-3.68192 -24.0866,-9.2514 -8.58573,-3.37246 -16.79143,-6.54307 -18.23488,-7.0458 l -2.62446,-0.91406 -1.74116,0.57358 c -2.43162,0.80102 -13.1158,4.90534 -27.14117,10.42625 -10.537743,4.14806 -15.986879,6.21143 -16.403669,6.21143 -0.07303,0 -0.132789,-0.10422 -0.132789,-0.2316 z m 15.856834,-7.82305 c 19.148854,-7.65543 27.585654,-10.80415 28.990044,-10.81942 1.86463,-0.0203 4.01494,0.69805 14.68437,4.90541 11.66293,4.59914 22.77276,8.87801 24.32593,9.36897 0.65907,0.20834 1.27514,0.27112 1.40325,0.14301 0.2537,-0.2537 -2.61278,-5.03089 -3.72582,-6.20937 l -0.70286,-0.74417 -3.17577,0.16618 c -3.63397,0.19017 -4.54246,-0.0837 -5.61789,-1.69352 -0.9259,-1.38599 -0.78551,-2.11462 0.74426,-3.86277 1.51401,-1.73015 1.83091,-2.38674 1.82841,-3.78825 -0.002,-1.24008 -0.71136,-2.31385 -2.16186,-3.27343 -2.03041,-1.34321 -3.61998,-3.13404 -4.58337,-5.16367 -0.504,-1.06181 -0.97234,-1.93057 -1.04077,-1.93057 -0.0684,0 -0.89289,0.53721 -1.83214,1.19379 -4.55087,3.18128 -8.1999,3.18719 -13.26658,0.0215 l -1.05833,-0.66126 -2.10962,1.45009 c -1.16028,0.79755 -2.69994,1.6254 -3.42145,1.83967 -1.69599,0.50365 -4.50062,0.47942 -5.84601,-0.0505 -1.5749,-0.62033 -2.61028,-0.60396 -2.73268,0.0432 -0.31946,1.68917 -4.25442,3.35355 -6.84134,2.8937 -1.48671,-0.26428 -3.40012,-1.37845 -4.5968,-2.6767 -0.57949,-0.62866 -1.09983,-1.14303 -1.15631,-1.14303 -0.0565,0 -0.692325,0.74414 -1.412981,1.65364 -0.720659,0.90951 -2.056093,2.18943 -2.967633,2.84427 -2.739858,1.9683 -4.728792,3.95969 -6.68156,6.6898 -1.910379,2.67085 -7.609657,11.98525 -7.609657,12.43655 0,0.49252 1.756209,-0.11139 10.565167,-3.63308 z m 66.890644,-5.85784 c 7.53654,-1.55672 10.78425,-6.38796 9.90451,-14.73377 -0.50518,-4.79249 -2.78739,-14.186946 -4.04597,-16.654789 -0.51656,-1.012872 -1.37687,-1.673439 -1.82154,-1.398616 -0.14685,0.09076 0.0368,0.898501 0.43889,1.930463 1.28449,3.296555 1.94122,5.883111 1.94122,7.645572 0,1.537407 -0.0781,1.788295 -0.7734,2.483565 -2.06205,2.062055 -4.04128,-0.07159 -6.10713,-6.583559 -0.47577,-1.499711 -1.11658,-3.095884 -1.42403,-3.547049 -1.27437,-1.870099 -2.3487,-1.637363 -1.59947,0.346493 1.40389,3.717264 1.81074,5.246534 2.50191,9.40429 0.83283,5.0099 1.45997,7.79624 1.98655,8.82614 1.36788,2.67533 4.00126,2.59303 5.63761,-0.17618 0.3872,-0.65526 0.97799,-1.50876 1.31288,-1.89666 l 0.60889,-0.70529 -0.16152,0.92605 c -0.32474,1.86179 -1.31912,4.29063 -2.15774,5.27036 -1.84754,2.15845 -5.31887,2.87442 -9.09891,1.87669 -3.34019,-0.88163 -3.24189,-0.90301 -3.48633,0.7585 -0.26321,1.7891 -0.92645,3.27261 -2.13964,4.7859 -0.52122,0.65015 -0.90025,1.2295 -0.8423,1.28745 0.63362,0.63361 6.5327,0.73131 9.32552,0.15444 z m -74.181082,-7.91182 c 7.78428,-2.13343 11.065949,-4.17738 12.163549,-7.5759 0.831115,-2.57339 0.440907,-5.476789 -1.576416,-11.729489 -0.514139,-1.593572 -1.002308,-3.498572 -1.084821,-4.233334 -0.162203,-1.444384 -0.478369,-2.261968 -0.874723,-2.261968 -0.324136,0 -1.121831,1.598528 -1.716413,3.439584 -1.215205,3.762735 -3.681457,7.021229 -6.302841,8.32752 -1.547421,0.771112 -3.869795,0.90206 -5.311894,0.299513 -1.679524,-0.701751 -3.069087,-3.343777 -3.069087,-5.835369 0,-1.489893 0.650989,-3.872088 1.603579,-5.868065 2.060141,-4.316637 8.024426,-10.609929 10.53021,-11.111087 0.645081,-0.129016 0.86201,-0.03375 1.241285,0.545094 1.02784,1.568678 -0.03857,7.608891 -2.058247,11.658019 -1.467768,2.94264 -2.640997,4.108617 -3.611533,3.589202 -1.018628,-0.545152 -0.844021,-3.287974 0.376145,-5.908751 0.707834,-1.520352 0.819136,-2.889544 0.315182,-3.877266 -0.50029,-0.980535 -0.925738,-0.954987 -1.936065,0.116272 -1.662144,1.762387 -3.154624,5.304628 -3.437924,8.159551 -0.220202,2.219024 0.119986,2.978759 1.633593,3.6483 2.075302,0.918004 4.153358,0.181663 6.38819,-2.263597 2.664243,-2.915108 4.27509,-7.005879 4.501457,-11.431522 0.165629,-3.238151 -0.0343,-4.458211 -0.867006,-5.290918 -1.765731,-1.765732 -5.387736,0.437417 -10.203738,6.206606 -2.769343,3.317455 -5.572392,7.45017 -6.801181,10.027413 -0.809995,1.698873 -0.975291,2.329579 -0.960987,3.666776 0.05718,5.34521 6.181666,8.133516 11.86385,5.401273 2.28164,-1.097114 4.146346,-2.852169 6.004195,-5.65113 l 1.608606,-2.423459 -0.106,2.645833 c -0.07265,1.813439 -0.248071,2.914301 -0.557588,3.499181 -1.299827,2.456218 -4.719834,4.423938 -11.888002,6.839818 -2.706426,0.91214 -4.431771,1.62809 -4.431771,1.83901 0,0.85521 4.227049,6.47512 4.87031,6.47512 0.182136,0 1.845373,-0.415 3.696086,-0.92223 z m 68.564002,-5.75938 c 0.6688,-0.6688 1.24445,-1.55435 1.41892,-2.18281 0.62537,-2.25268 0.14183,-9.349273 -0.78362,-11.500544 -1.41104,-3.280053 -6.04409,-5.848319 -7.65111,-4.24129 -0.63673,0.636728 -0.64588,0.795946 -0.11826,2.059019 0.81997,1.962952 2.69708,3.155472 3.14198,1.996086 0.0935,-0.243544 0.0927,-0.957919 -0.002,-1.5875 -0.14658,-0.97822 -0.10438,-1.144688 0.29028,-1.144688 0.61886,0 2.20984,1.721509 2.80813,3.038538 0.28748,0.632831 0.48503,1.688434 0.48849,2.610316 0.005,1.411071 -0.0737,1.627288 -0.89377,2.447396 -0.79234,0.79234 -1.06357,0.899583 -2.2751,0.899583 -2.02162,0 -2.63219,-0.767738 -3.96651,-4.987586 -1.72309,-5.44934 -2.39078,-6.541283 -3.38923,-5.542831 -0.42691,0.426911 -0.40024,1.162339 0.0681,1.877068 0.21206,0.323649 1.05291,2.90538 1.86855,5.737181 1.92259,6.674982 2.79468,8.751362 4.35593,10.371142 1.09699,1.13811 1.35378,1.27628 2.37196,1.27628 0.99064,0 1.29076,-0.14897 2.26714,-1.12536 z m -44.48491,0.0786 c 0.96277,-0.36604 1.33325,-1.93884 0.98445,-4.17927 -0.14874,-0.95535 -0.38667,-1.85324 -0.52874,-1.99532 -0.16803,-0.16802 -0.63812,-0.10634 -1.34495,0.17648 -1.40166,0.56083 -2.15705,0.35258 -3.29666,-0.908837 -0.88222,-0.976508 -1.47909,-2.499781 -1.8857,-4.812483 -0.15312,-0.870905 -0.11047,-0.992187 0.34888,-0.992187 0.28783,0 1.13007,0.252151 1.87164,0.560332 1.80159,0.748705 2.49067,0.536601 4.30873,-1.326232 1.71602,-1.758273 2.38916,-3.278116 1.73958,-3.927689 -0.49487,-0.494872 -1.24069,-0.258136 -1.42661,0.452829 -0.0747,0.285488 -0.36684,0.592415 -0.6493,0.682064 -0.4637,0.147172 -0.80573,-0.01577 -2.23923,-1.066806 -0.26076,-0.19119 -0.688,0.06296 -1.61653,0.961605 -2.23217,2.160341 -2.69575,2.171155 -3.48902,0.08137 -0.26974,-0.71061 -0.5934,-1.321663 -0.71925,-1.357892 -0.36905,-0.106249 -1.684028,1.796754 -1.684028,2.43708 0,0.322551 0.165544,0.723847 0.367878,0.891767 0.88708,0.736209 2.55341,6.193891 2.9559,9.681349 0.10077,0.87313 0.33533,1.88516 0.52125,2.24896 1.01821,1.99244 3.80325,3.14508 5.78171,2.39287 z m 11.55305,-2.31482 c 1.83146,-0.59149 4.13043,-2.70469 5.10273,-4.690393 1.42912,-2.918651 1.52021,-5.831671 0.26943,-8.61604 -1.28947,-2.870483 -2.623,-3.659236 -5.89694,-3.48791 -1.90316,0.09959 -4.89319,4.478616 -5.99128,8.774489 -0.99839,3.905784 0.37931,7.331454 3.30507,8.218104 1.07457,0.32565 1.71038,0.2864 3.21099,-0.19825 z m -1.41573,-6.189057 c -1.53173,-1.262581 -2.60332,-3.898495 -2.1568,-5.30534 0.16267,-0.51254 0.23141,-0.488334 1.14414,0.402928 1.1827,1.154875 2.40222,1.46661 3.33822,0.853319 0.85169,-0.558046 0.84349,-1.327195 -0.0275,-2.584088 -1.18914,-1.715926 -0.33551,-3.095969 1.31777,-2.130404 1.56387,0.91335 2.864,3.79516 2.45228,5.435603 -0.20554,0.818899 -2.38381,3.254664 -3.36382,3.761449 -1.08867,0.562975 -1.59358,0.482042 -2.70426,-0.433467 z m 17.88883,5.425737 c 1.59752,-0.54433 3.4156,-2.52836 4.04646,-4.41583 0.57885,-1.731812 0.5726,-4.204743 -0.0151,-5.974091 -0.63581,-1.914268 -2.53063,-4.391885 -3.88862,-5.084683 -2.7461,-1.400953 -5.9323,-0.787935 -7.18621,1.382612 -1.64618,2.849562 -2.50769,8.09725 -1.65594,10.086806 1.47831,3.453136 5.23864,5.184386 8.69939,4.005186 z m -3.59788,-6.877871 c -1.82515,-0.949901 -2.30353,-1.880404 -2.30083,-4.475398 l 0.002,-2.116666 0.66796,1.16854 c 0.36738,0.642697 0.87196,1.32352 1.12129,1.512938 0.68276,0.518691 2.28442,0.438713 3.00372,-0.149987 l 0.62462,-0.511218 -1.11615,-1.143955 c -1.34925,-1.382863 -1.59483,-2.425316 -0.59875,-2.541627 0.46009,-0.05372 1.02608,0.230097 1.82845,0.916903 1.48757,1.273302 3.45832,3.944451 3.45832,4.68739 0,0.878237 -0.69517,1.682226 -2.20157,2.546186 -1.67701,0.961813 -2.79542,0.988444 -4.48925,0.106894 z m 47.02015,-4.450175 c 3.33618,-1.253456 6.13206,-2.345288 6.21307,-2.426298 0.081,-0.08101 -3.62678,-0.109686 -8.23953,-0.06373 -10.06454,0.100269 -9.46909,-0.106331 -8.99853,3.122157 0.16974,1.164619 0.43443,2.352564 0.5882,2.639873 0.32007,0.598061 -0.78985,0.946028 10.43679,-3.272002 z M 71.611226,92.393233 c 0.463626,-1.391639 0.800864,-2.571091 0.749424,-2.621004 -0.24211,-0.234911 -13.888884,-0.382167 -14.243675,-0.153697 -0.300177,0.193299 0.07109,0.462807 1.5875,1.15238 2.350247,1.068752 10.210255,4.051628 10.887179,4.131685 0.09714,0.01148 0.555947,-1.117724 1.019572,-2.509364 z M 116.1928,86.418201 c 1.93857,-1.613361 3.35642,-2.175666 4.99904,-1.98256 1.94191,0.228288 3.90048,0.861115 5.02323,1.623033 1.25987,0.85497 1.69433,0.834917 3.04065,-0.140351 1.22575,-0.887933 2.42777,-1.465791 3.53483,-1.699339 0.40019,-0.08442 0.72761,-0.307573 0.72761,-0.495887 0,-0.800698 -11.18081,-18.962112 -11.67375,-18.962112 -0.31789,0 -2.25291,3.019632 -6.44285,10.054167 -6.12899,10.290046 -6.71635,11.647322 -4.88162,11.280374 0.89396,-0.178793 2.29228,0.301865 2.85614,0.981768 0.58485,0.705215 1.40917,0.512331 2.81672,-0.659093 z"
         id="path1371" />
    </g>
  </g>
</svg>
