<?xml version="1.0" encoding="UTF-8" standalone="no"?>
<!-- Created with Inkscape (http://www.inkscape.org/) -->

<svg
   width="148.03438mm"
   height="148.03438mm"
   viewBox="0 0 148.03438 148.03438"
   version="1.1"
   id="svg5"
   inkscape:version="1.1 (c68e22c387, 2021-05-23)"
   sodipodi:docname="groovy_white.svg"
   xmlns:inkscape="http://www.inkscape.org/namespaces/inkscape"
   xmlns:sodipodi="http://sodipodi.sourceforge.net/DTD/sodipodi-0.dtd"
   xmlns="http://www.w3.org/2000/svg"
   xmlns:svg="http://www.w3.org/2000/svg">
  <sodipodi:namedview
     id="namedview7"
     pagecolor="#ffffff"
     bordercolor="#666666"
     borderopacity="1.0"
     inkscape:pageshadow="2"
     inkscape:pageopacity="0.0"
     inkscape:pagecheckerboard="0"
     inkscape:document-units="mm"
     showgrid="false"
     fit-margin-top="0"
     fit-margin-left="0"
     fit-margin-right="0"
     fit-margin-bottom="0"
     inkscape:zoom="0.94867184"
     inkscape:cx="109.0999"
     inkscape:cy="234.53843"
     inkscape:window-width="1920"
     inkscape:window-height="1017"
     inkscape:window-x="1912"
     inkscape:window-y="-8"
     inkscape:window-maximized="1"
     inkscape:current-layer="layer1" />
  <defs
     id="defs2" />
  <g
     inkscape:label="Calque 1"
     inkscape:groupmode="layer"
     id="layer1"
     transform="translate(-82.764452,-133.46405)">
    <path
       style="fill:#ffffff;stroke-width:0.264583"
       d="m 111.73633,244.3224 c 0,-0.23739 1.10493,-2.07812 6.67122,-11.11374 1.99192,-3.23344 3.78304,-6.49218 4.03552,-7.34219 0.15397,-0.51832 0.0804,-0.59532 -0.5686,-0.59537 -0.40999,-3e-5 -1.79644,0.30915 -3.081,0.68707 -2.49452,0.73389 -3.5986,0.7095 -4.54562,-0.10043 -1.4575,-1.24652 -4.79907,-6.22948 -5.39703,-8.0481 -0.35586,-1.08226 -0.19865,-1.57435 0.94044,-2.94368 0.34218,-0.41134 0.62215,-0.94935 0.62215,-1.19557 0,-0.24622 -0.77391,-1.3271 -1.71979,-2.40196 -0.94589,-1.07485 -1.71979,-2.0955 -1.71979,-2.2681 0,-0.7056 -4.43955,-2.63479 -15.237262,-6.62129 -3.651066,-1.34797 -7.16341,-2.69936 -7.805209,-3.0031 l -1.166907,-0.55224 12.609012,0.065 12.609016,0.065 0.83663,-1.39876 c 2.82486,-4.72285 9.73818,-12.35565 13.21309,-14.5882 2.40158,-1.54296 3.42463,-1.77502 4.91633,-1.11518 1.82094,0.80549 2.95427,1.79919 3.44214,3.01808 0.29345,0.73312 0.57114,2.82009 0.81671,6.1379 0.45885,6.19913 0.67786,7.54062 1.23106,7.54062 0.16144,0 0.94276,-0.44648 1.73625,-0.99218 1.42254,-0.97831 1.47414,-0.99112 3.68817,-0.91579 1.68021,0.0572 2.40243,-0.0265 2.86905,-0.33219 0.98005,-0.64215 5.25113,-7.21633 8.21908,-12.65104 1.30267,-2.38537 6.42429,-10.75521 7.28927,-11.91226 0.79093,-1.05799 1.51386,-0.13933 6.83024,8.67951 6.4007,10.6175 10.19322,15.70133 12.06328,16.17069 0.44512,0.11171 1.21154,-0.009 2.0594,-0.32346 1.99397,-0.74033 7.36433,-0.69321 9.47046,0.0831 l 1.50544,0.55489 1.19442,-0.63584 c 0.76785,-0.40875 1.63342,-0.63583 2.42363,-0.63583 1.05202,0 1.36268,0.13347 2.15524,0.92604 1.08684,1.08684 1.16351,1.10198 1.82431,0.36035 0.76176,-0.85494 2.03304,-1.28639 3.79037,-1.28639 2.22023,0 2.81009,0.34585 3.66257,2.14749 0.85744,1.81211 -0.20553,1.67023 9.71983,1.29743 10.24088,-0.38465 17.85938,-0.50744 17.85938,-0.28786 0,0.24543 -3.27984,1.55231 -15.05599,5.9992 -5.15209,1.94552 -9.42909,3.59895 -9.50443,3.6743 -0.0753,0.0753 0.15045,1.71389 0.50177,3.64123 0.87953,4.82515 0.87693,9.4299 -0.007,11.70633 -1.54926,3.99166 -4.79802,7.18045 -8.80496,8.6424 -0.8344,0.30444 -1.63353,0.69383 -1.77585,0.86531 -0.18014,0.21705 0.46222,1.46079 2.11398,4.09313 3.16576,5.04515 4.33616,7.16896 3.95071,7.16896 -0.49669,0 -8.42211,-3.02457 -24.07072,-9.18607 -7.93089,-3.12272 -15.88995,-6.20423 -17.68682,-6.84781 l -3.26701,-1.17013 -2.42153,0.82898 c -42.76628,16.37503 0,0 -42.76628,16.37503 -0.14783,0 -0.26878,-0.11851 -0.26878,-0.26335 z m 7.72702,-4.59713 c 11.20716,-4.48555 23.4424,-9.2522 31.68854,-12.39007 4.2204,-1.60549 5.0515,-1.83981 6.08957,-1.71686 1.62914,0.19295 5.08898,1.41428 14.02612,4.95128 4.14734,1.64137 9.68375,3.80738 12.30312,4.81336 2.61938,1.00599 6.45253,2.48466 8.51812,3.28595 2.06559,0.80128 4.05997,1.41857 4.43197,1.37175 l 0.67635,-0.0851 -1.46389,-2.43756 c -0.80514,-1.34065 -1.86831,-2.86636 -2.36261,-3.39047 l -0.89873,-0.95293 -3.14052,0.1837 c -3.40148,0.19895 -4.08174,0.038 -5.28004,-1.24896 -1.27411,-1.36842 -1.207,-2.84348 0.1847,-4.06003 0.33294,-0.29104 0.94452,-1.0585 1.35907,-1.70545 1.51396,-2.36277 0.8532,-4.15797 -2.30107,-6.25165 -1.65401,-1.09787 -2.56842,-2.21142 -3.83266,-4.66733 l -0.93431,-1.815 -1.57923,1.11002 c -2.32501,1.63421 -4.08125,2.35736 -6.13259,2.52514 -2.18196,0.17847 -4.32282,-0.46022 -6.78058,-2.02288 l -1.6149,-1.02676 -1.59537,1.13555 c -1.81578,1.29243 -3.35158,2.10507 -4.50579,2.38415 -1.45708,0.3523 -4.02715,0.17826 -5.70266,-0.38618 -1.7816,-0.60017 -2.36713,-0.54785 -2.36713,0.21154 0,0.77562 -1.34048,1.8534 -3.02672,2.43355 -3.04056,1.04611 -5.42595,0.47842 -7.96329,-1.89514 l -1.62793,-1.52285 -1.35129,1.68627 c -0.74321,0.92744 -2.15063,2.26328 -3.1276,2.96851 -3.61179,2.60721 -5.35289,4.57592 -8.73883,9.88122 -1.90461,2.98426 -5.38518,8.86349 -5.38518,9.09642 0,0.30985 0.77248,0.16294 2.43536,-0.46315 z m 76.80735,-9.51708 c 4.83547,-1.56527 7.35307,-4.4172 8.08715,-9.16109 0.51755,-3.34454 -0.11262,-8.03783 -2.12694,-15.84089 -1.17483,-4.55104 -2.05925,-6.72781 -2.92087,-7.18894 -0.94546,-0.50599 -1.05729,0.0308 -0.35864,1.7216 1.16611,2.82207 1.94951,5.92546 1.94951,7.72287 0,1.53782 -0.0781,1.78864 -0.7734,2.48394 -0.91299,0.91299 -1.79674,0.98492 -2.76298,0.22488 -1.05428,-0.8293 -1.85037,-2.39766 -3.21337,-6.33065 -1.22347,-3.53032 -2.19053,-5.29167 -2.90539,-5.29167 -0.71487,0 -0.66851,0.52802 0.25351,2.88759 0.85764,2.19481 1.50768,5.06496 2.64181,11.6645 0.88527,5.15141 2.0382,7.24958 3.98358,7.24958 1.26877,0 2.19488,-0.76449 3.4377,-2.83778 0.58208,-0.97104 1.16088,-1.76563 1.28622,-1.76575 0.29556,-2.7e-4 -0.007,1.60015 -0.64761,3.43053 -0.70416,2.0106 -1.71958,3.18269 -3.56052,4.10988 -1.41975,0.71505 -1.81211,0.79137 -3.95726,0.76976 -1.6569,-0.0167 -2.90029,-0.19433 -4.08759,-0.58397 -1.92236,-0.63088 -2.3947,-0.48043 -2.3947,0.76272 0,1.19631 -0.96874,3.43749 -2.10249,4.86412 -0.57465,0.72309 -0.99283,1.3667 -0.92929,1.43024 0.34983,0.34983 2.50432,0.52425 5.54532,0.44892 2.82246,-0.0699 3.81936,-0.20814 5.55625,-0.77039 z m -74.91381,-7.74266 c 3.64798,-1.05 7.1897,-2.63381 8.75141,-3.91351 0.59961,-0.49133 1.44394,-1.53201 1.8763,-2.31262 0.73457,-1.32624 0.7838,-1.59272 0.75101,-4.06511 -0.0266,-2.00707 -0.1994,-3.18879 -0.71569,-4.8948 -1.62262,-5.3618 -2.29193,-7.8041 -2.29193,-8.36325 0,-0.32897 -0.1282,-0.9333 -0.28489,-1.34296 l -0.28489,-0.74483 -0.59399,0.68753 c -0.32669,0.37814 -0.98136,1.79686 -1.45482,3.15271 -1.94348,5.56554 -5.28092,8.71876 -9.23465,8.72489 -1.93497,0.003 -2.91895,-0.42128 -3.8706,-1.66896 -3.28568,-4.30774 -0.86788,-11.4513 6.24455,-18.44996 1.98706,-1.95527 3.81315,-3.16183 4.78533,-3.16183 1.88793,0 1.63073,5.52215 -0.50525,10.84791 -2.14851,5.35699 -5.03796,7.06992 -4.94279,2.93021 0.0249,-1.08359 0.2651,-2.06818 0.78942,-3.23602 0.92807,-2.06711 1.044,-4.28701 0.25405,-4.86464 -0.72436,-0.52967 -1.33712,-0.10298 -2.55246,1.77739 -1.32451,2.04928 -2.0953,4.09918 -2.43913,6.48684 -0.32984,2.29047 -0.009,3.32812 1.22895,3.97668 4.55088,2.38391 10.67197,-4.8938 11.19652,-13.31218 0.285,-4.57396 -0.31007,-6.07993 -2.38534,-6.03669 -2.1679,0.0452 -4.74692,2.02458 -8.58519,6.58915 -3.76628,4.47896 -7.02204,9.64597 -7.72655,12.26233 -0.39965,1.48418 0.0105,3.52359 1.03271,5.13551 1.00304,1.58164 3.03168,2.60043 5.53462,2.77951 4.33904,0.31046 8.22388,-2.06313 11.41768,-6.97606 l 1.35742,-2.08807 -0.1005,2.64584 c -0.0702,1.84909 -0.23966,2.90893 -0.56263,3.51955 -1.31475,2.48575 -4.90337,4.53161 -12.14205,6.92214 -2.60795,0.86126 -4.16718,1.50817 -4.16718,1.72893 0,0.44192 2.2757,3.85191 3.59046,5.38006 1.15288,1.34 0.95978,1.3437 6.0301,-0.11569 z m 67.41692,-5.30007 c 1.18328,-1.12477 1.57389,-2.06572 1.72781,-4.1621 0.21427,-2.9185 -0.3174,-8.09886 -0.9922,-9.66747 -1.56859,-3.64629 -7.01143,-6.25946 -7.94162,-3.81286 -0.30001,0.78906 0.26984,2.2777 1.27269,3.32469 1.31007,1.36774 2.33913,0.74265 2.04178,-1.24025 -0.15614,-1.04122 -0.11755,-1.20714 0.2808,-1.20714 0.61886,0 2.20983,1.72151 2.80813,3.03854 0.61418,1.35197 0.64071,3.64341 0.0537,4.63715 -0.55725,0.94336 -1.38242,1.32014 -2.89116,1.32014 -1.95589,0 -2.63229,-0.94599 -4.06746,-5.68854 -1.13066,-3.73631 -1.8385,-5.20104 -2.46782,-5.10661 -1.01535,0.15236 -1.10121,0.79553 -0.35517,2.66035 0.38402,0.9599 1.17638,3.48353 1.7608,5.60806 1.76336,6.41036 2.87162,8.8893 4.68655,10.48283 0.83695,0.73485 1.08946,0.81862 2.11808,0.70268 0.80333,-0.0905 1.41668,-0.36817 1.9651,-0.88947 z m -43.92842,-0.29127 c 0.51522,-0.51523 0.73635,-2.30377 0.49586,-4.0107 -0.30512,-2.16566 -0.50253,-2.35738 -1.81705,-1.76461 -1.2505,0.56389 -1.96154,0.39986 -3.14737,-0.7261 -0.93728,-0.88995 -1.76147,-2.79765 -2.05534,-4.75733 -0.16927,-1.12875 -0.13747,-1.24637 0.33701,-1.24637 0.28816,0 1.13067,0.25215 1.87224,0.56033 1.80547,0.75032 2.4903,0.53701 4.3309,-1.34903 1.56561,-1.60425 2.17799,-2.93626 1.74305,-3.79133 -0.31741,-0.62399 -1.06349,-0.47196 -1.3962,0.28451 -0.14422,0.3279 -0.46715,0.66122 -0.71761,0.74071 -0.51422,0.16321 -1.55856,-0.30927 -1.87759,-0.84944 -0.34908,-0.59106 -0.81669,-0.41502 -1.91753,0.72189 -0.57524,0.59407 -1.36569,1.24803 -1.75656,1.45324 -0.876,0.45991 -1.32943,0.10826 -1.81352,-1.40649 -0.47258,-1.47871 -0.63573,-1.52352 -1.54238,-0.4236 -1.00103,1.21442 -1.02489,1.62923 -0.16648,2.89418 0.86874,1.28014 1.89037,4.56211 2.40957,7.74062 0.22931,1.40389 0.46549,2.81125 0.52482,3.12745 0.16591,0.88415 1.42432,2.22372 2.61063,2.77902 1.13068,0.52925 3.36409,0.54251 3.88355,0.023 z m 12.14531,-2.59157 c 3.40373,-1.71644 5.74123,-6.51091 5.03552,-10.32844 -0.51449,-2.78313 -1.67668,-4.74653 -3.31344,-5.59769 -0.88259,-0.45898 -3.09534,-0.51537 -4.1639,-0.10612 -1.57429,0.60294 -4.20932,4.97935 -5.11782,8.49996 -1.55992,6.04498 2.4957,10.08593 7.55964,7.53229 z m -2.47156,-5.7058 c -1.54833,-1.27626 -2.69617,-4.12069 -2.19252,-5.43319 0.14781,-0.38517 0.31958,-0.30927 1.16219,0.51352 1.19912,1.17091 2.41581,1.48654 3.35589,0.87057 0.84929,-0.55648 0.85031,-1.39155 0.003,-2.53989 -0.80393,-1.08967 -0.84911,-1.99762 -0.11885,-2.38845 1.66166,-0.88929 4.45805,3.25978 3.84453,5.70423 -0.20822,0.82962 -2.34811,3.18854 -3.37348,3.71878 -1.06426,0.55035 -1.57576,0.46533 -2.68084,-0.44557 z m 17.57964,5.53936 c 1.53788,-0.46076 3.10138,-1.95026 3.96635,-3.77863 1.42146,-3.00466 0.89882,-6.84658 -1.33361,-9.80342 -1.26181,-1.67125 -2.95069,-2.58076 -5.04762,-2.71827 -3.118,-0.20447 -4.67954,1.4926 -5.81656,6.32139 -0.97489,4.14028 -0.64456,5.95872 1.46864,8.08478 1.93459,1.94637 4.33993,2.62006 6.7628,1.89415 z m -3.23698,-6.92254 c -1.84686,-0.97407 -2.35877,-1.95971 -2.34613,-4.51734 0.0104,-2.11433 0.0163,-2.13281 0.42831,-1.34993 0.22975,0.43656 0.72351,1.12117 1.09724,1.52135 0.83444,0.89348 2.31587,0.99171 3.26319,0.21639 l 0.62463,-0.51122 -1.09607,-1.14243 c -1.30014,-1.35511 -1.5979,-2.11852 -1.01501,-2.60228 0.34919,-0.28979 0.58677,-0.22279 1.50941,0.42567 1.39614,0.98126 3.84219,3.85103 4.07581,4.78184 0.26054,1.03809 -0.35967,1.94046 -2.01593,2.93308 -1.73047,1.03709 -2.90309,1.10053 -4.52545,0.24487 z m 48.51063,-5.14464 c 2.29262,-0.85959 4.25715,-1.65445 4.36563,-1.76635 0.10847,-0.11191 -3.43418,-0.15563 -7.87256,-0.0972 -8.93333,0.11767 -9.26312,0.17514 -9.25651,1.61321 0.004,0.82541 0.67035,4.01507 0.92521,4.42746 0.0695,0.1124 1.8236,-0.42983 3.89807,-1.20495 2.07447,-0.77512 5.64754,-2.11261 7.94016,-2.9722 z m -110.69504,0.73802 c 0.48667,-1.37738 0.69103,-2.30634 0.52937,-2.40626 -0.41314,-0.25533 -12.148393,-0.50775 -13.329808,-0.28671 -1.305602,0.24427 -1.280549,0.26035 3.307292,2.1225 4.907756,1.99201 8.310826,3.18618 8.517416,2.98884 0.10067,-0.0962 0.53975,-1.18444 0.97573,-2.41837 z m 44.11179,-5.56009 c 2.88739,-2.21734 2.96955,-2.25296 5.11551,-2.21738 2.15816,0.0358 4.55482,0.73414 5.75247,1.67621 0.96652,0.76027 1.31885,0.68875 3.24949,-0.65961 0.95082,-0.66405 2.15385,-1.26464 2.71198,-1.35388 0.55172,-0.0882 1.00312,-0.26025 1.00312,-0.38228 0,-0.78659 -11.19598,-19.02508 -11.67884,-19.02508 -0.36374,0 -8.29843,12.9977 -11.18979,18.3298 -1.41689,2.61297 -1.43014,3.14709 -0.0726,2.9268 0.94139,-0.15277 2.19132,0.32764 2.81842,1.08325 0.50811,0.61223 1.13587,0.50866 2.29025,-0.37783 z"
       id="path854"
       sodipodi:nodetypes="csssssssssssscccsssssssscsssscscssssssssssscsssssscccccccssssscsscsssssscssscsssssscssssscssssssssssssssscssssssssssssssscsssssssssssscsssssssccssssssssssssssssssssssscsssssssssssssssssssccsssssscssscsssccsssssssscssscssssssssccssssssssssssssssssssss" />
  </g>
</svg>
