<?xml version="1.0" encoding="UTF-8" standalone="no"?>
<!-- Created with Inkscape (http://www.inkscape.org/) -->

<svg
   width="300mm"
   height="300mm"
   viewBox="0 0 300 300"
   version="1.1"
   id="svg5"
   inkscape:version="1.1 (c68e22c387, 2021-05-23)"
   sodipodi:docname="haskell.svg"
   xmlns:inkscape="http://www.inkscape.org/namespaces/inkscape"
   xmlns:sodipodi="http://sodipodi.sourceforge.net/DTD/sodipodi-0.dtd"
   xmlns="http://www.w3.org/2000/svg"
   xmlns:svg="http://www.w3.org/2000/svg">
  <sodipodi:namedview
     id="namedview7"
     pagecolor="#ffffff"
     bordercolor="#666666"
     borderopacity="1.0"
     inkscape:pageshadow="2"
     inkscape:pageopacity="0.0"
     inkscape:pagecheckerboard="0"
     inkscape:document-units="mm"
     showgrid="false"
     width="300mm"
     inkscape:zoom="0.23716796"
     inkscape:cx="571.32507"
     inkscape:cy="858.0417"
     inkscape:window-width="1920"
     inkscape:window-height="1017"
     inkscape:window-x="1912"
     inkscape:window-y="-8"
     inkscape:window-maximized="1"
     inkscape:current-layer="g2192" />
  <defs
     id="defs2" />
  <g
     inkscape:label="Calque 1"
     inkscape:groupmode="layer"
     id="layer1">
    <g
       id="g1204"
       transform="translate(-134.42917,1.6733921)" />
    <g
       id="g2192"
       transform="translate(-406.07649,-174.03278)">
      <g
         id="g2808">
        <path
           style="fill:#8d5089;stroke-width:1.32812"
           d="m 415.62251,428.47105 c 22.80955,-0.95159 45.52025,-0.99223 44.95389,-0.0805 -0.3403,0.54785 -12.68593,0.87734 -27.43472,0.73219 -14.74879,-0.14509 -22.63242,-0.43838 -17.51917,-0.6517 z m 70.3902,0 c 22.80955,-0.95159 45.52025,-0.99223 44.95389,-0.0805 -0.3403,0.54785 -12.68593,0.87734 -27.43472,0.73219 -14.74879,-0.14509 -22.63242,-0.43838 -17.51917,-0.6517 z m 140.11634,0.004 c 21.02968,-0.95323 43.83232,-0.9972 43.83019,-0.0845 -10e-4,0.54785 -11.80597,0.87903 -26.23264,0.73596 -14.42667,-0.14306 -22.34557,-0.4362 -17.59755,-0.65142 z m 9.96088,-77.64185 c -5.84372,-8.84458 -10.82415,-16.60263 -11.06764,-17.2401 -0.24613,-0.64424 17.59418,-1.15893 40.17554,-1.15893 h 40.61824 v 17.26552 17.26552 l -29.5506,-0.0254 -29.55061,-0.0254 -10.62493,-16.08106 z M 602.887,301.0276 c -5.11325,-7.7516 -10.4014,-15.80935 -11.75144,-17.90601 l -2.45463,-3.81212 h 58.56757 58.56757 v 17.92958 17.92958 l -46.81612,-0.0235 -46.81613,-0.0235 -9.29682,-14.094 z"
           id="path2814" />
        <path
           style="fill:#5e5185;stroke-width:1.32812"
           d="m 513.23066,376.27468 c 18.99672,-28.48114 34.53949,-52.09411 34.53949,-52.47329 0,-0.37918 -15.5014,-23.93012 -34.44755,-52.33544 -18.94614,-28.40532 -34.08668,-52.00689 -33.64563,-52.44795 0.44106,-0.44105 11.9083,-0.78527 25.48276,-0.76493 l 24.68084,0.037 69.06208,103.68811 c 37.98415,57.02847 69.2613,104.22639 69.50479,104.88427 0.25324,0.68423 -10.54604,1.18064 -25.23423,1.15994 l -25.67692,-0.0362 -21.69256,-32.66458 -21.69257,-32.66459 -21.81133,32.70079 -21.81133,32.70079 h -25.89867 -25.89867 z"
           id="path2812" />
        <path
           style="fill:#443960;stroke-width:1.32812"
           d="m 442.84046,376.27468 c 18.99672,-28.48114 34.53949,-52.13018 34.53949,-52.55343 0,-0.42324 -14.88241,-23.06898 -33.07203,-50.32385 -18.18962,-27.25487 -33.74961,-50.82038 -34.57777,-52.36781 l -1.50574,-2.8135 25.61298,0.0349 25.61298,0.0349 34.53104,51.90034 c 18.99207,28.54519 34.71529,52.39067 34.94048,52.98997 0.22518,0.5993 -15.19963,24.443 -34.27736,52.98601 l -34.68679,51.89638 h -25.82839 -25.82839 z"
           id="path2810" />
      </g>
    </g>
  </g>
</svg>
