<?xml version="1.0" encoding="UTF-8" standalone="no"?>
<!-- Created with Inkscape (http://www.inkscape.org/) -->

<svg
   width="300mm"
   height="300mm"
   viewBox="0 0 300 300"
   version="1.1"
   id="svg5"
   inkscape:version="1.1 (c68e22c387, 2021-05-23)"
   sodipodi:docname="heart.svg"
   xmlns:inkscape="http://www.inkscape.org/namespaces/inkscape"
   xmlns:sodipodi="http://sodipodi.sourceforge.net/DTD/sodipodi-0.dtd"
   xmlns="http://www.w3.org/2000/svg"
   xmlns:svg="http://www.w3.org/2000/svg">
  <sodipodi:namedview
     id="namedview7"
     pagecolor="#ffffff"
     bordercolor="#666666"
     borderopacity="1.0"
     inkscape:pageshadow="2"
     inkscape:pageopacity="0.0"
     inkscape:pagecheckerboard="0"
     inkscape:document-units="mm"
     showgrid="false"
     inkscape:zoom="0.34698723"
     inkscape:cx="47.552182"
     inkscape:cy="796.8593"
     inkscape:window-width="1920"
     inkscape:window-height="1017"
     inkscape:window-x="1912"
     inkscape:window-y="-8"
     inkscape:window-maximized="1"
     inkscape:current-layer="layer1" />
  <defs
     id="defs2" />
  <g
     inkscape:label="Calque 1"
     inkscape:groupmode="layer"
     id="layer1">
    <path
       style="fill:#ffffff;stroke-width:0.389656"
       d="M 146.46243,287.04571 C 129.09651,261.68306 112.45223,244.02786 74.376045,210.58113 53.527921,192.26781 41.752774,181.1002 33.689005,171.99332 15.383172,151.31951 5.6349841,131.75992 2.0346214,108.47937 0.90448844,101.1718 0.62415691,87.146677 1.4787889,80.67107 6.4163042,43.258835 35.04196,14.614991 72.221815,9.8830805 c 6.453089,-0.821289 18.060257,-0.623695 23.78014,0.4048205 13.875255,2.494972 26.591305,8.164753 37.017345,16.505157 5.27396,4.218949 12.01683,11.450074 16.57016,17.769971 l 0.78909,1.095244 1.12464,-1.710221 c 1.97937,-3.010041 5.73851,-7.454507 9.37052,-11.078891 12.87179,-12.844736 30.20818,-21.070695 48.88154,-23.1938655 5.2842,-0.60081 17.32044,-0.268565 22.23671,0.6138275 17.34515,3.113175 31.97794,10.711934 44.2393,22.973283 12.30518,12.305177 19.75586,26.695897 23.00542,44.434131 0.86616,4.728081 1.1815,17.835392 0.57328,23.829123 -2.32562,22.91792 -11.14986,42.85454 -27.8896,63.01105 -8.83178,10.63442 -18.43239,20.19896 -36.40092,36.26412 -31.39853,28.07254 -38.12388,34.33037 -47.8145,44.49055 -13.79519,14.46363 -22.04097,24.63178 -32.47524,40.04624 -2.46457,3.64091 -4.65639,6.66709 -4.8707,6.72485 -0.21431,0.0577 -1.96777,-2.19979 -3.89657,-5.01676 z"
       id="path2592" />
  </g>
</svg>
