<?xml version="1.0" encoding="UTF-8" standalone="no"?>
<!-- Created with Inkscape (http://www.inkscape.org/) -->

<svg
   width="60.252708mm"
   height="60.252708mm"
   viewBox="0 0 60.252708 60.252709"
   version="1.1"
   id="svg5"
   inkscape:version="1.1 (c68e22c387, 2021-05-23)"
   sodipodi:docname="hexagony_white.svg"
   xmlns:inkscape="http://www.inkscape.org/namespaces/inkscape"
   xmlns:sodipodi="http://sodipodi.sourceforge.net/DTD/sodipodi-0.dtd"
   xmlns="http://www.w3.org/2000/svg"
   xmlns:svg="http://www.w3.org/2000/svg">
  <sodipodi:namedview
     id="namedview7"
     pagecolor="#ffffff"
     bordercolor="#666666"
     borderopacity="1.0"
     inkscape:pageshadow="2"
     inkscape:pageopacity="0.0"
     inkscape:pagecheckerboard="0"
     inkscape:document-units="mm"
     showgrid="false"
     fit-margin-top="0"
     fit-margin-left="0"
     fit-margin-right="0"
     fit-margin-bottom="0"
     inkscape:zoom="1.3416246"
     inkscape:cx="138.26521"
     inkscape:cy="236.65339"
     inkscape:window-width="1920"
     inkscape:window-height="1017"
     inkscape:window-x="1912"
     inkscape:window-y="-8"
     inkscape:window-maximized="1"
     inkscape:current-layer="layer1" />
  <defs
     id="defs2" />
  <g
     inkscape:label="Calque 1"
     inkscape:groupmode="layer"
     id="layer1"
     transform="translate(-104.22872,-148.13892)">
    <path
       style="fill:#ffffff;stroke-width:0.264583"
       d="m 120.86343,205.10881 c -2.22847,-0.78011 -3.92244,-2.17217 -4.94442,-4.06319 -0.27526,-0.50932 -0.57377,-0.98557 -0.66337,-1.05833 -0.0896,-0.0728 -0.41826,-0.60854 -0.73037,-1.19063 -0.31211,-0.58208 -0.71506,-1.29194 -0.89544,-1.57747 -0.51378,-0.81329 -1.37347,-2.28164 -2.09714,-3.5819 -1.12572,-2.02264 -3.65232,-6.4609 -3.91615,-6.87917 -0.13769,-0.21828 -0.87935,-1.52797 -1.64813,-2.91042 l -1.39779,-2.51354 c -0.38349,-2.20278 -0.52294,-4.23125 0,-6.08541 l 1.16385,-2.11667 c 3.51476,-5.01659 8.78092,-18.26468 13.7276,-20.98237 1.26504,-0.67426 2.00171,-0.86869 3.79042,-1.0004 1.34031,-0.0987 2.50309,-0.0527 2.93398,0.11607 1.47324,0.57698 2.09171,2.7217 1.18423,4.10668 -0.24386,0.37218 -1.06368,0.84579 -2.07651,1.19961 -6.42764,2.89637 -8.61958,9.81495 -12.52148,16.2538 -0.65485,1.07862 -1.19063,2.03534 -1.19063,2.12605 0,0.0907 10.30564,0.16494 22.90142,0.16494 h 22.90141 c -3.47427,-4.60396 -6.16206,-12.65993 -10.17984,-16.72921 -0.58727,-0.57097 -1.48739,-1.11701 -2.11666,-1.28403 -3.25811,-0.86476 -4.37964,-2.54685 -3.09873,-4.64751 0.67849,-1.11271 1.99384,-1.53072 4.07561,-1.2952 2.97195,0.33624 5.59544,2.14309 7.12327,4.90595 0.36212,0.65484 1.28452,2.26218 2.04977,3.57187 2.33702,5.19472 7.24342,10.75908 8.87331,15.94108 0.48341,1.59308 0.49452,4.19461 0.0236,5.52305 -2.36862,5.78316 -6.51975,10.72857 -9.16147,16.37608 0,0.0598 -0.5535,1.03569 -1.23,2.16863 -2.38817,3.99951 -4.51136,5.56653 -7.88826,5.82192 -2.99652,0.22663 -4.37549,-0.70059 -4.37549,-2.94208 0,-1.22322 0.91438,-2.09951 2.79423,-2.67784 0.86427,-0.26589 2.0124,-0.82551 2.55141,-1.24359 3.3269,-5.02783 7.9656,-11.13287 10.16405,-16.46453 0.14135,-0.36834 -2.15906,-0.41001 -22.63309,-0.41001 h -22.79045 l 0.83674,1.52135 c 0.46021,0.83675 0.92411,1.64042 1.03089,1.78594 0.10677,0.14552 0.48985,0.80036 0.85128,1.45521 0.36143,0.65484 1.72605,3.03609 3.0325,5.29166 1.30644,2.25558 2.54471,4.3987 2.7517,4.7625 1.05307,1.85086 2.73403,2.96415 5.15987,3.41735 0.66076,0.12344 1.49007,0.49564 1.8429,0.82711 1.38817,1.30412 0.95391,3.63639 -0.81467,4.37535 -1.1718,0.4896 -3.91286,0.45978 -5.39395,-0.0587 z"
       id="path1488"
       sodipodi:nodetypes="ssssssssccccscsccssccssssccccssssccscsssssssss" />
  </g>
</svg>
