<?xml version="1.0" encoding="UTF-8" standalone="no"?>
<!-- Created with Inkscape (http://www.inkscape.org/) -->

<svg
   width="70.075478mm"
   height="70.075478mm"
   viewBox="0 0 70.075478 70.075478"
   version="1.1"
   id="svg5"
   inkscape:version="1.1 (c68e22c387, 2021-05-23)"
   sodipodi:docname="history.svg"
   xmlns:inkscape="http://www.inkscape.org/namespaces/inkscape"
   xmlns:sodipodi="http://sodipodi.sourceforge.net/DTD/sodipodi-0.dtd"
   xmlns="http://www.w3.org/2000/svg"
   xmlns:svg="http://www.w3.org/2000/svg">
  <sodipodi:namedview
     id="namedview7"
     pagecolor="#ffffff"
     bordercolor="#666666"
     borderopacity="1.0"
     inkscape:pageshadow="2"
     inkscape:pageopacity="0.0"
     inkscape:pagecheckerboard="0"
     inkscape:document-units="mm"
     showgrid="false"
     fit-margin-top="0"
     fit-margin-left="0"
     fit-margin-right="0"
     fit-margin-bottom="0"
     inkscape:zoom="1.3416246"
     inkscape:cx="-41.367757"
     inkscape:cy="89.071117"
     inkscape:window-width="1920"
     inkscape:window-height="1017"
     inkscape:window-x="1912"
     inkscape:window-y="-8"
     inkscape:window-maximized="1"
     inkscape:current-layer="layer1" />
  <defs
     id="defs2" />
  <g
     inkscape:label="Calque 1"
     inkscape:groupmode="layer"
     id="layer1"
     transform="translate(165.92102,85.19935)">
    <path
       style="fill:#ffffff;stroke-width:0.264583"
       d="m -142.80908,-22.556098 c -18.32201,-5.468559 -18.21742,-5.425366 -20.54499,-8.484317 -1.81628,-2.386999 -2.40603,-4.131399 -2.54668,-7.532737 -0.16737,-4.047394 0.70471,-7.734945 2.51063,-10.616117 l 27.32811,-30.822325 c 1.62163,-1.865963 2.48256,-2.4268 3.72531,-2.4268 0.85608,0 33.536326,7.203352 34.717301,7.652358 1.063832,0.404469 1.773862,1.538555 1.773862,2.833277 0,1.106231 -0.162734,1.342282 -3.942741,5.719006 -13.914362,16.110909 -25.397652,29.200809 -26.022322,29.663076 -0.42115,0.311661 -1.09104,0.524468 -1.5875,0.504312 -0.47239,-0.01918 -7.1397,-1.828697 -14.81625,-4.021159 -7.67654,-2.192459 -14.4242,-3.986289 -14.9948,-3.986289 -2.21479,0 -3.44959,2.251488 -3.09506,5.643438 0.26026,2.490002 1.84885,5.027192 3.5731,5.706687 0.38108,0.150177 7.36024,2.249032 15.50926,4.664122 l 14.81638,4.391075 0.64308,-0.743807 c 0.35369,-0.409093 3.26256,-3.898963 6.46415,-7.755265 3.20159,-3.856302 8.32967,-10.032441 11.39574,-13.724755 l 5.57467,-6.713296 0.005,-2.811703 c 0.003,-2.012863 0.14009,-3.204133 0.48169,-4.192955 0.81156,-2.349172 2.480948,-3.457992 4.295211,-2.519798 1.099008,0.568317 1.301546,1.636239 1.301744,3.157549 -0.08591,5.186106 0.510778,6.978603 -0.275947,8.213677 -0.262313,0.402548 -4.187058,5.19675 -8.721658,10.653781 -4.5346,5.457031 -10.41209,12.54125 -13.06111,15.742708 -2.649,3.201458 -5.13883,6.028565 -5.53294,6.282462 -0.39411,0.253894 -1.13328,0.452247 -1.64261,0.440782 -0.50932,-0.01146 -8.30791,-2.224108 -17.33021,-4.916987 z m 28.10011,-39.370154 c 0.57278,-0.16429 2.77257,-2.416506 3.27233,-3.350313 0.19792,-0.369821 0.11942,-0.56334 -0.35448,-0.87385 -0.33478,-0.219358 -5.28695,-1.535258 -11.00482,-2.924222 -12.28411,-2.984008 -11.64171,-2.973501 -13.82785,-0.22614 -1.38895,1.745523 -1.39119,1.751388 -0.8386,2.198849 0.30825,0.2496 3.76451,1.230379 7.79015,2.210596 l 13.98295,3.225536 c 0.21829,-0.05121 0.65943,-0.168416 0.98032,-0.260456 z"
       id="path854"
       sodipodi:nodetypes="cssccssssssssssscsssccssccssssccssssssccs" />
  </g>
</svg>
