<?xml version="1.0" encoding="UTF-8" standalone="no"?>
<!-- Created with Inkscape (http://www.inkscape.org/) -->

<svg
   width="500mm"
   height="500mm"
   viewBox="0 0 500 500"
   version="1.1"
   id="svg7445"
   inkscape:version="1.1 (c68e22c387, 2021-05-23)"
   sodipodi:docname="husk_white.svg"
   xmlns:inkscape="http://www.inkscape.org/namespaces/inkscape"
   xmlns:sodipodi="http://sodipodi.sourceforge.net/DTD/sodipodi-0.dtd"
   xmlns="http://www.w3.org/2000/svg"
   xmlns:svg="http://www.w3.org/2000/svg">
  <sodipodi:namedview
     id="namedview7447"
     pagecolor="#ffffff"
     bordercolor="#666666"
     borderopacity="1.0"
     inkscape:pageshadow="2"
     inkscape:pageopacity="0.0"
     inkscape:pagecheckerboard="0"
     inkscape:document-units="mm"
     showgrid="false"
     fit-margin-top="0"
     fit-margin-left="0"
     fit-margin-right="0"
     fit-margin-bottom="0"
     inkscape:zoom="0.33540614"
     inkscape:cx="1004.752"
     inkscape:cy="724.49478"
     inkscape:window-width="1920"
     inkscape:window-height="1106"
     inkscape:window-x="-11"
     inkscape:window-y="-11"
     inkscape:window-maximized="1"
     inkscape:current-layer="layer1" />
  <defs
     id="defs7442" />
  <g
     inkscape:label="Calque 1"
     inkscape:groupmode="layer"
     id="layer1"
     transform="translate(176.08922,27.7343)">
    <path
       style="fill:#ffffff;stroke-width:0.274271"
       d="m -151.89578,397.04087 -19.55291,-0.13715 24.45283,-36.61521 c 46.56532,-69.72624 80.657683,-121.2562 86.102352,-130.14199 l 1.176386,-1.91992 -0.697333,-1.2514 c -2.040811,-3.66237 -16.313712,-25.35018 -53.506915,-81.30443 -51.73669,-77.833734 -62.16785,-93.753801 -62.16785,-94.880915 0,-0.386762 4.21225,-0.428538 43.18959,-0.428538 h 43.189586 l 22.663452,34.078296 c 12.464892,18.742987 22.897778,34.299097 23.184187,34.568927 0.286408,0.26983 0.520743,0.61451 0.520743,0.76596 0,0.15134 8.989738,13.81552 19.977193,30.36492 27.4405025,41.33079 45.855668,69.2552 49.37357,74.869 l 1.420778,2.26729 -0.449229,0.88683 c -1.822487,3.59789 -12.399982,20.21944 -29.2367078,45.9426 C -13.002093,290.52299 -83.257596,395.8584 -84.029254,396.70925 l -0.569787,0.6283 -23.871919,-0.0798 c -13.12955,-0.0435 -32.67072,-0.1414 -43.42482,-0.21686 z m 99.228876,0 c 0,-0.15114 13.103644,-19.9296 29.119208,-43.95208 C 18.74009,289.65897 44.098726,251.3749 54.481522,235.28722 l 3.939739,-6.10454 -6.003479,-9.25472 C 49.115874,214.83785 44.248123,207.34083 41.600549,203.26785 38.952976,199.19488 35.066933,193.20893 32.96488,189.96566 17.831192,166.61574 -11.5604,121.44573 -18.790095,110.42679 -28.720926,95.291032 -38.257524,80.593449 -43.615904,72.165953 c -2.014162,-3.167904 -5.795567,-9.051852 -8.403118,-13.075588 -2.607554,-4.023736 -4.820812,-7.633861 -4.918352,-8.022489 l -0.177346,-0.706559 h 43.087911 43.08791 l 4.985334,7.473911 c 2.741927,4.110605 5.136659,7.597373 5.321623,7.748201 0.536937,0.437867 37.756154,56.415961 37.940464,57.062811 0.260191,0.91316 14.314895,22.064 14.66522,22.06959 0.171602,0 6.062619,8.67318 13.091148,19.26762 7.02852,10.59434 24.78954,37.34396 39.46893,59.44341 27.22314,40.98372 54.23047,81.81952 57.86445,87.49272 1.11125,1.73468 7.81524,11.90307 14.89782,22.59641 14.0888,21.27119 32.05472,48.4595 38.21698,57.83457 l 3.92162,5.96625 -43.75562,-0.0694 -43.75563,-0.0695 -34.19625,-51.49223 c -18.80797,-28.32061 -34.26352,-51.49317 -34.3457,-51.49452 -0.0822,0 -15.625228,23.20107 -34.540146,51.56076 L 34.450581,397.31505 H -9.1081634 c -28.9252966,0 -43.5587406,-0.0923 -43.5587406,-0.27491 z M 277.82771,381.06451 c -2.47111,-3.80895 -10.89544,-16.78087 -18.72073,-28.82668 -7.82529,-12.04571 -14.29397,-22.07375 -14.37488,-22.28459 -0.1255,-0.32706 5.6673,-0.38324 39.51456,-0.38324 h 39.66162 v 29.20992 29.21003 H 303.11447 282.32064 Z M 207.5443,272.87695 c -13.30783,-20.47393 -18.21019,-28.22441 -17.94599,-28.37233 2.11697,-1.18465 44.72737,-1.95828 100.4374,-1.82331 l 33.73544,0.0819 0.0698,29.1414 0.0699,29.14141 h -49.0285 -49.02849 z m -38.69792,-59.66679 c -0.37114,-0.49022 -4.92008,-7.43276 -10.10874,-15.42778 -5.18868,-7.99502 -13.77772,-21.2233 -19.08674,-29.39621 -5.30903,-8.1729 -9.65278,-14.9303 -9.65278,-15.01644 0,-0.086 43.62979,-0.15653 96.95508,-0.15653 h 96.95508 v 30.26168 30.26157 L 281.8992,213.919 c -23.10501,0.10055 -57.84212,0.18255 -77.19356,0.18255 h -35.18446 z m 31.87492,-86.53272 -88.21736,-0.0695 -12.603968,-19.40435 C 84.550428,83.572482 74.124478,67.33946 73.869179,66.674158 c -0.182092,-0.474563 0.226284,-0.488039 9.52457,-0.313784 5.343144,0.100552 61.644751,0.182238 125.114671,0.182445 l 115.39986,4.14e-4 V 96.713168 126.883 l -17.48482,-0.0684 c -9.61666,-0.0373 -57.18263,-0.0995 -105.70216,-0.13756 z"
       id="path7413" />
  </g>
</svg>
