<?xml version="1.0" encoding="UTF-8" standalone="no"?>
<!-- Created with Inkscape (http://www.inkscape.org/) -->

<svg
   width="300mm"
   height="300mm"
   viewBox="0 0 300 300"
   version="1.1"
   id="svg5"
   inkscape:version="1.1 (c68e22c387, 2021-05-23)"
   sodipodi:docname="js_white.svg"
   xmlns:inkscape="http://www.inkscape.org/namespaces/inkscape"
   xmlns:sodipodi="http://sodipodi.sourceforge.net/DTD/sodipodi-0.dtd"
   xmlns="http://www.w3.org/2000/svg"
   xmlns:svg="http://www.w3.org/2000/svg">
  <sodipodi:namedview
     id="namedview7"
     pagecolor="#ffffff"
     bordercolor="#666666"
     borderopacity="1.0"
     inkscape:pageshadow="2"
     inkscape:pageopacity="0.0"
     inkscape:pagecheckerboard="0"
     inkscape:document-units="mm"
     showgrid="false"
     width="300mm"
     inkscape:zoom="0.47433592"
     inkscape:cx="270.90506"
     inkscape:cy="728.38675"
     inkscape:window-width="1920"
     inkscape:window-height="1017"
     inkscape:window-x="1912"
     inkscape:window-y="-8"
     inkscape:window-maximized="1"
     inkscape:current-layer="layer1" />
  <defs
     id="defs2" />
  <g
     inkscape:label="Calque 1"
     inkscape:groupmode="layer"
     id="layer1">
    <path
       style="fill:#ffffff;stroke-width:0.294627"
       d="M 0.47568601,149.01717 V -1.831964 H 151.32482 302.17396 V 149.01717 299.86631 H 151.32482 0.47568601 Z M 128.04927,275.98379 c 6.05843,-0.55489 12.44943,-2.21313 16.63091,-4.31515 3.08826,-1.55245 6.58276,-4.07865 9.03706,-6.53294 5.37157,-5.37158 8.48472,-11.80927 10.34665,-21.39588 0.62565,-3.22137 0.63006,-3.55378 0.7317,-55.16894 l 0.10224,-51.92805 h -14.29385 -14.29385 l -0.0813,51.19148 c -0.0766,48.20054 -0.11215,51.29476 -0.60879,52.95924 -1.28621,4.31072 -3.18511,6.92803 -6.08681,8.38966 -2.21501,1.11573 -4.60445,1.57966 -8.11304,1.57521 -7.46365,-0.009 -11.86764,-3.17864 -17.18771,-12.36852 l -1.22092,-2.10903 -11.419593,6.89898 c -6.280775,3.79443 -11.464888,7.03385 -11.520252,7.19871 -0.16898,0.50315 2.825299,5.63678 4.900582,8.40193 9.600843,12.79239 24.830423,18.8745 43.077003,17.2033 z m 110.36038,-8.8e-4 c 22.07554,-2.14816 36.73845,-13.92748 39.78522,-31.96112 0.64816,-3.83643 0.65612,-11.34374 0.0161,-15.16418 -2.09744,-12.51971 -8.40904,-21.03292 -21.40959,-28.87766 -3.68698,-2.22478 -11.88571,-6.22346 -18.4142,-8.98095 -6.74819,-2.85029 -12.80522,-5.78886 -15.16319,-7.35644 -2.48676,-1.6532 -4.42671,-3.75921 -5.51761,-5.98995 -0.76313,-1.56047 -0.82039,-1.93317 -0.82357,-5.35993 -0.003,-3.37605 0.0619,-3.82212 0.78041,-5.35489 2.09321,-4.46521 6.69749,-7.02635 12.60995,-7.01433 7.05766,0.0143 11.93726,2.78856 16.27105,9.25061 0.98731,1.47217 1.90859,2.64373 2.0473,2.60347 0.39557,-0.11482 20.97721,-13.34965 21.43505,-13.78362 0.34607,-0.32801 0.21458,-0.69669 -0.85556,-2.39882 -4.71393,-7.49789 -11.02032,-13.34751 -17.69152,-16.41015 -6.85536,-3.14713 -15.31745,-4.48754 -25.02472,-3.96391 -17.44899,0.94124 -31.28144,10.67502 -36.06726,25.38022 -1.34643,4.13709 -1.75538,7.01309 -1.74629,12.28072 0.01,5.66343 0.54026,9.26747 2.02394,13.75069 1.9535,5.90287 4.35178,9.68031 9.24121,14.55553 5.82465,5.80771 12.0952,9.52405 26.5484,15.73431 18.0278,7.74619 22.20325,10.79421 23.53849,17.18277 0.93541,4.47556 -0.30382,8.62402 -3.47868,11.64532 -4.04795,3.85215 -9.45902,5.47204 -17.08508,5.11469 -4.29362,-0.20119 -6.58649,-0.6532 -10.00934,-1.97319 -5.14564,-1.98437 -10.44496,-6.50947 -14.41656,-12.31034 -1.52959,-2.2341 -1.94668,-2.66721 -2.35702,-2.44754 -1.64042,0.87821 -22.0497,12.78305 -22.25042,12.97879 -0.57883,0.56447 3.4147,6.8477 6.93364,10.90904 8.31476,9.59639 21.24179,16.121 35.00019,17.6655 1.53943,0.17282 3.19671,0.36058 3.68284,0.41725 2.05914,0.24005 9.42142,0.16768 12.39683,-0.12185 z"
       id="path1841" />
    <g
       id="g1204"
       transform="translate(-134.42917,1.6733921)" />
  </g>
</svg>
