<?xml version="1.0" encoding="UTF-8" standalone="no"?>
<!-- Created with Inkscape (http://www.inkscape.org/) -->

<svg
   width="300mm"
   height="300mm"
   viewBox="0 0 300 300"
   version="1.1"
   id="svg5"
   inkscape:version="1.1 (c68e22c387, 2021-05-23)"
   sodipodi:docname="js.svg"
   xmlns:inkscape="http://www.inkscape.org/namespaces/inkscape"
   xmlns:sodipodi="http://sodipodi.sourceforge.net/DTD/sodipodi-0.dtd"
   xmlns="http://www.w3.org/2000/svg"
   xmlns:svg="http://www.w3.org/2000/svg">
  <sodipodi:namedview
     id="namedview7"
     pagecolor="#ffffff"
     bordercolor="#666666"
     borderopacity="1.0"
     inkscape:pageshadow="2"
     inkscape:pageopacity="0.0"
     inkscape:pagecheckerboard="0"
     inkscape:document-units="mm"
     showgrid="false"
     width="300mm"
     inkscape:zoom="0.47433592"
     inkscape:cx="270.90506"
     inkscape:cy="728.38675"
     inkscape:window-width="1920"
     inkscape:window-height="1017"
     inkscape:window-x="1912"
     inkscape:window-y="-8"
     inkscape:window-maximized="1"
     inkscape:current-layer="layer1" />
  <defs
     id="defs2" />
  <g
     inkscape:label="Calque 1"
     inkscape:groupmode="layer"
     id="layer1">
    <g
       id="g1204"
       transform="translate(-2.5743609,-0.82848613)">
      <path
         style="fill:#f5dd1c;stroke-width:0.294627"
         d="M 0.21461277,149.48607 V -1.3630693 H 151.06375 301.91288 V 149.48607 300.3352 H 151.06375 0.21461277 Z M 126.90432,276.46022 c 11.3701,-0.86725 20.05365,-4.43549 26.51282,-10.89466 6.49746,-6.49746 10.00494,-15.14502 10.89957,-26.8725 0.18455,-2.41919 0.29873,-22.55183 0.29917,-52.7497 l 7.2e-4,-48.8373 -14.21576,0.0765 -14.21577,0.0765 -0.1546,51.26513 c -0.143,47.419 -0.1927,51.38944 -0.66235,52.92193 -1.21057,3.95007 -2.63514,6.15246 -4.93364,7.62741 -4.2935,2.75513 -11.67238,3.07093 -16.65689,0.71288 -3.15671,-1.49337 -7.17484,-5.99238 -10.04307,-11.245 -0.46328,-0.84841 -0.95394,-1.54446 -1.09037,-1.5468 -0.19345,-0.003 -22.444883,13.35046 -22.825441,13.69825 -0.2024,0.18498 2.062821,4.31472 3.806321,6.93935 2.438877,3.67143 7.755593,8.99309 11.40956,11.42017 6.32422,4.20075 13.78251,6.71215 21.92256,7.38191 4.3794,0.36033 5.52404,0.36332 9.94717,0.0259 z m 110.36876,-5.9e-4 c 22.62844,-1.81878 37.72346,-13.88217 40.67292,-32.5043 0.64625,-4.08024 0.40854,-13.03177 -0.44705,-16.83502 -1.68594,-7.49427 -4.8,-13.17693 -10.10518,-18.44035 -5.83658,-5.79062 -14.10991,-10.66554 -28.67843,-16.89828 -17.71551,-7.57909 -21.18315,-10.25905 -22.25741,-17.20161 -0.88326,-5.70818 2.03325,-10.98723 7.28633,-13.18868 1.89115,-0.79253 2.25505,-0.84174 6.27958,-0.84906 3.69474,-0.007 4.5346,0.083 6.21444,0.66372 3.93101,1.35901 7.33939,4.2311 10.25183,8.63877 l 1.67427,2.53384 10.74341,-6.89684 c 5.90888,-3.79326 10.8623,-7.01459 11.00762,-7.15852 0.46125,-0.45686 -4.12869,-6.93682 -7.12412,-10.05764 -3.69548,-3.85016 -6.70414,-6.08002 -11.07756,-8.21012 -6.76567,-3.29525 -11.62658,-4.25753 -21.54257,-4.26461 -6.31806,-0.005 -7.43187,0.0697 -10.45927,0.69712 -16.78861,3.4793 -28.06933,14.341 -30.78939,29.64572 -0.54818,3.08442 -0.6313,10.35546 -0.1566,13.69887 1.56088,10.99369 6.63226,19.3177 16.00172,26.26473 4.85951,3.6031 10.29422,6.4472 21.86801,11.44397 16.19692,6.99272 20.5489,9.88686 22.60032,15.02957 0.52368,1.31282 0.64913,2.23689 0.66081,4.86755 0.0138,3.10208 -0.0297,3.33667 -0.97299,5.25281 -1.83375,3.72487 -5.44614,6.44195 -10.51633,7.9099 -2.07802,0.60164 -2.9617,0.67748 -7.79434,0.6689 -6.12562,-0.0109 -8.47901,-0.45143 -12.61221,-2.36109 -5.30885,-2.45284 -10.35112,-7.10097 -14.18602,-13.07715 l -0.9628,-1.50038 -0.9245,0.55971 c -0.50848,0.30784 -5.56489,3.2432 -11.23646,6.52303 -5.67158,3.27982 -10.42905,6.07011 -10.57216,6.20064 -0.52734,0.48096 3.23482,6.37056 6.73175,10.53845 3.71282,4.42519 9.71994,9.15776 15.15913,11.94277 10.03932,5.14039 22.50155,7.38931 35.26325,6.36358 z"
         id="path1208" />
      <path
         style="fill:#010000;stroke-width:0.294627"
         d="m 116.95715,276.43427 c -8.14005,-0.66976 -15.59834,-3.18116 -21.92256,-7.38191 -3.653967,-2.42708 -8.970683,-7.74874 -11.40956,-11.42017 -1.7435,-2.62463 -4.008721,-6.75437 -3.806321,-6.93935 0.380558,-0.34779 22.631991,-13.70156 22.825441,-13.69825 0.13643,0.002 0.62709,0.69839 1.09037,1.5468 2.86823,5.25262 6.88636,9.75163 10.04307,11.245 4.98451,2.35805 12.36339,2.04225 16.65689,-0.71288 2.2985,-1.47495 3.72307,-3.67734 4.93364,-7.62741 0.46965,-1.53249 0.51935,-5.50293 0.66235,-52.92193 l 0.1546,-51.26513 14.21577,-0.0765 14.21576,-0.0765 -5.9e-4,48.8373 c -2.9e-4,30.19787 -0.11462,50.33051 -0.29917,52.7497 -0.89464,11.72748 -4.40211,20.37504 -10.89958,26.8725 -6.45917,6.45917 -15.14271,10.02741 -26.51282,10.89466 -4.42313,0.33737 -5.56777,0.33438 -9.94716,-0.026 z m 108.05803,0.007 c -18.12018,-1.57369 -32.76698,-9.64374 -41.78322,-23.02157 -2.14745,-3.18628 -3.40755,-5.53585 -3.11301,-5.80449 0.14311,-0.13052 4.90058,-2.92081 10.57216,-6.20064 5.67157,-3.27982 10.72798,-6.21518 11.23646,-6.52302 l 0.9245,-0.55971 0.9628,1.50038 c 3.8349,5.97618 8.87717,10.6243 14.18602,13.07715 4.1332,1.90965 6.48659,2.35022 12.61221,2.36109 4.83264,0.009 5.71632,-0.0673 7.79434,-0.6689 5.07019,-1.46796 8.68258,-4.18503 10.51633,-7.9099 0.94331,-1.91615 0.98676,-2.15073 0.97299,-5.25281 -0.0117,-2.63067 -0.13713,-3.55473 -0.66081,-4.86755 -2.05142,-5.14271 -6.4034,-8.03685 -22.60032,-15.02958 -11.57379,-4.99677 -17.0085,-7.84086 -21.86801,-11.44397 -9.36946,-6.94703 -14.44084,-15.27103 -16.00172,-26.26472 -0.4747,-3.34341 -0.39158,-10.61446 0.1566,-13.69888 2.72006,-15.30471 14.00078,-26.16642 30.78939,-29.64571 3.0274,-0.6274 4.14121,-0.70164 10.45927,-0.69713 9.91599,0.007 14.7769,0.96936 21.54257,4.26462 4.37342,2.13009 7.38208,4.35996 11.07756,8.21012 2.99543,3.12081 7.58537,9.60077 7.12412,10.05764 -0.14532,0.14393 -5.09874,3.36526 -11.00762,7.15852 l -10.74341,6.89683 -1.67427,-2.53383 c -2.91244,-4.40768 -6.32082,-7.27977 -10.25183,-8.63877 -1.67984,-0.58074 -2.5197,-0.67044 -6.21444,-0.66372 -4.02453,0.007 -4.38843,0.0565 -6.27958,0.84906 -5.25308,2.20144 -8.16959,7.48049 -7.28633,13.18868 1.07426,6.94256 4.5419,9.62251 22.25741,17.20161 14.56852,6.23273 22.84185,11.10765 28.67843,16.89828 5.30518,5.26342 8.41924,10.94608 10.10518,18.44035 0.85559,3.80324 1.0933,12.75477 0.44705,16.83501 -1.96774,12.42381 -9.40936,22.14787 -21.13296,27.61468 -8.75145,4.08088 -20.38131,5.86237 -31.79786,4.87088 z"
         id="path1206" />
    </g>
  </g>
</svg>
