<?xml version="1.0" encoding="UTF-8" standalone="no"?>
<!-- Created with Inkscape (http://www.inkscape.org/) -->

<svg
   width="414mm"
   height="414.08182mm"
   viewBox="0 0 414 414.08182"
   version="1.1"
   id="svg6861"
   inkscape:version="1.1 (c68e22c387, 2021-05-23)"
   sodipodi:docname="jelly_white.svg"
   xmlns:inkscape="http://www.inkscape.org/namespaces/inkscape"
   xmlns:sodipodi="http://sodipodi.sourceforge.net/DTD/sodipodi-0.dtd"
   xmlns="http://www.w3.org/2000/svg"
   xmlns:svg="http://www.w3.org/2000/svg">
  <sodipodi:namedview
     id="namedview6863"
     pagecolor="#ffffff"
     bordercolor="#666666"
     borderopacity="1.0"
     inkscape:pageshadow="2"
     inkscape:pageopacity="0.0"
     inkscape:pagecheckerboard="0"
     inkscape:document-units="mm"
     showgrid="false"
     fit-margin-top="0"
     fit-margin-left="0"
     fit-margin-right="0"
     fit-margin-bottom="0"
     inkscape:zoom="0.33540614"
     inkscape:cx="450.20046"
     inkscape:cy="772.19814"
     inkscape:window-width="1920"
     inkscape:window-height="1106"
     inkscape:window-x="-11"
     inkscape:window-y="-11"
     inkscape:window-maximized="1"
     inkscape:current-layer="layer1" />
  <defs
     id="defs6858" />
  <g
     inkscape:label="Calque 1"
     inkscape:groupmode="layer"
     id="layer1"
     transform="translate(74.333382,102.12549)">
    <path
       style="fill:#ffffff;stroke-width:2.34925"
       d="M 76.014448,306.22334 C 9.275361,280.03134 -13.244187,181.51602 -3.2338688,119.32887 3.9930662,84.993205 36.975364,64.659986 64.362889,77.656269 c 14.896684,7.068965 16.185989,11.422116 17.682742,59.703471 1.913071,61.71049 6.964982,74.00136 30.417129,74.00136 72.59661,-38.65171 50.84321,-171.831233 51.81555,-228.729654 -25.37992,1.670265 -51.49148,7.083381 -75.50557,7.5437308 C 41.234842,-1.1656855 41.15752,-63.765425 68.842755,-77.578899 111.70957,-91.947968 163.89056,-98.522282 200.54375,-98.641129 277.19986,-110.15948 282.91394,-39.728744 282.40214,8.1509252 281.93757,87.370689 273.26629,192.26555 231.84959,248.55579 195.09313,293.98367 136.09887,325.41523 76.014677,306.22328 Z m 42.286482,-11.46381 c 0.84977,-1.37453 -1.59038,-2.34926 -5.8804,-2.34926 -8.46475,0 -25.724655,-4.9508 -45.552045,-13.06606 -13.329136,-5.45544 -13.678914,-5.48332 -9.396947,-0.74848 5.929962,6.55689 20.25654,13.68965 32.271334,16.06666 14.032198,2.77618 26.875428,2.81995 28.558058,0.0977 z M 65.442867,94.186284 c 0,-0.487731 -1.609951,-2.223079 -3.577756,-3.856142 -2.991348,-2.482682 -3.335108,-2.337327 -2.097861,0.887048 1.263594,3.29305 5.675617,5.601178 5.675617,2.969139 z M 77.189074,-20.805233 c 0,-0.420654 -2.813371,-3.327887 -6.251919,-6.460352 -5.703327,-5.195534 -5.776382,-2.995694 -0.141932,4.289028 2.036722,2.633404 6.394249,4.113199 6.394249,2.171324 z M 266.0235,-54.691461 c -3.87295,-16.201516 -10.23658,-23.183884 -25.17177,-27.619131 -6.46821,-1.920949 -12.05314,-3.199771 -12.41087,-2.842105 -0.35784,0.357695 5.08086,5.084882 12.08563,10.504773 7.00478,5.4199 15.14164,13.567833 18.08194,18.10659 6.42018,9.91017 9.52713,10.685296 7.41507,1.849873 z"
       id="path5926"
       sodipodi:nodetypes="ccsscccccccccsssssssssssssssssssssss" />
  </g>
</svg>
