<?xml version="1.0" encoding="UTF-8" standalone="no"?>
<!-- Created with Inkscape (http://www.inkscape.org/) -->

<svg
   width="300mm"
   height="300mm"
   viewBox="0 0 300 300"
   version="1.1"
   id="svg5"
   inkscape:version="1.1 (c68e22c387, 2021-05-23)"
   sodipodi:docname="kotlin.svg"
   xmlns:inkscape="http://www.inkscape.org/namespaces/inkscape"
   xmlns:sodipodi="http://sodipodi.sourceforge.net/DTD/sodipodi-0.dtd"
   xmlns="http://www.w3.org/2000/svg"
   xmlns:svg="http://www.w3.org/2000/svg">
  <sodipodi:namedview
     id="namedview7"
     pagecolor="#ffffff"
     bordercolor="#666666"
     borderopacity="1.0"
     inkscape:pageshadow="2"
     inkscape:pageopacity="0.0"
     inkscape:pagecheckerboard="0"
     inkscape:document-units="mm"
     showgrid="false"
     width="300mm"
     inkscape:zoom="0.5"
     inkscape:cx="441"
     inkscape:cy="703"
     inkscape:window-width="1920"
     inkscape:window-height="1017"
     inkscape:window-x="1912"
     inkscape:window-y="-8"
     inkscape:window-maximized="1"
     inkscape:current-layer="layer1" />
  <defs
     id="defs2" />
  <g
     inkscape:label="Calque 1"
     inkscape:groupmode="layer"
     id="layer1">
    <g
       id="g1204"
       transform="translate(-134.42917,1.6733921)" />
    <g
       id="g5352"
       transform="matrix(0.55277934,0,0,0.55277934,108.69013,63.443134)">
      <path
         style="fill:#7f6de2;stroke-width:0.264583"
         d="m 342.44537,426.83103 -0.64143,-0.7276 0.7276,0.64142 c 0.40018,0.3528 0.72761,0.68022 0.72761,0.72761 0,0.20751 -0.21426,0.0386 -0.81378,-0.64143 z m -540.78828,-2.5473 c 0,-0.0549 0.20836,-0.26329 0.46302,-0.46302 0.41964,-0.32909 0.429,-0.31975 0.0999,0.0999 -0.34565,0.44072 -0.56292,0.5809 -0.56292,0.36312 z m 535.23203,-3.00895 -0.64143,-0.7276 0.7276,0.64142 c 0.40019,0.3528 0.72761,0.68022 0.72761,0.72761 0,0.20751 -0.21426,0.0386 -0.81378,-0.64143 z m -2.51016,-2.77813 -0.7771,-0.85989 0.85989,0.77711 c 0.47294,0.4274 0.8599,0.81436 0.8599,0.85989 0,0.20442 -0.21831,0.0243 -0.94269,-0.77711 z m -5.02708,-5.02708 -0.77711,-0.85989 0.8599,0.7771 c 0.47294,0.42741 0.85989,0.81436 0.85989,0.8599 0,0.20442 -0.2183,0.0243 -0.94268,-0.77711 z m -2.64583,-2.91041 -0.77711,-0.8599 0.85989,0.77711 c 0.47295,0.4274 0.8599,0.81436 0.8599,0.85989 0,0.20442 -0.21831,0.0243 -0.94268,-0.7771 z m -5.02709,-5.02709 -0.7771,-0.85989 0.85989,0.7771 c 0.47294,0.42741 0.8599,0.81436 0.8599,0.8599 0,0.20442 -0.21831,0.0243 -0.94269,-0.77711 z m -2.64583,-2.91041 -0.77711,-0.8599 0.8599,0.77711 c 0.47294,0.42741 0.85989,0.81436 0.85989,0.85989 0,0.20442 -0.2183,0.0243 -0.94268,-0.7771 z m -490.65312,-4.82865 c 0.49365,-0.50932 0.95708,-0.92604 1.02984,-0.92604 0.0728,0 -0.27161,0.41672 -0.76526,0.92604 -0.49366,0.50932 -0.95709,0.92604 -1.02985,0.92604 -0.0728,0 0.27161,-0.41672 0.76527,-0.92604 z m 485.62604,-0.19844 -0.77711,-0.85989 0.8599,0.7771 c 0.47294,0.42741 0.85989,0.81437 0.85989,0.8599 0,0.20442 -0.21831,0.0243 -0.94268,-0.77711 z m -2.78151,-3.04271 -0.64143,-0.7276 0.7276,0.64143 c 0.40018,0.35279 0.7276,0.68022 0.7276,0.7276 0,0.20752 -0.21425,0.0386 -0.81377,-0.64143 z m -479.40495,-0.43063 c 0,-0.0549 0.20836,-0.26329 0.46302,-0.46302 0.41964,-0.32909 0.429,-0.31975 0.0999,0.0999 -0.34565,0.44072 -0.56292,0.5809 -0.56292,0.36312 z m 4.36562,-4.13343 c 0.56839,-0.58208 1.09297,-1.05833 1.16573,-1.05833 0.0728,0 -0.33275,0.47625 -0.90114,1.05833 -0.56839,0.58209 -1.09297,1.05834 -1.16573,1.05834 -0.0728,0 0.33275,-0.47625 0.90114,-1.05834 z m 470.14792,-0.33073 -0.77711,-0.85989 0.8599,0.7771 c 0.47294,0.42741 0.8599,0.81437 0.8599,0.8599 0,0.20442 -0.21831,0.0243 -0.94269,-0.77711 z m -2.91042,-3.175 -0.7771,-0.85989 0.85989,0.7771 c 0.47295,0.42741 0.8599,0.81437 0.8599,0.8599 0,0.20442 -0.21831,0.0243 -0.94269,-0.77711 z m -459.3,-4.43177 c 1.01084,-1.01864 1.89743,-1.85208 1.97019,-1.85208 0.0728,0 -0.69476,0.83344 -1.7056,1.85208 -1.01084,1.01865 -1.89743,1.85209 -1.97019,1.85209 -0.0728,0 0.69476,-0.83344 1.7056,-1.85209 z m 454.27292,-0.59531 -0.77711,-0.8599 0.8599,0.77711 c 0.47294,0.42741 0.8599,0.81436 0.8599,0.8599 0,0.20441 -0.21831,0.0243 -0.94269,-0.77711 z m -2.64583,-2.91042 -0.77711,-0.85989 0.8599,0.77711 c 0.47294,0.4274 0.85989,0.81436 0.85989,0.85989 0,0.20442 -0.21831,0.0243 -0.94268,-0.77711 z m -445.67396,-2.38786 c 0,-0.04 0.92273,-0.96277 2.05052,-2.05052 l 2.05052,-1.97776 -1.97775,2.05052 c -1.8369,1.90447 -2.12329,2.17125 -2.12329,1.97776 z m 440.64688,-2.63922 -0.77711,-0.8599 0.85989,0.77711 c 0.47295,0.42741 0.8599,0.81436 0.8599,0.8599 0,0.20441 -0.21831,0.0243 -0.94268,-0.77711 z m -2.64584,-2.91042 -0.77711,-0.85989 0.8599,0.77711 c 0.47294,0.4274 0.8599,0.81436 0.8599,0.85989 0,0.20442 -0.21831,0.0243 -0.94269,-0.77711 z m -428.21146,-4.29948 c 1.3767,-1.38244 2.56262,-2.51354 2.63538,-2.51354 0.0728,0 -0.9941,1.1311 -2.3708,2.51354 -1.37669,1.38245 -2.56262,2.51355 -2.63538,2.51355 -0.0728,0 0.9941,-1.1311 2.3708,-2.51355 z m 423.18438,-0.7276 -0.77711,-0.8599 0.8599,0.77711 c 0.47294,0.42741 0.85989,0.81436 0.85989,0.8599 0,0.20442 -0.2183,0.0243 -0.94268,-0.77711 z m -2.64583,-2.91042 -0.77711,-0.85989 0.85989,0.77711 c 0.47295,0.4274 0.8599,0.81436 0.8599,0.85989 0,0.20442 -0.21831,0.0243 -0.94268,-0.77711 z m -415.24688,-1.60414 c 0,-0.0455 0.38695,-0.43249 0.85989,-0.85989 l 0.8599,-0.77711 -0.77711,0.85989 c -0.72437,0.80156 -0.94268,0.98153 -0.94268,0.77711 z m 410.08991,-3.55523 -0.91181,-0.99219 0.99219,0.91181 c 0.9235,0.84868 1.11384,1.07257 0.91181,1.07257 -0.0442,0 -0.4907,-0.44649 -0.99219,-0.99219 z m -406.38575,-0.14893 c 0,-0.0455 0.38696,-0.43249 0.8599,-0.8599 l 0.85989,-0.77711 -0.7771,0.8599 c -0.72437,0.80155 -0.94269,0.98152 -0.94269,0.77711 z m 403.47533,-3.02607 -0.9118,-0.99219 0.99218,0.91181 c 0.9235,0.84868 1.11385,1.07257 0.91181,1.07257 -0.0442,0 -0.4907,-0.44649 -0.99219,-0.99219 z m -399.77116,-0.6781 c 0,-0.0455 0.38695,-0.43249 0.8599,-0.8599 l 0.85989,-0.7771 -0.7771,0.85989 c -0.72437,0.80156 -0.94269,0.98153 -0.94269,0.77711 z m 395.14273,-3.95211 -1.04587,-1.12448 1.12447,1.04587 c 1.04577,0.97266 1.24606,1.20309 1.04588,1.20309 -0.0432,0 -0.54923,-0.50602 -1.12448,-1.12448 z m -390.64481,-0.54581 c 0,-0.0455 0.38695,-0.43249 0.85989,-0.85989 l 0.8599,-0.77711 -0.77711,0.85989 c -0.72437,0.80156 -0.94268,0.98153 -0.94268,0.77711 z m 387.60033,-2.76148 -0.91181,-0.99219 0.99219,0.91181 c 0.9235,0.84868 1.11384,1.07257 0.9118,1.07257 -0.0442,0 -0.49069,-0.44649 -0.99218,-0.99219 z m -384.42533,-0.41352 c 0,-0.0455 0.38695,-0.43249 0.85989,-0.85989 l 0.8599,-0.77711 -0.77711,0.85989 c -0.72437,0.80156 -0.94268,0.98153 -0.94268,0.77711 z m 379.79689,-4.21669 -1.04587,-1.12448 1.12448,1.04587 c 1.04576,0.97267 1.24605,1.20309 1.04587,1.20309 -0.0432,0 -0.54922,-0.50601 -1.12448,-1.12448 z m -374.24064,-1.38906 c 0.34177,-0.3638 0.68094,-0.66146 0.7537,-0.66146 0.0728,0 -0.14735,0.29766 -0.48912,0.66146 -0.34178,0.3638 -0.68094,0.66146 -0.7537,0.66146 -0.0728,0 0.14734,-0.29766 0.48912,-0.66146 z m 371.06146,-2.05052 -0.77711,-0.8599 0.8599,0.77711 c 0.47294,0.42741 0.85989,0.81436 0.85989,0.8599 0,0.20441 -0.2183,0.0243 -0.94268,-0.77711 z m -368.54792,-0.46302 c 0.26339,-0.29104 0.53842,-0.52917 0.61118,-0.52917 0.0728,0 -0.0832,0.23813 -0.3466,0.52917 -0.26339,0.29104 -0.53842,0.52916 -0.61118,0.52916 -0.0728,0 0.0832,-0.23812 0.3466,-0.52916 z m 364.05418,-4.0349 -1.04587,-1.12448 1.12448,1.04587 c 1.04577,0.97267 1.24606,1.20309 1.04587,1.20309 -0.0432,0 -0.54922,-0.50601 -1.12448,-1.12448 z m -358.23335,-1.78594 c 0.26339,-0.29104 0.53842,-0.52916 0.61118,-0.52916 0.0728,0 -0.0832,0.23812 -0.3466,0.52916 -0.26339,0.29105 -0.53842,0.52917 -0.61118,0.52917 -0.0728,0 0.0832,-0.23812 0.3466,-0.52917 z m 355.05417,-1.65364 -0.7771,-0.8599 0.85989,0.77711 c 0.47294,0.42741 0.8599,0.81436 0.8599,0.8599 0,0.20441 -0.21831,0.0243 -0.94269,-0.77711 z m -353.20209,-0.19844 c 0.26339,-0.29104 0.53843,-0.52917 0.61119,-0.52917 0.0728,0 -0.0832,0.23813 -0.3466,0.52917 -0.26339,0.29104 -0.53842,0.52917 -0.61119,0.52917 -0.0728,0 0.0832,-0.23813 0.3466,-0.52917 z m 348.57429,-4.43177 -0.9118,-0.99219 0.99218,0.91181 c 0.92351,0.84868 1.11385,1.07257 0.91181,1.07257 -0.0442,0 -0.4907,-0.44649 -0.99219,-0.99219 z m -342.48887,-1.65364 c 0.26339,-0.29105 0.538422,-0.52917 0.611182,-0.52917 0.07276,0 -0.08321,0.23812 -0.346599,0.52917 -0.26339,0.29104 -0.538421,0.52916 -0.611182,0.52916 -0.07276,0 0.08321,-0.23812 0.346599,-0.52916 z m 339.44376,-1.65365 -0.77711,-0.8599 0.8599,0.77711 c 0.47294,0.42741 0.85989,0.81436 0.85989,0.8599 0,0.20441 -0.21831,0.0243 -0.94268,-0.77711 z m -337.85626,0.0662 c 0.26339,-0.29105 0.538422,-0.52917 0.611182,-0.52917 0.07276,0 -0.08321,0.23812 -0.346599,0.52917 -0.26339,0.29104 -0.538421,0.52916 -0.611182,0.52916 -0.07276,0 0.08321,-0.23812 0.346599,-0.52916 z m 333.09794,-4.82865 -1.04587,-1.12448 1.12448,1.04587 c 1.04576,0.97266 1.24605,1.20309 1.04587,1.20309 -0.0432,0 -0.54922,-0.50602 -1.12448,-1.12448 z M -89.334582,315.5076 c 0.493654,-0.50933 0.957085,-0.92604 1.029846,-0.92604 0.07276,0 -0.271608,0.41671 -0.765263,0.92604 -0.493654,0.50932 -0.957085,0.92604 -1.029845,0.92604 -0.07276,0 0.271608,-0.41672 0.765262,-0.92604 z m 323.042002,-1.12448 -0.91181,-0.99219 0.99219,0.91181 c 0.9235,0.84868 1.11384,1.07257 0.9118,1.07257 -0.0442,0 -0.49069,-0.44649 -0.99218,-0.99219 z m -4.62844,-4.63021 -1.04587,-1.12448 1.12448,1.04587 c 1.04577,0.97266 1.24605,1.20309 1.04587,1.20309 -0.0432,0 -0.54922,-0.50602 -1.12448,-1.12448 z M -81.397082,307.5701 c 0.341775,-0.3638 0.680939,-0.66146 0.7537,-0.66146 0.07276,0 -0.147342,0.29766 -0.489117,0.66146 -0.341776,0.3638 -0.68094,0.66146 -0.7537,0.66146 -0.07276,0 0.147341,-0.29766 0.489117,-0.66146 z m 307.431582,-1.12448 -0.91181,-0.99219 0.99219,0.91181 c 0.9235,0.84868 1.11384,1.07257 0.91181,1.07257 -0.0442,0 -0.4907,-0.44649 -0.99219,-0.99219 z m -4.74826,-4.69636 c -0.64268,-0.65484 -1.10898,-1.19062 -1.03622,-1.19062 0.0728,0 0.65813,0.53578 1.3008,1.19062 0.64267,0.65485 1.10897,1.19063 1.03621,1.19063 -0.0728,0 -0.65812,-0.53578 -1.30079,-1.19063 z m -294.878114,-1.98437 c 0.26339,-0.29104 0.538421,-0.52917 0.611182,-0.52917 0.07276,0 -0.08321,0.23813 -0.346599,0.52917 -0.26339,0.29104 -0.538422,0.52917 -0.611182,0.52917 -0.07276,0 0.08321,-0.23813 0.346599,-0.52917 z m 291.558354,-1.65365 -1.04587,-1.12448 1.12448,1.04588 c 1.04577,0.97266 1.24606,1.20308 1.04587,1.20308 -0.0432,0 -0.54922,-0.50601 -1.12448,-1.12448 z m -287.19273,-2.44739 c 0.790422,-0.80037 1.496663,-1.45521 1.569424,-1.45521 0.07276,0 -0.514419,0.65484 -1.30484,1.45521 -0.790422,0.80036 -1.496664,1.45521 -1.569424,1.45521 -0.07276,0 0.514419,-0.65485 1.30484,-1.45521 z m 282.96191,-1.78594 -1.31297,-1.38906 1.38907,1.31297 c 0.76398,0.72212 1.38906,1.3472 1.38906,1.38906 0,0.19743 -0.24511,-0.0222 -1.46516,-1.31297 z m -3.44209,-3.70417 -1.04588,-1.12447 1.12448,1.04587 c 1.04577,0.97266 1.24606,1.20308 1.04588,1.20308 -0.0432,0 -0.54923,-0.50601 -1.12448,-1.12448 z m -271.714612,-2.3151 c 1.010841,-1.01865 1.897423,-1.85208 1.970183,-1.85208 0.07276,0 -0.694759,0.83343 -1.705599,1.85208 -1.010841,1.01865 -1.897423,1.85208 -1.970183,1.85208 -0.07276,0 0.694759,-0.83343 1.705599,-1.85208 z m 267.483792,-1.91823 -1.31297,-1.38906 1.38906,1.31297 c 0.76399,0.72212 1.38906,1.3472 1.38906,1.38906 0,0.19743 -0.24511,-0.0222 -1.46515,-1.31297 z m -3.57616,-3.83646 -0.91181,-0.99218 0.99219,0.9118 c 0.9235,0.84868 1.11384,1.07257 0.9118,1.07257 -0.0442,0 -0.49069,-0.44648 -0.99218,-0.99219 z m -256.102424,-2.05052 c 1.230501,-1.23692 2.296806,-2.24896 2.369566,-2.24896 0.07276,0 -0.874482,1.01204 -2.104982,2.24896 -1.230501,1.23693 -2.296806,2.24896 -2.369566,2.24896 -0.07276,0 0.874482,-1.01203 2.104982,-2.24896 z m 252.005664,-2.05052 -1.31297,-1.38906 1.38906,1.31297 c 0.76399,0.72212 1.38907,1.3472 1.38907,1.38906 0,0.19743 -0.24511,-0.0222 -1.46516,-1.31297 z m -3.57616,-3.83646 -0.91181,-0.99218 0.99219,0.9118 c 0.9235,0.84868 1.11384,1.07257 0.91181,1.07257 -0.0442,0 -0.4907,-0.44648 -0.99219,-0.99219 z m -240.624296,-1.91823 c 1.449747,-1.4552 2.695437,-2.64583 2.768198,-2.64583 0.07276,0 -1.053867,1.19063 -2.503615,2.64583 -1.449747,1.45521 -2.695437,2.64584 -2.768197,2.64584 -0.07276,0 1.053867,-1.19063 2.503614,-2.64584 z m 236.527536,-2.18281 -1.31296,-1.38906 1.38906,1.31297 c 0.76398,0.72213 1.38906,1.3472 1.38906,1.38906 0,0.19743 -0.24511,-0.0222 -1.46516,-1.31297 z M -39.857501,266.2951 c 0.493654,-0.50932 0.957085,-0.92604 1.029845,-0.92604 0.07276,0 -0.271608,0.41672 -0.765262,0.92604 -0.493654,0.50932 -0.957085,0.92604 -1.029845,0.92604 -0.07276,0 0.271608,-0.41672 0.765262,-0.92604 z m 226.998251,-0.0661 -0.9118,-0.99218 0.99218,0.9118 c 0.92351,0.84868 1.11385,1.07257 0.91181,1.07257 -0.0442,0 -0.4907,-0.44648 -0.99219,-0.99219 z m -4.22814,-4.23333 -1.44616,-1.52135 1.52135,1.44616 c 1.41338,1.34355 1.64256,1.59654 1.44616,1.59654 -0.0413,0 -0.72594,-0.6846 -1.52135,-1.52135 z m -219.595111,1.17398 c 0,-0.0455 0.386953,-0.43248 0.859896,-0.85989 l 0.859895,-0.77711 -0.777105,0.8599 c -0.724371,0.80155 -0.942686,0.98152 -0.942686,0.7771 z m 3.704166,-3.70416 c 0,-0.0455 0.386953,-0.43249 0.859896,-0.8599 l 0.859896,-0.77711 -0.777105,0.8599 c -0.724371,0.80155 -0.942687,0.98152 -0.942687,0.77711 z m 212.315655,-1.30628 -1.04587,-1.12448 1.12448,1.04587 c 1.04576,0.97267 1.24605,1.20309 1.04587,1.20309 -0.0432,0 -0.54923,-0.50601 -1.12448,-1.12448 z m -4.23082,-4.23333 -1.31297,-1.38906 1.38906,1.31297 c 1.29075,1.22004 1.5104,1.46515 1.31297,1.46515 -0.0419,0 -0.66693,-0.62508 -1.38906,-1.38906 z m -203.586918,1.04169 c 0,-0.0455 0.386953,-0.43249 0.859895,-0.8599 l 0.859896,-0.7771 -0.777105,0.85989 c -0.724371,0.80156 -0.942686,0.98153 -0.942686,0.77711 z m 3.704166,-3.75367 c 0.341776,-0.3638 0.68094,-0.66146 0.7537,-0.66146 0.07276,0 -0.147341,0.29766 -0.489117,0.66146 -0.341775,0.3638 -0.680939,0.66146 -0.7537,0.66146 -0.07276,0 0.147342,-0.29766 0.489117,-0.66146 z m 196.440652,-0.99219 -1.04587,-1.12448 1.12448,1.04588 c 1.04576,0.97266 1.24605,1.20308 1.04587,1.20308 -0.0432,0 -0.54922,-0.50601 -1.12448,-1.12448 z m -4.23082,-4.23333 -1.31297,-1.38906 1.38907,1.31297 c 1.29074,1.22004 1.5104,1.46515 1.31296,1.46515 -0.0419,0 -0.66693,-0.62508 -1.38906,-1.38906 z m -186.918165,-0.0661 c 0.341775,-0.3638 0.680939,-0.66145 0.7537,-0.66145 0.07276,0 -0.147342,0.29765 -0.489117,0.66145 -0.341776,0.36381 -0.68094,0.66146 -0.7537,0.66146 -0.07276,0 0.147341,-0.29765 0.489117,-0.66146 z m 2.248958,-2.24895 c 0.26339,-0.29105 0.538422,-0.52917 0.611182,-0.52917 0.07276,0 -0.08321,0.23812 -0.346599,0.52917 -0.26339,0.29104 -0.538422,0.52916 -0.611182,0.52916 -0.07276,0 0.08321,-0.23812 0.346599,-0.52916 z m 181.093047,-1.52136 -0.91181,-0.99219 0.99219,0.91181 c 0.9235,0.84868 1.11384,1.07257 0.91181,1.07257 -0.0442,0 -0.4907,-0.44649 -0.99219,-0.99219 z m -4.22815,-4.23333 -1.44616,-1.52136 1.52136,1.44616 c 1.41338,1.34356 1.64256,1.59655 1.44616,1.59655 -0.0413,0 -0.72594,-0.68461 -1.52136,-1.52135 z m -171.044064,-0.0661 c 0.26339,-0.29104 0.538422,-0.52916 0.611182,-0.52916 0.07276,0 -0.08321,0.23812 -0.346599,0.52916 -0.26339,0.29104 -0.538422,0.52917 -0.611182,0.52917 -0.07276,0 0.08321,-0.23813 0.346599,-0.52917 z m 1.5874997,-1.5875 c 0.2633901,-0.29104 0.5384218,-0.52916 0.6111822,-0.52916 0.07276,0 -0.083209,0.23812 -0.3465989,0.52916 -0.26339,0.29104 -0.538422,0.52917 -0.611182,0.52917 -0.07276,0 0.08321,-0.23813 0.3465987,-0.52917 z M 154.20939,232.23 l -2.64086,-2.71198 2.71198,2.64086 c 2.51889,2.45287 2.83226,2.7831 2.64086,2.7831 -0.0391,0 -1.2595,-1.22039 -2.71198,-2.71198 z M -2.6835446,229.12114 c 0.5683884,-0.58208 1.0929672,-1.05833 1.1657276,-1.05833 0.07276,0 -0.3327558,0.47625 -0.9011443,1.05833 -0.5683885,0.58209 -1.0929672,1.05834 -1.1657277,1.05834 -0.07276,0 0.3327559,-0.47625 0.9011444,-1.05834 z M 150.87331,228.92271 c -0.32909,-0.41966 -0.31975,-0.429 0.0999,-0.0999 0.25466,0.19973 0.46302,0.40809 0.46302,0.46302 0,0.21778 -0.21728,0.0776 -0.56293,-0.36311 z m -4.33684,-4.63021 -2.64086,-2.71198 2.71198,2.64086 c 1.49159,1.45248 2.71198,2.67287 2.71198,2.71198 0,0.1914 -0.33022,-0.12198 -2.7831,-2.64086 z M 5.1216633,221.31594 c 0.4936543,-0.50933 0.9570852,-0.92605 1.0298456,-0.92605 0.07276,0 -0.271608,0.41672 -0.7652623,0.92605 -0.4936542,0.50932 -0.9570851,0.92604 -1.0298456,0.92604 -0.07276,0 0.2716081,-0.41672 0.7652623,-0.92604 z M 143.2004,220.98521 c -0.32909,-0.41966 -0.31975,-0.429 0.0999,-0.0999 0.25466,0.19973 0.46302,0.40809 0.46302,0.46302 0,0.21778 -0.21727,0.0776 -0.56292,-0.36311 z m -4.33684,-4.63021 -2.64086,-2.71198 2.71198,2.64086 c 2.51888,2.45287 2.83226,2.7831 2.64086,2.7831 -0.0391,0 -1.2595,-1.22039 -2.71198,-2.71198 z M 13.191455,213.24614 c 0.26339,-0.29104 0.538421,-0.52916 0.611182,-0.52916 0.07276,0 -0.08321,0.23812 -0.346599,0.52916 -0.26339,0.29105 -0.538422,0.52917 -0.611182,0.52917 -0.07276,0 0.08321,-0.23812 0.346599,-0.52917 z m 122.336025,-0.19843 c -0.32909,-0.41966 -0.31975,-0.429 0.0999,-0.0999 0.44071,0.34565 0.58089,0.56293 0.36311,0.56293 -0.0549,0 -0.26329,-0.20836 -0.46302,-0.46302 z m -4.33684,-4.63021 -2.64086,-2.71198 2.71198,2.64086 c 2.51889,2.45287 2.83226,2.7831 2.64086,2.7831 -0.0391,0 -1.2595,-1.22039 -2.71198,-2.71198 z M 20.864371,205.57323 c 0.26339,-0.29104 0.538422,-0.52917 0.611182,-0.52917 0.07276,0 -0.08321,0.23813 -0.346599,0.52917 -0.26339,0.29104 -0.538422,0.52916 -0.611182,0.52916 -0.07276,0 0.08321,-0.23812 0.346599,-0.52916 z m 106.990189,-0.46302 c -0.32909,-0.41966 -0.31975,-0.429 0.0999,-0.0999 0.25466,0.19973 0.46302,0.40809 0.46302,0.46302 0,0.21778 -0.21728,0.0776 -0.56293,-0.36311 z M 24.965412,201.73677 c 0.790422,-0.80037 1.496664,-1.45521 1.569424,-1.45521 0.07276,0 -0.514419,0.65484 -1.30484,1.45521 -0.790422,0.80036 -1.496664,1.45521 -1.569424,1.45521 -0.07276,0 0.514419,-0.65485 1.30484,-1.45521 z m 98.552308,-1.25677 -2.64085,-2.71198 2.71197,2.64086 c 2.51889,2.45287 2.83226,2.7831 2.64086,2.7831 -0.0391,0 -1.25949,-1.22039 -2.71198,-2.71198 z m -3.45974,-3.43958 -0.50403,-0.59532 0.59531,0.50403 c 0.55944,0.47366 0.71575,0.6866 0.50403,0.6866 -0.0502,0 -0.31811,-0.26789 -0.59531,-0.59531 z m -87.155068,-3.24115 c 0.937477,-0.94589 1.764035,-1.71979 1.836796,-1.71979 0.07276,0 -0.634736,0.7739 -1.572213,1.71979 -0.937477,0.94589 -1.764035,1.71979 -1.836795,1.71979 -0.07276,0 0.634735,-0.7739 1.572212,-1.71979 z m 82.677318,-1.52135 -2.64086,-2.71198 2.71198,2.64086 c 1.49158,1.45248 2.71197,2.67287 2.71197,2.71197 0,0.1914 -0.33022,-0.12197 -2.78309,-2.64085 z m -3.33608,-3.3073 c -0.32909,-0.41965 -0.31975,-0.42899 0.0999,-0.0999 0.25467,0.19973 0.46302,0.40809 0.46302,0.46302 0,0.21778 -0.21727,0.0776 -0.56292,-0.36312 z m -71.53603,-2.97656 c 1.30362,-1.30969 2.429748,-2.38125 2.502508,-2.38125 0.07276,0 -0.934304,1.07156 -2.237925,2.38125 -1.30362,1.30969 -2.429748,2.38125 -2.502508,2.38125 -0.07276,0 0.934304,-1.07156 2.237925,-2.38125 z m 67.19866,-1.65364 -2.37575,-2.4474 2.4474,2.37575 c 2.27309,2.20652 2.56783,2.51904 2.37575,2.51904 -0.0394,0 -1.14076,-1.10133 -2.4474,-2.44739 z m -3.60013,-3.57188 c -0.32909,-0.41965 -0.31975,-0.42899 0.0999,-0.0999 0.25467,0.19974 0.46303,0.4081 0.46303,0.46303 0,0.21777 -0.21728,0.0776 -0.56293,-0.36312 z m -58.174572,-0.14893 c 0,-0.0455 0.386953,-0.43249 0.859896,-0.8599 l 0.859896,-0.77711 -0.777105,0.8599 c -0.724371,0.80155 -0.942687,0.98152 -0.942687,0.77711 z m 54.101072,-4.21669 -2.11045,-2.18282 2.18281,2.11045 c 1.20055,1.16076 2.18282,2.14302 2.18282,2.18282 0,0.19298 -0.29504,-0.0831 -2.25518,-2.11045 z m -50.396906,0.51252 c 0,-0.0455 0.386954,-0.43249 0.859896,-0.85989 l 0.859896,-0.77711 -0.777105,0.85989 c -0.724371,0.80156 -0.942687,0.98153 -0.942687,0.77711 z m 46.797487,-4.0844 c -0.329088,-0.41965 -0.319749,-0.42899 0.09991,-0.0999 0.440716,0.34565 0.580893,0.56292 0.363114,0.56292 -0.05493,0 -0.263287,-0.20836 -0.463021,-0.46302 z m -42.29957,-0.46302 c 0.341775,-0.3638 0.680939,-0.66146 0.7537,-0.66146 0.07276,0 -0.147341,0.29766 -0.489117,0.66146 -0.341775,0.3638 -0.680939,0.66146 -0.7537,0.66146 -0.07276,0 0.147341,-0.29766 0.489117,-0.66146 z m 38.226072,-3.9026 -2.110449,-2.18282 2.182813,2.11045 c 1.200546,1.16076 2.182812,2.14302 2.182812,2.18282 0,0.19298 -0.295037,-0.0831 -2.255176,-2.11045 z m -34.521906,0.24794 c 0,-0.0455 0.386953,-0.43249 0.859896,-0.8599 l 0.859896,-0.77711 -0.777105,0.8599 c -0.724371,0.80156 -0.942687,0.98153 -0.942687,0.77711 z m 3.704167,-3.75367 c 0.341775,-0.3638 0.680939,-0.66146 0.7537,-0.66146 0.07276,0 -0.147341,0.29766 -0.489117,0.66146 -0.341775,0.3638 -0.680939,0.66146 -0.7537,0.66146 -0.07276,0 0.147341,-0.29766 0.489117,-0.66146 z m 27.218321,-0.0661 c -0.329089,-0.41965 -0.319749,-0.42899 0.09991,-0.0999 0.254661,0.19973 0.46302,0.40809 0.46302,0.46302 0,0.21777 -0.217275,0.0776 -0.562927,-0.36312 z m -4.20542,-4.49791 -2.24311,-2.31511 2.315104,2.24311 c 2.150189,2.08336 2.435621,2.3871 2.24311,2.3871 -0.03958,0 -1.081378,-1.0418 -2.315104,-2.3151 z M 67.03416,159.66802 c 0.341763,-0.3638 0.680932,-0.66146 0.753692,-0.66146 0.07276,0 -0.147346,0.29766 -0.489108,0.66146 -0.341763,0.3638 -0.680932,0.66146 -0.753692,0.66146 -0.07276,0 0.147346,-0.29766 0.489108,-0.66146 z m 2.248958,-2.24896 c 0.263393,-0.29104 0.538428,-0.52916 0.611188,-0.52916 0.07276,0 -0.08321,0.23812 -0.346604,0.52916 -0.263393,0.29104 -0.538427,0.52917 -0.611188,0.52917 -0.07276,0 0.08321,-0.23813 0.346604,-0.52917 z m 12.004781,-0.46302 c -0.329089,-0.41965 -0.319749,-0.42899 0.09991,-0.0999 0.254662,0.19973 0.463021,0.40809 0.463021,0.46302 0,0.21778 -0.217276,0.0776 -0.562927,-0.36312 z m -3.72708,-3.95438 -1.771597,-1.7716 -0.607218,0.50501 -0.607219,0.50499 0.597852,-0.64683 0.597853,-0.64683 1.913413,1.91342 c 1.052354,1.05238 1.853804,1.91341 1.780937,1.91341 -0.07284,0 -0.929666,-0.79722 -1.904021,-1.77157 z M -198.34291,20.377487 V -113.77884 H -65.348826 67.645268 l -2.643618,2.71198 c -1.453989,1.49159 -5.728906,5.8091 -9.499822,9.59447 -3.770916,3.785377 -17.690895,17.821142 -30.933291,31.19059 -13.242395,13.369451 -27.2917691,27.543423 -31.2208314,31.497718 -3.9290626,3.954293 -14.2279676,14.335331 -22.8864576,23.068972 -8.658489,8.7336418 -22.707863,22.9029994 -31.220831,31.487466 -8.512969,8.584464 -24.705468,24.920373 -35.983332,36.30202 -41.103995,41.482248 -52.861155,53.340504 -83.939055,84.660774 l -17.66094,17.79866 z"
         id="path5358" />
      <path
         style="fill:#4a7ddb;stroke-width:0.264583"
         d="m -198.34291,426.29895 v -1.78885 l 63.80937,-63.62937 c 35.095161,-34.99615 84.952581,-84.7177 110.79427,-110.49233 80.152521,-79.94448 99.352306,-99.05475 99.518782,-99.05475 0.08845,0 18.427329,18.89762 40.753058,41.99471 22.32572,23.0971 41.96143,43.38156 43.63492,45.07661 1.67349,1.69503 5.42396,5.56811 8.33437,8.60685 2.91042,3.03871 6.36323,6.60336 7.67292,7.92144 1.30969,1.31807 4.82203,4.94948 7.80521,8.06979 2.98317,3.12031 6.49552,6.75092 7.80521,8.06804 1.30968,1.3171 4.7625,4.88897 7.67291,7.9375 2.91042,3.04851 6.36323,6.62038 7.67292,7.9375 1.30969,1.3171 4.7625,4.88799 7.67291,7.93533 2.91042,3.04734 6.4823,6.73357 7.9375,8.19163 1.45521,1.45807 4.96756,5.08445 7.80521,8.0586 2.83766,2.97416 6.35,6.60419 7.80521,8.06675 1.45521,1.46257 4.96755,5.09384 7.80521,8.0695 2.83765,2.97567 6.29047,6.5487 7.67291,7.94009 1.38245,1.3914 4.83526,4.96383 7.67292,7.93877 2.83766,2.97493 6.29047,6.5464 7.67292,7.93663 1.38244,1.3902 4.89479,5.01333 7.8052,8.05138 2.91042,3.03805 6.4823,6.73346 7.9375,8.21203 3.17691,3.22786 8.49181,8.7267 15.47813,16.0138 2.83765,2.95981 6.35077,6.5845 7.80693,8.05487 1.45613,1.47034 4.90894,5.04113 7.67291,7.93504 2.76395,2.8939 6.21676,6.46578 7.67292,7.9375 1.45613,1.47171 4.90895,5.04676 7.67292,7.94459 2.76394,2.89782 6.00281,6.21289 7.19748,7.36682 1.19467,1.15392 2.84184,2.86088 3.66041,3.79322 l 1.48825,1.69516 H 72.612794 -198.34291 Z"
         id="path5356" />
      <path
         style="fill:#f68808;stroke-width:0.264583"
         d="M -198.34291,289.34446 V 154.53381 l 17.66094,-17.79866 c 31.0779,-31.32027 42.83506,-43.178526 83.939055,-84.660774 11.277864,-11.381647 27.470363,-27.717556 35.983332,-36.30202 8.512968,-8.5844666 22.562342,-22.7538242 31.220831,-31.487466 8.65849,-8.733641 18.957395,-19.114679 22.8864576,-23.068972 C -2.7232321,-42.738377 11.326142,-56.91 24.568537,-70.276577 37.810933,-83.643157 52.937611,-98.89931 58.183377,-104.17914 l 9.537747,-9.5997 H 204.58711 341.4531 l -13.58291,13.52893 c -7.47059,7.440907 -32.93057,32.816582 -56.57771,56.390387 C 194.26863,32.925491 142.893,84.148338 4.2646515,222.37427 -19.524299,246.09416 -66.096152,292.52854 -99.228358,325.56176 c -33.132202,33.03323 -68.659642,68.49263 -78.949862,78.79866 -10.29021,10.30602 -19.0369,18.97594 -19.43709,19.26645 l -0.7276,0.52822 z"
         id="path5354" />
    </g>
  </g>
</svg>
