<?xml version="1.0" encoding="UTF-8" standalone="no"?>
<!-- Created with Inkscape (http://www.inkscape.org/) -->

<svg
   width="252.10637mm"
   height="252.3111mm"
   viewBox="0 0 252.10636 252.31109"
   version="1.1"
   id="svg5"
   inkscape:version="1.1 (c68e22c387, 2021-05-23)"
   sodipodi:docname="lisp_white.svg"
   xmlns:inkscape="http://www.inkscape.org/namespaces/inkscape"
   xmlns:sodipodi="http://sodipodi.sourceforge.net/DTD/sodipodi-0.dtd"
   xmlns="http://www.w3.org/2000/svg"
   xmlns:svg="http://www.w3.org/2000/svg">
  <sodipodi:namedview
     id="namedview7"
     pagecolor="#ffffff"
     bordercolor="#666666"
     borderopacity="1.0"
     inkscape:pageshadow="2"
     inkscape:pageopacity="0.0"
     inkscape:pagecheckerboard="0"
     inkscape:document-units="mm"
     showgrid="false"
     fit-margin-top="0"
     fit-margin-left="0"
     fit-margin-right="0"
     fit-margin-bottom="0"
     inkscape:zoom="0.47433592"
     inkscape:cx="429.02085"
     inkscape:cy="496.48359"
     inkscape:window-width="1920"
     inkscape:window-height="1017"
     inkscape:window-x="1912"
     inkscape:window-y="-8"
     inkscape:window-maximized="1"
     inkscape:current-layer="layer1" />
  <defs
     id="defs2" />
  <g
     inkscape:label="Calque 1"
     inkscape:groupmode="layer"
     id="layer1"
     transform="translate(4.1156296,28.738258)">
    <path
       style="fill:#ffffff;stroke-width:0.264583"
       d="M 115.44494,223.50403 C 97.04639,222.12294 83.69943,218.78519 68.43829,211.7488 49.69087,203.105 32.291517,188.72769 19.755771,171.52179 8.2320794,155.70498 0.40069739,136.80917 -2.6629576,117.42916 c -1.168941,-7.39446 -1.452672,-11.29612 -1.452672,-19.976038 0,-10.80699 0.813394,-18.388152 3.009079,-28.045832 C 4.1989084,46.071332 15.678018,25.352106 32.756644,8.2859048 42.7132,-1.6634097 52.47826,-8.7571184 64.80402,-14.994511 c 35.95158,-18.193129 77.5301,-18.330289 113.4634,-0.374296 12.84393,6.4181536 22.7092,13.5234619 32.83374,23.6480046 20.90577,20.9057734 33.08252,46.5656174 36.41588,76.7385084 0.6316,5.71714 0.6316,19.153694 0,24.870834 -2.91433,26.37995 -12.36528,48.77964 -29.02996,68.80389 -3.61283,4.34117 -11.40715,12.09242 -15.81819,15.73078 -19.82866,16.3553 -42.33771,25.8086 -68.04166,28.57599 -3.61087,0.38876 -16.28504,0.72231 -19.18229,0.50483 z m 56.96199,-21.55469 c 11.24317,-1.21994 22.51601,-5.85562 31.40803,-12.91579 6.34271,-5.03604 15.44683,-15.53607 21.365,-24.64085 10.31168,-15.86393 16.6463,-33.59562 19.02969,-53.26743 0.49313,-4.0701 0.58261,-6.16987 0.58261,-13.672148 0,-9.594752 -0.38182,-14.201629 -1.83489,-22.138819 -8.04938,-43.968837 -39.38618,-80.1651984 -81.73951,-94.415291 -8.35534,-2.811215 -16.43426,-4.617127 -25.61847,-5.726598 -6.43506,-0.777367 -20.30819,-0.850803 -26.63674,-0.140999 -16.54892,1.856111 -30.16117,5.822307 -43.8412,12.773998 -4.06242,2.064374 -6.26144,3.3476366 -4.97442,2.9028746 1.05284,-0.363833 6.40678,-1.4328946 8.86354,-1.7698496 3.20144,-0.43909 12.37084,-0.448429 15.47812,-0.01577 15.15259,2.1098736 27.90236,8.323465 38.28944,18.6603199 12.18011,12.1212131 18.75827,27.9319111 18.7873,45.1555471 0.0102,6.074719 -0.45205,10.078081 -1.79549,15.548966 -1.2446,5.068403 -2.47289,8.391249 -4.91286,13.290615 -3.28,6.586096 -6.3428,10.835703 -12.62026,17.510474 -1.73555,1.84539 -3.98994,4.4654 -5.00976,5.82223 -19.39457,25.8038 -15.23122,62.36248 9.46267,83.09235 5.16143,4.33288 12.2743,8.45997 18.36227,10.65429 4.34738,1.56695 10.30485,2.91624 14.97523,3.3917 2.16501,0.2204 10.01159,0.15713 12.3797,-0.0998 z m -43.33595,-49.33412 c 0,-0.28562 3.96078,-8.0222 8.61815,-16.83382 9.82428,-18.58728 13.47643,-25.98168 16.93631,-34.29046 3.41402,-8.198645 5.99564,-16.841492 7.17296,-24.013859 0.67837,-4.13273 0.67387,-15.292566 -0.008,-18.917707 -2.48462,-13.216712 -7.87755,-23.580838 -19.10238,-36.710936 l -0.96131,-1.124479 10.53913,0.0019 10.53913,0.0019 4.93491,8.26643 c 24.14995,40.453276 39.11605,73.964701 51.90191,116.216321 l 2.24186,7.40833 -10.46422,0.0692 c -5.75532,0.0381 -10.51044,0.023 -10.56695,-0.0335 -0.0565,-0.0565 -0.57869,-1.93312 -1.16041,-4.17026 -2.6472,-10.1804 -6.65991,-22.56965 -10.79189,-33.32 -2.22958,-5.80078 -7.64452,-19.192731 -9.07487,-22.44351 l -0.62708,-1.42516 -1.29013,3.277243 C 168.65272,118.08376 160.76456,134.81616 151.95,149.63529 l -1.84502,3.10187 -10.51719,0.007 c -5.78445,0.004 -10.51719,-0.0541 -10.51719,-0.12882 z M 99.17307,172.9517 c 0,-0.0947 -0.8757,-1.2556 -1.946,-2.57969 -9.07798,-11.23058 -14.30125,-21.87964 -16.31985,-33.27244 -0.81538,-4.60197 -1.00263,-12.5585 -0.41,-17.42145 1.27492,-10.4614 4.52106,-20.690089 10.97999,-34.598166 2.76941,-5.963403 5.20186,-10.75315 12.32621,-24.271622 7.0701,-13.415517 8.8634,-16.920794 8.8634,-17.324921 0,-0.178125 -3.04625,-0.26987 -8.96067,-0.26987 H 94.74547 L 94.0011,44.33802 c -2.03015,3.066865 -6.94388,12.049696 -10.67388,19.51302 -5.72828,11.461652 -10.58138,22.579922 -16.16859,37.04166 -1.20875,3.1287 -2.27537,5.77844 -2.37027,5.88831 C 64.45193,107.17055 55.11687,84.20166 51.17253,73.279303 47.93001,64.300337 44.872573,54.561856 43.187333,47.844988 42.822055,46.389099 42.406074,44.751432 42.262935,44.205729 l -0.26026,-0.992188 H 32.88475 c -6.66287,0 -9.117928,0.08143 -9.117928,0.302427 0,0.595447 4.525013,15.057839 7.129367,22.786164 C 43.066257,102.41636 58.5562,134.99633 80.58326,170.80885 l 1.42394,2.3151 h 8.58293 c 4.72062,0 8.58294,-0.0775 8.58294,-0.17225 z"
       id="path1604" />
  </g>
</svg>
