<?xml version="1.0" encoding="UTF-8" standalone="no"?>
<!-- Created with Inkscape (http://www.inkscape.org/) -->

<svg
   width="300mm"
   height="300mm"
   viewBox="0 0 300 300"
   version="1.1"
   id="svg5"
   inkscape:version="1.1 (c68e22c387, 2021-05-23)"
   sodipodi:docname="list.svg"
   xmlns:inkscape="http://www.inkscape.org/namespaces/inkscape"
   xmlns:sodipodi="http://sodipodi.sourceforge.net/DTD/sodipodi-0.dtd"
   xmlns="http://www.w3.org/2000/svg"
   xmlns:svg="http://www.w3.org/2000/svg">
  <sodipodi:namedview
     id="namedview7"
     pagecolor="#ffffff"
     bordercolor="#666666"
     borderopacity="1.0"
     inkscape:pageshadow="2"
     inkscape:pageopacity="0.0"
     inkscape:pagecheckerboard="0"
     inkscape:document-units="mm"
     showgrid="false"
     inkscape:zoom="0.49071405"
     inkscape:cx="693.88679"
     inkscape:cy="457.49658"
     inkscape:window-width="1920"
     inkscape:window-height="1017"
     inkscape:window-x="1912"
     inkscape:window-y="-8"
     inkscape:window-maximized="1"
     inkscape:current-layer="layer1" />
  <defs
     id="defs2" />
  <g
     inkscape:label="Calque 1"
     inkscape:groupmode="layer"
     id="layer1">
    <path
       style="fill:#ffffff;stroke-width:1.33041"
       d="M 19.619895,297.72075 C 12.817929,295.31326 3.6455145,285.66966 1.7853684,278.97009 -0.25718669,271.61354 -0.22732755,28.385371 1.8170917,21.000629 3.7718027,13.939694 13.889408,3.8220883 20.950343,1.8673774 c 7.483837,-2.07180925 250.615277,-2.07180925 258.099117,0 7.06093,1.9547109 17.17852,12.0723166 19.13325,19.1332516 2.07179,7.483836 2.07179,250.615291 0,258.099131 -1.95473,7.06094 -12.07232,17.17853 -19.13325,19.13325 -3.72298,1.03067 -42.69033,1.45792 -129.71476,1.42225 C 45.541196,299.61275 24.060306,299.29237 19.619944,297.72075 Z M 278.3842,278.43455 c 2.62327,-2.62327 2.66082,-4.43469 2.66082,-128.38436 0,-123.949665 -0.0375,-125.761082 -2.66082,-128.384353 -2.62327,-2.623271 -4.43469,-2.660816 -128.38436,-2.660816 -123.94965,0 -125.761066,0.03761 -128.384338,2.660816 -2.623271,2.623271 -2.660816,4.434688 -2.660816,128.384353 0,123.94967 0.03761,125.76109 2.660816,128.38436 2.623272,2.62327 4.434688,2.66082 128.384338,2.66082 123.94967,0 125.76109,-0.0374 128.38436,-2.66082 z M 52.634459,233.19141 c -4.525312,-1.82329 -5.741213,-5.56857 -5.741213,-17.68435 0,-9.33294 0.463046,-11.80517 2.757376,-14.72195 2.648012,-3.36641 3.281219,-3.50544 15.964895,-3.50544 17.904661,0 18.529152,0.6245 18.529152,18.52916 0,12.68367 -0.138994,13.31688 -3.50544,15.96489 -2.918511,2.29571 -5.313096,2.74327 -14.301876,2.67305 -5.938045,-0.0464 -12.10435,-0.6113 -13.702894,-1.25536 z m 51.466321,-17.27484 v -9.32403 h 74.56363 74.56363 l -0.3934,8.98024 -0.39339,8.98026 -74.17023,0.34377 -74.17024,0.34378 z M 51.416236,166.99253 c -3.159036,-2.10934 -4.52299,-7.21847 -4.52299,-16.94234 0,-9.72384 1.363954,-14.83297 4.52299,-16.94231 0.805117,-0.5376 7.566398,-0.98661 15.025085,-0.99781 17.172833,-0.0258 17.703348,0.51182 17.703348,17.94012 0,17.42833 -0.530515,17.96595 -17.703348,17.94015 -7.458687,-0.0114 -14.219968,-0.46022 -15.025085,-0.99781 z m 52.684544,-16.94234 v -8.64763 h 74.50285 74.50283 v 8.64763 8.64766 H 178.60363 104.10078 Z M 49.533393,99.166241 C 46.968041,95.904923 46.707174,94.192274 47.108621,83.24669 47.703596,67.023969 48.347939,66.379643 64.570644,65.784667 c 10.945583,-0.401447 12.658232,-0.140629 15.919551,2.424772 3.547236,2.79026 3.654474,3.262169 3.654474,16.082125 0,17.904676 -0.624491,18.529166 -18.529152,18.529166 -12.819956,0 -13.291864,-0.10727 -16.082124,-3.654489 z M 104.10078,84.183835 v -9.324032 l 74.17024,0.343772 74.17023,0.343773 0.39339,8.98026 0.3934,8.980244 h -74.56363 -74.56363 z"
       id="path854" />
  </g>
</svg>
