<?xml version="1.0" encoding="UTF-8" standalone="no"?>
<!-- Created with Inkscape (http://www.inkscape.org/) -->

<svg
   width="300mm"
   height="300mm"
   viewBox="0 0 300 300"
   version="1.1"
   id="svg5"
   inkscape:version="1.1 (c68e22c387, 2021-05-23)"
   sodipodi:docname="lock.svg"
   xmlns:inkscape="http://www.inkscape.org/namespaces/inkscape"
   xmlns:sodipodi="http://sodipodi.sourceforge.net/DTD/sodipodi-0.dtd"
   xmlns="http://www.w3.org/2000/svg"
   xmlns:svg="http://www.w3.org/2000/svg">
  <sodipodi:namedview
     id="namedview7"
     pagecolor="#ffffff"
     bordercolor="#666666"
     borderopacity="1.0"
     inkscape:pageshadow="2"
     inkscape:pageopacity="0.0"
     inkscape:pagecheckerboard="0"
     inkscape:document-units="mm"
     showgrid="false"
     inkscape:zoom="0.5"
     inkscape:cx="261"
     inkscape:cy="667"
     inkscape:window-width="1920"
     inkscape:window-height="1017"
     inkscape:window-x="1912"
     inkscape:window-y="-8"
     inkscape:window-maximized="1"
     inkscape:current-layer="layer1" />
  <defs
     id="defs2" />
  <g
     inkscape:label="Calque 1"
     inkscape:groupmode="layer"
     id="layer1">
    <path
       style="fill:#ffffff;stroke-width:0.624195"
       d="m 36.436328,299.0556 c -3.030755,-0.72711 -7.396175,-3.5186 -9.5068,-6.07917 -4.011814,-4.86701 -3.808599,-0.47896 -3.808056,-82.22863 l 4.93e-4,-74.32426 1.790059,-3.7838 c 1.708981,-3.61242 4.290103,-6.27467 8.196101,-8.45377 1.183545,-0.66025 5.631482,-0.94593 18.413794,-1.18265 l 16.853309,-0.31209 0.34491,-27.152569 C 69.089466,66.463397 69.183315,65.503144 72.711261,54.695581 79.89769,32.680553 97.902203,14.008466 120.2218,5.4234285 c 9.57726,-3.6837942 16.64566,-4.94118384 28.05061,-4.98994785 13.37443,-0.0570918 23.32613,2.03766095 34.6429,7.29226035 19.15655,8.894796 35.099,26.587828 41.72248,46.303847 3.86488,11.504579 4.04548,13.222809 4.42861,42.133285 l 0.35156,26.528357 16.54122,0.31209 c 18.93337,0.35723 19.25204,0.43364 24.04544,5.76506 4.99653,5.55734 4.70874,0.24051 4.52161,83.53334 -0.16561,73.75015 -0.16939,73.93581 -1.48378,76.73792 -1.71709,3.66034 -5.36772,7.32798 -8.93797,8.97963 l -2.85249,1.3196 -111.41909,0.0955 c -61.280506,0.0525 -112.308965,-0.11796 -113.396572,-0.37884 z m 122.611742,-54.6918 0.16444,-20.64425 2.45311,-1.3787 c 3.0124,-1.69308 7.01763,-6.15389 8.76346,-9.76031 5.75023,-11.87843 0.4389,-26.38777 -11.7202,-32.01681 -3.09413,-1.43242 -4.40254,-1.65562 -9.81217,-1.67381 -5.55419,-0.0189 -6.65462,0.17175 -9.98713,1.72722 -10.9955,5.13261 -16.45619,17.05648 -13.05553,28.50779 1.66678,5.6126 5.87144,10.95713 10.64099,13.5257 l 2.10244,1.13224 v 20.35252 c 0,11.19388 0.19417,20.54661 0.43137,20.78387 0.23726,0.23727 4.80169,0.3543 10.1432,0.26008 l 9.71181,-0.17128 z M 203.98542,98.503593 C 203.7672,75.365931 203.67743,73.749829 202.3712,69.434132 196.70458,50.711937 182.42627,36.68484 163.45684,31.204397 156.45372,29.181151 145.02608,28.889653 137.09132,30.53187 115.02909,35.097993 97.307575,53.795889 93.953663,76.046197 c -0.948456,6.292233 -1.377047,45.670483 -0.506538,46.540983 0.22884,0.22885 25.245625,0.41614 55.592765,0.41614 h 55.17666 z"
       id="path1577" />
  </g>
</svg>
