<?xml version="1.0" encoding="UTF-8" standalone="no"?>
<!-- Created with Inkscape (http://www.inkscape.org/) -->

<svg
   width="70.114586mm"
   height="70.114586mm"
   viewBox="0 0 70.114591 70.114588"
   version="1.1"
   id="svg5"
   inkscape:version="1.1 (c68e22c387, 2021-05-23)"
   sodipodi:docname="lolcode_white.svg"
   xmlns:inkscape="http://www.inkscape.org/namespaces/inkscape"
   xmlns:sodipodi="http://sodipodi.sourceforge.net/DTD/sodipodi-0.dtd"
   xmlns="http://www.w3.org/2000/svg"
   xmlns:svg="http://www.w3.org/2000/svg">
  <sodipodi:namedview
     id="namedview7"
     pagecolor="#ffffff"
     bordercolor="#666666"
     borderopacity="1.0"
     inkscape:pageshadow="2"
     inkscape:pageopacity="0.0"
     inkscape:pagecheckerboard="0"
     inkscape:document-units="mm"
     showgrid="false"
     fit-margin-top="0"
     fit-margin-left="0"
     fit-margin-right="0"
     fit-margin-bottom="0"
     inkscape:zoom="1.8973437"
     inkscape:cx="161.54164"
     inkscape:cy="145.203"
     inkscape:window-width="1920"
     inkscape:window-height="1017"
     inkscape:window-x="1912"
     inkscape:window-y="-8"
     inkscape:window-maximized="1"
     inkscape:current-layer="layer1" />
  <defs
     id="defs2" />
  <g
     inkscape:label="Calque 1"
     inkscape:groupmode="layer"
     id="layer1"
     transform="translate(-71.946022,-160.94623)">
    <path
       style="fill:#ffffff;stroke-width:0.264583"
       d="m 103.66023,226.84481 c -1.89177,-0.18574 -4.392079,-0.40922 -5.556246,-0.49663 -1.164166,-0.0874 -2.533385,-0.21616 -3.042708,-0.28611 -0.509323,-0.07 -1.580886,-0.18397 -2.38125,-0.25339 -0.800365,-0.0694 -2.348177,-0.20293 -3.439584,-0.2967 -1.091406,-0.0938 -2.282031,-0.20261 -2.645833,-0.24184 -0.363802,-0.0392 -2.275085,-0.22187 -4.247294,-0.40584 l -3.585836,-0.3345 0.114149,-1.61324 c 0.06278,-0.88728 0.488055,-6.73282 0.945051,-12.99009 l 0.830901,-11.37685 1.696203,-0.60458 c 2.642704,-0.94194 4.38623,-1.03348 6.050226,-0.31765 1.547137,0.66556 2.079595,0.56306 0.943249,-0.18158 -1.217036,-0.79751 -4.323686,-0.81015 -6.658515,-0.0271 l -1.908968,0.64025 0.02325,-1.07784 c 0.01279,-0.59281 0.161618,-2.86141 0.330729,-5.04135 l 0.307475,-3.96351 4.363621,-2.70371 4.363621,-2.70372 -0.06129,-3.70318 c -0.04265,-2.57702 0.06764,-4.33116 0.362659,-5.76819 0.614076,-2.99112 0.651275,-3.03857 2.052009,-2.61701 1.937324,0.58305 4.240752,2.46425 6.570723,5.36628 l 0.678851,0.84553 3.865627,-2.3525 3.86563,-2.35249 v 27.63457 c 0,15.19902 -0.0893,27.61794 -0.19844,27.5976 -0.10914,-0.0204 -1.74625,-0.18893 -3.63802,-0.37466 z M 91.764226,220.9386 c 3.236784,-1.47028 6.143792,-7.69568 6.995576,-14.98112 0.302128,-2.58417 0.333547,-2.66824 1.348108,-3.60745 0.7806,-0.72262 1.03878,-1.1665 1.03878,-1.78594 0,-0.55633 -0.12902,-0.82432 -0.39688,-0.82432 -0.21828,0 -0.39687,0.17254 -0.39687,0.38342 0,0.92972 -3.488851,2.78867 -6.306971,3.36052 -1.483449,0.30101 -1.765372,0.28939 -2.445313,-0.10085 -0.735846,-0.42231 -0.78086,-0.41808 -1.05792,0.0996 -0.400047,0.74749 -2.861916,1.82159 -4.582057,1.99913 -1.232442,0.1272 -1.495023,0.0707 -1.906868,-0.4103 -0.351262,-0.41025 -0.532253,-0.47181 -0.684149,-0.2327 -0.34671,0.54579 -0.242828,0.93808 0.416063,1.57119 0.579667,0.55698 0.642543,0.87362 0.777079,3.91331 0.300318,6.78533 2.414506,10.86776 5.735972,11.076 0.218281,0.0137 0.877734,-0.19355 1.46545,-0.46051 z m -3.17804,-1.66126 c -1.222739,-0.96181 -2.201094,-2.50843 -2.05853,-3.2542 0.202172,-1.0576 2.080828,-3.00216 3.234274,-3.34774 2.005441,-0.60084 4.158957,0.42589 4.768761,2.27362 0.350784,1.06288 0.169368,1.50838 -1.257306,3.08754 -1.688226,1.86867 -3.334832,2.30455 -4.687199,1.24078 z m -3.0339,-5.53028 c -0.172749,-0.79177 -0.38295,-2.7011 -0.467114,-4.24296 l -0.153025,-2.80339 1.493476,-0.15414 c 0.821412,-0.0848 2.177731,-0.47082 3.014043,-0.85787 1.138885,-0.52709 2.018673,-0.7211 3.504943,-0.7729 1.17927,-0.0411 2.601622,-0.29192 3.505729,-0.6182 l 1.521355,-0.54902 v 0.73906 c 0,2.22806 -1.882241,9.80422 -2.435786,9.80422 -0.115526,0 -0.210048,-0.17445 -0.210048,-0.38767 0,-0.58326 -1.477333,-2.14833 -2.381368,-2.5228 -0.457872,-0.18965 -1.406091,-0.27927 -2.23109,-0.21085 -1.609436,0.13346 -3.087435,1.05652 -3.823694,2.38802 -0.954947,1.72699 -1.000356,1.73339 -1.337421,0.1885 z m -0.04444,-12.00363 c 0.67048,-0.33708 1.963194,-0.88222 2.872699,-1.21142 0.909506,-0.32921 1.653646,-0.70167 1.653646,-0.82769 0,-0.30952 0.128403,-0.34613 -2.492458,0.71069 -2.460801,0.99227 -3.349889,1.47177 -4.320563,2.33015 -0.920777,0.81425 -0.702916,1.10095 0.236155,0.31077 0.457308,-0.3848 1.380042,-0.97542 2.050521,-1.3125 z m -2.318649,-1.32709 c 0.809935,-0.3684 2.445066,-0.77942 3.802286,-0.95578 3.012141,-0.3914 3.296153,-0.62936 0.529167,-0.44336 -2.074028,0.13942 -4.5522,0.86898 -5.572077,1.64039 -0.746615,0.56472 -0.370559,0.49159 1.240624,-0.24125 z m 8.619334,-1.34067 c 0.501523,-1.05171 0.265239,-1.52124 -0.645661,-1.28304 -0.661828,0.17307 -0.979257,0.90291 -0.731804,1.68256 0.257869,0.81247 0.886443,0.63016 1.377465,-0.39952 z m 7.106398,-1.50047 c 1.680781,-0.24302 2.449551,-0.25048 3.035091,-0.0295 0.63572,0.23995 0.78417,0.22616 0.78417,-0.0729 0,-0.9297 -3.136207,-0.77045 -7.45945,0.37878 -1.478759,0.39309 -2.731438,0.84307 -2.783732,0.99996 -0.05444,0.16332 0.817023,0.0211 2.038956,-0.33287 1.173719,-0.33996 3.146953,-0.76456 4.384965,-0.94355 z m -4.152848,-0.58409 c 2.593074,-1.56052 4.850332,-2.6041 7.515099,-3.47442 2.72781,-0.89091 3.30735,-1.18525 2.33369,-1.18525 -0.95649,0 -4.36582,1.2363 -6.933953,2.51442 -2.235224,1.11243 -4.732309,2.6544 -4.732309,2.92225 0,0.25131 0.375528,0.0908 1.817473,-0.777 z M 94.573755,195.162 c 2.740719,-2.72311 6.144345,-4.89026 10.872415,-6.92267 1.67589,-0.72039 2.50144,-1.45187 1.19062,-1.05495 -1.19614,0.36219 -6.752927,3.23408 -8.413453,4.34828 -2.255061,1.51313 -6.137796,5.2967 -5.435519,5.2967 0.05929,0 0.862958,-0.75032 1.785937,-1.66736 z m -7.728298,-0.17738 c 0.710191,-0.38008 0.871275,-0.94143 1.04611,-3.64555 0.139595,-2.15905 0.01256,-3.06848 -0.298338,-2.13578 -0.05709,0.17128 -0.234433,0.23069 -0.394084,0.13203 -0.434607,-0.26861 -0.09357,-1.19568 0.473982,-1.28849 0.343821,-0.0562 0.426635,-0.19088 0.270645,-0.44006 -0.302386,-0.48303 -1.266093,-0.15826 -1.648027,0.55539 -0.331017,0.61851 -0.660255,6.00254 -0.407361,6.66157 0.187213,0.48787 0.308129,0.5082 0.957073,0.16089 z m 11.035152,-5.17386 c 0.445889,-0.48925 0.609158,-1.10536 0.74807,-2.82289 0.09773,-1.20838 0.138718,-2.91143 0.09108,-3.78455 -0.07458,-1.36705 -0.16225,-1.59832 -0.631285,-1.66542 -0.80214,-0.11474 -1.911641,0.88761 -2.222862,2.00818 -0.387794,1.39628 -0.35593,6.48211 0.04311,6.88115 0.421447,0.42144 1.266811,0.15716 1.971882,-0.61647 z m -0.571093,-5.99146 c -0.21032,-0.53988 0.319923,-1.61201 0.729697,-1.47542 0.511559,0.17052 0.497703,0.62416 -0.03917,1.2824 -0.452509,0.55482 -0.540057,0.57929 -0.690531,0.19302 z m -3.726774,-4.46488 c 0.21146,-1.59406 0.67677,-1.87612 1.766239,-1.07064 0.517721,0.38277 0.912454,0.50083 1.177868,0.3523 0.338403,-0.18938 0.307571,-0.30924 -0.202461,-0.78707 -0.683295,-0.64015 -2.032352,-1.38851 -2.507447,-1.39094 -0.405874,-0.002 -0.868945,1.65016 -0.870857,3.10722 -0.002,1.55356 0.421195,1.41338 0.636658,-0.21087 z m 26.257208,3.54028 c -1.209,-0.61639 -1.27372,-0.70242 -1.12513,-1.49561 0.71543,-3.81905 0.77973,-7.67551 0.15536,-9.31772 l -0.26636,-0.70058 -0.85721,0.52987 c -0.78157,0.48312 -2.34786,2.18307 -3.4144,3.70577 l -0.42276,0.60357 -1.21309,-0.76932 -1.21309,-0.76931 1.87529,-2.88278 c 1.89873,-2.91882 5.67367,-7.00094 7.18607,-7.77084 0.64841,-0.33007 0.7767,-0.32936 0.99124,0.005 0.98168,1.53232 1.45237,6.27604 1.06672,10.75079 -0.29388,3.41008 -0.98351,7.84686 -1.31492,8.45968 -0.11519,0.213 -0.55189,0.10771 -1.44772,-0.34902 z m -3.08284,-4.64594 c -0.80037,-0.57071 -1.62275,-1.13336 -1.82752,-1.25034 -0.30778,-0.17582 -0.27239,-0.37434 0.20422,-1.14551 0.60426,-0.97772 2.51559,-2.83605 2.91693,-2.83605 0.48969,0 0.79642,5.93726 0.31964,6.18683 -0.0869,0.0455 -0.81291,-0.38422 -1.61327,-0.95493 z"
       id="path4637" />
  </g>
</svg>
