<?xml version="1.0" encoding="UTF-8" standalone="no"?>
<!-- Created with Inkscape (http://www.inkscape.org/) -->

<svg
   width="300mm"
   height="300mm"
   viewBox="0 0 300 300"
   version="1.1"
   id="svg5"
   inkscape:version="1.1 (c68e22c387, 2021-05-23)"
   sodipodi:docname="loop.svg"
   xmlns:inkscape="http://www.inkscape.org/namespaces/inkscape"
   xmlns:sodipodi="http://sodipodi.sourceforge.net/DTD/sodipodi-0.dtd"
   xmlns="http://www.w3.org/2000/svg"
   xmlns:svg="http://www.w3.org/2000/svg">
  <sodipodi:namedview
     id="namedview7"
     pagecolor="#ffffff"
     bordercolor="#666666"
     borderopacity="1.0"
     inkscape:pageshadow="2"
     inkscape:pageopacity="0.0"
     inkscape:pagecheckerboard="0"
     inkscape:document-units="mm"
     showgrid="false"
     width="300mm"
     inkscape:zoom="0.35355339"
     inkscape:cx="332.34019"
     inkscape:cy="456.79098"
     inkscape:window-width="1920"
     inkscape:window-height="1017"
     inkscape:window-x="1912"
     inkscape:window-y="-8"
     inkscape:window-maximized="1"
     inkscape:current-layer="layer1" />
  <defs
     id="defs2" />
  <g
     inkscape:label="Calque 1"
     inkscape:groupmode="layer"
     id="layer1">
    <g
       id="g1204"
       transform="translate(-134.42917,1.6733921)" />
    <path
       style="fill:#ffffff;stroke-width:1.77243"
       d="m 237.43596,218.6536 c -3.4479,-2.79196 -4.22998,-5.37845 -4.82836,-15.96853 -0.65363,-11.56676 -1.0723,-12.72685 -4.94418,-13.69864 -5.68476,-1.42678 -5.55171,-7.05113 0.20096,-8.49495 3.99189,-1.00191 4.43108,-1.99589 4.43108,-10.02852 0,-14.32714 4.90556,-21.14736 15.21061,-21.14736 3.10447,0 4.2861,0.97727 4.2861,3.54486 0,2.23194 -1.18163,3.54485 -3.19038,3.54485 -5.28659,0 -7.4442,3.78675 -7.4442,13.06504 0,5.71162 -1.03188,9.95141 -2.93334,12.05251 -2.72951,3.01607 -2.72951,3.46654 0,6.48263 1.97713,2.18471 2.93334,6.40247 2.93334,12.93872 0,10.11037 2.04944,13.95125 7.4442,13.95125 2.00875,0 3.19038,1.31291 3.19038,3.54486 0,4.70816 -8.64662,4.8366 -14.35619,0.2133 z m 32.08049,-0.2133 c 0,-1.94967 1.13943,-3.54486 2.53204,-3.54486 5.33758,0 8.10253,-5.36572 8.10253,-15.72397 0,-5.58442 0.95711,-11.1106 2.12692,-12.2804 1.65426,-1.65427 1.65426,-2.59957 0,-4.25383 -1.16981,-1.16981 -2.12692,-6.29719 -2.12692,-11.39419 0,-9.45563 -2.93904,-14.83775 -8.10253,-14.83775 -1.39261,0 -2.53204,-1.59519 -2.53204,-3.54486 0,-4.78279 6.89674,-4.71482 13.05419,0.12861 3.93118,3.09227 4.67011,5.0738 4.67011,12.52353 0,10.4968 2.37233,15.70669 7.15206,15.70669 2.30088,0 3.48251,1.20279 3.48251,3.54487 0,2.34207 -1.18163,3.54485 -3.48251,3.54485 -4.88623,0 -7.15206,5.25678 -7.15206,16.5929 0,8.40713 -0.63755,10.23772 -4.67011,13.40974 -6.15745,4.84347 -13.05419,4.91144 -13.05419,0.12863 z M 151.76632,135.03159 c -8.94712,-9.90339 -11.63718,-17.04973 -11.63718,-30.91495 0,-13.182915 4.79946,-24.814814 13.73995,-33.299938 4.5643,-4.331805 5.48462,-4.610147 7.44248,-2.251113 1.85014,2.229275 1.42905,3.64878 -2.45005,8.258793 -13.40241,15.927879 -12.85548,41.141938 1.21763,56.132758 3.39215,3.61336 3.50093,4.30168 1.06482,6.73779 -2.43611,2.43612 -3.39412,1.95971 -9.37765,-4.66334 z m 120.78169,4.06148 c -2.91105,-3.21668 -2.87419,-3.54679 0.75626,-6.77099 6.00567,-5.33358 10.86138,-18.06509 10.76997,-28.23842 -0.0943,-10.487834 -3.17285,-18.879528 -9.81634,-26.757667 -4.51508,-5.354125 -4.55703,-5.614781 -1.3683,-8.500486 3.12204,-2.825413 3.57258,-2.619755 8.8455,4.037789 15.79585,19.943896 15.37977,44.544954 -1.07777,63.726544 -4.92735,5.74289 -5.12286,5.80324 -8.10932,2.50323 z m -91.653,-3.95692 c 0,-2.31948 1.18162,-3.54486 3.41825,-3.54486 1.88005,0 4.6788,-1.26055 6.21949,-2.80123 2.55334,-2.55335 2.5368,-3.24884 -0.18691,-7.85969 -2.47583,-4.19126 -2.59331,-5.53419 -0.68516,-7.83335 1.26661,-1.52618 3.7724,-2.77488 5.5684,-2.77488 6.79999,0 9.33516,13.77779 3.79388,20.61859 -6.38489,7.88228 -18.12797,10.60003 -18.12797,4.19542 z m 44.31072,0.22154 c 0,-2.50293 1.11636,-3.76643 3.32784,-3.76643 5.50386,0 8.25013,-4.67378 5.62664,-9.57581 -5.10413,-9.53716 3.83468,-16.39552 9.70066,-7.44288 5.68973,8.68363 -1.16723,21.05394 -12.97995,23.41649 -4.96094,0.99218 -5.67519,0.66104 -5.67519,-2.63137 z M 49.598928,121.09304 c -4.378832,-4.37884 -5.180944,-6.58772 -5.180944,-14.26746 0,-14.746007 6.713636,-23.089897 18.578517,-23.089897 12.700374,0 19.593555,8.975259 18.18129,23.672947 -0.688316,7.1635 -1.946405,9.88092 -6.428762,13.88591 -7.861224,7.024 -18.005872,6.94273 -25.150101,-0.20151 z m 17.306642,-3.3013 c 5.63826,-3.58513 6.799501,-18.674699 1.90473,-24.750801 -2.830618,-3.513771 -9.757393,-2.578867 -12.771027,1.723699 -7.645345,10.915262 1.023505,29.285682 10.866297,23.027102 z m -54.391308,-6.5834 V 97.915116 H 6.3107656 c -5.0218828,0 -6.20350331,-0.675212 -6.20350331,-3.544859 0,-2.869648 1.18162051,-3.544854 6.20350331,-3.544854 6.0674144,0 6.2034964,-0.157291 6.2034964,-7.170282 0,-10.364231 6.238673,-16.266068 16.415321,-15.529117 6.047606,0.438111 7.61538,1.264224 8.040255,4.237417 0.455795,3.189635 -0.211286,3.584987 -4.890412,2.898231 -7.096961,-1.041619 -10.703016,2.18517 -10.703016,9.577274 0,5.913466 0.09727,5.986477 7.97593,5.986477 6.79431,0 7.975931,0.525197 7.975931,3.544854 0,3.019696 -1.181621,3.544859 -7.975931,3.544859 h -7.97593 v 13.293224 c 0,12.99781 -0.09848,13.29321 -4.431077,13.29321 -4.332603,0 -4.431071,-0.29542 -4.431071,-13.29321 z m 79.759303,-6.20351 V 85.508116 h 4.431074 c 2.437083,0 4.431071,0.842821 4.431071,1.872932 0,1.049791 1.73126,0.660315 3.93923,-0.886217 8.76409,-6.138605 17.53163,-2.08971 19.93212,9.204751 1.16795,5.495248 0.9785,5.760398 -4.11608,5.760398 -4.50383,0 -5.42823,-0.76115 -5.90121,-4.859029 -0.70626,-6.118882 -5.35477,-7.185126 -10.20023,-2.339666 -3.04059,3.040591 -3.65383,5.884915 -3.65383,16.947055 0,12.99781 -0.0985,13.29321 -4.431071,13.29321 h -4.431074 z m 97.838075,-7.444201 c -4.45194,-4.451931 -1.13805,-12.052513 5.25493,-12.052513 1.72041,0 3.98173,1.595186 5.02516,3.544854 3.82945,7.155423 -4.63075,14.15699 -10.28009,8.507659 z m 42.24138,-1.31038 c -4.41897,-8.256911 6.30385,-14.681366 11.27314,-6.75417 1.41087,2.250697 1.41087,3.952805 0,6.203503 -2.87103,4.579998 -8.95761,4.877308 -11.27314,0.550653 z"
       id="path2133"
       sodipodi:nodetypes="ssssssssssssssssssssssssssssssssssssscsssssssscssssssssssssssssssssssssssssscsssscsssssscsssccsssssssssccsssssssss" />
  </g>
</svg>
