<?xml version="1.0" encoding="UTF-8" standalone="no"?>
<!-- Created with Inkscape (http://www.inkscape.org/) -->

<svg
   width="300mm"
   height="300mm"
   viewBox="0 0 300 300"
   version="1.1"
   id="svg5"
   inkscape:version="1.1 (c68e22c387, 2021-05-23)"
   sodipodi:docname="lua.svg"
   xmlns:inkscape="http://www.inkscape.org/namespaces/inkscape"
   xmlns:sodipodi="http://sodipodi.sourceforge.net/DTD/sodipodi-0.dtd"
   xmlns="http://www.w3.org/2000/svg"
   xmlns:svg="http://www.w3.org/2000/svg">
  <sodipodi:namedview
     id="namedview7"
     pagecolor="#ffffff"
     bordercolor="#666666"
     borderopacity="1.0"
     inkscape:pageshadow="2"
     inkscape:pageopacity="0.0"
     inkscape:pagecheckerboard="0"
     inkscape:document-units="mm"
     showgrid="false"
     width="300mm"
     inkscape:zoom="0.47433592"
     inkscape:cx="207.65874"
     inkscape:cy="599.78591"
     inkscape:window-width="1920"
     inkscape:window-height="1017"
     inkscape:window-x="1912"
     inkscape:window-y="-8"
     inkscape:window-maximized="1"
     inkscape:current-layer="g2192" />
  <defs
     id="defs2" />
  <g
     inkscape:label="Calque 1"
     inkscape:groupmode="layer"
     id="layer1">
    <g
       id="g1204"
       transform="translate(-134.42917,1.6733921)" />
    <g
       id="g2192"
       transform="translate(-406.07649,-174.03278)">
      <g
         id="g3610">
        <path
           style="fill:#7f7f7f;stroke-width:0.248864"
           d="m 561.93726,472.06349 v -1.67769 l 2.42643,-0.15873 c 1.33453,-0.0873 4.1549,-0.31974 6.26749,-0.51654 2.11259,-0.19678 3.86262,-0.33179 3.88897,-0.30001 0.0263,0.0318 0.1266,0.81374 0.22278,1.73765 0.14737,1.41551 0.11521,1.67983 -0.20437,1.67983 -0.20859,0 -2.20531,0.16246 -4.43715,0.36106 -2.23184,0.19856 -4.9818,0.40403 -6.11102,0.45656 l -2.05313,0.0955 z m -17.7938,1.24375 c -6.02006,-0.6082 -7.54994,-0.79818 -7.83225,-0.97266 -0.2285,-0.14123 -0.26362,-0.60713 -0.13155,-1.74509 l 0.18018,-1.55246 1.40317,0.15656 c 5.4256,0.60534 8.56736,0.89195 9.80234,0.89424 l 1.43097,0.003 v 1.74205 1.74205 l -1.43097,-0.0331 c -0.78704,-0.0182 -2.32688,-0.12361 -3.42189,-0.23425 z m 43.45745,-3.65007 c -0.13123,-0.51447 -0.30699,-1.27346 -0.39059,-1.6866 l -0.152,-0.75117 2.18468,-0.47018 c 1.20157,-0.25862 3.96504,-0.9586 6.14104,-1.55555 2.17601,-0.59695 3.98434,-1.05524 4.01853,-1.01843 0.0943,0.10159 0.85979,2.74224 0.85979,2.96607 0,0.3101 -5.78312,1.93307 -11.74866,3.29712 -0.61502,0.14064 -0.69514,0.0721 -0.91279,-0.78126 z m -68.59274,-0.67723 c -5.20922,-1.37177 -8.33695,-2.34196 -8.33695,-2.58607 0,-0.31101 0.79586,-2.63032 0.97027,-2.82757 0.0866,-0.098 1.66759,0.26698 3.51324,0.81104 1.84564,0.54405 4.5316,1.27795 5.96879,1.63086 1.43719,0.35292 2.64355,0.67169 2.68079,0.70839 0.0778,0.0767 -0.61734,3.14075 -0.73593,3.24377 -0.0431,0.0375 -1.8702,-0.40373 -4.06021,-0.98042 z m 92.98553,-7.61495 c -0.3217,-0.82964 -0.54511,-1.53604 -0.49647,-1.56978 0.0487,-0.0337 1.48831,-0.66156 3.19925,-1.39516 1.71095,-0.7336 4.20066,-1.875 5.53271,-2.53648 1.33205,-0.66145 2.5126,-1.20266 2.62345,-1.20266 0.18003,0 1.54955,2.5487 1.54955,2.88372 0,0.25195 -11.05964,5.3288 -11.60847,5.3288 -0.11831,0 -0.47832,-0.6788 -0.80002,-1.50844 z m -115.50774,-0.20551 c -2.56172,-1.10961 -8.78848,-4.16031 -9.29749,-4.55516 -0.44688,-0.34667 -0.43943,-0.40558 0.21658,-1.71117 0.37367,-0.74368 0.70775,-1.3846 0.7424,-1.42432 0.0346,-0.0397 1.729,0.74629 3.76524,1.7467 2.03623,1.00038 4.62794,2.2295 5.75935,2.73139 l 2.05712,0.91248 -0.62615,1.41581 c -0.34437,0.77873 -0.62614,1.4579 -0.62614,1.50929 0,0.18867 -0.4082,0.0605 -1.99091,-0.62502 z M 634.89169,449.6671 c -0.43109,-0.69348 -0.78379,-1.30051 -0.78379,-1.34894 0,-0.0485 1.47874,-1.07308 3.2861,-2.27694 1.80735,-1.20388 4.14255,-2.82388 5.18933,-3.60002 l 1.90324,-1.41116 1.05867,1.35549 c 0.58226,0.74555 1.01878,1.387 0.97005,1.42547 -2.15115,1.69828 -10.1881,7.11695 -10.55581,7.11695 -0.1562,0 -0.6367,-0.56739 -1.06779,-1.26085 z m -162.42113,-1.89866 c -3.07666,-2.13152 -7.27519,-5.2421 -7.44377,-5.51488 -0.061,-0.0987 0.33191,-0.76031 0.87319,-1.47014 l 0.98415,-1.29059 2.79321,2.06675 c 1.53627,1.13671 3.82911,2.78013 5.09521,3.65208 1.2661,0.87192 2.30199,1.67618 2.30199,1.78722 0,0.25919 -1.57716,2.67738 -1.74205,2.67096 -0.0684,-0.003 -1.35631,-0.85828 -2.86193,-1.9014 z m 79.69878,-9.21706 c 0.58172,-0.0524 1.53362,-0.0524 2.11534,0 0.58172,0.0524 0.10577,0.0953 -1.05767,0.0953 -1.16344,0 -1.63939,-0.0429 -1.05767,-0.0953 z m 6.9682,0 c 0.58172,-0.0524 1.53362,-0.0524 2.11534,0 0.58172,0.0524 0.10577,0.0953 -1.05767,0.0953 -1.16344,0 -1.63939,-0.0429 -1.05767,-0.0953 z m -11.32333,-0.23819 c 0.23953,-0.0626 0.6315,-0.0626 0.87103,0 0.23953,0.0626 0.0435,0.11381 -0.43552,0.11381 -0.47906,0 -0.67504,-0.0512 -0.43551,-0.11381 z m 16.92277,0 c 0.23953,-0.0626 0.6315,-0.0626 0.87103,0 0.23953,0.0626 0.0435,0.11381 -0.43551,0.11381 -0.47907,0 -0.67505,-0.0512 -0.43552,-0.11381 z m -19.78471,-0.24214 c 0.1711,-0.069 0.45107,-0.069 0.62216,0 0.1711,0.069 0.0311,0.12552 -0.31108,0.12552 -0.34218,0 -0.48217,-0.0565 -0.31108,-0.12552 z m 22.89552,0 c 0.17109,-0.069 0.45106,-0.069 0.62216,0 0.17109,0.069 0.0311,0.12552 -0.31108,0.12552 -0.34219,0 -0.48218,-0.0565 -0.31108,-0.12552 z m -25.1353,-0.24887 c 0.1711,-0.069 0.45107,-0.069 0.62217,0 0.17109,0.069 0.0311,0.12553 -0.31108,0.12553 -0.34219,0 -0.48218,-0.0565 -0.31109,-0.12553 z m 27.37507,0 c 0.1711,-0.069 0.45107,-0.069 0.62217,0 0.17109,0.069 0.0311,0.12553 -0.31109,0.12553 -0.34218,0 -0.48217,-0.0565 -0.31108,-0.12553 z M 540.986,437.56814 c 0.17965,-0.0719 0.39429,-0.0631 0.47699,0.0197 0.0827,0.0827 -0.0643,0.14153 -0.32663,0.13073 -0.28992,-0.0119 -0.34889,-0.0709 -0.15036,-0.15036 z m 31.09248,0.005 c 0.17109,-0.069 0.45106,-0.069 0.62216,0 0.17109,0.069 0.0311,0.12553 -0.31108,0.12553 -0.34219,0 -0.48218,-0.0565 -0.31108,-0.12553 z m -32.83453,-0.25404 c 0.17965,-0.0719 0.39429,-0.0631 0.47699,0.0197 0.0827,0.0827 -0.0643,0.14153 -0.32663,0.13073 -0.28992,-0.012 -0.34889,-0.0709 -0.15036,-0.15037 z m 34.59213,0 c 0.17965,-0.0719 0.3943,-0.0631 0.47699,0.0197 0.0827,0.0827 -0.0643,0.14153 -0.32663,0.13073 -0.28992,-0.012 -0.34888,-0.0709 -0.15036,-0.15037 z m -36.08532,-0.24887 c 0.17965,-0.0719 0.3943,-0.0631 0.47699,0.0197 0.0827,0.0827 -0.0643,0.14153 -0.32663,0.13073 -0.28991,-0.0119 -0.34888,-0.0709 -0.15036,-0.15036 z m 117.7943,-2.80373 c -0.56666,-0.67203 -1.01359,-1.31378 -0.99318,-1.42609 0.0204,-0.11231 2.0356,-2.15994 4.47821,-4.55026 l 4.44108,-4.34606 1.12126,1.10042 c 0.61668,0.60522 1.12123,1.20478 1.12123,1.33232 0,0.2958 -4.20165,4.58948 -6.99558,7.14875 l -2.14272,1.9628 z m -205.41956,-5.27201 -4.42683,-4.52719 1.19159,-1.06833 c 0.65538,-0.58759 1.30359,-1.05666 1.44046,-1.04238 0.13688,0.0143 2.20459,2.02445 4.59492,4.46706 l 4.34605,4.44108 -1.10042,1.12126 c -0.60523,0.61668 -1.21708,1.12449 -1.35968,1.12847 -0.14259,0.004 -2.25134,-2.03001 -4.68609,-4.51997 z m 222.86413,-13.67869 -1.29059,-0.98415 2.06675,-2.79321 c 1.13671,-1.53627 2.78013,-3.82911 3.65208,-5.09521 0.87192,-1.2661 1.6827,-2.30199 1.8017,-2.30199 0.16353,0 1.90329,1.08346 2.62856,1.63698 0.20546,0.1568 -6.81436,10.05601 -7.37803,10.40439 -0.10443,0.0645 -0.77064,-0.32553 -1.48047,-0.86681 z m -236.72327,-2.53315 c -2.19612,-3.05233 -5.9783,-8.75059 -5.9783,-9.00695 0,-0.14373 0.19598,-0.37876 0.43552,-0.52228 0.23953,-0.14352 0.84619,-0.50983 1.34814,-0.81402 l 0.91263,-0.55306 1.3786,2.11496 c 0.75823,1.16322 2.38089,3.51283 3.60592,5.22134 l 2.22731,3.10639 -1.33485,1.00782 c -0.73417,0.5543 -1.36765,1.00484 -1.40774,1.0012 -0.0401,-0.004 -0.57434,-0.70357 -1.18723,-1.5554 z m 47.24691,-0.61554 c -0.30955,-0.39472 -0.30075,-0.40352 0.094,-0.094 0.23953,0.18785 0.43551,0.38383 0.43551,0.43551 0,0.20482 -0.20436,0.073 -0.52947,-0.34155 z m 145.86621,0.34155 c 0,-0.0517 0.19598,-0.24766 0.43551,-0.43551 0.39471,-0.30956 0.40351,-0.30076 0.094,0.094 -0.32511,0.41454 -0.52947,0.54637 -0.52947,0.34155 z m 1.86648,-1.64809 c 0.24774,-0.27375 0.50643,-0.49773 0.57487,-0.49773 0.0684,0 -0.0783,0.22398 -0.32601,0.49773 -0.24774,0.27375 -0.50643,0.49773 -0.57487,0.49773 -0.0684,0 0.0783,-0.22398 0.32601,-0.49773 z m -149.47474,-0.18665 c -0.30955,-0.39471 -0.30075,-0.40351 0.094,-0.094 0.41455,0.32511 0.54638,0.52947 0.34155,0.52947 -0.0517,0 -0.24765,-0.19598 -0.43551,-0.43551 z m -2.34812,-2.11534 -0.73094,-0.80881 0.80881,0.73093 c 0.75393,0.68134 0.9232,0.88668 0.73094,0.88668 -0.0428,0 -0.4068,-0.36396 -0.80881,-0.8088 z m 153.68934,0.73093 c 0,-0.0428 0.36396,-0.40679 0.80881,-0.80881 l 0.80881,-0.73093 -0.73094,0.80881 c -0.68133,0.75392 -0.88668,0.9232 -0.88668,0.73093 z m -160.65754,-7.69913 -0.73094,-0.80881 0.80881,0.73093 c 0.44485,0.40202 0.80881,0.76598 0.80881,0.80881 0,0.19227 -0.20534,0.023 -0.88668,-0.73093 z m 167.62574,0.73093 c 0,-0.0428 0.36396,-0.40679 0.80881,-0.80881 l 0.80881,-0.73093 -0.73094,0.80881 c -0.68134,0.75392 -0.88668,0.9232 -0.88668,0.73093 z M 470.32346,399.2264 c -0.30955,-0.39472 -0.30075,-0.40352 0.094,-0.094 0.23953,0.18786 0.43551,0.38384 0.43551,0.43552 0,0.20482 -0.20437,0.073 -0.52948,-0.34155 z m 172.24582,0.34155 c 0,-0.0517 0.19598,-0.24766 0.43551,-0.43552 0.39472,-0.30955 0.40352,-0.30075 0.094,0.094 -0.32511,0.41454 -0.52948,0.54637 -0.52948,0.34155 z m -173.739,-2.0836 c -0.30956,-0.39472 -0.30075,-0.40352 0.094,-0.094 0.23953,0.18785 0.43551,0.38383 0.43551,0.43551 0,0.20482 -0.20436,0.073 -0.52947,-0.34155 z m 175.23219,0.34155 c 0,-0.0517 0.19598,-0.24766 0.43551,-0.43551 0.39471,-0.30956 0.40352,-0.30076 0.094,0.094 -0.32511,0.41454 -0.52947,0.54637 -0.52947,0.34155 z m 42.92908,-4.05424 c -0.68437,-0.3525 -1.27679,-0.66908 -1.31651,-0.7035 -0.0397,-0.0344 0.74778,-1.7286 1.75001,-3.76484 1.0022,-2.03623 2.23184,-4.62067 2.73253,-5.74319 l 0.91035,-2.04095 1.50814,0.65072 c 0.82946,0.3579 1.50812,0.74052 1.50812,0.85026 0,0.31103 -4.0983,9.03062 -4.83668,10.29055 -0.36262,0.61878 -0.73858,1.11984 -0.83549,1.11346 -0.0969,-0.006 -0.73609,-0.3 -1.42047,-0.65251 z M 422.0812,389.13779 c -1.39158,-2.93105 -3.73862,-8.28493 -3.73862,-8.52826 0,-0.12635 2.69149,-1.35449 2.96838,-1.35449 0.0929,0 0.54386,0.92391 1.00208,2.05313 0.45823,1.12922 1.60015,3.6659 2.5376,5.63706 0.93745,1.97116 1.70446,3.65566 1.70446,3.74333 0,0.15114 -2.59596,1.50742 -2.88524,1.50742 -0.0752,0 -0.79008,-1.37618 -1.58866,-3.05819 z m 127.47506,-5.32588 c 0.23953,-0.0626 0.6315,-0.0626 0.87103,0 0.23953,0.0626 0.0435,0.11381 -0.43552,0.11381 -0.47906,0 -0.67504,-0.0512 -0.43551,-0.11381 z m 4.23069,0 c 0.23954,-0.0626 0.6315,-0.0626 0.87103,0 0.23953,0.0626 0.0436,0.11381 -0.43551,0.11381 -0.47907,0 -0.67505,-0.0512 -0.43552,-0.11381 z m 51.14451,-0.004 c 0.30957,-0.0595 0.75752,-0.0573 0.99546,0.005 0.23794,0.0623 -0.0154,0.111 -0.56285,0.10823 -0.5475,-0.003 -0.74217,-0.0537 -0.43261,-0.11325 z m 4.1081,0.004 c 0.24214,-0.0631 0.5781,-0.0589 0.74659,0.009 0.16849,0.0682 -0.0296,0.11979 -0.44025,0.11472 -0.41062,-0.005 -0.54848,-0.0609 -0.30634,-0.12394 z m 23.39324,0 c 0.24214,-0.0631 0.5781,-0.0589 0.74659,0.009 0.16849,0.0682 -0.0296,0.11979 -0.44025,0.11472 -0.41062,-0.005 -0.54848,-0.0609 -0.30634,-0.12394 z m 3.35493,0.008 c 0.17109,-0.069 0.45107,-0.069 0.62216,0 0.1711,0.069 0.0311,0.12553 -0.31108,0.12553 -0.34219,0 -0.48217,-0.0565 -0.31108,-0.12553 z m -79.62101,-0.25404 c 0.17965,-0.0719 0.39429,-0.0631 0.47699,0.0196 0.0827,0.0827 -0.0643,0.14152 -0.32663,0.13071 -0.28992,-0.012 -0.34889,-0.0709 -0.15036,-0.15035 z m 83.86649,-3.50006 c 0.0584,-2.37261 -0.002,-3.17587 -0.24887,-3.33272 -0.24481,-0.15526 -0.21753,-0.20761 0.10965,-0.21048 0.39253,-0.003 0.43551,0.31401 0.43551,3.21674 0,1.7713 -0.084,3.27275 -0.18664,3.33654 -0.10266,0.0638 -0.152,-1.29074 -0.10965,-3.01008 z m -160.85236,1.36935 c -0.0654,-0.17182 -0.0901,-17.05472 -0.0549,-37.51759 l 0.0639,-37.20521 4.85285,-0.008 4.85286,-0.008 -4.79064,0.0761 -4.79064,0.0761 v 37.32427 37.32426 h 23.14438 23.14438 v -4.10466 -4.10467 l -18.47818,-0.0654 -18.47817,-0.0654 18.60848,-0.0606 18.60848,-0.0606 -0.0681,4.29291 -0.0681,4.29291 -23.21391,0.0635 c -18.43973,0.0504 -23.23835,-7.5e-4 -23.33275,-0.24887 z m 92.66058,0.12445 c 1.13572,-0.0462 2.92754,-0.046 3.98183,5e-4 1.05428,0.0465 0.12506,0.0843 -2.06495,0.084 -2.19,-2.5e-4 -3.0526,-0.0384 -1.91688,-0.0846 z m -32.45003,-1.61893 -0.47409,-0.55995 0.55995,0.47408 c 0.52621,0.44553 0.67324,0.64581 0.47408,0.64581 -0.0472,0 -0.2992,-0.25198 -0.55994,-0.55994 z m 55.3642,0.12443 c -0.30956,-0.39472 -0.30075,-0.40352 0.094,-0.094 0.41454,0.32511 0.54638,0.52947 0.34155,0.52947 -0.0517,0 -0.24766,-0.19598 -0.43551,-0.43551 z m -29.45867,-0.80881 c 0.24774,-0.27375 0.50643,-0.49773 0.57487,-0.49773 0.0684,0 -0.0783,0.22398 -0.32601,0.49773 -0.24774,0.27375 -0.50643,0.49773 -0.57487,0.49773 -0.0684,0 0.0783,-0.22398 0.32601,-0.49773 z m -27.53125,-0.93324 c -0.30955,-0.39472 -0.30075,-0.40352 0.094,-0.094 0.23953,0.18785 0.43551,0.38383 0.43551,0.43551 0,0.20482 -0.20436,0.073 -0.52947,-0.34155 z m 54.999,-0.24887 c -0.30955,-0.39471 -0.30075,-0.40351 0.094,-0.094 0.41455,0.32511 0.54638,0.52948 0.34156,0.52948 -0.0517,0 -0.24766,-0.19598 -0.43552,-0.43552 z m -25.60127,-0.68437 c 0.32147,-0.34219 0.64048,-0.62216 0.70892,-0.62216 0.0684,0 -0.13859,0.27997 -0.46006,0.62216 -0.32147,0.34219 -0.64048,0.62216 -0.70892,0.62216 -0.0684,0 0.13859,-0.27997 0.46006,-0.62216 z m 56.86548,-0.12444 c 0.24775,-0.27375 0.50644,-0.49772 0.57488,-0.49772 0.0684,0 -0.0783,0.22397 -0.32601,0.49772 -0.24774,0.27376 -0.50644,0.49773 -0.57487,0.49773 -0.0684,0 0.0783,-0.22397 0.326,-0.49773 z m 12.76985,-0.66773 c 0.17965,-0.0719 0.3943,-0.063 0.47699,0.0196 0.0827,0.0827 -0.0643,0.14151 -0.32663,0.13071 -0.28992,-0.012 -0.34888,-0.0709 -0.15036,-0.15036 z m -84.00724,-0.25041 c 0.23953,-0.0626 0.63149,-0.0626 0.87102,0 0.23953,0.0626 0.0435,0.11382 -0.43551,0.11382 -0.47906,0 -0.67504,-0.0512 -0.43551,-0.11382 z m 2.48864,0 c 0.23953,-0.0626 0.63149,-0.0626 0.87103,0 0.23953,0.0626 0.0435,0.11382 -0.43552,0.11382 -0.47906,0 -0.67504,-0.0512 -0.43551,-0.11382 z m 52.88366,-0.0107 c 0.58172,-0.0524 1.53362,-0.0524 2.11534,0 0.58172,0.0524 0.10577,0.0953 -1.05767,0.0953 -1.16344,0 -1.63939,-0.0429 -1.05767,-0.0953 z m -2.47309,-0.23665 c 0.17965,-0.0719 0.39429,-0.063 0.47699,0.0196 0.0827,0.0827 -0.0643,0.14151 -0.32664,0.1307 -0.28991,-0.0119 -0.34888,-0.0709 -0.15035,-0.15035 z m 6.71933,0 c 0.17965,-0.0719 0.3943,-0.063 0.47699,0.0196 0.0827,0.0827 -0.0643,0.14151 -0.32663,0.1307 -0.28991,-0.0119 -0.34888,-0.0709 -0.15036,-0.15035 z m -44.00231,-0.17282 c 0,-0.0517 0.19598,-0.24766 0.43551,-0.43551 0.39472,-0.30956 0.40352,-0.30075 0.094,0.094 -0.3251,0.41455 -0.52947,0.54638 -0.52947,0.34155 z m 66.29868,-0.46598 -0.47408,-0.55995 0.55994,0.47409 c 0.52621,0.44552 0.67324,0.6458 0.47409,0.6458 -0.0472,0 -0.2992,-0.25197 -0.55995,-0.55994 z m -88.72821,-2.11535 c -0.30955,-0.39471 -0.30075,-0.40351 0.094,-0.094 0.23953,0.18786 0.43552,0.38384 0.43552,0.43551 0,0.20483 -0.20437,0.073 -0.52948,-0.34155 z m 18.07441,-0.80881 c 0.53462,-0.5475 1.02803,-0.99545 1.09647,-0.99545 0.0684,0 -0.31299,0.44795 -0.84761,0.99545 -0.53462,0.5475 -1.02803,0.99546 -1.09647,0.99546 -0.0684,0 0.31299,-0.44796 0.84761,-0.99546 z m 69.67528,-16.30061 c 3e-5,-9.44439 0.031,-13.27182 0.0688,-8.50539 0.0378,4.76644 0.0378,12.49367 -5e-5,17.17164 -0.0379,4.67796 -0.0688,0.77815 -0.0688,-8.66625 z m -11.44105,14.80743 c 0.53462,-0.5475 1.02804,-0.99546 1.09648,-0.99546 0.0684,0 -0.31299,0.44796 -0.84761,0.99546 -0.53462,0.5475 -1.02803,0.99545 -1.09647,0.99545 -0.0684,0 0.31298,-0.44795 0.8476,-0.99545 z m -87.42727,0.12443 c 0.005,-0.41063 0.0609,-0.54848 0.12394,-0.30634 0.0631,0.24213 0.0589,0.5781 -0.009,0.74659 -0.0682,0.16849 -0.11979,-0.0296 -0.11472,-0.44025 z m 162.08655,-1.10447 c -0.72708,-0.25928 -1.23167,-0.58748 -1.21391,-0.78952 0.0167,-0.19018 0.59143,-2.308 1.2771,-4.70626 0.68567,-2.39827 1.37985,-5.00201 1.54264,-5.7861 0.16275,-0.78409 0.372,-1.42499 0.46495,-1.42423 0.093,7.5e-4 0.56096,0.10188 1.04003,0.22471 0.47906,0.12283 1.16919,0.28986 1.53362,0.37119 l 0.6626,0.14786 -0.94376,3.67147 c -1.38697,5.3956 -2.47536,8.77594 -2.81854,8.7539 -0.16522,-0.0106 -0.86035,-0.21897 -1.54473,-0.46302 z m -107.33641,-0.38872 c 0.005,-0.41062 0.0609,-0.54848 0.12394,-0.30634 0.0631,0.24214 0.0589,0.5781 -0.009,0.74659 -0.0682,0.16849 -0.1198,-0.0296 -0.11472,-0.44025 z m 8.93024,-0.2696 c 0.012,-0.28991 0.0709,-0.34888 0.15036,-0.15035 0.0719,0.17964 0.0631,0.39429 -0.0196,0.47699 -0.0827,0.0827 -0.14151,-0.0643 -0.13071,-0.32664 z m -185.28302,-3.40114 c -0.8193,-2.70404 -2.65547,-10.19785 -2.52956,-10.32376 0.13096,-0.13096 3.19471,-0.84319 3.25292,-0.75621 0.0249,0.0373 0.25194,1.01963 0.50447,2.18307 0.25252,1.16344 0.94599,3.89571 1.54104,6.07171 0.59504,2.17601 1.05178,3.98434 1.01496,4.01853 -0.10158,0.0943 -2.74222,0.85979 -2.96604,0.85979 -0.10764,0 -0.47564,-0.92391 -0.81779,-2.05313 z m 130.13414,-18.35374 c 0,-11.01847 0.0306,-15.52602 0.0679,-10.01679 0.0374,5.50923 0.0374,14.52434 0,20.03357 -0.0374,5.50924 -0.0679,1.00168 -0.0679,-10.01678 z m 81.5285,19.01738 c 0.0119,-0.28992 0.0709,-0.34889 0.15035,-0.15036 0.0719,0.17965 0.063,0.39429 -0.0196,0.47699 -0.0827,0.0827 -0.14152,-0.0643 -0.13071,-0.32663 z m -35.30986,-0.477 c 0.005,-0.41062 0.0609,-0.54848 0.12394,-0.30634 0.0631,0.24214 0.0589,0.5781 -0.009,0.74659 -0.0682,0.16849 -0.1198,-0.0296 -0.11472,-0.44025 z m 8.93024,-0.0207 c 0.012,-0.28991 0.0709,-0.34888 0.15036,-0.15035 0.0719,0.17965 0.0631,0.39429 -0.0196,0.47699 -0.0827,0.0827 -0.14151,-0.0643 -0.13071,-0.32664 z m 26.7138,-6.07644 c 0,-2.80594 0.0363,-3.95383 0.0807,-2.55086 0.0444,1.40297 0.0444,3.69875 0,5.10172 -0.0444,1.40297 -0.0807,0.25508 -0.0807,-2.55086 z m -56.57751,2.59234 c 0.0119,-0.28992 0.0709,-0.34889 0.15036,-0.15036 0.0719,0.17965 0.063,0.3943 -0.0196,0.47699 -0.0827,0.0827 -0.14151,-0.0643 -0.13071,-0.32663 z m 0.28696,-2.34348 c 0,-0.47906 0.0512,-0.67504 0.11381,-0.43551 0.0626,0.23953 0.0626,0.6315 0,0.87103 -0.0626,0.23953 -0.11381,0.0436 -0.11381,-0.43552 z m 23.3355,-1.83601 c 0,-0.0517 0.19598,-0.24765 0.43551,-0.43551 0.39472,-0.30955 0.40352,-0.30075 0.094,0.094 -0.32511,0.41455 -0.52947,0.54638 -0.52947,0.34155 z m 20.60907,-0.82263 c 0.17965,-0.0719 0.3943,-0.063 0.47699,0.0196 0.0827,0.0827 -0.0643,0.14151 -0.32663,0.1307 -0.28992,-0.0119 -0.34888,-0.0709 -0.15036,-0.15035 z m 1.49319,-0.24886 c 0.17965,-0.0719 0.39429,-0.0631 0.47699,0.0196 0.0827,0.0827 -0.0643,0.14152 -0.32664,0.13071 -0.28991,-0.0119 -0.34888,-0.0709 -0.15035,-0.15035 z m 1.74205,-0.24887 c 0.17965,-0.0719 0.39429,-0.063 0.47699,0.0196 0.0827,0.0827 -0.0643,0.14151 -0.32664,0.13071 -0.28991,-0.012 -0.34888,-0.0709 -0.15035,-0.15036 z m 1.74205,-0.24886 c 0.17965,-0.0719 0.39429,-0.0631 0.47699,0.0196 0.0827,0.0827 -0.0643,0.14152 -0.32664,0.13071 -0.28991,-0.0119 -0.34888,-0.0709 -0.15035,-0.15035 z m -13.18981,-4.97729 c 0.17965,-0.0719 0.3943,-0.063 0.47699,0.0196 0.0827,0.0827 -0.0643,0.14151 -0.32663,0.13071 -0.28992,-0.0119 -0.34889,-0.0709 -0.15036,-0.15036 z m 2.98637,-0.49773 c 0.17965,-0.0719 0.3943,-0.063 0.47699,0.0196 0.0827,0.0827 -0.0643,0.14151 -0.32663,0.13071 -0.28992,-0.012 -0.34888,-0.0709 -0.15036,-0.15036 z m 1.74205,-0.24886 c 0.17965,-0.0719 0.3943,-0.0631 0.47699,0.0196 0.0827,0.0827 -0.0643,0.14152 -0.32663,0.13071 -0.28992,-0.0119 -0.34888,-0.0709 -0.15036,-0.15035 z m 1.7265,-0.24368 c 0.17109,-0.069 0.45106,-0.069 0.62216,0 0.17109,0.069 0.0311,0.12552 -0.31108,0.12552 -0.34219,0 -0.48218,-0.0565 -0.31108,-0.12552 z m 2.00647,-0.25405 c 0.17964,-0.0719 0.39429,-0.0631 0.47699,0.0196 0.0827,0.0827 -0.0643,0.14151 -0.32664,0.1307 -0.28991,-0.0119 -0.34888,-0.0709 -0.15035,-0.15035 z m 1.72649,-0.24368 c 0.1711,-0.069 0.45107,-0.069 0.62216,0 0.1711,0.069 0.0311,0.12552 -0.31108,0.12552 -0.34219,0 -0.48217,-0.0565 -0.31108,-0.12552 z m 2.00647,-0.25405 c 0.17965,-0.0719 0.3943,-0.0631 0.47699,0.0196 0.0827,0.0827 -0.0643,0.14151 -0.32663,0.13071 -0.28992,-0.0119 -0.34889,-0.0709 -0.15036,-0.15036 z m 1.49319,-0.24886 c 0.17964,-0.0719 0.39429,-0.063 0.47699,0.0196 0.0827,0.0827 -0.0643,0.14152 -0.32664,0.13071 -0.28991,-0.0119 -0.34888,-0.0709 -0.15035,-0.15035 z M 444.9907,348.49956 c 0.012,-0.28991 0.0709,-0.34888 0.15036,-0.15035 0.0719,0.17965 0.0631,0.39429 -0.0196,0.47699 -0.0827,0.0827 -0.14151,-0.0643 -0.13071,-0.32664 z m 178.91376,-0.72585 c 0.32147,-0.34219 0.64049,-0.62216 0.70892,-0.62216 0.0684,0 -0.13858,0.27997 -0.46005,0.62216 -0.32147,0.34219 -0.64049,0.62216 -0.70893,0.62216 -0.0684,0 0.13859,-0.27997 0.46006,-0.62216 z m -179.41149,-1.76279 c 0.012,-0.28991 0.0709,-0.34888 0.15036,-0.15036 0.0719,0.17965 0.0631,0.3943 -0.0196,0.477 -0.0827,0.0827 -0.14151,-0.0643 -0.13071,-0.32664 z m 224.2267,0 c 0.0119,-0.28991 0.0709,-0.34888 0.15036,-0.15036 0.0719,0.17965 0.0631,0.3943 -0.0197,0.477 -0.0827,0.0827 -0.14153,-0.0643 -0.13073,-0.32664 z M 444.24411,344.7666 c 0.0119,-0.28991 0.0709,-0.34888 0.15035,-0.15036 0.0719,0.17965 0.0631,0.3943 -0.0196,0.47699 -0.0827,0.0827 -0.14152,-0.0643 -0.13071,-0.32663 z m 257.83584,0.21176 -0.83893,-0.10262 0.15768,-1.41295 c 0.60624,-5.43334 0.89303,-8.57636 0.89534,-9.81213 l 0.003,-1.43097 h 1.77763 1.77762 l -0.1707,2.55086 c -0.20658,3.08672 -0.86557,9.35108 -1.04722,9.95457 -0.13322,0.44256 -0.61547,0.49038 -2.55409,0.25324 z m -76.85405,-1.68421 c 10e-4,-0.82125 0.0479,-1.12721 0.10324,-0.67992 0.0554,0.4473 0.0542,1.11923 -0.003,1.49319 -0.0568,0.37395 -0.1021,0.008 -0.1007,-0.81327 z m -181.23065,-0.0207 c 0.0119,-0.28991 0.0709,-0.34888 0.15035,-0.15035 0.0719,0.17964 0.063,0.39429 -0.0196,0.47699 -0.0827,0.0827 -0.14151,-0.0643 -0.13071,-0.32664 z m 147.82537,0 c 0.0119,-0.28991 0.0709,-0.34888 0.15035,-0.15035 0.0719,0.17964 0.0631,0.39429 -0.0196,0.47699 -0.0827,0.0827 -0.14152,-0.0643 -0.13071,-0.32664 z m 8.71025,0 c 0.0119,-0.28991 0.0709,-0.34888 0.15035,-0.15035 0.0719,0.17964 0.063,0.39429 -0.0196,0.47699 -0.0827,0.0827 -0.14152,-0.0643 -0.13071,-0.32664 z m 68.68652,0 c 0.0119,-0.28991 0.0709,-0.34888 0.15037,-0.15035 0.0719,0.17964 0.0631,0.39429 -0.0197,0.47699 -0.0827,0.0827 -0.14153,-0.0643 -0.13073,-0.32664 z m -260.82938,-0.93189 c 0,-0.21364 -0.16247,-2.21449 -0.36105,-4.44633 -0.19857,-2.23184 -0.40403,-4.9818 -0.45657,-6.11102 l -0.0955,-2.05313 h 1.67767 1.67767 l 0.15873,2.42643 c 0.0873,1.33453 0.31974,4.1549 0.51654,6.26749 0.1968,2.11259 0.3318,3.86537 0.30001,3.89507 -0.0318,0.0297 -0.81373,0.13408 -1.73764,0.23197 -1.4324,0.15175 -1.67983,0.12075 -1.67983,-0.21048 z m 35.35837,-0.5613 c 0.012,-0.28992 0.0709,-0.34888 0.15035,-0.15036 0.0719,0.17965 0.0631,0.3943 -0.0196,0.47699 -0.0827,0.0827 -0.14151,-0.0643 -0.13071,-0.32663 z m 225.71988,0 c 0.0119,-0.28992 0.0709,-0.34888 0.15036,-0.15036 0.0719,0.17965 0.0631,0.3943 -0.0197,0.47699 -0.0827,0.0827 -0.14153,-0.0643 -0.13073,-0.32663 z m -77.37713,-1.09915 c 0,-0.34219 0.0565,-0.48218 0.12552,-0.31108 0.069,0.17109 0.069,0.45106 0,0.62216 -0.069,0.17109 -0.12552,0.0311 -0.12552,-0.31108 z m -148.59161,-0.6429 c 0.0119,-0.28992 0.0709,-0.34888 0.15035,-0.15036 0.0719,0.17965 0.063,0.3943 -0.0196,0.47699 -0.0827,0.0827 -0.14151,-0.0643 -0.1307,-0.32663 z m 226.23726,-0.1037 c 0,-0.34218 0.0565,-0.48217 0.12553,-0.31108 0.069,0.1711 0.069,0.45107 0,0.62216 -0.069,0.1711 -0.12553,0.0311 -0.12553,-0.31108 z M 443.2683,337.94357 c 0,-0.34219 0.0565,-0.48217 0.12552,-0.31108 0.069,0.17109 0.069,0.45107 0,0.62216 -0.069,0.17109 -0.12552,0.0311 -0.12552,-0.31108 z m 226.71535,0 c 0,-0.34219 0.0565,-0.48217 0.12552,-0.31108 0.069,0.17109 0.069,0.45107 0,0.62216 -0.069,0.17109 -0.12552,0.0311 -0.12552,-0.31108 z m -36.6027,-0.14517 c 0.012,-0.28991 0.0709,-0.34888 0.15036,-0.15036 0.0719,0.17965 0.0631,0.3943 -0.0196,0.47699 -0.0827,0.0827 -0.14151,-0.0643 -0.13071,-0.32663 z m -190.35229,-2.21904 c 0.005,-0.41063 0.0608,-0.54848 0.12394,-0.30634 0.0631,0.24213 0.0589,0.5781 -0.009,0.74659 -0.0682,0.16849 -0.1198,-0.0296 -0.11473,-0.44025 z m 227.21306,0 c 0.005,-0.41063 0.0608,-0.54848 0.12396,-0.30634 0.0631,0.24213 0.0589,0.5781 -0.009,0.74659 -0.0682,0.16849 -0.11978,-0.0296 -0.11473,-0.44025 z m -60.56918,-1.28989 c 0.17964,-0.0719 0.39429,-0.063 0.47699,0.0196 0.0827,0.0827 -0.0643,0.14152 -0.32664,0.13071 -0.28991,-0.0119 -0.34888,-0.0709 -0.15035,-0.15035 z m 6.71933,0 c 0.17965,-0.0719 0.3943,-0.063 0.47699,0.0196 0.0827,0.0827 -0.0643,0.14152 -0.32663,0.13071 -0.28992,-0.0119 -0.34888,-0.0709 -0.15036,-0.15035 z m -3.49965,-0.24368 c 0.17109,-0.069 0.45106,-0.069 0.62216,0 0.17109,0.069 0.0311,0.12552 -0.31108,0.12552 -0.34219,0 -0.48218,-0.0565 -0.31108,-0.12552 z m -170.09819,-1.4528 c 0.003,-0.5475 0.0537,-0.74218 0.11326,-0.43261 0.0595,0.30956 0.0573,0.75752 -0.005,0.99546 -0.0623,0.23793 -0.11099,-0.0154 -0.10823,-0.56285 z m 227.71081,0 c 0.003,-0.5475 0.0537,-0.74218 0.11326,-0.43261 0.0595,0.30956 0.0573,0.75752 -0.005,0.99546 -0.0623,0.23793 -0.11099,-0.0154 -0.10823,-0.56285 z M 442.58658,324.5049 c 0,-2.66907 0.0366,-3.76096 0.0814,-2.42643 0.0448,1.33454 0.0448,3.51832 0,4.85286 -0.0447,1.33453 -0.0814,0.24264 -0.0814,-2.42643 z m 228.20809,0.12443 c 2.5e-4,-2.60063 0.0371,-3.63071 0.082,-2.28907 0.0448,1.34165 0.0447,3.46944 0,4.72842 -0.0451,1.25899 -0.0818,0.16128 -0.0815,-2.43935 z m -63.11305,1.94535 c 0.17965,-0.0719 0.3943,-0.063 0.47699,0.0196 0.0827,0.0827 -0.0643,0.14152 -0.32663,0.13071 -0.28992,-0.0119 -0.34888,-0.0709 -0.15036,-0.15035 z m 11.69662,0 c 0.17965,-0.0719 0.3943,-0.063 0.47699,0.0196 0.0827,0.0827 -0.0643,0.14152 -0.32663,0.13071 -0.28991,-0.0119 -0.34888,-0.0709 -0.15036,-0.15035 z m -9.72126,-0.24368 c 0.1711,-0.069 0.45107,-0.069 0.62216,0 0.1711,0.069 0.0311,0.12552 -0.31108,0.12552 -0.34219,0 -0.48217,-0.0565 -0.31108,-0.12552 z m 7.34623,-0.008 c 0.24214,-0.0631 0.57811,-0.0589 0.7466,0.009 0.16849,0.0682 -0.0296,0.11979 -0.44025,0.11472 -0.41063,-0.005 -0.54848,-0.0608 -0.30635,-0.12394 z m 85.42781,-9.25251 c -0.0861,-1.31785 -0.3178,-4.12796 -0.51503,-6.2447 -0.1972,-2.11674 -0.27621,-3.92297 -0.17557,-4.01385 0.10064,-0.0909 0.86436,-0.23828 1.69713,-0.32755 l 1.51416,-0.16232 0.31054,3.18071 c 0.26997,2.76525 0.74204,9.59761 0.66884,9.68047 -0.0142,0.0161 -0.77235,0.0864 -1.68473,0.15631 l -1.65888,0.12702 z m -259.63699,-0.65404 c 0.003,-0.5475 0.0537,-0.74217 0.11326,-0.43261 0.0595,0.30957 0.0573,0.75752 -0.005,0.99546 -0.0623,0.23793 -0.11099,-0.0154 -0.10823,-0.56285 z m 227.71081,0 c 0.003,-0.5475 0.0537,-0.74217 0.11326,-0.43261 0.0595,0.30957 0.0573,0.75752 -0.005,0.99546 -0.0623,0.23793 -0.11099,-0.0154 -0.10823,-0.56285 z m -262.73892,-2.42643 c 0.1013,-1.53984 0.3667,-4.42356 0.58978,-6.40825 l 0.4056,-3.60853 1.61151,0.0768 c 0.88633,0.0423 1.65294,0.11828 1.70358,0.16891 0.0506,0.0506 -0.0899,1.67931 -0.31225,3.61927 -0.22238,1.93996 -0.47415,4.74767 -0.5595,6.23935 l -0.15517,2.71214 h -1.73387 -1.73386 z m 35.26274,-0.55994 c 0.005,-0.41063 0.0608,-0.54848 0.12394,-0.30634 0.0631,0.24213 0.0589,0.5781 -0.009,0.74659 -0.0682,0.16849 -0.1198,-0.0296 -0.11473,-0.44025 z m 227.21306,0 c 0.005,-0.41063 0.0608,-0.54848 0.12396,-0.30634 0.0631,0.24213 0.0589,0.5781 -0.009,0.74659 -0.0682,0.16849 -0.11978,-0.0296 -0.11473,-0.44025 z M 443.2683,311.06623 c 0,-0.34219 0.0565,-0.48217 0.12552,-0.31108 0.069,0.17109 0.069,0.45107 0,0.62216 -0.069,0.17109 -0.12552,0.0311 -0.12552,-0.31108 z m 226.71535,0 c 0,-0.34219 0.0565,-0.48217 0.12552,-0.31108 0.069,0.17109 0.069,0.45107 0,0.62216 -0.069,0.17109 -0.12552,0.0311 -0.12552,-0.31108 z m -66.67271,-0.42711 c 0.37641,-0.057 0.99235,-0.057 1.36876,0 0.3764,0.057 0.0684,0.10367 -0.68438,0.10367 -0.75281,0 -1.06078,-0.0466 -0.68438,-0.10367 z m -3.35966,-0.23544 c 0.17109,-0.069 0.45106,-0.069 0.62216,0 0.17109,0.069 0.0311,0.12553 -0.31108,0.12553 -0.34219,0 -0.48218,-0.0565 -0.31108,-0.12553 z m 7.46592,0 c 0.1711,-0.069 0.45107,-0.069 0.62216,0 0.1711,0.069 0.0311,0.12553 -0.31108,0.12553 -0.34218,0 -0.48217,-0.0565 -0.31108,-0.12553 z m -9.19242,-0.25404 c 0.17965,-0.0719 0.3943,-0.063 0.47699,0.0196 0.0827,0.0827 -0.0643,0.14151 -0.32663,0.13071 -0.28992,-0.012 -0.34889,-0.0709 -0.15036,-0.15035 z m 11.19889,0 c 0.17965,-0.0719 0.3943,-0.063 0.47699,0.0196 0.0827,0.0827 -0.0643,0.14151 -0.32663,0.13071 -0.28992,-0.012 -0.34888,-0.0709 -0.15036,-0.15035 z m -165.92615,-0.97063 c 0.0119,-0.28991 0.0709,-0.34888 0.15035,-0.15036 0.0719,0.17965 0.063,0.3943 -0.0196,0.47699 -0.0827,0.0827 -0.14151,-0.0643 -0.1307,-0.32663 z m 226.2176,0 c 0.012,-0.28991 0.0709,-0.34888 0.15037,-0.15036 0.0719,0.17965 0.0631,0.3943 -0.0197,0.47699 -0.0827,0.0827 -0.14153,-0.0643 -0.13073,-0.32663 z m -225.96874,-1.74205 c 0.012,-0.28991 0.0709,-0.34888 0.15035,-0.15036 0.0719,0.17965 0.0631,0.3943 -0.0196,0.47699 -0.0827,0.0827 -0.14151,-0.0643 -0.13071,-0.32663 z m 225.71988,0 c 0.0119,-0.28991 0.0709,-0.34888 0.15036,-0.15036 0.0719,0.17965 0.0631,0.3943 -0.0197,0.47699 -0.0827,0.0827 -0.14153,-0.0643 -0.13073,-0.32663 z m -225.47101,-1.74205 c 0.0119,-0.28991 0.0709,-0.34888 0.15035,-0.15036 0.0719,0.17965 0.063,0.3943 -0.0196,0.47699 -0.0827,0.0827 -0.14151,-0.0643 -0.13071,-0.32663 z m 180.6558,-2.18857 c 0,-0.0517 0.19599,-0.24766 0.43552,-0.43551 0.39471,-0.30956 0.40351,-0.30075 0.094,0.094 -0.32511,0.41454 -0.52948,0.54638 -0.52948,0.34155 z M 444.49297,302.9574 c 0.012,-0.28991 0.0709,-0.34888 0.15036,-0.15035 0.0719,0.17964 0.0631,0.39429 -0.0196,0.47699 -0.0827,0.0827 -0.14151,-0.0643 -0.13071,-0.32664 z m 138.06828,-0.0415 c -0.30956,-0.39471 -0.30075,-0.40351 0.094,-0.094 0.23953,0.18786 0.43551,0.38384 0.43551,0.43552 0,0.20482 -0.20436,0.073 -0.52947,-0.34156 z m -137.81941,-1.20284 c 0.0119,-0.28991 0.0709,-0.34888 0.15035,-0.15035 0.0719,0.17964 0.063,0.39429 -0.0196,0.47699 -0.0827,0.0827 -0.14152,-0.0643 -0.13071,-0.32664 z m 182.77115,-0.85029 c 0.67409,-0.68437 1.28161,-1.24432 1.35005,-1.24432 0.0684,0 -0.4271,0.55995 -1.10118,1.24432 -0.67409,0.68438 -1.28161,1.24433 -1.35005,1.24433 -0.0684,0 0.4271,-0.55995 1.10118,-1.24433 z m 40.95781,0.85029 c 0.0119,-0.28991 0.0709,-0.34888 0.15036,-0.15035 0.0719,0.17964 0.0631,0.39429 -0.0197,0.47699 -0.0827,0.0827 -0.14152,-0.0643 -0.13072,-0.32664 z m -88.37985,-1.03693 -0.85762,-0.93324 0.93324,0.85762 c 0.86864,0.79826 1.04766,1.00886 0.85763,1.00886 -0.0416,0 -0.46155,-0.41996 -0.93325,-0.93324 z m -2.00926,-2.23978 c -0.30955,-0.39472 -0.30075,-0.40352 0.094,-0.094 0.23953,0.18785 0.43552,0.38383 0.43552,0.43551 0,0.20482 -0.20437,0.073 -0.52948,-0.34155 z m 120.75782,-6.82457 c -0.31402,-1.39241 -1.01437,-4.14891 -1.55635,-6.12555 -0.54198,-1.97663 -0.95151,-3.6234 -0.9101,-3.65947 0.21074,-0.18352 3.00788,-0.88548 3.1123,-0.78105 0.31292,0.31292 2.86647,10.04514 3.10458,11.83227 0.0721,0.54146 -0.0556,0.63291 -1.28869,0.9227 -0.75282,0.17692 -1.48622,0.32642 -1.62979,0.33222 -0.14354,0.006 -0.51793,-1.12871 -0.83195,-2.52112 z m -285.34979,-0.12917 c -0.27375,-0.0629 -0.90841,-0.21976 -1.41037,-0.34848 l -0.91264,-0.23402 1.08074,-4.16443 c 1.3053,-5.02973 2.31533,-8.27069 2.57752,-8.27069 0.30677,0 2.62837,0.79635 2.81713,0.96632 0.0938,0.0845 -0.37313,2.03161 -1.03762,4.32699 -0.66449,2.29538 -1.40564,5.01111 -1.64701,6.03496 -0.24138,1.02384 -0.55837,1.84855 -0.70444,1.83267 -0.14607,-0.0159 -0.48955,-0.0804 -0.76331,-0.14332 z m 223.37533,-8.68323 c 0.0119,-0.28992 0.0709,-0.34889 0.15036,-0.15036 0.0719,0.17965 0.063,0.3943 -0.0196,0.47699 -0.0827,0.0827 -0.14151,-0.0643 -0.13071,-0.32663 z m -65.94903,-0.24887 c 0.0119,-0.28991 0.0709,-0.34888 0.15035,-0.15035 0.0719,0.17964 0.063,0.39429 -0.0196,0.47699 -0.0827,0.0827 -0.14151,-0.0643 -0.13071,-0.32664 z m 66.1979,-1.49318 c 0.0119,-0.28992 0.0709,-0.34889 0.15035,-0.15036 0.0719,0.17965 0.063,0.3943 -0.0196,0.47699 -0.0827,0.0827 -0.14151,-0.0643 -0.1307,-0.32663 z m -66.42712,-0.35256 c 0,-0.34219 0.0565,-0.48218 0.12553,-0.31108 0.069,0.17109 0.069,0.45107 0,0.62216 -0.069,0.17109 -0.12553,0.0311 -0.12553,-0.31108 z m 66.73091,-3.4841 c 0,-0.75282 0.0466,-1.06078 0.10367,-0.68438 0.057,0.37641 0.057,0.99235 0,1.36876 -0.057,0.3764 -0.10367,0.0684 -0.10367,-0.68438 z m -66.73091,-3.4841 c 0,-0.34219 0.0565,-0.48217 0.12553,-0.31108 0.069,0.17109 0.069,0.45107 0,0.62216 -0.069,0.17109 -0.12553,0.0311 -0.12553,-0.31108 z m 66.42712,-0.39403 c 0.0119,-0.28992 0.0709,-0.34889 0.15035,-0.15036 0.0719,0.17965 0.063,0.39429 -0.0196,0.47699 -0.0827,0.0827 -0.14151,-0.0643 -0.1307,-0.32663 z m -66.1979,-1.49319 c 0.0119,-0.28991 0.0709,-0.34888 0.15035,-0.15036 0.0719,0.17965 0.063,0.3943 -0.0196,0.47699 -0.0827,0.0827 -0.14151,-0.0643 -0.13071,-0.32663 z m 65.94903,-0.24886 c 0.0119,-0.28992 0.0709,-0.34889 0.15036,-0.15036 0.0719,0.17965 0.063,0.39429 -0.0196,0.47699 -0.0827,0.0827 -0.14151,-0.0643 -0.13071,-0.32663 z m 54.11804,-4.14774 c -0.53128,-1.2661 -1.67471,-3.80225 -2.54096,-5.6359 -0.86624,-1.83365 -1.57501,-3.40616 -1.57501,-3.49448 0,-0.15012 2.59297,-1.50857 2.87951,-1.50857 0.22565,0 5.33301,11.15126 5.33301,11.64389 0,0.15364 -2.65,1.29705 -3.00608,1.29705 -0.0685,0 -0.5592,-1.0359 -1.09047,-2.30199 z M 420.769,266.83407 c -0.78703,-0.34468 -1.43097,-0.70878 -1.43097,-0.8091 0,-0.60286 5.0443,-11.0603 5.45861,-11.31636 0.18919,-0.11692 2.53138,0.86393 2.95569,1.23777 0.0425,0.0375 -0.59697,1.41331 -1.42112,3.0574 -0.82416,1.64409 -2.01662,4.1477 -2.6499,5.56358 -0.63329,1.41588 -1.22566,2.64612 -1.31639,2.73386 -0.0907,0.0877 -0.80888,-0.12247 -1.59592,-0.46715 z m 157.46887,-11.01571 c 0.24774,-0.27375 0.50643,-0.49773 0.57487,-0.49773 0.0684,0 -0.0783,0.22398 -0.32601,0.49773 -0.24774,0.27375 -0.50643,0.49773 -0.57487,0.49773 -0.0684,0 0.0783,-0.22398 0.32601,-0.49773 z m 68.77922,-0.93324 c -0.30955,-0.39471 -0.30075,-0.40351 0.094,-0.094 0.41455,0.32511 0.54638,0.52947 0.34156,0.52947 -0.0517,0 -0.24766,-0.19598 -0.43552,-0.43551 z m -19.37966,-1.1821 c -0.6045,-0.61594 -1.0431,-1.11989 -0.97466,-1.11989 0.0684,0 0.61902,0.50395 1.22352,1.11989 0.6045,0.61594 1.04309,1.11989 0.97466,1.11989 -0.0684,0 -0.61903,-0.50395 -1.22352,-1.11989 z m -47.78194,0.27933 c 0,-0.0517 0.19598,-0.24766 0.43551,-0.43551 0.39471,-0.30956 0.40352,-0.30075 0.094,0.094 -0.32511,0.41455 -0.52947,0.54638 -0.52947,0.34155 z m 2.23978,-1.99091 c 0,-0.0517 0.19598,-0.24766 0.43551,-0.43552 0.39471,-0.30955 0.40351,-0.30075 0.094,0.094 -0.32511,0.41454 -0.52947,0.54637 -0.52947,0.34155 z m -112.85995,-0.9015 c 0.24774,-0.27375 0.50643,-0.49773 0.57487,-0.49773 0.0684,0 -0.0783,0.22398 -0.32601,0.49773 -0.24774,0.27375 -0.50643,0.49773 -0.57487,0.49773 -0.0684,0 0.0783,-0.22398 0.32601,-0.49773 z m 174.7954,0.0622 c -0.30955,-0.39472 -0.30075,-0.40352 0.094,-0.094 0.41455,0.32511 0.54638,0.52947 0.34155,0.52947 -0.0517,0 -0.24765,-0.19598 -0.43551,-0.43551 z m -173.30221,-1.80427 c 0.24774,-0.27375 0.50643,-0.49773 0.57487,-0.49773 0.0684,0 -0.0783,0.22398 -0.32601,0.49773 -0.24774,0.27375 -0.50643,0.49773 -0.57487,0.49773 -0.0684,0 0.0783,-0.22398 0.32601,-0.49773 z m 171.6927,-0.0622 -0.47409,-0.55995 0.55995,0.47408 c 0.5262,0.44553 0.67323,0.64581 0.47408,0.64581 -0.0472,0 -0.2992,-0.25198 -0.55994,-0.55994 z m -169.32849,-2.55086 c 0.46432,-0.47907 0.90022,-0.87103 0.96866,-0.87103 0.0684,0 -0.25547,0.39196 -0.7198,0.87103 -0.46433,0.47906 -0.90022,0.87102 -0.96866,0.87102 -0.0684,0 0.25547,-0.39196 0.7198,-0.87102 z m 166.97452,-0.0622 -0.85763,-0.93324 0.93325,0.85763 c 0.86864,0.79826 1.04766,1.00885 0.85762,1.00885 -0.0416,0 -0.46154,-0.41996 -0.93324,-0.93324 z m -207.04167,-2.45276 c -0.47906,-0.34324 -1.02461,-0.71378 -1.21233,-0.82341 -0.26318,-0.1537 0.0172,-0.7344 1.22463,-2.53673 1.88727,-2.81704 5.32762,-7.51493 5.77558,-7.88669 0.24222,-0.20103 0.64534,-0.0218 1.61641,0.71869 l 1.29371,0.98652 -2.17193,2.91749 c -1.19457,1.60463 -2.83585,3.8974 -3.64729,5.09506 -0.81145,1.19766 -1.59515,2.17207 -1.74156,2.16536 -0.1464,-0.007 -0.65816,-0.29304 -1.13722,-0.63629 z m 165.44807,-0.0192 c 0.17965,-0.0719 0.3943,-0.0631 0.477,0.0196 0.0827,0.0827 -0.0643,0.14152 -0.32664,0.13071 -0.28991,-0.0119 -0.34888,-0.0709 -0.15036,-0.15035 z m 1.7265,-0.24368 c 0.17109,-0.069 0.45107,-0.069 0.62216,0 0.1711,0.069 0.0311,0.12552 -0.31108,0.12552 -0.34219,0 -0.48217,-0.0565 -0.31108,-0.12552 z m 6.9682,0 c 0.17109,-0.069 0.45107,-0.069 0.62216,0 0.17109,0.069 0.0311,0.12552 -0.31108,0.12552 -0.34219,0 -0.48217,-0.0565 -0.31108,-0.12552 z m 62.59688,-0.26728 c 0.65429,-0.0514 1.66219,-0.0508 2.23978,10e-4 0.57759,0.0522 0.0422,0.0943 -1.18962,0.0935 -1.23188,-7.5e-4 -1.70445,-0.0435 -1.05016,-0.0949 z m -3.36718,-0.23045 c 0.17109,-0.069 0.45106,-0.069 0.62216,0 0.17109,0.069 0.0311,0.12552 -0.31108,0.12552 -0.34219,0 -0.48218,-0.0565 -0.31108,-0.12552 z m 8.47693,-0.005 c 0.17966,-0.0719 0.39431,-0.0631 0.477,0.0196 0.0827,0.0827 -0.0643,0.14151 -0.32663,0.13071 -0.28993,-0.0119 -0.34888,-0.0709 -0.15037,-0.15036 z m -9.95457,-0.24886 c 0.17966,-0.0719 0.3943,-0.0631 0.477,0.0196 0.0827,0.0827 -0.0643,0.14152 -0.32663,0.13071 -0.28993,-0.0119 -0.34889,-0.0709 -0.15037,-0.15035 z m -186.10381,-2.19422 c 0.46433,-0.47907 0.90023,-0.87103 0.96867,-0.87103 0.0684,0 -0.25548,0.39196 -0.7198,0.87103 -0.46433,0.47906 -0.90023,0.87102 -0.96866,0.87102 -0.0684,0 0.25547,-0.39196 0.71979,-0.87102 z m 155.52677,-0.0622 -0.85762,-0.93324 0.93324,0.85763 c 0.86864,0.79826 1.04766,1.00885 0.85763,1.00885 -0.0416,0 -0.46155,-0.41995 -0.93325,-0.93324 z m -152.91369,-2.30199 c 0.24774,-0.27375 0.50643,-0.49773 0.57487,-0.49773 0.0684,0 -0.0783,0.22398 -0.32601,0.49773 -0.24774,0.27375 -0.50643,0.49773 -0.57487,0.49773 -0.0684,0 0.0783,-0.22398 0.32601,-0.49773 z m 150.29037,-0.0622 -0.47408,-0.55994 0.55994,0.47408 c 0.30797,0.26075 0.55995,0.51272 0.55995,0.55995 0,0.19915 -0.20029,0.0521 -0.64581,-0.47409 z m -148.92162,-1.0272 c 0,-0.0517 0.19598,-0.24766 0.43552,-0.43551 0.39471,-0.30956 0.40351,-0.30076 0.094,0.094 -0.32511,0.41454 -0.52948,0.54637 -0.52948,0.34155 z m 147.2959,-0.34155 c -0.30955,-0.39472 -0.30075,-0.40352 0.094,-0.094 0.41455,0.32511 0.54638,0.52947 0.34156,0.52947 -0.0517,0 -0.24766,-0.19598 -0.43552,-0.43551 z m -145.80271,-0.90277 c 0,-0.0517 0.19598,-0.24766 0.43551,-0.43551 0.39471,-0.30956 0.40352,-0.30076 0.094,0.094 -0.32511,0.41454 -0.52947,0.54637 -0.52947,0.34155 z m 207.5528,0 c 0,-0.0517 0.19598,-0.24766 0.43551,-0.43551 0.39472,-0.30956 0.40351,-0.30076 0.094,0.094 -0.32512,0.41454 -0.52948,0.54637 -0.52948,0.34155 z m -43.2016,-0.96371 -0.47408,-0.55995 0.55994,0.47409 c 0.52621,0.44552 0.67324,0.6458 0.47409,0.6458 -0.0472,0 -0.2992,-0.25197 -0.55995,-0.55994 z m 45.69024,-1.30654 c 0.46433,-0.47906 0.90022,-0.87103 0.96865,-0.87103 0.0684,0 -0.25546,0.39197 -0.71979,0.87103 -0.46433,0.47906 -0.90021,0.87102 -0.96865,0.87102 -0.0684,0 0.25546,-0.39196 0.71979,-0.87102 z m -48.67661,-1.67983 -0.47408,-0.55995 0.55994,0.47408 c 0.52621,0.44553 0.67324,0.64581 0.47409,0.64581 -0.0472,0 -0.2992,-0.25198 -0.55995,-0.55994 z m 50.66752,-0.52948 c 0,-0.0517 0.19598,-0.24766 0.43552,-0.43551 0.39472,-0.30956 0.4035,-0.30075 0.094,0.094 -0.32512,0.41455 -0.52949,0.54638 -0.52949,0.34155 z M 448.73188,223.8677 c -0.91254,-0.92982 -1.03171,-1.16533 -0.80447,-1.58994 0.14672,-0.27414 2.18786,-2.35346 4.53587,-4.62071 l 4.26911,-4.12228 1.07765,1.17044 c 0.59271,0.64374 1.0821,1.23902 1.08753,1.32284 0.005,0.0838 -1.12042,1.2597 -2.5019,2.61307 -1.38148,1.35337 -3.36199,3.32859 -4.40114,4.38938 -1.03916,1.06078 -1.95733,1.92869 -2.0404,1.92869 -0.0831,0 -0.63308,-0.49117 -1.22225,-1.09149 z m 189.12863,-7.76393 c 0.0119,-0.28991 0.0709,-0.34888 0.15035,-0.15035 0.0719,0.17965 0.063,0.39429 -0.0196,0.47699 -0.0827,0.0827 -0.14152,-0.0643 -0.13071,-0.32664 z m 65.94902,-0.74659 c 0.0119,-0.28991 0.0709,-0.34888 0.15036,-0.15036 0.0719,0.17965 0.0631,0.3943 -0.0197,0.477 -0.0827,0.0827 -0.14153,-0.0643 -0.13073,-0.32664 z m -66.17824,-0.85029 c 0,-0.34218 0.0565,-0.48217 0.12552,-0.31108 0.069,0.1711 0.069,0.45107 0,0.62216 -0.069,0.1711 -0.12552,0.0311 -0.12552,-0.31108 z m 66.4652,-1.49318 c 0,-0.47907 0.0512,-0.67505 0.11381,-0.43551 0.0626,0.23953 0.0626,0.63149 0,0.87102 -0.0626,0.23953 -0.11381,0.0436 -0.11381,-0.43551 z m -66.66502,-2.61308 c -7.5e-4,-1.23187 0.0413,-1.7672 0.0935,-1.18961 0.0522,0.57759 0.0528,1.58549 10e-4,2.23978 -0.0514,0.65429 -0.0941,0.18171 -0.0949,-1.05017 z m -100.92503,1.69648 c 0.17965,-0.0719 0.3943,-0.063 0.47699,0.0196 0.0827,0.0827 -0.0643,0.14151 -0.32663,0.13071 -0.28992,-0.0119 -0.34888,-0.0709 -0.15036,-0.15036 z m 40.06715,0 c 0.17965,-0.0719 0.39429,-0.063 0.47699,0.0196 0.0827,0.0827 -0.0643,0.14151 -0.32663,0.13071 -0.28992,-0.0119 -0.34889,-0.0709 -0.15036,-0.15036 z m -38.57396,-0.24886 c 0.17965,-0.0719 0.39429,-0.0631 0.47699,0.0196 0.0827,0.0827 -0.0643,0.14151 -0.32664,0.1307 -0.28991,-0.0119 -0.34888,-0.0709 -0.15035,-0.15035 z m 37.08077,0 c 0.17965,-0.0719 0.3943,-0.0631 0.47699,0.0196 0.0827,0.0827 -0.0643,0.14151 -0.32663,0.1307 -0.28991,-0.0119 -0.34888,-0.0709 -0.15036,-0.15035 z m -35.58759,-0.24886 c 0.17965,-0.0719 0.3943,-0.0631 0.47699,0.0196 0.0827,0.0827 -0.0643,0.14152 -0.32663,0.13071 -0.28991,-0.012 -0.34888,-0.0709 -0.15036,-0.15035 z m 34.09441,0 c 0.17965,-0.0719 0.39429,-0.0631 0.47699,0.0196 0.0827,0.0827 -0.0643,0.14152 -0.32664,0.13071 -0.28991,-0.012 -0.34888,-0.0709 -0.15035,-0.15035 z m -32.35236,-0.24887 c 0.17965,-0.0719 0.3943,-0.063 0.47699,0.0196 0.0827,0.0827 -0.0643,0.14151 -0.32663,0.13071 -0.28991,-0.0119 -0.34888,-0.0709 -0.15036,-0.15036 z m 30.34589,0.005 c 0.17109,-0.069 0.45107,-0.069 0.62216,0 0.17109,0.069 0.0311,0.12552 -0.31108,0.12552 -0.34219,0 -0.48217,-0.0565 -0.31108,-0.12552 z m -28.37053,-0.24887 c 0.1711,-0.069 0.45107,-0.069 0.62216,0 0.1711,0.069 0.0311,0.12553 -0.31108,0.12553 -0.34218,0 -0.48217,-0.0565 -0.31108,-0.12553 z m 26.37962,0 c 0.17109,-0.069 0.45106,-0.069 0.62216,0 0.17109,0.069 0.0311,0.12553 -0.31108,0.12553 -0.34219,0 -0.48218,-0.0565 -0.31108,-0.12553 z m -24.01067,-0.2565 c 0.24214,-0.0631 0.5781,-0.059 0.74659,0.009 0.16849,0.0682 -0.0296,0.1198 -0.44025,0.11472 -0.41062,-0.005 -0.54848,-0.0608 -0.30634,-0.12394 z m 21.65119,0 c 0.24214,-0.0631 0.57811,-0.059 0.74659,0.009 0.16849,0.0682 -0.0296,0.1198 -0.44024,0.11472 -0.41063,-0.005 -0.54849,-0.0608 -0.30635,-0.12394 z m -18.54222,-0.25242 c 0.30956,-0.0595 0.75752,-0.0573 0.99546,0.005 0.23793,0.0623 -0.0154,0.11099 -0.56285,0.10823 -0.5475,-0.003 -0.74218,-0.0537 -0.43261,-0.11325 z m 15.18072,0 c 0.30956,-0.0595 0.75752,-0.0573 0.99546,0.005 0.23793,0.0623 -0.0154,0.11099 -0.56285,0.10823 -0.5475,-0.003 -0.74218,-0.0537 -0.43261,-0.11325 z m -9.08645,-0.25783 c 1.06079,-0.0466 2.79661,-0.0466 3.8574,0 1.06078,0.0466 0.19287,0.0848 -1.9287,0.0848 -2.12157,0 -2.98948,-0.0382 -1.9287,-0.0848 z m 149.31408,-2.80139 c 0,-0.47906 0.0512,-0.67504 0.11381,-0.43551 0.0626,0.23953 0.0626,0.6315 0,0.87103 -0.0626,0.23953 -0.11381,0.0436 -0.11381,-0.43552 z m -236.2488,-0.89549 c -0.57578,-0.74632 -1.00306,-1.39236 -0.94951,-1.43565 1.72504,-1.39452 10.19784,-7.1257 10.53441,-7.1257 0.14785,0 0.38625,0.19598 0.52977,0.43551 0.14352,0.23954 0.50925,0.84526 0.81272,1.34606 l 0.55178,0.91053 -2.48179,1.62609 c -1.36498,0.89435 -3.71225,2.52024 -5.21615,3.61309 l -2.73436,1.98701 z m 169.76395,-0.494 c 0.012,-0.28991 0.0709,-0.34888 0.15036,-0.15035 0.0719,0.17964 0.0631,0.39429 -0.0196,0.47699 -0.0827,0.0827 -0.14151,-0.0643 -0.13071,-0.32664 z m 66.19789,-0.74659 c 0.0119,-0.28991 0.0709,-0.34888 0.15036,-0.15036 0.0719,0.17965 0.0631,0.3943 -0.0197,0.47699 -0.0827,0.0827 -0.14153,-0.0643 -0.13073,-0.32663 z m -0.24887,-1.49319 c 0.012,-0.28991 0.0709,-0.34888 0.15037,-0.15035 0.0719,0.17965 0.0631,0.39429 -0.0197,0.47699 -0.0827,0.0827 -0.14153,-0.0643 -0.13073,-0.32664 z m -82.14484,-10.15267 c -1.98469,-0.98327 -4.5352,-2.20118 -5.6678,-2.70647 l -2.05926,-0.91871 0.40109,-0.93993 c 0.2206,-0.51696 0.50056,-1.1919 0.62214,-1.49987 0.12157,-0.30797 0.32346,-0.55995 0.44865,-0.55995 0.61122,0 11.08882,5.04126 11.34749,5.4598 0.15387,0.24897 -0.54073,1.7799 -1.15322,2.54172 -0.30022,0.37344 -0.66169,0.24712 -3.93909,-1.37659 z m -131.72179,-0.78213 c -0.3707,-0.75585 -0.674,-1.43554 -0.674,-1.51044 0,-0.40136 11.44681,-5.43067 11.72029,-5.14947 0.2305,0.23701 1.26781,2.84659 1.16756,2.93724 -0.0392,0.0355 -1.07407,0.47777 -2.29962,0.98289 -1.22556,0.50512 -3.73427,1.63742 -5.57492,2.51622 -1.84065,0.87881 -3.41833,1.59783 -3.50597,1.59783 -0.0876,0 -0.46264,-0.61842 -0.83334,-1.37427 z m 155.11503,-3.69698 c 0,-0.0517 0.19598,-0.24766 0.43551,-0.43551 0.39472,-0.30955 0.40352,-0.30075 0.094,0.094 -0.3251,0.41455 -0.52947,0.54638 -0.52947,0.34155 z m 50.62823,-1.46144 -0.73094,-0.80881 0.8088,0.73094 c 0.75394,0.68134 0.92322,0.88668 0.73094,0.88668 -0.0428,0 -0.40679,-0.36396 -0.8088,-0.80881 z m -48.38845,-1.05767 c 0.32147,-0.34219 0.64048,-0.62216 0.70892,-0.62216 0.0684,0 -0.13859,0.27997 -0.46006,0.62216 -0.32147,0.34219 -0.64048,0.62216 -0.70892,0.62216 -0.0684,0 0.13859,-0.27997 0.46006,-0.62216 z m 46.26991,-1.05767 -0.60332,-0.68438 0.68438,0.60332 c 0.37641,0.33183 0.68438,0.6398 0.68438,0.68438 0,0.19518 -0.20154,0.0363 -0.76544,-0.60332 z m -93.92742,-0.71362 c -1.095,-0.33922 -3.72674,-1.07097 -5.84831,-1.62612 -2.12157,-0.55516 -3.89801,-1.0477 -3.94766,-1.09454 -0.0787,-0.0743 0.33743,-2.19157 0.5937,-3.02096 0.0647,-0.20927 1.16975,-0.0131 3.77582,0.67033 3.98485,1.04496 8.49439,2.36163 8.66175,2.529 0.17591,0.1759 -0.75057,3.03019 -1.00513,3.09661 -0.13159,0.0343 -1.13517,-0.21511 -2.23017,-0.55432 z m -85.85594,-1.49312 c -0.46637,-1.60425 -0.3967,-1.96772 0.41284,-2.15359 0.31921,-0.0733 3.03473,-0.76457 6.03448,-1.53619 4.05615,-1.04335 5.50164,-1.32601 5.63958,-1.10281 0.10202,0.16506 0.26043,0.79986 0.35202,1.41065 0.0916,0.6108 0.21733,1.2429 0.27941,1.40468 0.0734,0.19114 -0.4783,0.40949 -1.57542,0.62357 -0.92857,0.18119 -3.69234,0.87442 -6.14172,1.54052 -2.44938,0.6661 -4.48523,1.2111 -4.52411,1.2111 -0.0389,0 -0.25357,-0.62907 -0.47708,-1.39793 z m 59.10303,-3.9809 c -1.57406,-0.19374 -4.08672,-0.43462 -5.58368,-0.5353 l -2.72174,-0.18305 0.0666,-1.61699 c 0.0366,-0.88935 0.11425,-1.66469 0.17254,-1.72297 0.24588,-0.24589 12.02002,0.89962 12.53815,1.21984 0.20655,0.12766 0.23152,0.60288 0.0866,1.64749 -0.19532,1.40775 -0.23437,1.46963 -0.95008,1.50565 -0.41052,0.0207 -2.03427,-0.12094 -3.60834,-0.31467 z m -33.96036,-1.46098 c -0.0978,-0.9134 -0.14,-1.69734 -0.0937,-1.7421 0.13171,-0.12742 8.56845,-0.8524 10.78528,-0.9268 l 1.99092,-0.0668 0.073,1.65292 0.073,1.65292 -2.43725,0.16045 c -3.19087,0.21007 -7.89425,0.61482 -9.18729,0.79062 l -1.02616,0.13952 z m 138.43669,-0.54726 c 0.17966,-0.0719 0.3943,-0.063 0.477,0.0197 0.0827,0.0827 -0.0643,0.14151 -0.32663,0.13071 -0.28993,-0.0119 -0.34889,-0.0709 -0.15037,-0.15036 z M 665.667,177.25612 c 0.17965,-0.0719 0.3943,-0.0631 0.47699,0.0196 0.0827,0.0827 -0.0643,0.14152 -0.32663,0.13071 -0.28993,-0.0119 -0.34888,-0.0709 -0.15036,-0.15035 z m 9.95457,0 c 0.17965,-0.0719 0.3943,-0.0631 0.477,0.0196 0.0827,0.0827 -0.0643,0.14152 -0.32664,0.13071 -0.28993,-0.0119 -0.34888,-0.0709 -0.15036,-0.15035 z m -7.85005,-0.25133 c 0.24214,-0.0631 0.57811,-0.0589 0.74659,0.009 0.16851,0.0682 -0.0296,0.1198 -0.44024,0.11473 -0.41063,-0.005 -0.54847,-0.0608 -0.30635,-0.12395 z m 5.47028,9.2e-4 c 0.23953,-0.0626 0.6315,-0.0626 0.87103,0 0.23953,0.0626 0.0435,0.11381 -0.43551,0.11381 -0.47907,0 -0.67505,-0.0512 -0.43552,-0.11381 z"
           id="path3614" />
        <path
           style="fill:#00007f;stroke-width:0.248864"
           d="m 553.22701,438.57111 c -16.2568,-0.56103 -31.74968,-4.36622 -45.99117,-11.29589 -12.24292,-5.95719 -21.69087,-12.66968 -31.15812,-22.13693 -18.39484,-18.39484 -29.66879,-41.70055 -32.74568,-67.69245 -0.53777,-4.54277 -0.74805,-16.80936 -0.36979,-21.57081 1.438,-18.10081 6.82491,-34.92714 16.09588,-50.27645 15.66753,-25.93968 41.01292,-44.60964 70.36557,-51.83279 9.84169,-2.42186 15.82386,-3.10278 27.28741,-3.10599 9.46658,-0.003 12.06413,0.19645 19.78471,1.51656 27.0136,4.61894 52.18236,19.59099 69.45933,41.31903 14.27887,17.95753 22.67341,39.32673 24.50482,62.37964 0.3842,4.83632 0.17157,17.06126 -0.37521,21.57081 -2.51878,20.77347 -10.00429,39.4769 -22.33447,55.80538 -6.34818,8.4067 -14.31932,16.34531 -22.72594,22.63321 -15.1844,11.35749 -33.01804,18.79467 -51.51632,21.48397 -6.17409,0.89761 -14.61589,1.39822 -20.28102,1.20271 z m 4.93274,-55.31947 c 3.86046,-1.11038 6.82393,-3.11268 9.87468,-6.67194 l 1.74205,-2.03241 0.0689,3.59819 0.0689,3.5982 h 3.85074 3.85075 v -27.00177 -27.00177 h -4.23069 -4.2307 l -0.004,15.4918 c -0.005,19.22761 -0.15179,20.87262 -2.24633,25.23363 -1.59257,3.31586 -4.63351,6.16138 -7.65743,7.16532 -6.285,2.08663 -13.00344,-0.27612 -15.0272,-5.28479 l -0.57332,-1.41893 -0.0678,-20.59352 -0.0678,-20.59351 h -4.34955 -4.34956 v 21.84776 c 0,18.74244 0.0538,22.0586 0.37868,23.33103 1.45665,5.70561 5.75125,9.40416 12.43783,10.71159 2.56557,0.50165 8.17205,0.29996 10.53219,-0.37888 z m 55.16798,0.005 c 3.49172,-0.91286 8.57333,-3.75298 11.21074,-6.26571 0.929,-0.88508 1.10804,-0.9003 1.10804,-0.0942 0,0.96193 0.8982,3.30339 1.64056,4.27667 0.9313,1.22101 2.56347,2.18554 4.33423,2.56132 1.72891,0.3669 5.37464,0.20791 7.33945,-0.32006 l 1.24432,-0.33437 0.0694,-3.27776 0.0694,-3.27776 -1.1032,0.15121 c -1.70551,0.23376 -3.49358,-0.30003 -4.37756,-1.30682 -0.41143,-0.46859 -0.8056,-1.10191 -0.87594,-1.40736 -0.0703,-0.30547 -0.15595,-8.5626 -0.19024,-18.34919 l -0.0624,-17.79379 -0.58035,-1.60812 c -1.85554,-5.14163 -5.62039,-7.98184 -12.60946,-9.5126 -1.00402,-0.2199 -3.32752,-0.32116 -7.09263,-0.3091 -5.24069,0.0168 -5.75889,0.0603 -8.08809,0.6796 -3.90354,1.03787 -6.84157,2.61142 -9.10729,4.8777 -2.71455,2.71521 -3.89253,5.53551 -4.29785,10.28986 l -0.122,1.43097 h 4.42775 4.42775 l 0.14873,-1.08508 c 0.7531,-5.49443 4.9617,-8.35504 12.31041,-8.36744 6.26897,-0.0106 10.57876,2.02889 11.60744,5.49283 0.44935,1.51314 0.52611,5.55658 0.12565,6.61878 -0.41826,1.10938 -1.71567,2.27827 -3.10627,2.79856 -1.59177,0.59556 -2.80254,0.81331 -9.81941,1.766 -7.09086,0.96274 -9.88801,1.53235 -12.29262,2.50325 -2.6901,1.08617 -3.93671,1.82768 -5.55153,3.30217 -2.79561,2.55265 -4.26897,5.9143 -4.48793,10.23974 -0.44436,8.77811 4.46768,15.04124 13.07602,16.67267 2.70046,0.51178 7.99132,0.33651 10.62481,-0.35197 z m -8.31091,-7.36694 c -3.99521,-1.11956 -5.99293,-3.40722 -6.40974,-7.33997 -0.17753,-1.67507 0.41272,-4.19662 1.29534,-5.53369 1.18819,-1.79997 3.94374,-3.32068 7.76992,-4.28799 0.85892,-0.21714 3.80741,-0.72764 6.55222,-1.13443 5.65423,-0.83798 8.06434,-1.34184 9.63129,-2.01351 0.59693,-0.25587 1.14079,-0.46523 1.20857,-0.46523 0.0678,0 0.0865,2.71573 0.0416,6.03496 l -0.0817,6.03495 -0.7376,1.33166 c -1.53439,2.77017 -5.64418,5.84405 -9.44513,7.06438 -2.07779,0.6671 -7.89395,0.84994 -9.8248,0.30887 z m -79.22122,1.43631 0.0681,-4.29291 h -18.54626 -18.54626 v -33.22875 -33.22876 l -4.79064,0.0676 -4.79064,0.0676 -0.0639,37.20521 c -0.0352,20.46287 -0.0105,37.34577 0.0549,37.51758 0.0944,0.24812 4.89302,0.2993 23.33275,0.24886 l 23.21391,-0.0635 z m 84.17246,-67.16651 c 6.37626,-1.08711 12.80024,-4.44332 17.51211,-9.1492 5.8423,-5.83487 9.08878,-12.72114 9.8491,-20.89146 1.59739,-17.16525 -10.60857,-32.97874 -27.68004,-35.86106 -3.15773,-0.53314 -8.16432,-0.53169 -11.30782,0.003 -13.83075,2.35376 -24.9276,13.42017 -27.2919,27.21706 -0.51101,2.98197 -0.52325,8.44944 -0.0255,11.3713 1.96281,11.521 10.04254,21.39774 20.91661,25.56864 5.87917,2.25504 11.71083,2.81838 18.0274,1.74144 z m 55.49673,-66.902 c -13.60681,-2.2975 -24.27715,-12.48396 -27.24914,-26.01343 -0.64762,-2.94814 -0.7772,-9.11554 -0.25696,-12.22929 1.18347,-7.08335 4.24694,-13.03349 9.33901,-18.13909 6.55649,-6.5739 14.37311,-9.80924 23.64211,-9.78559 5.75125,0.0147 10.60662,1.18903 15.41933,3.72945 8.91867,4.70778 15.06383,12.93766 17.22118,23.06339 0.76021,3.56806 0.75702,9.4268 -0.007,13.04599 -1.41894,6.72079 -4.35574,12.12448 -9.23323,16.98905 -5.02818,5.01486 -11.09153,8.16793 -17.90681,9.31193 -2.79305,0.46884 -8.27349,0.48263 -10.96839,0.0276 z"
           id="path3612" />
      </g>
    </g>
  </g>
</svg>
