<?xml version="1.0" encoding="UTF-8" standalone="no"?>
<!-- Created with Inkscape (http://www.inkscape.org/) -->

<svg
   width="122.20206mm"
   height="130.22041mm"
   viewBox="0 0 122.20207 130.22042"
   version="1.1"
   id="svg5"
   inkscape:version="1.1 (c68e22c387, 2021-05-23)"
   sodipodi:docname="minefriff_white.svg"
   xmlns:inkscape="http://www.inkscape.org/namespaces/inkscape"
   xmlns:sodipodi="http://sodipodi.sourceforge.net/DTD/sodipodi-0.dtd"
   xmlns="http://www.w3.org/2000/svg"
   xmlns:svg="http://www.w3.org/2000/svg">
  <sodipodi:namedview
     id="namedview7"
     pagecolor="#ffffff"
     bordercolor="#666666"
     borderopacity="1.0"
     inkscape:pageshadow="2"
     inkscape:pageopacity="0.0"
     inkscape:pagecheckerboard="0"
     inkscape:document-units="mm"
     showgrid="false"
     fit-margin-top="0"
     fit-margin-left="0"
     fit-margin-right="0"
     fit-margin-bottom="0"
     inkscape:zoom="0.94867184"
     inkscape:cx="27.93379"
     inkscape:cy="279.86495"
     inkscape:window-width="1920"
     inkscape:window-height="1017"
     inkscape:window-x="1912"
     inkscape:window-y="-8"
     inkscape:window-maximized="1"
     inkscape:current-layer="layer1" />
  <defs
     id="defs2" />
  <g
     inkscape:label="Calque 1"
     inkscape:groupmode="layer"
     id="layer1"
     transform="translate(-86.909784,-100.91557)">
    <path
       style="fill:#ffffff;stroke-width:0.23738"
       d="m 153.25202,189.67147 c -0.0704,-25.70843 -0.0265,-36.61998 0.14871,-37.04055 0.20426,-0.49017 3.36113,-2.08599 17.75197,-8.97373 9.62694,-4.60765 17.64901,-8.37754 17.8268,-8.37754 0.26838,0 0.32327,1.01573 0.32327,5.98249 0,3.45117 0.0893,5.98249 0.21097,5.98249 0.11603,0 1.8359,-0.77145 3.82195,-1.71435 1.98603,-0.9429 3.70839,-1.65065 3.82746,-1.57278 0.26242,0.17161 0.28904,11.09044 0.0281,11.52517 -0.0997,0.16615 -1.78106,1.07801 -3.73629,2.02637 -1.95523,0.94835 -3.68286,1.83658 -3.83917,1.97385 -0.2096,0.18406 -0.28962,1.79241 -0.30484,6.12671 -0.0113,3.23241 -0.0805,5.97969 -0.15376,6.10506 -0.0733,0.12535 -0.90119,0.59829 -1.83992,1.05095 l -1.70678,0.82303 v 5.87428 c 0,3.23086 0.0495,5.8743 0.10987,5.8743 0.0604,0 1.61668,-0.71424 3.45835,-1.5872 1.84167,-0.87295 3.49457,-1.58719 3.67311,-1.58719 0.17854,0 0.38766,0.17381 0.4647,0.38625 0.077,0.21244 0.14007,2.84961 0.14007,5.8604 0,3.91318 0.0745,5.47415 0.26131,5.47415 0.14371,0 1.76545,-0.72107 3.60384,-1.60237 1.8384,-0.88131 3.48619,-1.54406 3.66174,-1.47276 0.25971,0.10545 0.31921,1.24117 0.31921,6.09271 0,5.3294 -0.0429,6.01525 -0.40385,6.45385 -0.46438,0.56435 -6.96765,3.71446 -7.6683,3.71446 -0.45514,0 -0.46625,-0.14259 -0.46625,-5.98249 0,-3.29036 -0.0273,-5.98248 -0.0606,-5.98248 -0.0333,0 -1.6689,0.76785 -3.63458,1.70633 -1.9657,0.9385 -3.7038,1.70768 -3.86245,1.70929 -0.22283,0.002 -0.28846,-1.33036 -0.28846,-5.85745 0,-4.81953 -0.0565,-5.8604 -0.3184,-5.8604 -0.17513,0 -1.80905,0.71611 -3.63095,1.59137 -1.82189,0.87525 -3.44397,1.538 -3.60464,1.47276 -0.22441,-0.0911 -0.2921,-1.47837 -0.2921,-5.98667 0,-5.429 -0.0302,-5.86744 -0.40385,-5.85978 -0.22211,0.005 -3.67497,1.58094 -7.67302,3.50309 l -7.26918,3.49482 -0.0591,18.55901 c -0.0551,17.30464 -0.0864,18.58334 -0.46154,18.91876 -0.4974,0.44467 -7.11326,3.62013 -7.54228,3.62013 -0.25945,0 -0.32797,-6.07472 -0.41108,-36.44434 z m 22.2304,-24.25501 c 7.15697,-3.4293 13.09262,-6.31883 13.19035,-6.42119 0.0977,-0.10237 0.14966,-2.54724 0.11539,-5.43306 l -0.0623,-5.24694 -13.26914,6.36286 c -7.29803,3.49957 -13.39895,6.45175 -13.5576,6.56041 -0.21604,0.14795 -0.28846,1.51609 -0.28846,5.44952 0,5.01052 0.0197,5.24535 0.42955,5.10773 0.23626,-0.0794 6.28525,-2.95004 13.44221,-6.37933 z m -74.9098,41.14892 c -2.665369,-1.21174 -4.963304,-2.36593 -5.106526,-2.56486 -0.186892,-0.25959 -0.300462,-7.02918 -0.402309,-23.98036 -0.07805,-12.99026 -0.204146,-29.57932 -0.280216,-36.86458 -0.115938,-11.10329 -0.08706,-13.26673 0.178538,-13.37457 0.396069,-0.16082 46.811283,23.42044 47.206373,23.98321 0.35857,0.51074 0.41864,11.92439 0.064,12.15632 -0.12347,0.0808 -8.19745,-3.82726 -17.94218,-8.68444 -9.74474,-4.85719 -17.84751,-8.88429 -18.00616,-8.94912 -0.22527,-0.092 -0.28846,1.0313 -0.28846,5.1283 0,3.90814 0.0736,5.30642 0.28846,5.48242 0.15865,0.12993 4.64997,2.36683 9.9807,4.97089 5.33073,2.60406 9.92589,4.97856 10.21146,5.27667 0.50987,0.53225 0.51923,0.64795 0.51923,6.41353 0,5.61975 -0.0189,5.87149 -0.44147,5.87149 -0.24281,0 -4.9143,-2.14271 -10.3811,-4.76157 -5.46679,-2.61886 -9.98292,-4.76157 -10.03584,-4.76157 -0.0529,0 -0.0804,8.26683 -0.0611,18.37073 0.0309,16.15935 -0.007,18.37796 -0.31107,18.43071 -0.19039,0.0329 -2.52691,-0.93145 -5.19228,-2.1432 z m 19.38448,-75.67039 c -5.96534,-2.80772 -11.04006,-5.2314 -11.27713,-5.38595 -0.23708,-0.15455 -0.34093,-0.36652 -0.23077,-0.47104 0.40738,-0.38655 6.9385,-2.94424 7.5182,-2.94424 0.33033,0 1.71598,0.49447 3.07924,1.09883 1.36324,0.60435 2.61373,1.09882 2.77886,1.09882 0.26573,0 29.62944,-12.6257 29.82456,-12.82386 0.0428,-0.0435 -1.14453,-0.49981 -2.6385,-1.01412 -1.49397,-0.51431 -2.75164,-1.05288 -2.79484,-1.19682 -0.0432,-0.14394 1.56374,-0.95002 3.57096,-1.79129 l 3.6495,-1.52957 1.28102,0.35396 c 4.30479,1.18949 24.19829,7.6294 24.13996,7.81457 -0.10724,0.34046 -7.31636,3.59418 -7.96344,3.59418 -0.31117,0 -1.75244,-0.39198 -3.20281,-0.87107 l -2.63703,-0.87107 -15.33202,6.9081 c -8.4326,3.79946 -15.25655,6.98262 -15.16432,7.07369 0.0922,0.0911 1.10229,0.56986 2.2446,1.06398 2.3421,1.01312 2.56539,1.17063 2.14438,1.5127 -0.44866,0.36453 -7.48333,3.49834 -7.83712,3.49129 -0.16897,-0.004 -5.18796,-2.30335 -11.1533,-5.11109 z"
       id="path6131" />
  </g>
</svg>
