<?xml version="1.0" encoding="UTF-8" standalone="no"?>
<!-- Created with Inkscape (http://www.inkscape.org/) -->

<svg
   width="300mm"
   height="300mm"
   viewBox="0 0 300 300"
   version="1.1"
   id="svg5"
   inkscape:version="1.1 (c68e22c387, 2021-05-23)"
   sodipodi:docname="mirror.svg"
   xmlns:inkscape="http://www.inkscape.org/namespaces/inkscape"
   xmlns:sodipodi="http://sodipodi.sourceforge.net/DTD/sodipodi-0.dtd"
   xmlns="http://www.w3.org/2000/svg"
   xmlns:svg="http://www.w3.org/2000/svg">
  <sodipodi:namedview
     id="namedview7"
     pagecolor="#ffffff"
     bordercolor="#666666"
     borderopacity="1.0"
     inkscape:pageshadow="2"
     inkscape:pageopacity="0.0"
     inkscape:pagecheckerboard="0"
     inkscape:document-units="mm"
     showgrid="false"
     inkscape:zoom="0.34698723"
     inkscape:cx="47.552182"
     inkscape:cy="796.8593"
     inkscape:window-width="1920"
     inkscape:window-height="1017"
     inkscape:window-x="1912"
     inkscape:window-y="-8"
     inkscape:window-maximized="1"
     inkscape:current-layer="layer1" />
  <defs
     id="defs2" />
  <g
     inkscape:label="Calque 1"
     inkscape:groupmode="layer"
     id="layer1">
    <path
       style="fill:#ffffff;stroke-width:1.41811"
       d="m 144.24061,298.71904 c -7.46395,-1.91018 -14.82039,-7.34218 -19.11547,-14.11483 -3.80391,-5.99816 -4.08133,-7.40961 -4.06735,-20.69523 0.0107,-11.9357 3.33161,-40.19339 6.45096,-54.92294 0.72202,-3.40932 0.15222,-4.08192 -5.62019,-6.63539 C 101.47258,193.3197 83.43271,173.18806 74.049674,148.9648 61.249656,115.9202 63.28338,78.941782 79.665142,46.860507 86.867166,32.756447 106.81899,12.856777 120.33374,6.2981978 l 9.92679,-4.8173929 h 22.04922 22.04916 l 11.27655,5.5574748 c 16.3421,8.0539653 31.97386,24.2306073 40.81283,42.2354253 8.86967,18.067475 10.98422,26.872349 11.88183,49.475076 0.88453,22.274709 -1.33309,36.523049 -8.24269,52.959059 -8.98083,21.36289 -26.22193,40.5809 -44.38524,49.47464 -4.36417,2.1369 -7.92779,4.6633 -7.91917,5.61418 0.0107,0.95094 1.60157,12.57754 3.54,25.83689 5.38038,36.80407 4.75307,45.07168 -4.22814,55.72322 -7.34647,8.71274 -21.65988,13.22719 -32.85427,10.36227 z m 26.1745,-122.39019 c 11.10772,-4.15594 23.87188,-17.16097 30.5949,-31.1723 19.86826,-41.40734 6.65923,-94.144177 -28.10275,-112.199753 -7.53963,-3.916142 -10.02455,-4.476617 -19.95686,-4.501325 -9.43454,-0.02144 -12.73961,0.624953 -19.62739,3.850752 -16.01086,7.498474 -30.16943,26.246644 -35.617514,47.163284 -3.344893,12.841718 -2.949822,39.045162 0.772884,51.264932 6.09464,20.00579 17.58558,35.51283 32.21131,43.4692 13.17097,7.16493 24.61871,7.77734 39.72542,2.12521 z m -55.51745,-65.88953 c -2.90222,-2.90217 0.79004,-8.06474 19.26271,-26.93345 24.32446,-24.845913 29.75148,-29.383631 33.65894,-28.143426 6.12218,1.94309 2.89188,6.540195 -21.99294,31.298315 -22.60664,22.491561 -28.03913,26.668141 -30.92871,23.778561 z m -0.66183,-26.282394 c -0.93593,-0.935983 -1.70173,-2.280276 -1.70173,-2.987395 0,-2.325298 20.27978,-22.255037 22.64587,-22.255037 2.78147,0 5.71645,2.698716 5.71645,5.256308 0,2.953574 -19.19518,21.687862 -22.22149,21.687862 -1.50551,0 -3.50311,-0.765809 -4.4391,-1.701738 z"
       id="path2260" />
  </g>
</svg>
