<?xml version="1.0" encoding="UTF-8" standalone="no"?>
<!-- Created with Inkscape (http://www.inkscape.org/) -->

<svg
   width="47.488583mm"
   height="47.547142mm"
   viewBox="0 0 47.488583 47.547142"
   version="1.1"
   id="svg5"
   inkscape:version="1.1 (c68e22c387, 2021-05-23)"
   sodipodi:docname="more.svg"
   xmlns:inkscape="http://www.inkscape.org/namespaces/inkscape"
   xmlns:sodipodi="http://sodipodi.sourceforge.net/DTD/sodipodi-0.dtd"
   xmlns="http://www.w3.org/2000/svg"
   xmlns:svg="http://www.w3.org/2000/svg">
  <sodipodi:namedview
     id="namedview7"
     pagecolor="#ffffff"
     bordercolor="#666666"
     borderopacity="1.0"
     inkscape:pageshadow="2"
     inkscape:pageopacity="0.0"
     inkscape:pagecheckerboard="0"
     inkscape:document-units="mm"
     showgrid="false"
     fit-margin-top="0"
     fit-margin-left="0"
     fit-margin-right="0"
     fit-margin-bottom="0"
     inkscape:zoom="1.8973437"
     inkscape:cx="48.225317"
     inkscape:cy="46.117106"
     inkscape:window-width="1920"
     inkscape:window-height="1017"
     inkscape:window-x="1912"
     inkscape:window-y="-8"
     inkscape:window-maximized="1"
     inkscape:current-layer="layer1" />
  <defs
     id="defs2" />
  <g
     inkscape:label="Calque 1"
     inkscape:groupmode="layer"
     id="layer1"
     transform="translate(-119.81658,-190.75463)">
    <path
       style="fill:#ffffff;stroke-width:0.264583"
       d="m 140.50281,238.06791 c -10.14487,-1.32072 -18.48217,-9.14894 -20.37096,-19.12712 -0.56066,-2.96185 -0.34857,-8.28943 0.43827,-11.00921 2.27176,-7.85253 8.57088,-14.15166 16.42341,-16.42342 2.71978,-0.78683 8.04736,-0.99892 11.00921,-0.43826 12.09146,2.28881 20.59308,13.83588 19.14099,25.99767 -1.01004,8.45947 -6.12833,15.49669 -13.83757,19.02552 -2.44494,1.11914 -4.26802,1.62989 -7.05543,1.97657 -2.49341,0.31012 -3.35439,0.30985 -5.74792,-0.003 z m 9.04827,-5.11317 c 5.94019,-2.02679 10.44872,-6.53656 12.4622,-12.46561 0.56745,-1.6709 0.74451,-2.76646 0.84082,-5.20208 0.1533,-3.87703 -0.33375,-6.25011 -1.93593,-9.43263 -2.58281,-5.13037 -6.45176,-8.39101 -12.03786,-10.1451 -1.68119,-0.52791 -2.50655,-0.61758 -5.54693,-0.60266 -3.14166,0.0154 -3.82683,0.10286 -5.68854,0.72597 -6.13771,2.05429 -10.69597,6.61254 -12.75025,12.75025 -0.62312,1.86172 -0.71056,2.54689 -0.72598,5.68854 -0.0149,3.03652 0.0754,3.8693 0.60209,5.55625 2.10847,6.75251 7.2037,11.7062 13.90087,13.51471 2.87772,0.77708 8.00085,0.59454 10.87951,-0.38764 z m -19.04999,-15.23156 c -1.49918,-0.62011 -2.42236,-2.61895 -1.9757,-4.27775 0.71733,-2.66395 4.06437,-3.43459 6.00059,-1.38161 0.75777,0.80348 0.8699,1.1029 0.8699,2.32305 0,1.56357 -0.55894,2.52314 -1.86231,3.19714 -0.82138,0.42473 -2.19018,0.48757 -3.03248,0.13917 z m 11.26111,-0.23106 c -1.03836,-0.55687 -1.86885,-1.92855 -1.86742,-3.08428 0.002,-1.66371 1.88766,-3.57285 3.53091,-3.57501 1.92865,-0.003 3.61273,1.67746 3.61087,3.60211 -0.003,2.73253 -2.82709,4.36967 -5.27436,3.05718 z m 11.43974,-0.035 c -2.33135,-1.42153 -2.17953,-5.02558 0.26051,-6.18346 0.5121,-0.24301 1.27031,-0.4414 1.68486,-0.44085 1.01317,0.001 2.36146,0.86072 3.00416,1.91482 1.84862,3.03198 -1.88082,6.58057 -4.94953,4.70949 z"
       id="path1145" />
  </g>
</svg>
