<?xml version="1.0" encoding="UTF-8" standalone="no"?>
<!-- Created with Inkscape (http://www.inkscape.org/) -->

<svg
   width="116.8903mm"
   height="115.26003mm"
   viewBox="0 0 116.8903 115.26003"
   version="1.1"
   id="svg5"
   inkscape:version="1.1 (c68e22c387, 2021-05-23)"
   sodipodi:docname="mysql_white.svg"
   xmlns:inkscape="http://www.inkscape.org/namespaces/inkscape"
   xmlns:sodipodi="http://sodipodi.sourceforge.net/DTD/sodipodi-0.dtd"
   xmlns="http://www.w3.org/2000/svg"
   xmlns:svg="http://www.w3.org/2000/svg">
  <sodipodi:namedview
     id="namedview7"
     pagecolor="#ffffff"
     bordercolor="#666666"
     borderopacity="1.0"
     inkscape:pageshadow="2"
     inkscape:pageopacity="0.0"
     inkscape:pagecheckerboard="0"
     inkscape:document-units="mm"
     showgrid="false"
     fit-margin-top="0"
     fit-margin-left="0"
     fit-margin-right="0"
     fit-margin-bottom="0"
     inkscape:zoom="3.7946873"
     inkscape:cx="146.12535"
     inkscape:cy="171.95093"
     inkscape:window-width="1920"
     inkscape:window-height="1017"
     inkscape:window-x="1912"
     inkscape:window-y="-8"
     inkscape:window-maximized="1"
     inkscape:current-layer="layer1" />
  <defs
     id="defs2" />
  <g
     inkscape:label="Calque 1"
     inkscape:groupmode="layer"
     id="layer1"
     transform="translate(-117.72663,50.465328)">
    <path
       style="fill:#ffffff;stroke-width:0.264583"
       d="m 232.82064,63.41857 c -3.2775,-2.774477 -6.23838,-4.666422 -10.70907,-6.842898 -4.38438,-2.13446 -7.8944,-4.379873 -10.48784,-6.709249 -2.32183,-2.085412 -5.00081,-6.757697 -4.28509,-7.47341 5.32503,-4.048323 13.04587,-3.844547 18.34481,-3.692404 -2.74429,-3.367516 -6.4507,-5.129999 -10.29372,-7.777747 -5.22118,-4.580275 -12.44742,-3.797724 -16.43507,-7.551637 -1.30112,-1.256295 -2.80879,-3.919329 -5.14147,-9.081514 -5.1007,-10.7075152 -10.01788,-23.0158525 -16.65294,-31.509153 -5.71071,-7.101482 -13.83624,-13.78927 -21.50798,-17.70232 -4.37681,-2.232439 -7.0403,-3.076349 -10.65098,-3.374697 -6.55601,-0.541717 -6.07368,-0.415657 -8.24472,-2.154822 -2.20221,-1.764135 -8.39665,-4.957475 -10.98956,-5.665305 -2.77051,-0.75631 -4.59398,0.0933 -4.59398,2.14054 0,1.24563 1.57624,4.159688 3.69181,6.825203 4.29297,5.408933 5.61806,7.932356 7.81802,14.888176 2.2386,7.078012 3.81257,10.353458 6.22146,12.9469073 2.65003,2.853068 2.70378,3.485356 0.78051,9.180449 -2.5878,8.2250348 -2.79227,16.2861067 0.0395,23.6680187 1.13455,2.908636 2.61393,4.92869 3.83371,5.234837 0.38292,0.09611 0.7483,0.122663 0.81195,0.05901 0.0636,-0.06365 0.34923,-1.935109 0.63462,-4.158803 0.41413,-2.437642 1.77285,-12.998961 5.62892,-13.13906 0.1566,0.0522 0.4809,0.741368 0.72065,1.531477 1.01594,3.348077 4.78628,10.946792 8.21127,16.548939 2.99154,4.893149 5.45512,8.213132 7.98049,10.754709 2.63866,2.655589 2.07755,2.608784 -0.73224,-0.06108 -1.01865,-0.967914 -2.80459,-2.544349 -3.96875,-3.503186 -2.64961,-2.182281 -5.74864,-5.374712 -7.39556,-7.618442 -0.69428,-0.945885 -2.03018,-3.250491 -2.96864,-5.121344 -0.93847,-1.870855 -1.75708,-3.350781 -1.81914,-3.288726 -0.14839,0.148397 -0.83146,3.915201 -1.04527,5.764237 -0.2137,1.848069 -0.84597,4.128894 -1.36354,4.918808 -0.54351,0.829487 -2.41531,1.695775 -3.6641,1.695775 -2.535,0 -5.15917,-2.425306 -7.30009,-6.746875 -2.40997,-4.864637 -3.53927,-11.640159 -2.93286,-17.5963337 0.31048,-3.04949 2.17228,-11.426127 2.84612,-12.805254 0.5438,-1.112976 0.49398,-1.28964 -0.76385,-2.70886 -1.59316,-1.797569 -2.0533,-2.505766 -3.58569,-5.5187193 -1.44902,-2.849041 -3.5844,-8.478541 -4.79108,-12.630689 -0.92337,-3.177329 -1.37129,-3.947539 -5.44092,-9.355962 -2.84292,-4.135028 -6.23751,-8.043554 -4.3468,-12.508132 1.78912,-4.15891 6.47062,-4.87858 13.22126,-2.03245 2.92485,1.23313 6.12566,3.09949 7.88234,4.5961 1.54537,1.31657 2.51568,1.59279 5.69278,1.62056 1.84912,0.0162 5.61057,0.84264 9.22257,2.026404 2.18906,0.717419 7.36834,3.765565 11.91982,7.015137 8.01628,5.723289 14.21051,12.177025 19.90593,20.739865 2.85802,4.2969393 3.35473,5.2389063 5.18342,9.8304143 1.78274,4.47606 4.97904,11.420282 8.23807,17.8978107 2.52444,5.017498 2.68234,5.259975 3.74025,5.743922 3.6142,1.769411 7.03974,2.867907 10.62019,5.019003 3.17331,1.942267 8.52371,5.933385 12.00764,8.957035 1.88622,1.637001 5.13723,5.523413 4.98996,5.965198 -0.15176,0.455329 -3.99004,1.447686 -7.32517,1.893869 -3.16627,0.423587 -9.79535,1.946886 -9.79535,2.250871 0,0.718492 1.92561,2.561432 4.28265,4.098764 6.26544,4.08653 7.14603,4.738135 9.3825,6.942707 3.51898,3.468785 6.34891,6.730336 6.82191,7.862337 0.23209,0.555469 0.38769,1.044221 0.34581,1.086112 -0.0419,0.04189 -0.84715,-0.576466 -1.78943,-1.374129 z m -91.25768,-93.78482 c 3.01863,-1.090231 5.91997,2.075365 5.64617,4.19389 -0.20936,1.156784 -0.70829,2.21234 -1.2635,2.673126 -1.39189,-1.317733 -4.70969,-6.653905 -4.38267,-6.867016 z"
       id="path964"
       sodipodi:nodetypes="sssccccccssssssssccscccsssssssssssssssssccsscsssssccsssssssssscccc" />
  </g>
</svg>
