<?xml version="1.0" encoding="UTF-8" standalone="no"?>
<!-- Created with Inkscape (http://www.inkscape.org/) -->

<svg
   width="300mm"
   height="300mm"
   viewBox="0 0 300 300"
   version="1.1"
   id="svg5"
   inkscape:version="1.1 (c68e22c387, 2021-05-23)"
   sodipodi:docname="MySQL.svg"
   xmlns:inkscape="http://www.inkscape.org/namespaces/inkscape"
   xmlns:sodipodi="http://sodipodi.sourceforge.net/DTD/sodipodi-0.dtd"
   xmlns="http://www.w3.org/2000/svg"
   xmlns:svg="http://www.w3.org/2000/svg">
  <sodipodi:namedview
     id="namedview7"
     pagecolor="#ffffff"
     bordercolor="#666666"
     borderopacity="1.0"
     inkscape:pageshadow="2"
     inkscape:pageopacity="0.0"
     inkscape:pagecheckerboard="0"
     inkscape:document-units="mm"
     showgrid="false"
     inkscape:zoom="0.35355339"
     inkscape:cx="36.769552"
     inkscape:cy="8.4852813"
     inkscape:window-width="1920"
     inkscape:window-height="1106"
     inkscape:window-x="-11"
     inkscape:window-y="-11"
     inkscape:window-maximized="1"
     inkscape:current-layer="layer1" />
  <defs
     id="defs2" />
  <g
     inkscape:label="Calque 1"
     inkscape:groupmode="layer"
     id="layer1">
    <path
       style="fill:#00748e;stroke-width:0.583704"
       d="m 295.9943,296.10567 c -6.74598,-6.16545 -16.287,-12.38198 -27.00777,-17.59714 -15.44662,-7.51407 -26.32484,-14.96827 -32.15016,-22.03059 -3.07786,-3.7314 -7.83359,-12.14145 -7.83359,-13.85289 0,-1.29339 2.10694,-2.34386 9.75018,-4.86121 10.04956,-3.30987 14.16432,-4.0626 26.4395,-4.83656 5.9392,-0.37446 10.89979,-0.76051 11.02353,-0.85789 0.77272,-0.60803 -2.48191,-3.59833 -7.65343,-7.03184 -3.29717,-2.18909 -9.67263,-6.5642 -14.16769,-9.72247 -4.49505,-3.15825 -9.74881,-6.61682 -11.67504,-7.68571 -3.86313,-2.14369 -14.61812,-6.26915 -22.76446,-8.73214 -8.64283,-2.61307 -11.23128,-4.28646 -14.72641,-9.52032 -3.38634,-5.07096 -6.40849,-10.98451 -12.67418,-24.79997 -2.36424,-5.21299 -6.3842,-13.94352 -8.93327,-19.40115 -2.54907,-5.45765 -5.48744,-12.1429 -6.52972,-14.85615 C 168.6642,108.38109 148.51144,81.910819 127.14307,64.712883 113.18106,53.475817 96.029429,43.491478 83.617886,39.37588 78.747572,37.760928 76.720846,37.446974 67.287775,36.846246 55.604673,36.102229 54.707904,35.854326 50.760193,32.277598 46.952394,28.827633 43.224325,26.514111 35.593285,22.865528 23.302969,16.989242 17.268767,15.455454 13.700443,17.300703 8.4409243,20.020506 10.29577,27.475806 18.939379,38.35784 c 6.697011,8.431335 12.162362,16.562571 14.64794,21.792925 1.271722,2.676033 4.381017,11.166625 6.909548,18.867975 6.053152,18.436433 10.029807,26.34701 16.508234,32.83885 3.225028,3.23174 4.474447,5.71356 4.474447,8.88801 0,1.19124 -1.571491,6.808 -3.49219,12.48172 -4.694663,13.86785 -5.508988,19.19679 -5.079257,33.23882 0.199655,6.52656 0.696232,12.43323 1.252419,14.89933 2.049669,9.08816 5.910746,18.49324 9.068509,22.08973 2.306418,2.62686 5.132005,4.24159 5.964862,3.40874 0.316646,-0.31667 0.94612,-3.81936 1.39884,-7.78378 1.968969,-17.24267 3.904736,-23.14236 10.257568,-31.2625 4.611093,-5.89383 5.198012,-6.05838 6.349941,-1.78039 0.975352,3.62215 7.888099,19.31114 11.511752,26.12673 10.981688,20.65509 22.287578,36.93274 31.849248,45.85496 2.90428,2.71005 4.99459,4.92734 4.64516,4.92734 -1.00436,0 -7.21814,-4.83722 -10.10303,-7.86491 -1.44468,-1.51616 -4.99068,-4.67653 -7.88002,-7.02307 -6.43698,-5.22769 -16.08506,-15.02621 -19.825173,-20.1343 -1.527898,-2.08673 -4.734351,-7.69649 -7.125418,-12.4661 -2.391068,-4.76962 -4.461188,-8.55825 -4.60024,-8.4192 -0.389404,0.38941 -1.395155,5.81719 -2.626153,14.1727 -1.490482,10.11686 -3.047147,13.34155 -7.557907,15.65649 -5.652695,2.90101 -10.688446,1.51133 -16.635571,-4.59078 -13.022883,-13.36225 -18.835677,-43.23505 -13.170495,-67.68506 2.334833,-10.07675 4.801483,-19.21149 5.609697,-20.77442 1.299939,-2.51382 1.091526,-3.13248 -2.357379,-6.99773 C 45.506432,112.97775 41.172141,105.8329 37.857941,98.560355 35.437091,93.248154 29.287002,76.204118 27.22681,69.097827 25.355484,62.642984 24.341371,60.951082 14.693399,48.187684 5.7635235,36.374267 3.6537306,32.94537 2.2061445,27.893117 -0.11099561,19.806004 3.2853845,11.365315 10.405415,7.5162835 c 1.990986,-1.0763256 3.280358,-1.261861 8.75557,-1.2599196 5.359766,0.00188 7.240601,0.2629043 11.382231,1.5796317 8.900777,2.8297784 20.360905,8.9492674 26.558558,14.1817614 4.041692,3.412284 4.949139,3.789003 9.154967,3.800541 6.735418,0.01765 14.108011,1.101189 21.781387,3.198731 9.235755,2.524648 13.609562,4.545086 24.052662,11.110942 27.3799,17.214438 46.3569,35.364229 63.15193,60.399079 7.41065,11.04639 9.21001,14.34638 13.36483,24.51092 7.47445,18.28578 24.71733,54.61287 27.90783,58.7958 0.83217,1.09104 2.34058,2.34902 3.35205,2.79552 1.01146,0.4465 5.51638,2.42661 10.0109,4.40025 12.07877,5.30406 15.4614,7.10115 23.05887,12.25045 15.61991,10.58666 26.84118,20.01221 32.9295,27.65982 2.4338,3.05709 4.42507,5.81725 4.42507,6.13367 0,0.89154 -8.98639,3.4672 -15.46817,4.43346 -3.21038,0.47855 -7.67572,1.14255 -9.92299,1.47552 -2.24725,0.33297 -6.25045,1.23259 -8.89595,1.99915 -2.64552,0.76654 -5.98831,1.57043 -7.4284,1.78639 -2.38454,0.35757 -2.56319,0.49578 -2.00034,1.54749 2.05717,3.84385 6.49102,7.36699 17.44914,13.86509 9.06655,5.37642 16.65137,11.74289 23.11431,19.40144 2.20441,2.61223 5.34664,6.01552 6.9827,7.56285 2.76885,2.61865 6.81376,9.83708 5.5123,9.83708 -0.27111,0 -1.90916,-1.29434 -3.64007,-2.87628 z M 61.678011,56.935224 c 0.161268,-0.161268 1.859126,-0.435049 3.773273,-0.608605 3.197517,-0.289951 3.694624,-0.168107 6.119379,1.500211 2.733194,1.880481 5.671447,6.276412 5.665667,8.476429 -0.0066,2.432476 -1.262059,5.70873 -2.883409,7.523337 l -1.647183,1.843528 C 72.602712,71.845736 60.362739,58.652562 61.678011,56.935224 Z"
       id="path958"
       sodipodi:nodetypes="ssssssssssssssssssssssssssscsssssssssssssssssssssssssssscsssssssssssssssssssscsscscc" />
  </g>
</svg>
