<?xml version="1.0" encoding="UTF-8" standalone="no"?>
<!-- Created with Inkscape (http://www.inkscape.org/) -->

<svg
   width="187.22057mm"
   height="187.22057mm"
   viewBox="0 0 187.22057 187.22056"
   version="1.1"
   id="svg825"
   inkscape:version="1.1 (c68e22c387, 2021-05-23)"
   sodipodi:docname="nim_white.svg"
   xmlns:inkscape="http://www.inkscape.org/namespaces/inkscape"
   xmlns:sodipodi="http://sodipodi.sourceforge.net/DTD/sodipodi-0.dtd"
   xmlns="http://www.w3.org/2000/svg"
   xmlns:svg="http://www.w3.org/2000/svg">
  <sodipodi:namedview
     id="namedview827"
     pagecolor="#ffffff"
     bordercolor="#666666"
     borderopacity="1.0"
     inkscape:pageshadow="2"
     inkscape:pageopacity="0.0"
     inkscape:pagecheckerboard="0"
     inkscape:document-units="mm"
     showgrid="false"
     fit-margin-top="0"
     fit-margin-left="0"
     fit-margin-right="0"
     fit-margin-bottom="0"
     inkscape:zoom="0.67081229"
     inkscape:cx="395.04345"
     inkscape:cy="248.95191"
     inkscape:window-width="1920"
     inkscape:window-height="1106"
     inkscape:window-x="-11"
     inkscape:window-y="-11"
     inkscape:window-maximized="1"
     inkscape:current-layer="layer1" />
  <defs
     id="defs822" />
  <g
     inkscape:label="Calque 1"
     inkscape:groupmode="layer"
     id="layer1"
     transform="translate(-0.44486611,-82.616927)">
    <path
       style="fill:#f9f9f9;stroke-width:0.953426"
       d="M 75.477231,244.67941 C 53.490199,240.00577 32.72485,227.36785 25.637991,214.34695 21.225833,206.24037 7.7463582,166.61671 3.8611942,150.33284 c -2.052196,-8.60135 -3.58298896,-15.7871 -3.40175796,-15.96832 0.18122,-0.18125 2.99364296,0.75303 6.24981196,2.07612 l 5.9203038,2.40567 4.489522,-3.7057 c 2.469236,-2.03811 5.846108,-4.47869 7.50416,-5.42345 2.244028,-1.27867 4.038093,-3.87139 7.01836,-10.14264 2.202043,-4.63371 4.248181,-8.42492 4.546969,-8.42492 0.298803,0 3.618275,2.35528 7.37665,5.23394 l 6.83336,5.23398 8.48726,-1.87634 c 4.667978,-1.03197 11.202428,-1.88561 14.520928,-1.89696 l 6.03367,-0.0216 7.16225,-6.43564 c 3.93925,-3.53961 7.37393,-6.3684 7.63262,-6.28624 0.25873,0.0822 3.61853,2.97819 7.466349,6.43564 l 6.99599,6.28624 6.03367,0.0216 c 3.31854,0.0108 9.86722,0.86809 14.5526,1.90388 l 8.51894,1.88326 6.8424,-5.24086 c 3.76336,-2.88248 7.06856,-5.2409 7.34499,-5.2409 0.27639,0 2.30422,3.79121 4.50625,8.42492 2.98028,6.27125 4.77436,8.86397 7.01837,10.14264 1.65804,0.94476 5.0765,3.4204 7.59658,5.50139 l 4.58193,3.78357 5.79724,-2.5142 c 3.18849,-1.38281 5.95933,-2.35211 6.15741,-2.15403 0.1982,0.19819 -1.31891,7.3976 -3.37115,15.99895 -3.88515,16.28387 -17.36459,55.90753 -21.77676,64.01411 -1.39859,2.56962 -5.16652,7.10932 -8.37321,10.08819 -19.00895,17.65846 -51.48668,26.01816 -78.649669,20.24427 z m 0.0883,-53.91865 c 9.82099,-5.50605 18.1475,-10.01097 18.50335,-10.01097 0.35602,0 8.732729,4.53314 18.615229,10.07367 l 17.96818,10.0737 8.88095,-2.61117 c 4.88454,-1.43614 9.44244,-3.03945 10.12869,-3.56285 2.72414,-2.07782 13.5304,-16.9742 13.5304,-18.6516 0,-2.9468 -5.98189,-10.74997 -11.99636,-15.64879 -24.54612,-19.99303 -70.359879,-23.50612 -101.938139,-7.81686 -4.719472,2.3448 -10.789596,6.19907 -13.48916,8.5651 -5.624288,4.9293 -10.848189,12.3087 -10.769683,15.21348 0.02955,1.08995 3.140017,5.79509 6.912348,10.45582 l 6.858783,8.47407 8.580846,2.61989 c 4.719473,1.44094 8.98076,2.66887 9.46954,2.72868 0.488779,0.0598 8.924036,-4.39613 18.745026,-9.90217 z"
       id="path916" />
  </g>
</svg>
