<?xml version="1.0" encoding="UTF-8" standalone="no"?>
<!-- Created with Inkscape (http://www.inkscape.org/) -->

<svg
   width="300mm"
   height="300mm"
   viewBox="0 0 300 300"
   version="1.1"
   id="svg5"
   inkscape:version="1.1 (c68e22c387, 2021-05-23)"
   sodipodi:docname="nouser_white.svg"
   xmlns:inkscape="http://www.inkscape.org/namespaces/inkscape"
   xmlns:sodipodi="http://sodipodi.sourceforge.net/DTD/sodipodi-0.dtd"
   xmlns="http://www.w3.org/2000/svg"
   xmlns:svg="http://www.w3.org/2000/svg">
  <sodipodi:namedview
     id="namedview7"
     pagecolor="#ffffff"
     bordercolor="#666666"
     borderopacity="1.0"
     inkscape:pageshadow="2"
     inkscape:pageopacity="0.0"
     inkscape:pagecheckerboard="0"
     inkscape:document-units="mm"
     showgrid="false"
     inkscape:zoom="0.34698723"
     inkscape:cx="-12.968777"
     inkscape:cy="765.15783"
     inkscape:window-width="1920"
     inkscape:window-height="1017"
     inkscape:window-x="1912"
     inkscape:window-y="-8"
     inkscape:window-maximized="1"
     inkscape:current-layer="layer1" />
  <defs
     id="defs2" />
  <g
     inkscape:label="Calque 1"
     inkscape:groupmode="layer"
     id="layer1">
    <path
       style="fill:#ffffff;stroke-width:0.174691"
       d="m 135.95113,299.85811 c -2.70317,-0.30433 -4.71634,-0.43816 -8.90924,-0.59227 -5.97331,-0.21956 -15.29947,-1.03512 -21.92373,-1.9172 -1.39316,-0.18553 -3.39773,-0.42139 -4.45461,-0.52415 -1.056884,-0.10277 -2.432573,-0.29858 -3.057097,-0.43516 -0.624516,-0.13655 -1.646464,-0.2995 -2.27098,-0.36209 -0.624524,-0.0626 -1.764378,-0.22986 -2.533021,-0.37169 -0.768642,-0.14185 -2.026417,-0.36502 -2.795053,-0.49595 -3.268281,-0.55665 -5.460725,-0.96037 -6.114187,-1.12586 -0.384318,-0.0973 -1.24904,-0.2582 -1.921603,-0.35748 -0.672556,-0.0993 -1.891027,-0.33502 -2.707709,-0.52388 -0.816676,-0.18886 -2.388895,-0.54236 -3.493816,-0.78556 -1.104921,-0.24321 -2.59853,-0.59104 -3.319133,-0.77298 -1.642126,-0.41457 -2.577396,-0.64237 -4.017888,-0.9786 -0.624523,-0.14576 -1.489245,-0.38633 -1.921603,-0.53459 -0.432358,-0.14824 -1.218471,-0.37497 -1.746908,-0.50382 -1.484603,-0.362 -3.901975,-1.06646 -6.026842,-1.75629 -0.480397,-0.15597 -1.305815,-0.40003 -1.834252,-0.54237 -0.528444,-0.14234 -1.196636,-0.36417 -1.484874,-0.49301 -0.288239,-0.12882 -0.917126,-0.3546 -1.39753,-0.50173 -1.256435,-0.38482 -2.940712,-1.0116 -3.144438,-1.17016 -0.09608,-0.0748 -0.463383,-0.18991 -0.816227,-0.25586 -0.35285,-0.066 -1.014711,-0.30878 -1.470811,-0.53969 -0.456094,-0.2309 -0.931757,-0.41984 -1.05702,-0.41984 -0.211517,0 -0.846895,-0.25805 -2.595433,-1.05408 -0.384318,-0.17496 -1.288345,-0.56534 -2.008948,-0.86752 -2.060301,-0.86395 -7.026598,-3.28158 -8.935009,-4.34963 -4.640675,-2.59714 -7.151815,-4.2706 -10.511975,-7.00528 -0.885414,-0.7206 -1.873537,-1.54601 -2.195831,-1.83426 -0.796637,-0.71245 -3.616087,-3.86463 -4.463239,-4.98996 -0.969999,-1.28848 -2.366763,-3.61866 -2.654414,-4.42827 -0.133602,-0.37602 -0.313229,-0.76908 -0.39918,-0.87346 -0.158572,-0.19254 -0.512849,-1.36426 -1.034539,-3.42155 -0.357703,-1.41063 -0.387777,-8.21578 -0.05058,-11.44226 0.356733,-3.41318 1.073256,-9.03302 1.172088,-9.19293 0.05038,-0.0815 0.243348,-1.03372 0.428779,-2.11593 0.42705,-2.49232 2.378674,-10.0217 2.803287,-10.81508 0.114012,-0.21304 0.30771,-0.78576 0.430437,-1.27271 0.252915,-1.00348 0.881617,-2.79198 1.570106,-4.46655 0.256771,-0.62452 0.606161,-1.48925 0.776426,-1.9216 0.554874,-1.40898 2.044568,-4.58058 3.241066,-6.9003 1.370994,-2.65804 1.81185,-3.4433 4.013021,-7.14816 0.725713,-1.22148 3.151905,-4.74939 4.615301,-6.71111 4.128553,-5.53441 10.185463,-12.02937 14.774856,-15.84342 1.15267,-0.95794 2.221872,-1.8596 2.376013,-2.00372 0.379835,-0.35513 3.398951,-2.6196 5.589797,-4.19258 4.024418,-2.88944 10.875219,-6.73979 16.021572,-9.00459 1.219243,-0.53656 2.539861,-1.12766 2.934703,-1.31355 0.394842,-0.18591 0.855809,-0.33801 1.024364,-0.33801 0.168555,0 0.592303,-0.15375 0.941667,-0.34166 0.349358,-0.18792 0.910339,-0.41947 1.246617,-0.51456 0.336285,-0.0951 1.161695,-0.38306 1.834259,-0.63992 0.672557,-0.25687 1.733808,-0.61181 2.358325,-0.78875 0.624523,-0.17693 1.489239,-0.43882 1.921603,-0.58198 0.432358,-0.14315 1.611524,-0.46746 2.620365,-0.72069 1.008841,-0.25323 2.38453,-0.61112 3.057093,-0.79532 0.672557,-0.18419 1.426443,-0.33463 1.675291,-0.33434 0.248854,0 1.067187,-0.15666 1.818524,-0.34882 2.266597,-0.5797 2.683762,-0.51459 4.246573,0.66286 1.86595,1.40583 5.948532,4.07582 6.888252,4.50488 0.31321,0.143 0.92322,0.47921 1.35558,0.74714 0.43236,0.2679 1.38362,0.80742 2.11391,1.1989 0.73029,0.3915 1.47709,0.79361 1.65956,0.89358 0.33957,0.18605 2.50512,1.18523 3.91294,1.80542 0.43236,0.19046 0.99476,0.45814 1.24979,0.59484 0.25502,0.13669 0.56947,0.25099 0.69876,0.254 0.12929,0.003 0.62814,0.19881 1.10854,0.43512 0.4804,0.23632 0.97016,0.43038 1.08836,0.43127 0.1182,0 0.70778,0.19398 1.31018,0.42913 1.56658,0.61151 6.06445,2.01813 6.45326,2.01813 0.18051,0 0.76145,0.15228 1.29097,0.3384 0.52953,0.1861 1.56916,0.42592 2.3103,0.5329 0.74113,0.10698 1.58335,0.27412 1.87159,0.37143 0.92627,0.31271 4.98548,0.92916 8.03578,1.22035 1.15297,0.11006 2.41074,0.23403 2.79506,0.27549 1.83053,0.19748 16.04666,0.25025 18.08051,0.0671 1.201,-0.10814 3.04836,-0.27547 4.10524,-0.37185 2.4172,-0.22039 6.01357,-0.76655 7.94844,-1.20705 0.81668,-0.18593 1.87793,-0.38828 2.35833,-0.44965 0.4804,-0.0614 1.14859,-0.22706 1.48488,-0.3682 0.33627,-0.14111 1.00447,-0.33105 1.48486,-0.42209 1.11711,-0.21169 5.11747,-1.47178 6.39806,-2.01539 0.54046,-0.2294 1.10829,-0.41711 1.26185,-0.41711 0.15355,0 0.61538,-0.15324 1.02629,-0.3405 0.41092,-0.18729 2.12281,-0.94685 3.80421,-1.68789 3.0747,-1.35513 3.76174,-1.69551 6.43231,-3.18674 0.79949,-0.44644 1.66422,-0.91986 1.92161,-1.05203 0.97811,-0.5023 5.52437,-3.4986 6.97932,-4.59984 1.70769,-1.29254 1.60869,-1.27362 3.98002,-0.76059 1.14751,0.24826 2.83319,0.61275 3.74595,0.80996 0.91276,0.19723 2.32775,0.55106 3.14444,0.78632 0.81668,0.23525 1.62556,0.42673 1.79753,0.42551 0.17197,-0.002 0.62086,0.15502 0.99752,0.34718 0.37667,0.19216 0.80756,0.34938 0.95753,0.34938 0.36867,0 5.43875,1.71019 6.2048,2.09294 0.33628,0.16804 0.89832,0.35751 1.24896,0.42109 0.35066,0.0636 0.72727,0.22371 0.83694,0.35585 0.10969,0.13215 0.40672,0.29231 0.66007,0.3559 0.44323,0.11124 1.06586,0.38758 4.19444,1.86166 0.7907,0.37255 1.50725,0.67737 1.59234,0.67737 0.0851,0 0.34217,0.1464 0.57129,0.32534 0.22914,0.17895 0.61315,0.38584 0.85335,0.45975 0.2402,0.0739 1.18353,0.56705 2.09629,1.09582 1.93369,1.12022 2.82187,1.63186 3.66851,2.11324 1.08002,0.61407 4.05023,2.59073 5.99707,3.99106 1.04052,0.74841 2.14107,1.52961 2.44568,1.73597 1.17493,0.79602 5.13778,4.15146 7.67857,6.50165 4.28004,3.95897 9.20791,9.50384 12.1879,13.7139 0.33117,0.4679 0.75936,1.06426 0.95152,1.32526 0.46709,0.63444 3.07748,4.54501 3.32851,4.98639 0.10931,0.19215 0.44185,0.74243 0.73898,1.22283 2.67441,4.32378 5.64022,10.48504 7.8743,16.35827 0.38891,1.0224 0.75489,2.08364 0.81331,2.35833 0.0584,0.27467 0.28867,1.01038 0.51172,1.6349 1.45946,4.0864 3.1497,11.45134 3.68839,16.07157 0.14003,1.201 0.32941,2.616 0.42087,3.14443 0.30146,1.74216 0.57633,8.07031 0.48181,11.09288 -0.0835,2.67087 -0.14583,3.13677 -0.61903,4.62931 -0.95274,3.005 -1.9258,4.90278 -3.85154,7.51171 -1.01551,1.37578 -4.98143,5.4569 -6.29481,6.47765 -0.42272,0.32854 -1.0123,0.804 -1.31019,1.0566 -0.75323,0.63872 -4.55024,3.28751 -5.60763,3.91188 -0.4804,0.28366 -1.00529,0.59538 -1.16643,0.69268 -2.79434,1.68734 -6.11301,3.39896 -10.05352,5.18514 -0.40616,0.18411 -1.07435,0.48706 -1.48487,0.67321 -0.4105,0.18616 -1.33596,0.58186 -2.05657,0.87932 -0.7206,0.29748 -1.54601,0.64673 -1.83425,0.7761 -0.28824,0.12939 -0.75991,0.2913 -1.04815,0.35981 -0.28824,0.0685 -0.7206,0.23285 -0.9608,0.36521 -0.2402,0.13236 -0.86909,0.38735 -1.39753,0.56663 -0.52844,0.17928 -1.98274,0.69421 -3.23178,1.14428 -1.24904,0.45007 -2.74265,0.96386 -3.31913,1.14173 -2.56888,0.79264 -4.78891,1.45348 -5.64807,1.68129 -0.51228,0.13584 -1.06256,0.31579 -1.22284,0.39989 -0.16028,0.0841 -0.63717,0.2102 -1.05973,0.28025 -0.42257,0.0701 -1.03874,0.24034 -1.36926,0.37845 -0.33052,0.1381 -1.04602,0.32891 -1.59,0.42401 -0.54401,0.0951 -1.46075,0.31901 -2.03723,0.49752 -1.09327,0.33856 -3.71727,0.97317 -6.55091,1.58435 -0.91276,0.19687 -2.32776,0.51133 -3.14444,0.69883 -0.81668,0.18748 -1.79931,0.38521 -2.18364,0.4394 -0.38432,0.0542 -1.40626,0.24874 -2.27098,0.43231 -1.95112,0.41423 -5.15478,1.00287 -6.20153,1.13949 -0.43236,0.0564 -1.65083,0.2533 -2.70771,0.43748 -3.30486,0.57595 -5.3398,0.87916 -7.59906,1.13233 -1.201,0.13458 -3.24488,0.40123 -4.54196,0.59257 -1.29708,0.19132 -4.08777,0.51269 -6.20153,0.71417 -2.11376,0.20145 -4.62931,0.44221 -5.59012,0.53501 -0.96079,0.0928 -2.53301,0.2428 -3.49381,0.33334 -0.9608,0.0905 -3.94802,0.24915 -6.63826,0.35242 -2.69024,0.1033 -6.14419,0.30372 -7.67547,0.44539 -2.19495,0.2031 -5.5405,0.25207 -15.80953,0.23144 -7.16397,-0.0143 -13.26125,-0.0528 -13.54948,-0.0852 z m 10.04473,-142.16883 c -5.7295,-0.50851 -9.3111,-1.11194 -13.01448,-2.19272 -16.1666,-4.718 -29.78392,-14.87197 -39.470711,-29.43197 -2.448806,-3.68073 -3.792314,-6.01436 -5.531503,-9.608 -9.783372,-20.21512 -11.187669,-43.848568 -3.88057,-65.307289 7.531049,-22.1164 23.525614,-39.246213 43.729394,-46.8331919 4.50274,-1.6908854 9.86223,-3.0145138 15.02343,-3.7103242 2.93377,-0.3955224 11.778,-0.45043534 14.67404,-0.0911144 8.14581,1.0106833 15.34863,3.1476927 22.2536,6.6024542 16.48105,8.2459333 29.4526,22.9928083 36.40344,41.3856723 8.34393,22.079243 7.23278,47.069002 -3.02931,68.128483 -9.71652,19.93986 -26.83013,34.33039 -46.82769,39.37653 -5.87559,1.48264 -14.51687,2.19737 -20.32964,1.68147 z m 10.75878,-22.53622 c 12.04933,-1.44915 24.07215,-8.72314 32.10491,-19.42391 15.07983,-20.088454 15.76854,-49.029661 1.6642,-69.935065 -7.88709,-11.690237 -19.57593,-19.450208 -32.6489,-21.674918 -3.14224,-0.534736 -9.35871,-0.663056 -12.5857,-0.259795 -10.60583,1.325365 -20.15595,6.08777 -28.03277,13.979242 -8.91769,8.934277 -14.38194,20.378863 -16.26766,34.071775 -0.44719,3.247212 -0.44658,12.133304 0.001,15.372804 0.71824,5.197774 1.88068,9.855405 3.55334,14.237317 6.06437,15.88706 18.20473,27.69521 33.12379,32.21738 5.59088,1.69467 12.50286,2.20713 19.08773,1.41517 z m -8.55148,-34.17164 c -5.1289,-0.44217 -9.65307,-2.545796 -13.30504,-6.18651 -4.06354,-4.051013 -6.23457,-9.26732 -6.25275,-15.023427 -0.0182,-5.768407 1.9596,-10.756935 5.91122,-14.909342 5.86119,-6.159031 14.76315,-8.247553 22.79418,-5.347822 5.18154,1.870876 9.84023,6.143852 12.13625,11.131455 1.33536,2.900779 1.90386,5.591018 1.90998,9.038365 0.0105,5.861661 -2.08624,10.917065 -6.27062,15.119387 -4.42649,4.44547 -10.65295,6.718464 -16.92322,6.177894 z"
       id="path854" />
  </g>
</svg>
