<?xml version="1.0" encoding="UTF-8" standalone="no"?>
<!-- Created with Inkscape (http://www.inkscape.org/) -->

<svg
   width="300mm"
   height="300mm"
   viewBox="0 0 300 300"
   version="1.1"
   id="svg5"
   inkscape:version="1.1 (c68e22c387, 2021-05-23)"
   sodipodi:docname="ocaml_white.svg"
   xmlns:inkscape="http://www.inkscape.org/namespaces/inkscape"
   xmlns:sodipodi="http://sodipodi.sourceforge.net/DTD/sodipodi-0.dtd"
   xmlns="http://www.w3.org/2000/svg"
   xmlns:svg="http://www.w3.org/2000/svg">
  <sodipodi:namedview
     id="namedview7"
     pagecolor="#ffffff"
     bordercolor="#666666"
     borderopacity="1.0"
     inkscape:pageshadow="2"
     inkscape:pageopacity="0.0"
     inkscape:pagecheckerboard="0"
     inkscape:document-units="mm"
     showgrid="false"
     width="300mm"
     inkscape:zoom="0.45254834"
     inkscape:cx="659.59805"
     inkscape:cy="710.42135"
     inkscape:window-width="1920"
     inkscape:window-height="1017"
     inkscape:window-x="1912"
     inkscape:window-y="-8"
     inkscape:window-maximized="1"
     inkscape:current-layer="layer1" />
  <defs
     id="defs2" />
  <g
     inkscape:label="Calque 1"
     inkscape:groupmode="layer"
     id="layer1">
    <g
       id="g1204"
       transform="translate(-134.42917,1.6733921)" />
    <g
       id="g6901"
       transform="translate(0.98312,0.25633)"
       style="fill:#ffffff">
      <path
         style="fill:#ffffff;stroke-width:1.33255"
         d="m 70.955226,272.53741 c -8.873138,-2.18448 -13.880203,-9.86221 -13.852094,-21.2405 0.03692,-14.94431 6.968343,-22.79494 20.125958,-22.79494 10.432335,0 18.759961,9.59826 18.763913,21.62693 0.0053,16.36917 -10.689494,25.94095 -25.037777,22.40851 z M 83.2378,261.48253 c 5.411938,-8.26945 3.106593,-22.67963 -3.910027,-24.44069 -4.764786,-1.19589 -9.734988,1.30598 -11.459939,5.76864 -1.964267,5.08179 -0.748747,15.81034 2.154773,19.01869 3.391551,3.74761 10.660491,3.55695 13.215193,-0.34664 z m 27.4153,10.06791 c -13.411252,-6.91783 -14.03817,-32.11909 -0.99947,-40.17744 5.50685,-3.40342 14.05769,-3.76677 19.72131,-0.83799 4.59328,2.37528 4.82327,3.40958 1.43916,6.47215 -2.05749,1.86201 -3.08651,1.98477 -5.8982,0.70369 -7.96835,-3.63063 -14.77532,2.56321 -14.77532,13.44443 0,11.10732 6.90635,16.98166 15.13742,12.87547 3.43012,-1.71117 4.01731,-1.6363 6.47982,0.8262 l 2.7079,2.7079 -3.38797,2.66496 c -4.73683,3.72601 -14.53345,4.35943 -20.42465,1.32063 z m 61.2972,-14.39869 V 240.4949 h 3.99765 c 2.1987,0 3.99764,0.59965 3.99764,1.33255 0,2.02379 3.45618,1.59178 5.33019,-0.66627 2.34666,-2.82755 9.77464,-2.52115 12.52378,0.51662 2.22833,2.46227 2.38507,2.45594 7.41545,-0.29947 4.12023,-2.25687 5.88367,-2.55303 8.89528,-1.49391 5.62313,1.97756 7.10255,6.32405 7.12464,20.93184 l 0.0196,12.99234 h -4.66391 -4.66392 v -11.82978 c 0,-13.67035 -1.58436,-16.56309 -7.37444,-13.46433 -3.11207,1.66554 -3.28594,2.38127 -3.28594,13.52635 v 11.76776 h -4.61391 -4.61392 l -0.38314,-12.18494 c -0.30554,-9.71681 -0.8397,-12.4721 -2.63709,-13.60261 -1.72548,-1.08525 -2.89715,-0.83557 -4.99706,1.06483 -2.35164,2.1282 -2.7431,4.06939 -2.7431,13.60259 v 11.12013 h -4.66392 -4.66392 z m 61.2972,15.73209 c -4.73145,-1.69098 -5.33019,-4.60942 -5.33019,-25.98089 v -21.06608 h 4.66392 4.66392 v 19.36376 c 0,15.98298 0.34898,19.4977 1.99882,20.13079 2.6476,1.01599 2.56765,6.64122 -0.109,7.66833 -2.37363,0.91085 -3.05188,0.8975 -5.88748,-0.11593 z m -92.20299,-2.73975 c -3.04726,-3.54805 -3.79208,-6.6866 -2.43432,-10.25779 1.42616,-3.75107 4.9807,-5.90621 13.19909,-8.00275 5.62334,-1.43453 5.76324,-1.5902 3.48054,-3.87291 -1.47092,-1.47092 -3.44913,-2.09131 -5.18499,-1.62606 -1.54366,0.41373 -4.09806,1.11155 -5.67644,1.55074 -2.17851,0.60617 -3.09555,0.0871 -3.8071,-2.15476 -1.08453,-3.41707 0.32922,-4.636 7.76302,-6.69327 3.68724,-1.02044 6.37659,-0.98026 9.78993,0.14625 6.3871,2.10793 8.44587,7.43975 8.44587,21.87305 v 11.36946 h -3.8866 c -2.13762,0 -4.11514,-0.68564 -4.39448,-1.52364 -0.38104,-1.14313 -1.21881,-1.14313 -3.35481,0 -4.29113,2.29656 -11.63904,1.87048 -13.93971,-0.80832 z m 14.66346,-9.28688 c 0.40815,-4.22401 0.35355,-4.26858 -3.55768,-2.90512 -6.75316,2.35416 -7.06638,8.37642 -0.3955,7.60445 2.90614,-0.33631 3.61275,-1.17629 3.95318,-4.69933 z"
         id="path6903" />
    </g>
    <path
       style="fill:#ffffff;stroke-width:1.33255"
       d="m 95.64565,219.2633 c -5.40204,-1.94407 -9.95671,-2.53679 -17.32313,-2.25433 -5.49676,0.21077 -9.92011,-0.0677 -9.82967,-0.61885 0.0904,-0.55112 0.57236,-4.07721 1.07095,-7.83574 0.96465,-7.27188 4.54473,-15.49562 7.99085,-18.35564 1.15061,-0.95492 2.99631,-4.78133 4.10156,-8.50313 1.10526,-3.72179 4.50712,-10.99561 7.5597,-16.16403 3.05258,-5.16843 6.68078,-11.32067 8.06267,-13.67166 3.41887,-5.81646 9.90084,-11.04978 13.68622,-11.04978 4.3727,0 17.42796,12.29599 21.42035,20.17458 1.79136,3.53507 4.84482,11.98516 6.78547,18.77797 1.94065,6.79279 4.8857,14.14948 6.54454,16.34819 1.65885,2.1987 4.8027,8.49499 6.98633,13.99175 l 3.97025,9.99411 -3.52895,0.84176 c -1.94093,0.46295 -14.02277,0.86887 -26.84854,0.90204 -19.98162,0.0517 -24.36867,-0.31724 -30.6486,-2.57724 z m 174.56377,0.73602 c -20.92404,-5.28073 -29.08822,-5.92627 -58.01004,-4.58689 -15.62577,0.72364 -31.46301,2.1669 -35.93459,3.27477 -4.39741,1.08947 -8.37538,2.00224 -8.83993,2.02835 -2.54898,0.14325 -11.39164,-30.71639 -9.62205,-33.57964 0.39872,-0.64512 -0.70011,-3.38703 -2.44184,-6.09311 -4.93206,-7.66278 -6.12293,-11.1787 -7.59828,-22.4331 -2.3824,-18.17345 -2.59054,-23.11465 -0.9834,-23.34536 0.8261,-0.11859 8.09811,-0.29324 16.16002,-0.38813 18.98552,-0.22347 27.53268,-2.78315 36.64242,-10.9736 8.06854,-7.2543 13.6626,-15.10438 15.9644,-22.40263 4.0791,-12.933454 4.73436,-13.742863 12.97553,-16.028094 4.23928,-1.175529 9.29298,-2.743679 11.23047,-3.484778 1.95499,-0.747802 6.25437,-0.93781 9.66097,-0.426959 l 6.13829,0.920495 V 77.06185 c 0,-2.980337 -0.71639,-6.991097 -1.59198,-8.912799 -2.84595,-6.246182 -16.43654,-11.251985 -30.61126,-11.274999 -5.60822,-0.0091 -9.07608,-0.591693 -9.40554,-1.580093 -0.55626,-1.668753 -11.6763,-1.900232 -18.56819,-0.386521 -5.31958,1.168379 -9.52151,8.380481 -11.61836,19.941587 -2.17821,12.009698 -6.28875,20.469129 -10.45419,21.514585 -4.98542,1.251263 -14.95734,-0.240861 -23.68804,-3.544502 -9.81905,-3.715474 -16.78566,-10.620618 -20.40869,-20.228632 -8.25717,-21.897411 -17.00875,-35.3847 -24.9094,-38.388523 -3.36827,-1.28061 -10.65113,0.235009 -14.36873,2.990242 -1.24529,0.922921 -4.9488,7.674503 -8.23004,15.003516 -3.28123,7.329013 -6.82137,13.883859 -7.86696,14.566323 -3.30788,2.159072 -7.82822,-2.27924 -15.47013,-15.189392 -8.04673,-13.59404 -11.8406,-17.366327 -17.4657,-17.366327 -7.490713,0 -10.395638,2.615101 -16.177171,14.563173 C 18.838922,60.917098 9.3472608,74.69977 4.1706398,78.604502 L 1.0347478,80.96991 V 40.931264 0.89261802 H 150.95408 300.87342 l -0.34084,110.26833198 -0.34084,110.26834 -11.32665,0.20983 c -6.22966,0.1154 -14.62472,-0.6225 -18.65567,-1.6398 z m -240.524893,0.24317 c -0.732902,-0.26671 -7.478925,-1.86595 -14.991164,-3.55388 L 1.0347478,213.61965 v -26.21071 -26.21071 l 4.33078,-5.6136 c 2.381929,-3.08747 6.7293832,-10.22328 9.6610072,-15.85736 6.331676,-12.1684 8.777451,-13.19252 17.148732,-7.18072 8.261863,5.93322 31.980753,12.26123 45.958003,12.26123 h 5.98401 l -2.62495,2.99824 c -3.26277,3.72676 -5.11042,7.52817 -8.44484,17.37466 -1.43669,4.24253 -3.9771,9.63055 -5.64535,11.9734 -1.82975,2.56964 -3.35731,7.17529 -3.85012,11.60825 -0.44931,4.0417 -1.90081,12.59545 -3.22556,19.00834 -2.30851,11.17512 -2.55779,11.6598 -5.99699,11.6598 -1.97359,0 -8.02626,0.29181 -13.45037,0.64847 -5.424115,0.35665 -10.461672,0.43025 -11.194573,0.16355 z"
       id="path6881"
       sodipodi:nodetypes="ssssssssssssscssscssssssssssssscssssssssssssssssscccccccscsscccsssscssssssss" />
  </g>
</svg>
