<?xml version="1.0" encoding="UTF-8" standalone="no"?>
<!-- Created with Inkscape (http://www.inkscape.org/) -->

<svg
   width="300mm"
   height="300mm"
   viewBox="0 0 300 300"
   version="1.1"
   id="svg5"
   inkscape:version="1.1 (c68e22c387, 2021-05-23)"
   sodipodi:docname="paper_plane.svg"
   xmlns:inkscape="http://www.inkscape.org/namespaces/inkscape"
   xmlns:sodipodi="http://sodipodi.sourceforge.net/DTD/sodipodi-0.dtd"
   xmlns="http://www.w3.org/2000/svg"
   xmlns:svg="http://www.w3.org/2000/svg">
  <sodipodi:namedview
     id="namedview7"
     pagecolor="#ffffff"
     bordercolor="#666666"
     borderopacity="1.0"
     inkscape:pageshadow="2"
     inkscape:pageopacity="0.0"
     inkscape:pagecheckerboard="0"
     inkscape:document-units="mm"
     showgrid="false"
     inkscape:zoom="0.67081229"
     inkscape:cx="544.86181"
     inkscape:cy="565.73203"
     inkscape:window-width="1920"
     inkscape:window-height="1017"
     inkscape:window-x="1912"
     inkscape:window-y="-8"
     inkscape:window-maximized="1"
     inkscape:current-layer="layer1" />
  <defs
     id="defs2" />
  <g
     inkscape:label="Calque 1"
     inkscape:groupmode="layer"
     id="layer1">
    <path
       style="fill:#ffffff;stroke-width:1.25935"
       d="m 111.69743,209.31704 c 40.27973,36.64437 0,0 40.27973,36.64437 -0.019,0.78477 0,0 -39.12436,53.62896 -1.15537,-90.27333 0,0 -1.15537,-90.27333 z m 64.43937,23.53311 c -26.54965,-23.66866 -49.37459,-44.13656 -50.72217,-45.48413 -2.42732,-2.42732 -2.00494,-2.91923 45.29269,-52.75547 26.25856,-27.66789 47.60163,-50.464844 47.42908,-50.65985 -0.17229,-0.19515 -29.04344,19.49795 -64.15753,43.76223 -35.1141,24.26425 -64.51767,44.12729 -65.341245,44.14005 C 86.241719,171.89109 1.5991022,151.38364 0.60055836,150.52419 0.10326175,150.09629 67.444783,115.87321 150.24838,74.473124 265.07026,17.064591 300.60582,-0.1866226 299.98046,1.7837629 299.52922,3.2046852 282.76331,64.572838 262.72233,138.1575 c -20.04094,73.58462 -36.86006,134.67591 -37.37583,135.75841 -0.72519,1.52226 -11.87544,-7.78268 -49.2097,-41.06576 z"
       id="path854"
       sodipodi:nodetypes="ccccssscscsscsss" />
  </g>
</svg>
