<?xml version="1.0" encoding="UTF-8" standalone="no"?>
<!-- Created with Inkscape (http://www.inkscape.org/) -->

<svg
   width="300mm"
   height="300mm"
   viewBox="0 0 300 300"
   version="1.1"
   id="svg5"
   inkscape:version="1.1 (c68e22c387, 2021-05-23)"
   sodipodi:docname="perl.svg"
   xmlns:inkscape="http://www.inkscape.org/namespaces/inkscape"
   xmlns:sodipodi="http://sodipodi.sourceforge.net/DTD/sodipodi-0.dtd"
   xmlns="http://www.w3.org/2000/svg"
   xmlns:svg="http://www.w3.org/2000/svg">
  <sodipodi:namedview
     id="namedview7"
     pagecolor="#ffffff"
     bordercolor="#666666"
     borderopacity="1.0"
     inkscape:pageshadow="2"
     inkscape:pageopacity="0.0"
     inkscape:pagecheckerboard="0"
     inkscape:document-units="mm"
     showgrid="false"
     width="300mm"
     inkscape:zoom="0.47433592"
     inkscape:cx="165.49453"
     inkscape:cy="445.88654"
     inkscape:window-width="1920"
     inkscape:window-height="1017"
     inkscape:window-x="1912"
     inkscape:window-y="-8"
     inkscape:window-maximized="1"
     inkscape:current-layer="g2192" />
  <defs
     id="defs2" />
  <g
     inkscape:label="Calque 1"
     inkscape:groupmode="layer"
     id="layer1">
    <g
       id="g1204"
       transform="translate(-134.42917,1.6733921)" />
    <g
       id="g2192"
       transform="translate(-406.07649,-174.03278)">
      <path
         style="fill:#393b5a;stroke-width:0.119556"
         d="m 549.96686,472.29727 c -4.14593,-0.20395 -7.91015,-0.50102 -11.27952,-0.89016 -12.91965,-1.49216 -25.93442,-4.79782 -38.09711,-9.67641 -3.90173,-1.56504 -6.60553,-2.78244 -10.76004,-4.84479 -16.00773,-7.94647 -29.99848,-18.32989 -42.44918,-31.50423 -7.07176,-7.48278 -13.98049,-16.6412 -19.38851,-25.70203 -3.63666,-6.09299 -7.41775,-13.65452 -9.98379,-19.96585 -6.3981,-15.7365 -9.95208,-31.77231 -10.86375,-49.01796 -0.19182,-3.62853 -0.19856,-13.3025 -0.0112,-16.02051 0.88985,-12.9066 2.7211,-23.23643 6.12661,-34.5595 5.85152,-19.45588 15.92969,-37.92357 29.15981,-53.43372 2.95952,-3.46955 4.37533,-4.98914 8.30404,-8.91267 4.72232,-4.71611 6.86866,-6.66146 11.60805,-10.52106 5.30234,-4.31803 11.73874,-8.80989 17.63451,-12.30683 4.4461,-2.6371 11.25991,-6.14812 15.90095,-8.19341 14.57632,-6.42377 30.09126,-10.47333 45.78778,-11.95111 6.15806,-0.57977 7.59768,-0.64383 14.46845,-0.64383 6.73193,0 8.2488,0.0643 13.92827,0.59086 18.98619,1.76009 37.26924,7.07711 54.07916,15.72712 17.3879,8.94744 32.50517,20.90427 45.32874,35.85226 15.30221,17.83727 26.23481,39.28823 31.68036,62.16035 4.60911,19.35894 5.35265,39.84229 2.14637,59.12922 -3.67734,22.12057 -12.00556,42.56209 -24.83773,60.96389 -5.07384,7.27608 -10.09614,13.25289 -16.69507,19.86806 -5.55894,5.57263 -8.9686,8.58614 -14.94688,13.21032 -12.7912,9.89397 -28.13541,18.02819 -43.69772,23.1649 -12.1347,4.00534 -23.61026,6.26096 -36.9428,7.26141 -2.28855,0.17173 -13.93992,0.32686 -16.19984,0.21568 z m 7.53374,-20.13583 c 0.34053,-0.65853 0.43338,-2.8657 0.39463,-9.38185 -0.0344,-5.78151 -0.0564,-6.37799 -0.25153,-6.81051 -0.44579,-0.98812 -1.01206,-0.82043 -1.28885,0.38167 -0.15524,0.67413 -0.14891,14.7521 0.007,15.33066 0.2372,0.88086 0.80731,1.12117 1.13887,0.48003 z m -19.19901,-2.88146 c 2.47608,-1.16047 4.20946,-2.90501 5.23283,-5.26653 1.13693,-2.62354 1.36078,-5.83677 0.40661,-5.83677 -0.50634,0 -0.78979,0.60521 -1.3439,2.86935 -0.90625,3.70298 -1.44972,4.37079 -5.86763,7.20988 -0.76261,0.49007 -1.09465,0.90246 -0.97589,1.21198 0.21009,0.54747 1.12248,0.48018 2.54798,-0.18791 z m 38.87595,0.0485 c 0.15269,-0.41499 -0.31419,-0.85919 -1.97213,-1.87635 -1.53582,-0.94222 -2.94976,-2.139 -3.52672,-2.98505 -0.49418,-0.72465 -0.92098,-1.88726 -1.3282,-3.61802 -0.19886,-0.84512 -0.42325,-1.69799 -0.49868,-1.89525 -0.3181,-0.83203 -1.01834,-1.17262 -1.30596,-0.6352 -0.0786,0.14695 -0.1351,0.70979 -0.1289,1.28522 0.019,1.7671 0.83215,4.34926 1.85283,5.88381 1.40965,2.11937 4.52892,4.21206 6.16557,4.13643 0.54263,-0.0251 0.65984,-0.0718 0.74219,-0.29559 z m 13.43836,-15.57034 c 1.03524,-0.25156 2.19057,-0.66191 4.06491,-1.44382 0.65755,-0.27431 1.51836,-0.63327 1.91289,-0.7977 9.73352,-4.05663 14.89268,-6.57971 21.16142,-10.34896 12.74912,-7.66576 23.19855,-17.89491 31.04942,-30.39492 7.70852,-12.27335 11.85679,-25.69785 12.27108,-39.71133 0.30768,-10.4068 -1.0258,-19.69206 -3.92919,-27.35959 -5.06365,-13.37252 -15.84334,-26.16844 -32.69618,-38.81168 -7.91738,-5.93973 -19.23593,-13.41551 -31.71397,-20.94673 -10.05629,-6.06955 -14.44929,-9.23205 -18.57478,-13.37187 -4.02252,-4.03652 -6.52044,-8.13888 -7.52125,-12.35226 -0.45946,-1.9343 -0.85783,-5.25884 -1.06015,-8.84715 -0.12157,-2.15616 -0.1486,-2.93196 -0.37701,-10.81982 -0.19821,-6.84508 -0.31741,-7.78756 -1.00681,-7.96059 -0.16075,-0.0403 -0.80438,0.0188 -1.43029,0.13155 -1.23977,0.22322 -1.79376,0.17849 -2.25185,-0.18184 -0.16324,-0.1284 -0.66177,-0.74835 -1.10785,-1.37766 -1.1126,-1.56958 -1.75071,-1.97485 -2.11242,-1.34161 -0.24165,0.42307 -0.15297,2.96131 0.1911,5.46969 0.97413,7.10163 1.80407,14.86266 2.10952,19.72674 0.16654,2.65223 0.16942,9.3744 0.005,12.4936 -0.54519,10.36404 -1.95123,20.22002 -4.50269,31.56279 -0.29583,1.31511 -1.44968,6.0335 -2.56411,10.48531 -1.11444,4.4518 -2.35133,9.47731 -2.74866,11.16779 -5.05526,21.50844 -7.44719,38.10741 -7.75074,53.78674 -0.33316,17.20968 1.53648,31.02717 6.27151,46.34923 1.28488,4.15777 2.87162,8.38482 5.04087,13.42877 0.39591,0.92058 1.05042,2.45388 1.45446,3.40734 1.28457,3.03133 2.54981,4.86752 3.69279,5.35922 0.32062,0.13793 2.43387,0.71248 4.6961,1.27679 6.93807,1.73067 9.19155,2.45649 12.24294,3.94333 2.85461,1.39096 4.79507,2.70676 7.4499,5.05168 1.46312,1.29233 2.5108,1.97505 3.65642,2.38271 0.98383,0.3501 2.74021,0.36916 4.07729,0.0442 z m 9.22421,-13.81242 c -0.43341,-0.43342 -0.11152,-1.74884 0.92982,-3.79959 1.19888,-2.36103 2.98579,-4.86724 6.1997,-8.69533 1.02131,-1.21648 2.64869,-3.15329 3.6164,-4.30402 4.64722,-5.52607 8.0359,-10.55234 10.51884,-15.60205 4.72475,-9.60901 7.35051,-21.64109 7.35051,-33.68233 0,-15.00419 -4.01944,-29.30628 -11.58429,-41.21951 -6.1915,-9.75047 -15.15617,-19.24813 -29.96142,-31.74275 -8.45832,-7.13823 -11.72804,-10.53726 -15.38458,-15.99295 -3.16396,-4.72074 -4.53118,-7.90307 -3.90582,-9.09115 0.30513,-0.5797 0.45188,-0.52845 1.83522,0.64089 1.64168,1.38773 5.36858,5.02181 12.43382,12.12416 l 6.8147,6.85047 3.39369,2.49549 c 13.07827,9.61686 16.00373,11.96943 22.66951,18.23013 12.35882,11.60776 19.32483,20.83826 23.31355,30.89221 3.83663,9.67062 5.39369,21.07564 4.59471,33.65501 -0.4027,6.34044 -1.06213,10.0812 -2.52544,14.32621 -2.74705,7.9691 -7.80244,16.05675 -16.00533,25.6055 -9.09436,10.58647 -15.79288,16.2951 -22.16119,18.88627 -1.48457,0.60405 -1.88296,0.68277 -2.1424,0.42334 z m -70.31733,12.6855 c 0.95419,-0.41083 1.49445,-1.15018 1.49445,-2.04516 0,-0.71251 -0.30656,-1.2873 -1.0964,-2.05572 -1.0224,-0.99468 -2.47646,-1.82403 -7.81758,-4.4589 -2.76562,-1.36433 -5.59013,-2.81866 -6.27669,-3.23186 -7.13339,-4.2931 -15.10936,-11.37929 -24.62814,-21.8807 -2.59363,-2.86136 -3.61277,-4.07595 -5.29517,-6.3107 -5.20748,-6.91712 -8.74024,-14.14754 -10.78222,-22.0677 -1.68057,-6.51834 -2.61375,-14.85398 -2.33059,-20.8179 0.46725,-9.84117 2.9757,-19.40459 7.4158,-28.27255 3.28563,-6.56221 7.52515,-12.33064 17.92504,-24.38942 6.88597,-7.98435 16.60845,-18.63249 23.45953,-25.69307 8.938,-9.21131 10.11317,-10.48328 12.87882,-13.93975 6.15553,-7.69307 9.502,-15.22162 9.99086,-22.47653 1.46883,-21.79733 1.77001,-26.93682 1.77955,-30.36722 0.01,-3.479 -0.1587,-4.71406 -0.83246,-6.10672 -0.6205,-1.28255 -1.91233,-2.32198 -2.88584,-2.32198 -0.76554,0 -1.32664,0.76913 -1.63195,2.23703 -0.28876,1.3883 -0.34796,3.12609 -0.18365,5.39099 0.13511,1.86246 0.12665,2.77236 -0.0663,7.14634 -0.14412,3.26599 -0.22742,7.36548 -0.23914,11.76707 -0.019,7.14293 -0.0539,7.70355 -0.64295,10.3416 -1.00923,4.51962 -3.29136,8.80742 -7.51363,14.11701 -1.29582,1.62954 -5.63902,5.98758 -7.86221,7.88907 -5.32218,4.55208 -8.53456,6.88543 -17.54101,12.74115 -6.39687,4.15905 -16.92131,12.23837 -24.41728,18.74447 -6.18049,5.36433 -11.63946,10.77741 -14.8655,14.74055 -1.91135,2.34805 -6.91432,9.6219 -8.97226,13.04481 -4.46848,7.43225 -6.80436,14.50603 -7.78441,23.57355 -1.90509,17.62619 1.74583,35.32402 10.44156,50.61541 4.86209,8.54997 10.53522,15.25907 18.12606,21.43606 7.69756,6.26385 18.77875,12.68597 30.12811,17.46082 5.84271,2.45811 12.42536,4.67236 15.72162,5.28837 1.28501,0.24014 3.64291,0.18623 4.30401,-0.0984 z m 17.4616,-8.26475 c 0.84103,-0.42722 1.05826,-0.77915 1.11019,-1.79848 0.12649,-2.48344 -2.49679,-7.15481 -10.20134,-18.16587 -3.20786,-4.58458 -5.77723,-8.4144 -6.57284,-9.79733 -4.01556,-6.97979 -8.51753,-18.80625 -11.10713,-29.17793 -1.64219,-6.5772 -2.42817,-11.66248 -2.55005,-16.49872 -0.076,-3.0159 0.032,-4.72892 0.50671,-8.03585 1.65097,-11.50134 7.3407,-27.27268 13.66346,-37.87366 0.43141,-0.72331 1.8955,-2.98292 3.25355,-5.02135 5.0586,-7.59298 7.51275,-11.74207 10.60749,-17.9334 2.98483,-5.97145 5.3347,-12.02289 6.25695,-16.11311 1.08498,-4.8119 1.70165,-12.75359 2.02124,-26.03038 0.25245,-10.48786 0.0905,-42.40201 -0.23991,-47.2844 -0.45694,-6.7512 -1.35328,-10.75893 -2.72074,-12.16483 -1.57618,-1.6205 -2.44179,1.15873 -2.79137,8.96242 -0.10199,2.27672 -0.10221,4.34724 -10e-4,8.20492 0.31728,12.07596 0.39972,17.70533 0.40557,27.69605 0.006,10.53794 -0.0833,14.20865 -0.4529,18.58456 -0.53022,6.27709 -2.37797,12.90914 -5.71433,20.51026 -0.8544,1.94654 -3.44695,7.45842 -3.79644,8.07145 -2.86647,5.02771 -7.35169,11.33676 -17.04046,23.96956 -5.58762,7.28546 -8.88843,11.91014 -11.64778,16.31939 -6.6906,10.6911 -10.50128,20.54056 -11.79512,30.48678 -0.31068,2.38835 -0.31045,8.85245 3.6e-4,11.65671 1.15148,10.38712 4.59377,21.68679 9.83371,32.28012 1.6519,3.33955 3.27624,6.22057 4.91612,8.71947 1.5829,2.41209 2.48594,3.60182 4.8413,6.37835 4.58186,5.40115 8.34269,9.49997 12.43139,13.54863 3.08816,3.0579 4.7444,4.56634 6.94936,6.32921 4.69671,3.75498 7.94719,5.13579 9.83382,4.17743 z"
         id="path4012" />
    </g>
  </g>
</svg>
