<?xml version="1.0" encoding="UTF-8" standalone="no"?>
<!-- Created with Inkscape (http://www.inkscape.org/) -->

<svg
   width="300mm"
   height="300mm"
   viewBox="0 0 300 300"
   version="1.1"
   id="svg5"
   inkscape:version="1.1 (c68e22c387, 2021-05-23)"
   sodipodi:docname="person_icon.svg"
   xmlns:inkscape="http://www.inkscape.org/namespaces/inkscape"
   xmlns:sodipodi="http://sodipodi.sourceforge.net/DTD/sodipodi-0.dtd"
   xmlns="http://www.w3.org/2000/svg"
   xmlns:svg="http://www.w3.org/2000/svg">
  <sodipodi:namedview
     id="namedview7"
     pagecolor="#ffffff"
     bordercolor="#666666"
     borderopacity="1.0"
     inkscape:pageshadow="2"
     inkscape:pageopacity="0.0"
     inkscape:pagecheckerboard="0"
     inkscape:document-units="mm"
     showgrid="false"
     inkscape:zoom="0.5"
     inkscape:cx="261"
     inkscape:cy="667"
     inkscape:window-width="1920"
     inkscape:window-height="1017"
     inkscape:window-x="1912"
     inkscape:window-y="-8"
     inkscape:window-maximized="1"
     inkscape:current-layer="layer1" />
  <defs
     id="defs2" />
  <g
     inkscape:label="Calque 1"
     inkscape:groupmode="layer"
     id="layer1">
    <path
       style="fill:#ffffff;stroke-width:0.306198"
       d="M 142.35617,299.87135 C 122.85947,298.5607 106.40869,294.64077 89.880669,287.36736 43.756581,267.06975 10.395412,224.38492 2.1359794,175.10012 0.52438953,165.48356 0.16690395,160.93078 0.16625587,150.01431 0.16560779,139.07012 0.49919542,134.8244 2.13385,124.97206 9.2055374,82.349765 35.566828,43.837779 73.002199,21.438408 92.804655,9.589665 113.0331,2.9662175 136.84459,0.53435498 c 5.7776,-0.59006531 21.9288,-0.48871022 28.01716,0.17582643 33.0776,3.61036139 61.78278,16.52396959 86.51287,38.91955559 24.15142,21.871545 40.97411,52.733548 46.50468,85.314983 1.61156,9.4939 1.97612,14.1188 1.97612,25.06959 0,10.94747 -0.36179,15.53925 -1.97833,25.10828 -6.91969,40.96102 -31.02797,77.58778 -66.17724,100.54045 -20.15383,13.16055 -42.43996,21.05673 -66.685,23.62711 -4.2014,0.44542 -19.02309,0.8256 -22.65868,0.5812 z m 17.46866,-10.24051 c 15.66282,-1.20252 30.67046,-4.79437 44.38344,-10.62249 24.41794,-10.37782 45.29662,-27.33019 60.67863,-49.2678 16.25351,-23.18053 25.05695,-51.19132 25.05695,-79.72624 0,-25.29265 -6.80442,-49.9336 -19.73497,-71.466518 C 248.85831,42.993273 213.35333,18.673166 172.97602,11.94554 160.11876,9.8032652 145.14409,9.5191284 132.25162,11.172809 110.19062,14.0025 88.188809,22.52569 70.124157,35.240094 57.915486,43.832895 46.050356,55.406089 37.238458,67.316666 8.8103127,105.74145 2.1854071,156.52621 19.779876,201.14947 c 12.826927,32.53175 37.875151,59.50578 69.557968,74.90583 15.507666,7.5378 32.662976,12.16354 50.262536,13.55274 4.72946,0.37332 15.50087,0.38546 20.22445,0.0228 z M 112.50181,230.8424 c -10.22307,-0.28143 -15.373118,-0.73226 -21.280796,-1.8629 -8.653095,-1.65608 -13.75749,-4.55705 -15.989512,-9.08726 -0.998992,-2.02759 -1.005056,-2.06746 -1.105324,-7.26172 -0.308729,-15.99419 5.038672,-29.82157 15.852027,-40.99033 7.751697,-8.00649 16.922925,-13.41259 27.319715,-16.10396 6.93209,-1.79448 7.86143,-1.84754 32.35923,-1.84754 24.13509,0 25.89531,0.0925 31.99591,1.68013 20.04671,5.21718 35.53384,19.91042 41.40609,39.28351 1.91873,6.33006 2.96696,16.07787 2.29018,21.29691 -0.93235,7.18998 -6.85105,11.27424 -19.32206,13.33338 -5.56871,0.91949 -10.00628,1.25515 -20.80332,1.57362 -10.83226,0.31951 -60.95983,0.30997 -72.72214,-0.0139 z m 28.01717,-82.03829 C 120.267,145.10837 105.0253,129.3227 102.53597,109.46552 c -0.24327,-1.94062 -0.31283,-4.59741 -0.19237,-7.34877 1.00607,-22.98123 19.32051,-41.431957 42.6918,-43.009488 14.12798,-0.953626 26.53418,3.70821 36.52446,13.724673 6.56183,6.579019 10.47145,13.716024 12.43028,22.691434 0.88263,4.044182 0.8111,12.855671 -0.13878,17.098131 -4.06805,18.16907 -17.17315,31.45856 -35.26668,35.76288 -4.53883,1.07974 -13.32972,1.28399 -18.0657,0.41973 z"
       id="path1344" />
  </g>
</svg>
