<?xml version="1.0" encoding="UTF-8" standalone="no"?>
<!-- Created with Inkscape (http://www.inkscape.org/) -->

<svg
   width="300mm"
   height="300mm"
   viewBox="0 0 300 300"
   version="1.1"
   id="svg5"
   inkscape:version="1.1 (c68e22c387, 2021-05-23)"
   sodipodi:docname="person.svg"
   xmlns:inkscape="http://www.inkscape.org/namespaces/inkscape"
   xmlns:sodipodi="http://sodipodi.sourceforge.net/DTD/sodipodi-0.dtd"
   xmlns="http://www.w3.org/2000/svg"
   xmlns:svg="http://www.w3.org/2000/svg">
  <sodipodi:namedview
     id="namedview7"
     pagecolor="#ffffff"
     bordercolor="#666666"
     borderopacity="1.0"
     inkscape:pageshadow="2"
     inkscape:pageopacity="0.0"
     inkscape:pagecheckerboard="0"
     inkscape:document-units="mm"
     showgrid="false"
     width="300mm"
     inkscape:zoom="0.5"
     inkscape:cx="253"
     inkscape:cy="545"
     inkscape:window-width="1920"
     inkscape:window-height="1017"
     inkscape:window-x="1912"
     inkscape:window-y="-8"
     inkscape:window-maximized="1"
     inkscape:current-layer="layer1" />
  <defs
     id="defs2" />
  <g
     inkscape:label="Calque 1"
     inkscape:groupmode="layer"
     id="layer1">
    <g
       id="g1204"
       transform="translate(-134.42917,1.6733921)" />
    <path
       style="fill:#ffffff;stroke-width:0.61733"
       d="m 124.96085,276.07536 c -33.843153,-2.05677 -60.705168,-7.69946 -68.089441,-14.303 l -2.39004,-2.13733 0.381854,-9.28638 c 0.801018,-19.481 5.908902,-39.23955 14.463835,-55.9496 6.430264,-12.56005 12.222728,-20.64294 21.576123,-30.10768 12.748199,-12.89998 26.932529,-21.19839 43.741669,-25.59073 6.91696,-1.80745 7.66249,-1.87744 19.99276,-1.87744 12.33025,0 13.07578,0.07 19.99274,1.87744 16.80913,4.39234 30.99349,12.69075 43.74168,25.59073 9.35339,9.46474 15.14583,17.54763 21.57614,30.10768 8.5549,16.71005 13.6628,36.4686 14.46383,55.9496 l 0.38183,9.28638 -2.39005,2.13733 c -7.56498,6.76514 -34.08816,12.23069 -69.65135,14.35281 -11.85017,0.70713 -45.8181,0.67784 -57.79158,-0.0499 z m 19.84162,-162.01752 c -6.99389,-1.13813 -17.05195,-5.46056 -22.96549,-9.86945 -9.48441,-7.07112 -16.84057,-17.73035 -20.08497,-29.103531 -1.6051,-5.626634 -1.6051,-21.212335 0,-26.838993 6.74271,-23.636293 28.1008,-39.6485402 52.8856,-39.6485402 21.36942,0 40.29776,11.7392312 49.31483,30.5847322 4.00221,8.36448 4.70181,11.709987 4.70181,22.483303 0,10.773295 -0.6996,14.118818 -4.70181,22.483309 -7.53218,15.74211 -22.87984,27.22914 -40.0052,29.94201 -4.6901,0.743 -14.48047,0.72618 -19.14477,-0.0327 z"
       id="path2726"
       sodipodi:nodetypes="cscssssssssscssccccscssssscc" />
  </g>
</svg>
