<?xml version="1.0" encoding="UTF-8" standalone="no"?>
<!-- Created with Inkscape (http://www.inkscape.org/) -->

<svg
   width="300mm"
   height="300mm"
   viewBox="0 0 300 300"
   version="1.1"
   id="svg5"
   inkscape:version="1.1 (c68e22c387, 2021-05-23)"
   sodipodi:docname="php.svg"
   xmlns:inkscape="http://www.inkscape.org/namespaces/inkscape"
   xmlns:sodipodi="http://sodipodi.sourceforge.net/DTD/sodipodi-0.dtd"
   xmlns="http://www.w3.org/2000/svg"
   xmlns:svg="http://www.w3.org/2000/svg">
  <sodipodi:namedview
     id="namedview7"
     pagecolor="#ffffff"
     bordercolor="#666666"
     borderopacity="1.0"
     inkscape:pageshadow="2"
     inkscape:pageopacity="0.0"
     inkscape:pagecheckerboard="0"
     inkscape:document-units="mm"
     showgrid="false"
     width="300mm"
     inkscape:zoom="0.45254834"
     inkscape:cx="659.59805"
     inkscape:cy="710.42135"
     inkscape:window-width="1920"
     inkscape:window-height="1017"
     inkscape:window-x="1912"
     inkscape:window-y="-8"
     inkscape:window-maximized="1"
     inkscape:current-layer="layer1" />
  <defs
     id="defs2" />
  <g
     inkscape:label="Calque 1"
     inkscape:groupmode="layer"
     id="layer1">
    <g
       id="g1204"
       transform="translate(-134.42917,1.6733921)" />
    <g
       id="g7861"
       transform="matrix(1.0393723,0,0,1.0393723,-3.9490953,-7.2311783)">
      <path
         style="fill:#7579b1;stroke-width:0.246376"
         d="m 147.67732,228.5823 c 0.64774,-0.0509 1.64557,-0.0503 2.21738,0.001 0.57182,0.0517 0.0418,0.0933 -1.17772,0.0926 -1.21956,-7.3e-4 -1.68741,-0.043 -1.03966,-0.0939 z m -10.48392,-0.2428 c 0.43738,-0.0544 1.21346,-0.0553 1.72464,-0.002 0.51117,0.0533 0.15332,0.0979 -0.79523,0.099 -0.94855,9.9e-4 -1.36678,-0.0425 -0.92941,-0.097 z m 20.44922,0 c 0.43737,-0.0544 1.21346,-0.0553 1.72463,-0.002 0.51117,0.0533 0.15332,0.0979 -0.79522,0.099 -0.94855,9.9e-4 -1.36679,-0.0425 -0.92941,-0.097 z m -25.49105,-0.24535 c 0.37451,-0.0566 0.92886,-0.0551 1.23188,0.003 0.30303,0.0585 -0.003,0.10481 -0.68092,0.10296 -0.67753,-0.002 -0.92546,-0.0497 -0.55096,-0.10632 z m 31.1632,0.003 c 0.30489,-0.0587 0.8038,-0.0587 1.10869,0 0.30489,0.0587 0.0554,0.10677 -0.55435,0.10677 -0.60978,0 -0.85924,-0.0481 -0.55434,-0.10677 z m -34.73616,-0.24676 c 0.30647,-0.0589 0.74994,-0.0567 0.9855,0.005 0.23556,0.0617 -0.0152,0.10988 -0.55722,0.10715 -0.54203,-0.003 -0.73475,-0.0532 -0.42828,-0.11212 z m 38.68105,0 c 0.30647,-0.0589 0.74994,-0.0567 0.9855,0.005 0.23556,0.0617 -0.0152,0.10988 -0.55722,0.10715 -0.54203,-0.003 -0.73475,-0.0532 -0.42828,-0.11212 z m -42.01,-0.24194 c 0.23713,-0.062 0.62517,-0.062 0.86231,0 0.23714,0.062 0.0431,0.11267 -0.43116,0.11267 -0.47427,0 -0.66829,-0.0507 -0.43115,-0.11267 z m 45.08682,0 c 0.23714,-0.062 0.62518,-0.062 0.86232,0 0.23714,0.062 0.0431,0.11267 -0.43116,0.11267 -0.47427,0 -0.66829,-0.0507 -0.43116,-0.11267 z m -47.79227,-0.24728 c 0.23971,-0.0625 0.57232,-0.0584 0.73912,0.009 0.16681,0.0675 -0.0293,0.1186 -0.43584,0.11358 -0.40652,-0.005 -0.543,-0.0602 -0.30328,-0.12271 z m 50.75348,0 c 0.23971,-0.0625 0.57232,-0.0584 0.73912,0.009 0.16681,0.0675 -0.0293,0.1186 -0.43584,0.11358 -0.40652,-0.005 -0.543,-0.0602 -0.30328,-0.12271 z m -53.21724,-0.24638 c 0.23971,-0.0625 0.57232,-0.0584 0.73912,0.009 0.16681,0.0675 -0.0293,0.1186 -0.43584,0.11358 -0.40652,-0.005 -0.543,-0.0602 -0.30328,-0.12271 z m 55.681,0 c 0.23971,-0.0625 0.57232,-0.0584 0.73913,0.009 0.1668,0.0675 -0.0293,0.1186 -0.43585,0.11358 -0.40652,-0.005 -0.543,-0.0602 -0.30328,-0.12271 z m -57.89839,-0.24637 c 0.23972,-0.0625 0.57232,-0.0584 0.73913,0.009 0.1668,0.0675 -0.0293,0.11859 -0.43585,0.11357 -0.40652,-0.005 -0.543,-0.0602 -0.30328,-0.1227 z m 60.23427,0.008 c 0.16939,-0.0684 0.44656,-0.0684 0.61594,0 0.16939,0.0684 0.0308,0.12427 -0.30797,0.12427 -0.33876,0 -0.47735,-0.0559 -0.30797,-0.12427 z m -62.45165,-0.25394 c 0.23971,-0.0625 0.57232,-0.0584 0.73912,0.009 0.16681,0.0675 -0.0293,0.1186 -0.43584,0.11358 -0.40652,-0.005 -0.543,-0.0602 -0.30328,-0.12271 z m 64.42266,0.008 c 0.16938,-0.0684 0.44656,-0.0684 0.61594,0 0.16939,0.0683 0.0308,0.12427 -0.30797,0.12427 -0.33877,0 -0.47735,-0.0559 -0.30797,-0.12427 z m -66.27517,-0.24637 c 0.16938,-0.0684 0.44655,-0.0684 0.61594,0 0.16938,0.0683 0.0308,0.12426 -0.30797,0.12426 -0.33877,0 -0.47736,-0.0559 -0.30797,-0.12426 z m 68.49256,0 c 0.16938,-0.0684 0.44655,-0.0684 0.61594,0 0.16938,0.0683 0.0308,0.12426 -0.30797,0.12426 -0.33877,0 -0.47736,-0.0559 -0.30797,-0.12426 z m -70.46357,-0.24638 c 0.16938,-0.0684 0.44655,-0.0684 0.61594,0 0.16938,0.0683 0.0308,0.12427 -0.30797,0.12427 -0.33877,0 -0.47736,-0.0559 -0.30797,-0.12427 z m 72.1882,0 c 0.16938,-0.0684 0.44656,-0.0684 0.61594,0 0.16938,0.0683 0.0308,0.12427 -0.30797,0.12427 -0.33877,0 -0.47735,-0.0559 -0.30797,-0.12427 z m -73.91284,-0.24638 c 0.16939,-0.0683 0.44656,-0.0683 0.61594,0 0.16939,0.0684 0.0308,0.12427 -0.30797,0.12427 -0.33876,0 -0.47735,-0.0559 -0.30797,-0.12427 z m 75.89925,-0.005 c 0.17785,-0.0712 0.39035,-0.0624 0.47222,0.0194 0.0819,0.0819 -0.0636,0.1401 -0.32337,0.1294 -0.28702,-0.0118 -0.3454,-0.0702 -0.14885,-0.14885 z m -77.62388,-0.24125 c 0.16938,-0.0684 0.44656,-0.0684 0.61594,0 0.16939,0.0683 0.0308,0.12427 -0.30797,0.12427 -0.33877,0 -0.47735,-0.0559 -0.30797,-0.12427 z m 79.10213,-0.005 c 0.17785,-0.0712 0.39036,-0.0624 0.47222,0.0194 0.0819,0.0819 -0.0636,0.1401 -0.32336,0.1294 -0.28702,-0.0118 -0.3454,-0.0702 -0.14886,-0.14885 z m -80.56499,-0.24638 c 0.17785,-0.0712 0.39036,-0.0624 0.47222,0.0194 0.0819,0.0819 -0.0636,0.1401 -0.32336,0.1294 -0.28702,-0.0118 -0.3454,-0.0702 -0.14886,-0.14885 z m 82.28963,0 c 0.17785,-0.0712 0.39035,-0.0624 0.47222,0.0194 0.0819,0.0819 -0.0636,0.1401 -0.32337,0.1294 -0.28702,-0.0118 -0.3454,-0.0702 -0.14885,-0.14885 z m -83.76788,-0.24638 c 0.17785,-0.0712 0.39035,-0.0624 0.47222,0.0194 0.0819,0.0819 -0.0636,0.1401 -0.32337,0.12941 -0.28702,-0.0118 -0.3454,-0.0702 -0.14885,-0.14885 z m 85.24613,0 c 0.17785,-0.0712 0.39036,-0.0624 0.47222,0.0194 0.0819,0.0819 -0.0636,0.1401 -0.32336,0.12941 -0.28702,-0.0118 -0.3454,-0.0702 -0.14886,-0.14885 z m -86.72439,-0.24637 c 0.17785,-0.0712 0.39035,-0.0624 0.47222,0.0194 0.0819,0.0819 -0.0637,0.1401 -0.32337,0.1294 -0.28701,-0.0118 -0.34539,-0.0702 -0.14885,-0.14885 z m 88.20265,0 c 0.17785,-0.0712 0.39035,-0.0624 0.47222,0.0194 0.0819,0.0819 -0.0636,0.1401 -0.32337,0.1294 -0.28701,-0.0118 -0.34539,-0.0702 -0.14885,-0.14885 z m -89.68091,-0.24638 c 0.17785,-0.0712 0.39036,-0.0624 0.47222,0.0194 0.0819,0.0819 -0.0636,0.1401 -0.32336,0.1294 -0.28702,-0.0118 -0.3454,-0.0702 -0.14886,-0.14885 z m 91.15917,0 c 0.17785,-0.0712 0.39035,-0.0624 0.47222,0.0194 0.0819,0.0819 -0.0636,0.1401 -0.32337,0.1294 -0.28702,-0.0118 -0.3454,-0.0702 -0.14885,-0.14885 z m -92.39105,-0.24637 c 0.17785,-0.0712 0.39036,-0.0624 0.47222,0.0194 0.0819,0.0819 -0.0636,0.1401 -0.32336,0.1294 -0.28702,-0.0118 -0.3454,-0.0702 -0.14886,-0.14885 z m -6.482769,-1.17756 C 70.712863,218.0515 50.828608,210.19698 35.072005,199.65172 9.9727774,182.85382 -0.33949415,161.29952 6.5796831,140.09821 14.412634,116.09697 44.530816,95.349668 86.879874,84.78237 119.1337,76.734122 157.33735,75.329283 191.24418,80.944648 c 7.82315,1.295605 18.7752,3.609974 18.57974,3.92624 -0.0519,0.08404 0.062,1.256891 0.25313,2.606334 0.19116,1.349444 0.34972,2.57495 0.35236,2.723346 0.003,0.148396 1.36294,0.635092 3.0229,1.081546 4.72137,1.269837 14.14149,4.435533 19.30292,6.486877 17.17533,6.826129 29.64947,14.581389 39.16097,24.346689 3.48891,3.582 5.12684,5.58608 7.35524,8.99943 7.0719,10.83248 8.74463,22.3289 4.92286,33.83423 -7.48298,22.52726 -37.37676,42.19797 -78.59521,51.71724 -24.61811,5.68547 -52.3631,7.63268 -79.17915,5.55697 -2.64238,-0.20453 -5.62769,-0.46061 -6.63402,-0.56906 -1.28018,-0.13796 -2.2421,-0.1 -3.20289,0.1265 -2.24406,0.52895 -10.04596,1.77568 -12.82969,2.05016 -1.42282,0.14029 -2.91956,0.30102 -3.32608,0.35719 -0.40652,0.0562 -2.956512,-0.37534 -5.666649,-0.95889 z M 67.772613,198.05648 c 0.375184,-0.22163 0.855339,-0.69615 1.067013,-1.05448 0.211674,-0.35833 1.061576,-4.14058 1.888672,-8.40499 0.8271,-4.26441 1.619189,-8.33553 1.7602,-9.04694 l 0.256387,-1.29348 h 8.299236 c 10.959213,0 15.32351,-0.50039 20.491829,-2.34949 6.44473,-2.30576 12.42929,-7.07485 16.9931,-13.54177 0.88936,-1.26021 1.02218,-1.36923 0.90051,-0.73913 -0.0785,0.40653 -0.70718,3.65293 -1.39706,7.21425 -1.39321,7.19206 -1.39117,7.58284 0.046,8.79214 l 0.74159,0.624 h 9.33482 9.33481 l 0.84485,-0.74178 c 0.46467,-0.40799 0.91193,-1.00908 0.99392,-1.33576 0.082,-0.32669 1.81231,-9.16731 3.84514,-19.64584 2.03283,-10.47852 3.817,-19.64517 3.96482,-20.37032 l 0.26877,-1.31846 6.93747,0.11517 c 6.99006,0.11605 8.41574,0.2849 9.33964,1.10616 0.87215,0.77526 0.56895,2.9227 -3.02949,21.45678 -3.80908,19.61902 -3.72163,18.80498 -2.16101,20.11817 l 0.75124,0.63212 9.70342,-0.0697 c 5.33688,-0.0383 9.70337,-0.004 9.7033,0.0773 -6e-5,0.0809 -0.73049,3.90585 -1.62317,8.49998 -1.03637,5.33362 -1.57342,8.66023 -1.48573,9.20305 0.0782,0.48423 0.46069,1.17347 0.88866,1.60144 l 0.75135,0.75135 h 9.59919 9.59919 l 0.78397,-0.78397 c 0.76612,-0.76612 0.82498,-0.99323 2.58594,-9.97823 0.99109,-5.05685 1.80456,-9.21136 1.80772,-9.23226 0.003,-0.0209 4.4128,-0.0913 9.7992,-0.15647 8.60892,-0.10415 10.13614,-0.18188 12.62677,-0.64265 7.97534,-1.47544 12.90729,-4.05806 18.61969,-9.7502 6.8082,-6.78403 10.0802,-13.94956 10.95141,-23.98301 0.84978,-9.78644 -2.54137,-17.708 -9.60253,-22.43113 -3.32724,-2.22555 -7.20851,-3.63622 -12.35082,-4.48896 -2.49694,-0.41406 -37.88486,-0.63174 -39.19733,-0.24111 -1.7051,0.50749 -1.95668,1.0832 -3.13571,7.17562 -0.58828,3.03988 -1.2003,6.19227 -1.36004,7.00531 l -0.29042,1.47826 -0.42104,-2.0942 c -0.64687,-3.21746 -1.7958,-5.38197 -4.05393,-7.63737 -2.35389,-2.35104 -5.22265,-3.84832 -9.17363,-4.78793 -4.07306,-0.96865 -5.98229,-1.13646 -14.72097,-1.29386 -4.5056,-0.0811 -8.19201,-0.22576 -8.19201,-0.32135 0,-0.0956 0.72639,-3.91357 1.6142,-8.4844 1.78486,-9.189256 1.7903,-9.368669 0.32146,-10.604613 l -0.74158,-0.624004 h -9.34701 -9.34701 l -0.86713,0.800723 c -0.98852,0.912813 -0.49885,-1.271117 -5.55177,24.760794 -1.40062,7.21575 -2.60967,13.11953 -2.68679,13.11953 -0.0771,0 -0.33699,-0.76381 -0.57747,-1.69736 -1.65302,-6.41682 -6.79328,-11.96857 -13.46896,-14.54717 -1.0163,-0.39256 -2.73477,-0.93856 -3.81883,-1.21333 -4.29474,-1.08857 -5.48537,-1.14353 -24.771392,-1.14353 -17.26641,0 -18.406114,0.0265 -19.042292,0.44321 -0.372171,0.24377 -0.839763,0.79812 -1.039096,1.23189 -0.337989,0.73549 -15.1398,76.36172 -15.1398,77.3531 0,0.77583 0.728813,1.90726 1.551812,2.40907 0.744546,0.45398 1.297641,0.48099 9.866664,0.48186 7.962386,7.4e-4 9.161728,-0.0486 9.760057,-0.40203 z m -13.987805,-2.73785 c 2.261066,-0.0406 6.03062,-0.0407 8.376788,-1.6e-4 2.346169,0.0405 0.496207,0.0738 -4.111027,0.0739 -4.607233,9e-5 -6.526826,-0.0331 -4.265761,-0.0737 z m 128.854712,0 c 2.26106,-0.0406 6.03062,-0.0407 8.37679,-1.6e-4 2.34616,0.0405 0.4962,0.0738 -4.11103,0.0739 -4.60723,9e-5 -6.52683,-0.0331 -4.26576,-0.0737 z m -95.452102,-20.1928 c 0.30647,-0.0589 0.749947,-0.0567 0.985504,0.005 0.235558,0.0617 -0.0152,0.10989 -0.557219,0.10715 -0.542027,-0.003 -0.734755,-0.0532 -0.428285,-0.11212 z m 128.854712,0 c 0.30647,-0.0589 0.74994,-0.0567 0.9855,0.005 0.23556,0.0617 -0.0152,0.10989 -0.55722,0.10715 -0.54202,-0.003 -0.73475,-0.0532 -0.42828,-0.11212 z M 91.141962,174.8854 c 0.177851,-0.0712 0.390353,-0.0624 0.472221,0.0194 0.08187,0.0819 -0.06365,0.1401 -0.323368,0.1294 -0.287016,-0.0118 -0.345395,-0.0702 -0.148853,-0.14885 z m 18.770778,-7.56238 c 0,-0.0512 0.19402,-0.24518 0.43116,-0.43116 0.39077,-0.30646 0.39948,-0.29774 0.093,0.093 -0.32186,0.4104 -0.52418,0.54091 -0.52418,0.33813 z m 129.84022,-1.01567 c 0.31825,-0.33877 0.63408,-0.61594 0.70183,-0.61594 0.0677,0 -0.1372,0.27717 -0.45546,0.61594 -0.31825,0.33877 -0.63408,0.61594 -0.70183,0.61594 -0.0678,0 0.1372,-0.27717 0.45546,-0.61594 z m 1.47825,-1.47826 c 0.31826,-0.33876 0.63408,-0.61594 0.70184,-0.61594 0.0677,0 -0.13721,0.27718 -0.45546,0.61594 -0.31826,0.33877 -0.63408,0.61594 -0.70184,0.61594 -0.0677,0 0.13721,-0.27717 0.45546,-0.61594 z m -128.36195,-0.46258 c 0,-0.0512 0.19402,-0.24518 0.43115,-0.43116 0.39077,-0.30646 0.39949,-0.29775 0.093,0.093 -0.32186,0.4104 -0.52418,0.54092 -0.52418,0.33814 z m -27.162971,-1.30203 c 0.169383,-0.0684 0.446556,-0.0684 0.61594,0 0.169383,0.0684 0.0308,0.12427 -0.30797,0.12427 -0.338767,0 -0.477354,-0.0559 -0.30797,-0.12427 z m 128.854711,0 c 0.16938,-0.0684 0.44655,-0.0684 0.61594,0 0.16938,0.0684 0.0308,0.12427 -0.30797,0.12427 -0.33877,0 -0.47736,-0.0559 -0.30797,-0.12427 z m -138.154668,-3.2245 c 7.39e-4,-0.47842 4.615878,-24.37767 4.810777,-24.91282 0.180138,-0.49461 12.350751,-0.24168 14.746933,0.30648 2.430698,0.55605 3.76697,1.2746 4.538518,2.44049 0.58958,0.89092 0.66812,1.26984 0.74822,3.61008 0.25275,7.38439 -2.925922,14.5577 -7.426164,16.75861 -3.041045,1.48728 -7.910066,2.21456 -14.893671,2.22466 -2.24252,0.003 -2.525271,-0.0446 -2.524613,-0.4275 z m 128.815298,0.31037 c -0.0664,-0.0664 0.96559,-5.69305 2.29338,-12.50359 1.3278,-6.81054 2.41693,-12.53423 2.42031,-12.71931 0.009,-0.49458 12.49221,-0.24227 14.85777,0.30031 2.37843,0.54553 4.04053,1.51395 4.69439,2.73518 0.47576,0.8886 0.53118,1.3573 0.51113,4.32274 -0.027,3.98808 -0.71737,7.01964 -2.3566,10.3478 -2.4168,4.90688 -6.08323,6.85979 -13.88173,7.39405 -3.70103,0.25355 -8.34117,0.32029 -8.53865,0.12282 z m -83.70976,-15.791 c 0.0118,-0.28702 0.0702,-0.3454 0.14885,-0.14886 0.0712,0.17786 0.0624,0.39036 -0.0194,0.47223 -0.0819,0.0819 -0.1401,-0.0636 -0.1294,-0.32337 z m -17.24633,-0.24638 c 0.0118,-0.28702 0.0702,-0.34539 0.14885,-0.14885 0.0712,0.17785 0.0624,0.39035 -0.0194,0.47222 -0.0819,0.0819 -0.1401,-0.0636 -0.1294,-0.32337 z m 146.10103,-0.24638 c 0.0118,-0.28701 0.0702,-0.34539 0.14886,-0.14885 0.0712,0.17785 0.0624,0.39035 -0.0195,0.47222 -0.0819,0.0819 -0.14011,-0.0637 -0.12942,-0.32337 z m -17.24632,-0.24637 c 0.0118,-0.28702 0.0702,-0.3454 0.14885,-0.14885 0.0712,0.17785 0.0624,0.39035 -0.0194,0.47222 -0.0819,0.0819 -0.1401,-0.0636 -0.1294,-0.32337 z m 0,-3.69564 c 0.0118,-0.28702 0.0702,-0.3454 0.14885,-0.14886 0.0712,0.17786 0.0624,0.39036 -0.0194,0.47223 -0.0819,0.0819 -0.1401,-0.0636 -0.1294,-0.32337 z m -66.0288,-0.24638 c 0.0118,-0.28702 0.0702,-0.34539 0.14885,-0.14885 0.0712,0.17785 0.0624,0.39035 -0.0194,0.47222 -0.0819,0.0819 -0.1401,-0.0636 -0.1294,-0.32337 z m 83.27512,-1.47826 c 0.0118,-0.28701 0.0702,-0.34539 0.14886,-0.14885 0.0712,0.17785 0.0624,0.39035 -0.0195,0.47222 -0.0819,0.0819 -0.14011,-0.0636 -0.12942,-0.32337 z m -128.8547,-0.49275 c 0.0118,-0.28701 0.0702,-0.34539 0.14885,-0.14885 0.0712,0.17785 0.0624,0.39035 -0.0194,0.47222 -0.0819,0.0819 -0.1401,-0.0636 -0.1294,-0.32337 z m 62.84536,-1.82729 c 0,-0.33877 0.0559,-0.47735 0.12427,-0.30797 0.0683,0.16938 0.0683,0.44656 0,0.61594 -0.0684,0.16938 -0.12427,0.0308 -0.12427,-0.30797 z m -82.34717,-1.17029 -0.59729,-0.67753 0.67753,0.59729 c 0.37264,0.32852 0.67753,0.63341 0.67753,0.67754 0,0.19322 -0.19951,0.036 -0.75777,-0.5973 z m 128.84193,0 c -0.30646,-0.39076 -0.29775,-0.39948 0.093,-0.093 0.4104,0.32186 0.54091,0.52418 0.33814,0.52418 -0.0512,0 -0.24519,-0.19402 -0.43116,-0.43116 z m -46.49476,-1.78622 c 0,-0.33877 0.0559,-0.47736 0.12427,-0.30797 0.0683,0.16938 0.0683,0.44655 0,0.61594 -0.0684,0.16938 -0.12427,0.0308 -0.12427,-0.30797 z m -23.24445,-0.90743 c 0.17785,-0.0712 0.39035,-0.0624 0.47222,0.0194 0.0819,0.0819 -0.0636,0.1401 -0.32337,0.1294 -0.28701,-0.0118 -0.34539,-0.0702 -0.14885,-0.14885 z m 61.59403,-0.24638 c 0.17785,-0.0712 0.39035,-0.0624 0.47222,0.0194 0.0819,0.0819 -0.0637,0.1401 -0.32337,0.1294 -0.28701,-0.0118 -0.34539,-0.0702 -0.14885,-0.14885 z M 81.532024,131.50735 c 1.66773,-0.0427 4.328592,-0.0426 5.913027,2.5e-4 1.584435,0.0428 0.219928,0.0778 -3.032237,0.0776 -3.252165,-1.6e-4 -4.54852,-0.0352 -2.88079,-0.0779 z m 128.854706,0 c 1.66773,-0.0427 4.3286,-0.0426 5.91303,2.5e-4 1.58443,0.0428 0.21993,0.0778 -3.03224,0.0776 -3.25216,-1.6e-4 -4.54852,-0.0352 -2.88079,-0.0779 z m -94.34601,-5.4209 c -0.30646,-0.39077 -0.29775,-0.39948 0.093,-0.093 0.4104,0.32186 0.54091,0.52418 0.33814,0.52418 -0.0512,0 -0.24519,-0.19402 -0.43116,-0.43116 z m 64.93603,-1.35507 -0.72363,-0.80072 0.80073,0.72363 c 0.44039,0.39799 0.80072,0.75832 0.80072,0.80072 0,0.19034 -0.20329,0.0228 -0.87782,-0.72363 z m -12.22631,-4.78785 c 0.17785,-0.0712 0.39035,-0.0624 0.47222,0.0194 0.0819,0.0819 -0.0636,0.1401 -0.32337,0.1294 -0.28701,-0.0118 -0.34539,-0.0702 -0.14885,-0.14885 z m -68.985314,-0.24638 c 0.177851,-0.0712 0.390354,-0.0624 0.472224,0.0194 0.0819,0.0819 -0.0637,0.1401 -0.323371,0.1294 -0.287016,-0.0118 -0.345395,-0.0702 -0.148853,-0.14885 z m 66.141274,-0.002 c 0.23972,-0.0625 0.57233,-0.0584 0.73913,0.009 0.16681,0.0675 -0.0293,0.1186 -0.43585,0.11358 -0.40652,-0.005 -0.54299,-0.0602 -0.30328,-0.12271 z m 62.71343,0.002 c 0.17786,-0.0712 0.39036,-0.0624 0.47223,0.0194 0.0819,0.0819 -0.0636,0.1401 -0.32337,0.1294 -0.28702,-0.0118 -0.3454,-0.0702 -0.14886,-0.14885 z m -32.27527,104.46347 c 0.17785,-0.0712 0.39036,-0.0624 0.47223,0.0194 0.0819,0.0819 -0.0636,0.1401 -0.32337,0.1294 -0.28702,-0.0118 -0.3454,-0.0702 -0.14886,-0.14885 z m 1.23188,-0.24637 c 0.17786,-0.0712 0.39036,-0.0624 0.47223,0.0194 0.0819,0.0819 -0.0636,0.1401 -0.32337,0.1294 -0.28702,-0.0118 -0.3454,-0.0702 -0.14886,-0.14885 z M 267.1007,195.4099 c 0,-0.0512 0.19403,-0.24518 0.43116,-0.43116 0.39078,-0.30646 0.39948,-0.29775 0.093,0.093 -0.32186,0.4104 -0.52419,0.54092 -0.52419,0.33814 z m 1.23189,-0.98551 c 0,-0.0512 0.19402,-0.24518 0.43115,-0.43115 0.39078,-0.30646 0.39948,-0.29775 0.093,0.093 -0.32186,0.4104 -0.52418,0.54091 -0.52418,0.33813 z m 1.47825,-1.23188 c 0,-0.0512 0.19402,-0.24518 0.43116,-0.43115 0.39078,-0.30646 0.39947,-0.29775 0.093,0.093 -0.32186,0.4104 -0.52419,0.54091 -0.52419,0.33813 z m 1.47826,-1.21595 c 0,-0.0424 0.36032,-0.40273 0.80072,-0.80072 l 0.80072,-0.72363 -0.72363,0.80072 c -0.67453,0.74639 -0.87781,0.91397 -0.87781,0.72363 z m 3.93172,-3.68014 c 1.02098,-1.0878 1.24218,-1.2834 1.24218,-1.0984 0,0.0395 -0.52663,0.56617 -1.17029,1.17029 l -1.17029,1.0984 z m 3.21319,-3.51086 c 0.31824,-0.33877 0.63407,-0.61594 0.70182,-0.61594 0.0678,0 -0.1372,0.27717 -0.45545,0.61594 -0.31824,0.33877 -0.63407,0.61594 -0.70183,0.61594 -0.0677,0 0.13721,-0.27717 0.45546,-0.61594 z m 1.23188,-1.44809 c 0,-0.0512 0.19402,-0.24518 0.43115,-0.43116 0.39078,-0.30646 0.39948,-0.29774 0.093,0.093 -0.32187,0.4104 -0.52419,0.54092 -0.52419,0.33814 z M 291.265,158.89554 c 0.0118,-0.28702 0.0702,-0.3454 0.14886,-0.14886 0.0712,0.17786 0.0624,0.39036 -0.0195,0.47223 -0.0819,0.0819 -0.14011,-0.0636 -0.12942,-0.32337 z m 0.27496,-1.95048 c 0.005,-0.40652 0.0602,-0.543 0.12272,-0.30328 0.0624,0.23971 0.0584,0.57232 -0.009,0.73913 -0.0675,0.1668 -0.11858,-0.0293 -0.11358,-0.43585 z m 0.25552,-3.81883 c 0,-0.47428 0.0507,-0.6683 0.11266,-0.43116 0.062,0.23714 0.062,0.62518 0,0.86232 -0.062,0.23713 -0.11266,0.0431 -0.11266,-0.43116 z m -0.25552,-4.06521 c 0.005,-0.40652 0.0602,-0.54299 0.12272,-0.30328 0.0624,0.23972 0.0584,0.57233 -0.009,0.73913 -0.0675,0.1668 -0.11858,-0.0293 -0.11358,-0.43585 z m -0.27496,-1.99154 c 0.0118,-0.28701 0.0702,-0.34539 0.14886,-0.14885 0.0712,0.17785 0.0624,0.39035 -0.0195,0.47222 -0.0819,0.0819 -0.14011,-0.0637 -0.12942,-0.32337 z m -0.24637,-1.47825 c 0.0118,-0.28702 0.0702,-0.3454 0.14886,-0.14886 0.0712,0.17786 0.0624,0.39036 -0.0195,0.47223 -0.0819,0.0819 -0.14011,-0.0636 -0.12942,-0.32337 z m -0.24638,-1.23188 c 0.0118,-0.28702 0.0702,-0.3454 0.14886,-0.14886 0.0712,0.17786 0.0624,0.39036 -0.0195,0.47223 -0.0819,0.0819 -0.14012,-0.0636 -0.12942,-0.32337 z m -11.38418,-21.96854 c -0.30644,-0.39077 -0.29774,-0.39948 0.093,-0.093 0.41039,0.32186 0.54092,0.52418 0.33813,0.52418 -0.0512,0 -0.24517,-0.19402 -0.43116,-0.43116 z m -1.83188,-2.0942 -0.72363,-0.80072 0.80072,0.72363 c 0.7464,0.67452 0.91398,0.87781 0.72363,0.87781 -0.0424,0 -0.40272,-0.36032 -0.80072,-0.80072 z m -4.80209,-4.80433 -0.84906,-0.92391 0.92391,0.84905 c 0.85995,0.79028 1.03719,0.99877 0.84906,0.99877 -0.0412,0 -0.45693,-0.41576 -0.92391,-0.92391 z m -2.35072,-2.0942 -0.46935,-0.55435 0.55435,0.46935 c 0.52093,0.44107 0.66649,0.63935 0.46934,0.63935 -0.0468,0 -0.29622,-0.24946 -0.55434,-0.55435 z m -1.3631,-1.10869 c -0.30645,-0.39077 -0.29775,-0.39948 0.093,-0.093 0.41039,0.32186 0.54092,0.52418 0.33812,0.52418 -0.0511,0 -0.24516,-0.19402 -0.43115,-0.43116 z m -2.46377,-1.97101 c -0.30644,-0.39077 -0.29774,-0.39948 0.093,-0.093 0.41038,0.32186 0.54091,0.52418 0.33812,0.52418 -0.0511,0 -0.24517,-0.19402 -0.43116,-0.43116 z M 215.06915,86.19 c 0.17785,-0.07117 0.39035,-0.06242 0.47222,0.01945 0.0819,0.08187 -0.0636,0.1401 -0.32337,0.129402 -0.28701,-0.01182 -0.34539,-0.0702 -0.14885,-0.148852 z m -2.71014,-0.739128 c 0.17785,-0.07117 0.39035,-0.06242 0.47222,0.01945 0.0819,0.08187 -0.0636,0.1401 -0.32337,0.129402 -0.28701,-0.01182 -0.34539,-0.0702 -0.14885,-0.148852 z m -0.9855,-0.246377 c 0.17785,-0.07117 0.39035,-0.06242 0.47222,0.01945 0.0819,0.08187 -0.0636,0.140099 -0.32337,0.129402 -0.28702,-0.01182 -0.3454,-0.0702 -0.14885,-0.148852 z M 210.388,84.958119 c 0.17785,-0.07117 0.39036,-0.06242 0.47222,0.01945 0.0819,0.08187 -0.0636,0.140099 -0.32336,0.129401 -0.28702,-0.01182 -0.3454,-0.0702 -0.14886,-0.148851 z"
         id="path7867" />
      <path
         style="fill:#494d89;stroke-width:0.246376"
         d="m 137.87643,228.36515 c -11.8319,-0.53023 -25.45625,-1.97724 -35.23178,-3.74188 l -2.46376,-0.44475 3.20288,-0.30998 c 3.21934,-0.31157 10.64072,-1.48552 13.19926,-2.08792 0.96021,-0.22608 1.92348,-0.26401 3.20289,-0.12613 16.8523,1.81615 37.76525,1.79796 55.90925,-0.0486 55.40521,-5.6388 99.13807,-28.47541 108.49913,-56.65653 3.23596,-9.74175 2.60045,-19.04431 -1.94952,-28.53714 -2.48623,-5.18712 -5.44518,-9.28282 -10.32858,-14.29652 -9.5115,-9.7653 -21.98564,-17.52056 -39.16097,-24.346689 -5.16143,-2.051344 -14.58155,-5.21704 -19.30292,-6.486877 -1.65996,-0.446454 -3.02027,-0.93315 -3.0229,-1.081546 -0.003,-0.148396 -0.16158,-1.376627 -0.35321,-2.729402 -0.19162,-1.352774 -0.31941,-2.488589 -0.28397,-2.524033 0.18206,-0.18206 10.12126,2.66737 15.17816,4.351364 25.69375,8.556271 45.55511,21.131643 56.67809,35.886163 6.24294,8.28123 9.61384,17.07039 10.00765,26.09375 0.47112,10.79494 -3.25966,21.18186 -11.19445,31.16658 -2.59195,3.26159 -8.17885,8.74801 -12.12909,11.91097 -18.4607,14.78148 -45.9862,25.66652 -77.97301,30.83463 -8.02359,1.29638 -15.14977,2.10221 -25.1354,2.84232 -3.43938,0.25492 -23.606,0.49992 -27.34775,0.33224 z M 74.234026,175.11579 c 2.261065,-0.0406 6.03062,-0.0407 8.376788,-1.7e-4 2.346168,0.0405 0.496207,0.0738 -4.111027,0.0739 -4.607233,9e-5 -6.526826,-0.0331 -4.265761,-0.0737 z m 53.774944,0.001 c 6.09806,-0.0527 8.17172,-0.14598 8.33395,-0.37475 0.15781,-0.22254 0.18881,-0.20503 0.11515,0.065 -0.087,0.31899 -1.22762,0.37028 -8.33395,0.37475 l -8.23315,0.005 8.118,-0.0702 z m 35.2442,0.008 c 7.46319,-0.17347 13.86365,-0.1779 13.7593,-0.01 -0.063,0.10163 -3.8498,0.16081 -8.41516,0.13151 -4.56536,-0.0293 -6.97022,-0.0842 -5.34414,-0.122 z m 39.83557,-0.009 c 2.26106,-0.0406 6.03061,-0.0407 8.37678,-1.6e-4 2.34617,0.0405 0.49621,0.0738 -4.11102,0.0739 -4.60724,9e-5 -6.52683,-0.0331 -4.26576,-0.0737 z m -112.685907,-0.2304 c 0.177852,-0.0712 0.390354,-0.0624 0.472222,0.0194 0.08187,0.0819 -0.06365,0.1401 -0.323369,0.1294 -0.287016,-0.0118 -0.345394,-0.0702 -0.148853,-0.14885 z m 128.854707,0 c 0.17785,-0.0712 0.39036,-0.0624 0.47222,0.0194 0.0819,0.0819 -0.0636,0.1401 -0.32336,0.1294 -0.28702,-0.0118 -0.3454,-0.0702 -0.14886,-0.14885 z m -107.63046,-9.25557 c 1.02097,-1.0878 1.24218,-1.2834 1.24218,-1.0984 0,0.0395 -0.52663,0.56617 -1.17029,1.17029 l -1.17029,1.09839 z m -24.919888,-2.57047 c 0.177851,-0.0712 0.390353,-0.0624 0.472221,0.0194 0.08187,0.0819 -0.06365,0.1401 -0.323368,0.1294 -0.287016,-0.0118 -0.345395,-0.0702 -0.148853,-0.14885 z m 128.854708,0 c 0.17785,-0.0712 0.39035,-0.0624 0.47222,0.0194 0.0819,0.0819 -0.0636,0.1401 -0.32337,0.1294 -0.28701,-0.0118 -0.34539,-0.0702 -0.14885,-0.14885 z m -94.05003,-19.43913 c 0.0118,-0.28702 0.0702,-0.3454 0.14885,-0.14885 0.0712,0.17785 0.0624,0.39035 -0.0194,0.47222 -0.0819,0.0819 -0.1401,-0.0636 -0.1294,-0.32337 z m 128.88328,-0.7186 c 0.005,-0.40652 0.0602,-0.543 0.12272,-0.30328 0.0625,0.23972 0.0584,0.57232 -0.009,0.73913 -0.0675,0.1668 -0.11858,-0.0293 -0.11358,-0.43585 z m -0.009,-3.81883 c 0,-0.33877 0.0559,-0.47735 0.12427,-0.30797 0.0684,0.16938 0.0684,0.44656 0,0.61594 -0.0683,0.16938 -0.12427,0.0308 -0.12427,-0.30797 z m -128.87416,-0.63647 c 0.0118,-0.28702 0.0702,-0.34539 0.14885,-0.14885 0.0712,0.17785 0.0624,0.39035 -0.0194,0.47222 -0.0819,0.0819 -0.1401,-0.0636 -0.1294,-0.32337 z m 62.87356,-4.04468 c 0,-0.60978 0.048,-0.85923 0.10677,-0.55434 0.0587,0.30489 0.0587,0.8038 0,1.10869 -0.0587,0.30489 -0.10677,0.0554 -0.10677,-0.55435 z m -18.57674,-0.67753 c -0.30646,-0.39077 -0.29774,-0.39948 0.093,-0.093 0.41041,0.32186 0.54092,0.52418 0.33814,0.52418 -0.0512,0 -0.24518,-0.19402 -0.43116,-0.43116 z M 148.5322,131.7536 c 2.06648,-0.0412 5.44799,-0.0412 7.51447,0 2.06648,0.0412 0.37572,0.0749 -3.75724,0.0749 -4.13296,0 -5.82371,-0.0337 -3.75723,-0.0749 z m -57.771813,-0.23889 c 0.374506,-0.0566 0.928852,-0.0551 1.23188,0.003 0.303028,0.0585 -0.0034,0.10482 -0.680922,0.10297 -0.677534,-0.002 -0.925465,-0.0497 -0.550958,-0.10633 z m 128.854713,0 c 0.3745,-0.0566 0.92885,-0.0551 1.23188,0.003 0.30302,0.0585 -0.003,0.10482 -0.68093,0.10297 -0.67753,-0.002 -0.92546,-0.0497 -0.55095,-0.10633 z M 98.645723,119.69472 c 0.239717,-0.0625 0.572325,-0.0584 0.739129,0.009 0.166804,0.0675 -0.02933,0.1186 -0.435847,0.11358 -0.406521,-0.005 -0.542998,-0.0602 -0.303282,-0.12271 z m 66.028797,0 c 0.23972,-0.0625 0.57233,-0.0584 0.73913,0.009 0.1668,0.0675 -0.0293,0.1186 -0.43585,0.11358 -0.40652,-0.005 -0.54299,-0.0602 -0.30328,-0.12271 z m 62.82591,0 c 0.23972,-0.0625 0.57233,-0.0584 0.73913,0.009 0.1668,0.0675 -0.0293,0.1186 -0.43585,0.11358 -0.40652,-0.005 -0.54299,-0.0602 -0.30328,-0.12271 z M 134.61365,99.908989 c 0.087,-0.318983 1.22762,-0.370274 8.33395,-0.374748 l 8.23314,-0.0052 -8.11799,0.07021 c -6.09806,0.05274 -8.17173,0.145982 -8.33395,0.374747 -0.15781,0.222542 -0.18882,0.205032 -0.11515,-0.06502 z"
         id="path7865" />
      <path
         style="fill:#010101;stroke-width:0.246376"
         d="m 49.888949,194.82539 c 0.06885,-0.23714 3.351255,-17.06155 7.294226,-37.38758 3.942974,-20.32603 7.23007,-37.15803 7.304658,-37.40444 0.129852,-0.42899 0.906893,-0.44391 18.283899,-0.35106 19.717048,0.10536 20.165488,0.13368 24.719528,1.56139 10.42061,3.26688 15.4848,11.97106 13.90682,23.90263 -1.1661,8.81719 -4.24877,15.08792 -10.28778,20.92724 -4.8145,4.6553 -9.49115,7.00231 -16.719253,8.39067 -1.673904,0.32152 -4.294553,0.42483 -13.057935,0.51476 -6.030055,0.0619 -11.039364,0.18715 -11.1318,0.27839 -0.09243,0.0912 -1.030968,4.62836 -2.08563,10.08252 l -1.917568,9.91663 h -8.217175 c -7.709321,0 -8.209437,-0.0266 -8.09199,-0.43115 z m 38.987956,-31.97367 c 8.422193,-1.44699 12.552775,-5.43581 14.791105,-14.28345 0.91534,-3.61814 1.07778,-8.31672 0.36829,-10.65258 -1.14217,-3.76034 -4.037984,-5.51469 -10.261194,-6.21647 -1.219561,-0.13752 -5.120232,-0.25095 -8.668154,-0.25207 -5.932015,-0.002 -6.460975,0.0327 -6.577666,0.42914 -0.137444,0.46699 -6.065714,30.96561 -6.065714,31.2057 0,0.0801 3.200685,0.14566 7.112635,0.14566 5.255567,0 7.683924,-0.0982 9.300698,-0.37593 z m 89.907365,31.60744 c 0.0859,-0.44224 3.39011,-17.43445 7.34269,-37.76048 l 7.18651,-36.95641 h 17.98425 c 19.89425,0 20.56809,0.0434 25.37553,1.63432 6.75311,2.23481 11.46349,6.9893 13.03473,13.15681 1.8477,7.25269 0.1957,17.41148 -3.95928,24.34698 -4.21757,7.04002 -11.1181,12.55369 -18.22838,14.56488 -4.72064,1.33527 -5.61028,1.41379 -17.41016,1.53679 -9.99974,0.10423 -11.0563,0.15372 -11.19934,0.52453 -0.0869,0.22519 -0.997,4.73334 -2.02252,10.01811 l -1.86457,9.60867 -8.19781,0.0649 -8.19782,0.0649 z m 39.05939,-31.62956 c 7.53303,-1.29113 11.6259,-4.82481 13.99882,-12.08623 1.06747,-3.26658 1.58874,-6.78834 1.45382,-9.8221 -0.0996,-2.24041 -0.2085,-2.74142 -0.90149,-4.14909 -0.90874,-1.8459 -1.77367,-2.66019 -3.87253,-3.64577 -2.77513,-1.30315 -4.57042,-1.51089 -13.27132,-1.53567 l -7.8716,-0.0224 -3.02566,15.5217 c -1.66411,8.53693 -3.02785,15.66028 -3.03054,15.82966 -0.008,0.50019 13.50652,0.42651 16.5205,-0.0901 z m -97.28424,9.82194 c 0.2601,-1.3212 3.54851,-18.22584 7.30757,-37.56588 3.75906,-19.34004 6.89454,-35.223598 6.96774,-35.296794 0.0732,-0.0732 3.72819,-0.103828 8.12221,-0.06807 l 7.98914,0.06501 -1.77195,9.115924 c -0.97457,5.01375 -1.83897,9.46292 -1.92088,9.88703 l -0.14893,0.77112 10.16862,0.12721 c 11.16126,0.13963 13.46974,0.35895 17.55602,1.66789 8.24124,2.63991 10.85733,8.28518 8.86081,19.1208 -0.3457,1.87624 -1.98742,10.39611 -3.64825,18.93304 l -3.0197,15.5217 -8.29451,0.0649 c -6.59641,0.0516 -8.27266,0.001 -8.18778,-0.24637 0.0587,-0.17118 1.62031,-8.12514 3.47024,-17.67546 3.06718,-15.83446 3.3546,-17.55038 3.26246,-19.47757 -0.15505,-3.24302 -1.09735,-4.41343 -4.27959,-5.31558 -1.19605,-0.33906 -2.96839,-0.43554 -9.68045,-0.5269 -4.51899,-0.0615 -8.3094,-0.0175 -8.42313,0.0979 -0.11374,0.11535 -2.04752,9.68904 -4.29731,21.27488 -2.24977,11.58584 -4.14888,21.25918 -4.22024,21.49631 -0.12012,0.39923 -0.72805,0.43116 -8.20737,0.43116 h -8.07764 z"
         id="path7863" />
    </g>
  </g>
</svg>
