<?xml version="1.0" encoding="UTF-8" standalone="no"?>
<!-- Created with Inkscape (http://www.inkscape.org/) -->

<svg
   width="71.172913mm"
   height="71.708878mm"
   viewBox="0 0 71.172918 71.70888"
   version="1.1"
   id="svg5"
   inkscape:version="1.1 (c68e22c387, 2021-05-23)"
   sodipodi:docname="piet_white.svg"
   xmlns:inkscape="http://www.inkscape.org/namespaces/inkscape"
   xmlns:sodipodi="http://sodipodi.sourceforge.net/DTD/sodipodi-0.dtd"
   xmlns="http://www.w3.org/2000/svg"
   xmlns:svg="http://www.w3.org/2000/svg">
  <sodipodi:namedview
     id="namedview7"
     pagecolor="#ffffff"
     bordercolor="#666666"
     borderopacity="1.0"
     inkscape:pageshadow="2"
     inkscape:pageopacity="0.0"
     inkscape:pagecheckerboard="0"
     inkscape:document-units="mm"
     showgrid="false"
     fit-margin-top="0"
     fit-margin-left="0"
     fit-margin-right="0"
     fit-margin-bottom="0"
     inkscape:zoom="1.8973437"
     inkscape:cx="66.145107"
     inkscape:cy="144.67595"
     inkscape:window-width="1920"
     inkscape:window-height="1017"
     inkscape:window-x="1912"
     inkscape:window-y="-8"
     inkscape:window-maximized="1"
     inkscape:current-layer="layer1" />
  <defs
     id="defs2" />
  <g
     inkscape:label="Calque 1"
     inkscape:groupmode="layer"
     id="layer1"
     transform="translate(-97.115315,-130.98945)">
    <path
       style="fill:#ffffff;stroke-width:0.223259"
       d="m 102.83274,166.84367 v -30.4157 c 51.29924,0 0,0 51.29924,0 0,2.84304 0,5.68608 0,8.52911 8.43883,0.28327 0,0 8.43883,0.28327 0,5.64905 0,11.43117 0,17.08022 -8.42904,0.14406 0,0 -8.42904,0.14406 -0.0403,2.80562 -0.0806,5.61126 -0.12086,8.41689 -34.12273,0.50642 0,0 -34.12273,0.50642 -0.0653,9.0967 -0.0604,16.02313 -0.0767,25.75429 -5.6629,0.0392 -11.3258,0.0784 -16.98871,0.11758 V 166.8441 Z m 42.48492,-4.77224 c 0.066,-6.11801 -0.0439,-10.7778 -0.12968,-17.33879 -25.24512,0 0,0 -25.24512,0 -0.0531,17.33879 0,0 -0.0531,17.33879 0.0897,0.22009 25.30354,0.22009 25.4276,0 z"
       id="path5222"
       sodipodi:nodetypes="ccccccccccccccccccc" />
  </g>
</svg>
