<?xml version="1.0" encoding="UTF-8" standalone="no"?>
<!-- Created with Inkscape (http://www.inkscape.org/) -->

<svg
   width="291mm"
   height="291.38153mm"
   viewBox="0 0 291 291.38153"
   version="1.1"
   id="svg5"
   inkscape:version="1.1 (c68e22c387, 2021-05-23)"
   sodipodi:docname="postgresql.svg"
   xmlns:inkscape="http://www.inkscape.org/namespaces/inkscape"
   xmlns:sodipodi="http://sodipodi.sourceforge.net/DTD/sodipodi-0.dtd"
   xmlns="http://www.w3.org/2000/svg"
   xmlns:svg="http://www.w3.org/2000/svg">
  <sodipodi:namedview
     id="namedview7"
     pagecolor="#ffffff"
     bordercolor="#666666"
     borderopacity="1.0"
     inkscape:pageshadow="2"
     inkscape:pageopacity="0.0"
     inkscape:pagecheckerboard="0"
     inkscape:document-units="mm"
     showgrid="false"
     fit-margin-top="0"
     fit-margin-left="0"
     fit-margin-right="0"
     fit-margin-bottom="0"
     inkscape:zoom="0.47433592"
     inkscape:cx="344.69243"
     inkscape:cy="620.86801"
     inkscape:window-width="1920"
     inkscape:window-height="1017"
     inkscape:window-x="1912"
     inkscape:window-y="-8"
     inkscape:window-maximized="1"
     inkscape:current-layer="layer1" />
  <defs
     id="defs2" />
  <g
     inkscape:label="Calque 1"
     inkscape:groupmode="layer"
     id="layer1"
     transform="translate(-67.508653,45.335699)">
    <path
       style="fill:#ffffff;stroke-width:0.264583"
       d="m 241.40743,245.69422 c -8.41098,-1.52304 -13.87072,-6.5033 -18.12394,-16.53225 -0.648,-1.52797 -1.35982,-3.67109 -1.58182,-4.7625 -2.19641,-10.79809 -3.29706,-34.12001 -2.96093,-62.73967 0.19212,-16.35866 0.14758,-17.17657 -1.10706,-20.32629 -1.11583,-2.80125 -2.42505,-4.79032 -4.57611,-6.95236 -1.60592,-1.61413 -2.50142,-2.26723 -4.25501,-3.10329 -3.06058,-1.45918 -5.16637,-1.95274 -7.70452,-1.80581 -1.13142,0.0655 -2.05713,0.0447 -2.05713,-0.0461 0,-0.0909 0.37007,-1.35109 0.82237,-2.80051 1.37226,-4.39741 4.13659,-11.59449 6.65233,-17.31969 4.88563,-11.118424 6.6346,-17.059404 7.75152,-26.330664 0.59496,-4.93853 0.59845,-15.139 0.007,-20.89746 -0.83683,-8.14974 -2.75167,-18.98674 -4.03201,-22.81911 -4.86276,-14.5554 -18.55178,-19.72619 -37.65972,-14.2253 -3.90309,1.12364 -8.37743,2.86985 -12.00015,4.68331 -1.43409,0.71788 -2.66374,1.24894 -2.73255,1.18013 -0.32514,-0.32514 1.15365,-10.59739 2.34446,-16.28556 3.83884,-18.3369997 11.91113,-33.991088 22.24801,-43.144142 7.92338,-7.015961 17.35586,-11.218787 28.90169,-12.877713 4.35731,-0.62606 14.17595,-0.62229 19.44687,0.007 24.37863,2.912721 44.50361,14.303974 60.44413,34.2129273 4.47573,5.589961 9.57177,13.694718 12.60483,20.0467377 1.21142,2.53703 3.68021,8.36436 3.68021,8.68677 0,0.0376 -2.72752,0.0214 -6.06116,-0.0361 -3.71007,-0.064 -7.11516,0.018 -8.7784,0.21141 -4.97799,0.57872 -9.67681,2.08131 -13.41029,4.28835 -1.93331,1.14287 -5.76353,4.98131 -6.91774,6.93259 -2.25037,3.80441 -3.45862,8.76105 -3.46051,14.19617 -0.005,13.09732 5.86527,29.1902 19.82946,54.364944 1.93726,3.4925 4.44343,8.26992 5.56926,10.61648 2.42508,5.05458 4.37238,8.13416 8.40347,13.28981 l 2.98086,3.81242 -2.05918,0.83027 c -4.54495,1.83255 -7.20933,4.15416 -9.03825,7.8755 -1.68036,3.41907 -2.1308,5.61717 -2.40367,11.72968 -0.56663,12.69352 -6.94922,62.18155 -9.1285,70.77873 -3.5054,13.82874 -10.04652,19.92093 -25.72326,23.95781 -6.20427,1.59766 -11.7707,2.0534 -15.91473,1.30299 z m -67.26185,-80.15117 c -3.95583,-0.56717 -8.09975,-1.6588 -10.28272,-2.70876 l -1.99382,-0.95899 1.45416,-0.50553 c 0.79979,-0.27804 4.01401,-1.0921 7.14271,-1.80902 13.46552,-3.08552 16.34925,-4.69361 22.7461,-12.68419 5.21889,-6.51913 6.75457,-7.93926 8.58057,-7.93491 3.22841,0.008 6.68702,3.53489 7.54653,7.69617 0.60936,2.95019 -0.43243,4.92714 -5.00575,9.49916 -4.9185,4.9171 -9.7833,7.57731 -16.53725,9.04303 -3.14917,0.68343 -10.12246,0.86888 -13.65053,0.36304 z m -49.98175,-4.58983 c -13.17089,-5.32938 -27.989284,-36.59594 -40.214884,-84.852694 -4.15148,-16.38668 -7.55546,-33.21811 -9.01166,-44.55933 -1.45012,-11.2939 -0.71744,-25.1563297 1.869,-35.3620767 3.91181,-15.4354463 11.77513,-25.6777583 24.341954,-31.7064183 13.26723,-6.36467 31.40726,-7.41272 53.17808,-3.072395 7.03875,1.403274 18.45602,4.414618 19.15668,5.052634 0.13511,0.123037 -0.68723,1.19606 -1.89224,2.46907 -8.59906,9.084315 -15.65833,23.2273183 -19.62244,39.3128863 -2.88611,11.7112197 -4.18279,23.0381597 -3.88828,33.9652497 0.61723,22.90031 0.50017,29.85412 -0.65753,39.05975 -1.31391,10.4477 -0.82156,17.12906 1.85134,25.123464 2.34075,7.00099 6.79645,14.07802 11.82536,18.78231 l 1.73774,1.62557 -2.50005,2.70048 c -5.91844,6.39291 -13.01762,14.44693 -20.32785,23.06192 -5.79594,6.83044 -8.33715,8.6315 -12.40564,8.79241 -1.72039,0.068 -2.52879,-0.0243 -3.43958,-0.39283 z m 184.67916,-8.15067 c -2.45273,-0.29574 -4.40483,-0.70591 -5.7437,-1.20684 l -1.47005,-0.55002 0.13585,-3.07675 c 0.15428,-3.4939 0.76745,-5.54341 2.11903,-7.08278 0.9861,-1.1231 2.03905,-1.67469 4.94396,-2.5899 l 2.23406,-0.70386 0.73991,0.54704 c 2.35197,1.73889 6.83654,3.34418 11.19615,4.00776 2.99974,0.45659 12.18591,0.46392 16.13958,0.0129 2.44321,-0.27873 7.77483,-1.10032 11.50937,-1.77358 l 0.92604,-0.16694 -0.92604,0.82448 c -1.66399,1.4815 -6.68258,4.67772 -9.7741,6.22488 -4.9512,2.47783 -10.44657,4.02496 -17.87485,5.03235 -3.03361,0.4114 -12.20653,0.73624 -14.15521,0.50128 z M 186.20861,127.3795 c -1.80536,-0.23471 -6.37101,-1.4936 -8.14863,-2.24683 -10.7326,-4.54773 -18.64745,-14.57385 -21.26658,-26.939444 -0.7044,-3.32565 -0.65719,-10.85566 0.10699,-17.06562 0.96337,-7.82864 1.22418,-14.29506 0.98179,-24.34167 -0.11937,-4.9477 -0.22413,-10.18095 -0.2328,-11.62943 l -0.0158,-2.63359 1.5875,-1.13137 c 2.03372,-1.44937 8.76343,-4.79698 12.12765,-6.03274 12.4244,-4.56378 22.71598,-3.87865 27.21394,1.8117 2.12875,2.69306 2.94979,5.01868 4.31293,12.21644 2.81553,14.86675 3.2315,26.5914 1.31383,37.03233 -1.15658,6.29717 -2.63361,10.58023 -7.48188,21.695834 -2.00509,4.59706 -4.78515,12.08431 -6.16464,16.6026 l -0.86839,2.84427 -1.3361,-0.0396 c -0.73485,-0.0218 -1.69328,-0.0861 -2.12984,-0.14284 z m 6.14348,-79.327274 c 1.765,-0.52415 3.68248,-1.83659 4.76179,-3.25925 2.47314,-3.25991 -0.34647,-6.31292 -6.8102,-7.37393 -5.49566,-0.90211 -9.52992,0.57885 -9.51222,3.49189 0.0112,1.84972 2.1328,4.79487 4.41928,6.13484 2.38172,1.39578 4.72044,1.72538 7.14135,1.00645 z m 118.69433,72.665154 -0.57469,-0.72991 1.67581,-3.29035 c 3.73261,-7.32875 5.43069,-15.01498 5.42397,-24.551194 -0.003,-4.66727 -0.27569,-8.046 -1.37896,-17.10374 -0.7414,-6.0869 -0.83828,-7.67143 -0.84115,-13.75833 -0.003,-6.60439 0.0362,-7.14043 0.98304,-13.42007 1.44688,-9.59548 1.50456,-10.13347 1.75568,-16.37583 0.25632,-6.37151 0.13649,-7.47678 -1.29255,-11.92211 C 314.34441,11.934766 309.59503,2.5103133 304.0344,-5.7608397 293.64611,-21.212876 280.10382,-33.395036 264.70684,-41.138519 l -3.78719,-1.90466 1.29295,-0.27728 c 1.77184,-0.38 8.01759,-1.27345 11.70538,-1.67446 4.69173,-0.51018 17.29137,-0.43303 21.96042,0.13446 7.13134,0.86676 14.55034,2.60577 20.55103,4.817133 3.41084,1.256962 10.44973,4.710752 13.44793,6.598538 7.17513,4.517742 16.00401,12.690527 19.79512,18.324099 1.0537,1.56577 2.07222,4.470582 2.71571,7.7451743 0.58949,2.99966 0.80767,12.839091 0.39529,17.8250007 -2.52116,30.48178 -17.05605,71.26554 -37.65938,105.669264 -1.76474,2.9468 -3.27486,5.35123 -3.35581,5.34318 -0.081,-0.008 -0.40579,-0.3431 -0.72187,-0.74455 z m -8.44831,-13.18758 c -0.85818,-1.84988 -2.87818,-5.74918 -4.48889,-8.665104 -6.90004,-12.49143 -9.91056,-18.43022 -12.93131,-25.50929 -6.28666,-14.73271 -8.2776,-25.67754 -5.94236,-32.66704 2.57266,-7.70008 11.36875,-10.95867 26.09671,-9.66776 1.85814,0.16286 3.38762,0.31169 3.39884,0.33073 0.17568,0.29791 -0.64114,7.76081 -1.46363,13.37241 -1.87374,12.78399 -1.97103,18.15211 -0.54749,30.20703 1.85469,15.70599 1.8582,22.35944 0.0156,29.576134 -0.63376,2.48222 -2.08548,6.38632 -2.3747,6.38632 -0.11135,0 -0.9046,-1.51354 -1.76278,-3.36343 z m -7.07592,-63.664804 c 3.92573,-2.0496 6.05556,-5.96691 4.18615,-7.69942 -0.90371,-0.83753 -2.54818,-1.20853 -5.33616,-1.20385 -5.15542,0.009 -9.60628,2.08521 -9.60628,4.48182 0,1.3189 1.62094,3.21055 3.64349,4.25199 2.00424,1.03201 5.30986,1.11076 7.1128,0.16946 z"
       id="path854" />
  </g>
</svg>
