<?xml version="1.0" encoding="UTF-8" standalone="no"?>
<!-- Created with Inkscape (http://www.inkscape.org/) -->

<svg
   width="300mm"
   height="300mm"
   viewBox="0 0 300 300"
   version="1.1"
   id="svg5"
   inkscape:version="1.1 (c68e22c387, 2021-05-23)"
   sodipodi:docname="powershell.svg"
   xmlns:inkscape="http://www.inkscape.org/namespaces/inkscape"
   xmlns:sodipodi="http://sodipodi.sourceforge.net/DTD/sodipodi-0.dtd"
   xmlns="http://www.w3.org/2000/svg"
   xmlns:svg="http://www.w3.org/2000/svg">
  <sodipodi:namedview
     id="namedview7"
     pagecolor="#ffffff"
     bordercolor="#666666"
     borderopacity="1.0"
     inkscape:pageshadow="2"
     inkscape:pageopacity="0.0"
     inkscape:pagecheckerboard="0"
     inkscape:document-units="mm"
     showgrid="false"
     inkscape:zoom="0.33540614"
     inkscape:cx="1426.6286"
     inkscape:cy="490.45017"
     inkscape:window-width="1920"
     inkscape:window-height="1017"
     inkscape:window-x="1912"
     inkscape:window-y="-8"
     inkscape:window-maximized="1"
     inkscape:current-layer="layer1" />
  <defs
     id="defs2" />
  <g
     inkscape:label="Calque 1"
     inkscape:groupmode="layer"
     id="layer1">
    <path
       style="fill:#4174cc;stroke-width:1.25685"
       d="m 3.7422575,258.92875 c -2.3871684,-2.38717 -3.67388211,-4.96236 -3.67388211,-7.35295 0,-2.02353 5.66882411,-28.50804 12.59737361,-58.85444 6.928598,-30.34646 17.155143,-75.25358 22.725732,-99.793596 5.880349,-25.904492 11.05638,-45.936042 12.341001,-47.760301 1.216932,-1.72816 4.082409,-4.414693 6.367688,-5.970037 l 4.155084,-2.82795 H 175.05318 291.85114 l 3.67384,3.673884 c 2.30057,2.300571 3.67389,4.981452 3.67389,7.171911 0,5.927665 -45.32516,201.951079 -47.62193,205.956719 -1.18777,2.07147 -4.05077,5.04074 -6.36227,6.59846 l -4.20268,2.83218 H 124.21406 7.416092 Z M 126.94122,195.3106 c 29.34085,-21.08749 54.36416,-39.88335 55.60732,-41.7685 3.05839,-4.63777 2.85768,-10.5024 -0.50938,-14.88399 -3.13292,-4.07685 -60.18624,-65.135332 -67.68677,-72.438399 -4.01311,-3.907409 -5.72996,-4.713202 -10.04242,-4.713202 -4.23993,0 -5.991897,0.790165 -9.475062,4.273276 -6.479979,6.479983 -6.018009,11.600334 1.803987,19.996351 3.342454,3.587761 16.916445,18.063554 30.164415,32.168334 13.24793,14.10484 24.07106,25.98207 24.05145,26.39387 -0.019,0.41185 -20.43433,15.45392 -45.36596,33.42688 -24.931633,17.97296 -46.407708,34.02694 -47.724578,35.67553 -2.877544,3.60225 -3.074642,9.00899 -0.509141,13.97003 2.443313,4.72488 5.131515,6.20408 11.311659,6.22432 4.599526,0.0143 9.56763,-3.24665 58.37448,-38.3245 z m 83.11793,30.94006 c 2.71993,-2.71998 3.67384,-4.86627 3.67384,-8.26624 0,-3.39994 -0.95391,-5.54622 -3.67384,-8.2662 l -3.67388,-3.67388 h -31.61464 -31.61464 l -3.67384,3.67388 c -2.71998,2.71998 -3.67388,4.86626 -3.67388,8.2662 0,3.39997 0.9539,5.54626 3.67388,8.26624 l 3.67384,3.67388 h 31.61464 31.61464 z"
       id="path5492" />
  </g>
</svg>
