<?xml version="1.0" encoding="UTF-8" standalone="no"?>
<!-- Created with Inkscape (http://www.inkscape.org/) -->

<svg
   width="300mm"
   height="300mm"
   viewBox="0 0 300 300"
   version="1.1"
   id="svg5"
   inkscape:version="1.1 (c68e22c387, 2021-05-23)"
   sodipodi:docname="powershell_white.svg"
   xmlns:inkscape="http://www.inkscape.org/namespaces/inkscape"
   xmlns:sodipodi="http://sodipodi.sourceforge.net/DTD/sodipodi-0.dtd"
   xmlns="http://www.w3.org/2000/svg"
   xmlns:svg="http://www.w3.org/2000/svg">
  <sodipodi:namedview
     id="namedview7"
     pagecolor="#ffffff"
     bordercolor="#666666"
     borderopacity="1.0"
     inkscape:pageshadow="2"
     inkscape:pageopacity="0.0"
     inkscape:pagecheckerboard="0"
     inkscape:document-units="mm"
     showgrid="false"
     inkscape:zoom="0.23716796"
     inkscape:cx="-271.95917"
     inkscape:cy="659.86992"
     inkscape:window-width="1920"
     inkscape:window-height="1017"
     inkscape:window-x="1912"
     inkscape:window-y="-8"
     inkscape:window-maximized="1"
     inkscape:current-layer="layer1" />
  <defs
     id="defs2" />
  <g
     inkscape:label="Calque 1"
     inkscape:groupmode="layer"
     id="layer1">
    <path
       style="fill:#ffffff;stroke-width:1.25685"
       d="m 0.06837539,251.5758 c 0,-2.02353 5.66882411,-28.50804 12.59737361,-58.85444 C 19.594347,162.3749 29.820892,117.46778 35.391481,92.927764 41.27183,67.023272 46.447861,46.991722 47.732482,45.167463 50.73628,41.358428 51.244983,37.239822 58.255254,36.369476 H 175.05318 291.85114 c 8.31331,0.257421 7.31416,4.946147 7.34773,10.845795 0,5.927665 -45.32516,201.951079 -47.62193,205.956719 -2.89618,4.39641 -3.21707,8.61536 -10.56495,9.43064 H 124.21406 7.416092 C 0.82352575,262.38989 -0.53936301,259.66508 0.06837539,251.5758 Z M 182.54854,153.5421 c 3.05839,-4.63777 2.85768,-10.5024 -0.50938,-14.88399 -3.13292,-4.07685 -60.18624,-65.135332 -67.68677,-72.438399 -4.01311,-3.907409 -5.72996,-4.713202 -10.04242,-4.713202 -4.23993,0 -5.991897,0.790165 -9.475062,4.273276 -6.479979,6.479983 -6.018009,11.600334 1.803987,19.996351 3.342454,3.587761 16.916445,18.063554 30.164415,32.168334 13.24793,14.10484 24.07106,25.98207 24.05145,26.39387 l -93.090538,69.10241 c -2.877544,3.60225 -3.074642,9.00899 -0.509141,13.97003 2.443313,4.72488 5.131515,6.20408 11.311659,6.22432 z m 27.51061,72.70856 c 2.71993,-2.71998 3.67384,-4.86627 3.67384,-8.26624 0,-3.39994 -0.95391,-5.54622 -3.67384,-8.2662 l -3.67388,-3.67388 h -63.22928 l -3.67384,3.67388 c -2.71998,2.71998 -3.67388,4.86626 -3.67388,8.2662 0,3.39997 0.9539,5.54626 3.67388,8.26624 l 3.67384,3.67388 h 63.22928 z"
       id="path5492"
       sodipodi:nodetypes="csccccccccccccscscsccccccsssccsssccs" />
  </g>
</svg>
