<?xml version="1.0" encoding="UTF-8" standalone="no"?>
<svg
	xmlns:dc="http://purl.org/dc/elements/1.1/"
	xmlns:cc="http://creativecommons.org/ns#"
	xmlns:rdf="http://www.w3.org/1999/02/22-rdf-syntax-ns#"
	xmlns:svg="http://www.w3.org/2000/svg"
	xmlns="http://www.w3.org/2000/svg"
	xmlns:xlink="http://www.w3.org/1999/xlink"
	xmlns:sodipodi="http://sodipodi.sourceforge.net/DTD/sodipodi-0.dtd"
	xmlns:inkscape="http://www.inkscape.org/namespaces/inkscape"
	viewBox="0 0 260.75202 260.74915"
	height="260.74915"
	width="260.75201"
	xml:space="preserve"
	id="svg2"
	version="1.1"
	inkscape:version="0.91 r13725"
	sodipodi:docname="swipl-logo.svg">
	<sodipodi:namedview
		pagecolor="#ffffff"
		bordercolor="#666666"
		borderopacity="1"
		objecttolerance="10"
		gridtolerance="10"
		guidetolerance="10"
		inkscape:pageopacity="0"
		inkscape:pageshadow="2"
		inkscape:window-width="1393"
		inkscape:window-height="864"
		id="namedview178"
		showgrid="false"
		fit-margin-top="0"
		fit-margin-left="0"
		fit-margin-right="0"
		fit-margin-bottom="0"
		inkscape:zoom="0.8964406"
		inkscape:cx="152.11234"
		inkscape:cy="141.52326"
		inkscape:window-x="109"
		inkscape:window-y="47"
		inkscape:window-maximized="0"
		inkscape:current-layer="svg2"
	/>
	<metadata id="metadata8">
		<rdf:RDF>
			<cc:Work rdf:about="">
				<dc:format>image/svg+xml</dc:format>
				<dc:type rdf:resource="http://purl.org/dc/dcmitype/StillImage"/>
				<dc:title></dc:title>
			</cc:Work>
		</rdf:RDF>
	</metadata>
	<defs id="defs6">
		<clipPath id="clipPath18" clipPathUnits="userSpaceOnUse">
			<path id="path16" d="m 0,279.233 339.473,0 L 339.473,0 0,0 Z" inkscape:connector-curvature="0" />
		</clipPath>
		<clipPath id="clipPath58" clipPathUnits="userSpaceOnUse">
			<path
				id="path56"
				d="m 168.525,279.232 c -23.405,-0.043 -46.876,-8.44 -65.56,-25.422 l 0,0 C 63.001,217.495 60.045,155.65 96.366,115.69 l 0,0 c 36.322,-39.967 98.165,-42.92 138.127,-6.601 l 0,0 c 39.962,36.32 42.92,98.161 6.597,138.126 l 0,0 c -19.246,21.178 -45.654,31.962 -72.18,32.017 l 0,0 z"
				inkscape:connector-curvature="0" />
		</clipPath>
		<radialGradient
			id="radialGradient72"
			spreadMethod="pad"
			gradientTransform="matrix(125.43311,-24.511949,-24.511949,-125.43311,125.22293,208.00298)"
			gradientUnits="userSpaceOnUse"
			r="1"
			cy="0"
			cx="0"
			fy="0"
			fx="0"
		>
			<stop
			id="stop64"
			offset="0"
			style="stop-opacity:1;stop-color:#ffffff"
			/>
			<stop
			id="stop66"
			offset="0.40524526"
			style="stop-opacity:1;stop-color:#ffffff"
			/>
			<stop
			id="stop68"
			offset="0.824242"
			style="stop-opacity:1;stop-color:#b0aeaf"
			/>
			<stop
			id="stop70"
			offset="1"
			style="stop-opacity:1;stop-color:#b0aeaf"
			/>
		</radialGradient>
		<clipPath
		id="clipPath82"
		clipPathUnits="userSpaceOnUse">
	   	<path
         id="path80"
         d="m 0,279.233 339.473,0 L 339.473,0 0,0 Z"
         inkscape:connector-curvature="0" /></clipPath><clipPath
       id="clipPath90"
       clipPathUnits="userSpaceOnUse"><path
         id="path88"
         d="m 76.8946,269.191 182.6404,0 0,-175.6796 -182.6404,0 z"
         inkscape:connector-curvature="0" /></clipPath><clipPath
       id="clipPath94"
       clipPathUnits="userSpaceOnUse"><path
         id="path92"
         d="m 76.8946,269.191 182.6404,0 0,-175.6796 -182.6404,0 z"
         inkscape:connector-curvature="0" /></clipPath><mask
       id="mask96"
       height="1"
       width="1"
       y="0"
       x="0"
       maskUnits="userSpaceOnUse"><g
         id="g106"><g
           id="g104"
           clip-path="url(#clipPath94)"><g
             id="g102"><g
               id="g100"
               transform="matrix(182.64,0,0,175.68,76.8946,93.51141)"><image
                 id="image98"
                 transform="matrix(1,0,0,-1,0,1)"
                 preserveAspectRatio="none"
                 style="image-rendering:optimizeSpeed"
                 height="1"
                 width="1" /></g></g></g></g></mask><mask
       id="mask108"
       height="1"
       width="1"
       y="0"
       x="0"
       maskUnits="userSpaceOnUse"><image
         id="image110"
         preserveAspectRatio="none"
         style="image-rendering:optimizeSpeed"
         height="1"
         width="1" /></mask><clipPath
       id="clipPath132"
       clipPathUnits="userSpaceOnUse"><path
         id="path130"
         d="m 80.762,188.708 c -2.771,-54.483 33.174,-89.833 83.779,-89.833 l 0,0 c 74.964,0 116.444,68.31 70.031,142.395 l 0,0 c 32.622,-74.016 -3.683,-120.68 -50.536,-120.68 l 0,0 c -38.003,0 -67.121,25.498 -67.121,72.254 l 0,0 c 0,67.467 50.579,72.149 79.316,56.295 l 0,0 c -10.657,9.534 -26.739,16.336 -45.387,16.336 l 0,0 c -34.052,0 -67.508,-26.03 -70.082,-76.767"
         inkscape:connector-curvature="0" /></clipPath><radialGradient
       id="radialGradient150"
       spreadMethod="pad"
       gradientTransform="matrix(107.57257,-44.673435,-48.589966,-117.00349,93.830032,204.7117)"
       gradientUnits="userSpaceOnUse"
       r="1"
       cy="0"
       cx="0"
       fy="0"
       fx="0"><stop
         id="stop138"
         offset="0"
         style="stop-opacity:1;stop-color:#fdfeff" /><stop
         id="stop140"
         offset="0.15587355"
         style="stop-opacity:1;stop-color:#fdfeff" /><stop
         id="stop142"
         offset="0.745455"
         style="stop-opacity:1;stop-color:#3e6aa5" /><stop
         id="stop144"
         offset="0.79555808"
         style="stop-opacity:1;stop-color:#3e6aa5" /><stop
         id="stop146"
         offset="0.993939"
         style="stop-opacity:1;stop-color:#0a2d49" /><stop
         id="stop148"
         offset="1"
         style="stop-opacity:1;stop-color:#0a2d49" /></radialGradient><clipPath
       id="clipPath160"
       clipPathUnits="userSpaceOnUse"><path
         id="path158"
         d="m 193.084,236.709 c -8.019,3.564 -16.809,5.531 -26.029,5.531 l 0,0 c -9.295,0 -18.162,-1.998 -26.229,-5.62 l 0,0 c -9.601,14.883 -26.912,10.801 -26.912,10.801 l 0,0 c 9.143,-7.666 6.357,-20.992 4.288,-27.403 l 0,0 C 106.693,207.205 99.614,189.882 99.614,170.809 l 0,0 c 0,-15.186 9.751,-32.441 11.702,-55.563 l 0,0 12.351,10.7 c 0,0 14.787,-10.01 43.388,-10.01 l 0,0 c 28.607,0 43.39,10.01 43.39,10.01 l 0,0 12.353,-10.7 c 1.954,23.122 11.701,40.377 11.701,55.563 l 0,0 c 0,19.293 -7.246,36.798 -18.992,49.651 l 0,0 c -2.047,6.567 -4.506,19.469 4.425,26.961 l 0,0 c 0,0 -2.173,0.512 -5.405,0.512 l 0,0 c -5.873,0 -15.245,-1.691 -21.443,-11.224"
         inkscape:connector-curvature="0" /></clipPath><radialGradient
       id="radialGradient174"
       spreadMethod="pad"
       gradientTransform="matrix(76.411324,-87.14402,-92.529518,-81.133537,135.48965,208.53821)"
       gradientUnits="userSpaceOnUse"
       r="1"
       cy="0"
       cx="0"
       fy="0"
       fx="0"><stop
         id="stop166"
         offset="0"
         style="stop-opacity:1;stop-color:#fbd427" /><stop
         id="stop168"
         offset="0.666667"
         style="stop-opacity:1;stop-color:#ed1c24" /><stop
         id="stop170"
         offset="0.993939"
         style="stop-opacity:1;stop-color:#6f0b0e" /><stop
         id="stop172"
         offset="1"
         style="stop-opacity:1;stop-color:#6f0b0e" /></radialGradient><clipPath
       id="clipPath184"
       clipPathUnits="userSpaceOnUse"><path
         id="path182"
         d="m 127.18,108.516 c 0,-4.396 1.826,-8.36 4.749,-11.198 l 0,0 c -0.041,0.411 -0.066,0.826 -0.066,1.246 l 0,0 c 0,6.467 5.067,11.709 11.317,11.709 l 0,0 c 6.249,0 11.315,-5.242 11.315,-11.709 l 0,0 c 0,-0.123 -0.015,-0.244 -0.018,-0.367 l 0,0 c 2.432,2.751 3.919,6.356 3.919,10.319 l 0,0 c 0,8.622 -6.985,15.608 -15.607,15.608 l 0,0 c -8.619,0 -15.609,-6.986 -15.609,-15.608"
         inkscape:connector-curvature="0" /></clipPath><radialGradient
       id="radialGradient196"
       spreadMethod="pad"
       gradientTransform="matrix(14.547368,0,0,-14.547368,142.7881,110.72089)"
       gradientUnits="userSpaceOnUse"
       r="1"
       cy="0"
       cx="0"
       fy="0"
       fx="0"><stop
         id="stop190"
         offset="0"
         style="stop-opacity:1;stop-color:#e0e0e0" /><stop
         id="stop192"
         offset="0.49165811"
         style="stop-opacity:1;stop-color:#e0e0e0" /><stop
         id="stop194"
         offset="1"
         style="stop-opacity:1;stop-color:#565353" /></radialGradient><clipPath
       id="clipPath206"
       clipPathUnits="userSpaceOnUse"><path
         id="path204"
         d="m 174.524,108.516 c 0,-3.963 1.487,-7.568 3.921,-10.319 l 0,0 c -0.006,0.123 -0.018,0.244 -0.018,0.367 l 0,0 c 0,6.467 5.065,11.709 11.317,11.709 l 0,0 c 6.246,0 11.314,-5.242 11.314,-11.709 l 0,0 c 0,-0.42 -0.023,-0.835 -0.066,-1.246 l 0,0 c 2.924,2.838 4.748,6.802 4.748,11.198 l 0,0 c 0,8.622 -6.985,15.608 -15.607,15.608 l 0,0 c -8.621,0 -15.609,-6.986 -15.609,-15.608"
         inkscape:connector-curvature="0" /></clipPath><radialGradient
       id="radialGradient218"
       spreadMethod="pad"
       gradientTransform="matrix(14.547234,0,0,-14.547234,190.13214,110.72089)"
       gradientUnits="userSpaceOnUse"
       r="1"
       cy="0"
       cx="0"
       fy="0"
       fx="0"><stop
         id="stop212"
         offset="0"
         style="stop-opacity:1;stop-color:#e0e0e0" /><stop
         id="stop214"
         offset="0.49165811"
         style="stop-opacity:1;stop-color:#e0e0e0" /><stop
         id="stop216"
         offset="1"
         style="stop-opacity:1;stop-color:#565353" /></radialGradient><clipPath
       id="clipPath228"
       clipPathUnits="userSpaceOnUse"><path
         id="path226"
         d="m 0,279.233 339.473,0 L 339.473,0 0,0 Z"
         inkscape:connector-curvature="0" /></clipPath><clipPath
       id="clipPath236"
       clipPathUnits="userSpaceOnUse"><path
         id="path234"
         d="m 104.337,166.797 34.109,0 0,-38.491 -34.109,0 z"
         inkscape:connector-curvature="0" /></clipPath><clipPath
       id="clipPath272"
       clipPathUnits="userSpaceOnUse"><path
         id="path270"
         d="m 195.538,166.797 34.11,0 0,-38.491 -34.11,0 z"
         inkscape:connector-curvature="0" /></clipPath><clipPath
       id="clipPath340"
       clipPathUnits="userSpaceOnUse"><path
         id="path338"
         d="m 151.618,177.031 c 0,-10.295 15.06,-24.269 15.06,-34.133 l 0,0 c 0,9.864 15.063,23.838 15.063,34.133 l 0,0 c 0,8.255 -6.805,14.947 -15.063,14.947 l 0,0 c -8.258,0 -15.06,-6.692 -15.06,-14.947"
         inkscape:connector-curvature="0" /></clipPath><radialGradient
       id="radialGradient352"
       spreadMethod="pad"
       gradientTransform="matrix(3.6375735,-18.411562,-18.473976,-3.649905,164.77834,180.114)"
       gradientUnits="userSpaceOnUse"
       r="1"
       cy="0"
       cx="0"
       fy="0"
       fx="0"><stop
         id="stop346"
         offset="0"
         style="stop-opacity:1;stop-color:#e0e0e0" /><stop
         id="stop348"
         offset="0.49165811"
         style="stop-opacity:1;stop-color:#e0e0e0" /><stop
         id="stop350"
         offset="1"
         style="stop-opacity:1;stop-color:#565353" /></radialGradient></defs><g
     id="g4415"
     transform="translate(-94.595324,-0.00134597)"><g
       transform="matrix(1.3333333,0,0,-1.3333333,0,372.31067)"
       id="g52"><g
         clip-path="url(#clipPath58)"
         id="g54"><g
           id="g60"><g
             id="g62"><path
               id="path74"
               style="fill:url(#radialGradient72);stroke:none"
               d="m 168.525,279.232 c -23.405,-0.043 -46.876,-8.44 -65.56,-25.422 l 0,0 C 63.001,217.495 60.045,155.65 96.366,115.69 l 0,0 c 36.322,-39.967 98.165,-42.92 138.127,-6.601 l 0,0 c 39.962,36.32 42.92,98.161 6.597,138.126 l 0,0 c -19.246,21.178 -45.654,31.962 -72.18,32.017 l 0,0 z"
               inkscape:connector-curvature="0" /></g></g></g></g><g
       transform="matrix(1.3333333,0,0,-1.3333333,0,372.31067)"
       id="g76"><g
         clip-path="url(#clipPath82)"
         id="g78"><g
           id="g84"><g
             id="g86" /><g
             id="g124"><g
               style="opacity:0.5"
               id="g122"
               clip-path="url(#clipPath90)"><g
                 id="g120"><g
                   id="g112" /><g
                   id="g118"
                   mask="url(#mask96)"><g
                     id="g116"
                     transform="matrix(182.64,0,0,175.68,76.8946,93.51141)"><image
                       id="image114"
                       mask="url(#mask108)"
                       transform="matrix(1,0,0,-1,0,1)"
                       preserveAspectRatio="none"
                       style="image-rendering:optimizeSpeed"
                       height="1"
                       width="1" /></g></g></g></g></g></g></g></g><g
       transform="matrix(1.3333333,0,0,-1.3333333,0,372.31067)"
       id="g126"><g
         clip-path="url(#clipPath132)"
         id="g128"><g
           id="g134"><g
             id="g136"><path
               id="path152"
               style="fill:url(#radialGradient150);stroke:none"
               d="m 80.762,188.708 c -2.771,-54.483 33.174,-89.833 83.779,-89.833 l 0,0 c 74.964,0 116.444,68.31 70.031,142.395 l 0,0 c 32.622,-74.016 -3.683,-120.68 -50.536,-120.68 l 0,0 c -38.003,0 -67.121,25.498 -67.121,72.254 l 0,0 c 0,67.467 50.579,72.149 79.316,56.295 l 0,0 c -10.657,9.534 -26.739,16.336 -45.387,16.336 l 0,0 c -34.052,0 -67.508,-26.03 -70.082,-76.767"
               inkscape:connector-curvature="0" /></g></g></g></g></g><g
     id="g154"
     transform="matrix(1.3333333,0,0,-1.3333333,-94.595324,372.30932)"><g
       id="g156"
       clip-path="url(#clipPath160)"><g
         id="g162"><g
           id="g164"><path
             inkscape:connector-curvature="0"
             d="m 193.084,236.709 c -8.019,3.564 -16.809,5.531 -26.029,5.531 l 0,0 c -9.295,0 -18.162,-1.998 -26.229,-5.62 l 0,0 c -9.601,14.883 -26.912,10.801 -26.912,10.801 l 0,0 c 9.143,-7.666 6.357,-20.992 4.288,-27.403 l 0,0 C 106.693,207.205 99.614,189.882 99.614,170.809 l 0,0 c 0,-15.186 9.751,-32.441 11.702,-55.563 l 0,0 12.351,10.7 c 0,0 14.787,-10.01 43.388,-10.01 l 0,0 c 28.607,0 43.39,10.01 43.39,10.01 l 0,0 12.353,-10.7 c 1.954,23.122 11.701,40.377 11.701,55.563 l 0,0 c 0,19.293 -7.246,36.798 -18.992,49.651 l 0,0 c -2.047,6.567 -4.506,19.469 4.425,26.961 l 0,0 c 0,0 -2.173,0.512 -5.405,0.512 l 0,0 c -5.873,0 -15.245,-1.691 -21.443,-11.224"
             style="fill:url(#radialGradient174);stroke:none"
             id="path176" /></g></g></g></g><g
     id="g178"
     transform="matrix(1.3333333,0,0,-1.3333333,-94.595324,372.30932)"><g
       id="g180"
       clip-path="url(#clipPath184)"><g
         id="g186"><g
           id="g188"><path
             inkscape:connector-curvature="0"
             d="m 127.18,108.516 c 0,-4.396 1.826,-8.36 4.749,-11.198 l 0,0 c -0.041,0.411 -0.066,0.826 -0.066,1.246 l 0,0 c 0,6.467 5.067,11.709 11.317,11.709 l 0,0 c 6.249,0 11.315,-5.242 11.315,-11.709 l 0,0 c 0,-0.123 -0.015,-0.244 -0.018,-0.367 l 0,0 c 2.432,2.751 3.919,6.356 3.919,10.319 l 0,0 c 0,8.622 -6.985,15.608 -15.607,15.608 l 0,0 c -8.619,0 -15.609,-6.986 -15.609,-15.608"
             style="fill:url(#radialGradient196);stroke:none"
             id="path198" /></g></g></g></g><g
     id="g200"
     transform="matrix(1.3333333,0,0,-1.3333333,-94.595324,372.30932)"><g
       id="g202"
       clip-path="url(#clipPath206)"><g
         id="g208"><g
           id="g210"><path
             inkscape:connector-curvature="0"
             d="m 174.524,108.516 c 0,-3.963 1.487,-7.568 3.921,-10.319 l 0,0 c -0.006,0.123 -0.018,0.244 -0.018,0.367 l 0,0 c 0,6.467 5.065,11.709 11.317,11.709 l 0,0 c 6.246,0 11.314,-5.242 11.314,-11.709 l 0,0 c 0,-0.42 -0.023,-0.835 -0.066,-1.246 l 0,0 c 2.924,2.838 4.748,6.802 4.748,11.198 l 0,0 c 0,8.622 -6.985,15.608 -15.607,15.608 l 0,0 c -8.621,0 -15.609,-6.986 -15.609,-15.608"
             style="fill:url(#radialGradient218);stroke:none"
             id="path220" /></g></g></g></g><g
     id="g222"
     transform="matrix(1.3333333,0,0,-1.3333333,-94.595324,372.30932)"><g
       id="g224"
       clip-path="url(#clipPath228)"><g
         id="g230"><g
           id="g232" /><g
           id="g264"><g
             clip-path="url(#clipPath236)"
             id="g262"
             style="opacity:0.52999902"><g
               transform="translate(115.271,164.6684)"
               id="g240"><path
                 inkscape:connector-curvature="0"
                 d="m 0,0 c -0.924,-4.661 -6.785,-6.125 -6.785,-6.125 0,0 -4.873,3.59 -3.951,8.253 -1.152,-5.828 3.097,-12.524 3.097,-12.524 0,0 6.486,4.571 7.639,10.396"
                 style="fill:#231f20;fill-opacity:1;fill-rule:nonzero;stroke:none"
                 id="path238" /></g><g
               transform="translate(126.879,162.3339)"
               id="g244"><path
                 inkscape:connector-curvature="0"
                 d="m 0,0 c -0.924,-4.661 -6.786,-6.125 -6.786,-6.125 0,0 -4.871,3.59 -3.95,8.254 -1.151,-5.83 3.098,-12.526 3.098,-12.526 0,0 6.485,4.572 7.638,10.397"
                 style="fill:#231f20;fill-opacity:1;fill-rule:nonzero;stroke:none"
                 id="path242" /></g><g
               transform="translate(118.6744,151.7758)"
               id="g248"><path
                 inkscape:connector-curvature="0"
                 d="m 0,0 c -0.924,-4.661 -6.785,-6.125 -6.785,-6.125 0,0 -4.873,3.591 -3.95,8.254 -1.152,-5.829 3.096,-12.525 3.096,-12.525 0,0 6.487,4.571 7.639,10.396"
                 style="fill:#231f20;fill-opacity:1;fill-rule:nonzero;stroke:none"
                 id="path246" /></g><g
               transform="translate(130.2823,149.4418)"
               id="g252"><path
                 inkscape:connector-curvature="0"
                 d="m 0,0 c -0.924,-4.661 -6.785,-6.125 -6.785,-6.125 0,0 -4.873,3.591 -3.95,8.254 -1.153,-5.83 3.096,-12.526 3.096,-12.526 0,0 6.486,4.572 7.639,10.397"
                 style="fill:#231f20;fill-opacity:1;fill-rule:nonzero;stroke:none"
                 id="path250" /></g><g
               transform="translate(122.1265,138.7025)"
               id="g256"><path
                 inkscape:connector-curvature="0"
                 d="m 0,0 c -0.924,-4.662 -6.786,-6.125 -6.786,-6.125 0,0 -4.871,3.59 -3.949,8.254 -1.152,-5.831 3.097,-12.526 3.097,-12.526 0,0 6.486,4.572 7.638,10.397"
                 style="fill:#231f20;fill-opacity:1;fill-rule:nonzero;stroke:none"
                 id="path254" /></g><g
               transform="translate(138.4458,160.0082)"
               id="g260"><path
                 inkscape:connector-curvature="0"
                 d="m 0,0 c -0.923,-4.661 -6.786,-6.125 -6.786,-6.125 0,0 -4.872,3.59 -3.949,8.253 -1.152,-5.828 3.095,-12.525 3.095,-12.525 0,0 6.487,4.572 7.64,10.397"
                 style="fill:#231f20;fill-opacity:1;fill-rule:nonzero;stroke:none"
                 id="path258" /></g></g></g></g><g
         id="g266"><g
           id="g268" /><g
           id="g300"><g
             clip-path="url(#clipPath272)"
             id="g298"
             style="opacity:0.52999902"><g
               transform="translate(218.7139,164.6684)"
               id="g276"><path
                 inkscape:connector-curvature="0"
                 d="m 0,0 c 0.924,-4.661 6.785,-6.125 6.785,-6.125 0,0 4.873,3.59 3.951,8.253 C 11.888,-3.7 7.64,-10.396 7.64,-10.396 7.64,-10.396 1.153,-5.825 0,0"
                 style="fill:#231f20;fill-opacity:1;fill-rule:nonzero;stroke:none"
                 id="path274" /></g><g
               transform="translate(207.1065,162.3339)"
               id="g280"><path
                 inkscape:connector-curvature="0"
                 d="m 0,0 c 0.925,-4.661 6.787,-6.125 6.787,-6.125 0,0 4.869,3.59 3.948,8.254 1.151,-5.83 -3.097,-12.526 -3.097,-12.526 0,0 -6.486,4.572 -7.638,10.397"
                 style="fill:#231f20;fill-opacity:1;fill-rule:nonzero;stroke:none"
                 id="path278" /></g><g
               transform="translate(215.3106,151.7758)"
               id="g284"><path
                 inkscape:connector-curvature="0"
                 d="m 0,0 c 0.925,-4.661 6.785,-6.125 6.785,-6.125 0,0 4.873,3.591 3.951,8.254 C 11.888,-3.7 7.64,-10.396 7.64,-10.396 7.64,-10.396 1.153,-5.825 0,0"
                 style="fill:#231f20;fill-opacity:1;fill-rule:nonzero;stroke:none"
                 id="path282" /></g><g
               transform="translate(203.7032,149.4418)"
               id="g288"><path
                 inkscape:connector-curvature="0"
                 d="m 0,0 c 0.925,-4.661 6.785,-6.125 6.785,-6.125 0,0 4.872,3.591 3.949,8.254 1.154,-5.83 -3.095,-12.526 -3.095,-12.526 0,0 -6.485,4.572 -7.639,10.397"
                 style="fill:#231f20;fill-opacity:1;fill-rule:nonzero;stroke:none"
                 id="path286" /></g><g
               transform="translate(211.8584,138.7025)"
               id="g292"><path
                 inkscape:connector-curvature="0"
                 d="m 0,0 c 0.925,-4.662 6.787,-6.125 6.787,-6.125 0,0 4.869,3.59 3.948,8.254 1.153,-5.831 -3.097,-12.526 -3.097,-12.526 0,0 -6.485,4.572 -7.638,10.397"
                 style="fill:#231f20;fill-opacity:1;fill-rule:nonzero;stroke:none"
                 id="path290" /></g><g
               transform="translate(195.5381,160.0082)"
               id="g296"><path
                 inkscape:connector-curvature="0"
                 d="m 0,0 c 0.925,-4.661 6.787,-6.125 6.787,-6.125 0,0 4.873,3.59 3.949,8.253 C 11.89,-3.7 7.641,-10.397 7.641,-10.397 7.641,-10.397 1.154,-5.825 0,0"
                 style="fill:#231f20;fill-opacity:1;fill-rule:nonzero;stroke:none"
                 id="path294" /></g></g></g></g><g
         id="g302"
         transform="translate(162.8238,194.9066)"><path
           inkscape:connector-curvature="0"
           d="m 0,0 c 0,-14.721 -11.934,-26.653 -26.651,-26.653 -14.721,0 -26.653,11.932 -26.653,26.653 0,14.718 11.932,26.648 26.653,26.648 C -11.934,26.648 0,14.718 0,0"
           style="fill:#ffffff;fill-opacity:1;fill-rule:nonzero;stroke:none"
           id="path304" /></g><g
         id="g306"
         transform="translate(154.6978,192.3007)"><path
           inkscape:connector-curvature="0"
           d="M 0,0 C 0,-7.176 -5.819,-12.997 -12.999,-12.997 -20.179,-12.997 -26,-7.176 -26,0 c 0,7.184 5.821,13.003 13.001,13.003 C -5.819,13.003 0,7.184 0,0"
           style="fill:#bfbebe;fill-opacity:1;fill-rule:nonzero;stroke:none"
           id="path308" /></g><g
         id="g310"
         transform="translate(150.0201,192.3007)"><path
           inkscape:connector-curvature="0"
           d="m 0,0 c 0,-4.594 -3.725,-8.317 -8.321,-8.317 -4.596,0 -8.322,3.723 -8.322,8.317 0,4.601 3.726,8.324 8.322,8.324 C -3.725,8.324 0,4.601 0,0"
           style="fill:#231f20;fill-opacity:1;fill-rule:nonzero;stroke:none"
           id="path312" /></g><g
         id="g314"
         transform="translate(140.5079,195.2289)"><path
           inkscape:connector-curvature="0"
           d="m 0,0 c 0,-1.376 -1.118,-2.491 -2.493,-2.491 -1.376,0 -2.492,1.115 -2.492,2.491 0,1.375 1.116,2.491 2.492,2.491 C -1.118,2.491 0,1.375 0,0"
           style="fill:#ffffff;fill-opacity:1;fill-rule:nonzero;stroke:none"
           id="path316" /></g><g
         id="g318"
         transform="translate(224.0997,194.9066)"><path
           inkscape:connector-curvature="0"
           d="m 0,0 c 0,-14.721 -11.935,-26.653 -26.654,-26.653 -14.719,0 -26.653,11.932 -26.653,26.653 0,14.718 11.934,26.648 26.653,26.648 C -11.935,26.648 0,14.718 0,0"
           style="fill:#ffffff;fill-opacity:1;fill-rule:nonzero;stroke:none"
           id="path320" /></g><g
         id="g322"
         transform="translate(215.9737,192.3007)"><path
           inkscape:connector-curvature="0"
           d="m 0,0 c 0,-7.176 -5.821,-12.997 -12.999,-12.997 -7.183,0 -13.002,5.821 -13.002,12.997 0,7.184 5.819,13.003 13.002,13.003 C -5.821,13.003 0,7.184 0,0"
           style="fill:#bfbebe;fill-opacity:1;fill-rule:nonzero;stroke:none"
           id="path324" /></g><g
         id="g326"
         transform="translate(211.292,192.3007)"><path
           inkscape:connector-curvature="0"
           d="m 0,0 c 0,-4.594 -3.724,-8.317 -8.317,-8.317 -4.598,0 -8.325,3.723 -8.325,8.317 0,4.601 3.727,8.324 8.325,8.324 C -3.724,8.324 0,4.601 0,0"
           style="fill:#231f20;fill-opacity:1;fill-rule:nonzero;stroke:none"
           id="path328" /></g><g
         id="g330"
         transform="translate(201.7823,195.2289)"><path
           inkscape:connector-curvature="0"
           d="m 0,0 c 0,-1.376 -1.119,-2.491 -2.496,-2.491 -1.375,0 -2.489,1.115 -2.489,2.491 0,1.375 1.114,2.491 2.489,2.491 C -1.119,2.491 0,1.375 0,0"
           style="fill:#ffffff;fill-opacity:1;fill-rule:nonzero;stroke:none"
           id="path332" /></g></g></g><g
     id="g334"
     transform="matrix(1.3333333,0,0,-1.3333333,-94.595324,372.30932)"><g
       id="g336"
       clip-path="url(#clipPath340)"><g
         id="g342"><g
           id="g344"><path
             inkscape:connector-curvature="0"
             d="m 151.618,177.031 c 0,-10.295 15.06,-24.269 15.06,-34.133 l 0,0 c 0,9.864 15.063,23.838 15.063,34.133 l 0,0 c 0,8.255 -6.805,14.947 -15.063,14.947 l 0,0 c -8.258,0 -15.06,-6.692 -15.06,-14.947"
             style="fill:url(#radialGradient352);stroke:none"
             id="path354" />
				</g>
			</g>
		</g>
	</g>
</svg>