<?xml version="1.0" encoding="UTF-8" standalone="no"?>
<svg
   viewBox="0 0 260.75202 260.74915"
   height="260.74915"
   width="260.75201"
   xml:space="preserve"
   id="svg2"
   version="1.1"
   inkscape:version="1.1 (c68e22c387, 2021-05-23)"
   sodipodi:docname="prolog_white.svg"
   xmlns:inkscape="http://www.inkscape.org/namespaces/inkscape"
   xmlns:sodipodi="http://sodipodi.sourceforge.net/DTD/sodipodi-0.dtd"
   xmlns="http://www.w3.org/2000/svg"
   xmlns:svg="http://www.w3.org/2000/svg"
   xmlns:rdf="http://www.w3.org/1999/02/22-rdf-syntax-ns#"
   xmlns:cc="http://creativecommons.org/ns#"
   xmlns:dc="http://purl.org/dc/elements/1.1/">
	<sodipodi:namedview
   pagecolor="#ffffff"
   bordercolor="#666666"
   borderopacity="1"
   objecttolerance="10"
   gridtolerance="10"
   guidetolerance="10"
   inkscape:pageopacity="0"
   inkscape:pageshadow="2"
   inkscape:window-width="1920"
   inkscape:window-height="1106"
   id="namedview178"
   showgrid="false"
   fit-margin-top="0"
   fit-margin-left="0"
   fit-margin-right="0"
   fit-margin-bottom="0"
   inkscape:zoom="1.2677585"
   inkscape:cx="135.67253"
   inkscape:cy="207.45277"
   inkscape:window-x="-11"
   inkscape:window-y="-11"
   inkscape:window-maximized="1"
   inkscape:current-layer="svg2"
   inkscape:pagecheckerboard="0" />
	<metadata
   id="metadata8">
		<rdf:RDF>
			<cc:Work
   rdf:about="">
				<dc:format>image/svg+xml</dc:format>
				<dc:type
   rdf:resource="http://purl.org/dc/dcmitype/StillImage" />
				
			</cc:Work>
		</rdf:RDF>
	</metadata>
	<defs
   id="defs6">
		<clipPath
   id="clipPath18"
   clipPathUnits="userSpaceOnUse">
			<path
   id="path16"
   d="m 0,279.233 339.473,0 L 339.473,0 0,0 Z"
   inkscape:connector-curvature="0" />
		</clipPath>
		<clipPath
   id="clipPath58"
   clipPathUnits="userSpaceOnUse">
			<path
   id="path56"
   d="m 168.525,279.232 c -23.405,-0.043 -46.876,-8.44 -65.56,-25.422 l 0,0 C 63.001,217.495 60.045,155.65 96.366,115.69 l 0,0 c 36.322,-39.967 98.165,-42.92 138.127,-6.601 l 0,0 c 39.962,36.32 42.92,98.161 6.597,138.126 l 0,0 c -19.246,21.178 -45.654,31.962 -72.18,32.017 l 0,0 z"
   inkscape:connector-curvature="0" />
		</clipPath>
		<radialGradient
   id="radialGradient72"
   spreadMethod="pad"
   gradientTransform="matrix(125.43311,-24.511949,-24.511949,-125.43311,125.22293,208.00298)"
   gradientUnits="userSpaceOnUse"
   r="1"
   cy="0"
   cx="0"
   fy="0"
   fx="0">
			<stop
   id="stop64"
   offset="0"
   style="stop-opacity:1;stop-color:#ffffff" />
			<stop
   id="stop66"
   offset="0.40524526"
   style="stop-opacity:1;stop-color:#ffffff" />
			<stop
   id="stop68"
   offset="0.824242"
   style="stop-opacity:1;stop-color:#b0aeaf" />
			<stop
   id="stop70"
   offset="1"
   style="stop-opacity:1;stop-color:#b0aeaf" />
		</radialGradient>
		<clipPath
   id="clipPath82"
   clipPathUnits="userSpaceOnUse">
	   	<path
   id="path80"
   d="m 0,279.233 339.473,0 L 339.473,0 0,0 Z"
   inkscape:connector-curvature="0" /></clipPath><clipPath
   id="clipPath90"
   clipPathUnits="userSpaceOnUse"><path
     id="path88"
     d="m 76.8946,269.191 182.6404,0 0,-175.6796 -182.6404,0 z"
     inkscape:connector-curvature="0" /></clipPath><clipPath
   id="clipPath94"
   clipPathUnits="userSpaceOnUse"><path
     id="path92"
     d="m 76.8946,269.191 182.6404,0 0,-175.6796 -182.6404,0 z"
     inkscape:connector-curvature="0" /></clipPath><mask
   id="mask96"
   height="1"
   width="1"
   y="0"
   x="0"
   maskUnits="userSpaceOnUse"><g
     id="g106"><g
       id="g104"
       clip-path="url(#clipPath94)"><g
         id="g102"><g
           id="g100"
           transform="matrix(182.64,0,0,175.68,76.8946,93.51141)"><image
             id="image98"
             transform="matrix(1,0,0,-1,0,1)"
             preserveAspectRatio="none"
             style="image-rendering:optimizeSpeed"
             height="1"
             width="1" /></g></g></g></g></mask><mask
   id="mask108"
   height="1"
   width="1"
   y="0"
   x="0"
   maskUnits="userSpaceOnUse"><image
     id="image110"
     preserveAspectRatio="none"
     style="image-rendering:optimizeSpeed"
     height="1"
     width="1" /></mask><clipPath
   id="clipPath132"
   clipPathUnits="userSpaceOnUse"><path
     id="path130"
     d="m 80.762,188.708 c -2.771,-54.483 33.174,-89.833 83.779,-89.833 l 0,0 c 74.964,0 116.444,68.31 70.031,142.395 l 0,0 c 32.622,-74.016 -3.683,-120.68 -50.536,-120.68 l 0,0 c -38.003,0 -67.121,25.498 -67.121,72.254 l 0,0 c 0,67.467 50.579,72.149 79.316,56.295 l 0,0 c -10.657,9.534 -26.739,16.336 -45.387,16.336 l 0,0 c -34.052,0 -67.508,-26.03 -70.082,-76.767"
     inkscape:connector-curvature="0" /></clipPath><radialGradient
   id="radialGradient150"
   spreadMethod="pad"
   gradientTransform="matrix(107.57257,-44.673435,-48.589966,-117.00349,93.830032,204.7117)"
   gradientUnits="userSpaceOnUse"
   r="1"
   cy="0"
   cx="0"
   fy="0"
   fx="0"><stop
     id="stop138"
     offset="0"
     style="stop-opacity:1;stop-color:#fdfeff" /><stop
     id="stop140"
     offset="0.15587355"
     style="stop-opacity:1;stop-color:#fdfeff" /><stop
     id="stop142"
     offset="0.745455"
     style="stop-opacity:1;stop-color:#3e6aa5" /><stop
     id="stop144"
     offset="0.79555808"
     style="stop-opacity:1;stop-color:#3e6aa5" /><stop
     id="stop146"
     offset="0.993939"
     style="stop-opacity:1;stop-color:#0a2d49" /><stop
     id="stop148"
     offset="1"
     style="stop-opacity:1;stop-color:#0a2d49" /></radialGradient><clipPath
   id="clipPath160"
   clipPathUnits="userSpaceOnUse"><path
     id="path158"
     d="m 193.084,236.709 c -8.019,3.564 -16.809,5.531 -26.029,5.531 l 0,0 c -9.295,0 -18.162,-1.998 -26.229,-5.62 l 0,0 c -9.601,14.883 -26.912,10.801 -26.912,10.801 l 0,0 c 9.143,-7.666 6.357,-20.992 4.288,-27.403 l 0,0 C 106.693,207.205 99.614,189.882 99.614,170.809 l 0,0 c 0,-15.186 9.751,-32.441 11.702,-55.563 l 0,0 12.351,10.7 c 0,0 14.787,-10.01 43.388,-10.01 l 0,0 c 28.607,0 43.39,10.01 43.39,10.01 l 0,0 12.353,-10.7 c 1.954,23.122 11.701,40.377 11.701,55.563 l 0,0 c 0,19.293 -7.246,36.798 -18.992,49.651 l 0,0 c -2.047,6.567 -4.506,19.469 4.425,26.961 l 0,0 c 0,0 -2.173,0.512 -5.405,0.512 l 0,0 c -5.873,0 -15.245,-1.691 -21.443,-11.224"
     inkscape:connector-curvature="0" /></clipPath><radialGradient
   id="radialGradient174"
   spreadMethod="pad"
   gradientTransform="matrix(76.411324,-87.14402,-92.529518,-81.133537,135.48965,208.53821)"
   gradientUnits="userSpaceOnUse"
   r="1"
   cy="0"
   cx="0"
   fy="0"
   fx="0"><stop
     id="stop166"
     offset="0"
     style="stop-opacity:1;stop-color:#fbd427" /><stop
     id="stop168"
     offset="0.666667"
     style="stop-opacity:1;stop-color:#ed1c24" /><stop
     id="stop170"
     offset="0.993939"
     style="stop-opacity:1;stop-color:#6f0b0e" /><stop
     id="stop172"
     offset="1"
     style="stop-opacity:1;stop-color:#6f0b0e" /></radialGradient><clipPath
   id="clipPath184"
   clipPathUnits="userSpaceOnUse"><path
     id="path182"
     d="m 127.18,108.516 c 0,-4.396 1.826,-8.36 4.749,-11.198 l 0,0 c -0.041,0.411 -0.066,0.826 -0.066,1.246 l 0,0 c 0,6.467 5.067,11.709 11.317,11.709 l 0,0 c 6.249,0 11.315,-5.242 11.315,-11.709 l 0,0 c 0,-0.123 -0.015,-0.244 -0.018,-0.367 l 0,0 c 2.432,2.751 3.919,6.356 3.919,10.319 l 0,0 c 0,8.622 -6.985,15.608 -15.607,15.608 l 0,0 c -8.619,0 -15.609,-6.986 -15.609,-15.608"
     inkscape:connector-curvature="0" /></clipPath><radialGradient
   id="radialGradient196"
   spreadMethod="pad"
   gradientTransform="matrix(14.547368,0,0,-14.547368,142.7881,110.72089)"
   gradientUnits="userSpaceOnUse"
   r="1"
   cy="0"
   cx="0"
   fy="0"
   fx="0"><stop
     id="stop190"
     offset="0"
     style="stop-opacity:1;stop-color:#e0e0e0" /><stop
     id="stop192"
     offset="0.49165811"
     style="stop-opacity:1;stop-color:#e0e0e0" /><stop
     id="stop194"
     offset="1"
     style="stop-opacity:1;stop-color:#565353" /></radialGradient><clipPath
   id="clipPath206"
   clipPathUnits="userSpaceOnUse"><path
     id="path204"
     d="m 174.524,108.516 c 0,-3.963 1.487,-7.568 3.921,-10.319 l 0,0 c -0.006,0.123 -0.018,0.244 -0.018,0.367 l 0,0 c 0,6.467 5.065,11.709 11.317,11.709 l 0,0 c 6.246,0 11.314,-5.242 11.314,-11.709 l 0,0 c 0,-0.42 -0.023,-0.835 -0.066,-1.246 l 0,0 c 2.924,2.838 4.748,6.802 4.748,11.198 l 0,0 c 0,8.622 -6.985,15.608 -15.607,15.608 l 0,0 c -8.621,0 -15.609,-6.986 -15.609,-15.608"
     inkscape:connector-curvature="0" /></clipPath><radialGradient
   id="radialGradient218"
   spreadMethod="pad"
   gradientTransform="matrix(14.547234,0,0,-14.547234,190.13214,110.72089)"
   gradientUnits="userSpaceOnUse"
   r="1"
   cy="0"
   cx="0"
   fy="0"
   fx="0"><stop
     id="stop212"
     offset="0"
     style="stop-opacity:1;stop-color:#e0e0e0" /><stop
     id="stop214"
     offset="0.49165811"
     style="stop-opacity:1;stop-color:#e0e0e0" /><stop
     id="stop216"
     offset="1"
     style="stop-opacity:1;stop-color:#565353" /></radialGradient><clipPath
   id="clipPath228"
   clipPathUnits="userSpaceOnUse"><path
     id="path226"
     d="m 0,279.233 339.473,0 L 339.473,0 0,0 Z"
     inkscape:connector-curvature="0" /></clipPath><clipPath
   id="clipPath236"
   clipPathUnits="userSpaceOnUse"><path
     id="path234"
     d="m 104.337,166.797 34.109,0 0,-38.491 -34.109,0 z"
     inkscape:connector-curvature="0" /></clipPath><clipPath
   id="clipPath272"
   clipPathUnits="userSpaceOnUse"><path
     id="path270"
     d="m 195.538,166.797 34.11,0 0,-38.491 -34.11,0 z"
     inkscape:connector-curvature="0" /></clipPath><clipPath
   id="clipPath340"
   clipPathUnits="userSpaceOnUse"><path
     id="path338"
     d="m 151.618,177.031 c 0,-10.295 15.06,-24.269 15.06,-34.133 l 0,0 c 0,9.864 15.063,23.838 15.063,34.133 l 0,0 c 0,8.255 -6.805,14.947 -15.063,14.947 l 0,0 c -8.258,0 -15.06,-6.692 -15.06,-14.947"
     inkscape:connector-curvature="0" /></clipPath><radialGradient
   id="radialGradient352"
   spreadMethod="pad"
   gradientTransform="matrix(3.6375735,-18.411562,-18.473976,-3.649905,164.77834,180.114)"
   gradientUnits="userSpaceOnUse"
   r="1"
   cy="0"
   cx="0"
   fy="0"
   fx="0"><stop
     id="stop346"
     offset="0"
     style="stop-opacity:1;stop-color:#e0e0e0" /><stop
     id="stop348"
     offset="0.49165811"
     style="stop-opacity:1;stop-color:#e0e0e0" /><stop
     id="stop350"
     offset="1"
     style="stop-opacity:1;stop-color:#565353" /></radialGradient></defs><g
   id="g178"
   transform="matrix(1.3333333,0,0,-1.3333333,-94.595324,372.30932)"><g
     id="g180"
     clip-path="url(#clipPath184)"><g
       id="g186"><g
         id="g188" /></g></g></g><g
   id="g200"
   transform="matrix(1.3333333,0,0,-1.3333333,-94.595324,372.30932)"><g
     id="g202"
     clip-path="url(#clipPath206)"><g
       id="g208"><g
         id="g210" /></g></g></g><g
   id="g334"
   transform="matrix(1.3333333,0,0,-1.3333333,-94.595324,372.30932)"><g
   id="g336"
   clip-path="url(#clipPath340)"><g
   id="g342"><g
   id="g344">
				</g>
			</g>
		</g>
	</g>
<path
   style="fill:#ffffff;stroke-width:1.00278"
   d="m 174.44719,241.95313 c 0.84023,-7.47108 -6.94585,-15.76556 -14.79603,-15.76207 -7.83593,0.003 -14.08723,5.74997 -15.01266,13.80039 l -0.54594,4.74928 -2.50693,-4.01106 c -1.94983,-3.11974 -2.50694,-5.3481 -2.50694,-10.02771 0,-3.30918 0.36885,-7.03192 0.81965,-8.27288 l 0.81966,-2.25625 h -13.07878 -13.0788 l 0.97797,2.57223 c 1.63328,4.29586 1.14516,12.22149 -1.01327,16.45235 -2.81156,5.51114 -3.69763,5.63605 -4.26516,0.60106 -2.1204,-18.81225 -29.73742,-17.28551 -29.865711,1.65108 l -0.02228,3.29118 -1.921432,-2.5009 c -5.949772,-7.74416 -4.698044,-20.85369 2.640558,-27.6549 l 2.486088,-2.30399 -3.335166,-1.68764 c -1.834335,-0.92825 -4.829876,-2.80703 -6.656756,-4.17502 -3.834053,-2.87108 -2.749222,-3.42309 -14.191892,7.222 l -6.482977,6.03118 -1.185652,-11.17278 c -1.18293,-11.14697 -4.335813,-23.89586 -8.924597,-36.08716 -3.739986,-9.9362 -5.502771,-20.30022 -5.502771,-32.3526 0,-22.03263 6.705712,-40.913611 20.513428,-57.758805 6.113042,-7.45781 7.057774,-10.772291 6.398088,-22.447031 -0.316701,-5.604739 -0.99006,-7.867689 -3.581622,-12.036644 l -3.19162,-5.134242 h 6.294595 c 9.789955,0 15.744191,2.2419 22.454775,8.454724 l 5.813185,5.381987 6.99453,-2.344699 C 116.8694,48.181611 138.15733,48.159215 155.92237,54.1143 l 6.81591,2.284793 5.04238,-4.809192 c 6.30388,-6.012372 13.60981,-8.907724 22.47706,-8.907724 3.56421,0 6.48039,0.235308 6.48039,0.522889 0,0.287591 -1.13994,2.245444 -2.53317,4.350793 -5.43188,8.208116 -5.20789,25.647938 0.40753,31.727503 15.29727,16.56173 23.20309,37.373278 23.16645,60.983958 -0.02,12.90201 -1.24557,19.3408 -7.00184,36.78632 -5.34399,16.19593 -7.01957,24.34996 -7.01957,34.15983 0,4.37609 -0.37259,7.95661 -0.82797,7.95661 -0.45539,0 -1.92193,-1.17344 -3.25901,-2.60761 -1.33708,-1.43418 -4.51265,-4.35756 -7.05685,-6.49642 l -4.62585,-3.88884 -7.04642,3.6153 -7.04641,3.61531 3.06288,4.34533 c 5.20818,7.38886 4.63966,20.62944 -1.10915,25.83203 -1.65367,1.49653 -1.74182,1.39389 -1.40151,-1.63206 z m 26.14326,-42.70414 c 1.57951,-5.27195 1.4771,-5.74467 -0.79833,-3.68544 -1.64423,1.48802 -2.47566,1.59378 -5.16349,0.65682 -4.67431,-1.62951 -4.69164,-1.50336 -0.39748,2.89429 2.15419,2.20609 4.20499,4.01107 4.55727,4.01107 0.3523,0 1.1632,-1.74458 1.80203,-3.87674 z m -139.821627,-0.883 c 1.893669,-2.06641 3.316066,-3.884 3.160893,-4.03916 -0.155112,-0.15513 -1.535961,0.19455 -3.068388,0.77717 -2.193667,0.83406 -3.146446,0.73336 -4.479825,-0.47334 -3.323008,-3.0073 -3.543068,-1.76185 -0.925174,5.2361 0.464221,1.24089 1.07476,2.25618 1.356757,2.25618 0.281986,0 2.062081,-1.69065 3.955737,-3.75695 z M 188.73275,186.53576 c 0.53345,-1.40314 1.26279,-3.77218 1.62071,-5.26456 l 0.65083,-2.71339 -2.39766,2.13981 c -1.72755,1.54181 -2.95814,1.91181 -4.4032,1.32396 -4.42267,-1.79919 -4.75465,-0.78804 -1.00276,3.05423 2.15418,2.2061 4.06194,4.01112 4.23941,4.01112 0.17748,0 0.75919,-1.14804 1.29267,-2.55117 z m -116.792578,-2.54036 3.963907,-4.08873 -3.800507,0.69817 c -2.897899,0.53234 -4.253081,0.28856 -5.706145,-1.02645 -1.867615,-1.69017 -1.873013,-1.62254 -0.269866,3.39058 0.899656,2.81335 1.683669,5.11518 1.742229,5.11518 0.05862,0 1.890231,-1.83996 4.070382,-4.08875 z m 133.107998,-3.15978 1.58118,-4.74158 -2.39794,1.5712 c -1.65945,1.08732 -3.41417,1.35702 -5.69773,0.87572 l -3.29975,-0.69552 3.94593,4.09818 c 2.17028,2.25399 4.02269,3.99363 4.11653,3.86587 0.0939,-0.12782 0.88211,-2.36599 1.75178,-4.97387 z m -148.240549,-0.72882 3.872937,-3.96624 -3.658848,1.12292 c -3.133763,0.96178 -3.948164,0.86109 -5.674975,-0.70163 -1.108863,-1.00351 -2.016115,-1.46857 -2.016115,-1.03342 0,1.73146 2.363009,8.54464 2.963538,8.54464 0.352271,0 2.383346,-1.78484 4.513463,-3.96627 z M 137.67408,159.466 c 4.88934,-9.35439 9.01554,-17.36141 9.16935,-17.79338 0.15383,-0.43197 2.75652,0.54698 5.78378,2.17538 15.00044,8.06898 32.504,5.10224 43.98,-7.45432 6.47661,-7.08644 9.15583,-14.11492 9.15583,-24.01882 0,-10.1613 -2.67806,-16.997144 -9.57923,-24.451241 -3.76194,-4.063323 -7.30752,-6.691602 -11.69756,-8.671248 -15.55471,-7.014165 -34.92519,-1.436111 -44.32433,12.763949 -3.99213,6.031244 -6.96329,16.23501 -6.41164,22.01944 0.28383,2.97631 0.0491,3.77463 -0.9923,3.37501 -0.75024,-0.28787 -3.35781,-0.52345 -5.79456,-0.52345 h -4.43045 v -4.85447 c 0,-15.276671 -11.10052,-29.441748 -26.498282,-33.813761 -16.793523,-4.768308 -35.101006,3.58397 -42.511377,19.394623 -2.324985,4.960548 -2.688543,7.024368 -2.688543,15.262538 0,8.22863 0.364755,10.30448 2.67759,15.23862 3.41567,7.28692 10.395276,14.2665 17.682191,17.68221 4.934153,2.3128 7.010007,2.67757 15.238628,2.67757 8.762059,0 10.042373,-0.26166 15.958463,-3.26134 3.53767,-1.79374 6.47079,-3.14747 6.51802,-3.00831 0.0472,0.13921 2.32989,4.53987 5.07258,9.77933 2.74265,5.2395 6.80389,13.01999 9.02493,17.29003 2.22104,4.27004 4.42953,7.63677 4.90776,7.48166 0.4782,-0.15511 4.86984,-7.93562 9.75915,-17.29002 z m -14.92102,4.30093 c -2.33086,-4.5501 -5.81579,-11.13134 -7.74426,-14.62499 -5.81512,-10.53475 -4.51581,-19.45648 3.72219,-25.55843 4.19881,-3.11012 12.36291,-3.33279 17.26417,-0.47083 5.4245,3.16744 8.9482,9.86141 8.19695,15.57165 -0.51319,3.90081 -15.19264,33.35545 -16.62352,33.35545 -0.31767,0 -2.48467,-3.72278 -4.81553,-8.27285 z M 88.475355,132.75467 c -5.21411,-1.49235 -8.65476,-4.36605 -10.981063,-9.17153 -2.563917,-5.29634 -2.626755,-9.94698 -0.205662,-15.21938 2.190853,-4.77101 4.427137,-6.90902 9.39973,-8.986697 13.290594,-5.553153 27.54898,6.638107 23.84622,20.389067 -2.6267,9.75474 -12.678696,15.67341 -22.059225,12.98854 z m 12.922265,-8.92507 c 2.51199,-2.51198 3.08543,-3.90687 3.08543,-7.50497 0,-12.71662 -17.519111,-15.65618 -21.14673,-3.54827 -2.257582,7.53509 2.728626,14.13869 10.675737,14.13869 3.464763,0 4.899495,-0.5994 7.385563,-3.08545 z m -14.26126,-9.58165 c -0.386758,-0.38675 -0.703183,-1.53047 -0.703183,-2.5416 0,-1.30572 0.746593,-1.83842 2.576681,-1.83842 2.095468,0 2.516824,0.41943 2.256228,2.24598 -0.31715,2.22299 -2.772146,3.49161 -4.129726,2.13404 z m 82.97857,18.33113 c -4.0249,-1.82569 -8.13869,-6.81955 -9.57967,-11.6291 -3.01007,-10.04679 4.37811,-20.85142 14.95301,-21.867521 6.5303,-0.627493 11.4322,1.094321 15.14088,5.318291 7.28247,8.29428 5.88863,20.17168 -3.15322,26.86961 -3.46387,2.56593 -13.00389,3.28505 -17.361,1.30872 z m 12.16387,-6.80842 c 2.78458,-1.35905 5.43523,-6.01519 5.43059,-9.53945 -0.0144,-10.4517 -13.97195,-14.90152 -20.03482,-6.38698 -3.57496,5.0206 -1.91901,13.2985 3.1566,15.77949 4.87918,2.38498 6.81132,2.40979 11.44763,0.14691 z m -13.25458,-12.3901 c -0.34653,-0.90304 -0.16682,-2.10512 0.39936,-2.6713 1.63462,-1.63462 4.75215,-0.53294 4.75215,1.67933 0,2.55073 -4.24005,3.36718 -5.15151,0.99197 z m 10.15223,53.64536 0.74844,-3.50969 -2.37321,2.12043 c -1.89176,1.69025 -2.97326,1.95128 -5.33108,1.28662 -1.62687,-0.4586 -3.11499,-0.67674 -3.30699,-0.48475 -0.19196,0.19197 1.57518,1.99609 3.92701,4.00916 4.7082,4.03006 4.75178,4.00654 6.33583,-3.42177 z m -93.078788,-1.67253 c -0.164282,-0.16429 -1.748804,0.1172 -3.521164,0.62548 -2.705326,0.77589 -3.417301,0.61219 -4.436572,-1.01989 -1.931068,-3.09216 -2.658996,-2.26531 -1.598979,1.81625 1.801492,6.93652 1.666073,6.87354 5.896647,2.74249 2.17732,-2.12611 3.82435,-4.00005 3.660068,-4.16433 z m 108.414578,-0.18031 1.05959,-4.35977 -2.2489,2.11271 c -1.23687,1.162 -2.44102,1.94643 -2.67586,1.74321 -0.23484,-0.20321 -1.78074,-0.69031 -3.43531,-1.08245 l -3.00833,-0.71296 3.96244,4.08009 c 2.17935,2.24408 4.26044,3.74234 4.62461,3.32953 0.36422,-0.41282 1.13899,-2.7125 1.72176,-5.11036 z M 70.890213,162.68891 c 0.551516,-0.45812 -0.707451,-0.51856 -2.797721,-0.13441 -2.928644,0.53828 -4.251398,0.2905 -5.765952,-1.08016 -2.291507,-2.0738 -2.339035,-1.83414 -0.827164,4.17008 l 1.138293,4.52054 3.624884,-3.32161 c 1.993686,-1.8269 4.076125,-3.69641 4.62766,-4.15449 z m 139.230177,0.82732 c 1.54946,-4.54742 0.97287,-5.80601 -1.36784,-2.98567 -1.19313,1.43764 -2.37616,1.37947 -6.9429,-0.3416 -0.79555,-0.29981 0.0697,1.34148 1.9227,3.64731 1.85301,2.30584 3.70242,4.19242 4.10979,4.19242 0.40737,0 1.43258,-2.03061 2.27825,-4.51246 z M 51.837552,163.01484 c 3.934608,-4.02941 3.728549,-4.80718 -0.815846,-3.07941 -1.773747,0.6744 -3.038069,0.52022 -4.577756,-0.55822 -1.169968,-0.81947 -2.127203,-1.17826 -2.127203,-0.79735 0,1.6567 2.382247,8.44606 2.963529,8.44606 0.352299,0 2.40308,-1.80499 4.557276,-4.01108 z"
   id="path8925" /></svg>
