<?xml version="1.0" encoding="UTF-8" standalone="no"?>
<!-- Created with Inkscape (http://www.inkscape.org/) -->

<svg
   width="483.42108mm"
   height="483.42108mm"
   viewBox="0 0 483.42108 483.42108"
   version="1.1"
   id="svg5"
   inkscape:version="1.1 (c68e22c387, 2021-05-23)"
   sodipodi:docname="pyth_white.svg"
   xmlns:inkscape="http://www.inkscape.org/namespaces/inkscape"
   xmlns:sodipodi="http://sodipodi.sourceforge.net/DTD/sodipodi-0.dtd"
   xmlns="http://www.w3.org/2000/svg"
   xmlns:svg="http://www.w3.org/2000/svg">
  <sodipodi:namedview
     id="namedview7"
     pagecolor="#ffffff"
     bordercolor="#666666"
     borderopacity="1.0"
     inkscape:pageshadow="2"
     inkscape:pageopacity="0.0"
     inkscape:pagecheckerboard="0"
     inkscape:document-units="mm"
     showgrid="false"
     fit-margin-top="0"
     fit-margin-left="0"
     fit-margin-right="0"
     fit-margin-bottom="0"
     inkscape:zoom="0.32"
     inkscape:cx="698.4375"
     inkscape:cy="1073.4375"
     inkscape:window-width="1920"
     inkscape:window-height="1017"
     inkscape:window-x="1912"
     inkscape:window-y="-8"
     inkscape:window-maximized="1"
     inkscape:current-layer="layer1" />
  <defs
     id="defs2" />
  <g
     inkscape:label="Calque 1"
     inkscape:groupmode="layer"
     id="layer1"
     transform="translate(54.302002,61.001868)">
    <path
       style="fill:#ffffff;stroke-width:0.264583"
       d="m 297.2556,379.33314 c -45.99905,-0.17426 -73.94762,-0.32012 -112.05103,-0.58473 -11.85995,-0.0823 -54.18667,-0.19672 -94.059373,-0.25413 -39.87271,-0.0574 -73.21021,-0.17667 -74.08333,-0.26496 -18.6843998,-1.88947 -34.98368,-12.30204 -47.04073,-30.05137 -13.29617,-19.57343 -21.036069,-46.06385 -23.607929,-80.80004 -0.89771,-12.12475 -0.95934,-32.24266 -0.1339,-43.70961 2.85579,-39.6722 13.389429,-68.31947 31.890719,-86.72997 12.7088502,-12.64649 28.5847502,-19.83501 47.62309,-21.56346 68.96355,-0.41836 115.959733,-0.26449 192.219783,-0.26467 V 96.060205 H 86.250407 v -31.72197 c 0,-19.970123 0.10167,-32.737035 0.27444,-34.461973 1.41143,-14.091742 10.14324,-26.3938585 25.193673,-35.4950245 16.62904,-10.0557595 41.59035,-16.4728395 73.22146,-18.8238195 17.35945,-1.29025 41.14737,-1.34445 58.20833,-0.13264 12.9698,0.92122 26.56374,2.83469 36.77708,5.17668 12.89257,2.95635 22.45318,6.27349 32.01459,11.1077395 21.8277,11.036066 34.01814,27.0423305 36.2508,47.5978855 0.20145,1.854864 0.26101,22.578262 0.19923,69.320827 l -0.0881,66.675 -0.57698,3.63137 c -3.04842,19.18611 -10.76365,32.79332 -24.27777,42.81821 -10.49351,7.78417 -23.30958,12.46363 -39.94986,14.58665 -1.70635,0.2177 -22.74088,0.35818 -74.21562,0.49566 -44.71803,0.11943 -72.73326,0.29162 -74.21562,0.45616 -4.2244,0.4689 -5.72312,0.86457 -8.33438,2.20034 -4.32973,2.21483 -6.94216,4.70784 -8.85599,8.45114 -1.49619,2.92642 -2.09423,5.3118 -2.08667,8.32297 0.008,3.23461 0.5117,5.32937 2.00352,8.33437 1.53049,3.08287 4.94671,6.54474 8.0131,8.12012 7.63217,3.19412 10.26366,1.85082 17.19792,2.85953 l 251.61874,0.78129 c 40.8888,13.31705 44.9691,90.29371 14.68437,103.46605 -41.60612,-0.004 -86.42612,-0.39752 -112.05107,-0.49363 z M 164.91813,48.661015 c 1.70458,-5.18253 2.28567,-9.982582 1.01618,-14.760208 -7.83926,-25.6265005 -42.05028,-20.830041 -46.5975,1.949141 -0.6702,3.783827 -0.0738,9.192127 1.41657,12.845577 8.90133,19.848474 36.41616,18.320472 44.16475,-0.03451 z"
       id="path884"
       sodipodi:nodetypes="csscssssccccssssssssscssssssscscccccccccc" />
  </g>
</svg>
