<?xml version="1.0" encoding="UTF-8" standalone="no"?>
<!-- Created with Inkscape (http://www.inkscape.org/) -->

<svg
   width="1000mm"
   height="1000mm"
   viewBox="0 0 1000 1000"
   version="1.1"
   id="svg930"
   inkscape:version="1.1 (c68e22c387, 2021-05-23)"
   sodipodi:docname="python_white.svg"
   xmlns:inkscape="http://www.inkscape.org/namespaces/inkscape"
   xmlns:sodipodi="http://sodipodi.sourceforge.net/DTD/sodipodi-0.dtd"
   xmlns="http://www.w3.org/2000/svg"
   xmlns:svg="http://www.w3.org/2000/svg">
  <sodipodi:namedview
     id="namedview932"
     pagecolor="#ffffff"
     bordercolor="#666666"
     borderopacity="1.0"
     inkscape:pageshadow="2"
     inkscape:pageopacity="0.0"
     inkscape:pagecheckerboard="0"
     inkscape:document-units="mm"
     showgrid="false"
     units="mm"
     width="1000mm"
     inkscape:zoom="0.16"
     inkscape:cx="1659.375"
     inkscape:cy="1884.375"
     inkscape:window-width="1920"
     inkscape:window-height="1017"
     inkscape:window-x="1912"
     inkscape:window-y="-8"
     inkscape:window-maximized="1"
     inkscape:current-layer="layer1" />
  <defs
     id="defs927" />
  <g
     inkscape:label="Calque 1"
     inkscape:groupmode="layer"
     id="layer1">
    <path
       style="fill:#ffffff;stroke-width:0.963825"
       d="m 485.92503,988.85301 c -51.3375,-1.9021 -93.27149,-8.4608 -126.01383,-19.7093 -15.35807,-5.2763 -38.46126,-16.605 -48.99378,-24.0244 -23.56836,-16.6022 -39.22338,-38.4037 -45.03724,-62.7196 -1.92996,-8.0719 -1.95718,-10.33176 -1.62963,-135.25926 0.32833,-125.22339 0.36253,-127.18144 2.37884,-136.17592 4.19278,-18.70335 8.67162,-29.90663 17.07649,-42.71471 17.1943,-26.20219 46.01216,-44.14706 84.23785,-52.45488 9.58817,-2.08386 10.83276,-2.10846 146.02602,-2.88689 89.81034,-0.51712 139.65651,-1.15558 146.02604,-1.87041 55.8235,-6.26484 94.25871,-39.2467 109.33657,-93.82343 5.64147,-20.42019 5.51118,-18.38487 5.93743,-92.74875 l 0.39507,-68.92307 48.05853,0.0207 c 43.49457,0.0188 48.83913,0.19286 56.27852,1.83272 37.32203,8.22681 68.66298,34.83616 89.44684,75.94287 12.23806,24.20458 21.11266,54.10615 26.09341,87.91711 1.34702,9.14373 1.51335,20.0097 1.22797,80.21013 l -0.33006,69.63361 -3.57638,16.58942 c -7.22567,33.51771 -20.3128,65.70649 -35.23992,86.67516 -8.43233,11.84517 -26.45295,29.68885 -37.00535,36.64197 -14.71094,9.69323 -30.49248,16.43522 -48.35298,20.65674 -6.8031,1.60798 -18.4843,1.73225 -188.33492,2.00355 l -181.08194,0.28925 v 16.79337 16.79336 H 623.20579 743.563 l 0.28351,59.31707 c 0.15591,32.62439 -0.0426,61.84489 -0.44125,64.93449 -2.93747,22.7677 -20.68817,45.4768 -48.14447,61.5929 -31.29451,18.3689 -79.04741,30.1445 -138.25687,34.0934 -15.764,1.0513 -57.82807,1.8637 -71.07889,1.3728 z m 160.99669,-76.3239 c 23.2427,-3.7457 39.69703,-26.0811 35.86699,-48.68653 -3.14602,-18.5683 -17.07155,-32.51581 -35.78047,-35.83694 -17.93782,-3.18425 -37.00796,6.44261 -45.2363,22.8359 -14.20843,28.30747 4.88561,60.23577 37.43208,62.59257 0.79782,0.058 4.27078,-0.3495 7.7177,-0.905 z M 130.16833,739.15292 C 108.18999,734.81507 88.405615,724.31205 70.901235,707.68953 37.095595,675.587 17.032695,625.46557 9.112725,553.3285 c -2.06997,-18.85379 -2.91957,-69.99951 -1.50478,-90.58686 4.04261,-58.82575 16.9902,-103.71255 39.70334,-137.64389 21.68644,-32.39754 50.31943,-52.18777 88.538075,-61.19476 8.70024,-2.05039 8.77177,-2.05128 188.81844,-2.34606 l 180.1149,-0.29489 V 244.9538 228.64558 H 384.54121 264.29971 l -0.63975,-41.06567 c -0.96762,-62.11018 -0.81543,-79.48119 0.76115,-86.87031 3.14358,-14.733402 10.49449,-27.226682 23.65049,-40.195342 28.48835,-28.08266 78.8018,-45.10643 153.36868,-51.8929297 18.28893,-1.66452 77.76126,-2.27902 98.15656,-1.01421 63.98162,3.9678097 111.61126,15.6793897 146.27552,35.9674697 11.40695,6.67618 18.53355,12.16734 28.59827,22.03544 13.68983,13.42238 22.42621,28.30394 26.89961,45.820812 l 2.33064,9.12628 -0.0399,122.39709 c -0.0259,79.52493 -0.39869,125.59393 -1.06435,131.52385 -4.13045,36.79478 -21.9581,66.49072 -51.17147,85.23751 -13.99273,8.97941 -32.27477,16.1747 -52.70475,20.74308 l -9.67061,2.16245 -138.77308,0.58257 c -150.00101,0.6297 -144.45735,0.43473 -164.88371,5.79917 -44.08697,11.57828 -75.17541,44.14961 -87.51561,91.69001 -5.44373,20.97197 -5.80564,26.99399 -5.80564,96.6023 v 63.35043 l -47.6277,-0.0903 c -36.06106,-0.0683 -49.24222,-0.40892 -54.27578,-1.40239 z M 378.61997,166.64618 c 11.93585,-3.06811 22.29686,-11.78917 27.91198,-23.49404 2.83347,-5.90646 2.99535,-6.86687 2.99535,-17.77111 0,-11.1633 -0.10403,-11.73865 -3.29502,-18.22497 -8.27491,-16.820332 -27.2726,-26.868582 -45.07279,-23.839912 -28.91119,4.9192 -44.66395,34.308962 -32.42169,60.488822 8.66913,18.5388 29.50434,28.07931 49.88217,22.84121 z"
       id="path2942" />
  </g>
</svg>
