<?xml version="1.0" encoding="UTF-8" standalone="no"?>
<!-- Created with Inkscape (http://www.inkscape.org/) -->

<svg
   width="249.26778mm"
   height="249.26778mm"
   viewBox="0 0 249.26777 249.26777"
   version="1.1"
   id="svg5"
   inkscape:version="1.1 (c68e22c387, 2021-05-23)"
   sodipodi:docname="qs_white.svg"
   xmlns:inkscape="http://www.inkscape.org/namespaces/inkscape"
   xmlns:sodipodi="http://sodipodi.sourceforge.net/DTD/sodipodi-0.dtd"
   xmlns="http://www.w3.org/2000/svg"
   xmlns:svg="http://www.w3.org/2000/svg">
  <sodipodi:namedview
     id="namedview7"
     pagecolor="#ffffff"
     bordercolor="#666666"
     borderopacity="1.0"
     inkscape:pageshadow="2"
     inkscape:pageopacity="0.0"
     inkscape:pagecheckerboard="0"
     inkscape:document-units="mm"
     showgrid="false"
     inkscape:zoom="0.5"
     inkscape:cx="533"
     inkscape:cy="575"
     inkscape:window-width="1920"
     inkscape:window-height="1017"
     inkscape:window-x="1912"
     inkscape:window-y="-8"
     inkscape:window-maximized="1"
     inkscape:current-layer="layer1" />
  <defs
     id="defs2" />
  <g
     inkscape:label="Calque 1"
     inkscape:groupmode="layer"
     id="layer1"
     transform="translate(-23.082178,-54.270045)">
    <path
       style="fill:#ffffff;stroke-width:0.264636"
       d="m 153.04135,264.08826 c -1.44065,-0.22028 -3.66342,-0.92664 -4.9218,-1.56405 -0.68131,-0.34511 -8.42023,-5.76248 -17.1976,-12.03859 -14.15437,-10.12086 -16.05074,-11.39823 -16.77146,-11.29709 -0.44693,0.0627 -2.18237,0.53825 -3.85653,1.05673 -8.43752,2.61309 -19.994122,3.95887 -29.107684,3.38963 -14.485001,-0.90475 -25.687633,-4.16553 -32.697361,-9.51731 -5.469478,-4.17583 -9.614864,-8.27647 -12.204554,-12.07281 -4.036512,-6.53696 -7.78704,-13.56041 -9.612643,-20.68275 -2.98581,-11.82905 -4.139294,-27.16824 -3.346235,-44.49841 0.555583,-12.14064 0.954373,-15.24164 2.980768,-23.1788 2.696303,-10.56109 5.591007,-16.57218 11.179993,-23.21621 7.056255,-8.38827 16.271889,-13.875694 28.510838,-16.976694 12.401804,-2.1438 22.51948,-3.04199 33.709287,-1.13858 15.007571,2.58553 26.004641,8.416834 34.163021,18.115274 5.58899,6.64403 8.48368,12.65512 11.17999,23.21621 2.0264,7.93716 2.42518,11.03816 2.98076,23.1788 0.79307,17.33017 -0.36042,32.66936 -3.34622,44.49841 -0.79966,3.16806 -2.14257,7.14534 -2.59767,7.69348 -0.13766,0.1658 -0.50201,0.9398 -0.80965,1.71998 -0.30764,0.78019 -0.89112,1.91098 -1.29661,2.51288 -0.98805,1.46664 -1.71614,3.48908 -1.52711,4.24192 0.10938,0.43565 3.98071,3.34724 13.40597,10.08249 14.12656,10.09478 15.35935,11.13444 16.89145,14.24533 4.1933,8.51437 -0.17799,18.81565 -9.1686,21.60654 -1.68365,0.52264 -5.08178,0.84665 -6.54035,0.62362 z M 94.457939,217.15609 c 8.831441,-1.29607 10.801231,-2.21487 17.077131,-7.96555 2.01204,-1.84366 5.06549,-7.40468 6.54539,-11.92058 1.68897,-5.15388 3.30432,-14.49677 3.89193,-22.51016 0.43005,-5.86461 0.15957,-16.34642 -0.53633,-20.78453 -2.0945,-11.53605 -4.87091,-24.43782 -14.22104,-29.34347 -16.614661,-7.83093 -27.256047,-8.01515 -43.074414,0 -12.91413,8.03495 -14.596266,27.00897 -14.913214,39.48009 -0.203472,9.61937 0.470779,17.25419 2.334128,26.43012 1.842951,9.07554 4.862094,15.40122 9.617165,20.14984 3.637622,3.6327 7.519962,5.23947 15.632022,6.46959 4.62622,0.70152 12.847584,0.69902 17.647232,-0.005 z m 129.084551,19.14049 c -0.22358,-0.26929 0.23907,-4.61268 1.86255,-17.48607 1.18801,-9.42028 2.15697,-17.39568 2.15323,-17.7231 l -0.007,-0.59531 h -11.89904 -11.89904 l -0.14121,0.8599 c -0.0776,0.47294 -0.92345,8.36083 -1.87954,17.52864 -0.9561,9.16781 -1.84009,16.77112 -1.96443,16.89623 -0.31144,0.31337 -20.985,0.20892 -21.30221,-0.10762 -0.15715,-0.15681 0.55952,-6.72145 1.92656,-17.64727 1.19724,-9.56868 2.17339,-17.48689 2.16923,-17.59603 -0.004,-0.10914 -3.0303,-0.19843 -6.72475,-0.19843 -5.05816,0 -6.7816,-0.0817 -6.97802,-0.33073 -0.16842,-0.21356 -0.18913,-3.0961 -0.0584,-8.13594 0.11131,-4.29287 0.14903,-7.89205 0.0838,-7.99818 -0.0652,-0.10613 0.0103,-0.43355 0.16772,-0.7276 0.27727,-0.51789 0.53055,-0.53464 8.08527,-0.53464 5.9223,0 7.79904,-0.077 7.79904,-0.31992 0,-0.36592 3.6259,-29.19275 3.86183,-30.70247 l 0.15505,-0.99219 h -8.72563 c -6.65908,0 -8.78997,-0.0783 -8.99736,-0.33073 -0.26617,-0.32393 0.96293,-15.57954 1.45487,-18.05781 l 0.21009,-1.05834 9.19266,-0.0696 9.19268,-0.0696 0.12982,-0.59189 c 0.0714,-0.32553 1.03162,-7.78954 2.13383,-16.58668 1.10221,-8.79714 2.13225,-16.149254 2.28898,-16.338024 0.41997,-0.50584 18.0235,-0.50068 18.44368,0.005 0.21234,0.25576 -0.18071,4.729094 -1.47554,16.793014 -0.97074,9.04441 -1.67206,16.53729 -1.55848,16.65085 0.23067,0.23065 25.30801,0.47712 25.30801,0.24875 0,-0.4773 4.26952,-33.704744 4.36559,-33.975094 0.091,-0.25628 2.25976,-0.33073 9.63301,-0.33073 5.23352,0 9.70389,0.0723 9.93418,0.1606 0.25915,0.0994 0.4184,0.47745 0.41793,0.99218 -5.3e-4,0.45738 -0.70814,7.201444 -1.57274,14.986804 -0.8646,7.78537 -1.65492,15.07794 -1.75625,16.20573 l -0.18425,2.05052 h 7.28307 c 6.18408,0 7.3333,0.0605 7.61598,0.40098 0.26842,0.32329 0.2193,2.0792 -0.25345,9.06198 -0.3225,4.76355 -0.67905,8.83959 -0.79233,9.05788 -0.1737,0.33469 -1.44548,0.4176 -8.11742,0.52916 l -7.91144,0.13229 -1.62594,14.81667 c -0.89427,8.14917 -1.69294,15.38221 -1.77481,16.07344 l -0.14887,1.25677 h 7.10174 c 5.37078,0 7.16889,0.0809 7.37723,0.33181 0.19186,0.23108 0.1232,2.62054 -0.22615,7.87135 -0.27589,4.14675 -0.50621,7.95627 -0.51182,8.46559 -0.0185,1.68012 0.27051,1.62046 -8.10084,1.67237 l -7.64732,0.0474 -1.93457,17.5948 c -1.06401,9.67713 -2.01755,17.67095 -2.11899,17.76402 -0.10143,0.0931 -5.0395,0.22275 -10.97347,0.28816 -8.86007,0.0977 -10.84224,0.0549 -11.08653,-0.23937 z m 8.51936,-69.88176 c 1.10932,-8.77432 1.94037,-16.00062 1.8468,-16.05842 -0.0935,-0.0578 -5.73359,-0.0333 -12.53335,0.0544 -12.26625,0.15828 -12.36411,0.16387 -12.47735,0.71259 -0.0628,0.30419 -0.77699,6.98244 -1.58711,14.84056 -0.81014,7.85813 -1.54418,14.79472 -1.63123,15.41464 l -0.15826,1.12715 12.26179,-0.0688 12.26178,-0.0688 z"
       id="path2834"
       sodipodi:nodetypes="sssssssccsssccsssssssssssscsssccccssscccsccccssssscsssssssscssscccssscsssssscsscssssscsscssssscsssccsssssscccs" />
  </g>
</svg>
