<?xml version="1.0" encoding="UTF-8" standalone="no"?>
<!-- Created with Inkscape (http://www.inkscape.org/) -->

<svg
   width="300mm"
   height="300mm"
   viewBox="0 0 300 300"
   version="1.1"
   id="svg5"
   inkscape:version="1.1 (c68e22c387, 2021-05-23)"
   sodipodi:docname="question.svg"
   xmlns:inkscape="http://www.inkscape.org/namespaces/inkscape"
   xmlns:sodipodi="http://sodipodi.sourceforge.net/DTD/sodipodi-0.dtd"
   xmlns="http://www.w3.org/2000/svg"
   xmlns:svg="http://www.w3.org/2000/svg">
  <sodipodi:namedview
     id="namedview7"
     pagecolor="#ffffff"
     bordercolor="#666666"
     borderopacity="1.0"
     inkscape:pageshadow="2"
     inkscape:pageopacity="0.0"
     inkscape:pagecheckerboard="0"
     inkscape:document-units="mm"
     showgrid="false"
     inkscape:zoom="0.5"
     inkscape:cx="401"
     inkscape:cy="477"
     inkscape:window-width="1920"
     inkscape:window-height="1017"
     inkscape:window-x="1912"
     inkscape:window-y="-8"
     inkscape:window-maximized="1"
     inkscape:current-layer="layer1" />
  <defs
     id="defs2" />
  <g
     inkscape:label="Calque 1"
     inkscape:groupmode="layer"
     id="layer1">
    <path
       style="fill:#ffffff;stroke-width:0.583669"
       d="m 135.79783,298.75869 c -27.05492,-2.50438 -53.77274,-12.9402 -76.40921,-29.84495 -7.20248,-5.37877 -23.10621,-21.2825 -28.484966,-28.48497 -40.6425077,-54.42273 -40.6425077,-126.4118 0,-180.834525 5.378756,-7.202476 21.282486,-23.106207 28.484966,-28.484966 54.42272,-40.642508 126.41179,-40.642508 180.83452,0 7.20247,5.378759 23.1062,21.28249 28.48497,28.484966 40.6425,54.422725 40.6425,126.411795 0,180.834525 -5.37877,7.20247 -21.2825,23.1062 -28.48497,28.48497 -30.47929,22.76172 -67.29041,33.28241 -104.42531,29.84495 z m 25.18183,-26.1823 c 9.30195,-0.9067 18.05599,-2.77261 27.48268,-5.85788 46.27209,-15.14444 79.1255,-56.4648 83.90842,-105.53322 1.61252,-16.54299 -0.30677,-32.86945 -5.85788,-49.83024 -15.14445,-46.272097 -56.46481,-79.125506 -105.53322,-83.908426 -16.543,-1.612521 -32.86945,0.306765 -49.83024,5.85788 -46.27209,15.144443 -79.125501,56.464803 -83.908421,105.533226 -3.471535,35.61479 9.884531,72.4582 35.582491,98.15617 25.69146,25.69145 62.55038,39.05315 98.15617,35.58249 z m -14.17469,-46.17135 c -5.38157,-0.79803 -10.13333,-4.22654 -12.47244,-8.99917 -1.63981,-3.34582 -1.55944,-9.66591 0.16449,-12.93442 1.68088,-3.1869 4.83289,-6.21035 8.05189,-7.72345 3.87313,-1.82059 10.15432,-1.6883 14.13989,0.2978 3.62586,1.80684 7.2456,5.73395 8.18972,8.88515 3.48077,11.61776 -5.92715,22.27523 -18.07355,20.47409 z m -5.92627,-52.3172 -0.35179,-10.94379 1.84608,-4.08568 c 1.61808,-3.58105 3.12701,-5.38984 12.21693,-14.6447 12.49613,-12.72288 13.61608,-14.57222 13.57646,-22.41825 -0.03,-5.95606 -1.26563,-9.17022 -4.93613,-12.84071 -3.64296,-3.64297 -6.87205,-4.87832 -12.8407,-4.91247 -4.16173,-0.0238 -5.47848,0.21546 -8.17136,1.48487 -6.2072,2.92603 -10.52508,7.89686 -11.36644,13.08528 -0.2058,1.26914 -0.49539,2.89849 -0.64352,3.62078 l -0.26932,1.31325 h -12.83649 -12.83649 l 0.3419,-2.48059 c 1.72081,-12.48515 4.16153,-17.98471 10.93492,-24.639165 7.82694,-7.689494 15.78674,-12.134416 25.22532,-14.086355 5.75835,-1.190854 19.13528,-0.849466 24.50502,0.625377 10.66281,2.928633 20.27207,10.403752 24.40519,18.985003 5.05084,10.4866 5.24295,24.89437 0.4573,34.29652 -2.41518,4.745 -8.50984,11.73049 -16.97754,19.45909 -10.02376,9.14883 -10.77394,9.96693 -12.64364,13.78848 -1.40201,2.8656 -1.67489,4.23381 -1.86416,9.34692 l -0.22173,5.98992 h -8.59902 -8.59901 z"
       id="path1141" />
  </g>
</svg>
