<?xml version="1.0" encoding="UTF-8" standalone="no"?>
<!-- Created with Inkscape (http://www.inkscape.org/) -->

<svg
   width="300mm"
   height="300mm"
   viewBox="0 0 300 300"
   version="1.1"
   id="svg5"
   inkscape:version="1.1 (c68e22c387, 2021-05-23)"
   sodipodi:docname="r.svg"
   xmlns:inkscape="http://www.inkscape.org/namespaces/inkscape"
   xmlns:sodipodi="http://sodipodi.sourceforge.net/DTD/sodipodi-0.dtd"
   xmlns="http://www.w3.org/2000/svg"
   xmlns:svg="http://www.w3.org/2000/svg">
  <sodipodi:namedview
     id="namedview7"
     pagecolor="#ffffff"
     bordercolor="#666666"
     borderopacity="1.0"
     inkscape:pageshadow="2"
     inkscape:pageopacity="0.0"
     inkscape:pagecheckerboard="0"
     inkscape:document-units="mm"
     showgrid="false"
     width="300mm"
     inkscape:zoom="0.33540614"
     inkscape:cx="210.19293"
     inkscape:cy="696.17091"
     inkscape:window-width="1920"
     inkscape:window-height="1017"
     inkscape:window-x="1912"
     inkscape:window-y="-8"
     inkscape:window-maximized="1"
     inkscape:current-layer="g2192" />
  <defs
     id="defs2" />
  <g
     inkscape:label="Calque 1"
     inkscape:groupmode="layer"
     id="layer1">
    <g
       id="g1204"
       transform="translate(-134.42917,1.6733921)" />
    <g
       id="g2192"
       transform="translate(-406.07649,-174.03278)">
      <g
         id="g3116">
        <path
           style="fill:#aaaaaf;stroke-width:1.17453"
           d="m 634.89691,439.68912 c -0.63739,-1.67393 -0.50249,-1.80884 0.6575,-0.6575 0.80269,0.79673 1.16356,1.74445 0.80194,2.10608 -0.36162,0.36162 -1.01837,-0.29024 -1.45944,-1.44858 z m 54.02817,-5.87263 c -0.63739,-1.67393 -0.50248,-1.80884 0.6575,-0.6575 0.80269,0.79673 1.16357,1.74446 0.80194,2.10608 -0.36162,0.36163 -1.01837,-0.29024 -1.45944,-1.44858 z m -108.70823,-34.8466 0.0106,-11.89144 13.33871,-0.35048 13.33871,-0.35048 5.30489,9.36326 c 2.91767,5.14979 4.55584,9.07583 3.64037,8.72453 -0.91549,-0.3513 -3.8925,-0.0221 -6.61559,0.73156 -2.7231,0.75367 -10.36858,2.3365 -16.98997,3.5174 l -12.03888,2.1471 0.0106,-11.89145 z m -58.73716,10.22944 c -34.82585,-5.48497 -68.97082,-21.40366 -88.56489,-41.28973 -18.16433,-18.43502 -25.37621,-34.51205 -25.34837,-56.5076 0.0135,-10.67335 0.49882,-13.80103 3.46291,-22.31744 21.78075,-62.58029 125.36802,-95.45376 210.87228,-66.92041 43.19025,14.41288 72.81024,41.39591 81.14209,73.9183 1.43519,5.6021 1.79294,10.66773 1.36602,19.3425 -0.64338,13.07321 -3.56145,22.68464 -10.41905,34.31785 -4.5487,7.71641 -21.48908,25.42296 -29.04172,30.35521 -4.91011,3.20654 -5.15699,3.2487 -6.36663,1.0872 -0.69214,-1.23679 -2.4283,-3.41857 -3.85814,-4.84841 l -2.59969,-2.5997 6.61727,-4.09748 c 18.74462,-11.60686 28.38356,-28.84317 28.3173,-50.63679 -0.0503,-16.52205 -4.1961,-27.78381 -14.29681,-38.83559 -15.06316,-16.48151 -38.40749,-25.30443 -76.11294,-28.76669 -53.87832,-4.94731 -107.08377,14.14278 -124.85928,44.79944 -18.19935,31.38763 4.00594,66.82201 51.74507,82.57288 l 6.16626,2.03447 v 14.58718 c 0,16.19665 0.59728,15.19378 -8.22168,13.80481 z m 79.16888,-30.04893 -2.23746,-2.64268 2.64268,2.23746 c 2.48346,2.10265 3.17737,3.0479 2.23746,3.0479 -0.22288,0 -1.41209,-1.18921 -2.64268,-2.64268 z m -19.93275,-41.18021 c -0.32502,-0.84698 -0.4214,-7.58582 -0.21419,-14.9752 l 0.37674,-13.43523 0.25105,14.35569 0.25107,14.35569 16.73699,0.3608 16.73698,0.36082 -16.77384,0.2587 c -12.9401,0.19958 -16.90892,-0.0933 -17.3648,-1.28127 z m 97.31168,-19.01423 c 0.009,-3.22994 0.23693,-4.41188 0.50689,-2.62653 0.26998,1.78535 0.26276,4.42804 -0.016,5.87263 -0.27884,1.44459 -0.49972,-0.0162 -0.49092,-3.2461 z"
           id="path3120" />
        <path
           style="fill:#1f64b7;stroke-width:1.17453"
           d="m 529.70137,357.71531 v -83.97858 l 51.97275,0.009 c 46.24228,0.008 52.96056,0.24558 60.9318,2.15333 15.48615,3.7063 24.86671,10.5208 30.64329,22.2608 3.68534,7.48988 3.85433,8.43059 3.83749,21.36257 -0.0148,11.36942 -0.42451,14.41466 -2.56797,19.08711 -6.5772,14.3373 -18.20451,22.85531 -37.34828,27.36083 -3.50264,0.82435 -3.4886,0.84143 2.36278,2.87388 11.32362,3.93322 15.5759,6.78022 18.89855,12.65305 2.6193,4.62965 24.54715,41.94595 32.34836,55.04969 1.19915,2.01421 2.18027,3.99622 2.18027,4.40447 0,0.40825 -12.61012,0.74226 -28.02248,0.74226 h -28.02247 l -10.81625,-20.39065 c -14.24058,-26.84616 -21.7726,-39.50941 -25.42155,-42.74009 -2.52615,-2.23659 -4.32838,-2.64269 -11.72825,-2.64269 h -8.74345 v 32.88672 32.88671 h -25.2523 -25.25229 z m 87.34267,-19.82461 c 5.97383,-2.49603 8.96842,-7.1003 8.96842,-13.78924 0,-4.63184 -0.63964,-6.41215 -3.42445,-9.53144 l -3.42445,-3.83574 -19.4788,-0.37267 -19.4788,-0.37268 v 13.9776 c 0,7.68768 0.35236,14.32996 0.78302,14.76061 1.55674,1.55674 32.01871,0.85005 36.05506,-0.83644 z"
           id="path3118" />
      </g>
    </g>
  </g>
</svg>
