<?xml version="1.0" encoding="UTF-8" standalone="no"?>
<!-- Created with Inkscape (http://www.inkscape.org/) -->

<svg
   width="252mm"
   height="252mm"
   viewBox="0 0 252 252.00001"
   version="1.1"
   id="svg3784"
   inkscape:version="1.1 (c68e22c387, 2021-05-23)"
   sodipodi:docname="raku_white.svg"
   xmlns:inkscape="http://www.inkscape.org/namespaces/inkscape"
   xmlns:sodipodi="http://sodipodi.sourceforge.net/DTD/sodipodi-0.dtd"
   xmlns="http://www.w3.org/2000/svg"
   xmlns:svg="http://www.w3.org/2000/svg">
  <sodipodi:namedview
     id="namedview3786"
     pagecolor="#ffffff"
     bordercolor="#666666"
     borderopacity="1.0"
     inkscape:pageshadow="2"
     inkscape:pageopacity="0.0"
     inkscape:pagecheckerboard="0"
     inkscape:document-units="mm"
     showgrid="false"
     inkscape:zoom="0.67081229"
     inkscape:cx="225.10023"
     inkscape:cy="515.79258"
     inkscape:window-width="1920"
     inkscape:window-height="1106"
     inkscape:window-x="-11"
     inkscape:window-y="-11"
     inkscape:window-maximized="1"
     inkscape:current-layer="g4173" />
  <defs
     id="defs3781" />
  <g
     inkscape:label="Calque 1"
     inkscape:groupmode="layer"
     id="layer1">
    <g
       id="g4173"
       transform="translate(-264.58334)">
      <path
         style="fill:#ffffff;stroke-width:0.264583"
         d="m 450.0927,214.83409 c -11.55204,-0.97319 -22.4395,-6.27319 -30.8882,-15.03632 -6.40927,-6.64779 -10.84353,-15.11604 -12.27467,-23.44129 -0.25015,-1.45521 -0.48803,-2.69021 -0.52863,-2.74446 -0.0406,-0.0542 -1.12783,0.16181 -2.41608,0.48013 -1.28825,0.31831 -3.28778,0.72484 -4.44339,0.9034 l -2.10111,0.32464 -0.0725,4.73438 -0.0725,4.73438 2.65214,4.42782 c 1.45868,2.43531 2.65214,4.49533 2.65214,4.57785 0,0.1909 -2.03075,1.47957 -2.33159,1.47957 -0.12399,0 -1.55511,-2.19075 -3.18026,-4.86833 l -2.95482,-4.86834 v -4.87995 -4.87995 l -4.43955,-0.1595 c -2.44175,-0.0877 -4.6444,-0.23811 -4.89479,-0.33419 -0.42024,-0.16126 -0.45524,0.19252 -0.45524,4.60114 v 4.77584 l 2.65702,4.41415 c 1.46136,2.42779 2.68175,4.52165 2.71198,4.65302 0.0611,0.26556 -2.36422,1.74022 -2.53299,1.54012 -0.0586,-0.0695 -1.43503,-2.34709 -3.05876,-5.06139 l -2.95225,-4.93508 v -5.26637 -5.26637 l -1.89049,-0.45371 c -1.03977,-0.24955 -1.91325,-0.42139 -1.94107,-0.38189 -0.0278,0.0395 -0.25467,1.1434 -0.50411,2.45309 -0.24944,1.30969 -0.91704,3.77233 -1.48355,5.47253 -5.46043,16.3878 -20.05928,28.84466 -37.70474,32.17258 -3.71018,0.69973 -12.36011,0.61944 -15.8921,-0.14752 -5.66037,-1.22913 -10.80633,-3.43208 -15.00251,-6.42248 -2.77596,-1.97829 -6.97072,-6.26664 -8.77299,-8.96874 -2.73063,-4.09395 -4.61844,-8.68481 -5.62253,-13.67304 -0.65798,-3.2688 -0.66007,-10.92049 -0.004,-14.25416 2.6477,-13.45174 11.02127,-25.08751 23.15779,-32.17969 0.95505,-0.5581 1.55509,-1.05257 1.34628,-1.10943 -0.20718,-0.0564 -2.02241,-0.42 -4.03384,-0.80796 -12.86102,-2.48063 -25.37669,-9.83678 -34.22866,-20.11813 -16.85821,-19.580401 -18.70087,-46.37011 -4.44214,-64.582707 1.89884,-2.425383 5.86997,-6.353821 8.19677,-8.108655 7.82749,-5.903344 17.43512,-9.229622 27.91355,-9.664007 18.87479,-0.782455 38.46661,8.748176 50.25444,24.446764 5.22076,6.952821 8.68179,14.599116 10.51205,23.223814 0.6812,3.21001 0.72987,3.8634 0.72916,9.78958 -7.9e-4,6.83832 -0.28538,8.982301 -1.83699,13.840381 -0.3574,1.11904 -0.65134,2.11269 -0.6532,2.20812 -0.002,0.0954 0.74076,0.53194 1.65027,0.97004 0.9095,0.4381 2.0092,1.02305 2.44376,1.2999 0.78344,0.4991 0.80693,0.49801 2.77813,-0.12887 2.14224,-0.68129 6.57004,-1.65311 7.53183,-1.65311 0.58328,0 0.59383,-0.0664 0.83077,-5.22552 0.13199,-2.874041 0.23964,-7.606771 0.23922,-10.517191 -8e-4,-5.99505 -0.0516,-6.25094 -2.30718,-11.63943 -0.73148,-1.74748 -1.35988,-3.21208 -1.39644,-3.25468 -0.0993,-0.11571 -1.19041,1.78794 -1.19041,2.07694 0,0.1372 0.19133,0.24946 0.42519,0.24946 0.25163,0 0.36831,0.14819 0.28586,0.36305 -0.0766,0.19968 -0.22216,0.91552 -0.32342,1.59075 -0.10125,0.67524 -0.28435,1.28967 -0.40688,1.36539 -0.42821,0.26465 -3.68753,-0.50417 -4.21308,-0.99379 -0.29159,-0.27166 -0.53017,-0.77555 -0.53017,-1.11976 0,-0.3442 1.12703,-2.5283 2.50452,-4.85353 3.71525,-6.271479 4.13872,-6.21218 7.21439,1.01023 3.88097,9.11344 4.1123,10.58301 3.42647,21.76749 -0.25162,4.103441 -0.45477,7.728691 -0.45143,8.056111 0.006,0.58568 0.0602,0.59531 3.35448,0.59531 h 3.34842 l -0.17225,-3.9026 c -0.0947,-2.14644 -0.29108,-5.688551 -0.4363,-7.871361 -0.28474,-4.28002 -0.0422,-8.37917 0.65377,-11.05137 0.21617,-0.8299 1.42894,-3.96299 2.69506,-6.96242 3.35859,-7.956496 3.62301,-8.016961 7.41641,-1.69592 1.51151,2.51866 2.46027,4.37985 2.46057,4.8269 7.9e-4,1.09357 -0.74716,1.63722 -2.7633,2.00871 -2.10248,0.3874 -2.13253,0.36703 -2.40741,-1.63161 -0.13272,-0.96492 -0.086,-1.35935 0.18038,-1.524 0.29504,-0.18234 0.26912,-0.38983 -0.14467,-1.15819 -0.27726,-0.51483 -0.58175,-0.93605 -0.67665,-0.93605 -0.25802,0 -2.84612,6.31321 -3.32146,8.1021 -0.63561,2.39206 -0.76808,6.45432 -0.3978,12.19857 0.18548,2.877391 0.35209,6.277541 0.37025,7.555901 0.0298,2.09558 0.0851,2.33558 0.56218,2.43897 0.29104,0.0631 1.5753,0.30171 2.85391,0.53032 1.27861,0.2286 3.05343,0.64243 3.94404,0.91962 l 1.6193,0.50399 2.33242,-1.10964 c 1.71684,-0.81677 2.29334,-1.21437 2.18433,-1.5065 -0.5773,-1.54705 -1.47774,-6.56993 -1.7431,-9.723441 -0.55849,-6.63697 0.28958,-13.24232 2.59025,-20.17448 2.82403,-8.509116 7.51806,-16.096569 14.0001,-22.629804 9.26364,-9.336815 20.30041,-15.138714 33.20521,-17.455585 3.7609,-0.675214 12.00355,-0.824027 16.05888,-0.289925 11.11941,1.46446 20.89663,6.271627 28.12844,13.829907 11.30997,11.820549 15.25856,28.556627 10.68371,45.282817 -5.50811,20.138281 -22.22775,36.233281 -43.44152,41.818551 l -2.7257,0.71764 1.99175,1.26171 c 4.42541,2.8034 8.96338,6.97293 12.32976,11.32872 4.44296,5.7488 7.37898,12.13871 8.7927,19.1363 0.77467,3.83443 0.83596,11.45344 0.12065,14.99788 -3.82865,18.97138 -21.03001,31.27615 -41.33138,29.56586 z M 333.65972,199.65766 c 9.81659,-2.93 17.59726,-11.40591 19.91002,-21.68905 0.60128,-2.67348 0.59357,-7.67221 -0.016,-10.34338 -1.66832,-7.31121 -7.05963,-12.96455 -14.18921,-14.87886 -2.60909,-0.70055 -8.1573,-0.62276 -11.1125,0.1558 -6.38204,1.68138 -12.50694,6.11296 -16.32629,11.81264 -9.60785,14.33796 -4.30326,32.0279 10.63775,35.47512 2.62168,0.60488 8.17955,0.33828 11.09619,-0.53227 z m -6.97373,-15.26246 c -6.17395,-3.08515 -5.19055,-12.87061 2.00511,-19.95221 1.85735,-1.82792 3.91497,-3.07784 6.48933,-3.94203 8.88091,-2.98122 13.97373,5.10054 9.20573,14.60851 -2.98816,5.95876 -8.79825,10.11055 -14.14887,10.11055 -1.59842,0 -2.1632,-0.13117 -3.5513,-0.82482 z m 133.46935,15.63932 c 11.72955,-2.99991 17.66754,-15.37587 13.45535,-28.04366 -3.16114,-9.50688 -10.55569,-16.57675 -19.96423,-19.08766 -3.19618,-0.85299 -8.24595,-0.85661 -11.2117,-0.008 -6.71876,1.92237 -11.72762,6.89401 -13.6481,13.5467 -0.80965,2.80469 -0.99529,7.80894 -0.4058,10.93921 1.12773,5.98836 3.99443,11.19741 8.5659,15.56496 3.6676,3.50402 7.66301,5.76631 12.30096,6.9651 3.26457,0.8438 7.88646,0.89609 10.90762,0.12341 z m -12.57618,-14.18039 c -3.41523,-0.91389 -7.48688,-3.98894 -9.73776,-7.35428 -4.74589,-7.0957 -4.33177,-14.55215 0.93765,-16.88306 6.77756,-2.99804 16.94258,4.1912 18.99971,13.4376 1.70029,7.64249 -3.08063,12.70472 -10.1996,10.79974 z m -46.52723,-14.21921 c 14.66563,-3.17058 25.41001,-12.02808 28.6152,-23.58991 0.80922,-2.91906 1.11017,-8.37662 0.55924,-10.14153 -0.0741,-0.23734 -0.5205,0.008 -1.36239,0.74922 -1.666,1.46648 -3.99602,2.73117 -6.42024,3.4848 -1.64749,0.51217 -2.54584,0.61462 -5.29167,0.60348 -2.90849,-0.0118 -3.56252,-0.10187 -5.42395,-0.74707 -2.84205,-0.98507 -4.60993,-2.03499 -6.68754,-3.97161 -2.22891,-2.07764 -4.1017,-4.94942 -5.00112,-7.66879 -0.616,-1.86246 -0.71285,-2.59511 -0.72156,-5.45849 -0.007,-2.45426 0.11309,-3.71267 0.46741,-4.87899 0.64875,-2.13544 2.0152,-4.78569 3.31589,-6.43117 0.59288,-0.75006 0.98319,-1.42233 0.86734,-1.49393 -0.11585,-0.0716 -1.3939,-0.37006 -2.84011,-0.66324 -7.47612,-1.51558 -14.89053,-1.33259 -22.12118,0.54596 l -2.29378,0.59594 0.74161,0.93719 c 1.15948,1.46528 2.55778,4.20323 3.1629,6.19317 2.79503,9.19133 -2.46567,19.16166 -11.75236,22.27364 -5.13203,1.71975 -10.70081,0.95953 -15.71231,-2.14496 l -1.16023,-0.71873 0.1425,3.54204 c 0.0999,2.4832 0.31261,4.12992 0.71153,5.50862 3.10853,10.74314 12.83399,19.31851 25.85135,22.79427 4.87911,1.30278 7.23387,1.55313 13.58278,1.44411 4.84296,-0.0832 6.1467,-0.19673 8.77069,-0.76402 z m -10.5815,-7.72335 c -3.01051,-0.65338 -4.45286,-1.16189 -7.20845,-2.54139 -2.18616,-1.09443 -3.10665,-1.7494 -4.73955,-3.37242 -2.43439,-2.41963 -3.25155,-3.96272 -3.39322,-6.40754 l -0.10126,-1.74751 1.68133,0.23466 c 2.82529,0.39433 2.87196,0.4143 2.87196,1.22922 0,0.4053 0.34841,1.2863 0.77424,1.95777 2.14316,3.37941 8.09013,6.14599 13.92003,6.47571 3.17083,0.17934 5.17528,-0.28801 6.59982,-1.53877 1.20733,-1.06005 1.54296,-2.3459 1.30985,-5.01826 l -0.18268,-2.09427 h 2.26206 2.26206 l 0.18733,1.74924 c 0.62619,5.84728 -1.89298,9.64975 -7.35667,11.10428 -1.76414,0.46964 -6.6594,0.45272 -8.88685,-0.0307 z m -22.6991,-25.26635 c 4.56043,-1.40857 8.59452,-5.79192 9.69452,-10.53383 0.45613,-1.96628 0.39406,-5.27699 -0.1329,-7.08969 -1.46326,-5.03344 -5.4557,-9.00393 -10.33041,-10.27364 -2.04164,-0.53178 -5.71933,-0.5213 -7.54776,0.0215 -7.43456,2.20708 -11.98269,9.5 -10.45918,16.7713 1.30675,6.23674 6.1264,10.77603 12.46168,11.73678 1.4126,0.21422 4.60972,-0.106 6.31405,-0.63242 z m -7.38306,-6.55544 c -3.97759,-1.91596 -5.79415,-6.61515 -4.08924,-10.5783 0.77894,-1.8107 2.95263,-3.8209 4.79247,-4.43199 2.05259,-0.68177 4.78903,-0.43784 6.62128,0.59021 3.72541,2.09029 5.19493,6.86526 3.27739,10.64934 -1.41782,2.79793 -3.8174,4.32148 -7.01935,4.45674 -1.74664,0.0738 -2.17583,-0.008 -3.58255,-0.686 z m 61.04764,6.66101 c 2.09556,-0.61536 4.19354,-1.81773 5.73184,-3.28495 8.28404,-7.90131 4.98205,-21.42752 -6.0288,-24.69628 -2.17615,-0.64603 -6.06403,-0.56173 -8.23551,0.17855 -4.93071,1.68095 -8.6302,5.64766 -9.79948,10.50733 -0.54034,2.24569 -0.41735,5.47372 0.29266,7.68188 2.43447,7.57119 10.44911,11.84235 18.03929,9.61347 z M 416.019,131.7643 c -2.25027,-0.56213 -4.31537,-2.21162 -5.4322,-4.33895 -0.59981,-1.14249 -0.70389,-1.67076 -0.70706,-3.58866 -0.003,-2.00213 0.0824,-2.40448 0.78113,-3.66591 3.23249,-5.83601 11.4937,-5.82814 14.41291,0.0137 0.69212,1.38504 0.80954,1.9148 0.80954,3.65218 0,1.73713 -0.11745,2.2672 -0.8091,3.6513 -0.445,0.89054 -1.18914,1.94062 -1.65364,2.33351 -1.94515,1.64529 -5.1866,2.49612 -7.40158,1.9428 z m -71.42163,-4.89991 c 0.72007,-0.50435 0.79985,-2.10449 0.171,-3.42969 -0.39854,-0.83986 -2.11027,-2.56883 -4.63098,-4.6776 -1.48117,-1.23912 -7.45949,-4.85929 -14.00198,-8.47891 -6.21893,-3.4406 -8.5434,-4.82291 -8.52867,-5.07182 0.008,-0.13298 0.59058,-0.57233 1.29492,-0.97634 1.87924,-1.07793 5.6576,-3.15955 6.57229,-3.62088 2.48223,-1.251951 6.38033,-3.693051 7.4889,-4.689741 2.15641,-1.9388 4.52736,-5.83778 5.78984,-9.52126 1.22461,-3.57298 1.67811,-7.32595 1.94882,-16.127512 0.13854,-4.504507 0.17889,-8.43357 0.0897,-8.73125 -0.35191,-1.174028 -3.67504,-5.804657 -5.70362,-7.947705 -3.17305,-3.352107 -7.43179,-5.985095 -12.12715,-7.497662 -2.35526,-0.758725 -6.31331,-1.533346 -10.61608,-2.077654 -3.38935,-0.428759 -3.72732,-0.429362 -5.6594,-0.01008 -1.13013,0.245248 -3.0204,0.910058 -4.20059,1.477357 -1.1802,0.567298 -3.21737,1.531776 -4.52706,2.143283 -6.31234,2.947303 -11.52488,7.778444 -17.39685,16.123934 -0.98254,1.396429 -2.13323,3.20003 -2.55709,4.008001 -2.83132,5.397162 -2.25674,11.978808 1.70216,19.497728 0.78493,1.49079 1.55869,2.86001 1.71946,3.04271 0.16076,0.1827 1.14932,1.64187 2.1968,3.2426 3.36151,5.13697 7.07973,10.279181 8.47781,11.724601 1.54592,1.59827 5.15381,4.33429 7.31292,5.54569 2.51369,1.41035 8.92593,4.01678 13.87754,5.64093 2.62043,0.8595 4.85885,1.56274 4.97427,1.56274 0.11541,0 2.49917,0.8514 5.29724,1.89202 5.37667,1.9996 9.01241,3.63976 11.13663,5.02398 3.03216,1.97586 8.35404,3.01481 9.8992,1.93254 z M 307.87916,99.435559 c -4.5233,-3.15177 -8.52988,-7.02225 -11.30477,-10.92075 -0.82863,-1.16416 -2.71427,-3.66448 -4.1903,-5.55625 -3.47764,-4.45715 -4.0807,-5.44934 -4.26669,-7.01974 -0.19356,-1.6343 0.5578,-3.270128 2.75231,-5.992244 0.84222,-1.044717 2.0671,-2.64977 2.72195,-3.566781 3.73948,-5.236581 6.15361,-8.280229 8.17629,-10.30835 2.21079,-2.216737 2.32829,-2.292993 4.17906,-2.711979 1.04737,-0.237109 2.49802,-0.431107 3.22365,-0.431107 3.01621,0 11.92473,2.342388 15.13265,3.97895 1.49641,0.76341 4.4796,2.902558 5.57515,3.997754 1.52034,1.519848 2.45026,3.299481 2.38594,4.566076 -0.49789,9.803791 -1.19161,13.737511 -3.05631,17.330531 -0.87056,1.67745 -3.91753,4.80007 -6.90914,7.08068 -1.16417,0.88749 -2.37113,1.83582 -2.68214,2.10741 -0.311,0.27159 -1.02376,0.85099 -1.58391,1.28755 -0.56014,0.43657 -2.76322,2.19274 -4.89573,3.90261 -2.13251,1.70987 -3.92006,3.103541 -3.97234,3.097051 -0.0523,-0.006 -0.63083,-0.385121 -1.28567,-0.841411 z m 8.07121,-9.8739 c 5.39736,-1.40583 9.91807,-5.99155 10.98816,-11.14618 0.45207,-2.17763 0.20661,-6.212468 -0.49623,-8.156912 -0.709,-1.961483 -2.65851,-4.86319 -4.11107,-6.119027 -1.47951,-1.279141 -3.39261,-2.355982 -5.45624,-3.071186 -2.30053,-0.797311 -7.05603,-0.84978 -9.26042,-0.102176 -6.18305,2.096947 -10.14812,7.068407 -10.51675,13.186021 -0.17722,2.94111 0.23813,5.09461 1.46887,7.61574 1.74756,3.57984 5.61032,6.70896 9.60979,7.78467 1.90544,0.51249 5.82355,0.51705 7.77389,0.009 z m -4.04823,-4.83923 c -1.96524,-0.70137 -3.2222,-1.81227 -4.22142,-3.73088 -1.58352,-3.04054 -0.99273,-6.29525 1.56967,-8.64746 1.44375,-1.325321 2.74409,-1.802804 4.87938,-1.7917 3.7668,0.01958 6.82666,2.87837 7.16962,6.69848 0.4723,5.26083 -4.50446,9.21775 -9.39725,7.47156 z m 144.14369,39.897511 c 1.96453,-0.3036 5.28545,-0.78046 7.37982,-1.05968 8.88143,-1.18409 11.50207,-2.12154 14.16884,-5.06841 3.20677,-3.5436 5.25331,-9.89108 5.61918,-17.42826 0.48751,-10.043111 -2.7929,-19.100941 -9.1631,-25.301021 -1.68188,-1.63697 -3.15103,-2.50719 -6.62766,-3.925739 -7.08638,-2.891425 -10.07797,-4.131593 -10.98021,-4.551854 -0.58208,-0.271135 -1.44185,-0.665496 -1.9106,-0.876359 l -0.85227,-0.383384 2.83665,-1.760614 c 6.51615,-4.044373 14.23147,-6.199793 22.01893,-6.151401 4.57561,0.02843 6.8618,0.479528 9.69527,1.912996 1.63638,0.827857 4.06306,2.797376 4.06306,3.297621 0,0.162986 0.65485,1.329314 1.45521,2.591837 0.80037,1.262526 1.45521,2.360779 1.45521,2.440567 0,0.231463 2.93776,2.969908 4.31064,4.01818 1.63154,1.24578 2.80733,1.7206 4.26062,1.7206 1.72123,0 2.27666,-0.79126 2.27666,-3.243312 0,-3.087746 -2.17942,-8.906473 -4.48347,-11.970224 -2.14613,-2.853743 -5.58273,-5.660578 -9.15732,-7.479197 -1.71871,-0.874419 -5.63844,-2.135518 -8.37843,-2.695604 -11.14376,-2.277912 -26.58441,-0.489545 -34.85318,4.036764 -2.52287,1.381011 -11.35603,7.300145 -13.1099,8.784992 -2.3251,1.968461 -4.07803,3.936429 -6.30021,7.073088 -6.8829,9.715383 -8.09604,12.695913 -8.10511,19.913283 -0.008,6.54713 1.36384,12.040511 4.91831,19.691571 0.75599,1.62729 1.22759,2.24622 2.50734,3.29065 0.86692,0.70751 2.05433,1.99044 2.63869,2.85095 1.08653,1.59998 2.62061,4.61946 2.62098,5.15879 2.7e-4,0.55646 3.29059,3.02207 5.45385,4.08699 1.18049,0.58113 2.96643,1.22815 3.96875,1.43783 2.37662,0.49717 7.50583,0.32514 12.27345,-0.41165 z m -11.6122,-9.6598 c -2.143,-0.93019 -6.78747,-6.90672 -8.65541,-11.13782 -0.37616,-0.85205 -0.90444,-2.03442 -1.17395,-2.62749 -0.92505,-2.035601 -1.64661,-6.361551 -1.47807,-8.861391 0.17183,-2.54861 0.9689,-5.47472 1.86902,-6.86133 0.33062,-0.50933 1.51775,-2.33879 2.63806,-4.06547 2.52907,-3.89795 4.28378,-6.23763 6.04303,-8.0576 1.94849,-2.01574 2.00333,-2.029474 3.5239,-0.882469 0.71775,0.541409 2.79327,1.990349 4.61228,3.219859 9.22768,6.23722 16.3042,13.32331 19.345,19.37117 1.88789,3.75482 2.28507,6.850101 1.2917,10.066281 -1.77648,5.75157 -2.93359,6.4866 -12.17003,7.73078 -1.67349,0.22542 -5.28099,0.8836 -8.01668,1.46261 -5.41078,1.1452 -6.471,1.23226 -7.82885,0.64287 z m 10.91134,-6.18639 c 4.01266,-1.3929 7.16037,-4.69494 8.41592,-8.828541 0.45897,-1.51107 0.53308,-2.30503 0.43571,-4.66817 -0.10657,-2.58643 -0.20296,-3.02684 -1.05159,-4.80483 -2.49756,-5.23265 -6.60255,-7.91052 -12.12627,-7.91052 -3.92432,0 -6.8801,1.27393 -9.64111,4.1553 -6.13339,6.40075 -4.1095,17.590751 3.86668,21.378621 1.08231,0.51398 2.4969,1.04611 3.14353,1.18251 1.72188,0.36319 5.18011,0.11248 6.95713,-0.50437 z m -6.66378,-3.96264 c -2.40672,-0.83117 -4.43434,-3.27572 -4.9174,-5.928531 -0.26454,-1.45281 0.2808,-3.68478 1.25389,-5.1319 1.18581,-1.76345 2.88652,-2.74564 5.05577,-2.91976 3.38446,-0.27167 5.86733,1.09319 7.30644,4.01643 0.78485,1.59427 0.84256,1.88732 0.72681,3.69092 -0.20384,3.176351 -1.96939,5.543301 -4.751,6.369351 -1.77895,0.52829 -2.93441,0.50444 -4.67451,-0.0965 z m 41.36359,11.77349 c 6.95592,-2.24321 11.73874,-7.5743 13.27209,-14.7935 0.55057,-2.592191 0.34894,-8.354321 -0.3767,-10.764981 -2.26663,-7.52998 -7.3131,-13.67861 -13.95372,-17.00124 -3.4801,-1.741257 -8.9287,-2.784388 -12.30312,-2.355419 -1.50627,0.191482 -1.62125,0.243546 -0.92605,0.419341 4.02976,1.019011 7.46111,2.696788 10.56238,5.164548 6.80368,5.41385 10.77613,14.75256 9.68018,22.756801 -0.66526,4.85864 -2.46262,8.60235 -5.66945,11.80879 -2.20592,2.20566 -4.43803,3.57476 -7.51252,4.6079 -2.6998,0.90724 -2.34923,1.06529 2.06754,0.93211 2.36548,-0.0713 3.51383,-0.24368 5.15937,-0.77435 z M 344.50764,104.13304 C 358.7092,99.954499 367.12295,83.956139 361.93474,70.996225 359.4148,64.70152 353.17229,59.86014 346.61506,59.115036 l -1.56195,-0.177485 2.04098,1.373783 c 2.79835,1.883577 4.99131,4.370089 6.4394,7.301399 1.79616,3.635889 2.10634,5.113145 2.08334,9.921876 -0.0174,3.64486 -0.0973,4.35528 -0.7179,6.38666 -0.97017,3.17555 -1.81416,4.98801 -3.50853,7.53449 -4.47526,6.7259 -11.69236,11.063711 -19.39214,11.655561 l -2.23547,0.17183 1.20976,0.4752 c 3.79231,1.48964 9.23379,1.64027 13.53509,0.37469 z"
         id="path5028" />
    </g>
  </g>
</svg>
