<?xml version="1.0" encoding="UTF-8" standalone="no"?>
<!-- Created with Inkscape (http://www.inkscape.org/) -->

<svg
   width="196.142mm"
   height="141.11099mm"
   viewBox="0 0 196.142 141.11099"
   version="1.1"
   id="svg2225"
   inkscape:version="1.1 (c68e22c387, 2021-05-23)"
   sodipodi:docname="raku.svg"
   xmlns:inkscape="http://www.inkscape.org/namespaces/inkscape"
   xmlns:sodipodi="http://sodipodi.sourceforge.net/DTD/sodipodi-0.dtd"
   xmlns="http://www.w3.org/2000/svg"
   xmlns:svg="http://www.w3.org/2000/svg">
  <sodipodi:namedview
     id="namedview2227"
     pagecolor="#ffffff"
     bordercolor="#666666"
     borderopacity="1.0"
     inkscape:pageshadow="2"
     inkscape:pageopacity="0.0"
     inkscape:pagecheckerboard="0"
     inkscape:document-units="mm"
     showgrid="false"
     inkscape:zoom="0.47433592"
     inkscape:cx="-70.625054"
     inkscape:cy="152.84527"
     inkscape:window-width="1920"
     inkscape:window-height="1017"
     inkscape:window-x="1912"
     inkscape:window-y="-8"
     inkscape:window-maximized="1"
     inkscape:current-layer="layer1" />
  <defs
     id="defs2222">
    <clipPath
       id="a">
      <path
         d="M 0,-0.1 H 792.1 V 612 H 0 Z"
         id="path2286" />
    </clipPath>
  </defs>
  <g
     inkscape:label="Calque 1"
     inkscape:groupmode="layer"
     id="layer1">
    <g
       clip-path="url(#a)"
       transform="matrix(0.27465236,0,0,-0.27465236,-10.994034,153.78454)"
       id="g2401">
      <path
         d="M 304.2,75.7 C 248.8,35.1 174.7,42.1 138.6,91.4 c -36,49.2 -20.3,122 35.1,162.5 55.3,40.6 129.5,33.6 165.5,-15.6 36.1,-49.3 20.4,-122.1 -35,-162.6 z"
         fill-rule="evenodd"
         id="path2291" />
      <path
         d="M 304.2,75.7 C 248.8,35.1 174.7,42.1 138.6,91.4 c -36,49.2 -20.3,122 35.1,162.5 55.3,40.6 129.5,33.6 165.5,-15.6 36.1,-49.3 20.4,-122.1 -35,-162.6 z"
         fill="none"
         stroke="#000000"
         stroke-width="4.302"
         stroke-linejoin="round"
         stroke-miterlimit="10"
         id="path2293" />
      <path
         d="m 273.6,523.5 c 68.9,-50.4 88.4,-140.9 43.5,-202.1 -44.8,-61.2 -137,-69.9 -205.8,-19.5 -68.9,50.4 -88.4,141 -43.6,202.2 44.9,61.2 137,69.9 205.9,19.4 z"
         fill-rule="evenodd"
         id="path2295" />
      <path
         d="m 273.6,523.5 c 68.9,-50.4 88.4,-140.9 43.5,-202.1 -44.8,-61.2 -137,-69.9 -205.8,-19.5 -68.9,50.4 -88.4,141 -43.6,202.2 44.9,61.2 137,69.9 205.9,19.4 z"
         fill="none"
         stroke="#000000"
         stroke-width="7.188"
         stroke-linejoin="round"
         stroke-miterlimit="10"
         id="path2297" />
      <path
         d="m 213.3,370.5 c -25.8,21.2 -27.3,62.2 -3.3,91.4 24.1,29.3 64.5,35.9 90.3,14.6 25.9,-21.2 27.4,-62.1 3.3,-91.4 -24,-29.3 -64.4,-35.8 -90.3,-14.6 z"
         fill="#00ff00"
         fill-rule="evenodd"
         id="path2299" />
      <path
         d="m 213.3,370.5 c -25.8,21.2 -27.3,62.2 -3.3,91.4 24.1,29.3 64.5,35.9 90.3,14.6 25.9,-21.2 27.4,-62.1 3.3,-91.4 -24,-29.3 -64.4,-35.8 -90.3,-14.6 z"
         fill="none"
         id="path2301" />
      <path
         d="m 191.7,375.8 c -25.9,21.3 -27.4,62.2 -3.4,91.5 24.1,29.3 64.6,35.8 90.4,14.6 25.9,-21.2 27.4,-62.2 3.3,-91.5 -24,-29.3 -64.5,-35.8 -90.3,-14.6 z"
         fill-rule="evenodd"
         id="path2303" />
      <path
         d="m 191.7,375.8 c -25.9,21.3 -27.4,62.2 -3.4,91.5 24.1,29.3 64.6,35.8 90.4,14.6 25.9,-21.2 27.4,-62.2 3.3,-91.5 -24,-29.3 -64.5,-35.8 -90.3,-14.6 z"
         fill="none"
         id="path2305" />
      <path
         d="m 245.6,311.6 c -41.6,27.7 -99.1,49.2 -123.8,86.2 -18.4,27.5 -39.3,38.3 -17.3,65.5 21,25.7 32.7,53.3 61.9,57.9 32.8,-4.4 58.3,-7.3 79.3,-43.8 -2.4,-21.4 4.8,-66.6 -23,-88.1 l -48.1,-26.7"
         fill="none"
         stroke="#0000ff"
         stroke-width="21.565"
         stroke-linejoin="round"
         stroke-miterlimit="10"
         id="path2307" />
      <path
         d="m 175,400.5 c -23.8,0 -43.1,18.9 -43.1,42.3 0,23.4 19.3,42.3 43.1,42.3 23.8,0 43.1,-18.9 43.1,-42.3 0,-23.4 -19.3,-42.3 -43.1,-42.3 z"
         fill="#ff3366"
         fill-rule="evenodd"
         id="path2309" />
      <path
         d="m 175,400.5 c -23.8,0 -43.1,18.9 -43.1,42.3 0,23.4 19.3,42.3 43.1,42.3 23.8,0 43.1,-18.9 43.1,-42.3 0,-23.4 -19.3,-42.3 -43.1,-42.3 z"
         fill="none"
         id="path2311" />
      <path
         d="m 194.2,418.9 c -8.9,-7.3 -22.2,-5.9 -29.7,3.2 -7.5,9.1 -6.3,22.4 2.7,29.7 8.9,7.3 22.2,5.9 29.6,-3.2 7.5,-9.1 6.3,-22.4 -2.6,-29.7 z"
         fill="#0000ff"
         fill-rule="evenodd"
         id="path2313" />
      <path
         d="m 194.2,418.9 c -8.9,-7.3 -22.2,-5.9 -29.7,3.2 -7.5,9.1 -6.3,22.4 2.7,29.7 8.9,7.3 22.2,5.9 29.6,-3.2 7.5,-9.1 6.3,-22.4 -2.6,-29.7 z"
         fill="none"
         id="path2315" />
      <path
         d="m 249.3,308.8 c -41.7,27.8 -104.7,27.8 -129.4,64.7 -18.4,27.6 -50.3,63.1 -28.3,90.2 20.1,31.9 45.6,53.8 77.5,53.8 32.9,-4.3 66.7,-17 74.7,-42.8 -2.3,-21.5 2.1,-55.4 -25.7,-76.9 l -45.3,-36.1"
         fill="none"
         stroke="#0000ff"
         stroke-width="21.565"
         stroke-linejoin="round"
         stroke-miterlimit="10"
         id="path2317" />
      <path
         d="m 268,298 c -2.9,-5.1 -15.3,-3.4 -27.6,3.7 -12.4,7.1 -20,17 -17.1,22.1 3,5 15.3,3.4 27.7,-3.7 12.3,-7.2 20,-17 17,-22.1 z"
         fill="#0000ff"
         fill-rule="evenodd"
         id="path2319" />
      <path
         d="m 268,298 c -2.9,-5.1 -15.3,-3.4 -27.6,3.7 -12.4,7.1 -20,17 -17.1,22.1 3,5 15.3,3.4 27.7,-3.7 12.3,-7.2 20,-17 17,-22.1 z"
         fill="none"
         id="path2321" />
      <path
         d="M 629.1,253 C 684.4,212.5 700.1,139.6 664,90.4 627.9,41.1 553.8,34.1 498.4,74.6 c -55.3,40.6 -71,113.4 -34.9,162.6 36.1,49.3 110.2,56.4 165.6,15.8 z"
         fill-rule="evenodd"
         id="path2323" />
      <path
         d="M 629.1,253 C 684.4,212.5 700.1,139.6 664,90.4 627.9,41.1 553.8,34.1 498.4,74.6 c -55.3,40.6 -71,113.4 -34.9,162.6 36.1,49.3 110.2,56.4 165.6,15.8 z"
         fill="none"
         stroke="#000000"
         stroke-width="4.302"
         stroke-linejoin="round"
         stroke-miterlimit="10"
         id="path2325" />
      <path
         d="m 399.5,162 c -64,0 -115.8,41.4 -115.8,92.6 0,51.1 51.8,92.6 115.8,92.6 64,0 115.8,-41.5 115.8,-92.6 0,-51.2 -51.8,-92.6 -115.8,-92.6 z"
         fill="#ffff00"
         fill-rule="evenodd"
         id="path2327" />
      <path
         d="m 399.5,162 c -64,0 -115.8,41.4 -115.8,92.6 0,51.1 51.8,92.6 115.8,92.6 64,0 115.8,-41.5 115.8,-92.6 0,-51.2 -51.8,-92.6 -115.8,-92.6 z"
         fill="none"
         stroke="#000000"
         stroke-width="8.632"
         stroke-linejoin="round"
         stroke-miterlimit="10"
         id="path2329" />
      <path
         d="m 320.1,255.7 c -25.6,0 -46.3,20.8 -46.3,46.3 0,25.6 20.7,46.3 46.3,46.3 25.6,0 46.4,-20.7 46.4,-46.3 0,-25.5 -20.8,-46.3 -46.4,-46.3 z"
         fill="#ffffff"
         fill-rule="evenodd"
         id="path2331" />
      <path
         d="m 320.1,255.7 c -25.6,0 -46.3,20.8 -46.3,46.3 0,25.6 20.7,46.3 46.3,46.3 25.6,0 46.4,-20.7 46.4,-46.3 0,-25.5 -20.8,-46.3 -46.4,-46.3 z"
         fill="none"
         stroke="#000000"
         stroke-width="10.075"
         stroke-linejoin="round"
         stroke-miterlimit="10"
         id="path2333" />
      <path
         d="m 683.4,296.3 c -68.4,-50.1 -160,-41.4 -204.5,19.4 -44.6,60.8 -25.2,150.7 43.2,200.9 68.4,50.1 160,41.4 204.5,-19.4 44.6,-60.9 25.2,-150.8 -43.2,-200.9 z"
         fill-rule="evenodd"
         id="path2335" />
      <path
         d="m 683.4,296.3 c -68.4,-50.1 -160,-41.4 -204.5,19.4 -44.6,60.8 -25.2,150.7 43.2,200.9 68.4,50.1 160,41.4 204.5,-19.4 44.6,-60.9 25.2,-150.8 -43.2,-200.9 z"
         fill="none"
         stroke="#000000"
         stroke-width="7.188"
         stroke-linejoin="round"
         stroke-miterlimit="10"
         id="path2337" />
      <path
         d="m 698.5,335.2 c -25.7,-21.1 -65.9,-14.5 -89.8,14.6 -23.9,29.1 -22.5,69.8 3.2,90.9 25.7,21.1 65.9,14.6 89.8,-14.6 23.9,-29.1 22.5,-69.8 -3.2,-90.9 z"
         fill="#00ff00"
         fill-rule="evenodd"
         id="path2339" />
      <path
         d="m 698.5,335.2 c -25.7,-21.1 -65.9,-14.5 -89.8,14.6 -23.9,29.1 -22.5,69.8 3.2,90.9 25.7,21.1 65.9,14.6 89.8,-14.6 23.9,-29.1 22.5,-69.8 -3.2,-90.9 z"
         fill="none"
         id="path2341" />
      <path
         d="m 677.1,335.2 c -25.7,-21.1 -65.9,-14.5 -89.8,14.6 -23.9,29.1 -22.5,69.8 3.2,90.8 25.7,21.1 65.9,14.6 89.8,-14.5 23.9,-29.1 22.4,-69.8 -3.2,-90.9 z"
         fill-rule="evenodd"
         id="path2343" />
      <path
         d="m 677.1,335.2 c -25.7,-21.1 -65.9,-14.5 -89.8,14.6 -23.9,29.1 -22.5,69.8 3.2,90.8 25.7,21.1 65.9,14.6 89.8,-14.5 23.9,-29.1 22.4,-69.8 -3.2,-90.9 z"
         fill="none"
         id="path2345" />
      <path
         d="m 705.7,464.7 c -18,58.1 -98.5,38.2 -128.5,18.1 -41.4,-27.6 -36.2,-22.1 -60.7,-58.8 -18.3,-27.5 -8.4,-63.6 13.5,-90.6 20.7,-25.6 29,-13.8 61.6,-9.5 32.6,4.3 41.5,5.4 49.4,31 9.9,32.1 -22.1,65.3 -49.7,86.6 L 560.2,463"
         fill="none"
         stroke="#0000ff"
         stroke-width="21.565"
         stroke-linejoin="round"
         stroke-miterlimit="10"
         id="path2347" />
      <path
         d="m 569.2,345.3 c -21,0 -37.9,17.2 -37.9,38.5 0,21.3 16.9,38.5 37.9,38.5 20.9,0 37.8,-17.2 37.8,-38.5 0,-21.3 -16.9,-38.5 -37.8,-38.5 z"
         fill="#ff3366"
         fill-rule="evenodd"
         id="path2349" />
      <path
         d="m 569.2,345.3 c -21,0 -37.9,17.2 -37.9,38.5 0,21.3 16.9,38.5 37.9,38.5 20.9,0 37.8,-17.2 37.8,-38.5 0,-21.3 -16.9,-38.5 -37.8,-38.5 z"
         fill="none"
         id="path2351" />
      <path
         d="m 582.5,361.7 c -8.9,-7.2 -22.1,-5.8 -29.5,3.3 -7.4,9 -6.3,22.3 2.5,29.5 8.8,7.3 22.1,5.8 29.5,-3.2 7.4,-9.1 6.3,-22.3 -2.5,-29.6 z"
         fill="#0000ff"
         fill-rule="evenodd"
         id="path2353" />
      <path
         d="m 582.5,361.7 c -8.9,-7.2 -22.1,-5.8 -29.5,3.3 -7.4,9 -6.3,22.3 2.5,29.5 8.8,7.3 22.1,5.8 29.5,-3.2 7.4,-9.1 6.3,-22.3 -2.5,-29.6 z"
         fill="none"
         id="path2355" />
      <path
         d="m 711.2,466.5 c -18,58.1 -116.7,47.3 -146.7,27.2 -41.4,-27.6 -35.3,-22.2 -59.8,-58.9 -18.3,-27.4 -2,-76.9 19.9,-103.9 20.7,-25.6 35.8,-19.8 68.3,-15.5 32.6,4.3 44,3.5 52,29.2 9.9,32 4,71.5 -23.7,92.9 l -61,25.5"
         fill="none"
         stroke="#0000ff"
         stroke-width="21.565"
         stroke-linejoin="round"
         stroke-miterlimit="10"
         id="path2357" />
      <path
         d="m 473.4,255.7 c -25.6,0 -46.4,20.8 -46.4,46.3 0,25.6 20.8,46.3 46.4,46.3 25.6,0 46.3,-20.7 46.3,-46.3 0,-25.5 -20.7,-46.3 -46.3,-46.3 z"
         fill="#ffffff"
         fill-rule="evenodd"
         id="path2359" />
      <path
         d="m 473.4,255.7 c -25.6,0 -46.4,20.8 -46.4,46.3 0,25.6 20.8,46.3 46.4,46.3 25.6,0 46.3,-20.7 46.3,-46.3 0,-25.5 -20.7,-46.3 -46.3,-46.3 z"
         fill="none"
         stroke="#000000"
         stroke-width="10.075"
         stroke-linejoin="round"
         stroke-miterlimit="10"
         id="path2361" />
      <path
         d="m 321.5,279 c -12.8,0 -23.2,10.4 -23.2,23.2 0,12.8 10.4,23.2 23.2,23.2 12.8,0 23.1,-10.4 23.1,-23.2 0,-12.8 -10.3,-23.2 -23.1,-23.2 z"
         fill-rule="evenodd"
         id="path2363" />
      <path
         d="m 321.5,279 c -12.8,0 -23.2,10.4 -23.2,23.2 0,12.8 10.4,23.2 23.2,23.2 12.8,0 23.1,-10.4 23.1,-23.2 0,-12.8 -10.3,-23.2 -23.1,-23.2 z"
         fill="none"
         id="path2365" />
      <path
         d="m 475.1,281.6 c -12.9,0 -23.2,10.4 -23.2,23.1 0,12.8 10.3,23.1 23.2,23.1 12.8,0 23.1,-10.3 23.1,-23.1 0,-12.7 -10.3,-23.1 -23.1,-23.1 z"
         fill-rule="evenodd"
         id="path2367" />
      <path
         d="m 475.1,281.6 c -12.9,0 -23.2,10.4 -23.2,23.1 0,12.8 10.3,23.1 23.2,23.1 12.8,0 23.1,-10.3 23.1,-23.1 0,-12.7 -10.3,-23.1 -23.1,-23.1 z"
         fill="none"
         id="path2369" />
      <path
         d="m 360,230 c -4.6,-31.7 87.5,-54.6 76.4,-5.4 v 2.7"
         fill="none"
         stroke="#ff3366"
         stroke-width="12.933"
         stroke-linejoin="round"
         stroke-miterlimit="10"
         id="path2371" />
      <path
         d="m 385.1,348 c -1.9,25.2 7.3,53.8 -4.2,77.1 l -9.7,23.1 -12.6,-21.2 9.7,-1.9 m 45,-77.1 c 1.9,25.2 -7.4,53.8 4.1,77.1 l 9.7,23.1 12.6,-21.2 -9.7,-1.9"
         fill="none"
         stroke="#000000"
         stroke-width="10.075"
         stroke-linejoin="round"
         stroke-miterlimit="10"
         id="path2373" />
      <path
         d="m 181.1,99.3 c -26.6,21.9 -27.5,64.8 -2,96 25.6,31.1 67.9,38.6 94.6,16.7 26.6,-21.9 27.5,-64.8 1.9,-95.9 C 250.1,84.9 207.8,77.4 181.1,99.3 Z"
         fill="#ff3366"
         fill-rule="evenodd"
         id="path2375" />
      <path
         d="m 181.1,99.3 c -26.6,21.9 -27.5,64.8 -2,96 25.6,31.1 67.9,38.6 94.6,16.7 26.6,-21.9 27.5,-64.8 1.9,-95.9 C 250.1,84.9 207.8,77.4 181.1,99.3 Z"
         fill="none"
         id="path2377" />
      <path
         d="m 375.5,161 v -29.9 l 16.4,-27.2 v 0 M 412,161 v -30 l 16.4,-27.2 v 0"
         fill="none"
         stroke="#000000"
         stroke-width="8.632"
         stroke-linejoin="round"
         stroke-miterlimit="10"
         id="path2379" />
      <path
         d="m 212.3,134.8 c -12,9.8 -10.1,32 4.3,49.5 14.4,17.6 35.7,23.8 47.8,13.9 11.9,-9.8 10,-32 -4.3,-49.6 -14.4,-17.5 -35.8,-23.7 -47.8,-13.8 z"
         fill="#0000ff"
         fill-rule="evenodd"
         id="path2381" />
      <path
         d="m 212.3,134.8 c -12,9.8 -10.1,32 4.3,49.5 14.4,17.6 35.7,23.8 47.8,13.9 11.9,-9.8 10,-32 -4.3,-49.6 -14.4,-17.5 -35.8,-23.7 -47.8,-13.8 z"
         fill="none"
         id="path2383" />
      <path
         d="M 616.6,99.2 C 589.9,77.3 547.6,84.8 522,116 c -25.5,31.1 -24.6,74.1 2,95.9 26.7,21.9 69,14.4 94.6,-16.7 25.5,-31.2 24.6,-74.1 -2,-96 z"
         fill="#ff3366"
         fill-rule="evenodd"
         id="path2385" />
      <path
         d="M 616.6,99.2 C 589.9,77.3 547.6,84.8 522,116 c -25.5,31.1 -24.6,74.1 2,95.9 26.7,21.9 69,14.4 94.6,-16.7 25.5,-31.2 24.6,-74.1 -2,-96 z"
         fill="none"
         id="path2387" />
      <path
         d="m 581.8,132 c -12,-9.8 -33.4,-3.6 -47.7,13.8 -14.4,17.5 -16.3,39.7 -4.2,49.5 11.9,9.9 33.3,3.7 47.7,-13.8 14.3,-17.4 16.2,-39.6 4.2,-49.5 z"
         fill="#0000ff"
         fill-rule="evenodd"
         id="path2389" />
      <path
         d="m 581.8,132 c -12,-9.8 -33.4,-3.6 -47.7,13.8 -14.4,17.5 -16.3,39.7 -4.2,49.5 11.9,9.9 33.3,3.7 47.7,-13.8 14.3,-17.4 16.2,-39.6 4.2,-49.5 z"
         fill="none"
         id="path2391" />
      <text
         transform="matrix(1,0,0,-1,658.4,245.8)"
         id="text2395"><tspan
           style="-inkscape-font-specification:NimbusSanL-Regu"
           y="0"
           x="0 9.6960001"
           font-size="16px"
           font-family="NimbusSanL"
           fill="#808080"
           id="tspan2393">TM</tspan></text>
      <path
         d="m 722.4,447.3 c -6.1,-4.2 -19.3,4.3 -29.6,19.1 -10.4,14.7 -13.8,30.1 -7.8,34.3 6,4.2 19.3,-4.3 29.6,-19.1 10.3,-14.7 13.8,-30.1 7.8,-34.3 z"
         fill="#0000ff"
         fill-rule="evenodd"
         id="path2397" />
      <path
         d="m 722.4,447.3 c -6.1,-4.2 -19.3,4.3 -29.6,19.1 -10.4,14.7 -13.8,30.1 -7.8,34.3 6,4.2 19.3,-4.3 29.6,-19.1 10.3,-14.7 13.8,-30.1 7.8,-34.3 z"
         fill="none"
         id="path2399" />
    </g>
  </g>
</svg>
