<?xml version="1.0" encoding="UTF-8" standalone="no"?>
<!-- Created with Inkscape (http://www.inkscape.org/) -->

<svg
   width="211.19807mm"
   height="211.20378mm"
   viewBox="0 0 211.19807 211.20378"
   version="1.1"
   id="svg5"
   sodipodi:docname="reset.svg"
   inkscape:version="1.1 (c68e22c387, 2021-05-23)"
   xmlns:inkscape="http://www.inkscape.org/namespaces/inkscape"
   xmlns:sodipodi="http://sodipodi.sourceforge.net/DTD/sodipodi-0.dtd"
   xmlns="http://www.w3.org/2000/svg"
   xmlns:svg="http://www.w3.org/2000/svg">
  <sodipodi:namedview
     id="namedview7"
     pagecolor="#ffffff"
     bordercolor="#666666"
     borderopacity="1.0"
     inkscape:pageshadow="2"
     inkscape:pageopacity="0.0"
     inkscape:pagecheckerboard="0"
     inkscape:document-units="mm"
     showgrid="false"
     fit-margin-top="0"
     fit-margin-left="0"
     fit-margin-right="0"
     fit-margin-bottom="0"
     inkscape:zoom="0.67081229"
     inkscape:cx="-125.96668"
     inkscape:cy="70.809675"
     inkscape:window-width="1920"
     inkscape:window-height="1017"
     inkscape:window-x="1912"
     inkscape:window-y="-8"
     inkscape:window-maximized="1"
     inkscape:current-layer="layer1" />
  <defs
     id="defs2" />
  <g
     inkscape:label="Calque 1"
     inkscape:groupmode="layer"
     id="layer1"
     transform="translate(0.20874465,-44.124259)">
    <path
       style="fill:#ffffff;stroke-width:0.264583"
       d="M 101.47429,255.19692 C 85.041824,254.6211 71.560904,251.27295 57.688114,244.3221 c -9.44381,-4.73173 -17.07037,-10.0489 -25.33365,-17.66238 -3.38925,-3.12272 -3.99474,-3.94415 -3.66744,-4.97537 0.0843,-0.2655 6.08068,-6.40581 13.32538,-13.64513 11.03921,-11.03103 13.29076,-13.16242 13.90455,-13.16242 0.56555,0 1.36249,0.59925 3.49836,2.63055 12.5044,11.89212 28.78292,18.36435 46.160026,18.35288 10.45785,-0.007 19.65447,-2.29364 29.6367,-7.36919 20.51296,-10.42997 32.71145,-27.97708 35.76705,-51.44965 0.43217,-3.3199 0.42316,-12.95396 -0.0151,-16.13959 -1.39924,-10.17075 -4.95457,-19.48696 -10.75357,-28.17812 -8.22627,-12.329 -19.5788,-20.794975 -34.52677,-25.747818 -7.53974,-2.498207 -13.78092,-3.559017 -20.90208,-3.552712 -10.097486,0.0089 -18.446036,2.002388 -27.913536,6.665127 -6.91542,3.405838 -15.47813,9.162418 -15.47813,10.405713 0,0.40846 2.92014,3.50269 9.92188,10.51338 5.45703,5.46401 9.92187,10.057 9.92187,10.20664 0,0.8388 -0.74899,1.17766 -3.43958,1.55615 -4.44514,0.6253 -18.48763,2.69714 -33.20521,4.89912 -2.03729,0.30481 -4.89479,0.72567 -6.35,0.93524 -1.45521,0.20956 -8.65849,1.28146 -16.00729,2.38198 -20.636876,3.09049 -21.39306902,3.18952 -21.90559602,2.86867 -0.248434,-0.15553 -0.488142,-0.64612 -0.532685,-1.09021 -0.04454,-0.44409 0.646587,-5.6113 1.53584402,-11.48269 0.889257,-5.87139 1.968923,-12.99698 2.399257,-15.83463 1.822044,-12.014695 6.388894,-42.918032 7.011793,-47.447972 0.549609,-3.996958 0.80283,-4.870468 1.473607,-5.083365 0.465084,-0.147612 2.087072,1.353805 10.12975,9.376752 5.31842,5.305369 9.78278,9.552506 10.04108,9.552506 0.71744,0 1.47175,-0.476928 3.3407,-2.112232 12.72742,-11.136343 28.05202,-19.002434 44.84538,-23.019064 7.93209,-1.897195 12.2339,-2.395533 22.094196,-2.559472 14.9311,-0.248248 23.62567,0.97977 35.85104,5.063588 26.00471,8.68673 45.98365,25.34245 59.6727,49.746974 6.85962,12.229155 10.86358,25.267155 12.4724,40.613535 0.43679,4.16649 0.43797,15.44351 0.002,19.97604 -1.7322,18.01259 -7.37358,34.04874 -17.12636,48.68333 -14.33205,21.506 -35.65522,36.86492 -60.72283,43.73821 -10.78934,2.95833 -17.91731,3.6908 -31.3397,3.22045 z m 2.24896,-81.38005 c -4.887996,-0.90573 -7.212696,-1.78045 -10.437456,-3.92738 -2.58425,-1.72049 -4.92441,-4.10821 -6.71566,-6.85213 -2.44802,-3.74999 -3.51381,-7.4947 -3.51381,-12.34597 0,-3.93377 0.5426,-6.38904 2.15924,-9.77064 3.15854,-6.60685 8.64185,-11.10702 15.541906,-12.75527 1.94701,-0.46509 2.85818,-0.5298 5.8762,-0.41729 6.98696,0.26047 12.28317,2.54603 16.55633,7.14482 4.26095,4.58566 6.06554,9.52206 6.06554,16.59213 0,3.28602 -0.089,4.11982 -0.62018,5.81151 -2.47214,7.87278 -8.68951,13.75021 -16.84232,15.92144 -1.8007,0.47956 -6.73663,0.84581 -8.06979,0.59878 z"
       id="path854" />
  </g>
</svg>
