<?xml version="1.0" encoding="UTF-8" standalone="no"?>
<!-- Created with Inkscape (http://www.inkscape.org/) -->

<svg
   width="30mm"
   height="30mm"
   viewBox="0 0 30.000002 30.000001"
   version="1.1"
   id="svg5"
   inkscape:version="1.1 (c68e22c387, 2021-05-23)"
   sodipodi:docname="retina_white.svg"
   xmlns:inkscape="http://www.inkscape.org/namespaces/inkscape"
   xmlns:sodipodi="http://sodipodi.sourceforge.net/DTD/sodipodi-0.dtd"
   xmlns="http://www.w3.org/2000/svg"
   xmlns:svg="http://www.w3.org/2000/svg">
  <sodipodi:namedview
     id="namedview7"
     pagecolor="#ffffff"
     bordercolor="#666666"
     borderopacity="1.0"
     inkscape:pageshadow="2"
     inkscape:pageopacity="0.0"
     inkscape:pagecheckerboard="0"
     inkscape:document-units="mm"
     showgrid="false"
     fit-margin-top="0"
     fit-margin-left="0"
     fit-margin-right="0"
     fit-margin-bottom="0"
     inkscape:zoom="3.7946873"
     inkscape:cx="81.824923"
     inkscape:cy="55.208764"
     inkscape:window-width="1920"
     inkscape:window-height="1017"
     inkscape:window-x="1912"
     inkscape:window-y="-8"
     inkscape:window-maximized="1"
     inkscape:current-layer="layer1" />
  <defs
     id="defs2" />
  <g
     inkscape:label="Calque 1"
     inkscape:groupmode="layer"
     id="layer1"
     transform="translate(-94.452874,-183.73198)">
    <path
       style="fill:#ffffff;stroke-width:0.264583"
       d="m 100.45467,192.78525 1.68676,2.3e-4 -3.88662,11.77822 c -0.63979,10e-4 -1.27958,0.003 -1.91937,0.004 z m 17.64156,8.66534 c 0.94321,-2.87404 1.81144,-5.46365 1.92941,-5.75469 0.11797,-0.29104 0,0 1.12638,-2.99406 0.57361,-1.52473 -1.12638,2.99406 0,0 1.62691,0.0836 1.63773,-0.0619 1.62691,0.0836 -0.0108,0.14552 -1.02286,3.32938 -2.24896,7.07525 l -1.35773,4.61433 c -0.63979,0.001 -1.27958,0.003 -1.91937,0.004 z m -12.89242,-2.87492 -0.0174,-5.47515 3.52316,-0.14015 c 3.19145,0.0946 3.58193,0.16042 4.35578,0.73458 0.64276,0.47689 1.06324,2.14898 0.87009,2.98319 -0.27304,1.17931 -1.53374,2.26054 -2.31444,2.46469 1.14012,1.37006 0.47542,0.70532 1.14012,1.37006 0.55743,0.55743 2.76143,3.45433 2.76143,3.62958 0,0.0838 -0.70068,0.15239 -1.55707,0.15239 -1.40688,0 -1.60297,-0.0702 -2.0329,-0.72761 -0.65568,-0.97461 -1.53217,-1.98882 -2.0406,-2.77812 -0.33778,-0.52622 -0.68505,-0.72761 -1.2547,-0.72761 h -0.78765 v 2.11667 2.11667 h -1.32291 -1.32292 z m 5.83823,-0.90471 c 0.36798,-0.19694 0.51177,-0.55606 0.51177,-1.2782 0,-1.24208 -0.69123,-1.69612 -2.39689,-1.57444 l -1.17499,0.0838 -0.0793,1.52135 -0.0794,1.52136 h 1.35351 c 0.74443,0 1.58381,-0.12325 1.86529,-0.2739 z"
       id="path2881"
       sodipodi:nodetypes="ccccccsscccccccccssccssccscccccccsccccscc" />
  </g>
</svg>
