<?xml version="1.0" encoding="UTF-8" standalone="no"?>
<!-- Created with Inkscape (http://www.inkscape.org/) -->

<svg
   width="1000mm"
   height="1000mm"
   viewBox="0 0 1000 1000"
   version="1.1"
   id="svg930"
   inkscape:version="1.1 (c68e22c387, 2021-05-23)"
   sodipodi:docname="ruby.svg"
   xmlns:inkscape="http://www.inkscape.org/namespaces/inkscape"
   xmlns:sodipodi="http://sodipodi.sourceforge.net/DTD/sodipodi-0.dtd"
   xmlns="http://www.w3.org/2000/svg"
   xmlns:svg="http://www.w3.org/2000/svg">
  <sodipodi:namedview
     id="namedview932"
     pagecolor="#ffffff"
     bordercolor="#666666"
     borderopacity="1.0"
     inkscape:pageshadow="2"
     inkscape:pageopacity="0.0"
     inkscape:pagecheckerboard="0"
     inkscape:document-units="mm"
     showgrid="false"
     units="mm"
     width="1000mm"
     inkscape:zoom="0.16"
     inkscape:cx="1659.375"
     inkscape:cy="1884.375"
     inkscape:window-width="1920"
     inkscape:window-height="1017"
     inkscape:window-x="1912"
     inkscape:window-y="-8"
     inkscape:window-maximized="1"
     inkscape:current-layer="layer1" />
  <defs
     id="defs927" />
  <g
     inkscape:label="Calque 1"
     inkscape:groupmode="layer"
     id="layer1">
    <g
       id="g258" />
    <g
       id="g2119"
       transform="matrix(3.6623184,0,0,3.6820833,-1388.6327,-1497.1906)">
      <path
         style="fill:#cc2311;stroke-width:0.264583"
         d="m 434.04895,677.15542 c -4.0718,-0.16333 -9.62609,-0.67551 -12.66631,-1.16801 -25.50222,-4.13109 -38.97133,-20.68201 -40.78395,-50.11554 -0.14875,-2.41552 1.97881,-49.61019 2.41725,-53.62074 0.19101,-1.74721 -0.20789,-1.58681 5.20981,-2.09489 1.99238,-0.18685 3.48682,-0.22034 3.62591,-0.0813 0.26009,0.26009 0.9859,2.21846 4.53585,12.23853 1.30796,3.69186 2.61446,6.96608 2.90331,7.27604 0.28886,0.30996 1.50998,2.52809 2.7136,4.92918 2.13469,4.25849 2.20736,4.36346 2.96126,4.27714 0.42507,-0.0487 13.48959,-1.98343 29.03226,-4.29948 15.54267,-2.31604 28.35067,-4.21099 28.46221,-4.21099 0.11155,0 1.38029,-3.81829 2.81944,-8.48509 l 2.61662,-8.48508 21.17637,-19.64744 c 30.3056,-28.11754 30.49877,-28.2943 31.43686,-28.7661 0.69335,-0.34872 3.5865,-0.56484 15.53638,-1.16059 8.07641,-0.40264 14.71942,-0.76079 14.76224,-0.79588 0.0428,-0.0351 -1.15559,-4.98004 -2.66313,-10.98877 l -2.741,-10.92498 5.51477,-17.48397 c 3.03313,-9.61618 6.40127,-20.23083 7.48476,-23.5881 l 1.96999,-6.10414 13.30029,-3.06932 c 10.23496,-2.36194 13.39224,-3.00124 13.69921,-2.7739 0.35479,0.26275 0.35502,0.24819 0.002,-0.13167 -0.43348,-0.46641 -19.56548,-16.14704 -20.74968,-17.00642 -0.52481,-0.38086 -2.28399,-3.63322 -6.27678,-11.60451 -3.05117,-6.09143 -5.47152,-11.15159 -5.37854,-11.24479 0.29335,-0.29404 12.51198,-0.32361 34.257,-0.0829 l 21.03437,0.23285 4.10105,1.06737 c 9.93696,2.58627 17.13448,6.29904 22.97277,11.85029 9.24823,8.79353 13.59277,20.26416 13.97655,36.90147 0.13332,5.77964 0.0478,7.1174 -2.93328,45.90521 -8.46869,110.18822 -12.05563,157.32959 -12.05563,158.44117 0,1.05834 -0.0809,1.24102 -0.59531,1.3443 -0.32742,0.0657 -13.27547,0.96738 -28.77344,2.00365 -15.49797,1.03626 -59.61062,4.01455 -98.02812,6.61842 -80.96078,5.48736 -72.54604,4.94245 -74.87708,4.84892 z M 402.03437,570.54245 c -6.25739,-6.08217 -11.49614,-11.24215 -11.64167,-11.46662 -0.48804,-0.75281 -0.32601,-11.68221 0.22179,-14.96021 1.4599,-8.73599 4.86731,-18.54282 10.01858,-28.83438 2.25174,-4.49867 2.44995,-4.86214 5.32033,-9.75605 21.04107,-35.87443 61.55487,-71.55815 97.33806,-85.73334 21.04826,-8.33809 37.67626,-7.97356 46.88894,1.02794 9.49721,9.27951 10.41884,25.51585 2.60574,45.90521 -3.65986,9.55092 -8.10195,17.95872 -15.02713,28.44271 -23.85945,36.12067 -65.62194,70.71484 -99.47672,82.40203 -7.95634,2.74665 -12.90234,3.7187 -19.84375,3.89994 l -5.02709,0.13126 z"
         id="path2127" />
      <path
         style="fill:#ad1103;stroke-width:0.264583"
         d="m 430.60937,676.8844 c -11.6333,-0.61761 -21.56939,-3.40082 -29.10417,-8.15243 -3.71282,-2.34139 -8.5153,-7.00002 -11.24728,-10.91039 -1.86385,-2.6678 -4.62682,-8.15465 -5.78462,-11.48744 -2.12741,-6.12381 -3.5925,-14.55133 -3.78726,-21.78519 l -0.0641,-2.38125 4.20335,-7.67292 c 2.31185,-4.2201 5.4097,-9.81604 6.88412,-12.43541 1.47442,-2.61938 3.6774,-6.59262 4.8955,-8.82942 2.58079,-4.7391 2.1072,-4.77098 4.66881,0.31428 2.92907,5.81473 6.46288,13.89095 15.36079,35.10576 2.83809,6.76672 5.24712,12.39511 5.35339,12.50754 0.1941,0.20533 25.73385,-3.47813 26.22631,-3.78249 0.14464,-0.0894 1.04285,-2.65464 1.99603,-5.70056 1.81697,-5.80617 13.17511,-43.07732 16.03983,-52.63386 l 1.66557,-5.55625 9.28328,-8.59896 c 8.58856,-7.95544 9.37068,-8.61289 10.45105,-8.78516 0.64226,-0.10242 16.742,-0.99137 35.77719,-1.97545 30.18309,-1.5604 34.64082,-1.73962 34.8548,-1.40129 0.20522,0.32448 0.24602,0.31219 0.24941,-0.0751 0.002,-0.25466 -0.12204,-0.46302 -0.27614,-0.46302 -0.15411,0 -0.21004,-0.11351 -0.1243,-0.25226 0.0858,-0.13874 -2.71931,-11.63365 -6.23347,-25.54424 l -6.38938,-25.29198 2.95344,-9.3042 c 1.62438,-5.11731 2.97796,-9.31714 3.00794,-9.33296 0.26733,-0.14106 60.22546,-13.88611 60.56703,-13.88464 0.35654,0.002 11.24888,8.65716 19.06091,15.14678 0.69122,0.57422 1.25677,0.98291 1.25677,0.9082 0,-0.16313 0.21063,0.0102 -36.40285,-29.96049 l -29.12681,-23.84234 5.71119,-3.19171 c 13.00435,-7.26753 20.53502,-11.50346 20.64998,-11.61541 0.0672,-0.0654 -0.7365,-1.84104 -1.78594,-3.94584 -1.04944,-2.1048 -1.90807,-3.88538 -1.90807,-3.95686 0,-0.0715 4.1833,-0.12996 9.29621,-0.12996 8.94804,0 9.41968,0.0254 12.59295,0.67918 14.47193,2.98144 25.119,9.43516 31.71713,19.22534 3.10244,4.60333 5.30385,10.10558 6.69765,16.74027 1.18335,5.63283 1.466,8.63266 1.45838,15.47813 -0.006,5.43762 -0.37801,10.98119 -2.9646,44.18541 -1.62674,20.88224 -3.88068,49.93349 -5.00876,64.55833 l -2.05106,26.59063 -6.68666,3.79924 c -3.67766,2.08958 -6.68666,3.84543 -6.68666,3.90187 0,0.17008 3.83839,27.21932 6.24175,43.9858 1.23805,8.63697 2.21537,15.80088 2.17182,15.91981 -0.0436,0.11892 -7.342,-6.21444 -16.21877,-14.07414 -18.52562,-16.40301 -27.44101,-24.23294 -28.18837,-24.75642 -0.47749,-0.33444 -2.9016,0.98915 -28.31031,15.4578 l -27.78809,15.82357 10.52568,0.85704 c 5.78912,0.47136 24.75364,1.9912 42.14338,3.37741 47.85365,3.81462 46.84787,3.72796 45.50833,3.92126 -0.65484,0.0945 -13.63265,1.00749 -28.83958,2.02887 -15.20693,1.02138 -59.13092,4.00013 -97.60886,6.61945 -38.47795,2.61932 -71.1606,4.73987 -72.62812,4.71236 -1.46752,-0.0275 -3.3826,-0.088 -4.25572,-0.13431 z m 6.21771,-0.34483 c 0,-0.14552 -0.0525,-0.26458 -0.11668,-0.26458 -0.0642,0 -0.19026,0.11906 -0.2802,0.26458 -0.0899,0.14552 -0.0374,0.26459 0.11668,0.26459 0.15411,0 0.2802,-0.11907 0.2802,-0.26459 z m -0.89474,-1.23338 c -0.22385,-0.41304 -0.41176,-0.6673 -0.41759,-0.56502 -0.0179,0.31451 0.59763,1.54295 0.71455,1.42603 0.0605,-0.0605 -0.0731,-0.44797 -0.29696,-0.86101 z m 1.60464,-1.46206 c -0.0845,-0.21106 -0.14715,-0.14838 -0.15985,0.15986 -0.0115,0.2789 0.051,0.43519 0.13897,0.34727 0.0879,-0.0879 0.0973,-0.31613 0.0209,-0.50713 z m -3.05885,-1.98107 c -0.31191,-0.53636 -0.38723,-0.36469 -0.13191,0.30065 0.0907,0.23646 0.22072,0.3742 0.28884,0.30607 0.0681,-0.0681 -0.002,-0.34113 -0.15693,-0.60672 z m -0.79375,-1.85208 c -0.31191,-0.53637 -0.38723,-0.36469 -0.13191,0.30066 0.0907,0.23645 0.22072,0.37419 0.28884,0.30606 0.0681,-0.0681 -0.002,-0.34114 -0.15693,-0.60672 z M 559.50989,556.63372 c -0.0845,-0.21107 -0.14715,-0.14837 -0.15985,0.15985 -0.0115,0.27892 0.051,0.43519 0.13897,0.34727 0.0879,-0.0879 0.0973,-0.31613 0.0209,-0.50712 z m -0.26458,-1.05833 c -0.0845,-0.21107 -0.14716,-0.14838 -0.15985,0.15985 -0.0115,0.27891 0.0511,0.43518 0.13896,0.34727 0.0879,-0.0879 0.0973,-0.31613 0.0209,-0.50712 z m -0.26458,-1.05834 c -0.0845,-0.21106 -0.14716,-0.14837 -0.15985,0.15986 -0.0115,0.27891 0.051,0.43518 0.13896,0.34726 0.0879,-0.0879 0.0973,-0.31612 0.0209,-0.50712 z m -0.26459,-1.05833 c -0.0845,-0.21107 -0.14715,-0.14837 -0.15985,0.15985 -0.0115,0.27892 0.0511,0.43519 0.13897,0.34727 0.0879,-0.0879 0.0973,-0.31613 0.0209,-0.50712 z M 637.9104,489.1233 c 0,-0.0502 -0.26789,-0.3181 -0.59531,-0.59531 l -0.59531,-0.50403 0.50402,0.59531 c 0.47367,0.55945 0.6866,0.71576 0.6866,0.50403 z m -1.32292,-1.05833 c 0,-0.0502 -0.26789,-0.3181 -0.59531,-0.59532 l -0.59531,-0.50403 0.50403,0.59532 c 0.47366,0.55944 0.68659,0.71576 0.68659,0.50403 z m -1.32291,-1.07471 c 0,-0.0592 -0.62508,-0.60706 -1.38906,-1.21745 l -1.38907,-1.10979 1.32292,1.21201 c 1.32793,1.21659 1.45521,1.31414 1.45521,1.11523 z m -218.54583,71.12492 c -11.13234,-10.83339 -21.05185,-20.50731 -22.04335,-21.4976 l -1.80274,-1.80053 0.97526,-3.02363 c 7.7572,-24.05002 27.40601,-52.01046 52.47762,-74.67616 13.706,-12.39076 27.96483,-22.62065 42.22759,-30.29587 3.3528,-1.80425 9.63665,-4.84249 10.60028,-5.12524 0.33695,-0.0989 51.4449,49.46921 51.44361,49.89363 -10e-4,0.47578 -4.78777,10.07987 -6.67382,13.39147 -7.85172,13.78631 -18.28177,27.50445 -30.87658,40.61045 -22.50523,23.41864 -49.56679,42.52566 -72.13656,50.93256 -1.95756,0.72915 -3.64727,1.31724 -3.75493,1.30686 -0.10767,-0.0104 -9.30403,-8.88255 -20.43638,-19.71594 z"
         id="path2125" />
      <path
         style="fill:#900d03;stroke-width:0.264583"
         d="m 431.00624,676.88388 c -0.94588,-0.0456 -3.38666,-0.26623 -5.42395,-0.49028 -16.79893,-1.8474 -28.37351,-8.15385 -35.88677,-19.55302 -5.10707,-7.74849 -8.35167,-18.88396 -8.86933,-30.43955 l -0.16593,-3.70416 3.27872,-5.963 c 1.8033,-3.27964 5.77904,-10.56111 8.83497,-16.18102 3.05594,-5.61992 5.59187,-10.12229 5.63541,-10.00528 0.0435,0.11701 -0.69889,9.60113 -1.64983,21.07582 -1.96929,23.76267 -2.51155,30.87022 -2.36722,31.02733 0.0556,0.0606 5.64309,-1.5314 12.41659,-3.53766 6.77349,-2.00626 12.36341,-3.59978 12.42204,-3.54115 0.24559,0.24559 9.94947,23.57842 10.58712,25.45657 0.23369,0.68832 1.78725,4.52191 3.45237,8.5191 1.66511,3.9972 3.02748,7.32468 3.02748,7.3944 0,0.12504 -1.9327,0.10382 -5.29167,-0.0581 z m 6.54844,-0.003 c 0.32742,-0.0631 0.8632,-0.0631 1.19063,0 0.32742,0.0631 0.0595,0.11464 -0.59532,0.11464 -0.65484,0 -0.92273,-0.0516 -0.59531,-0.11464 z m 3.63802,-0.35655 c 2.7815,-0.38301 11.18659,-1.77321 12.74447,-2.10791 0.75206,-0.16158 1.41762,-0.43484 1.47903,-0.60725 0.0614,-0.1724 4.74124,-19.1782 10.39966,-42.23513 l 10.28801,-41.92088 -4.04714,-7.91107 c -2.22592,-4.35109 -3.98714,-7.97108 -3.9138,-8.04441 0.0733,-0.0733 4.45751,1.26325 9.7426,2.97019 5.28509,1.70695 11.2166,3.61303 13.18113,4.23573 1.96453,0.62271 15.41859,4.94316 29.89791,9.601 26.83077,8.63118 35.45136,11.38397 44.84688,14.32086 2.91041,0.90975 5.44489,1.73822 5.63216,1.84106 0.34553,0.18973 -8.76273,8.83491 -15.95091,15.13994 -13.06426,11.45915 -26.72662,21.3118 -40.87813,29.47938 l -4.10104,2.36693 4.10104,0.32672 c 30.86426,2.45891 56.19863,4.46173 85.06354,6.72474 25.33472,1.98624 34.56173,2.793 33.60208,2.93797 -0.7276,0.10991 -23.64713,1.69362 -50.93229,3.51934 -57.51901,3.84875 -101.33581,6.8258 -122.36978,8.31422 -8.14917,0.57663 -16.12636,1.10603 -17.72708,1.17641 -2.6761,0.11766 -2.76131,0.10745 -1.05834,-0.12705 z m 45.89328,-70.17637 c 0.0192,-2.03609 -1.11089,-3.79035 -3.08379,-4.78716 -1.81795,-0.91852 -1.78607,-0.61571 0.37288,3.54142 2.00963,3.86959 2.06938,3.95097 2.38018,3.24115 0.17533,-0.40046 0.32416,-1.29839 0.33073,-1.99541 z m 134.94942,44.32131 c -11.87298,-10.54359 -34.2747,-30.37162 -46.63281,-41.27527 -1.70987,-1.50863 -3.1164,-2.64508 -3.12562,-2.52543 -0.009,0.11964 -0.12691,-0.057 -0.26151,-0.39252 -0.28485,-0.71003 -5.96508,-23.28239 -6.20499,-24.65766 -0.14919,-0.85518 -10.16201,-40.78648 -17.21299,-68.64568 -1.65547,-6.54091 -2.98393,-11.90731 -2.95215,-11.92533 0.0318,-0.018 6.01091,-0.41923 13.28695,-0.89157 7.27604,-0.47234 15.66995,-1.02981 18.65312,-1.2388 2.98318,-0.209 8.87677,-0.61611 13.09688,-0.90469 4.2201,-0.28858 8.50635,-0.59177 9.525,-0.67374 1.01864,-0.082 11.30135,-0.79159 22.85045,-1.57691 11.5491,-0.78532 21.03393,-1.4639 21.0774,-1.50796 0.0956,-0.0969 -2.04666,-1.8831 -19.65255,-16.38591 -20.75883,-17.10004 -32.40055,-26.65974 -45.22875,-37.14002 -6.4124,-5.23875 -11.64347,-9.54407 -11.6246,-9.56737 0.0189,-0.0233 6.7018,0.88456 14.85097,2.01748 8.14916,1.13291 15.53179,2.12693 16.40584,2.20893 l 1.58919,0.14908 5.93722,-13.44461 5.93722,-13.44462 3.41867,0.90182 c 26.37043,6.95633 37.99245,26.7638 35.13847,59.88658 -0.3072,3.56526 -1.98945,25.23463 -3.73835,48.15416 -1.74889,22.91953 -3.25506,42.65124 -3.34705,43.84824 l -0.16725,2.17638 -9.90698,5.62883 -9.90697,5.62884 0.17841,1.71979 c 0.0981,0.94589 2.9044,20.7622 6.23617,44.03625 3.33177,23.27405 6.03033,42.33795 5.99679,42.36422 -0.0335,0.0263 -6.43081,-5.60886 -14.21618,-12.52251 z M 586.85476,524.39448 c 3.64037,-3.94323 4.42912,-9.96486 1.9469,-14.8633 -0.82817,-1.6343 -3.25049,-4.24721 -4.75511,-5.12924 -6.00344,-3.51931 -13.73903,-1.8168 -17.52837,3.85778 -1.27116,1.90357 -2.21484,4.52924 -1.69064,4.70398 0.18254,0.0608 0.48206,0.26079 0.6656,0.44433 0.44084,0.44084 9.78586,6.22129 15.66414,9.68919 1.30969,0.77266 2.73844,1.61892 3.175,1.8806 1.13363,0.67949 1.41718,0.61392 2.52248,-0.58334 z m -163.65372,32.50977 c -10.62302,-10.34523 -21.37611,-20.80242 -23.89575,-23.2382 l -4.58116,-4.42869 1.17968,-3.1442 c 2.48498,-6.62327 6.52576,-14.63595 11.3292,-22.46535 2.95033,-4.8089 8.18353,-12.41032 8.51569,-12.36937 0.25049,0.0309 64.73113,62.57518 64.72267,62.77906 -0.02,0.48199 -10.47941,7.53456 -16.60085,11.19362 -7.17738,4.29024 -18.26425,9.82047 -20.75966,10.35511 -0.49702,0.10648 -3.78245,-2.97634 -19.90982,-18.68198 z"
         id="path2123" />
      <path
         style="fill:#7a120b;stroke-width:0.264583"
         d="m 422.92923,675.21531 c -2.87703,-0.19765 -8.30419,-0.96481 -8.56346,-1.21052 -0.0572,-0.0542 0.0619,-0.15534 0.26458,-0.22471 1.41239,-0.48321 17.55852,-5.17801 17.80799,-5.17801 0.17219,0 0.87721,1.3893 1.56673,3.08732 0.96586,2.3786 1.17553,3.1369 0.91335,3.30324 -0.18717,0.11875 -1.54323,0.21776 -3.01347,0.21998 -1.47024,0.003 -3.37524,0.0529 -4.23333,0.11266 -0.85809,0.0597 -2.99217,0.0103 -4.74239,-0.10996 z m 135.96872,-57.9748 c 0.45195,-3.11274 0.68704,-6.54381 0.6912,-10.08791 0.003,-2.14643 0.0886,-3.90261 0.19123,-3.90261 0.24548,0 11.29423,3.46949 11.41838,3.58555 0.18076,0.169 -11.60823,11.25624 -12.18886,11.46331 -0.18553,0.0662 -0.22333,-0.2912 -0.11195,-1.05834 z m 12.19748,-14.82464 -1.0651,-4.33375 23.15826,-25.85218 c 12.73705,-14.2187 23.3644,-26.05702 23.61633,-26.30738 0.43332,-0.43061 0.51448,-0.42508 1.50267,0.10238 1.19798,0.63945 1.2775,0.60283 2.70997,-1.24786 1.01907,-1.31659 3.7498,-5.55261 4.77574,-7.40833 1.79204,-3.24142 2.3871,-4.21799 2.75748,-4.52538 0.44578,-0.36996 0.55557,-0.57617 -2.69114,5.05454 -12.28662,21.30848 -26.8293,40.06216 -51.88077,66.90345 l -1.81833,1.94825 z m -145.1736,-53.03999 c -13.1381,-12.75034 -24.87835,-24.16005 -26.08943,-25.3549 l -2.20197,-2.17246 0.39445,-0.90499 c 0.21695,-0.49774 0.40416,-0.76495 0.41603,-0.5938 0.0119,0.17116 11.8683,11.8204 26.34763,25.8872 14.47932,14.0668 26.32604,25.67145 26.32604,25.7881 0,0.21447 -0.64039,0.5333 -1.07116,0.5333 -0.12877,0 -10.98348,-10.4321 -24.12159,-23.18245 z M 634.14208,517.4611 c 0.21253,-6.32363 -0.73426,-13.32832 -2.57536,-19.05345 -0.42856,-1.33264 -0.73841,-2.46375 -0.68858,-2.51359 0.0875,-0.0875 12.21499,-1.11639 13.21327,-1.12097 0.42066,-0.002 0.46688,0.1341 0.31701,0.93297 -0.79035,4.21296 -6.87752,19.58062 -9.83084,24.81893 l -0.5726,1.01562 z m 10.62421,-22.7425 c -0.20548,-0.20062 -5.94642,-4.93418 -12.75766,-10.51902 -11.78883,-9.66622 -12.36109,-10.17584 -11.90625,-10.6031 14.96275,-14.05542 29.78465,-27.79138 29.8827,-27.69332 0.55563,0.55563 1.41918,9.41257 1.41886,14.5524 0,9.17287 -2.20062,21.77476 -5.77551,33.08247 -0.41841,1.32347 -0.54219,1.49296 -0.86214,1.18057 z m -8.70927,-53.90257 c -6.47639,-0.98172 -11.9101,-1.83436 -12.07491,-1.89476 -0.18337,-0.0672 1.49453,-4.16549 4.32377,-10.56085 2.54289,-5.74807 4.6689,-10.49694 4.72447,-10.55303 0.34412,-0.34735 4.94179,3.67354 7.12132,6.22794 3.5743,4.18906 6.31371,9.12186 8.07883,14.5474 1.27093,3.90652 1.28445,4.07253 0.32938,4.04171 -0.40018,-0.0129 -6.02647,-0.82669 -12.50286,-1.80841 z"
         id="path2121" />
    </g>
  </g>
</svg>
