<?xml version="1.0" encoding="UTF-8" standalone="no"?>
<!-- Created with Inkscape (http://www.inkscape.org/) -->

<svg
   width="1000mm"
   height="1000mm"
   viewBox="0 0 1000 1000"
   version="1.1"
   id="svg930"
   inkscape:version="1.1 (c68e22c387, 2021-05-23)"
   sodipodi:docname="ruby_white.svg"
   xmlns:inkscape="http://www.inkscape.org/namespaces/inkscape"
   xmlns:sodipodi="http://sodipodi.sourceforge.net/DTD/sodipodi-0.dtd"
   xmlns="http://www.w3.org/2000/svg"
   xmlns:svg="http://www.w3.org/2000/svg">
  <sodipodi:namedview
     id="namedview932"
     pagecolor="#ffffff"
     bordercolor="#666666"
     borderopacity="1.0"
     inkscape:pageshadow="2"
     inkscape:pageopacity="0.0"
     inkscape:pagecheckerboard="0"
     inkscape:document-units="mm"
     showgrid="false"
     units="mm"
     width="1000mm"
     inkscape:zoom="0.16"
     inkscape:cx="1659.375"
     inkscape:cy="1884.375"
     inkscape:window-width="1920"
     inkscape:window-height="1017"
     inkscape:window-x="1912"
     inkscape:window-y="-8"
     inkscape:window-maximized="1"
     inkscape:current-layer="layer1" />
  <defs
     id="defs927" />
  <g
     inkscape:label="Calque 1"
     inkscape:groupmode="layer"
     id="layer1">
    <g
       id="g258" />
    <path
       style="fill:#ffffff;stroke-width:0.264583"
       d="m 198.30519,993.54401 c -1.89177,-0.1215 -6.35661,-0.4076 -9.92187,-0.6358 -31.2551,-2.0004 -52.96452,-5.9335 -73.85376,-13.38 -9.59381,-3.4201 -20.709026,-8.5421 -28.672276,-13.2128 -35.97586,-21.1006 -60.09877,-54.44983 -72.71949,-100.5326 C 8.6082942,849.24403 5.5993342,831.1003 3.9671342,810.4849 c -0.48328,-6.10418 -0.50875,-7.59122 -0.26739,-15.61042 0.82372,-27.36776 3.66181,-93.3413 6.22595,-144.72708 1.6512498,-33.0911 2.4783898,-45.49733 3.1204898,-46.80371 0.83582,-1.7005 2.58035,-2.13617 12.27811,-3.06612 9.73753,-0.93377 13.2881,-1.19476 16.2537,-1.19476 2.19425,0 2.68582,0.0784 3.1022,0.4948 0.85664,0.85664 3.54265,8.06786 13.66207,36.67916 7.46632,21.10999 11.6066,31.81927 13.38443,34.62023 2.32879,3.66903 5.04473,8.67677 10.30643,19.0033 7.13275,13.99863 7.9641,15.30043 9.77118,15.30043 0.79316,0 23.509796,-3.3346 66.681096,-9.78815 15.64349,-2.33852 32.37177,-4.83915 37.17396,-5.55694 57.22787,-8.55419 91.72485,-13.69013 98.68958,-14.69298 4.65667,-0.67053 8.63627,-1.30754 8.84357,-1.41562 0.79848,-0.41627 4.23399,-10.85207 13.64723,-41.4551 l 6.43424,-20.9182 1.94165,-1.8624 c 1.06791,-1.02431 13.49071,-12.62724 27.60623,-25.78428 14.11552,-13.15705 45.07177,-42.02023 68.79166,-64.1404 83.78177,-78.13135 90.81828,-84.59976 93.78982,-86.21707 3.063,-1.66709 9.11188,-2.12183 68.92893,-5.18203 32.74264,-1.6751 40.95359,-2.13286 41.83751,-2.3324 l 0.82706,-0.18672 -0.87146,-3.83646 c -1.43341,-6.31029 -4.20624,-17.63874 -11.75044,-48.00642 l -7.16073,-28.82411 8.75995,-27.92902 c 24.86692,-79.28199 45.81562,-145.50464 46.0788,-145.66348 0.0368,-0.0222 5.36509,-1.26459 11.84077,-2.76092 6.47568,-1.49633 21.71568,-5.02011 33.86667,-7.83064 25.04075,-5.79193 35.3172,-8.09304 43.1271,-9.65707 5.8443,-1.1704 9.8494,-1.60075 10.1638,-1.09211 0.1024,0.1657 0.3205,0.30127 0.4846,0.30127 0.5442,0 -1.1913,-1.59261 -7.4734,-6.85781 -13.0807,-10.96332 -48.98175,-40.54422 -63.56659,-52.376062 -3.61394,-2.93178 -6.60646,-5.56778 -7.04247,-6.20346 -2.68255,-3.91107 -8.81253,-15.58966 -20.78376,-39.59649 -12.52061,-25.10847 -20.26137,-41.3219847 -20.26137,-42.4386677 0,-0.241247 0.39918,-0.424664 1.12448,-0.516696 0.61847,-0.07847 8.74448,-0.277661 18.05782,-0.442636 12.66523,-0.224351 26.5699,-0.22321 55.16562,0.0045 21.02776,0.167465 55.85357,0.413028 77.39067,0.545696 21.537,0.132668 40.587,0.351896 42.3333,0.487173 1.7462,0.135277 4.3548,0.254988 5.7968,0.266025 2.4196,0.01852 3.3275,0.204815 11.774,2.416095 18.4067,4.8188607 28.6712,8.1611337 40.6375,13.2321707 5.2686,2.23269 15.5021,7.3482 20.1084,10.05169 31.5078,18.49274 54.3095,45.63011 67.0443,79.792892 8.7963,23.59707 13.3611,53.3365 13.3557,87.01159 0,10.96126 0.01,10.75294 -2.0953,40.74584 -2.2765,32.44619 -1.9092,27.58193 -16.9087,223.96979 -14.3018,187.25255 -23.9778,314.52888 -29.3874,386.55625 -6.1782,82.25994 -6.7402,89.97504 -6.7424,92.55884 0,2.2157 -0.3931,3.6588 -1.0936,4.0337 -0.2985,0.1598 -1.6923,0.396 -3.0973,0.525 -4.7102,0.4325 -44.05,3.194 -84.5753,5.9368 -9.7499,0.6599 -23.7993,1.6135 -31.2209,2.1192 -7.4215,0.5056 -21.4412,1.4556 -31.1548,2.111 -9.7135,0.6554 -25.5488,1.7254 -35.1896,2.3777 -9.6407,0.6524 -23.77928,1.6087 -31.41912,2.1252 -22.83513,1.5438 -52.02708,3.5243 -64.33645,4.3649 -6.35365,0.4338 -17.66459,1.2034 -25.13542,1.7102 -7.47083,0.5067 -25.84678,1.7561 -40.83542,2.7765 -39.01009,2.6558 -48.01875,3.2682 -89.69375,6.0975 -6.54844,0.4445 -17.91891,1.2182 -25.26771,1.7192 -7.3488,0.5011 -25.68443,1.746 -40.74583,2.7666 -15.06141,1.0206 -29.05125,1.9759 -31.08854,2.123 -2.03729,0.1472 -9.89542,0.6833 -17.4625,1.1915 -7.56709,0.5081 -15.42521,1.0439 -17.4625,1.1906 -2.03729,0.1467 -9.89542,0.6844 -17.4625,1.1951 -22.00299,1.4847 -29.1238,1.9696 -33.07292,2.2524 -2.03729,0.1459 -6.32354,0.441 -9.525,0.6557 -3.20146,0.2148 -12.84552,0.8662 -21.43125,1.4475 -56.97225,3.8577 -85.21672,5.659 -86.65104,5.5261 -0.21828,-0.02 -1.94469,-0.1362 -3.83646,-0.2576 z M 102.39374,620.88776 C 69.019654,588.2636 42.035954,561.68724 40.542394,559.97004 c -1.33467,-1.53448 -1.37329,-1.62615 -1.70556,-4.04894 -0.24312,-1.77279 -0.33604,-6.47343 -0.32617,-16.50183 0.0264,-26.84137 1.04902,-36.22625 6.21293,-57.01771 6.83922,-27.53685 17.05807,-54.26165 33.08245,-86.51875 7.6906,-15.48122 12.50833,-24.20231 22.947326,-41.53958 69.27311,-115.04989 193.3216,-230.39776 312.1289,-290.236522 46.13942,-23.23868 86.43853,-36.14151 123.69271,-39.6035 7.01445,-0.65185 22.4822,-0.65591 28.83958,-0.008 12.11998,1.23601 23.56364,3.98896 32.77246,7.88392 6.86244,2.90253 14.92097,7.65298 20.40879,12.03086 3.16998,2.52883 10.32574,9.75791 13.03261,13.16617 20.63282,25.97897 26.60462,63.406952 17.50925,109.737912 -5.45531,27.78869 -17.06959,60.25739 -33.20846,92.83706 -16.80176,33.91781 -42.99834,74.8266 -70.48288,110.06667 -22.18722,28.44792 -44.50927,53.62236 -71.57186,80.7175 -12.48531,12.50031 -18.61158,18.38499 -30.04074,28.85604 -67.55823,61.89487 -140.89607,111.06351 -206.19079,138.23854 -16.92396,7.04358 -34.88626,13.19332 -49.39191,16.91024 -15.6844,4.01897 -27.56594,5.60893 -46.30208,6.19604 -4.65667,0.14591 -10.66933,0.33419 -13.36146,0.41841 l -4.89479,0.15309 -21.29896,-20.82033 z"
       id="path3335" />
  </g>
</svg>
