<?xml version="1.0" encoding="UTF-8" standalone="no"?>
<!-- Created with Inkscape (http://www.inkscape.org/) -->

<svg
   width="300mm"
   height="300mm"
   viewBox="0 0 300 300"
   version="1.1"
   id="svg5"
   inkscape:version="1.1 (c68e22c387, 2021-05-23)"
   sodipodi:docname="rust.svg"
   xmlns:inkscape="http://www.inkscape.org/namespaces/inkscape"
   xmlns:sodipodi="http://sodipodi.sourceforge.net/DTD/sodipodi-0.dtd"
   xmlns="http://www.w3.org/2000/svg"
   xmlns:svg="http://www.w3.org/2000/svg">
  <sodipodi:namedview
     id="namedview7"
     pagecolor="#ffffff"
     bordercolor="#666666"
     borderopacity="1.0"
     inkscape:pageshadow="2"
     inkscape:pageopacity="0.0"
     inkscape:pagecheckerboard="0"
     inkscape:document-units="mm"
     showgrid="false"
     width="300mm"
     inkscape:zoom="0.45254834"
     inkscape:cx="679.48542"
     inkscape:cy="739.14756"
     inkscape:window-width="1920"
     inkscape:window-height="1017"
     inkscape:window-x="1912"
     inkscape:window-y="-8"
     inkscape:window-maximized="1"
     inkscape:current-layer="g7861" />
  <defs
     id="defs2" />
  <g
     inkscape:label="Calque 1"
     inkscape:groupmode="layer"
     id="layer1">
    <g
       id="g1204"
       transform="translate(-134.42917,1.6733921)" />
    <g
       id="g7861"
       transform="matrix(1.0393723,0,0,1.0393723,-3.9490953,-7.2311783)">
      <g
         id="g8506"
         transform="matrix(1.4441888,0,0,1.4441888,-68.611331,-58.118904)">
        <path
           style="fill:#ed9542;stroke-width:1.05144"
           d="m 138.20368,239.39258 c 0,-0.18097 0.9463,-1.13928 2.10289,-2.12958 1.15658,-0.99031 2.10288,-1.34868 2.10288,-0.7964 0,0.55229 -0.9463,1.51061 -2.10288,2.12959 -1.15659,0.61899 -2.10289,0.97736 -2.10289,0.79639 z m 23.64686,-0.81354 c -0.36323,-0.58772 -1.06819,-0.81658 -1.56656,-0.50857 -0.49837,0.30801 -1.18313,0.11185 -1.52166,-0.43592 -1.24906,-2.02101 1.303,-2.07417 3.12126,-0.065 1.03436,1.14295 1.59867,2.07809 1.25401,2.07809 -0.34464,0 -0.92381,-0.48087 -1.28705,-1.06859 z m 14.83911,-5.4153 c 0.29783,-0.48191 0.98675,-0.8762 1.53091,-0.8762 0.54417,0 0.98939,0.39429 0.98939,0.8762 0,0.48191 -0.68892,0.87621 -1.53091,0.87621 -0.84201,0 -1.28723,-0.3943 -0.98939,-0.87621 z m 16.18906,-4.48226 c 0,-0.28915 0.94629,-1.03217 2.10288,-1.65116 1.15659,-0.61898 2.10289,-0.88885 2.10289,-0.59971 0,0.28915 -0.9463,1.03217 -2.10289,1.65116 -1.15659,0.61898 -2.10288,0.88885 -2.10288,0.59971 z m -89.05563,-1.98886 c -0.35907,-0.58097 -0.10703,-0.70807 0.57197,-0.28842 0.66765,0.41263 1.2139,0.24916 1.2139,-0.36326 0,-0.61243 0.39429,-1.1135 0.87621,-1.1135 0.48191,0 0.8762,0.63086 0.8762,1.40192 0,1.62691 -2.59279,1.8931 -3.53828,0.36326 z m 104.91028,-4.48141 c 0.0505,-1.22487 0.2996,-1.47401 0.63524,-0.63525 0.30373,0.75901 0.26638,1.66588 -0.083,2.01527 -0.3494,0.34939 -0.59789,-0.27163 -0.55224,-1.38002 z m -0.0669,-4.15168 c -0.012,-1.58507 0.73011,-2.18878 2.87537,-2.3393 2.66503,-0.18699 2.72679,-0.10906 0.78858,0.99511 -1.15659,0.6589 -2.4505,1.71158 -2.87537,2.33931 -0.45119,0.6666 -0.77917,0.2527 -0.78858,-0.99512 z m 23.78768,-28.35326 c -0.93884,-2.44648 -0.87543,-2.63077 0.90508,-2.63077 1.77005,0 1.96973,0.90708 0.65595,2.97963 -0.70918,1.11876 -1.02497,1.04818 -1.56107,-0.34886 z m 7.6913,-16.38958 c -0.64549,-1.20611 -0.94191,-2.42464 -0.65871,-2.70785 0.2832,-0.28319 0.82874,0.47393 1.21233,1.68249 0.38582,1.21559 1.20597,1.88309 1.83562,1.49394 0.67818,-0.41913 0.83498,-0.21282 0.38797,0.51046 -1.03776,1.67913 -1.42827,1.54147 -2.77721,-0.97904 z M 87.448114,161.08202 c 1.866555,-0.23228 5.1786,-0.2361 7.3601,-0.008 2.181499,0.22762 0.654317,0.41766 -3.393738,0.42233 -4.048055,0.004 -5.832918,-0.18157 -3.966362,-0.41384 z m -11.80528,-5.5498 c 0.357406,-0.5783 0.858478,-1.05145 1.113496,-1.05145 0.255018,0 0.463668,0.47315 0.463668,1.05145 0,0.57829 -0.501073,1.05144 -1.113495,1.05144 -0.612423,0 -0.821074,-0.47315 -0.463669,-1.05144 z m 167.287716,-1.92765 c -0.29785,-0.48191 0.12657,-0.8762 0.94313,-0.8762 0.81656,0 1.24098,0.39429 0.94313,0.8762 -0.29783,0.48191 -0.72224,0.8762 -0.94313,0.8762 -0.22089,0 -0.6453,-0.39429 -0.94313,-0.8762 z M 74.148678,151.76455 c 0.05045,-1.22488 0.299599,-1.47402 0.635247,-0.63525 0.303732,0.759 0.266377,1.66587 -0.08301,2.01527 -0.349386,0.34938 -0.597894,-0.27163 -0.552239,-1.38002 z M 62.38677,149.6043 c -0.805275,-0.97514 -2.883583,-2.67923 -4.618463,-3.78686 -2.642296,-1.68697 -2.74893,-1.89704 -0.656911,-1.29412 1.615016,0.46545 2.259085,0.33412 1.822875,-0.37168 -0.371,-0.60029 -0.181955,-1.39587 0.4201,-1.76796 0.602054,-0.37209 1.026891,-0.28649 0.944081,0.19021 -0.335861,1.93341 0.203087,3.21112 2.307071,5.46948 1.214735,1.30387 1.991884,2.58739 1.726996,2.85228 -0.264888,0.26489 -1.140475,-0.31622 -1.945749,-1.29135 z m 50.05656,-0.38074 c -0.3574,-0.57829 -0.14876,-1.05144 0.46367,-1.05144 0.61242,0 1.1135,0.47315 1.1135,1.05144 0,0.57829 -0.20865,1.05144 -0.46367,1.05144 -0.25502,0 -0.75609,-0.47315 -1.1135,-1.05144 z m -45.830299,-0.52572 c -0.08607,-0.57829 -0.097,-1.4167 -0.02428,-1.86313 0.07272,-0.44642 -1.054125,-1.26272 -2.504094,-1.814 -3.016052,-1.14669 -3.315389,-2.33617 -1.059138,-4.20869 1.271084,-1.0549 1.591506,-1.02888 1.651065,0.13412 0.04065,0.79367 0.454589,0.49674 0.919873,-0.65984 1.119767,-2.78348 0.497256,-3.64397 -2.253002,-3.11431 -1.610305,0.31011 -1.940633,0.11065 -1.141016,-0.68896 1.916598,-1.9166 4.955475,-0.55857 6.606015,2.95212 1.263044,2.68649 2.048345,3.23968 3.942911,2.77748 1.377586,-0.33607 2.365746,-0.0903 2.365746,0.58829 0,0.64099 -0.709724,1.16543 -1.577164,1.16543 -0.867441,0 -1.577165,0.47315 -1.577165,1.05144 0,0.57829 0.47315,1.05144 1.051443,1.05144 0.578294,0 1.014089,0.82801 0.968435,1.84003 -0.05279,1.17014 -0.281408,1.34556 -0.62797,0.48183 -0.422848,-1.05385 -0.880852,-1.07942 -2.043947,-0.11413 -1.212884,1.0066 -1.37258,0.91463 -0.836702,-0.48185 0.885888,-2.30859 -1.276298,-2.21484 -2.63281,0.11415 -0.589444,1.01201 -1.142135,1.36687 -1.228202,0.78858 z m 1.624802,-5.71028 c 0.332709,-0.53834 0.05095,-1.32117 -0.626126,-1.73962 -0.733744,-0.45348 -0.950401,-0.30673 -0.536321,0.36326 0.382102,0.61826 0.100339,1.36373 -0.626125,1.65661 -0.945396,0.38115 -0.964897,0.55612 -0.06861,0.61552 0.688738,0.0456 1.524467,-0.35744 1.857176,-0.89577 z m 66.811517,-0.10565 c 0,-0.56015 0.70973,-1.01845 1.57717,-1.01845 0.86744,0 1.57716,0.18596 1.57716,0.41323 0,0.22728 -0.70972,0.68557 -1.57716,1.01845 -0.86744,0.33286 -1.57717,0.1469 -1.57717,-0.41323 z m -23.85308,-2.85847 c 0.28846,-1.30116 0.0532,-2.36575 -0.52286,-2.36575 -0.57604,0 -1.99079,-1.06459 -3.1439,-2.36575 -1.56587,-1.7669 -1.95107,-1.90388 -1.52175,-0.5411 0.49189,1.56137 0.28546,1.64392 -1.43074,0.57214 -1.67982,-1.04906 -2.00557,-2.51716 -2.00557,-9.0387 0,-4.28243 -0.24754,-8.03375 -0.55009,-8.33631 -0.30255,-0.30255 -2.271375,-0.73977 -4.375168,-0.9716 -2.103793,-0.23185 -4.30372,-0.52317 -4.888727,-0.64739 -0.585007,-0.12422 -1.202922,0.60214 -1.373144,1.61416 -0.170223,1.01201 0.100349,1.84002 0.601268,1.84002 1.707482,0 2.435584,7.43507 0.877314,8.95876 -2.06311,2.01732 -12.488576,5.93642 -12.488576,4.69466 0,-0.56986 -0.4583,-1.0361 -1.018443,-1.0361 -0.560145,0 -0.777188,0.6287 -0.482318,1.39712 0.29733,0.77483 -0.536932,1.91393 -1.873025,2.55745 -2.243674,1.08062 -2.26471,1.1724 -0.306264,1.33629 1.76037,0.1473 1.678377,0.2942 -0.503399,0.90187 -1.99779,0.55643 -3.286574,0.0758 -5.520075,-2.05866 -3.026499,-2.89229 -4.105386,-5.3805 -1.336626,-3.08263 1.837582,1.52505 2.026156,0.7007 0.494421,-2.16137 -0.916533,-1.71256 -1.400748,-1.82452 -3.154328,-0.7294 -1.139372,0.71155 -2.108939,2.00792 -2.154593,2.88083 -0.05695,1.08873 -0.250228,1.17233 -0.615527,0.26625 -0.292883,-0.72647 -0.976976,-1.04617 -1.520206,-0.71043 -0.543229,0.33574 -0.924795,0.22039 -0.847923,-0.25631 0.269949,-1.67405 -1.395012,-5.59823 -2.375234,-5.59823 -0.544975,0 -0.648482,0.55399 -0.230016,1.23108 0.418467,0.67709 -0.427722,0.33454 -1.880422,-0.76123 -2.207401,-1.66504 -2.409872,-2.22372 -1.232583,-3.40101 0.774779,-0.77477 1.885467,-1.11402 2.468197,-0.75387 0.582729,0.36015 1.059508,0.16859 1.059508,-0.42569 0,-0.59427 0.787341,-0.77836 1.749648,-0.40909 1.089751,0.41818 1.490774,0.25253 1.063268,-0.43918 -0.377507,-0.61083 0.254598,-1.35666 1.404681,-1.65741 2.840134,-0.74271 2.627114,-3.33553 -0.624259,-7.5983 -3.944446,-5.17144 -3.117763,-7.14476 3.429758,-8.18697 2.981082,-0.47452 5.652898,-1.46929 5.937369,-2.21061 0.28447,-0.74132 -0.386088,-3.365454 -1.490131,-5.831412 -3.005469,-6.712932 -2.792365,-7.107833 3.835669,-7.107833 7.624943,0 8.341795,-0.809523 6.855176,-7.741391 -0.753497,-3.513436 -0.821505,-5.907729 -0.185859,-6.543375 1.417015,-1.417015 6.413635,0.04746 6.413635,1.879795 0,0.920204 0.62255,1.285239 1.571125,0.921235 0.864119,-0.331593 1.360794,-0.94322 1.103722,-1.359172 -0.257073,-0.415952 0.573656,-0.721234 1.846064,-0.678407 2.113365,0.07113 2.340543,-0.490533 2.6265,-6.493648 0.359237,-7.541472 1.451402,-8.127937 8.469183,-4.54773 4.88058,2.489886 6.16594,1.785782 7.07087,-3.873331 0.38831,-2.428322 1.27798,-5.197336 1.97704,-6.153366 1.17905,-1.612445 1.47328,-1.605714 4.06588,0.09302 1.53716,1.007191 2.52716,2.264373 2.19999,2.793739 -0.32715,0.529365 -0.20481,0.857016 0.2719,0.728114 0.4767,-0.128903 1.86274,0.106069 3.08009,0.522159 1.21735,0.41609 3.34652,0.303249 4.73149,-0.250757 1.38498,-0.554007 1.971,-1.037276 1.30227,-1.073932 -0.70644,-0.03872 -0.97573,-0.984953 -0.64271,-2.258416 0.44496,-1.701548 0.79111,-1.877926 1.5476,-0.788582 0.67708,0.97498 0.78211,0.71505 0.34416,-0.851767 -0.3921,-1.402821 0.0317,-2.916899 1.12138,-4.006628 1.63461,-1.634603 1.95503,-1.556857 4.79425,1.163289 1.67341,1.603231 2.85417,3.406212 2.62391,4.006628 -0.58174,1.516952 4.65117,1.690363 6.11902,0.202775 0.65885,-0.667698 2.10936,-2.765241 3.22336,-4.661208 2.58129,-4.393218 4.56194,-3.97392 7.6471,1.618878 2.95075,5.349138 5.50402,5.72812 8.77594,1.302613 1.28266,-1.734881 2.7742,-3.154328 3.31455,-3.154328 0.54036,0 0.42433,0.672499 -0.25783,1.494443 -1.01246,1.219949 -0.86542,1.396416 0.80055,0.960754 1.47149,-0.3848 1.8898,-1.16838 1.49945,-2.808746 -0.51998,-2.185095 -0.46399,-2.201625 1.4159,-0.418036 1.69437,1.607574 1.76951,2.157689 0.55942,4.095355 -1.22121,1.955463 -1.18539,2.156799 0.28341,1.593166 0.92471,-0.354842 1.71644,-0.305155 1.75941,0.110416 0.043,0.41557 0.28098,1.848975 0.5289,3.185342 0.2661,1.43439 0.0237,2.165799 -0.59181,1.785416 -0.61106,-0.377657 -0.76941,0.06751 -0.38257,1.075588 0.48109,1.253691 0.8735,1.374492 1.44756,0.445625 0.43317,-0.700869 1.27321,-0.974167 1.86677,-0.60733 0.59355,0.366839 1.23788,0.248482 1.43185,-0.263015 0.47334,-1.248209 8.24391,-6.443208 9.63762,-6.443208 0.60812,0 0.23934,0.63348 -0.81952,1.407733 -1.54432,1.129242 -1.69441,1.805263 -0.75865,3.417189 1.09642,1.888677 1.16845,1.861996 1.1985,-0.443911 0.0197,-1.510113 0.53729,-2.268085 1.34628,-1.971455 0.72287,0.265051 1.17942,1.064008 1.01455,1.775459 -0.16486,0.711452 0.24585,1.950948 0.91268,2.754437 0.66684,0.803489 0.98591,2.327104 0.70905,3.385811 -0.42094,1.60968 0.099,1.904934 3.17524,1.802866 2.02322,-0.06713 4.32308,0.522418 5.11076,1.310109 0.7877,0.787692 1.43217,1.01985 1.43217,0.515909 0,-0.503941 -0.51437,-1.430634 -1.14305,-2.059314 -0.82312,-0.823115 -0.82312,-1.340794 0,-1.849506 0.62868,-0.388547 1.14305,-0.205375 1.14305,0.407047 0,0.612422 1.18288,1.113496 2.62861,1.113496 2.39631,0 2.62861,0.399548 2.62861,4.521204 0,2.486662 0.56778,5.088983 1.26173,5.782935 0.98134,0.981346 0.80611,1.265309 -0.78858,1.277832 -1.12895,0.0088 -1.57782,0.363239 -0.99887,0.788582 1.05582,0.775699 1.76559,4.452531 0.85951,4.452531 -0.96992,0 -3.48812,-3.036292 -3.48812,-4.205771 0,-0.734341 -0.61334,-0.588308 -1.57716,0.375515 -1.92173,1.921724 -1.99513,2.591598 -0.26286,2.399126 0.72286,-0.08032 1.55087,0.327115 1.84002,0.905408 0.29025,0.580511 -1.03214,1.129281 -2.9525,1.225232 -1.91302,0.09559 -4.16048,0.435597 -4.99436,0.755584 -0.83386,0.319985 -1.51612,0.09557 -1.51612,-0.498704 0,-0.594272 -0.54769,-0.74201 -1.21707,-0.328306 -0.84369,0.521429 -1.02414,0.01442 -0.58819,-1.652675 0.62536,-2.391344 -0.73443,-4.515636 -3.21413,-5.021205 -1.6958,-0.345746 -1.62753,0.290591 0.39881,3.717043 1.15653,1.955646 1.20656,2.280227 0.15889,1.030793 -0.84105,-1.003026 -1.77176,-1.581093 -2.06826,-1.284597 -0.29649,0.296497 -3.03622,-0.715151 -6.08826,-2.248108 -3.05206,-1.532956 -8.07202,-3.373647 -11.15551,-4.090425 -5.52025,-1.283226 -5.65115,-1.257486 -8.52796,1.676837 -1.60691,1.639038 -3.51309,2.993211 -4.23596,3.009275 -0.72287,0.01607 -1.31431,0.53028 -1.31431,1.142703 0,0.612422 -0.54625,0.775892 -1.2139,0.363264 -0.70495,-0.435685 -0.93022,-0.291233 -0.53729,0.344533 1.01166,1.636901 -1.90088,3.574604 -4.16133,2.76852 -2.93234,-1.045677 -5.77476,-3.750472 -6.82349,-6.493108 -0.51084,-1.335958 -1.34923,-2.16918 -1.86308,-1.851602 -0.51385,0.317578 -1.4817,-0.0822 -2.15079,-0.888395 -0.66908,-0.806195 -1.78728,-1.348127 -2.48488,-1.204291 -3.90355,0.804852 -7.82949,1.918233 -9.67991,2.745184 -1.15659,0.516876 -2.79412,1.071504 -3.63896,1.232505 -0.84485,0.161001 -2.02772,0.649341 -2.62861,1.085199 -4.51055,3.27173 -19.04037,12.350565 -19.76591,12.350565 -0.49633,0 -0.64313,0.419538 -0.326221,0.932307 0.316911,0.512769 -0.123108,1.512678 -0.977813,2.222021 -0.854706,0.709344 -1.298418,1.703273 -0.986025,2.208735 0.475446,0.769288 8.163849,1.234219 15.443359,0.933888 9.63753,-0.397617 36.53764,0.472228 36.53764,1.181485 0,1.717314 -3.22212,3.069829 -5.94522,2.495549 l -2.99204,-0.630986 2.6286,1.703056 c 2.41294,1.56331 2.44096,1.66427 0.34153,1.23044 -1.5893,-0.32842 -2.12387,-0.0473 -1.75214,0.92142 0.61605,1.60541 -5.5053,3.10478 -9.53257,2.33492 -1.59864,-0.3056 -2.98124,0.18618 -3.82857,1.36177 -0.72945,1.01207 -1.88371,1.62621 -2.565,1.36477 -0.68131,-0.26144 -1.23874,0.23393 -1.23874,1.10082 0,0.86689 0.39429,1.33247 0.87621,1.03463 0.48191,-0.29783 0.8762,-0.0571 0.8762,0.53498 0,0.59208 -0.9463,1.58295 -2.10289,2.20194 -1.15658,0.61898 -2.10288,1.84642 -2.10288,2.72765 0,0.88122 0.48087,1.30503 1.06859,0.9418 0.58773,-0.36323 0.79638,-1.10088 0.46367,-1.63922 -0.55772,-0.90241 0.94,-1.43763 3.01452,-1.07725 0.47671,0.0827 0.56707,-0.33431 0.20081,-0.92693 -0.36626,-0.59262 -0.28314,-1.0738 0.18471,-1.06929 0.85154,0.008 3.47924,4.92495 3.47924,6.51007 0,0.463 -0.97422,0.84182 -2.16494,0.84182 -1.19072,0 -1.87127,-0.47515 -1.51235,-1.05591 0.40043,-0.6479 -0.79363,-0.95261 -3.09016,-0.78858 -2.05852,0.14703 -3.74371,0.40081 -3.74487,0.56396 -0.001,0.16314 0.66821,1.90092 1.48748,3.86172 1.25659,3.00745 1.26661,3.86559 0.064,5.4863 -1.23898,1.66978 -1.72538,1.73791 -3.71643,0.52059 -1.64315,-1.0046 -2.6126,-1.07893 -3.42866,-0.26286 -0.81606,0.81606 -0.66876,1.13777 0.52094,1.13777 0.91229,0 2.20187,0.65447 2.86573,1.45437 0.93973,1.1323 0.79805,1.61132 -0.63978,2.16306 -1.01575,0.38977 -2.01355,0.20845 -2.21735,-0.40293 -0.20379,-0.61139 -1.15912,-1.10437 -2.12293,-1.09552 -1.51567,0.0139 -1.53934,0.15381 -0.17525,1.03535 1.36409,0.88154 1.34042,1.02141 -0.17524,1.03534 -0.96382,0.008 -1.96363,-0.57534 -2.22179,-1.2982 -0.25818,-0.72287 -0.8851,-0.92396 -1.39317,-0.44687 -0.51567,0.48423 -0.059,1.35138 1.03365,1.96288 1.5994,0.89506 1.69395,1.28194 0.51696,2.11523 -1.05586,0.74752 -0.8088,0.88137 0.92529,0.50131 2.81898,-0.61783 2.80282,-0.69046 0.6914,3.10735 -1.34749,2.42373 -1.57196,2.54983 -1.14988,0.64592 z m -37.1306,-4.53069 c 0,-0.61243 0.473149,-0.82107 1.051443,-0.46367 1.557276,0.96245 1.274893,-0.0828 -0.397295,-1.47058 -1.138293,-0.9447 -1.56782,-0.74697 -2.004451,0.9227 -0.305641,1.16878 -0.126858,2.12505 0.397296,2.12505 0.524154,0 0.953007,-0.50108 0.953007,-1.1135 z m 18.572368,-9.27326 c 0.349995,-2.29338 0.316377,-2.28891 -2.274182,0.30164 -3.226694,3.22669 -3.317965,3.96341 -0.355246,2.86743 1.2508,-0.46271 2.434044,-1.88879 2.629428,-3.16907 z m 18.797082,2.04517 c -0.38119,-0.61677 -1.37486,-1.1214 -2.20817,-1.1214 -0.83331,0 -1.51511,-0.39429 -1.51511,-0.8762 0,-1.83063 -2.74031,-0.78218 -2.8823,1.10279 -0.10588,1.40557 0.36627,1.81873 1.62947,1.42592 0.97821,-0.30418 2.47457,-0.11643 3.32527,0.41722 1.80775,1.13402 2.64172,0.65495 1.65084,-0.94833 z m -26.674953,-1.81008 c 1.05755,-0.95707 1.922817,-2.84966 1.922817,-4.20577 0,-3.44752 -3.811434,-7.02379 -6.668728,-6.25727 -1.247695,0.33472 -2.54745,0.61505 -2.888346,0.62294 -0.340896,0.008 -1.157909,1.19536 -1.815585,2.6388 -2.899011,6.36264 4.307898,11.8547 9.449842,7.2013 z m 28.734603,-1.4142 c -0.3574,-0.5783 -0.14875,-1.05145 0.46367,-1.05145 0.61242,0 1.1135,0.53109 1.1135,1.18019 0,0.86809 0.37315,0.87051 1.41105,0.009 0.77607,-0.64408 1.72236,-0.85973 2.10288,-0.47923 0.38051,0.38052 0.69184,-0.27961 0.69184,-1.46694 0,-1.59513 -0.82414,-2.27975 -3.15638,-2.62205 -3.48109,-0.51091 -11.33953,2.56385 -8.1316,3.18164 1.00375,0.19297 1.82499,0.78958 1.82499,1.32547 0,0.5359 0.97423,0.97435 2.16495,0.97435 1.19071,0 1.87251,-0.47315 1.5151,-1.05144 z m 4.27527,-7.47253 c 0.50132,-0.81117 -0.35612,-0.95116 -2.82942,-0.46193 -1.9518,0.38608 -3.07558,0.31838 -2.49729,-0.15042 1.39357,-1.12974 1.82465,-3.48099 0.63822,-3.48099 -1.22627,0 -2.39096,3.07104 -1.63102,4.30065 0.83144,1.34529 5.45365,1.19366 6.31951,-0.20731 z m -26.881285,-3.0419 c 0,-0.57829 -0.47315,-1.05144 -1.051443,-1.05144 -0.578294,0 -1.051443,0.47315 -1.051443,1.05144 0,0.57829 0.473149,1.05144 1.051443,1.05144 0.578293,0 1.051443,-0.47315 1.051443,-1.05144 z m 19.977415,-0.70097 c 0,-0.77105 -0.70973,-1.40192 -1.57717,-1.40192 -0.86744,0 -1.57716,0.63087 -1.57716,1.40192 0,0.77107 0.70972,1.40193 1.57716,1.40193 0.86744,0 1.57717,-0.63086 1.57717,-1.40193 z m -25.805253,-4.48359 c 1.053483,-1.70457 -1.235749,-2.22256 -2.593313,-0.5868 -1.056454,1.27295 -0.992054,1.56559 0.344533,1.56559 0.904121,0 1.916071,-0.44046 2.24878,-0.97879 z m -11.666461,-1.64982 c -0.332868,-0.86744 -1.012891,-1.57716 -1.511165,-1.57716 -0.498273,0 -0.633605,0.70972 -0.300736,1.57716 0.332868,0.86744 1.012892,1.57717 1.511166,1.57717 0.498273,0 0.633604,-0.70973 0.300735,-1.57717 z m 65.506184,-3.94291 c 2.51418,-4.024505 0.61809,-5.728396 -3.82041,-3.43316 -4.13344,2.13749 -4.04592,2.96643 0.23198,2.19722 2.84335,-0.51126 3.01991,-0.4427 1.05145,0.40829 -1.30117,0.56251 -2.36575,1.27457 -2.36575,1.58235 0,1.14432 4.1118,0.51137 4.90273,-0.7547 z m -8.69109,-0.61334 c 0.29784,-0.48191 -0.14738,-0.8762 -0.98939,-0.8762 -0.84199,0 -1.53091,0.39429 -1.53091,0.8762 0,0.48191 0.44523,0.8762 0.98939,0.8762 0.54416,0 1.23308,-0.39429 1.53091,-0.8762 z m -16.27667,-2.65594 c -0.24096,-0.20779 -1.85755,-0.695311 -3.59243,-1.083376 -2.30363,-0.515285 -2.72898,-0.417734 -1.57717,0.361706 1.41984,0.96082 6.2247,1.63158 5.1696,0.72167 z M 90.888755,89.403816 c 0,-0.516422 -0.739713,-1.222805 -1.643807,-1.569738 -0.920111,-0.353079 -1.311493,-1.168484 -0.888987,-1.852114 0.464439,-0.751477 0.296113,-0.937828 -0.437546,-0.484402 -0.880353,0.544088 -0.856681,1.274442 0.09047,2.791063 1.336006,2.139288 2.879874,2.737129 2.879874,1.115191 z m 2.612593,-8.364807 c -0.794302,-0.794302 -2.612593,1.107367 -2.612593,2.732394 0,1.435182 0.244083,1.382269 1.491197,-0.32326 0.820158,-1.121634 1.324786,-2.205744 1.121396,-2.409134 z m 104.634572,0.428547 c 0,-1.578388 -1.8877,-3.256334 -2.72331,-2.420717 -0.73336,0.733358 0.71852,3.935828 1.78436,3.935828 0.51642,0 0.93895,-0.6818 0.93895,-1.515111 z m -51.5207,-3.087638 c 0,-0.218338 -0.82801,-1.046349 -1.84002,-1.840024 -1.66765,-1.30786 -1.70484,-1.27067 -0.39699,0.396977 1.37358,1.751439 2.23701,2.30842 2.23701,1.443047 z m 7.62296,-4.645758 c 1.01202,-0.875514 1.84003,-2.442545 1.84003,-3.482294 0,-2.74903 -2.25922,-7.274098 -3.30808,-6.625867 -0.49373,0.305142 -0.89769,0.03708 -0.89769,-0.595685 0,-1.520782 -3.96891,0.4953 -6.90409,3.507071 -1.74288,1.788342 -1.95085,2.653796 -1.05145,4.375513 2.88179,5.516601 6.16754,6.414742 10.32128,2.821262 z M 182.89,75.622568 c -0.35741,-0.578294 -1.21335,-1.044198 -1.90208,-1.035342 -0.75243,0.0097 -0.62274,0.422918 0.32491,1.035342 2.01995,1.305392 2.38394,1.305392 1.57717,0 z m 6.83438,-1.083638 c -2.98792,-0.769162 -3.63898,-0.551181 -2.73285,0.914975 0.34763,0.562477 1.69617,0.738963 2.99676,0.392189 2.35347,-0.627508 2.35222,-0.633706 -0.26391,-1.307164 z m -30.56954,-0.399919 c 0.94863,-1.143009 0.91783,-1.664418 -0.13411,-2.271459 -0.75095,-0.433346 -1.0146,-0.400715 -0.5859,0.07251 0.4287,0.473227 0.25248,1.495384 -0.3916,2.271459 -0.64408,0.776078 -0.93449,1.411049 -0.64535,1.411049 0.28915,0 1.07978,-0.667601 1.75696,-1.483557 z m 22.7542,-2.459354 c -0.14804,-1.012013 -1.17076,-1.949969 -2.27271,-2.084344 -1.10194,-0.134376 -1.41211,0.02334 -0.68924,0.35048 0.72287,0.327141 1.3143,1.265096 1.3143,2.084345 0,0.819249 0.43128,1.489544 0.95841,1.489544 0.52712,0 0.83729,-0.828011 0.68924,-1.840025 z m 9.63346,1.204778 c -0.34939,-0.349385 -1.25626,-0.386739 -2.01527,-0.08301 -0.83877,0.335648 -0.58963,0.584794 0.63525,0.635247 1.10839,0.04565 1.7294,-0.202853 1.38002,-0.552239 z m -16.13114,-4.508938 c -0.38229,-0.351312 -0.90729,-0.04436 -1.16665,0.682105 -0.25937,0.726469 -0.97742,1.008226 -1.59568,0.626125 -0.6806,-0.420633 -0.81565,-0.195658 -0.34231,0.570226 0.60529,0.979374 1.12246,0.982225 2.29075,0.01263 0.82993,-0.688782 1.19618,-1.539768 0.81389,-1.891082 z m 16.45285,2.01269 c -0.83254,-0.514536 -1.89116,-0.702243 -2.35249,-0.417124 -0.46133,0.285118 -0.83879,-0.237906 -0.83879,-1.162276 0,-1.384771 -0.25842,-1.441975 -1.46782,-0.324913 -1.2537,1.157975 -1.24027,1.439169 0.092,1.927521 0.85793,0.31447 2.57707,0.648387 3.82032,0.742038 1.7238,0.12985 1.90109,-0.05183 0.74676,-0.765246 z m -6.3456,-3.400913 c 0,-0.45523 -0.41401,-0.827691 -0.92002,-0.827691 -0.506,0 -1.21203,-1.460109 -1.56895,-3.244687 -0.39068,-1.953427 -1.17525,-3.06925 -1.97145,-2.803847 -1.72083,0.573607 -1.72844,3.501111 -0.008,3.157066 1.57543,-0.315086 1.75713,1.442237 0.24572,2.376346 -0.58773,0.363236 -0.81499,1.070776 -0.50502,1.572312 0.69054,1.117001 4.72814,0.921012 4.72814,-0.229499 z m -17.10785,-0.411495 c -0.3494,-0.349385 -1.25626,-0.38674 -2.01527,-0.08301 -0.83877,0.335648 -0.58963,0.584795 0.63525,0.635247 1.10839,0.04565 1.7294,-0.202853 1.38002,-0.552239 z m 10.79919,-1.529692 c 0,-0.544165 -0.39429,-0.98939 -0.8762,-0.98939 -0.48192,0 -0.87621,0.688911 -0.87621,1.530913 0,0.842002 0.39429,1.287227 0.87621,0.989389 0.48191,-0.297837 0.8762,-0.986747 0.8762,-1.530912 z m 8.41154,-0.98939 c 0,-0.578293 -0.47315,-1.051442 -1.05144,-1.051442 -0.57829,0 -1.05144,0.473149 -1.05144,1.051442 0,0.578294 0.47315,1.051443 1.05144,1.051443 0.57829,0 1.05144,-0.473149 1.05144,-1.051443 z m -34.14407,-5.05415 c -0.32373,-0.323726 -1.17214,-6.67e-4 -1.88537,0.717908 -1.03069,1.038422 -0.90992,1.159195 0.5886,0.588592 1.03695,-0.394849 1.6205,-0.982775 1.29677,-1.3065 z m -2.09413,-5.048183 c -1.80253,-1.802527 -2.3005,-1.827768 -2.94428,-0.149233 -0.30676,0.799803 0.45733,1.372722 1.95187,1.463536 2.09832,0.127504 2.24283,-0.06388 0.99241,-1.314303 z m 1.54059,-1.989258 c 0,-0.867441 -0.4583,-1.577164 -1.01845,-1.577164 -0.56013,0 -0.74609,0.709723 -0.41323,1.577164 0.33288,0.86744 0.79117,1.577164 1.01845,1.577164 0.22727,0 0.41323,-0.709724 0.41323,-1.577164 z m 89.96645,83.699864 c -0.31995,-0.51768 0.0464,-1.1823 0.81415,-1.4769 0.76773,-0.29462 1.39589,0.12895 1.39589,0.94126 0,1.65557 -1.32014,1.97553 -2.21004,0.53564 z m 2.56051,-3.66148 c 0,-0.21833 0.82802,-1.04634 1.84003,-1.84002 1.66765,-1.30786 1.70484,-1.27067 0.39698,0.39698 -1.37357,1.75144 -2.23701,2.30842 -2.23701,1.44304 z m -116.18442,-5.91167 c 0.3574,-0.57829 0.85848,-1.05144 1.1135,-1.05144 0.25501,0 0.46366,0.47315 0.46366,1.05144 0,0.57829 -0.50107,1.05144 -1.1135,1.05144 -0.61242,0 -0.82107,-0.47315 -0.46366,-1.05144 z m -33.317597,-7.02691 c 0.75901,-0.30373 1.66588,-0.26638 2.015266,0.083 0.349385,0.3494 -0.271624,0.59789 -1.380019,0.55224 -1.224871,-0.0505 -1.474018,-0.2996 -0.635247,-0.63524 z m 145.162127,-1.12177 c -1.30786,-1.66765 -1.27067,-1.70484 0.39698,-0.39698 1.75145,1.37357 2.30843,2.237 1.44305,2.237 -0.21834,0 -1.04635,-0.82801 -1.84003,-1.84002 z m -109.21593,-2.4278 c 0,-0.61243 0.47315,-0.82108 1.05145,-0.46367 0.57829,0.35741 1.05144,0.85848 1.05144,1.1135 0,0.25502 -0.47315,0.46366 -1.05144,0.46366 -0.5783,0 -1.05145,-0.50107 -1.05145,-1.11349 z m -1.05144,-4.25621 c 0,-0.64017 -0.68562,-0.90084 -1.52361,-0.57927 -0.97583,0.37446 -1.32969,0.0793 -0.98423,-0.82096 0.51694,-1.34715 4.92757,-2.69305 8.8253,-2.69305 1.01685,0 2.1141,1.01446 2.43835,2.25435 0.4425,1.69213 0.28952,1.95435 -0.61338,1.05144 -1.57376,-1.57376 -3.22617,-1.55376 -2.24906,0.0272 0.51119,0.82712 0.18705,1.01017 -0.9894,0.55872 -0.9623,-0.36927 -1.74964,-0.2131 -1.74964,0.34704 0,0.56014 -0.70972,1.01844 -1.57717,1.01844 -0.86744,0 -1.57716,-0.52377 -1.57716,-1.16393 z m 9.46299,-3.04184 c 0,-0.57829 0.50107,-1.05144 1.11349,-1.05144 0.61243,0 0.82108,0.47315 0.46367,1.05144 -0.35741,0.5783 -0.85848,1.05145 -1.1135,1.05145 -0.25502,0 -0.46366,-0.47315 -0.46366,-1.05145 z m 4.20577,-2.10288 c -1.35919,-0.87838 -1.33143,-1.02147 0.2008,-1.03534 0.97789,-0.009 2.0704,0.45704 2.4278,1.03534 0.82242,1.3307 -0.56949,1.3307 -2.6286,0 z m 3.85955,-1.86666 c 0.67701,-0.43066 1.54772,-2.0452 1.93491,-3.58787 0.38719,-1.54267 1.39346,-3.069437 2.23617,-3.392816 1.28779,-0.49417 1.27266,-0.217402 -0.0948,1.735038 -0.89494,1.277648 -1.62714,3.164018 -1.62714,4.191928 0,1.08511 -0.77169,1.86218 -1.84002,1.85283 -1.20984,-0.0106 -1.41844,-0.28427 -0.60908,-0.79911 z m 18.77351,-2.66255 c -2.62869,-2.850598 -2.94552,-4.814365 -0.70659,-4.379464 0.95205,0.18493 2.41286,0.372437 3.24626,0.416682 1.10817,0.05884 0.96693,0.495183 -0.52573,1.624172 -1.12254,0.84905 -1.53998,1.55877 -0.92764,1.57716 0.61234,0.0184 2.03179,0.72812 3.15433,1.57717 2.01347,1.52291 2.01264,1.54299 -0.0619,1.48954 -1.15659,-0.0298 -3.03702,-1.06717 -4.17873,-2.30526 z m -13.17008,0.002 c 0,-0.83794 0.70973,-2.112541 1.57717,-2.832452 1.19223,-0.989465 1.57716,-1.002558 1.57716,-0.05364 0,0.690409 -0.70972,1.965022 -1.57716,2.832462 -1.35257,1.35256 -1.57717,1.3602 -1.57717,0.0536 z m 68.91441,-4.862685 c -0.33272,-0.538334 -0.051,-1.321163 0.62613,-1.73962 0.73373,-0.453479 0.95039,-0.306732 0.53632,0.363264 -0.38211,0.618252 -0.10031,1.363728 0.62612,1.656612 0.94539,0.381147 0.9649,0.556112 0.0685,0.615526 -0.68873,0.04565 -1.52446,-0.357447 -1.85717,-0.895782 z M 106.94327,93.819897 c 1.02302,-0.266586 2.44247,-0.249055 3.15432,0.03896 0.71186,0.288014 -0.12515,0.506131 -1.86003,0.484702 -1.73488,-0.02143 -2.31731,-0.257076 -1.29429,-0.523662 z m 7.35454,-0.02585 c 1.59826,-0.24168 3.96401,-0.235221 5.25722,0.01435 1.29321,0.249572 -0.0145,0.447309 -2.90593,0.439416 -2.89146,-0.0079 -3.94954,-0.21209 -2.35129,-0.453768 z m 10.49997,0.02971 c 1.01202,-0.264466 2.66804,-0.264466 3.68005,0 1.01202,0.264468 0.18401,0.480849 -1.84002,0.480849 -2.02403,0 -2.85204,-0.216381 -1.84003,-0.480849 z m 7.3601,0 c 1.01202,-0.264466 2.66804,-0.264466 3.68005,0 1.01202,0.264468 0.18401,0.480849 -1.84002,0.480849 -2.02403,0 -2.85204,-0.216381 -1.84003,-0.480849 z m 8.41155,-0.02832 c 1.5903,-0.240912 4.19262,-0.240912 5.78293,0 1.59031,0.240911 0.28915,0.438021 -2.89147,0.438021 -3.18061,0 -4.48177,-0.19711 -2.89146,-0.438021 z m 14.75192,-0.02105 c 2.76435,-0.217308 7.02269,-0.214686 9.46298,0.0058 2.44031,0.220513 0.17857,0.398311 -5.02607,0.395107 -5.20464,-0.0032 -7.20125,-0.183624 -4.43691,-0.400933 z m 15.75993,0.04551 c 1.02302,-0.266586 2.44247,-0.249055 3.15432,0.03896 0.71186,0.288014 -0.12515,0.506131 -1.86003,0.484702 -1.73488,-0.02143 -2.31732,-0.257076 -1.29429,-0.523662 z m -17.10596,-9.131322 c 0,-0.218339 0.82801,-1.04635 1.84003,-1.840025 1.66765,-1.307859 1.70484,-1.27067 0.39698,0.396978 -1.37357,1.751438 -2.23701,2.30842 -2.23701,1.443047 z m 55.76618,-4.135932 c -1.14023,-1.825808 -1.05614,-2.355281 0.56201,-3.5385 1.51197,-1.105587 2.0743,-1.121445 2.73737,-0.0772 0.56257,0.886 0.83972,0.922629 0.85058,0.112415 0.008,-0.660996 0.70173,-1.464911 1.53972,-1.786478 1.01834,-0.390775 1.32972,-0.0794 0.93894,0.938951 -0.32156,0.837991 -0.0609,1.523619 0.57928,1.523619 0.64017,0 1.17118,-0.828011 1.18003,-1.840025 0.0138,-1.574461 0.16487,-1.612399 1.04684,-0.26286 0.7737,1.18389 0.32954,2.148752 -1.78125,3.869437 -3.99149,3.253793 -6.10128,3.546171 -7.65352,1.060638 z m -1.00814,-12.903516 c 0.0505,-1.224871 0.2996,-1.474017 0.63524,-0.635247 0.30373,0.75901 0.26638,1.66588 -0.083,2.015266 -0.3494,0.349385 -0.59789,-0.271624 -0.55224,-1.380019 z m -7.44311,-2.954215 c 0,-0.997432 3.14737,-1.500115 3.70843,-0.592294 0.3418,0.553037 -0.35277,1.005522 -1.54349,1.005522 -1.19072,0 -2.16494,-0.185953 -2.16494,-0.413228 z"
           id="path8512" />
        <path
           style="fill:#ba5422;stroke-width:1.05144"
           d="m 135.04935,241.42151 c 0,-0.18095 1.53774,-1.71868 3.41719,-3.41718 l 3.41719,-3.08819 -3.08818,3.41719 c -2.87862,3.18531 -3.7462,3.90049 -3.7462,3.08818 z M 86.716423,205.64558 c 0.06167,-2.25236 2.805494,-4.90133 5.076828,-4.90133 1.237407,0 2.249832,0.43936 2.249832,0.97634 0,0.537 0.74352,1.71987 1.652268,2.62861 1.50206,1.50206 1.334785,1.65959 -1.840025,1.73271 -1.920761,0.0443 -4.320304,0.23896 -5.332318,0.43269 -1.012013,0.19373 -1.824976,-0.19733 -1.806585,-0.86902 z m 134.551237,-2.98054 c 0,-0.47814 1.41945,-0.86934 3.15433,-0.86934 1.73488,0 3.15433,0.18287 3.15433,0.40638 0,0.22352 -1.41945,0.61472 -3.15433,0.86934 -1.73488,0.25463 -3.15433,0.0717 -3.15433,-0.40638 z M 68.808456,196.6261 c 0,-0.5301 0.445321,-1.12153 0.989601,-1.3143 0.544281,-0.19276 1.221257,-1.64384 1.504392,-3.2246 0.283135,-1.58077 0.785647,-3.31238 1.116695,-3.84803 1.48822,-2.40799 -0.845304,-4.21528 -6.326958,-4.90016 -4.799388,-0.59965 -5.695272,-1.04906 -5.695272,-2.85693 0,-1.17994 1.257192,-3.79362 2.79376,-5.80816 3.399203,-4.45658 2.612874,-6.29934 -3.567023,-8.35931 -2.366691,-0.78889 -4.559282,-2.10202 -4.872421,-2.91805 -0.327408,-0.85321 1.220835,-3.29185 3.643431,-5.73878 2.317027,-2.3403 3.912211,-4.74142 3.544853,-5.33582 -0.36736,-0.5944 -2.52075,-2.25036 -4.785313,-3.67991 -2.495292,-1.57522 -4.117387,-3.40788 -4.117387,-4.6519 0,-2.46615 3.310288,-4.46292 5.969628,-3.6009 1.437347,0.46592 1.559705,0.36644 0.489634,-0.39806 -1.650314,-1.17906 -0.63464,-2.01394 3.323157,-2.73163 3.276192,-0.59409 3.941957,0.13149 2.777226,3.02674 -0.465284,1.15658 -0.879228,1.45351 -0.919873,0.65984 -0.05956,-1.163 -0.379981,-1.18902 -1.651065,-0.13412 -2.266189,1.88077 -1.954668,3.06285 1.114712,4.22983 1.480532,0.5629 2.419113,1.46478 2.085734,2.0042 -0.333377,0.53941 -0.174853,1.24731 0.352277,1.5731 0.52713,0.32578 1.229722,-0.11467 1.561316,-0.97879 0.331593,-0.86412 1.141519,-1.57113 1.799832,-1.57113 0.677804,0 0.909692,0.74854 0.534651,1.72588 -0.535878,1.39648 -0.376182,1.48845 0.836702,0.48185 1.163095,-0.96529 1.621099,-0.93972 2.043947,0.11413 0.346562,0.86373 0.575181,0.68831 0.62797,-0.48183 0.04565,-1.01202 -0.390141,-1.84003 -0.968435,-1.84003 -0.578293,0 -1.051443,-0.47315 -1.051443,-1.05144 0,-0.57829 0.709724,-1.05144 1.577165,-1.05144 0.86744,0 1.577164,-0.52444 1.577164,-1.16543 0,-0.67864 -0.98816,-0.92436 -2.365746,-0.58829 -1.894566,0.4622 -2.679867,-0.0909 -3.942911,-2.77748 -0.90604,-1.92714 -2.511993,-3.48818 -3.774044,-3.66848 -2.151771,-0.30742 -12.278712,-9.67485 -10.459283,-9.67485 0.50859,0 1.871308,0.82801 3.028263,1.84002 1.156954,1.01202 1.757722,1.24859 1.335041,0.52573 -0.422681,-0.72287 -0.267437,-1.31431 0.344985,-1.31431 0.612422,0 1.113496,0.51681 1.113496,1.14846 0,0.63166 0.946298,2.35149 2.102885,3.82185 1.221117,1.55239 2.102886,2.05865 2.102886,1.20735 0,-0.80633 0.932213,-2.04822 2.071585,-2.75977 1.75358,-1.09512 2.237795,-0.98316 3.154328,0.7294 1.531735,2.86207 1.343161,3.68642 -0.494421,2.16137 -2.765594,-2.29524 -1.69146,0.18965 1.314304,3.0405 1.625316,1.54154 3.834638,2.60746 5.045353,2.4342 2.003118,-0.28664 2.23464,0.50913 3.307559,11.36862 0.63452,6.42227 1.329428,11.85261 1.544239,12.06742 0.214811,0.21481 5.350499,0.54963 11.41264,0.74406 l 11.022078,0.35348 -0.31829,-14.47842 c -0.17505,-7.96313 0.0852,-14.47842 0.5783,-14.47842 0.49311,0 1.49239,0.59144 2.2206,1.3143 1.06207,1.05429 1.19028,0.89826 0.648,-0.78858 -0.61744,-1.92064 -0.49433,-1.89785 1.42055,0.26286 1.15311,1.30116 2.56786,2.36575 3.1439,2.36575 0.57603,0 0.81132,1.06459 0.52286,2.36575 -0.42208,1.90391 -0.19761,1.77781 1.14988,-0.64592 2.11142,-3.79781 2.12758,-3.72518 -0.6914,-3.10735 -1.73409,0.38006 -1.98115,0.24621 -0.92529,-0.50131 1.17699,-0.83329 1.08244,-1.22017 -0.51696,-2.11523 -1.09268,-0.6115 -1.54932,-1.47865 -1.03365,-1.96288 0.50807,-0.47709 1.13499,-0.276 1.39317,0.44687 0.25816,0.72286 1.25797,1.30705 2.22179,1.2982 1.51566,-0.0139 1.53933,-0.1538 0.17524,-1.03534 -1.36409,-0.88154 -1.34042,-1.02142 0.17525,-1.03535 0.96381,-0.008 1.91914,0.48413 2.12293,1.09552 0.2038,0.61138 1.2016,0.7927 2.21735,0.40293 1.43783,-0.55174 1.57951,-1.03076 0.63978,-2.16306 -0.66386,-0.7999 -1.95344,-1.45437 -2.86573,-1.45437 -1.1897,0 -1.337,-0.32171 -0.52094,-1.13777 0.81606,-0.81607 1.78551,-0.74174 3.42866,0.26286 1.99105,1.21732 2.47745,1.14919 3.71643,-0.52059 1.20257,-1.62071 1.19255,-2.47885 -0.064,-5.4863 -0.81927,-1.9608 -1.48864,-3.69858 -1.48748,-3.86172 0.001,-0.16315 1.68635,-0.41693 3.74487,-0.56396 2.29653,-0.16403 3.49059,0.14068 3.09016,0.78858 -0.35892,0.58076 0.32163,1.05591 1.51235,1.05591 1.19072,0 2.16494,-0.37882 2.16494,-0.84182 0,-1.58512 -2.6277,-6.50186 -3.47924,-6.51007 -0.46785,-0.005 -0.55097,0.47667 -0.18471,1.06929 0.36626,0.59262 0.2759,1.00973 -0.20081,0.92693 -2.07452,-0.36038 -3.57224,0.17484 -3.01452,1.07725 0.33271,0.53834 0.12406,1.27599 -0.46367,1.63922 -0.58772,0.36323 -1.06859,-0.0606 -1.06859,-0.9418 0,-0.88123 0.9463,-2.10867 2.10288,-2.72765 1.15659,-0.61899 2.10289,-1.60986 2.10289,-2.20194 0,-0.59207 -0.39429,-0.83281 -0.8762,-0.53498 -0.48192,0.29784 -0.87621,-0.16774 -0.87621,-1.03463 0,-0.86689 0.55743,-1.36226 1.23874,-1.10082 0.68129,0.26144 1.83555,-0.3527 2.565,-1.36477 0.84733,-1.17559 2.22993,-1.66737 3.82857,-1.36177 4.02727,0.76986 10.14862,-0.72951 9.53257,-2.33492 -0.37173,-0.96872 0.16284,-1.24984 1.75214,-0.92142 2.09943,0.43383 2.07141,0.33287 -0.34153,-1.23044 l -2.6286,-1.703055 2.99204,0.630985 c 2.74134,0.57812 5.94522,-0.780931 5.94522,-2.521901 0,-0.386085 -5.32293,-0.683012 -11.82873,-0.659839 -6.5058,0.02317 -13.48475,-0.275456 -15.50878,-0.663623 -2.02403,-0.388166 9.8047,-0.624741 26.28607,-0.525721 29.27143,0.175862 30.08418,0.238159 35.05894,2.687245 6.38517,3.143439 10.60238,6.955349 9.56028,8.641489 -0.46691,0.7555 -0.34116,0.9944 0.31122,0.59121 0.60213,-0.37214 1.70162,0.0546 2.44333,0.94831 1.10545,1.33199 1.0908,1.56683 -0.0813,1.30272 -0.78641,-0.1772 -1.60167,0.62412 -1.81167,1.7807 -0.24536,1.3513 -0.0698,1.65299 0.49103,0.84409 1.3779,-1.98716 3.05649,-0.0969 2.98523,3.36168 -0.0592,2.8722 -0.41766,3.18352 -4.0079,3.48067 -2.1686,0.17948 -3.94291,0.77092 -3.94291,1.3143 0,0.54338 -0.93145,0.98797 -2.06989,0.98797 -1.47364,0 -1.88214,0.48927 -1.41811,1.6985 0.51854,1.3513 0.18835,1.55141 -1.61534,0.97894 -1.56886,-0.49793 -2.46105,-0.21417 -2.89678,0.9213 -0.43117,1.12362 -1.13946,1.35553 -2.24703,0.73571 -0.88958,-0.49783 -2.50353,-0.67342 -3.58658,-0.3902 -1.48504,0.38836 -1.80729,0.0932 -1.31075,-1.20085 0.49341,-1.28582 0.21869,-1.54707 -1.09624,-1.04248 -1.02658,0.39393 -1.50242,1.33066 -1.14676,2.2575 0.53075,1.3831 0.30487,1.37661 -1.7796,-0.0511 -1.31313,-0.89942 -2.25288,-2.1955 -2.08834,-2.88019 0.65434,-2.72295 -1.0172,-5.42785 -3.02913,-4.90172 -1.10084,0.28788 -2.00152,0.0157 -2.00152,-0.60484 0,-0.62053 -0.29879,-0.82946 -0.66397,-0.46428 -0.36518,0.36519 -1.60515,0.16026 -2.75549,-0.45538 -1.15034,-0.61564 -1.84303,-0.71728 -1.53933,-0.22587 0.58042,0.93914 -1.05613,1.07471 -15.54435,1.28778 l -8.93727,0.13141 v 6.71175 c 0,7.58277 0.44144,7.95622 9.46298,8.00566 7.8822,0.0432 12.5265,1.11889 11.89834,2.75586 -0.3066,0.79898 -0.005,1.4527 0.66854,1.4527 0.67429,0 0.94823,-0.44941 0.60876,-0.99869 -0.80333,-1.29982 2.4658,-2.86572 5.48747,-2.6285 1.30116,0.1022 2.36575,-0.31324 2.36575,-0.92311 0,-0.60986 0.74835,-0.1904 1.663,0.93215 1.3523,1.65966 1.55875,1.70721 1.10499,0.25451 -0.39361,-1.26015 -0.10126,-1.61119 0.99244,-1.19152 1.1926,0.45764 1.27186,0.93066 0.34344,2.04934 -1.28118,1.54372 -4.60542,2.06508 -3.68646,0.57818 0.29784,-0.48192 -0.22897,-0.87621 -1.17071,-0.87621 -1.09801,0 -0.2509,1.22685 2.36148,3.42009 3.3971,2.85202 4.06097,4.05129 3.99697,7.22042 -0.0544,2.68997 0.49805,4.10798 1.89054,4.85322 1.08201,0.57907 2.00465,1.86422 2.05031,2.85589 0.0505,1.09657 0.29079,1.28807 0.61333,0.48873 0.29169,-0.72287 0.91344,-1.3143 1.38166,-1.3143 1.50104,0 2.20379,3.37298 1.00394,4.81869 -1.58597,1.911 -0.14515,3.89499 2.35402,3.24144 1.66909,-0.43647 1.81667,-0.26029 0.80404,0.95985 -0.96054,1.15738 -0.94095,1.49444 0.0869,1.49444 0.72992,0 1.9719,-0.82801 2.75993,-1.84002 1.33099,-1.70929 1.38801,-1.7112 0.80238,-0.027 -0.9616,2.7654 4.98807,7.45566 6.26141,4.93602 0.28314,-0.56027 0.42016,-0.4982 0.3045,0.13792 -0.11565,0.63613 -0.6716,1.15482 -1.23544,1.15266 -3.34598,-0.0128 -6.24915,6.43867 -3.3909,7.53536 0.88026,0.33776 0.53304,1.08084 -1.05145,2.25013 -1.42439,1.05115 -2.37215,2.87266 -2.38184,4.57768 -0.0118,2.07356 -0.26779,2.43426 -0.95602,1.34702 -0.79452,-1.25511 -1.21031,-1.21445 -2.68762,0.26286 -0.96123,0.96123 -2.37299,1.74769 -3.13725,1.74769 -1.33093,0 -3.16823,-2.86087 -2.84553,-4.43079 0.0849,-0.41291 -0.55232,-0.47958 -1.41598,-0.14817 -1.07461,0.41237 -2.02387,-0.5123 -3.00723,-2.92931 -1.38166,-3.39598 -4.21566,-16.56716 -4.26659,-19.82924 -0.0136,-0.86744 -2.07707,-2.64175 -4.58562,-3.94291 -3.83362,-1.98846 -6.22657,-2.36575 -15.00472,-2.36575 h -10.44371 v 6.83438 6.83438 l 8.14868,0.12451 c 4.48178,0.0684 8.51843,0.0635 8.97036,-0.011 0.45192,-0.0746 0.75611,4.84147 0.67598,10.9245 l -0.1457,11.06004 -10.66469,-0.45884 c -11.75075,-0.50556 -16.22182,-1.21688 -18.25498,-2.90425 -0.8305,-0.68925 -1.34696,-0.72033 -1.34696,-0.0811 0,0.57025 -1.8926,1.03681 -4.20578,1.03681 -2.31317,0 -4.20577,-0.35346 -4.20577,-0.78549 0,-1.29972 -5.15296,-1.8681 -5.57526,-0.61496 -0.26581,0.78876 -0.95324,0.69772 -2.14218,-0.28372 -1.11793,-0.92283 -2.93008,-1.20935 -5.0134,-0.79269 -2.622538,0.52451 -3.144207,0.34391 -2.658994,-0.92053 0.332001,-0.86519 0.263628,-1.55802 -0.151943,-1.53963 -2.396654,0.10607 -8.629737,8.08979 -7.907884,10.12891 0.238524,0.67379 -0.538663,1.53369 -1.727084,1.91088 -2.633523,0.83584 -2.874819,3.67112 -0.320739,3.76876 1.012013,0.0387 -0.289147,0.74122 -2.891468,1.5612 -5.302397,1.67076 -15.771642,2.0418 -15.771642,0.55896 z m 14.912963,-5.57265 c -0.754475,-0.75447 -1.244207,-0.81655 -1.244207,-0.15771 0,1.40344 1.243447,2.64689 1.94517,1.94517 0.298785,-0.29878 -0.01664,-1.10314 -0.700963,-1.78746 z m 1.910122,-3.10175 c 0,-0.48191 -0.445225,-0.8762 -0.98939,-0.8762 -0.544165,0 -1.233075,0.39429 -1.530912,0.8762 -0.297838,0.48192 0.147387,0.87621 0.989389,0.87621 0.842002,0 1.530913,-0.39429 1.530913,-0.87621 z m 34.494549,-8.78984 c -0.32373,-0.32373 -0.91166,0.25982 -1.3065,1.29677 -0.5706,1.49852 -0.44983,1.61929 0.58859,0.5886 0.71858,-0.71324 1.04164,-1.56164 0.71791,-1.88537 z m -7.15704,0.55354 c 0,-0.57829 -0.44522,-1.05144 -0.98938,-1.05144 -0.54417,0 -1.28182,0.47315 -1.63922,1.05144 -0.35741,0.57829 0.0878,1.05144 0.98938,1.05144 0.90157,0 1.63922,-0.47315 1.63922,-1.05144 z m 37.85194,-8.99932 c 0,-0.90157 -0.47315,-1.34679 -1.05144,-0.98939 -0.57829,0.35741 -1.05144,1.09506 -1.05144,1.63922 0,0.54417 0.47315,0.98939 1.05144,0.98939 0.57829,0 1.05144,-0.73765 1.05144,-1.63922 z m 23.13175,-10.97809 c 0,-0.5783 -0.50108,-1.05145 -1.1135,-1.05145 -0.61243,0 -0.82108,0.47315 -0.46367,1.05145 0.35741,0.57829 0.85848,1.05144 1.1135,1.05144 0.25502,0 0.46367,-0.47315 0.46367,-1.05144 z m -96.732742,-4.20577 c 0,-0.5783 -0.20865,-1.05145 -0.463668,-1.05145 -0.255018,0 -0.75609,0.47315 -1.113496,1.05145 -0.357405,0.57829 -0.148754,1.05144 0.463669,1.05144 0.612422,0 1.113495,-0.47315 1.113495,-1.05144 z m -2.436073,-4.40292 c -0.335648,-0.83877 -0.584794,-0.58963 -0.635247,0.63525 -0.04565,1.10839 0.202853,1.7294 0.552239,1.38002 0.349385,-0.3494 0.38674,-1.25627 0.08301,-2.01527 z m -12.178402,-3.08593 c -2.103984,-2.25836 -2.642932,-3.53607 -2.307071,-5.46948 0.08281,-0.4767 -0.342027,-0.5623 -0.944081,-0.19021 -0.602055,0.37209 -0.7911,1.16767 -0.4201,1.76796 0.43621,0.7058 -0.207859,0.83713 -1.822875,0.37168 -2.092019,-0.60292 -1.985385,-0.39285 0.656911,1.29412 1.73488,1.10763 3.813188,2.81172 4.618463,3.78686 0.805274,0.97513 1.680861,1.55624 1.945749,1.29135 0.264888,-0.26489 -0.512261,-1.54841 -1.726996,-2.85228 z m 51.414977,1.18019 c 0,-0.57829 -0.50108,-1.05144 -1.1135,-1.05144 -0.61243,0 -0.82107,0.47315 -0.46367,1.05144 0.35741,0.57829 0.85848,1.05144 1.1135,1.05144 0.25502,0 0.46367,-0.47315 0.46367,-1.05144 z m 55.13871,-2.99676 c -0.89704,-1.01995 -2.38606,1.19228 -1.81107,2.6907 0.58341,1.52034 0.75261,1.48449 1.39926,-0.29653 0.40457,-1.11431 0.58989,-2.19168 0.41181,-2.39417 z m -30.95553,-3.95011 c 0,-0.22727 -0.70972,-0.41323 -1.57716,-0.41323 -0.86744,0 -1.57717,0.4583 -1.57717,1.01845 0,0.56013 0.70973,0.74609 1.57717,0.41323 0.86744,-0.33288 1.57716,-0.79117 1.57716,-1.01845 z m -7.3601,-16.18487 c 0,-0.57829 -0.20865,-1.05144 -0.46366,-1.05144 -0.25502,0 -0.7561,0.47315 -1.1135,1.05144 -0.35741,0.57829 -0.14876,1.05144 0.46366,1.05144 0.61243,0 1.1135,-0.47315 1.1135,-1.05144 z m 50.46925,-3.32888 c 0,-0.55054 -0.44046,-0.72879 -0.97878,-0.39608 -0.53834,0.33272 -1.27599,0.12406 -1.63922,-0.46366 -0.36324,-0.58773 -1.42501,-1.06859 -2.3595,-1.06859 -1.44776,0 -1.3997,0.28862 0.3249,1.95116 2.00081,1.92882 4.6526,1.91581 4.6526,-0.0228 z m 3.28481,-4.31161 c -1.03843,-1.03069 -1.1592,-0.90992 -0.5886,0.5886 0.39485,1.03695 0.98277,1.6205 1.3065,1.29678 0.32373,-0.32373 6.7e-4,-1.17214 -0.7179,-1.88538 z m 7.22962,-1.29677 c 0,-0.86744 -0.39429,-1.57717 -0.8762,-1.57717 -0.48191,0 -0.87621,0.70973 -0.87621,1.57717 0,0.86744 0.3943,1.57716 0.87621,1.57716 0.48191,0 0.8762,-0.70972 0.8762,-1.57716 z m -57.82935,-0.98939 c 0,-0.25502 -0.47315,-0.75609 -1.05144,-1.1135 -0.5783,-0.35741 -1.05145,-0.14876 -1.05145,0.46367 0,0.61242 0.47315,1.11349 1.05145,1.11349 0.57829,0 1.05144,-0.20864 1.05144,-0.46366 z m 0,-4.76055 c 0,-0.56014 0.78734,-0.71631 1.74964,-0.34704 1.17645,0.45144 1.50059,0.2684 0.9894,-0.55872 -0.97711,-1.58098 0.6753,-1.60098 2.24906,-0.0272 0.9029,0.90291 1.05588,0.64069 0.61338,-1.05145 -0.32425,-1.23988 -1.4215,-2.25434 -2.43835,-2.25434 -3.89773,0 -8.30836,1.3459 -8.8253,2.69305 -0.34546,0.90025 0.008,1.19542 0.98423,0.82096 0.83799,-0.32157 1.52361,-0.0609 1.52361,0.57927 0,0.64016 0.70972,1.16393 1.57716,1.16393 0.86745,0 1.57717,-0.4583 1.57717,-1.01844 z m 7.88582,-3.18733 c 0.35741,-0.57829 0.14876,-1.05144 -0.46367,-1.05144 -0.61242,0 -1.11349,0.47315 -1.11349,1.05144 0,0.5783 0.20864,1.05145 0.46366,1.05145 0.25502,0 0.75609,-0.47315 1.1135,-1.05145 z m 5.25721,-2.10288 c -0.3574,-0.5783 -1.44991,-1.0442 -2.4278,-1.03534 -1.53223,0.0139 -1.55999,0.15696 -0.2008,1.03534 2.05911,1.3307 3.45102,1.3307 2.6286,0 z m 3.68005,-2.92038 c 0,-1.02791 0.7322,-2.91428 1.62709,-4.191928 1.36755,-1.95244 1.38268,-2.229208 0.0948,-1.735038 -0.84271,0.323379 -1.84898,1.850146 -2.23618,3.392816 -0.38718,1.54267 -1.25789,3.15721 -1.9349,3.58787 -0.80936,0.51484 -0.60077,0.78853 0.60908,0.79911 1.06833,0.009 1.84002,-0.76772 1.84002,-1.85283 z m 20.56504,-0.79311 c -1.12254,-0.84905 -2.54199,-1.55877 -3.15433,-1.57717 -0.61234,-0.0184 -0.1949,-0.72811 0.92764,-1.57716 1.49266,-1.128989 1.6339,-1.565337 0.52573,-1.624172 -0.8334,-0.04424 -2.29421,-0.231752 -3.24626,-0.416682 -0.95204,-0.184929 -1.64959,0.218303 -1.55012,0.896072 0.32016,2.181362 4.26844,5.732822 6.43544,5.788652 2.07454,0.0535 2.07537,0.0334 0.0619,-1.48954 z m -14.25638,-3.700252 c 0,-0.948918 -0.38493,-0.935825 -1.57716,0.05364 -0.86744,0.719912 -1.57717,1.994522 -1.57717,2.832462 0,1.30656 0.2246,1.29892 1.57717,-0.0537 0.86744,-0.86744 1.57716,-2.142048 1.57716,-2.832456 z M 87.734426,192.33271 c 0.867441,-0.56058 2.050314,-1.01923 2.628607,-1.01923 0.578294,0 0.341719,0.45865 -0.525721,1.01923 -0.86744,0.56059 -2.050314,1.01924 -2.628607,1.01924 -0.578294,0 -0.341719,-0.45865 0.525721,-1.01924 z m 98.555234,-13.79923 c 0.71324,-0.71857 1.56165,-1.04163 1.88537,-0.7179 0.32373,0.32373 -0.25982,0.91165 -1.29677,1.3065 -1.49852,0.5706 -1.61929,0.44983 -0.5886,-0.5886 z m 58.56932,-22.21268 -3.08818,-3.41719 3.41718,3.08818 c 1.87946,1.6985 3.41719,3.23624 3.41719,3.41719 0,0.8123 -0.86757,0.0971 -3.74619,-3.08818 z m -55.66032,-2.89147 c -0.35741,-0.57829 -0.14876,-1.05144 0.46366,-1.05144 0.61242,0 1.1135,0.47315 1.1135,1.05144 0,0.57829 -0.20865,1.05144 -0.46367,1.05144 -0.25501,0 -0.75609,-0.47315 -1.11349,-1.05144 z m -9.46299,-2.10288 c 0.35741,-0.5783 1.12297,-1.05145 1.70127,-1.05145 0.57829,0 0.75902,0.47315 0.40162,1.05145 -0.35741,0.57829 -1.12298,1.05144 -1.70127,1.05144 -0.57829,0 -0.75903,-0.47315 -0.40162,-1.05144 z m -129.687167,-7.3601 c 0,-1.44574 0.23865,-2.03717 0.530333,-1.31431 0.291683,0.72287 0.291683,1.90574 0,2.62861 -0.291683,0.72287 -0.530333,0.13143 -0.530333,-1.3143 z m 16.400758,-0.69854 c 0.72647,-0.29288 1.008227,-1.03835 0.626125,-1.65661 -0.41408,-0.66999 -0.197423,-0.81674 0.536321,-0.36326 1.447537,0.89463 0.578358,2.75534 -1.23105,2.63539 -0.896293,-0.0594 -0.876792,-0.23437 0.06861,-0.61552 z m 114.863569,-1.93007 c -0.75446,-0.90907 -0.85665,-1.57716 -0.24123,-1.57716 0.58723,0 1.34003,0.70972 1.67291,1.57716 0.33287,0.86744 0.44142,1.57716 0.24123,1.57716 -0.20018,0 -0.95299,-0.70972 -1.67291,-1.57716 z m 52.58824,-0.20081 c 0.009,-0.46785 0.47476,-1.56036 1.03535,-2.4278 0.87837,-1.35919 1.02146,-1.33143 1.03534,0.20081 0.008,0.97788 -0.45705,2.07039 -1.03534,2.4278 -0.5783,0.35741 -1.0442,0.26704 -1.03535,-0.20081 z M 77.000541,136.35505 c 1.336093,-0.64352 2.170355,-1.78262 1.873025,-2.55745 -0.29487,-0.76842 -0.07783,-1.39712 0.482318,-1.39712 1.423022,0 1.272001,2.48019 -0.243289,3.99548 -0.693952,0.69395 -1.995112,1.2297 -2.891467,1.19057 -1.059159,-0.0463 -0.786283,-0.4774 0.779413,-1.23148 z m -4.285174,-1.87385 c 0.436631,-1.66967 0.866158,-1.8674 2.004451,-0.9227 1.672188,1.38779 1.954571,2.43303 0.397295,1.47058 -0.578294,-0.3574 -1.051443,-0.14876 -1.051443,0.46367 0,0.61242 -0.428853,1.1135 -0.953007,1.1135 -0.524154,0 -0.702937,-0.95627 -0.397296,-2.12505 z m -17.709784,-2.86931 c -1.307859,-1.66765 -1.27067,-1.70484 0.396978,-0.39698 1.012013,0.79368 1.840024,1.62169 1.840024,1.84003 0,0.86538 -0.86343,0.30839 -2.237002,-1.44305 z m 32.728843,-1.9217 c 0,-0.2968 1.183244,-1.72287 2.62943,-3.16906 2.590559,-2.59055 2.624177,-2.59502 2.274182,-0.30164 -0.293876,1.92566 -4.903612,5.18836 -4.903612,3.4707 z m 22.049854,-0.4772 c -0.8507,-0.53365 -2.34706,-0.7214 -3.32527,-0.41722 -1.2632,0.39281 -1.73535,-0.0204 -1.62947,-1.42592 0.14199,-1.88497 2.8823,-2.93342 2.8823,-1.10279 0,0.48191 0.6818,0.8762 1.51511,0.8762 1.49896,0 3.27233,1.8717 2.50264,2.64139 -0.21923,0.21923 -1.09462,-0.0381 -1.94531,-0.57166 z m 77.57435,0.38825 c 0.72287,-0.29168 1.3143,-1.22855 1.3143,-2.08193 0,-0.85338 0.49613,-1.24497 1.1025,-0.87022 1.32859,0.82112 -0.72188,3.69318 -2.54554,3.56549 -0.74493,-0.0522 -0.69708,-0.28012 0.12874,-0.61334 z m 22.0803,-0.95649 c -2.99534,-1.625 -3.31614,-2.66551 -1.9217,-6.23298 0.7958,-2.03595 0.84591,-2.02759 1.57411,0.26286 0.41369,1.30116 1.33537,2.36575 2.04818,2.36575 1.95832,0 3.72663,2.17288 3.09911,3.80818 -0.68594,1.78751 -1.16677,1.76709 -4.7997,-0.20381 z m -108.03575,-0.38799 c 0,-0.54416 0.46773,-1.27847 1.0394,-1.63177 0.59602,-0.36837 0.77229,0.0537 0.41323,0.98938 -0.69899,1.82154 -1.45263,2.15482 -1.45263,0.64239 z m 129.9228,-0.1747 c 0.48936,-0.79179 -0.0793,-0.93789 -1.77797,-0.45685 -1.92577,0.54536 -2.1364,0.4545 -0.92025,-0.39697 0.86744,-0.60732 1.10402,-1.11871 0.52572,-1.13642 -0.57829,-0.0177 -0.35421,-0.47313 0.49798,-1.01205 1.02186,-0.64621 1.82187,-0.55124 2.34963,0.27897 0.54181,0.85228 0.80544,0.66458 0.81634,-0.58122 0.0109,-1.24711 -0.79921,-1.84003 -2.51407,-1.84003 -1.90301,0 -2.40953,-0.46135 -2.04346,-1.86121 0.31387,-1.20019 -0.61719,-2.67738 -2.62156,-4.15927 -3.60363,-2.66428 -9.32392,-4.45112 -8.14551,-2.5444 0.47007,0.76057 -0.0765,1.20478 -1.48238,1.20478 -1.22485,0 -1.96024,0.43162 -1.63421,0.95915 0.64964,1.05113 -2.10382,0.91052 -3.17655,-0.16222 -0.36623,-0.36621 0.0856,-2.17227 1.00412,-4.01343 0.9185,-1.84117 1.4333,-3.73056 1.144,-4.19865 -0.2893,-0.4681 0.028,-1.19346 0.70506,-1.61192 0.82069,-0.50722 0.9475,-0.30204 0.38041,0.61553 -0.57512,0.93055 -0.44091,1.12314 0.41432,0.59457 0.9213,-0.56939 0.95351,-1.15706 0.11857,-2.16309 -0.84103,-1.0134 -0.78462,-1.54599 0.21181,-1.99958 0.74701,-0.34004 0.2936,-0.35417 -1.00756,-0.0314 -1.40053,0.34743 -2.36574,0.10366 -2.36574,-0.59748 0,-0.65139 -0.59144,-0.844 -1.31431,-0.428 -0.75101,0.43219 -0.94453,0.35187 -0.45151,-0.1874 0.47454,-0.51906 1.53384,-0.94978 2.35399,-0.95716 0.82017,-0.007 1.4965,-0.48656 1.50296,-1.06485 0.006,-0.578293 -1.38964,-1.051443 -3.10244,-1.051443 -2.30442,0 -4.54114,-1.367045 -8.60173,-5.257213 -7.81542,-7.487402 -7.86811,-7.530171 -12.44238,-10.101057 -2.27983,-1.281337 -3.88238,-2.754853 -3.56124,-3.274481 0.32115,-0.519627 1.29812,-0.08846 2.17105,0.958166 1.22788,1.472207 1.20504,1.256824 -0.10094,-0.951531 -2.02634,-3.426451 -2.09461,-4.062788 -0.39881,-3.717042 2.4797,0.505569 3.83949,2.629861 3.21413,5.021205 -0.43595,1.667085 -0.2555,2.174104 0.58819,1.652675 0.66938,-0.413702 1.21707,-0.265964 1.21707,0.328308 0,0.594273 0.68226,0.818689 1.51612,0.498704 0.83388,-0.319987 3.08134,-0.659999 4.99436,-0.755584 1.92036,-0.09595 3.24275,-0.644721 2.9525,-1.225232 -0.28915,-0.578293 -1.11716,-0.985727 -1.84002,-0.905408 -1.73227,0.192472 -1.65887,-0.477402 0.26286,-2.399126 0.96382,-0.963823 1.57716,-1.109856 1.57716,-0.375515 0,1.169479 2.5182,4.205771 3.48812,4.205771 0.90608,0 0.19631,-3.676832 -0.85951,-4.452531 -0.58432,-0.429289 -0.17677,-0.779634 0.91732,-0.788582 1.7166,-0.01404 1.78394,-0.243963 0.52572,-1.795098 -1.24542,-1.535374 -1.22706,-1.64696 0.13412,-0.814825 0.86744,0.530295 2.52346,0.819717 3.68005,0.643161 2.03319,-0.310371 2.03776,-0.272091 0.138,1.15488 -1.68886,1.268554 -1.77331,1.782655 -0.60118,3.65953 1.48693,2.380944 2.9573,2.185769 7.56042,-1.003556 2.39385,-1.658605 2.89147,-1.730316 2.89147,-0.416679 0,0.872689 -0.37729,1.819884 -0.83841,2.104876 -0.71807,0.443793 -0.85556,3.418706 -0.34862,7.543489 0.075,0.61004 1.66325,0.924827 3.55308,0.704199 2.58509,-0.301793 4.002,0.223207 5.81721,2.15541 2.12328,2.260128 2.25452,2.905738 1.13925,5.604457 -1.51981,3.677572 -1.66259,4.166262 -1.83098,6.266452 -0.0767,0.95634 -0.63712,1.32668 -1.34533,0.88899 -0.71588,-0.44244 -0.92986,-0.29063 -0.52155,0.37002 0.75626,1.22365 2.57253,1.18503 4.62692,-0.0984 0.72286,-0.45159 1.3143,-0.38561 1.3143,0.14662 0,0.53223 1.1511,0.74764 2.558,0.4787 1.40689,-0.26895 3.61778,0.25331 4.91308,1.16056 2.06129,1.44379 2.13643,1.73346 0.60236,2.32214 -0.96398,0.36992 -1.44486,1.17068 -1.0686,1.77947 0.42662,0.6903 -0.1073,0.89994 -1.41864,0.55702 -2.0883,-0.5461 -5.46627,2.85329 -3.53839,3.56083 0.50629,0.18581 1.08066,1.99387 1.27638,4.01789 0.19572,2.02403 0.82901,4.02767 1.4073,4.45254 0.59375,0.43622 0.25049,0.77948 -0.78858,0.78858 -1.76119,0.0155 -2.28914,1.10487 -1.91852,3.95901 0.0939,0.72286 -0.58771,1.3143 -1.51463,1.3143 -0.96452,0 -1.37761,-0.49787 -0.96587,-1.16408 z m 1.02507,-8.22894 c -0.38119,-0.61677 -1.15695,-1.1214 -1.72391,-1.1214 -0.56697,0 -0.42075,0.662 0.32491,1.47112 1.50951,1.63795 2.47784,1.39589 1.399,-0.34972 z M 224.6783,97.004331 c -0.72647,-0.292884 -1.00823,-1.03836 -0.62612,-1.656612 0.41407,-0.669996 0.19741,-0.816743 -0.53632,-0.363264 -1.44755,0.894626 -0.57836,2.755343 1.23105,2.635402 0.89629,-0.05942 0.87678,-0.234379 -0.0686,-0.615526 z m 16.14111,29.494799 c -0.53158,-1.38526 -0.94145,-1.45425 -2.23946,-0.37701 -1.32896,1.10294 -1.47669,1.02646 -0.90332,-0.46773 0.39007,-1.01651 1.34374,-1.53371 2.21296,-1.20016 0.84011,0.32238 1.96192,0.58615 2.49292,0.58615 0.53099,0 0.96545,0.70972 0.96545,1.57716 0,2.09741 -1.70897,2.01738 -2.52855,-0.11841 z m -58.45513,-0.40731 c 0,-0.57829 0.50107,-1.05144 1.1135,-1.05144 0.61242,0 0.82107,0.47315 0.46366,1.05144 -0.3574,0.57829 -0.85848,1.05144 -1.1135,1.05144 -0.25501,0 -0.46366,-0.47315 -0.46366,-1.05144 z m -72.54956,-0.97435 c 0,-0.53589 -0.82124,-1.1325 -1.82499,-1.32581 -3.20793,-0.61778 4.65051,-3.69255 8.1316,-3.18163 2.33224,0.3423 3.15638,1.02691 3.15638,2.62204 0,1.18734 -0.31133,1.84746 -0.69184,1.46695 -0.38052,-0.38051 -1.32681,-0.16486 -2.10288,0.47922 -1.0379,0.86139 -1.41105,0.85897 -1.41105,-0.009 0,-0.6491 -0.50108,-1.18019 -1.1135,-1.18019 -0.61242,0 -0.82107,0.47315 -0.46367,1.05145 0.35741,0.57829 -0.32439,1.05144 -1.5151,1.05144 -1.19072,0 -2.16495,-0.43845 -2.16495,-0.97435 z m -55.200742,-1.12854 c 0.357406,-0.57829 0.858478,-1.05144 1.113496,-1.05144 0.255018,0 0.463669,0.47315 0.463669,1.05144 0,0.5783 -0.501074,1.05145 -1.113496,1.05145 -0.612423,0 -0.821074,-0.47315 -0.463669,-1.05145 z m 3.154329,-1.05144 c -0.357406,-0.57829 -0.148754,-1.05144 0.463668,-1.05144 0.612422,0 1.113496,0.47315 1.113496,1.05144 0,0.57829 -0.20865,1.05144 -0.463668,1.05144 -0.255018,0 -0.756091,-0.47315 -1.113496,-1.05144 z m 137.583093,0.25226 c 0.38211,-0.61826 0.10031,-1.36373 -0.62612,-1.65661 -0.79685,-0.32126 -0.59089,-0.56544 0.51917,-0.61552 2.08075,-0.0939 2.46078,1.51212 0.62613,2.64599 -0.71749,0.44344 -0.9298,0.29055 -0.51918,-0.37386 z M 60.396914,121.82399 c 0,-0.61242 0.473149,-0.82107 1.051443,-0.46366 0.578293,0.3574 1.051442,0.85848 1.051442,1.1135 0,0.25501 -0.473149,0.46366 -1.051442,0.46366 -0.578294,0 -1.051443,-0.50107 -1.051443,-1.1135 z m 2.102885,-1.40261 c 0,-0.22728 0.734299,-0.69501 1.631774,-1.03941 0.935706,-0.35905 1.357752,-0.18279 0.98939,0.41323 -0.617468,0.99909 -2.621164,1.47775 -2.621164,0.62618 z m 38.986391,-1.25156 c 0.0505,-1.22487 0.2996,-1.47401 0.63525,-0.63525 0.30373,0.75901 0.26637,1.66588 -0.083,2.01527 -0.34939,0.34939 -0.5979,-0.27163 -0.55224,-1.38002 z m 9.96434,-1.39466 c -0.75994,-1.22961 0.40475,-4.30065 1.63102,-4.30065 1.18643,0 0.75535,2.35125 -0.63822,3.48099 -0.57829,0.4688 0.54549,0.5365 2.49729,0.15042 2.4733,-0.48923 3.33074,-0.34924 2.82942,0.46193 -0.86586,1.40097 -5.48807,1.5526 -6.31951,0.20731 z m -20.123202,-1.00532 c 0.523479,-0.84701 5.870083,-0.38495 5.870083,0.50729 0,0.22173 -1.447372,0.40315 -3.216381,0.40315 -1.769009,0 -2.963176,-0.4097 -2.653702,-0.91044 z m -11.150147,-0.85926 c 0.759011,-0.30373 1.66588,-0.26638 2.015266,0.083 0.349385,0.3494 -0.271623,0.59789 -1.380019,0.55224 -1.224871,-0.0505 -1.474017,-0.2996 -0.635247,-0.63524 z m 8.608688,-1.38463 c 0,-0.57829 0.473149,-1.05144 1.051443,-1.05144 0.578293,0 1.051443,0.47315 1.051443,1.05144 0,0.57829 -0.47315,1.05144 -1.051443,1.05144 -0.578294,0 -1.051443,-0.47315 -1.051443,-1.05144 z m 18.925971,-0.70097 c 0,-0.77105 0.70972,-1.40192 1.57716,-1.40192 0.86744,0 1.57717,0.63087 1.57717,1.40192 0,0.77107 -0.70973,1.40193 -1.57717,1.40193 -0.86744,0 -1.57716,-0.63086 -1.57716,-1.40193 z m -25.244236,-5.07039 c 0.714627,-0.86107 1.726579,-1.30153 2.248781,-0.97879 1.34214,0.82949 0.05869,2.54438 -1.904248,2.54438 -1.336587,0 -1.400987,-0.29264 -0.344533,-1.56559 z m -23.122133,-1.00097 c 0,-0.83331 0.429024,-1.78026 0.953386,-2.10433 0.524363,-0.32408 0.705754,0.35772 0.403091,1.51511 -0.642025,2.4551 -1.356477,2.76545 -1.356477,0.58922 z m 12.237084,-0.062 c -0.332869,-0.86744 -0.197537,-1.57716 0.300736,-1.57716 0.498274,0 1.178297,0.70972 1.511165,1.57716 0.332869,0.86744 0.197538,1.57717 -0.300735,1.57717 -0.498274,0 -1.178298,-0.70973 -1.511166,-1.57717 z m 62.415355,-3.18821 c 0,-0.30778 1.06458,-1.01984 2.36575,-1.58235 1.96846,-0.85099 1.7919,-0.91955 -1.05145,-0.40829 -4.2779,0.76921 -4.36542,-0.0597 -0.23198,-2.19722 4.4385,-2.295236 6.33459,-0.591345 3.82041,3.43316 -0.79093,1.26607 -4.90273,1.89902 -4.90273,0.7547 z m 59.79812,-1.28042 c -1.30786,-1.66765 -1.27067,-1.70484 0.39698,-0.39698 1.75144,1.37357 2.30842,2.237 1.44304,2.237 -0.21833,0 -1.04634,-0.82801 -1.84002,-1.84002 z m -66.10678,-0.0876 c 0,-0.48191 0.68892,-0.8762 1.53091,-0.8762 0.84201,0 1.28723,0.39429 0.98939,0.8762 -0.29783,0.48191 -0.98675,0.8762 -1.53091,0.8762 -0.54416,0 -0.98939,-0.39429 -0.98939,-0.8762 z m -18.92597,-3.37761 c -1.15181,-0.77944 -0.72646,-0.876991 1.57717,-0.361706 3.86608,0.864776 4.70532,1.466576 2.01527,1.445086 -1.1084,-0.009 -2.725,-0.49637 -3.59244,-1.08338 z m 1.57717,-3.178283 c -2.8943,-0.670412 -2.78595,-0.7409 1.3143,-0.855046 4.45699,-0.124077 5.64481,0.30667 3.15433,1.143873 -0.72287,0.243 -2.73375,0.113027 -4.46863,-0.288827 z m 89.30649,-2.293751 -3.08818,-3.417189 3.41718,3.088183 c 1.87946,1.698501 3.41719,3.236236 3.41719,3.417189 0,0.812304 -0.86757,0.09711 -3.74619,-3.088183 z m -101.788,1.534045 c -0.282711,-0.457437 1.2271,-0.65972 3.35514,-0.449518 5.81886,0.574771 6.51166,1.105038 1.56546,1.198211 -2.42362,0.04565 -4.637889,-0.291258 -4.9206,-0.748693 z m 1.528977,-4.80881 c 0.240956,-0.210815 1.620973,-0.998003 3.066713,-1.749307 2.40443,-1.249513 2.50554,-1.216825 1.18555,0.383298 -0.79367,0.962119 -2.17369,1.749307 -3.0667,1.749307 -0.893016,0 -1.426518,-0.172484 -1.185563,-0.383298 z M 71.437063,89.291323 c -1.877702,-0.806876 -1.799903,-0.911554 0.726529,-0.977542 1.556179,-0.04065 3.121837,0.399249 3.479242,0.977542 0.775793,1.255259 -1.284626,1.255259 -4.205771,0 z m 16.571816,-1.002698 c -0.947145,-1.516621 -0.970817,-2.246975 -0.09047,-2.791063 0.733659,-0.453426 0.901984,-0.267075 0.437546,0.484402 -0.422506,0.68363 -0.03112,1.499035 0.888987,1.852114 0.904096,0.346933 1.643809,1.053316 1.643809,1.569738 0,1.621938 -1.543868,1.024097 -2.879876,-1.115191 z m 2.879876,-4.517222 c 0,-0.94384 0.504628,-2.027951 1.121396,-2.409135 1.803235,-1.114459 1.980172,-0.11644 0.369801,2.085875 -1.247114,1.705529 -1.491197,1.758442 -1.491197,0.32326 z m 52.681055,-3.453929 c -3.13203,-3.567191 -4.40745,-6.577609 -2.2118,-5.220628 0.57829,0.357406 1.05144,1.249151 1.05144,1.981658 0,1.494415 3.89554,5.330919 6.30866,6.213047 1.30628,0.47752 1.27985,0.590799 -0.15394,0.65955 -0.95211,0.04565 -3.19957,-1.589477 -4.99436,-3.633627 z m 9.11391,2.568451 c 0.70034,-0.920649 0.9226,-2.061093 0.49389,-2.53432 -0.42869,-0.473226 -0.22842,-0.545031 0.44505,-0.159567 0.67347,0.385465 1.43671,0.106461 1.69608,-0.620009 0.25936,-0.72647 0.77105,-1.046716 1.13709,-0.711659 0.36604,0.335058 -0.61944,1.754506 -2.18997,3.154328 -1.57053,1.399824 -2.2825,1.791875 -1.58214,0.871227 z m 42.91134,-1.630913 c -0.36463,-0.950211 -0.44673,-1.943888 -0.18245,-2.208173 0.83561,-0.835617 2.72331,0.842329 2.72331,2.420717 0,2.062431 -1.72319,1.918287 -2.54086,-0.212544 z m -36.36252,-1.952395 c 1.3582,-1.445734 2.70602,-2.628607 2.99517,-2.628607 0.28914,0 -0.58553,1.182873 -1.94373,2.628607 -1.3582,1.445734 -2.70603,2.628607 -2.99517,2.628607 -0.28915,0 0.58552,-1.182873 1.94373,-2.628607 z m -14.85433,-2.365746 c -1.30785,-1.667647 -1.27066,-1.704837 0.39699,-0.396977 1.75144,1.373572 2.30842,2.237002 1.44304,2.237002 -0.21833,0 -1.04634,-0.828011 -1.84003,-1.840025 z m 68.74781,-0.262861 c 0.54221,-1.988742 4.98731,-2.329355 4.98731,-0.382161 0,1.796769 -1.74594,1.881409 -2.46094,0.119301 -0.40264,-0.992306 -0.83012,-0.927907 -1.74483,0.26286 -1.07692,1.401924 -1.16376,1.401924 -0.78154,0 z m -86.73167,-1.228558 c 0.61099,-0.610995 1.73153,-0.904024 2.49009,-0.651172 0.78748,0.26249 0.31086,0.739102 -1.1109,1.110902 -1.74892,0.45735 -2.15944,0.320512 -1.37919,-0.45973 z m 54.91848,0.177116 c -0.94765,-0.612424 -1.07734,-1.025668 -0.32491,-1.035342 0.68873,-0.0088 1.54467,0.457048 1.90208,1.035342 0.80677,1.305392 0.44278,1.305392 -1.57717,0 z m 5.6787,-0.168663 c -0.90613,-1.466156 -0.25507,-1.684137 2.73285,-0.914975 2.61613,0.673458 2.61738,0.679656 0.26391,1.307164 -1.30059,0.346774 -2.64913,0.170288 -2.99676,-0.392189 z m -28.9483,-1.242383 c 0.64408,-0.776075 0.8203,-1.798232 0.3916,-2.271459 -0.4287,-0.473226 -0.16505,-0.505857 0.5859,-0.07251 1.05194,0.607041 1.08274,1.12845 0.13411,2.271459 -0.67718,0.815956 -1.46781,1.483557 -1.75696,1.483557 -0.28914,0 0.001,-0.634971 0.64535,-1.411047 z m 13.60947,0.69279 c 0.75901,-0.303731 1.66588,-0.266376 2.01527,0.08301 0.34939,0.349386 -0.27163,0.597893 -1.38002,0.552238 -1.22487,-0.05045 -1.47401,-0.299599 -0.63525,-0.635248 z m -39.75768,-0.746416 c 0,-0.227275 0.7343,-0.695005 1.63178,-1.039399 0.9357,-0.359064 1.35775,-0.182793 0.98939,0.413228 -0.61747,0.999085 -2.62117,1.477748 -2.62117,0.626171 z m 48.36637,-2.127758 c 0,-0.819249 -0.59143,-1.757204 -1.3143,-2.084345 -0.72287,-0.327139 -0.4127,-0.484856 0.68924,-0.35048 1.96949,0.240165 3.45604,3.924369 1.58347,3.924369 -0.52713,0 -0.95841,-0.670295 -0.95841,-1.489544 z m 9.26584,0.771289 c 0.75901,-0.303731 1.66588,-0.266377 2.01527,0.08301 0.34938,0.349386 -0.27163,0.597894 -1.38002,0.552239 -1.22488,-0.05045 -1.47402,-0.299599 -0.63525,-0.635247 z m -17.22051,-2.547474 c -0.47334,-0.765884 -0.33829,-0.990859 0.34231,-0.570226 0.61826,0.382101 1.33631,0.100339 1.59568,-0.626125 0.25936,-0.72647 0.78436,-1.033417 1.16665,-0.682105 0.38229,0.351314 0.0161,1.2023 -0.81389,1.891082 -1.16829,0.969599 -1.68546,0.966748 -2.29075,-0.01263 z m 14.99041,0.157442 c -1.33229,-0.488352 -1.34572,-0.769546 -0.092,-1.927521 1.2094,-1.117062 1.46782,-1.059858 1.46782,0.324913 0,0.92437 0.37746,1.447394 0.83879,1.162276 0.46133,-0.285119 1.51995,-0.09742 2.35249,0.417124 1.15433,0.713416 0.97704,0.895096 -0.74676,0.765246 -1.24325,-0.09365 -2.96239,-0.427568 -3.82032,-0.742038 z m 18.19889,-1.623205 c 0,-2.102886 -0.52572,-2.628607 -2.62861,-2.628607 -1.63558,0 -2.62861,-0.595818 -2.62861,-1.577164 0,-0.867441 0.82802,-1.569919 1.84003,-1.561064 1.57248,0.01376 1.6107,0.1643 0.26286,1.035342 -1.229,0.794244 -0.93887,1.022797 1.3143,1.035342 2.50821,0.01396 2.89147,0.434209 2.89147,3.170429 0,1.734881 -0.23657,3.154329 -0.52572,3.154329 -0.28915,0 -0.52572,-1.182874 -0.52572,-2.628607 z m -62.56085,0.525721 c -0.3574,-0.578293 -0.14876,-1.051443 0.46367,-1.051443 0.61242,0 1.1135,0.47315 1.1135,1.051443 0,0.578294 -0.20865,1.051443 -0.46367,1.051443 -0.25502,0 -0.75609,-0.473149 -1.1135,-1.051443 z m 56.0174,-1.230069 c -0.24965,-0.748968 -1.71804,-1.256871 -3.26384,-1.128936 -3.74216,0.30971 -3.5484,-0.332211 0.52936,-1.753724 1.83666,-0.640263 3.02364,-0.84837 2.63773,-0.46246 -0.38591,0.38591 -0.16519,1.348059 0.4905,2.13811 0.65568,0.79005 0.93743,1.691167 0.62612,2.002482 -0.31132,0.311315 -0.77025,-0.04664 -1.01987,-0.795472 z m -18.1619,-0.867069 c -0.30997,-0.501536 -0.0828,-1.209076 0.50502,-1.572312 1.51141,-0.934109 1.32971,-2.691432 -0.24572,-2.376346 -1.72022,0.344045 -1.71261,-2.583459 0.008,-3.157066 0.7962,-0.265403 1.58077,0.85042 1.97145,2.803847 0.35672,1.784578 1.06275,3.244687 1.56875,3.244687 0.50601,0 0.92002,0.372461 0.92002,0.827691 0,1.150511 -4.0376,1.3465 -4.72794,0.229499 z M 166.39549,66.49277 c 0.75901,-0.303731 1.66587,-0.266376 2.01527,0.08301 0.34938,0.349386 -0.27163,0.597893 -1.38002,0.552238 -1.22488,-0.05045 -1.47402,-0.299599 -0.63525,-0.635248 z m 11.06205,-0.90516 c 0,-0.842002 0.39429,-1.530913 0.87621,-1.530913 0.48191,0 0.8762,0.445225 0.8762,0.98939 0,0.544165 -0.39429,1.233075 -0.8762,1.530912 -0.48192,0.297838 -0.87621,-0.147387 -0.87621,-0.989389 z m -24.05117,-0.549423 c -0.38118,-0.616768 -0.46756,-1.346899 -0.19195,-1.622511 0.27561,-0.275614 0.78129,0.229015 1.12373,1.121396 0.71097,1.852755 0.10504,2.17865 -0.93178,0.501115 z m 32.11224,-0.98149 c 0,-0.578293 0.47315,-1.051442 1.05144,-1.051442 0.57829,0 1.05144,0.473149 1.05144,1.051442 0,0.578294 -0.47315,1.051443 -1.05144,1.051443 -0.57829,0 -1.05144,-0.473149 -1.05144,-1.051443 z m -36.8005,-0.413228 c 0,-0.227276 0.70972,-0.685576 1.57716,-1.018443 0.86744,-0.332869 1.57717,-0.146916 1.57717,0.413228 0,0.560144 -0.70973,1.018443 -1.57717,1.018443 -0.86744,0 -1.57716,-0.185953 -1.57716,-0.413228 z m 23.81583,-2.181829 c -0.42745,-1.113927 -0.24571,-1.46389 0.51581,-0.993245 0.71427,0.441452 0.96749,0.153359 0.6451,-0.733973 -0.29188,-0.803363 -1.18128,-1.308576 -1.97643,-1.122696 -1.15812,0.270729 -1.18427,0.07201 -0.13143,-0.99887 1.83301,-1.864434 1.64003,-3.078138 -0.36698,-2.307978 -1.46949,0.5639 -1.5049,0.362762 -0.28113,-1.596821 l 1.40014,-2.241987 0.82944,2.242195 c 0.4562,1.233207 0.58572,2.485924 0.28783,2.783816 -0.29789,0.297892 0.40167,1.202326 1.55458,2.009854 2.16014,1.513026 3.01498,4.143824 0.9272,2.853503 -0.64296,-0.397365 -1.5234,-0.149042 -1.95657,0.551826 -0.57406,0.928868 -0.96647,0.808067 -1.44756,-0.445624 z m 16.83996,-0.20879 c -0.38553,-0.385529 -0.70097,-1.189882 -0.70097,-1.787453 0,-0.658838 0.48973,-0.596759 1.24421,0.157716 0.68432,0.684315 0.99975,1.488669 0.70096,1.787453 -0.29879,0.298785 -0.85868,0.227813 -1.2442,-0.157716 z m -37.78185,-1.532395 c 0.71323,-0.718575 1.56164,-1.041634 1.88537,-0.717908 0.32373,0.323725 -0.25982,0.911651 -1.29677,1.3065 -1.49852,0.570603 -1.61929,0.44983 -0.5886,-0.588592 z m 33.93556,0.656193 c -1.38274,-5.241461 -0.0885,-8.030507 2.66566,-5.74471 1.96057,1.62713 1.98481,3.22421 0.0376,2.476994 -0.96789,-0.371412 -1.65757,0.287775 -1.9597,1.873024 -0.25641,1.345374 -0.59102,1.972985 -0.74357,1.394692 z m -60.1847,-1.75428 c 0.61099,-0.610995 1.73153,-0.904024 2.49009,-0.651172 0.78747,0.26249 0.31085,0.739102 -1.11091,1.110902 -1.74891,0.45735 -2.15943,0.320512 -1.37918,-0.45973 z m -6.47201,-1.066719 c 0.30366,-0.491343 0.99257,-0.621137 1.53091,-0.288428 1.37568,0.850223 1.22079,1.181782 -0.55213,1.181782 -0.842,0 -1.28245,-0.40201 -0.97878,-0.893354 z m 37.1863,-3.224797 c -1.03462,-2.134983 -1.00128,-2.186264 0.34178,-0.525721 0.81852,1.012013 2.10852,1.840024 2.86668,1.840024 0.75815,0 2.36201,-0.828011 3.56414,-1.840024 2.18346,-1.838168 2.18365,-1.837637 0.18268,0.525721 -1.10164,1.30116 -2.8593,2.365746 -3.90591,2.365746 -1.04661,0 -2.41883,-1.064586 -3.04937,-2.365746 z m -27.77463,-0.480375 c -0.5706,-1.498514 -0.44983,-1.619287 0.5886,-0.588592 0.71858,0.713229 1.04163,1.561646 0.7179,1.885371 -0.32373,0.323727 -0.91165,-0.259824 -1.3065,-1.296779 z m 20.15644,-0.04535 c 0.64378,-1.678535 1.14175,-1.653294 2.94428,0.149233 1.25042,1.250421 1.10591,1.441807 -0.99241,1.314303 -1.49454,-0.09081 -2.25863,-0.663733 -1.95187,-1.463536 z m -3.92667,-0.200808 c 0,-0.544165 0.46773,-1.278463 1.0394,-1.631774 0.59602,-0.368361 0.77229,0.05369 0.41323,0.98939 -0.69899,1.821537 -1.45263,2.154813 -1.45263,0.642384 z m 6.97986,-1.639217 c -0.33286,-0.867441 -0.1469,-1.577164 0.41323,-1.577164 0.56015,0 1.01845,0.709723 1.01845,1.577164 0,0.86744 -0.18596,1.577164 -0.41323,1.577164 -0.22728,0 -0.68557,-0.709724 -1.01845,-1.577164 z m 14.82003,0.164804 c 0.42565,-0.668935 0.78118,-1.53168 0.79003,-1.917209 0.0416,-1.814743 1.3856,-1.783837 1.86329,0.04285 0.36842,1.408816 -0.0855,2.216704 -1.44507,2.572254 -1.32505,0.346506 -1.72562,0.115137 -1.20825,-0.697894 z m -31.397,-1.479108 c -1.30786,-1.667647 -1.27067,-1.704836 0.39698,-0.396977 1.75144,1.373572 2.30842,2.237002 1.44304,2.237002 -0.21833,0 -1.04634,-0.828011 -1.84002,-1.840025 z m 26.42019,0.391605 c 0,-0.218338 0.82801,-1.04635 1.84003,-1.840025 1.66765,-1.307859 1.70484,-1.27067 0.39698,0.396978 -1.37357,1.751438 -2.23701,2.30842 -2.23701,1.443047 z m -14.12688,-2.014115 c 0.39485,-1.036955 0.98277,-1.620506 1.3065,-1.296779 0.32373,0.323725 6.8e-4,1.172142 -0.7179,1.885371 -1.03843,1.030695 -1.1592,0.909922 -0.5886,-0.588592 z"
           id="path8510" />
        <path
           style="fill:#391a12;stroke-width:1.05144"
           d="m 144.87124,239.9105 c -1.59635,-2.1686 -3.04856,-4.14874 -3.22714,-4.40031 -0.17858,-0.25158 -2.19459,1.36849 -4.48001,3.60015 -3.79302,3.70378 -4.39198,3.94972 -6.86971,2.8208 -1.53051,-0.69735 -3.42664,-2.95545 -4.34743,-5.17733 -0.89816,-2.1673 -1.78273,-4.10055 -1.96571,-4.29611 -0.18297,-0.19556 -2.5066,0.91846 -5.16364,2.47558 -4.54594,2.6641 -4.98109,2.73278 -7.37523,1.16408 -1.80946,-1.18561 -2.75004,-3.03933 -3.25678,-6.41849 -0.39189,-2.61329 -0.83759,-4.75143 -0.99045,-4.75143 -0.15286,0 -1.97654,0.70972 -4.05262,1.57716 -7.672623,3.20583 -11.202323,1.17055 -11.202323,-6.45941 v -4.73205 l -5.575187,0.69657 c -7.376044,0.92158 -8.63788,-0.48034 -7.690171,-8.54387 l 0.688951,-5.86189 -4.087412,0.69056 c -3.416421,0.5772 -4.582972,0.2643 -7.106162,-1.90605 l -3.018749,-2.59663 2.233343,-5.28617 2.233342,-5.28617 -4.347758,-0.71218 c -8.128391,-1.33148 -10.065409,-5.49915 -5.399202,-11.61687 1.445734,-1.89545 2.628607,-3.67772 2.628607,-3.96061 0,-0.28288 -1.660347,-1.0623 -3.68966,-1.73203 -7.75528,-2.55948 -8.882791,-7.05258 -3.161374,-12.598 l 3.663395,-3.5507 -4.189116,-2.49808 c -3.584448,-2.13751 -4.189115,-3.01853 -4.189115,-6.10363 0,-3.05337 0.656931,-4.04027 4.289641,-6.44428 l 4.289641,-2.83876 -3.822075,-3.6059 c -5.306198,-5.0061 -4.856178,-8.32887 1.551449,-11.45526 5.122119,-2.49917 5.286586,-3.14907 1.941832,-7.67309 -4.000712,-5.41125 -0.569828,-10.52146 7.063881,-10.52146 2.998587,0 3.188488,-1.39372 0.927292,-6.805519 -1.479839,-3.541753 -1.477568,-4.145018 0.02424,-6.437063 1.383421,-2.111364 2.522903,-2.529063 6.899269,-2.529063 h 5.24216 l -0.666675,-5.672358 c -0.612368,-5.210293 -0.458619,-5.808682 1.887418,-7.345864 2.004927,-1.313679 3.331696,-1.450491 6.170623,-0.636298 5.207196,1.493404 5.207577,1.493133 5.207577,-3.694285 0,-3.329569 0.623078,-5.35457 2.102886,-6.834378 2.519887,-2.519887 3.173156,-2.562561 8.048002,-0.525722 4.59458,1.91974 5.61902,1.967599 5.62662,0.262861 0.003,-0.722867 0.4976,-3.084924 1.09861,-5.249018 1.49669,-5.389286 4.87621,-6.194852 10.46706,-2.495004 2.28527,1.512318 4.36505,2.749669 4.62175,2.749669 0.2567,0 1.03823,-1.77431 1.73673,-3.94291 1.7245,-5.353926 2.86874,-6.571517 6.17566,-6.571517 1.83847,0 4.05277,1.272589 6.36467,3.657872 l 3.54536,3.657873 2.36367,-3.916458 c 3.98513,-6.603085 8.8735,-6.458262 13.10487,0.388243 l 2.35726,3.81413 3.58586,-3.80083 c 5.42466,-5.749851 10.58445,-4.595152 12.42526,2.780621 1.01232,4.056183 1.78817,4.226116 5.79572,1.269437 6.19287,-4.568953 10.20666,-2.973167 11.46616,4.558664 0.72116,4.312551 2.10017,4.687214 8.14837,2.213836 4.94132,-2.020723 7.67564,0.693731 7.67564,7.61987 0,2.801839 0.35486,5.082966 0.78858,5.069169 0.43371,-0.0138 2.65028,-0.456826 4.92568,-0.98451 7.149,-1.657913 9.86108,1.456516 8.09872,9.300198 l -0.97215,4.326709 h 5.07035 c 7.95665,0 9.98878,3.240688 6.8071,10.855493 -1.74827,4.184212 -1.62773,4.347922 3.94148,5.352912 2.52257,0.45521 4.56525,1.65062 5.65035,3.30669 1.61165,2.45969 1.55689,2.80921 -1.0594,6.7627 -1.51738,2.29293 -2.75888,4.57736 -2.75888,5.07651 0,0.49916 1.88488,1.47228 4.18861,2.1625 3.86695,1.15857 6.32582,3.633 6.32582,6.36587 0,0.61464 -1.68767,2.98558 -3.75037,5.26875 l -3.75039,4.15122 4.27611,2.69938 c 3.40512,2.14956 4.27609,3.32363 4.27609,5.7642 0,2.93879 -1.57446,4.76572 -6.98334,8.10313 -1.8189,1.1223 -1.66879,1.50163 2.17196,5.48892 3.73725,3.87985 4.01175,4.53377 2.91428,6.94244 -0.71105,1.56058 -2.95852,3.35812 -5.44017,4.35109 -2.32573,0.93056 -4.2286,2.04991 -4.2286,2.48743 0,0.43751 1.00544,2.07369 2.23431,3.63595 2.66726,3.39087 2.90067,7.83203 0.50373,9.58471 -0.95182,0.69599 -3.65896,1.5738 -6.01586,1.95068 -3.53629,0.56547 -4.15037,1.00183 -3.51346,2.49661 4.33378,10.17096 2.83994,13.45715 -5.94368,13.07496 -4.53216,-0.1972 -5.26837,0.0272 -4.72602,1.44057 0.35334,0.92078 0.92546,3.44411 1.27139,5.6074 1.04024,6.50534 -2.80539,8.78995 -10.892,6.47074 l -3.41025,-0.97805 v 5.49926 c 0,3.02458 -0.56778,6.06702 -1.26173,6.76097 -1.74597,1.74597 -5.59296,1.5771 -9.44444,-0.41458 -3.78327,-1.95641 -4.48637,-1.31588 -5.49766,5.00837 -0.50722,3.17196 -1.28976,4.33502 -3.47605,5.16624 -2.40723,0.91523 -3.47609,0.61129 -7.28043,-2.07026 l -4.45898,-3.14297 -1.80095,4.71572 c -1.67585,4.38815 -3.98735,6.71941 -6.66244,6.71941 -0.61464,0 -2.98449,-1.68668 -5.26633,-3.74818 l -4.14879,-3.74818 -2.82833,4.2739 c -3.82759,5.78387 -7.56096,5.88992 -11.65298,0.331 z m 25.87998,-29.93806 7.73196,-2.42154 1.83499,-7.80887 c 2.22877,-9.48463 3.85067,-11.03031 10.45765,-9.96619 7.33034,1.18062 11.85546,1.09601 12.30908,-0.23016 0.29464,-0.86135 -3.67076,-1.31568 -13.76568,-1.57716 -14.10483,-0.36537 -14.197,-0.38391 -17.49548,-3.52163 -4.5378,-4.31662 -5.7633,-6.98485 -7.96985,-17.3525 -1.43113,-6.72432 -2.60768,-9.64862 -4.75762,-11.82503 -2.72072,-2.75422 -3.33428,-2.89147 -12.92589,-2.89147 h -10.06959 v 4.68897 4.68897 l 8.67441,0.30538 8.6744,0.30538 0.29517,12.23236 0.29517,12.23236 -2.64425,0.66366 c -1.45433,0.36502 -13.65247,0.62207 -27.10696,0.57121 -30.680485,-0.11595 -27.892427,-0.28973 -25.983247,1.61945 1.314801,1.3148 2.579857,1.36878 8.084927,0.34501 7.57946,-1.40955 11.45592,-0.28173 12.30706,3.58062 3.18481,14.45209 2.70568,13.61274 8.99178,15.75207 13.54026,4.60812 29.56927,4.83485 43.06197,0.60911 z m -60.52885,-4.23383 c 2.47443,-3.92921 -3.64406,-8.12901 -6.38394,-4.38201 -1.78381,2.4395 -1.74366,3.08336 0.32098,5.148 2.04936,2.04936 4.48366,1.74181 6.06296,-0.76599 z m 85.60038,1.10401 c 2.94719,-2.94719 0.0801,-7.91765 -3.8479,-6.67093 -2.64993,0.84105 -3.5841,3.33786 -2.20971,5.90594 1.22341,2.28596 4.16514,2.65745 6.05761,0.76499 z M 93.855326,206.08191 c 3.17481,-0.0732 3.342085,-0.23065 1.840025,-1.73271 -0.908748,-0.90874 -1.652268,-2.09161 -1.652268,-2.62861 0,-1.70302 -4.441933,-1.05239 -5.896443,0.86369 -1.961722,2.58425 -1.793052,4.34561 0.376368,3.93032 1.012014,-0.19373 3.411557,-0.38844 5.332318,-0.43269 z m -9.275228,-10.01477 c 2.602321,-0.81998 3.903481,-1.52252 2.891468,-1.5612 -2.55408,-0.0977 -2.312784,-2.93292 0.320739,-3.76876 1.188421,-0.37719 1.965608,-1.23709 1.727084,-1.91088 -0.721853,-2.03912 5.51123,-10.02284 7.907884,-10.12891 0.415571,-0.0184 0.483944,0.67444 0.151943,1.53963 -0.485213,1.26444 0.03645,1.44504 2.658994,0.92053 2.08332,-0.41666 3.89547,-0.13014 5.0134,0.79269 1.18894,0.98144 1.87637,1.07248 2.14218,0.28372 0.4223,-1.25314 5.57526,-0.68476 5.57526,0.61496 0,0.43203 1.8926,0.78549 4.20577,0.78549 2.31318,0 4.20578,-0.46656 4.20578,-1.03681 0,-0.63925 0.51646,-0.60817 1.34696,0.0811 2.03316,1.68737 6.50423,2.39869 18.25498,2.90426 l 10.66469,0.45884 0.1457,-11.06004 c 0.0801,-6.08303 -0.22406,-10.99905 -0.67598,-10.9245 -0.45193,0.0745 -4.48858,0.0795 -8.97036,0.011 l -8.14868,-0.12451 v -6.83438 -6.83438 h 10.44371 c 8.77815,0 11.1711,0.37729 15.00472,2.36575 2.50855,1.30116 4.57208,3.07547 4.58562,3.94291 0.0509,3.26208 2.88493,16.43326 4.26659,19.82924 0.98336,2.41701 1.93262,3.34168 3.00723,2.92931 0.86366,-0.33141 1.50084,-0.26474 1.41598,0.14817 -0.3227,1.56992 1.5146,4.43079 2.84553,4.43079 0.76426,0 2.17602,-0.78646 3.13725,-1.74769 1.47731,-1.47731 1.8931,-1.51797 2.68762,-0.26286 0.68823,1.08724 0.94422,0.72654 0.95602,-1.34702 0.009,-1.70502 0.95745,-3.52653 2.38184,-4.57768 1.58449,-1.16929 1.93171,-1.91237 1.05145,-2.25013 -2.85825,-1.09669 0.0449,-7.5482 3.3909,-7.53536 0.56384,0.002 1.11979,-0.51653 1.23544,-1.15266 0.11566,-0.63612 -0.0213,-0.69819 -0.3045,-0.13792 -1.27334,2.51964 -7.22301,-2.17062 -6.26141,-4.93602 0.58563,-1.68418 0.52861,-1.68227 -0.80238,0.027 -0.78803,1.01201 -2.03001,1.84002 -2.75993,1.84002 -1.0278,0 -1.04739,-0.33706 -0.0869,-1.49444 1.01263,-1.22014 0.86505,-1.39632 -0.80404,-0.95985 -2.49917,0.65355 -3.93999,-1.33044 -2.35402,-3.24144 1.19985,-1.44571 0.4971,-4.81869 -1.00394,-4.81869 -0.46822,0 -1.08997,0.59143 -1.38166,1.3143 -0.32254,0.79934 -0.56285,0.60784 -0.61333,-0.48873 -0.0456,-0.99167 -0.9683,-2.27682 -2.05031,-2.85589 -1.39249,-0.74524 -1.94486,-2.16325 -1.89054,-4.85322 0.064,-3.16913 -0.59987,-4.3684 -3.99697,-7.22042 -2.61238,-2.19324 -3.45949,-3.42009 -2.36148,-3.42009 0.94174,0 1.46855,0.39429 1.17071,0.87621 -0.91896,1.4869 2.40528,0.96554 3.68646,-0.57818 0.92842,-1.11868 0.84916,-1.5917 -0.34344,-2.04934 -1.09365,-0.41967 -1.38605,-0.0687 -0.99244,1.19152 0.45376,1.4527 0.24731,1.40515 -1.10499,-0.25451 -0.91465,-1.12255 -1.663,-1.54201 -1.663,-0.93215 0,0.60987 -1.06459,1.02527 -2.36575,0.92311 -3.02167,-0.23722 -6.2908,1.32868 -5.48747,2.6285 0.33947,0.54928 0.0655,0.99869 -0.60876,0.99869 -0.67429,0 -0.97514,-0.65372 -0.66854,-1.4527 0.62816,-1.63697 -4.01614,-2.71267 -11.89834,-2.75586 -9.02154,-0.0494 -9.46298,-0.42289 -9.46298,-8.00566 v -6.71175 l 8.6744,-0.0724 c 4.77092,-0.0399 10.09385,-0.30629 11.82873,-0.59211 4.78824,-0.78884 8.93727,-0.44467 8.93727,0.74137 0,0.42776 0.90068,0.54222 2.00152,0.25435 2.01193,-0.52613 3.68347,2.17877 3.02913,4.90172 -0.16454,0.68469 0.77521,1.98077 2.08834,2.88019 2.08446,1.42773 2.31035,1.43422 1.7796,0.0511 -0.35566,-0.92684 0.12018,-1.86357 1.14675,-2.2575 1.31494,-0.50459 1.58966,-0.24334 1.09625,1.04248 -0.49654,1.29396 -0.17429,1.5892 1.31075,1.20085 1.08305,-0.28322 2.697,-0.10763 3.58658,0.39019 1.10756,0.61983 1.81586,0.38792 2.24703,-0.7357 0.43573,-1.13548 1.32792,-1.41923 2.89678,-0.9213 1.80369,0.57247 2.13388,0.37236 1.61534,-0.97894 -0.46403,-1.20923 -0.0555,-1.6985 1.41811,-1.6985 1.13843,0 2.06989,-0.44459 2.06989,-0.98797 0,-0.54339 1.77431,-1.13482 3.94291,-1.3143 3.59024,-0.29715 3.94872,-0.60847 4.0079,-3.48067 0.0713,-3.45856 -1.60733,-5.34884 -2.98523,-3.36169 -0.56089,0.80891 -0.73639,0.50722 -0.49103,-0.84408 0.21,-1.15659 1.02526,-1.9579 1.81167,-1.7807 1.17208,0.26411 1.18673,0.0293 0.0813,-1.30272 -0.74171,-0.89371 -1.8412,-1.32045 -2.44333,-0.94832 -0.63834,0.39452 -0.7799,0.16716 -0.33954,-0.54536 0.88783,-1.43654 -1.90196,-4.60329 -3.10232,-3.52151 -0.4507,0.40618 -0.52218,0.21678 -0.15884,-0.4209 0.38815,-0.68122 -1.81902,-2.41585 -5.3515,-4.205769 l -6.01211,-3.04634 -40.28607,-0.320555 c -24.53191,-0.1952 -40.156546,-0.707119 -39.954834,-1.309063 0.670511,-2.000928 12.098254,-10.581931 18.744844,-14.075358 3.76624,-1.979529 9.85272,-4.434608 13.52552,-5.455736 l 6.67779,-1.856595 4.70654,5.462859 c 6.24011,7.242871 8.61001,7.265246 15.59688,0.14725 5.8179,-5.927088 6.70865,-6.032772 17.835,-2.116041 4.58259,1.613175 18.97386,9.680543 20.53358,11.510579 0.3059,0.358909 3.04456,3.018307 6.08592,5.909775 4.08185,3.880664 6.34519,5.257213 8.64397,5.257213 1.7128,0 2.9959,0.47315 2.85133,1.051441 -0.14457,0.5783 -0.8209,1.05748 -1.50295,1.06486 -0.68205,0.007 -1.62835,0.43809 -2.10289,0.95715 -0.49302,0.53927 -0.2995,0.61959 0.45151,0.1874 0.72287,-0.41599 1.31431,-0.22339 1.31431,0.428 0,0.70114 0.96521,0.94491 2.36574,0.59748 1.30116,-0.32278 1.75457,-0.30865 1.00756,0.0314 -0.99643,0.45359 -1.05284,0.98617 -0.21181,1.99957 0.83494,1.00604 0.80273,1.5937 -0.11857,2.16309 -0.85523,0.52857 -0.98944,0.33598 -0.41432,-0.59457 0.56709,-0.91757 0.44028,-1.12275 -0.38041,-0.61553 -0.67708,0.41846 -0.99436,1.14382 -0.70506,1.61192 0.2893,0.46809 -0.2255,2.35748 -1.144,4.19865 -0.91848,1.84116 -1.37035,3.64722 -1.00412,4.01343 1.07273,1.07274 3.82619,1.21335 3.17655,0.16222 -0.32603,-0.52753 0.40936,-0.95915 1.63421,-0.95915 1.40588,0 1.95245,-0.44421 1.48238,-1.20478 -1.17841,-1.90672 4.54188,-0.11988 8.14551,2.5444 2.00437,1.48189 2.93543,2.95908 2.62156,4.15927 -0.36607,1.39986 0.14045,1.86121 2.04346,1.86121 1.71486,0 2.52499,0.59292 2.51407,1.84003 -0.0109,1.2458 -0.27453,1.4335 -0.81634,0.58122 -0.52776,-0.83021 -1.32777,-0.92518 -2.34963,-0.27897 -0.85219,0.53892 -1.07627,0.99434 -0.49798,1.01205 0.5783,0.0177 0.34172,0.5291 -0.52572,1.13642 -1.21615,0.85147 -1.00552,0.94233 0.92025,0.39697 1.69869,-0.48104 2.26733,-0.33494 1.77797,0.45685 -0.41174,0.66622 0.001,1.16409 0.96587,1.16409 0.92692,0 1.60851,-0.59144 1.51463,-1.31431 -0.37062,-2.85414 0.15733,-3.9436 1.91852,-3.959 1.03907,-0.009 1.38233,-0.35236 0.78858,-0.78859 -0.57829,-0.42486 -1.21158,-2.4285 -1.4073,-4.45253 -0.19572,-2.02403 -0.77009,-3.83208 -1.27638,-4.01789 -1.92788,-0.70755 1.45009,-4.10694 3.53839,-3.56083 1.31134,0.34292 1.84526,0.13328 1.41864,-0.55702 -0.37626,-0.60879 0.10462,-1.40955 1.0686,-1.77947 1.53407,-0.58868 1.45893,-0.87835 -0.60236,-2.32214 -1.2953,-0.90726 -3.50619,-1.42951 -4.91308,-1.16057 -1.4069,0.26895 -2.558,0.0535 -2.558,-0.47869 0,-0.53223 -0.59144,-0.59821 -1.3143,-0.14663 -2.05439,1.28341 -3.87066,1.32203 -4.62692,0.0984 -0.40831,-0.66066 -0.19433,-0.81246 0.52155,-0.37002 0.70821,0.43769 1.26865,0.0673 1.34533,-0.88899 0.16839,-2.10019 0.31117,-2.58888 1.83098,-6.266454 1.11015,-2.686316 0.98373,-3.344652 -1.05997,-5.520075 -1.50328,-1.600157 -3.51226,-2.469998 -5.70473,-2.469998 -4.20322,0 -4.69339,-1.216311 -3.27688,-8.131239 0.61783,-3.016055 0.79558,-5.811486 0.39499,-6.212068 -0.40058,-0.400583 -3.3382,-0.255277 -6.52805,0.322904 -6.63422,1.202497 -7.82904,0.479308 -7.13675,-4.319671 1.10087,-7.63136 -1.27357,-9.369408 -8.61147,-6.303437 -5.23821,2.188663 -6.44389,1.509882 -7.28538,-4.101564 -1.06925,-7.130324 -2.72733,-7.876567 -8.419,-3.789119 -5.51618,3.961424 -6.88618,3.459856 -8.89889,-3.257959 -1.75952,-5.872751 -3.68534,-6.257761 -8.3785,-1.675021 -2.15219,2.101554 -4.60943,3.821006 -5.46054,3.821006 -0.85112,0 -2.71718,-1.892597 -4.1468,-4.205771 -2.85707,-4.622845 -6.73762,-5.720524 -7.84861,-2.220114 -0.34662,1.092112 -1.84107,3.292189 -3.32101,4.889059 l -2.69078,2.903401 -3.98848,-4.363337 c -2.19367,-2.399835 -4.71373,-4.363337 -5.60015,-4.363337 -0.94071,0 -2.36156,1.963576 -3.41294,4.716573 -2.71475,7.10846 -3.70846,7.491691 -9.26681,3.573804 -5.75485,-4.056391 -7.43985,-3.285525 -8.51684,3.89634 -0.3925,2.617372 -1.35576,5.005265 -2.14057,5.306426 -0.78482,0.301163 -3.67464,-0.446697 -6.42184,-1.661911 -6.046969,-2.674863 -7.135526,-1.920079 -6.882397,4.772119 0.257781,6.815183 -0.713682,7.673465 -7.184934,6.347844 -7.045758,-1.443307 -8.146221,-0.375182 -6.595461,6.40165 1.509557,6.596777 0.494273,7.770691 -6.407099,7.408154 -6.340847,-0.333091 -7.231228,1.245261 -4.330842,7.677167 2.488835,5.519248 1.625561,6.935248 -4.763869,7.814018 -2.973758,0.409 -5.650378,1.3783 -5.948046,2.15401 -0.297666,0.77571 0.918871,3.53254 2.703416,6.12629 1.784547,2.59375 3.24463,5.01155 3.24463,5.3729 0,0.36135 -2.602321,1.80787 -5.782936,3.21449 -3.180614,1.40662 -5.782935,3.17715 -5.782935,3.93452 0,0.75737 1.892597,3.22511 4.205771,5.48386 2.313174,2.25875 4.205771,4.46401 4.205771,4.90056 0,0.43655 -2.129171,2.04151 -4.731492,3.56657 -5.944218,3.48355 -6.102063,5.88721 -0.614106,9.35161 2.264563,1.42955 4.417953,3.08551 4.785313,3.67991 0.367358,0.5944 -1.227826,2.99552 -3.544853,5.33582 -2.422596,2.44693 -3.970839,4.88557 -3.643431,5.73878 0.313139,0.81603 2.50573,2.12916 4.872421,2.91805 6.179897,2.05997 6.966226,3.90273 3.567023,8.35931 -1.536568,2.01454 -2.79376,4.62822 -2.79376,5.80816 0,1.80787 0.895884,2.25728 5.695272,2.85693 5.481654,0.68488 7.815178,2.49217 6.326958,4.90016 -0.331048,0.53565 -0.83356,2.26726 -1.116695,3.84803 -0.283135,1.58076 -0.960111,3.03184 -1.504392,3.2246 -0.54428,0.19277 -0.989601,0.7842 -0.989601,1.3143 0,1.48284 10.469245,1.1118 15.771642,-0.55896 z m -1.401923,-3.38395 c -0.38553,-0.38552 -0.700963,-1.18988 -0.700963,-1.78745 0,-0.65884 0.489732,-0.59676 1.244207,0.15771 0.684315,0.68432 0.999748,1.48868 0.700963,1.78746 -0.298786,0.29878 -0.858679,0.22781 -1.244207,-0.15772 z m -0.06694,-4.73149 c 0.297836,-0.48191 0.986746,-0.8762 1.530911,-0.8762 0.544165,0 0.98939,0.39429 0.98939,0.8762 0,0.48192 -0.688911,0.87621 -1.530913,0.87621 -0.842002,0 -1.287227,-0.39429 -0.989388,-0.87621 z m 35.708355,-7.49307 c 0.39485,-1.03695 0.98277,-1.6205 1.3065,-1.29677 0.32373,0.32373 6.7e-4,1.17213 -0.71791,1.88537 -1.03842,1.03069 -1.15919,0.90992 -0.58859,-0.5886 z m -8.47914,-0.74323 c 0.3574,-0.57829 1.09505,-1.05144 1.63922,-1.05144 0.54416,0 0.98938,0.47315 0.98938,1.05144 0,0.57829 -0.73765,1.05144 -1.63922,1.05144 -0.90157,0 -1.34679,-0.47315 -0.98938,-1.05144 z m 38.37765,-8.34949 c 0,-0.54416 0.47315,-1.28181 1.05145,-1.63922 0.57829,-0.3574 1.05144,0.0878 1.05144,0.98939 0,0.90157 -0.47315,1.63922 -1.05144,1.63922 -0.5783,0 -1.05145,-0.44522 -1.05145,-0.98939 z M 88.12,163.11159 c -8.741509,-0.35716 -8.262447,0.47454 -9.448911,-16.40429 -0.769927,-10.95311 -1.164639,-10.2175 7.483196,-13.94637 2.893105,-1.24747 6.105872,-3.39487 7.139481,-4.77197 1.737813,-2.31533 1.756539,-2.79761 0.24875,-6.40625 l -1.630539,-3.90243 h 4.622972 c 3.527101,0 4.731721,0.43618 5.081741,1.84002 0.25233,1.01202 0.58252,11.05551 0.73375,22.31888 0.15124,11.26337 0.42448,20.72636 0.6072,21.02886 0.37513,0.62102 -3.886839,0.69099 -14.83764,0.24355 z m 12.23174,-22.82529 v -21.55458 h -2.641033 c -2.477162,0 -2.600693,0.25226 -1.990907,4.06566 0.922107,5.76654 -0.611065,7.78327 -8.449709,11.11474 l -6.895764,2.93074 v 7.19004 c 0,3.95452 0.512356,9.57908 1.138569,12.49901 l 1.13857,5.30896 h 8.850137 8.850137 z m 72.02383,19.45169 c -0.35741,-0.5783 -0.14876,-1.05145 0.46367,-1.05145 0.61242,0 1.1135,0.47315 1.1135,1.05145 0,0.57829 -0.20865,1.05144 -0.46367,1.05144 -0.25502,0 -0.75609,-0.47315 -1.1135,-1.05144 z m -5.02743,-10.82049 c -0.36502,-0.95121 -0.1797,-2.02858 0.41182,-2.39416 1.51837,-0.93841 1.84095,-0.25315 0.98744,2.09763 -0.64665,1.78102 -0.81585,1.81687 -1.39926,0.29653 z M 77.453951,126.55792 c -2.574456,-1.80322 -3.166474,-6.57598 -1.075107,-8.66735 2.091367,-2.09138 6.864135,-1.49935 8.667354,1.07511 2.16321,3.08841 2.064643,4.5954 -0.4661,7.12614 -2.530743,2.53074 -4.037732,2.62931 -7.126147,0.4661 z m 5.864416,-1.72783 c 2.966349,-2.96635 0.07346,-7.91553 -3.891243,-6.65718 -1.154756,0.36651 -2.399426,1.61118 -2.765932,2.76594 -1.258349,3.9647 3.690825,6.85759 6.657175,3.89124 z m 93.341863,-2.04432 c -1.7246,-1.66254 -1.77266,-1.95116 -0.3249,-1.95116 0.93449,0 1.99626,0.48086 2.3595,1.06859 0.36323,0.58772 1.10088,0.79638 1.63922,0.46366 0.53832,-0.33271 0.97878,-0.15446 0.97878,0.39608 0,1.93864 -2.65179,1.95165 -4.6526,0.0228 z m 54.29182,-2.58293 c -0.74566,-0.80912 -0.89188,-1.47112 -0.32491,-1.47112 1.09186,0 2.67247,2.00007 2.04882,2.59251 -0.20248,0.19235 -0.97824,-0.31228 -1.72391,-1.12139 z m -46.94301,-1.16291 c -0.5706,-1.49852 -0.44983,-1.61929 0.5886,-0.5886 0.71857,0.71324 1.04163,1.56165 0.7179,1.88538 -0.32373,0.32372 -0.91165,-0.25983 -1.3065,-1.29678 z m 6.06581,-1.88537 c 0,-0.86744 0.3943,-1.57717 0.87621,-1.57717 0.48191,0 0.8762,0.70973 0.8762,1.57717 0,0.86744 -0.39429,1.57716 -0.8762,1.57716 -0.48191,0 -0.87621,-0.70972 -0.87621,-1.57716 z M 146.84918,73.985782 c -2.52292,-1.767114 -2.98023,-4.659371 -1.24841,-7.895322 2.22186,-4.151574 10.47744,-1.339338 10.47744,3.569103 0,2.070764 -3.622,5.963005 -5.54898,5.963005 -0.73878,0 -2.3948,-0.736554 -3.68005,-1.636786 z m 5.46298,-1.104314 c 2.08408,-0.799734 2.16972,-4.992549 0.13646,-6.68001 -1.83789,-1.525311 -5.39987,-0.585339 -6.25821,1.651483 -0.3405,0.88732 -0.13099,2.52533 0.46558,3.640024 1.11893,2.090742 2.76996,2.496045 5.65617,1.388503 z M 89.837312,192.33271 c 0.86744,-0.56058 1.104015,-1.01923 0.525721,-1.01923 -0.578293,0 -1.761166,0.45865 -2.628607,1.01923 -0.86744,0.56059 -1.104015,1.01924 -0.525721,1.01924 0.578293,0 1.761167,-0.45865 2.628607,-1.01924 z m 98.337718,-14.51713 c -0.32372,-0.32373 -1.17213,-6.7e-4 -1.88537,0.7179 -1.03069,1.03843 -0.90992,1.1592 0.5886,0.5886 1.03695,-0.39485 1.6205,-0.98277 1.29677,-1.3065 z m 21.023,-17.43792 c 1.37047,-1.0021 2.17932,-3.23865 2.56671,-7.09723 l 0.56566,-5.63403 3.94291,-0.32634 c 3.9241,-0.32477 3.94291,-0.34891 3.94291,-5.06029 v -4.73396 l -6.80965,-3.08765 c -3.7462,-1.6986 -7.59965,-4.29332 -8.56571,-5.76772 -1.69338,-2.58441 -1.61694,-3.00039 2.14163,-11.6543 4.39904,-10.12859 4.54005,-9.33223 -3.37603,-19.066265 -7.4812,-9.199279 -25.57661,-20.332599 -35.56394,-21.880952 -4.10994,-0.637171 -4.63836,-0.395263 -10.2627,4.698155 -3.2613,2.953455 -6.89926,5.369917 -8.08434,5.369917 -1.18508,0 -4.7146,-2.421048 -7.84337,-5.380106 -5.33685,-5.047371 -5.93446,-5.336172 -9.6629,-4.669718 -6.20977,1.109987 -20.29234,8.494814 -26.06984,13.670893 l -5.24191,4.696239 38.45322,0.04712 c 43.46598,0.05325 44.60621,0.218736 53.11485,7.708347 11.48326,10.10797 11.69783,23.59675 0.53544,33.66125 l -4.4322,3.99626 3.15058,3.58831 c 1.73282,1.97357 3.97696,6.3262 4.98699,9.6725 1.01001,3.3463 2.54951,6.67562 3.42112,7.39849 2.10198,1.7433 6.60367,1.66956 9.09057,-0.14891 z m -18.42221,-6.94833 c 0,-0.57829 -0.50108,-1.05144 -1.1135,-1.05144 -0.61242,0 -0.82107,0.47315 -0.46366,1.05144 0.3574,0.57829 0.85848,1.05144 1.11349,1.05144 0.25502,0 0.46367,-0.47315 0.46367,-1.05144 z m -8.93726,-2.10288 c 0.3574,-0.5783 0.17667,-1.05145 -0.40162,-1.05145 -0.5783,0 -1.34386,0.47315 -1.70127,1.05145 -0.35741,0.57829 -0.17667,1.05144 0.40162,1.05144 0.57829,0 1.34386,-0.47315 1.70127,-1.05144 z m 0.90595,-9.98871 c -0.33288,-0.86744 -1.08568,-1.57716 -1.67291,-1.57716 -0.61542,0 -0.51323,0.66809 0.24123,1.57716 0.71992,0.86744 1.47273,1.57716 1.67291,1.57716 0.20019,0 0.0917,-0.70972 -0.24123,-1.57716 z m 53.22725,-2.4278 c -0.0139,-1.53224 -0.15697,-1.56 -1.03534,-0.20081 -1.33071,2.05912 -1.33071,3.45103 0,2.62861 0.57829,-0.35741 1.0442,-1.44992 1.03534,-2.4278 z m -46.32507,-10.0959 c 0.84169,-1.01418 0.88242,-1.69915 0.12874,-2.16495 -0.60637,-0.37475 -1.1025,0.0168 -1.1025,0.87022 0,0.85338 -0.59143,1.79025 -1.3143,2.08193 -0.82582,0.33322 -0.87367,0.56119 -0.12874,0.61334 0.65205,0.0456 1.73961,-0.58459 2.4168,-1.40054 z m 24.59194,0.0345 c 0.62752,-1.63526 -1.14079,-3.80814 -3.09911,-3.80814 -0.71281,0 -1.63449,-1.06459 -2.04818,-2.36575 -0.7282,-2.29045 -0.77831,-2.29881 -1.57411,-0.26286 -1.39444,3.56747 -1.07364,4.60798 1.9217,6.23298 3.63293,1.9709 4.11376,1.99132 4.7997,0.20381 z m -50.7312,-0.69084 c 2.72176,-1.45664 2.57489,-4.72196 -0.30308,-6.73777 -1.79389,-1.25648 -5.21401,-1.63678 -14.7202,-1.63678 l -12.38336,3e-5 v 4.7315 4.73149 h 12.68644 c 6.97754,0 13.60163,-0.4898 14.7202,-1.08843 z m 79.84053,-1.54014 c 0,-0.86744 -0.43446,-1.57716 -0.96545,-1.57716 -0.531,0 -1.65281,-0.26377 -2.49292,-0.58615 -0.86922,-0.33355 -1.82289,0.18365 -2.21296,1.20016 -0.57337,1.49419 -0.42564,1.57067 0.90332,0.46773 1.29801,-1.07724 1.70788,-1.00825 2.23946,0.37701 0.81958,2.13579 2.52855,2.21582 2.52855,0.11841 z m -59.40652,-0.52572 c 0.35741,-0.57829 0.14876,-1.05144 -0.46366,-1.05144 -0.61243,0 -1.1135,0.47315 -1.1135,1.05144 0,0.57829 0.20865,1.05144 0.46366,1.05144 0.25502,0 0.7561,-0.47315 1.1135,-1.05144 z m 38.90338,-3.68005 c 0,-2.54543 -0.49603,-3.22434 -2.56969,-3.51704 -3.36117,-0.47444 -5.66843,2.47127 -4.15322,5.30246 0.74087,1.38434 1.96969,1.91805 3.90217,1.69478 2.36078,-0.27273 2.82074,-0.84023 2.82074,-3.4802 z m -25.76034,-0.58778 c 0,-0.54416 -0.82801,-0.95203 -1.84003,-0.90637 -1.11006,0.05 -1.31602,0.29426 -0.51917,0.61552 0.72647,0.29288 1.00823,1.03835 0.62612,1.65661 -0.41062,0.66441 -0.19831,0.8173 0.51918,0.37386 0.66764,-0.41262 1.2139,-1.19545 1.2139,-1.73962 z"
           id="path8508" />
      </g>
    </g>
  </g>
</svg>
