<?xml version="1.0" encoding="UTF-8" standalone="no"?>
<!-- Created with Inkscape (http://www.inkscape.org/) -->

<svg
   width="317.17148mm"
   height="317.17148mm"
   viewBox="0 0 317.17148 317.17148"
   version="1.1"
   id="svg5"
   inkscape:version="1.1 (c68e22c387, 2021-05-23)"
   sodipodi:docname="sass.svg"
   xmlns:inkscape="http://www.inkscape.org/namespaces/inkscape"
   xmlns:sodipodi="http://sodipodi.sourceforge.net/DTD/sodipodi-0.dtd"
   xmlns="http://www.w3.org/2000/svg"
   xmlns:svg="http://www.w3.org/2000/svg">
  <sodipodi:namedview
     id="namedview7"
     pagecolor="#ffffff"
     bordercolor="#666666"
     borderopacity="1.0"
     inkscape:pageshadow="2"
     inkscape:pageopacity="0.0"
     inkscape:pagecheckerboard="0"
     inkscape:document-units="mm"
     showgrid="false"
     fit-margin-top="0"
     fit-margin-left="0"
     fit-margin-right="0"
     fit-margin-bottom="0"
     inkscape:zoom="0.33540614"
     inkscape:cx="475.54287"
     inkscape:cy="699.15238"
     inkscape:window-width="1920"
     inkscape:window-height="1017"
     inkscape:window-x="1912"
     inkscape:window-y="-8"
     inkscape:window-maximized="1"
     inkscape:current-layer="layer1" />
  <defs
     id="defs2" />
  <g
     inkscape:label="Calque 1"
     inkscape:groupmode="layer"
     id="layer1"
     transform="translate(12.383946,-7.6654393)">
    <path
       style="fill:#cf649a;stroke-width:0.264583;fill-opacity:1"
       d="m 17.478593,282.57486 c -4.137575,-0.39417 -8.6266256,-1.42476 -10.2060466,-2.34309 -1.844546,-1.07248 -3.752,-2.99377 -5.362299,-5.4012 -5.332897,-7.97277 -5.351036,-19.5823 -0.04668,-29.87594 5.506284,-10.6855 20.7771726,-22.87564 43.4624176,-34.69431 2.291953,-1.19407 4.167187,-2.27211 4.167187,-2.39563 0,-0.58283 -5.640131,-4.76957 -17.4625,-12.96262 -15.132375,-10.48693 -21.037878,-15.16003 -28.0542966,-22.19974 -7.430872,-7.45554 -12.102283,-14.35765 -14.6250884,-21.60887 -1.566236,-4.50179 -1.861787,-6.31723 -1.693301,-10.40122 0.68751,-16.66485 14.6142464,-37.01202 37.561388,-54.877767 12.652834,-9.851008 30.31598,-19.911272 48.65921,-27.714458 17.759174,-7.554729 30.322206,-11.107822 45.464596,-12.858362 5.77693,-0.667845 18.46745,-0.667231 23.68021,0.0011 19.39688,2.487053 32.68546,9.261362 39.78555,20.282045 4.06537,6.310233 5.65813,16.162635 4.13515,25.578995 -3.29144,20.350457 -19.93221,41.185287 -41.53945,52.008897 -9.58771,4.80271 -22.56026,8.59925 -35.0573,10.25983 -2.53098,0.33632 -6.43081,0.60422 -10.18646,0.69978 -13.622434,0.34661 -21.925593,-1.52977 -29.742911,-6.72142 -2.755911,-1.83026 -6.19247,-5.16678 -7.641667,-7.41922 -1.149504,-1.78663 -2.170626,-4.45801 -2.170626,-5.67861 0,-0.83156 1.029065,-2.05325 1.729505,-2.05325 0.236855,0 1.470175,1.00004 2.740718,2.22231 4.448373,4.27939 9.227552,6.65781 16.314592,8.11915 3.431712,0.70762 11.575237,0.97419 15.794209,0.51701 21.94669,-2.37824 42.92237,-11.90564 57.06472,-25.91945 10.69621,-10.59899 16.60629,-22.582107 16.06061,-32.564027 -0.2654,-4.85467 -1.52078,-8.142838 -4.20391,-11.011109 -8.22853,-8.796325 -27.53925,-11.845827 -49.93375,-7.885415 -18.886535,3.340037 -38.57158,11.246974 -60.032035,24.113194 -11.522956,6.90837 -19.943022,13.186417 -27.244788,20.313837 -9.540357,9.31258 -15.092773,18.35678 -16.839743,27.42987 -0.612553,3.18135 -0.802141,8.14974 -0.412635,10.81359 0.902099,6.16949 4.039573,12.25621 9.473781,18.37919 4.096589,4.61583 8.436287,8.39271 19.644976,17.09722 3.856302,2.99475 8.142552,6.36538 9.525,7.4903 3.445788,2.8039 9.099227,7.95951 9.94723,9.0713 0.468694,0.61449 0.854554,0.87387 1.175232,0.79001 0.262585,-0.0687 4.147999,-2.14278 8.634253,-4.60913 4.486254,-2.46636 11.420819,-6.2602 15.410143,-8.43076 6.080422,-3.3083 7.37766,-4.1176 8.022278,-5.0048 2.81137,-3.86931 7.802158,-8.71075 12.332068,-11.96306 2.59414,-1.86249 7.04493,-4.23908 9.48949,-5.06711 8.07978,-2.73679 13.98485,0.11479 15.55128,7.5098 0.44742,2.11223 0.52368,7.42671 0.14017,9.76866 -0.14151,0.86417 -0.2141,1.61441 -0.16131,1.66721 0.0528,0.0528 0.66882,-0.26731 1.36896,-0.71133 1.04108,-0.66023 1.55175,-0.80728 2.80332,-0.80728 2.34983,0 4.89545,1.19766 5.94265,2.79588 0.74529,1.13746 0.48985,2.93159 -1.44976,10.18278 -5.04416,18.85741 -6.15882,23.98755 -6.32774,29.1229 -0.0768,2.33579 -0.0225,4.05644 0.137,4.34151 0.2336,0.41741 0.36318,0.33682 1.11632,-0.69428 2.30433,-3.15482 11.49795,-22.98695 25.80733,-55.67068 2.96236,-6.76624 3.64653,-8.64115 4.92025,-13.48356 0.68031,-2.58639 1.23547,-4.16532 1.60157,-4.55501 1.08045,-1.15009 4.74675,-2.02163 9.87781,-2.34815 4.49672,-0.28614 7.91407,0.65042 8.94371,2.45112 l 0.48593,0.84981 -1.33791,4.0798 c -2.06753,6.30472 -2.42469,8.00974 -2.59018,12.36495 -0.11059,2.91022 -0.0325,4.66363 0.31817,7.14375 0.5856,4.14182 1.12792,5.90613 3.07966,10.01878 1.42927,3.01171 1.59289,3.2485 1.91973,2.77813 0.83522,-1.20201 7.08378,-12.05477 9.84176,-17.09359 6.1054,-11.15455 8.18601,-15.74905 9.50691,-20.99361 1.88926,-7.50126 2.34653,-8.60322 3.86537,-9.31502 2.36153,-1.10673 5.08447,-1.52789 9.88768,-1.52936 4.37072,-0.001 4.53974,0.0192 5.97693,0.72498 0.99887,0.49055 1.63205,1.01052 1.95043,1.6017 l 0.4714,0.87535 -1.35163,4.12166 c -2.02656,6.1798 -2.43285,8.07358 -2.60197,12.12834 -0.1837,4.40429 0.41084,9.39393 1.51774,12.73757 0.41752,1.26119 1.83746,4.44721 3.15542,7.08006 l 2.3963,4.787 0.98957,-0.44069 c 9.84615,-4.38494 17.57397,-6.04391 28.10935,-6.03438 6.57844,0.006 9.51085,0.34932 14.75674,1.72795 14.19953,3.73165 24.86155,13.40617 28.14283,25.53623 0.77655,2.87072 0.97539,8.94118 0.38457,11.74043 -0.49516,2.34602 -1.84322,5.29195 -3.45553,7.55139 -2.87333,4.02661 -8.77496,8.00755 -12.07569,8.14566 -1.40695,0.0589 -1.81216,-0.23568 -1.8197,-1.32282 -0.004,-0.60874 0.11353,-0.71514 3.90866,-3.53172 7.35328,-5.45724 9.12254,-13.35078 4.88929,-21.81341 -5.52532,-11.04563 -19.41878,-17.3637 -38.30304,-17.41841 -7.48959,-0.0217 -12.5559,0.72123 -18.71885,2.74496 -1.7607,0.57816 -3.23782,1.08776 -3.28249,1.13242 -0.0447,0.0447 0.2663,1.10298 0.69106,2.35179 1.78875,5.25911 2.29037,10.31121 1.38088,13.90776 -1.64103,6.4894 -6.64609,12.30789 -14.79114,17.19502 -2.29097,1.37461 -8.53171,3.9897 -11.24459,4.71187 -4.3911,1.16892 -8.4931,-0.3967 -10.10192,-3.85562 -0.86288,-1.85518 -0.77539,-6.39498 0.19122,-9.92188 1.83785,-6.70584 6.49708,-13.67615 13.92587,-20.83342 l 3.65142,-3.51795 -1.46203,-2.90556 c -2.1848,-4.34198 -3.56914,-7.80574 -4.65083,-11.63682 -1.04052,-3.6853 -2.28123,-8.96457 -2.28516,-9.72344 -0.005,-0.93637 -0.43218,-0.3909 -1.85448,2.36716 -4.2874,8.31391 -9.41387,17.10047 -14.21877,24.3704 l -3.0262,4.57869 1.08634,2.96193 c 1.73425,4.72847 2.16681,6.7573 2.32666,10.91266 0.22052,5.73252 -0.69798,9.35965 -3.43644,13.57033 -4.96604,7.63583 -17.03464,13.72795 -28.23993,14.25524 -3.61187,0.16997 -5.5624,-0.1677 -7.18507,-1.24385 -1.58503,-1.05117 -2.19734,-2.16883 -2.17668,-3.97308 0.0352,-3.0702 0.70907,-4.0069 15.6733,-21.78526 1.81116,-2.15177 6.85345,-8.76622 7.52259,-9.86811 0.10028,-0.16513 -0.87903,-2.48685 -2.17623,-5.15937 -1.29721,-2.67252 -2.72074,-5.77546 -3.16339,-6.89542 -0.91602,-2.31763 -2.65442,-8.52265 -3.58615,-12.80034 -0.34626,-1.58975 -0.6398,-2.74668 -0.6523,-2.57095 -0.0322,0.4521 -5.62016,13.81411 -8.22037,19.65654 -5.73083,12.87663 -17.38562,35.33596 -21.27354,40.99511 -1.92582,2.80318 -5.23201,6.04252 -7.30591,7.15819 -1.53276,0.82457 -1.93559,0.92461 -3.70416,0.91991 -2.43296,-0.006 -3.62636,-0.56307 -5.37338,-2.50617 -1.30193,-1.44807 -2.09462,-3.23135 -2.76399,-6.21808 -0.46046,-2.05457 -0.60824,-9.71838 -0.26275,-13.62605 l 0.19883,-2.24895 -1.43205,3.35411 c -2.29826,5.38291 -3.26008,7.46978 -5.7708,12.52089 -3.82828,7.70178 -6.15252,10.72917 -9.409,12.25548 -1.38803,0.65057 -1.78589,0.7091 -4.820197,0.7091 -3.015089,0 -3.435861,-0.0609 -4.7625,-0.68956 -5.963629,-2.8259 -11.398774,-15.52165 -11.824693,-27.62086 -0.239892,-6.81469 1.059681,-16.36323 3.089492,-22.69989 0.438735,-1.36964 0.797701,-2.55791 0.797701,-2.6406 0,-0.32828 -17.015611,9.35334 -17.328544,9.85967 -0.0715,0.1157 0.152381,0.8489 0.497527,1.62933 4.171434,9.43236 4.397521,24.08497 0.552567,35.81191 -6.220889,18.97345 -23.786214,33.32451 -43.214687,35.30688 -2.575184,0.26276 -5.874041,0.30688 -7.975613,0.10667 z m 11.851259,-18.23639 c 13.53245,-2.77123 26.352182,-16.70753 29.065408,-31.59695 0.875553,-4.80481 0.504957,-12.8933 -0.788327,-17.20558 l -0.308549,-1.02883 -4.971711,3.02169 c -11.557302,7.02424 -22.374857,15.27127 -26.742948,20.38814 -7.068791,8.28054 -10.044739,18.87396 -6.758056,24.05652 0.745606,1.1757 2.194192,2.1387 3.812299,2.53438 1.397476,0.34172 4.590783,0.2609 6.691884,-0.16937 z M 168.87234,234.50391 c 1.68875,-0.72098 5.55413,-3.73027 7.70082,-5.99526 3.36512,-3.55058 4.88379,-6.55478 5.34498,-10.57329 l 0.19616,-1.70929 -3.11202,3.95825 c -3.09884,3.94146 -4.67997,5.77624 -9.84696,11.42656 -1.49397,1.63372 -2.71631,3.10712 -2.71631,3.27422 0,0.35578 1.11699,0.18081 2.43333,-0.38119 z m -66.61692,-0.5816 c 1.38154,-0.90522 4.00642,-5.48666 6.48633,-11.32118 1.65219,-3.88714 6.89737,-17.46443 8.55267,-22.13878 3.15027,-8.89601 5.16101,-16.19437 5.40121,-19.60472 0.15339,-2.1778 0.13364,-2.29311 -0.46437,-2.71198 -2.43588,-1.70615 -8.50334,1.72043 -12.48957,7.05346 -3.43204,4.5916 -7.79987,12.91525 -9.5913,18.27787 -2.217117,6.63693 -3.313334,15.01486 -2.782648,21.26671 0.269549,3.17552 0.974682,6.53064 1.647502,7.83906 0.853419,1.65962 2.017326,2.14081 3.240176,1.33956 z m 112.77479,-10.79169 c 4.85332,-2.44409 7.96922,-6.11185 9.19083,-10.81864 0.63367,-2.44149 0.78372,-4.96757 0.42262,-7.1148 -0.56714,-3.37244 -0.43296,-3.34627 -3.08678,-0.60204 -4.03496,4.17244 -6.31139,7.77247 -8.5792,13.56749 -1.03951,2.65632 -1.53538,5.10396 -1.20724,5.95908 0.18626,0.4854 0.5436,0.37676 3.25977,-0.99109 z"
       id="path890" />
  </g>
</svg>
