<?xml version="1.0" encoding="UTF-8" standalone="no"?>
<!-- Created with Inkscape (http://www.inkscape.org/) -->

<svg
   width="300mm"
   height="300mm"
   viewBox="0 0 300 300"
   version="1.1"
   id="svg5"
   inkscape:version="1.1 (c68e22c387, 2021-05-23)"
   sodipodi:docname="scala.svg"
   xmlns:inkscape="http://www.inkscape.org/namespaces/inkscape"
   xmlns:sodipodi="http://sodipodi.sourceforge.net/DTD/sodipodi-0.dtd"
   xmlns="http://www.w3.org/2000/svg"
   xmlns:svg="http://www.w3.org/2000/svg">
  <sodipodi:namedview
     id="namedview7"
     pagecolor="#ffffff"
     bordercolor="#666666"
     borderopacity="1.0"
     inkscape:pageshadow="2"
     inkscape:pageopacity="0.0"
     inkscape:pagecheckerboard="0"
     inkscape:document-units="mm"
     showgrid="false"
     inkscape:zoom="0.33540614"
     inkscape:cx="311.56257"
     inkscape:cy="1158.2972"
     inkscape:window-width="1920"
     inkscape:window-height="1017"
     inkscape:window-x="1912"
     inkscape:window-y="-8"
     inkscape:window-maximized="1"
     inkscape:current-layer="layer1" />
  <defs
     id="defs2" />
  <g
     inkscape:label="Calque 1"
     inkscape:groupmode="layer"
     id="layer1">
    <g
       id="g4263"
       transform="matrix(2.3218377,0,0,2.3218377,-7.2102233,108.70138)">
      <path
         style="fill:#dd3330;stroke-width:0.264583"
         d="m 27.687931,67.16239 0.06833,-15.015104 1.819202,-0.454316 c 2.008615,-0.501618 6.651663,-1.190844 20.123363,-2.987161 4.93789,-0.658419 9.035624,-1.254768 9.106077,-1.325219 0.07045,-0.07045 -0.0075,-0.128095 -0.173143,-0.128095 -0.165679,0 -5.215915,-0.655355 -11.222743,-1.456344 C 35.253516,44.175258 28.945798,43.178798 28.152158,42.754054 27.63371,42.476588 27.62397,42.191203 27.62397,27.277342 V 12.083308 l 1.000323,-0.269359 C 30.503371,11.307965 35.691227,10.519586 47.299304,8.9759752 55.334693,7.9074528 58.671782,7.3718647 58.147222,7.2349349 57.730527,7.126162 52.38897,6.3786586 46.277095,5.5738146 34.085391,3.9683467 31.099157,3.5088078 29.013033,2.9171122 L 27.62397,2.5231291 V -12.667407 c 0,-8.354793 0.09666,-15.250273 0.214795,-15.323286 0.644551,-0.398354 6.93576,-1.403621 18.460031,-2.949712 24.233815,-3.251198 35.049619,-5.075292 44.810996,-7.55741 9.464388,-2.4066 15.201858,-5.104416 16.545598,-7.779899 0.35981,-0.716398 0.39881,0.67077 0.40028,14.234494 10e-4,12.542012 -0.0612,15.149732 -0.37811,15.762591 -0.46103,0.891533 -2.19227,2.490375 -3.33833,3.083023 l -0.83926,0.434002 1.30066,0.875919 c 1.51584,1.020828 2.92257,2.5419523 3.1296,3.3840946 0.0798,0.3247523 0.11132,7.67467882 0.07,16.3331684 l -0.0752,15.742708 -0.59994,0.841095 c -0.32997,0.462603 -1.31173,1.316408 -2.18169,1.897345 l -1.58174,1.056249 0.97682,0.603716 c 1.42933,0.883372 2.69851,2.058762 3.13548,2.903773 0.55532,1.073872 0.57302,31.562185 0.0191,32.856842 -2.01455,4.708308 -16.439893,8.969996 -44.482586,13.14152 -2.910417,0.432943 -10.292292,1.4512 -16.404167,2.262794 -11.255249,1.494578 -16.443974,2.288963 -18.122212,2.774476 -0.508367,0.147069 -0.955835,0.267399 -0.994377,0.267399 -0.03854,0 -0.03933,-6.756797 -0.0017,-15.015105 z"
         id="path4267" />
      <path
         style="fill:#7e0b1c;stroke-width:0.264583"
         d="M 45.88022,45.51723 C 33.633901,43.845011 28.239416,42.941255 27.779323,42.484727 27.174185,41.884276 31.431155,41.124943 47.070845,39.043609 78.436813,34.869421 93.540751,31.862936 101.68131,28.173234 l 1.6938,-0.767712 1.15611,0.677527 c 2.61393,1.531866 3.9559,3.734683 3.27566,5.376928 -1.97976,4.779555 -15.344882,8.911027 -41.986572,12.979027 -2.930195,0.447421 -5.847226,0.80105 -6.482292,0.785847 C 58.702947,47.209645 52.646939,46.441216 45.88022,45.51723 Z M 51.43647,6.2206944 C 47.434647,5.6639317 41.83871,4.8945683 39.001053,4.5109939 32.884177,3.6841631 28.387212,2.8635367 28.023057,2.5076827 27.850395,2.3389579 27.890426,2.1711089 28.140135,2.0167801 28.847328,1.5797096 34.332597,0.69556731 46.277095,-0.906625 78.734179,-5.2603014 90.977452,-7.6471844 100.84837,-11.545547 l 2.71294,-1.071436 1.43114,0.950227 c 1.58385,1.051616 2.63722,2.3004837 2.90955,3.4495374 1.11368,4.6990185 -9.956026,9.11009629 -32.928821,13.1215342 C 68.944529,5.9570212 59.94573,7.30955 59.255514,7.2667008 58.956863,7.2481588 55.438293,6.7774571 51.43647,6.2206944 Z"
         id="path4265" />
    </g>
  </g>
</svg>
