<?xml version="1.0" encoding="UTF-8" standalone="no"?>
<!-- Created with Inkscape (http://www.inkscape.org/) -->

<svg
   width="287.81042mm"
   height="287.81042mm"
   viewBox="0 0 287.81042 287.81042"
   version="1.1"
   id="svg5"
   inkscape:version="1.1 (c68e22c387, 2021-05-23)"
   sodipodi:docname="scheme_white.svg"
   xmlns:inkscape="http://www.inkscape.org/namespaces/inkscape"
   xmlns:sodipodi="http://sodipodi.sourceforge.net/DTD/sodipodi-0.dtd"
   xmlns="http://www.w3.org/2000/svg"
   xmlns:svg="http://www.w3.org/2000/svg">
  <sodipodi:namedview
     id="namedview7"
     pagecolor="#ffffff"
     bordercolor="#666666"
     borderopacity="1.0"
     inkscape:pageshadow="2"
     inkscape:pageopacity="0.0"
     inkscape:pagecheckerboard="0"
     inkscape:document-units="mm"
     showgrid="false"
     fit-margin-top="0"
     fit-margin-left="0"
     fit-margin-right="0"
     fit-margin-bottom="0"
     inkscape:zoom="0.33540614"
     inkscape:cx="16.39803"
     inkscape:cy="460.63557"
     inkscape:window-width="1920"
     inkscape:window-height="1017"
     inkscape:window-x="1912"
     inkscape:window-y="-8"
     inkscape:window-maximized="1"
     inkscape:current-layer="layer1" />
  <defs
     id="defs2" />
  <g
     inkscape:label="Calque 1"
     inkscape:groupmode="layer"
     id="layer1"
     transform="translate(-52.508908,33.495086)">
    <path
       style="fill:#ffffff;stroke-width:0.264583"
       d="m 252.91086,253.97452 c -7.00453,-1.26598 -15.45366,-5.64195 -20.2812,-10.50404 -6.13142,-6.17527 -11.89352,-19.73948 -17.00534,-40.03119 -0.65986,-2.61938 -5.32889,-23.37073 -10.37562,-46.11411 -5.04673,-22.74339 -9.2592,-41.25761 -9.36103,-41.14271 -19.94725,45.12373 -39.91635,90.23814 -59.75223,135.41098 l -37.873544,-0.0306 C 128.45701,186.26277 151.57359,136.54967 184.19605,66.272719 l -1.13751,-5.500047 C 178.85579,40.45164 174.56286,26.670743 169.02326,15.717414 163.63806,5.0694133 157.57252,-0.97266456 149.85565,-3.3760262 c -5.56258,-1.2584012 -12.47705,-0.6467384 -17.30444,1.588974 -6.00783,2.8153626 -11.29609,8.1386231 -14.01742,14.1101892 -1.86798,4.099013 -3.28793,9.5595 -3.87555,14.903652 -0.16001,1.455208 -0.34817,3.032786 -0.41812,3.505729 l -0.1272,0.859896 h -7.19439 c 0.85057,-19.012347 5.74263,-40.0880886 16.06426,-52.873852 6.70565,-8.041075 14.96711,-12.213648 24.18233,-12.213648 10.06255,0 20.00757,6.227681 26.97989,16.895095 4.12092,6.30487 8.39336,16.23385724 11.72603,27.250869 5.68002,18.776781 10.77228,40.004939 26.95203,112.355072 5.10924,22.84678 9.99339,44.39709 10.85365,47.88959 3.68294,14.95205 7.60305,26.69119 11.57433,34.66041 5.2589,10.55311 12.603,17.1962 21.40027,19.35761 2.58068,0.63405 8.29257,0.63537 11.0074,0.003 8.36721,-1.95034 13.77024,-7.50051 17.14387,-17.61064 1.30595,-4.57408 2.25683,-8.63359 2.68835,-13.52346 2.39102,0 4.78204,0 7.17306,0 0.0328,16.20023 -2.5575,35.49282 -11.17958,47.39145 -4.80509,6.39691 -10.68635,10.55564 -17.42223,12.31951 -3.25511,0.8524 -9.778,1.09124 -13.15133,0.48156 z"
       id="path854"
       sodipodi:nodetypes="csssccccssccssscccssssssscccccscc" />
  </g>
</svg>
