<?xml version="1.0" encoding="UTF-8" standalone="no"?>
<!-- Created with Inkscape (http://www.inkscape.org/) -->

<svg
   width="300mm"
   height="300mm"
   viewBox="0 0 300 300"
   version="1.1"
   id="svg5"
   inkscape:version="1.1 (c68e22c387, 2021-05-23)"
   sodipodi:docname="scratch_white.svg"
   xmlns:inkscape="http://www.inkscape.org/namespaces/inkscape"
   xmlns:sodipodi="http://sodipodi.sourceforge.net/DTD/sodipodi-0.dtd"
   xmlns="http://www.w3.org/2000/svg"
   xmlns:svg="http://www.w3.org/2000/svg">
  <sodipodi:namedview
     id="namedview7"
     pagecolor="#ffffff"
     bordercolor="#666666"
     borderopacity="1.0"
     inkscape:pageshadow="2"
     inkscape:pageopacity="0.0"
     inkscape:pagecheckerboard="0"
     inkscape:document-units="mm"
     showgrid="false"
     inkscape:zoom="0.47433591"
     inkscape:cx="814.8234"
     inkscape:cy="654.59939"
     inkscape:window-width="1920"
     inkscape:window-height="1017"
     inkscape:window-x="1912"
     inkscape:window-y="-8"
     inkscape:window-maximized="1"
     inkscape:current-layer="g7532" />
  <defs
     id="defs2" />
  <g
     inkscape:label="Calque 1"
     inkscape:groupmode="layer"
     id="layer1">
    <g
       id="g6459"
       transform="matrix(0.69157316,0,0,0.69157316,-257.57707,-131.82207)">
      <g
         id="g7532"
         transform="matrix(0.61262466,0,0,0.61262466,674.03538,-56.68644)">
        <path
           style="fill:#ffffff;stroke-width:0.380828"
           d="m -346.15519,1108.6762 c -8.06716,-1.7332 -14.78208,-5.1108 -24.14443,-12.1444 -8.28613,-6.2251 -17.30926,-15.3277 -25.15841,-25.3797 -3.39105,-4.3429 -10.70539,-15.2762 -13.24818,-19.8031 -8.82637,-15.7136 -13.61451,-30.682 -13.61451,-42.5604 0,-12.47984 5.16972,-21.42717 14.85227,-25.70483 9.4982,-4.19625 16.56418,-4.15657 28.07223,0.15801 4.73153,1.77388 8.05151,1.92455 12.10509,0.5494 10.47129,-3.55209 22.26159,-8.3756 29.70454,-12.15219 l 4.56995,-2.31872 -3.9987,-0.0253 c -13.60131,-0.0866 -31.08505,-2.22276 -44.17583,-5.3968 -32.10065,-7.78321 -55.29484,-21.85209 -72.3011,-43.85606 -10.26679,-13.28378 -17.53013,-30.66678 -20.00306,-47.87218 -1.20238,-8.36557 -1.13231,-20.324 0.15618,-26.6579 1.44005,-7.07897 2.52696,-10.4833 4.9243,-15.42355 3.4242,-7.05632 7.65494,-11.58729 13.57035,-14.53336 6.37637,-3.17565 12.00751,-3.20654 18.32352,-0.10065 2.9163,1.43416 3.93795,2.23604 7.94466,6.23571 5.32954,5.32024 8.08598,8.93703 15.81994,20.75777 12.17371,18.60651 13.71629,20.9252 16.77859,25.22068 9.1889,12.88912 19.16712,23.68427 28.34294,30.66364 7.32906,5.57452 16.76371,10.43466 26.71464,13.76153 4.34834,1.45378 13.20707,3.88613 15.97033,4.3848 l 1.21186,0.21873 -1.91866,-3.31749 c -7.22616,-12.49485 -13.76316,-27.44093 -16.18004,-36.99382 -1.99149,-7.87151 -1.26755,-15.64184 2.11759,-22.72869 5.54062,-11.5993 15.07127,-20.48801 42.69069,-39.81525 18.38326,-12.86404 30.22849,-19.13079 41.6104,-22.01404 2.25439,-0.57105 4.17963,-1.11902 4.2783,-1.21773 0.0987,-0.0987 -2.00288,-1.43873 -4.67012,-2.97792 -4.89144,-2.82274 -14.71923,-9.30921 -18.94016,-12.50078 -21.44278,-16.2135 -38.0045,-34.49705 -51.34579,-56.68382 -2.21948,-3.69103 -6.90563,-13.57141 -8.0869,-17.05056 l -1.07501,-3.1662 -2.8404,-0.2401 c -1.56223,-0.13207 -4.19794,-0.24011 -5.85715,-0.24011 -7.10819,0 -25.45725,-1.96541 -26.84634,-2.87558 -2.03054,-1.33047 -2.53674,-4.61581 -0.98053,-6.36408 1.24463,-1.39823 2.79584,-1.79829 5.47742,-1.41264 7.7874,1.11994 28.1469,2.42268 28.1469,1.80104 0,-0.16604 -0.33335,-1.88409 -0.74078,-3.81791 -2.20774,-10.47879 -2.97524,-21.06586 -2.33151,-32.16113 0.25255,-4.35287 0.70121,-9.44558 0.99699,-11.31712 0.29579,-1.87155 0.49389,-3.44674 0.4402,-3.50041 -0.73394,-0.73394 -20.70509,-8.51089 -30.164,-11.74615 -5.62021,-1.92229 -6.39794,-2.31334 -7.15726,-3.59876 -1.23313,-2.08753 -0.47962,-4.83948 1.62279,-5.92668 1.91696,-0.99131 2.1188,-0.95279 10.67565,2.03653 5.54161,1.93598 15.1816,5.60759 20.94551,7.9776 3.0371,1.2488 5.56703,2.23052 5.62208,2.18161 0.0551,-0.0489 0.77372,-2.76821 1.59702,-6.04287 6.14273,-24.43216 18.59762,-50.8439 34.53439,-73.23335 1.91692,-2.69306 1.95959,-3.06706 1.10945,-9.72431 -0.30326,-2.37487 -0.82306,-6.63147 -1.15509,-9.45912 -0.33203,-2.82764 -0.86491,-7.36901 -1.18416,-10.09193 -0.31927,-2.72292 -0.82279,-7.00723 -1.11895,-9.52068 -0.29614,-2.51348 -0.81027,-6.88346 -1.14248,-9.71111 -0.33221,-2.82764 -0.84751,-7.19764 -1.14508,-9.7111 -0.29759,-2.51347 -0.8073,-6.88346 -1.13269,-9.71111 -0.3254,-2.82764 -0.83952,-7.19764 -1.14249,-9.7111 -0.30297,-2.51347 -0.81709,-6.88347 -1.14248,-9.71111 -0.3254,-2.82765 -0.83951,-7.19764 -1.14249,-9.71111 -0.30296,-2.51346 -0.81836,-6.88345 -1.1453,-9.71109 -0.32696,-2.82766 -0.84004,-7.19765 -1.14017,-9.71111 -1.4523,-12.16234 -1.48529,-12.65258 -0.95841,-14.24897 1.35041,-4.09181 6.77681,-6.52477 10.80177,-4.84303 1.07799,0.45041 6.7922,4.13278 33.57522,21.63666 2.72292,1.77956 10.86311,7.09316 18.08931,11.80802 12.85281,8.38603 20.15397,13.15378 28.91545,18.88213 l 4.35207,2.84543 3.83573,-1.21907 c 17.58503,-5.58882 34.18474,-9.18558 50.10628,-10.85682 13.422,-1.40888 33.43856,-1.66598 43.79518,-0.56254 1.98982,0.21201 5.16021,0.54161 7.04531,0.73243 1.88509,0.19083 5.19551,0.61892 7.35645,0.95132 l 3.92899,0.60436 2.57516,-2.3922 c 1.416336,-1.31571 6.931588,-6.43619 12.256166,-11.37885 5.324541,-4.94266 12.680051,-11.7786 16.345535,-15.19099 3.665412,-3.41239 11.066566,-10.29338 16.446909,-15.29111 l 9.78254,-9.08678 h 7.228023 7.228083 l 0.596583,1.61851 c 0.32808,0.89019 1.379951,4.8746 2.337484,8.85424 0.957533,3.97966 2.408161,9.9777 3.223607,13.32898 0.815507,3.35128 2.357181,9.69206 3.426005,14.09062 1.068825,4.39857 2.611231,10.73935 3.427591,14.09062 4.820959,19.79092 5.712265,23.53392 5.712265,23.98817 0,0.27671 1.23823,1.41904 2.7517317,2.53852 12.25022,9.06124 29.0258833,23.68077 39.5340423,34.45279 10.840571,11.11282 15.267771,17.3597 22.426396,31.64414 8.878733,17.71676 14.73681,36.01171 17.377495,54.27017 0.56828,3.92905 0.74269,4.49367 1.45465,4.70962 0.44498,0.13496 2.43706,0.93043 4.42683,1.76772 13.86202,5.83292 25.918154,13.68393 34.996894,22.7901 3.04268,3.05186 8.12463,9.11772 9.10205,10.86431 0.24302,0.43413 0.97229,0.42707 4.55831,-0.0441 26.41587,-3.47072 48.97509,-11.74764 64.81261,-23.77961 1.58015,-1.20049 3.34429,-2.2715 3.92026,-2.38004 l 1.0473,-0.19732 -0.0147,4.99315 -0.0147,4.99316 -1.60405,1.12159 c -12.86114,8.99271 -28.0461,15.61936 -45.87564,20.0199 -4.73492,1.16863 -14.14211,2.97015 -18.09988,3.46621 -1.93147,0.24208 -3.56455,0.48395 -3.62913,0.53747 -0.0646,0.0535 0.30399,1.10128 0.81898,2.32835 1.23006,2.93075 2.42133,6.59252 3.14184,9.65717 0.79123,3.36578 1.67125,10.98267 1.67528,14.50051 0.006,2.67584 -0.55006,9.89223 -0.93582,12.20986 -0.16337,0.98151 -0.0869,1.02239 3.3374,1.78529 3.56887,0.79512 7.77721,1.62108 11.88274,2.33216 8.50741,1.47351 25.79099,2.26618 34.93134,1.60205 6.41825,-0.46637 7.4878,-0.26417 8.66322,1.63763 1.19316,1.93061 1.02302,3.84026 -0.47566,5.33894 -1.68564,1.68566 -3.32099,1.84875 -18.1747,1.81253 -15.06128,-0.0367 -24.67576,-1.05497 -38.10012,-4.03511 l -4.01606,-0.89155 -1.24665,4.03705 c -4.15693,13.46134 -10.69196,25.51835 -20.5589,37.93072 -4.0324,5.07266 -15.233684,16.4856 -20.241184,20.62368 -31.559785,26.08017 -73.317947,43.07926 -128.529312,52.32225 -17.993891,3.01234 -34.315425,4.85536 -49.041031,5.53765 -3.094636,0.14339 -5.707792,0.39198 -5.806959,0.55243 -0.318919,0.51603 27.251826,27.87906 32.37915,32.13527 5.784895,4.80205 12.123258,9.12199 16.264331,11.0851 3.047188,1.44447 6.576009,2.07155 8.168847,1.45161 0.451995,-0.17587 3.708045,-2.99895 7.235706,-6.27336 11.562531,-10.73257 13.326911,-12.21314 19.513673,-16.37507 13.1533567,-8.84841 24.51654,-10.54549 35.668116,-5.32705 4.885538,2.2862 10.959729,7.24645 14.095889,11.51082 8.024319,10.91088 5.681774,25.38409 -6.709924,41.45712 -9.325423,12.09587 -26.7644413,26.85809 -39.968657,33.83385 -5.542248,2.92789 -13.612061,5.49889 -21.206034,6.75595 -4.974327,0.82345 -15.340156,0.82573 -20.647442,0.012 -15.217098,-2.35443 -29.475858,-8.93193 -43.514421,-20.07328 -2.164888,-1.71821 -6.354918,-5.50045 -9.311118,-8.40513 l -5.37493,-5.28124 -2.22746,4.06855 c -2.78522,5.08728 -6.60952,10.83267 -12.26965,18.43311 -5.89091,7.91044 -8.94922,11.57088 -13.85943,16.58793 l -4.12127,4.21105 3.33411,3.1982 c 1.83375,1.75897 6.41881,6.21123 10.189,9.89403 37.024241,36.16548 36.111399,35.30464 53.125446,50.10168 18.485097,16.0765 28.55364,24.5221 29.036371,24.3561 1.143769,-0.3933 10.446628,-1.3893 17.899002,-1.9164 28.5576057,-2.0197 50.948754,0.8076 65.456207,8.2648 13.487779,6.9332 20.151722,17.3118 20.129343,31.35 -0.0079,4.7135 -0.687994,8.031 -2.412918,11.7644 -5.70135,12.3398 -20.363757,20.1677 -44.6122213,23.8172 -12.800213,1.9264 -30.1844717,2.6605 -47.1193557,1.9899 -15.832764,-0.6271 -29.878645,-1.7699 -33.670845,-2.7398 -5.595361,-1.4309 -8.284825,-3.0092 -14.78205,-8.6747 -5.569724,-4.8568 -20.459699,-18.0265 -24.198009,-21.4024 -1.78038,-1.6077 -5.97078,-5.3916 -9.31204,-8.4089 -17.17509,-15.5092 -30.39968,-27.6838 -39.05311,-35.9528 -2.19928,-2.1015 -8.79711,-8.4533 -14.66186,-14.1149 -14.71659,-14.20723 -31.46642,-29.78352 -34.89866,-32.45396 -0.53573,-0.4169 -1.58792,0.15596 -7.42614,4.04281 -34.74667,23.13275 -67.4467,39.50555 -101.62803,50.88465 -2.09456,0.6972 -4.36525,1.3862 -5.04598,1.5311 -0.68073,0.1449 -1.23769,0.4005 -1.23769,0.5679 0,0.1675 1.26388,2.1676 2.80863,4.4446 11.62365,17.1331 16.37803,30.6159 14.54388,41.2442 -1.58731,9.198 -6.95805,15.8166 -16.78127,20.6804 -8.60097,4.2586 -14.90791,5.315 -22.27841,3.7316 z m 10.66316,-8.541 c 5.76977,-1.3881 12.3973,-4.9714 15.52595,-8.3947 2.28977,-2.5054 3.41509,-4.8129 4.18262,-8.5766 1.67184,-8.1982 -2.61358,-19.8065 -13.01032,-35.2423 -1.69293,-2.5135 -3.30754,-5.0841 -3.58802,-5.7125 -0.85288,-1.9106 -0.64314,-5.5378 0.44338,-7.6676 1.47975,-2.9006 2.64062,-3.7319 7.10957,-5.0907 31.42876,-9.5559 65.81642,-26.3414 100.06246,-48.84291 4.45093,-2.92445 8.09258,-5.45192 8.09258,-5.61654 0,-0.49842 -22.13946,-19.21135 -29.21581,-24.69413 l -1.60581,-1.24419 -2.01204,1.50994 c -6.92878,5.19983 -17.63883,7.88434 -26.19462,6.56596 -3.53923,-0.54532 -8.71881,-2.09338 -11.18407,-3.34274 l -1.85923,-0.94202 -2.06605,1.4586 c -7.24528,5.11518 -10.13483,7.01916 -15.73768,10.37008 -8.94174,5.34774 -15.57542,8.93927 -26.46752,14.3295 -9.83638,4.86784 -14.21726,6.75727 -23.99215,10.34748 -13.81884,5.07562 -16.71586,5.3 -25.53315,1.97734 -9.2054,-3.46888 -14.33109,-3.50122 -21.34902,-0.13492 -4.25532,2.04119 -6.74112,4.54485 -8.37533,8.4352 -1.05897,2.52095 -1.08998,2.78435 -1.09038,9.25925 -3.7e-4,6.0064 0.10281,7.0736 1.04427,10.8075 6.43179,25.5078 27.24481,55.707 49.32361,71.5678 10.36256,7.4441 20.2175,10.6243 27.49676,8.8732 z m 332.6980877,-4.1766 c 26.9906223,-2.7089 42.6351383,-9.1282 47.9263863,-19.6654 1.432152,-2.8521 1.847131,-5.4107 1.629855,-10.05 -0.303628,-6.4826 -2.02654,-10.8586 -5.977292,-15.1814 -9.978717,-10.9183 -31.5774723,-16.0135 -62.390175,-14.7179 -8.052799,0.3386 -19.521113,1.3811 -24.648259,2.2408 -4.528004,0.7591 -4.628196,0.7266 -8.991244,-2.917 -6.836333,-5.7088 -21.827312,-18.587 -32.709253,-28.0993 -9.367756,-8.18854 -36.308476,-33.95664 -59.123626,-56.5503 l -7.14052,-7.07123 v -1.87284 c 0,-1.78182 0.0967,-1.95774 1.98753,-3.61354 13.06643,-11.44245 24.76481,-26.63275 33.24926,-43.17378 8.69753,-16.95649 13.89477,-30.55904 15.86276,-41.51724 1.13925,-6.34349 1.21393,-17.1224 0.14422,-20.82499 -0.99274,-3.43633 -2.18064,-5.66295 -3.89304,-7.29701 -2.63521,-2.51467 -3.38998,-2.66682 -14.02832,-2.8281 -14.16027,-0.21467 -38.64718,-2.66647 -51.0309,-5.10953 -1.04727,-0.20659 -3.64381,-0.71774 -5.77009,-1.13588 -4.57488,-0.89971 -7.72168,-1.59533 -12.89047,-2.84966 -4.01053,-0.97321 -8.73256,-1.89957 -11.63335,-2.28215 l -1.73184,-0.22839 0.15967,3.65077 c 0.20324,4.64709 -0.52816,7.8439 -2.96027,12.93877 -2.68285,5.62006 -5.95141,9.94136 -12.39093,16.38158 -4.94314,4.9437 -7.44614,7.01391 -18.47549,15.28058 -7.01674,5.2591 -14.7285,10.96852 -17.13724,12.68756 -4.77676,3.40912 -5.53406,4.43074 -5.23715,7.06499 0.14062,1.24744 0.89725,2.4368 4.08891,6.42659 15.93603,19.92177 20.67144,29.07881 20.70174,40.03137 0.0167,6.04769 -1.43971,10.66938 -4.86464,15.43656 l -1.27177,1.77016 3.2864,2.63112 c 9.93511,7.95384 26.28181,21.95165 39.27817,33.63416 11.14418,10.01752 16.89698,15.43921 42.08146,39.65923 23.8176,22.9056 77.205131,70.8934 81.642335,73.3849 3.614187,2.0294 6.773095,2.6065 19.091923,3.4884 15.125745,1.0827 15.204044,1.085 32.364988,0.9629 9.897125,-0.071 17.0121477,-0.3046 20.8002617,-0.6848 z M -310.37331,956.96323 c 6.47221,-3.95913 13.39998,-8.67737 13.25584,-9.02801 -0.0557,-0.13564 -1.64373,-1.53808 -3.52882,-3.11632 -4.97763,-4.16763 -10.08988,-9.69069 -14.58395,-15.7557 l -2.00512,-2.70616 -2.77528,-0.2346 c -4.08049,-0.34486 -12.9756,-2.46025 -21.1938,-5.04002 -13.14289,-4.12567 -24.99533,-10.27822 -34.14384,-17.72402 -3.53305,-2.87547 -12.70578,-11.72214 -12.58891,-12.14144 0.0447,-0.16053 -0.792,-1.38429 -1.85943,-2.71951 -13.07685,-16.35669 -18.87914,-24.51662 -35.57072,-50.02408 -6.98821,-10.67913 -10.18268,-14.39034 -14.00736,-16.27322 -2.33598,-1.14998 -2.838,-1.25175 -6.17652,-1.25175 -3.33706,0 -3.84112,0.10209 -6.17152,1.24927 -11.46984,5.64661 -17.88392,29.48422 -13.77906,51.20941 1.41804,7.50496 5.32149,18.65545 9.31917,26.62096 7.32977,14.60458 19.26385,27.7211 34.41701,37.82701 18.96199,12.64587 45.88055,20.53034 76.56249,22.42507 1.04727,0.0649 8.07354,0.10221 15.61393,0.0842 l 13.7098,-0.0325 5.50609,-3.36811 z m 45.40597,-8.81037 c 3.02235,-0.70801 8.06558,-2.58795 8.68746,-3.23824 0.10473,-0.10943 1.14821,-0.92663 2.31885,-1.81573 10.75946,-8.17185 12.89201,-17.38384 6.85451,-29.60934 -2.63537,-5.33643 -6.20349,-10.58328 -13.34317,-19.62055 -3.38877,-4.28957 -6.48452,-8.418 -6.87944,-9.17447 -0.39494,-0.75636 -0.92206,-2.48238 -1.17139,-3.83564 -0.38239,-2.07522 -0.35468,-2.90287 0.17713,-5.28905 1.05507,-4.73436 1.96737,-5.8815 8.11923,-10.20973 2.97329,-2.09191 10.94211,-7.95644 17.70848,-13.03224 10.18347,-7.63916 13.19151,-10.11971 17.4639,-14.4013 9.73257,-9.75352 13.9949,-18.24369 12.34293,-24.58599 -1.15002,-4.41525 -4.64221,-7.75434 -10.3896,-9.93408 -1.81855,-0.68969 -4.58949,-1.78753 -6.15766,-2.43958 -9.19144,-3.82211 -21.56707,-2.72715 -34.75127,3.07469 -8.85169,3.89525 -19.67023,10.71161 -37.61099,23.69725 -17.75478,12.85109 -25.8829,20.68545 -29.6998,28.62654 -4.34637,9.04258 -4.00415,14.66909 1.79518,29.51404 1.97461,5.05457 7.8838,17.27225 10.77524,22.27849 13.14397,22.75743 27.99645,36.89677 41.97511,39.95946 3.22109,0.70573 8.85213,0.72268 11.7853,0.0349 z m 229.186642,-23.60361 c 6.457276,-0.78401 13.099815,-2.55067 18.293126,-4.86494 3.253977,-1.45006 9.6234397,-5.40269 14.4580587,-8.97186 16.0643113,-11.85994 28.4699743,-25.63349 32.6806293,-36.28412 3.57419,-9.04066 2.367121,-15.65142 -3.954167,-21.65603 -8.576325,-8.14671 -17.7340483,-9.68887 -28.1964113,-4.74827 -6.763769,3.19397 -12.4104797,7.5133 -24.3462787,18.6231 -3.762196,3.50186 -7.697276,6.93876 -8.744512,7.63763 -5.951007,3.97103 -14.258831,2.19258 -25.698301,-5.50157 -6.823538,-4.58947 -13.187998,-10.12562 -24.203701,-21.05382 l -7.630142,-7.56946 -0.450564,6.00815 c -0.756666,10.09019 -2.597512,18.34063 -6.056412,27.14414 -1.378857,3.50941 -6.198567,14.84147 -6.839737,16.08145 -0.52367,1.01272 -0.47176,1.11277 2.07497,3.99869 7.577785,8.58695 18.526535,17.30821 28.245725,22.49926 14.025144,7.4909 27.021232,10.27822 40.367717,8.65765 z M -81.480003,812.98134 c 17.235374,-1.41623 31.474929,-3.48503 50.225051,-7.29704 47.348281,-9.62618 83.650422,-25.24891 110.865028,-47.71107 5.30729,-4.38043 15.10038,-14.14597 19.14717,-19.09317 9.095594,-11.11937 15.752334,-22.82398 19.686874,-34.61556 0.86637,-2.59632 1.43727,-4.84704 1.26878,-5.00162 -0.1685,-0.15456 -1.42027,-0.66754 -2.78174,-1.13995 -7.13612,-2.4762 -9.04411,-4.24587 -7.99736,-7.41759 0.55639,-1.68581 2.04337,-2.85619 3.62877,-2.85619 0.68262,0 2.99273,0.69435 5.1336,1.54298 2.14095,0.84864 3.94014,1.49129 3.99833,1.4281 0.2599,-0.2823 0.94911,-8.24358 0.94911,-10.96389 0,-4.36456 -0.97442,-11.13018 -2.22772,-15.46757 -1.20444,-4.16822 -3.34056,-9.5376 -3.94246,-9.90958 -0.213,-0.13164 -2.08947,-0.20772 -4.16992,-0.16907 l -3.78261,0.0702 -1.31684,-1.31684 c -1.04913,-1.0491 -1.31683,-1.61711 -1.31683,-2.79351 0,-2.37443 1.40598,-3.82958 4.1424,-4.28723 l 1.28616,-0.21511 -1.63076,-2.09455 c -4.66357,-5.98976 -13.464854,-13.44684 -21.526194,-18.23848 -6.99562,-4.15819 -17.31656,-8.71302 -23.840063,-10.52111 l -2.152718,-0.59667 -0.250871,-2.74473 C 60.398992,594.98259 55.441438,576.9665 47.798862,560.27185 44.144725,552.2897 39.080451,543.06164 35.963987,538.70645 26.967683,526.13449 8.2981167,508.67158 -16.32392,489.79816 c -3.670115,-2.81322 -3.073228,-1.45007 -6.077972,-13.87962 -1.063274,-4.39856 -2.975291,-12.2817 -4.24889,-17.51808 -3.957399,-16.27034 -6.123098,-25.19486 -10.285151,-42.38269 -1.225181,-5.05952 -1.225973,-5.06128 -2.022759,-4.3795 -0.772148,0.66073 -9.507634,8.76024 -25.207272,23.37215 -4.181631,3.89191 -13.925327,12.95873 -21.652665,20.1485 l -14.049746,13.07231 -2.897075,-0.45938 c -14.87379,-2.35844 -26.8159,-3.22845 -40.59903,-2.9577 -19.89157,0.39074 -31.97919,1.91433 -50.32824,6.34365 -9.28878,2.24224 -22.90968,6.35585 -25.32431,7.64812 -0.67788,0.36278 -0.9269,0.20658 -30.5046,-19.13411 -2.77449,-1.81423 -6.92963,-4.52483 -9.23363,-6.02357 -2.30401,-1.49874 -6.20327,-4.04163 -8.66503,-5.65086 -24.91387,-16.28601 -37.53413,-24.51816 -38.20307,-24.91969 -0.25838,-0.1551 -0.36348,0.13086 -0.28769,0.78278 0.0657,0.56494 0.63789,5.48284 1.27155,10.92868 1.06889,9.1864 1.38648,11.8982 2.85442,24.37297 0.29577,2.51346 0.80694,6.88346 1.13595,9.71111 0.32899,2.82764 0.84607,7.19764 1.14904,9.71109 0.30296,2.51346 0.8086,6.79777 1.12364,9.52069 1.34509,11.62626 3.03707,25.87438 4.99721,42.08146 1.15263,9.53021 2.08342,17.8282 2.06844,18.43997 -0.0152,0.61863 -0.58621,1.88632 -1.28665,2.85621 -7.0866,9.81264 -9.57884,13.61504 -14.24745,21.73734 -6.8693,11.95098 -12.78957,24.99017 -17.22763,37.94322 -2.26718,6.61709 -5.70708,19.21745 -5.70708,20.90506 0,0.66095 0.50207,1.06046 2.38017,1.89395 13.16309,5.84168 26.90264,13.4494 35.32177,19.55799 7.32934,5.31786 8.37821,6.45207 8.37821,9.05986 0,2.00421 -2.0307,3.94269 -4.13025,3.94269 -1.34207,0 -1.97275,-0.34945 -4.89364,-2.71147 -4.29676,-3.47464 -11.45522,-8.18589 -18.12843,-11.931 -5.23945,-2.94044 -19.68364,-10.11133 -20.3671,-10.11133 -0.43544,0 -0.73326,2.39223 -1.27463,10.23772 -0.79438,11.51237 0.35003,25.01921 2.96427,34.98556 l 0.62433,2.38018 2.70448,-0.004 c 12.26986,-0.0152 28.02577,-2.49887 37.62986,-5.93183 2.91783,-1.04296 2.9452,-1.04521 4.45444,-0.36464 3.49483,1.57596 3.53579,6.03758 0.0717,7.80486 -2.24071,1.14313 -9.54939,3.2527 -15.07851,4.35226 -6.811,1.35448 -13.37527,2.12475 -20.48364,2.40362 -3.30672,0.12973 -6.09798,0.37465 -6.20281,0.54427 -0.10485,0.16962 0.43192,1.81383 1.19277,3.65378 6.30197,15.23981 18.80309,32.89709 34.04894,48.09262 14.88038,14.83126 30.93529,26.42989 50.02877,36.14257 31.91748,16.23608 68.55877,25.40607 110.31303,27.60737 7.04443,0.37138 41.808279,-0.12259 48.745931,-0.69265 z m -11.23442,-31.65889 c -15.219687,-1.68634 -29.973147,-6.75299 -40.748537,-13.99388 -13.3914,-8.99882 -22.55269,-22.72487 -26.66669,-39.95379 -1.86015,-7.79015 -2.49947,-13.49126 -2.72413,-24.29253 -0.30538,-14.68187 0.24419,-17.2198 4.28341,-19.78139 3.06658,-1.94478 4.16901,-1.88071 12.04246,0.69988 23.22107,7.61092 49.918837,13.32882 74.759004,16.01128 12.35517,1.33422 22.12533,1.73555 42.271869,1.73647 20.3761967,6e-4 25.8151417,-0.27392 35.7978237,-1.8089 7.3552923,-1.13099 9.1024743,-1.09464 11.3740993,0.23661 3.327642,1.9501 5.008842,5.91791 4.076495,9.62061 -1.699556,6.74976 -8.299224,19.7259 -14.2923103,28.10135 -5.501391,7.68835 -13.412895,16.13906 -20.0092697,21.37311 -10.789712,8.56135 -23.935202,15.10698 -37.414627,18.63017 -13.60285,3.55544 -29.822306,4.85339 -42.749597,3.42101 z m 25.896307,-8.72076 c 14.801444,-1.88768 27.276197,-5.98283 38.273124,-12.56407 16.386844,-9.8068 29.6223427,-24.44096 37.9585827,-41.96962 2.2861383,-4.80724 4.4318353,-10.39332 4.0180763,-10.46091 -0.336314,-0.0549 0.31814,-0.13693 -6.2255473,0.77991 -9.192727,1.288 -14.719425,1.60722 -31.5284437,1.82103 -27.135819,0.34519 -45.251921,-0.84904 -67.636997,-4.45867 -18.461779,-2.97699 -39.369909,-7.94783 -55.521449,-13.20004 -3.53519,-1.14959 -6.54016,-1.97799 -6.67766,-1.84091 -0.45703,0.45558 -0.51678,15.15513 -0.0813,19.9904 2.16637,24.05268 10.18835,39.32285 26.3209,50.10313 9.69106,6.47586 21.66958,10.33266 38.822287,12.49983 2.699036,0.34103 17.847875,-0.135 22.278441,-0.70008 z M -51.77543,671.64723 c -4.377196,-0.79635 -8.437165,-2.2466 -14.28103,-5.1012 -15.270457,-7.4593 -25.417413,-17.41947 -25.996882,-25.51834 -0.323669,-4.52383 1.436372,-7.66718 5.49546,-9.81457 5.600183,-2.96272 11.665986,-3.8871 27.356301,-4.16893 22.619829,-0.40629 34.172725,1.6531 37.86467,6.74968 1.464839,2.02216 1.713156,4.12901 0.982719,8.33889 -2.078009,11.9769 -10.4845,24.4312 -19.100585,28.29788 -4.104363,1.84191 -7.202226,2.14781 -12.320653,1.21659 z m -120.88279,-10.87969 c -6.58151,-0.53153 -13.69644,-2.51925 -20.33766,-5.6818 -19.73431,-9.39747 -38.03517,-31.5542 -46.09124,-55.80232 -3.14142,-9.45542 -4.35067,-16.77037 -4.37153,-26.44421 -0.0134,-6.15721 0.12725,-8.1527 0.82242,-11.67813 2.45502,-12.45025 7.51931,-21.34379 15.68008,-27.53624 3.81309,-2.89339 5.77499,-3.99747 9.57254,-5.38703 4.53511,-1.65943 8.07546,-2.24126 13.59624,-2.23443 19.81185,0.0245 41.90522,14.34679 58.9795,38.23415 14.57211,20.38673 20.61585,46.64062 15.47845,67.23799 -0.92131,3.69367 -3.95289,10.58273 -6.06031,13.77143 -2.43448,3.68361 -7.12421,8.30211 -10.14627,9.99214 -4.90616,2.74368 -12.39582,5.03872 -17.59646,5.39206 -1.69493,0.11519 -3.68149,0.2616 -4.41457,0.32544 -0.7331,0.0639 -3.03313,-0.0212 -5.11119,-0.18905 z m 11.8688,-9.05997 c 7.4931,-1.45253 13.07736,-4.34559 16.51102,-8.55389 7.49941,-9.19125 10.13037,-25.07667 6.81883,-41.17101 -4.03996,-19.63461 -15.57668,-38.35451 -32.44935,-52.65363 -16.30436,-13.81749 -34.19956,-18.41528 -46.90398,-12.051 -9.40131,4.70956 -15.58287,13.90646 -17.5661,26.13474 -0.7213,4.44747 -0.73019,13.37489 -0.0183,18.38128 2.29921,16.16884 9.17505,31.41554 20.55243,45.5736 3.92026,4.87839 10.55457,11.22145 15.26036,14.5904 3.92264,2.80831 10.85997,6.49241 15.04268,7.98849 7.05442,2.52324 15.46302,3.17406 22.75238,1.76102 z m -5.62955,-28.55191 c -6.96522,-1.45714 -11.67596,-9.26011 -10.11372,-16.75261 1.00935,-4.84091 3.34591,-8.04818 7.27096,-9.98047 2.17555,-1.07102 2.72518,-1.18561 5.02997,-1.04865 10.65878,0.63333 16.30103,13.00196 10.15509,22.26127 -2.76519,4.16589 -7.88049,6.45386 -12.3423,5.52046 z M 8.8276187,637.55839 c -13.854401,-1.37441 -28.8591577,-9.48122 -42.2594897,-22.83208 -13.838181,-13.78709 -23.485402,-30.63815 -28.242819,-49.33235 -1.72066,-6.76151 -2.38987,-12.08726 -2.39005,-19.02227 -1.81e-4,-6.8511 0.618237,-11.15092 2.378278,-16.53698 1.9605,-5.99928 4.256883,-9.95088 8.175497,-14.06793 11.510635,-12.09377 29.431958,-13.63184 48.2467817,-4.14069 8.422651,4.24882 14.859012,9.01942 22.4287143,16.62409 16.08529,16.15959 27.180519,37.63743 30.262771,58.58194 0.85612,5.8172 0.765806,15.82737 -0.187031,20.73828 -3.095058,15.95169 -13.269832,27.08193 -27.039285,29.57839 -3.253366,0.58985 -7.87766,0.75639 -11.3733673,0.4096 z m 10.8173373,-8.93561 c 10.805263,-2.756 17.427006,-10.99678 19.425128,-24.17488 1.899881,-12.52932 -1.190178,-27.79355 -8.75,-43.22394 -15.13782,-30.89787 -45.1613,-51.94861 -66.255127,-46.45436 -4.488364,1.16909 -9.397807,4.33817 -12.527076,8.08637 -10.591521,12.68644 -9.15382,38.66826 3.440092,62.16686 11.953727,22.30421 32.08173,39.50254 50.9700967,43.55138 3.555226,0.76208 10.7987383,0.78776 13.6968863,0.0486 z M 9.8110697,602.53076 c -2.923822,-0.73285 -5.564324,-2.66719 -7.470974,-5.47287 -4.764062,-7.01057 -2.34071599892,-17.361 4.971705,-21.23449 2.412186,-1.2778 7.7614903,-1.27792 10.2233763,-2.3e-4 8.210131,4.26094 10.137148,15.8364 3.831837,23.01774 -2.527624,2.87882 -7.921016,4.60094 -11.5559443,3.68985 z"
           id="path8168" />
      </g>
    </g>
  </g>
</svg>
