<?xml version="1.0" encoding="UTF-8" standalone="no"?>
<!-- Created with Inkscape (http://www.inkscape.org/) -->

<svg
   width="300mm"
   height="300mm"
   viewBox="0 0 300 300"
   version="1.1"
   id="svg5"
   inkscape:version="1.1 (c68e22c387, 2021-05-23)"
   sodipodi:docname="scratch.svg"
   xmlns:inkscape="http://www.inkscape.org/namespaces/inkscape"
   xmlns:sodipodi="http://sodipodi.sourceforge.net/DTD/sodipodi-0.dtd"
   xmlns="http://www.w3.org/2000/svg"
   xmlns:svg="http://www.w3.org/2000/svg">
  <sodipodi:namedview
     id="namedview7"
     pagecolor="#ffffff"
     bordercolor="#666666"
     borderopacity="1.0"
     inkscape:pageshadow="2"
     inkscape:pageopacity="0.0"
     inkscape:pagecheckerboard="0"
     inkscape:document-units="mm"
     showgrid="false"
     inkscape:zoom="0.23716796"
     inkscape:cx="921.28803"
     inkscape:cy="-440.61602"
     inkscape:window-width="1920"
     inkscape:window-height="1017"
     inkscape:window-x="1912"
     inkscape:window-y="-8"
     inkscape:window-maximized="1"
     inkscape:current-layer="g6459" />
  <defs
     id="defs2" />
  <g
     inkscape:label="Calque 1"
     inkscape:groupmode="layer"
     id="layer1">
    <g
       id="g6459"
       transform="matrix(0.69157316,0,0,0.69157316,-257.57707,-131.82207)">
      <g
         id="g7532"
         transform="matrix(0.61262466,0,0,0.61262466,351.41014,180.44311)">
        <path
           style="fill:#fdfdfd;stroke-width:0.382582"
           d="m 365.89566,551.44022 c -7.81631,-6.62812 -22.48208,-19.86794 -26.59396,-24.00816 -8.51744,-8.57622 -11.42036,-15.85691 -9.54615,-23.94232 1.38157,-5.96009 3.62933,-10.07177 10.77117,-19.70296 9.7529,-13.15236 16.82532,-18.56103 25.73049,-19.67768 7.27796,-0.91257 15.53694,1.59101 25.08014,7.60271 13.6413,8.59325 20.46813,17.66105 20.46813,27.18695 0,4.43263 -1.0026,7.03947 -6.62131,17.21618 -3.86044,6.99211 -11.62578,17.888 -17.17762,24.10266 -6.11606,6.84626 -15.44364,15.32504 -16.82131,15.29061 -0.27902,-0.007 -2.65933,-1.83758 -5.28958,-4.06799 z M 87.323312,538.01775 C 76.390945,526.81029 68.471899,513.2613 63.485197,497.23231 60.485285,487.58953 59.648242,481.51 59.932538,471.42897 c 0.303468,-10.76096 1.747841,-17.27227 5.53319,-24.94392 4.372646,-8.86193 10.269778,-12.70397 17.669939,-11.51223 5.960675,0.95994 8.948188,3.86595 17.833033,17.34657 3.57111,5.41831 8.03684,12.2187 9.92385,15.11198 5.86547,8.99335 15.07398,21.58836 24.21993,33.12699 1.9744,2.49096 3.53323,4.57851 3.46405,4.63904 -0.0692,0.0605 -1.41698,-0.13406 -2.99513,-0.43243 -4.19578,-0.79329 -15.24202,-1.09113 -19.69222,-0.53099 -11.65323,1.46678 -20.335882,6.69687 -24.363512,14.67557 -2.491939,4.93649 -3.338008,12.66709 -2.091281,19.1082 0.274916,1.42034 0.479173,2.58243 0.453903,2.58243 -0.02525,0 -1.179511,-1.16209 -2.564978,-2.58243 z M 410.65773,427.10885 c -0.73647,-0.0686 -3.7493,-0.3053 -6.69518,-0.52605 -33.29093,-2.49493 -65.09129,-13.0527 -87.99382,-29.21402 -7.84269,-5.53428 -17.53492,-14.53693 -22.90868,-21.27879 -11.58071,-14.52908 -18.00659,-30.39944 -19.39124,-47.89173 -1.46509,-18.50843 4.52306,-38.20954 16.91246,-55.64227 5.35043,-7.52841 12.76856,-14.96286 19.56505,-19.60809 l 1.82924,-1.25023 2.95304,2.76758 c 20.59579,19.3023 44.59086,24.78286 65.3296,14.9215 4.27642,-2.03344 7.70681,-4.90622 10.91648,-9.14194 1.91073,-2.52153 4.90646,-8.04854 5.69247,-10.50247 0.25277,-0.78907 0.66638,-1.43468 0.91911,-1.43468 0.53788,0 4.87632,1.12384 19.56666,5.06864 5.89176,1.58211 12.70745,3.35852 15.14599,3.94759 l 4.43366,1.07103 1.09713,2.12978 c 1.73933,3.37634 8.56754,9.93468 14.3021,13.73682 8.19318,5.43223 18.15507,9.75505 24.89517,10.80289 3.54363,0.5509 7.67869,0.23654 10.43025,-0.79296 8.91125,-3.33412 18.27605,-16.45038 20.33966,-28.48757 l 0.45638,-2.6622 4.76077,-2.88524 c 2.61843,-1.58688 5.232,-3.2053 5.80802,-3.5965 1.04391,-0.70903 1.06021,-0.7064 5.17851,0.83715 9.88037,3.70318 20.72427,4.38204 28.59084,1.78987 9.98148,-3.28907 17.41799,-10.83381 21.25728,-21.56662 l 0.87094,-2.43467 3.08916,0.25528 c 13.24089,1.0942 23.67673,4.43292 37.14059,11.88235 8.66337,4.79336 19.5256,13.84745 23.86939,19.89611 l 1.23563,1.72054 h -1.40109 c -1.08325,0 -1.6961,0.29506 -2.70184,1.30078 -1.09341,1.09341 -1.30077,1.57489 -1.30077,3.0202 0,1.36936 0.22599,1.96132 1.10994,2.90762 1.25108,1.33929 1.2121,1.33059 6.08799,1.35885 l 3.56344,0.0207 1.15953,2.67807 c 3.85138,8.89529 5.39911,18.58752 4.52089,28.31106 -0.24703,2.73546 -0.52911,5.0562 -0.62682,5.15721 -0.0977,0.10101 -1.2427,-0.2164 -2.54451,-0.70535 -6.2251,-2.33812 -6.30457,-2.35886 -7.41857,-1.93679 -2.52477,0.95659 -3.73197,3.43933 -2.78447,5.72674 0.73249,1.7684 1.95048,2.42726 9.99587,5.40718 l 1.01197,0.37482 -0.95336,3.12651 c -3.6294,11.90286 -11.3429,25.68035 -20.514,36.64117 -26.80314,32.03366 -71.64131,54.97097 -131.19316,67.11282 -27.75803,5.65949 -48.29843,7.88696 -71.68046,7.77326 -6.9235,-0.0337 -13.19077,-0.11734 -13.92724,-0.1859 z m 47.05757,-31.89386 c 36.18195,-3.12604 65.09809,-20.95301 83.20179,-51.2944 5.08157,-8.51665 9.32451,-18.34926 9.64374,-22.34851 0.15808,-1.98037 0.0344,-2.58398 -0.89956,-4.39706 -1.34482,-2.61011 -3.67065,-4.44714 -6.08983,-4.80992 -1.13309,-0.16992 -3.61436,0.0211 -6.98338,0.53768 -8.78377,1.34678 -11.66775,1.59308 -24.10602,2.05876 -18.41841,0.68957 -44.64114,-0.26436 -60.28958,-2.19322 -24.58888,-3.03087 -50.1937,-8.71961 -72.21289,-16.04386 -2.88004,-0.958 -5.70074,-1.74181 -6.26822,-1.74181 -2.19411,0 -4.18534,0.93467 -6.14895,2.88632 -2.81885,2.80168 -2.95313,3.70256 -2.70514,18.14874 0.20919,12.1858 0.62975,16.21048 2.53931,24.30088 2.28292,9.67225 6.05673,18.22535 11.35839,25.74305 3.163,4.48513 10.86376,11.80166 15.9547,15.1587 4.35305,2.87044 10.28797,5.91613 15.61955,8.01566 5.73398,2.258 15.64626,4.65449 23.85731,5.768 4.59519,0.62315 17.42648,0.73823 23.52878,0.21099 z m -16.25973,-8.27425 c -3.34266,-0.1743 -8.60725,-0.86437 -13.19907,-1.73011 -14.68479,-2.76867 -27.23413,-8.72007 -36.02486,-17.0845 -10.28438,-9.78563 -15.67339,-21.49825 -18.16323,-39.47628 -0.6743,-4.86893 -1.02578,-24.1073 -0.45091,-24.68271 0.14381,-0.14396 2.01016,0.36011 4.14742,1.12017 17.33968,6.16628 49.50157,13.35174 71.91616,16.06715 30.64243,3.71216 69.65671,3.70673 90.82386,-0.0127 l 1.49103,-0.26199 -0.27427,1.1113 c -0.5057,2.04895 -3.72424,9.32014 -6.04349,13.65315 -10.44866,19.5211 -26.44479,34.47749 -46.0598,43.066 -8.50024,3.72187 -18.40934,6.28681 -28.84246,7.46585 -5.23594,0.5917 -15.12877,0.98324 -19.32038,0.76463 z M 350.78368,264.74413 c -16.83708,-3.49737 -32.1921,-15.46909 -44.29969,-34.53879 -16.01847,-25.22939 -18.63799,-55.11262 -6.27785,-71.61717 3.16919,-4.23184 8.48967,-8.17753 13.45914,-9.98136 10.81701,-3.92636 26.0105,-0.23083 39.1848,9.53094 17.24514,12.77814 30.82603,31.89886 35.9716,50.64497 5.52219,20.11815 3.00461,38.56685 -6.63882,48.64869 -4.8047,5.02312 -14.03953,8.1384 -23.89331,8.06019 -2.3567,-0.0187 -5.50849,-0.33258 -7.50587,-0.74747 z m 17.87189,-29.59953 c 2.58908,-1.22579 4.97348,-3.74955 6.35954,-6.73119 1.317,-2.83314 1.6047,-7.78812 0.62514,-10.7657 -1.6016,-4.86834 -5.4656,-8.33785 -10.5564,-9.47872 -7.49871,-1.6805 -15.26838,6.58516 -14.35994,15.27663 0.37522,3.58991 1.6038,6.29119 4.02057,8.84004 4.00092,4.21958 8.90736,5.22793 13.91109,2.85894 z m 167.489,6.6591 c -11.25995,-1.82554 -24.47012,-9.47066 -35.38882,-20.48057 -7.91148,-7.97759 -13.81292,-16.27372 -18.76927,-26.38563 -16.71661,-34.10497 -10.09572,-65.50216 14.39116,-68.24506 9.02117,-1.01051 19.60571,2.29421 30.43856,9.50353 19.2416,12.80541 34.97853,36.49187 39.91671,60.08056 3.66781,17.52061 0.0626,33.71264 -9.04217,40.6112 -4.83339,3.66216 -8.56042,4.94886 -14.85098,5.12706 -2.52504,0.0715 -5.53788,-0.0234 -6.69519,-0.21109 z m 10.08211,-27.31022 c 2.5646,-1.25474 4.97207,-3.80976 6.28712,-6.67248 1.32897,-2.89296 1.62777,-7.82727 0.65597,-10.83271 -1.92645,-5.95795 -6.45102,-9.56595 -12.03993,-9.60094 -2.90249,-0.0182 -6.2114,1.22462 -8.19107,3.07644 -2.71989,2.5443 -4.80688,7.38409 -4.82275,11.18415 -0.009,2.16015 1.07222,5.74421 2.40165,7.96109 1.46686,2.44596 3.38352,4.04968 6.32381,5.29138 2.88234,1.21722 6.37508,1.06577 9.3852,-0.40693 z"
           id="path7540" />
        <path
           style="fill:#fda918;stroke-width:0.382582"
           d="m 182.44767,715.41754 c -10.10621,-2.47645 -19.75457,-8.57392 -31.12344,-19.6691 -15.9203,-15.53699 -29.34362,-36.47069 -35.40088,-55.20767 -4.25578,-13.16441 -4.15346,-23.33657 0.30003,-29.82834 2.71222,-3.95356 8.98648,-6.96356 15.17093,-7.27808 4.33916,-0.22063 7.33352,0.36495 13.1221,2.56617 6.98642,2.65672 11.67092,2.71618 18.85304,0.2393 14.36893,-4.95535 24.51124,-9.34157 37.82473,-16.35801 15.35441,-8.09203 23.40947,-12.87097 32.08417,-19.03509 l 4.91282,-3.49098 3.69125,1.50148 c 4.33698,1.76408 7.92962,2.62707 12.34977,2.96654 7.76914,0.59667 17.41782,-2.19618 23.52975,-6.81073 1.25688,-0.94895 2.20565,-1.41394 2.514,-1.23214 1.5305,0.9024 19.01786,15.41985 26.63335,22.11017 l 4.33093,3.80478 -6.05255,3.98585 c -36.74401,24.1975 -70.46116,40.69649 -104.56736,51.16848 -2.82779,0.86823 -4.3156,2.07505 -5.50789,4.46768 -1.08522,2.17777 -1.34477,5.47233 -0.58793,7.46295 0.22443,0.59032 1.58017,2.79659 3.01273,4.90282 7.80929,11.48166 12.11735,20.406 13.58472,28.14134 0.74159,3.90938 0.74252,6.3786 0.003,9.51355 -0.82025,3.47977 -2.23659,5.84065 -5.15648,8.59512 -2.61509,2.46693 -7.25989,5.07985 -12.04391,6.7753 -2.6266,0.93082 -8.97186,1.32258 -11.47746,0.70861 z m 303.00481,-3.64948 c -0.63126,-0.0585 -4.33274,-0.29543 -8.22551,-0.52651 -15.60417,-0.92635 -18.69846,-1.36654 -22.7806,-3.24093 -2.91528,-1.33858 -5.19099,-3.19046 -19.49469,-15.86398 -27.11247,-24.02255 -53.18572,-48.05825 -75.36862,-69.47885 -24.65394,-23.80666 -51.01522,-47.29936 -70.09961,-62.47152 l -3.51563,-2.79492 1.27825,-1.79606 c 6.43091,-9.0359 6.56557,-20.33232 0.38625,-32.40082 -3.13953,-6.13164 -6.86045,-11.47684 -15.9338,-22.88934 -4.20059,-5.28353 -4.50897,-5.78551 -4.50897,-7.33979 0,-2.70811 0.48351,-3.3777 4.42193,-6.12357 5.73471,-3.99828 28.29162,-21.00592 31.83657,-24.00441 9.1441,-7.73446 16.4789,-17.51666 19.07602,-25.44111 0.95468,-2.91302 1.0963,-3.92579 1.0963,-7.84048 0,-3.89912 0.0827,-4.49534 0.62325,-4.49534 1.14303,8e-5 8.90096,1.44605 12.00195,2.23699 20.51892,5.2338 50.99662,9.22818 70.47635,9.23664 8.09907,0.004 9.07098,0.0751 11.04315,0.81295 5.35045,2.00186 7.74372,7.08407 8.08663,17.17226 0.32336,9.51351 -1.57115,19.78721 -5.50294,29.84138 -3.80673,9.73434 -12.49447,28.48766 -14.0903,30.41526 -0.34841,0.42084 0.50015,-1.42631 1.88567,-4.1048 2.84136,-5.49273 3.66135,-8.12933 3.66135,-11.77235 0,-9.5259 -6.82683,-18.5937 -20.46813,-27.18695 -9.5432,-6.0117 -17.80218,-8.51528 -25.08014,-7.60271 -6.27842,0.78724 -10.97741,3.34067 -16.85086,9.15668 -4.21018,4.16899 -12.19509,14.48195 -15.40336,19.89425 -4.71783,7.95889 -5.90226,15.10055 -3.57003,21.52578 2.48579,6.84825 5.66724,10.34222 25.71642,28.24254 8.01434,7.15535 14.53077,12.59252 15.09209,12.59252 0.26073,0 1.16462,-0.5469 2.00864,-1.21538 l 1.53453,-1.21535 -0.61867,1.19637 c -0.34027,0.658 -0.62139,1.85051 -0.62468,2.65003 -0.007,1.68114 -2.66522,-1.02746 33.67986,34.31832 13.41474,13.04589 26.09511,24.98294 32.5128,30.60685 15.06967,13.20577 35.87531,30.93626 37.02,31.54835 0.84034,0.4493 1.83455,0.40963 7.13297,-0.28483 18.59443,-2.4372 35.15093,-2.89022 49.197,-1.34619 6.66427,0.73256 10.67453,1.4605 15.86001,2.87892 17.71621,4.84594 26.69613,14.28546 26.70455,28.07137 0.004,4.19298 -0.80155,7.31359 -2.63132,10.21218 -6.42255,10.174 -23.32686,16.3004 -50.97268,18.47331 -6.4765,0.50906 -32.22739,0.75763 -36.592,0.35324 z M 186.46478,575.03002 c -19.49132,-0.66871 -36.461,-3.59546 -53.22965,-9.18043 -14.60383,-4.86396 -26.11236,-10.97145 -36.485789,-19.36277 -6.770761,-5.47705 -6.726952,-5.4267 -7.301177,-8.39576 -1.260148,-6.51568 -0.425343,-14.2234 2.077504,-19.18151 4.02763,-7.9787 12.710282,-13.20879 24.363512,-14.67557 4.37971,-0.5513 15.45733,-0.26681 19.5727,0.5026 l 2.74985,0.51411 4.5192,4.38221 c 12.2122,11.84194 22.47668,18.35574 37.8139,23.99645 7.36558,2.70891 21.4459,6.32959 26.46285,6.80483 l 2.75286,0.26077 2.84672,3.68277 c 4.68686,6.06338 11.24865,12.8787 16.10226,16.72437 0.82017,0.64986 1.38959,1.34596 1.26539,1.54693 -0.36655,0.59308 -8.47882,5.9599 -14.04807,9.29372 l -5.16161,3.08981 -5.1681,0.004 c -2.84246,0 -6.28717,0.0703 -7.6549,0.15296 -1.36773,0.0826 -6.53258,0.0115 -11.47745,-0.1582 z m 63.89117,-12.41015 c -8.44767,-1.90388 -16.78518,-7.38693 -25.22211,-16.58699 -10.93568,-11.92484 -21.70408,-30.10299 -28.71958,-48.48157 -3.35439,-8.78756 -4.35731,-14.429 -3.47048,-19.52151 1.9872,-11.41134 10.7865,-20.95079 35.78028,-38.78978 19.67258,-14.04106 28.97842,-19.58532 39.12412,-23.30937 7.42212,-2.72433 10.42196,-3.26461 18.08788,-3.25776 7.35949,0.007 7.54566,0.0461 15.87714,3.37196 5.42087,2.16392 7.13754,3.07014 9.09237,4.79987 7.92064,7.00856 5.07062,17.41689 -8.49865,31.0373 -4.94144,4.96006 -7.20495,6.80938 -20.13545,16.45102 -8.01249,5.97451 -15.89495,11.77242 -17.51657,12.88421 -1.62163,1.11178 -3.28802,2.57515 -3.70311,3.25194 -1.46176,2.38333 -2.33136,5.34987 -2.3765,8.1071 -0.0704,4.29892 0.70281,5.9498 5.78546,12.35288 9.62079,12.12019 12.60617,16.39478 15.51452,22.21423 2.42717,4.85665 3.34212,7.82866 3.56781,11.58932 0.32045,5.33943 -0.90052,8.99615 -4.53379,13.57852 -4.09247,5.16149 -10.5594,9.11276 -17.09907,10.44747 -2.6392,0.53867 -8.88094,0.46365 -11.55427,-0.13884 z m 125.48684,-10.21218 c 0.31563,-0.31498 2.72589,-2.62153 5.35614,-5.12564 4.21724,-4.01501 4.37544,-4.13299 1.33904,-0.99869 -1.89378,1.95488 -4.30405,4.26139 -5.35615,5.12568 -1.0521,0.86425 -1.65466,1.31367 -1.33903,0.99865 z m 101.33093,-13.53728 c -13.48712,-1.84025 -27.70463,-8.50624 -41.0743,-19.25806 -3.11616,-2.50598 -11.44857,-10.5306 -13.63058,-13.12707 l -1.50152,-1.78673 1.76221,-3.95199 c 2.93987,-6.59315 6.53044,-15.6023 7.75034,-19.44656 2.27185,-7.15929 3.80072,-16.1932 3.98995,-23.57615 l 0.0993,-3.87322 8.22757,8.08162 c 18.11476,17.79331 28.90207,25.54277 38.95781,27.98682 3.45728,0.8403 6.5024,0.62747 9.24544,-0.6461 2.09811,-0.97421 3.5217,-2.17227 12.85746,-10.82083 9.51045,-8.81041 15.3449,-13.22766 21.45994,-16.24734 5.89857,-2.91275 12.08706,-3.82069 17.11529,-2.511 4.55931,1.18754 9.93462,4.64726 13.69379,8.81373 5.37409,5.95642 5.47578,14.56482 0.28571,24.18686 -6.63921,12.30866 -23.91913,28.88241 -40.14067,38.50032 -11.25801,6.67495 -25.68054,9.5064 -39.09772,7.6757 z m -72.25471,-22.37288 c 0.22522,-0.42084 0.49559,-0.76517 0.6008,-0.76517 0.10521,0 0.007,0.34433 -0.21822,0.76517 -0.22523,0.42084 -0.4956,0.76516 -0.60081,0.76516 -0.10521,0 -0.007,-0.34432 0.21823,-0.76516 z m -3.44324,-88.76136 c -45.17502,-2.0783 -81.95756,-11.0961 -115.34842,-28.27934 -27.96375,-14.39043 -51.14626,-34.00108 -68.55273,-57.99049 -6.97204,-9.6088 -13.44399,-20.91985 -16.11061,-28.15655 l -0.78892,-2.14099 5.99827,-0.23794 c 12.20633,-0.48418 24.81421,-2.66801 34.01842,-5.89237 4.1686,-1.46032 5.59213,-3.30708 4.67986,-6.07127 -0.92253,-2.79531 -3.39782,-3.49546 -7.26371,-2.05457 -7.9661,2.96912 -20.82929,5.11428 -33.53549,5.59262 l -6.56886,0.2473 -0.43971,-1.63297 c -2.43766,-9.05275 -3.22276,-15.77626 -3.24069,-27.75283 -0.0134,-8.94459 0.54419,-17.89978 1.15258,-18.51107 0.24828,-0.24945 2.37179,0.70433 10.11811,4.54457 12.78584,6.33859 21.63267,11.69388 28.40807,17.1964 1.84192,1.49589 3.86379,2.82277 4.49304,2.94862 2.46028,0.49205 4.97449,-1.63866 4.97449,-4.21571 0,-1.88009 -1.45587,-3.43972 -7.22474,-7.73963 -8.01593,-5.9748 -22.89634,-14.33369 -36.08484,-20.27024 -2.79462,-1.25794 -3.30267,-1.62181 -3.16108,-2.26399 3.77334,-17.11372 9.16694,-32.05389 17.60993,-48.77919 5.25032,-10.40074 12.80572,-22.82289 18.15677,-29.85232 3.31194,-4.35074 3.26137,-4.15849 2.53356,-9.63166 -0.64791,-4.8723 -1.10099,-8.68916 -5.59933,-47.1708 -1.47584,-12.625201 -4.04646,-34.575195 -5.7125,-48.777765 -1.66604,-14.202574 -2.97972,-25.872303 -2.91928,-25.932739 0.0604,-0.06044 6.28759,3.930232 13.83812,8.868151 7.55054,4.937919 15.88027,10.379518 18.51052,12.092444 2.63025,1.712926 6.80429,4.435933 9.27564,6.051124 2.47136,1.615188 13.55575,8.857527 24.632,16.094078 l 20.13862,13.157372 6.54842,-2.156239 c 26.09609,-8.5928 47.91715,-12.11761 74.92017,-12.102035 11.56533,0.0067 22.00408,0.833469 34.12182,2.702607 4.83048,0.745086 4.95225,0.745989 5.73873,0.0425 2.4318,-2.175211 47.67295,-44.217091 55.8061,-51.859729 2.89679,-2.722093 5.36207,-4.854087 5.47838,-4.737771 0.1163,0.116316 4.38596,17.388291 9.48807,38.382163 l 9.27661,38.170683 2.2699,1.722536 c 15.8802,12.05088 27.90548,22.39193 39.19233,33.70321 12.59031,12.61758 16.3742,17.84191 23.70707,32.73185 7.12834,14.47466 11.89963,28.23317 14.73824,42.49925 1.04819,5.26815 2.40253,16.43972 2.03721,16.80502 -0.12775,0.12778 -1.58512,-0.024 -3.23852,-0.33735 -1.65341,-0.31332 -5.20855,-0.78295 -7.90028,-1.04362 -3.34568,-0.324 -4.84111,-0.61186 -4.72676,-0.90988 0.092,-0.23976 0.48661,-1.88926 0.87696,-3.66557 0.9871,-4.49232 0.99612,-18.0051 0.0157,-23.31518 -2.70118,-14.62769 -8.11314,-27.76697 -16.73964,-40.64076 -13.66624,-20.39496 -32.16059,-34.34647 -50.92776,-38.41814 -4.80312,-1.04207 -13.23446,-0.95263 -17.52814,0.18595 -4.00513,1.06204 -8.76292,3.36462 -11.94466,5.78071 -12.95273,9.83582 -17.54903,28.79552 -12.52558,51.66766 2.55064,11.61317 9.58433,27.11514 16.92485,37.30173 5.55524,7.70911 14.29926,16.92347 20.93575,22.06194 4.19846,3.25075 9.03846,6.35757 13.0333,8.36615 l 3.17788,1.59781 -0.93216,0.72089 c -1.16768,0.903 -9.52127,5.95517 -10.41158,6.29682 -0.57165,0.21936 -0.65904,-0.0112 -0.65904,-1.73878 0,-4.7731 -3.05897,-7.27153 -11.22468,-9.16776 -5.64056,-1.30986 -12.01437,-1.74046 -25.31188,-1.71003 -13.47633,0.0308 -19.39874,0.52388 -24.99736,2.08105 -4.942,1.37453 -8.34365,3.64786 -9.86732,6.59433 -0.88748,1.71621 -1.08206,5.45155 -0.39858,7.6511 0.40355,1.29862 0.4389,1.81573 0.12392,1.81188 -0.66121,-0.008 -9.5844,-2.27995 -20.33503,-5.17738 -5.2605,-1.41777 -11.63879,-3.1128 -14.17396,-3.76671 l -4.60943,-1.18895 0.51859,-1.72162 c 2.01315,-6.68334 2.83953,-16.7658 2.0226,-24.67652 -2.02485,-19.60743 -9.6872,-36.80319 -23.84602,-53.51491 -12.79833,-15.10576 -27.89035,-25.10405 -43.50602,-28.82215 -4.36554,-1.03944 -14.77572,-0.9294 -18.9378,0.20019 -10.5469,2.86241 -19.96553,10.89307 -24.76444,21.11506 -9.09831,19.37996 -5.62446,47.88733 8.72466,71.597 3.86563,6.38733 8.72071,12.99159 12.58247,17.11565 l 1.92698,2.05787 -1.11325,0.8115 c -8.81979,6.42914 -14.87101,12.42981 -20.44839,20.27755 -21.88886,30.79911 -22.80899,66.04863 -2.52283,96.64753 6.62748,9.99667 17.00786,20.47184 27.91029,28.16526 12.4354,8.77512 28.41942,16.38858 44.37949,21.13871 6.60503,1.96582 19.4562,4.9723 24.67653,5.77297 8.36289,1.28272 10.6805,1.58312 16.64231,2.15715 3.57714,0.3444 11.75483,0.74783 18.17264,0.89647 6.41781,0.14867 9.58734,0.30048 7.04344,0.3374 -2.5439,0.0367 -7.70875,0.13979 -11.47745,0.22866 -3.7687,0.0889 -10.03715,0.0153 -13.92992,-0.16397 z m 95.19114,-8.29319 c 0.27619,-0.11053 0.60616,-0.0969 0.7333,0.0302 0.12713,0.12713 -0.0989,0.21757 -0.50214,0.20097 -0.44571,-0.0184 -0.53634,-0.10904 -0.23116,-0.23116 z m 10.71229,-2.29549 c 0.27619,-0.11053 0.60616,-0.0969 0.7333,0.0302 0.12713,0.12714 -0.0989,0.21758 -0.50214,0.20097 -0.44571,-0.0184 -0.53634,-0.10903 -0.23116,-0.23115 z m 1.53033,-0.38258 c 0.27619,-0.11053 0.60616,-0.0969 0.73329,0.0302 0.12714,0.12713 -0.0989,0.21758 -0.50213,0.20097 -0.44571,-0.0184 -0.53635,-0.10903 -0.23116,-0.23115 z m 3.06065,-0.76516 c 0.27619,-0.11053 0.60617,-0.0969 0.7333,0.0302 0.12713,0.12713 -0.0989,0.21757 -0.50214,0.20097 -0.44571,-0.0184 -0.53634,-0.10904 -0.23116,-0.23116 z m 1.53033,-0.38259 c 0.27619,-0.11052 0.60616,-0.0969 0.7333,0.0302 0.12713,0.12713 -0.0989,0.21757 -0.50214,0.20097 -0.44571,-0.0184 -0.53634,-0.10904 -0.23116,-0.23116 z m 1.53033,-0.38258 c 0.27618,-0.11053 0.60616,-0.0969 0.73329,0.0302 0.12714,0.12713 -0.0989,0.21757 -0.50214,0.20097 -0.4457,-0.0184 -0.53634,-0.10904 -0.23115,-0.23116 z m 1.53033,-0.38258 c 0.27618,-0.11053 0.60616,-0.0969 0.73329,0.0302 0.12713,0.12714 -0.0989,0.21758 -0.50214,0.20097 -0.44571,-0.0184 -0.53634,-0.10903 -0.23115,-0.23115 z m 1.79335,-0.50382 c 0.42084,-0.18085 1.10949,-0.32374 1.53033,-0.31755 0.61511,0.009 0.57758,0.0713 -0.1913,0.31755 -1.30812,0.41892 -2.31393,0.41892 -1.33903,0 z m 3.06065,-0.76517 c 0.42084,-0.18084 1.02341,-0.32879 1.33904,-0.32879 0.36173,0 0.29099,0.12155 -0.19129,0.32879 -0.42084,0.18085 -1.02341,0.32879 -1.33904,0.32879 -0.36173,0 -0.29099,-0.12154 0.19129,-0.32879 z m 3.5628,-1.0265 c 0.27618,-0.11053 0.60616,-0.0969 0.73329,0.0302 0.12713,0.12713 -0.0989,0.21758 -0.50214,0.20097 -0.44571,-0.0184 -0.53634,-0.10903 -0.23115,-0.23115 z m 5.61917,-1.68118 c 2.52504,-0.81811 4.74309,-1.43977 4.92907,-1.38143 0.38491,0.12078 -8.55059,2.96241 -9.13747,2.90583 -0.21042,-0.0203 1.68336,-0.70625 4.2084,-1.5244 z m 5.5793,-1.65356 c 0.0877,-0.0841 2.48361,-0.95029 5.32428,-1.92492 29.18625,-10.01374 55.28116,-24.90642 74.05231,-42.26248 1.27499,-1.17888 0.9638,-0.80946 -0.69159,0.82095 -11.59308,11.41823 -29.69306,23.26905 -49.25807,32.25134 -10.28062,4.7198 -30.86658,12.49554 -29.42693,11.11511 z m 85.66646,-50.53925 c 0.71382,-0.73647 1.38392,-1.33904 1.48913,-1.33904 0.10521,0 -0.39272,0.60257 -1.10654,1.33904 -0.71383,0.73647 -1.38392,1.33904 -1.48913,1.33904 -0.10521,0 0.39272,-0.60257 1.10654,-1.33904 z m 3.06066,-3.39639 c 0,-0.0795 0.30128,-0.38073 0.66952,-0.66952 0.60681,-0.47588 0.62031,-0.46235 0.14446,0.14445 -0.49981,0.63728 -0.81398,0.83995 -0.81398,0.52507 z"
           id="path7538" />
        <path
           style="fill:#021026;stroke-width:0.382582"
           d="m 184.93445,724.38086 c -7.0591,-1.01093 -10.82522,-2.22701 -17.19506,-5.55229 -7.64151,-3.98914 -14.93182,-9.55307 -22.98759,-17.54402 -20.116,-19.95409 -35.64368,-46.81149 -39.63346,-68.55189 -0.92281,-5.02835 -0.93049,-13.34698 -0.016,-17.33773 1.80575,-7.88034 6.30939,-13.69337 13.2629,-17.11901 5.35378,-2.63752 8.80496,-3.48157 14.15552,-3.46194 4.93969,0.018 7.68736,0.60302 14.84238,3.15967 5.81706,2.07856 7.62636,2.0765 13.71309,-0.0157 10.50001,-3.60909 21.93604,-8.33076 29.28693,-12.09188 l 3.56199,-1.82251 -4.97357,-0.28315 c -13.77297,-0.7841 -18.84512,-1.17915 -24.05236,-1.87331 -19.35399,-2.57998 -37.58256,-7.90731 -52.27271,-15.27672 -12.45913,-6.2502 -20.424981,-11.97642 -30.044822,-21.59759 -12.130882,-12.13251 -20.15953,-25.00593 -25.419196,-40.75793 -7.218022,-21.61706 -6.745484,-45.48351 1.210317,-61.12908 6.797725,-13.3681 19.615747,-19.25209 30.691885,-14.08877 7.101825,3.31064 12.976546,9.68988 23.114466,25.09963 15.21954,23.13388 17.87592,27.06334 21.85439,32.32816 10.75729,14.23545 21.52306,24.56753 32.51512,31.20533 5.01018,3.0255 12.9805,6.68401 18.95968,8.70278 5.37587,1.81508 16.43904,4.76513 17.21898,4.59152 0.38608,-0.0859 -0.12498,-1.26356 -1.79543,-4.13724 -2.89809,-4.98558 -9.30241,-18.08908 -11.21917,-22.95491 -4.06355,-10.31556 -5.54341,-16.14036 -5.54341,-21.81922 0,-15.58504 9.06267,-27.60714 35.05591,-46.50343 19.72333,-14.33825 31.12744,-21.46697 41.56974,-25.9853 4.97325,-2.15187 11.09465,-4.13812 14.17866,-4.60059 0.97927,-0.14683 1.77651,-0.37657 1.77164,-0.51048 -0.005,-0.13394 -1.24451,-0.93216 -2.75476,-1.77384 -7.64439,-4.26031 -17.86243,-11.12456 -25.54744,-17.1622 -24.85317,-19.52556 -45.95013,-46.0968 -54.87176,-69.11 -0.77495,-1.99899 -1.5682,-4.02189 -1.76277,-4.49534 -0.33574,-0.81696 -0.5637,-0.86111 -4.47472,-0.86673 -9.52106,-0.0136 -29.31747,-1.87548 -31.09283,-2.92421 -1.70416,-1.00668 -2.49353,-2.93491 -1.94752,-4.75733 0.83836,-2.7982 2.72786,-3.4194 8.06868,-2.65267 3.1818,0.45677 15.15877,1.43387 21.6899,1.76949 l 5.04759,0.25938 -0.53059,-2.27444 c -0.85363,-3.65918 -2.02646,-11.08061 -2.46404,-15.59195 -0.61751,-6.36642 -0.50112,-19.23434 0.23468,-25.94563 0.99041,-9.03353 1.51583,-7.78414 -4.27457,-10.16447 -6.78484,-2.78913 -17.90845,-7.01116 -25.03984,-9.50401 -3.25091,-1.13639 -6.22219,-2.34802 -6.60284,-2.69251 -0.38065,-0.34449 -0.8826,-1.26219 -1.11544,-2.03934 -0.34731,-1.15923 -0.30706,-1.65806 0.22416,-2.77751 0.77597,-1.63525 2.83215,-2.75389 4.46255,-2.42781 2.75686,0.55137 20.55647,7.09885 29.90795,11.00146 2.48304,1.03624 4.64895,1.80105 4.81313,1.69958 0.16419,-0.10147 0.51207,-1.18228 0.77309,-2.4018 1.1743,-5.48662 4.18443,-15.52799 6.85782,-22.87673 6.87162,-18.88902 18.1329,-39.98132 29.82227,-55.85695 l 0.8451,-1.14774 -2.87025,-24.48524 c -1.57863,-13.46688 -3.38511,-28.83232 -4.0144,-34.14543 -2.38591,-20.144369 -3.4766,-29.43308 -5.15492,-43.901262 -0.95195,-8.20638 -1.99368,-17.034773 -2.31496,-19.618651 -0.65922,-5.301788 -0.438,-6.913777 1.21906,-8.883075 2.33962,-2.780487 7.10639,-3.71614 10.27152,-2.016168 0.84168,0.452058 20.2086,13.024309 43.0376,27.938332 l 41.50727,27.116406 4.40255,-1.43477 c 16.43173,-5.355028 36.711,-9.618754 52.41657,-11.020602 9.91663,-0.885142 22.6726,-1.210834 31.563,-0.805886 8.51252,0.387739 20.41969,1.498776 24.63976,2.299095 3.92915,0.745151 0.54476,3.405674 27.00879,-21.232171 5.68134,-5.289297 15.74025,-14.643224 22.35318,-20.786509 l 12.02348,-11.169606 7.10083,0.10384 7.10079,0.103837 0.45302,0.956454 c 0.24914,0.52605 3.14566,12.060892 6.43667,25.632983 3.29105,13.57209 7.24495,29.841383 8.78649,36.153983 1.54154,6.3126 2.92059,12.031066 3.06452,12.7077 0.21643,1.01737 1.2334,1.982715 5.8773,5.578893 22.89216,17.727477 43.00705,37.146827 51.0034,49.239787 4.03318,6.09939 11.59969,21.09148 15.06064,29.8407 2.58457,6.53369 5.50386,15.62122 7.23076,22.50886 1.51165,6.02901 3.46301,16.38188 3.75565,19.92547 0.10773,1.30459 0.11852,1.31135 6.43105,4.03538 9.8193,4.23726 16.50117,8.05972 24.61642,14.08211 5.39823,4.00608 13.5108,12.01176 16.86658,16.64439 1.25338,1.73028 2.49271,3.14597 2.75413,3.14597 3.35976,0 17.25586,-2.5219 25.43247,-4.61557 17.14491,-4.39002 30.39506,-10.23718 41.78199,-18.43797 4.63066,-3.33499 5.22255,-3.69614 6.08615,-3.71363 0.60253,-0.0122 0.66952,0.46314 0.66952,4.74938 v 4.76295 l -2.39114,1.70508 c -15.46854,11.03038 -37.5835,19.21102 -61.85246,22.88009 -2.85724,0.43198 -5.26008,0.84649 -5.33962,0.92114 -0.0795,0.0747 0.38882,1.47665 1.04078,3.11555 1.722,4.32872 2.99531,9.05272 3.71009,13.76441 0.74431,4.90647 0.82863,14.49308 0.17036,19.36828 -0.2504,1.85469 -0.36303,3.46443 -0.25025,3.57721 0.72079,0.72078 15.77029,3.51206 23.40211,4.34047 5.45466,0.59209 23.33474,0.88745 28.31106,0.46768 4.49706,-0.37934 5.90006,-0.12493 7.13083,1.2931 1.66338,1.91648 1.02987,5.06699 -1.30266,6.47786 -1.17261,0.7093 -2.02588,0.74829 -16.34917,0.74715 -12.43016,-10e-4 -16.02854,-0.12426 -20.27684,-0.69456 -7.30961,-0.98127 -13.379,-2.02152 -18.37609,-3.14955 -2.37197,-0.53544 -4.42491,-0.83618 -4.56206,-0.66831 -0.13712,0.16787 -0.45554,1.12656 -0.70759,2.13042 -1.44918,5.77227 -6.23968,17.07948 -9.9213,23.41759 -17.76025,30.57521 -48.19644,54.38749 -91.00202,71.19687 -31.88717,12.52187 -75.27202,21.36904 -117.3183,23.92399 -4.36622,0.26529 -7.93858,0.60873 -7.93858,0.76314 0,0.15445 0.61979,0.8543 1.3773,1.55527 0.75751,0.70093 7.25662,7.14181 14.44246,14.313 12.63733,12.61158 16.51874,16.16577 23.02033,21.07968 8.29097,6.26635 15.48221,9.35099 18.68262,8.01379 0.67266,-0.28108 3.88715,-2.9914 7.14334,-6.02294 11.58974,-10.7903 14.73774,-13.42029 20.75927,-17.3432 3.93926,-2.56632 10.21574,-5.57315 13.47209,-6.45393 9.94479,-2.68997 19.29245,-0.74462 28.01907,5.83108 5.72453,4.31357 9.10127,8.71411 11.03454,14.38011 0.88912,2.60584 1.04234,3.67802 1.03832,7.26538 -0.0111,9.84303 -4.69783,19.79413 -14.86571,31.563 -10.78992,12.48889 -29.3166,26.93747 -40.34589,31.46498 -17.52749,7.19499 -35.5,7.56108 -53.46287,1.08891 -13.72436,-4.94499 -28.2262,-14.62599 -39.86093,-26.60991 -3.64386,-3.75324 -3.35352,-3.75248 -5.26701,-0.0138 -1.82916,3.57362 -5.12728,8.7309 -9.36097,14.63773 -7.45553,10.40183 -12.00787,15.98592 -18.18404,22.30529 l -3.2016,3.27582 20.19742,19.69986 c 34.12767,33.28699 35.4845,34.52285 71.87438,65.46676 l 3.47163,2.95207 5.51905,-0.72239 c 9.86043,-1.29064 17.52048,-1.73497 30.00424,-1.7404 18.20841,-0.008 29.16865,1.42202 40.6124,5.29853 7.36092,2.49344 13.42071,5.97539 18.0654,10.38032 4.90451,4.65139 7.66262,9.24911 9.29602,15.49625 1.13427,4.33817 1.22747,12.69376 0.18352,16.45102 -2.62887,9.46167 -9.91361,16.72349 -21.86493,21.79622 -18.64716,7.91478 -49.97193,10.39555 -91.62835,7.25655 -13.70102,-1.03244 -17.79492,-2.04877 -23.23404,-5.768 -2.94309,-2.01246 -26.2248,-22.61648 -49.646,-43.93608 -17.75574,-16.16251 -27.75643,-25.55754 -46.67679,-43.84996 -18.01238,-17.41455 -32.05116,-30.1846 -32.84756,-29.87899 -0.28327,0.10869 -3.33816,2.08102 -6.78864,4.3829 -27.65103,18.4466 -54.70797,32.89446 -82.02482,43.79953 -3.1563,1.26003 -6.85778,2.6855 -8.22551,3.1677 -6.84929,2.41474 -14.90662,5.13291 -16.35537,5.51752 -0.89429,0.23743 -1.62597,0.60226 -1.62597,0.81077 0,0.20851 1.34562,2.39695 2.99026,4.86319 10.18571,15.274 14.6085,26.29856 14.6085,36.41421 0,8.62393 -3.29077,15.4446 -10.07334,20.87868 -7.00535,5.61259 -18.65428,9.66348 -25.12419,8.73694 z m 9.98007,-10.05364 c 7.22975,-2.66231 12.68565,-6.81504 14.9351,-11.36776 4.32153,-8.74648 0.74229,-21.55574 -10.95698,-39.21261 -2.21923,-3.34932 -4.20174,-6.52834 -4.40559,-7.06449 -0.7222,-1.89952 -0.43961,-5.22737 0.62537,-7.36451 1.19446,-2.39695 2.68601,-3.60438 5.50789,-4.45857 33.0418,-10.0023 68.02069,-27.08913 104.00348,-50.80465 l 6.6364,-4.37391 -4.34091,-3.81013 c -7.44383,-6.53369 -25.1314,-21.19824 -26.64334,-22.0897 -0.30835,-0.1818 -1.25712,0.28319 -2.514,1.23214 -6.53889,4.93692 -16.71297,7.64334 -24.93474,6.63294 -4.51729,-0.55513 -6.89092,-1.17349 -11.19715,-2.91696 l -3.42183,-1.38536 -4.92135,3.49702 c -8.52229,6.05582 -16.52958,10.79853 -32.57508,19.29418 -12.80367,6.7792 -24.14575,11.63152 -38.58241,16.50622 -6.0765,2.05183 -10.99675,1.87538 -17.58686,-0.63064 -7.99687,-3.04095 -13.29514,-3.47848 -18.82311,-1.55428 -9.36127,3.25845 -12.88086,8.51509 -12.83142,19.16429 0.12065,25.98966 27.76937,68.78756 55.40873,85.76804 3.73394,2.29396 7.36768,3.97514 11.28159,5.21948 3.50644,1.11485 3.94334,1.17021 8.22551,1.04277 3.16637,-0.0942 4.39202,-0.32237 7.1107,-1.32351 z m 331.66551,-3.22654 c 25.39609,-2.73794 40.42551,-8.59975 46.39153,-18.09363 1.98609,-3.16059 2.68036,-5.77576 2.67769,-10.08643 -0.0111,-17.76232 -13.8145,-27.84266 -42.75662,-31.22426 -4.37402,-0.51105 -8.65014,-0.66588 -17.98135,-0.65104 -12.68848,0.0203 -19.2716,0.45902 -31.21229,2.08067 -5.14308,0.69848 -6.09644,0.73773 -6.94168,0.28583 -1.88482,-1.00776 -41.91792,-35.51748 -48.50081,-41.80916 -6.25418,-5.97749 -46.13983,-44.74447 -50.40516,-48.99144 -4.03888,-4.0215 -4.3032,-4.37784 -4.2905,-5.7836 0.018,-1.98759 0.5114,-2.75402 3.2384,-5.03057 7.38264,-6.16312 16.74737,-17.26205 24.45769,-28.98692 5.93396,-9.02358 9.61425,-16.04966 15.13004,-28.88493 5.47551,-12.74155 7.01483,-17.42878 8.66927,-26.39815 0.86919,-4.71218 0.97795,-17.14116 0.17736,-20.26341 -1.21737,-4.74757 -3.17776,-7.72107 -6.18856,-9.38668 l -2.07471,-1.14775 -11.66874,-0.2507 c -10.82963,-0.23269 -14.83278,-0.51698 -28.75489,-2.04218 -13.07813,-1.43274 -29.8686,-4.41963 -40.87069,-7.27055 -2.85487,-0.73976 -10.16374,-2.10531 -11.26863,-2.10535 -0.74895,-4e-5 -0.7876,0.21738 -0.79921,4.49534 -0.0129,4.74175 -0.45088,6.81168 -2.35631,11.13512 -3.02189,6.85671 -9.63562,15.10586 -17.5676,21.91172 -3.59689,3.08621 -25.79003,19.85879 -32.07278,24.23916 -3.93888,2.74621 -4.42193,3.41531 -4.42193,6.12514 0,1.57379 0.32047,2.07359 5.56499,8.67883 10.31035,12.98544 15.5203,21.38915 17.9833,29.00731 1.38068,4.27046 1.75491,11.85556 0.77479,15.70376 -0.78857,3.09609 -2.50105,6.79848 -4.2406,9.16823 l -1.3384,1.82327 3.73139,2.98896 c 20.04973,16.0606 45.46172,38.71449 70.10933,62.49999 24.50827,23.65105 51.45542,48.42828 80.34218,73.87261 9.47587,8.34663 11.8403,10.24848 14.02733,11.28314 3.74632,1.77231 6.98024,2.22341 24.61344,3.43356 10.27951,0.70544 40.14397,0.50194 47.82273,-0.32589 z M 206.76331,575.03427 h 4.03879 l 5.13566,-3.08342 c 5.54085,-3.32666 13.67375,-8.71212 14.03193,-9.29169 0.12133,-0.1963 -0.5361,-0.97849 -1.46096,-1.73818 -5.31978,-4.36978 -11.80639,-11.13681 -16.04065,-16.73413 l -2.64225,-3.49286 -2.97679,-0.27821 c -3.20351,-0.29945 -12.4017,-2.45411 -19.79358,-4.63659 -12.68878,-3.74643 -24.9269,-9.92846 -34.50986,-17.43249 -4.1694,-3.26492 -13.94708,-12.40813 -13.79881,-12.90345 0.0476,-0.15901 -2.25038,-3.28868 -5.10663,-6.95481 -9.99951,-12.83489 -19.22667,-25.56993 -23.90848,-32.99772 -1.0381,-1.64697 -4.77653,-7.37648 -8.30761,-12.73221 -7.427819,-11.26611 -10.432846,-14.75625 -14.376102,-16.69705 -2.358869,-1.16095 -2.780673,-1.24163 -6.359658,-1.21635 -3.354125,0.0237 -4.098706,0.15633 -5.957319,1.06106 -7.902725,3.8467 -13.59436,16.15639 -14.94968,32.33264 -2.151712,25.68153 11.706423,56.99624 33.333502,75.32244 9.702397,8.22153 19.308557,14.16211 30.063327,18.59153 14.35397,5.91177 31.24613,10.06894 48.55724,11.94994 6.77827,0.73651 20.83333,1.30847 26.78073,1.08978 2.31462,-0.0851 6.02586,-0.15555 8.2472,-0.15651 z m 56.02655,-12.4222 c 4.20059,-1.02659 7.81468,-2.80291 11.31958,-5.56362 3.619,-2.85058 6.39486,-6.21302 8.09821,-9.80956 1.18995,-2.51249 1.24099,-2.81266 1.22631,-7.21258 -0.0127,-3.80459 -0.16723,-5.01695 -0.90215,-7.07776 -2.48846,-6.97799 -6.76133,-13.77069 -16.00385,-25.4417 -3.33272,-4.2084 -6.35828,-8.28725 -6.72347,-9.06409 -1.69984,-3.61605 -1.48979,-8.41274 0.54589,-12.46635 1.13549,-2.2611 1.65678,-2.82671 4.30991,-4.67641 1.66,-1.15731 9.57944,-6.99563 17.59876,-12.97404 15.73905,-11.73344 21.57744,-16.88215 26.50202,-23.37124 2.89698,-3.81732 5.62569,-9.21681 6.25839,-12.3839 0.86821,-4.3459 -0.54535,-8.4989 -3.92793,-11.54016 -2.35923,-2.12115 -3.1317,-2.5255 -10.04349,-5.25748 -7.79352,-3.08051 -7.96334,-3.11506 -15.30327,-3.11521 -7.44676,-1.5e-4 -10.50246,0.55865 -17.89659,3.27268 -10.1457,3.72405 -19.45154,9.26831 -39.12412,23.30937 -22.98409,16.40461 -31.55666,25.03214 -34.84698,35.07044 -0.95969,2.92786 -1.09761,3.91519 -1.08328,7.7547 0.0136,3.65377 0.19603,5.0096 1.07579,7.99726 2.03624,6.91498 5.10277,14.37636 9.60202,23.36332 3.8455,7.68109 5.69792,10.91215 9.98642,17.41861 13.12638,19.91514 26.88275,30.96785 40.14986,32.25884 2.69529,0.26229 7.05281,0.0291 9.18197,-0.49112 z m 233.37491,-24.09784 c 10.21436,-1.78979 18.35058,-5.48435 28.67696,-13.02194 15.52965,-11.33559 27.14261,-23.68851 32.37369,-34.43646 2.39014,-4.91085 3.14781,-8.14543 2.95854,-12.63059 -0.1269,-3.0079 -0.31486,-3.78699 -1.47079,-6.09602 -2.32916,-4.65269 -8.08002,-9.5525 -13.95051,-11.88601 -5.2134,-2.0723 -11.71959,-1.70142 -17.92594,1.02187 -7.2041,3.16108 -12.66905,7.40514 -29.19329,22.67134 -5.044,4.66004 -7.41042,6.01579 -10.95577,6.27683 -7.36298,0.54212 -18.37395,-5.36188 -31.67487,-16.98376 -3.2516,-2.84117 -20.43369,-19.38141 -20.43369,-19.67041 0,0 -0.0503,1.84737 -0.11179,4.10881 -0.35355,13.00281 -3.19888,23.5154 -11.35044,41.9361 l -2.15566,4.87126 1.00615,1.22453 c 2.13454,2.59781 9.70894,10.02537 12.99432,12.74239 13.83913,11.44505 27.91627,18.1983 42.22204,20.25533 4.57028,0.65716 14.15763,0.46365 18.99105,-0.38327 z M 426.91746,427.74049 c 20.45099,-0.58122 32.98131,-1.74683 51.67081,-4.80668 50.27726,-8.23144 87.09545,-21.37944 117.49169,-41.95694 7.94783,-5.38052 14.68976,-10.99709 22.14904,-18.45196 14.73039,-14.7217 23.83087,-28.72237 29.32134,-45.10959 0.83647,-2.49664 1.37714,-4.67559 1.20146,-4.84211 -0.17572,-0.16652 -2.20287,-1.00822 -4.50483,-1.87044 -4.38328,-1.64179 -5.59541,-2.45562 -6.34198,-4.25796 -0.94188,-2.27398 1.11117,-5.34085 3.57538,-5.34085 0.64369,0 2.96164,0.70035 5.15101,1.55635 2.18936,0.856 4.03551,1.5015 4.10254,1.43445 0.29282,-0.29284 0.95037,-7.85104 0.95037,-10.92434 0,-8.14895 -2.05336,-17.44721 -5.34674,-24.21175 l -0.84229,-1.73003 -3.93084,0.14551 c -3.8762,0.14349 -3.94767,0.13032 -5.14427,-0.94804 -1.37006,-1.23469 -1.86245,-3.16977 -1.22736,-4.82355 0.48473,-1.26219 2.50626,-2.5792 3.96194,-2.58117 0.57866,-7.7e-4 1.0521,-0.10105 1.0521,-0.2228 0,-0.48317 -4.68368,-5.86329 -7.33103,-8.42111 -5.85392,-5.65599 -12.40667,-10.33299 -20.26938,-14.46727 -7.21871,-3.79563 -14.65939,-6.85174 -20.05016,-8.23519 l -1.54945,-0.39764 -0.47199,-4.88378 c -1.722,-17.81715 -7.85196,-37.6857 -17.50075,-56.72361 -6.64858,-13.11822 -10.61316,-18.47116 -22.54268,-30.43688 -11.43743,-11.47214 -23.39143,-21.76081 -39.37827,-33.89237 l -2.26779,-1.720927 -3.7524,-15.46716 c -2.0638,-8.506937 -4.61118,-18.996477 -5.66079,-23.310087 -1.04966,-4.31361 -2.87052,-11.80265 -4.04634,-16.64231 -4.61195,-18.982471 -5.10039,-20.927586 -5.30702,-21.134214 -0.11757,-0.117579 -2.58389,2.012648 -5.48068,4.733838 -2.89683,2.721193 -9.05449,8.468632 -13.68373,12.772089 -4.62924,4.303456 -12.07524,11.22741 -16.54666,15.386568 -12.75207,11.861518 -24.69497,22.934125 -25.5847,23.720353 -0.79501,0.702535 -0.91449,0.70159 -5.54744,-0.0438 -22.76588,-3.662804 -48.7581,-3.663738 -71.49544,-0.0027 -12.04704,1.939816 -24.60082,5.062904 -37.73357,9.38723 L 307.45341,91.177448 289.13874,79.20261 C 279.06567,72.616449 267.51267,65.059386 263.4654,62.409139 c -4.04728,-2.650248 -9.12605,-5.9646 -11.28617,-7.365228 -2.16012,-1.400633 -10.00621,-6.522447 -17.43576,-11.38181 -7.42956,-4.859256 -13.58638,-8.8351 -13.68183,-8.8351 -0.0954,0 -0.0899,0.645607 0.0124,1.434682 0.10227,0.789075 0.36486,2.898057 0.58352,4.686627 0.37669,3.081108 9.21066,78.54945 12.06909,103.1058 0.7348,6.3126 1.5276,12.71361 1.76177,14.22446 0.23417,1.51085 0.32296,3.1566 0.19731,3.65722 -0.12565,0.50062 -1.32205,2.36338 -2.65866,4.13947 -6.03127,8.01431 -12.09666,17.91925 -17.90833,29.24482 -8.12302,15.8298 -14.01847,31.57753 -17.39446,46.46348 -0.49855,2.1983 -0.86867,4.02397 -0.82248,4.05704 0.0462,0.0331 2.06383,0.95898 4.48366,2.05757 13.06774,5.93272 26.86141,13.73025 34.93787,19.7503 5.46276,4.07182 7.14614,5.83203 7.14614,7.47223 0,2.68232 -2.34098,4.83766 -4.8178,4.43573 -0.79362,-0.12879 -2.49743,-1.21192 -4.62741,-2.9417 -4.12245,-3.34788 -10.26736,-7.44336 -16.37906,-10.91636 -4.58188,-2.60367 -16.05235,-8.43483 -20.13976,-10.2383 l -2.15842,-0.95235 -0.51966,4.45596 c -0.32338,2.77301 -0.51005,8.35736 -0.49424,14.78567 0.0271,11.0295 0.55528,16.08609 2.59736,24.86782 l 0.88964,3.82582 5.89543,-0.0273 c 11.08567,-0.0513 23.88856,-1.98933 32.80354,-4.96555 4.54402,-1.517 6.07083,-1.62951 7.44497,-0.54861 1.17392,0.92342 1.92876,2.98592 1.58868,4.34091 -0.58512,2.3313 -3.37568,3.70502 -12.06517,5.93939 -8.1299,2.09046 -21.6825,3.86923 -29.4801,3.86923 h -3.37642 l 0.79279,2.19985 c 1.50548,4.17736 6.43937,13.69405 9.76864,18.84215 8.21011,12.69538 16.24456,22.58654 26.59865,32.74541 39.17536,38.43674 95.27479,60.03505 163.30206,62.87136 10.20984,0.4257 11.85452,0.42765 25.82427,0.0306 z m 8.79938,-32.72601 c -14.8348,-1.62218 -29.15055,-6.31853 -39.60728,-12.99332 -17.09104,-10.90966 -26.73941,-27.09099 -30.29098,-50.80116 -0.68977,-4.60483 -0.81923,-7.25942 -0.84368,-17.29955 -0.0245,-10.06553 0.0631,-12.06265 0.57925,-13.19908 1.48353,-3.26653 4.60688,-5.42406 7.919,-5.47025 1.18754,-0.0166 3.54512,0.57353 6.96062,1.74221 17.7938,6.08851 43.09359,11.94194 64.89678,15.01469 17.02658,2.39959 28.77746,3.06347 53.89488,3.04488 21.95935,-0.0163 27.69643,-0.32965 38.1703,-2.08504 4.61597,-0.77362 5.00222,-0.78494 6.99715,-0.20499 3.89985,1.13371 6.78877,5.539 6.11171,9.3197 -0.73723,4.11684 -5.63983,15.08232 -9.91728,22.18168 -13.23351,21.96389 -32.53603,37.64041 -55.90971,45.40694 -14.75744,4.90359 -33.88868,6.99145 -48.96076,5.34329 z m 26.01557,-8.74111 c 12.98337,-1.72135 23.8702,-5.02009 33.80983,-10.24447 17.45931,-9.17688 31.40801,-23.36622 40.93816,-41.64456 2.36887,-4.54336 6.02666,-13.27246 5.69894,-13.60018 -0.0652,-0.0652 -2.00916,0.20095 -4.32003,0.5914 -10.72037,1.81138 -24.13935,2.4544 -45.32907,2.17208 -20.79967,-0.27711 -29.13192,-0.79377 -44.57078,-2.76371 -22.21599,-2.83468 -49.12006,-8.8406 -68.80726,-15.36015 -4.3609,-1.44415 -5.35856,-1.66006 -5.63719,-1.21999 -0.46446,0.7335 -0.43875,15.80441 0.0352,20.67535 2.0332,20.89394 8.69146,35.33669 20.99387,45.53893 9.29571,7.70883 21.92374,13.07978 36.19913,15.39631 2.1042,0.34146 4.77271,0.78143 5.93002,0.97777 2.96379,0.50275 20.01676,0.1497 25.05911,-0.51878 z m 14.90607,-101.45024 c -8.88833,-1.49453 -22.58361,-8.46529 -31.01568,-15.78672 -3.82727,-3.32316 -6.65309,-6.82543 -8.28174,-10.26422 -1.08107,-2.2826 -1.24095,-3.01737 -1.23628,-5.68225 0.006,-3.47094 0.49537,-4.69646 2.74916,-6.8853 2.87135,-2.78861 8.31101,-4.60845 16.75716,-5.60607 5.74607,-0.67871 27.19028,-0.67874 33.47591,-5e-5 10.68865,1.1541 16.08707,3.15941 18.19681,6.75945 3.06338,5.22725 -1.44577,19.48953 -9.02147,28.53456 -4.21601,5.03374 -8.28706,7.81648 -13.09286,8.94957 -2.85376,0.67283 -4.43761,0.66931 -8.53101,-0.019 z M 352.88788,273.685 c -9.38322,-1.48571 -17.09933,-4.31761 -24.84146,-9.1171 -10.79728,-6.69342 -21.92257,-18.42201 -30.02007,-31.64798 -18.10455,-29.57086 -18.91084,-65.24693 -1.87141,-82.80395 4.82947,-4.97617 11.36704,-8.86415 17.70959,-10.53211 4.33012,-1.13873 14.35889,-1.25503 18.63207,-0.21607 15.16406,3.68692 28.71207,12.2909 41.30553,26.23204 15.42739,17.07832 24.19169,35.94002 26.16493,56.30969 2.06919,21.36041 -5.50998,40.05251 -19.04879,46.97875 -7.08331,3.62372 -13.39259,5.07994 -21.66441,5.00028 -2.97524,-0.0287 -5.83993,-0.12025 -6.36598,-0.20355 z m 13.76878,-8.757 c 3.44858,-0.65418 7.56172,-2.03082 10.52516,-3.52269 10.33981,-5.20531 16.24764,-21.45104 14.33355,-39.41523 -2.09563,-19.66818 -11.53584,-38.33715 -27.41537,-54.21667 -10.56632,-10.56632 -20.74107,-16.85628 -32.25412,-19.93927 -1.84274,-0.49345 -4.02258,-0.66928 -8.4168,-0.67889 -5.5075,-0.012 -6.1481,0.0626 -8.99068,1.04747 -7.61924,2.63989 -13.97247,8.29163 -17.69999,15.74565 -4.81878,9.63623 -5.73562,24.02175 -2.42614,38.06689 3.68728,15.64853 12.43627,31.52571 24.05121,43.64684 6.35084,6.62762 12.17544,11.01091 19.5351,14.70112 7.46439,3.74272 12.87767,5.09241 20.59011,5.13371 3.06538,0.0164 6.25261,-0.20559 8.16797,-0.56893 z m -8.3441,-30.03685 c -4.45838,-2.22788 -6.99891,-6.36786 -7.26196,-11.83389 -0.19292,-4.00884 0.5269,-6.74528 2.52076,-9.58277 1.56912,-2.23305 4.34686,-4.33995 6.51609,-4.94244 6.37568,-1.77081 13.60699,2.73947 15.59033,9.72393 1.85491,6.53219 -1.43725,14.16112 -7.29534,16.90545 -2.96157,1.3874 -6.96774,1.27988 -10.06988,-0.27028 z m 174.31356,14.92645 c -4.67446,-0.99612 -8.57079,-2.37645 -13.88902,-4.9204 -8.28997,-3.96547 -14.9112,-8.71231 -22.71863,-16.28726 -9.68961,-9.40113 -16.30808,-18.63113 -22.42323,-31.27106 -6.17529,-12.76424 -9.37605,-25.8369 -9.37605,-38.29414 0,-17.00381 5.97864,-29.39719 17.54203,-36.36368 17.2782,-10.40943 42.40387,-3.34331 63.75485,17.92982 14.72477,14.67111 25.71084,34.68269 29.61451,53.94404 1.31799,6.50332 1.68443,10.99515 1.44922,17.76548 -0.25136,7.23498 -0.99226,11.11237 -3.16931,16.58568 -2.11063,5.30627 -4.16218,8.50511 -7.79744,12.15801 -4.80844,4.83173 -9.87187,7.57919 -16.56158,8.98641 -3.74513,0.78782 -12.1979,0.66796 -16.42535,-0.2329 z m 15.95236,-8.26846 c 8.2205,-2.01085 14.66727,-8.41743 17.77013,-17.65938 1.76511,-5.25739 2.38777,-13.9214 1.53082,-21.30063 -2.27908,-19.6254 -13.18867,-41.08478 -28.52626,-56.11183 -5.43671,-5.32662 -7.53843,-7.07811 -12.39056,-10.3258 -9.13843,-6.11668 -19.50349,-9.89479 -27.11778,-9.88455 -11.11649,0.015 -20.24417,6.16141 -24.38917,16.4234 -2.19021,5.42241 -2.60485,8.03864 -2.6112,16.47575 -0.007,8.42126 0.50696,12.19907 2.68901,19.78999 2.84649,9.90237 8.3005,21.27119 14.09064,29.37177 17.10145,23.9254 41.27316,37.54636 58.95437,33.22128 z m -10.66485,-26.36586 c -3.77275,-1.20149 -6.45293,-3.61396 -8.23427,-7.41183 -0.88323,-1.88305 -0.99502,-2.59496 -0.99402,-6.33006 0,-3.84471 0.0948,-4.39951 1.08534,-6.41979 1.47065,-2.99948 4.36159,-5.77692 7.08213,-6.80402 4.58386,-1.73055 9.72454,-0.37905 13.18094,3.46531 2.57095,2.8595 3.49182,5.47488 3.50334,9.94979 0.008,3.29114 -0.10429,3.87495 -1.19347,6.17917 -0.66152,1.39956 -1.92603,3.26787 -2.80994,4.1518 -3.08308,3.08308 -7.87752,4.4115 -11.62005,3.21963 z"
           id="path7534" />
      </g>
    </g>
  </g>
</svg>
