<?xml version="1.0" encoding="UTF-8" standalone="no"?>
<!-- Created with Inkscape (http://www.inkscape.org/) -->

<svg
   width="300mm"
   height="300mm"
   viewBox="0 0 300 300"
   version="1.1"
   id="svg5"
   inkscape:version="1.1 (c68e22c387, 2021-05-23)"
   sodipodi:docname="settings.svg"
   xmlns:inkscape="http://www.inkscape.org/namespaces/inkscape"
   xmlns:sodipodi="http://sodipodi.sourceforge.net/DTD/sodipodi-0.dtd"
   xmlns="http://www.w3.org/2000/svg"
   xmlns:svg="http://www.w3.org/2000/svg">
  <sodipodi:namedview
     id="namedview7"
     pagecolor="#ffffff"
     bordercolor="#666666"
     borderopacity="1.0"
     inkscape:pageshadow="2"
     inkscape:pageopacity="0.0"
     inkscape:pagecheckerboard="0"
     inkscape:document-units="mm"
     showgrid="false"
     inkscape:zoom="0.5"
     inkscape:cx="561"
     inkscape:cy="605"
     inkscape:window-width="1920"
     inkscape:window-height="1017"
     inkscape:window-x="1912"
     inkscape:window-y="-8"
     inkscape:window-maximized="1"
     inkscape:current-layer="layer1" />
  <defs
     id="defs2" />
  <g
     inkscape:label="Calque 1"
     inkscape:groupmode="layer"
     id="layer1">
    <path
       style="fill:#ffffff;stroke-width:0.486866"
       d="m 92.844503,287.71412 c -15.12936,-6.3031 -27.560771,-11.51219 -27.625351,-11.57575 -0.06454,-0.0635 2.071527,-9.67685 4.746942,-21.36284 2.675404,-11.686 4.864369,-21.53419 4.864369,-21.88487 0,-0.35069 -1.623589,-2.25035 -3.607978,-4.22149 l -3.607967,-3.58391 -21.738111,4.98707 c -11.955956,2.74287 -21.809439,4.90883 -21.896621,4.81324 -0.452897,-0.49664 -22.8167508,-54.82841 -22.859351,-55.53559 -0.035557,-0.5899 5.4164406,-4.23211 18.69416,-12.48866 l 18.744349,-11.65589 0.137131,-5.34702 0.137132,-5.34702 -19.003189,-11.78851 C 9.3782642,126.2392 0.8268305,120.79339 0.8268305,120.62105 c 0,-0.29716 22.8890765,-55.661087 23.1413825,-55.9742 0.06591,-0.08177 9.90461,2.092779 21.863839,4.832326 l 21.744033,4.980998 3.627195,-3.602982 c 1.994954,-1.981638 3.627183,-3.871316 3.627183,-4.199284 0,-0.327972 -2.191592,-10.173543 -4.870201,-21.879048 C 67.281654,33.073357 65.145525,23.447725 65.213321,23.388568 65.28115,23.329413 77.910298,18.070327 93.278184,11.701712 120.06917,0.59924348 121.24805,0.16086489 121.9062,1.056106 c 0.37754,0.5135303 5.73744,9.069276 11.91089,19.012768 l 11.22446,18.079078 5.35641,-0.06503 5.35642,-0.06503 11.64822,-18.744341 C 173.80913,8.9641566 179.23442,0.46567542 179.45882,0.38803126 179.82296,0.26203545 234.964,22.960805 235.43293,23.429734 c 0.10531,0.105278 -2.05223,9.977675 -4.79447,21.938657 l -4.9859,21.747243 3.682,3.681987 3.68198,3.681985 21.76075,-4.972374 c 11.96842,-2.734809 21.84391,-4.889226 21.94554,-4.787597 0.6218,0.621796 23.06773,55.530945 22.88736,55.988985 -0.12203,0.30984 -8.51784,5.697 -18.65737,11.97145 -10.13952,6.27443 -18.51462,11.46564 -18.61132,11.53601 -0.22971,0.16716 -0.22971,10.90414 0,11.08761 0.0967,0.0772 8.55599,5.34582 18.79843,11.70796 10.24245,6.36214 18.62263,11.80658 18.62263,12.09872 0,0.81628 -22.95419,55.84483 -23.29468,55.84483 -0.16464,0 -10.01612,-2.22613 -21.89216,-4.94694 l -21.59282,-4.94695 -3.66707,3.66708 -3.66708,3.66708 4.98528,21.74785 c 2.74191,11.96131 4.8829,21.85022 4.75776,21.97538 -0.51759,0.51759 -55.50713,23.14741 -55.91225,23.00955 -0.24269,-0.0825 -5.68446,-8.57421 -12.0928,-18.87024 l -11.65152,-18.72008 -5.3413,-0.0497 -5.34129,-0.0497 -11.67582,18.76978 c -6.4217,10.32337 -11.97924,18.81393 -12.35009,18.8679 -0.37086,0.054 -13.05286,-5.05897 -28.182217,-11.36207 z m 32.870897,-26.11532 10.71847,-17.14973 4.13094,0.24344 c 5.91487,0.34856 15.16428,0.30025 19.79219,-0.10339 l 3.97646,-0.3468 10.32986,16.65682 c 5.6814,9.16126 10.60213,16.95077 10.93494,17.31003 0.50023,0.53999 3.21025,-0.41917 15.63594,-5.53401 8.26696,-3.40297 15.10197,-6.25105 15.18892,-6.32909 0.087,-0.078 -1.92136,-9.08458 -4.4629,-20.01452 l -4.62096,-19.87265 2.02856,-1.68038 c 2.5786,-2.13598 13.15982,-12.71119 15.73452,-15.72555 l 1.95532,-2.28921 19.86776,4.61421 c 10.92728,2.53781 19.9217,4.55386 19.98761,4.48011 0.6673,-0.74681 12.41494,-30.14705 12.1909,-30.50956 -0.16541,-0.26762 -7.58004,-5.02194 -16.47696,-10.56512 -8.89693,-5.54319 -16.54088,-10.43007 -16.98655,-10.85975 -0.71752,-0.69172 -0.75429,-1.33884 -0.32117,-5.64987 0.46812,-4.65919 0.25113,-17.87131 -0.34381,-20.93524 -0.28322,-1.45856 -0.25964,-1.47545 17.01107,-12.17164 9.51209,-5.89108 17.30212,-10.92006 17.31119,-11.17552 0.0137,-0.38518 -12.04845,-29.960197 -12.36814,-30.325334 -0.0565,-0.06443 -9.04194,1.961561 -19.96773,4.502313 l -19.86508,4.61957 -1.97621,-2.311421 C 222.52135,87.436442 213.58553,78.510824 210.10095,75.474065 l -2.75604,-2.401828 4.62652,-19.876203 c 2.54458,-10.931909 4.55161,-19.932324 4.46007,-20.000922 -0.0915,-0.0686 -6.93259,-2.918196 -15.20232,-6.332441 -12.3308,-5.090905 -15.14166,-6.091108 -15.62396,-5.559544 -0.32345,0.356499 -5.27474,8.145998 -11.00287,17.31 l -10.41478,16.661824 -4.39039,-0.351813 c -5.60835,-0.449407 -13.39943,-0.449159 -19.01343,4.87e-4 l -4.39884,0.352408 -10.65102,-17.149289 c -5.85807,-9.432108 -10.72052,-17.23595 -10.80543,-17.34187 -0.18594,-0.231893 -30.338638,12.167999 -30.566247,12.569953 -0.08753,0.154629 1.902948,9.143688 4.42334,19.975684 l 4.582542,19.694534 -3.061275,2.673957 c -3.892014,3.399586 -8.98859,8.496196 -13.315667,13.315757 L 73.605485,92.785755 53.891318,88.195581 C 43.048528,85.671 34.030179,83.754961 33.850537,83.937728 c -0.621769,0.632628 -12.564454,29.898302 -12.34544,30.252662 0.120939,0.1957 7.897052,5.15543 17.280244,11.02163 l 17.060335,10.66593 -0.366643,4.86866 c -0.467369,6.20614 -0.465795,12.37856 0.0045,18.32687 l 0.371298,4.69464 -16.681315,10.34858 c -9.17472,5.69173 -16.959666,10.60234 -17.299891,10.91248 -0.492462,0.44892 0.629888,3.58597 5.504721,15.38591 3.367834,8.15211 6.279046,14.97916 6.469377,15.17122 0.190331,0.19206 9.215406,-1.71577 20.055739,-4.2396 l 19.709682,-4.58882 2.404561,2.77902 c 3.095631,3.5777 9.82387,10.30323 14.059099,14.05343 l 3.318292,2.93827 -4.602132,19.67128 c -2.531161,10.81922 -4.452273,19.83495 -4.269121,20.03499 0.403638,0.44085 29.296257,12.48794 29.986037,12.503 0.26778,0.006 5.31019,-7.70674 11.20535,-17.13908 z m 20.68437,-56.63422 c -8.13822,-0.90134 -14.86798,-2.73408 -20.52886,-5.59071 -14.31959,-7.22603 -25.04077,-20.4733 -29.125492,-35.98799 -1.374974,-5.22246 -1.885283,-16.72074 -0.990088,-22.30863 1.880527,-11.73844 8.35629,-23.87932 16.92934,-31.73944 8.32199,-7.62994 19.23337,-12.851447 29.97362,-14.343533 4.01127,-0.557257 14.03449,-0.322797 17.90323,0.418801 35.59655,6.823432 55.23911,45.493922 39.65073,78.060762 -2.815,5.88105 -5.43374,9.67412 -9.92321,14.3732 -10.1817,10.65707 -22.81361,16.36907 -37.80345,17.09428 -2.40998,0.11659 -5.14861,0.12707 -6.08582,0.0233 z m 13.63224,-17.50695 c 7.36362,-1.85727 15.67131,-7.14064 20.47957,-13.02421 2.84931,-3.4865 6.34659,-10.37633 7.58481,-14.94247 1.19513,-4.40715 1.19353,-15.07751 -0.003,-19.47463 -6.62853,-24.36127 -33.38839,-36.08299 -55.94609,-24.50627 -3.68102,1.88912 -5.33138,3.14472 -9.14149,6.9548 -3.8101,3.81011 -5.06569,5.46048 -6.95481,9.1415 -3.3186,6.46642 -4.32495,10.68903 -4.32495,18.14728 0,4.61725 0.24368,6.99912 1.00982,9.87056 3.81633,14.30334 15.88866,25.54202 30.49916,28.39305 4.21356,0.82221 12.3996,0.54948 16.79687,-0.55961 z"
       id="path1374" />
  </g>
</svg>
