<?xml version="1.0" encoding="UTF-8" standalone="no"?>
<!-- Created with Inkscape (http://www.inkscape.org/) -->

<svg
   width="109mm"
   height="109mm"
   viewBox="0 0 109 109"
   version="1.1"
   id="svg5"
   inkscape:version="1.1 (c68e22c387, 2021-05-23)"
   sodipodi:docname="sql_white.svg"
   xmlns:inkscape="http://www.inkscape.org/namespaces/inkscape"
   xmlns:sodipodi="http://sodipodi.sourceforge.net/DTD/sodipodi-0.dtd"
   xmlns="http://www.w3.org/2000/svg"
   xmlns:svg="http://www.w3.org/2000/svg">
  <sodipodi:namedview
     id="namedview7"
     pagecolor="#ffffff"
     bordercolor="#666666"
     borderopacity="1.0"
     inkscape:pageshadow="2"
     inkscape:pageopacity="0.0"
     inkscape:pagecheckerboard="0"
     inkscape:document-units="mm"
     showgrid="false"
     fit-margin-top="0"
     fit-margin-left="0"
     fit-margin-right="0"
     fit-margin-bottom="0"
     inkscape:zoom="0.94867184"
     inkscape:cx="207.65874"
     inkscape:cy="100.14"
     inkscape:window-width="1920"
     inkscape:window-height="1106"
     inkscape:window-x="-11"
     inkscape:window-y="-11"
     inkscape:window-maximized="1"
     inkscape:current-layer="layer1" />
  <defs
     id="defs2" />
  <g
     inkscape:label="Calque 1"
     inkscape:groupmode="layer"
     id="layer1"
     transform="translate(12.76848,-74.590345)">
    <path
       style="fill:#ffffff;stroke-width:0.264583"
       d="m 33.877577,183.30527 c -7.48439,-0.58923 -15.49863,-2.20282 -20.896276,-4.20725 -7.634629,-2.83514 -12.31653545,-6.35214 -14.4813994,-10.87829 l -0.94913,-1.98438 V 129.19369 92.15202 l 0.618514,-1.629424 C 0.38429775,84.687324 8.2954447,79.770348 20.040355,76.929178 c 17.330947,-4.192469 40.532606,-2.615741 53.936144,3.665368 6.588879,3.087652 10.6876,7.320366 11.546835,11.924316 0.364199,1.951448 0.363603,71.145118 -5.3e-4,73.065708 -1.635183,8.62229 -13.793856,15.12459 -32.409434,17.33213 -4.055216,0.48089 -15.202776,0.70608 -19.235695,0.38857 z M 48.483064,175.353 c 13.428525,-0.94449 25.453917,-5.0169 28.575,-9.67698 0.646353,-0.96506 0.6633,-1.11625 0.742106,-6.62029 l 0.08065,-5.63267 -2.85877,1.42607 c -1.572326,0.78435 -3.69221,1.73931 -4.710856,2.12214 -3.959598,1.48813 -10.566564,2.96979 -17.330208,3.88641 -3.470783,0.47037 -19.368744,0.47159 -22.754167,0.002 -10.289006,-1.42796 -17.40552,-3.41261 -22.9526046,-6.40103 l -1.9182291,-1.03343 v 5.4559 c 0,5.33439 0.014653,5.48091 0.6579015,6.57853 0.8553564,1.45955 3.3700278,3.34711 6.3582032,4.77257 8.66607,4.13401 22.417445,6.08414 36.110979,5.12102 z m 2.509192,-22.35079 c 10.859685,-1.14043 19.605172,-3.86535 24.145803,-7.52336 2.655695,-2.13948 2.704338,-2.30992 2.709403,-9.49419 0.0024,-3.39549 -0.08495,-6.13285 -0.194085,-6.08303 -0.109141,0.0498 -1.179778,0.59638 -2.379195,1.21459 -7.908038,4.07599 -18.287531,6.27335 -31.167856,6.5983 -14.066596,0.35487 -27.110267,-1.96377 -35.6497849,-6.33709 -1.4870272,-0.76155 -2.7929827,-1.42553 -2.9021233,-1.47551 -0.1091407,-0.05 -0.1984375,2.75006 -0.1984375,6.2223 0,5.43181 0.061072,6.40451 0.4374517,6.96736 1.9572687,2.92699 6.598007,5.58627 12.924007,7.40584 4.662271,1.34102 8.876006,2.0606 16.007292,2.73357 2.857891,0.26969 12.860393,0.12902 16.267525,-0.22878 z m 1.988725,-23.80318 c 11.890893,-1.56745 21.346231,-5.21811 24.077083,-9.29605 0.653986,-0.97659 0.662353,-1.06043 0.740746,-7.42344 l 0.07929,-6.43568 -1.534496,0.89934 c -3.100785,1.81731 -8.900981,3.9027 -14.091325,5.06636 -18.519876,4.15211 -42.689458,2.03974 -54.9373482,-4.80142 -0.8871095,-0.4955 -1.6907814,-0.90091 -1.7859375,-0.90091 -0.095156,0 -0.173011,2.74318 -0.173011,6.09596 0,5.53831 0.047576,6.18921 0.5200787,7.11539 1.9950756,3.91067 12.303429,8.15392 23.16013,9.53344 5.159917,0.65566 7.396811,0.76442 13.890625,0.67543 4.217387,-0.0578 7.986821,-0.25591 10.054167,-0.52842 z m -5.511152,-23.16264 c 10.688402,-0.71371 19.758591,-2.95271 25.433142,-6.27822 3.182199,-1.864896 5.197694,-4.306545 4.822891,-5.842638 C 77.07968,91.267225 72.922322,88.372078 66.699171,86.236638 54.508669,82.053538 37.682233,81.340989 22.95685,84.384282 15.127958,86.002279 7.8266211,89.570181 6.0136196,92.663834 5.1692823,94.104587 5.1844318,94.865025 6.0835846,96.175758 10.58687,102.74039 29.46628,107.23857 47.469829,106.03639 Z"
       id="path1939"
       sodipodi:nodetypes="ssscccsssscssscsscccscscsssccsssccsscscsssssscscssssssssssscssss" />
  </g>
</svg>
