<?xml version="1.0" encoding="UTF-8" standalone="no"?>
<!-- Created with Inkscape (http://www.inkscape.org/) -->

<svg
   width="123.34939mm"
   height="146.27028mm"
   viewBox="0 0 123.34939 146.27028"
   version="1.1"
   id="svg5"
   inkscape:version="1.1 (c68e22c387, 2021-05-23)"
   sodipodi:docname="stack.svg"
   xmlns:inkscape="http://www.inkscape.org/namespaces/inkscape"
   xmlns:sodipodi="http://sodipodi.sourceforge.net/DTD/sodipodi-0.dtd"
   xmlns="http://www.w3.org/2000/svg"
   xmlns:svg="http://www.w3.org/2000/svg">
  <sodipodi:namedview
     id="namedview7"
     pagecolor="#ffffff"
     bordercolor="#666666"
     borderopacity="1.0"
     inkscape:pageshadow="2"
     inkscape:pageopacity="0.0"
     inkscape:pagecheckerboard="0"
     inkscape:document-units="mm"
     showgrid="false"
     fit-margin-top="0"
     fit-margin-left="0"
     fit-margin-right="0"
     fit-margin-bottom="0"
     inkscape:zoom="0.67081229"
     inkscape:cx="239.26216"
     inkscape:cy="288.45625"
     inkscape:window-width="1920"
     inkscape:window-height="1017"
     inkscape:window-x="1912"
     inkscape:window-y="-8"
     inkscape:window-maximized="1"
     inkscape:current-layer="layer1" />
  <defs
     id="defs2" />
  <g
     inkscape:label="Calque 1"
     inkscape:groupmode="layer"
     id="layer1"
     transform="translate(-41.878131,-72.34431)">
    <path
       style="fill:#ffffff;stroke-width:0.264583"
       d="m 41.878131,192.55313 v -26.06146 h 6.482291 6.482292 V 186.07084 205.65 h 45.772916 45.77292 v -19.57916 -19.57917 h 6.48229 6.48229 v 26.06146 26.06146 h -58.7375 -58.737499 z m 26.19375,-6.61459 v -6.48229 h 32.543749 32.54375 v 6.48229 6.4823 H 100.61563 68.071881 Z M 101.1448,169.333 c -17.389742,-3.64474 -31.658888,-6.65961 -31.709217,-6.69971 -0.05033,-0.0401 0.493162,-2.84939 1.207757,-6.24287 0.928608,-4.40981 1.407594,-6.18888 1.679006,-6.23624 0.410697,-0.0717 63.156174,13.01218 63.354914,13.21093 0.10423,0.10422 -0.64208,3.85236 -2.13718,10.73333 -0.22924,1.05503 -0.49797,1.90543 -0.59718,1.8898 -0.0992,-0.0156 -14.40836,-3.0105 -31.7981,-6.65524 z m 6.21771,-23.35587 c -16.007296,-7.47549 -29.206554,-13.63152 -29.331689,-13.68009 -0.2188,-0.0849 4.635498,-11.19731 5.089888,-11.6517 0.188071,-0.18807 58.233591,26.75887 58.852261,27.32146 0.26679,0.24261 -4.8771,11.6465 -5.24171,11.62078 -0.14553,-0.0103 -13.36146,-6.13497 -29.36875,-13.61045 z m 12.17032,-21.82495 c -13.67868,-11.37083 -24.965273,-20.76549 -25.081324,-20.87702 -0.217485,-0.20902 7.625314,-9.808491 8.013574,-9.808491 0.33564,0 49.87659,41.257031 49.87659,41.536541 0,0.13566 -1.54781,2.10789 -3.43958,4.38273 -1.89177,2.27485 -3.67794,4.42957 -3.96926,4.78828 l -0.52968,0.65219 z m 16.18521,-17.97012 C 125.14296,91.92949 116.49063,80.152097 116.49063,80.010082 c 0,-0.26235 10.03983,-7.8203 10.17986,-7.663362 0.042,0.04707 8.68125,11.694167 19.19834,25.882449 10.5171,14.188281 19.22413,25.929821 19.34896,26.092301 0.1511,0.19668 -1.4582,1.54542 -4.81438,4.0349 -2.77273,2.05671 -5.13508,3.73947 -5.24965,3.73947 -0.11458,0 -8.86065,-11.6612 -19.43572,-25.91378 z"
       id="path890" />
  </g>
</svg>
