<?xml version="1.0" encoding="UTF-8" standalone="no"?>
<!-- Created with Inkscape (http://www.inkscape.org/) -->

<svg
   width="211.36861mm"
   height="200.75615mm"
   viewBox="0 0 211.3686 200.75615"
   version="1.1"
   id="svg5"
   inkscape:version="1.1 (c68e22c387, 2021-05-23)"
   sodipodi:docname="star_white.svg"
   xmlns:inkscape="http://www.inkscape.org/namespaces/inkscape"
   xmlns:sodipodi="http://sodipodi.sourceforge.net/DTD/sodipodi-0.dtd"
   xmlns="http://www.w3.org/2000/svg"
   xmlns:svg="http://www.w3.org/2000/svg">
  <sodipodi:namedview
     id="namedview7"
     pagecolor="#ffffff"
     bordercolor="#666666"
     borderopacity="1.0"
     inkscape:pageshadow="2"
     inkscape:pageopacity="0.0"
     inkscape:pagecheckerboard="0"
     inkscape:document-units="mm"
     showgrid="false"
     fit-margin-top="0"
     fit-margin-left="0"
     fit-margin-right="0"
     fit-margin-bottom="0"
     inkscape:zoom="0.67081229"
     inkscape:cx="201.99391"
     inkscape:cy="267.58603"
     inkscape:window-width="1920"
     inkscape:window-height="1017"
     inkscape:window-x="1912"
     inkscape:window-y="-8"
     inkscape:window-maximized="1"
     inkscape:current-layer="layer1"
     height="129.26004mm"
     width="117.48024mm" />
  <defs
     id="defs2" />
  <g
     inkscape:label="Calque 1"
     inkscape:groupmode="layer"
     id="layer1"
     transform="translate(-58.987489,50.597294)">
    <path
       style="fill:#ffffff;stroke-width:0.264583"
       d="m 167.52891,67.114388 c -0.53642,-1.404578 -0.23824,-2.505753 0.67849,-2.505753 0.91674,0 1.21491,1.101175 0.6785,2.505753 -0.60653,1.711523 -0.89503,1.19202 -1.35699,0 z m -8.24496,-1.587638 c -1.47604,-0.944354 -1.96294,-1.422464 -2.29578,-2.254311 -0.58761,-1.468594 -0.52931,-2.175327 0.23903,-2.897137 l 0.66145,-0.621409 10e-4,0.906018 c 8.2e-4,0.560663 0.24476,1.208575 0.63999,1.699766 l 0.63867,0.79375 -0.30507,-1.151816 c -0.27909,-1.053716 -0.24676,-1.256522 0.37954,-2.38125 0.62454,-1.121558 0.78115,-1.236586 1.78479,-1.310942 l 1.10019,-0.08151 -0.4469,0.937159 c -0.58068,1.217695 -0.31056,1.751296 2.12106,4.189929 0.9969,0.999775 1.77081,1.858909 1.71979,1.90918 -0.25313,0.249447 -3.0732,-0.498441 -3.54939,-0.941305 -0.78212,-0.727382 -0.98425,-0.627256 -0.52532,0.260217 0.21849,0.422513 0.81686,1.027536 1.32971,1.344496 0.51284,0.316958 0.93245,0.62611 0.93245,0.687002 0,0.06089 -0.57425,0.110712 -1.2761,0.110712 -1.06157,0 -1.59102,-0.201486 -3.14944,-1.198552 z m 13.42137,1.08784 c 0,-0.06089 0.41961,-0.370044 0.93246,-0.687002 0.51285,-0.31696 1.11122,-0.921983 1.32971,-1.344496 0.45893,-0.887473 0.2568,-0.987599 -0.52533,-0.260217 -0.47619,0.442864 -3.29625,1.190752 -3.54939,0.941305 -0.051,-0.05027 0.72289,-0.909405 1.7198,-1.90918 2.43161,-2.438633 2.70174,-2.972234 2.12106,-4.189929 l -0.4469,-0.937159 1.10018,0.08151 c 1.00365,0.07436 1.16025,0.189384 1.7848,1.310942 0.6263,1.124728 0.65863,1.327534 0.37954,2.38125 l -0.30508,1.151816 0.63868,-0.79375 c 0.39523,-0.491191 0.63918,-1.139103 0.63999,-1.699766 l 10e-4,-0.906018 0.66146,0.621409 c 0.76833,0.72181 0.82664,1.428543 0.23903,2.897137 -0.33284,0.831847 -0.81975,1.309957 -2.29578,2.254311 -1.55842,0.997066 -2.08787,1.198552 -3.14944,1.198552 -0.70186,0 -1.2761,-0.04982 -1.2761,-0.110712 z m -7.63873,-5.972615 c -1.66479,-1.315942 -1.92774,-1.803884 -1.97824,-3.670977 -0.0222,-0.819768 -0.12822,-1.556185 -0.23566,-1.63648 -0.18665,-0.139499 -0.7307,-2.600861 -0.7307,-3.305799 0,-0.209168 0.72712,-0.471284 1.91823,-0.691491 l 1.91823,-0.354635 -1.45521,-0.0813 c -0.80037,-0.04472 -1.56049,-0.185711 -1.68916,-0.313321 -0.37168,-0.368617 2.36283,-2.854425 3.48189,-3.165216 1.10282,-0.30628 2.70725,-0.36075 3.35089,-0.113762 0.32673,0.12538 0.22516,0.262377 -0.44138,0.595313 l -0.86578,0.432455 -0.0722,4.696354 c -0.0808,5.254662 -0.0228,5.131054 -1.94831,4.14873 -1.24707,-0.636206 -1.60042,-0.531274 -0.6715,0.199412 0.43141,0.339349 0.70194,0.893611 0.82185,1.683808 0.0983,0.647872 0.24136,1.505368 0.31789,1.90555 0.18768,0.981348 -0.14356,0.918086 -1.72079,-0.328639 z m 2.55543,-6.418236 c -0.0698,-2.245649 -0.1197,-2.447396 -0.60524,-2.447396 -0.48864,0 -0.5253,0.159568 -0.47871,2.083418 0.0579,2.392547 0.16893,2.811374 0.74492,2.811374 0.35265,0 0.40366,-0.36822 0.33903,-2.447396 z m -2.42136,0.161509 c -0.0925,-0.675154 -0.16826,-1.45779 -0.16826,-1.739192 0,-0.344337 -0.151,-0.482558 -0.46179,-0.422705 -0.36488,0.07027 -0.44307,0.30624 -0.37258,1.124404 0.1142,1.325593 0.47247,2.265047 0.86379,2.265047 0.21312,0 0.25561,-0.375643 0.13884,-1.227554 z m 4.43091,6.585366 c 0.0788,-0.400182 0.21774,-1.263385 0.30874,-1.918229 0.11481,-0.826254 0.36079,-1.336103 0.80377,-1.665997 0.72547,-0.540273 0.79972,-0.426537 0.27324,0.418534 -0.37908,0.608484 -0.77072,2.57038 -0.51311,2.57038 0.39744,0 2.1227,-1.79941 2.52116,-2.629517 0.43467,-0.905544 0.44614,-0.911349 0.2936,-0.148608 -0.26925,1.346316 -0.82994,2.187845 -2.10778,3.163546 -1.47735,1.128043 -1.76805,1.166667 -1.57962,0.209891 z m -0.0151,-6.6017 c 0.0416,-1.960681 -0.005,-2.185646 -0.48307,-2.332911 -0.34978,-0.107732 -0.41409,-0.210252 -0.18971,-0.302425 0.81361,-0.334214 1.1162,0.136808 1.08445,1.688107 -0.0172,0.841312 -0.12726,1.886846 -0.24453,2.323408 -0.14809,0.551236 -0.19915,0.130771 -0.16714,-1.376179 z m 2.16511,-0.309896 c 0.14221,-1.072248 0.10007,-1.477535 -0.17149,-1.649595 -0.26506,-0.167937 -0.20629,-0.22917 0.22283,-0.232153 0.54661,-0.0038 0.57327,0.08231 0.42891,1.385011 -0.0847,0.763984 -0.26977,1.508125 -0.41135,1.653646 -0.16711,0.171763 -0.19128,-0.2341 -0.0689,-1.156909 z m 2.57318,-5.88447 c -1.07805,-0.533623 -2.17865,-1.614924 -2.17865,-2.140445 0,-0.135805 0.34581,-6.87e-4 0.76845,0.300265 1.42288,1.013175 1.71801,0.590641 0.81905,-1.172608 -0.65241,-1.279682 -0.65286,-1.265544 0.0328,-1.047923 l 0.56197,0.178362 -0.57606,-1.024973 c -0.83636,-1.488094 -2.12937,-2.276914 -3.93837,-2.402652 -1.07057,-0.07441 -1.39208,-0.02721 -1.11508,0.163698 0.21406,0.147541 0.33313,0.304496 0.26458,0.348789 -0.0685,0.04429 -0.48182,0.262917 -0.91838,0.485833 -0.66493,0.339526 -0.80695,0.58642 -0.87511,1.521354 -0.0447,0.613829 -0.19584,1.116053 -0.33577,1.116053 -0.13992,0 -0.1797,0.297657 -0.0884,0.661459 0.22483,0.895819 -0.0302,0.832448 -1.06484,-0.264584 -0.48035,-0.509323 -1.12018,-0.926041 -1.42183,-0.926041 -0.30165,0 -0.61433,-0.106587 -0.69484,-0.236859 -0.17976,-0.290854 0.4629,-0.556891 1.34525,-0.556891 0.56922,0 0.62879,-0.08005 0.443,-0.595313 -0.11806,-0.327422 -0.20906,-1.05674 -0.20222,-1.620707 0.0101,-0.831686 0.19301,-1.190876 0.96828,-1.901359 1.11382,-1.020736 3.17433,-1.707426 5.08335,-1.694079 1.28804,0.009 1.3149,0.02393 0.67958,0.377742 -0.63068,0.351224 -0.63683,0.377231 -0.13229,0.558853 2.48106,0.893124 3.5951,1.770323 4.48927,3.534877 0.66829,1.318808 1.12986,3.192069 0.78653,3.192069 -0.11388,0 -0.42478,-0.197047 -0.69091,-0.437882 -0.30723,-0.278043 -0.48385,-0.322486 -0.48385,-0.121751 0,0.657042 1.06271,2.360743 1.96879,3.156288 0.51789,0.454719 0.94163,0.88993 0.94163,0.967137 0,0.07721 -0.74414,0.140281 -1.65365,0.140166 -1.14968,-1.45e-4 -1.99761,-0.170468 -2.78229,-0.558878 z m -6.67656,-2.086747 c 0,-0.291041 0.11906,-0.529166 0.26458,-0.529166 0.14552,0 0.26458,0.238125 0.26458,0.529166 0,0.291042 -0.11906,0.529167 -0.26458,0.529167 -0.14552,0 -0.26458,-0.238125 -0.26458,-0.529167 z"
       id="path3008"
       sodipodi:nodetypes="cscccssccscssscsscssssscccsssscscssscsccssssccccssscsssssccssssccsscsscsssscssssssssscsscccssscsssscsscssscscscssssscssssssssssssssssss" />
    <path
       style="fill:#ffffff;stroke-width:0.264583"
       d="m 100.14262,147.50959 c 0.50814,-1.57293 6.1025,-18.79523 12.43191,-38.27178 6.32942,-19.476555 11.45343,-35.549992 11.3867,-35.718751 C 123.8945,73.350297 109.24811,62.61566 91.413694,49.664306 l -32.426205,-23.547915 40.311945,-0.06699 40.311946,-0.06699 1.19945,-3.637177 c 0.65969,-2.000448 5.73563,-17.6270193 11.27985,-34.725716 13.07974,-40.338678 12.46822,-38.505951 12.7032,-38.071582 0.15509,0.286689 14.3591,43.8930602 23.54008,72.268132 l 1.34805,4.166343 40.33704,0.06699 40.33704,0.06699 -32.54236,23.641453 c -17.8983,13.002802 -32.54237,23.759146 -32.54237,23.902992 0,0.143843 5.23025,16.353781 11.62278,36.022084 6.39253,19.6683 11.97557,36.86093 12.40677,38.20585 0.43119,1.34492 0.64805,2.3634 0.48191,2.2633 -0.16614,-0.10011 -14.85792,-10.75526 -32.64839,-23.67812 -17.79047,-12.92286 -32.39828,-23.4961 -32.4618,-23.4961 -0.0635,0 -14.55625,10.4925 -32.20607,23.31667 -17.64982,12.82417 -32.35096,23.48728 -32.66921,23.6958 -0.550402,0.36064 -0.533561,0.23963 0.34527,-2.48073 z"
       id="path3260" />
  </g>
</svg>
