<?xml version="1.0" encoding="UTF-8" standalone="no"?>
<!-- Created with Inkscape (http://www.inkscape.org/) -->

<svg
   width="327.95609mm"
   height="327.95609mm"
   viewBox="0 0 327.95609 327.95608"
   version="1.1"
   id="svg827"
   inkscape:version="1.1 (c68e22c387, 2021-05-23)"
   sodipodi:docname="stats.svg"
   xmlns:inkscape="http://www.inkscape.org/namespaces/inkscape"
   xmlns:sodipodi="http://sodipodi.sourceforge.net/DTD/sodipodi-0.dtd"
   xmlns="http://www.w3.org/2000/svg"
   xmlns:svg="http://www.w3.org/2000/svg">
  <sodipodi:namedview
     id="namedview829"
     pagecolor="#ffffff"
     bordercolor="#666666"
     borderopacity="1.0"
     inkscape:pageshadow="2"
     inkscape:pageopacity="0.0"
     inkscape:pagecheckerboard="0"
     inkscape:document-units="mm"
     showgrid="false"
     fit-margin-top="0"
     fit-margin-left="0"
     fit-margin-right="0"
     fit-margin-bottom="0"
     inkscape:zoom="0.47433592"
     inkscape:cx="340.47601"
     inkscape:cy="730.49496"
     inkscape:window-width="1920"
     inkscape:window-height="1017"
     inkscape:window-x="1912"
     inkscape:window-y="-8"
     inkscape:window-maximized="1"
     inkscape:current-layer="layer1" />
  <defs
     id="defs824" />
  <g
     inkscape:label="Calque 1"
     inkscape:groupmode="layer"
     id="layer1"
     transform="translate(-3.7879909,-30.316685)">
    <path
       style="fill:#ffffff;stroke-width:0.185237"
       d="m 23.138316,298.15128 c -1.84139,-0.26535 -4.335,-1.05748 -6.34301,-2.01496 -6.72616,-3.20721 -11.3655701,-9.27547 -12.7280301,-16.648 -0.37238,-2.01504 -0.37238,-6.00182 0,-8.01686 0.85995,-4.65335 3.11073,-8.95282 6.3866001,-12.19978 7.823,-7.75393 19.91958,-8.89582 29.0404,-2.74131 0.74348,0.50167 1.93042,1.45799 2.63764,2.12516 0.71381,0.67337 1.38975,1.16671 1.51938,1.10896 0.12844,-0.0572 6.28817,-5.21377 13.6883,-11.45895 7.40013,-6.24518 21.87122,-18.44017 32.157974,-27.09999 l 18.70319,-15.74511 -0.72051,-1.44431 c -0.96076,-1.92594 -1.73845,-4.29732 -2.11049,-6.43549 -0.45206,-2.59803 -0.28667,-7.04312 0.35295,-9.48604 3.22986,-12.33584 15.64368,-19.68298 27.95741,-16.54663 7.99827,2.03719 14.33845,8.40416 16.48115,16.55078 0.52852,2.00947 0.57261,2.41524 0.58822,5.41392 0.0143,2.75597 -0.0474,3.52886 -0.41241,5.15869 -0.2361,1.05438 -0.40282,1.93777 -0.37047,1.9631 0.0323,0.0253 8.06103,4.16238 17.84152,9.19346 9.7805,5.03108 22.24229,11.4516 27.69288,14.26782 8.36648,4.32281 9.93902,5.07606 10.0954,4.83571 2.62367,-4.03245 4.02327,-5.64502 6.55217,-7.54925 3.94397,-2.96974 8.66802,-4.52971 13.71735,-4.52971 3.79644,0 7.01967,0.75636 10.3579,2.43059 0.97499,0.48899 1.78644,0.87152 1.8032,0.85006 0.11737,-0.15024 4.53839,-7.45735 23.0547,-38.10514 11.54108,-19.10253 23.02585,-38.10781 25.52171,-42.23395 2.49588,-4.12615 5.60216,-9.26816 6.9029,-11.42669 l 2.36493,-3.92459 -1.05111,-0.79076 c -4.23508,-3.1861 -7.51875,-8.62756 -8.46614,-14.0295 -0.40404,-2.30371 -0.3567,-6.31074 0.10108,-8.55712 1.89038,-9.276185 9.2268,-16.436621 18.49695,-18.053198 2.29483,-0.400183 6.13826,-0.353216 8.37366,0.102327 4.779,0.973894 8.78967,3.191544 12.16924,6.728825 3.01856,3.159409 4.94092,6.822193 5.89721,11.236236 0.42521,1.96273 0.47596,6.67356 0.0928,8.61351 -0.92555,4.68606 -3.04611,8.67407 -6.40824,12.05154 -3.28794,3.30294 -6.94988,5.29445 -11.61775,6.31819 -1.18307,0.25946 -2.2828,0.33329 -4.77838,0.32077 -3.26,-0.0164 -4.06926,-0.14437 -7.58027,-1.19912 -0.25591,-0.0769 -1.33039,1.63251 -8.79925,13.99885 -1.3537,2.24136 -4.65292,7.70121 -7.33157,12.133 -2.67865,4.43179 -6.93491,11.47541 -9.45835,15.6525 -2.52341,4.17708 -11.00584,18.21327 -18.84979,31.19152 l -14.26174,23.59683 1.01778,1.19974 c 1.3387,1.57805 2.14745,2.86332 3.22728,5.12876 5.84474,12.2619 -0.67368,27.23051 -13.67909,31.41208 -12.56809,4.04097 -25.79341,-3.18582 -29.22201,-15.96788 -0.87756,-3.27162 -0.9914,-6.62372 -0.35182,-10.35941 l 0.11451,-0.66879 -7.66105,-3.94335 c -4.21358,-2.16884 -10.03671,-5.16881 -12.9403,-6.6666 -2.90358,-1.49778 -7.07141,-3.6455 -9.26183,-4.7727 -2.19042,-1.12721 -8.9309,-4.599 -14.97884,-7.7151 -6.04794,-3.11609 -11.04933,-5.6649 -11.1142,-5.66401 -0.0649,9.3e-4 -0.42737,0.48198 -0.80556,1.06908 -2.31001,3.58608 -6.986,7.10713 -11.44539,8.61846 -7.77867,2.63625 -16.81002,0.77444 -22.65656,-4.67065 -0.83755,-0.78003 -0.91667,-0.81393 -1.31284,-0.56252 -0.23187,0.14715 -14.847391,12.42323 -32.478941,27.28018 l -32.057363,27.01265 0.61022,1.32856 c 4.05426,8.82699 2.24293,18.97022 -4.60673,25.79706 -3.56183,3.54996 -7.53171,5.62552 -12.32806,6.44542 -1.86814,0.31933 -5.44537,0.36478 -7.33051,0.0931 z"
       id="path918" />
  </g>
</svg>
