<?xml version="1.0" encoding="UTF-8" standalone="no"?>
<!-- Created with Inkscape (http://www.inkscape.org/) -->

<svg
   width="300mm"
   height="300mm"
   viewBox="0 0 300 300"
   version="1.1"
   id="svg5"
   inkscape:version="1.1 (c68e22c387, 2021-05-23)"
   sodipodi:docname="swift.svg"
   xmlns:inkscape="http://www.inkscape.org/namespaces/inkscape"
   xmlns:sodipodi="http://sodipodi.sourceforge.net/DTD/sodipodi-0.dtd"
   xmlns="http://www.w3.org/2000/svg"
   xmlns:svg="http://www.w3.org/2000/svg">
  <sodipodi:namedview
     id="namedview7"
     pagecolor="#ffffff"
     bordercolor="#666666"
     borderopacity="1.0"
     inkscape:pageshadow="2"
     inkscape:pageopacity="0.0"
     inkscape:pagecheckerboard="0"
     inkscape:document-units="mm"
     showgrid="false"
     inkscape:zoom="0.33540614"
     inkscape:cx="335.41425"
     inkscape:cy="490.45017"
     inkscape:window-width="1920"
     inkscape:window-height="1017"
     inkscape:window-x="1912"
     inkscape:window-y="-8"
     inkscape:window-maximized="1"
     inkscape:current-layer="layer1" />
  <defs
     id="defs2" />
  <g
     inkscape:label="Calque 1"
     inkscape:groupmode="layer"
     id="layer1">
    <path
       style="fill:#f95029;fill-opacity:1;stroke-width:0.266437"
       d="m 295.83959,283.04643 c -3.36605,-6.16099 -6.32649,-10.27694 -10.03833,-13.95653 -11.42484,-11.32557 -27.13132,-14.11574 -47.03354,-8.35526 -4.062,1.17568 -11.01008,3.80625 -13.32189,5.04371 -5.92273,3.1703 -13.46417,6.59243 -17.98453,8.16098 -14.99366,5.20276 -29.08975,7.53991 -45.47545,7.53991 -12.68863,0 -24.01725,-1.29577 -36.45414,-4.16967 C 76.713055,266.02868 32.086636,234.90122 3.1888178,191.97393 c -1.7320745,-2.57298 -3.14922688,-4.77628 -3.14922688,-4.89621 0,-0.11994 0.86925253,0.48353 1.93167338,1.34104 11.1315827,8.98456 29.4533137,18.91385 46.9278487,25.43215 31.167268,11.62586 62.059127,14.12358 89.891297,7.26799 10.44181,-2.57202 20.28483,-6.46064 28.99837,-11.4562 1.45073,-0.83173 2.72895,-1.59635 2.84051,-1.69917 0.11156,-0.10281 -1.68689,-1.67168 -3.99657,-3.48637 -15.03183,-11.81033 -29.59925,-24.78605 -45.46048,-40.49324 -24.803936,-24.56303 -45.943405,-48.64146 -73.48176,-83.697712 -1.222801,-1.556625 -3.289367,-4.014504 -4.592375,-5.46197 -1.303009,-1.447465 -3.447353,-4.07052 -4.765208,-5.829011 -2.535238,-3.382903 -9.639859,-13.958382 -9.479439,-14.110475 0.05203,-0.04932 1.293587,0.994492 2.758993,2.319628 22.300963,20.166256 60.417353,50.02361 92.320639,72.3167 8.98948,6.28158 20.21312,13.68284 25.17837,16.60347 l 1.06574,0.62689 -0.68313,-0.77753 c -0.37572,-0.42764 -2.238,-2.45608 -4.13838,-4.50765 C 126.85274,121.49128 106.57353,96.834359 85.970673,69.261664 76.191226,56.173893 64.783938,40.093753 64.783938,39.396059 c 0,-0.1147 3.746779,3.502118 8.326177,8.03737 34.187195,33.857674 73.498855,66.762631 112.503295,94.168421 5.88955,4.1382 18.40112,12.49738 20.91535,13.97389 0.95252,0.55938 2.49132,1.50094 3.41957,2.09235 1.27467,0.81212 1.73972,0.99116 1.90019,0.73154 0.52393,-0.84776 3.04649,-8.86405 4.11745,-13.08462 4.37866,-17.25601 4.97747,-34.3686 1.87347,-53.539362 -4.03448,-24.917564 -15.21852,-51.161644 -31.84311,-74.721889 l -1.68224,-2.384071 1.04932,0.62669 c 3.02985,1.809539 12.23937,8.066706 15.96982,10.850267 8.12454,6.062337 14.38174,11.432958 21.81941,18.727863 16.13596,15.826204 28.84584,32.941633 38.68687,52.096673 9.66452,18.811449 15.22174,36.890399 17.60839,57.284089 0.66963,5.72216 0.67145,21.54878 0.003,27.04341 -0.74243,6.1034 -1.72625,11.43489 -3.16042,17.12709 l -1.32796,5.27059 2.39799,3.16983 c 14.96986,19.78811 23.2636,43.49505 22.60417,64.61197 -0.1952,6.25059 -1.01574,10.41092 -2.33202,11.82379 -0.74009,0.79437 -1.26001,0.72028 -1.79313,-0.25552 z"
       id="path4990" />
  </g>
</svg>
