<?xml version="1.0" encoding="UTF-8" standalone="no"?>
<!-- Created with Inkscape (http://www.inkscape.org/) -->

<svg
   width="247.91458mm"
   height="248.0558mm"
   viewBox="0 0 247.91458 248.0558"
   version="1.1"
   id="svg5"
   inkscape:version="1.1 (c68e22c387, 2021-05-23)"
   sodipodi:docname="translate.svg"
   xmlns:inkscape="http://www.inkscape.org/namespaces/inkscape"
   xmlns:sodipodi="http://sodipodi.sourceforge.net/DTD/sodipodi-0.dtd"
   xmlns="http://www.w3.org/2000/svg"
   xmlns:svg="http://www.w3.org/2000/svg">
  <sodipodi:namedview
     id="namedview7"
     pagecolor="#ffffff"
     bordercolor="#666666"
     borderopacity="1.0"
     inkscape:pageshadow="2"
     inkscape:pageopacity="0.0"
     inkscape:pagecheckerboard="0"
     inkscape:document-units="mm"
     showgrid="false"
     fit-margin-top="0"
     fit-margin-left="0"
     fit-margin-right="0"
     fit-margin-bottom="0"
     inkscape:zoom="0.33540614"
     inkscape:cx="758.78157"
     inkscape:cy="225.10023"
     inkscape:window-width="1920"
     inkscape:window-height="1017"
     inkscape:window-x="1912"
     inkscape:window-y="-8"
     inkscape:window-maximized="1"
     inkscape:current-layer="layer1" />
  <defs
     id="defs2" />
  <g
     inkscape:label="Calque 1"
     inkscape:groupmode="layer"
     id="layer1"
     transform="translate(5.7935058,-20.369885)">
    <path
       style="fill:#ffffff;stroke-width:0.264583"
       d="m 117.99396,267.82595 c -0.14237,-0.3299 -2.92674,-8.63653 -6.18748,-18.45919 -3.26074,-9.82266 -6.05155,-17.94685 -6.2018,-18.05376 -0.15025,-0.10692 -20.416726,-0.19621 -45.036616,-0.19844 -48.44954,-0.004 -46.21467,0.0587 -50.12832,-1.41442 -7.5227498,-2.83155 -13.4081798,-9.22572 -15.6273398,-16.97817 l -0.60591,-2.11667 c 0,-56.62083 0,-113.241663 0,-169.862494 l 0.61085,-2.11667 c 2.41781,-8.377957 9.26745,-15.227587 17.6453998,-17.645398 l 2.11667,-0.610853 h 39.40748 39.40748 l 10.997986,37.173957 121.49547,1.41037 c 8.74169,4.688107 13.90629,10.96591 16.23325,19.09484 V 247.91155 l -0.61086,2.11667 c -2.39839,8.31068 -9.0906,15.05243 -17.5131,17.64277 l -1.98438,0.6103 -51.87996,0.0722 -51.87996,0.0722 z M 221.04,255.63628 c 4.51993,-1.81553 6.83406,-4.16502 8.44768,-8.57674 0.89824,-58.4389 0.46256,-87.32361 0.46256,-166.893828 -1.66394,-4.722211 -5.07243,-8.461523 -8.86354,-9.88214 l -112.97708,-0.10892 c 0,0.25825 0.10952,0.82596 0.24338,1.26156 0.47566,1.54786 6.83003,23.0614 8.0879,27.38263 4.44921,15.284548 8.8666,30.212988 9.00772,30.441318 0.0536,0.0868 0.96657,0.0512 2.02874,-0.0791 4.72138,-0.5792 14.54838,1.61935 15.54272,3.4773 0.15621,0.29189 0.27912,2.09369 0.27912,4.09191 0,2.92303 -0.0769,3.64727 -0.42418,3.99455 -0.38919,0.38918 -0.48525,0.38529 -1.16444,-0.0473 -5.31256,-3.38327 -7.0892,-4.0477 -11.33857,-4.24039 -2.98853,-0.13552 -3.00429,-0.13309 -2.8235,0.43652 0.1,0.31505 0.83489,2.80107 1.6331,5.5245 0.79821,2.72343 1.54128,5.04331 1.65127,5.15529 0.10998,0.11197 1.43918,0.50365 2.95377,0.87039 6.7805,1.64181 10.00837,4.64899 10.84622,10.10466 0.74374,4.84291 -1.57838,10.2398 -5.46135,12.69286 -0.63968,0.40411 -1.16326,0.90187 -1.16351,1.10615 -2.7e-4,0.20427 0.72504,2.82364 1.61178,5.82083 l 15.58566,52.91864 c 0,0.23239 -5.47283,5.89439 -12.16185,12.58223 -8.1713,8.16985 -12.05628,12.22831 -11.8401,12.36882 0.17695,0.11502 20.20518,0.17506 44.50716,0.13342 41.23185,-0.0707 44.26188,-0.10643 45.32934,-0.5352 z m -27.84488,-67.27181 c -0.35687,-0.35688 -0.3647,-0.5269 -0.0578,-1.25677 0.19519,-0.46424 1.91331,-4.48032 3.81803,-8.92463 l 3.46314,-8.08056 -7.39297,-19.39952 c -4.06613,-10.66974 -7.39297,-19.49678 -7.39297,-19.61565 0,-0.11887 0.1871,-0.40322 0.41578,-0.63189 0.56191,-0.56191 7.55058,-0.6158 8.09814,-0.0624 0.19229,0.19433 2.67134,6.68262 5.509,14.41843 2.83766,7.73581 5.22492,14.06571 5.30503,14.06646 0.0801,7.9e-4 2.45529,-6.32414 5.27817,-14.05531 2.82288,-7.73116 5.29592,-14.22007 5.49564,-14.41979 0.56237,-0.56237 7.54192,-0.51707 8.11164,0.0526 0.22867,0.22867 0.41577,0.5113 0.41577,0.62805 0,0.63547 -22.32807,57.08592 -22.68899,57.36295 -0.29826,0.22892 -1.5905,0.33073 -4.19789,0.33073 -3.05989,0 -3.84446,-0.0775 -4.1797,-0.41271 z m -35.06142,-14.1606 c -2.04722,-0.36022 -5.02606,-1.87537 -6.70645,-3.41115 -1.5844,-1.44806 -3.02101,-3.90667 -3.79192,-6.4895 -0.66594,-2.23118 -0.59929,-6.28286 0.14212,-8.63863 2.17215,-6.90186 8.82941,-10.14477 22.53467,-10.97717 l 2.885,-0.17522 v -1.6498 c 0,-2.49191 -0.99157,-4.23411 -2.99212,-5.25724 -1.38023,-0.70587 -1.80383,-0.78331 -4.88202,-0.89252 -3.93187,-0.1395 -6.68911,0.28586 -10.63172,1.64016 -1.39069,0.4777 -2.72153,0.95265 -2.95742,1.05543 -0.25717,0.11205 -0.60149,0.0143 -0.8599,-0.24411 -0.62431,-0.62431 -0.63713,-7.29301 -0.0152,-7.91492 0.22867,-0.22868 0.49656,-0.41639 0.59531,-0.41714 0.0987,-7.9e-4 1.56519,-0.29549 3.25878,-0.65498 9.01577,-1.91374 17.01984,-1.27111 21.60054,1.73429 2.48935,1.63327 4.00216,3.83164 4.99352,7.25643 0.4082,1.41017 0.47043,3.36422 0.55712,17.49314 0.0886,14.4474 0.0579,15.94527 -0.33479,16.33802 -0.35697,0.35696 -1.04885,0.43238 -3.96647,0.43238 -4.19754,0 -4.36562,-0.0873 -4.36562,-2.26786 0,-0.78997 -0.0646,-1.43631 -0.14365,-1.43631 -0.079,0 -0.76361,0.46313 -1.52135,1.02918 -2.90709,2.17164 -6.10405,3.36041 -9.5798,3.56219 -1.30968,0.076 -3.02806,0.0244 -3.81862,-0.11467 z m 8.46696,-8.3338 c 1.52588,-0.44331 4.42762,-2.0379 5.78142,-3.17704 l 0.81504,-0.68581 v -5.15692 -5.15691 l -1.78594,0.16995 c -4.20074,0.39974 -8.23669,0.97156 -9.58318,1.35776 -2.87545,0.82474 -4.80034,2.17566 -5.59606,3.92742 -0.55045,1.21182 -0.65747,3.92158 -0.21745,5.50605 0.35678,1.28473 1.75345,2.67295 3.20601,3.1866 1.55158,0.54866 5.53744,0.56427 7.38016,0.0289 z m -126.846306,-2.12424 -0.17955,-19.73967 1.26064,0.95299 c 2.83922,2.14634 9.10203,5.24228 13.08743,6.46961 5.76091,1.77411 11.63471,1.78142 16.95241,0.0211 3.10475,-1.02776 8.43678,-3.86505 11.30517,-6.01572 3.20902,-2.40607 7.1477,-6.40535 9.30242,-9.44554 2.73746,-3.8624 5.4512,-10.09262 6.33675,-14.5479 0.55584,-2.79647 0.49154,-13.22412 -0.10304,-16.71134 -1.58311,-9.284968 -5.86642,-17.756518 -12.01372,-23.760798 -5.72111,-5.588 -14.44918,-8.97773 -23.10158,-8.97199 -4.01644,0.003 -5.88842,0.28932 -9.525,1.45855 -4.29929,1.38231 -6.59129,2.7772 -12.00464,7.3059 -1.08717,0.9095 -2.04556,1.65364 -2.12977,1.65364 -0.15309,-8.52689 0,0 -0.15309,-8.52689 -6.323573,0.0642 -12.647147,0.1284 -18.97072,0.1926 l -0.19213,14.02858 c -0.19573,14.291738 -0.16718,94.816838 0.0337,95.178188 0.0607,0.10914 4.64721,0.19844 10.19228,0.19844 h 10.08194 z m 7.59097,-32.81734 c -4.14223,-3.14343 -7.47841,-8.41967 -8.40159,-13.28732 -0.48004,-2.53112 -0.55269,-7.65458 -0.14146,-9.97634 1.22921,-6.93993 5.57038,-13.191208 10.93698,-15.749248 3.11795,-1.4862 5.07903,-1.93253 8.49641,-1.93374 5.77769,-0.002 10.81268,2.21374 14.84725,6.53393 1.56933,1.68042 1.98987,2.3519 2.95052,4.711098 1.92742,4.73344 2.47072,7.2442 2.46579,11.39507 -0.003,2.89305 -0.49829,5.80558 -1.47362,8.6732 -6.28439,12.35155 -19.16283,17.4956 -29.68028,9.63335 z m 88.791526,30.7819 c 0.0115,-1.10772 -0.13238,-2.09104 -0.37428,-2.55883 -0.37852,-0.73196 -1.90525,-2.03112 -2.12668,-1.80968 -0.0922,0.0922 1.4577,5.67328 1.89651,6.82904 0.27417,0.72212 0.58462,-0.54162 0.60445,-2.46053 z"
       id="path2549"
       sodipodi:nodetypes="ssscssccsscccccccsscccssccccssssssscssssssssccsssssssscssssssssssssssssssscsssssssssssssssssssssscccssssssccsssssssscsscccssscccsssssscccsssss" />
  </g>
</svg>
