<?xml version="1.0" encoding="UTF-8" standalone="no"?>
<!-- Created with Inkscape (http://www.inkscape.org/) -->

<svg
   width="97.895828mm"
   height="116.86242mm"
   viewBox="0 0 97.895826 116.86242"
   version="1.1"
   id="svg5"
   inkscape:version="1.1 (c68e22c387, 2021-05-23)"
   sodipodi:docname="trash.svg"
   xmlns:inkscape="http://www.inkscape.org/namespaces/inkscape"
   xmlns:sodipodi="http://sodipodi.sourceforge.net/DTD/sodipodi-0.dtd"
   xmlns="http://www.w3.org/2000/svg"
   xmlns:svg="http://www.w3.org/2000/svg">
  <sodipodi:namedview
     id="namedview7"
     pagecolor="#ffffff"
     bordercolor="#666666"
     borderopacity="1.0"
     inkscape:pageshadow="2"
     inkscape:pageopacity="0.0"
     inkscape:pagecheckerboard="0"
     inkscape:document-units="mm"
     showgrid="false"
     fit-margin-top="0"
     fit-margin-left="0"
     fit-margin-right="0"
     fit-margin-bottom="0"
     inkscape:zoom="0.67081229"
     inkscape:cx="-125.96668"
     inkscape:cy="70.809675"
     inkscape:window-width="1920"
     inkscape:window-height="1017"
     inkscape:window-x="1912"
     inkscape:window-y="-8"
     inkscape:window-maximized="1"
     inkscape:current-layer="layer1" />
  <defs
     id="defs2" />
  <g
     inkscape:label="Calque 1"
     inkscape:groupmode="layer"
     id="layer1"
     transform="translate(-138.58836,-129.73664)">
    <path
       style="fill:#ffffff;stroke-width:0.264583"
       d="m 163.81473,246.41486 c -3.34213,-0.6738 -6.19041,-3.26736 -7.10574,-6.47029 -0.20875,-0.73046 -2.22649,-18.94935 -4.48386,-40.48644 -2.25737,-21.53708 -4.17669,-39.72388 -4.26516,-40.4151 l -0.16085,-1.25677 h 39.73716 39.73715 l -0.16083,1.25677 c -0.0885,0.69122 -2.00137,18.87802 -4.25091,40.4151 -2.29591,21.98097 -4.2667,39.74678 -4.49272,40.49979 -0.81339,2.70994 -2.98719,5.03523 -5.7351,6.13477 -1.0628,0.42526 -2.97053,0.4645 -24.43614,0.50257 -12.80583,0.0227 -23.77818,-0.0585 -24.383,-0.1804 z m 7.46716,-9.91132 c 0.77734,-0.45555 1.30675,-1.03873 1.72236,-1.89726 l 0.60005,-1.23954 -2.407,-31.2418 c -1.32385,-17.18299 -2.54287,-31.59899 -2.70893,-32.03556 -1.38746,-3.64755 -6.75563,-3.80344 -8.47766,-0.24619 l -0.5889,1.2165 2.41175,31.33406 c 2.63124,34.1857 2.44549,32.68557 4.19933,33.91375 1.01877,0.71342 1.34326,0.80902 2.82702,0.83287 0.93447,0.015 1.61503,-0.16393 2.42198,-0.63683 z m 18.35268,0.27035 c 1.03653,-0.53602 2.06255,-1.82255 2.38798,-2.99429 0.37794,-1.36084 0.37794,-61.72584 0,-63.08669 -0.32543,-1.17174 -1.35145,-2.45827 -2.38798,-2.99428 -0.9633,-0.49814 -3.23329,-0.49814 -4.19658,0 -1.03654,0.53601 -2.06256,1.82254 -2.38799,2.99428 -0.18103,0.65183 -0.26985,11.34418 -0.26313,31.67564 0.0107,32.54055 -0.0137,31.87352 1.21852,33.2606 1.32723,1.49405 3.9301,2.02336 5.62918,1.14474 z m 19.28406,-0.37156 c 1.89276,-1.34777 1.66784,0.4236 4.31808,-34.00785 l 2.41218,-31.33862 -0.58797,-1.21458 c -1.7212,-3.55552 -7.08722,-3.39847 -8.47741,0.2481 -0.16643,0.43657 -1.38496,14.85359 -2.70783,32.03783 l -2.40523,31.24407 0.59651,1.23223 c 0.87133,1.79992 2.30052,2.61076 4.39828,2.49533 1.14221,-0.0628 1.84281,-0.26174 2.45339,-0.69651 z m -70.33027,-90.81307 c 0,-3.37312 0.32088,-4.34859 1.80226,-5.47888 l 0.93404,-0.71266 12.58862,-0.1323 12.58862,-0.13229 0.13229,-3.175 c 0.0739,-1.774 0.2756,-3.42509 0.45706,-3.74177 0.51259,-0.89457 1.85164,-1.90172 2.9246,-2.19971 1.34427,-0.37334 33.69658,-0.37334 35.04086,0 1.07295,0.29799 2.412,1.30514 2.92459,2.19971 0.18146,0.31668 0.38314,1.96777 0.45706,3.74177 l 0.13229,3.175 12.58862,0.13229 12.58862,0.1323 0.93404,0.71266 c 1.48138,1.13029 1.80226,2.10576 1.80226,5.47888 v 2.93658 h -48.94791 -48.94792 z"
       id="path1087" />
  </g>
</svg>
