<?xml version="1.0" encoding="UTF-8" standalone="no"?>
<!-- Created with Inkscape (http://www.inkscape.org/) -->

<svg
   width="300mm"
   height="300mm"
   viewBox="0 0 300 300"
   version="1.1"
   id="svg5"
   inkscape:version="1.1 (c68e22c387, 2021-05-23)"
   sodipodi:docname="trophie.svg"
   xmlns:inkscape="http://www.inkscape.org/namespaces/inkscape"
   xmlns:sodipodi="http://sodipodi.sourceforge.net/DTD/sodipodi-0.dtd"
   xmlns="http://www.w3.org/2000/svg"
   xmlns:svg="http://www.w3.org/2000/svg">
  <sodipodi:namedview
     id="namedview7"
     pagecolor="#ffffff"
     bordercolor="#666666"
     borderopacity="1.0"
     inkscape:pageshadow="2"
     inkscape:pageopacity="0.0"
     inkscape:pagecheckerboard="0"
     inkscape:document-units="mm"
     showgrid="false"
     width="300mm"
     inkscape:zoom="0.5"
     inkscape:cx="965"
     inkscape:cy="543"
     inkscape:window-width="1920"
     inkscape:window-height="1017"
     inkscape:window-x="1912"
     inkscape:window-y="-8"
     inkscape:window-maximized="1"
     inkscape:current-layer="layer1" />
  <defs
     id="defs2" />
  <g
     inkscape:label="Calque 1"
     inkscape:groupmode="layer"
     id="layer1">
    <g
       id="g1204"
       transform="translate(-134.42917,1.6733921)" />
    <path
       style="fill:#ffffff;stroke-width:0.721207"
       d="m 75.857626,298.29496 c -4.350826,-1.90274 -4.554227,-3.07773 -4.554227,-26.30863 v -20.93946 l 2.103274,-2.35531 2.103247,-2.3553 22.271738,-0.3606 c 28.290932,-0.45805 26.413932,0.50272 31.351082,-16.04789 4.43194,-14.85689 10.71325,-43.57256 10.66959,-48.77687 -0.0338,-4.03542 -2.58032,-7.70506 -9.09758,-13.11032 -8.9608,-7.43191 -24.59709,-22.8413 -31.423289,-30.96731 C 87.396617,122.92536 79.2111,108.39562 76.031807,95.803835 72.427993,81.530623 70.385368,57.677198 70.291246,28.766386 70.22419,8.1575651 70.277617,7.2905618 71.722031,5.3536449 75.274054,0.59200962 70.011085,0.89921013 148.83326,0.85268029 l 71.39959,-0.0422503 2.87114,1.61518781 c 1.57912,0.8883465 3.27818,2.4196606 3.7757,3.4029204 0.66003,1.3044437 0.90456,7.1496218 0.90451,21.6209738 -1.1e-4,36.428448 -2.90366,63.238385 -8.33258,76.939118 -7.47593,18.86666 -27.04318,42.97228 -50.78515,62.56404 -8.11301,6.69482 -10.08806,9.49574 -10.09321,14.31378 -0.008,6.91566 6.14287,34.8455 11.55619,52.47941 2.11535,6.89067 3.83104,9.44033 7.685,11.42034 1.05678,0.54293 8.41591,0.81022 22.35747,0.81202 19.33485,0.002 20.94281,0.10058 23.0894,1.40953 3.59272,2.1906 3.93661,4.72126 3.68474,27.11569 l -0.22242,19.76768 -2.35768,2.35659 -2.35765,2.35661 -71.92676,0.15755 c -60.153622,0.13193 -72.302789,-0.008 -74.224005,-0.84705 z M 188.83491,278.47742 c 0.4158,-0.77689 0.7466,-6.01036 0.7466,-11.8116 0,-8.52597 -0.2028,-10.58493 -1.1172,-11.3438 -1.64757,-1.36738 -76.8791,-1.37921 -78.52604,-0.0136 -0.93761,0.77815 -1.13207,2.81971 -1.13207,11.88569 0,7.55209 0.2685,11.21454 0.86545,11.81163 0.65167,0.65166 10.44387,0.86545 39.64108,0.86545 37.59818,0 38.79828,-0.0422 39.52218,-1.39502 z M 50.189211,111.51825 C 37.520991,107.04737 29.459581,98.00622 25.067458,83.34327 23.974239,79.69358 23.451916,75.486023 23.182223,68.157206 22.860412,59.411804 23.018946,57.183333 24.336637,51.930041 28.458058,35.498711 37.996375,26.550835 51.470185,26.47612 c 5.780058,-0.03217 12.267032,1.849118 13.349212,3.87119 1.00234,1.872887 0.892571,9.617393 -0.151011,10.661057 -0.491112,0.491112 -2.843118,0.86545 -5.437776,0.86545 -10.608913,0 -14.119368,5.688661 -14.019166,22.718037 0.07578,12.860144 3.400359,22.984404 8.927651,27.186155 4.195154,3.189107 7.324347,4.433528 11.618313,4.620437 2.30463,0.100311 4.610488,0.531182 5.124142,0.957474 1.180419,0.979634 4.286115,11.31035 3.690114,12.27469 -0.244234,0.39535 -2.57427,1.37671 -5.177624,2.1808 -6.454454,1.99358 -13.008729,1.89352 -19.20472,-0.29316 z m 179.419329,0.75101 c -3.88689,-1.22294 -6.13027,-2.48584 -6.13027,-3.45103 0,-1.2418 2.80207,-10.205378 3.55586,-11.374975 0.44677,-0.693204 1.68688,-0.985631 3.6809,-0.867957 7.70818,0.454804 16.3838,-5.712921 19.33608,-13.746528 3.9012,-10.615781 4.03837,-27.565154 0.28403,-35.099826 -2.06391,-4.142055 -4.46296,-5.391955 -11.18945,-5.829723 l -5.9311,-0.386004 v -5.769672 -5.769673 l 2.67769,-1.308669 c 1.47271,-0.719781 4.73004,-1.64877 7.23851,-2.064458 8.25769,-1.368337 17.72438,2.340993 23.28108,9.12222 10.5867,12.919648 11.86473,39.977445 2.72046,57.596798 -4.81673,9.281027 -14.44492,16.966187 -24.01782,19.170917 -4.35494,1.003 -11.95951,0.8944 -15.50597,-0.22133 z"
       id="path1395" />
  </g>
</svg>
