<?xml version="1.0" encoding="UTF-8" standalone="no"?>
<!-- Created with Inkscape (http://www.inkscape.org/) -->

<svg
   width="132.68196mm"
   height="180.99097mm"
   viewBox="0 0 132.68196 180.99097"
   version="1.1"
   id="svg3784"
   inkscape:version="1.1 (c68e22c387, 2021-05-23)"
   sodipodi:docname="upgrade_arrow.svg"
   xmlns:inkscape="http://www.inkscape.org/namespaces/inkscape"
   xmlns:sodipodi="http://sodipodi.sourceforge.net/DTD/sodipodi-0.dtd"
   xmlns="http://www.w3.org/2000/svg"
   xmlns:svg="http://www.w3.org/2000/svg">
  <sodipodi:namedview
     id="namedview3786"
     pagecolor="#ffffff"
     bordercolor="#666666"
     borderopacity="1.0"
     inkscape:pageshadow="2"
     inkscape:pageopacity="0.0"
     inkscape:pagecheckerboard="0"
     inkscape:document-units="mm"
     showgrid="false"
     inkscape:zoom="0.23716796"
     inkscape:cx="-166.54864"
     inkscape:cy="423.75033"
     inkscape:window-width="1920"
     inkscape:window-height="1017"
     inkscape:window-x="1912"
     inkscape:window-y="-8"
     inkscape:window-maximized="1"
     inkscape:current-layer="g4173"
     fit-margin-top="0"
     fit-margin-left="0"
     fit-margin-right="0"
     fit-margin-bottom="0" />
  <defs
     id="defs3781" />
  <g
     inkscape:label="Calque 1"
     inkscape:groupmode="layer"
     id="layer1"
     transform="translate(13.02131,-43.503865)">
    <g
       id="g4173"
       transform="translate(-264.58334)">
      <path
         style="fill:#ffffff;stroke-width:0.264583"
         d="m 294.46955,224.04159 c -1.83205,-0.56287 -3.46413,-2.2709 -4.03005,-4.21761 -0.6577,-2.26239 -0.44499,-8.01428 0.353,-9.54585 0.74374,-1.42744 2.44186,-2.86361 3.84155,-3.24894 0.81404,-0.2241 7.19569,-0.28587 23.73528,-0.22972 22.60075,0.0767 22.62286,0.0773 23.68021,0.64788 0.58208,0.31409 1.37944,0.90941 1.7719,1.32292 1.31759,1.38825 1.53562,2.35018 1.5328,6.7626 -0.002,3.67803 -0.0584,4.16323 -0.62013,5.36954 -0.74622,1.60245 -2.16732,2.75256 -3.98311,3.22357 -2.08769,0.54154 -44.49583,0.46421 -46.28145,-0.0844 z m -13.14189,-24.72818 c -1.48114,-0.67149 -2.27048,-1.39604 -3.00231,-2.75589 -0.51919,-0.96474 -0.56957,-1.45614 -0.56957,-5.55625 0,-3.87355 0.0678,-4.62233 0.48862,-5.39417 0.61025,-1.11937 1.60271,-2.05262 2.87428,-2.70283 0.94954,-0.48554 2.14629,-0.50196 36.58715,-0.50196 39.00747,0 36.60559,-0.0962 38.32471,1.53539 1.49852,1.42225 1.85109,2.52113 1.97355,6.1512 0.15911,4.7162 -0.15722,6.02071 -1.89085,7.79786 -0.90819,0.93098 -1.71722,1.49432 -2.42204,1.68651 -0.73977,0.20172 -11.61057,0.28728 -36.11562,0.28425 -34.71686,-0.004 -35.06886,-0.01 -36.24792,-0.54411 z m 0.13229,-26.13598 c -1.3871,-0.63173 -2.94158,-2.38158 -3.30081,-3.71563 -0.19508,-0.72448 -0.26298,-6.28985 -0.21267,-17.43236 l 0.0739,-16.36811 0.79375,-1.27384 c 0.54715,-0.87809 1.23419,-1.52157 2.21143,-2.07122 1.30863,-0.73604 1.66481,-0.80687 4.63021,-0.9208 5.29766,-0.20353 7.63104,0.66056 9.16565,3.39419 l 0.66146,1.17827 0.0806,10.12031 0.0806,10.12032 h 22.46945 22.46944 l 0.0718,-22.82032 0.0718,-22.82031 0.58371,-1.0912 c 0.62166,-1.16214 1.86374,-2.34358 2.97325,-2.82809 0.372,-0.16245 2.65251,-0.3591 5.06779,-0.437 l 4.39143,-0.14163 -7.40065,-8.069788 c -4.0703,-4.438385 -9.03633,-9.855729 -11.03557,-12.038542 -14.59431,-15.934397 -17.23463,-18.79327 -17.41283,-18.854124 -0.11065,-0.03779 -1.74554,1.625764 -3.63309,3.696785 -12.06873,13.289566 -21.64068,23.516374 -32.36946,35.340629 l 4.81149,0.11113 c 5.15986,0.11919 5.89955,0.28009 7.50285,1.63208 1.64982,1.39121 1.93955,2.46964 1.93304,7.19506 -0.005,3.52237 -0.086,4.39248 -0.49323,5.28904 -0.6001,1.32118 -2.32745,2.83977 -3.69684,3.25005 -1.58184,0.47392 -35.00814,0.40916 -36.35206,-0.0704 -1.52417,-0.54393 -2.72685,-1.59743 -3.41196,-2.98875 -0.57487,-1.16746 -0.6224,-1.58719 -0.6224,-5.4973 0,-3.87197 0.0503,-4.32749 0.58974,-5.33635 19.48319,-22.08067 36.89805,-40.737122 55.45937,-61.058894 2.35081,-2.573864 3.81756,-3.949637 4.7625,-4.467101 1.36544,-0.747731 1.36561,-0.747752 5.7318,-0.661458 5.22866,0.103343 5.50515,0.218125 8.4933,3.525882 1.95699,2.166316 7.31414,8.016984 13.20184,14.418035 3.48305,3.786744 8.14332,8.875605 23.0201,25.137175 4.99233,5.457031 10.31412,11.256296 11.82621,12.887256 1.51209,1.630955 4.11816,4.488455 5.79127,6.350005 3.77461,4.19973 3.91621,4.57012 3.77082,9.86416 -0.0959,3.49298 -0.12992,3.67956 -0.89594,4.91858 -0.49168,0.79527 -1.29148,1.59417 -2.09099,2.08863 l -1.29475,0.80074 -10.80295,0.0747 -10.80294,0.0747 v 22.02654 c 0,23.8336 0.003,23.77831 -1.42495,25.65055 -0.40414,0.52984 -1.34379,1.26683 -2.08812,1.63775 l -1.35333,0.67439 -35.46836,-0.006 c -33.74079,-0.006 -35.51991,-0.0293 -36.5267,-0.48782 z"
         id="path5499"
         sodipodi:nodetypes="ssssssscsssscsscsssssscccsscsssscccccccsssccssccsscsscssccsssssssssscccssscccc" />
    </g>
  </g>
</svg>
