<?xml version="1.0" encoding="UTF-8" standalone="no"?>
<!-- Created with Inkscape (http://www.inkscape.org/) -->

<svg
   width="256.21283mm"
   height="256.34317mm"
   viewBox="0 0 256.21283 256.34318"
   version="1.1"
   id="svg3784"
   inkscape:version="1.1 (c68e22c387, 2021-05-23)"
   sodipodi:docname="upgrade.svg"
   xmlns:inkscape="http://www.inkscape.org/namespaces/inkscape"
   xmlns:sodipodi="http://sodipodi.sourceforge.net/DTD/sodipodi-0.dtd"
   xmlns="http://www.w3.org/2000/svg"
   xmlns:svg="http://www.w3.org/2000/svg">
  <sodipodi:namedview
     id="namedview3786"
     pagecolor="#ffffff"
     bordercolor="#666666"
     borderopacity="1.0"
     inkscape:pageshadow="2"
     inkscape:pageopacity="0.0"
     inkscape:pagecheckerboard="0"
     inkscape:document-units="mm"
     showgrid="false"
     inkscape:zoom="0.23716796"
     inkscape:cx="-52.705264"
     inkscape:cy="145.46653"
     inkscape:window-width="1920"
     inkscape:window-height="1017"
     inkscape:window-x="1912"
     inkscape:window-y="-8"
     inkscape:window-maximized="1"
     inkscape:current-layer="g4173"
     fit-margin-top="0"
     fit-margin-left="0"
     fit-margin-right="0"
     fit-margin-bottom="0" />
  <defs
     id="defs3781" />
  <g
     inkscape:label="Calque 1"
     inkscape:groupmode="layer"
     id="layer1"
     transform="translate(75.032578,-5.4409249)">
    <g
       id="g4173"
       transform="translate(-264.58334)">
      <path
         style="fill:#ffffff;stroke-width:0.264583"
         d="m 304.87558,261.47871 c -6.68712,-0.54151 -13.23093,-1.57488 -19.31459,-3.05007 -6.15915,-1.49349 -16.49464,-4.97205 -21.7949,-7.33538 -0.85485,-0.38117 -1.59899,-0.69303 -1.65365,-0.69303 -0.0547,0 -0.0994,0.95632 -0.0994,2.12516 -0.69584,7.05263 -4.70724,6.73575 -8.73125,6.73838 -10.83583,-0.58192 -7.82765,-3.63118 -13.01123,-15.47813 -9.2182,-21.33135 -5.92512,-25.5462 16.25878,-25.48809 13.5573,1.50228 21.04795,-4.53508 21.31134,8.37908 0.0965,4.80652 -1.59392,5.32142 -3.13117,6.90427 l -0.89949,0.92617 2.82824,1.12299 c 12.05651,4.78719 24.26863,7.6437 37.29923,8.38484 10.55178,0.60015 24.43093,-1.38802 36.0042,-5.15756 17.98609,-5.85825 32.90138,-14.98424 45.95049,-28.11502 7.22927,-7.27453 11.78678,-13.1071 16.76928,-21.46085 3.33256,-5.58743 5.38178,-9.66447 7.5137,-14.94895 10.39485,-25.76615 10.56729,-50.22644 0.53346,-75.67084 -3.03103,-7.686259 -6.63067,-14.540211 -11.34245,-21.596734 -1.12961,-1.691746 -2.18193,-3.537214 -2.33848,-4.101041 -0.40868,-1.471859 -0.346,-7.675579 0.0899,-8.897033 0.5794,-1.623608 1.70036,-2.855243 3.24031,-3.560258 1.35659,-0.621064 1.6264,-0.648282 5.58456,-0.563348 3.86409,0.08291 4.24126,0.136165 5.31749,0.750705 1.77817,1.015355 5.55624,6.579913 10.19025,15.008784 5.75484,10.467552 10.63826,24.499085 12.68669,36.452675 1.36869,7.98695 1.62946,11.78316 1.62667,23.68021 -0.002,8.79229 -0.0979,11.8501 -0.48097,15.34583 -1.26253,11.5213 -3.73739,21.32214 -8.36321,33.1197 -4.29659,10.9579 -12.09954,23.77383 -20.34953,33.42301 -3.04622,3.56286 -10.58606,11.06927 -14.32767,14.26416 -7.8901,6.73719 -17.33516,12.81167 -27.58956,17.74391 -11.66825,5.61228 -26.00485,9.75011 -38.95315,11.24266 -6.97782,0.80433 -23.73124,1.07816 -30.82396,0.5038 z m -10.40603,-37.43712 c -1.83205,-0.56287 -3.46413,-2.2709 -4.03005,-4.21761 -0.6577,-2.26239 -0.44499,-8.01428 0.353,-9.54585 0.74374,-1.42744 2.44186,-2.86361 3.84155,-3.24894 0.81404,-0.2241 7.19569,-0.28587 23.73528,-0.22972 22.60075,0.0767 22.62286,0.0773 23.68021,0.64788 0.58208,0.31409 1.37944,0.90941 1.7719,1.32292 1.31759,1.38825 1.53562,2.35018 1.5328,6.7626 -0.002,3.67803 -0.0584,4.16323 -0.62013,5.36954 -0.74622,1.60245 -2.16732,2.75256 -3.98311,3.22357 -2.08769,0.54154 -44.49583,0.46421 -46.28145,-0.0844 z m -84.36596,-22.38227 c -3.68967,-5.5578 -4.78345,-7.45129 -7.61013,-13.17428 -4.51741,-9.14608 -6.7993,-15.29569 -9.12943,-24.60357 -2.95855,-11.81815 -4.08025,-22.51161 -3.76064,-35.85104 0.47909,-19.99521 4.54121,-36.623458 13.16944,-53.909024 9.3747,-18.781022 24.16558,-35.471532 41.77774,-47.143356 7.73356,-5.12513 10.60358,-6.711684 19.12081,-10.570012 11.70014,-5.300194 24.794,-8.7851578 38.9679,-10.3714068 5.06912,-0.567303 19.36957,-0.79182 25.25505,-0.396504 9.01049,0.605216 15.93241,1.721571 24.78475,3.997242 6.89232,1.7718058 12.52516,3.6722758 17.70833,5.9746338 0.19792,0.08791 0.33721,-0.755054 0.43215,-2.615289 0.14907,-2.920795 0.48719,-3.9447348 1.75341,-5.3097878 1.4582,-1.57202 2.45765,-1.872835 6.57435,-1.978742 4.44363,-0.114318 5.91637,0.236402 7.45541,1.775434 l 10.73603,34.8813928 c -0.62965,1.648732 -1.77907,2.863397 -3.24478,3.428973 -1.15558,0.445905 -2.45358,0.480195 -18.17778,0.480195 h -16.93333 l -1.09889,-0.587634 c -1.34923,-0.721506 -2.56277,-2.151219 -2.96473,-3.492844 -0.16704,-0.55752 -0.29941,-2.70881 -0.2962,-4.813761 0.005,-3.147031 0.0916,-3.994745 0.50162,-4.897599 0.2727,-0.600511 0.62727,-1.173083 0.78794,-1.272386 0.83769,-0.517721 -0.15448,-0.972698 -6.10632,-2.800149 -22.90777,-7.033592 -40.98797,-6.995811 -64.37759,0.134527 -6.01544,1.833812 -12.44782,4.589862 -19.52566,8.36607 -10.44258,5.571376 -21.45141,14.181246 -29.60075,23.150381 -7.43252,8.180205 -12.25899,15.168417 -17.15771,24.842563 -3.13382,6.188747 -4.92813,10.549207 -6.70944,16.304973 -6.93134,22.39651 -6.72412,40.49987 0.72105,62.99301 2.67046,8.06792 7.23069,17.33104 12.28182,24.94785 3.44662,4.33963 5.25275,12.85636 1.60967,16.71848 -6.76211,4.59691 -13.51123,0.94122 -16.94409,-4.20834 z m 71.22407,-2.34591 c -1.48114,-0.67149 -2.27048,-1.39604 -3.00231,-2.75589 -0.51919,-0.96474 -0.56957,-1.45614 -0.56957,-5.55625 0,-3.87355 0.0678,-4.62233 0.48862,-5.39417 0.61025,-1.11937 1.60271,-2.05262 2.87428,-2.70283 0.94954,-0.48554 2.14629,-0.50196 36.58715,-0.50196 39.00747,0 36.60559,-0.0962 38.32471,1.53539 1.49852,1.42225 1.85109,2.52113 1.97355,6.1512 0.15911,4.7162 -0.15722,6.02071 -1.89085,7.79786 -0.90819,0.93098 -1.71722,1.49432 -2.42204,1.68651 -0.73977,0.20172 -11.61057,0.28728 -36.11562,0.28425 -34.71686,-0.004 -35.06886,-0.01 -36.24792,-0.54411 z m 0.13229,-26.13598 c -1.3871,-0.63173 -2.94158,-2.38158 -3.30081,-3.71563 -0.19508,-0.72448 -0.26298,-6.28985 -0.21267,-17.43236 l 0.0739,-16.36811 0.79375,-1.27384 c 0.54715,-0.87809 1.23419,-1.52157 2.21143,-2.07122 1.30863,-0.73604 1.66481,-0.80687 4.63021,-0.9208 5.29766,-0.20353 7.63104,0.66056 9.16565,3.39419 l 0.66146,1.17827 0.0806,10.12031 0.0806,10.12032 h 22.46945 22.46944 l 0.0718,-22.82032 0.0718,-22.82031 0.58371,-1.0912 c 0.62166,-1.16214 1.86374,-2.34358 2.97325,-2.82809 0.372,-0.16245 2.65251,-0.3591 5.06779,-0.437 l 4.39143,-0.14163 -7.40065,-8.069788 c -4.0703,-4.438385 -9.03633,-9.855729 -11.03557,-12.038542 -14.59431,-15.934397 -17.23463,-18.79327 -17.41283,-18.854124 -0.11065,-0.03779 -1.74554,1.625764 -3.63309,3.696785 -12.06873,13.289566 -21.64068,23.516374 -32.36946,35.340629 l 4.81149,0.11113 c 5.15986,0.11919 5.89955,0.28009 7.50285,1.63208 1.64982,1.39121 1.93955,2.46964 1.93304,7.19506 -0.005,3.52237 -0.086,4.39248 -0.49323,5.28904 -0.6001,1.32118 -2.32745,2.83977 -3.69684,3.25005 -1.58184,0.47392 -35.00814,0.40916 -36.35206,-0.0704 -1.52417,-0.54393 -2.72685,-1.59743 -3.41196,-2.98875 -0.57487,-1.16746 -0.6224,-1.58719 -0.6224,-5.4973 0,-3.87197 0.0503,-4.32749 0.58974,-5.33635 19.48319,-22.08067 36.89805,-40.737122 55.45937,-61.058894 2.35081,-2.573864 3.81756,-3.949637 4.7625,-4.467101 1.36544,-0.747731 1.36561,-0.747752 5.7318,-0.661458 5.22866,0.103343 5.50515,0.218125 8.4933,3.525882 1.95699,2.166316 7.31414,8.016984 13.20184,14.418035 3.48305,3.786744 8.14332,8.875605 23.0201,25.137175 4.99233,5.457031 10.31412,11.256296 11.82621,12.887256 1.51209,1.630955 4.11816,4.488455 5.79127,6.350005 3.77461,4.19973 3.91621,4.57012 3.77082,9.86416 -0.0959,3.49298 -0.12992,3.67956 -0.89594,4.91858 -0.49168,0.79527 -1.29148,1.59417 -2.09099,2.08863 l -1.29475,0.80074 -10.80295,0.0747 -10.80294,0.0747 v 22.02654 c 0,23.8336 0.003,23.77831 -1.42495,25.65055 -0.40414,0.52984 -1.34379,1.26683 -2.08812,1.63775 l -1.35333,0.67439 -35.46836,-0.006 c -33.74079,-0.006 -35.51991,-0.0293 -36.5267,-0.48782 z"
         id="path5499"
         sodipodi:nodetypes="cssscccccscssssssssssssssscssssssccssssssscsssscsssssssssssssccsscsscsssssssssccccsscsssssscccsscsssscccccccsssccssccsscsscssccsssssssssscccssscccc" />
    </g>
  </g>
</svg>
