<?xml version="1.0" encoding="UTF-8" standalone="no"?>
<!-- Created with Inkscape (http://www.inkscape.org/) -->

<svg
   width="300mm"
   height="300mm"
   viewBox="0 0 300 300"
   version="1.1"
   id="svg5"
   inkscape:version="1.1 (c68e22c387, 2021-05-23)"
   sodipodi:docname="upvote.svg"
   xmlns:inkscape="http://www.inkscape.org/namespaces/inkscape"
   xmlns:sodipodi="http://sodipodi.sourceforge.net/DTD/sodipodi-0.dtd"
   xmlns="http://www.w3.org/2000/svg"
   xmlns:svg="http://www.w3.org/2000/svg">
  <sodipodi:namedview
     id="namedview7"
     pagecolor="#ffffff"
     bordercolor="#666666"
     borderopacity="1.0"
     inkscape:pageshadow="2"
     inkscape:pageopacity="0.0"
     inkscape:pagecheckerboard="0"
     inkscape:document-units="mm"
     showgrid="false"
     width="300mm"
     inkscape:zoom="0.35355339"
     inkscape:cx="97.580736"
     inkscape:cy="524.67323"
     inkscape:window-width="1920"
     inkscape:window-height="1017"
     inkscape:window-x="1912"
     inkscape:window-y="-8"
     inkscape:window-maximized="1"
     inkscape:current-layer="layer1" />
  <defs
     id="defs2" />
  <g
     inkscape:label="Calque 1"
     inkscape:groupmode="layer"
     id="layer1">
    <g
       id="g1204"
       transform="translate(-134.42917,1.6733921)" />
    <path
       style="fill:#ffffff;stroke-width:0.175598"
       d="m 107.38014,256.54708 -42.236165,-42.36295 42.700685,-0.10591 c 63.28532,-0.15709 126.54861,-0.17439 126.54861,-0.0346 0,0.0675 -18.15774,18.30119 -40.35054,40.51918 -22.19277,22.21802 -41.21205,41.28535 -42.26503,42.37186 -1.05299,1.08651 -1.97005,1.97548 -2.03797,1.97548 -0.0678,0 -19.12971,-19.06333 -42.35959,-42.36297 z M 21.246885,130.16412 C 21.288844,130.04074 150.45798,0.74508125 150.53934,0.74508125 c 0.0331,0 56.61448,56.69996175 76.57586,76.73621375 24.24299,24.333935 52.44043,52.644195 52.56765,52.777975 0.0402,0.0423 -58.10457,0.0769 -129.21068,0.0769 -84.35415,0 -129.263486,-0.0597 -129.225285,-0.17209 z"
       id="path1647" />
  </g>
</svg>
