<?xml version="1.0" encoding="UTF-8" standalone="no"?>
<!-- Created with Inkscape (http://www.inkscape.org/) -->

<svg
   width="300mm"
   height="300mm"
   viewBox="0 0 300 300"
   version="1.1"
   id="svg5"
   inkscape:version="1.1 (c68e22c387, 2021-05-23)"
   sodipodi:docname="vb_white.svg"
   xmlns:inkscape="http://www.inkscape.org/namespaces/inkscape"
   xmlns:sodipodi="http://sodipodi.sourceforge.net/DTD/sodipodi-0.dtd"
   xmlns="http://www.w3.org/2000/svg"
   xmlns:svg="http://www.w3.org/2000/svg">
  <sodipodi:namedview
     id="namedview7"
     pagecolor="#ffffff"
     bordercolor="#666666"
     borderopacity="1.0"
     inkscape:pageshadow="2"
     inkscape:pageopacity="0.0"
     inkscape:pagecheckerboard="0"
     inkscape:document-units="mm"
     showgrid="false"
     inkscape:zoom="0.33540614"
     inkscape:cx="-43.23117"
     inkscape:cy="651.44902"
     inkscape:window-width="1920"
     inkscape:window-height="1017"
     inkscape:window-x="1912"
     inkscape:window-y="-8"
     inkscape:window-maximized="1"
     inkscape:current-layer="layer1" />
  <defs
     id="defs2" />
  <g
     inkscape:label="Calque 1"
     inkscape:groupmode="layer"
     id="layer1">
    <g
       id="g2499"
       transform="matrix(3.4802058,0,0,3.4802058,-386.30657,-225.20751)"
       style="fill:#ffffff">
      <path
         style="fill:#ffffff;stroke-width:0.264583"
         d="m 153.52253,123.36963 c -0.7407,-0.88989 -1.42535,-1.64879 -1.52143,-1.68645 -0.0961,-0.0377 -1.51302,0.81553 -3.14874,1.89598 -3.46064,2.28587 -7.40786,4.36628 -9.82715,5.17946 -2.788,0.93711 -7.32978,1.66821 -9.14526,1.47213 -5.87409,-0.63441 -10.483,-2.80906 -14.19361,-6.69706 -2.68512,-2.81349 -4.02588,-5.42924 -4.46852,-8.7179 -0.39491,-2.93393 -0.0983,-4.91481 1.10416,-7.37489 2.60962,-5.33882 7.92792,-8.416267 14.51526,-8.399279 6.39056,0.01648 12.35448,2.511999 17.1709,7.184939 1.07655,1.04447 2.03065,1.89905 2.12021,1.89905 0.0896,0 1.82813,-1.6783 3.86348,-3.72955 4.70782,-4.744609 7.61981,-7.014932 11.34555,-8.845507 4.33411,-2.129493 6.89411,-2.793736 11.40507,-2.959281 4.50242,-0.165232 7.67116,0.311314 10.94489,1.646001 5.77254,2.353442 9.75928,5.917537 11.99325,10.721807 0.90545,1.94723 1.29093,3.93003 1.31661,6.77239 0.046,5.08559 -1.59118,9.24533 -5.00919,12.72771 -3.3079,3.37019 -6.24547,5.11328 -11.05439,6.55941 -9.0805,2.35669 -20.71416,0.16997 -27.41109,-7.64896 z m 22.02446,2.02004 c 2.33931,-1.9105 3.93478,-4.47372 4.73696,-7.61018 0.63374,-2.47792 0.68757,-5.90245 0.12994,-8.26754 -0.45058,-1.91105 -1.84294,-4.82593 -2.30524,-4.82593 -1.14626,0 -9.97393,5.09095 -14.65905,8.45393 -7.18125,5.15469 -8.28951,5.99062 -8.29545,6.25697 -0.0151,0.67903 7.88385,4.54111 11.36478,5.55662 1.90662,0.55622 6.00681,1.37763 7.01835,1.40602 0.54767,0.0154 1.17262,-0.28624 2.00971,-0.96989 z m -47.98732,-3.9236 c 3.38331,-0.69884 6.72997,-2.61665 11.31611,-6.48473 1.16417,-0.98189 2.51431,-2.19867 3.00031,-2.70395 l 0.88364,-0.91868 -1.14822,-0.78763 c -3.30782,-2.26899 -6.71862,-3.37865 -11.22751,-3.65272 l -2.93553,-0.17843 -2.50262,1.34913 c -5.28525,2.84919 -7.76493,7.0046 -6.81014,11.4123 l 0.37225,1.71847 1.32037,0.30665 c 1.92278,0.44657 5.40876,0.41933 7.73134,-0.0604 z"
         id="path2505"
         sodipodi:nodetypes="csssssscsssssssscsccsssssssssssscsscsscsss" />
      <path
         style="fill:#ffffff;stroke-width:0.264583"
         d="m 168.96809,131.56039 c -3.86702,-0.7387 -7.99502,-2.27112 -10.2405,-3.80155 -1.65235,-1.12617 -6.22581,-5.63806 -6.22581,-6.142 0,-0.25022 0.47701,-0.78552 1.06002,-1.18955 l 1.06002,-0.73459 1.57077,1.10183 c 2.16861,1.52119 6.60295,3.67363 9.14148,4.4373 3.4303,1.03193 6.45812,1.38684 11.98292,1.40461 5.40124,0.0174 7.29346,-0.24068 9.85953,-1.34457 1.20541,-0.51856 1.58778,-1.23087 0.50934,-0.94885 -0.26122,0.0683 -0.97431,-0.15944 -1.58465,-0.50611 -0.61033,-0.34668 -1.32716,-0.63032 -1.59295,-0.63032 -0.2658,0 -0.6406,-0.15166 -0.83289,-0.33703 -0.1923,-0.18537 -0.52822,-0.32689 -0.7465,-0.3145 -0.21829,0.0124 -0.52975,-0.0754 -0.69216,-0.19511 -0.1624,-0.11971 -0.94512,-0.17138 -1.73937,-0.11484 l -1.4441,0.1028 0.91868,-2.67951 c 1.63099,-4.75715 1.47877,-8.84929 -0.48581,-13.05954 l -1.01626,-2.17794 -1.13847,0.40168 c -1.6614,0.58617 -3.67588,1.63056 -7.38536,3.82888 -4.82284,2.85811 -6.09095,3.72152 -13.72098,9.34207 -0.78986,0.58185 -1.56529,1.0579 -1.72318,1.0579 -0.55046,0 -10.73133,-7.44431 -10.73133,-7.84681 0,-0.14823 0.20751,-0.51701 0.46113,-0.81951 0.3233,-0.38561 0.24137,-0.35561 -0.27409,0.10036 l -0.73521,0.65036 -0.96288,-0.51807 c -0.52958,-0.28494 -1.33122,-0.81572 -1.7814,-1.17953 -0.76305,-0.61662 -0.80623,-0.74215 -0.63705,-1.85208 0.0998,-0.65484 0.20972,-1.8157 0.24423,-2.57969 0.0345,-0.76398 0.10628,-1.38906 0.15948,-1.38906 0.35897,0 2.37333,1.53299 4.01042,3.05206 l 1.93984,1.8 4.06101,-4.13031 c 2.23356,-2.27167 4.98257,-4.81183 6.10892,-5.644803 4.52287,-3.344821 9.73319,-5.468415 14.68808,-5.98649 12.05386,-1.260336 23.13343,5.405213 25.51312,15.348883 0.54911,2.2945 0.41742,6.49344 -0.2744,8.749 -1.82452,5.94851 -6.67144,10.85107 -13.0238,13.17328 -4.64145,1.69676 -10.35607,2.32472 -14.29984,1.57135 z m 11.05036,-9.9413 c 0,-0.14552 -0.0525,-0.26459 -0.11668,-0.26459 -0.0642,0 -0.19026,0.11907 -0.2802,0.26459 -0.0899,0.14552 -0.0374,0.26458 0.11668,0.26458 0.15411,0 0.2802,-0.11906 0.2802,-0.26458 z m -29.16814,-1.25677 c -0.24811,-0.40019 -0.45428,-0.57175 -0.45815,-0.38126 -0.004,0.19049 -0.12805,0.27156 -0.27594,0.18015 -0.1479,-0.0914 -0.20936,-0.26253 -0.13659,-0.38027 0.0728,-0.11775 -0.22294,-0.28514 -0.65714,-0.37198 -0.4342,-0.0868 -0.78946,-0.32656 -0.78946,-0.5327 0,-0.20614 -0.26789,-0.44257 -0.59531,-0.5254 -0.32742,-0.0828 -1.12615,-0.61781 -1.77496,-1.18885 -0.64881,-0.57104 -1.60131,-1.25918 -2.11667,-1.52921 -0.51536,-0.27001 -1.02197,-0.61114 -1.1258,-0.75806 -0.10383,-0.14691 -0.34196,-0.27252 -0.52917,-0.27914 -0.18721,-0.007 -0.30567,-0.17026 -0.26325,-0.36367 0.0543,-0.24745 -0.12945,-0.31216 -0.62003,-0.21838 -0.64009,0.12236 -0.59463,0.0292 0.55547,-1.13848 l 1.25263,-1.27175 1.48407,1.09404 c 0.81623,0.60172 2.13891,1.58668 2.93927,2.1888 1.82207,1.37075 4.36277,3.15963 5.49011,3.86552 0.47294,0.29613 0.85555,0.61596 0.85025,0.71073 -0.0175,0.31237 -1.91882,1.62751 -2.35293,1.62751 -0.23391,0 -0.62828,-0.32742 -0.8764,-0.7276 z m -33.40582,-0.33073 c -0.0899,-0.14552 -0.0374,-0.26459 0.11668,-0.26459 0.15411,0 0.2802,0.11907 0.2802,0.26459 0,0.14552 -0.0525,0.26458 -0.11668,0.26458 -0.0642,0 -0.19026,-0.11906 -0.2802,-0.26458 z"
         id="path2503"
         sodipodi:nodetypes="sssscssssssssssscsscssssssscsssssscssssssssssssscsssssssscssscsssssssssss" />
      <path
         style="fill:#ffffff;stroke-width:0.264583"
         d="m 191.9247,106.3555 c 0,-0.14889 -0.32742,-0.28381 -0.72761,-0.29983 -3.97193,-0.15901 -4.89156,-0.24835 -5.0462,-0.49022 -0.23253,-0.3637 -3.01645,-0.94081 -4.54494,-0.94217 l -1.19063,-10e-4 1.05834,-0.34469 c 0.58208,-0.18958 2.07036,-0.35224 3.30729,-0.36148 1.8316,-0.0137 2.66151,0.12679 4.47198,0.75693 2.17501,0.75702 3.21988,1.40512 2.85446,1.77054 -0.10048,0.10047 -0.18269,0.0609 -0.18269,-0.088 z"
         id="path2501"
         sodipodi:nodetypes="sssccssssss" />
    </g>
  </g>
</svg>
