<?xml version="1.0" encoding="UTF-8" standalone="no"?>
<!-- Created with Inkscape (http://www.inkscape.org/) -->

<svg
   width="183.35625mm"
   height="128.85208mm"
   viewBox="0 0 183.35625 128.85208"
   version="1.1"
   id="svg5"
   inkscape:version="1.1 (c68e22c387, 2021-05-23)"
   sodipodi:docname="vote.svg"
   xmlns:inkscape="http://www.inkscape.org/namespaces/inkscape"
   xmlns:sodipodi="http://sodipodi.sourceforge.net/DTD/sodipodi-0.dtd"
   xmlns="http://www.w3.org/2000/svg"
   xmlns:svg="http://www.w3.org/2000/svg">
  <sodipodi:namedview
     id="namedview7"
     pagecolor="#ffffff"
     bordercolor="#666666"
     borderopacity="1.0"
     inkscape:pageshadow="2"
     inkscape:pageopacity="0.0"
     inkscape:pagecheckerboard="0"
     inkscape:document-units="mm"
     showgrid="false"
     fit-margin-top="0"
     fit-margin-left="0"
     fit-margin-right="0"
     fit-margin-bottom="0"
     inkscape:zoom="0.47433592"
     inkscape:cx="190.79306"
     inkscape:cy="277.22969"
     inkscape:window-width="1920"
     inkscape:window-height="1017"
     inkscape:window-x="1912"
     inkscape:window-y="-8"
     inkscape:window-maximized="1"
     inkscape:current-layer="layer1" />
  <defs
     id="defs2" />
  <g
     inkscape:label="Calque 1"
     inkscape:groupmode="layer"
     id="layer1"
     transform="translate(-7.2184969,-2.4247563)">
    <path
       style="fill:#ffffff;stroke-width:0.264583"
       d="m 69.395582,127.44038 v -3.83646 c 11.377083,0 22.75417,0 34.131248,0 V 108.91955 94.235169 H 83.741185 63.955534 C 62.112091,87.823353 60.268656,81.411536 58.425221,74.999718 l -2.386174,-0.45271 c -3.153585,-0.598302 -7.317619,-2.000387 -10.62227,-3.576653 l -2.679845,-1.278244 c -0.681458,1.782107 -1.298335,3.58712 -1.923508,5.389401 -33.5949271,-9.983362 0,0 -33.5949271,-9.983362 v -1.781677 c 19.4147601,-60.8917167 0,0 19.4147601,-60.8917167 h 2.042803 c 31.85598,9.1485007 0,0 31.85598,9.1485007 -0.558049,6.415175 0,0 -0.558049,6.415175 0.07809,0.126354 1.366692,0.305784 2.863559,0.398735 8.882571,0.551582 44.08264,2.840677 45.8727,2.983148 l 2.14072,0.170381 0.89579,1.488384 c 0.49268,0.81861 4.66913,8.155885 9.281,16.305051 l 8.38521,14.816667 1.0137,0.183189 c 0.55753,0.100754 7.71097,0.190051 15.89651,0.198438 l 14.88282,0.01525 v 34.485326 34.485339 c 9.78846,0.23542 19.57797,0.35017 29.36875,0.35017 v 3.70416 3.70417 c -40.39306,0 -80.78611,0 -121.179168,0 z M 153.53308,93.044549 V 62.485173 h -16.94335 -16.94335 l 2.47139,2.362663 c 3.76911,3.603289 4.69239,5.768919 4.69239,11.006362 0,4.501021 -1.0512,7.256263 -3.81999,10.012393 -2.37368,2.36282 -5.05128,3.33329 -9.21074,3.33836 l -2.57969,0.003 v 17.197919 17.19791 h 21.16667 21.16667 z m -30.77457,17.142021 c -1.19133,-1.12215 -3.98176,-3.79652 -6.20095,-5.94305 l -4.0349,-3.90277 c -0.20193,-4.519661 3.87992,-6.343761 6.66914,-6.370161 l 3.70738,3.57187 c 2.03906,1.96453 3.8218,3.571881 3.96163,3.571881 0.13984,0 4.41545,-4.048131 9.50137,-8.995831 l 9.24713,-8.995838 c 4.80357,-0.220903 6.60085,1.860003 6.60085,6.48396 l -9.45885,9.147798 c -5.20237,5.031291 -10.49664,10.120841 -11.76503,11.310111 -3.16556,3.15201 -5.06064,3.10524 -8.22777,0.12203 z M 76.803915,86.596661 c -3.456236,-11.330166 0,0 -3.456236,-11.330166 l -2.703653,0.110845 c -1.487008,0.06097 -2.841469,0.15377 -3.00991,0.206229 2.817889,10.893142 0,0 2.817889,10.893142 0.01397,0.34165 6.35191,0.46134 6.35191,0.11995 z M 86.856356,77.00204 c -1.23598,-0.819732 -2.8252,-1.815846 -3.531602,-2.213589 -1.129889,-0.636185 -1.267965,-0.663773 -1.147995,-0.229367 0.724302,2.622664 3.448817,11.915947 3.538357,12.069317 6.120766,0.19844 6.120766,0.19844 6.120766,0.19844 -1.36968,-4.391618 -2.239109,-8.008542 -4.979526,-9.824801 z m 14.959844,8.903631 c -0.86808,-0.49783 -1.61305,-0.87043 -1.65548,-0.828 -0.0424,0.0424 -0.002,0.45335 0.0901,0.91316 0.16413,0.82066 0.19453,0.83586 1.65548,0.828 l 1.48829,-0.008 -1.57834,-0.90515 z m 13.47899,-5.279276 c 1.79893,-1.054237 3.58536,-3.538916 3.57166,-4.96766 -0.0119,-1.244288 -0.99771,-2.746439 -2.9299,-4.464638 -1.83108,-1.628293 -12.46706,-10.514483 -19.765948,-16.514132 l -3.21879,-2.645834 c 0.33886,-11.244791 0,0 0.33886,-11.244791 h 3.79514 3.795148 c 0,6.342528 0,0 0,6.342528 l 4.43177,3.69484 4.43178,3.69484 4.85695,0.01307 c 3.99733,0.01074 4.83244,-0.05082 4.71846,-0.34785 -0.10675,-0.278191 -7.87233,-14.039773 -13.35643,-23.669263 -0.35824,-0.629041 -0.90621,-1.24061 -1.2177,-1.35904 -0.76202,-0.289719 -32.72132,-2.538926 -43.83845,-3.085227 l -3.593788,-0.17658 -3.449645,10.158323 c -1.897303,5.587079 -4.481539,13.344771 -5.742745,17.239313 -1.261207,3.894545 -2.355167,7.242725 -2.431023,7.440403 -0.153964,0.401225 2.822054,2.250821 5.77846,3.591322 2.891007,1.310844 8.754637,2.908935 11.841166,3.227224 4.840132,0.499123 9.842291,0.0065 14.939246,-1.471113 1.608529,-0.466336 3.001915,-0.68654 4.344186,-0.68654 h 1.976099 l 11.523356,6.925228 c 6.337848,3.808872 12.617658,7.494256 13.955128,8.189737 2.7116,1.410028 3.02678,1.416987 5.24701,0.11584 z M 39.860085,51.174235 C 47.440911,28.370885 50.879069,17.727052 50.737929,17.49868 50.427623,16.996596 32.891452,11.565215 32.593923,11.879038 32.384754,12.099663 16.709659,59.366241 16.812884,59.465084 c 0.0346,0.03313 3.098998,1.015436 6.80978,2.182905 3.710781,1.167466 7.699375,2.423163 8.863542,2.790433 1.164166,0.367271 2.255575,0.673349 2.425356,0.680175 0.175961,0.0071 2.303687,-5.988613 4.948523,-13.944362 z M 24.914222,59.70623 c -1.117383,-0.607229 -1.556271,-1.887667 -1.555152,-4.537085 0.0017,-3.917916 0.9716,-4.854805 5.026094,-4.854805 2.632255,0 3.544123,0.302749 4.474554,1.485603 0.480507,0.610862 0.552529,1.063967 0.552529,3.475998 0.339656,4.743899 -2.599544,4.828185 -4.929809,4.817402 -1.968193,-0.0072 -3.093987,-0.129382 -3.568216,-0.387099 z"
       id="path1269"
       sodipodi:nodetypes="ccccccccssccccccccsscsscssccccccccccccsssccccccccsccsssccsccccsccccsscccsscsccsscsscccccccssssccssssssscssssssssscsscssccss" />
  </g>
</svg>
