<?xml version="1.0" encoding="UTF-8" standalone="no"?>
<!-- Created with Inkscape (http://www.inkscape.org/) -->

<svg
   width="86.479973mm"
   height="98.414055mm"
   viewBox="0 0 86.479975 98.414055"
   version="1.1"
   id="svg5"
   inkscape:version="1.1 (c68e22c387, 2021-05-23)"
   sodipodi:docname="vyxal.svg"
   xmlns:inkscape="http://www.inkscape.org/namespaces/inkscape"
   xmlns:sodipodi="http://sodipodi.sourceforge.net/DTD/sodipodi-0.dtd"
   xmlns="http://www.w3.org/2000/svg"
   xmlns:svg="http://www.w3.org/2000/svg">
  <sodipodi:namedview
     id="namedview7"
     pagecolor="#ffffff"
     bordercolor="#666666"
     borderopacity="1.0"
     inkscape:pageshadow="2"
     inkscape:pageopacity="0.0"
     inkscape:pagecheckerboard="0"
     inkscape:document-units="mm"
     showgrid="false"
     fit-margin-top="0"
     fit-margin-left="0"
     fit-margin-right="0"
     fit-margin-bottom="0"
     inkscape:zoom="1"
     inkscape:cx="-553.5"
     inkscape:cy="-121.5"
     inkscape:window-width="1920"
     inkscape:window-height="1017"
     inkscape:window-x="1912"
     inkscape:window-y="-8"
     inkscape:window-maximized="1"
     inkscape:current-layer="layer1" />
  <defs
     id="defs2" />
  <g
     inkscape:label="Calque 1"
     inkscape:groupmode="layer"
     id="layer1"
     transform="translate(-127.03877,-51.329161)">
    <g
       id="g1418"
       transform="translate(16.66875,81.75625)">
      <path
         style="fill:#85324c;stroke-width:0.264583"
         d="m 153.11816,32.999947 c -0.91647,-1.161646 -10.76984,-9.318609 -12.19755,-14.228941 1.90341,-4.379295 8.467,-11.0245896 12.2088,-13.6038824 5.56075,5.0724814 14.07546,8.1066924 12.02995,13.7659434 -3.79489,8.935087 -12.0199,14.093919 -12.0412,14.06688 z"
         id="path1426"
         sodipodi:nodetypes="ccccc" />
      <path
         style="fill:#853232;stroke-width:0.264583"
         d="m 110.37077,-16.280115 c -0.11012,-0.550341 12.01797,-12.824057 12.67191,-12.824057 L 152.9633,4.4809717 184.13798,-30.427089 c 0.54004,0 12.71202,12.180934 12.71202,12.72137 0,0.52813 -31.22456,36.637296 -31.68168,36.637296 -12.26754,-13.4900831 -0.009,0.0015 -12.26754,-13.4900831 -11.98017,13.3295121 0,0 -11.98017,13.3295121 z"
         id="path1424"
         sodipodi:nodetypes="ccccscccc" />
      <path
         style="fill:#323267;stroke-width:0.264583"
         d="m 110.65934,53.141025 c 30.2117,-34.264153 0.0661,-0.32084 30.26127,-34.370019 l 12.2172,14.214059 c 0.28626,0.333053 0.005,0.0074 -29.15025,33.628856 -13.32822,-13.472896 0,0 -13.32822,-13.472896 z"
         id="path1422"
         sodipodi:nodetypes="ccscc" />
      <path
         style="fill:#323232;stroke-width:0.264583"
         d="m 153.1431,32.992483 c 12.01626,-14.059416 0,0 12.01626,-14.059416 l 31.3631,35.530874 c 0.14575,0.372732 0,0 -13.29652,13.523025 z"
         id="path1420"
         sodipodi:nodetypes="ccccc" />
    </g>
  </g>
</svg>
