<?xml version="1.0" encoding="UTF-8" standalone="no"?>
<!-- Created with Inkscape (http://www.inkscape.org/) -->

<svg
   width="300mm"
   height="300mm"
   viewBox="0 0 300 300"
   version="1.1"
   id="svg5"
   inkscape:version="1.1 (c68e22c387, 2021-05-23)"
   sodipodi:docname="watching.svg"
   xmlns:inkscape="http://www.inkscape.org/namespaces/inkscape"
   xmlns:sodipodi="http://sodipodi.sourceforge.net/DTD/sodipodi-0.dtd"
   xmlns="http://www.w3.org/2000/svg"
   xmlns:svg="http://www.w3.org/2000/svg">
  <sodipodi:namedview
     id="namedview7"
     pagecolor="#ffffff"
     bordercolor="#666666"
     borderopacity="1.0"
     inkscape:pageshadow="2"
     inkscape:pageopacity="0.0"
     inkscape:pagecheckerboard="0"
     inkscape:document-units="mm"
     showgrid="false"
     inkscape:zoom="0.34698723"
     inkscape:cx="399.15014"
     inkscape:cy="269.46237"
     inkscape:window-width="1920"
     inkscape:window-height="1017"
     inkscape:window-x="1912"
     inkscape:window-y="-8"
     inkscape:window-maximized="1"
     inkscape:current-layer="layer1" />
  <defs
     id="defs2" />
  <g
     inkscape:label="Calque 1"
     inkscape:groupmode="layer"
     id="layer1">
    <path
       style="fill:#000000;stroke-width:0.264583"
       id="path2926"
       d="" />
    <path
       style="fill:#000000;stroke-width:0.264583"
       id="path2906"
       d="" />
    <path
       style="fill:#ffffff;stroke-width:0.590367"
       d="M 66.22022,259.55724 C 50.784865,257.00612 35.396904,245.86025 24.287546,229.18442 -3.9257633,186.83449 -6.6811411,113.95739 18.141246,66.620878 41.37735,22.309471 82.305422,12.178766 112.85927,43.175857 c 7.17308,7.27715 12.43527,14.835065 17.70832,25.4339 21.50541,43.225973 21.50541,104.956273 0,148.182243 -5.27305,10.59883 -10.53524,18.15675 -17.70832,25.4339 -13.571816,13.7687 -30.387258,20.01741 -46.63905,17.33134 z m 0,-76.43719 c 14.319678,-3.89285 25.695142,-15.56267 29.616602,-30.38292 1.357819,-5.13163 1.357819,-14.94087 0,-20.07251 -3.182963,-12.02926 -11.296274,-22.17607 -21.928065,-27.42404 -6.5964,-3.25604 -10.75786,-4.14672 -19.200691,-4.1095 -6.273105,0.0277 -8.058242,0.25796 -11.905735,1.5359 -11.026464,3.66245 -19.950276,11.19674 -24.84673,20.97791 -3.882011,7.75469 -4.237347,9.91228 -3.60158,21.86869 l 0.534533,10.05212 2.866117,5.77351 c 5.843489,11.7711 17.216298,20.32215 30.164166,22.67995 4.096038,0.74591 14.04902,0.25694 18.301383,-0.89911 z M 46.442915,170.87567 c -9.950126,-3.40473 -16.96532,-10.47225 -19.722126,-19.86921 -1.221151,-4.16242 -1.221151,-12.44875 0,-16.61117 2.82524,-9.63017 10.706294,-17.28778 20.862437,-20.27093 2.69868,-0.79268 8.895943,-1.33013 8.895943,-0.7715 0,0.0937 -0.531342,1.21254 -1.180743,2.4863 -2.119053,4.15642 -1.242906,10.3558 1.946885,13.77544 4.753516,5.09605 13.84133,4.84255 18.346702,-0.51179 0.852695,-1.01338 1.711905,-2.48617 1.909376,-3.27291 0.197471,-0.78672 0.539732,-1.43041 0.760631,-1.43041 0.2209,0 1.233022,1.39475 2.249161,3.09943 5.18552,8.69921 5.62125,18.86528 1.208254,28.19003 -2.151183,4.54554 -8.071027,10.71576 -12.591572,13.12415 -6.769125,3.60637 -15.779245,4.4256 -22.684948,2.06257 z m 172.977675,88.45052 c -19.99533,-4.31473 -36.61484,-19.55875 -48.63279,-44.60782 -20.13786,-41.97339 -20.13786,-102.06159 0,-144.03499 14.54475,-30.315627 36.73687,-46.888191 60.62315,-45.271942 21.34927,1.444595 40.12683,16.378641 53.51405,42.560432 16.59271,32.45091 20.89396,79.78915 10.87877,119.72857 -9.32654,37.19326 -29.75916,63.68246 -54.5396,70.70607 -5.75031,1.62984 -16.46251,2.08085 -21.84358,0.91968 z m -1.30344,-75.63035 c 5.6019,-1.13392 14.14201,-5.18978 18.16671,-8.62765 6.87023,-5.86854 12.30289,-14.51759 14.14609,-22.5213 1.25172,-5.4354 1.25172,-14.25662 0,-19.69202 -0.53675,-2.33063 -2.08802,-6.387 -3.44731,-9.01416 -4.45001,-8.60068 -10.39429,-14.43484 -19.00175,-18.6498 -12.03117,-5.891494 -24.44754,-5.848294 -36.89794,0.1283 -4.84355,2.32507 -6.33319,3.4274 -10.92182,8.08198 -8.56885,8.69207 -11.44976,15.7356 -11.95027,29.21737 -0.26019,7.00848 -0.15998,8.19304 0.89833,10.62662 0.65515,1.50636 1.54703,3.93072 1.98196,5.38747 1.22211,4.09337 5.75756,10.51735 10.56253,14.96074 9.74248,9.00938 23.30289,12.76633 36.46347,10.10234 z m -16.00158,-12.36315 c -14.39643,-3.95747 -23.92466,-18.42187 -21.6772,-32.90725 2.15494,-13.88883 14.67457,-25.20296 27.9248,-25.23594 l 2.81625,-0.007 -1.2539,2.45786 c -1.009,1.97781 -1.20973,3.23968 -1.02772,6.46075 0.19211,3.39927 0.4991,4.34178 2.036,6.25006 3.91059,4.85562 9.97759,6.28799 15.43785,3.64473 2.76698,-1.33945 6.03701,-5.22548 6.03701,-7.17424 0,-1.05456 0.11937,-1.01989 1.19438,0.34663 2.22555,2.82935 4.6776,8.95271 5.36589,13.40003 2.25564,14.57431 -7.34721,28.89671 -21.98714,32.79327 -3.88761,1.03472 -11.04764,1.02082 -14.86622,-0.0288 z"
       id="path5127" />
  </g>
</svg>
