<?xml version="1.0" encoding="UTF-8" standalone="no"?>
<!-- Created with Inkscape (http://www.inkscape.org/) -->

<svg
   width="500mm"
   height="500mm"
   viewBox="0 0 500 500"
   version="1.1"
   id="svg5"
   inkscape:version="1.1 (c68e22c387, 2021-05-23)"
   sodipodi:docname="weekgolfblack.svg"
   xmlns:inkscape="http://www.inkscape.org/namespaces/inkscape"
   xmlns:sodipodi="http://sodipodi.sourceforge.net/DTD/sodipodi-0.dtd"
   xmlns="http://www.w3.org/2000/svg"
   xmlns:svg="http://www.w3.org/2000/svg">
  <sodipodi:namedview
     id="namedview7"
     pagecolor="#ffffff"
     bordercolor="#666666"
     borderopacity="1.0"
     inkscape:pageshadow="2"
     inkscape:pageopacity="0.0"
     inkscape:pagecheckerboard="0"
     inkscape:document-units="mm"
     showgrid="false"
     width="300mm"
     inkscape:zoom="0.23716796"
     inkscape:cx="592.40717"
     inkscape:cy="676.73559"
     inkscape:window-width="1920"
     inkscape:window-height="1017"
     inkscape:window-x="1912"
     inkscape:window-y="-8"
     inkscape:window-maximized="1"
     inkscape:current-layer="layer1" />
  <defs
     id="defs2" />
  <g
     inkscape:label="Calque 1"
     inkscape:groupmode="layer"
     id="layer1">
    <path
       style="fill:#000000;stroke-width:0.250182"
       d="m 52.176165,491.14296 c 0.210037,-12.60922 1.091696,-48.50841 1.364034,-55.54042 2.761859,-71.31355 16.891119,-142.1375 41.326219,-207.15075 14.077992,-37.45658 32.075782,-73.8228 52.312342,-105.70192 2.85361,-4.49536 4.75419,-7.36389 10.68169,-16.12178 0.7568,-1.11818 1.78417,-2.53593 2.28303,-3.15055 0.49886,-0.61464 1.08583,-1.4699 1.30437,-1.90061 0.21854,-0.43071 0.71103,-1.14807 1.09444,-1.594135 0.66102,-0.769094 1.70613,-2.221631 4.80591,-6.679483 2.62386,-3.773432 11.78624,-15.661102 11.94689,-15.500438 0.0523,0.05226 -0.0331,0.420229 -0.1896,0.817712 -1.96582,4.991579 -4.66105,15.993782 -5.84614,23.864544 -1.62296,10.77884 -1.83315,27.76954 -0.49211,39.77894 4.59633,41.16137 24.62064,82.49371 55.22856,113.99768 23.93472,24.63543 53.78086,41.80856 82.7259,47.59952 4.12125,0.82453 4.03993,0.79565 3.00218,1.06687 -67.4177,17.62141 -127.80144,47.38641 -178.5049,87.99061 -12.58776,10.08048 -20.74416,17.39283 -32.67582,29.29444 -11.380451,11.35177 -18.415769,19.12255 -27.492967,30.36706 -2.945726,3.64907 -3.953099,5.16743 -7.880735,11.87824 -3.972906,6.78816 -4.912453,8.62113 -7.977505,15.56323 -1.910828,4.32786 -4.021307,9.50131 -4.689956,11.49652 -0.668652,1.99519 -1.376549,3.96538 -1.573112,4.37818 -0.19656,0.4128 -0.473528,1.14458 -0.615481,1.62618 -0.185337,0.62881 -0.224026,-1.16958 -0.137239,-6.37964 z M 344.74645,295.36763 c -7.392,-0.6882 -13.3316,-1.68474 -20.26474,-3.40002 -33.91405,-8.39036 -67.04559,-31.14491 -91.98216,-63.17281 -32.07691,-41.19875 -46.9851,-92.92501 -39.71756,-137.80603 2.78782,-17.216391 8.82353,-33.020485 17.6329,-46.170609 16.77846,-25.045921 42.66718,-40.1340282 73.22434,-42.6755983 7.32205,-0.6090057 19.4971,-0.0885 27.30367,1.1672823 57.8437,9.304858 112.97762,60.248409 134.67979,124.443665 15.44899,45.69827 12.06753,91.18059 -9.21075,123.88993 -6.71424,10.32122 -12.78921,16.66163 -24.80368,25.88739 -2.76626,2.12417 -4.76303,3.40184 -8.06208,5.15864 -11.9653,6.37163 -18.55281,8.88123 -28.66007,10.91836 -7.24432,1.46012 -10.7356,1.79679 -19.63201,1.89308 -4.47201,0.0483 -9.20044,-0.0115 -10.50765,-0.13328 z m 15.3862,-36.52293 c 6.04617,-0.55795 12.63352,-2.068 17.01238,-3.89983 2.75801,-1.15379 9.59711,-4.63319 11.13311,-5.66399 2.02357,-1.35805 8.08818,-6.35713 10.02478,-8.26349 6.88864,-6.7811 13.26028,-18.095 16.49497,-29.28947 1.73576,-6.00715 2.99772,-13.09206 3.51257,-19.7204 0.43017,-5.53835 0.18955,-16.83547 -0.4769,-22.39007 -3.31848,-27.65807 -14.68666,-54.69348 -32.90994,-78.265426 -21.49364,-27.802152 -50.93747,-47.078613 -79.08047,-51.772888 -15.6852,-2.616302 -30.10746,-0.790265 -42.40586,5.3691 -21.39188,10.713626 -34.46476,34.146323 -35.75266,64.085514 -1.39747,32.48593 11.10433,68.42184 33.97237,97.6522 23.11303,29.54351 54.505,48.92945 84.23296,52.01763 3.98908,0.41437 10.57452,0.47965 14.24269,0.14112 z m -42.77464,-73.4301 c -4.9592,-0.80629 -9.06221,-2.21674 -13.21718,-4.5435 -3.44223,-1.92762 -5.90224,-3.85498 -8.95982,-7.01976 -5.52001,-5.71357 -8.94584,-12.45339 -10.26957,-20.20398 -0.67147,-3.93142 -0.54695,-11.26306 0.24892,-14.65801 2.38143,-10.15848 8.00828,-18.39788 16.41635,-24.03853 4.05017,-2.71711 7.97964,-4.39891 13.1479,-5.62728 3.8833,-0.92296 10.4547,-1.09276 14.63565,-0.37819 14.19541,2.42621 25.9755,12.50328 30.37514,25.98381 1.51126,4.63056 1.90136,7.21685 1.88001,12.46364 -0.015,3.66213 -0.12287,4.99395 -0.57792,7.13019 -1.15788,5.4356 -2.9377,9.70254 -5.89452,14.13157 -5.64428,8.4546 -14.22018,14.22942 -24.36703,16.40821 -3.22468,0.69242 -10.19849,0.87528 -13.41793,0.35183 z"
       id="path872" />
  </g>
</svg>
