<?xml version="1.0" encoding="UTF-8" standalone="no"?>
<!-- Created with Inkscape (http://www.inkscape.org/) -->

<svg
   width="123.19358mm"
   height="123.19358mm"
   viewBox="0 0 123.19358 123.19358"
   version="1.1"
   id="svg5"
   inkscape:version="1.1 (c68e22c387, 2021-05-23)"
   sodipodi:docname="wren_white.svg"
   xmlns:inkscape="http://www.inkscape.org/namespaces/inkscape"
   xmlns:sodipodi="http://sodipodi.sourceforge.net/DTD/sodipodi-0.dtd"
   xmlns="http://www.w3.org/2000/svg"
   xmlns:svg="http://www.w3.org/2000/svg">
  <sodipodi:namedview
     id="namedview7"
     pagecolor="#ffffff"
     bordercolor="#666666"
     borderopacity="1.0"
     inkscape:pageshadow="2"
     inkscape:pageopacity="0.0"
     inkscape:pagecheckerboard="0"
     inkscape:document-units="mm"
     showgrid="false"
     inkscape:zoom="0.70710678"
     inkscape:cx="-10.606602"
     inkscape:cy="368.40263"
     inkscape:window-width="1920"
     inkscape:window-height="1017"
     inkscape:window-x="1912"
     inkscape:window-y="-8"
     inkscape:window-maximized="1"
     inkscape:current-layer="layer1" />
  <defs
     id="defs2" />
  <g
     inkscape:label="Calque 1"
     inkscape:groupmode="layer"
     id="layer1"
     transform="translate(-89.134534,-139.65583)">
    <path
       style="fill:#ffffff;stroke-width:0.264583"
       d="m 120.26913,242.25647 c -0.0815,-0.13187 0.52965,-0.45524 1.3581,-0.7186 2.14819,-0.68291 3.26533,-1.27456 2.96798,-1.57191 -0.15515,-0.15515 -0.37724,-0.14683 -0.5906,0.0221 -0.47946,0.37968 -1.78093,0.58208 -1.95297,0.30372 -0.2529,-0.40921 1.51868,-1.65426 3.17691,-2.23272 3.17421,-1.10728 4.00077,-1.37769 4.69353,-1.53554 0.38673,-0.0881 1.4121,-0.75261 2.27858,-1.47662 2.00536,-1.67564 2.14379,-2.16457 2.9771,-10.51461 0.13372,-1.33985 0.31505,-2.7227 0.40297,-3.07299 0.17612,-0.70174 0.3174,-0.611 -2.61171,-1.67762 -0.99337,-0.36173 -2.36259,-0.99922 -3.0427,-1.41664 -0.68011,-0.41741 -1.84048,-1.10005 -2.5786,-1.51697 -1.42928,-0.80732 -3.94373,-2.58649 -6.51749,-4.61163 -1.88324,-1.48181 -6.34349,-6.27561 -6.14211,-6.60144 0.0782,-0.12658 0.36169,-0.23015 0.62991,-0.23015 0.58237,0 0.92779,-0.80961 1.74968,-4.10104 1.17992,-4.72525 1.34645,-5.33027 1.5642,-5.68259 0.23912,-0.38691 0.50732,0.45523 1.46173,4.5899 0.29795,1.2908 0.65733,2.56289 0.79861,2.82688 0.14128,0.26399 0.25688,0.72593 0.25688,1.02654 0,1.29604 2.10964,2.11648 3.2667,1.27042 0.26805,-0.196 1.27763,-2.79751 2.43861,-6.28385 2.36725,-7.10869 2.39722,-7.17508 3.15351,-6.98526 0.74349,0.1866 1.25803,-0.4387 1.14832,-1.39552 l -0.0853,-0.7436 h -3.30729 -3.3073 l -0.0868,0.75984 c -0.0838,0.73289 0.23852,1.32109 0.76152,1.3899 0.13825,0.0182 0.37042,0.048 0.51594,0.0661 0.38777,0.0485 0.32868,0.56009 -0.28247,2.446 -0.30088,0.92846 -0.83421,2.80684 -1.18519,4.17418 -0.35098,1.36733 -0.7021,2.55001 -0.78028,2.62819 -0.24871,0.24871 -0.57983,-0.31576 -0.90476,-1.54238 -0.17346,-0.65485 -0.6191,-2.32172 -0.9903,-3.70417 -0.76797,-2.86012 -0.89872,-4.0939 -0.43429,-4.09814 0.56547,-0.005 0.91655,-0.58193 0.82766,-1.35973 l -0.0868,-0.75984 -3.08841,-0.0744 c -2.90547,-0.07 -3.09852,-0.0425 -3.25898,0.46302 -0.25897,0.81594 0.091,1.57594 0.80878,1.75608 0.3541,0.0889 0.64382,0.23914 0.64382,0.33393 0,0.0948 -0.41677,1.71899 -0.92615,3.60934 -0.50938,1.89034 -1.06063,3.94301 -1.22501,4.56147 -0.16437,0.61847 -0.37493,1.12448 -0.4679,1.12448 -0.093,0 -0.47717,-1.0418 -0.85378,-2.3151 -0.37661,-1.27331 -0.9483,-3.20808 -1.27042,-4.29948 -0.7547,-2.55703 -0.79765,-3.06175 -0.25297,-2.97307 0.61628,0.10034 1.07927,-0.58092 0.98045,-1.4427 l -0.0853,-0.74361 -2.43537,-0.13229 c -1.33946,-0.0728 -2.54621,-0.25135 -2.68167,-0.39687 -0.13546,-0.14552 -0.44532,-2.46724 -0.68858,-5.15938 -0.24326,-2.69213 -0.56901,-5.43057 -0.72389,-6.08542 -0.98307,-4.15645 -3.67193,-10.10913 -5.04798,-11.17537 -0.59868,-0.4639 -6.816052,-2.58296 -7.578436,-2.58296 -1.070491,0 -4.52428,-0.91688 -4.52428,-1.20106 0,-0.73812 3.482137,-0.83306 8.636564,-0.2355 l 3.584172,0.41552 0.98441,-0.65145 c 1.06323,-0.70361 4.50549,-2.36244 5.58027,-2.68913 0.3638,-0.11058 0.78052,-0.2934 0.92604,-0.40627 0.62908,-0.4879 3.34466,-1.06957 5.67828,-1.21627 3.44977,-0.21686 8.37799,0.36566 10.46131,1.23655 0.29104,0.12166 1.24354,0.43408 2.11666,0.69425 3.93358,1.17212 10.39787,5.46452 16.04171,10.65197 3.07644,2.82767 4.63053,3.81918 7.24163,4.62017 1.88333,0.57774 5.08459,1.70411 5.626,1.97953 0.25268,0.12854 0.8166,0.37767 1.25317,0.55363 0.43656,0.17596 1.13082,0.48751 1.54279,0.69233 0.41198,0.20482 0.86397,0.3724 1.00443,0.3724 0.14045,0 1.14545,0.41672 2.23331,0.92604 1.08787,0.50932 2.10046,0.92604 2.2502,0.92604 0.14974,0 1.60564,0.64009 3.23534,1.42242 4.92621,2.3648 6.06864,2.65807 10.39761,2.66911 2.19978,0.006 3.991,-0.11114 4.36562,-0.28455 0.34941,-0.16174 1.11153,-0.44026 1.69361,-0.61894 1.35383,-0.41558 7.1119,-3.13647 9.525,-4.50091 1.66997,-0.94424 6.33813,-3.87199 9.60934,-6.02673 2.87226,-1.89196 3.88879,-2.32206 2.71584,-1.14911 -1.75618,1.75617 0.51064,1.28248 5.10296,-1.06636 1.32167,-0.676 1.57097,-0.4135 0.4864,0.51215 -0.93168,0.79519 -1.05855,1.10542 -0.45203,1.10542 0.78427,0 0.36314,0.43203 -1.68317,1.7267 -4.49023,2.8409 -5.59288,3.62666 -5.59288,3.98556 0,0.48232 0.3651,0.47159 1.35397,-0.0398 0.43918,-0.22712 1.05835,-0.37594 1.37592,-0.33073 0.4244,0.0604 -0.15877,0.49915 -2.20072,1.65563 -1.52797,0.86538 -3.07578,1.79914 -3.43958,2.07502 -1.15028,0.87227 -5.33988,3.83496 -7.61912,5.38789 -2.10988,1.43753 -2.86986,2.21462 -2.51394,2.57054 0.0919,0.0919 0.74255,0.16708 1.4459,0.16708 0.70335,0 1.27882,0.10287 1.27882,0.2286 0,0.12573 -0.47542,0.55806 -1.05649,0.96075 -1.10988,0.76914 -3.97059,3.87043 -3.97059,4.30449 0,0.13923 0.74414,0.36245 1.65365,0.49604 l 1.65364,0.2429 -1.08417,0.57259 c -0.59629,0.31492 -2.1485,1.63996 -3.44935,2.94454 -2.31333,2.31994 -2.38178,2.42502 -3.12169,4.79184 l -0.7565,2.41988 0.57697,0.40413 c 0.60911,0.42664 2.00734,1.88539 2.90033,3.02586 0.29291,0.37409 0.83837,1.34873 1.21213,2.16586 0.94935,2.07548 0.89869,2.83311 -0.12735,1.90456 -1.08115,-0.97843 -5.96602,-2.47656 -8.75904,-2.68629 -2.23547,-0.16786 -1.89234,-0.32858 -5.21448,2.44253 -2.93,2.44402 -7.03959,4.81693 -9.82581,5.6735 -0.65484,0.20132 -1.32605,0.46711 -1.49158,0.59065 -0.5361,0.40011 -5.46499,1.59569 -7.47774,1.81385 -2.02063,0.21901 -2.46615,0.49956 -2.28025,1.4359 0.058,0.29225 0.23986,1.54339 0.40408,2.78032 0.16421,1.23693 0.46491,3.08239 0.66822,4.10104 0.20331,1.01865 0.49542,2.72446 0.64913,3.7907 0.27189,1.88602 1.19015,4.16525 1.90073,4.71789 0.19326,0.15029 0.91647,0.5 1.60715,0.77713 0.69068,0.27712 1.25623,0.60173 1.25677,0.72134 0.001,0.29156 -2.77878,-0.0669 -4.09113,-0.52752 -1.24066,-0.43545 -2.2276,-0.27131 -3.77132,0.6272 -1.13155,0.65861 -1.75753,0.63767 -1.49365,-0.05 0.14877,-0.38769 -0.32239,-0.57088 -1.8877,-0.73393 l -0.79375,-0.0827 1.05833,-0.49499 c 3.20263,-1.4979 3.90371,-1.92865 4.37969,-2.69097 0.60976,-0.97658 0.65735,-2.29975 0.13889,-3.86213 -0.20691,-0.62355 -0.74137,-2.62201 -1.18768,-4.44102 -0.98528,-4.01563 -1.42686,-5.30286 -1.9069,-5.55869 -0.20111,-0.10719 -1.55629,-0.27351 -3.0115,-0.36962 -1.45521,-0.0961 -3.75596,-0.42561 -5.11279,-0.73222 -2.96603,-0.67027 -2.92048,-0.69844 -3.71114,2.29491 -0.65556,2.48184 -1.6802,6.08125 -2.24806,7.89704 -0.22058,0.70536 -0.32992,1.47926 -0.24297,1.71979 0.34998,0.96817 3.03713,3.97999 3.5701,4.00145 0.10594,0.004 1.08271,0.42448 2.17057,0.9338 1.08787,0.50932 2.05397,0.92604 2.14689,0.92604 0.0929,0 0.47166,0.23813 0.84166,0.52917 l 0.67273,0.52917 h -0.6311 c -0.34711,0 -1.46449,-0.18456 -2.48308,-0.41012 -4.335,-0.95997 -7.03629,-1.22317 -9.26032,-0.90229 -2.09502,0.30227 -5.39602,1.14514 -8.46667,2.16187 -1.93758,0.64156 -3.45939,0.86951 -3.65812,0.54796 z m 19.3499,-37.84378 0.0814,-1.12448 h -0.94126 -0.94125 v -3.13552 c 0,-1.72453 0.13503,-3.54023 0.30007,-4.03489 0.62916,-1.88577 3.01631,-3.67389 4.91491,-3.68156 0.5515,-0.002 1.13047,-0.0915 1.28661,-0.19843 0.73899,-0.50602 0.70294,-2.26188 -0.0524,-2.55173 -1.14702,-0.44015 -5.09092,1.22703 -5.85613,2.47553 -0.53177,0.86763 -0.85765,0.63396 -0.85765,-0.61496 0,-1.57041 -0.35105,-1.79222 -2.68751,-1.69813 -1.91114,0.077 -1.94409,0.0903 -2.02797,0.82184 -0.10603,0.92471 0.30848,1.44939 1.22911,1.55579 l 0.70824,0.0819 v 5.42396 5.42396 l -0.92604,0.13229 c -0.82813,0.1183 -0.93511,0.22727 -1.01181,1.03059 -0.0515,0.53885 0.0544,0.98899 0.26458,1.12497 0.19269,0.12467 1.71957,0.19668 3.39306,0.16003 l 3.04271,-0.0666 z m 16.68899,0.96783 c 1.26039,-0.38066 3.84641,-2.37473 3.9443,-3.04145 0.0431,-0.29315 -0.21047,-0.79565 -0.57346,-1.13666 l -0.65061,-0.61122 -1.14633,1.04317 c -1.36163,1.23908 -2.45148,1.65385 -4.34569,1.65385 -2.46036,0 -4.59069,-1.83514 -4.68844,-4.03879 l -0.0497,-1.12058 5.68854,-0.1323 5.68854,-0.13229 0.082,-1.28956 c 0.11458,-1.80238 -0.9873,-4.34571 -2.36102,-5.44967 -3.55729,-2.85871 -9.0626,-1.75142 -11.37347,2.28757 -0.70874,1.23875 -0.8804,1.85646 -0.97454,3.5068 -0.17176,3.0114 0.43266,4.79985 2.19395,6.49171 0.76284,0.73278 1.90783,1.53191 2.54442,1.77586 1.34676,0.51609 4.60661,0.62088 6.02152,0.19356 z m -7.53785,-10.35326 c 0.21489,-1.07442 1.56368,-2.48519 2.75047,-2.87687 1.42237,-0.46942 3.6359,-0.18259 4.44837,0.57642 0.82563,0.7713 1.42804,1.87265 1.42804,2.61076 0,0.52494 -0.14087,0.54231 -4.3987,0.54231 h -4.3987 z m 20.87453,10.08784 c 0.14613,-0.23214 0.18824,-0.73064 0.0936,-1.10778 -0.13442,-0.53558 -0.36018,-0.70385 -1.03114,-0.76855 l -0.85905,-0.0829 -0.0729,-4.16733 c -0.0828,-4.73493 0.0706,-5.3012 1.71078,-6.31486 1.37793,-0.85161 3.50591,-0.85344 4.41032,-0.004 0.97015,0.91142 1.22781,2.45961 1.22781,7.37757 0,3.3289 0.0907,4.58658 0.35723,4.95101 0.39248,0.53676 2.77918,0.87081 4.01162,0.56148 0.60888,-0.15281 0.67962,-0.28745 0.60753,-1.15623 -0.0748,-0.90176 -0.15835,-0.99423 -1.00763,-1.11556 l -0.92604,-0.13229 -0.13229,-4.89479 c -0.10916,-4.03908 -0.21742,-5.06594 -0.61921,-5.8738 -0.83858,-1.68609 -2.82784,-2.85745 -4.85265,-2.85745 -1.7045,0 -3.12984,0.48533 -3.98383,1.3565 -0.93752,0.95637 -1.07633,0.94461 -1.17703,-0.0997 l -0.0829,-0.8599 -2.22629,-0.0776 c -1.60249,-0.0558 -2.28711,0.0183 -2.44334,0.26459 -0.60592,0.95509 0.20817,2.20975 1.26215,1.94521 0.86785,-0.21781 0.92461,0.19388 0.83679,6.06984 l -0.0751,5.02708 -0.99114,0.0821 c -0.78483,0.065 -1.02358,0.21129 -1.14698,0.70296 -0.0857,0.34149 -0.0205,0.87373 0.14486,1.18275 0.2847,0.53196 0.47082,0.55789 3.49993,0.48766 2.5857,-0.06 3.2502,-0.15512 3.46494,-0.49625 z m 42.12423,-32.25397 c -0.0899,-0.14552 0.0291,-0.26459 0.26458,-0.26459 0.23546,0 0.35452,0.11907 0.26458,0.26459 -0.0899,0.14552 -0.209,0.26458 -0.26458,0.26458 -0.0556,0 -0.17465,-0.11906 -0.26458,-0.26458 z m -5.15938,-1.32292 c 0,-0.14552 0.12609,-0.26458 0.2802,-0.26458 0.15411,0 0.20661,0.11906 0.11668,0.26458 -0.0899,0.14552 -0.21603,0.26458 -0.2802,0.26458 -0.0642,0 -0.11668,-0.11906 -0.11668,-0.26458 z"
       id="path4341" />
  </g>
</svg>
