<?xml version="1.0" encoding="UTF-8" standalone="no"?>
<!-- Created with Inkscape (http://www.inkscape.org/) -->

<svg
   width="139.69904mm"
   height="131.49854mm"
   viewBox="0 0 139.69904 131.49854"
   version="1.1"
   id="svg5"
   inkscape:version="1.1 (c68e22c387, 2021-05-23)"
   sodipodi:docname="zsh_white.svg"
   xmlns:inkscape="http://www.inkscape.org/namespaces/inkscape"
   xmlns:sodipodi="http://sodipodi.sourceforge.net/DTD/sodipodi-0.dtd"
   xmlns="http://www.w3.org/2000/svg"
   xmlns:svg="http://www.w3.org/2000/svg">
  <sodipodi:namedview
     id="namedview7"
     pagecolor="#ffffff"
     bordercolor="#666666"
     borderopacity="1.0"
     inkscape:pageshadow="2"
     inkscape:pageopacity="0.0"
     inkscape:pagecheckerboard="0"
     inkscape:document-units="mm"
     showgrid="false"
     fit-margin-top="0"
     fit-margin-left="0"
     fit-margin-right="0"
     fit-margin-bottom="0"
     inkscape:zoom="0.67081229"
     inkscape:cx="248.95191"
     inkscape:cy="399.51564"
     inkscape:window-width="1920"
     inkscape:window-height="1106"
     inkscape:window-x="-11"
     inkscape:window-y="-11"
     inkscape:window-maximized="1"
     inkscape:current-layer="layer1" />
  <defs
     id="defs2" />
  <g
     inkscape:label="Calque 1"
     inkscape:groupmode="layer"
     id="layer1"
     transform="translate(-39.01153,-42.741213)">
    <path
       style="fill:#ffffff;stroke-width:0.264583"
       d="m 54.885559,173.67694 c -3.237896,-0.83055 -6.603586,-2.6835 -9.043548,-4.97884 -3.381608,-3.18117 -5.274015,-6.39076 -6.305959,-10.69512 -0.509199,-2.12393 -0.52183,-3.31437 -0.523639,-49.34957 -0.002,-51.392648 -0.06782,-49.014307 1.460055,-52.774428 2.052224,-5.050552 6.436878,-9.485353 11.458469,-11.589517 4.00459,-1.678016 0.783704,-1.593961 57.987953,-1.513301 l 51.99063,0.07331 1.85208,0.621724 c 7.2156,2.4222 12.27393,7.536722 14.27155,14.430091 l 0.67741,2.337588 v 56.088523 56.08852 l -0.89959,0.89958 c -0.79013,0.79014 -1.06535,0.89959 -2.26209,0.89959 -0.74939,0 -1.71178,-0.18061 -2.13865,-0.40136 -1.5052,-0.77836 -1.57844,-1.21521 -1.58289,-9.44123 -0.002,-4.11819 -0.10136,-7.641 -0.22031,-7.82846 -0.15831,-0.24953 -0.91925,-0.32042 -2.84021,-0.26459 l -2.62397,0.0763 -0.13229,7.80521 c -0.14035,8.28058 -0.16946,8.46636 -1.48922,9.50448 -0.98642,0.77592 -3.19489,0.76334 -4.19571,-0.0239 -1.48699,-1.16966 -1.45882,-0.77421 -1.45882,-20.47843 0,-20.10068 -0.0539,-19.44908 1.69861,-20.51779 1.58,-0.96348 4.09463,-0.38584 4.96523,1.14057 0.25462,0.44642 0.38301,2.59134 0.47991,8.0178 l 0.13229,7.40833 h 2.77812 2.77813 l 0.0671,-37.50468 0.0671,-37.504683 H 108.99376 46.154309 l 0.0039,40.282803 c 0.0043,44.40021 -0.08339,42.00263 1.65635,45.28114 1.103872,2.08023 3.601334,4.58378 5.637332,5.65106 3.271511,1.71496 2.163164,1.65374 29.940453,1.65374 27.459516,0 26.418256,-0.0564 27.512646,1.49142 0.8631,1.22075 0.97417,2.28871 0.37815,3.63611 -0.95871,2.16733 1.14987,2.01805 -28.272474,2.00165 -24.904973,-0.0139 -26.234552,-0.0386 -28.125118,-0.52358 z M 171.73514,64.164194 c -0.0994,-1.636428 -0.4025,-3.628593 -0.69733,-4.583146 -1.0297,-3.333782 -3.74157,-6.548676 -6.84586,-8.11572 -3.39724,-1.71492 0.0764,-1.619344 -56.05113,-1.542206 l -51.006303,0.0701 -1.566358,0.596545 c -2.346204,0.893549 -3.750512,1.804726 -5.464714,3.54575 -2.647317,2.688738 -3.949136,6.138612 -3.949136,10.465377 v 2.457952 h 62.878321 62.87832 z M 117.31155,173.49984 c -1.21914,-1.02584 -1.57182,-2.09283 -1.57182,-4.75534 v -2.31258 l 5.29166,-13.24468 c 2.91042,-7.28457 5.29167,-13.39148 5.29167,-13.57091 0,-0.24381 -0.98611,-0.32649 -3.90261,-0.32723 -4.37067,-0.001 -5.13032,-0.23751 -6.15299,-1.91482 -0.9587,-1.5724 -0.44497,-3.74396 1.10999,-4.69199 0.82457,-0.50273 1.31973,-0.53403 8.46228,-0.53496 l 7.58648,-0.001 0.80927,0.68096 c 0.4451,0.37452 0.94555,1.13584 1.11213,1.69181 0.2946,0.98327 0.13309,1.43559 -5.92123,16.5831 -3.42324,8.56474 -6.16972,15.66155 -6.10329,15.77069 0.0664,0.10914 2.27259,0.19844 4.90258,0.19844 4.33247,0 4.86289,0.0501 5.64476,0.53334 2.13693,1.32069 2.23444,4.57957 0.18078,6.04191 -0.77192,0.54973 -1.04847,0.56857 -8.34401,0.56857 h -7.54563 z m 24.76951,0.32046 c -1.57627,-0.56153 -2.32198,-1.23145 -3.13976,-2.82066 -0.63929,-1.24233 -0.78296,-1.9471 -1.02739,-5.03948 -0.26258,-3.32195 -0.24632,-3.6727 0.21405,-4.61543 0.33026,-0.67631 0.84756,-1.1908 1.53443,-1.52611 0.94029,-0.45902 1.134,-0.47126 2.0927,-0.13229 1.6182,0.57216 2.09116,1.4206 2.30564,4.13608 0.10092,1.27759 0.27512,2.54037 0.38711,2.80617 0.39032,0.92636 2.61361,1.27816 4.31946,0.6835 1.09468,-0.38161 1.36517,-1.39866 1.36579,-5.13553 8e-4,-4.15444 -0.21967,-4.43648 -5.8995,-7.55047 -2.94258,-1.61328 -4.76364,-3.34375 -5.17741,-4.91987 -0.43906,-1.67247 -0.63039,-7.70098 -0.32589,-10.2687 0.6552,-5.52506 2.66155,-7.10911 9.02402,-7.12459 4.49945,-0.0109 6.84382,0.86462 7.90982,2.95416 0.65118,1.27642 1.1835,4.87736 1.03156,6.978 -0.10634,1.47017 -0.20965,1.70438 -1.11966,2.53834 -0.9143,0.83789 -1.1097,0.90665 -2.22072,0.78142 -1.72026,-0.1939 -2.59274,-1.21231 -2.8085,-3.27827 -0.22848,-2.18773 -0.46175,-2.80503 -1.2094,-3.20048 -0.72538,-0.38367 -3.29163,-0.30997 -3.7081,0.1065 -0.47266,0.47265 -0.84528,3.39212 -0.70472,5.52146 0.13639,2.06634 0.16475,2.13895 1.19265,3.05426 0.57911,0.51569 2.40476,1.63586 4.05698,2.48928 5.42783,2.80362 5.96272,3.51097 6.39561,8.45765 0.31463,3.59528 -0.026,8.58833 -0.74781,10.96091 -0.59618,1.95971 -2.16862,3.62287 -3.91579,4.14173 -1.78301,0.52949 -8.34105,0.53111 -9.82517,0.002 z M 52.151683,110.43339 c -0.210447,-0.30045 -0.323496,-0.74694 -0.25122,-0.99219 0.07228,-0.24524 5.389434,-6.69668 11.815904,-14.336526 8.255079,-9.8137 11.862011,-13.915996 12.289321,-13.977075 0.805633,-0.11516 1.414817,0.428707 1.316686,1.175505 -0.04417,0.33611 -5.312087,6.84547 -11.84864,14.64087 C 53.17632,111.60971 53.058894,111.72861 52.151683,110.43339 Z m 16.843153,-0.27329 c -1.485456,-0.27477 -2.409759,-0.79201 -3.579171,-2.00289 -1.248157,-1.29242 -1.798856,-2.62358 -1.798856,-4.34824 0,-2.1709 0.497357,-3.39875 1.975411,-4.876796 1.876195,-1.8762 4.201771,-2.44479 6.806946,-1.66426 1.363308,0.40846 3.205268,2.05374 3.895484,3.479526 0.713116,1.4731 0.739513,4.10385 0.05627,5.6079 -1.252529,2.75724 -4.352091,4.36042 -7.356084,3.80476 z m 2.445202,-4.0657 c 0.644467,-0.26927 1.051012,-0.68399 1.333669,-1.36049 0.493779,-1.18178 0.307243,-2.09934 -0.626311,-3.0808 -0.56039,-0.58914 -0.924994,-0.7276 -1.916004,-0.7276 -1.005652,0 -1.355243,0.13708 -1.96035,0.76867 -1.296049,1.35279 -0.88767,3.69826 0.769725,4.42082 1.026782,0.44764 1.283915,0.44543 2.399271,-0.0206 z m 13.666893,3.94423 c -0.728564,-0.51031 -0.770517,-1.58851 -0.07627,-1.96006 0.322705,-0.17271 3.692734,-0.2739 9.122027,-0.2739 h 8.610252 l 0.40897,0.62418 c 0.50007,0.7632 0.27452,1.45155 -0.58237,1.77734 -0.35343,0.13437 -4.299296,0.24432 -8.768587,0.24432 -6.926434,0 -8.212794,-0.0608 -8.714026,-0.41188 z M 56.495688,94.650364 c -3.350628,-1.18346 -5.183425,-5.53848 -3.706015,-8.8061 2.031338,-4.492754 7.415971,-5.553032 10.835418,-2.13359 1.248327,1.24833 2.108385,3.144 2.108385,4.64713 0,1.59379 -0.863739,3.45922 -2.207727,4.76805 -2.004819,1.95239 -4.367827,2.46482 -7.030061,1.52451 z m 3.757652,-3.80156 c 1.552726,-0.70747 1.921571,-3.06155 0.685798,-4.37697 -1.225476,-1.30446 -3.720971,-0.96662 -4.434956,0.60041 -1.170908,2.56986 1.186283,4.94428 3.749158,3.77656 z"
       id="path872" />
  </g>
</svg>
